<svg width="57.00000000000001" height="57.00000000000001" xmlns="http://www.w3.org/2000/svg" preserveAspectRatio="xMidYMid meet">
 <g>
  <title>frame</title>
  <circle fill="#ffffff" stroke="#000000" stroke-linejoin="null" stroke-linecap="null" cx="28.5" cy="28.5" r="27.5" id="svg_15" stroke-width="0.25"/>
  <circle opacity="0.25" fill="#ffffff" stroke="#000000" stroke-linejoin="null" stroke-linecap="null" cx="28.5" cy="28.5" r="27.75" id="svg_15" stroke-width="0.5"/>
  <g id="svg_4">
   <title>carot</title>
   <path fill="#ff6600" stroke-width="0.2" d="m33.285141,13.67291c-1.442511,-0.574989 -2.163771,-3.73749 -5.529621,2.01251c-3.36586,5.74999 -5.890249,11.212489 -6.851919,17.250001c-0.96167,6.037498 -1.081881,10.493748 -3.24564,13.512501c-2.163771,3.018749 -6.491291,3.59375 -2.163771,3.018749c4.32753,-0.575001 5.04878,-2.012501 7.69338,-2.875c2.6446,-0.862499 7.813589,-7.475002 8.895479,-10.206249c1.081879,-2.731251 4.20731,-11.931261 4.688148,-14.375011c0.480831,-2.44375 1.202091,-3.737501 0.721252,-6.181251c-0.480831,-2.443749 -2.524391,-3.449989 -4.327522,-1.86875" stroke="#ff6600" id="svg_5"/>
   <path fill="none" stroke-width="1.5" d="m33.765968,13.67291c0,0 -1.202087,-5.60625 -9.736929,-6.61249" stroke="#00cc00" id="svg_6"/>
   <path fill="none" stroke-width="2" d="m33.285141,12.81042c2.404179,-5.17501 12.141109,-2.15625 12.381519,-1.15" stroke="#339900" id="svg_7"/>
   <path fill="none" stroke-width="1.5" d="m33.64576,13.52917c-0.721249,-2.3 -12.86237,-1.58125 -13.94425,1.29375" stroke="#009933" id="svg_8"/>
   <path fill="none" stroke-width="1.5" d="m33.886181,12.37917c3.24564,-0.71875 9.015678,0.71875 10.097561,2.012489" stroke="#006600" id="svg_9"/>
   <path fill="none" d="m29.318239,17.41041c2.404181,1.00625 5.529612,0.862499 6.851912,1.00625" stroke="#a65215" id="svg_10"/>
   <path fill="none" d="m26.914049,21.29166c0,0 4.327532,3.018749 7.813589,2.731249" stroke="#a65215" id="svg_11"/>
   <path fill="none" d="m24.380079,27.56041c-0.60104,0 5.2892,2.73126 9.01568,2.15626" stroke="#a65215" id="svg_12"/>
   <path fill="none" d="m21.865271,34.804169c3.36586,0.287502 4.808369,2.012501 9.01568,1.150002" stroke="#a65215" id="svg_13"/>
   <path fill="none" d="m20.542971,39.979172c0.841469,-0.143753 4.68816,1.868748 6.130669,1.4375" stroke="#a65215" id="svg_14"/>
  </g>
 </g>
</svg>