<?xml version="1.0" encoding="UTF-8" standalone="no"?>
<!-- Svg Vector Icons : http://www.onlinewebfonts.com/icon -->

<svg
   xmlns:osb="http://www.openswatchbook.org/uri/2009/osb"
   xmlns:dc="http://purl.org/dc/elements/1.1/"
   xmlns:cc="http://creativecommons.org/ns#"
   xmlns:rdf="http://www.w3.org/1999/02/22-rdf-syntax-ns#"
   xmlns:svg="http://www.w3.org/2000/svg"
   xmlns="http://www.w3.org/2000/svg"
   xmlns:xlink="http://www.w3.org/1999/xlink"
   xmlns:sodipodi="http://sodipodi.sourceforge.net/DTD/sodipodi-0.dtd"
   xmlns:inkscape="http://www.inkscape.org/namespaces/inkscape"
   version="1.1"
   x="0px"
   y="0px"
   viewBox="0 0 1000 1000"
   enable-background="new 0 0 1000 1000"
   xml:space="preserve"
   id="svg4459"
   inkscape:version="0.92.0 r15299"
   sodipodi:docname="CoLab.svg"
   inkscape:export-filename="C:\Users\Micah\Desktop\favicon.png"
   inkscape:export-xdpi="2.8117781"
   inkscape:export-ydpi="2.8117781"
   width="1066.6666"
   height="1066.6666"><defs
     id="defs4471"><linearGradient
       inkscape:collect="always"
       id="linearGradient6049"><stop
         style="stop-color:#c8c8c8;stop-opacity:1;"
         offset="0"
         id="stop6051" /><stop
         style="stop-color:#c8c8c8;stop-opacity:0;"
         offset="1"
         id="stop6053" /></linearGradient><linearGradient
       id="linearGradient4169"
       osb:paint="solid"><stop
         style="stop-color:#c8c8c8;stop-opacity:0.86274511;"
         offset="0"
         id="stop4171" /></linearGradient><linearGradient
       inkscape:collect="always"
       xlink:href="#linearGradient6049"
       id="linearGradient6061"
       x1="995.02625"
       y1="505.02621"
       x2="-66.34166"
       y2="516.11969"
       gradientUnits="userSpaceOnUse"
       gradientTransform="matrix(0.97766972,0,0,0.99553974,13.672399,0.15031893)" /></defs><sodipodi:namedview
     pagecolor="#ffffff"
     bordercolor="#666666"
     borderopacity="1"
     objecttolerance="10"
     gridtolerance="10"
     guidetolerance="10"
     inkscape:pageopacity="0"
     inkscape:pageshadow="2"
     inkscape:window-width="1280"
     inkscape:window-height="666"
     id="namedview4469"
     showgrid="false"
     inkscape:zoom="0.45281252"
     inkscape:cx="887.78465"
     inkscape:cy="515.94201"
     inkscape:window-x="-8"
     inkscape:window-y="-8"
     inkscape:window-maximized="1"
     inkscape:current-layer="svg4459" /><metadata
     id="metadata4461"> Svg Vector Icons : http://www.onlinewebfonts.com/icon <rdf:RDF><cc:Work
     rdf:about=""><dc:format>image/svg+xml</dc:format><dc:type
       rdf:resource="http://purl.org/dc/dcmitype/StillImage" /><dc:title /></cc:Work></rdf:RDF></metadata><ellipse
     style="fill:#ffffff;fill-opacity:1;stroke-width:0.1;stroke-miterlimit:4;stroke-dasharray:none"
     id="path4167-6"
     cx="503.16956"
     cy="503.16959"
     rx="498.63458"
     ry="498.63461" /><ellipse
     style="fill:url(#linearGradient6061);fill-opacity:1;stroke-width:0.09865645;stroke-miterlimit:4;stroke-dasharray:none"
     id="path4167"
     cx="502.50726"
     cy="499.76855"
     rx="487.50003"
     ry="496.41061" /><g
     id="g4463"
     transform="matrix(0.86828565,0,0,0.88222347,10.536554,23.981645)"><g
       transform="matrix(0.1,0,0,-0.1,0,512)"
       id="g4465"><path
         d="m 1017,4992.4 c -417.5,-90 -802.5,-476.9 -890.6,-898.2 -82.3,-398.4 28.7,-775.7 316,-1062.9 377.3,-381.1 871.4,-463.5 1357.9,-229.8 l 162.8,78.5 752.7,-752.7 c 413.7,-413.7 752.7,-758.4 752.7,-766.1 0,-7.7 -40.2,-72.8 -90,-143.6 -111.1,-162.8 -199.2,-352.4 -268.1,-572.7 -47.9,-159 -51.7,-193.4 -51.7,-524.8 0,-329.4 3.8,-365.8 51.7,-526.7 28.7,-93.8 91.9,-252.8 141.7,-350.5 74.7,-151.3 84.3,-182 61.3,-203 -15.3,-15.3 -302.6,-243.2 -637.8,-507.5 l -611,-480.7 -59.4,47.9 c -32.6,26.8 -128.3,84.3 -212.6,124.5 -350.5,174.3 -678,174.3 -1040,0 -304.5,-145.5 -557.3,-467.3 -626.3,-798.7 -176.2,-831.2 563.1,-1568.6 1398.1,-1394.3 392.6,82.3 741.2,402.2 873.3,802.5 80.4,249 63.2,566.9 -47.9,806.3 l -46,101.5 643.5,509.5 643.5,507.5 97.7,-90 c 201.1,-191.5 476.9,-344.7 785.2,-436.7 160.9,-49.8 195.4,-53.6 526.7,-53.6 327.5,0 365.8,3.8 517.1,49.8 90,28.7 176.2,55.5 191.5,61.3 21.1,9.6 90,-107.3 281.5,-471.2 l 252.8,-482.6 -128.3,-136 c -76.6,-82.3 -157.1,-195.4 -201.1,-279.6 -442.4,-871.4 335.2,-1876.9 1294.7,-1673.9 331.3,68.9 653.1,321.8 798.7,626.3 174.3,362 174.3,683.7 0,1045.7 -212.6,446.3 -743.1,720.1 -1225.7,635.9 -57.5,-9.6 -124.5,-23 -145.5,-30.6 -38.3,-9.6 -67,36.4 -296.9,473.1 l -254.7,484.5 65.1,47.9 c 302.6,229.8 605.2,630.1 691.4,917.4 17.2,59.4 32.6,80.4 53.6,74.7 17.2,-3.8 170.4,-36.4 339,-70.9 l 308.4,-65.1 11.5,-136 c 42.1,-496 392.6,-915.5 875.3,-1047.6 181.9,-49.8 505.6,-42.1 670.3,19.2 381.1,137.9 666.5,450.1 766.1,838.9 157.1,614.8 -235.6,1260.2 -861.8,1417.3 -164.7,42.1 -501.8,28.7 -651.2,-26.8 -270,-97.7 -526.7,-314.1 -651.2,-547.8 -36.4,-69 -76.6,-126.4 -90,-126.4 -19.2,0 -457.7,90 -610.9,124.5 -38.3,7.7 -42.1,23 -51.7,291.1 -7.7,229.8 -19.2,316 -59.4,455.8 -141.7,478.8 -453.9,890.6 -863.8,1141.5 -90,55.5 -160.9,109.2 -157.1,120.7 3.8,11.5 70.9,189.6 145.6,394.5 l 137.9,373.5 224.1,1.9 c 247.1,1.9 371.6,32.6 574.6,145.6 147.5,82.4 363.9,302.6 450.1,457.7 199.2,358.1 191.5,814 -21.1,1162.5 -398.4,660.8 -1275.5,771.8 -1825.2,231.7 -241.3,-235.6 -350.5,-496 -350.5,-831.2 0,-279.6 72.8,-490.3 243.2,-714.4 70.9,-93.9 272,-277.7 321.7,-295 11.5,-3.8 -36.4,-162.8 -128.3,-413.7 -111.1,-298.8 -157,-404.1 -176.2,-396.5 -180,68.9 -729.7,59.4 -988.3,-17.2 -216.4,-65.1 -407.9,-153.2 -572.7,-266.2 -70.9,-49.8 -136,-90 -143.6,-90 -7.7,0 -352.4,339 -766.1,752.7 l -752.7,752.7 78.5,162.8 c 233.7,486.5 151.3,980.6 -229.8,1357.9 -288.9,287.1 -673.9,400.1 -1072.3,313.9 z m 601.4,-448.2 c 153.2,-76.6 291.1,-218.3 369.6,-379.2 49.8,-99.6 53.6,-128.3 53.6,-319.8 0,-195.4 -3.8,-218.3 -57.5,-325.6 -72.8,-147.5 -235.6,-310.3 -383,-383 -107.3,-53.6 -130.2,-57.5 -325.6,-57.5 -191.5,0 -220.2,3.8 -319.8,53.6 -160.9,78.5 -302.6,216.4 -381.1,369.6 -63.2,124.5 -65.1,137.9 -65.1,340.9 0,189.6 5.7,224.1 51.7,321.8 51.7,111.1 170.4,254.7 270,325.6 32.6,23 105.3,61.3 164.7,86.2 93.8,40.2 132.1,44 300.7,40.2 176.3,-5.7 205,-11.5 321.8,-72.8 z m 5086.8,5.8 c 593.7,-291.1 595.6,-1107 5.7,-1405.8 -122.6,-63.2 -137.9,-65.1 -339,-65.1 -203,0 -218.3,1.9 -335.2,63.2 -162.8,86.2 -296.9,222.2 -371.5,383 -55.5,116.8 -61.3,143.6 -61.3,319.8 0,174.3 5.7,203 59.4,317.9 72.8,151.3 166.6,260.5 296.9,342.8 141.7,91.9 231.8,114.9 438.6,109.2 162.8,-3.7 197.3,-11.4 306.4,-65 z M 5427.8,1623.5 c 270,-78.5 450.1,-180 653.1,-371.6 204.9,-195.4 339,-415.6 425.2,-704.8 46,-147.5 51.7,-201.1 51.7,-427.1 0,-226 -5.7,-279.6 -51.7,-427.1 -82.4,-273.9 -183.9,-452 -373.5,-653.1 -195.4,-204.9 -415.6,-339 -704.8,-425.2 -147.5,-46 -201.1,-51.7 -427.1,-51.7 -226,0 -279.6,5.7 -427.1,51.7 -289.2,86.2 -509.4,220.2 -704.8,425.2 -189.6,201.2 -291.1,379.3 -373.5,653.2 -46,147.5 -51.7,201.1 -51.7,427.1 0,226 5.7,279.6 51.7,427.1 86.2,289.2 220.2,509.4 425.2,704.8 239.4,226 505.6,358.1 844.6,419.4 162.8,30.6 476.9,7.7 662.7,-47.9 z M 8949.9,81.7 c 136,-42.1 308.3,-155.1 383,-252.8 26.8,-34.5 72.8,-111.1 103.4,-168.5 51.7,-97.7 55.5,-120.7 55.5,-325.6 0,-210.7 -1.9,-226 -61.3,-339 -120.7,-229.8 -337.1,-388.8 -586,-432.8 -327.5,-55.6 -678,132.1 -825.5,444.3 -55.5,116.8 -59.4,141.7 -59.4,327.5 0,185.8 3.8,210.7 59.4,325.6 168.6,356.2 563.2,534.4 930.9,421.3 z M 1626.1,-2128.4 c 160.9,-86.2 275.8,-203 358.1,-367.7 53.6,-105.3 57.5,-128.3 57.5,-325.6 0,-201.1 -1.9,-216.4 -65.1,-339 -243.2,-478.8 -850.4,-588 -1237.2,-222.2 -67,63.2 -128.3,147.5 -168.5,226 -57.5,118.7 -61.3,137.9 -61.3,337.1 0,189.6 5.7,220.2 51.7,316 68.9,139.8 172.4,258.6 293,335.2 159,103.4 245.1,126.4 450.1,118.8 168.5,-5.8 191.4,-11.6 321.7,-78.6 z m 5661.4,-768 c 162.8,-82.3 281.5,-197.3 367.7,-358.1 74.7,-137.9 74.7,-141.7 74.7,-350.5 0,-195.4 -3.8,-218.3 -57.5,-325.6 -74.7,-149.4 -237.5,-314.1 -383,-384.9 -105.3,-51.7 -132.2,-55.5 -325.6,-55.5 -189.6,0 -222.2,5.7 -321.7,51.7 -482.6,226 -611,856.1 -252.8,1239.2 176.2,187.7 337.1,252.8 603.3,245.1 155.1,-5.9 197.2,-13.5 294.9,-61.4 z"
         id="path4467"
         inkscape:connector-curvature="0" /></g></g><path
     style="fill:#ffff00;stroke-width:0.96507353"
     d="m 752.23261,615.03044 c -4.27428,-0.81387 -13.30433,-4.15781 -20.06681,-7.43094 -14.86528,-7.19505 -31.74437,-23.89826 -39.51381,-39.10218 -5.04381,-9.87019 -5.1809,-10.78938 -5.1809,-34.73512 v -24.59665 l 5.98273,-11.02609 c 8.04402,-14.82492 25.35403,-31.47883 40.53521,-38.99881 11.02006,-5.45878 13.39347,-5.969 30.42987,-6.5418 22.23417,-0.7475 32.44236,1.7066 47.88835,11.51264 14.41372,9.15066 24.71887,20.08816 32.636,34.63845 l 6.59035,12.11191 -0.037,22.90035 c -0.0368,22.70961 -0.087,22.99908 -6.04445,34.7578 -17.60633,34.75173 -55.55017,53.68319 -93.21957,46.51044 z"
     id="path4473"
     inkscape:connector-curvature="0" /><path
     style="fill:#ff2a2a;stroke-width:1.00195301"
     d="m 528.41317,208.47704 c -14.97767,-7.45379 -30.90978,-22.86767 -39.01868,-37.74948 l -5.8808,-10.79275 v -25.18 -25.17997 l 5.68343,-10.42444 c 9.50428,-17.432408 21.93234,-29.597799 38.63277,-37.816298 l 14.53979,-7.155187 20.76427,0.1399 20.7643,0.139899 14.13647,6.968204 c 17.21385,8.48514 31.66917,22.898407 40.14806,40.031242 5.52509,11.16434 5.64342,11.86234 5.64342,33.29665 0,21.54781 -0.0912,22.07796 -5.79416,33.60118 -7.5949,15.34666 -25.4831,33.15195 -40.88318,40.69371 -10.86635,5.32147 -11.61488,5.4417 -33.88118,5.4417 -22.74856,0 -22.78031,-0.005 -34.85451,-6.01436 z"
     id="path4475"
     inkscape:connector-curvature="0" /><path
     style="fill:#00ff00;stroke-width:1.15732765"
     d="M 84.139636,213.04676 C 67.22876,203.97464 52.370704,188.55639 43.932004,171.32317 37.227238,157.63092 37.19228,157.44939 37.19228,136.31815 c 0,-21.16125 0.02565,-21.29412 6.809174,-35.19 4.853062,-9.941409 10.098058,-17.233414 18.25733,-25.382657 19.373758,-19.349978 37.414526,-25.674837 66.909146,-23.457454 20.09758,1.510907 35.47088,8.859003 50.81513,24.288495 26.66472,26.812826 32.61704,66.582466 14.96311,99.974026 -7.18355,13.5873 -23.50408,29.15382 -38.44565,36.66929 l -12.83983,6.45834 -23.67477,-0.0508 -23.67473,-0.0508 -12.171554,-6.52966 z"
     id="path4477"
     inkscape:connector-curvature="0" /><path
     style="fill:#00ffff;stroke-width:0.99000728"
     d="m 406.39421,603.14208 c -26.97775,-8.0927 -49.36901,-21.46022 -67.097,-40.05678 -17.68888,-18.55547 -26.54038,-33.60303 -35.43638,-60.24194 -4.01212,-12.01417 -4.2228,-13.99369 -4.27234,-40.14224 -0.0494,-26.07577 0.16448,-28.18372 4.11614,-40.56987 16.68298,-52.29125 55.29418,-89.13818 106.99035,-102.10166 6.15474,-1.54337 15.55471,-3.24704 20.88884,-3.7859 10.96267,-1.10746 36.62401,1.29265 49.85586,4.66305 50.07518,12.75515 89.37134,51.16754 104.75122,102.39549 3.67747,12.24901 4.01726,15.5185 4.01726,38.65552 0,23.18388 -0.3327,26.36943 -4.02157,38.50741 -15.35195,50.51482 -48.26546,84.35774 -98.65044,101.43617 -11.05264,3.74641 -14.03569,4.08101 -40.28567,4.51929 -26.75105,0.44662 -29.05424,0.26179 -40.85627,-3.27854 z"
     id="path4479"
     inkscape:connector-curvature="0" /><path
     style="fill:#ff6600;stroke-width:1.03066754"
     d="m 595.93862,874.57892 c -24.24552,-5.74336 -48.11675,-24.6361 -58.6993,-46.45712 -5.51638,-11.3746 -5.66328,-12.27476 -5.66328,-34.70602 0,-22.8937 0.0357,-23.09852 6.10157,-34.96929 16.53536,-32.35964 52.79999,-51.88571 87.34745,-47.03078 27.83419,3.91147 53.72926,22.21763 66.40899,46.94673 6.07692,11.85169 6.0795,11.86689 6.0795,35.82221 v 23.96548 l -6.05109,11.08783 c -18.97608,34.77082 -59.3155,53.91816 -95.52384,45.34096 z"
     id="path4483"
     inkscape:connector-curvature="0" /><path
     style="fill:#ff00ff;stroke-width:1.03379273"
     d="M 107.55769,804.94089 C 91.599999,803.85999 78.942974,797.89961 65.350187,785.06485 37.030488,758.3244 29.814298,716.86417 47.615384,683.17041 c 6.989787,-13.23021 24.082903,-29.72229 37.498558,-36.18005 11.150781,-5.36751 11.877803,-5.47795 36.060378,-5.47795 h 24.68016 l 11.06325,6.05293 c 14.906,8.1553 29.90372,23.74258 38.27188,39.77622 l 6.76945,12.97053 0.0318,22.5186 c 0.0315,22.17015 -0.0583,22.7045 -5.78965,34.53395 -7.7579,16.01139 -25.94733,34.61937 -41.03875,41.98297 -12.0156,5.86277 -23.57529,7.22099 -47.60501,5.59328 z"
     id="path4481"
     inkscape:connector-curvature="0" /></svg>