<?xml version="1.0" encoding="UTF-8" standalone="no"?>
<!-- Svg Vector Icons : http://www.onlinewebfonts.com/icon -->

<svg
   xmlns:osb="http://www.openswatchbook.org/uri/2009/osb"
   xmlns:dc="http://purl.org/dc/elements/1.1/"
   xmlns:cc="http://creativecommons.org/ns#"
   xmlns:rdf="http://www.w3.org/1999/02/22-rdf-syntax-ns#"
   xmlns:svg="http://www.w3.org/2000/svg"
   xmlns="http://www.w3.org/2000/svg"
   xmlns:xlink="http://www.w3.org/1999/xlink"
   xmlns:sodipodi="http://sodipodi.sourceforge.net/DTD/sodipodi-0.dtd"
   xmlns:inkscape="http://www.inkscape.org/namespaces/inkscape"
   version="1.1"
   x="0px"
   y="0px"
   viewBox="0 0 1000 1000"
   enable-background="new 0 0 1000 1000"
   xml:space="preserve"
   id="svg4459"
   inkscape:version="0.91 r13725"
   sodipodi:docname="network.svg"
   inkscape:export-filename="/home/micah/dev/colab/app/assets/images/favicon.ico"
   inkscape:export-xdpi="2.8117781"
   inkscape:export-ydpi="2.8117781"><defs
     id="defs4471"><linearGradient
       inkscape:collect="always"
       id="linearGradient6049"><stop
         style="stop-color:#c8c8c8;stop-opacity:1;"
         offset="0"
         id="stop6051" /><stop
         style="stop-color:#c8c8c8;stop-opacity:0;"
         offset="1"
         id="stop6053" /></linearGradient><linearGradient
       id="linearGradient4169"
       osb:paint="solid"><stop
         style="stop-color:#c8c8c8;stop-opacity:0.86274511;"
         offset="0"
         id="stop4171" /></linearGradient><linearGradient
       inkscape:collect="always"
       xlink:href="#linearGradient6049"
       id="linearGradient6061"
       x1="995.02625"
       y1="505.02621"
       x2="-66.34166"
       y2="516.11969"
       gradientUnits="userSpaceOnUse"
       gradientTransform="translate(3.8359375e-5,-1.8566514)" /></defs><sodipodi:namedview
     pagecolor="#ffffff"
     bordercolor="#666666"
     borderopacity="1"
     objecttolerance="10"
     gridtolerance="10"
     guidetolerance="10"
     inkscape:pageopacity="0"
     inkscape:pageshadow="2"
     inkscape:window-width="1920"
     inkscape:window-height="1026"
     id="namedview4469"
     showgrid="false"
     inkscape:zoom="0.631"
     inkscape:cx="346.66772"
     inkscape:cy="525.55709"
     inkscape:window-x="0"
     inkscape:window-y="25"
     inkscape:window-maximized="1"
     inkscape:current-layer="svg4459" /><metadata
     id="metadata4461"> Svg Vector Icons : http://www.onlinewebfonts.com/icon <rdf:RDF><cc:Work
     rdf:about=""><dc:format>image/svg+xml</dc:format><dc:type
       rdf:resource="http://purl.org/dc/dcmitype/StillImage" /><dc:title /></cc:Work></rdf:RDF></metadata><g
     id="g6087"
     transform="translate(3.1695648,3.169577)"
     inkscape:export-xdpi="2.8878863"
     inkscape:export-ydpi="2.8878863"><ellipse
       ry="498.63461"
       rx="498.63458"
       cy="500"
       cx="500"
       id="path4167-6"
       style="fill:#ffffff;fill-opacity:1;stroke-width:0.1;stroke-miterlimit:4;stroke-dasharray:none" /><ellipse
       ry="498.63461"
       rx="498.63458"
       cy="500"
       cx="500"
       id="path4167"
       style="fill:url(#linearGradient6061);fill-opacity:1;stroke-width:0.1;stroke-miterlimit:4;stroke-dasharray:none" /></g><g
     id="g6016"
     transform="matrix(0.85009076,0,0,0.86373651,118.49323,84.12656)"
     inkscape:export-xdpi="2.8878863"
     inkscape:export-ydpi="2.8878863"><g
       transform="matrix(0.9492997,0,0,0.9492997,57.781154,16.175621)"
       id="g4463"><g
         id="g4465"
         transform="matrix(0.1,0,0,-0.1,0,512)"><path
           inkscape:connector-curvature="0"
           id="path4467"
           d="m 1017,4992.4 c -417.5,-90 -802.5,-476.9 -890.6,-898.2 -82.3,-398.4 28.7,-775.7 316,-1062.9 377.3,-381.1 871.4,-463.5 1357.9,-229.8 l 162.8,78.5 752.7,-752.7 c 413.7,-413.7 752.7,-758.4 752.7,-766.1 0,-7.7 -40.2,-72.8 -90,-143.6 -111.1,-162.8 -199.2,-352.4 -268.1,-572.7 -47.9,-159 -51.7,-193.4 -51.7,-524.8 0,-329.4 3.8,-365.8 51.7,-526.7 28.7,-93.8 91.9,-252.8 141.7,-350.5 74.7,-151.3 84.3,-182 61.3,-203 -15.3,-15.3 -302.6,-243.2 -637.8,-507.5 l -611,-480.7 -59.4,47.9 c -32.6,26.8 -128.3,84.3 -212.6,124.5 -350.5,174.3 -678,174.3 -1040,0 -304.5,-145.5 -557.3,-467.3 -626.3,-798.7 -176.2,-831.2 563.1,-1568.6 1398.1,-1394.3 392.6,82.3 741.2,402.2 873.3,802.5 80.4,249 63.2,566.9 -47.9,806.3 l -46,101.5 643.5,509.5 643.5,507.5 97.7,-90 c 201.1,-191.5 476.9,-344.7 785.2,-436.7 160.9,-49.8 195.4,-53.6 526.7,-53.6 327.5,0 365.8,3.8 517.1,49.8 90,28.7 176.2,55.5 191.5,61.3 21.1,9.6 90,-107.3 281.5,-471.2 l 252.8,-482.6 -128.3,-136 c -76.6,-82.3 -157.1,-195.4 -201.1,-279.6 -442.4,-871.4 335.2,-1876.9 1294.7,-1673.9 331.3,68.9 653.1,321.8 798.7,626.3 174.3,362 174.3,683.7 0,1045.7 -212.6,446.3 -743.1,720.1 -1225.7,635.9 -57.5,-9.6 -124.5,-23 -145.5,-30.6 -38.3,-9.6 -67,36.4 -296.9,473.1 l -254.7,484.5 65.1,47.9 c 302.6,229.8 605.2,630.1 691.4,917.4 17.2,59.4 32.6,80.4 53.6,74.7 17.2,-3.8 170.4,-36.4 339,-70.9 l 308.4,-65.1 11.5,-136 c 42.1,-496 392.6,-915.5 875.3,-1047.6 181.9,-49.8 505.6,-42.1 670.3,19.2 381.1,137.9 666.5,450.1 766.1,838.9 157.1,614.8 -235.6,1260.2 -861.8,1417.3 -164.7,42.1 -501.8,28.7 -651.2,-26.8 -270,-97.7 -526.7,-314.1 -651.2,-547.8 -36.4,-69 -76.6,-126.4 -90,-126.4 -19.2,0 -457.7,90 -610.9,124.5 -38.3,7.7 -42.1,23 -51.7,291.1 -7.7,229.8 -19.2,316 -59.4,455.8 -141.7,478.8 -453.9,890.6 -863.8,1141.5 -90,55.5 -160.9,109.2 -157.1,120.7 3.8,11.5 70.9,189.6 145.6,394.5 l 137.9,373.5 224.1,1.9 c 247.1,1.9 371.6,32.6 574.6,145.6 147.5,82.4 363.9,302.6 450.1,457.7 199.2,358.1 191.5,814 -21.1,1162.5 -398.4,660.8 -1275.5,771.8 -1825.2,231.7 -241.3,-235.6 -350.5,-496 -350.5,-831.2 0,-279.6 72.8,-490.3 243.2,-714.4 70.9,-93.9 272,-277.7 321.7,-295 11.5,-3.8 -36.4,-162.8 -128.3,-413.7 -111.1,-298.8 -157,-404.1 -176.2,-396.5 -180,68.9 -729.7,59.4 -988.3,-17.2 -216.4,-65.1 -407.9,-153.2 -572.7,-266.2 -70.9,-49.8 -136,-90 -143.6,-90 -7.7,0 -352.4,339 -766.1,752.7 l -752.7,752.7 78.5,162.8 c 233.7,486.5 151.3,980.6 -229.8,1357.9 -288.9,287.1 -673.9,400.1 -1072.3,313.9 z m 601.4,-448.2 c 153.2,-76.6 291.1,-218.3 369.6,-379.2 49.8,-99.6 53.6,-128.3 53.6,-319.8 0,-195.4 -3.8,-218.3 -57.5,-325.6 -72.8,-147.5 -235.6,-310.3 -383,-383 -107.3,-53.6 -130.2,-57.5 -325.6,-57.5 -191.5,0 -220.2,3.8 -319.8,53.6 -160.9,78.5 -302.6,216.4 -381.1,369.6 -63.2,124.5 -65.1,137.9 -65.1,340.9 0,189.6 5.7,224.1 51.7,321.8 51.7,111.1 170.4,254.7 270,325.6 32.6,23 105.3,61.3 164.7,86.2 93.8,40.2 132.1,44 300.7,40.2 176.3,-5.7 205,-11.5 321.8,-72.8 z m 5086.8,5.8 c 593.7,-291.1 595.6,-1107 5.7,-1405.8 -122.6,-63.2 -137.9,-65.1 -339,-65.1 -203,0 -218.3,1.9 -335.2,63.2 -162.8,86.2 -296.9,222.2 -371.5,383 -55.5,116.8 -61.3,143.6 -61.3,319.8 0,174.3 5.7,203 59.4,317.9 72.8,151.3 166.6,260.5 296.9,342.8 141.7,91.9 231.8,114.9 438.6,109.2 162.8,-3.7 197.3,-11.4 306.4,-65 z M 5427.8,1623.5 c 270,-78.5 450.1,-180 653.1,-371.6 204.9,-195.4 339,-415.6 425.2,-704.8 46,-147.5 51.7,-201.1 51.7,-427.1 0,-226 -5.7,-279.6 -51.7,-427.1 -82.4,-273.9 -183.9,-452 -373.5,-653.1 -195.4,-204.9 -415.6,-339 -704.8,-425.2 -147.5,-46 -201.1,-51.7 -427.1,-51.7 -226,0 -279.6,5.7 -427.1,51.7 -289.2,86.2 -509.4,220.2 -704.8,425.2 -189.6,201.2 -291.1,379.3 -373.5,653.2 -46,147.5 -51.7,201.1 -51.7,427.1 0,226 5.7,279.6 51.7,427.1 86.2,289.2 220.2,509.4 425.2,704.8 239.4,226 505.6,358.1 844.6,419.4 162.8,30.6 476.9,7.7 662.7,-47.9 z M 8949.9,81.7 c 136,-42.1 308.3,-155.1 383,-252.8 26.8,-34.5 72.8,-111.1 103.4,-168.5 51.7,-97.7 55.5,-120.7 55.5,-325.6 0,-210.7 -1.9,-226 -61.3,-339 -120.7,-229.8 -337.1,-388.8 -586,-432.8 -327.5,-55.6 -678,132.1 -825.5,444.3 -55.5,116.8 -59.4,141.7 -59.4,327.5 0,185.8 3.8,210.7 59.4,325.6 168.6,356.2 563.2,534.4 930.9,421.3 z M 1626.1,-2128.4 c 160.9,-86.2 275.8,-203 358.1,-367.7 53.6,-105.3 57.5,-128.3 57.5,-325.6 0,-201.1 -1.9,-216.4 -65.1,-339 -243.2,-478.8 -850.4,-588 -1237.2,-222.2 -67,63.2 -128.3,147.5 -168.5,226 -57.5,118.7 -61.3,137.9 -61.3,337.1 0,189.6 5.7,220.2 51.7,316 68.9,139.8 172.4,258.6 293,335.2 159,103.4 245.1,126.4 450.1,118.8 168.5,-5.8 191.4,-11.6 321.7,-78.6 z m 5661.4,-768 c 162.8,-82.3 281.5,-197.3 367.7,-358.1 74.7,-137.9 74.7,-141.7 74.7,-350.5 0,-195.4 -3.8,-218.3 -57.5,-325.6 -74.7,-149.4 -237.5,-314.1 -383,-384.9 -105.3,-51.7 -132.2,-55.5 -325.6,-55.5 -189.6,0 -222.2,5.7 -321.7,51.7 -482.6,226 -611,856.1 -252.8,1239.2 176.2,187.7 337.1,252.8 603.3,245.1 155.1,-5.9 197.2,-13.5 294.9,-61.4 z" /></g></g><path
       inkscape:connector-curvature="0"
       id="path4473"
       d="m 162.32737,854.33095 c -4.42895,-0.84332 -13.78581,-4.30828 -20.79301,-7.69987 -15.40328,-7.45544 -32.89322,-24.76316 -40.94384,-40.51731 -5.226365,-10.22739 -5.368405,-11.17985 -5.368405,-35.9922 l 0,-25.48682 6.199245,-11.42512 c 8.33512,-15.36144 26.2716,-32.61807 42.0022,-40.4102 11.41888,-5.65633 13.87818,-6.18502 31.53114,-6.77854 23.03884,-0.77456 33.61647,1.76836 49.62145,11.92928 14.93536,9.48182 25.61347,20.81515 33.81711,35.89204 l 6.82886,12.55023 -0.0383,23.72913 c -0.0381,23.53149 -0.0902,23.83143 -6.26318,36.01571 -18.24352,36.0094 -57.56056,55.62599 -96.59323,48.19367 z"
       style="fill:#ffff00" /><path
       inkscape:connector-curvature="0"
       id="path4475"
       d="m 148.31853,215.32285 c -14.94846,-7.43925 -30.8495,-22.82309 -38.94261,-37.67591 l -5.86933,-10.77173 0,-25.13089 0,-25.1309 5.67237,-10.40412 c 9.48574,-17.398421 21.88956,-29.540097 38.55745,-37.742573 l 14.51144,-7.141247 20.72381,0.139628 20.72383,0.139627 14.1089,6.954627 c 17.18031,8.468602 31.60744,22.853768 40.06979,39.953208 5.51433,11.14258 5.63241,11.83921 5.63241,33.23175 0,21.50582 -0.0911,22.03493 -5.78284,33.53569 -7.58011,15.31674 -25.43343,33.08732 -40.80349,40.61437 -10.84517,5.3111 -11.59224,5.4311 -33.81514,5.4311 -22.70421,0 -22.73592,-0.006 -34.78659,-6.00263 z"
       style="fill:#ff2a2a" /><path
       inkscape:connector-curvature="0"
       id="path4477"
       d="m 631.21804,202.86317 c -14.612,-7.83885 -27.45025,-21.16114 -34.74179,-36.05166 -5.79332,-11.83092 -5.82352,-11.98779 -5.82352,-30.24644 0,-18.28456 0.0222,-18.39939 5.88355,-30.40625 4.19331,-8.589963 8.7253,-14.890692 15.77541,-21.932128 16.74006,-16.719525 32.32837,-22.184584 57.81351,-20.26863 17.36548,1.305515 30.64893,7.654704 43.90726,20.986695 23.03992,23.167883 28.18307,57.531223 12.92904,86.383513 -6.20702,11.74026 -20.30894,25.19064 -33.21933,31.68446 l -11.09439,5.58039 -20.4564,-0.044 -20.4564,-0.044 -10.51694,-5.64201 z"
       style="fill:#00ff00" /><path
       inkscape:connector-curvature="0"
       id="path4479"
       d="m 493.79343,633.53894 c -27.20151,-8.18897 -49.77849,-21.71552 -67.65352,-40.5333 -17.83559,-18.77622 -26.7605,-34.00278 -35.73029,-60.95859 -4.04539,-12.15711 -4.25782,-14.16018 -4.30778,-40.6198 -0.0499,-26.38596 0.16584,-28.51899 4.15028,-41.05249 16.82136,-52.91332 55.7528,-90.19859 107.87774,-103.31628 6.2058,-1.56175 15.68374,-3.28567 21.0621,-3.83095 11.05359,-1.12064 36.92778,1.30803 50.26936,4.71854 50.49052,12.90687 90.11261,51.77623 105.62006,103.6136 3.70796,12.39473 4.05057,15.70312 4.05057,39.11537 0,23.45968 -0.33545,26.68313 -4.05491,38.9655 -15.47929,51.11576 -48.66578,85.36128 -99.46867,102.6429 -11.14431,3.79097 -14.1521,4.12956 -40.61981,4.57304 -26.97292,0.45193 -29.29521,0.26492 -41.19513,-3.31754 z"
       style="fill:#00ffff" /><path
       inkscape:connector-curvature="0"
       id="path4483"
       d="m 864.82701,642.91233 c -23.52408,-5.57248 -46.68504,-23.90305 -56.95271,-45.07477 -5.35224,-11.03617 -5.49476,-11.90952 -5.49476,-33.67337 0,-22.21249 0.0347,-22.41118 5.92001,-33.92875 16.04336,-31.39677 51.22894,-50.34186 84.74844,-45.63139 27.00592,3.79512 52.13054,21.55655 64.43298,45.54986 5.89608,11.49902 5.89857,11.51377 5.89857,34.75629 l 0,23.25238 -5.87105,10.75792 c -18.41135,33.73619 -57.55052,52.31382 -92.68148,43.99183 z"
       style="fill:#ff6600" /><path
       inkscape:connector-curvature="0"
       id="path4481"
       d="m 702.42766,923.65538 c -15.55946,-1.03729 -27.90063,-6.7571 -41.1542,-19.07386 -27.61297,-25.66122 -34.64907,-65.44814 -17.29222,-97.78202 6.81535,-12.69625 23.4819,-28.52271 36.56277,-34.71984 10.87251,-5.15087 11.58138,-5.25686 35.16048,-5.25686 l 24.06425,0 10.78716,5.80864 c 14.53401,7.82616 29.15747,22.78434 37.31678,38.17086 l 6.60053,12.44705 0.031,21.60976 c 0.0307,21.27537 -0.0568,21.78815 -5.64516,33.14016 -7.56428,15.36518 -25.2998,33.22215 -40.01462,40.28855 -11.71574,5.62618 -22.98695,6.92957 -46.417,5.36756 z"
       style="fill:#ff00ff" /></g></svg>