<?xml version="1.0" encoding="UTF-8" standalone="no"?>
<!DOCTYPE svg PUBLIC "-//W3C//DTD SVG 1.1//EN"
 "http://www.w3.org/Graphics/SVG/1.1/DTD/svg11.dtd">
<!-- Generated by graphviz version 2.38.0 (20140413.2041)
 -->
<!-- Title: controllers_diagram Pages: 1 -->
<svg width="906pt" height="938pt"
 viewBox="0.00 0.00 905.50 937.50" xmlns="http://www.w3.org/2000/svg" xmlns:xlink="http://www.w3.org/1999/xlink">
<g id="graph0" class="graph" transform="scale(1 1) rotate(0) translate(403.5 493.5)">
<title>controllers_diagram</title>
<polygon fill="none" stroke="none" points="-403.5,444 -403.5,-493.5 502,-493.5 502,444 -403.5,444"/>
<!-- _diagram_info -->
<g id="node1" class="node"><title>_diagram_info</title>
<text text-anchor="start" x="8" y="236.4" font-family="Times,serif" font-size="13.00">Controllers diagram</text>
<text text-anchor="start" x="8" y="250.4" font-family="Times,serif" font-size="13.00">Date: Aug 09 2017 &#45; 15:42</text>
<text text-anchor="start" x="8" y="264.4" font-family="Times,serif" font-size="13.00">Migration version: 20170807013336</text>
<text text-anchor="start" x="8" y="278.4" font-family="Times,serif" font-size="13.00">Generated by RailRoady 1.5.2</text>
<text text-anchor="start" x="8" y="292.4" font-family="Times,serif" font-size="13.00">http://railroady.prestonlee.com</text>
</g>
<!-- ProjectsController -->
<g id="node2" class="node"><title>ProjectsController</title>
<path fill="none" stroke="black" d="M-208,139.5C-208,139.5 -116,139.5 -116,139.5 -110,139.5 -104,133.5 -104,127.5 -104,127.5 -104,-151.5 -104,-151.5 -104,-157.5 -110,-163.5 -116,-163.5 -116,-163.5 -208,-163.5 -208,-163.5 -214,-163.5 -220,-157.5 -220,-151.5 -220,-151.5 -220,127.5 -220,127.5 -220,133.5 -214,139.5 -208,139.5"/>
<text text-anchor="middle" x="-162" y="-148.3" font-family="Times,serif" font-size="14.00">ProjectsController</text>
<polyline fill="none" stroke="black" points="-220,-140.5 -104,-140.5 "/>
<text text-anchor="start" x="-212" y="-125.3" font-family="Times,serif" font-size="14.00">activate</text>
<text text-anchor="start" x="-212" y="-110.3" font-family="Times,serif" font-size="14.00">add_group</text>
<text text-anchor="start" x="-212" y="-95.3" font-family="Times,serif" font-size="14.00">create</text>
<text text-anchor="start" x="-212" y="-80.3" font-family="Times,serif" font-size="14.00">destroy</text>
<text text-anchor="start" x="-212" y="-65.3" font-family="Times,serif" font-size="14.00">edit</text>
<text text-anchor="start" x="-212" y="-50.3" font-family="Times,serif" font-size="14.00">index</text>
<text text-anchor="start" x="-212" y="-35.3" font-family="Times,serif" font-size="14.00">new</text>
<text text-anchor="start" x="-212" y="-20.3" font-family="Times,serif" font-size="14.00">remove_group</text>
<text text-anchor="start" x="-212" y="-5.3" font-family="Times,serif" font-size="14.00">rescore_group</text>
<text text-anchor="start" x="-212" y="9.7" font-family="Times,serif" font-size="14.00">rescore_groups</text>
<text text-anchor="start" x="-212" y="24.7" font-family="Times,serif" font-size="14.00">show</text>
<text text-anchor="start" x="-212" y="39.7" font-family="Times,serif" font-size="14.00">update</text>
<polyline fill="none" stroke="black" points="-220,47.5 -104,47.5 "/>
<polyline fill="none" stroke="black" points="-220,71.5 -104,71.5 "/>
<text text-anchor="start" x="-212" y="86.7" font-family="Times,serif" font-size="14.00">_layout</text>
<text text-anchor="start" x="-212" y="101.7" font-family="Times,serif" font-size="14.00">check_admin</text>
<text text-anchor="start" x="-212" y="116.7" font-family="Times,serif" font-size="14.00">project_params</text>
<text text-anchor="start" x="-212" y="131.7" font-family="Times,serif" font-size="14.00">set_project</text>
</g>
<!-- BingoGamesController -->
<g id="node3" class="node"><title>BingoGamesController</title>
<path fill="none" stroke="black" d="M-88,-200.5C-88,-200.5 48,-200.5 48,-200.5 54,-200.5 60,-206.5 60,-212.5 60,-212.5 60,-461.5 60,-461.5 60,-467.5 54,-473.5 48,-473.5 48,-473.5 -88,-473.5 -88,-473.5 -94,-473.5 -100,-467.5 -100,-461.5 -100,-461.5 -100,-212.5 -100,-212.5 -100,-206.5 -94,-200.5 -88,-200.5"/>
<text text-anchor="middle" x="-20" y="-458.3" font-family="Times,serif" font-size="14.00">BingoGamesController</text>
<polyline fill="none" stroke="black" points="-100,-450.5 60,-450.5 "/>
<text text-anchor="start" x="-92" y="-435.3" font-family="Times,serif" font-size="14.00">activate</text>
<text text-anchor="start" x="-92" y="-420.3" font-family="Times,serif" font-size="14.00">create</text>
<text text-anchor="start" x="-92" y="-405.3" font-family="Times,serif" font-size="14.00">destroy</text>
<text text-anchor="start" x="-92" y="-390.3" font-family="Times,serif" font-size="14.00">edit</text>
<text text-anchor="start" x="-92" y="-375.3" font-family="Times,serif" font-size="14.00">index</text>
<text text-anchor="start" x="-92" y="-360.3" font-family="Times,serif" font-size="14.00">new</text>
<text text-anchor="start" x="-92" y="-345.3" font-family="Times,serif" font-size="14.00">review_candidates</text>
<text text-anchor="start" x="-92" y="-330.3" font-family="Times,serif" font-size="14.00">show</text>
<text text-anchor="start" x="-92" y="-315.3" font-family="Times,serif" font-size="14.00">update</text>
<text text-anchor="start" x="-92" y="-300.3" font-family="Times,serif" font-size="14.00">update_review_candidates</text>
<polyline fill="none" stroke="black" points="-100,-292.5 60,-292.5 "/>
<polyline fill="none" stroke="black" points="-100,-268.5 60,-268.5 "/>
<text text-anchor="start" x="-92" y="-253.3" font-family="Times,serif" font-size="14.00">_layout</text>
<text text-anchor="start" x="-92" y="-238.3" font-family="Times,serif" font-size="14.00">bingo_game_params</text>
<text text-anchor="start" x="-92" y="-223.3" font-family="Times,serif" font-size="14.00">check_admin</text>
<text text-anchor="start" x="-92" y="-208.3" font-family="Times,serif" font-size="14.00">set_bingo_game</text>
</g>
<!-- CandidateListsController -->
<g id="node4" class="node"><title>CandidateListsController</title>
<path fill="none" stroke="black" d="M272.5,-260.5C272.5,-260.5 421.5,-260.5 421.5,-260.5 427.5,-260.5 433.5,-266.5 433.5,-272.5 433.5,-272.5 433.5,-475.5 433.5,-475.5 433.5,-481.5 427.5,-487.5 421.5,-487.5 421.5,-487.5 272.5,-487.5 272.5,-487.5 266.5,-487.5 260.5,-481.5 260.5,-475.5 260.5,-475.5 260.5,-272.5 260.5,-272.5 260.5,-266.5 266.5,-260.5 272.5,-260.5"/>
<text text-anchor="middle" x="347" y="-472.3" font-family="Times,serif" font-size="14.00">CandidateListsController</text>
<polyline fill="none" stroke="black" points="260.5,-464.5 433.5,-464.5 "/>
<text text-anchor="start" x="268.5" y="-449.3" font-family="Times,serif" font-size="14.00">create</text>
<text text-anchor="start" x="268.5" y="-434.3" font-family="Times,serif" font-size="14.00">demo_complete</text>
<text text-anchor="start" x="268.5" y="-419.3" font-family="Times,serif" font-size="14.00">edit</text>
<text text-anchor="start" x="268.5" y="-404.3" font-family="Times,serif" font-size="14.00">list_stats</text>
<text text-anchor="start" x="268.5" y="-389.3" font-family="Times,serif" font-size="14.00">request_collaboration</text>
<text text-anchor="start" x="268.5" y="-374.3" font-family="Times,serif" font-size="14.00">show</text>
<text text-anchor="start" x="268.5" y="-359.3" font-family="Times,serif" font-size="14.00">update</text>
<polyline fill="none" stroke="black" points="260.5,-351.5 433.5,-351.5 "/>
<text text-anchor="start" x="268.5" y="-336.3" font-family="Times,serif" font-size="14.00">merge_to_group_list</text>
<polyline fill="none" stroke="black" points="260.5,-328.5 433.5,-328.5 "/>
<text text-anchor="start" x="268.5" y="-313.3" font-family="Times,serif" font-size="14.00">_layout</text>
<text text-anchor="start" x="268.5" y="-298.3" font-family="Times,serif" font-size="14.00">candidate_list_params</text>
<text text-anchor="start" x="268.5" y="-283.3" font-family="Times,serif" font-size="14.00">merge_individuals_to_group</text>
<text text-anchor="start" x="268.5" y="-268.3" font-family="Times,serif" font-size="14.00">set_candidate_list</text>
</g>
<!-- CoursesController -->
<g id="node5" class="node"><title>CoursesController</title>
<path fill="none" stroke="black" d="M-48,179.5C-48,179.5 44,179.5 44,179.5 50,179.5 56,173.5 56,167.5 56,167.5 56,-141.5 56,-141.5 56,-147.5 50,-153.5 44,-153.5 44,-153.5 -48,-153.5 -48,-153.5 -54,-153.5 -60,-147.5 -60,-141.5 -60,-141.5 -60,167.5 -60,167.5 -60,173.5 -54,179.5 -48,179.5"/>
<text text-anchor="middle" x="-2" y="-138.3" font-family="Times,serif" font-size="14.00">CoursesController</text>
<polyline fill="none" stroke="black" points="-60,-130.5 56,-130.5 "/>
<text text-anchor="start" x="-52" y="-115.3" font-family="Times,serif" font-size="14.00">accept_roster</text>
<text text-anchor="start" x="-52" y="-100.3" font-family="Times,serif" font-size="14.00">add_instructors</text>
<text text-anchor="start" x="-52" y="-85.3" font-family="Times,serif" font-size="14.00">add_students</text>
<text text-anchor="start" x="-52" y="-70.3" font-family="Times,serif" font-size="14.00">create</text>
<text text-anchor="start" x="-52" y="-55.3" font-family="Times,serif" font-size="14.00">decline_roster</text>
<text text-anchor="start" x="-52" y="-40.3" font-family="Times,serif" font-size="14.00">destroy</text>
<text text-anchor="start" x="-52" y="-25.3" font-family="Times,serif" font-size="14.00">drop_student</text>
<text text-anchor="start" x="-52" y="-10.3" font-family="Times,serif" font-size="14.00">edit</text>
<text text-anchor="start" x="-52" y="4.7" font-family="Times,serif" font-size="14.00">index</text>
<text text-anchor="start" x="-52" y="19.7" font-family="Times,serif" font-size="14.00">new</text>
<text text-anchor="start" x="-52" y="34.7" font-family="Times,serif" font-size="14.00">re_invite_student</text>
<text text-anchor="start" x="-52" y="49.7" font-family="Times,serif" font-size="14.00">remove_instructor</text>
<text text-anchor="start" x="-52" y="64.7" font-family="Times,serif" font-size="14.00">show</text>
<text text-anchor="start" x="-52" y="79.7" font-family="Times,serif" font-size="14.00">update</text>
<polyline fill="none" stroke="black" points="-60,87.5 56,87.5 "/>
<polyline fill="none" stroke="black" points="-60,111.5 56,111.5 "/>
<text text-anchor="start" x="-52" y="126.7" font-family="Times,serif" font-size="14.00">_layout</text>
<text text-anchor="start" x="-52" y="141.7" font-family="Times,serif" font-size="14.00">check_admin</text>
<text text-anchor="start" x="-52" y="156.7" font-family="Times,serif" font-size="14.00">course_params</text>
<text text-anchor="start" x="-52" y="171.7" font-family="Times,serif" font-size="14.00">set_course</text>
</g>
<!-- ApplicationController -->
<g id="node6" class="node"><title>ApplicationController</title>
<path fill="none" stroke="black" d="M292,-61C292,-61 462,-61 462,-61 468,-61 474,-67 474,-73 474,-73 474,-157 474,-157 474,-163 468,-169 462,-169 462,-169 292,-169 292,-169 286,-169 280,-163 280,-157 280,-157 280,-73 280,-73 280,-67 286,-61 292,-61"/>
<text text-anchor="middle" x="377" y="-153.8" font-family="Times,serif" font-size="14.00">ApplicationController</text>
<polyline fill="none" stroke="black" points="280,-146 474,-146 "/>
<polyline fill="none" stroke="black" points="280,-122 474,-122 "/>
<text text-anchor="start" x="288" y="-106.8" font-family="Times,serif" font-size="14.00">configure_permitted_parameters</text>
<text text-anchor="start" x="288" y="-91.8" font-family="Times,serif" font-size="14.00">set_locale</text>
<polyline fill="none" stroke="black" points="280,-84 474,-84 "/>
<text text-anchor="start" x="288" y="-68.8" font-family="Times,serif" font-size="14.00">_layout</text>
</g>
<!-- RegistrationsController -->
<g id="node7" class="node"><title>RegistrationsController</title>
<path fill="none" stroke="black" d="M-328,339C-328,339 -208,339 -208,339 -202,339 -196,333 -196,327 -196,327 -196,199 -196,199 -196,193 -202,187 -208,187 -208,187 -328,187 -328,187 -334,187 -340,193 -340,199 -340,199 -340,327 -340,327 -340,333 -334,339 -328,339"/>
<text text-anchor="middle" x="-268" y="202.2" font-family="Times,serif" font-size="14.00">RegistrationsController</text>
<polyline fill="none" stroke="black" points="-340,210 -196,210 "/>
<text text-anchor="start" x="-332" y="225.2" font-family="Times,serif" font-size="14.00">add_email</text>
<text text-anchor="start" x="-332" y="240.2" font-family="Times,serif" font-size="14.00">initiate_password_reset</text>
<text text-anchor="start" x="-332" y="255.2" font-family="Times,serif" font-size="14.00">remove_email</text>
<text text-anchor="start" x="-332" y="270.2" font-family="Times,serif" font-size="14.00">set_primary_email</text>
<polyline fill="none" stroke="black" points="-340,278 -196,278 "/>
<text text-anchor="start" x="-332" y="293.2" font-family="Times,serif" font-size="14.00">update_resource</text>
<polyline fill="none" stroke="black" points="-340,301 -196,301 "/>
<text text-anchor="start" x="-332" y="316.2" font-family="Times,serif" font-size="14.00">_layout</text>
<text text-anchor="start" x="-332" y="331.2" font-family="Times,serif" font-size="14.00">set_email</text>
</g>
<!-- ExperiencesController -->
<g id="node8" class="node"><title>ExperiencesController</title>
<path fill="none" stroke="black" d="M112,99C112,99 226,99 226,99 232,99 238,93 238,87 238,87 238,-207 238,-207 238,-213 232,-219 226,-219 226,-219 112,-219 112,-219 106,-219 100,-213 100,-207 100,-207 100,87 100,87 100,93 106,99 112,99"/>
<text text-anchor="middle" x="169" y="-203.8" font-family="Times,serif" font-size="14.00">ExperiencesController</text>
<polyline fill="none" stroke="black" points="100,-196 238,-196 "/>
<text text-anchor="start" x="108" y="-180.8" font-family="Times,serif" font-size="14.00">activate</text>
<text text-anchor="start" x="108" y="-165.8" font-family="Times,serif" font-size="14.00">create</text>
<text text-anchor="start" x="108" y="-150.8" font-family="Times,serif" font-size="14.00">destroy</text>
<text text-anchor="start" x="108" y="-135.8" font-family="Times,serif" font-size="14.00">diagnose</text>
<text text-anchor="start" x="108" y="-120.8" font-family="Times,serif" font-size="14.00">edit</text>
<text text-anchor="start" x="108" y="-105.8" font-family="Times,serif" font-size="14.00">index</text>
<text text-anchor="start" x="108" y="-90.8" font-family="Times,serif" font-size="14.00">new</text>
<text text-anchor="start" x="108" y="-75.8" font-family="Times,serif" font-size="14.00">next</text>
<text text-anchor="start" x="108" y="-60.8" font-family="Times,serif" font-size="14.00">react</text>
<text text-anchor="start" x="108" y="-45.8" font-family="Times,serif" font-size="14.00">show</text>
<text text-anchor="start" x="108" y="-30.8" font-family="Times,serif" font-size="14.00">update</text>
<polyline fill="none" stroke="black" points="100,-23 238,-23 "/>
<polyline fill="none" stroke="black" points="100,1 238,1 "/>
<text text-anchor="start" x="108" y="16.2" font-family="Times,serif" font-size="14.00">_layout</text>
<text text-anchor="start" x="108" y="31.2" font-family="Times,serif" font-size="14.00">check_admin</text>
<text text-anchor="start" x="108" y="46.2" font-family="Times,serif" font-size="14.00">diagnosis_params</text>
<text text-anchor="start" x="108" y="61.2" font-family="Times,serif" font-size="14.00">experience_params</text>
<text text-anchor="start" x="108" y="76.2" font-family="Times,serif" font-size="14.00">reaction_params</text>
<text text-anchor="start" x="108" y="91.2" font-family="Times,serif" font-size="14.00">set_experience</text>
</g>
<!-- Users::OmniauthCallbacksController -->
<g id="node9" class="node"><title>Users::OmniauthCallbacksController</title>
<path fill="none" stroke="black" d="M292,79C292,79 486,79 486,79 492,79 498,73 498,67 498,67 498,-17 498,-17 498,-23 492,-29 486,-29 486,-29 292,-29 292,-29 286,-29 280,-23 280,-17 280,-17 280,67 280,67 280,73 286,79 292,79"/>
<text text-anchor="middle" x="389" y="-13.8" font-family="Times,serif" font-size="14.00">Users::OmniauthCallbacksController</text>
<polyline fill="none" stroke="black" points="280,-6 498,-6 "/>
<text text-anchor="start" x="288" y="9.2" font-family="Times,serif" font-size="14.00">failure</text>
<text text-anchor="start" x="288" y="24.2" font-family="Times,serif" font-size="14.00">google_oauth2</text>
<polyline fill="none" stroke="black" points="280,32 498,32 "/>
<polyline fill="none" stroke="black" points="280,56 498,56 "/>
<text text-anchor="start" x="288" y="71.2" font-family="Times,serif" font-size="14.00">_layout</text>
</g>
<!-- HomeController -->
<g id="node10" class="node"><title>HomeController</title>
<path fill="none" stroke="black" d="M-387.5,-1C-387.5,-1 -274.5,-1 -274.5,-1 -268.5,-1 -262.5,-7 -262.5,-13 -262.5,-13 -262.5,-127 -262.5,-127 -262.5,-133 -268.5,-139 -274.5,-139 -274.5,-139 -387.5,-139 -387.5,-139 -393.5,-139 -399.5,-133 -399.5,-127 -399.5,-127 -399.5,-13 -399.5,-13 -399.5,-7 -393.5,-1 -387.5,-1"/>
<text text-anchor="middle" x="-331" y="-123.8" font-family="Times,serif" font-size="14.00">HomeController</text>
<polyline fill="none" stroke="black" points="-399.5,-116 -262.5,-116 "/>
<text text-anchor="start" x="-391.5" y="-100.8" font-family="Times,serif" font-size="14.00">check_diversity_score</text>
<text text-anchor="start" x="-391.5" y="-85.8" font-family="Times,serif" font-size="14.00">demo_start</text>
<text text-anchor="start" x="-391.5" y="-70.8" font-family="Times,serif" font-size="14.00">index</text>
<text text-anchor="start" x="-391.5" y="-55.8" font-family="Times,serif" font-size="14.00">states_for_country</text>
<polyline fill="none" stroke="black" points="-399.5,-48 -262.5,-48 "/>
<polyline fill="none" stroke="black" points="-399.5,-24 -262.5,-24 "/>
<text text-anchor="start" x="-391.5" y="-8.8" font-family="Times,serif" font-size="14.00">_layout</text>
</g>
<!-- InstallmentsController -->
<g id="node11" class="node"><title>InstallmentsController</title>
<path fill="none" stroke="black" d="M-267.5,-280C-267.5,-280 -152.5,-280 -152.5,-280 -146.5,-280 -140.5,-286 -140.5,-292 -140.5,-292 -140.5,-436 -140.5,-436 -140.5,-442 -146.5,-448 -152.5,-448 -152.5,-448 -267.5,-448 -267.5,-448 -273.5,-448 -279.5,-442 -279.5,-436 -279.5,-436 -279.5,-292 -279.5,-292 -279.5,-286 -273.5,-280 -267.5,-280"/>
<text text-anchor="middle" x="-210" y="-432.8" font-family="Times,serif" font-size="14.00">InstallmentsController</text>
<polyline fill="none" stroke="black" points="-279.5,-425 -140.5,-425 "/>
<text text-anchor="start" x="-271.5" y="-409.8" font-family="Times,serif" font-size="14.00">create</text>
<text text-anchor="start" x="-271.5" y="-394.8" font-family="Times,serif" font-size="14.00">demo_complete</text>
<text text-anchor="start" x="-271.5" y="-379.8" font-family="Times,serif" font-size="14.00">edit</text>
<text text-anchor="start" x="-271.5" y="-364.8" font-family="Times,serif" font-size="14.00">new</text>
<text text-anchor="start" x="-271.5" y="-349.8" font-family="Times,serif" font-size="14.00">update</text>
<polyline fill="none" stroke="black" points="-279.5,-342 -140.5,-342 "/>
<polyline fill="none" stroke="black" points="-279.5,-318 -140.5,-318 "/>
<text text-anchor="start" x="-271.5" y="-302.8" font-family="Times,serif" font-size="14.00">_layout</text>
<text text-anchor="start" x="-271.5" y="-287.8" font-family="Times,serif" font-size="14.00">i_params</text>
</g>
<!-- SchoolsController -->
<g id="node12" class="node"><title>SchoolsController</title>
<path fill="none" stroke="black" d="M111.5,-261C111.5,-261 202.5,-261 202.5,-261 208.5,-261 214.5,-267 214.5,-273 214.5,-273 214.5,-477 214.5,-477 214.5,-483 208.5,-489 202.5,-489 202.5,-489 111.5,-489 111.5,-489 105.5,-489 99.5,-483 99.5,-477 99.5,-477 99.5,-273 99.5,-273 99.5,-267 105.5,-261 111.5,-261"/>
<text text-anchor="middle" x="157" y="-473.8" font-family="Times,serif" font-size="14.00">SchoolsController</text>
<polyline fill="none" stroke="black" points="99.5,-466 214.5,-466 "/>
<text text-anchor="start" x="107.5" y="-450.8" font-family="Times,serif" font-size="14.00">create</text>
<text text-anchor="start" x="107.5" y="-435.8" font-family="Times,serif" font-size="14.00">destroy</text>
<text text-anchor="start" x="107.5" y="-420.8" font-family="Times,serif" font-size="14.00">edit</text>
<text text-anchor="start" x="107.5" y="-405.8" font-family="Times,serif" font-size="14.00">index</text>
<text text-anchor="start" x="107.5" y="-390.8" font-family="Times,serif" font-size="14.00">new</text>
<text text-anchor="start" x="107.5" y="-375.8" font-family="Times,serif" font-size="14.00">show</text>
<text text-anchor="start" x="107.5" y="-360.8" font-family="Times,serif" font-size="14.00">update</text>
<polyline fill="none" stroke="black" points="99.5,-353 214.5,-353 "/>
<polyline fill="none" stroke="black" points="99.5,-329 214.5,-329 "/>
<text text-anchor="start" x="107.5" y="-313.8" font-family="Times,serif" font-size="14.00">_layout</text>
<text text-anchor="start" x="107.5" y="-298.8" font-family="Times,serif" font-size="14.00">check_admin</text>
<text text-anchor="start" x="107.5" y="-283.8" font-family="Times,serif" font-size="14.00">school_params</text>
<text text-anchor="start" x="107.5" y="-268.8" font-family="Times,serif" font-size="14.00">set_school</text>
</g>
<!-- ConsentLogsController -->
<g id="node13" class="node"><title>ConsentLogsController</title>
<path fill="none" stroke="black" d="M272.5,439.5C272.5,439.5 391.5,439.5 391.5,439.5 397.5,439.5 403.5,433.5 403.5,427.5 403.5,427.5 403.5,328.5 403.5,328.5 403.5,322.5 397.5,316.5 391.5,316.5 391.5,316.5 272.5,316.5 272.5,316.5 266.5,316.5 260.5,322.5 260.5,328.5 260.5,328.5 260.5,427.5 260.5,427.5 260.5,433.5 266.5,439.5 272.5,439.5"/>
<text text-anchor="middle" x="332" y="331.7" font-family="Times,serif" font-size="14.00">ConsentLogsController</text>
<polyline fill="none" stroke="black" points="260.5,339.5 403.5,339.5 "/>
<text text-anchor="start" x="268.5" y="354.7" font-family="Times,serif" font-size="14.00">edit</text>
<text text-anchor="start" x="268.5" y="369.7" font-family="Times,serif" font-size="14.00">update</text>
<polyline fill="none" stroke="black" points="260.5,377.5 403.5,377.5 "/>
<polyline fill="none" stroke="black" points="260.5,401.5 403.5,401.5 "/>
<text text-anchor="start" x="268.5" y="416.7" font-family="Times,serif" font-size="14.00">_layout</text>
<text text-anchor="start" x="268.5" y="431.7" font-family="Times,serif" font-size="14.00">cl_params</text>
</g>
<!-- GraphingController -->
<g id="node14" class="node"><title>GraphingController</title>
<path fill="none" stroke="black" d="M292.5,280C292.5,280 443.5,280 443.5,280 449.5,280 455.5,274 455.5,268 455.5,268 455.5,124 455.5,124 455.5,118 449.5,112 443.5,112 443.5,112 292.5,112 292.5,112 286.5,112 280.5,118 280.5,124 280.5,124 280.5,268 280.5,268 280.5,274 286.5,280 292.5,280"/>
<text text-anchor="middle" x="368" y="127.2" font-family="Times,serif" font-size="14.00">GraphingController</text>
<polyline fill="none" stroke="black" points="280.5,135 455.5,135 "/>
<text text-anchor="start" x="288.5" y="150.2" font-family="Times,serif" font-size="14.00">data</text>
<text text-anchor="start" x="288.5" y="165.2" font-family="Times,serif" font-size="14.00">index</text>
<text text-anchor="start" x="288.5" y="180.2" font-family="Times,serif" font-size="14.00">individual_summary_data</text>
<text text-anchor="start" x="288.5" y="195.2" font-family="Times,serif" font-size="14.00">pull_and_organise_user_data</text>
<text text-anchor="start" x="288.5" y="210.2" font-family="Times,serif" font-size="14.00">raw_data</text>
<text text-anchor="start" x="288.5" y="225.2" font-family="Times,serif" font-size="14.00">subjects</text>
<polyline fill="none" stroke="black" points="280.5,233 455.5,233 "/>
<polyline fill="none" stroke="black" points="280.5,257 455.5,257 "/>
<text text-anchor="start" x="288.5" y="272.2" font-family="Times,serif" font-size="14.00">_layout</text>
</g>
</g>
</svg>
