<?xml version="1.0" encoding="UTF-8" standalone="no"?>
<!DOCTYPE svg PUBLIC "-//W3C//DTD SVG 1.1//EN"
 "http://www.w3.org/Graphics/SVG/1.1/DTD/svg11.dtd">
<!-- Generated by graphviz version 2.40.1 (20161225.0304)
 -->
<!-- Title: controllers_diagram Pages: 1 -->
<svg width="906pt" height="1035pt"
 viewBox="0.00 0.00 905.53 1035.00" xmlns="http://www.w3.org/2000/svg" xmlns:xlink="http://www.w3.org/1999/xlink">
<g id="graph0" class="graph" transform="scale(1 1) rotate(0) translate(4 1031)">
<title>controllers_diagram</title>
<polygon fill="transparent" stroke="transparent" points="-4,4 -4,-1031 901.5313,-1031 901.5313,4 -4,4"/>
<!-- _diagram_info -->
<g id="node1" class="node">
<title>_diagram_info</title>
<text text-anchor="start" x="688" y="-98.6" font-family="Times,serif" font-size="13.00" fill="#000000">Controllers diagram</text>
<text text-anchor="start" x="688" y="-85.6" font-family="Times,serif" font-size="13.00" fill="#000000">Date: May 24 2019 &#45; 14:14</text>
<text text-anchor="start" x="688" y="-72.6" font-family="Times,serif" font-size="13.00" fill="#000000">Migration version: 20190523014532</text>
<text text-anchor="start" x="688" y="-59.6" font-family="Times,serif" font-size="13.00" fill="#000000">Generated by RailRoady 1.5.3</text>
<text text-anchor="start" x="688" y="-46.6" font-family="Times,serif" font-size="13.00" fill="#000000">http://railroady.prestonlee.com</text>
</g>
<!-- ApplicationController -->
<g id="node2" class="node">
<title>ApplicationController</title>
<path fill="none" stroke="#000000" d="M452,-20.5C452,-20.5 625.9316,-20.5 625.9316,-20.5 631.9316,-20.5 637.9316,-26.5 637.9316,-32.5 637.9316,-32.5 637.9316,-112.5 637.9316,-112.5 637.9316,-118.5 631.9316,-124.5 625.9316,-124.5 625.9316,-124.5 452,-124.5 452,-124.5 446,-124.5 440,-118.5 440,-112.5 440,-112.5 440,-32.5 440,-32.5 440,-26.5 446,-20.5 452,-20.5"/>
<text text-anchor="middle" x="538.9658" y="-109.3" font-family="Times,serif" font-size="14.00" fill="#000000">ApplicationController</text>
<polyline fill="none" stroke="#000000" points="440,-102.5 637.9316,-102.5 "/>
<polyline fill="none" stroke="#000000" points="440,-78.5 637.9316,-78.5 "/>
<text text-anchor="start" x="448" y="-63.3" font-family="Times,serif" font-size="14.00" fill="#000000">configure_permitted_parameters</text>
<text text-anchor="start" x="448" y="-49.3" font-family="Times,serif" font-size="14.00" fill="#000000">set_locale</text>
<polyline fill="none" stroke="#000000" points="440,-42.5 637.9316,-42.5 "/>
<text text-anchor="start" x="448" y="-27.3" font-family="Times,serif" font-size="14.00" fill="#000000">_layout</text>
</g>
<!-- SchoolsController -->
<g id="node3" class="node">
<title>SchoolsController</title>
<path fill="none" stroke="#000000" d="M92,-100.5C92,-100.5 185.8828,-100.5 185.8828,-100.5 191.8828,-100.5 197.8828,-106.5 197.8828,-112.5 197.8828,-112.5 197.8828,-304.5 197.8828,-304.5 197.8828,-310.5 191.8828,-316.5 185.8828,-316.5 185.8828,-316.5 92,-316.5 92,-316.5 86,-316.5 80,-310.5 80,-304.5 80,-304.5 80,-112.5 80,-112.5 80,-106.5 86,-100.5 92,-100.5"/>
<text text-anchor="middle" x="138.9414" y="-301.3" font-family="Times,serif" font-size="14.00" fill="#000000">SchoolsController</text>
<polyline fill="none" stroke="#000000" points="80,-294.5 197.8828,-294.5 "/>
<text text-anchor="start" x="88" y="-279.3" font-family="Times,serif" font-size="14.00" fill="#000000">create</text>
<text text-anchor="start" x="88" y="-265.3" font-family="Times,serif" font-size="14.00" fill="#000000">destroy</text>
<text text-anchor="start" x="88" y="-251.3" font-family="Times,serif" font-size="14.00" fill="#000000">edit</text>
<text text-anchor="start" x="88" y="-237.3" font-family="Times,serif" font-size="14.00" fill="#000000">index</text>
<text text-anchor="start" x="88" y="-223.3" font-family="Times,serif" font-size="14.00" fill="#000000">new</text>
<text text-anchor="start" x="88" y="-209.3" font-family="Times,serif" font-size="14.00" fill="#000000">show</text>
<text text-anchor="start" x="88" y="-195.3" font-family="Times,serif" font-size="14.00" fill="#000000">update</text>
<polyline fill="none" stroke="#000000" points="80,-188.5 197.8828,-188.5 "/>
<polyline fill="none" stroke="#000000" points="80,-164.5 197.8828,-164.5 "/>
<text text-anchor="start" x="88" y="-149.3" font-family="Times,serif" font-size="14.00" fill="#000000">_layout</text>
<text text-anchor="start" x="88" y="-135.3" font-family="Times,serif" font-size="14.00" fill="#000000">check_admin</text>
<text text-anchor="start" x="88" y="-121.3" font-family="Times,serif" font-size="14.00" fill="#000000">school_params</text>
<text text-anchor="start" x="88" y="-107.3" font-family="Times,serif" font-size="14.00" fill="#000000">set_school</text>
</g>
<!-- ExperiencesController -->
<g id="node4" class="node">
<title>ExperiencesController</title>
<path fill="none" stroke="#000000" d="M412,-660.5C412,-660.5 529.9521,-660.5 529.9521,-660.5 535.9521,-660.5 541.9521,-666.5 541.9521,-672.5 541.9521,-672.5 541.9521,-962.5 541.9521,-962.5 541.9521,-968.5 535.9521,-974.5 529.9521,-974.5 529.9521,-974.5 412,-974.5 412,-974.5 406,-974.5 400,-968.5 400,-962.5 400,-962.5 400,-672.5 400,-672.5 400,-666.5 406,-660.5 412,-660.5"/>
<text text-anchor="middle" x="470.9761" y="-959.3" font-family="Times,serif" font-size="14.00" fill="#000000">ExperiencesController</text>
<polyline fill="none" stroke="#000000" points="400,-952.5 541.9521,-952.5 "/>
<text text-anchor="start" x="408" y="-937.3" font-family="Times,serif" font-size="14.00" fill="#000000">update</text>
<text text-anchor="start" x="408" y="-923.3" font-family="Times,serif" font-size="14.00" fill="#000000">create</text>
<text text-anchor="start" x="408" y="-909.3" font-family="Times,serif" font-size="14.00" fill="#000000">destroy</text>
<text text-anchor="start" x="408" y="-895.3" font-family="Times,serif" font-size="14.00" fill="#000000">diagnose</text>
<text text-anchor="start" x="408" y="-881.3" font-family="Times,serif" font-size="14.00" fill="#000000">edit</text>
<text text-anchor="start" x="408" y="-867.3" font-family="Times,serif" font-size="14.00" fill="#000000">index</text>
<text text-anchor="start" x="408" y="-853.3" font-family="Times,serif" font-size="14.00" fill="#000000">new</text>
<text text-anchor="start" x="408" y="-839.3" font-family="Times,serif" font-size="14.00" fill="#000000">next</text>
<text text-anchor="start" x="408" y="-825.3" font-family="Times,serif" font-size="14.00" fill="#000000">react</text>
<text text-anchor="start" x="408" y="-811.3" font-family="Times,serif" font-size="14.00" fill="#000000">show</text>
<text text-anchor="start" x="408" y="-797.3" font-family="Times,serif" font-size="14.00" fill="#000000">activate</text>
<polyline fill="none" stroke="#000000" points="400,-790.5 541.9521,-790.5 "/>
<polyline fill="none" stroke="#000000" points="400,-766.5 541.9521,-766.5 "/>
<text text-anchor="start" x="408" y="-751.3" font-family="Times,serif" font-size="14.00" fill="#000000">_layout</text>
<text text-anchor="start" x="408" y="-737.3" font-family="Times,serif" font-size="14.00" fill="#000000">check_editor</text>
<text text-anchor="start" x="408" y="-723.3" font-family="Times,serif" font-size="14.00" fill="#000000">check_viewer</text>
<text text-anchor="start" x="408" y="-709.3" font-family="Times,serif" font-size="14.00" fill="#000000">diagnosis_params</text>
<text text-anchor="start" x="408" y="-695.3" font-family="Times,serif" font-size="14.00" fill="#000000">experience_params</text>
<text text-anchor="start" x="408" y="-681.3" font-family="Times,serif" font-size="14.00" fill="#000000">reaction_params</text>
<text text-anchor="start" x="408" y="-667.3" font-family="Times,serif" font-size="14.00" fill="#000000">set_experience</text>
</g>
<!-- BingoBoardsController -->
<g id="node5" class="node">
<title>BingoBoardsController</title>
<path fill="none" stroke="#000000" d="M712,-720.5C712,-720.5 860.2832,-720.5 860.2832,-720.5 866.2832,-720.5 872.2832,-726.5 872.2832,-732.5 872.2832,-732.5 872.2832,-966.5 872.2832,-966.5 872.2832,-972.5 866.2832,-978.5 860.2832,-978.5 860.2832,-978.5 712,-978.5 712,-978.5 706,-978.5 700,-972.5 700,-966.5 700,-966.5 700,-732.5 700,-732.5 700,-726.5 706,-720.5 712,-720.5"/>
<text text-anchor="middle" x="786.1416" y="-963.3" font-family="Times,serif" font-size="14.00" fill="#000000">BingoBoardsController</text>
<polyline fill="none" stroke="#000000" points="700,-956.5 872.2832,-956.5 "/>
<text text-anchor="start" x="708" y="-941.3" font-family="Times,serif" font-size="14.00" fill="#000000">worksheet_for_game</text>
<text text-anchor="start" x="708" y="-927.3" font-family="Times,serif" font-size="14.00" fill="#000000">board_for_game_demo</text>
<text text-anchor="start" x="708" y="-913.3" font-family="Times,serif" font-size="14.00" fill="#000000">board_for_game_helper</text>
<text text-anchor="start" x="708" y="-899.3" font-family="Times,serif" font-size="14.00" fill="#000000">demo_worksheet_for_game</text>
<text text-anchor="start" x="708" y="-885.3" font-family="Times,serif" font-size="14.00" fill="#000000">index</text>
<text text-anchor="start" x="708" y="-871.3" font-family="Times,serif" font-size="14.00" fill="#000000">show</text>
<text text-anchor="start" x="708" y="-857.3" font-family="Times,serif" font-size="14.00" fill="#000000">update</text>
<text text-anchor="start" x="708" y="-843.3" font-family="Times,serif" font-size="14.00" fill="#000000">update_demo</text>
<text text-anchor="start" x="708" y="-829.3" font-family="Times,serif" font-size="14.00" fill="#000000">board_for_game</text>
<polyline fill="none" stroke="#000000" points="700,-822.5 872.2832,-822.5 "/>
<polyline fill="none" stroke="#000000" points="700,-798.5 872.2832,-798.5 "/>
<text text-anchor="start" x="708" y="-783.3" font-family="Times,serif" font-size="14.00" fill="#000000">_layout</text>
<text text-anchor="start" x="708" y="-769.3" font-family="Times,serif" font-size="14.00" fill="#000000">bingo_board_params</text>
<text text-anchor="start" x="708" y="-755.3" font-family="Times,serif" font-size="14.00" fill="#000000">play_bingo_board_params</text>
<text text-anchor="start" x="708" y="-741.3" font-family="Times,serif" font-size="14.00" fill="#000000">set_bingo_board</text>
<text text-anchor="start" x="708" y="-727.3" font-family="Times,serif" font-size="14.00" fill="#000000">update_responder</text>
</g>
<!-- GraphingController -->
<g id="node6" class="node">
<title>GraphingController</title>
<path fill="none" stroke="#000000" d="M52,-700.5C52,-700.5 154.4209,-700.5 154.4209,-700.5 160.4209,-700.5 166.4209,-706.5 166.4209,-712.5 166.4209,-712.5 166.4209,-834.5 166.4209,-834.5 166.4209,-840.5 160.4209,-846.5 154.4209,-846.5 154.4209,-846.5 52,-846.5 52,-846.5 46,-846.5 40,-840.5 40,-834.5 40,-834.5 40,-712.5 40,-712.5 40,-706.5 46,-700.5 52,-700.5"/>
<text text-anchor="middle" x="103.2104" y="-831.3" font-family="Times,serif" font-size="14.00" fill="#000000">GraphingController</text>
<polyline fill="none" stroke="#000000" points="40,-824.5 166.4209,-824.5 "/>
<text text-anchor="start" x="48" y="-809.3" font-family="Times,serif" font-size="14.00" fill="#000000">data</text>
<text text-anchor="start" x="48" y="-795.3" font-family="Times,serif" font-size="14.00" fill="#000000">index</text>
<text text-anchor="start" x="48" y="-781.3" font-family="Times,serif" font-size="14.00" fill="#000000">projects</text>
<text text-anchor="start" x="48" y="-767.3" font-family="Times,serif" font-size="14.00" fill="#000000">raw_data</text>
<text text-anchor="start" x="48" y="-753.3" font-family="Times,serif" font-size="14.00" fill="#000000">subjects</text>
<polyline fill="none" stroke="#000000" points="40,-746.5 166.4209,-746.5 "/>
<polyline fill="none" stroke="#000000" points="40,-722.5 166.4209,-722.5 "/>
<text text-anchor="start" x="48" y="-707.3" font-family="Times,serif" font-size="14.00" fill="#000000">_layout</text>
</g>
<!-- InstallmentsController -->
<g id="node7" class="node">
<title>InstallmentsController</title>
<path fill="none" stroke="#000000" d="M12,-520.5C12,-520.5 129.9795,-520.5 129.9795,-520.5 135.9795,-520.5 141.9795,-526.5 141.9795,-532.5 141.9795,-532.5 141.9795,-640.5 141.9795,-640.5 141.9795,-646.5 135.9795,-652.5 129.9795,-652.5 129.9795,-652.5 12,-652.5 12,-652.5 6,-652.5 0,-646.5 0,-640.5 0,-640.5 0,-532.5 0,-532.5 0,-526.5 6,-520.5 12,-520.5"/>
<text text-anchor="middle" x="70.9897" y="-637.3" font-family="Times,serif" font-size="14.00" fill="#000000">InstallmentsController</text>
<polyline fill="none" stroke="#000000" points="0,-630.5 141.9795,-630.5 "/>
<text text-anchor="start" x="8" y="-615.3" font-family="Times,serif" font-size="14.00" fill="#000000">demo_complete</text>
<text text-anchor="start" x="8" y="-601.3" font-family="Times,serif" font-size="14.00" fill="#000000">submit_installment</text>
<text text-anchor="start" x="8" y="-587.3" font-family="Times,serif" font-size="14.00" fill="#000000">update</text>
<polyline fill="none" stroke="#000000" points="0,-580.5 141.9795,-580.5 "/>
<polyline fill="none" stroke="#000000" points="0,-556.5 141.9795,-556.5 "/>
<text text-anchor="start" x="8" y="-541.3" font-family="Times,serif" font-size="14.00" fill="#000000">_layout</text>
<text text-anchor="start" x="8" y="-527.3" font-family="Times,serif" font-size="14.00" fill="#000000">i_params</text>
</g>
<!-- ConceptsController -->
<g id="node8" class="node">
<title>ConceptsController</title>
<path fill="none" stroke="#000000" d="M212,-700.5C212,-700.5 351.7246,-700.5 351.7246,-700.5 357.7246,-700.5 363.7246,-706.5 363.7246,-712.5 363.7246,-712.5 363.7246,-932.5 363.7246,-932.5 363.7246,-938.5 357.7246,-944.5 351.7246,-944.5 351.7246,-944.5 212,-944.5 212,-944.5 206,-944.5 200,-938.5 200,-932.5 200,-932.5 200,-712.5 200,-712.5 200,-706.5 206,-700.5 212,-700.5"/>
<text text-anchor="middle" x="281.8623" y="-929.3" font-family="Times,serif" font-size="14.00" fill="#000000">ConceptsController</text>
<polyline fill="none" stroke="#000000" points="200,-922.5 363.7246,-922.5 "/>
<text text-anchor="start" x="208" y="-907.3" font-family="Times,serif" font-size="14.00" fill="#000000">update</text>
<text text-anchor="start" x="208" y="-893.3" font-family="Times,serif" font-size="14.00" fill="#000000">concepts_for_game_demo</text>
<text text-anchor="start" x="208" y="-879.3" font-family="Times,serif" font-size="14.00" fill="#000000">create</text>
<text text-anchor="start" x="208" y="-865.3" font-family="Times,serif" font-size="14.00" fill="#000000">destroy</text>
<text text-anchor="start" x="208" y="-851.3" font-family="Times,serif" font-size="14.00" fill="#000000">edit</text>
<text text-anchor="start" x="208" y="-837.3" font-family="Times,serif" font-size="14.00" fill="#000000">index</text>
<text text-anchor="start" x="208" y="-823.3" font-family="Times,serif" font-size="14.00" fill="#000000">new</text>
<text text-anchor="start" x="208" y="-809.3" font-family="Times,serif" font-size="14.00" fill="#000000">show</text>
<text text-anchor="start" x="208" y="-795.3" font-family="Times,serif" font-size="14.00" fill="#000000">concepts_for_game</text>
<polyline fill="none" stroke="#000000" points="200,-788.5 363.7246,-788.5 "/>
<polyline fill="none" stroke="#000000" points="200,-764.5 363.7246,-764.5 "/>
<text text-anchor="start" x="208" y="-749.3" font-family="Times,serif" font-size="14.00" fill="#000000">_layout</text>
<text text-anchor="start" x="208" y="-735.3" font-family="Times,serif" font-size="14.00" fill="#000000">check_admin</text>
<text text-anchor="start" x="208" y="-721.3" font-family="Times,serif" font-size="14.00" fill="#000000">concept_params</text>
<text text-anchor="start" x="208" y="-707.3" font-family="Times,serif" font-size="14.00" fill="#000000">set_concept</text>
</g>
<!-- CoursesController -->
<g id="node9" class="node">
<title>CoursesController</title>
<path fill="none" stroke="#000000" d="M592,-320.5C592,-320.5 696.7383,-320.5 696.7383,-320.5 702.7383,-320.5 708.7383,-326.5 708.7383,-332.5 708.7383,-332.5 708.7383,-678.5 708.7383,-678.5 708.7383,-684.5 702.7383,-690.5 696.7383,-690.5 696.7383,-690.5 592,-690.5 592,-690.5 586,-690.5 580,-684.5 580,-678.5 580,-678.5 580,-332.5 580,-332.5 580,-326.5 586,-320.5 592,-320.5"/>
<text text-anchor="middle" x="644.3691" y="-675.3" font-family="Times,serif" font-size="14.00" fill="#000000">CoursesController</text>
<polyline fill="none" stroke="#000000" points="580,-668.5 708.7383,-668.5 "/>
<text text-anchor="start" x="588" y="-653.3" font-family="Times,serif" font-size="14.00" fill="#000000">update</text>
<text text-anchor="start" x="588" y="-639.3" font-family="Times,serif" font-size="14.00" fill="#000000">add_instructors</text>
<text text-anchor="start" x="588" y="-625.3" font-family="Times,serif" font-size="14.00" fill="#000000">add_students</text>
<text text-anchor="start" x="588" y="-611.3" font-family="Times,serif" font-size="14.00" fill="#000000">calendar</text>
<text text-anchor="start" x="588" y="-597.3" font-family="Times,serif" font-size="14.00" fill="#000000">create</text>
<text text-anchor="start" x="588" y="-583.3" font-family="Times,serif" font-size="14.00" fill="#000000">decline_roster</text>
<text text-anchor="start" x="588" y="-569.3" font-family="Times,serif" font-size="14.00" fill="#000000">destroy</text>
<text text-anchor="start" x="588" y="-555.3" font-family="Times,serif" font-size="14.00" fill="#000000">drop_student</text>
<text text-anchor="start" x="588" y="-541.3" font-family="Times,serif" font-size="14.00" fill="#000000">edit</text>
<text text-anchor="start" x="588" y="-527.3" font-family="Times,serif" font-size="14.00" fill="#000000">index</text>
<text text-anchor="start" x="588" y="-513.3" font-family="Times,serif" font-size="14.00" fill="#000000">new</text>
<text text-anchor="start" x="588" y="-499.3" font-family="Times,serif" font-size="14.00" fill="#000000">new_from_template</text>
<text text-anchor="start" x="588" y="-485.3" font-family="Times,serif" font-size="14.00" fill="#000000">re_invite_student</text>
<text text-anchor="start" x="588" y="-471.3" font-family="Times,serif" font-size="14.00" fill="#000000">remove_instructor</text>
<text text-anchor="start" x="588" y="-457.3" font-family="Times,serif" font-size="14.00" fill="#000000">show</text>
<text text-anchor="start" x="588" y="-443.3" font-family="Times,serif" font-size="14.00" fill="#000000">accept_roster</text>
<polyline fill="none" stroke="#000000" points="580,-436.5 708.7383,-436.5 "/>
<polyline fill="none" stroke="#000000" points="580,-412.5 708.7383,-412.5 "/>
<text text-anchor="start" x="588" y="-397.3" font-family="Times,serif" font-size="14.00" fill="#000000">_layout</text>
<text text-anchor="start" x="588" y="-383.3" font-family="Times,serif" font-size="14.00" fill="#000000">check_admin</text>
<text text-anchor="start" x="588" y="-369.3" font-family="Times,serif" font-size="14.00" fill="#000000">check_editor</text>
<text text-anchor="start" x="588" y="-355.3" font-family="Times,serif" font-size="14.00" fill="#000000">check_viewer</text>
<text text-anchor="start" x="588" y="-341.3" font-family="Times,serif" font-size="14.00" fill="#000000">course_params</text>
<text text-anchor="start" x="588" y="-327.3" font-family="Times,serif" font-size="14.00" fill="#000000">set_course</text>
</g>
<!-- CandidateListsController -->
<g id="node10" class="node">
<title>CandidateListsController</title>
<path fill="none" stroke="#000000" d="M752,-160.5C752,-160.5 885.5313,-160.5 885.5313,-160.5 891.5313,-160.5 897.5313,-166.5 897.5313,-172.5 897.5313,-172.5 897.5313,-362.5 897.5313,-362.5 897.5313,-368.5 891.5313,-374.5 885.5313,-374.5 885.5313,-374.5 752,-374.5 752,-374.5 746,-374.5 740,-368.5 740,-362.5 740,-362.5 740,-172.5 740,-172.5 740,-166.5 746,-160.5 752,-160.5"/>
<text text-anchor="middle" x="818.7656" y="-359.3" font-family="Times,serif" font-size="14.00" fill="#000000">CandidateListsController</text>
<polyline fill="none" stroke="#000000" points="740,-352.5 897.5313,-352.5 "/>
<text text-anchor="start" x="748" y="-337.3" font-family="Times,serif" font-size="14.00" fill="#000000">update</text>
<text text-anchor="start" x="748" y="-323.3" font-family="Times,serif" font-size="14.00" fill="#000000">demo_entry</text>
<text text-anchor="start" x="748" y="-309.3" font-family="Times,serif" font-size="14.00" fill="#000000">demo_play</text>
<text text-anchor="start" x="748" y="-295.3" font-family="Times,serif" font-size="14.00" fill="#000000">edit</text>
<text text-anchor="start" x="748" y="-281.3" font-family="Times,serif" font-size="14.00" fill="#000000">list_stats</text>
<text text-anchor="start" x="748" y="-267.3" font-family="Times,serif" font-size="14.00" fill="#000000">request_collaboration</text>
<text text-anchor="start" x="748" y="-253.3" font-family="Times,serif" font-size="14.00" fill="#000000">show</text>
<text text-anchor="start" x="748" y="-239.3" font-family="Times,serif" font-size="14.00" fill="#000000">create</text>
<polyline fill="none" stroke="#000000" points="740,-232.5 897.5313,-232.5 "/>
<text text-anchor="start" x="748" y="-217.3" font-family="Times,serif" font-size="14.00" fill="#000000">merge_to_group_list</text>
<polyline fill="none" stroke="#000000" points="740,-210.5 897.5313,-210.5 "/>
<text text-anchor="start" x="748" y="-195.3" font-family="Times,serif" font-size="14.00" fill="#000000">_layout</text>
<text text-anchor="start" x="748" y="-181.3" font-family="Times,serif" font-size="14.00" fill="#000000">candidate_list_params</text>
<text text-anchor="start" x="748" y="-167.3" font-family="Times,serif" font-size="14.00" fill="#000000">set_candidate_list</text>
</g>
<!-- HomeController -->
<g id="node11" class="node">
<title>HomeController</title>
<path fill="none" stroke="#000000" d="M32,-880.5C32,-880.5 149.1729,-880.5 149.1729,-880.5 155.1729,-880.5 161.1729,-886.5 161.1729,-892.5 161.1729,-892.5 161.1729,-1014.5 161.1729,-1014.5 161.1729,-1020.5 155.1729,-1026.5 149.1729,-1026.5 149.1729,-1026.5 32,-1026.5 32,-1026.5 26,-1026.5 20,-1020.5 20,-1014.5 20,-1014.5 20,-892.5 20,-892.5 20,-886.5 26,-880.5 32,-880.5"/>
<text text-anchor="middle" x="90.5864" y="-1011.3" font-family="Times,serif" font-size="14.00" fill="#000000">HomeController</text>
<polyline fill="none" stroke="#000000" points="20,-1004.5 161.1729,-1004.5 "/>
<text text-anchor="start" x="28" y="-989.3" font-family="Times,serif" font-size="14.00" fill="#000000">check_diversity_score</text>
<text text-anchor="start" x="28" y="-975.3" font-family="Times,serif" font-size="14.00" fill="#000000">demo_start</text>
<text text-anchor="start" x="28" y="-961.3" font-family="Times,serif" font-size="14.00" fill="#000000">get_quote</text>
<text text-anchor="start" x="28" y="-947.3" font-family="Times,serif" font-size="14.00" fill="#000000">index</text>
<text text-anchor="start" x="28" y="-933.3" font-family="Times,serif" font-size="14.00" fill="#000000">states_for_country</text>
<polyline fill="none" stroke="#000000" points="20,-926.5 161.1729,-926.5 "/>
<polyline fill="none" stroke="#000000" points="20,-902.5 161.1729,-902.5 "/>
<text text-anchor="start" x="28" y="-887.3" font-family="Times,serif" font-size="14.00" fill="#000000">_layout</text>
</g>
<!-- Users::OmniauthCallbacksController -->
<g id="node12" class="node">
<title>Users::OmniauthCallbacksController</title>
<path fill="none" stroke="#000000" d="M452,-160.5C452,-160.5 652.4072,-160.5 652.4072,-160.5 658.4072,-160.5 664.4072,-166.5 664.4072,-172.5 664.4072,-172.5 664.4072,-252.5 664.4072,-252.5 664.4072,-258.5 658.4072,-264.5 652.4072,-264.5 652.4072,-264.5 452,-264.5 452,-264.5 446,-264.5 440,-258.5 440,-252.5 440,-252.5 440,-172.5 440,-172.5 440,-166.5 446,-160.5 452,-160.5"/>
<text text-anchor="middle" x="552.2036" y="-249.3" font-family="Times,serif" font-size="14.00" fill="#000000">Users::OmniauthCallbacksController</text>
<polyline fill="none" stroke="#000000" points="440,-242.5 664.4072,-242.5 "/>
<text text-anchor="start" x="448" y="-227.3" font-family="Times,serif" font-size="14.00" fill="#000000">failure</text>
<text text-anchor="start" x="448" y="-213.3" font-family="Times,serif" font-size="14.00" fill="#000000">google_oauth2</text>
<polyline fill="none" stroke="#000000" points="440,-206.5 664.4072,-206.5 "/>
<polyline fill="none" stroke="#000000" points="440,-182.5 664.4072,-182.5 "/>
<text text-anchor="start" x="448" y="-167.3" font-family="Times,serif" font-size="14.00" fill="#000000">_layout</text>
</g>
<!-- ConsentFormsController -->
<g id="node13" class="node">
<title>ConsentFormsController</title>
<path fill="none" stroke="#000000" d="M752,-420.5C752,-420.5 883.2207,-420.5 883.2207,-420.5 889.2207,-420.5 895.2207,-426.5 895.2207,-432.5 895.2207,-432.5 895.2207,-610.5 895.2207,-610.5 895.2207,-616.5 889.2207,-622.5 883.2207,-622.5 883.2207,-622.5 752,-622.5 752,-622.5 746,-622.5 740,-616.5 740,-610.5 740,-610.5 740,-432.5 740,-432.5 740,-426.5 746,-420.5 752,-420.5"/>
<text text-anchor="middle" x="817.6104" y="-607.3" font-family="Times,serif" font-size="14.00" fill="#000000">ConsentFormsController</text>
<polyline fill="none" stroke="#000000" points="740,-600.5 895.2207,-600.5 "/>
<text text-anchor="start" x="748" y="-585.3" font-family="Times,serif" font-size="14.00" fill="#000000">create</text>
<text text-anchor="start" x="748" y="-571.3" font-family="Times,serif" font-size="14.00" fill="#000000">destroy</text>
<text text-anchor="start" x="748" y="-557.3" font-family="Times,serif" font-size="14.00" fill="#000000">edit</text>
<text text-anchor="start" x="748" y="-543.3" font-family="Times,serif" font-size="14.00" fill="#000000">index</text>
<text text-anchor="start" x="748" y="-529.3" font-family="Times,serif" font-size="14.00" fill="#000000">new</text>
<text text-anchor="start" x="748" y="-515.3" font-family="Times,serif" font-size="14.00" fill="#000000">show</text>
<text text-anchor="start" x="748" y="-501.3" font-family="Times,serif" font-size="14.00" fill="#000000">update</text>
<polyline fill="none" stroke="#000000" points="740,-494.5 895.2207,-494.5 "/>
<polyline fill="none" stroke="#000000" points="740,-470.5 895.2207,-470.5 "/>
<text text-anchor="start" x="748" y="-455.3" font-family="Times,serif" font-size="14.00" fill="#000000">_layout</text>
<text text-anchor="start" x="748" y="-441.3" font-family="Times,serif" font-size="14.00" fill="#000000">consent_form_params</text>
<text text-anchor="start" x="748" y="-427.3" font-family="Times,serif" font-size="14.00" fill="#000000">set_consent_form</text>
</g>
<!-- BingoGamesController -->
<g id="node14" class="node">
<title>BingoGamesController</title>
<path fill="none" stroke="#000000" d="M352,-300.5C352,-300.5 530.5938,-300.5 530.5938,-300.5 536.5938,-300.5 542.5938,-306.5 542.5938,-312.5 542.5938,-312.5 542.5938,-602.5 542.5938,-602.5 542.5938,-608.5 536.5938,-614.5 530.5938,-614.5 530.5938,-614.5 352,-614.5 352,-614.5 346,-614.5 340,-608.5 340,-602.5 340,-602.5 340,-312.5 340,-312.5 340,-306.5 346,-300.5 352,-300.5"/>
<text text-anchor="middle" x="441.2969" y="-599.3" font-family="Times,serif" font-size="14.00" fill="#000000">BingoGamesController</text>
<polyline fill="none" stroke="#000000" points="340,-592.5 542.5938,-592.5 "/>
<text text-anchor="start" x="348" y="-577.3" font-family="Times,serif" font-size="14.00" fill="#000000">update_review_candidates</text>
<text text-anchor="start" x="348" y="-563.3" font-family="Times,serif" font-size="14.00" fill="#000000">create</text>
<text text-anchor="start" x="348" y="-549.3" font-family="Times,serif" font-size="14.00" fill="#000000">demo_update_review_candidates</text>
<text text-anchor="start" x="348" y="-535.3" font-family="Times,serif" font-size="14.00" fill="#000000">destroy</text>
<text text-anchor="start" x="348" y="-521.3" font-family="Times,serif" font-size="14.00" fill="#000000">game_results</text>
<text text-anchor="start" x="348" y="-507.3" font-family="Times,serif" font-size="14.00" fill="#000000">index</text>
<text text-anchor="start" x="348" y="-493.3" font-family="Times,serif" font-size="14.00" fill="#000000">new</text>
<text text-anchor="start" x="348" y="-479.3" font-family="Times,serif" font-size="14.00" fill="#000000">review_candidates</text>
<text text-anchor="start" x="348" y="-465.3" font-family="Times,serif" font-size="14.00" fill="#000000">review_candidates_demo</text>
<text text-anchor="start" x="348" y="-451.3" font-family="Times,serif" font-size="14.00" fill="#000000">review_helper</text>
<text text-anchor="start" x="348" y="-437.3" font-family="Times,serif" font-size="14.00" fill="#000000">show</text>
<text text-anchor="start" x="348" y="-423.3" font-family="Times,serif" font-size="14.00" fill="#000000">update</text>
<text text-anchor="start" x="348" y="-409.3" font-family="Times,serif" font-size="14.00" fill="#000000">activate</text>
<polyline fill="none" stroke="#000000" points="340,-402.5 542.5938,-402.5 "/>
<polyline fill="none" stroke="#000000" points="340,-378.5 542.5938,-378.5 "/>
<text text-anchor="start" x="348" y="-363.3" font-family="Times,serif" font-size="14.00" fill="#000000">_layout</text>
<text text-anchor="start" x="348" y="-349.3" font-family="Times,serif" font-size="14.00" fill="#000000">bingo_game_params</text>
<text text-anchor="start" x="348" y="-335.3" font-family="Times,serif" font-size="14.00" fill="#000000">check_editor</text>
<text text-anchor="start" x="348" y="-321.3" font-family="Times,serif" font-size="14.00" fill="#000000">check_viewer</text>
<text text-anchor="start" x="348" y="-307.3" font-family="Times,serif" font-size="14.00" fill="#000000">set_bingo_game</text>
</g>
<!-- LocalesController -->
<g id="node15" class="node">
<title>LocalesController</title>
<path fill="none" stroke="#000000" d="M252,-.5C252,-.5 345.0762,-.5 345.0762,-.5 351.0762,-.5 357.0762,-6.5 357.0762,-12.5 357.0762,-12.5 357.0762,-78.5 357.0762,-78.5 357.0762,-84.5 351.0762,-90.5 345.0762,-90.5 345.0762,-90.5 252,-90.5 252,-90.5 246,-90.5 240,-84.5 240,-78.5 240,-78.5 240,-12.5 240,-12.5 240,-6.5 246,-.5 252,-.5"/>
<text text-anchor="middle" x="298.5381" y="-75.3" font-family="Times,serif" font-size="14.00" fill="#000000">LocalesController</text>
<polyline fill="none" stroke="#000000" points="240,-68.5 357.0762,-68.5 "/>
<text text-anchor="start" x="248" y="-53.3" font-family="Times,serif" font-size="14.00" fill="#000000">get_resources</text>
<polyline fill="none" stroke="#000000" points="240,-46.5 357.0762,-46.5 "/>
<polyline fill="none" stroke="#000000" points="240,-22.5 357.0762,-22.5 "/>
<text text-anchor="start" x="248" y="-7.3" font-family="Times,serif" font-size="14.00" fill="#000000">_layout</text>
</g>
<!-- ConsentLogsController -->
<g id="node16" class="node">
<title>ConsentLogsController</title>
<path fill="none" stroke="#000000" d="M12,-360.5C12,-360.5 135.4346,-360.5 135.4346,-360.5 141.4346,-360.5 147.4346,-366.5 147.4346,-372.5 147.4346,-372.5 147.4346,-466.5 147.4346,-466.5 147.4346,-472.5 141.4346,-478.5 135.4346,-478.5 135.4346,-478.5 12,-478.5 12,-478.5 6,-478.5 0,-472.5 0,-466.5 0,-466.5 0,-372.5 0,-372.5 0,-366.5 6,-360.5 12,-360.5"/>
<text text-anchor="middle" x="73.7173" y="-463.3" font-family="Times,serif" font-size="14.00" fill="#000000">ConsentLogsController</text>
<polyline fill="none" stroke="#000000" points="0,-456.5 147.4346,-456.5 "/>
<text text-anchor="start" x="8" y="-441.3" font-family="Times,serif" font-size="14.00" fill="#000000">edit</text>
<text text-anchor="start" x="8" y="-427.3" font-family="Times,serif" font-size="14.00" fill="#000000">update</text>
<polyline fill="none" stroke="#000000" points="0,-420.5 147.4346,-420.5 "/>
<polyline fill="none" stroke="#000000" points="0,-396.5 147.4346,-396.5 "/>
<text text-anchor="start" x="8" y="-381.3" font-family="Times,serif" font-size="14.00" fill="#000000">_layout</text>
<text text-anchor="start" x="8" y="-367.3" font-family="Times,serif" font-size="14.00" fill="#000000">cl_params</text>
</g>
<!-- ProjectsController -->
<g id="node17" class="node">
<title>ProjectsController</title>
<path fill="none" stroke="#000000" d="M192,-360.5C192,-360.5 286.6484,-360.5 286.6484,-360.5 292.6484,-360.5 298.6484,-366.5 298.6484,-372.5 298.6484,-372.5 298.6484,-648.5 298.6484,-648.5 298.6484,-654.5 292.6484,-660.5 286.6484,-660.5 286.6484,-660.5 192,-660.5 192,-660.5 186,-660.5 180,-654.5 180,-648.5 180,-648.5 180,-372.5 180,-372.5 180,-366.5 186,-360.5 192,-360.5"/>
<text text-anchor="middle" x="239.3242" y="-645.3" font-family="Times,serif" font-size="14.00" fill="#000000">ProjectsController</text>
<polyline fill="none" stroke="#000000" points="180,-638.5 298.6484,-638.5 "/>
<text text-anchor="start" x="188" y="-623.3" font-family="Times,serif" font-size="14.00" fill="#000000">update</text>
<text text-anchor="start" x="188" y="-609.3" font-family="Times,serif" font-size="14.00" fill="#000000">add_group</text>
<text text-anchor="start" x="188" y="-595.3" font-family="Times,serif" font-size="14.00" fill="#000000">create</text>
<text text-anchor="start" x="188" y="-581.3" font-family="Times,serif" font-size="14.00" fill="#000000">destroy</text>
<text text-anchor="start" x="188" y="-567.3" font-family="Times,serif" font-size="14.00" fill="#000000">edit</text>
<text text-anchor="start" x="188" y="-553.3" font-family="Times,serif" font-size="14.00" fill="#000000">index</text>
<text text-anchor="start" x="188" y="-539.3" font-family="Times,serif" font-size="14.00" fill="#000000">new</text>
<text text-anchor="start" x="188" y="-525.3" font-family="Times,serif" font-size="14.00" fill="#000000">remove_group</text>
<text text-anchor="start" x="188" y="-511.3" font-family="Times,serif" font-size="14.00" fill="#000000">rescore_group</text>
<text text-anchor="start" x="188" y="-497.3" font-family="Times,serif" font-size="14.00" fill="#000000">rescore_groups</text>
<text text-anchor="start" x="188" y="-483.3" font-family="Times,serif" font-size="14.00" fill="#000000">show</text>
<text text-anchor="start" x="188" y="-469.3" font-family="Times,serif" font-size="14.00" fill="#000000">activate</text>
<polyline fill="none" stroke="#000000" points="180,-462.5 298.6484,-462.5 "/>
<polyline fill="none" stroke="#000000" points="180,-438.5 298.6484,-438.5 "/>
<text text-anchor="start" x="188" y="-423.3" font-family="Times,serif" font-size="14.00" fill="#000000">_layout</text>
<text text-anchor="start" x="188" y="-409.3" font-family="Times,serif" font-size="14.00" fill="#000000">check_editor</text>
<text text-anchor="start" x="188" y="-395.3" font-family="Times,serif" font-size="14.00" fill="#000000">check_viewer</text>
<text text-anchor="start" x="188" y="-381.3" font-family="Times,serif" font-size="14.00" fill="#000000">project_params</text>
<text text-anchor="start" x="188" y="-367.3" font-family="Times,serif" font-size="14.00" fill="#000000">set_project</text>
</g>
<!-- RegistrationsController -->
<g id="node18" class="node">
<title>RegistrationsController</title>
<path fill="none" stroke="#000000" d="M252,-120.5C252,-120.5 376.1865,-120.5 376.1865,-120.5 382.1865,-120.5 388.1865,-126.5 388.1865,-132.5 388.1865,-132.5 388.1865,-252.5 388.1865,-252.5 388.1865,-258.5 382.1865,-264.5 376.1865,-264.5 376.1865,-264.5 252,-264.5 252,-264.5 246,-264.5 240,-258.5 240,-252.5 240,-252.5 240,-132.5 240,-132.5 240,-126.5 246,-120.5 252,-120.5"/>
<text text-anchor="middle" x="314.0933" y="-249.3" font-family="Times,serif" font-size="14.00" fill="#000000">RegistrationsController</text>
<polyline fill="none" stroke="#000000" points="240,-242.5 388.1865,-242.5 "/>
<text text-anchor="start" x="248" y="-227.3" font-family="Times,serif" font-size="14.00" fill="#000000">add_email</text>
<text text-anchor="start" x="248" y="-213.3" font-family="Times,serif" font-size="14.00" fill="#000000">initiate_password_reset</text>
<text text-anchor="start" x="248" y="-199.3" font-family="Times,serif" font-size="14.00" fill="#000000">remove_email</text>
<text text-anchor="start" x="248" y="-185.3" font-family="Times,serif" font-size="14.00" fill="#000000">set_primary_email</text>
<polyline fill="none" stroke="#000000" points="240,-178.5 388.1865,-178.5 "/>
<text text-anchor="start" x="248" y="-163.3" font-family="Times,serif" font-size="14.00" fill="#000000">update_resource</text>
<polyline fill="none" stroke="#000000" points="240,-156.5 388.1865,-156.5 "/>
<text text-anchor="start" x="248" y="-141.3" font-family="Times,serif" font-size="14.00" fill="#000000">_layout</text>
<text text-anchor="start" x="248" y="-127.3" font-family="Times,serif" font-size="14.00" fill="#000000">set_email</text>
</g>
</g>
</svg>
