<?xml version="1.0" encoding="UTF-8" standalone="no"?>
<!DOCTYPE svg PUBLIC "-//W3C//DTD SVG 1.1//EN"
 "http://www.w3.org/Graphics/SVG/1.1/DTD/svg11.dtd">
<!-- Generated by graphviz version 2.38.0 (20140413.2041)
 -->
<!-- Title: controllers_diagram Pages: 1 -->
<svg width="806pt" height="802pt"
 viewBox="0.00 0.00 805.50 802.00" xmlns="http://www.w3.org/2000/svg" xmlns:xlink="http://www.w3.org/1999/xlink">
<g id="graph0" class="graph" transform="scale(1 1) rotate(0) translate(303.5 498)">
<title>controllers_diagram</title>
<polygon fill="none" stroke="none" points="-303.5,304 -303.5,-498 502,-498 502,304 -303.5,304"/>
<!-- _diagram_info -->
<g id="node1" class="node"><title>_diagram_info</title>
<text text-anchor="start" x="8" y="216.4" font-family="Times,serif" font-size="13.00">Controllers diagram</text>
<text text-anchor="start" x="8" y="230.4" font-family="Times,serif" font-size="13.00">Date: Apr 11 2017 &#45; 17:29</text>
<text text-anchor="start" x="8" y="244.4" font-family="Times,serif" font-size="13.00">Migration version: 20170411010208</text>
<text text-anchor="start" x="8" y="258.4" font-family="Times,serif" font-size="13.00">Generated by RailRoady 1.5.2</text>
<text text-anchor="start" x="8" y="272.4" font-family="Times,serif" font-size="13.00">http://railroady.prestonlee.com</text>
</g>
<!-- ProjectsController -->
<g id="node2" class="node"><title>ProjectsController</title>
<path fill="none" stroke="black" d="M-208,-220.5C-208,-220.5 -116,-220.5 -116,-220.5 -110,-220.5 -104,-226.5 -104,-232.5 -104,-232.5 -104,-481.5 -104,-481.5 -104,-487.5 -110,-493.5 -116,-493.5 -116,-493.5 -208,-493.5 -208,-493.5 -214,-493.5 -220,-487.5 -220,-481.5 -220,-481.5 -220,-232.5 -220,-232.5 -220,-226.5 -214,-220.5 -208,-220.5"/>
<text text-anchor="middle" x="-162" y="-478.3" font-family="Times,serif" font-size="14.00">ProjectsController</text>
<polyline fill="none" stroke="black" points="-220,-470.5 -104,-470.5 "/>
<text text-anchor="start" x="-212" y="-455.3" font-family="Times,serif" font-size="14.00">activate</text>
<text text-anchor="start" x="-212" y="-440.3" font-family="Times,serif" font-size="14.00">add_group</text>
<text text-anchor="start" x="-212" y="-425.3" font-family="Times,serif" font-size="14.00">create</text>
<text text-anchor="start" x="-212" y="-410.3" font-family="Times,serif" font-size="14.00">destroy</text>
<text text-anchor="start" x="-212" y="-395.3" font-family="Times,serif" font-size="14.00">edit</text>
<text text-anchor="start" x="-212" y="-380.3" font-family="Times,serif" font-size="14.00">index</text>
<text text-anchor="start" x="-212" y="-365.3" font-family="Times,serif" font-size="14.00">new</text>
<text text-anchor="start" x="-212" y="-350.3" font-family="Times,serif" font-size="14.00">remove_group</text>
<text text-anchor="start" x="-212" y="-335.3" font-family="Times,serif" font-size="14.00">show</text>
<text text-anchor="start" x="-212" y="-320.3" font-family="Times,serif" font-size="14.00">update</text>
<polyline fill="none" stroke="black" points="-220,-312.5 -104,-312.5 "/>
<polyline fill="none" stroke="black" points="-220,-288.5 -104,-288.5 "/>
<text text-anchor="start" x="-212" y="-273.3" font-family="Times,serif" font-size="14.00">_layout</text>
<text text-anchor="start" x="-212" y="-258.3" font-family="Times,serif" font-size="14.00">check_admin</text>
<text text-anchor="start" x="-212" y="-243.3" font-family="Times,serif" font-size="14.00">project_params</text>
<text text-anchor="start" x="-212" y="-228.3" font-family="Times,serif" font-size="14.00">set_project</text>
</g>
<!-- BingoGamesController -->
<g id="node3" class="node"><title>BingoGamesController</title>
<path fill="none" stroke="black" d="M-68,159C-68,159 66,159 66,159 72,159 78,153 78,147 78,147 78,-117 78,-117 78,-123 72,-129 66,-129 66,-129 -68,-129 -68,-129 -74,-129 -80,-123 -80,-117 -80,-117 -80,147 -80,147 -80,153 -74,159 -68,159"/>
<text text-anchor="middle" x="-1" y="-113.8" font-family="Times,serif" font-size="14.00">BingoGamesController</text>
<polyline fill="none" stroke="black" points="-80,-106 78,-106 "/>
<text text-anchor="start" x="-72" y="-90.8" font-family="Times,serif" font-size="14.00">activate</text>
<text text-anchor="start" x="-72" y="-75.8" font-family="Times,serif" font-size="14.00">create</text>
<text text-anchor="start" x="-72" y="-60.8" font-family="Times,serif" font-size="14.00">destroy</text>
<text text-anchor="start" x="-72" y="-45.8" font-family="Times,serif" font-size="14.00">edit</text>
<text text-anchor="start" x="-72" y="-30.8" font-family="Times,serif" font-size="14.00">index</text>
<text text-anchor="start" x="-72" y="-15.8" font-family="Times,serif" font-size="14.00">new</text>
<text text-anchor="start" x="-72" y="-0.8" font-family="Times,serif" font-size="14.00">review_candidates</text>
<text text-anchor="start" x="-72" y="14.2" font-family="Times,serif" font-size="14.00">show</text>
<text text-anchor="start" x="-72" y="29.2" font-family="Times,serif" font-size="14.00">update</text>
<text text-anchor="start" x="-72" y="44.2" font-family="Times,serif" font-size="14.00">update_candidate_review</text>
<polyline fill="none" stroke="black" points="-80,52 78,52 "/>
<polyline fill="none" stroke="black" points="-80,76 78,76 "/>
<text text-anchor="start" x="-72" y="91.2" font-family="Times,serif" font-size="14.00">_layout</text>
<text text-anchor="start" x="-72" y="106.2" font-family="Times,serif" font-size="14.00">bingo_game_params</text>
<text text-anchor="start" x="-72" y="121.2" font-family="Times,serif" font-size="14.00">candidate_review_params</text>
<text text-anchor="start" x="-72" y="136.2" font-family="Times,serif" font-size="14.00">check_admin</text>
<text text-anchor="start" x="-72" y="151.2" font-family="Times,serif" font-size="14.00">set_bingo_game</text>
</g>
<!-- CandidateListsController -->
<g id="node4" class="node"><title>CandidateListsController</title>
<path fill="none" stroke="black" d="M272.5,-260.5C272.5,-260.5 421.5,-260.5 421.5,-260.5 427.5,-260.5 433.5,-266.5 433.5,-272.5 433.5,-272.5 433.5,-431.5 433.5,-431.5 433.5,-437.5 427.5,-443.5 421.5,-443.5 421.5,-443.5 272.5,-443.5 272.5,-443.5 266.5,-443.5 260.5,-437.5 260.5,-431.5 260.5,-431.5 260.5,-272.5 260.5,-272.5 260.5,-266.5 266.5,-260.5 272.5,-260.5"/>
<text text-anchor="middle" x="347" y="-428.3" font-family="Times,serif" font-size="14.00">CandidateListsController</text>
<polyline fill="none" stroke="black" points="260.5,-420.5 433.5,-420.5 "/>
<text text-anchor="start" x="268.5" y="-405.3" font-family="Times,serif" font-size="14.00">edit</text>
<text text-anchor="start" x="268.5" y="-390.3" font-family="Times,serif" font-size="14.00">merge_to_group_list</text>
<text text-anchor="start" x="268.5" y="-375.3" font-family="Times,serif" font-size="14.00">request_collaboration</text>
<text text-anchor="start" x="268.5" y="-360.3" font-family="Times,serif" font-size="14.00">update</text>
<polyline fill="none" stroke="black" points="260.5,-352.5 433.5,-352.5 "/>
<polyline fill="none" stroke="black" points="260.5,-328.5 433.5,-328.5 "/>
<text text-anchor="start" x="268.5" y="-313.3" font-family="Times,serif" font-size="14.00">_layout</text>
<text text-anchor="start" x="268.5" y="-298.3" font-family="Times,serif" font-size="14.00">candidate_list_params</text>
<text text-anchor="start" x="268.5" y="-283.3" font-family="Times,serif" font-size="14.00">merge_individuals_to_group</text>
<text text-anchor="start" x="268.5" y="-268.3" font-family="Times,serif" font-size="14.00">set_candidate_list</text>
</g>
<!-- CoursesController -->
<g id="node5" class="node"><title>CoursesController</title>
<path fill="none" stroke="black" d="M132,119.5C132,119.5 224,119.5 224,119.5 230,119.5 236,113.5 236,107.5 236,107.5 236,-201.5 236,-201.5 236,-207.5 230,-213.5 224,-213.5 224,-213.5 132,-213.5 132,-213.5 126,-213.5 120,-207.5 120,-201.5 120,-201.5 120,107.5 120,107.5 120,113.5 126,119.5 132,119.5"/>
<text text-anchor="middle" x="178" y="-198.3" font-family="Times,serif" font-size="14.00">CoursesController</text>
<polyline fill="none" stroke="black" points="120,-190.5 236,-190.5 "/>
<text text-anchor="start" x="128" y="-175.3" font-family="Times,serif" font-size="14.00">accept_roster</text>
<text text-anchor="start" x="128" y="-160.3" font-family="Times,serif" font-size="14.00">add_instructors</text>
<text text-anchor="start" x="128" y="-145.3" font-family="Times,serif" font-size="14.00">add_students</text>
<text text-anchor="start" x="128" y="-130.3" font-family="Times,serif" font-size="14.00">create</text>
<text text-anchor="start" x="128" y="-115.3" font-family="Times,serif" font-size="14.00">decline_roster</text>
<text text-anchor="start" x="128" y="-100.3" font-family="Times,serif" font-size="14.00">destroy</text>
<text text-anchor="start" x="128" y="-85.3" font-family="Times,serif" font-size="14.00">drop_student</text>
<text text-anchor="start" x="128" y="-70.3" font-family="Times,serif" font-size="14.00">edit</text>
<text text-anchor="start" x="128" y="-55.3" font-family="Times,serif" font-size="14.00">index</text>
<text text-anchor="start" x="128" y="-40.3" font-family="Times,serif" font-size="14.00">new</text>
<text text-anchor="start" x="128" y="-25.3" font-family="Times,serif" font-size="14.00">re_invite_student</text>
<text text-anchor="start" x="128" y="-10.3" font-family="Times,serif" font-size="14.00">remove_instructor</text>
<text text-anchor="start" x="128" y="4.7" font-family="Times,serif" font-size="14.00">show</text>
<text text-anchor="start" x="128" y="19.7" font-family="Times,serif" font-size="14.00">update</text>
<polyline fill="none" stroke="black" points="120,27.5 236,27.5 "/>
<polyline fill="none" stroke="black" points="120,51.5 236,51.5 "/>
<text text-anchor="start" x="128" y="66.7" font-family="Times,serif" font-size="14.00">_layout</text>
<text text-anchor="start" x="128" y="81.7" font-family="Times,serif" font-size="14.00">check_admin</text>
<text text-anchor="start" x="128" y="96.7" font-family="Times,serif" font-size="14.00">course_params</text>
<text text-anchor="start" x="128" y="111.7" font-family="Times,serif" font-size="14.00">set_course</text>
</g>
<!-- ApplicationController -->
<g id="node6" class="node"><title>ApplicationController</title>
<path fill="none" stroke="black" d="M292,-61C292,-61 462,-61 462,-61 468,-61 474,-67 474,-73 474,-73 474,-157 474,-157 474,-163 468,-169 462,-169 462,-169 292,-169 292,-169 286,-169 280,-163 280,-157 280,-157 280,-73 280,-73 280,-67 286,-61 292,-61"/>
<text text-anchor="middle" x="377" y="-153.8" font-family="Times,serif" font-size="14.00">ApplicationController</text>
<polyline fill="none" stroke="black" points="280,-146 474,-146 "/>
<polyline fill="none" stroke="black" points="280,-122 474,-122 "/>
<text text-anchor="start" x="288" y="-106.8" font-family="Times,serif" font-size="14.00">configure_permitted_parameters</text>
<text text-anchor="start" x="288" y="-91.8" font-family="Times,serif" font-size="14.00">set_time_zone</text>
<polyline fill="none" stroke="black" points="280,-84 474,-84 "/>
<text text-anchor="start" x="288" y="-68.8" font-family="Times,serif" font-size="14.00">_layout</text>
</g>
<!-- RegistrationsController -->
<g id="node7" class="node"><title>RegistrationsController</title>
<path fill="none" stroke="black" d="M-287.5,299.5C-287.5,299.5 -168.5,299.5 -168.5,299.5 -162.5,299.5 -156.5,293.5 -156.5,287.5 -156.5,287.5 -156.5,218.5 -156.5,218.5 -156.5,212.5 -162.5,206.5 -168.5,206.5 -168.5,206.5 -287.5,206.5 -287.5,206.5 -293.5,206.5 -299.5,212.5 -299.5,218.5 -299.5,218.5 -299.5,287.5 -299.5,287.5 -299.5,293.5 -293.5,299.5 -287.5,299.5"/>
<text text-anchor="middle" x="-228" y="221.7" font-family="Times,serif" font-size="14.00">RegistrationsController</text>
<polyline fill="none" stroke="black" points="-299.5,229.5 -156.5,229.5 "/>
<polyline fill="none" stroke="black" points="-299.5,253.5 -156.5,253.5 "/>
<text text-anchor="start" x="-291.5" y="268.7" font-family="Times,serif" font-size="14.00">update_resource</text>
<polyline fill="none" stroke="black" points="-299.5,276.5 -156.5,276.5 "/>
<text text-anchor="start" x="-291.5" y="291.7" font-family="Times,serif" font-size="14.00">_layout</text>
</g>
<!-- ExperiencesController -->
<g id="node8" class="node"><title>ExperiencesController</title>
<path fill="none" stroke="black" d="M-48,-161C-48,-161 66,-161 66,-161 72,-161 78,-167 78,-173 78,-173 78,-467 78,-467 78,-473 72,-479 66,-479 66,-479 -48,-479 -48,-479 -54,-479 -60,-473 -60,-467 -60,-467 -60,-173 -60,-173 -60,-167 -54,-161 -48,-161"/>
<text text-anchor="middle" x="9" y="-463.8" font-family="Times,serif" font-size="14.00">ExperiencesController</text>
<polyline fill="none" stroke="black" points="-60,-456 78,-456 "/>
<text text-anchor="start" x="-52" y="-440.8" font-family="Times,serif" font-size="14.00">activate</text>
<text text-anchor="start" x="-52" y="-425.8" font-family="Times,serif" font-size="14.00">create</text>
<text text-anchor="start" x="-52" y="-410.8" font-family="Times,serif" font-size="14.00">destroy</text>
<text text-anchor="start" x="-52" y="-395.8" font-family="Times,serif" font-size="14.00">diagnose</text>
<text text-anchor="start" x="-52" y="-380.8" font-family="Times,serif" font-size="14.00">edit</text>
<text text-anchor="start" x="-52" y="-365.8" font-family="Times,serif" font-size="14.00">index</text>
<text text-anchor="start" x="-52" y="-350.8" font-family="Times,serif" font-size="14.00">new</text>
<text text-anchor="start" x="-52" y="-335.8" font-family="Times,serif" font-size="14.00">next</text>
<text text-anchor="start" x="-52" y="-320.8" font-family="Times,serif" font-size="14.00">react</text>
<text text-anchor="start" x="-52" y="-305.8" font-family="Times,serif" font-size="14.00">show</text>
<text text-anchor="start" x="-52" y="-290.8" font-family="Times,serif" font-size="14.00">update</text>
<polyline fill="none" stroke="black" points="-60,-283 78,-283 "/>
<polyline fill="none" stroke="black" points="-60,-259 78,-259 "/>
<text text-anchor="start" x="-52" y="-243.8" font-family="Times,serif" font-size="14.00">_layout</text>
<text text-anchor="start" x="-52" y="-228.8" font-family="Times,serif" font-size="14.00">check_admin</text>
<text text-anchor="start" x="-52" y="-213.8" font-family="Times,serif" font-size="14.00">diagnosis_params</text>
<text text-anchor="start" x="-52" y="-198.8" font-family="Times,serif" font-size="14.00">experience_params</text>
<text text-anchor="start" x="-52" y="-183.8" font-family="Times,serif" font-size="14.00">reaction_params</text>
<text text-anchor="start" x="-52" y="-168.8" font-family="Times,serif" font-size="14.00">set_experience</text>
</g>
<!-- Users::OmniauthCallbacksController -->
<g id="node9" class="node"><title>Users::OmniauthCallbacksController</title>
<path fill="none" stroke="black" d="M292,79C292,79 486,79 486,79 492,79 498,73 498,67 498,67 498,-17 498,-17 498,-23 492,-29 486,-29 486,-29 292,-29 292,-29 286,-29 280,-23 280,-17 280,-17 280,67 280,67 280,73 286,79 292,79"/>
<text text-anchor="middle" x="389" y="-13.8" font-family="Times,serif" font-size="14.00">Users::OmniauthCallbacksController</text>
<polyline fill="none" stroke="black" points="280,-6 498,-6 "/>
<text text-anchor="start" x="288" y="9.2" font-family="Times,serif" font-size="14.00">failure</text>
<text text-anchor="start" x="288" y="24.2" font-family="Times,serif" font-size="14.00">google_oauth2</text>
<polyline fill="none" stroke="black" points="280,32 498,32 "/>
<polyline fill="none" stroke="black" points="280,56 498,56 "/>
<text text-anchor="start" x="288" y="71.2" font-family="Times,serif" font-size="14.00">_layout</text>
</g>
<!-- HomeController -->
<g id="node10" class="node"><title>HomeController</title>
<path fill="none" stroke="black" d="M132,-260.5C132,-260.5 214,-260.5 214,-260.5 220,-260.5 226,-266.5 226,-272.5 226,-272.5 226,-341.5 226,-341.5 226,-347.5 220,-353.5 214,-353.5 214,-353.5 132,-353.5 132,-353.5 126,-353.5 120,-347.5 120,-341.5 120,-341.5 120,-272.5 120,-272.5 120,-266.5 126,-260.5 132,-260.5"/>
<text text-anchor="middle" x="173" y="-338.3" font-family="Times,serif" font-size="14.00">HomeController</text>
<polyline fill="none" stroke="black" points="120,-330.5 226,-330.5 "/>
<text text-anchor="start" x="128" y="-315.3" font-family="Times,serif" font-size="14.00">index</text>
<polyline fill="none" stroke="black" points="120,-307.5 226,-307.5 "/>
<polyline fill="none" stroke="black" points="120,-283.5 226,-283.5 "/>
<text text-anchor="start" x="128" y="-268.3" font-family="Times,serif" font-size="14.00">_layout</text>
</g>
<!-- InstallmentsController -->
<g id="node11" class="node"><title>InstallmentsController</title>
<path fill="none" stroke="black" d="M-247.5,-0.5C-247.5,-0.5 -132.5,-0.5 -132.5,-0.5 -126.5,-0.5 -120.5,-6.5 -120.5,-12.5 -120.5,-12.5 -120.5,-171.5 -120.5,-171.5 -120.5,-177.5 -126.5,-183.5 -132.5,-183.5 -132.5,-183.5 -247.5,-183.5 -247.5,-183.5 -253.5,-183.5 -259.5,-177.5 -259.5,-171.5 -259.5,-171.5 -259.5,-12.5 -259.5,-12.5 -259.5,-6.5 -253.5,-0.5 -247.5,-0.5"/>
<text text-anchor="middle" x="-190" y="-168.3" font-family="Times,serif" font-size="14.00">InstallmentsController</text>
<polyline fill="none" stroke="black" points="-259.5,-160.5 -120.5,-160.5 "/>
<text text-anchor="start" x="-251.5" y="-145.3" font-family="Times,serif" font-size="14.00">create</text>
<text text-anchor="start" x="-251.5" y="-130.3" font-family="Times,serif" font-size="14.00">demo_complete</text>
<text text-anchor="start" x="-251.5" y="-115.3" font-family="Times,serif" font-size="14.00">demo_start</text>
<text text-anchor="start" x="-251.5" y="-100.3" font-family="Times,serif" font-size="14.00">edit</text>
<text text-anchor="start" x="-251.5" y="-85.3" font-family="Times,serif" font-size="14.00">new</text>
<text text-anchor="start" x="-251.5" y="-70.3" font-family="Times,serif" font-size="14.00">update</text>
<polyline fill="none" stroke="black" points="-259.5,-62.5 -120.5,-62.5 "/>
<polyline fill="none" stroke="black" points="-259.5,-38.5 -120.5,-38.5 "/>
<text text-anchor="start" x="-251.5" y="-23.3" font-family="Times,serif" font-size="14.00">_layout</text>
<text text-anchor="start" x="-251.5" y="-8.3" font-family="Times,serif" font-size="14.00">i_params</text>
</g>
<!-- ConsentLogsController -->
<g id="node12" class="node"><title>ConsentLogsController</title>
<path fill="none" stroke="black" d="M-247.5,159.5C-247.5,159.5 -128.5,159.5 -128.5,159.5 -122.5,159.5 -116.5,153.5 -116.5,147.5 -116.5,147.5 -116.5,48.5 -116.5,48.5 -116.5,42.5 -122.5,36.5 -128.5,36.5 -128.5,36.5 -247.5,36.5 -247.5,36.5 -253.5,36.5 -259.5,42.5 -259.5,48.5 -259.5,48.5 -259.5,147.5 -259.5,147.5 -259.5,153.5 -253.5,159.5 -247.5,159.5"/>
<text text-anchor="middle" x="-188" y="51.7" font-family="Times,serif" font-size="14.00">ConsentLogsController</text>
<polyline fill="none" stroke="black" points="-259.5,59.5 -116.5,59.5 "/>
<text text-anchor="start" x="-251.5" y="74.7" font-family="Times,serif" font-size="14.00">edit</text>
<text text-anchor="start" x="-251.5" y="89.7" font-family="Times,serif" font-size="14.00">update</text>
<polyline fill="none" stroke="black" points="-259.5,97.5 -116.5,97.5 "/>
<polyline fill="none" stroke="black" points="-259.5,121.5 -116.5,121.5 "/>
<text text-anchor="start" x="-251.5" y="136.7" font-family="Times,serif" font-size="14.00">_layout</text>
<text text-anchor="start" x="-251.5" y="151.7" font-family="Times,serif" font-size="14.00">cl_params</text>
</g>
<!-- GraphingController -->
<g id="node13" class="node"><title>GraphingController</title>
<path fill="none" stroke="black" d="M292.5,280C292.5,280 443.5,280 443.5,280 449.5,280 455.5,274 455.5,268 455.5,268 455.5,124 455.5,124 455.5,118 449.5,112 443.5,112 443.5,112 292.5,112 292.5,112 286.5,112 280.5,118 280.5,124 280.5,124 280.5,268 280.5,268 280.5,274 286.5,280 292.5,280"/>
<text text-anchor="middle" x="368" y="127.2" font-family="Times,serif" font-size="14.00">GraphingController</text>
<polyline fill="none" stroke="black" points="280.5,135 455.5,135 "/>
<text text-anchor="start" x="288.5" y="150.2" font-family="Times,serif" font-size="14.00">data</text>
<text text-anchor="start" x="288.5" y="165.2" font-family="Times,serif" font-size="14.00">index</text>
<text text-anchor="start" x="288.5" y="180.2" font-family="Times,serif" font-size="14.00">individual_summary_data</text>
<text text-anchor="start" x="288.5" y="195.2" font-family="Times,serif" font-size="14.00">pull_and_organise_user_data</text>
<text text-anchor="start" x="288.5" y="210.2" font-family="Times,serif" font-size="14.00">raw_data</text>
<text text-anchor="start" x="288.5" y="225.2" font-family="Times,serif" font-size="14.00">subjects</text>
<polyline fill="none" stroke="black" points="280.5,233 455.5,233 "/>
<polyline fill="none" stroke="black" points="280.5,257 455.5,257 "/>
<text text-anchor="start" x="288.5" y="272.2" font-family="Times,serif" font-size="14.00">_layout</text>
</g>
</g>
</svg>
