<?xml version="1.0" encoding="UTF-8" standalone="no"?>
<!DOCTYPE svg PUBLIC "-//W3C//DTD SVG 1.1//EN"
 "http://www.w3.org/Graphics/SVG/1.1/DTD/svg11.dtd">
<!-- Generated by graphviz version 2.38.0 (20140413.2041)
 -->
<!-- Title: controllers_diagram Pages: 1 -->
<svg width="706pt" height="699pt"
 viewBox="0.00 0.00 705.50 699.00" xmlns="http://www.w3.org/2000/svg" xmlns:xlink="http://www.w3.org/1999/xlink">
<g id="graph0" class="graph" transform="scale(1 1) rotate(0) translate(255.5 443.5)">
<title>controllers_diagram</title>
<polygon fill="none" stroke="none" points="-255.5,255.5 -255.5,-443.5 450,-443.5 450,255.5 -255.5,255.5"/>
<!-- _diagram_info -->
<g id="node1" class="node"><title>_diagram_info</title>
<text text-anchor="start" x="260" y="-99.6" font-family="Times,serif" font-size="13.00">Controllers diagram</text>
<text text-anchor="start" x="260" y="-85.6" font-family="Times,serif" font-size="13.00">Date: Mar 03 2017 &#45; 11:59</text>
<text text-anchor="start" x="260" y="-71.6" font-family="Times,serif" font-size="13.00">Migration version: 0</text>
<text text-anchor="start" x="260" y="-57.6" font-family="Times,serif" font-size="13.00">Generated by RailRoady 1.5.2</text>
<text text-anchor="start" x="260" y="-43.6" font-family="Times,serif" font-size="13.00">http://railroady.prestonlee.com</text>
</g>
<!-- ProjectsController -->
<g id="node2" class="node"><title>ProjectsController</title>
<path fill="none" stroke="black" d="M-24,-181C-24,-181 68,-181 68,-181 74,-181 80,-187 80,-193 80,-193 80,-427 80,-427 80,-433 74,-439 68,-439 68,-439 -24,-439 -24,-439 -30,-439 -36,-433 -36,-427 -36,-427 -36,-193 -36,-193 -36,-187 -30,-181 -24,-181"/>
<text text-anchor="middle" x="22" y="-423.8" font-family="Times,serif" font-size="14.00">ProjectsController</text>
<polyline fill="none" stroke="black" points="-36,-416 80,-416 "/>
<text text-anchor="start" x="-28" y="-400.8" font-family="Times,serif" font-size="14.00">add_group</text>
<text text-anchor="start" x="-28" y="-385.8" font-family="Times,serif" font-size="14.00">create</text>
<text text-anchor="start" x="-28" y="-370.8" font-family="Times,serif" font-size="14.00">destroy</text>
<text text-anchor="start" x="-28" y="-355.8" font-family="Times,serif" font-size="14.00">edit</text>
<text text-anchor="start" x="-28" y="-340.8" font-family="Times,serif" font-size="14.00">index</text>
<text text-anchor="start" x="-28" y="-325.8" font-family="Times,serif" font-size="14.00">new</text>
<text text-anchor="start" x="-28" y="-310.8" font-family="Times,serif" font-size="14.00">remove_group</text>
<text text-anchor="start" x="-28" y="-295.8" font-family="Times,serif" font-size="14.00">show</text>
<text text-anchor="start" x="-28" y="-280.8" font-family="Times,serif" font-size="14.00">update</text>
<polyline fill="none" stroke="black" points="-36,-273 80,-273 "/>
<polyline fill="none" stroke="black" points="-36,-249 80,-249 "/>
<text text-anchor="start" x="-28" y="-233.8" font-family="Times,serif" font-size="14.00">_layout</text>
<text text-anchor="start" x="-28" y="-218.8" font-family="Times,serif" font-size="14.00">check_admin</text>
<text text-anchor="start" x="-28" y="-203.8" font-family="Times,serif" font-size="14.00">project_params</text>
<text text-anchor="start" x="-28" y="-188.8" font-family="Times,serif" font-size="14.00">set_project</text>
</g>
<!-- CoursesController -->
<g id="node3" class="node"><title>CoursesController</title>
<path fill="none" stroke="black" d="M120,107C120,107 212,107 212,107 218,107 224,101 224,95 224,95 224,-169 224,-169 224,-175 218,-181 212,-181 212,-181 120,-181 120,-181 114,-181 108,-175 108,-169 108,-169 108,95 108,95 108,101 114,107 120,107"/>
<text text-anchor="middle" x="166" y="-165.8" font-family="Times,serif" font-size="14.00">CoursesController</text>
<polyline fill="none" stroke="black" points="108,-158 224,-158 "/>
<text text-anchor="start" x="116" y="-142.8" font-family="Times,serif" font-size="14.00">accept_roster</text>
<text text-anchor="start" x="116" y="-127.8" font-family="Times,serif" font-size="14.00">add_instructors</text>
<text text-anchor="start" x="116" y="-112.8" font-family="Times,serif" font-size="14.00">add_students</text>
<text text-anchor="start" x="116" y="-97.8" font-family="Times,serif" font-size="14.00">create</text>
<text text-anchor="start" x="116" y="-82.8" font-family="Times,serif" font-size="14.00">decline_roster</text>
<text text-anchor="start" x="116" y="-67.8" font-family="Times,serif" font-size="14.00">destroy</text>
<text text-anchor="start" x="116" y="-52.8" font-family="Times,serif" font-size="14.00">edit</text>
<text text-anchor="start" x="116" y="-37.8" font-family="Times,serif" font-size="14.00">index</text>
<text text-anchor="start" x="116" y="-22.8" font-family="Times,serif" font-size="14.00">new</text>
<text text-anchor="start" x="116" y="-7.8" font-family="Times,serif" font-size="14.00">show</text>
<text text-anchor="start" x="116" y="7.2" font-family="Times,serif" font-size="14.00">update</text>
<polyline fill="none" stroke="black" points="108,15 224,15 "/>
<polyline fill="none" stroke="black" points="108,39 224,39 "/>
<text text-anchor="start" x="116" y="54.2" font-family="Times,serif" font-size="14.00">_layout</text>
<text text-anchor="start" x="116" y="69.2" font-family="Times,serif" font-size="14.00">check_admin</text>
<text text-anchor="start" x="116" y="84.2" font-family="Times,serif" font-size="14.00">course_params</text>
<text text-anchor="start" x="116" y="99.2" font-family="Times,serif" font-size="14.00">set_course</text>
</g>
<!-- ApplicationController -->
<g id="node4" class="node"><title>ApplicationController</title>
<path fill="none" stroke="black" d="M264,107C264,107 434,107 434,107 440,107 446,101 446,95 446,95 446,11 446,11 446,5 440,-1 434,-1 434,-1 264,-1 264,-1 258,-1 252,5 252,11 252,11 252,95 252,95 252,101 258,107 264,107"/>
<text text-anchor="middle" x="349" y="14.2" font-family="Times,serif" font-size="14.00">ApplicationController</text>
<polyline fill="none" stroke="black" points="252,22 446,22 "/>
<polyline fill="none" stroke="black" points="252,46 446,46 "/>
<text text-anchor="start" x="260" y="61.2" font-family="Times,serif" font-size="14.00">configure_permitted_parameters</text>
<text text-anchor="start" x="260" y="76.2" font-family="Times,serif" font-size="14.00">set_time_zone</text>
<polyline fill="none" stroke="black" points="252,84 446,84 "/>
<text text-anchor="start" x="260" y="99.2" font-family="Times,serif" font-size="14.00">_layout</text>
</g>
<!-- RegistrationsController -->
<g id="node5" class="node"><title>RegistrationsController</title>
<path fill="none" stroke="black" d="M-239.5,71.5C-239.5,71.5 -120.5,71.5 -120.5,71.5 -114.5,71.5 -108.5,65.5 -108.5,59.5 -108.5,59.5 -108.5,-9.5 -108.5,-9.5 -108.5,-15.5 -114.5,-21.5 -120.5,-21.5 -120.5,-21.5 -239.5,-21.5 -239.5,-21.5 -245.5,-21.5 -251.5,-15.5 -251.5,-9.5 -251.5,-9.5 -251.5,59.5 -251.5,59.5 -251.5,65.5 -245.5,71.5 -239.5,71.5"/>
<text text-anchor="middle" x="-180" y="-6.3" font-family="Times,serif" font-size="14.00">RegistrationsController</text>
<polyline fill="none" stroke="black" points="-251.5,1.5 -108.5,1.5 "/>
<polyline fill="none" stroke="black" points="-251.5,25.5 -108.5,25.5 "/>
<text text-anchor="start" x="-243.5" y="40.7" font-family="Times,serif" font-size="14.00">update_resource</text>
<polyline fill="none" stroke="black" points="-251.5,48.5 -108.5,48.5 "/>
<text text-anchor="start" x="-243.5" y="63.7" font-family="Times,serif" font-size="14.00">_layout</text>
</g>
<!-- ExperiencesController -->
<g id="node6" class="node"><title>ExperiencesController</title>
<path fill="none" stroke="black" d="M-60,161.5C-60,161.5 54,161.5 54,161.5 60,161.5 66,155.5 66,149.5 66,149.5 66,-129.5 66,-129.5 66,-135.5 60,-141.5 54,-141.5 54,-141.5 -60,-141.5 -60,-141.5 -66,-141.5 -72,-135.5 -72,-129.5 -72,-129.5 -72,149.5 -72,149.5 -72,155.5 -66,161.5 -60,161.5"/>
<text text-anchor="middle" x="-3" y="-126.3" font-family="Times,serif" font-size="14.00">ExperiencesController</text>
<polyline fill="none" stroke="black" points="-72,-118.5 66,-118.5 "/>
<text text-anchor="start" x="-64" y="-103.3" font-family="Times,serif" font-size="14.00">create</text>
<text text-anchor="start" x="-64" y="-88.3" font-family="Times,serif" font-size="14.00">destroy</text>
<text text-anchor="start" x="-64" y="-73.3" font-family="Times,serif" font-size="14.00">diagnose</text>
<text text-anchor="start" x="-64" y="-58.3" font-family="Times,serif" font-size="14.00">edit</text>
<text text-anchor="start" x="-64" y="-43.3" font-family="Times,serif" font-size="14.00">index</text>
<text text-anchor="start" x="-64" y="-28.3" font-family="Times,serif" font-size="14.00">new</text>
<text text-anchor="start" x="-64" y="-13.3" font-family="Times,serif" font-size="14.00">next</text>
<text text-anchor="start" x="-64" y="1.7" font-family="Times,serif" font-size="14.00">react</text>
<text text-anchor="start" x="-64" y="16.7" font-family="Times,serif" font-size="14.00">show</text>
<text text-anchor="start" x="-64" y="31.7" font-family="Times,serif" font-size="14.00">update</text>
<polyline fill="none" stroke="black" points="-72,39.5 66,39.5 "/>
<polyline fill="none" stroke="black" points="-72,63.5 66,63.5 "/>
<text text-anchor="start" x="-64" y="78.7" font-family="Times,serif" font-size="14.00">_layout</text>
<text text-anchor="start" x="-64" y="93.7" font-family="Times,serif" font-size="14.00">check_admin</text>
<text text-anchor="start" x="-64" y="108.7" font-family="Times,serif" font-size="14.00">diagnosis_params</text>
<text text-anchor="start" x="-64" y="123.7" font-family="Times,serif" font-size="14.00">experience_params</text>
<text text-anchor="start" x="-64" y="138.7" font-family="Times,serif" font-size="14.00">reaction_params</text>
<text text-anchor="start" x="-64" y="153.7" font-family="Times,serif" font-size="14.00">set_experience</text>
</g>
<!-- Users::OmniauthCallbacksController -->
<g id="node7" class="node"><title>Users::OmniauthCallbacksController</title>
<path fill="none" stroke="black" d="M120,251C120,251 314,251 314,251 320,251 326,245 326,239 326,239 326,155 326,155 326,149 320,143 314,143 314,143 120,143 120,143 114,143 108,149 108,155 108,155 108,239 108,239 108,245 114,251 120,251"/>
<text text-anchor="middle" x="217" y="158.2" font-family="Times,serif" font-size="14.00">Users::OmniauthCallbacksController</text>
<polyline fill="none" stroke="black" points="108,166 326,166 "/>
<text text-anchor="start" x="116" y="181.2" font-family="Times,serif" font-size="14.00">failure</text>
<text text-anchor="start" x="116" y="196.2" font-family="Times,serif" font-size="14.00">google_oauth2</text>
<polyline fill="none" stroke="black" points="108,204 326,204 "/>
<polyline fill="none" stroke="black" points="108,228 326,228 "/>
<text text-anchor="start" x="116" y="243.2" font-family="Times,serif" font-size="14.00">_layout</text>
</g>
<!-- HomeController -->
<g id="node8" class="node"><title>HomeController</title>
<path fill="none" stroke="black" d="M-204,197.5C-204,197.5 -122,197.5 -122,197.5 -116,197.5 -110,191.5 -110,185.5 -110,185.5 -110,116.5 -110,116.5 -110,110.5 -116,104.5 -122,104.5 -122,104.5 -204,104.5 -204,104.5 -210,104.5 -216,110.5 -216,116.5 -216,116.5 -216,185.5 -216,185.5 -216,191.5 -210,197.5 -204,197.5"/>
<text text-anchor="middle" x="-163" y="119.7" font-family="Times,serif" font-size="14.00">HomeController</text>
<polyline fill="none" stroke="black" points="-216,127.5 -110,127.5 "/>
<text text-anchor="start" x="-208" y="142.7" font-family="Times,serif" font-size="14.00">index</text>
<polyline fill="none" stroke="black" points="-216,150.5 -110,150.5 "/>
<polyline fill="none" stroke="black" points="-216,174.5 -110,174.5 "/>
<text text-anchor="start" x="-208" y="189.7" font-family="Times,serif" font-size="14.00">_layout</text>
</g>
<!-- InstallmentsController -->
<g id="node9" class="node"><title>InstallmentsController</title>
<path fill="none" stroke="black" d="M-203.5,-216.5C-203.5,-216.5 -88.5,-216.5 -88.5,-216.5 -82.5,-216.5 -76.5,-222.5 -76.5,-228.5 -76.5,-228.5 -76.5,-387.5 -76.5,-387.5 -76.5,-393.5 -82.5,-399.5 -88.5,-399.5 -88.5,-399.5 -203.5,-399.5 -203.5,-399.5 -209.5,-399.5 -215.5,-393.5 -215.5,-387.5 -215.5,-387.5 -215.5,-228.5 -215.5,-228.5 -215.5,-222.5 -209.5,-216.5 -203.5,-216.5"/>
<text text-anchor="middle" x="-146" y="-384.3" font-family="Times,serif" font-size="14.00">InstallmentsController</text>
<polyline fill="none" stroke="black" points="-215.5,-376.5 -76.5,-376.5 "/>
<text text-anchor="start" x="-207.5" y="-361.3" font-family="Times,serif" font-size="14.00">create</text>
<text text-anchor="start" x="-207.5" y="-346.3" font-family="Times,serif" font-size="14.00">demo_complete</text>
<text text-anchor="start" x="-207.5" y="-331.3" font-family="Times,serif" font-size="14.00">demo_start</text>
<text text-anchor="start" x="-207.5" y="-316.3" font-family="Times,serif" font-size="14.00">edit</text>
<text text-anchor="start" x="-207.5" y="-301.3" font-family="Times,serif" font-size="14.00">new</text>
<text text-anchor="start" x="-207.5" y="-286.3" font-family="Times,serif" font-size="14.00">update</text>
<polyline fill="none" stroke="black" points="-215.5,-278.5 -76.5,-278.5 "/>
<polyline fill="none" stroke="black" points="-215.5,-254.5 -76.5,-254.5 "/>
<text text-anchor="start" x="-207.5" y="-239.3" font-family="Times,serif" font-size="14.00">_layout</text>
<text text-anchor="start" x="-207.5" y="-224.3" font-family="Times,serif" font-size="14.00">i_params</text>
</g>
<!-- ConsentLogsController -->
<g id="node10" class="node"><title>ConsentLogsController</title>
<path fill="none" stroke="black" d="M-239.5,-54.5C-239.5,-54.5 -120.5,-54.5 -120.5,-54.5 -114.5,-54.5 -108.5,-60.5 -108.5,-66.5 -108.5,-66.5 -108.5,-165.5 -108.5,-165.5 -108.5,-171.5 -114.5,-177.5 -120.5,-177.5 -120.5,-177.5 -239.5,-177.5 -239.5,-177.5 -245.5,-177.5 -251.5,-171.5 -251.5,-165.5 -251.5,-165.5 -251.5,-66.5 -251.5,-66.5 -251.5,-60.5 -245.5,-54.5 -239.5,-54.5"/>
<text text-anchor="middle" x="-180" y="-162.3" font-family="Times,serif" font-size="14.00">ConsentLogsController</text>
<polyline fill="none" stroke="black" points="-251.5,-154.5 -108.5,-154.5 "/>
<text text-anchor="start" x="-243.5" y="-139.3" font-family="Times,serif" font-size="14.00">edit</text>
<text text-anchor="start" x="-243.5" y="-124.3" font-family="Times,serif" font-size="14.00">update</text>
<polyline fill="none" stroke="black" points="-251.5,-116.5 -108.5,-116.5 "/>
<polyline fill="none" stroke="black" points="-251.5,-92.5 -108.5,-92.5 "/>
<text text-anchor="start" x="-243.5" y="-77.3" font-family="Times,serif" font-size="14.00">_layout</text>
<text text-anchor="start" x="-243.5" y="-62.3" font-family="Times,serif" font-size="14.00">cl_params</text>
</g>
<!-- GraphingController -->
<g id="node11" class="node"><title>GraphingController</title>
<path fill="none" stroke="black" d="M228.5,-216C228.5,-216 379.5,-216 379.5,-216 385.5,-216 391.5,-222 391.5,-228 391.5,-228 391.5,-372 391.5,-372 391.5,-378 385.5,-384 379.5,-384 379.5,-384 228.5,-384 228.5,-384 222.5,-384 216.5,-378 216.5,-372 216.5,-372 216.5,-228 216.5,-228 216.5,-222 222.5,-216 228.5,-216"/>
<text text-anchor="middle" x="304" y="-368.8" font-family="Times,serif" font-size="14.00">GraphingController</text>
<polyline fill="none" stroke="black" points="216.5,-361 391.5,-361 "/>
<text text-anchor="start" x="224.5" y="-345.8" font-family="Times,serif" font-size="14.00">data</text>
<text text-anchor="start" x="224.5" y="-330.8" font-family="Times,serif" font-size="14.00">index</text>
<text text-anchor="start" x="224.5" y="-315.8" font-family="Times,serif" font-size="14.00">individual_summary_data</text>
<text text-anchor="start" x="224.5" y="-300.8" font-family="Times,serif" font-size="14.00">pull_and_organise_user_data</text>
<text text-anchor="start" x="224.5" y="-285.8" font-family="Times,serif" font-size="14.00">raw_data</text>
<text text-anchor="start" x="224.5" y="-270.8" font-family="Times,serif" font-size="14.00">subjects</text>
<polyline fill="none" stroke="black" points="216.5,-263 391.5,-263 "/>
<polyline fill="none" stroke="black" points="216.5,-239 391.5,-239 "/>
<text text-anchor="start" x="224.5" y="-223.8" font-family="Times,serif" font-size="14.00">_layout</text>
</g>
</g>
</svg>
