<?xml version="1.0" encoding="UTF-8" standalone="no"?>
<!DOCTYPE svg PUBLIC "-//W3C//DTD SVG 1.1//EN"
 "http://www.w3.org/Graphics/SVG/1.1/DTD/svg11.dtd">
<!-- Generated by graphviz version 2.38.0 (20140413.2041)
 -->
<!-- Title: controllers_diagram Pages: 1 -->
<svg width="458pt" height="420pt"
 viewBox="0.00 0.00 458.00 420.00" xmlns="http://www.w3.org/2000/svg" xmlns:xlink="http://www.w3.org/1999/xlink">
<g id="graph0" class="graph" transform="scale(1 1) rotate(0) translate(116 224)">
<title>controllers_diagram</title>
<polygon fill="none" stroke="none" points="-116,196 -116,-224 342,-224 342,196 -116,196"/>
<!-- _diagram_info -->
<g id="node1" class="node"><title>_diagram_info</title>
<text text-anchor="start" x="88" y="-143.6" font-family="Times,serif" font-size="13.00">Controllers diagram</text>
<text text-anchor="start" x="88" y="-129.6" font-family="Times,serif" font-size="13.00">Date: Jan 19 2017 &#45; 19:45</text>
<text text-anchor="start" x="88" y="-115.6" font-family="Times,serif" font-size="13.00">Migration version: 20170119092916</text>
<text text-anchor="start" x="88" y="-101.6" font-family="Times,serif" font-size="13.00">Generated by RailRoady 1.5.2</text>
<text text-anchor="start" x="88" y="-87.6" font-family="Times,serif" font-size="13.00">http://railroady.prestonlee.com</text>
</g>
<!-- ApplicationController -->
<g id="node2" class="node"><title>ApplicationController</title>
<path fill="none" stroke="black" d="M156,143.5C156,143.5 326,143.5 326,143.5 332,143.5 338,137.5 338,131.5 338,131.5 338,62.5 338,62.5 338,56.5 332,50.5 326,50.5 326,50.5 156,50.5 156,50.5 150,50.5 144,56.5 144,62.5 144,62.5 144,131.5 144,131.5 144,137.5 150,143.5 156,143.5"/>
<text text-anchor="middle" x="241" y="65.7" font-family="Times,serif" font-size="14.00">ApplicationController</text>
<polyline fill="none" stroke="black" points="144,73.5 338,73.5 "/>
<polyline fill="none" stroke="black" points="144,97.5 338,97.5 "/>
<text text-anchor="start" x="152" y="112.7" font-family="Times,serif" font-size="14.00">configure_permitted_parameters</text>
<polyline fill="none" stroke="black" points="144,120.5 338,120.5 "/>
<text text-anchor="start" x="152" y="135.7" font-family="Times,serif" font-size="14.00">_layout</text>
</g>
<!-- Users::OmniauthCallbacksController -->
<g id="node3" class="node"><title>Users::OmniauthCallbacksController</title>
<path fill="none" stroke="black" d="M-100,63C-100,63 94,63 94,63 100,63 106,57 106,51 106,51 106,-33 106,-33 106,-39 100,-45 94,-45 94,-45 -100,-45 -100,-45 -106,-45 -112,-39 -112,-33 -112,-33 -112,51 -112,51 -112,57 -106,63 -100,63"/>
<text text-anchor="middle" x="-3" y="-29.8" font-family="Times,serif" font-size="14.00">Users::OmniauthCallbacksController</text>
<polyline fill="none" stroke="black" points="-112,-22 106,-22 "/>
<text text-anchor="start" x="-104" y="-6.8" font-family="Times,serif" font-size="14.00">failure</text>
<text text-anchor="start" x="-104" y="8.2" font-family="Times,serif" font-size="14.00">google_oauth2</text>
<polyline fill="none" stroke="black" points="-112,16 106,16 "/>
<polyline fill="none" stroke="black" points="-112,40 106,40 "/>
<text text-anchor="start" x="-104" y="55.2" font-family="Times,serif" font-size="14.00">_layout</text>
</g>
<!-- HomeController -->
<g id="node4" class="node"><title>HomeController</title>
<path fill="none" stroke="black" d="M12,191.5C12,191.5 94,191.5 94,191.5 100,191.5 106,185.5 106,179.5 106,179.5 106,110.5 106,110.5 106,104.5 100,98.5 94,98.5 94,98.5 12,98.5 12,98.5 6,98.5 0,104.5 0,110.5 0,110.5 0,179.5 0,179.5 0,185.5 6,191.5 12,191.5"/>
<text text-anchor="middle" x="53" y="113.7" font-family="Times,serif" font-size="14.00">HomeController</text>
<polyline fill="none" stroke="black" points="0,121.5 106,121.5 "/>
<text text-anchor="start" x="8" y="136.7" font-family="Times,serif" font-size="14.00">index</text>
<polyline fill="none" stroke="black" points="0,144.5 106,144.5 "/>
<polyline fill="none" stroke="black" points="0,168.5 106,168.5 "/>
<text text-anchor="start" x="8" y="183.7" font-family="Times,serif" font-size="14.00">_layout</text>
</g>
<!-- ConsentLogsController -->
<g id="node5" class="node"><title>ConsentLogsController</title>
<path fill="none" stroke="black" d="M-83.5,-96.5C-83.5,-96.5 35.5,-96.5 35.5,-96.5 41.5,-96.5 47.5,-102.5 47.5,-108.5 47.5,-108.5 47.5,-207.5 47.5,-207.5 47.5,-213.5 41.5,-219.5 35.5,-219.5 35.5,-219.5 -83.5,-219.5 -83.5,-219.5 -89.5,-219.5 -95.5,-213.5 -95.5,-207.5 -95.5,-207.5 -95.5,-108.5 -95.5,-108.5 -95.5,-102.5 -89.5,-96.5 -83.5,-96.5"/>
<text text-anchor="middle" x="-24" y="-204.3" font-family="Times,serif" font-size="14.00">ConsentLogsController</text>
<polyline fill="none" stroke="black" points="-95.5,-196.5 47.5,-196.5 "/>
<text text-anchor="start" x="-87.5" y="-181.3" font-family="Times,serif" font-size="14.00">edit</text>
<text text-anchor="start" x="-87.5" y="-166.3" font-family="Times,serif" font-size="14.00">update</text>
<polyline fill="none" stroke="black" points="-95.5,-158.5 47.5,-158.5 "/>
<polyline fill="none" stroke="black" points="-95.5,-134.5 47.5,-134.5 "/>
<text text-anchor="start" x="-87.5" y="-119.3" font-family="Times,serif" font-size="14.00">_layout</text>
<text text-anchor="start" x="-87.5" y="-104.3" font-family="Times,serif" font-size="14.00">cl_params</text>
</g>
</g>
</svg>
