<?xml version="1.0" encoding="UTF-8" standalone="no"?>
<!DOCTYPE svg PUBLIC "-//W3C//DTD SVG 1.1//EN"
 "http://www.w3.org/Graphics/SVG/1.1/DTD/svg11.dtd">
<!-- Generated by graphviz version 2.36.0 (20140111.2315)
 -->
<!-- Title: controllers_diagram Pages: 1 -->
<svg width="792pt" height="692pt"
 viewBox="0.00 0.00 792.00 692.00" xmlns="http://www.w3.org/2000/svg" xmlns:xlink="http://www.w3.org/1999/xlink">
<g id="graph0" class="graph" transform="scale(1 1) rotate(0) translate(4 688)">
<title>controllers_diagram</title>
<polygon fill="none" stroke="none" points="-4,4 -4,-688 788,-688 788,4 -4,4"/>
<!-- _diagram_info -->
<g id="node1" class="node"><title>_diagram_info</title>
<text text-anchor="start" x="48" y="-63.6" font-family="Times,serif" font-size="13.00">Controllers diagram</text>
<text text-anchor="start" x="48" y="-49.6" font-family="Times,serif" font-size="13.00">Date: Feb 20 2017 &#45; 21:07</text>
<text text-anchor="start" x="48" y="-35.6" font-family="Times,serif" font-size="13.00">Migration version: 20170220103043</text>
<text text-anchor="start" x="48" y="-21.6" font-family="Times,serif" font-size="13.00">Generated by RailRoady 1.5.2</text>
<text text-anchor="start" x="48" y="-7.6" font-family="Times,serif" font-size="13.00">http://railroady.prestonlee.com</text>
</g>
<!-- ApplicationController -->
<g id="node2" class="node"><title>ApplicationController</title>
<path fill="none" stroke="black" d="M412,-20.5C412,-20.5 641,-20.5 641,-20.5 647,-20.5 653,-26.5 653,-32.5 653,-32.5 653,-116.5 653,-116.5 653,-122.5 647,-128.5 641,-128.5 641,-128.5 412,-128.5 412,-128.5 406,-128.5 400,-122.5 400,-116.5 400,-116.5 400,-32.5 400,-32.5 400,-26.5 406,-20.5 412,-20.5"/>
<text text-anchor="middle" x="526.5" y="-113.3" font-family="Times,serif" font-size="14.00">ApplicationController</text>
<polyline fill="none" stroke="black" points="400,-105.5 653,-105.5 "/>
<polyline fill="none" stroke="black" points="400,-81.5 653,-81.5 "/>
<text text-anchor="start" x="408" y="-66.3" font-family="Times,serif" font-size="14.00">configure_permitted_parameters</text>
<text text-anchor="start" x="408" y="-51.3" font-family="Times,serif" font-size="14.00">set_time_zone</text>
<polyline fill="none" stroke="black" points="400,-43.5 653,-43.5 "/>
<text text-anchor="start" x="408" y="-28.3" font-family="Times,serif" font-size="14.00">_layout</text>
</g>
<!-- ConsentLogsController -->
<g id="node3" class="node"><title>ConsentLogsController</title>
<path fill="none" stroke="black" d="M612,-560.5C612,-560.5 772,-560.5 772,-560.5 778,-560.5 784,-566.5 784,-572.5 784,-572.5 784,-671.5 784,-671.5 784,-677.5 778,-683.5 772,-683.5 772,-683.5 612,-683.5 612,-683.5 606,-683.5 600,-677.5 600,-671.5 600,-671.5 600,-572.5 600,-572.5 600,-566.5 606,-560.5 612,-560.5"/>
<text text-anchor="middle" x="692" y="-668.3" font-family="Times,serif" font-size="14.00">ConsentLogsController</text>
<polyline fill="none" stroke="black" points="600,-660.5 784,-660.5 "/>
<text text-anchor="start" x="608" y="-645.3" font-family="Times,serif" font-size="14.00">edit</text>
<text text-anchor="start" x="608" y="-630.3" font-family="Times,serif" font-size="14.00">update</text>
<polyline fill="none" stroke="black" points="600,-622.5 784,-622.5 "/>
<polyline fill="none" stroke="black" points="600,-598.5 784,-598.5 "/>
<text text-anchor="start" x="608" y="-583.3" font-family="Times,serif" font-size="14.00">_layout</text>
<text text-anchor="start" x="608" y="-568.3" font-family="Times,serif" font-size="14.00">cl_params</text>
</g>
<!-- CoursesController -->
<g id="node4" class="node"><title>CoursesController</title>
<path fill="none" stroke="black" d="M232,-120.5C232,-120.5 357,-120.5 357,-120.5 363,-120.5 369,-126.5 369,-132.5 369,-132.5 369,-381.5 369,-381.5 369,-387.5 363,-393.5 357,-393.5 357,-393.5 232,-393.5 232,-393.5 226,-393.5 220,-387.5 220,-381.5 220,-381.5 220,-132.5 220,-132.5 220,-126.5 226,-120.5 232,-120.5"/>
<text text-anchor="middle" x="294.5" y="-378.3" font-family="Times,serif" font-size="14.00">CoursesController</text>
<polyline fill="none" stroke="black" points="220,-370.5 369,-370.5 "/>
<text text-anchor="start" x="228" y="-355.3" font-family="Times,serif" font-size="14.00">accept_roster</text>
<text text-anchor="start" x="228" y="-340.3" font-family="Times,serif" font-size="14.00">add_instructors</text>
<text text-anchor="start" x="228" y="-325.3" font-family="Times,serif" font-size="14.00">add_students</text>
<text text-anchor="start" x="228" y="-310.3" font-family="Times,serif" font-size="14.00">create</text>
<text text-anchor="start" x="228" y="-295.3" font-family="Times,serif" font-size="14.00">decline_roster</text>
<text text-anchor="start" x="228" y="-280.3" font-family="Times,serif" font-size="14.00">destroy</text>
<text text-anchor="start" x="228" y="-265.3" font-family="Times,serif" font-size="14.00">edit</text>
<text text-anchor="start" x="228" y="-250.3" font-family="Times,serif" font-size="14.00">index</text>
<text text-anchor="start" x="228" y="-235.3" font-family="Times,serif" font-size="14.00">new</text>
<text text-anchor="start" x="228" y="-220.3" font-family="Times,serif" font-size="14.00">show</text>
<text text-anchor="start" x="228" y="-205.3" font-family="Times,serif" font-size="14.00">update</text>
<polyline fill="none" stroke="black" points="220,-197.5 369,-197.5 "/>
<polyline fill="none" stroke="black" points="220,-173.5 369,-173.5 "/>
<text text-anchor="start" x="228" y="-158.3" font-family="Times,serif" font-size="14.00">_layout</text>
<text text-anchor="start" x="228" y="-143.3" font-family="Times,serif" font-size="14.00">course_params</text>
<text text-anchor="start" x="228" y="-128.3" font-family="Times,serif" font-size="14.00">set_course</text>
</g>
<!-- GraphingController -->
<g id="node5" class="node"><title>GraphingController</title>
<path fill="none" stroke="black" d="M412,-160.5C412,-160.5 612,-160.5 612,-160.5 618,-160.5 624,-166.5 624,-172.5 624,-172.5 624,-316.5 624,-316.5 624,-322.5 618,-328.5 612,-328.5 612,-328.5 412,-328.5 412,-328.5 406,-328.5 400,-322.5 400,-316.5 400,-316.5 400,-172.5 400,-172.5 400,-166.5 406,-160.5 412,-160.5"/>
<text text-anchor="middle" x="512" y="-313.3" font-family="Times,serif" font-size="14.00">GraphingController</text>
<polyline fill="none" stroke="black" points="400,-305.5 624,-305.5 "/>
<text text-anchor="start" x="408" y="-290.3" font-family="Times,serif" font-size="14.00">data</text>
<text text-anchor="start" x="408" y="-275.3" font-family="Times,serif" font-size="14.00">index</text>
<text text-anchor="start" x="408" y="-260.3" font-family="Times,serif" font-size="14.00">individual_summary_data</text>
<text text-anchor="start" x="408" y="-245.3" font-family="Times,serif" font-size="14.00">pull_and_organise_user_data</text>
<text text-anchor="start" x="408" y="-230.3" font-family="Times,serif" font-size="14.00">raw_data</text>
<text text-anchor="start" x="408" y="-215.3" font-family="Times,serif" font-size="14.00">subjects</text>
<polyline fill="none" stroke="black" points="400,-207.5 624,-207.5 "/>
<polyline fill="none" stroke="black" points="400,-183.5 624,-183.5 "/>
<text text-anchor="start" x="408" y="-168.3" font-family="Times,serif" font-size="14.00">_layout</text>
</g>
<!-- HomeController -->
<g id="node6" class="node"><title>HomeController</title>
<path fill="none" stroke="black" d="M52,-200.5C52,-200.5 161,-200.5 161,-200.5 167,-200.5 173,-206.5 173,-212.5 173,-212.5 173,-281.5 173,-281.5 173,-287.5 167,-293.5 161,-293.5 161,-293.5 52,-293.5 52,-293.5 46,-293.5 40,-287.5 40,-281.5 40,-281.5 40,-212.5 40,-212.5 40,-206.5 46,-200.5 52,-200.5"/>
<text text-anchor="middle" x="106.5" y="-278.3" font-family="Times,serif" font-size="14.00">HomeController</text>
<polyline fill="none" stroke="black" points="40,-270.5 173,-270.5 "/>
<text text-anchor="start" x="48" y="-255.3" font-family="Times,serif" font-size="14.00">index</text>
<polyline fill="none" stroke="black" points="40,-247.5 173,-247.5 "/>
<polyline fill="none" stroke="black" points="40,-223.5 173,-223.5 "/>
<text text-anchor="start" x="48" y="-208.3" font-family="Times,serif" font-size="14.00">_layout</text>
</g>
<!-- InstallmentsController -->
<g id="node7" class="node"><title>InstallmentsController</title>
<path fill="none" stroke="black" d="M592,-360.5C592,-360.5 748,-360.5 748,-360.5 754,-360.5 760,-366.5 760,-372.5 760,-372.5 760,-501.5 760,-501.5 760,-507.5 754,-513.5 748,-513.5 748,-513.5 592,-513.5 592,-513.5 586,-513.5 580,-507.5 580,-501.5 580,-501.5 580,-372.5 580,-372.5 580,-366.5 586,-360.5 592,-360.5"/>
<text text-anchor="middle" x="670" y="-498.3" font-family="Times,serif" font-size="14.00">InstallmentsController</text>
<polyline fill="none" stroke="black" points="580,-490.5 760,-490.5 "/>
<text text-anchor="start" x="588" y="-475.3" font-family="Times,serif" font-size="14.00">create</text>
<text text-anchor="start" x="588" y="-460.3" font-family="Times,serif" font-size="14.00">edit</text>
<text text-anchor="start" x="588" y="-445.3" font-family="Times,serif" font-size="14.00">new</text>
<text text-anchor="start" x="588" y="-430.3" font-family="Times,serif" font-size="14.00">update</text>
<polyline fill="none" stroke="black" points="580,-422.5 760,-422.5 "/>
<polyline fill="none" stroke="black" points="580,-398.5 760,-398.5 "/>
<text text-anchor="start" x="588" y="-383.3" font-family="Times,serif" font-size="14.00">_layout</text>
<text text-anchor="start" x="588" y="-368.3" font-family="Times,serif" font-size="14.00">i_params</text>
</g>
<!-- ProjectsController -->
<g id="node8" class="node"><title>ProjectsController</title>
<path fill="none" stroke="black" d="M412,-360.5C412,-360.5 537,-360.5 537,-360.5 543,-360.5 549,-366.5 549,-372.5 549,-372.5 549,-576.5 549,-576.5 549,-582.5 543,-588.5 537,-588.5 537,-588.5 412,-588.5 412,-588.5 406,-588.5 400,-582.5 400,-576.5 400,-576.5 400,-372.5 400,-372.5 400,-366.5 406,-360.5 412,-360.5"/>
<text text-anchor="middle" x="474.5" y="-573.3" font-family="Times,serif" font-size="14.00">ProjectsController</text>
<polyline fill="none" stroke="black" points="400,-565.5 549,-565.5 "/>
<text text-anchor="start" x="408" y="-550.3" font-family="Times,serif" font-size="14.00">add_group</text>
<text text-anchor="start" x="408" y="-535.3" font-family="Times,serif" font-size="14.00">create</text>
<text text-anchor="start" x="408" y="-520.3" font-family="Times,serif" font-size="14.00">destroy</text>
<text text-anchor="start" x="408" y="-505.3" font-family="Times,serif" font-size="14.00">edit</text>
<text text-anchor="start" x="408" y="-490.3" font-family="Times,serif" font-size="14.00">index</text>
<text text-anchor="start" x="408" y="-475.3" font-family="Times,serif" font-size="14.00">new</text>
<text text-anchor="start" x="408" y="-460.3" font-family="Times,serif" font-size="14.00">show</text>
<text text-anchor="start" x="408" y="-445.3" font-family="Times,serif" font-size="14.00">update</text>
<polyline fill="none" stroke="black" points="400,-437.5 549,-437.5 "/>
<polyline fill="none" stroke="black" points="400,-413.5 549,-413.5 "/>
<text text-anchor="start" x="408" y="-398.3" font-family="Times,serif" font-size="14.00">_layout</text>
<text text-anchor="start" x="408" y="-383.3" font-family="Times,serif" font-size="14.00">project_params</text>
<text text-anchor="start" x="408" y="-368.3" font-family="Times,serif" font-size="14.00">set_project</text>
</g>
<!-- RegistrationsController -->
<g id="node9" class="node"><title>RegistrationsController</title>
<path fill="none" stroke="black" d="M12,-340.5C12,-340.5 174,-340.5 174,-340.5 180,-340.5 186,-346.5 186,-352.5 186,-352.5 186,-421.5 186,-421.5 186,-427.5 180,-433.5 174,-433.5 174,-433.5 12,-433.5 12,-433.5 6,-433.5 -2.84217e-14,-427.5 -2.84217e-14,-421.5 -2.84217e-14,-421.5 -2.84217e-14,-352.5 -2.84217e-14,-352.5 -2.84217e-14,-346.5 6,-340.5 12,-340.5"/>
<text text-anchor="middle" x="93" y="-418.3" font-family="Times,serif" font-size="14.00">RegistrationsController</text>
<polyline fill="none" stroke="black" points="-2.84217e-14,-410.5 186,-410.5 "/>
<polyline fill="none" stroke="black" points="-2.84217e-14,-386.5 186,-386.5 "/>
<text text-anchor="start" x="8" y="-371.3" font-family="Times,serif" font-size="14.00">update_resource</text>
<polyline fill="none" stroke="black" points="-2.84217e-14,-363.5 186,-363.5 "/>
<text text-anchor="start" x="8" y="-348.3" font-family="Times,serif" font-size="14.00">_layout</text>
</g>
<!-- Users::OmniauthCallbacksController -->
<g id="node10" class="node"><title>Users::OmniauthCallbacksController</title>
<path fill="none" stroke="black" d="M92,-480.5C92,-480.5 349,-480.5 349,-480.5 355,-480.5 361,-486.5 361,-492.5 361,-492.5 361,-576.5 361,-576.5 361,-582.5 355,-588.5 349,-588.5 349,-588.5 92,-588.5 92,-588.5 86,-588.5 80,-582.5 80,-576.5 80,-576.5 80,-492.5 80,-492.5 80,-486.5 86,-480.5 92,-480.5"/>
<text text-anchor="middle" x="220.5" y="-573.3" font-family="Times,serif" font-size="14.00">Users::OmniauthCallbacksController</text>
<polyline fill="none" stroke="black" points="80,-565.5 361,-565.5 "/>
<text text-anchor="start" x="88" y="-550.3" font-family="Times,serif" font-size="14.00">failure</text>
<text text-anchor="start" x="88" y="-535.3" font-family="Times,serif" font-size="14.00">google_oauth2</text>
<polyline fill="none" stroke="black" points="80,-527.5 361,-527.5 "/>
<polyline fill="none" stroke="black" points="80,-503.5 361,-503.5 "/>
<text text-anchor="start" x="88" y="-488.3" font-family="Times,serif" font-size="14.00">_layout</text>
</g>
</g>
</svg>
