<?xml version="1.0" encoding="UTF-8" standalone="no"?>
<!DOCTYPE svg PUBLIC "-//W3C//DTD SVG 1.1//EN"
 "http://www.w3.org/Graphics/SVG/1.1/DTD/svg11.dtd">
<!-- Generated by graphviz version 2.36.0 (20140111.2315)
 -->
<!-- Title: controllers_diagram Pages: 1 -->
<svg width="530pt" height="525pt"
 viewBox="0.00 0.00 530.00 525.00" xmlns="http://www.w3.org/2000/svg" xmlns:xlink="http://www.w3.org/1999/xlink">
<g id="graph0" class="graph" transform="scale(1 1) rotate(0) translate(4 521)">
<title>controllers_diagram</title>
<polygon fill="none" stroke="none" points="-4,4 -4,-521 526,-521 526,4 -4,4"/>
<!-- _diagram_info -->
<g id="node1" class="node"><title>_diagram_info</title>
<text text-anchor="start" x="242" y="-333.6" font-family="Times,serif" font-size="13.00">Controllers diagram</text>
<text text-anchor="start" x="242" y="-319.6" font-family="Times,serif" font-size="13.00">Date: Jan 22 2017 &#45; 12:22</text>
<text text-anchor="start" x="242" y="-305.6" font-family="Times,serif" font-size="13.00">Migration version: 20170120094750</text>
<text text-anchor="start" x="242" y="-291.6" font-family="Times,serif" font-size="13.00">Generated by RailRoady 1.5.2</text>
<text text-anchor="start" x="242" y="-277.6" font-family="Times,serif" font-size="13.00">http://railroady.prestonlee.com</text>
</g>
<!-- ApplicationController -->
<g id="node2" class="node"><title>ApplicationController</title>
<path fill="none" stroke="black" d="M156,-0.5C156,-0.5 385,-0.5 385,-0.5 391,-0.5 397,-6.5 397,-12.5 397,-12.5 397,-81.5 397,-81.5 397,-87.5 391,-93.5 385,-93.5 385,-93.5 156,-93.5 156,-93.5 150,-93.5 144,-87.5 144,-81.5 144,-81.5 144,-12.5 144,-12.5 144,-6.5 150,-0.5 156,-0.5"/>
<text text-anchor="middle" x="270.5" y="-78.3" font-family="Times,serif" font-size="14.00">ApplicationController</text>
<polyline fill="none" stroke="black" points="144,-70.5 397,-70.5 "/>
<polyline fill="none" stroke="black" points="144,-46.5 397,-46.5 "/>
<text text-anchor="start" x="152" y="-31.3" font-family="Times,serif" font-size="14.00">configure_permitted_parameters</text>
<polyline fill="none" stroke="black" points="144,-23.5 397,-23.5 "/>
<text text-anchor="start" x="152" y="-8.3" font-family="Times,serif" font-size="14.00">_layout</text>
</g>
<!-- ConsentLogsController -->
<g id="node3" class="node"><title>ConsentLogsController</title>
<path fill="none" stroke="black" d="M30,-306.5C30,-306.5 190,-306.5 190,-306.5 196,-306.5 202,-312.5 202,-318.5 202,-318.5 202,-417.5 202,-417.5 202,-423.5 196,-429.5 190,-429.5 190,-429.5 30,-429.5 30,-429.5 24,-429.5 18,-423.5 18,-417.5 18,-417.5 18,-318.5 18,-318.5 18,-312.5 24,-306.5 30,-306.5"/>
<text text-anchor="middle" x="110" y="-414.3" font-family="Times,serif" font-size="14.00">ConsentLogsController</text>
<polyline fill="none" stroke="black" points="18,-406.5 202,-406.5 "/>
<text text-anchor="start" x="26" y="-391.3" font-family="Times,serif" font-size="14.00">edit</text>
<text text-anchor="start" x="26" y="-376.3" font-family="Times,serif" font-size="14.00">update</text>
<polyline fill="none" stroke="black" points="18,-368.5 202,-368.5 "/>
<polyline fill="none" stroke="black" points="18,-344.5 202,-344.5 "/>
<text text-anchor="start" x="26" y="-329.3" font-family="Times,serif" font-size="14.00">_layout</text>
<text text-anchor="start" x="26" y="-314.3" font-family="Times,serif" font-size="14.00">cl_params</text>
</g>
<!-- HomeController -->
<g id="node4" class="node"><title>HomeController</title>
<path fill="none" stroke="black" d="M336,-126.5C336,-126.5 445,-126.5 445,-126.5 451,-126.5 457,-132.5 457,-138.5 457,-138.5 457,-207.5 457,-207.5 457,-213.5 451,-219.5 445,-219.5 445,-219.5 336,-219.5 336,-219.5 330,-219.5 324,-213.5 324,-207.5 324,-207.5 324,-138.5 324,-138.5 324,-132.5 330,-126.5 336,-126.5"/>
<text text-anchor="middle" x="390.5" y="-204.3" font-family="Times,serif" font-size="14.00">HomeController</text>
<polyline fill="none" stroke="black" points="324,-196.5 457,-196.5 "/>
<text text-anchor="start" x="332" y="-181.3" font-family="Times,serif" font-size="14.00">index</text>
<polyline fill="none" stroke="black" points="324,-173.5 457,-173.5 "/>
<polyline fill="none" stroke="black" points="324,-149.5 457,-149.5 "/>
<text text-anchor="start" x="332" y="-134.3" font-family="Times,serif" font-size="14.00">_layout</text>
</g>
<!-- InstallmentsController -->
<g id="node5" class="node"><title>InstallmentsController</title>
<path fill="none" stroke="black" d="M354,-378.5C354,-378.5 510,-378.5 510,-378.5 516,-378.5 522,-384.5 522,-390.5 522,-390.5 522,-504.5 522,-504.5 522,-510.5 516,-516.5 510,-516.5 510,-516.5 354,-516.5 354,-516.5 348,-516.5 342,-510.5 342,-504.5 342,-504.5 342,-390.5 342,-390.5 342,-384.5 348,-378.5 354,-378.5"/>
<text text-anchor="middle" x="432" y="-501.3" font-family="Times,serif" font-size="14.00">InstallmentsController</text>
<polyline fill="none" stroke="black" points="342,-493.5 522,-493.5 "/>
<text text-anchor="start" x="350" y="-478.3" font-family="Times,serif" font-size="14.00">create</text>
<text text-anchor="start" x="350" y="-463.3" font-family="Times,serif" font-size="14.00">edit</text>
<text text-anchor="start" x="350" y="-448.3" font-family="Times,serif" font-size="14.00">new</text>
<text text-anchor="start" x="350" y="-433.3" font-family="Times,serif" font-size="14.00">update</text>
<polyline fill="none" stroke="black" points="342,-425.5 522,-425.5 "/>
<polyline fill="none" stroke="black" points="342,-401.5 522,-401.5 "/>
<text text-anchor="start" x="350" y="-386.3" font-family="Times,serif" font-size="14.00">_layout</text>
</g>
<!-- Users::OmniauthCallbacksController -->
<g id="node6" class="node"><title>Users::OmniauthCallbacksController</title>
<path fill="none" stroke="black" d="M12,-126.5C12,-126.5 269,-126.5 269,-126.5 275,-126.5 281,-132.5 281,-138.5 281,-138.5 281,-222.5 281,-222.5 281,-228.5 275,-234.5 269,-234.5 269,-234.5 12,-234.5 12,-234.5 6,-234.5 0,-228.5 0,-222.5 0,-222.5 0,-138.5 0,-138.5 0,-132.5 6,-126.5 12,-126.5"/>
<text text-anchor="middle" x="140.5" y="-219.3" font-family="Times,serif" font-size="14.00">Users::OmniauthCallbacksController</text>
<polyline fill="none" stroke="black" points="0,-211.5 281,-211.5 "/>
<text text-anchor="start" x="8" y="-196.3" font-family="Times,serif" font-size="14.00">failure</text>
<text text-anchor="start" x="8" y="-181.3" font-family="Times,serif" font-size="14.00">google_oauth2</text>
<polyline fill="none" stroke="black" points="0,-173.5 281,-173.5 "/>
<polyline fill="none" stroke="black" points="0,-149.5 281,-149.5 "/>
<text text-anchor="start" x="8" y="-134.3" font-family="Times,serif" font-size="14.00">_layout</text>
</g>
</g>
</svg>
