<?xml version="1.0" encoding="UTF-8" standalone="no"?>
<!DOCTYPE svg PUBLIC "-//W3C//DTD SVG 1.1//EN"
 "http://www.w3.org/Graphics/SVG/1.1/DTD/svg11.dtd">
<!-- Generated by graphviz version 2.38.0 (20140413.2041)
 -->
<!-- Title: controllers_diagram Pages: 1 -->
<svg width="1008pt" height="1042pt"
 viewBox="0.00 0.00 1007.50 1041.50" xmlns="http://www.w3.org/2000/svg" xmlns:xlink="http://www.w3.org/1999/xlink">
<g id="graph0" class="graph" transform="scale(1 1) rotate(0) translate(444 597.5)">
<title>controllers_diagram</title>
<polygon fill="none" stroke="none" points="-444,444 -444,-597.5 563.5,-597.5 563.5,444 -444,444"/>
<!-- _diagram_info -->
<g id="node1" class="node"><title>_diagram_info</title>
<text text-anchor="start" x="8" y="376.4" font-family="Times,serif" font-size="13.00">Controllers diagram</text>
<text text-anchor="start" x="8" y="390.4" font-family="Times,serif" font-size="13.00">Date: Nov 20 2017 &#45; 11:52</text>
<text text-anchor="start" x="8" y="404.4" font-family="Times,serif" font-size="13.00">Migration version: 20171103055606</text>
<text text-anchor="start" x="8" y="418.4" font-family="Times,serif" font-size="13.00">Generated by RailRoady 1.5.2</text>
<text text-anchor="start" x="8" y="432.4" font-family="Times,serif" font-size="13.00">http://railroady.prestonlee.com</text>
</g>
<!-- CandidateListsController -->
<g id="node2" class="node"><title>CandidateListsController</title>
<path fill="none" stroke="black" d="M272.5,259.5C272.5,259.5 421.5,259.5 421.5,259.5 427.5,259.5 433.5,253.5 433.5,247.5 433.5,247.5 433.5,44.5 433.5,44.5 433.5,38.5 427.5,32.5 421.5,32.5 421.5,32.5 272.5,32.5 272.5,32.5 266.5,32.5 260.5,38.5 260.5,44.5 260.5,44.5 260.5,247.5 260.5,247.5 260.5,253.5 266.5,259.5 272.5,259.5"/>
<text text-anchor="middle" x="347" y="47.7" font-family="Times,serif" font-size="14.00">CandidateListsController</text>
<polyline fill="none" stroke="black" points="260.5,55.5 433.5,55.5 "/>
<text text-anchor="start" x="268.5" y="70.7" font-family="Times,serif" font-size="14.00">create</text>
<text text-anchor="start" x="268.5" y="85.7" font-family="Times,serif" font-size="14.00">demo_complete</text>
<text text-anchor="start" x="268.5" y="100.7" font-family="Times,serif" font-size="14.00">edit</text>
<text text-anchor="start" x="268.5" y="115.7" font-family="Times,serif" font-size="14.00">list_stats</text>
<text text-anchor="start" x="268.5" y="130.7" font-family="Times,serif" font-size="14.00">request_collaboration</text>
<text text-anchor="start" x="268.5" y="145.7" font-family="Times,serif" font-size="14.00">show</text>
<text text-anchor="start" x="268.5" y="160.7" font-family="Times,serif" font-size="14.00">update</text>
<polyline fill="none" stroke="black" points="260.5,168.5 433.5,168.5 "/>
<text text-anchor="start" x="268.5" y="183.7" font-family="Times,serif" font-size="14.00">merge_to_group_list</text>
<polyline fill="none" stroke="black" points="260.5,191.5 433.5,191.5 "/>
<text text-anchor="start" x="268.5" y="206.7" font-family="Times,serif" font-size="14.00">_layout</text>
<text text-anchor="start" x="268.5" y="221.7" font-family="Times,serif" font-size="14.00">candidate_list_params</text>
<text text-anchor="start" x="268.5" y="236.7" font-family="Times,serif" font-size="14.00">merge_individuals_to_group</text>
<text text-anchor="start" x="268.5" y="251.7" font-family="Times,serif" font-size="14.00">set_candidate_list</text>
</g>
<!-- BingoBoardsController -->
<g id="node3" class="node"><title>BingoBoardsController</title>
<path fill="none" stroke="black" d="M-407.5,-1C-407.5,-1 -288.5,-1 -288.5,-1 -282.5,-1 -276.5,-7 -276.5,-13 -276.5,-13 -276.5,-187 -276.5,-187 -276.5,-193 -282.5,-199 -288.5,-199 -288.5,-199 -407.5,-199 -407.5,-199 -413.5,-199 -419.5,-193 -419.5,-187 -419.5,-187 -419.5,-13 -419.5,-13 -419.5,-7 -413.5,-1 -407.5,-1"/>
<text text-anchor="middle" x="-348" y="-183.8" font-family="Times,serif" font-size="14.00">BingoBoardsController</text>
<polyline fill="none" stroke="black" points="-419.5,-176 -276.5,-176 "/>
<text text-anchor="start" x="-411.5" y="-160.8" font-family="Times,serif" font-size="14.00">edit</text>
<text text-anchor="start" x="-411.5" y="-145.8" font-family="Times,serif" font-size="14.00">index</text>
<text text-anchor="start" x="-411.5" y="-130.8" font-family="Times,serif" font-size="14.00">play_board</text>
<text text-anchor="start" x="-411.5" y="-115.8" font-family="Times,serif" font-size="14.00">show</text>
<text text-anchor="start" x="-411.5" y="-100.8" font-family="Times,serif" font-size="14.00">update</text>
<text text-anchor="start" x="-411.5" y="-85.8" font-family="Times,serif" font-size="14.00">verify_win</text>
<polyline fill="none" stroke="black" points="-419.5,-78 -276.5,-78 "/>
<polyline fill="none" stroke="black" points="-419.5,-54 -276.5,-54 "/>
<text text-anchor="start" x="-411.5" y="-38.8" font-family="Times,serif" font-size="14.00">_layout</text>
<text text-anchor="start" x="-411.5" y="-23.8" font-family="Times,serif" font-size="14.00">bingo_board_params</text>
<text text-anchor="start" x="-411.5" y="-8.8" font-family="Times,serif" font-size="14.00">set_bingo_board</text>
</g>
<!-- ApplicationController -->
<g id="node4" class="node"><title>ApplicationController</title>
<path fill="none" stroke="black" d="M272,399C272,399 442,399 442,399 448,399 454,393 454,387 454,387 454,303 454,303 454,297 448,291 442,291 442,291 272,291 272,291 266,291 260,297 260,303 260,303 260,387 260,387 260,393 266,399 272,399"/>
<text text-anchor="middle" x="357" y="306.2" font-family="Times,serif" font-size="14.00">ApplicationController</text>
<polyline fill="none" stroke="black" points="260,314 454,314 "/>
<polyline fill="none" stroke="black" points="260,338 454,338 "/>
<text text-anchor="start" x="268" y="353.2" font-family="Times,serif" font-size="14.00">configure_permitted_parameters</text>
<text text-anchor="start" x="268" y="368.2" font-family="Times,serif" font-size="14.00">set_locale</text>
<polyline fill="none" stroke="black" points="260,376 454,376 "/>
<text text-anchor="start" x="268" y="391.2" font-family="Times,serif" font-size="14.00">_layout</text>
</g>
<!-- SchoolsController -->
<g id="node5" class="node"><title>SchoolsController</title>
<path fill="none" stroke="black" d="M271.5,-261C271.5,-261 362.5,-261 362.5,-261 368.5,-261 374.5,-267 374.5,-273 374.5,-273 374.5,-477 374.5,-477 374.5,-483 368.5,-489 362.5,-489 362.5,-489 271.5,-489 271.5,-489 265.5,-489 259.5,-483 259.5,-477 259.5,-477 259.5,-273 259.5,-273 259.5,-267 265.5,-261 271.5,-261"/>
<text text-anchor="middle" x="317" y="-473.8" font-family="Times,serif" font-size="14.00">SchoolsController</text>
<polyline fill="none" stroke="black" points="259.5,-466 374.5,-466 "/>
<text text-anchor="start" x="267.5" y="-450.8" font-family="Times,serif" font-size="14.00">create</text>
<text text-anchor="start" x="267.5" y="-435.8" font-family="Times,serif" font-size="14.00">destroy</text>
<text text-anchor="start" x="267.5" y="-420.8" font-family="Times,serif" font-size="14.00">edit</text>
<text text-anchor="start" x="267.5" y="-405.8" font-family="Times,serif" font-size="14.00">index</text>
<text text-anchor="start" x="267.5" y="-390.8" font-family="Times,serif" font-size="14.00">new</text>
<text text-anchor="start" x="267.5" y="-375.8" font-family="Times,serif" font-size="14.00">show</text>
<text text-anchor="start" x="267.5" y="-360.8" font-family="Times,serif" font-size="14.00">update</text>
<polyline fill="none" stroke="black" points="259.5,-353 374.5,-353 "/>
<polyline fill="none" stroke="black" points="259.5,-329 374.5,-329 "/>
<text text-anchor="start" x="267.5" y="-313.8" font-family="Times,serif" font-size="14.00">_layout</text>
<text text-anchor="start" x="267.5" y="-298.8" font-family="Times,serif" font-size="14.00">check_admin</text>
<text text-anchor="start" x="267.5" y="-283.8" font-family="Times,serif" font-size="14.00">school_params</text>
<text text-anchor="start" x="267.5" y="-268.8" font-family="Times,serif" font-size="14.00">set_school</text>
</g>
<!-- Users::OmniauthCallbacksController -->
<g id="node6" class="node"><title>Users::OmniauthCallbacksController</title>
<path fill="none" stroke="black" d="M12,319C12,319 206,319 206,319 212,319 218,313 218,307 218,307 218,223 218,223 218,217 212,211 206,211 206,211 12,211 12,211 6,211 0,217 0,223 0,223 0,307 0,307 0,313 6,319 12,319"/>
<text text-anchor="middle" x="109" y="226.2" font-family="Times,serif" font-size="14.00">Users::OmniauthCallbacksController</text>
<polyline fill="none" stroke="black" points="0,234 218,234 "/>
<text text-anchor="start" x="8" y="249.2" font-family="Times,serif" font-size="14.00">failure</text>
<text text-anchor="start" x="8" y="264.2" font-family="Times,serif" font-size="14.00">google_oauth2</text>
<polyline fill="none" stroke="black" points="0,272 218,272 "/>
<polyline fill="none" stroke="black" points="0,296 218,296 "/>
<text text-anchor="start" x="8" y="311.2" font-family="Times,serif" font-size="14.00">_layout</text>
</g>
<!-- BingoGamesController -->
<g id="node7" class="node"><title>BingoGamesController</title>
<path fill="none" stroke="black" d="M-88,-201C-88,-201 48,-201 48,-201 54,-201 60,-207 60,-213 60,-213 60,-477 60,-477 60,-483 54,-489 48,-489 48,-489 -88,-489 -88,-489 -94,-489 -100,-483 -100,-477 -100,-477 -100,-213 -100,-213 -100,-207 -94,-201 -88,-201"/>
<text text-anchor="middle" x="-20" y="-473.8" font-family="Times,serif" font-size="14.00">BingoGamesController</text>
<polyline fill="none" stroke="black" points="-100,-466 60,-466 "/>
<text text-anchor="start" x="-92" y="-450.8" font-family="Times,serif" font-size="14.00">activate</text>
<text text-anchor="start" x="-92" y="-435.8" font-family="Times,serif" font-size="14.00">create</text>
<text text-anchor="start" x="-92" y="-420.8" font-family="Times,serif" font-size="14.00">destroy</text>
<text text-anchor="start" x="-92" y="-405.8" font-family="Times,serif" font-size="14.00">edit</text>
<text text-anchor="start" x="-92" y="-390.8" font-family="Times,serif" font-size="14.00">index</text>
<text text-anchor="start" x="-92" y="-375.8" font-family="Times,serif" font-size="14.00">new</text>
<text text-anchor="start" x="-92" y="-360.8" font-family="Times,serif" font-size="14.00">review_candidates</text>
<text text-anchor="start" x="-92" y="-345.8" font-family="Times,serif" font-size="14.00">show</text>
<text text-anchor="start" x="-92" y="-330.8" font-family="Times,serif" font-size="14.00">update</text>
<text text-anchor="start" x="-92" y="-315.8" font-family="Times,serif" font-size="14.00">update_review_candidates</text>
<polyline fill="none" stroke="black" points="-100,-308 60,-308 "/>
<polyline fill="none" stroke="black" points="-100,-284 60,-284 "/>
<text text-anchor="start" x="-92" y="-268.8" font-family="Times,serif" font-size="14.00">_layout</text>
<text text-anchor="start" x="-92" y="-253.8" font-family="Times,serif" font-size="14.00">bingo_game_params</text>
<text text-anchor="start" x="-92" y="-238.8" font-family="Times,serif" font-size="14.00">check_editor</text>
<text text-anchor="start" x="-92" y="-223.8" font-family="Times,serif" font-size="14.00">check_viewer</text>
<text text-anchor="start" x="-92" y="-208.8" font-family="Times,serif" font-size="14.00">set_bingo_game</text>
</g>
<!-- ConsentLogsController -->
<g id="node8" class="node"><title>ConsentLogsController</title>
<path fill="none" stroke="black" d="M-407.5,159.5C-407.5,159.5 -288.5,159.5 -288.5,159.5 -282.5,159.5 -276.5,153.5 -276.5,147.5 -276.5,147.5 -276.5,48.5 -276.5,48.5 -276.5,42.5 -282.5,36.5 -288.5,36.5 -288.5,36.5 -407.5,36.5 -407.5,36.5 -413.5,36.5 -419.5,42.5 -419.5,48.5 -419.5,48.5 -419.5,147.5 -419.5,147.5 -419.5,153.5 -413.5,159.5 -407.5,159.5"/>
<text text-anchor="middle" x="-348" y="51.7" font-family="Times,serif" font-size="14.00">ConsentLogsController</text>
<polyline fill="none" stroke="black" points="-419.5,59.5 -276.5,59.5 "/>
<text text-anchor="start" x="-411.5" y="74.7" font-family="Times,serif" font-size="14.00">edit</text>
<text text-anchor="start" x="-411.5" y="89.7" font-family="Times,serif" font-size="14.00">update</text>
<polyline fill="none" stroke="black" points="-419.5,97.5 -276.5,97.5 "/>
<polyline fill="none" stroke="black" points="-419.5,121.5 -276.5,121.5 "/>
<text text-anchor="start" x="-411.5" y="136.7" font-family="Times,serif" font-size="14.00">_layout</text>
<text text-anchor="start" x="-411.5" y="151.7" font-family="Times,serif" font-size="14.00">cl_params</text>
</g>
<!-- ExperiencesController -->
<g id="node9" class="node"><title>ExperiencesController</title>
<path fill="none" stroke="black" d="M-68,179.5C-68,179.5 46,179.5 46,179.5 52,179.5 58,173.5 58,167.5 58,167.5 58,-141.5 58,-141.5 58,-147.5 52,-153.5 46,-153.5 46,-153.5 -68,-153.5 -68,-153.5 -74,-153.5 -80,-147.5 -80,-141.5 -80,-141.5 -80,167.5 -80,167.5 -80,173.5 -74,179.5 -68,179.5"/>
<text text-anchor="middle" x="-11" y="-138.3" font-family="Times,serif" font-size="14.00">ExperiencesController</text>
<polyline fill="none" stroke="black" points="-80,-130.5 58,-130.5 "/>
<text text-anchor="start" x="-72" y="-115.3" font-family="Times,serif" font-size="14.00">activate</text>
<text text-anchor="start" x="-72" y="-100.3" font-family="Times,serif" font-size="14.00">create</text>
<text text-anchor="start" x="-72" y="-85.3" font-family="Times,serif" font-size="14.00">destroy</text>
<text text-anchor="start" x="-72" y="-70.3" font-family="Times,serif" font-size="14.00">diagnose</text>
<text text-anchor="start" x="-72" y="-55.3" font-family="Times,serif" font-size="14.00">edit</text>
<text text-anchor="start" x="-72" y="-40.3" font-family="Times,serif" font-size="14.00">index</text>
<text text-anchor="start" x="-72" y="-25.3" font-family="Times,serif" font-size="14.00">new</text>
<text text-anchor="start" x="-72" y="-10.3" font-family="Times,serif" font-size="14.00">next</text>
<text text-anchor="start" x="-72" y="4.7" font-family="Times,serif" font-size="14.00">react</text>
<text text-anchor="start" x="-72" y="19.7" font-family="Times,serif" font-size="14.00">show</text>
<text text-anchor="start" x="-72" y="34.7" font-family="Times,serif" font-size="14.00">update</text>
<polyline fill="none" stroke="black" points="-80,42.5 58,42.5 "/>
<polyline fill="none" stroke="black" points="-80,66.5 58,66.5 "/>
<text text-anchor="start" x="-72" y="81.7" font-family="Times,serif" font-size="14.00">_layout</text>
<text text-anchor="start" x="-72" y="96.7" font-family="Times,serif" font-size="14.00">check_editor</text>
<text text-anchor="start" x="-72" y="111.7" font-family="Times,serif" font-size="14.00">check_viewer</text>
<text text-anchor="start" x="-72" y="126.7" font-family="Times,serif" font-size="14.00">diagnosis_params</text>
<text text-anchor="start" x="-72" y="141.7" font-family="Times,serif" font-size="14.00">experience_params</text>
<text text-anchor="start" x="-72" y="156.7" font-family="Times,serif" font-size="14.00">reaction_params</text>
<text text-anchor="start" x="-72" y="171.7" font-family="Times,serif" font-size="14.00">set_experience</text>
</g>
<!-- HomeController -->
<g id="node10" class="node"><title>HomeController</title>
<path fill="none" stroke="black" d="M-427.5,-261C-427.5,-261 -314.5,-261 -314.5,-261 -308.5,-261 -302.5,-267 -302.5,-273 -302.5,-273 -302.5,-387 -302.5,-387 -302.5,-393 -308.5,-399 -314.5,-399 -314.5,-399 -427.5,-399 -427.5,-399 -433.5,-399 -439.5,-393 -439.5,-387 -439.5,-387 -439.5,-273 -439.5,-273 -439.5,-267 -433.5,-261 -427.5,-261"/>
<text text-anchor="middle" x="-371" y="-383.8" font-family="Times,serif" font-size="14.00">HomeController</text>
<polyline fill="none" stroke="black" points="-439.5,-376 -302.5,-376 "/>
<text text-anchor="start" x="-431.5" y="-360.8" font-family="Times,serif" font-size="14.00">check_diversity_score</text>
<text text-anchor="start" x="-431.5" y="-345.8" font-family="Times,serif" font-size="14.00">demo_start</text>
<text text-anchor="start" x="-431.5" y="-330.8" font-family="Times,serif" font-size="14.00">index</text>
<text text-anchor="start" x="-431.5" y="-315.8" font-family="Times,serif" font-size="14.00">states_for_country</text>
<polyline fill="none" stroke="black" points="-439.5,-308 -302.5,-308 "/>
<polyline fill="none" stroke="black" points="-439.5,-284 -302.5,-284 "/>
<text text-anchor="start" x="-431.5" y="-268.8" font-family="Times,serif" font-size="14.00">_layout</text>
</g>
<!-- ConceptsController -->
<g id="node11" class="node"><title>ConceptsController</title>
<path fill="none" stroke="black" d="M-247.5,-260.5C-247.5,-260.5 -148.5,-260.5 -148.5,-260.5 -142.5,-260.5 -136.5,-266.5 -136.5,-272.5 -136.5,-272.5 -136.5,-491.5 -136.5,-491.5 -136.5,-497.5 -142.5,-503.5 -148.5,-503.5 -148.5,-503.5 -247.5,-503.5 -247.5,-503.5 -253.5,-503.5 -259.5,-497.5 -259.5,-491.5 -259.5,-491.5 -259.5,-272.5 -259.5,-272.5 -259.5,-266.5 -253.5,-260.5 -247.5,-260.5"/>
<text text-anchor="middle" x="-198" y="-488.3" font-family="Times,serif" font-size="14.00">ConceptsController</text>
<polyline fill="none" stroke="black" points="-259.5,-480.5 -136.5,-480.5 "/>
<text text-anchor="start" x="-251.5" y="-465.3" font-family="Times,serif" font-size="14.00">concepts_for_game</text>
<text text-anchor="start" x="-251.5" y="-450.3" font-family="Times,serif" font-size="14.00">create</text>
<text text-anchor="start" x="-251.5" y="-435.3" font-family="Times,serif" font-size="14.00">destroy</text>
<text text-anchor="start" x="-251.5" y="-420.3" font-family="Times,serif" font-size="14.00">edit</text>
<text text-anchor="start" x="-251.5" y="-405.3" font-family="Times,serif" font-size="14.00">index</text>
<text text-anchor="start" x="-251.5" y="-390.3" font-family="Times,serif" font-size="14.00">new</text>
<text text-anchor="start" x="-251.5" y="-375.3" font-family="Times,serif" font-size="14.00">show</text>
<text text-anchor="start" x="-251.5" y="-360.3" font-family="Times,serif" font-size="14.00">update</text>
<polyline fill="none" stroke="black" points="-259.5,-352.5 -136.5,-352.5 "/>
<polyline fill="none" stroke="black" points="-259.5,-328.5 -136.5,-328.5 "/>
<text text-anchor="start" x="-251.5" y="-313.3" font-family="Times,serif" font-size="14.00">_layout</text>
<text text-anchor="start" x="-251.5" y="-298.3" font-family="Times,serif" font-size="14.00">check_admin</text>
<text text-anchor="start" x="-251.5" y="-283.3" font-family="Times,serif" font-size="14.00">concept_params</text>
<text text-anchor="start" x="-251.5" y="-268.3" font-family="Times,serif" font-size="14.00">set_concept</text>
</g>
<!-- GraphingController -->
<g id="node12" class="node"><title>GraphingController</title>
<path fill="none" stroke="black" d="M-347.5,360C-347.5,360 -196.5,360 -196.5,360 -190.5,360 -184.5,354 -184.5,348 -184.5,348 -184.5,204 -184.5,204 -184.5,198 -190.5,192 -196.5,192 -196.5,192 -347.5,192 -347.5,192 -353.5,192 -359.5,198 -359.5,204 -359.5,204 -359.5,348 -359.5,348 -359.5,354 -353.5,360 -347.5,360"/>
<text text-anchor="middle" x="-272" y="207.2" font-family="Times,serif" font-size="14.00">GraphingController</text>
<polyline fill="none" stroke="black" points="-359.5,215 -184.5,215 "/>
<text text-anchor="start" x="-351.5" y="230.2" font-family="Times,serif" font-size="14.00">data</text>
<text text-anchor="start" x="-351.5" y="245.2" font-family="Times,serif" font-size="14.00">index</text>
<text text-anchor="start" x="-351.5" y="260.2" font-family="Times,serif" font-size="14.00">individual_summary_data</text>
<text text-anchor="start" x="-351.5" y="275.2" font-family="Times,serif" font-size="14.00">pull_and_organise_user_data</text>
<text text-anchor="start" x="-351.5" y="290.2" font-family="Times,serif" font-size="14.00">raw_data</text>
<text text-anchor="start" x="-351.5" y="305.2" font-family="Times,serif" font-size="14.00">subjects</text>
<polyline fill="none" stroke="black" points="-359.5,313 -184.5,313 "/>
<polyline fill="none" stroke="black" points="-359.5,337 -184.5,337 "/>
<text text-anchor="start" x="-351.5" y="352.2" font-family="Times,serif" font-size="14.00">_layout</text>
</g>
<!-- InstallmentsController -->
<g id="node13" class="node"><title>InstallmentsController</title>
<path fill="none" stroke="black" d="M432.5,-260C432.5,-260 547.5,-260 547.5,-260 553.5,-260 559.5,-266 559.5,-272 559.5,-272 559.5,-416 559.5,-416 559.5,-422 553.5,-428 547.5,-428 547.5,-428 432.5,-428 432.5,-428 426.5,-428 420.5,-422 420.5,-416 420.5,-416 420.5,-272 420.5,-272 420.5,-266 426.5,-260 432.5,-260"/>
<text text-anchor="middle" x="490" y="-412.8" font-family="Times,serif" font-size="14.00">InstallmentsController</text>
<polyline fill="none" stroke="black" points="420.5,-405 559.5,-405 "/>
<text text-anchor="start" x="428.5" y="-389.8" font-family="Times,serif" font-size="14.00">create</text>
<text text-anchor="start" x="428.5" y="-374.8" font-family="Times,serif" font-size="14.00">demo_complete</text>
<text text-anchor="start" x="428.5" y="-359.8" font-family="Times,serif" font-size="14.00">edit</text>
<text text-anchor="start" x="428.5" y="-344.8" font-family="Times,serif" font-size="14.00">new</text>
<text text-anchor="start" x="428.5" y="-329.8" font-family="Times,serif" font-size="14.00">update</text>
<polyline fill="none" stroke="black" points="420.5,-322 559.5,-322 "/>
<polyline fill="none" stroke="black" points="420.5,-298 559.5,-298 "/>
<text text-anchor="start" x="428.5" y="-282.8" font-family="Times,serif" font-size="14.00">_layout</text>
<text text-anchor="start" x="428.5" y="-267.8" font-family="Times,serif" font-size="14.00">i_params</text>
</g>
<!-- ProjectsController -->
<g id="node14" class="node"><title>ProjectsController</title>
<path fill="none" stroke="black" d="M-228,159C-228,159 -136,159 -136,159 -130,159 -124,153 -124,147 -124,147 -124,-147 -124,-147 -124,-153 -130,-159 -136,-159 -136,-159 -228,-159 -228,-159 -234,-159 -240,-153 -240,-147 -240,-147 -240,147 -240,147 -240,153 -234,159 -228,159"/>
<text text-anchor="middle" x="-182" y="-143.8" font-family="Times,serif" font-size="14.00">ProjectsController</text>
<polyline fill="none" stroke="black" points="-240,-136 -124,-136 "/>
<text text-anchor="start" x="-232" y="-120.8" font-family="Times,serif" font-size="14.00">activate</text>
<text text-anchor="start" x="-232" y="-105.8" font-family="Times,serif" font-size="14.00">add_group</text>
<text text-anchor="start" x="-232" y="-90.8" font-family="Times,serif" font-size="14.00">create</text>
<text text-anchor="start" x="-232" y="-75.8" font-family="Times,serif" font-size="14.00">destroy</text>
<text text-anchor="start" x="-232" y="-60.8" font-family="Times,serif" font-size="14.00">edit</text>
<text text-anchor="start" x="-232" y="-45.8" font-family="Times,serif" font-size="14.00">index</text>
<text text-anchor="start" x="-232" y="-30.8" font-family="Times,serif" font-size="14.00">new</text>
<text text-anchor="start" x="-232" y="-15.8" font-family="Times,serif" font-size="14.00">remove_group</text>
<text text-anchor="start" x="-232" y="-0.8" font-family="Times,serif" font-size="14.00">rescore_group</text>
<text text-anchor="start" x="-232" y="14.2" font-family="Times,serif" font-size="14.00">rescore_groups</text>
<text text-anchor="start" x="-232" y="29.2" font-family="Times,serif" font-size="14.00">show</text>
<text text-anchor="start" x="-232" y="44.2" font-family="Times,serif" font-size="14.00">update</text>
<polyline fill="none" stroke="black" points="-240,52 -124,52 "/>
<polyline fill="none" stroke="black" points="-240,76 -124,76 "/>
<text text-anchor="start" x="-232" y="91.2" font-family="Times,serif" font-size="14.00">_layout</text>
<text text-anchor="start" x="-232" y="106.2" font-family="Times,serif" font-size="14.00">check_editor</text>
<text text-anchor="start" x="-232" y="121.2" font-family="Times,serif" font-size="14.00">check_viewer</text>
<text text-anchor="start" x="-232" y="136.2" font-family="Times,serif" font-size="14.00">project_params</text>
<text text-anchor="start" x="-232" y="151.2" font-family="Times,serif" font-size="14.00">set_project</text>
</g>
<!-- CoursesController -->
<g id="node15" class="node"><title>CoursesController</title>
<path fill="none" stroke="black" d="M112,99.5C112,99.5 204,99.5 204,99.5 210,99.5 216,93.5 216,87.5 216,87.5 216,-251.5 216,-251.5 216,-257.5 210,-263.5 204,-263.5 204,-263.5 112,-263.5 112,-263.5 106,-263.5 100,-257.5 100,-251.5 100,-251.5 100,87.5 100,87.5 100,93.5 106,99.5 112,99.5"/>
<text text-anchor="middle" x="158" y="-248.3" font-family="Times,serif" font-size="14.00">CoursesController</text>
<polyline fill="none" stroke="black" points="100,-240.5 216,-240.5 "/>
<text text-anchor="start" x="108" y="-225.3" font-family="Times,serif" font-size="14.00">accept_roster</text>
<text text-anchor="start" x="108" y="-210.3" font-family="Times,serif" font-size="14.00">add_instructors</text>
<text text-anchor="start" x="108" y="-195.3" font-family="Times,serif" font-size="14.00">add_students</text>
<text text-anchor="start" x="108" y="-180.3" font-family="Times,serif" font-size="14.00">create</text>
<text text-anchor="start" x="108" y="-165.3" font-family="Times,serif" font-size="14.00">decline_roster</text>
<text text-anchor="start" x="108" y="-150.3" font-family="Times,serif" font-size="14.00">destroy</text>
<text text-anchor="start" x="108" y="-135.3" font-family="Times,serif" font-size="14.00">drop_student</text>
<text text-anchor="start" x="108" y="-120.3" font-family="Times,serif" font-size="14.00">edit</text>
<text text-anchor="start" x="108" y="-105.3" font-family="Times,serif" font-size="14.00">index</text>
<text text-anchor="start" x="108" y="-90.3" font-family="Times,serif" font-size="14.00">new</text>
<text text-anchor="start" x="108" y="-75.3" font-family="Times,serif" font-size="14.00">re_invite_student</text>
<text text-anchor="start" x="108" y="-60.3" font-family="Times,serif" font-size="14.00">remove_instructor</text>
<text text-anchor="start" x="108" y="-45.3" font-family="Times,serif" font-size="14.00">show</text>
<text text-anchor="start" x="108" y="-30.3" font-family="Times,serif" font-size="14.00">update</text>
<polyline fill="none" stroke="black" points="100,-22.5 216,-22.5 "/>
<polyline fill="none" stroke="black" points="100,1.5 216,1.5 "/>
<text text-anchor="start" x="108" y="16.7" font-family="Times,serif" font-size="14.00">_layout</text>
<text text-anchor="start" x="108" y="31.7" font-family="Times,serif" font-size="14.00">check_admin</text>
<text text-anchor="start" x="108" y="46.7" font-family="Times,serif" font-size="14.00">check_editor</text>
<text text-anchor="start" x="108" y="61.7" font-family="Times,serif" font-size="14.00">check_viewer</text>
<text text-anchor="start" x="108" y="76.7" font-family="Times,serif" font-size="14.00">course_params</text>
<text text-anchor="start" x="108" y="91.7" font-family="Times,serif" font-size="14.00">set_course</text>
</g>
<!-- ConsentFormsController -->
<g id="node16" class="node"><title>ConsentFormsController</title>
<path fill="none" stroke="black" d="M272,-0.5C272,-0.5 400,-0.5 400,-0.5 406,-0.5 412,-6.5 412,-12.5 412,-12.5 412,-201.5 412,-201.5 412,-207.5 406,-213.5 400,-213.5 400,-213.5 272,-213.5 272,-213.5 266,-213.5 260,-207.5 260,-201.5 260,-201.5 260,-12.5 260,-12.5 260,-6.5 266,-0.5 272,-0.5"/>
<text text-anchor="middle" x="336" y="-198.3" font-family="Times,serif" font-size="14.00">ConsentFormsController</text>
<polyline fill="none" stroke="black" points="260,-190.5 412,-190.5 "/>
<text text-anchor="start" x="268" y="-175.3" font-family="Times,serif" font-size="14.00">create</text>
<text text-anchor="start" x="268" y="-160.3" font-family="Times,serif" font-size="14.00">destroy</text>
<text text-anchor="start" x="268" y="-145.3" font-family="Times,serif" font-size="14.00">edit</text>
<text text-anchor="start" x="268" y="-130.3" font-family="Times,serif" font-size="14.00">index</text>
<text text-anchor="start" x="268" y="-115.3" font-family="Times,serif" font-size="14.00">new</text>
<text text-anchor="start" x="268" y="-100.3" font-family="Times,serif" font-size="14.00">show</text>
<text text-anchor="start" x="268" y="-85.3" font-family="Times,serif" font-size="14.00">update</text>
<polyline fill="none" stroke="black" points="260,-77.5 412,-77.5 "/>
<polyline fill="none" stroke="black" points="260,-53.5 412,-53.5 "/>
<text text-anchor="start" x="268" y="-38.3" font-family="Times,serif" font-size="14.00">_layout</text>
<text text-anchor="start" x="268" y="-23.3" font-family="Times,serif" font-size="14.00">consent_form_params</text>
<text text-anchor="start" x="268" y="-8.3" font-family="Times,serif" font-size="14.00">set_consent_form</text>
</g>
<!-- RegistrationsController -->
<g id="node17" class="node"><title>RegistrationsController</title>
<path fill="none" stroke="black" d="M-428,-441C-428,-441 -308,-441 -308,-441 -302,-441 -296,-447 -296,-453 -296,-453 -296,-581 -296,-581 -296,-587 -302,-593 -308,-593 -308,-593 -428,-593 -428,-593 -434,-593 -440,-587 -440,-581 -440,-581 -440,-453 -440,-453 -440,-447 -434,-441 -428,-441"/>
<text text-anchor="middle" x="-368" y="-577.8" font-family="Times,serif" font-size="14.00">RegistrationsController</text>
<polyline fill="none" stroke="black" points="-440,-570 -296,-570 "/>
<text text-anchor="start" x="-432" y="-554.8" font-family="Times,serif" font-size="14.00">add_email</text>
<text text-anchor="start" x="-432" y="-539.8" font-family="Times,serif" font-size="14.00">initiate_password_reset</text>
<text text-anchor="start" x="-432" y="-524.8" font-family="Times,serif" font-size="14.00">remove_email</text>
<text text-anchor="start" x="-432" y="-509.8" font-family="Times,serif" font-size="14.00">set_primary_email</text>
<polyline fill="none" stroke="black" points="-440,-502 -296,-502 "/>
<text text-anchor="start" x="-432" y="-486.8" font-family="Times,serif" font-size="14.00">update_resource</text>
<polyline fill="none" stroke="black" points="-440,-479 -296,-479 "/>
<text text-anchor="start" x="-432" y="-463.8" font-family="Times,serif" font-size="14.00">_layout</text>
<text text-anchor="start" x="-432" y="-448.8" font-family="Times,serif" font-size="14.00">set_email</text>
</g>
</g>
</svg>
