<?xml version="1.0" encoding="UTF-8" standalone="no"?>
<!DOCTYPE svg PUBLIC "-//W3C//DTD SVG 1.1//EN"
 "http://www.w3.org/Graphics/SVG/1.1/DTD/svg11.dtd">
<!-- Generated by graphviz version 2.36.0 (20140111.2315)
 -->
<!-- Title: controllers_diagram Pages: 1 -->
<svg width="906pt" height="837pt"
 viewBox="0.00 0.00 906.00 837.00" xmlns="http://www.w3.org/2000/svg" xmlns:xlink="http://www.w3.org/1999/xlink">
<g id="graph0" class="graph" transform="scale(1 1) rotate(0) translate(4 833)">
<title>controllers_diagram</title>
<polygon fill="none" stroke="none" points="-4,4 -4,-833 902,-833 902,4 -4,4"/>
<!-- _diagram_info -->
<g id="node1" class="node"><title>_diagram_info</title>
<text text-anchor="start" x="408" y="-103.6" font-family="Times,serif" font-size="13.00">Controllers diagram</text>
<text text-anchor="start" x="408" y="-89.6" font-family="Times,serif" font-size="13.00">Date: Aug 05 2017 &#45; 10:57</text>
<text text-anchor="start" x="408" y="-75.6" font-family="Times,serif" font-size="13.00">Migration version: 20170803080009</text>
<text text-anchor="start" x="408" y="-61.6" font-family="Times,serif" font-size="13.00">Generated by RailRoady 1.5.2</text>
<text text-anchor="start" x="408" y="-47.6" font-family="Times,serif" font-size="13.00">http://railroady.prestonlee.com</text>
</g>
<!-- ApplicationController -->
<g id="node2" class="node"><title>ApplicationController</title>
<path fill="none" stroke="black" d="M692,-400.5C692,-400.5 862,-400.5 862,-400.5 868,-400.5 874,-406.5 874,-412.5 874,-412.5 874,-496.5 874,-496.5 874,-502.5 868,-508.5 862,-508.5 862,-508.5 692,-508.5 692,-508.5 686,-508.5 680,-502.5 680,-496.5 680,-496.5 680,-412.5 680,-412.5 680,-406.5 686,-400.5 692,-400.5"/>
<text text-anchor="middle" x="777" y="-493.3" font-family="Times,serif" font-size="14.00">ApplicationController</text>
<polyline fill="none" stroke="black" points="680,-485.5 874,-485.5 "/>
<polyline fill="none" stroke="black" points="680,-461.5 874,-461.5 "/>
<text text-anchor="start" x="688" y="-446.3" font-family="Times,serif" font-size="14.00">configure_permitted_parameters</text>
<text text-anchor="start" x="688" y="-431.3" font-family="Times,serif" font-size="14.00">set_locale</text>
<polyline fill="none" stroke="black" points="680,-423.5 874,-423.5 "/>
<text text-anchor="start" x="688" y="-408.3" font-family="Times,serif" font-size="14.00">_layout</text>
</g>
<!-- BingoGamesController -->
<g id="node3" class="node"><title>BingoGamesController</title>
<path fill="none" stroke="black" d="M312,-540.5C312,-540.5 448,-540.5 448,-540.5 454,-540.5 460,-546.5 460,-552.5 460,-552.5 460,-801.5 460,-801.5 460,-807.5 454,-813.5 448,-813.5 448,-813.5 312,-813.5 312,-813.5 306,-813.5 300,-807.5 300,-801.5 300,-801.5 300,-552.5 300,-552.5 300,-546.5 306,-540.5 312,-540.5"/>
<text text-anchor="middle" x="380" y="-798.3" font-family="Times,serif" font-size="14.00">BingoGamesController</text>
<polyline fill="none" stroke="black" points="300,-790.5 460,-790.5 "/>
<text text-anchor="start" x="308" y="-775.3" font-family="Times,serif" font-size="14.00">activate</text>
<text text-anchor="start" x="308" y="-760.3" font-family="Times,serif" font-size="14.00">create</text>
<text text-anchor="start" x="308" y="-745.3" font-family="Times,serif" font-size="14.00">destroy</text>
<text text-anchor="start" x="308" y="-730.3" font-family="Times,serif" font-size="14.00">edit</text>
<text text-anchor="start" x="308" y="-715.3" font-family="Times,serif" font-size="14.00">index</text>
<text text-anchor="start" x="308" y="-700.3" font-family="Times,serif" font-size="14.00">new</text>
<text text-anchor="start" x="308" y="-685.3" font-family="Times,serif" font-size="14.00">review_candidates</text>
<text text-anchor="start" x="308" y="-670.3" font-family="Times,serif" font-size="14.00">show</text>
<text text-anchor="start" x="308" y="-655.3" font-family="Times,serif" font-size="14.00">update</text>
<text text-anchor="start" x="308" y="-640.3" font-family="Times,serif" font-size="14.00">update_review_candidates</text>
<polyline fill="none" stroke="black" points="300,-632.5 460,-632.5 "/>
<polyline fill="none" stroke="black" points="300,-608.5 460,-608.5 "/>
<text text-anchor="start" x="308" y="-593.3" font-family="Times,serif" font-size="14.00">_layout</text>
<text text-anchor="start" x="308" y="-578.3" font-family="Times,serif" font-size="14.00">bingo_game_params</text>
<text text-anchor="start" x="308" y="-563.3" font-family="Times,serif" font-size="14.00">check_admin</text>
<text text-anchor="start" x="308" y="-548.3" font-family="Times,serif" font-size="14.00">set_bingo_game</text>
</g>
<!-- CandidateListsController -->
<g id="node4" class="node"><title>CandidateListsController</title>
<path fill="none" stroke="black" d="M672,-600.5C672,-600.5 821,-600.5 821,-600.5 827,-600.5 833,-606.5 833,-612.5 833,-612.5 833,-815.5 833,-815.5 833,-821.5 827,-827.5 821,-827.5 821,-827.5 672,-827.5 672,-827.5 666,-827.5 660,-821.5 660,-815.5 660,-815.5 660,-612.5 660,-612.5 660,-606.5 666,-600.5 672,-600.5"/>
<text text-anchor="middle" x="746.5" y="-812.3" font-family="Times,serif" font-size="14.00">CandidateListsController</text>
<polyline fill="none" stroke="black" points="660,-804.5 833,-804.5 "/>
<text text-anchor="start" x="668" y="-789.3" font-family="Times,serif" font-size="14.00">create</text>
<text text-anchor="start" x="668" y="-774.3" font-family="Times,serif" font-size="14.00">demo_complete</text>
<text text-anchor="start" x="668" y="-759.3" font-family="Times,serif" font-size="14.00">edit</text>
<text text-anchor="start" x="668" y="-744.3" font-family="Times,serif" font-size="14.00">list_stats</text>
<text text-anchor="start" x="668" y="-729.3" font-family="Times,serif" font-size="14.00">request_collaboration</text>
<text text-anchor="start" x="668" y="-714.3" font-family="Times,serif" font-size="14.00">show</text>
<text text-anchor="start" x="668" y="-699.3" font-family="Times,serif" font-size="14.00">update</text>
<polyline fill="none" stroke="black" points="660,-691.5 833,-691.5 "/>
<text text-anchor="start" x="668" y="-676.3" font-family="Times,serif" font-size="14.00">merge_to_group_list</text>
<polyline fill="none" stroke="black" points="660,-668.5 833,-668.5 "/>
<text text-anchor="start" x="668" y="-653.3" font-family="Times,serif" font-size="14.00">_layout</text>
<text text-anchor="start" x="668" y="-638.3" font-family="Times,serif" font-size="14.00">candidate_list_params</text>
<text text-anchor="start" x="668" y="-623.3" font-family="Times,serif" font-size="14.00">merge_individuals_to_group</text>
<text text-anchor="start" x="668" y="-608.3" font-family="Times,serif" font-size="14.00">set_candidate_list</text>
</g>
<!-- ConsentLogsController -->
<g id="node5" class="node"><title>ConsentLogsController</title>
<path fill="none" stroke="black" d="M12,-460.5C12,-460.5 131,-460.5 131,-460.5 137,-460.5 143,-466.5 143,-472.5 143,-472.5 143,-571.5 143,-571.5 143,-577.5 137,-583.5 131,-583.5 131,-583.5 12,-583.5 12,-583.5 6,-583.5 0,-577.5 0,-571.5 0,-571.5 0,-472.5 0,-472.5 0,-466.5 6,-460.5 12,-460.5"/>
<text text-anchor="middle" x="71.5" y="-568.3" font-family="Times,serif" font-size="14.00">ConsentLogsController</text>
<polyline fill="none" stroke="black" points="0,-560.5 143,-560.5 "/>
<text text-anchor="start" x="8" y="-545.3" font-family="Times,serif" font-size="14.00">edit</text>
<text text-anchor="start" x="8" y="-530.3" font-family="Times,serif" font-size="14.00">update</text>
<polyline fill="none" stroke="black" points="0,-522.5 143,-522.5 "/>
<polyline fill="none" stroke="black" points="0,-498.5 143,-498.5 "/>
<text text-anchor="start" x="8" y="-483.3" font-family="Times,serif" font-size="14.00">_layout</text>
<text text-anchor="start" x="8" y="-468.3" font-family="Times,serif" font-size="14.00">cl_params</text>
</g>
<!-- CoursesController -->
<g id="node6" class="node"><title>CoursesController</title>
<path fill="none" stroke="black" d="M352,-160.5C352,-160.5 444,-160.5 444,-160.5 450,-160.5 456,-166.5 456,-172.5 456,-172.5 456,-481.5 456,-481.5 456,-487.5 450,-493.5 444,-493.5 444,-493.5 352,-493.5 352,-493.5 346,-493.5 340,-487.5 340,-481.5 340,-481.5 340,-172.5 340,-172.5 340,-166.5 346,-160.5 352,-160.5"/>
<text text-anchor="middle" x="398" y="-478.3" font-family="Times,serif" font-size="14.00">CoursesController</text>
<polyline fill="none" stroke="black" points="340,-470.5 456,-470.5 "/>
<text text-anchor="start" x="348" y="-455.3" font-family="Times,serif" font-size="14.00">accept_roster</text>
<text text-anchor="start" x="348" y="-440.3" font-family="Times,serif" font-size="14.00">add_instructors</text>
<text text-anchor="start" x="348" y="-425.3" font-family="Times,serif" font-size="14.00">add_students</text>
<text text-anchor="start" x="348" y="-410.3" font-family="Times,serif" font-size="14.00">create</text>
<text text-anchor="start" x="348" y="-395.3" font-family="Times,serif" font-size="14.00">decline_roster</text>
<text text-anchor="start" x="348" y="-380.3" font-family="Times,serif" font-size="14.00">destroy</text>
<text text-anchor="start" x="348" y="-365.3" font-family="Times,serif" font-size="14.00">drop_student</text>
<text text-anchor="start" x="348" y="-350.3" font-family="Times,serif" font-size="14.00">edit</text>
<text text-anchor="start" x="348" y="-335.3" font-family="Times,serif" font-size="14.00">index</text>
<text text-anchor="start" x="348" y="-320.3" font-family="Times,serif" font-size="14.00">new</text>
<text text-anchor="start" x="348" y="-305.3" font-family="Times,serif" font-size="14.00">re_invite_student</text>
<text text-anchor="start" x="348" y="-290.3" font-family="Times,serif" font-size="14.00">remove_instructor</text>
<text text-anchor="start" x="348" y="-275.3" font-family="Times,serif" font-size="14.00">show</text>
<text text-anchor="start" x="348" y="-260.3" font-family="Times,serif" font-size="14.00">update</text>
<polyline fill="none" stroke="black" points="340,-252.5 456,-252.5 "/>
<polyline fill="none" stroke="black" points="340,-228.5 456,-228.5 "/>
<text text-anchor="start" x="348" y="-213.3" font-family="Times,serif" font-size="14.00">_layout</text>
<text text-anchor="start" x="348" y="-198.3" font-family="Times,serif" font-size="14.00">check_admin</text>
<text text-anchor="start" x="348" y="-183.3" font-family="Times,serif" font-size="14.00">course_params</text>
<text text-anchor="start" x="348" y="-168.3" font-family="Times,serif" font-size="14.00">set_course</text>
</g>
<!-- ExperiencesController -->
<g id="node7" class="node"><title>ExperiencesController</title>
<path fill="none" stroke="black" d="M512,-240.5C512,-240.5 626,-240.5 626,-240.5 632,-240.5 638,-246.5 638,-252.5 638,-252.5 638,-546.5 638,-546.5 638,-552.5 632,-558.5 626,-558.5 626,-558.5 512,-558.5 512,-558.5 506,-558.5 500,-552.5 500,-546.5 500,-546.5 500,-252.5 500,-252.5 500,-246.5 506,-240.5 512,-240.5"/>
<text text-anchor="middle" x="569" y="-543.3" font-family="Times,serif" font-size="14.00">ExperiencesController</text>
<polyline fill="none" stroke="black" points="500,-535.5 638,-535.5 "/>
<text text-anchor="start" x="508" y="-520.3" font-family="Times,serif" font-size="14.00">activate</text>
<text text-anchor="start" x="508" y="-505.3" font-family="Times,serif" font-size="14.00">create</text>
<text text-anchor="start" x="508" y="-490.3" font-family="Times,serif" font-size="14.00">destroy</text>
<text text-anchor="start" x="508" y="-475.3" font-family="Times,serif" font-size="14.00">diagnose</text>
<text text-anchor="start" x="508" y="-460.3" font-family="Times,serif" font-size="14.00">edit</text>
<text text-anchor="start" x="508" y="-445.3" font-family="Times,serif" font-size="14.00">index</text>
<text text-anchor="start" x="508" y="-430.3" font-family="Times,serif" font-size="14.00">new</text>
<text text-anchor="start" x="508" y="-415.3" font-family="Times,serif" font-size="14.00">next</text>
<text text-anchor="start" x="508" y="-400.3" font-family="Times,serif" font-size="14.00">react</text>
<text text-anchor="start" x="508" y="-385.3" font-family="Times,serif" font-size="14.00">show</text>
<text text-anchor="start" x="508" y="-370.3" font-family="Times,serif" font-size="14.00">update</text>
<polyline fill="none" stroke="black" points="500,-362.5 638,-362.5 "/>
<polyline fill="none" stroke="black" points="500,-338.5 638,-338.5 "/>
<text text-anchor="start" x="508" y="-323.3" font-family="Times,serif" font-size="14.00">_layout</text>
<text text-anchor="start" x="508" y="-308.3" font-family="Times,serif" font-size="14.00">check_admin</text>
<text text-anchor="start" x="508" y="-293.3" font-family="Times,serif" font-size="14.00">diagnosis_params</text>
<text text-anchor="start" x="508" y="-278.3" font-family="Times,serif" font-size="14.00">experience_params</text>
<text text-anchor="start" x="508" y="-263.3" font-family="Times,serif" font-size="14.00">reaction_params</text>
<text text-anchor="start" x="508" y="-248.3" font-family="Times,serif" font-size="14.00">set_experience</text>
</g>
<!-- GraphingController -->
<g id="node8" class="node"><title>GraphingController</title>
<path fill="none" stroke="black" d="M692,-60.5C692,-60.5 843,-60.5 843,-60.5 849,-60.5 855,-66.5 855,-72.5 855,-72.5 855,-216.5 855,-216.5 855,-222.5 849,-228.5 843,-228.5 843,-228.5 692,-228.5 692,-228.5 686,-228.5 680,-222.5 680,-216.5 680,-216.5 680,-72.5 680,-72.5 680,-66.5 686,-60.5 692,-60.5"/>
<text text-anchor="middle" x="767.5" y="-213.3" font-family="Times,serif" font-size="14.00">GraphingController</text>
<polyline fill="none" stroke="black" points="680,-205.5 855,-205.5 "/>
<text text-anchor="start" x="688" y="-190.3" font-family="Times,serif" font-size="14.00">data</text>
<text text-anchor="start" x="688" y="-175.3" font-family="Times,serif" font-size="14.00">index</text>
<text text-anchor="start" x="688" y="-160.3" font-family="Times,serif" font-size="14.00">individual_summary_data</text>
<text text-anchor="start" x="688" y="-145.3" font-family="Times,serif" font-size="14.00">pull_and_organise_user_data</text>
<text text-anchor="start" x="688" y="-130.3" font-family="Times,serif" font-size="14.00">raw_data</text>
<text text-anchor="start" x="688" y="-115.3" font-family="Times,serif" font-size="14.00">subjects</text>
<polyline fill="none" stroke="black" points="680,-107.5 855,-107.5 "/>
<polyline fill="none" stroke="black" points="680,-83.5 855,-83.5 "/>
<text text-anchor="start" x="688" y="-68.3" font-family="Times,serif" font-size="14.00">_layout</text>
</g>
<!-- HomeController -->
<g id="node9" class="node"><title>HomeController</title>
<path fill="none" stroke="black" d="M252,-0.5C252,-0.5 345,-0.5 345,-0.5 351,-0.5 357,-6.5 357,-12.5 357,-12.5 357,-111.5 357,-111.5 357,-117.5 351,-123.5 345,-123.5 345,-123.5 252,-123.5 252,-123.5 246,-123.5 240,-117.5 240,-111.5 240,-111.5 240,-12.5 240,-12.5 240,-6.5 246,-0.5 252,-0.5"/>
<text text-anchor="middle" x="298.5" y="-108.3" font-family="Times,serif" font-size="14.00">HomeController</text>
<polyline fill="none" stroke="black" points="240,-100.5 357,-100.5 "/>
<text text-anchor="start" x="248" y="-85.3" font-family="Times,serif" font-size="14.00">demo_start</text>
<text text-anchor="start" x="248" y="-70.3" font-family="Times,serif" font-size="14.00">index</text>
<text text-anchor="start" x="248" y="-55.3" font-family="Times,serif" font-size="14.00">states_for_country</text>
<polyline fill="none" stroke="black" points="240,-47.5 357,-47.5 "/>
<polyline fill="none" stroke="black" points="240,-23.5 357,-23.5 "/>
<text text-anchor="start" x="248" y="-8.3" font-family="Times,serif" font-size="14.00">_layout</text>
</g>
<!-- InstallmentsController -->
<g id="node10" class="node"><title>InstallmentsController</title>
<path fill="none" stroke="black" d="M132,-620.5C132,-620.5 247,-620.5 247,-620.5 253,-620.5 259,-626.5 259,-632.5 259,-632.5 259,-776.5 259,-776.5 259,-782.5 253,-788.5 247,-788.5 247,-788.5 132,-788.5 132,-788.5 126,-788.5 120,-782.5 120,-776.5 120,-776.5 120,-632.5 120,-632.5 120,-626.5 126,-620.5 132,-620.5"/>
<text text-anchor="middle" x="189.5" y="-773.3" font-family="Times,serif" font-size="14.00">InstallmentsController</text>
<polyline fill="none" stroke="black" points="120,-765.5 259,-765.5 "/>
<text text-anchor="start" x="128" y="-750.3" font-family="Times,serif" font-size="14.00">create</text>
<text text-anchor="start" x="128" y="-735.3" font-family="Times,serif" font-size="14.00">demo_complete</text>
<text text-anchor="start" x="128" y="-720.3" font-family="Times,serif" font-size="14.00">edit</text>
<text text-anchor="start" x="128" y="-705.3" font-family="Times,serif" font-size="14.00">new</text>
<text text-anchor="start" x="128" y="-690.3" font-family="Times,serif" font-size="14.00">update</text>
<polyline fill="none" stroke="black" points="120,-682.5 259,-682.5 "/>
<polyline fill="none" stroke="black" points="120,-658.5 259,-658.5 "/>
<text text-anchor="start" x="128" y="-643.3" font-family="Times,serif" font-size="14.00">_layout</text>
<text text-anchor="start" x="128" y="-628.3" font-family="Times,serif" font-size="14.00">i_params</text>
</g>
<!-- ProjectsController -->
<g id="node11" class="node"><title>ProjectsController</title>
<path fill="none" stroke="black" d="M192,-200.5C192,-200.5 284,-200.5 284,-200.5 290,-200.5 296,-206.5 296,-212.5 296,-212.5 296,-491.5 296,-491.5 296,-497.5 290,-503.5 284,-503.5 284,-503.5 192,-503.5 192,-503.5 186,-503.5 180,-497.5 180,-491.5 180,-491.5 180,-212.5 180,-212.5 180,-206.5 186,-200.5 192,-200.5"/>
<text text-anchor="middle" x="238" y="-488.3" font-family="Times,serif" font-size="14.00">ProjectsController</text>
<polyline fill="none" stroke="black" points="180,-480.5 296,-480.5 "/>
<text text-anchor="start" x="188" y="-465.3" font-family="Times,serif" font-size="14.00">activate</text>
<text text-anchor="start" x="188" y="-450.3" font-family="Times,serif" font-size="14.00">add_group</text>
<text text-anchor="start" x="188" y="-435.3" font-family="Times,serif" font-size="14.00">create</text>
<text text-anchor="start" x="188" y="-420.3" font-family="Times,serif" font-size="14.00">destroy</text>
<text text-anchor="start" x="188" y="-405.3" font-family="Times,serif" font-size="14.00">edit</text>
<text text-anchor="start" x="188" y="-390.3" font-family="Times,serif" font-size="14.00">index</text>
<text text-anchor="start" x="188" y="-375.3" font-family="Times,serif" font-size="14.00">new</text>
<text text-anchor="start" x="188" y="-360.3" font-family="Times,serif" font-size="14.00">remove_group</text>
<text text-anchor="start" x="188" y="-345.3" font-family="Times,serif" font-size="14.00">rescore_group</text>
<text text-anchor="start" x="188" y="-330.3" font-family="Times,serif" font-size="14.00">rescore_groups</text>
<text text-anchor="start" x="188" y="-315.3" font-family="Times,serif" font-size="14.00">show</text>
<text text-anchor="start" x="188" y="-300.3" font-family="Times,serif" font-size="14.00">update</text>
<polyline fill="none" stroke="black" points="180,-292.5 296,-292.5 "/>
<polyline fill="none" stroke="black" points="180,-268.5 296,-268.5 "/>
<text text-anchor="start" x="188" y="-253.3" font-family="Times,serif" font-size="14.00">_layout</text>
<text text-anchor="start" x="188" y="-238.3" font-family="Times,serif" font-size="14.00">check_admin</text>
<text text-anchor="start" x="188" y="-223.3" font-family="Times,serif" font-size="14.00">project_params</text>
<text text-anchor="start" x="188" y="-208.3" font-family="Times,serif" font-size="14.00">set_project</text>
</g>
<!-- RegistrationsController -->
<g id="node12" class="node"><title>RegistrationsController</title>
<path fill="none" stroke="black" d="M72,-0.5C72,-0.5 192,-0.5 192,-0.5 198,-0.5 204,-6.5 204,-12.5 204,-12.5 204,-140.5 204,-140.5 204,-146.5 198,-152.5 192,-152.5 192,-152.5 72,-152.5 72,-152.5 66,-152.5 60,-146.5 60,-140.5 60,-140.5 60,-12.5 60,-12.5 60,-6.5 66,-0.5 72,-0.5"/>
<text text-anchor="middle" x="132" y="-137.3" font-family="Times,serif" font-size="14.00">RegistrationsController</text>
<polyline fill="none" stroke="black" points="60,-129.5 204,-129.5 "/>
<text text-anchor="start" x="68" y="-114.3" font-family="Times,serif" font-size="14.00">add_email</text>
<text text-anchor="start" x="68" y="-99.3" font-family="Times,serif" font-size="14.00">initiate_password_reset</text>
<text text-anchor="start" x="68" y="-84.3" font-family="Times,serif" font-size="14.00">remove_email</text>
<text text-anchor="start" x="68" y="-69.3" font-family="Times,serif" font-size="14.00">set_primary_email</text>
<polyline fill="none" stroke="black" points="60,-61.5 204,-61.5 "/>
<text text-anchor="start" x="68" y="-46.3" font-family="Times,serif" font-size="14.00">update_resource</text>
<polyline fill="none" stroke="black" points="60,-38.5 204,-38.5 "/>
<text text-anchor="start" x="68" y="-23.3" font-family="Times,serif" font-size="14.00">_layout</text>
<text text-anchor="start" x="68" y="-8.3" font-family="Times,serif" font-size="14.00">set_email</text>
</g>
<!-- SchoolsController -->
<g id="node13" class="node"><title>SchoolsController</title>
<path fill="none" stroke="black" d="M512,-600.5C512,-600.5 603,-600.5 603,-600.5 609,-600.5 615,-606.5 615,-612.5 615,-612.5 615,-816.5 615,-816.5 615,-822.5 609,-828.5 603,-828.5 603,-828.5 512,-828.5 512,-828.5 506,-828.5 500,-822.5 500,-816.5 500,-816.5 500,-612.5 500,-612.5 500,-606.5 506,-600.5 512,-600.5"/>
<text text-anchor="middle" x="557.5" y="-813.3" font-family="Times,serif" font-size="14.00">SchoolsController</text>
<polyline fill="none" stroke="black" points="500,-805.5 615,-805.5 "/>
<text text-anchor="start" x="508" y="-790.3" font-family="Times,serif" font-size="14.00">create</text>
<text text-anchor="start" x="508" y="-775.3" font-family="Times,serif" font-size="14.00">destroy</text>
<text text-anchor="start" x="508" y="-760.3" font-family="Times,serif" font-size="14.00">edit</text>
<text text-anchor="start" x="508" y="-745.3" font-family="Times,serif" font-size="14.00">index</text>
<text text-anchor="start" x="508" y="-730.3" font-family="Times,serif" font-size="14.00">new</text>
<text text-anchor="start" x="508" y="-715.3" font-family="Times,serif" font-size="14.00">show</text>
<text text-anchor="start" x="508" y="-700.3" font-family="Times,serif" font-size="14.00">update</text>
<polyline fill="none" stroke="black" points="500,-692.5 615,-692.5 "/>
<polyline fill="none" stroke="black" points="500,-668.5 615,-668.5 "/>
<text text-anchor="start" x="508" y="-653.3" font-family="Times,serif" font-size="14.00">_layout</text>
<text text-anchor="start" x="508" y="-638.3" font-family="Times,serif" font-size="14.00">check_admin</text>
<text text-anchor="start" x="508" y="-623.3" font-family="Times,serif" font-size="14.00">school_params</text>
<text text-anchor="start" x="508" y="-608.3" font-family="Times,serif" font-size="14.00">set_school</text>
</g>
<!-- Users::OmniauthCallbacksController -->
<g id="node14" class="node"><title>Users::OmniauthCallbacksController</title>
<path fill="none" stroke="black" d="M692,-260.5C692,-260.5 886,-260.5 886,-260.5 892,-260.5 898,-266.5 898,-272.5 898,-272.5 898,-356.5 898,-356.5 898,-362.5 892,-368.5 886,-368.5 886,-368.5 692,-368.5 692,-368.5 686,-368.5 680,-362.5 680,-356.5 680,-356.5 680,-272.5 680,-272.5 680,-266.5 686,-260.5 692,-260.5"/>
<text text-anchor="middle" x="789" y="-353.3" font-family="Times,serif" font-size="14.00">Users::OmniauthCallbacksController</text>
<polyline fill="none" stroke="black" points="680,-345.5 898,-345.5 "/>
<text text-anchor="start" x="688" y="-330.3" font-family="Times,serif" font-size="14.00">failure</text>
<text text-anchor="start" x="688" y="-315.3" font-family="Times,serif" font-size="14.00">google_oauth2</text>
<polyline fill="none" stroke="black" points="680,-307.5 898,-307.5 "/>
<polyline fill="none" stroke="black" points="680,-283.5 898,-283.5 "/>
<text text-anchor="start" x="688" y="-268.3" font-family="Times,serif" font-size="14.00">_layout</text>
</g>
</g>
</svg>
