<?xml version="1.0" encoding="UTF-8" standalone="no"?>
<!DOCTYPE svg PUBLIC "-//W3C//DTD SVG 1.1//EN"
 "http://www.w3.org/Graphics/SVG/1.1/DTD/svg11.dtd">
<!-- Generated by graphviz version 2.38.0 (20140413.2041)
 -->
<!-- Title: controllers_diagram Pages: 1 -->
<svg width="812pt" height="872pt"
 viewBox="0.00 0.00 811.50 872.00" xmlns="http://www.w3.org/2000/svg" xmlns:xlink="http://www.w3.org/1999/xlink">
<g id="graph0" class="graph" transform="scale(1 1) rotate(0) translate(304 508)">
<title>controllers_diagram</title>
<polygon fill="none" stroke="none" points="-304,364 -304,-508 507.5,-508 507.5,364 -304,364"/>
<!-- _diagram_info -->
<g id="node1" class="node"><title>_diagram_info</title>
<text text-anchor="start" x="-292" y="236.4" font-family="Times,serif" font-size="13.00">Controllers diagram</text>
<text text-anchor="start" x="-292" y="250.4" font-family="Times,serif" font-size="13.00">Date: May 25 2017 &#45; 09:29</text>
<text text-anchor="start" x="-292" y="264.4" font-family="Times,serif" font-size="13.00">Migration version: 20170524044413</text>
<text text-anchor="start" x="-292" y="278.4" font-family="Times,serif" font-size="13.00">Generated by RailRoady 1.5.2</text>
<text text-anchor="start" x="-292" y="292.4" font-family="Times,serif" font-size="13.00">http://railroady.prestonlee.com</text>
</g>
<!-- ProjectsController -->
<g id="node2" class="node"><title>ProjectsController</title>
<path fill="none" stroke="black" d="M-208,119.5C-208,119.5 -116,119.5 -116,119.5 -110,119.5 -104,113.5 -104,107.5 -104,107.5 -104,-141.5 -104,-141.5 -104,-147.5 -110,-153.5 -116,-153.5 -116,-153.5 -208,-153.5 -208,-153.5 -214,-153.5 -220,-147.5 -220,-141.5 -220,-141.5 -220,107.5 -220,107.5 -220,113.5 -214,119.5 -208,119.5"/>
<text text-anchor="middle" x="-162" y="-138.3" font-family="Times,serif" font-size="14.00">ProjectsController</text>
<polyline fill="none" stroke="black" points="-220,-130.5 -104,-130.5 "/>
<text text-anchor="start" x="-212" y="-115.3" font-family="Times,serif" font-size="14.00">activate</text>
<text text-anchor="start" x="-212" y="-100.3" font-family="Times,serif" font-size="14.00">add_group</text>
<text text-anchor="start" x="-212" y="-85.3" font-family="Times,serif" font-size="14.00">create</text>
<text text-anchor="start" x="-212" y="-70.3" font-family="Times,serif" font-size="14.00">destroy</text>
<text text-anchor="start" x="-212" y="-55.3" font-family="Times,serif" font-size="14.00">edit</text>
<text text-anchor="start" x="-212" y="-40.3" font-family="Times,serif" font-size="14.00">index</text>
<text text-anchor="start" x="-212" y="-25.3" font-family="Times,serif" font-size="14.00">new</text>
<text text-anchor="start" x="-212" y="-10.3" font-family="Times,serif" font-size="14.00">remove_group</text>
<text text-anchor="start" x="-212" y="4.7" font-family="Times,serif" font-size="14.00">show</text>
<text text-anchor="start" x="-212" y="19.7" font-family="Times,serif" font-size="14.00">update</text>
<polyline fill="none" stroke="black" points="-220,27.5 -104,27.5 "/>
<polyline fill="none" stroke="black" points="-220,51.5 -104,51.5 "/>
<text text-anchor="start" x="-212" y="66.7" font-family="Times,serif" font-size="14.00">_layout</text>
<text text-anchor="start" x="-212" y="81.7" font-family="Times,serif" font-size="14.00">check_admin</text>
<text text-anchor="start" x="-212" y="96.7" font-family="Times,serif" font-size="14.00">project_params</text>
<text text-anchor="start" x="-212" y="111.7" font-family="Times,serif" font-size="14.00">set_project</text>
</g>
<!-- BingoGamesController -->
<g id="node3" class="node"><title>BingoGamesController</title>
<path fill="none" stroke="black" d="M-88,-200.5C-88,-200.5 48,-200.5 48,-200.5 54,-200.5 60,-206.5 60,-212.5 60,-212.5 60,-461.5 60,-461.5 60,-467.5 54,-473.5 48,-473.5 48,-473.5 -88,-473.5 -88,-473.5 -94,-473.5 -100,-467.5 -100,-461.5 -100,-461.5 -100,-212.5 -100,-212.5 -100,-206.5 -94,-200.5 -88,-200.5"/>
<text text-anchor="middle" x="-20" y="-458.3" font-family="Times,serif" font-size="14.00">BingoGamesController</text>
<polyline fill="none" stroke="black" points="-100,-450.5 60,-450.5 "/>
<text text-anchor="start" x="-92" y="-435.3" font-family="Times,serif" font-size="14.00">activate</text>
<text text-anchor="start" x="-92" y="-420.3" font-family="Times,serif" font-size="14.00">create</text>
<text text-anchor="start" x="-92" y="-405.3" font-family="Times,serif" font-size="14.00">destroy</text>
<text text-anchor="start" x="-92" y="-390.3" font-family="Times,serif" font-size="14.00">edit</text>
<text text-anchor="start" x="-92" y="-375.3" font-family="Times,serif" font-size="14.00">index</text>
<text text-anchor="start" x="-92" y="-360.3" font-family="Times,serif" font-size="14.00">new</text>
<text text-anchor="start" x="-92" y="-345.3" font-family="Times,serif" font-size="14.00">review_candidates</text>
<text text-anchor="start" x="-92" y="-330.3" font-family="Times,serif" font-size="14.00">show</text>
<text text-anchor="start" x="-92" y="-315.3" font-family="Times,serif" font-size="14.00">update</text>
<text text-anchor="start" x="-92" y="-300.3" font-family="Times,serif" font-size="14.00">update_review_candidates</text>
<polyline fill="none" stroke="black" points="-100,-292.5 60,-292.5 "/>
<polyline fill="none" stroke="black" points="-100,-268.5 60,-268.5 "/>
<text text-anchor="start" x="-92" y="-253.3" font-family="Times,serif" font-size="14.00">_layout</text>
<text text-anchor="start" x="-92" y="-238.3" font-family="Times,serif" font-size="14.00">bingo_game_params</text>
<text text-anchor="start" x="-92" y="-223.3" font-family="Times,serif" font-size="14.00">check_admin</text>
<text text-anchor="start" x="-92" y="-208.3" font-family="Times,serif" font-size="14.00">set_bingo_game</text>
</g>
<!-- CandidateListsController -->
<g id="node4" class="node"><title>CandidateListsController</title>
<path fill="none" stroke="black" d="M272.5,-260.5C272.5,-260.5 421.5,-260.5 421.5,-260.5 427.5,-260.5 433.5,-266.5 433.5,-272.5 433.5,-272.5 433.5,-491.5 433.5,-491.5 433.5,-497.5 427.5,-503.5 421.5,-503.5 421.5,-503.5 272.5,-503.5 272.5,-503.5 266.5,-503.5 260.5,-497.5 260.5,-491.5 260.5,-491.5 260.5,-272.5 260.5,-272.5 260.5,-266.5 266.5,-260.5 272.5,-260.5"/>
<text text-anchor="middle" x="347" y="-488.3" font-family="Times,serif" font-size="14.00">CandidateListsController</text>
<polyline fill="none" stroke="black" points="260.5,-480.5 433.5,-480.5 "/>
<text text-anchor="start" x="268.5" y="-465.3" font-family="Times,serif" font-size="14.00">create</text>
<text text-anchor="start" x="268.5" y="-450.3" font-family="Times,serif" font-size="14.00">demo_complete</text>
<text text-anchor="start" x="268.5" y="-435.3" font-family="Times,serif" font-size="14.00">edit</text>
<text text-anchor="start" x="268.5" y="-420.3" font-family="Times,serif" font-size="14.00">list_stats</text>
<text text-anchor="start" x="268.5" y="-405.3" font-family="Times,serif" font-size="14.00">merge_to_group_list</text>
<text text-anchor="start" x="268.5" y="-390.3" font-family="Times,serif" font-size="14.00">request_collaboration</text>
<text text-anchor="start" x="268.5" y="-375.3" font-family="Times,serif" font-size="14.00">show</text>
<text text-anchor="start" x="268.5" y="-360.3" font-family="Times,serif" font-size="14.00">update</text>
<polyline fill="none" stroke="black" points="260.5,-352.5 433.5,-352.5 "/>
<polyline fill="none" stroke="black" points="260.5,-328.5 433.5,-328.5 "/>
<text text-anchor="start" x="268.5" y="-313.3" font-family="Times,serif" font-size="14.00">_layout</text>
<text text-anchor="start" x="268.5" y="-298.3" font-family="Times,serif" font-size="14.00">candidate_list_params</text>
<text text-anchor="start" x="268.5" y="-283.3" font-family="Times,serif" font-size="14.00">merge_individuals_to_group</text>
<text text-anchor="start" x="268.5" y="-268.3" font-family="Times,serif" font-size="14.00">set_candidate_list</text>
</g>
<!-- CoursesController -->
<g id="node5" class="node"><title>CoursesController</title>
<path fill="none" stroke="black" d="M-48,179.5C-48,179.5 44,179.5 44,179.5 50,179.5 56,173.5 56,167.5 56,167.5 56,-141.5 56,-141.5 56,-147.5 50,-153.5 44,-153.5 44,-153.5 -48,-153.5 -48,-153.5 -54,-153.5 -60,-147.5 -60,-141.5 -60,-141.5 -60,167.5 -60,167.5 -60,173.5 -54,179.5 -48,179.5"/>
<text text-anchor="middle" x="-2" y="-138.3" font-family="Times,serif" font-size="14.00">CoursesController</text>
<polyline fill="none" stroke="black" points="-60,-130.5 56,-130.5 "/>
<text text-anchor="start" x="-52" y="-115.3" font-family="Times,serif" font-size="14.00">accept_roster</text>
<text text-anchor="start" x="-52" y="-100.3" font-family="Times,serif" font-size="14.00">add_instructors</text>
<text text-anchor="start" x="-52" y="-85.3" font-family="Times,serif" font-size="14.00">add_students</text>
<text text-anchor="start" x="-52" y="-70.3" font-family="Times,serif" font-size="14.00">create</text>
<text text-anchor="start" x="-52" y="-55.3" font-family="Times,serif" font-size="14.00">decline_roster</text>
<text text-anchor="start" x="-52" y="-40.3" font-family="Times,serif" font-size="14.00">destroy</text>
<text text-anchor="start" x="-52" y="-25.3" font-family="Times,serif" font-size="14.00">drop_student</text>
<text text-anchor="start" x="-52" y="-10.3" font-family="Times,serif" font-size="14.00">edit</text>
<text text-anchor="start" x="-52" y="4.7" font-family="Times,serif" font-size="14.00">index</text>
<text text-anchor="start" x="-52" y="19.7" font-family="Times,serif" font-size="14.00">new</text>
<text text-anchor="start" x="-52" y="34.7" font-family="Times,serif" font-size="14.00">re_invite_student</text>
<text text-anchor="start" x="-52" y="49.7" font-family="Times,serif" font-size="14.00">remove_instructor</text>
<text text-anchor="start" x="-52" y="64.7" font-family="Times,serif" font-size="14.00">show</text>
<text text-anchor="start" x="-52" y="79.7" font-family="Times,serif" font-size="14.00">update</text>
<polyline fill="none" stroke="black" points="-60,87.5 56,87.5 "/>
<polyline fill="none" stroke="black" points="-60,111.5 56,111.5 "/>
<text text-anchor="start" x="-52" y="126.7" font-family="Times,serif" font-size="14.00">_layout</text>
<text text-anchor="start" x="-52" y="141.7" font-family="Times,serif" font-size="14.00">check_admin</text>
<text text-anchor="start" x="-52" y="156.7" font-family="Times,serif" font-size="14.00">course_params</text>
<text text-anchor="start" x="-52" y="171.7" font-family="Times,serif" font-size="14.00">set_course</text>
</g>
<!-- ApplicationController -->
<g id="node6" class="node"><title>ApplicationController</title>
<path fill="none" stroke="black" d="M292,99C292,99 462,99 462,99 468,99 474,93 474,87 474,87 474,3 474,3 474,-3 468,-9 462,-9 462,-9 292,-9 292,-9 286,-9 280,-3 280,3 280,3 280,87 280,87 280,93 286,99 292,99"/>
<text text-anchor="middle" x="377" y="6.2" font-family="Times,serif" font-size="14.00">ApplicationController</text>
<polyline fill="none" stroke="black" points="280,14 474,14 "/>
<polyline fill="none" stroke="black" points="280,38 474,38 "/>
<text text-anchor="start" x="288" y="53.2" font-family="Times,serif" font-size="14.00">configure_permitted_parameters</text>
<text text-anchor="start" x="288" y="68.2" font-family="Times,serif" font-size="14.00">set_time_zone</text>
<polyline fill="none" stroke="black" points="280,76 474,76 "/>
<text text-anchor="start" x="288" y="91.2" font-family="Times,serif" font-size="14.00">_layout</text>
</g>
<!-- RegistrationsController -->
<g id="node7" class="node"><title>RegistrationsController</title>
<path fill="none" stroke="black" d="M372.5,359.5C372.5,359.5 491.5,359.5 491.5,359.5 497.5,359.5 503.5,353.5 503.5,347.5 503.5,347.5 503.5,278.5 503.5,278.5 503.5,272.5 497.5,266.5 491.5,266.5 491.5,266.5 372.5,266.5 372.5,266.5 366.5,266.5 360.5,272.5 360.5,278.5 360.5,278.5 360.5,347.5 360.5,347.5 360.5,353.5 366.5,359.5 372.5,359.5"/>
<text text-anchor="middle" x="432" y="281.7" font-family="Times,serif" font-size="14.00">RegistrationsController</text>
<polyline fill="none" stroke="black" points="360.5,289.5 503.5,289.5 "/>
<polyline fill="none" stroke="black" points="360.5,313.5 503.5,313.5 "/>
<text text-anchor="start" x="368.5" y="328.7" font-family="Times,serif" font-size="14.00">update_resource</text>
<polyline fill="none" stroke="black" points="360.5,336.5 503.5,336.5 "/>
<text text-anchor="start" x="368.5" y="351.7" font-family="Times,serif" font-size="14.00">_layout</text>
</g>
<!-- ExperiencesController -->
<g id="node8" class="node"><title>ExperiencesController</title>
<path fill="none" stroke="black" d="M112,99C112,99 226,99 226,99 232,99 238,93 238,87 238,87 238,-207 238,-207 238,-213 232,-219 226,-219 226,-219 112,-219 112,-219 106,-219 100,-213 100,-207 100,-207 100,87 100,87 100,93 106,99 112,99"/>
<text text-anchor="middle" x="169" y="-203.8" font-family="Times,serif" font-size="14.00">ExperiencesController</text>
<polyline fill="none" stroke="black" points="100,-196 238,-196 "/>
<text text-anchor="start" x="108" y="-180.8" font-family="Times,serif" font-size="14.00">activate</text>
<text text-anchor="start" x="108" y="-165.8" font-family="Times,serif" font-size="14.00">create</text>
<text text-anchor="start" x="108" y="-150.8" font-family="Times,serif" font-size="14.00">destroy</text>
<text text-anchor="start" x="108" y="-135.8" font-family="Times,serif" font-size="14.00">diagnose</text>
<text text-anchor="start" x="108" y="-120.8" font-family="Times,serif" font-size="14.00">edit</text>
<text text-anchor="start" x="108" y="-105.8" font-family="Times,serif" font-size="14.00">index</text>
<text text-anchor="start" x="108" y="-90.8" font-family="Times,serif" font-size="14.00">new</text>
<text text-anchor="start" x="108" y="-75.8" font-family="Times,serif" font-size="14.00">next</text>
<text text-anchor="start" x="108" y="-60.8" font-family="Times,serif" font-size="14.00">react</text>
<text text-anchor="start" x="108" y="-45.8" font-family="Times,serif" font-size="14.00">show</text>
<text text-anchor="start" x="108" y="-30.8" font-family="Times,serif" font-size="14.00">update</text>
<polyline fill="none" stroke="black" points="100,-23 238,-23 "/>
<polyline fill="none" stroke="black" points="100,1 238,1 "/>
<text text-anchor="start" x="108" y="16.2" font-family="Times,serif" font-size="14.00">_layout</text>
<text text-anchor="start" x="108" y="31.2" font-family="Times,serif" font-size="14.00">check_admin</text>
<text text-anchor="start" x="108" y="46.2" font-family="Times,serif" font-size="14.00">diagnosis_params</text>
<text text-anchor="start" x="108" y="61.2" font-family="Times,serif" font-size="14.00">experience_params</text>
<text text-anchor="start" x="108" y="76.2" font-family="Times,serif" font-size="14.00">reaction_params</text>
<text text-anchor="start" x="108" y="91.2" font-family="Times,serif" font-size="14.00">set_experience</text>
</g>
<!-- Users::OmniauthCallbacksController -->
<g id="node9" class="node"><title>Users::OmniauthCallbacksController</title>
<path fill="none" stroke="black" d="M112,239C112,239 306,239 306,239 312,239 318,233 318,227 318,227 318,143 318,143 318,137 312,131 306,131 306,131 112,131 112,131 106,131 100,137 100,143 100,143 100,227 100,227 100,233 106,239 112,239"/>
<text text-anchor="middle" x="209" y="146.2" font-family="Times,serif" font-size="14.00">Users::OmniauthCallbacksController</text>
<polyline fill="none" stroke="black" points="100,154 318,154 "/>
<text text-anchor="start" x="108" y="169.2" font-family="Times,serif" font-size="14.00">failure</text>
<text text-anchor="start" x="108" y="184.2" font-family="Times,serif" font-size="14.00">google_oauth2</text>
<polyline fill="none" stroke="black" points="100,192 318,192 "/>
<polyline fill="none" stroke="black" points="100,216 318,216 "/>
<text text-anchor="start" x="108" y="231.2" font-family="Times,serif" font-size="14.00">_layout</text>
</g>
<!-- HomeController -->
<g id="node10" class="node"><title>HomeController</title>
<path fill="none" stroke="black" d="M-28,339.5C-28,339.5 54,339.5 54,339.5 60,339.5 66,333.5 66,327.5 66,327.5 66,228.5 66,228.5 66,222.5 60,216.5 54,216.5 54,216.5 -28,216.5 -28,216.5 -34,216.5 -40,222.5 -40,228.5 -40,228.5 -40,327.5 -40,327.5 -40,333.5 -34,339.5 -28,339.5"/>
<text text-anchor="middle" x="13" y="231.7" font-family="Times,serif" font-size="14.00">HomeController</text>
<polyline fill="none" stroke="black" points="-40,239.5 66,239.5 "/>
<text text-anchor="start" x="-32" y="254.7" font-family="Times,serif" font-size="14.00">demo_start</text>
<text text-anchor="start" x="-32" y="269.7" font-family="Times,serif" font-size="14.00">index</text>
<text text-anchor="start" x="-32" y="284.7" font-family="Times,serif" font-size="14.00">send_reset</text>
<polyline fill="none" stroke="black" points="-40,292.5 66,292.5 "/>
<polyline fill="none" stroke="black" points="-40,316.5 66,316.5 "/>
<text text-anchor="start" x="-32" y="331.7" font-family="Times,serif" font-size="14.00">_layout</text>
</g>
<!-- InstallmentsController -->
<g id="node11" class="node"><title>InstallmentsController</title>
<path fill="none" stroke="black" d="M292.5,-40C292.5,-40 407.5,-40 407.5,-40 413.5,-40 419.5,-46 419.5,-52 419.5,-52 419.5,-196 419.5,-196 419.5,-202 413.5,-208 407.5,-208 407.5,-208 292.5,-208 292.5,-208 286.5,-208 280.5,-202 280.5,-196 280.5,-196 280.5,-52 280.5,-52 280.5,-46 286.5,-40 292.5,-40"/>
<text text-anchor="middle" x="350" y="-192.8" font-family="Times,serif" font-size="14.00">InstallmentsController</text>
<polyline fill="none" stroke="black" points="280.5,-185 419.5,-185 "/>
<text text-anchor="start" x="288.5" y="-169.8" font-family="Times,serif" font-size="14.00">create</text>
<text text-anchor="start" x="288.5" y="-154.8" font-family="Times,serif" font-size="14.00">demo_complete</text>
<text text-anchor="start" x="288.5" y="-139.8" font-family="Times,serif" font-size="14.00">edit</text>
<text text-anchor="start" x="288.5" y="-124.8" font-family="Times,serif" font-size="14.00">new</text>
<text text-anchor="start" x="288.5" y="-109.8" font-family="Times,serif" font-size="14.00">update</text>
<polyline fill="none" stroke="black" points="280.5,-102 419.5,-102 "/>
<polyline fill="none" stroke="black" points="280.5,-78 419.5,-78 "/>
<text text-anchor="start" x="288.5" y="-62.8" font-family="Times,serif" font-size="14.00">_layout</text>
<text text-anchor="start" x="288.5" y="-47.8" font-family="Times,serif" font-size="14.00">i_params</text>
</g>
<!-- SchoolsController -->
<g id="node12" class="node"><title>SchoolsController</title>
<path fill="none" stroke="black" d="M111.5,-261C111.5,-261 202.5,-261 202.5,-261 208.5,-261 214.5,-267 214.5,-273 214.5,-273 214.5,-477 214.5,-477 214.5,-483 208.5,-489 202.5,-489 202.5,-489 111.5,-489 111.5,-489 105.5,-489 99.5,-483 99.5,-477 99.5,-477 99.5,-273 99.5,-273 99.5,-267 105.5,-261 111.5,-261"/>
<text text-anchor="middle" x="157" y="-473.8" font-family="Times,serif" font-size="14.00">SchoolsController</text>
<polyline fill="none" stroke="black" points="99.5,-466 214.5,-466 "/>
<text text-anchor="start" x="107.5" y="-450.8" font-family="Times,serif" font-size="14.00">create</text>
<text text-anchor="start" x="107.5" y="-435.8" font-family="Times,serif" font-size="14.00">destroy</text>
<text text-anchor="start" x="107.5" y="-420.8" font-family="Times,serif" font-size="14.00">edit</text>
<text text-anchor="start" x="107.5" y="-405.8" font-family="Times,serif" font-size="14.00">index</text>
<text text-anchor="start" x="107.5" y="-390.8" font-family="Times,serif" font-size="14.00">new</text>
<text text-anchor="start" x="107.5" y="-375.8" font-family="Times,serif" font-size="14.00">show</text>
<text text-anchor="start" x="107.5" y="-360.8" font-family="Times,serif" font-size="14.00">update</text>
<polyline fill="none" stroke="black" points="99.5,-353 214.5,-353 "/>
<polyline fill="none" stroke="black" points="99.5,-329 214.5,-329 "/>
<text text-anchor="start" x="107.5" y="-313.8" font-family="Times,serif" font-size="14.00">_layout</text>
<text text-anchor="start" x="107.5" y="-298.8" font-family="Times,serif" font-size="14.00">check_admin</text>
<text text-anchor="start" x="107.5" y="-283.8" font-family="Times,serif" font-size="14.00">school_params</text>
<text text-anchor="start" x="107.5" y="-268.8" font-family="Times,serif" font-size="14.00">set_school</text>
</g>
<!-- ConsentLogsController -->
<g id="node13" class="node"><title>ConsentLogsController</title>
<path fill="none" stroke="black" d="M-267.5,-280.5C-267.5,-280.5 -148.5,-280.5 -148.5,-280.5 -142.5,-280.5 -136.5,-286.5 -136.5,-292.5 -136.5,-292.5 -136.5,-391.5 -136.5,-391.5 -136.5,-397.5 -142.5,-403.5 -148.5,-403.5 -148.5,-403.5 -267.5,-403.5 -267.5,-403.5 -273.5,-403.5 -279.5,-397.5 -279.5,-391.5 -279.5,-391.5 -279.5,-292.5 -279.5,-292.5 -279.5,-286.5 -273.5,-280.5 -267.5,-280.5"/>
<text text-anchor="middle" x="-208" y="-388.3" font-family="Times,serif" font-size="14.00">ConsentLogsController</text>
<polyline fill="none" stroke="black" points="-279.5,-380.5 -136.5,-380.5 "/>
<text text-anchor="start" x="-271.5" y="-365.3" font-family="Times,serif" font-size="14.00">edit</text>
<text text-anchor="start" x="-271.5" y="-350.3" font-family="Times,serif" font-size="14.00">update</text>
<polyline fill="none" stroke="black" points="-279.5,-342.5 -136.5,-342.5 "/>
<polyline fill="none" stroke="black" points="-279.5,-318.5 -136.5,-318.5 "/>
<text text-anchor="start" x="-271.5" y="-303.3" font-family="Times,serif" font-size="14.00">_layout</text>
<text text-anchor="start" x="-271.5" y="-288.3" font-family="Times,serif" font-size="14.00">cl_params</text>
</g>
</g>
</svg>
