<?xml version="1.0" encoding="UTF-8" standalone="no"?>
<!DOCTYPE svg PUBLIC "-//W3C//DTD SVG 1.1//EN"
 "http://www.w3.org/Graphics/SVG/1.1/DTD/svg11.dtd">
<!-- Generated by graphviz version 2.36.0 (20140111.2315)
 -->
<!-- Title: controllers_diagram Pages: 1 -->
<svg width="919pt" height="870pt"
 viewBox="0.00 0.00 919.00 870.00" xmlns="http://www.w3.org/2000/svg" xmlns:xlink="http://www.w3.org/1999/xlink">
<g id="graph0" class="graph" transform="scale(1 1) rotate(0) translate(4 866)">
<title>controllers_diagram</title>
<polygon fill="none" stroke="none" points="-4,4 -4,-866 915,-866 915,4 -4,4"/>
<!-- _diagram_info -->
<g id="node1" class="node"><title>_diagram_info</title>
<text text-anchor="start" x="50" y="-84.6" font-family="Times,serif" font-size="13.00">Controllers diagram</text>
<text text-anchor="start" x="50" y="-70.6" font-family="Times,serif" font-size="13.00">Date: Apr 02 2017 &#45; 22:43</text>
<text text-anchor="start" x="50" y="-56.6" font-family="Times,serif" font-size="13.00">Migration version: 20170402134023</text>
<text text-anchor="start" x="50" y="-42.6" font-family="Times,serif" font-size="13.00">Generated by RailRoady 1.5.2</text>
<text text-anchor="start" x="50" y="-28.6" font-family="Times,serif" font-size="13.00">http://railroady.prestonlee.com</text>
</g>
<!-- ApplicationController -->
<g id="node2" class="node"><title>ApplicationController</title>
<path fill="none" stroke="black" d="M348,-0.5C348,-0.5 577,-0.5 577,-0.5 583,-0.5 589,-6.5 589,-12.5 589,-12.5 589,-96.5 589,-96.5 589,-102.5 583,-108.5 577,-108.5 577,-108.5 348,-108.5 348,-108.5 342,-108.5 336,-102.5 336,-96.5 336,-96.5 336,-12.5 336,-12.5 336,-6.5 342,-0.5 348,-0.5"/>
<text text-anchor="middle" x="462.5" y="-93.3" font-family="Times,serif" font-size="14.00">ApplicationController</text>
<polyline fill="none" stroke="black" points="336,-85.5 589,-85.5 "/>
<polyline fill="none" stroke="black" points="336,-61.5 589,-61.5 "/>
<text text-anchor="start" x="344" y="-46.3" font-family="Times,serif" font-size="14.00">configure_permitted_parameters</text>
<text text-anchor="start" x="344" y="-31.3" font-family="Times,serif" font-size="14.00">set_time_zone</text>
<polyline fill="none" stroke="black" points="336,-23.5 589,-23.5 "/>
<text text-anchor="start" x="344" y="-8.3" font-family="Times,serif" font-size="14.00">_layout</text>
</g>
<!-- BingoGamesController -->
<g id="node3" class="node"><title>BingoGamesController</title>
<path fill="none" stroke="black" d="M243,-504.5C243,-504.5 399,-504.5 399,-504.5 405,-504.5 411,-510.5 411,-516.5 411,-516.5 411,-735.5 411,-735.5 411,-741.5 405,-747.5 399,-747.5 399,-747.5 243,-747.5 243,-747.5 237,-747.5 231,-741.5 231,-735.5 231,-735.5 231,-516.5 231,-516.5 231,-510.5 237,-504.5 243,-504.5"/>
<text text-anchor="middle" x="321" y="-732.3" font-family="Times,serif" font-size="14.00">BingoGamesController</text>
<polyline fill="none" stroke="black" points="231,-724.5 411,-724.5 "/>
<text text-anchor="start" x="239" y="-709.3" font-family="Times,serif" font-size="14.00">activate</text>
<text text-anchor="start" x="239" y="-694.3" font-family="Times,serif" font-size="14.00">create</text>
<text text-anchor="start" x="239" y="-679.3" font-family="Times,serif" font-size="14.00">destroy</text>
<text text-anchor="start" x="239" y="-664.3" font-family="Times,serif" font-size="14.00">edit</text>
<text text-anchor="start" x="239" y="-649.3" font-family="Times,serif" font-size="14.00">index</text>
<text text-anchor="start" x="239" y="-634.3" font-family="Times,serif" font-size="14.00">new</text>
<text text-anchor="start" x="239" y="-619.3" font-family="Times,serif" font-size="14.00">show</text>
<text text-anchor="start" x="239" y="-604.3" font-family="Times,serif" font-size="14.00">update</text>
<polyline fill="none" stroke="black" points="231,-596.5 411,-596.5 "/>
<polyline fill="none" stroke="black" points="231,-572.5 411,-572.5 "/>
<text text-anchor="start" x="239" y="-557.3" font-family="Times,serif" font-size="14.00">_layout</text>
<text text-anchor="start" x="239" y="-542.3" font-family="Times,serif" font-size="14.00">bingo_game_params</text>
<text text-anchor="start" x="239" y="-527.3" font-family="Times,serif" font-size="14.00">check_admin</text>
<text text-anchor="start" x="239" y="-512.3" font-family="Times,serif" font-size="14.00">set_bingo_game</text>
</g>
<!-- CandidateListsController -->
<g id="node4" class="node"><title>CandidateListsController</title>
<path fill="none" stroke="black" d="M642,-21.5C642,-21.5 837,-21.5 837,-21.5 843,-21.5 849,-27.5 849,-33.5 849,-33.5 849,-177.5 849,-177.5 849,-183.5 843,-189.5 837,-189.5 837,-189.5 642,-189.5 642,-189.5 636,-189.5 630,-183.5 630,-177.5 630,-177.5 630,-33.5 630,-33.5 630,-27.5 636,-21.5 642,-21.5"/>
<text text-anchor="middle" x="739.5" y="-174.3" font-family="Times,serif" font-size="14.00">CandidateListsController</text>
<polyline fill="none" stroke="black" points="630,-166.5 849,-166.5 "/>
<text text-anchor="start" x="638" y="-151.3" font-family="Times,serif" font-size="14.00">edit</text>
<text text-anchor="start" x="638" y="-136.3" font-family="Times,serif" font-size="14.00">request_collaboration</text>
<text text-anchor="start" x="638" y="-121.3" font-family="Times,serif" font-size="14.00">update</text>
<polyline fill="none" stroke="black" points="630,-113.5 849,-113.5 "/>
<polyline fill="none" stroke="black" points="630,-89.5 849,-89.5 "/>
<text text-anchor="start" x="638" y="-74.3" font-family="Times,serif" font-size="14.00">_layout</text>
<text text-anchor="start" x="638" y="-59.3" font-family="Times,serif" font-size="14.00">candidate_list_params</text>
<text text-anchor="start" x="638" y="-44.3" font-family="Times,serif" font-size="14.00">merge_individuals_to_group</text>
<text text-anchor="start" x="638" y="-29.3" font-family="Times,serif" font-size="14.00">set_candidate_list</text>
</g>
<!-- ConsentLogsController -->
<g id="node5" class="node"><title>ConsentLogsController</title>
<path fill="none" stroke="black" d="M12,-651.5C12,-651.5 172,-651.5 172,-651.5 178,-651.5 184,-657.5 184,-663.5 184,-663.5 184,-762.5 184,-762.5 184,-768.5 178,-774.5 172,-774.5 172,-774.5 12,-774.5 12,-774.5 6,-774.5 0,-768.5 0,-762.5 0,-762.5 0,-663.5 0,-663.5 0,-657.5 6,-651.5 12,-651.5"/>
<text text-anchor="middle" x="92" y="-759.3" font-family="Times,serif" font-size="14.00">ConsentLogsController</text>
<polyline fill="none" stroke="black" points="0,-751.5 184,-751.5 "/>
<text text-anchor="start" x="8" y="-736.3" font-family="Times,serif" font-size="14.00">edit</text>
<text text-anchor="start" x="8" y="-721.3" font-family="Times,serif" font-size="14.00">update</text>
<polyline fill="none" stroke="black" points="0,-713.5 184,-713.5 "/>
<polyline fill="none" stroke="black" points="0,-689.5 184,-689.5 "/>
<text text-anchor="start" x="8" y="-674.3" font-family="Times,serif" font-size="14.00">_layout</text>
<text text-anchor="start" x="8" y="-659.3" font-family="Times,serif" font-size="14.00">cl_params</text>
</g>
<!-- CoursesController -->
<g id="node6" class="node"><title>CoursesController</title>
<path fill="none" stroke="black" d="M453,-210.5C453,-210.5 578,-210.5 578,-210.5 584,-210.5 590,-216.5 590,-222.5 590,-222.5 590,-531.5 590,-531.5 590,-537.5 584,-543.5 578,-543.5 578,-543.5 453,-543.5 453,-543.5 447,-543.5 441,-537.5 441,-531.5 441,-531.5 441,-222.5 441,-222.5 441,-216.5 447,-210.5 453,-210.5"/>
<text text-anchor="middle" x="515.5" y="-528.3" font-family="Times,serif" font-size="14.00">CoursesController</text>
<polyline fill="none" stroke="black" points="441,-520.5 590,-520.5 "/>
<text text-anchor="start" x="449" y="-505.3" font-family="Times,serif" font-size="14.00">accept_roster</text>
<text text-anchor="start" x="449" y="-490.3" font-family="Times,serif" font-size="14.00">add_instructors</text>
<text text-anchor="start" x="449" y="-475.3" font-family="Times,serif" font-size="14.00">add_students</text>
<text text-anchor="start" x="449" y="-460.3" font-family="Times,serif" font-size="14.00">create</text>
<text text-anchor="start" x="449" y="-445.3" font-family="Times,serif" font-size="14.00">decline_roster</text>
<text text-anchor="start" x="449" y="-430.3" font-family="Times,serif" font-size="14.00">destroy</text>
<text text-anchor="start" x="449" y="-415.3" font-family="Times,serif" font-size="14.00">drop_student</text>
<text text-anchor="start" x="449" y="-400.3" font-family="Times,serif" font-size="14.00">edit</text>
<text text-anchor="start" x="449" y="-385.3" font-family="Times,serif" font-size="14.00">index</text>
<text text-anchor="start" x="449" y="-370.3" font-family="Times,serif" font-size="14.00">new</text>
<text text-anchor="start" x="449" y="-355.3" font-family="Times,serif" font-size="14.00">re_invite_student</text>
<text text-anchor="start" x="449" y="-340.3" font-family="Times,serif" font-size="14.00">remove_instructor</text>
<text text-anchor="start" x="449" y="-325.3" font-family="Times,serif" font-size="14.00">show</text>
<text text-anchor="start" x="449" y="-310.3" font-family="Times,serif" font-size="14.00">update</text>
<polyline fill="none" stroke="black" points="441,-302.5 590,-302.5 "/>
<polyline fill="none" stroke="black" points="441,-278.5 590,-278.5 "/>
<text text-anchor="start" x="449" y="-263.3" font-family="Times,serif" font-size="14.00">_layout</text>
<text text-anchor="start" x="449" y="-248.3" font-family="Times,serif" font-size="14.00">check_admin</text>
<text text-anchor="start" x="449" y="-233.3" font-family="Times,serif" font-size="14.00">course_params</text>
<text text-anchor="start" x="449" y="-218.3" font-family="Times,serif" font-size="14.00">set_course</text>
</g>
<!-- ExperiencesController -->
<g id="node7" class="node"><title>ExperiencesController</title>
<path fill="none" stroke="black" d="M243,-147.5C243,-147.5 398,-147.5 398,-147.5 404,-147.5 410,-153.5 410,-159.5 410,-159.5 410,-453.5 410,-453.5 410,-459.5 404,-465.5 398,-465.5 398,-465.5 243,-465.5 243,-465.5 237,-465.5 231,-459.5 231,-453.5 231,-453.5 231,-159.5 231,-159.5 231,-153.5 237,-147.5 243,-147.5"/>
<text text-anchor="middle" x="320.5" y="-450.3" font-family="Times,serif" font-size="14.00">ExperiencesController</text>
<polyline fill="none" stroke="black" points="231,-442.5 410,-442.5 "/>
<text text-anchor="start" x="239" y="-427.3" font-family="Times,serif" font-size="14.00">activate</text>
<text text-anchor="start" x="239" y="-412.3" font-family="Times,serif" font-size="14.00">create</text>
<text text-anchor="start" x="239" y="-397.3" font-family="Times,serif" font-size="14.00">destroy</text>
<text text-anchor="start" x="239" y="-382.3" font-family="Times,serif" font-size="14.00">diagnose</text>
<text text-anchor="start" x="239" y="-367.3" font-family="Times,serif" font-size="14.00">edit</text>
<text text-anchor="start" x="239" y="-352.3" font-family="Times,serif" font-size="14.00">index</text>
<text text-anchor="start" x="239" y="-337.3" font-family="Times,serif" font-size="14.00">new</text>
<text text-anchor="start" x="239" y="-322.3" font-family="Times,serif" font-size="14.00">next</text>
<text text-anchor="start" x="239" y="-307.3" font-family="Times,serif" font-size="14.00">react</text>
<text text-anchor="start" x="239" y="-292.3" font-family="Times,serif" font-size="14.00">show</text>
<text text-anchor="start" x="239" y="-277.3" font-family="Times,serif" font-size="14.00">update</text>
<polyline fill="none" stroke="black" points="231,-269.5 410,-269.5 "/>
<polyline fill="none" stroke="black" points="231,-245.5 410,-245.5 "/>
<text text-anchor="start" x="239" y="-230.3" font-family="Times,serif" font-size="14.00">_layout</text>
<text text-anchor="start" x="239" y="-215.3" font-family="Times,serif" font-size="14.00">check_admin</text>
<text text-anchor="start" x="239" y="-200.3" font-family="Times,serif" font-size="14.00">diagnosis_params</text>
<text text-anchor="start" x="239" y="-185.3" font-family="Times,serif" font-size="14.00">experience_params</text>
<text text-anchor="start" x="239" y="-170.3" font-family="Times,serif" font-size="14.00">reaction_params</text>
<text text-anchor="start" x="239" y="-155.3" font-family="Times,serif" font-size="14.00">set_experience</text>
</g>
<!-- GraphingController -->
<g id="node8" class="node"><title>GraphingController</title>
<path fill="none" stroke="black" d="M642,-231.5C642,-231.5 842,-231.5 842,-231.5 848,-231.5 854,-237.5 854,-243.5 854,-243.5 854,-387.5 854,-387.5 854,-393.5 848,-399.5 842,-399.5 842,-399.5 642,-399.5 642,-399.5 636,-399.5 630,-393.5 630,-387.5 630,-387.5 630,-243.5 630,-243.5 630,-237.5 636,-231.5 642,-231.5"/>
<text text-anchor="middle" x="742" y="-384.3" font-family="Times,serif" font-size="14.00">GraphingController</text>
<polyline fill="none" stroke="black" points="630,-376.5 854,-376.5 "/>
<text text-anchor="start" x="638" y="-361.3" font-family="Times,serif" font-size="14.00">data</text>
<text text-anchor="start" x="638" y="-346.3" font-family="Times,serif" font-size="14.00">index</text>
<text text-anchor="start" x="638" y="-331.3" font-family="Times,serif" font-size="14.00">individual_summary_data</text>
<text text-anchor="start" x="638" y="-316.3" font-family="Times,serif" font-size="14.00">pull_and_organise_user_data</text>
<text text-anchor="start" x="638" y="-301.3" font-family="Times,serif" font-size="14.00">raw_data</text>
<text text-anchor="start" x="638" y="-286.3" font-family="Times,serif" font-size="14.00">subjects</text>
<polyline fill="none" stroke="black" points="630,-278.5 854,-278.5 "/>
<polyline fill="none" stroke="black" points="630,-254.5 854,-254.5 "/>
<text text-anchor="start" x="638" y="-239.3" font-family="Times,serif" font-size="14.00">_layout</text>
</g>
<!-- HomeController -->
<g id="node9" class="node"><title>HomeController</title>
<path fill="none" stroke="black" d="M453,-588.5C453,-588.5 562,-588.5 562,-588.5 568,-588.5 574,-594.5 574,-600.5 574,-600.5 574,-669.5 574,-669.5 574,-675.5 568,-681.5 562,-681.5 562,-681.5 453,-681.5 453,-681.5 447,-681.5 441,-675.5 441,-669.5 441,-669.5 441,-600.5 441,-600.5 441,-594.5 447,-588.5 453,-588.5"/>
<text text-anchor="middle" x="507.5" y="-666.3" font-family="Times,serif" font-size="14.00">HomeController</text>
<polyline fill="none" stroke="black" points="441,-658.5 574,-658.5 "/>
<text text-anchor="start" x="449" y="-643.3" font-family="Times,serif" font-size="14.00">index</text>
<polyline fill="none" stroke="black" points="441,-635.5 574,-635.5 "/>
<polyline fill="none" stroke="black" points="441,-611.5 574,-611.5 "/>
<text text-anchor="start" x="449" y="-596.3" font-family="Times,serif" font-size="14.00">_layout</text>
</g>
<!-- InstallmentsController -->
<g id="node10" class="node"><title>InstallmentsController</title>
<path fill="none" stroke="black" d="M33,-315.5C33,-315.5 189,-315.5 189,-315.5 195,-315.5 201,-321.5 201,-327.5 201,-327.5 201,-486.5 201,-486.5 201,-492.5 195,-498.5 189,-498.5 189,-498.5 33,-498.5 33,-498.5 27,-498.5 21,-492.5 21,-486.5 21,-486.5 21,-327.5 21,-327.5 21,-321.5 27,-315.5 33,-315.5"/>
<text text-anchor="middle" x="111" y="-483.3" font-family="Times,serif" font-size="14.00">InstallmentsController</text>
<polyline fill="none" stroke="black" points="21,-475.5 201,-475.5 "/>
<text text-anchor="start" x="29" y="-460.3" font-family="Times,serif" font-size="14.00">create</text>
<text text-anchor="start" x="29" y="-445.3" font-family="Times,serif" font-size="14.00">demo_complete</text>
<text text-anchor="start" x="29" y="-430.3" font-family="Times,serif" font-size="14.00">demo_start</text>
<text text-anchor="start" x="29" y="-415.3" font-family="Times,serif" font-size="14.00">edit</text>
<text text-anchor="start" x="29" y="-400.3" font-family="Times,serif" font-size="14.00">new</text>
<text text-anchor="start" x="29" y="-385.3" font-family="Times,serif" font-size="14.00">update</text>
<polyline fill="none" stroke="black" points="21,-377.5 201,-377.5 "/>
<polyline fill="none" stroke="black" points="21,-353.5 201,-353.5 "/>
<text text-anchor="start" x="29" y="-338.3" font-family="Times,serif" font-size="14.00">_layout</text>
<text text-anchor="start" x="29" y="-323.3" font-family="Times,serif" font-size="14.00">i_params</text>
</g>
<!-- ProjectsController -->
<g id="node11" class="node"><title>ProjectsController</title>
<path fill="none" stroke="black" d="M621,-588.5C621,-588.5 746,-588.5 746,-588.5 752,-588.5 758,-594.5 758,-600.5 758,-600.5 758,-849.5 758,-849.5 758,-855.5 752,-861.5 746,-861.5 746,-861.5 621,-861.5 621,-861.5 615,-861.5 609,-855.5 609,-849.5 609,-849.5 609,-600.5 609,-600.5 609,-594.5 615,-588.5 621,-588.5"/>
<text text-anchor="middle" x="683.5" y="-846.3" font-family="Times,serif" font-size="14.00">ProjectsController</text>
<polyline fill="none" stroke="black" points="609,-838.5 758,-838.5 "/>
<text text-anchor="start" x="617" y="-823.3" font-family="Times,serif" font-size="14.00">activate</text>
<text text-anchor="start" x="617" y="-808.3" font-family="Times,serif" font-size="14.00">add_group</text>
<text text-anchor="start" x="617" y="-793.3" font-family="Times,serif" font-size="14.00">create</text>
<text text-anchor="start" x="617" y="-778.3" font-family="Times,serif" font-size="14.00">destroy</text>
<text text-anchor="start" x="617" y="-763.3" font-family="Times,serif" font-size="14.00">edit</text>
<text text-anchor="start" x="617" y="-748.3" font-family="Times,serif" font-size="14.00">index</text>
<text text-anchor="start" x="617" y="-733.3" font-family="Times,serif" font-size="14.00">new</text>
<text text-anchor="start" x="617" y="-718.3" font-family="Times,serif" font-size="14.00">remove_group</text>
<text text-anchor="start" x="617" y="-703.3" font-family="Times,serif" font-size="14.00">show</text>
<text text-anchor="start" x="617" y="-688.3" font-family="Times,serif" font-size="14.00">update</text>
<polyline fill="none" stroke="black" points="609,-680.5 758,-680.5 "/>
<polyline fill="none" stroke="black" points="609,-656.5 758,-656.5 "/>
<text text-anchor="start" x="617" y="-641.3" font-family="Times,serif" font-size="14.00">_layout</text>
<text text-anchor="start" x="617" y="-626.3" font-family="Times,serif" font-size="14.00">check_admin</text>
<text text-anchor="start" x="617" y="-611.3" font-family="Times,serif" font-size="14.00">project_params</text>
<text text-anchor="start" x="617" y="-596.3" font-family="Times,serif" font-size="14.00">set_project</text>
</g>
<!-- RegistrationsController -->
<g id="node12" class="node"><title>RegistrationsController</title>
<path fill="none" stroke="black" d="M12,-189.5C12,-189.5 174,-189.5 174,-189.5 180,-189.5 186,-195.5 186,-201.5 186,-201.5 186,-270.5 186,-270.5 186,-276.5 180,-282.5 174,-282.5 174,-282.5 12,-282.5 12,-282.5 6,-282.5 -2.84217e-14,-276.5 -2.84217e-14,-270.5 -2.84217e-14,-270.5 -2.84217e-14,-201.5 -2.84217e-14,-201.5 -2.84217e-14,-195.5 6,-189.5 12,-189.5"/>
<text text-anchor="middle" x="93" y="-267.3" font-family="Times,serif" font-size="14.00">RegistrationsController</text>
<polyline fill="none" stroke="black" points="-2.84217e-14,-259.5 186,-259.5 "/>
<polyline fill="none" stroke="black" points="-2.84217e-14,-235.5 186,-235.5 "/>
<text text-anchor="start" x="8" y="-220.3" font-family="Times,serif" font-size="14.00">update_resource</text>
<polyline fill="none" stroke="black" points="-2.84217e-14,-212.5 186,-212.5 "/>
<text text-anchor="start" x="8" y="-197.3" font-family="Times,serif" font-size="14.00">_layout</text>
</g>
<!-- Users::OmniauthCallbacksController -->
<g id="node13" class="node"><title>Users::OmniauthCallbacksController</title>
<path fill="none" stroke="black" d="M642,-441.5C642,-441.5 899,-441.5 899,-441.5 905,-441.5 911,-447.5 911,-453.5 911,-453.5 911,-537.5 911,-537.5 911,-543.5 905,-549.5 899,-549.5 899,-549.5 642,-549.5 642,-549.5 636,-549.5 630,-543.5 630,-537.5 630,-537.5 630,-453.5 630,-453.5 630,-447.5 636,-441.5 642,-441.5"/>
<text text-anchor="middle" x="770.5" y="-534.3" font-family="Times,serif" font-size="14.00">Users::OmniauthCallbacksController</text>
<polyline fill="none" stroke="black" points="630,-526.5 911,-526.5 "/>
<text text-anchor="start" x="638" y="-511.3" font-family="Times,serif" font-size="14.00">failure</text>
<text text-anchor="start" x="638" y="-496.3" font-family="Times,serif" font-size="14.00">google_oauth2</text>
<polyline fill="none" stroke="black" points="630,-488.5 911,-488.5 "/>
<polyline fill="none" stroke="black" points="630,-464.5 911,-464.5 "/>
<text text-anchor="start" x="638" y="-449.3" font-family="Times,serif" font-size="14.00">_layout</text>
</g>
</g>
</svg>
