<?xml version="1.0" encoding="UTF-8" standalone="no"?>
<!DOCTYPE svg PUBLIC "-//W3C//DTD SVG 1.1//EN"
 "http://www.w3.org/Graphics/SVG/1.1/DTD/svg11.dtd">
<!-- Generated by graphviz version 2.36.0 (20140111.2315)
 -->
<!-- Title: controllers_diagram Pages: 1 -->
<svg width="585pt" height="510pt"
 viewBox="0.00 0.00 585.00 510.00" xmlns="http://www.w3.org/2000/svg" xmlns:xlink="http://www.w3.org/1999/xlink">
<g id="graph0" class="graph" transform="scale(1 1) rotate(0) translate(4 506)">
<title>controllers_diagram</title>
<polygon fill="none" stroke="none" points="-4,4 -4,-506 581,-506 581,4 -4,4"/>
<!-- _diagram_info -->
<g id="node1" class="node"><title>_diagram_info</title>
<text text-anchor="start" x="242" y="-333.6" font-family="Times,serif" font-size="13.00">Controllers diagram</text>
<text text-anchor="start" x="242" y="-319.6" font-family="Times,serif" font-size="13.00">Date: Jan 26 2017 &#45; 16:37</text>
<text text-anchor="start" x="242" y="-305.6" font-family="Times,serif" font-size="13.00">Migration version: 20170126073154</text>
<text text-anchor="start" x="242" y="-291.6" font-family="Times,serif" font-size="13.00">Generated by RailRoady 1.5.2</text>
<text text-anchor="start" x="242" y="-277.6" font-family="Times,serif" font-size="13.00">http://railroady.prestonlee.com</text>
</g>
<!-- ApplicationController -->
<g id="node2" class="node"><title>ApplicationController</title>
<path fill="none" stroke="black" d="M336,-0.5C336,-0.5 565,-0.5 565,-0.5 571,-0.5 577,-6.5 577,-12.5 577,-12.5 577,-96.5 577,-96.5 577,-102.5 571,-108.5 565,-108.5 565,-108.5 336,-108.5 336,-108.5 330,-108.5 324,-102.5 324,-96.5 324,-96.5 324,-12.5 324,-12.5 324,-6.5 330,-0.5 336,-0.5"/>
<text text-anchor="middle" x="450.5" y="-93.3" font-family="Times,serif" font-size="14.00">ApplicationController</text>
<polyline fill="none" stroke="black" points="324,-85.5 577,-85.5 "/>
<polyline fill="none" stroke="black" points="324,-61.5 577,-61.5 "/>
<text text-anchor="start" x="332" y="-46.3" font-family="Times,serif" font-size="14.00">configure_permitted_parameters</text>
<text text-anchor="start" x="332" y="-31.3" font-family="Times,serif" font-size="14.00">set_time_zone</text>
<polyline fill="none" stroke="black" points="324,-23.5 577,-23.5 "/>
<text text-anchor="start" x="332" y="-8.3" font-family="Times,serif" font-size="14.00">_layout</text>
</g>
<!-- ConsentLogsController -->
<g id="node3" class="node"><title>ConsentLogsController</title>
<path fill="none" stroke="black" d="M354,-378.5C354,-378.5 514,-378.5 514,-378.5 520,-378.5 526,-384.5 526,-390.5 526,-390.5 526,-489.5 526,-489.5 526,-495.5 520,-501.5 514,-501.5 514,-501.5 354,-501.5 354,-501.5 348,-501.5 342,-495.5 342,-489.5 342,-489.5 342,-390.5 342,-390.5 342,-384.5 348,-378.5 354,-378.5"/>
<text text-anchor="middle" x="434" y="-486.3" font-family="Times,serif" font-size="14.00">ConsentLogsController</text>
<polyline fill="none" stroke="black" points="342,-478.5 526,-478.5 "/>
<text text-anchor="start" x="350" y="-463.3" font-family="Times,serif" font-size="14.00">edit</text>
<text text-anchor="start" x="350" y="-448.3" font-family="Times,serif" font-size="14.00">update</text>
<polyline fill="none" stroke="black" points="342,-440.5 526,-440.5 "/>
<polyline fill="none" stroke="black" points="342,-416.5 526,-416.5 "/>
<text text-anchor="start" x="350" y="-401.3" font-family="Times,serif" font-size="14.00">_layout</text>
<text text-anchor="start" x="350" y="-386.3" font-family="Times,serif" font-size="14.00">cl_params</text>
</g>
<!-- HomeController -->
<g id="node4" class="node"><title>HomeController</title>
<path fill="none" stroke="black" d="M156,-0.5C156,-0.5 265,-0.5 265,-0.5 271,-0.5 277,-6.5 277,-12.5 277,-12.5 277,-81.5 277,-81.5 277,-87.5 271,-93.5 265,-93.5 265,-93.5 156,-93.5 156,-93.5 150,-93.5 144,-87.5 144,-81.5 144,-81.5 144,-12.5 144,-12.5 144,-6.5 150,-0.5 156,-0.5"/>
<text text-anchor="middle" x="210.5" y="-78.3" font-family="Times,serif" font-size="14.00">HomeController</text>
<polyline fill="none" stroke="black" points="144,-70.5 277,-70.5 "/>
<text text-anchor="start" x="152" y="-55.3" font-family="Times,serif" font-size="14.00">index</text>
<polyline fill="none" stroke="black" points="144,-47.5 277,-47.5 "/>
<polyline fill="none" stroke="black" points="144,-23.5 277,-23.5 "/>
<text text-anchor="start" x="152" y="-8.3" font-family="Times,serif" font-size="14.00">_layout</text>
</g>
<!-- InstallmentsController -->
<g id="node5" class="node"><title>InstallmentsController</title>
<path fill="none" stroke="black" d="M30,-306.5C30,-306.5 186,-306.5 186,-306.5 192,-306.5 198,-312.5 198,-318.5 198,-318.5 198,-447.5 198,-447.5 198,-453.5 192,-459.5 186,-459.5 186,-459.5 30,-459.5 30,-459.5 24,-459.5 18,-453.5 18,-447.5 18,-447.5 18,-318.5 18,-318.5 18,-312.5 24,-306.5 30,-306.5"/>
<text text-anchor="middle" x="108" y="-444.3" font-family="Times,serif" font-size="14.00">InstallmentsController</text>
<polyline fill="none" stroke="black" points="18,-436.5 198,-436.5 "/>
<text text-anchor="start" x="26" y="-421.3" font-family="Times,serif" font-size="14.00">create</text>
<text text-anchor="start" x="26" y="-406.3" font-family="Times,serif" font-size="14.00">edit</text>
<text text-anchor="start" x="26" y="-391.3" font-family="Times,serif" font-size="14.00">new</text>
<text text-anchor="start" x="26" y="-376.3" font-family="Times,serif" font-size="14.00">update</text>
<polyline fill="none" stroke="black" points="18,-368.5 198,-368.5 "/>
<polyline fill="none" stroke="black" points="18,-344.5 198,-344.5 "/>
<text text-anchor="start" x="26" y="-329.3" font-family="Times,serif" font-size="14.00">_layout</text>
<text text-anchor="start" x="26" y="-314.3" font-family="Times,serif" font-size="14.00">i_params</text>
</g>
<!-- Users::OmniauthCallbacksController -->
<g id="node6" class="node"><title>Users::OmniauthCallbacksController</title>
<path fill="none" stroke="black" d="M12,-126.5C12,-126.5 269,-126.5 269,-126.5 275,-126.5 281,-132.5 281,-138.5 281,-138.5 281,-222.5 281,-222.5 281,-228.5 275,-234.5 269,-234.5 269,-234.5 12,-234.5 12,-234.5 6,-234.5 0,-228.5 0,-222.5 0,-222.5 0,-138.5 0,-138.5 0,-132.5 6,-126.5 12,-126.5"/>
<text text-anchor="middle" x="140.5" y="-219.3" font-family="Times,serif" font-size="14.00">Users::OmniauthCallbacksController</text>
<polyline fill="none" stroke="black" points="0,-211.5 281,-211.5 "/>
<text text-anchor="start" x="8" y="-196.3" font-family="Times,serif" font-size="14.00">failure</text>
<text text-anchor="start" x="8" y="-181.3" font-family="Times,serif" font-size="14.00">google_oauth2</text>
<polyline fill="none" stroke="black" points="0,-173.5 281,-173.5 "/>
<polyline fill="none" stroke="black" points="0,-149.5 281,-149.5 "/>
<text text-anchor="start" x="8" y="-134.3" font-family="Times,serif" font-size="14.00">_layout</text>
</g>
</g>
</svg>
