<?xml version="1.0" encoding="UTF-8" standalone="no"?>
<!DOCTYPE svg PUBLIC "-//W3C//DTD SVG 1.1//EN"
 "http://www.w3.org/Graphics/SVG/1.1/DTD/svg11.dtd">
<!-- Generated by graphviz version 2.38.0 (20140413.2041)
 -->
<!-- Title: controllers_diagram Pages: 1 -->
<svg width="735pt" height="728pt"
 viewBox="0.00 0.00 734.50 727.50" xmlns="http://www.w3.org/2000/svg" xmlns:xlink="http://www.w3.org/1999/xlink">
<g id="graph0" class="graph" transform="scale(1 1) rotate(0) translate(250.5 476)">
<title>controllers_diagram</title>
<polygon fill="none" stroke="none" points="-250.5,251.5 -250.5,-476 484,-476 484,251.5 -250.5,251.5"/>
<!-- _diagram_info -->
<g id="node1" class="node"><title>_diagram_info</title>
<text text-anchor="start" x="274" y="-329.6" font-family="Times,serif" font-size="13.00">Controllers diagram</text>
<text text-anchor="start" x="274" y="-315.6" font-family="Times,serif" font-size="13.00">Date: Mar 31 2017 &#45; 17:59</text>
<text text-anchor="start" x="274" y="-301.6" font-family="Times,serif" font-size="13.00">Migration version: 20170331045901</text>
<text text-anchor="start" x="274" y="-287.6" font-family="Times,serif" font-size="13.00">Generated by RailRoady 1.5.2</text>
<text text-anchor="start" x="274" y="-273.6" font-family="Times,serif" font-size="13.00">http://railroady.prestonlee.com</text>
</g>
<!-- ProjectsController -->
<g id="node2" class="node"><title>ProjectsController</title>
<path fill="none" stroke="black" d="M-45,-190.5C-45,-190.5 47,-190.5 47,-190.5 53,-190.5 59,-196.5 59,-202.5 59,-202.5 59,-451.5 59,-451.5 59,-457.5 53,-463.5 47,-463.5 47,-463.5 -45,-463.5 -45,-463.5 -51,-463.5 -57,-457.5 -57,-451.5 -57,-451.5 -57,-202.5 -57,-202.5 -57,-196.5 -51,-190.5 -45,-190.5"/>
<text text-anchor="middle" x="1" y="-448.3" font-family="Times,serif" font-size="14.00">ProjectsController</text>
<polyline fill="none" stroke="black" points="-57,-440.5 59,-440.5 "/>
<text text-anchor="start" x="-49" y="-425.3" font-family="Times,serif" font-size="14.00">activate</text>
<text text-anchor="start" x="-49" y="-410.3" font-family="Times,serif" font-size="14.00">add_group</text>
<text text-anchor="start" x="-49" y="-395.3" font-family="Times,serif" font-size="14.00">create</text>
<text text-anchor="start" x="-49" y="-380.3" font-family="Times,serif" font-size="14.00">destroy</text>
<text text-anchor="start" x="-49" y="-365.3" font-family="Times,serif" font-size="14.00">edit</text>
<text text-anchor="start" x="-49" y="-350.3" font-family="Times,serif" font-size="14.00">index</text>
<text text-anchor="start" x="-49" y="-335.3" font-family="Times,serif" font-size="14.00">new</text>
<text text-anchor="start" x="-49" y="-320.3" font-family="Times,serif" font-size="14.00">remove_group</text>
<text text-anchor="start" x="-49" y="-305.3" font-family="Times,serif" font-size="14.00">show</text>
<text text-anchor="start" x="-49" y="-290.3" font-family="Times,serif" font-size="14.00">update</text>
<polyline fill="none" stroke="black" points="-57,-282.5 59,-282.5 "/>
<polyline fill="none" stroke="black" points="-57,-258.5 59,-258.5 "/>
<text text-anchor="start" x="-49" y="-243.3" font-family="Times,serif" font-size="14.00">_layout</text>
<text text-anchor="start" x="-49" y="-228.3" font-family="Times,serif" font-size="14.00">check_admin</text>
<text text-anchor="start" x="-49" y="-213.3" font-family="Times,serif" font-size="14.00">project_params</text>
<text text-anchor="start" x="-49" y="-198.3" font-family="Times,serif" font-size="14.00">set_project</text>
</g>
<!-- BingoGamesController -->
<g id="node3" class="node"><title>BingoGamesController</title>
<path fill="none" stroke="black" d="M-215.5,-228.5C-215.5,-228.5 -96.5,-228.5 -96.5,-228.5 -90.5,-228.5 -84.5,-234.5 -84.5,-240.5 -84.5,-240.5 -84.5,-459.5 -84.5,-459.5 -84.5,-465.5 -90.5,-471.5 -96.5,-471.5 -96.5,-471.5 -215.5,-471.5 -215.5,-471.5 -221.5,-471.5 -227.5,-465.5 -227.5,-459.5 -227.5,-459.5 -227.5,-240.5 -227.5,-240.5 -227.5,-234.5 -221.5,-228.5 -215.5,-228.5"/>
<text text-anchor="middle" x="-156" y="-456.3" font-family="Times,serif" font-size="14.00">BingoGamesController</text>
<polyline fill="none" stroke="black" points="-227.5,-448.5 -84.5,-448.5 "/>
<text text-anchor="start" x="-219.5" y="-433.3" font-family="Times,serif" font-size="14.00">activate</text>
<text text-anchor="start" x="-219.5" y="-418.3" font-family="Times,serif" font-size="14.00">create</text>
<text text-anchor="start" x="-219.5" y="-403.3" font-family="Times,serif" font-size="14.00">destroy</text>
<text text-anchor="start" x="-219.5" y="-388.3" font-family="Times,serif" font-size="14.00">edit</text>
<text text-anchor="start" x="-219.5" y="-373.3" font-family="Times,serif" font-size="14.00">index</text>
<text text-anchor="start" x="-219.5" y="-358.3" font-family="Times,serif" font-size="14.00">new</text>
<text text-anchor="start" x="-219.5" y="-343.3" font-family="Times,serif" font-size="14.00">show</text>
<text text-anchor="start" x="-219.5" y="-328.3" font-family="Times,serif" font-size="14.00">update</text>
<polyline fill="none" stroke="black" points="-227.5,-320.5 -84.5,-320.5 "/>
<polyline fill="none" stroke="black" points="-227.5,-296.5 -84.5,-296.5 "/>
<text text-anchor="start" x="-219.5" y="-281.3" font-family="Times,serif" font-size="14.00">_layout</text>
<text text-anchor="start" x="-219.5" y="-266.3" font-family="Times,serif" font-size="14.00">bingo_game_params</text>
<text text-anchor="start" x="-219.5" y="-251.3" font-family="Times,serif" font-size="14.00">check_admin</text>
<text text-anchor="start" x="-219.5" y="-236.3" font-family="Times,serif" font-size="14.00">set_game</text>
</g>
<!-- CoursesController -->
<g id="node4" class="node"><title>CoursesController</title>
<path fill="none" stroke="black" d="M107,94.5C107,94.5 199,94.5 199,94.5 205,94.5 211,88.5 211,82.5 211,82.5 211,-226.5 211,-226.5 211,-232.5 205,-238.5 199,-238.5 199,-238.5 107,-238.5 107,-238.5 101,-238.5 95,-232.5 95,-226.5 95,-226.5 95,82.5 95,82.5 95,88.5 101,94.5 107,94.5"/>
<text text-anchor="middle" x="153" y="-223.3" font-family="Times,serif" font-size="14.00">CoursesController</text>
<polyline fill="none" stroke="black" points="95,-215.5 211,-215.5 "/>
<text text-anchor="start" x="103" y="-200.3" font-family="Times,serif" font-size="14.00">accept_roster</text>
<text text-anchor="start" x="103" y="-185.3" font-family="Times,serif" font-size="14.00">add_instructors</text>
<text text-anchor="start" x="103" y="-170.3" font-family="Times,serif" font-size="14.00">add_students</text>
<text text-anchor="start" x="103" y="-155.3" font-family="Times,serif" font-size="14.00">create</text>
<text text-anchor="start" x="103" y="-140.3" font-family="Times,serif" font-size="14.00">decline_roster</text>
<text text-anchor="start" x="103" y="-125.3" font-family="Times,serif" font-size="14.00">destroy</text>
<text text-anchor="start" x="103" y="-110.3" font-family="Times,serif" font-size="14.00">drop_student</text>
<text text-anchor="start" x="103" y="-95.3" font-family="Times,serif" font-size="14.00">edit</text>
<text text-anchor="start" x="103" y="-80.3" font-family="Times,serif" font-size="14.00">index</text>
<text text-anchor="start" x="103" y="-65.3" font-family="Times,serif" font-size="14.00">new</text>
<text text-anchor="start" x="103" y="-50.3" font-family="Times,serif" font-size="14.00">re_invite_student</text>
<text text-anchor="start" x="103" y="-35.3" font-family="Times,serif" font-size="14.00">remove_instructor</text>
<text text-anchor="start" x="103" y="-20.3" font-family="Times,serif" font-size="14.00">show</text>
<text text-anchor="start" x="103" y="-5.3" font-family="Times,serif" font-size="14.00">update</text>
<polyline fill="none" stroke="black" points="95,2.5 211,2.5 "/>
<polyline fill="none" stroke="black" points="95,26.5 211,26.5 "/>
<text text-anchor="start" x="103" y="41.7" font-family="Times,serif" font-size="14.00">_layout</text>
<text text-anchor="start" x="103" y="56.7" font-family="Times,serif" font-size="14.00">check_admin</text>
<text text-anchor="start" x="103" y="71.7" font-family="Times,serif" font-size="14.00">course_params</text>
<text text-anchor="start" x="103" y="86.7" font-family="Times,serif" font-size="14.00">set_course</text>
</g>
<!-- ApplicationController -->
<g id="node5" class="node"><title>ApplicationController</title>
<path fill="none" stroke="black" d="M259,-115C259,-115 429,-115 429,-115 435,-115 441,-121 441,-127 441,-127 441,-211 441,-211 441,-217 435,-223 429,-223 429,-223 259,-223 259,-223 253,-223 247,-217 247,-211 247,-211 247,-127 247,-127 247,-121 253,-115 259,-115"/>
<text text-anchor="middle" x="344" y="-207.8" font-family="Times,serif" font-size="14.00">ApplicationController</text>
<polyline fill="none" stroke="black" points="247,-200 441,-200 "/>
<polyline fill="none" stroke="black" points="247,-176 441,-176 "/>
<text text-anchor="start" x="255" y="-160.8" font-family="Times,serif" font-size="14.00">configure_permitted_parameters</text>
<text text-anchor="start" x="255" y="-145.8" font-family="Times,serif" font-size="14.00">set_time_zone</text>
<polyline fill="none" stroke="black" points="247,-138 441,-138 "/>
<text text-anchor="start" x="255" y="-122.8" font-family="Times,serif" font-size="14.00">_layout</text>
</g>
<!-- RegistrationsController -->
<g id="node6" class="node"><title>RegistrationsController</title>
<path fill="none" stroke="black" d="M107.5,-285.5C107.5,-285.5 226.5,-285.5 226.5,-285.5 232.5,-285.5 238.5,-291.5 238.5,-297.5 238.5,-297.5 238.5,-366.5 238.5,-366.5 238.5,-372.5 232.5,-378.5 226.5,-378.5 226.5,-378.5 107.5,-378.5 107.5,-378.5 101.5,-378.5 95.5,-372.5 95.5,-366.5 95.5,-366.5 95.5,-297.5 95.5,-297.5 95.5,-291.5 101.5,-285.5 107.5,-285.5"/>
<text text-anchor="middle" x="167" y="-363.3" font-family="Times,serif" font-size="14.00">RegistrationsController</text>
<polyline fill="none" stroke="black" points="95.5,-355.5 238.5,-355.5 "/>
<polyline fill="none" stroke="black" points="95.5,-331.5 238.5,-331.5 "/>
<text text-anchor="start" x="103.5" y="-316.3" font-family="Times,serif" font-size="14.00">update_resource</text>
<polyline fill="none" stroke="black" points="95.5,-308.5 238.5,-308.5 "/>
<text text-anchor="start" x="103.5" y="-293.3" font-family="Times,serif" font-size="14.00">_layout</text>
</g>
<!-- ExperiencesController -->
<g id="node7" class="node"><title>ExperiencesController</title>
<path fill="none" stroke="black" d="M-64,170C-64,170 50,170 50,170 56,170 62,164 62,158 62,158 62,-136 62,-136 62,-142 56,-148 50,-148 50,-148 -64,-148 -64,-148 -70,-148 -76,-142 -76,-136 -76,-136 -76,158 -76,158 -76,164 -70,170 -64,170"/>
<text text-anchor="middle" x="-7" y="-132.8" font-family="Times,serif" font-size="14.00">ExperiencesController</text>
<polyline fill="none" stroke="black" points="-76,-125 62,-125 "/>
<text text-anchor="start" x="-68" y="-109.8" font-family="Times,serif" font-size="14.00">activate</text>
<text text-anchor="start" x="-68" y="-94.8" font-family="Times,serif" font-size="14.00">create</text>
<text text-anchor="start" x="-68" y="-79.8" font-family="Times,serif" font-size="14.00">destroy</text>
<text text-anchor="start" x="-68" y="-64.8" font-family="Times,serif" font-size="14.00">diagnose</text>
<text text-anchor="start" x="-68" y="-49.8" font-family="Times,serif" font-size="14.00">edit</text>
<text text-anchor="start" x="-68" y="-34.8" font-family="Times,serif" font-size="14.00">index</text>
<text text-anchor="start" x="-68" y="-19.8" font-family="Times,serif" font-size="14.00">new</text>
<text text-anchor="start" x="-68" y="-4.8" font-family="Times,serif" font-size="14.00">next</text>
<text text-anchor="start" x="-68" y="10.2" font-family="Times,serif" font-size="14.00">react</text>
<text text-anchor="start" x="-68" y="25.2" font-family="Times,serif" font-size="14.00">show</text>
<text text-anchor="start" x="-68" y="40.2" font-family="Times,serif" font-size="14.00">update</text>
<polyline fill="none" stroke="black" points="-76,48 62,48 "/>
<polyline fill="none" stroke="black" points="-76,72 62,72 "/>
<text text-anchor="start" x="-68" y="87.2" font-family="Times,serif" font-size="14.00">_layout</text>
<text text-anchor="start" x="-68" y="102.2" font-family="Times,serif" font-size="14.00">check_admin</text>
<text text-anchor="start" x="-68" y="117.2" font-family="Times,serif" font-size="14.00">diagnosis_params</text>
<text text-anchor="start" x="-68" y="132.2" font-family="Times,serif" font-size="14.00">experience_params</text>
<text text-anchor="start" x="-68" y="147.2" font-family="Times,serif" font-size="14.00">reaction_params</text>
<text text-anchor="start" x="-68" y="162.2" font-family="Times,serif" font-size="14.00">set_experience</text>
</g>
<!-- Users::OmniauthCallbacksController -->
<g id="node8" class="node"><title>Users::OmniauthCallbacksController</title>
<path fill="none" stroke="black" d="M259,37C259,37 453,37 453,37 459,37 465,31 465,25 465,25 465,-59 465,-59 465,-65 459,-71 453,-71 453,-71 259,-71 259,-71 253,-71 247,-65 247,-59 247,-59 247,25 247,25 247,31 253,37 259,37"/>
<text text-anchor="middle" x="356" y="-55.8" font-family="Times,serif" font-size="14.00">Users::OmniauthCallbacksController</text>
<polyline fill="none" stroke="black" points="247,-48 465,-48 "/>
<text text-anchor="start" x="255" y="-32.8" font-family="Times,serif" font-size="14.00">failure</text>
<text text-anchor="start" x="255" y="-17.8" font-family="Times,serif" font-size="14.00">google_oauth2</text>
<polyline fill="none" stroke="black" points="247,-10 465,-10 "/>
<polyline fill="none" stroke="black" points="247,14 465,14 "/>
<text text-anchor="start" x="255" y="29.2" font-family="Times,serif" font-size="14.00">_layout</text>
</g>
<!-- HomeController -->
<g id="node9" class="node"><title>HomeController</title>
<path fill="none" stroke="black" d="M107,227.5C107,227.5 189,227.5 189,227.5 195,227.5 201,221.5 201,215.5 201,215.5 201,146.5 201,146.5 201,140.5 195,134.5 189,134.5 189,134.5 107,134.5 107,134.5 101,134.5 95,140.5 95,146.5 95,146.5 95,215.5 95,215.5 95,221.5 101,227.5 107,227.5"/>
<text text-anchor="middle" x="148" y="149.7" font-family="Times,serif" font-size="14.00">HomeController</text>
<polyline fill="none" stroke="black" points="95,157.5 201,157.5 "/>
<text text-anchor="start" x="103" y="172.7" font-family="Times,serif" font-size="14.00">index</text>
<polyline fill="none" stroke="black" points="95,180.5 201,180.5 "/>
<polyline fill="none" stroke="black" points="95,204.5 201,204.5 "/>
<text text-anchor="start" x="103" y="219.7" font-family="Times,serif" font-size="14.00">_layout</text>
</g>
<!-- InstallmentsController -->
<g id="node10" class="node"><title>InstallmentsController</title>
<path fill="none" stroke="black" d="M-234.5,-0.5C-234.5,-0.5 -119.5,-0.5 -119.5,-0.5 -113.5,-0.5 -107.5,-6.5 -107.5,-12.5 -107.5,-12.5 -107.5,-171.5 -107.5,-171.5 -107.5,-177.5 -113.5,-183.5 -119.5,-183.5 -119.5,-183.5 -234.5,-183.5 -234.5,-183.5 -240.5,-183.5 -246.5,-177.5 -246.5,-171.5 -246.5,-171.5 -246.5,-12.5 -246.5,-12.5 -246.5,-6.5 -240.5,-0.5 -234.5,-0.5"/>
<text text-anchor="middle" x="-177" y="-168.3" font-family="Times,serif" font-size="14.00">InstallmentsController</text>
<polyline fill="none" stroke="black" points="-246.5,-160.5 -107.5,-160.5 "/>
<text text-anchor="start" x="-238.5" y="-145.3" font-family="Times,serif" font-size="14.00">create</text>
<text text-anchor="start" x="-238.5" y="-130.3" font-family="Times,serif" font-size="14.00">demo_complete</text>
<text text-anchor="start" x="-238.5" y="-115.3" font-family="Times,serif" font-size="14.00">demo_start</text>
<text text-anchor="start" x="-238.5" y="-100.3" font-family="Times,serif" font-size="14.00">edit</text>
<text text-anchor="start" x="-238.5" y="-85.3" font-family="Times,serif" font-size="14.00">new</text>
<text text-anchor="start" x="-238.5" y="-70.3" font-family="Times,serif" font-size="14.00">update</text>
<polyline fill="none" stroke="black" points="-246.5,-62.5 -107.5,-62.5 "/>
<polyline fill="none" stroke="black" points="-246.5,-38.5 -107.5,-38.5 "/>
<text text-anchor="start" x="-238.5" y="-23.3" font-family="Times,serif" font-size="14.00">_layout</text>
<text text-anchor="start" x="-238.5" y="-8.3" font-family="Times,serif" font-size="14.00">i_params</text>
</g>
<!-- ConsentLogsController -->
<g id="node11" class="node"><title>ConsentLogsController</title>
<path fill="none" stroke="black" d="M-234.5,151.5C-234.5,151.5 -115.5,151.5 -115.5,151.5 -109.5,151.5 -103.5,145.5 -103.5,139.5 -103.5,139.5 -103.5,40.5 -103.5,40.5 -103.5,34.5 -109.5,28.5 -115.5,28.5 -115.5,28.5 -234.5,28.5 -234.5,28.5 -240.5,28.5 -246.5,34.5 -246.5,40.5 -246.5,40.5 -246.5,139.5 -246.5,139.5 -246.5,145.5 -240.5,151.5 -234.5,151.5"/>
<text text-anchor="middle" x="-175" y="43.7" font-family="Times,serif" font-size="14.00">ConsentLogsController</text>
<polyline fill="none" stroke="black" points="-246.5,51.5 -103.5,51.5 "/>
<text text-anchor="start" x="-238.5" y="66.7" font-family="Times,serif" font-size="14.00">edit</text>
<text text-anchor="start" x="-238.5" y="81.7" font-family="Times,serif" font-size="14.00">update</text>
<polyline fill="none" stroke="black" points="-246.5,89.5 -103.5,89.5 "/>
<polyline fill="none" stroke="black" points="-246.5,113.5 -103.5,113.5 "/>
<text text-anchor="start" x="-238.5" y="128.7" font-family="Times,serif" font-size="14.00">_layout</text>
<text text-anchor="start" x="-238.5" y="143.7" font-family="Times,serif" font-size="14.00">cl_params</text>
</g>
<!-- GraphingController -->
<g id="node12" class="node"><title>GraphingController</title>
<path fill="none" stroke="black" d="M259.5,247C259.5,247 410.5,247 410.5,247 416.5,247 422.5,241 422.5,235 422.5,235 422.5,91 422.5,91 422.5,85 416.5,79 410.5,79 410.5,79 259.5,79 259.5,79 253.5,79 247.5,85 247.5,91 247.5,91 247.5,235 247.5,235 247.5,241 253.5,247 259.5,247"/>
<text text-anchor="middle" x="335" y="94.2" font-family="Times,serif" font-size="14.00">GraphingController</text>
<polyline fill="none" stroke="black" points="247.5,102 422.5,102 "/>
<text text-anchor="start" x="255.5" y="117.2" font-family="Times,serif" font-size="14.00">data</text>
<text text-anchor="start" x="255.5" y="132.2" font-family="Times,serif" font-size="14.00">index</text>
<text text-anchor="start" x="255.5" y="147.2" font-family="Times,serif" font-size="14.00">individual_summary_data</text>
<text text-anchor="start" x="255.5" y="162.2" font-family="Times,serif" font-size="14.00">pull_and_organise_user_data</text>
<text text-anchor="start" x="255.5" y="177.2" font-family="Times,serif" font-size="14.00">raw_data</text>
<text text-anchor="start" x="255.5" y="192.2" font-family="Times,serif" font-size="14.00">subjects</text>
<polyline fill="none" stroke="black" points="247.5,200 422.5,200 "/>
<polyline fill="none" stroke="black" points="247.5,224 422.5,224 "/>
<text text-anchor="start" x="255.5" y="239.2" font-family="Times,serif" font-size="14.00">_layout</text>
</g>
</g>
</svg>
