<?xml version="1.0" encoding="UTF-8" standalone="no"?>
<!DOCTYPE svg PUBLIC "-//W3C//DTD SVG 1.1//EN"
 "http://www.w3.org/Graphics/SVG/1.1/DTD/svg11.dtd">
<!-- Generated by graphviz version 2.36.0 (20140111.2315)
 -->
<!-- Title: controllers_diagram Pages: 1 -->
<svg width="885pt" height="717pt"
 viewBox="0.00 0.00 885.00 717.00" xmlns="http://www.w3.org/2000/svg" xmlns:xlink="http://www.w3.org/1999/xlink">
<g id="graph0" class="graph" transform="scale(1 1) rotate(0) translate(4 713)">
<title>controllers_diagram</title>
<polygon fill="none" stroke="none" points="-4,4 -4,-713 881,-713 881,4 -4,4"/>
<!-- _diagram_info -->
<g id="node1" class="node"><title>_diagram_info</title>
<text text-anchor="start" x="628" y="-223.6" font-family="Times,serif" font-size="13.00">Controllers diagram</text>
<text text-anchor="start" x="628" y="-209.6" font-family="Times,serif" font-size="13.00">Date: Feb 19 2017 &#45; 16:49</text>
<text text-anchor="start" x="628" y="-195.6" font-family="Times,serif" font-size="13.00">Migration version: 20170219004833</text>
<text text-anchor="start" x="628" y="-181.6" font-family="Times,serif" font-size="13.00">Generated by RailRoady 1.5.2</text>
<text text-anchor="start" x="628" y="-167.6" font-family="Times,serif" font-size="13.00">http://railroady.prestonlee.com</text>
</g>
<!-- ApplicationController -->
<g id="node2" class="node"><title>ApplicationController</title>
<path fill="none" stroke="black" d="M52,-0.5C52,-0.5 281,-0.5 281,-0.5 287,-0.5 293,-6.5 293,-12.5 293,-12.5 293,-96.5 293,-96.5 293,-102.5 287,-108.5 281,-108.5 281,-108.5 52,-108.5 52,-108.5 46,-108.5 40,-102.5 40,-96.5 40,-96.5 40,-12.5 40,-12.5 40,-6.5 46,-0.5 52,-0.5"/>
<text text-anchor="middle" x="166.5" y="-93.3" font-family="Times,serif" font-size="14.00">ApplicationController</text>
<polyline fill="none" stroke="black" points="40,-85.5 293,-85.5 "/>
<polyline fill="none" stroke="black" points="40,-61.5 293,-61.5 "/>
<text text-anchor="start" x="48" y="-46.3" font-family="Times,serif" font-size="14.00">configure_permitted_parameters</text>
<text text-anchor="start" x="48" y="-31.3" font-family="Times,serif" font-size="14.00">set_time_zone</text>
<polyline fill="none" stroke="black" points="40,-23.5 293,-23.5 "/>
<text text-anchor="start" x="48" y="-8.3" font-family="Times,serif" font-size="14.00">_layout</text>
</g>
<!-- ConsentLogsController -->
<g id="node3" class="node"><title>ConsentLogsController</title>
<path fill="none" stroke="black" d="M12,-300.5C12,-300.5 172,-300.5 172,-300.5 178,-300.5 184,-306.5 184,-312.5 184,-312.5 184,-411.5 184,-411.5 184,-417.5 178,-423.5 172,-423.5 172,-423.5 12,-423.5 12,-423.5 6,-423.5 5.68434e-14,-417.5 5.68434e-14,-411.5 5.68434e-14,-411.5 5.68434e-14,-312.5 5.68434e-14,-312.5 5.68434e-14,-306.5 6,-300.5 12,-300.5"/>
<text text-anchor="middle" x="92" y="-408.3" font-family="Times,serif" font-size="14.00">ConsentLogsController</text>
<polyline fill="none" stroke="black" points="5.68434e-14,-400.5 184,-400.5 "/>
<text text-anchor="start" x="8" y="-385.3" font-family="Times,serif" font-size="14.00">edit</text>
<text text-anchor="start" x="8" y="-370.3" font-family="Times,serif" font-size="14.00">update</text>
<polyline fill="none" stroke="black" points="5.68434e-14,-362.5 184,-362.5 "/>
<polyline fill="none" stroke="black" points="5.68434e-14,-338.5 184,-338.5 "/>
<text text-anchor="start" x="8" y="-323.3" font-family="Times,serif" font-size="14.00">_layout</text>
<text text-anchor="start" x="8" y="-308.3" font-family="Times,serif" font-size="14.00">cl_params</text>
</g>
<!-- CoursesController -->
<g id="node4" class="node"><title>CoursesController</title>
<path fill="none" stroke="black" d="M452,-160.5C452,-160.5 577,-160.5 577,-160.5 583,-160.5 589,-166.5 589,-172.5 589,-172.5 589,-421.5 589,-421.5 589,-427.5 583,-433.5 577,-433.5 577,-433.5 452,-433.5 452,-433.5 446,-433.5 440,-427.5 440,-421.5 440,-421.5 440,-172.5 440,-172.5 440,-166.5 446,-160.5 452,-160.5"/>
<text text-anchor="middle" x="514.5" y="-418.3" font-family="Times,serif" font-size="14.00">CoursesController</text>
<polyline fill="none" stroke="black" points="440,-410.5 589,-410.5 "/>
<text text-anchor="start" x="448" y="-395.3" font-family="Times,serif" font-size="14.00">accept_roster</text>
<text text-anchor="start" x="448" y="-380.3" font-family="Times,serif" font-size="14.00">add_instructors</text>
<text text-anchor="start" x="448" y="-365.3" font-family="Times,serif" font-size="14.00">add_students</text>
<text text-anchor="start" x="448" y="-350.3" font-family="Times,serif" font-size="14.00">create</text>
<text text-anchor="start" x="448" y="-335.3" font-family="Times,serif" font-size="14.00">decline_roster</text>
<text text-anchor="start" x="448" y="-320.3" font-family="Times,serif" font-size="14.00">destroy</text>
<text text-anchor="start" x="448" y="-305.3" font-family="Times,serif" font-size="14.00">edit</text>
<text text-anchor="start" x="448" y="-290.3" font-family="Times,serif" font-size="14.00">index</text>
<text text-anchor="start" x="448" y="-275.3" font-family="Times,serif" font-size="14.00">new</text>
<text text-anchor="start" x="448" y="-260.3" font-family="Times,serif" font-size="14.00">show</text>
<text text-anchor="start" x="448" y="-245.3" font-family="Times,serif" font-size="14.00">update</text>
<polyline fill="none" stroke="black" points="440,-237.5 589,-237.5 "/>
<polyline fill="none" stroke="black" points="440,-213.5 589,-213.5 "/>
<text text-anchor="start" x="448" y="-198.3" font-family="Times,serif" font-size="14.00">_layout</text>
<text text-anchor="start" x="448" y="-183.3" font-family="Times,serif" font-size="14.00">course_params</text>
<text text-anchor="start" x="448" y="-168.3" font-family="Times,serif" font-size="14.00">set_course</text>
</g>
<!-- ExperiencesController -->
<g id="node5" class="node"><title>ExperiencesController</title>
<path fill="none" stroke="black" d="M232,-140.5C232,-140.5 387,-140.5 387,-140.5 393,-140.5 399,-146.5 399,-152.5 399,-152.5 399,-401.5 399,-401.5 399,-407.5 393,-413.5 387,-413.5 387,-413.5 232,-413.5 232,-413.5 226,-413.5 220,-407.5 220,-401.5 220,-401.5 220,-152.5 220,-152.5 220,-146.5 226,-140.5 232,-140.5"/>
<text text-anchor="middle" x="309.5" y="-398.3" font-family="Times,serif" font-size="14.00">ExperiencesController</text>
<polyline fill="none" stroke="black" points="220,-390.5 399,-390.5 "/>
<text text-anchor="start" x="228" y="-375.3" font-family="Times,serif" font-size="14.00">create</text>
<text text-anchor="start" x="228" y="-360.3" font-family="Times,serif" font-size="14.00">destroy</text>
<text text-anchor="start" x="228" y="-345.3" font-family="Times,serif" font-size="14.00">diagnose</text>
<text text-anchor="start" x="228" y="-330.3" font-family="Times,serif" font-size="14.00">edit</text>
<text text-anchor="start" x="228" y="-315.3" font-family="Times,serif" font-size="14.00">index</text>
<text text-anchor="start" x="228" y="-300.3" font-family="Times,serif" font-size="14.00">new</text>
<text text-anchor="start" x="228" y="-285.3" font-family="Times,serif" font-size="14.00">next</text>
<text text-anchor="start" x="228" y="-270.3" font-family="Times,serif" font-size="14.00">react</text>
<text text-anchor="start" x="228" y="-255.3" font-family="Times,serif" font-size="14.00">show</text>
<text text-anchor="start" x="228" y="-240.3" font-family="Times,serif" font-size="14.00">update</text>
<polyline fill="none" stroke="black" points="220,-232.5 399,-232.5 "/>
<polyline fill="none" stroke="black" points="220,-208.5 399,-208.5 "/>
<text text-anchor="start" x="228" y="-193.3" font-family="Times,serif" font-size="14.00">_layout</text>
<text text-anchor="start" x="228" y="-178.3" font-family="Times,serif" font-size="14.00">diagnosis_params</text>
<text text-anchor="start" x="228" y="-163.3" font-family="Times,serif" font-size="14.00">experience_params</text>
<text text-anchor="start" x="228" y="-148.3" font-family="Times,serif" font-size="14.00">set_experience</text>
</g>
<!-- GraphingController -->
<g id="node6" class="node"><title>GraphingController</title>
<path fill="none" stroke="black" d="M192,-460.5C192,-460.5 392,-460.5 392,-460.5 398,-460.5 404,-466.5 404,-472.5 404,-472.5 404,-616.5 404,-616.5 404,-622.5 398,-628.5 392,-628.5 392,-628.5 192,-628.5 192,-628.5 186,-628.5 180,-622.5 180,-616.5 180,-616.5 180,-472.5 180,-472.5 180,-466.5 186,-460.5 192,-460.5"/>
<text text-anchor="middle" x="292" y="-613.3" font-family="Times,serif" font-size="14.00">GraphingController</text>
<polyline fill="none" stroke="black" points="180,-605.5 404,-605.5 "/>
<text text-anchor="start" x="188" y="-590.3" font-family="Times,serif" font-size="14.00">data</text>
<text text-anchor="start" x="188" y="-575.3" font-family="Times,serif" font-size="14.00">index</text>
<text text-anchor="start" x="188" y="-560.3" font-family="Times,serif" font-size="14.00">individual_summary_data</text>
<text text-anchor="start" x="188" y="-545.3" font-family="Times,serif" font-size="14.00">pull_and_organise_user_data</text>
<text text-anchor="start" x="188" y="-530.3" font-family="Times,serif" font-size="14.00">raw_data</text>
<text text-anchor="start" x="188" y="-515.3" font-family="Times,serif" font-size="14.00">subjects</text>
<polyline fill="none" stroke="black" points="180,-507.5 404,-507.5 "/>
<polyline fill="none" stroke="black" points="180,-483.5 404,-483.5 "/>
<text text-anchor="start" x="188" y="-468.3" font-family="Times,serif" font-size="14.00">_layout</text>
</g>
<!-- HomeController -->
<g id="node7" class="node"><title>HomeController</title>
<path fill="none" stroke="black" d="M12,-600.5C12,-600.5 121,-600.5 121,-600.5 127,-600.5 133,-606.5 133,-612.5 133,-612.5 133,-681.5 133,-681.5 133,-687.5 127,-693.5 121,-693.5 121,-693.5 12,-693.5 12,-693.5 6,-693.5 5.68434e-14,-687.5 5.68434e-14,-681.5 5.68434e-14,-681.5 5.68434e-14,-612.5 5.68434e-14,-612.5 5.68434e-14,-606.5 6,-600.5 12,-600.5"/>
<text text-anchor="middle" x="66.5" y="-678.3" font-family="Times,serif" font-size="14.00">HomeController</text>
<polyline fill="none" stroke="black" points="5.68434e-14,-670.5 133,-670.5 "/>
<text text-anchor="start" x="8" y="-655.3" font-family="Times,serif" font-size="14.00">index</text>
<polyline fill="none" stroke="black" points="5.68434e-14,-647.5 133,-647.5 "/>
<polyline fill="none" stroke="black" points="5.68434e-14,-623.5 133,-623.5 "/>
<text text-anchor="start" x="8" y="-608.3" font-family="Times,serif" font-size="14.00">_layout</text>
</g>
<!-- InstallmentsController -->
<g id="node8" class="node"><title>InstallmentsController</title>
<path fill="none" stroke="black" d="M632,-280.5C632,-280.5 788,-280.5 788,-280.5 794,-280.5 800,-286.5 800,-292.5 800,-292.5 800,-421.5 800,-421.5 800,-427.5 794,-433.5 788,-433.5 788,-433.5 632,-433.5 632,-433.5 626,-433.5 620,-427.5 620,-421.5 620,-421.5 620,-292.5 620,-292.5 620,-286.5 626,-280.5 632,-280.5"/>
<text text-anchor="middle" x="710" y="-418.3" font-family="Times,serif" font-size="14.00">InstallmentsController</text>
<polyline fill="none" stroke="black" points="620,-410.5 800,-410.5 "/>
<text text-anchor="start" x="628" y="-395.3" font-family="Times,serif" font-size="14.00">create</text>
<text text-anchor="start" x="628" y="-380.3" font-family="Times,serif" font-size="14.00">edit</text>
<text text-anchor="start" x="628" y="-365.3" font-family="Times,serif" font-size="14.00">new</text>
<text text-anchor="start" x="628" y="-350.3" font-family="Times,serif" font-size="14.00">update</text>
<polyline fill="none" stroke="black" points="620,-342.5 800,-342.5 "/>
<polyline fill="none" stroke="black" points="620,-318.5 800,-318.5 "/>
<text text-anchor="start" x="628" y="-303.3" font-family="Times,serif" font-size="14.00">_layout</text>
<text text-anchor="start" x="628" y="-288.3" font-family="Times,serif" font-size="14.00">i_params</text>
</g>
<!-- ProjectsController -->
<g id="node9" class="node"><title>ProjectsController</title>
<path fill="none" stroke="black" d="M532,-480.5C532,-480.5 657,-480.5 657,-480.5 663,-480.5 669,-486.5 669,-492.5 669,-492.5 669,-696.5 669,-696.5 669,-702.5 663,-708.5 657,-708.5 657,-708.5 532,-708.5 532,-708.5 526,-708.5 520,-702.5 520,-696.5 520,-696.5 520,-492.5 520,-492.5 520,-486.5 526,-480.5 532,-480.5"/>
<text text-anchor="middle" x="594.5" y="-693.3" font-family="Times,serif" font-size="14.00">ProjectsController</text>
<polyline fill="none" stroke="black" points="520,-685.5 669,-685.5 "/>
<text text-anchor="start" x="528" y="-670.3" font-family="Times,serif" font-size="14.00">add_group</text>
<text text-anchor="start" x="528" y="-655.3" font-family="Times,serif" font-size="14.00">create</text>
<text text-anchor="start" x="528" y="-640.3" font-family="Times,serif" font-size="14.00">destroy</text>
<text text-anchor="start" x="528" y="-625.3" font-family="Times,serif" font-size="14.00">edit</text>
<text text-anchor="start" x="528" y="-610.3" font-family="Times,serif" font-size="14.00">index</text>
<text text-anchor="start" x="528" y="-595.3" font-family="Times,serif" font-size="14.00">new</text>
<text text-anchor="start" x="528" y="-580.3" font-family="Times,serif" font-size="14.00">show</text>
<text text-anchor="start" x="528" y="-565.3" font-family="Times,serif" font-size="14.00">update</text>
<polyline fill="none" stroke="black" points="520,-557.5 669,-557.5 "/>
<polyline fill="none" stroke="black" points="520,-533.5 669,-533.5 "/>
<text text-anchor="start" x="528" y="-518.3" font-family="Times,serif" font-size="14.00">_layout</text>
<text text-anchor="start" x="528" y="-503.3" font-family="Times,serif" font-size="14.00">project_params</text>
<text text-anchor="start" x="528" y="-488.3" font-family="Times,serif" font-size="14.00">set_project</text>
</g>
<!-- RegistrationsController -->
<g id="node10" class="node"><title>RegistrationsController</title>
<path fill="none" stroke="black" d="M12,-160.5C12,-160.5 174,-160.5 174,-160.5 180,-160.5 186,-166.5 186,-172.5 186,-172.5 186,-241.5 186,-241.5 186,-247.5 180,-253.5 174,-253.5 174,-253.5 12,-253.5 12,-253.5 6,-253.5 2.84217e-14,-247.5 2.84217e-14,-241.5 2.84217e-14,-241.5 2.84217e-14,-172.5 2.84217e-14,-172.5 2.84217e-14,-166.5 6,-160.5 12,-160.5"/>
<text text-anchor="middle" x="93" y="-238.3" font-family="Times,serif" font-size="14.00">RegistrationsController</text>
<polyline fill="none" stroke="black" points="2.84217e-14,-230.5 186,-230.5 "/>
<polyline fill="none" stroke="black" points="2.84217e-14,-206.5 186,-206.5 "/>
<text text-anchor="start" x="8" y="-191.3" font-family="Times,serif" font-size="14.00">update_resource</text>
<polyline fill="none" stroke="black" points="2.84217e-14,-183.5 186,-183.5 "/>
<text text-anchor="start" x="8" y="-168.3" font-family="Times,serif" font-size="14.00">_layout</text>
</g>
<!-- Users::OmniauthCallbacksController -->
<g id="node11" class="node"><title>Users::OmniauthCallbacksController</title>
<path fill="none" stroke="black" d="M452,-20.5C452,-20.5 709,-20.5 709,-20.5 715,-20.5 721,-26.5 721,-32.5 721,-32.5 721,-116.5 721,-116.5 721,-122.5 715,-128.5 709,-128.5 709,-128.5 452,-128.5 452,-128.5 446,-128.5 440,-122.5 440,-116.5 440,-116.5 440,-32.5 440,-32.5 440,-26.5 446,-20.5 452,-20.5"/>
<text text-anchor="middle" x="580.5" y="-113.3" font-family="Times,serif" font-size="14.00">Users::OmniauthCallbacksController</text>
<polyline fill="none" stroke="black" points="440,-105.5 721,-105.5 "/>
<text text-anchor="start" x="448" y="-90.3" font-family="Times,serif" font-size="14.00">failure</text>
<text text-anchor="start" x="448" y="-75.3" font-family="Times,serif" font-size="14.00">google_oauth2</text>
<polyline fill="none" stroke="black" points="440,-67.5 721,-67.5 "/>
<polyline fill="none" stroke="black" points="440,-43.5 721,-43.5 "/>
<text text-anchor="start" x="448" y="-28.3" font-family="Times,serif" font-size="14.00">_layout</text>
</g>
</g>
</svg>
