<?xml version="1.0" encoding="UTF-8" standalone="no"?>
<!DOCTYPE svg PUBLIC "-//W3C//DTD SVG 1.1//EN"
 "http://www.w3.org/Graphics/SVG/1.1/DTD/svg11.dtd">
<!-- Generated by graphviz version 2.38.0 (20140413.2041)
 -->
<!-- Title: controllers_diagram Pages: 1 -->
<svg width="986pt" height="988pt"
 viewBox="0.00 0.00 985.50 987.50" xmlns="http://www.w3.org/2000/svg" xmlns:xlink="http://www.w3.org/1999/xlink">
<g id="graph0" class="graph" transform="scale(1 1) rotate(0) translate(404 583.5)">
<title>controllers_diagram</title>
<polygon fill="none" stroke="none" points="-404,404 -404,-583.5 581.5,-583.5 581.5,404 -404,404"/>
<!-- _diagram_info -->
<g id="node1" class="node"><title>_diagram_info</title>
<text text-anchor="start" x="268" y="336.4" font-family="Times,serif" font-size="13.00">Controllers diagram</text>
<text text-anchor="start" x="268" y="350.4" font-family="Times,serif" font-size="13.00">Date: Oct 13 2017 &#45; 17:53</text>
<text text-anchor="start" x="268" y="364.4" font-family="Times,serif" font-size="13.00">Migration version: 20171013084751</text>
<text text-anchor="start" x="268" y="378.4" font-family="Times,serif" font-size="13.00">Generated by RailRoady 1.5.2</text>
<text text-anchor="start" x="268" y="392.4" font-family="Times,serif" font-size="13.00">http://railroady.prestonlee.com</text>
</g>
<!-- ProjectsController -->
<g id="node2" class="node"><title>ProjectsController</title>
<path fill="none" stroke="black" d="M-208,159C-208,159 -116,159 -116,159 -110,159 -104,153 -104,147 -104,147 -104,-147 -104,-147 -104,-153 -110,-159 -116,-159 -116,-159 -208,-159 -208,-159 -214,-159 -220,-153 -220,-147 -220,-147 -220,147 -220,147 -220,153 -214,159 -208,159"/>
<text text-anchor="middle" x="-162" y="-143.8" font-family="Times,serif" font-size="14.00">ProjectsController</text>
<polyline fill="none" stroke="black" points="-220,-136 -104,-136 "/>
<text text-anchor="start" x="-212" y="-120.8" font-family="Times,serif" font-size="14.00">activate</text>
<text text-anchor="start" x="-212" y="-105.8" font-family="Times,serif" font-size="14.00">add_group</text>
<text text-anchor="start" x="-212" y="-90.8" font-family="Times,serif" font-size="14.00">create</text>
<text text-anchor="start" x="-212" y="-75.8" font-family="Times,serif" font-size="14.00">destroy</text>
<text text-anchor="start" x="-212" y="-60.8" font-family="Times,serif" font-size="14.00">edit</text>
<text text-anchor="start" x="-212" y="-45.8" font-family="Times,serif" font-size="14.00">index</text>
<text text-anchor="start" x="-212" y="-30.8" font-family="Times,serif" font-size="14.00">new</text>
<text text-anchor="start" x="-212" y="-15.8" font-family="Times,serif" font-size="14.00">remove_group</text>
<text text-anchor="start" x="-212" y="-0.8" font-family="Times,serif" font-size="14.00">rescore_group</text>
<text text-anchor="start" x="-212" y="14.2" font-family="Times,serif" font-size="14.00">rescore_groups</text>
<text text-anchor="start" x="-212" y="29.2" font-family="Times,serif" font-size="14.00">show</text>
<text text-anchor="start" x="-212" y="44.2" font-family="Times,serif" font-size="14.00">update</text>
<polyline fill="none" stroke="black" points="-220,52 -104,52 "/>
<polyline fill="none" stroke="black" points="-220,76 -104,76 "/>
<text text-anchor="start" x="-212" y="91.2" font-family="Times,serif" font-size="14.00">_layout</text>
<text text-anchor="start" x="-212" y="106.2" font-family="Times,serif" font-size="14.00">check_editor</text>
<text text-anchor="start" x="-212" y="121.2" font-family="Times,serif" font-size="14.00">check_viewer</text>
<text text-anchor="start" x="-212" y="136.2" font-family="Times,serif" font-size="14.00">project_params</text>
<text text-anchor="start" x="-212" y="151.2" font-family="Times,serif" font-size="14.00">set_project</text>
</g>
<!-- BingoGamesController -->
<g id="node3" class="node"><title>BingoGamesController</title>
<path fill="none" stroke="black" d="M-88,-200.5C-88,-200.5 48,-200.5 48,-200.5 54,-200.5 60,-206.5 60,-212.5 60,-212.5 60,-491.5 60,-491.5 60,-497.5 54,-503.5 48,-503.5 48,-503.5 -88,-503.5 -88,-503.5 -94,-503.5 -100,-497.5 -100,-491.5 -100,-491.5 -100,-212.5 -100,-212.5 -100,-206.5 -94,-200.5 -88,-200.5"/>
<text text-anchor="middle" x="-20" y="-488.3" font-family="Times,serif" font-size="14.00">BingoGamesController</text>
<polyline fill="none" stroke="black" points="-100,-480.5 60,-480.5 "/>
<text text-anchor="start" x="-92" y="-465.3" font-family="Times,serif" font-size="14.00">activate</text>
<text text-anchor="start" x="-92" y="-450.3" font-family="Times,serif" font-size="14.00">create</text>
<text text-anchor="start" x="-92" y="-435.3" font-family="Times,serif" font-size="14.00">destroy</text>
<text text-anchor="start" x="-92" y="-420.3" font-family="Times,serif" font-size="14.00">edit</text>
<text text-anchor="start" x="-92" y="-405.3" font-family="Times,serif" font-size="14.00">get_games</text>
<text text-anchor="start" x="-92" y="-390.3" font-family="Times,serif" font-size="14.00">index</text>
<text text-anchor="start" x="-92" y="-375.3" font-family="Times,serif" font-size="14.00">new</text>
<text text-anchor="start" x="-92" y="-360.3" font-family="Times,serif" font-size="14.00">review_candidates</text>
<text text-anchor="start" x="-92" y="-345.3" font-family="Times,serif" font-size="14.00">show</text>
<text text-anchor="start" x="-92" y="-330.3" font-family="Times,serif" font-size="14.00">update</text>
<text text-anchor="start" x="-92" y="-315.3" font-family="Times,serif" font-size="14.00">update_review_candidates</text>
<polyline fill="none" stroke="black" points="-100,-307.5 60,-307.5 "/>
<polyline fill="none" stroke="black" points="-100,-283.5 60,-283.5 "/>
<text text-anchor="start" x="-92" y="-268.3" font-family="Times,serif" font-size="14.00">_layout</text>
<text text-anchor="start" x="-92" y="-253.3" font-family="Times,serif" font-size="14.00">bingo_game_params</text>
<text text-anchor="start" x="-92" y="-238.3" font-family="Times,serif" font-size="14.00">check_editor</text>
<text text-anchor="start" x="-92" y="-223.3" font-family="Times,serif" font-size="14.00">check_viewer</text>
<text text-anchor="start" x="-92" y="-208.3" font-family="Times,serif" font-size="14.00">set_bingo_game</text>
</g>
<!-- CandidateListsController -->
<g id="node4" class="node"><title>CandidateListsController</title>
<path fill="none" stroke="black" d="M292.5,279.5C292.5,279.5 441.5,279.5 441.5,279.5 447.5,279.5 453.5,273.5 453.5,267.5 453.5,267.5 453.5,64.5 453.5,64.5 453.5,58.5 447.5,52.5 441.5,52.5 441.5,52.5 292.5,52.5 292.5,52.5 286.5,52.5 280.5,58.5 280.5,64.5 280.5,64.5 280.5,267.5 280.5,267.5 280.5,273.5 286.5,279.5 292.5,279.5"/>
<text text-anchor="middle" x="367" y="67.7" font-family="Times,serif" font-size="14.00">CandidateListsController</text>
<polyline fill="none" stroke="black" points="280.5,75.5 453.5,75.5 "/>
<text text-anchor="start" x="288.5" y="90.7" font-family="Times,serif" font-size="14.00">create</text>
<text text-anchor="start" x="288.5" y="105.7" font-family="Times,serif" font-size="14.00">demo_complete</text>
<text text-anchor="start" x="288.5" y="120.7" font-family="Times,serif" font-size="14.00">edit</text>
<text text-anchor="start" x="288.5" y="135.7" font-family="Times,serif" font-size="14.00">list_stats</text>
<text text-anchor="start" x="288.5" y="150.7" font-family="Times,serif" font-size="14.00">request_collaboration</text>
<text text-anchor="start" x="288.5" y="165.7" font-family="Times,serif" font-size="14.00">show</text>
<text text-anchor="start" x="288.5" y="180.7" font-family="Times,serif" font-size="14.00">update</text>
<polyline fill="none" stroke="black" points="280.5,188.5 453.5,188.5 "/>
<text text-anchor="start" x="288.5" y="203.7" font-family="Times,serif" font-size="14.00">merge_to_group_list</text>
<polyline fill="none" stroke="black" points="280.5,211.5 453.5,211.5 "/>
<text text-anchor="start" x="288.5" y="226.7" font-family="Times,serif" font-size="14.00">_layout</text>
<text text-anchor="start" x="288.5" y="241.7" font-family="Times,serif" font-size="14.00">candidate_list_params</text>
<text text-anchor="start" x="288.5" y="256.7" font-family="Times,serif" font-size="14.00">merge_individuals_to_group</text>
<text text-anchor="start" x="288.5" y="271.7" font-family="Times,serif" font-size="14.00">set_candidate_list</text>
</g>
<!-- CoursesController -->
<g id="node5" class="node"><title>CoursesController</title>
<path fill="none" stroke="black" d="M-48,179C-48,179 44,179 44,179 50,179 56,173 56,167 56,167 56,-157 56,-157 56,-163 50,-169 44,-169 44,-169 -48,-169 -48,-169 -54,-169 -60,-163 -60,-157 -60,-157 -60,167 -60,167 -60,173 -54,179 -48,179"/>
<text text-anchor="middle" x="-2" y="-153.8" font-family="Times,serif" font-size="14.00">CoursesController</text>
<polyline fill="none" stroke="black" points="-60,-146 56,-146 "/>
<text text-anchor="start" x="-52" y="-130.8" font-family="Times,serif" font-size="14.00">accept_roster</text>
<text text-anchor="start" x="-52" y="-115.8" font-family="Times,serif" font-size="14.00">add_instructors</text>
<text text-anchor="start" x="-52" y="-100.8" font-family="Times,serif" font-size="14.00">add_students</text>
<text text-anchor="start" x="-52" y="-85.8" font-family="Times,serif" font-size="14.00">create</text>
<text text-anchor="start" x="-52" y="-70.8" font-family="Times,serif" font-size="14.00">decline_roster</text>
<text text-anchor="start" x="-52" y="-55.8" font-family="Times,serif" font-size="14.00">destroy</text>
<text text-anchor="start" x="-52" y="-40.8" font-family="Times,serif" font-size="14.00">drop_student</text>
<text text-anchor="start" x="-52" y="-25.8" font-family="Times,serif" font-size="14.00">edit</text>
<text text-anchor="start" x="-52" y="-10.8" font-family="Times,serif" font-size="14.00">index</text>
<text text-anchor="start" x="-52" y="4.2" font-family="Times,serif" font-size="14.00">new</text>
<text text-anchor="start" x="-52" y="19.2" font-family="Times,serif" font-size="14.00">re_invite_student</text>
<text text-anchor="start" x="-52" y="34.2" font-family="Times,serif" font-size="14.00">remove_instructor</text>
<text text-anchor="start" x="-52" y="49.2" font-family="Times,serif" font-size="14.00">show</text>
<text text-anchor="start" x="-52" y="64.2" font-family="Times,serif" font-size="14.00">update</text>
<polyline fill="none" stroke="black" points="-60,72 56,72 "/>
<polyline fill="none" stroke="black" points="-60,96 56,96 "/>
<text text-anchor="start" x="-52" y="111.2" font-family="Times,serif" font-size="14.00">_layout</text>
<text text-anchor="start" x="-52" y="126.2" font-family="Times,serif" font-size="14.00">check_editor</text>
<text text-anchor="start" x="-52" y="141.2" font-family="Times,serif" font-size="14.00">check_viewer</text>
<text text-anchor="start" x="-52" y="156.2" font-family="Times,serif" font-size="14.00">course_params</text>
<text text-anchor="start" x="-52" y="171.2" font-family="Times,serif" font-size="14.00">set_course</text>
</g>
<!-- ApplicationController -->
<g id="node6" class="node"><title>ApplicationController</title>
<path fill="none" stroke="black" d="M-288,299C-288,299 -118,299 -118,299 -112,299 -106,293 -106,287 -106,287 -106,203 -106,203 -106,197 -112,191 -118,191 -118,191 -288,191 -288,191 -294,191 -300,197 -300,203 -300,203 -300,287 -300,287 -300,293 -294,299 -288,299"/>
<text text-anchor="middle" x="-203" y="206.2" font-family="Times,serif" font-size="14.00">ApplicationController</text>
<polyline fill="none" stroke="black" points="-300,214 -106,214 "/>
<polyline fill="none" stroke="black" points="-300,238 -106,238 "/>
<text text-anchor="start" x="-292" y="253.2" font-family="Times,serif" font-size="14.00">configure_permitted_parameters</text>
<text text-anchor="start" x="-292" y="268.2" font-family="Times,serif" font-size="14.00">set_locale</text>
<polyline fill="none" stroke="black" points="-300,276 -106,276 "/>
<text text-anchor="start" x="-292" y="291.2" font-family="Times,serif" font-size="14.00">_layout</text>
</g>
<!-- RegistrationsController -->
<g id="node7" class="node"><title>RegistrationsController</title>
<path fill="none" stroke="black" d="M-388,-1C-388,-1 -268,-1 -268,-1 -262,-1 -256,-7 -256,-13 -256,-13 -256,-141 -256,-141 -256,-147 -262,-153 -268,-153 -268,-153 -388,-153 -388,-153 -394,-153 -400,-147 -400,-141 -400,-141 -400,-13 -400,-13 -400,-7 -394,-1 -388,-1"/>
<text text-anchor="middle" x="-328" y="-137.8" font-family="Times,serif" font-size="14.00">RegistrationsController</text>
<polyline fill="none" stroke="black" points="-400,-130 -256,-130 "/>
<text text-anchor="start" x="-392" y="-114.8" font-family="Times,serif" font-size="14.00">add_email</text>
<text text-anchor="start" x="-392" y="-99.8" font-family="Times,serif" font-size="14.00">initiate_password_reset</text>
<text text-anchor="start" x="-392" y="-84.8" font-family="Times,serif" font-size="14.00">remove_email</text>
<text text-anchor="start" x="-392" y="-69.8" font-family="Times,serif" font-size="14.00">set_primary_email</text>
<polyline fill="none" stroke="black" points="-400,-62 -256,-62 "/>
<text text-anchor="start" x="-392" y="-46.8" font-family="Times,serif" font-size="14.00">update_resource</text>
<polyline fill="none" stroke="black" points="-400,-39 -256,-39 "/>
<text text-anchor="start" x="-392" y="-23.8" font-family="Times,serif" font-size="14.00">_layout</text>
<text text-anchor="start" x="-392" y="-8.8" font-family="Times,serif" font-size="14.00">set_email</text>
</g>
<!-- ExperiencesController -->
<g id="node8" class="node"><title>ExperiencesController</title>
<path fill="none" stroke="black" d="M112,99.5C112,99.5 226,99.5 226,99.5 232,99.5 238,93.5 238,87.5 238,87.5 238,-221.5 238,-221.5 238,-227.5 232,-233.5 226,-233.5 226,-233.5 112,-233.5 112,-233.5 106,-233.5 100,-227.5 100,-221.5 100,-221.5 100,87.5 100,87.5 100,93.5 106,99.5 112,99.5"/>
<text text-anchor="middle" x="169" y="-218.3" font-family="Times,serif" font-size="14.00">ExperiencesController</text>
<polyline fill="none" stroke="black" points="100,-210.5 238,-210.5 "/>
<text text-anchor="start" x="108" y="-195.3" font-family="Times,serif" font-size="14.00">activate</text>
<text text-anchor="start" x="108" y="-180.3" font-family="Times,serif" font-size="14.00">create</text>
<text text-anchor="start" x="108" y="-165.3" font-family="Times,serif" font-size="14.00">destroy</text>
<text text-anchor="start" x="108" y="-150.3" font-family="Times,serif" font-size="14.00">diagnose</text>
<text text-anchor="start" x="108" y="-135.3" font-family="Times,serif" font-size="14.00">edit</text>
<text text-anchor="start" x="108" y="-120.3" font-family="Times,serif" font-size="14.00">index</text>
<text text-anchor="start" x="108" y="-105.3" font-family="Times,serif" font-size="14.00">new</text>
<text text-anchor="start" x="108" y="-90.3" font-family="Times,serif" font-size="14.00">next</text>
<text text-anchor="start" x="108" y="-75.3" font-family="Times,serif" font-size="14.00">react</text>
<text text-anchor="start" x="108" y="-60.3" font-family="Times,serif" font-size="14.00">show</text>
<text text-anchor="start" x="108" y="-45.3" font-family="Times,serif" font-size="14.00">update</text>
<polyline fill="none" stroke="black" points="100,-37.5 238,-37.5 "/>
<polyline fill="none" stroke="black" points="100,-13.5 238,-13.5 "/>
<text text-anchor="start" x="108" y="1.7" font-family="Times,serif" font-size="14.00">_layout</text>
<text text-anchor="start" x="108" y="16.7" font-family="Times,serif" font-size="14.00">check_editor</text>
<text text-anchor="start" x="108" y="31.7" font-family="Times,serif" font-size="14.00">check_viewer</text>
<text text-anchor="start" x="108" y="46.7" font-family="Times,serif" font-size="14.00">diagnosis_params</text>
<text text-anchor="start" x="108" y="61.7" font-family="Times,serif" font-size="14.00">experience_params</text>
<text text-anchor="start" x="108" y="76.7" font-family="Times,serif" font-size="14.00">reaction_params</text>
<text text-anchor="start" x="108" y="91.7" font-family="Times,serif" font-size="14.00">set_experience</text>
</g>
<!-- Users::OmniauthCallbacksController -->
<g id="node9" class="node"><title>Users::OmniauthCallbacksController</title>
<path fill="none" stroke="black" d="M12,319C12,319 206,319 206,319 212,319 218,313 218,307 218,307 218,223 218,223 218,217 212,211 206,211 206,211 12,211 12,211 6,211 0,217 0,223 0,223 0,307 0,307 0,313 6,319 12,319"/>
<text text-anchor="middle" x="109" y="226.2" font-family="Times,serif" font-size="14.00">Users::OmniauthCallbacksController</text>
<polyline fill="none" stroke="black" points="0,234 218,234 "/>
<text text-anchor="start" x="8" y="249.2" font-family="Times,serif" font-size="14.00">failure</text>
<text text-anchor="start" x="8" y="264.2" font-family="Times,serif" font-size="14.00">google_oauth2</text>
<polyline fill="none" stroke="black" points="0,272 218,272 "/>
<polyline fill="none" stroke="black" points="0,296 218,296 "/>
<text text-anchor="start" x="8" y="311.2" font-family="Times,serif" font-size="14.00">_layout</text>
</g>
<!-- HomeController -->
<g id="node10" class="node"><title>HomeController</title>
<path fill="none" stroke="black" d="M452.5,-441C452.5,-441 565.5,-441 565.5,-441 571.5,-441 577.5,-447 577.5,-453 577.5,-453 577.5,-567 577.5,-567 577.5,-573 571.5,-579 565.5,-579 565.5,-579 452.5,-579 452.5,-579 446.5,-579 440.5,-573 440.5,-567 440.5,-567 440.5,-453 440.5,-453 440.5,-447 446.5,-441 452.5,-441"/>
<text text-anchor="middle" x="509" y="-563.8" font-family="Times,serif" font-size="14.00">HomeController</text>
<polyline fill="none" stroke="black" points="440.5,-556 577.5,-556 "/>
<text text-anchor="start" x="448.5" y="-540.8" font-family="Times,serif" font-size="14.00">check_diversity_score</text>
<text text-anchor="start" x="448.5" y="-525.8" font-family="Times,serif" font-size="14.00">demo_start</text>
<text text-anchor="start" x="448.5" y="-510.8" font-family="Times,serif" font-size="14.00">index</text>
<text text-anchor="start" x="448.5" y="-495.8" font-family="Times,serif" font-size="14.00">states_for_country</text>
<polyline fill="none" stroke="black" points="440.5,-488 577.5,-488 "/>
<polyline fill="none" stroke="black" points="440.5,-464 577.5,-464 "/>
<text text-anchor="start" x="448.5" y="-448.8" font-family="Times,serif" font-size="14.00">_layout</text>
</g>
<!-- InstallmentsController -->
<g id="node11" class="node"><title>InstallmentsController</title>
<path fill="none" stroke="black" d="M112.5,-280C112.5,-280 227.5,-280 227.5,-280 233.5,-280 239.5,-286 239.5,-292 239.5,-292 239.5,-436 239.5,-436 239.5,-442 233.5,-448 227.5,-448 227.5,-448 112.5,-448 112.5,-448 106.5,-448 100.5,-442 100.5,-436 100.5,-436 100.5,-292 100.5,-292 100.5,-286 106.5,-280 112.5,-280"/>
<text text-anchor="middle" x="170" y="-432.8" font-family="Times,serif" font-size="14.00">InstallmentsController</text>
<polyline fill="none" stroke="black" points="100.5,-425 239.5,-425 "/>
<text text-anchor="start" x="108.5" y="-409.8" font-family="Times,serif" font-size="14.00">create</text>
<text text-anchor="start" x="108.5" y="-394.8" font-family="Times,serif" font-size="14.00">demo_complete</text>
<text text-anchor="start" x="108.5" y="-379.8" font-family="Times,serif" font-size="14.00">edit</text>
<text text-anchor="start" x="108.5" y="-364.8" font-family="Times,serif" font-size="14.00">new</text>
<text text-anchor="start" x="108.5" y="-349.8" font-family="Times,serif" font-size="14.00">update</text>
<polyline fill="none" stroke="black" points="100.5,-342 239.5,-342 "/>
<polyline fill="none" stroke="black" points="100.5,-318 239.5,-318 "/>
<text text-anchor="start" x="108.5" y="-302.8" font-family="Times,serif" font-size="14.00">_layout</text>
<text text-anchor="start" x="108.5" y="-287.8" font-family="Times,serif" font-size="14.00">i_params</text>
</g>
<!-- ConsentFormsController -->
<g id="node12" class="node"><title>ConsentFormsController</title>
<path fill="none" stroke="black" d="M292,19.5C292,19.5 420,19.5 420,19.5 426,19.5 432,13.5 432,7.5 432,7.5 432,-181.5 432,-181.5 432,-187.5 426,-193.5 420,-193.5 420,-193.5 292,-193.5 292,-193.5 286,-193.5 280,-187.5 280,-181.5 280,-181.5 280,7.5 280,7.5 280,13.5 286,19.5 292,19.5"/>
<text text-anchor="middle" x="356" y="-178.3" font-family="Times,serif" font-size="14.00">ConsentFormsController</text>
<polyline fill="none" stroke="black" points="280,-170.5 432,-170.5 "/>
<text text-anchor="start" x="288" y="-155.3" font-family="Times,serif" font-size="14.00">create</text>
<text text-anchor="start" x="288" y="-140.3" font-family="Times,serif" font-size="14.00">destroy</text>
<text text-anchor="start" x="288" y="-125.3" font-family="Times,serif" font-size="14.00">edit</text>
<text text-anchor="start" x="288" y="-110.3" font-family="Times,serif" font-size="14.00">index</text>
<text text-anchor="start" x="288" y="-95.3" font-family="Times,serif" font-size="14.00">new</text>
<text text-anchor="start" x="288" y="-80.3" font-family="Times,serif" font-size="14.00">show</text>
<text text-anchor="start" x="288" y="-65.3" font-family="Times,serif" font-size="14.00">update</text>
<polyline fill="none" stroke="black" points="280,-57.5 432,-57.5 "/>
<polyline fill="none" stroke="black" points="280,-33.5 432,-33.5 "/>
<text text-anchor="start" x="288" y="-18.3" font-family="Times,serif" font-size="14.00">_layout</text>
<text text-anchor="start" x="288" y="-3.3" font-family="Times,serif" font-size="14.00">consent_form_params</text>
<text text-anchor="start" x="288" y="11.7" font-family="Times,serif" font-size="14.00">set_consent_form</text>
</g>
<!-- SchoolsController -->
<g id="node13" class="node"><title>SchoolsController</title>
<path fill="none" stroke="black" d="M-248.5,-261C-248.5,-261 -157.5,-261 -157.5,-261 -151.5,-261 -145.5,-267 -145.5,-273 -145.5,-273 -145.5,-477 -145.5,-477 -145.5,-483 -151.5,-489 -157.5,-489 -157.5,-489 -248.5,-489 -248.5,-489 -254.5,-489 -260.5,-483 -260.5,-477 -260.5,-477 -260.5,-273 -260.5,-273 -260.5,-267 -254.5,-261 -248.5,-261"/>
<text text-anchor="middle" x="-203" y="-473.8" font-family="Times,serif" font-size="14.00">SchoolsController</text>
<polyline fill="none" stroke="black" points="-260.5,-466 -145.5,-466 "/>
<text text-anchor="start" x="-252.5" y="-450.8" font-family="Times,serif" font-size="14.00">create</text>
<text text-anchor="start" x="-252.5" y="-435.8" font-family="Times,serif" font-size="14.00">destroy</text>
<text text-anchor="start" x="-252.5" y="-420.8" font-family="Times,serif" font-size="14.00">edit</text>
<text text-anchor="start" x="-252.5" y="-405.8" font-family="Times,serif" font-size="14.00">index</text>
<text text-anchor="start" x="-252.5" y="-390.8" font-family="Times,serif" font-size="14.00">new</text>
<text text-anchor="start" x="-252.5" y="-375.8" font-family="Times,serif" font-size="14.00">show</text>
<text text-anchor="start" x="-252.5" y="-360.8" font-family="Times,serif" font-size="14.00">update</text>
<polyline fill="none" stroke="black" points="-260.5,-353 -145.5,-353 "/>
<polyline fill="none" stroke="black" points="-260.5,-329 -145.5,-329 "/>
<text text-anchor="start" x="-252.5" y="-313.8" font-family="Times,serif" font-size="14.00">_layout</text>
<text text-anchor="start" x="-252.5" y="-298.8" font-family="Times,serif" font-size="14.00">check_admin</text>
<text text-anchor="start" x="-252.5" y="-283.8" font-family="Times,serif" font-size="14.00">school_params</text>
<text text-anchor="start" x="-252.5" y="-268.8" font-family="Times,serif" font-size="14.00">set_school</text>
</g>
<!-- ConsentLogsController -->
<g id="node14" class="node"><title>ConsentLogsController</title>
<path fill="none" stroke="black" d="M-387.5,159.5C-387.5,159.5 -268.5,159.5 -268.5,159.5 -262.5,159.5 -256.5,153.5 -256.5,147.5 -256.5,147.5 -256.5,48.5 -256.5,48.5 -256.5,42.5 -262.5,36.5 -268.5,36.5 -268.5,36.5 -387.5,36.5 -387.5,36.5 -393.5,36.5 -399.5,42.5 -399.5,48.5 -399.5,48.5 -399.5,147.5 -399.5,147.5 -399.5,153.5 -393.5,159.5 -387.5,159.5"/>
<text text-anchor="middle" x="-328" y="51.7" font-family="Times,serif" font-size="14.00">ConsentLogsController</text>
<polyline fill="none" stroke="black" points="-399.5,59.5 -256.5,59.5 "/>
<text text-anchor="start" x="-391.5" y="74.7" font-family="Times,serif" font-size="14.00">edit</text>
<text text-anchor="start" x="-391.5" y="89.7" font-family="Times,serif" font-size="14.00">update</text>
<polyline fill="none" stroke="black" points="-399.5,97.5 -256.5,97.5 "/>
<polyline fill="none" stroke="black" points="-399.5,121.5 -256.5,121.5 "/>
<text text-anchor="start" x="-391.5" y="136.7" font-family="Times,serif" font-size="14.00">_layout</text>
<text text-anchor="start" x="-391.5" y="151.7" font-family="Times,serif" font-size="14.00">cl_params</text>
</g>
<!-- GraphingController -->
<g id="node15" class="node"><title>GraphingController</title>
<path fill="none" stroke="black" d="M292.5,-240C292.5,-240 443.5,-240 443.5,-240 449.5,-240 455.5,-246 455.5,-252 455.5,-252 455.5,-396 455.5,-396 455.5,-402 449.5,-408 443.5,-408 443.5,-408 292.5,-408 292.5,-408 286.5,-408 280.5,-402 280.5,-396 280.5,-396 280.5,-252 280.5,-252 280.5,-246 286.5,-240 292.5,-240"/>
<text text-anchor="middle" x="368" y="-392.8" font-family="Times,serif" font-size="14.00">GraphingController</text>
<polyline fill="none" stroke="black" points="280.5,-385 455.5,-385 "/>
<text text-anchor="start" x="288.5" y="-369.8" font-family="Times,serif" font-size="14.00">data</text>
<text text-anchor="start" x="288.5" y="-354.8" font-family="Times,serif" font-size="14.00">index</text>
<text text-anchor="start" x="288.5" y="-339.8" font-family="Times,serif" font-size="14.00">individual_summary_data</text>
<text text-anchor="start" x="288.5" y="-324.8" font-family="Times,serif" font-size="14.00">pull_and_organise_user_data</text>
<text text-anchor="start" x="288.5" y="-309.8" font-family="Times,serif" font-size="14.00">raw_data</text>
<text text-anchor="start" x="288.5" y="-294.8" font-family="Times,serif" font-size="14.00">subjects</text>
<polyline fill="none" stroke="black" points="280.5,-287 455.5,-287 "/>
<polyline fill="none" stroke="black" points="280.5,-263 455.5,-263 "/>
<text text-anchor="start" x="288.5" y="-247.8" font-family="Times,serif" font-size="14.00">_layout</text>
</g>
</g>
</svg>
