<?xml version="1.0" encoding="UTF-8" standalone="no"?>
<!DOCTYPE svg PUBLIC "-//W3C//DTD SVG 1.1//EN"
 "http://www.w3.org/Graphics/SVG/1.1/DTD/svg11.dtd">
<!-- Generated by graphviz version 2.38.0 (20140413.2041)
 -->
<!-- Title: controllers_diagram Pages: 1 -->
<svg width="906pt" height="817pt"
 viewBox="0.00 0.00 905.50 817.00" xmlns="http://www.w3.org/2000/svg" xmlns:xlink="http://www.w3.org/1999/xlink">
<g id="graph0" class="graph" transform="scale(1 1) rotate(0) translate(403.5 493.5)">
<title>controllers_diagram</title>
<polygon fill="none" stroke="none" points="-403.5,323.5 -403.5,-493.5 502,-493.5 502,323.5 -403.5,323.5"/>
<!-- _diagram_info -->
<g id="node1" class="node"><title>_diagram_info</title>
<text text-anchor="start" x="8" y="236.4" font-family="Times,serif" font-size="13.00">Controllers diagram</text>
<text text-anchor="start" x="8" y="250.4" font-family="Times,serif" font-size="13.00">Date: Jun 23 2017 &#45; 14:40</text>
<text text-anchor="start" x="8" y="264.4" font-family="Times,serif" font-size="13.00">Migration version: 20170622054630</text>
<text text-anchor="start" x="8" y="278.4" font-family="Times,serif" font-size="13.00">Generated by RailRoady 1.5.2</text>
<text text-anchor="start" x="8" y="292.4" font-family="Times,serif" font-size="13.00">http://railroady.prestonlee.com</text>
</g>
<!-- ProjectsController -->
<g id="node2" class="node"><title>ProjectsController</title>
<path fill="none" stroke="black" d="M-208,119.5C-208,119.5 -116,119.5 -116,119.5 -110,119.5 -104,113.5 -104,107.5 -104,107.5 -104,-141.5 -104,-141.5 -104,-147.5 -110,-153.5 -116,-153.5 -116,-153.5 -208,-153.5 -208,-153.5 -214,-153.5 -220,-147.5 -220,-141.5 -220,-141.5 -220,107.5 -220,107.5 -220,113.5 -214,119.5 -208,119.5"/>
<text text-anchor="middle" x="-162" y="-138.3" font-family="Times,serif" font-size="14.00">ProjectsController</text>
<polyline fill="none" stroke="black" points="-220,-130.5 -104,-130.5 "/>
<text text-anchor="start" x="-212" y="-115.3" font-family="Times,serif" font-size="14.00">activate</text>
<text text-anchor="start" x="-212" y="-100.3" font-family="Times,serif" font-size="14.00">add_group</text>
<text text-anchor="start" x="-212" y="-85.3" font-family="Times,serif" font-size="14.00">create</text>
<text text-anchor="start" x="-212" y="-70.3" font-family="Times,serif" font-size="14.00">destroy</text>
<text text-anchor="start" x="-212" y="-55.3" font-family="Times,serif" font-size="14.00">edit</text>
<text text-anchor="start" x="-212" y="-40.3" font-family="Times,serif" font-size="14.00">index</text>
<text text-anchor="start" x="-212" y="-25.3" font-family="Times,serif" font-size="14.00">new</text>
<text text-anchor="start" x="-212" y="-10.3" font-family="Times,serif" font-size="14.00">remove_group</text>
<text text-anchor="start" x="-212" y="4.7" font-family="Times,serif" font-size="14.00">show</text>
<text text-anchor="start" x="-212" y="19.7" font-family="Times,serif" font-size="14.00">update</text>
<polyline fill="none" stroke="black" points="-220,27.5 -104,27.5 "/>
<polyline fill="none" stroke="black" points="-220,51.5 -104,51.5 "/>
<text text-anchor="start" x="-212" y="66.7" font-family="Times,serif" font-size="14.00">_layout</text>
<text text-anchor="start" x="-212" y="81.7" font-family="Times,serif" font-size="14.00">check_admin</text>
<text text-anchor="start" x="-212" y="96.7" font-family="Times,serif" font-size="14.00">project_params</text>
<text text-anchor="start" x="-212" y="111.7" font-family="Times,serif" font-size="14.00">set_project</text>
</g>
<!-- BingoGamesController -->
<g id="node3" class="node"><title>BingoGamesController</title>
<path fill="none" stroke="black" d="M-88,-200.5C-88,-200.5 48,-200.5 48,-200.5 54,-200.5 60,-206.5 60,-212.5 60,-212.5 60,-461.5 60,-461.5 60,-467.5 54,-473.5 48,-473.5 48,-473.5 -88,-473.5 -88,-473.5 -94,-473.5 -100,-467.5 -100,-461.5 -100,-461.5 -100,-212.5 -100,-212.5 -100,-206.5 -94,-200.5 -88,-200.5"/>
<text text-anchor="middle" x="-20" y="-458.3" font-family="Times,serif" font-size="14.00">BingoGamesController</text>
<polyline fill="none" stroke="black" points="-100,-450.5 60,-450.5 "/>
<text text-anchor="start" x="-92" y="-435.3" font-family="Times,serif" font-size="14.00">activate</text>
<text text-anchor="start" x="-92" y="-420.3" font-family="Times,serif" font-size="14.00">create</text>
<text text-anchor="start" x="-92" y="-405.3" font-family="Times,serif" font-size="14.00">destroy</text>
<text text-anchor="start" x="-92" y="-390.3" font-family="Times,serif" font-size="14.00">edit</text>
<text text-anchor="start" x="-92" y="-375.3" font-family="Times,serif" font-size="14.00">index</text>
<text text-anchor="start" x="-92" y="-360.3" font-family="Times,serif" font-size="14.00">new</text>
<text text-anchor="start" x="-92" y="-345.3" font-family="Times,serif" font-size="14.00">review_candidates</text>
<text text-anchor="start" x="-92" y="-330.3" font-family="Times,serif" font-size="14.00">show</text>
<text text-anchor="start" x="-92" y="-315.3" font-family="Times,serif" font-size="14.00">update</text>
<text text-anchor="start" x="-92" y="-300.3" font-family="Times,serif" font-size="14.00">update_review_candidates</text>
<polyline fill="none" stroke="black" points="-100,-292.5 60,-292.5 "/>
<polyline fill="none" stroke="black" points="-100,-268.5 60,-268.5 "/>
<text text-anchor="start" x="-92" y="-253.3" font-family="Times,serif" font-size="14.00">_layout</text>
<text text-anchor="start" x="-92" y="-238.3" font-family="Times,serif" font-size="14.00">bingo_game_params</text>
<text text-anchor="start" x="-92" y="-223.3" font-family="Times,serif" font-size="14.00">check_admin</text>
<text text-anchor="start" x="-92" y="-208.3" font-family="Times,serif" font-size="14.00">set_bingo_game</text>
</g>
<!-- CandidateListsController -->
<g id="node4" class="node"><title>CandidateListsController</title>
<path fill="none" stroke="black" d="M272.5,-260.5C272.5,-260.5 421.5,-260.5 421.5,-260.5 427.5,-260.5 433.5,-266.5 433.5,-272.5 433.5,-272.5 433.5,-475.5 433.5,-475.5 433.5,-481.5 427.5,-487.5 421.5,-487.5 421.5,-487.5 272.5,-487.5 272.5,-487.5 266.5,-487.5 260.5,-481.5 260.5,-475.5 260.5,-475.5 260.5,-272.5 260.5,-272.5 260.5,-266.5 266.5,-260.5 272.5,-260.5"/>
<text text-anchor="middle" x="347" y="-472.3" font-family="Times,serif" font-size="14.00">CandidateListsController</text>
<polyline fill="none" stroke="black" points="260.5,-464.5 433.5,-464.5 "/>
<text text-anchor="start" x="268.5" y="-449.3" font-family="Times,serif" font-size="14.00">create</text>
<text text-anchor="start" x="268.5" y="-434.3" font-family="Times,serif" font-size="14.00">demo_complete</text>
<text text-anchor="start" x="268.5" y="-419.3" font-family="Times,serif" font-size="14.00">edit</text>
<text text-anchor="start" x="268.5" y="-404.3" font-family="Times,serif" font-size="14.00">list_stats</text>
<text text-anchor="start" x="268.5" y="-389.3" font-family="Times,serif" font-size="14.00">request_collaboration</text>
<text text-anchor="start" x="268.5" y="-374.3" font-family="Times,serif" font-size="14.00">show</text>
<text text-anchor="start" x="268.5" y="-359.3" font-family="Times,serif" font-size="14.00">update</text>
<polyline fill="none" stroke="black" points="260.5,-351.5 433.5,-351.5 "/>
<text text-anchor="start" x="268.5" y="-336.3" font-family="Times,serif" font-size="14.00">merge_to_group_list</text>
<polyline fill="none" stroke="black" points="260.5,-328.5 433.5,-328.5 "/>
<text text-anchor="start" x="268.5" y="-313.3" font-family="Times,serif" font-size="14.00">_layout</text>
<text text-anchor="start" x="268.5" y="-298.3" font-family="Times,serif" font-size="14.00">candidate_list_params</text>
<text text-anchor="start" x="268.5" y="-283.3" font-family="Times,serif" font-size="14.00">merge_individuals_to_group</text>
<text text-anchor="start" x="268.5" y="-268.3" font-family="Times,serif" font-size="14.00">set_candidate_list</text>
</g>
<!-- CoursesController -->
<g id="node5" class="node"><title>CoursesController</title>
<path fill="none" stroke="black" d="M-48,179.5C-48,179.5 44,179.5 44,179.5 50,179.5 56,173.5 56,167.5 56,167.5 56,-141.5 56,-141.5 56,-147.5 50,-153.5 44,-153.5 44,-153.5 -48,-153.5 -48,-153.5 -54,-153.5 -60,-147.5 -60,-141.5 -60,-141.5 -60,167.5 -60,167.5 -60,173.5 -54,179.5 -48,179.5"/>
<text text-anchor="middle" x="-2" y="-138.3" font-family="Times,serif" font-size="14.00">CoursesController</text>
<polyline fill="none" stroke="black" points="-60,-130.5 56,-130.5 "/>
<text text-anchor="start" x="-52" y="-115.3" font-family="Times,serif" font-size="14.00">accept_roster</text>
<text text-anchor="start" x="-52" y="-100.3" font-family="Times,serif" font-size="14.00">add_instructors</text>
<text text-anchor="start" x="-52" y="-85.3" font-family="Times,serif" font-size="14.00">add_students</text>
<text text-anchor="start" x="-52" y="-70.3" font-family="Times,serif" font-size="14.00">create</text>
<text text-anchor="start" x="-52" y="-55.3" font-family="Times,serif" font-size="14.00">decline_roster</text>
<text text-anchor="start" x="-52" y="-40.3" font-family="Times,serif" font-size="14.00">destroy</text>
<text text-anchor="start" x="-52" y="-25.3" font-family="Times,serif" font-size="14.00">drop_student</text>
<text text-anchor="start" x="-52" y="-10.3" font-family="Times,serif" font-size="14.00">edit</text>
<text text-anchor="start" x="-52" y="4.7" font-family="Times,serif" font-size="14.00">index</text>
<text text-anchor="start" x="-52" y="19.7" font-family="Times,serif" font-size="14.00">new</text>
<text text-anchor="start" x="-52" y="34.7" font-family="Times,serif" font-size="14.00">re_invite_student</text>
<text text-anchor="start" x="-52" y="49.7" font-family="Times,serif" font-size="14.00">remove_instructor</text>
<text text-anchor="start" x="-52" y="64.7" font-family="Times,serif" font-size="14.00">show</text>
<text text-anchor="start" x="-52" y="79.7" font-family="Times,serif" font-size="14.00">update</text>
<polyline fill="none" stroke="black" points="-60,87.5 56,87.5 "/>
<polyline fill="none" stroke="black" points="-60,111.5 56,111.5 "/>
<text text-anchor="start" x="-52" y="126.7" font-family="Times,serif" font-size="14.00">_layout</text>
<text text-anchor="start" x="-52" y="141.7" font-family="Times,serif" font-size="14.00">check_admin</text>
<text text-anchor="start" x="-52" y="156.7" font-family="Times,serif" font-size="14.00">course_params</text>
<text text-anchor="start" x="-52" y="171.7" font-family="Times,serif" font-size="14.00">set_course</text>
</g>
<!-- ApplicationController -->
<g id="node6" class="node"><title>ApplicationController</title>
<path fill="none" stroke="black" d="M292,-61C292,-61 462,-61 462,-61 468,-61 474,-67 474,-73 474,-73 474,-157 474,-157 474,-163 468,-169 462,-169 462,-169 292,-169 292,-169 286,-169 280,-163 280,-157 280,-157 280,-73 280,-73 280,-67 286,-61 292,-61"/>
<text text-anchor="middle" x="377" y="-153.8" font-family="Times,serif" font-size="14.00">ApplicationController</text>
<polyline fill="none" stroke="black" points="280,-146 474,-146 "/>
<polyline fill="none" stroke="black" points="280,-122 474,-122 "/>
<text text-anchor="start" x="288" y="-106.8" font-family="Times,serif" font-size="14.00">configure_permitted_parameters</text>
<text text-anchor="start" x="288" y="-91.8" font-family="Times,serif" font-size="14.00">set_locale</text>
<polyline fill="none" stroke="black" points="280,-84 474,-84 "/>
<text text-anchor="start" x="288" y="-68.8" font-family="Times,serif" font-size="14.00">_layout</text>
</g>
<!-- RegistrationsController -->
<g id="node7" class="node"><title>RegistrationsController</title>
<path fill="none" stroke="black" d="M-308,319C-308,319 -188,319 -188,319 -182,319 -176,313 -176,307 -176,307 -176,179 -176,179 -176,173 -182,167 -188,167 -188,167 -308,167 -308,167 -314,167 -320,173 -320,179 -320,179 -320,307 -320,307 -320,313 -314,319 -308,319"/>
<text text-anchor="middle" x="-248" y="182.2" font-family="Times,serif" font-size="14.00">RegistrationsController</text>
<polyline fill="none" stroke="black" points="-320,190 -176,190 "/>
<text text-anchor="start" x="-312" y="205.2" font-family="Times,serif" font-size="14.00">add_email</text>
<text text-anchor="start" x="-312" y="220.2" font-family="Times,serif" font-size="14.00">initiate_password_reset</text>
<text text-anchor="start" x="-312" y="235.2" font-family="Times,serif" font-size="14.00">remove_email</text>
<text text-anchor="start" x="-312" y="250.2" font-family="Times,serif" font-size="14.00">set_primary_email</text>
<polyline fill="none" stroke="black" points="-320,258 -176,258 "/>
<text text-anchor="start" x="-312" y="273.2" font-family="Times,serif" font-size="14.00">update_resource</text>
<polyline fill="none" stroke="black" points="-320,281 -176,281 "/>
<text text-anchor="start" x="-312" y="296.2" font-family="Times,serif" font-size="14.00">_layout</text>
<text text-anchor="start" x="-312" y="311.2" font-family="Times,serif" font-size="14.00">set_email</text>
</g>
<!-- ExperiencesController -->
<g id="node8" class="node"><title>ExperiencesController</title>
<path fill="none" stroke="black" d="M112,99C112,99 226,99 226,99 232,99 238,93 238,87 238,87 238,-207 238,-207 238,-213 232,-219 226,-219 226,-219 112,-219 112,-219 106,-219 100,-213 100,-207 100,-207 100,87 100,87 100,93 106,99 112,99"/>
<text text-anchor="middle" x="169" y="-203.8" font-family="Times,serif" font-size="14.00">ExperiencesController</text>
<polyline fill="none" stroke="black" points="100,-196 238,-196 "/>
<text text-anchor="start" x="108" y="-180.8" font-family="Times,serif" font-size="14.00">activate</text>
<text text-anchor="start" x="108" y="-165.8" font-family="Times,serif" font-size="14.00">create</text>
<text text-anchor="start" x="108" y="-150.8" font-family="Times,serif" font-size="14.00">destroy</text>
<text text-anchor="start" x="108" y="-135.8" font-family="Times,serif" font-size="14.00">diagnose</text>
<text text-anchor="start" x="108" y="-120.8" font-family="Times,serif" font-size="14.00">edit</text>
<text text-anchor="start" x="108" y="-105.8" font-family="Times,serif" font-size="14.00">index</text>
<text text-anchor="start" x="108" y="-90.8" font-family="Times,serif" font-size="14.00">new</text>
<text text-anchor="start" x="108" y="-75.8" font-family="Times,serif" font-size="14.00">next</text>
<text text-anchor="start" x="108" y="-60.8" font-family="Times,serif" font-size="14.00">react</text>
<text text-anchor="start" x="108" y="-45.8" font-family="Times,serif" font-size="14.00">show</text>
<text text-anchor="start" x="108" y="-30.8" font-family="Times,serif" font-size="14.00">update</text>
<polyline fill="none" stroke="black" points="100,-23 238,-23 "/>
<polyline fill="none" stroke="black" points="100,1 238,1 "/>
<text text-anchor="start" x="108" y="16.2" font-family="Times,serif" font-size="14.00">_layout</text>
<text text-anchor="start" x="108" y="31.2" font-family="Times,serif" font-size="14.00">check_admin</text>
<text text-anchor="start" x="108" y="46.2" font-family="Times,serif" font-size="14.00">diagnosis_params</text>
<text text-anchor="start" x="108" y="61.2" font-family="Times,serif" font-size="14.00">experience_params</text>
<text text-anchor="start" x="108" y="76.2" font-family="Times,serif" font-size="14.00">reaction_params</text>
<text text-anchor="start" x="108" y="91.2" font-family="Times,serif" font-size="14.00">set_experience</text>
</g>
<!-- Users::OmniauthCallbacksController -->
<g id="node9" class="node"><title>Users::OmniauthCallbacksController</title>
<path fill="none" stroke="black" d="M292,79C292,79 486,79 486,79 492,79 498,73 498,67 498,67 498,-17 498,-17 498,-23 492,-29 486,-29 486,-29 292,-29 292,-29 286,-29 280,-23 280,-17 280,-17 280,67 280,67 280,73 286,79 292,79"/>
<text text-anchor="middle" x="389" y="-13.8" font-family="Times,serif" font-size="14.00">Users::OmniauthCallbacksController</text>
<polyline fill="none" stroke="black" points="280,-6 498,-6 "/>
<text text-anchor="start" x="288" y="9.2" font-family="Times,serif" font-size="14.00">failure</text>
<text text-anchor="start" x="288" y="24.2" font-family="Times,serif" font-size="14.00">google_oauth2</text>
<polyline fill="none" stroke="black" points="280,32 498,32 "/>
<polyline fill="none" stroke="black" points="280,56 498,56 "/>
<text text-anchor="start" x="288" y="71.2" font-family="Times,serif" font-size="14.00">_layout</text>
</g>
<!-- HomeController -->
<g id="node10" class="node"><title>HomeController</title>
<path fill="none" stroke="black" d="M-128,319C-128,319 -46,319 -46,319 -40,319 -34,313 -34,307 -34,307 -34,223 -34,223 -34,217 -40,211 -46,211 -46,211 -128,211 -128,211 -134,211 -140,217 -140,223 -140,223 -140,307 -140,307 -140,313 -134,319 -128,319"/>
<text text-anchor="middle" x="-87" y="226.2" font-family="Times,serif" font-size="14.00">HomeController</text>
<polyline fill="none" stroke="black" points="-140,234 -34,234 "/>
<text text-anchor="start" x="-132" y="249.2" font-family="Times,serif" font-size="14.00">demo_start</text>
<text text-anchor="start" x="-132" y="264.2" font-family="Times,serif" font-size="14.00">index</text>
<polyline fill="none" stroke="black" points="-140,272 -34,272 "/>
<polyline fill="none" stroke="black" points="-140,296 -34,296 "/>
<text text-anchor="start" x="-132" y="311.2" font-family="Times,serif" font-size="14.00">_layout</text>
</g>
<!-- InstallmentsController -->
<g id="node11" class="node"><title>InstallmentsController</title>
<path fill="none" stroke="black" d="M-267.5,-280C-267.5,-280 -152.5,-280 -152.5,-280 -146.5,-280 -140.5,-286 -140.5,-292 -140.5,-292 -140.5,-436 -140.5,-436 -140.5,-442 -146.5,-448 -152.5,-448 -152.5,-448 -267.5,-448 -267.5,-448 -273.5,-448 -279.5,-442 -279.5,-436 -279.5,-436 -279.5,-292 -279.5,-292 -279.5,-286 -273.5,-280 -267.5,-280"/>
<text text-anchor="middle" x="-210" y="-432.8" font-family="Times,serif" font-size="14.00">InstallmentsController</text>
<polyline fill="none" stroke="black" points="-279.5,-425 -140.5,-425 "/>
<text text-anchor="start" x="-271.5" y="-409.8" font-family="Times,serif" font-size="14.00">create</text>
<text text-anchor="start" x="-271.5" y="-394.8" font-family="Times,serif" font-size="14.00">demo_complete</text>
<text text-anchor="start" x="-271.5" y="-379.8" font-family="Times,serif" font-size="14.00">edit</text>
<text text-anchor="start" x="-271.5" y="-364.8" font-family="Times,serif" font-size="14.00">new</text>
<text text-anchor="start" x="-271.5" y="-349.8" font-family="Times,serif" font-size="14.00">update</text>
<polyline fill="none" stroke="black" points="-279.5,-342 -140.5,-342 "/>
<polyline fill="none" stroke="black" points="-279.5,-318 -140.5,-318 "/>
<text text-anchor="start" x="-271.5" y="-302.8" font-family="Times,serif" font-size="14.00">_layout</text>
<text text-anchor="start" x="-271.5" y="-287.8" font-family="Times,serif" font-size="14.00">i_params</text>
</g>
<!-- SchoolsController -->
<g id="node12" class="node"><title>SchoolsController</title>
<path fill="none" stroke="black" d="M111.5,-261C111.5,-261 202.5,-261 202.5,-261 208.5,-261 214.5,-267 214.5,-273 214.5,-273 214.5,-477 214.5,-477 214.5,-483 208.5,-489 202.5,-489 202.5,-489 111.5,-489 111.5,-489 105.5,-489 99.5,-483 99.5,-477 99.5,-477 99.5,-273 99.5,-273 99.5,-267 105.5,-261 111.5,-261"/>
<text text-anchor="middle" x="157" y="-473.8" font-family="Times,serif" font-size="14.00">SchoolsController</text>
<polyline fill="none" stroke="black" points="99.5,-466 214.5,-466 "/>
<text text-anchor="start" x="107.5" y="-450.8" font-family="Times,serif" font-size="14.00">create</text>
<text text-anchor="start" x="107.5" y="-435.8" font-family="Times,serif" font-size="14.00">destroy</text>
<text text-anchor="start" x="107.5" y="-420.8" font-family="Times,serif" font-size="14.00">edit</text>
<text text-anchor="start" x="107.5" y="-405.8" font-family="Times,serif" font-size="14.00">index</text>
<text text-anchor="start" x="107.5" y="-390.8" font-family="Times,serif" font-size="14.00">new</text>
<text text-anchor="start" x="107.5" y="-375.8" font-family="Times,serif" font-size="14.00">show</text>
<text text-anchor="start" x="107.5" y="-360.8" font-family="Times,serif" font-size="14.00">update</text>
<polyline fill="none" stroke="black" points="99.5,-353 214.5,-353 "/>
<polyline fill="none" stroke="black" points="99.5,-329 214.5,-329 "/>
<text text-anchor="start" x="107.5" y="-313.8" font-family="Times,serif" font-size="14.00">_layout</text>
<text text-anchor="start" x="107.5" y="-298.8" font-family="Times,serif" font-size="14.00">check_admin</text>
<text text-anchor="start" x="107.5" y="-283.8" font-family="Times,serif" font-size="14.00">school_params</text>
<text text-anchor="start" x="107.5" y="-268.8" font-family="Times,serif" font-size="14.00">set_school</text>
</g>
<!-- ConsentLogsController -->
<g id="node13" class="node"><title>ConsentLogsController</title>
<path fill="none" stroke="black" d="M-387.5,-120.5C-387.5,-120.5 -268.5,-120.5 -268.5,-120.5 -262.5,-120.5 -256.5,-126.5 -256.5,-132.5 -256.5,-132.5 -256.5,-231.5 -256.5,-231.5 -256.5,-237.5 -262.5,-243.5 -268.5,-243.5 -268.5,-243.5 -387.5,-243.5 -387.5,-243.5 -393.5,-243.5 -399.5,-237.5 -399.5,-231.5 -399.5,-231.5 -399.5,-132.5 -399.5,-132.5 -399.5,-126.5 -393.5,-120.5 -387.5,-120.5"/>
<text text-anchor="middle" x="-328" y="-228.3" font-family="Times,serif" font-size="14.00">ConsentLogsController</text>
<polyline fill="none" stroke="black" points="-399.5,-220.5 -256.5,-220.5 "/>
<text text-anchor="start" x="-391.5" y="-205.3" font-family="Times,serif" font-size="14.00">edit</text>
<text text-anchor="start" x="-391.5" y="-190.3" font-family="Times,serif" font-size="14.00">update</text>
<polyline fill="none" stroke="black" points="-399.5,-182.5 -256.5,-182.5 "/>
<polyline fill="none" stroke="black" points="-399.5,-158.5 -256.5,-158.5 "/>
<text text-anchor="start" x="-391.5" y="-143.3" font-family="Times,serif" font-size="14.00">_layout</text>
<text text-anchor="start" x="-391.5" y="-128.3" font-family="Times,serif" font-size="14.00">cl_params</text>
</g>
<!-- GraphingController -->
<g id="node14" class="node"><title>GraphingController</title>
<path fill="none" stroke="black" d="M292.5,280C292.5,280 443.5,280 443.5,280 449.5,280 455.5,274 455.5,268 455.5,268 455.5,124 455.5,124 455.5,118 449.5,112 443.5,112 443.5,112 292.5,112 292.5,112 286.5,112 280.5,118 280.5,124 280.5,124 280.5,268 280.5,268 280.5,274 286.5,280 292.5,280"/>
<text text-anchor="middle" x="368" y="127.2" font-family="Times,serif" font-size="14.00">GraphingController</text>
<polyline fill="none" stroke="black" points="280.5,135 455.5,135 "/>
<text text-anchor="start" x="288.5" y="150.2" font-family="Times,serif" font-size="14.00">data</text>
<text text-anchor="start" x="288.5" y="165.2" font-family="Times,serif" font-size="14.00">index</text>
<text text-anchor="start" x="288.5" y="180.2" font-family="Times,serif" font-size="14.00">individual_summary_data</text>
<text text-anchor="start" x="288.5" y="195.2" font-family="Times,serif" font-size="14.00">pull_and_organise_user_data</text>
<text text-anchor="start" x="288.5" y="210.2" font-family="Times,serif" font-size="14.00">raw_data</text>
<text text-anchor="start" x="288.5" y="225.2" font-family="Times,serif" font-size="14.00">subjects</text>
<polyline fill="none" stroke="black" points="280.5,233 455.5,233 "/>
<polyline fill="none" stroke="black" points="280.5,257 455.5,257 "/>
<text text-anchor="start" x="288.5" y="272.2" font-family="Times,serif" font-size="14.00">_layout</text>
</g>
</g>
</svg>
