<?xml version="1.0" encoding="UTF-8" standalone="no"?>
<!DOCTYPE svg PUBLIC "-//W3C//DTD SVG 1.1//EN"
 "http://www.w3.org/Graphics/SVG/1.1/DTD/svg11.dtd">
<!-- Generated by graphviz version 2.36.0 (20140111.2315)
 -->
<!-- Title: controllers_diagram Pages: 1 -->
<svg width="947pt" height="933pt"
 viewBox="0.00 0.00 947.00 933.00" xmlns="http://www.w3.org/2000/svg" xmlns:xlink="http://www.w3.org/1999/xlink">
<g id="graph0" class="graph" transform="scale(1 1) rotate(0) translate(4 929)">
<title>controllers_diagram</title>
<polygon fill="none" stroke="none" points="-4,4 -4,-929 943,-929 943,4 -4,4"/>
<!-- _diagram_info -->
<g id="node1" class="node"><title>_diagram_info</title>
<text text-anchor="start" x="690" y="-481.6" font-family="Times,serif" font-size="13.00">Controllers diagram</text>
<text text-anchor="start" x="690" y="-467.6" font-family="Times,serif" font-size="13.00">Date: Apr 20 2017 &#45; 22:36</text>
<text text-anchor="start" x="690" y="-453.6" font-family="Times,serif" font-size="13.00">Migration version: 20170320150239</text>
<text text-anchor="start" x="690" y="-439.6" font-family="Times,serif" font-size="13.00">Generated by RailRoady 1.5.2</text>
<text text-anchor="start" x="690" y="-425.6" font-family="Times,serif" font-size="13.00">http://railroady.prestonlee.com</text>
</g>
<!-- ApplicationController -->
<g id="node2" class="node"><title>ApplicationController</title>
<path fill="none" stroke="black" d="M694,-264.5C694,-264.5 923,-264.5 923,-264.5 929,-264.5 935,-270.5 935,-276.5 935,-276.5 935,-360.5 935,-360.5 935,-366.5 929,-372.5 923,-372.5 923,-372.5 694,-372.5 694,-372.5 688,-372.5 682,-366.5 682,-360.5 682,-360.5 682,-276.5 682,-276.5 682,-270.5 688,-264.5 694,-264.5"/>
<text text-anchor="middle" x="808.5" y="-357.3" font-family="Times,serif" font-size="14.00">ApplicationController</text>
<polyline fill="none" stroke="black" points="682,-349.5 935,-349.5 "/>
<polyline fill="none" stroke="black" points="682,-325.5 935,-325.5 "/>
<text text-anchor="start" x="690" y="-310.3" font-family="Times,serif" font-size="14.00">configure_permitted_parameters</text>
<text text-anchor="start" x="690" y="-295.3" font-family="Times,serif" font-size="14.00">set_time_zone</text>
<polyline fill="none" stroke="black" points="682,-287.5 935,-287.5 "/>
<text text-anchor="start" x="690" y="-272.3" font-family="Times,serif" font-size="14.00">_layout</text>
</g>
<!-- BingoGamesController -->
<g id="node3" class="node"><title>BingoGamesController</title>
<path fill="none" stroke="black" d="M232,-242.5C232,-242.5 415,-242.5 415,-242.5 421,-242.5 427,-248.5 427,-254.5 427,-254.5 427,-503.5 427,-503.5 427,-509.5 421,-515.5 415,-515.5 415,-515.5 232,-515.5 232,-515.5 226,-515.5 220,-509.5 220,-503.5 220,-503.5 220,-254.5 220,-254.5 220,-248.5 226,-242.5 232,-242.5"/>
<text text-anchor="middle" x="323.5" y="-500.3" font-family="Times,serif" font-size="14.00">BingoGamesController</text>
<polyline fill="none" stroke="black" points="220,-492.5 427,-492.5 "/>
<text text-anchor="start" x="228" y="-477.3" font-family="Times,serif" font-size="14.00">activate</text>
<text text-anchor="start" x="228" y="-462.3" font-family="Times,serif" font-size="14.00">create</text>
<text text-anchor="start" x="228" y="-447.3" font-family="Times,serif" font-size="14.00">destroy</text>
<text text-anchor="start" x="228" y="-432.3" font-family="Times,serif" font-size="14.00">edit</text>
<text text-anchor="start" x="228" y="-417.3" font-family="Times,serif" font-size="14.00">index</text>
<text text-anchor="start" x="228" y="-402.3" font-family="Times,serif" font-size="14.00">new</text>
<text text-anchor="start" x="228" y="-387.3" font-family="Times,serif" font-size="14.00">review_candidates</text>
<text text-anchor="start" x="228" y="-372.3" font-family="Times,serif" font-size="14.00">show</text>
<text text-anchor="start" x="228" y="-357.3" font-family="Times,serif" font-size="14.00">update</text>
<text text-anchor="start" x="228" y="-342.3" font-family="Times,serif" font-size="14.00">update_review_candidates</text>
<polyline fill="none" stroke="black" points="220,-334.5 427,-334.5 "/>
<polyline fill="none" stroke="black" points="220,-310.5 427,-310.5 "/>
<text text-anchor="start" x="228" y="-295.3" font-family="Times,serif" font-size="14.00">_layout</text>
<text text-anchor="start" x="228" y="-280.3" font-family="Times,serif" font-size="14.00">bingo_game_params</text>
<text text-anchor="start" x="228" y="-265.3" font-family="Times,serif" font-size="14.00">check_admin</text>
<text text-anchor="start" x="228" y="-250.3" font-family="Times,serif" font-size="14.00">set_bingo_game</text>
</g>
<!-- CandidateListsController -->
<g id="node4" class="node"><title>CandidateListsController</title>
<path fill="none" stroke="black" d="M12,-726.5C12,-726.5 207,-726.5 207,-726.5 213,-726.5 219,-732.5 219,-738.5 219,-738.5 219,-912.5 219,-912.5 219,-918.5 213,-924.5 207,-924.5 207,-924.5 12,-924.5 12,-924.5 6,-924.5 0,-918.5 0,-912.5 0,-912.5 0,-738.5 0,-738.5 0,-732.5 6,-726.5 12,-726.5"/>
<text text-anchor="middle" x="109.5" y="-909.3" font-family="Times,serif" font-size="14.00">CandidateListsController</text>
<polyline fill="none" stroke="black" points="0,-901.5 219,-901.5 "/>
<text text-anchor="start" x="8" y="-886.3" font-family="Times,serif" font-size="14.00">edit</text>
<text text-anchor="start" x="8" y="-871.3" font-family="Times,serif" font-size="14.00">merge_to_group_list</text>
<text text-anchor="start" x="8" y="-856.3" font-family="Times,serif" font-size="14.00">request_collaboration</text>
<text text-anchor="start" x="8" y="-841.3" font-family="Times,serif" font-size="14.00">show</text>
<text text-anchor="start" x="8" y="-826.3" font-family="Times,serif" font-size="14.00">update</text>
<polyline fill="none" stroke="black" points="0,-818.5 219,-818.5 "/>
<polyline fill="none" stroke="black" points="0,-794.5 219,-794.5 "/>
<text text-anchor="start" x="8" y="-779.3" font-family="Times,serif" font-size="14.00">_layout</text>
<text text-anchor="start" x="8" y="-764.3" font-family="Times,serif" font-size="14.00">candidate_list_params</text>
<text text-anchor="start" x="8" y="-749.3" font-family="Times,serif" font-size="14.00">merge_individuals_to_group</text>
<text text-anchor="start" x="8" y="-734.3" font-family="Times,serif" font-size="14.00">set_candidate_list</text>
</g>
<!-- ConsentLogsController -->
<g id="node5" class="node"><title>ConsentLogsController</title>
<path fill="none" stroke="black" d="M738,-0.5C738,-0.5 898,-0.5 898,-0.5 904,-0.5 910,-6.5 910,-12.5 910,-12.5 910,-111.5 910,-111.5 910,-117.5 904,-123.5 898,-123.5 898,-123.5 738,-123.5 738,-123.5 732,-123.5 726,-117.5 726,-111.5 726,-111.5 726,-12.5 726,-12.5 726,-6.5 732,-0.5 738,-0.5"/>
<text text-anchor="middle" x="818" y="-108.3" font-family="Times,serif" font-size="14.00">ConsentLogsController</text>
<polyline fill="none" stroke="black" points="726,-100.5 910,-100.5 "/>
<text text-anchor="start" x="734" y="-85.3" font-family="Times,serif" font-size="14.00">edit</text>
<text text-anchor="start" x="734" y="-70.3" font-family="Times,serif" font-size="14.00">update</text>
<polyline fill="none" stroke="black" points="726,-62.5 910,-62.5 "/>
<polyline fill="none" stroke="black" points="726,-38.5 910,-38.5 "/>
<text text-anchor="start" x="734" y="-23.3" font-family="Times,serif" font-size="14.00">_layout</text>
<text text-anchor="start" x="734" y="-8.3" font-family="Times,serif" font-size="14.00">cl_params</text>
</g>
<!-- CoursesController -->
<g id="node6" class="node"><title>CoursesController</title>
<path fill="none" stroke="black" d="M276,-550.5C276,-550.5 401,-550.5 401,-550.5 407,-550.5 413,-556.5 413,-562.5 413,-562.5 413,-871.5 413,-871.5 413,-877.5 407,-883.5 401,-883.5 401,-883.5 276,-883.5 276,-883.5 270,-883.5 264,-877.5 264,-871.5 264,-871.5 264,-562.5 264,-562.5 264,-556.5 270,-550.5 276,-550.5"/>
<text text-anchor="middle" x="338.5" y="-868.3" font-family="Times,serif" font-size="14.00">CoursesController</text>
<polyline fill="none" stroke="black" points="264,-860.5 413,-860.5 "/>
<text text-anchor="start" x="272" y="-845.3" font-family="Times,serif" font-size="14.00">accept_roster</text>
<text text-anchor="start" x="272" y="-830.3" font-family="Times,serif" font-size="14.00">add_instructors</text>
<text text-anchor="start" x="272" y="-815.3" font-family="Times,serif" font-size="14.00">add_students</text>
<text text-anchor="start" x="272" y="-800.3" font-family="Times,serif" font-size="14.00">create</text>
<text text-anchor="start" x="272" y="-785.3" font-family="Times,serif" font-size="14.00">decline_roster</text>
<text text-anchor="start" x="272" y="-770.3" font-family="Times,serif" font-size="14.00">destroy</text>
<text text-anchor="start" x="272" y="-755.3" font-family="Times,serif" font-size="14.00">drop_student</text>
<text text-anchor="start" x="272" y="-740.3" font-family="Times,serif" font-size="14.00">edit</text>
<text text-anchor="start" x="272" y="-725.3" font-family="Times,serif" font-size="14.00">index</text>
<text text-anchor="start" x="272" y="-710.3" font-family="Times,serif" font-size="14.00">new</text>
<text text-anchor="start" x="272" y="-695.3" font-family="Times,serif" font-size="14.00">re_invite_student</text>
<text text-anchor="start" x="272" y="-680.3" font-family="Times,serif" font-size="14.00">remove_instructor</text>
<text text-anchor="start" x="272" y="-665.3" font-family="Times,serif" font-size="14.00">show</text>
<text text-anchor="start" x="272" y="-650.3" font-family="Times,serif" font-size="14.00">update</text>
<polyline fill="none" stroke="black" points="264,-642.5 413,-642.5 "/>
<polyline fill="none" stroke="black" points="264,-618.5 413,-618.5 "/>
<text text-anchor="start" x="272" y="-603.3" font-family="Times,serif" font-size="14.00">_layout</text>
<text text-anchor="start" x="272" y="-588.3" font-family="Times,serif" font-size="14.00">check_admin</text>
<text text-anchor="start" x="272" y="-573.3" font-family="Times,serif" font-size="14.00">course_params</text>
<text text-anchor="start" x="272" y="-558.3" font-family="Times,serif" font-size="14.00">set_course</text>
</g>
<!-- ExperiencesController -->
<g id="node7" class="node"><title>ExperiencesController</title>
<path fill="none" stroke="black" d="M474,-264.5C474,-264.5 629,-264.5 629,-264.5 635,-264.5 641,-270.5 641,-276.5 641,-276.5 641,-570.5 641,-570.5 641,-576.5 635,-582.5 629,-582.5 629,-582.5 474,-582.5 474,-582.5 468,-582.5 462,-576.5 462,-570.5 462,-570.5 462,-276.5 462,-276.5 462,-270.5 468,-264.5 474,-264.5"/>
<text text-anchor="middle" x="551.5" y="-567.3" font-family="Times,serif" font-size="14.00">ExperiencesController</text>
<polyline fill="none" stroke="black" points="462,-559.5 641,-559.5 "/>
<text text-anchor="start" x="470" y="-544.3" font-family="Times,serif" font-size="14.00">activate</text>
<text text-anchor="start" x="470" y="-529.3" font-family="Times,serif" font-size="14.00">create</text>
<text text-anchor="start" x="470" y="-514.3" font-family="Times,serif" font-size="14.00">destroy</text>
<text text-anchor="start" x="470" y="-499.3" font-family="Times,serif" font-size="14.00">diagnose</text>
<text text-anchor="start" x="470" y="-484.3" font-family="Times,serif" font-size="14.00">edit</text>
<text text-anchor="start" x="470" y="-469.3" font-family="Times,serif" font-size="14.00">index</text>
<text text-anchor="start" x="470" y="-454.3" font-family="Times,serif" font-size="14.00">new</text>
<text text-anchor="start" x="470" y="-439.3" font-family="Times,serif" font-size="14.00">next</text>
<text text-anchor="start" x="470" y="-424.3" font-family="Times,serif" font-size="14.00">react</text>
<text text-anchor="start" x="470" y="-409.3" font-family="Times,serif" font-size="14.00">show</text>
<text text-anchor="start" x="470" y="-394.3" font-family="Times,serif" font-size="14.00">update</text>
<polyline fill="none" stroke="black" points="462,-386.5 641,-386.5 "/>
<polyline fill="none" stroke="black" points="462,-362.5 641,-362.5 "/>
<text text-anchor="start" x="470" y="-347.3" font-family="Times,serif" font-size="14.00">_layout</text>
<text text-anchor="start" x="470" y="-332.3" font-family="Times,serif" font-size="14.00">check_admin</text>
<text text-anchor="start" x="470" y="-317.3" font-family="Times,serif" font-size="14.00">diagnosis_params</text>
<text text-anchor="start" x="470" y="-302.3" font-family="Times,serif" font-size="14.00">experience_params</text>
<text text-anchor="start" x="470" y="-287.3" font-family="Times,serif" font-size="14.00">reaction_params</text>
<text text-anchor="start" x="470" y="-272.3" font-family="Times,serif" font-size="14.00">set_experience</text>
</g>
<!-- GraphingController -->
<g id="node8" class="node"><title>GraphingController</title>
<path fill="none" stroke="black" d="M474,-44.5C474,-44.5 674,-44.5 674,-44.5 680,-44.5 686,-50.5 686,-56.5 686,-56.5 686,-200.5 686,-200.5 686,-206.5 680,-212.5 674,-212.5 674,-212.5 474,-212.5 474,-212.5 468,-212.5 462,-206.5 462,-200.5 462,-200.5 462,-56.5 462,-56.5 462,-50.5 468,-44.5 474,-44.5"/>
<text text-anchor="middle" x="574" y="-197.3" font-family="Times,serif" font-size="14.00">GraphingController</text>
<polyline fill="none" stroke="black" points="462,-189.5 686,-189.5 "/>
<text text-anchor="start" x="470" y="-174.3" font-family="Times,serif" font-size="14.00">data</text>
<text text-anchor="start" x="470" y="-159.3" font-family="Times,serif" font-size="14.00">index</text>
<text text-anchor="start" x="470" y="-144.3" font-family="Times,serif" font-size="14.00">individual_summary_data</text>
<text text-anchor="start" x="470" y="-129.3" font-family="Times,serif" font-size="14.00">pull_and_organise_user_data</text>
<text text-anchor="start" x="470" y="-114.3" font-family="Times,serif" font-size="14.00">raw_data</text>
<text text-anchor="start" x="470" y="-99.3" font-family="Times,serif" font-size="14.00">subjects</text>
<polyline fill="none" stroke="black" points="462,-91.5 686,-91.5 "/>
<polyline fill="none" stroke="black" points="462,-67.5 686,-67.5 "/>
<text text-anchor="start" x="470" y="-52.3" font-family="Times,serif" font-size="14.00">_layout</text>
</g>
<!-- HomeController -->
<g id="node9" class="node"><title>HomeController</title>
<path fill="none" stroke="black" d="M760,-528.5C760,-528.5 869,-528.5 869,-528.5 875,-528.5 881,-534.5 881,-540.5 881,-540.5 881,-609.5 881,-609.5 881,-615.5 875,-621.5 869,-621.5 869,-621.5 760,-621.5 760,-621.5 754,-621.5 748,-615.5 748,-609.5 748,-609.5 748,-540.5 748,-540.5 748,-534.5 754,-528.5 760,-528.5"/>
<text text-anchor="middle" x="814.5" y="-606.3" font-family="Times,serif" font-size="14.00">HomeController</text>
<polyline fill="none" stroke="black" points="748,-598.5 881,-598.5 "/>
<text text-anchor="start" x="756" y="-583.3" font-family="Times,serif" font-size="14.00">index</text>
<polyline fill="none" stroke="black" points="748,-575.5 881,-575.5 "/>
<polyline fill="none" stroke="black" points="748,-551.5 881,-551.5 "/>
<text text-anchor="start" x="756" y="-536.3" font-family="Times,serif" font-size="14.00">_layout</text>
</g>
<!-- InstallmentsController -->
<g id="node10" class="node"><title>InstallmentsController</title>
<path fill="none" stroke="black" d="M12,-396.5C12,-396.5 168,-396.5 168,-396.5 174,-396.5 180,-402.5 180,-408.5 180,-408.5 180,-567.5 180,-567.5 180,-573.5 174,-579.5 168,-579.5 168,-579.5 12,-579.5 12,-579.5 6,-579.5 0,-573.5 0,-567.5 0,-567.5 0,-408.5 0,-408.5 0,-402.5 6,-396.5 12,-396.5"/>
<text text-anchor="middle" x="90" y="-564.3" font-family="Times,serif" font-size="14.00">InstallmentsController</text>
<polyline fill="none" stroke="black" points="0,-556.5 180,-556.5 "/>
<text text-anchor="start" x="8" y="-541.3" font-family="Times,serif" font-size="14.00">create</text>
<text text-anchor="start" x="8" y="-526.3" font-family="Times,serif" font-size="14.00">demo_complete</text>
<text text-anchor="start" x="8" y="-511.3" font-family="Times,serif" font-size="14.00">demo_start</text>
<text text-anchor="start" x="8" y="-496.3" font-family="Times,serif" font-size="14.00">edit</text>
<text text-anchor="start" x="8" y="-481.3" font-family="Times,serif" font-size="14.00">new</text>
<text text-anchor="start" x="8" y="-466.3" font-family="Times,serif" font-size="14.00">update</text>
<polyline fill="none" stroke="black" points="0,-458.5 180,-458.5 "/>
<polyline fill="none" stroke="black" points="0,-434.5 180,-434.5 "/>
<text text-anchor="start" x="8" y="-419.3" font-family="Times,serif" font-size="14.00">_layout</text>
<text text-anchor="start" x="8" y="-404.3" font-family="Times,serif" font-size="14.00">i_params</text>
</g>
<!-- ProjectsController -->
<g id="node11" class="node"><title>ProjectsController</title>
<path fill="none" stroke="black" d="M562,-616.5C562,-616.5 687,-616.5 687,-616.5 693,-616.5 699,-622.5 699,-628.5 699,-628.5 699,-877.5 699,-877.5 699,-883.5 693,-889.5 687,-889.5 687,-889.5 562,-889.5 562,-889.5 556,-889.5 550,-883.5 550,-877.5 550,-877.5 550,-628.5 550,-628.5 550,-622.5 556,-616.5 562,-616.5"/>
<text text-anchor="middle" x="624.5" y="-874.3" font-family="Times,serif" font-size="14.00">ProjectsController</text>
<polyline fill="none" stroke="black" points="550,-866.5 699,-866.5 "/>
<text text-anchor="start" x="558" y="-851.3" font-family="Times,serif" font-size="14.00">activate</text>
<text text-anchor="start" x="558" y="-836.3" font-family="Times,serif" font-size="14.00">add_group</text>
<text text-anchor="start" x="558" y="-821.3" font-family="Times,serif" font-size="14.00">create</text>
<text text-anchor="start" x="558" y="-806.3" font-family="Times,serif" font-size="14.00">destroy</text>
<text text-anchor="start" x="558" y="-791.3" font-family="Times,serif" font-size="14.00">edit</text>
<text text-anchor="start" x="558" y="-776.3" font-family="Times,serif" font-size="14.00">index</text>
<text text-anchor="start" x="558" y="-761.3" font-family="Times,serif" font-size="14.00">new</text>
<text text-anchor="start" x="558" y="-746.3" font-family="Times,serif" font-size="14.00">remove_group</text>
<text text-anchor="start" x="558" y="-731.3" font-family="Times,serif" font-size="14.00">show</text>
<text text-anchor="start" x="558" y="-716.3" font-family="Times,serif" font-size="14.00">update</text>
<polyline fill="none" stroke="black" points="550,-708.5 699,-708.5 "/>
<polyline fill="none" stroke="black" points="550,-684.5 699,-684.5 "/>
<text text-anchor="start" x="558" y="-669.3" font-family="Times,serif" font-size="14.00">_layout</text>
<text text-anchor="start" x="558" y="-654.3" font-family="Times,serif" font-size="14.00">check_admin</text>
<text text-anchor="start" x="558" y="-639.3" font-family="Times,serif" font-size="14.00">project_params</text>
<text text-anchor="start" x="558" y="-624.3" font-family="Times,serif" font-size="14.00">set_project</text>
</g>
<!-- RegistrationsController -->
<g id="node12" class="node"><title>RegistrationsController</title>
<path fill="none" stroke="black" d="M12,-264.5C12,-264.5 174,-264.5 174,-264.5 180,-264.5 186,-270.5 186,-276.5 186,-276.5 186,-345.5 186,-345.5 186,-351.5 180,-357.5 174,-357.5 174,-357.5 12,-357.5 12,-357.5 6,-357.5 -2.84217e-14,-351.5 -2.84217e-14,-345.5 -2.84217e-14,-345.5 -2.84217e-14,-276.5 -2.84217e-14,-276.5 -2.84217e-14,-270.5 6,-264.5 12,-264.5"/>
<text text-anchor="middle" x="93" y="-342.3" font-family="Times,serif" font-size="14.00">RegistrationsController</text>
<polyline fill="none" stroke="black" points="-2.84217e-14,-334.5 186,-334.5 "/>
<polyline fill="none" stroke="black" points="-2.84217e-14,-310.5 186,-310.5 "/>
<text text-anchor="start" x="8" y="-295.3" font-family="Times,serif" font-size="14.00">update_resource</text>
<polyline fill="none" stroke="black" points="-2.84217e-14,-287.5 186,-287.5 "/>
<text text-anchor="start" x="8" y="-272.3" font-family="Times,serif" font-size="14.00">_layout</text>
</g>
<!-- Users::OmniauthCallbacksController -->
<g id="node13" class="node"><title>Users::OmniauthCallbacksController</title>
<path fill="none" stroke="black" d="M34,-88.5C34,-88.5 291,-88.5 291,-88.5 297,-88.5 303,-94.5 303,-100.5 303,-100.5 303,-184.5 303,-184.5 303,-190.5 297,-196.5 291,-196.5 291,-196.5 34,-196.5 34,-196.5 28,-196.5 22,-190.5 22,-184.5 22,-184.5 22,-100.5 22,-100.5 22,-94.5 28,-88.5 34,-88.5"/>
<text text-anchor="middle" x="162.5" y="-181.3" font-family="Times,serif" font-size="14.00">Users::OmniauthCallbacksController</text>
<polyline fill="none" stroke="black" points="22,-173.5 303,-173.5 "/>
<text text-anchor="start" x="30" y="-158.3" font-family="Times,serif" font-size="14.00">failure</text>
<text text-anchor="start" x="30" y="-143.3" font-family="Times,serif" font-size="14.00">google_oauth2</text>
<polyline fill="none" stroke="black" points="22,-135.5 303,-135.5 "/>
<polyline fill="none" stroke="black" points="22,-111.5 303,-111.5 "/>
<text text-anchor="start" x="30" y="-96.3" font-family="Times,serif" font-size="14.00">_layout</text>
</g>
</g>
</svg>
