<?xml version="1.0" encoding="UTF-8" standalone="no"?>
<!DOCTYPE svg PUBLIC "-//W3C//DTD SVG 1.1//EN"
 "http://www.w3.org/Graphics/SVG/1.1/DTD/svg11.dtd">
<!-- Generated by graphviz version 2.40.1 (20161225.0304)
 -->
<!-- Title: controllers_diagram Pages: 1 -->
<svg width="1052pt" height="1037pt"
 viewBox="0.00 0.00 1052.17 1037.00" xmlns="http://www.w3.org/2000/svg" xmlns:xlink="http://www.w3.org/1999/xlink">
<g id="graph0" class="graph" transform="scale(1 1) rotate(0) translate(4 1033)">
<title>controllers_diagram</title>
<polygon fill="transparent" stroke="transparent" points="-4,4 -4,-1033 1048.1729,-1033 1048.1729,4 -4,4"/>
<!-- _diagram_info -->
<g id="node1" class="node">
<title>_diagram_info</title>
<text text-anchor="start" x="449" y="-121.6" font-family="Times,serif" font-size="13.00" fill="#000000">Controllers diagram</text>
<text text-anchor="start" x="449" y="-108.6" font-family="Times,serif" font-size="13.00" fill="#000000">Date: Feb 02 2019 &#45; 17:46</text>
<text text-anchor="start" x="449" y="-95.6" font-family="Times,serif" font-size="13.00" fill="#000000">Migration version: 20190113055316</text>
<text text-anchor="start" x="449" y="-82.6" font-family="Times,serif" font-size="13.00" fill="#000000">Generated by RailRoady 1.5.3</text>
<text text-anchor="start" x="449" y="-69.6" font-family="Times,serif" font-size="13.00" fill="#000000">http://railroady.prestonlee.com</text>
</g>
<!-- ApplicationController -->
<g id="node2" class="node">
<title>ApplicationController</title>
<path fill="none" stroke="#000000" d="M12,-924.5C12,-924.5 185.9316,-924.5 185.9316,-924.5 191.9316,-924.5 197.9316,-930.5 197.9316,-936.5 197.9316,-936.5 197.9316,-1016.5 197.9316,-1016.5 197.9316,-1022.5 191.9316,-1028.5 185.9316,-1028.5 185.9316,-1028.5 12,-1028.5 12,-1028.5 6,-1028.5 0,-1022.5 0,-1016.5 0,-1016.5 0,-936.5 0,-936.5 0,-930.5 6,-924.5 12,-924.5"/>
<text text-anchor="middle" x="98.9658" y="-1013.3" font-family="Times,serif" font-size="14.00" fill="#000000">ApplicationController</text>
<polyline fill="none" stroke="#000000" points="0,-1006.5 197.9316,-1006.5 "/>
<polyline fill="none" stroke="#000000" points="0,-982.5 197.9316,-982.5 "/>
<text text-anchor="start" x="8" y="-967.3" font-family="Times,serif" font-size="14.00" fill="#000000">configure_permitted_parameters</text>
<text text-anchor="start" x="8" y="-953.3" font-family="Times,serif" font-size="14.00" fill="#000000">set_locale</text>
<polyline fill="none" stroke="#000000" points="0,-946.5 197.9316,-946.5 "/>
<text text-anchor="start" x="8" y="-931.3" font-family="Times,serif" font-size="14.00" fill="#000000">_layout</text>
</g>
<!-- SchoolsController -->
<g id="node3" class="node">
<title>SchoolsController</title>
<path fill="none" stroke="#000000" d="M117,-147.5C117,-147.5 210.8828,-147.5 210.8828,-147.5 216.8828,-147.5 222.8828,-153.5 222.8828,-159.5 222.8828,-159.5 222.8828,-351.5 222.8828,-351.5 222.8828,-357.5 216.8828,-363.5 210.8828,-363.5 210.8828,-363.5 117,-363.5 117,-363.5 111,-363.5 105,-357.5 105,-351.5 105,-351.5 105,-159.5 105,-159.5 105,-153.5 111,-147.5 117,-147.5"/>
<text text-anchor="middle" x="163.9414" y="-348.3" font-family="Times,serif" font-size="14.00" fill="#000000">SchoolsController</text>
<polyline fill="none" stroke="#000000" points="105,-341.5 222.8828,-341.5 "/>
<text text-anchor="start" x="113" y="-326.3" font-family="Times,serif" font-size="14.00" fill="#000000">create</text>
<text text-anchor="start" x="113" y="-312.3" font-family="Times,serif" font-size="14.00" fill="#000000">destroy</text>
<text text-anchor="start" x="113" y="-298.3" font-family="Times,serif" font-size="14.00" fill="#000000">edit</text>
<text text-anchor="start" x="113" y="-284.3" font-family="Times,serif" font-size="14.00" fill="#000000">index</text>
<text text-anchor="start" x="113" y="-270.3" font-family="Times,serif" font-size="14.00" fill="#000000">new</text>
<text text-anchor="start" x="113" y="-256.3" font-family="Times,serif" font-size="14.00" fill="#000000">show</text>
<text text-anchor="start" x="113" y="-242.3" font-family="Times,serif" font-size="14.00" fill="#000000">update</text>
<polyline fill="none" stroke="#000000" points="105,-235.5 222.8828,-235.5 "/>
<polyline fill="none" stroke="#000000" points="105,-211.5 222.8828,-211.5 "/>
<text text-anchor="start" x="113" y="-196.3" font-family="Times,serif" font-size="14.00" fill="#000000">_layout</text>
<text text-anchor="start" x="113" y="-182.3" font-family="Times,serif" font-size="14.00" fill="#000000">check_admin</text>
<text text-anchor="start" x="113" y="-168.3" font-family="Times,serif" font-size="14.00" fill="#000000">school_params</text>
<text text-anchor="start" x="113" y="-154.3" font-family="Times,serif" font-size="14.00" fill="#000000">set_school</text>
</g>
<!-- ExperiencesController -->
<g id="node4" class="node">
<title>ExperiencesController</title>
<path fill="none" stroke="#000000" d="M411,-672.5C411,-672.5 528.9521,-672.5 528.9521,-672.5 534.9521,-672.5 540.9521,-678.5 540.9521,-684.5 540.9521,-684.5 540.9521,-974.5 540.9521,-974.5 540.9521,-980.5 534.9521,-986.5 528.9521,-986.5 528.9521,-986.5 411,-986.5 411,-986.5 405,-986.5 399,-980.5 399,-974.5 399,-974.5 399,-684.5 399,-684.5 399,-678.5 405,-672.5 411,-672.5"/>
<text text-anchor="middle" x="469.9761" y="-971.3" font-family="Times,serif" font-size="14.00" fill="#000000">ExperiencesController</text>
<polyline fill="none" stroke="#000000" points="399,-964.5 540.9521,-964.5 "/>
<text text-anchor="start" x="407" y="-949.3" font-family="Times,serif" font-size="14.00" fill="#000000">update</text>
<text text-anchor="start" x="407" y="-935.3" font-family="Times,serif" font-size="14.00" fill="#000000">create</text>
<text text-anchor="start" x="407" y="-921.3" font-family="Times,serif" font-size="14.00" fill="#000000">destroy</text>
<text text-anchor="start" x="407" y="-907.3" font-family="Times,serif" font-size="14.00" fill="#000000">diagnose</text>
<text text-anchor="start" x="407" y="-893.3" font-family="Times,serif" font-size="14.00" fill="#000000">edit</text>
<text text-anchor="start" x="407" y="-879.3" font-family="Times,serif" font-size="14.00" fill="#000000">index</text>
<text text-anchor="start" x="407" y="-865.3" font-family="Times,serif" font-size="14.00" fill="#000000">new</text>
<text text-anchor="start" x="407" y="-851.3" font-family="Times,serif" font-size="14.00" fill="#000000">next</text>
<text text-anchor="start" x="407" y="-837.3" font-family="Times,serif" font-size="14.00" fill="#000000">react</text>
<text text-anchor="start" x="407" y="-823.3" font-family="Times,serif" font-size="14.00" fill="#000000">show</text>
<text text-anchor="start" x="407" y="-809.3" font-family="Times,serif" font-size="14.00" fill="#000000">activate</text>
<polyline fill="none" stroke="#000000" points="399,-802.5 540.9521,-802.5 "/>
<polyline fill="none" stroke="#000000" points="399,-778.5 540.9521,-778.5 "/>
<text text-anchor="start" x="407" y="-763.3" font-family="Times,serif" font-size="14.00" fill="#000000">_layout</text>
<text text-anchor="start" x="407" y="-749.3" font-family="Times,serif" font-size="14.00" fill="#000000">check_editor</text>
<text text-anchor="start" x="407" y="-735.3" font-family="Times,serif" font-size="14.00" fill="#000000">check_viewer</text>
<text text-anchor="start" x="407" y="-721.3" font-family="Times,serif" font-size="14.00" fill="#000000">diagnosis_params</text>
<text text-anchor="start" x="407" y="-707.3" font-family="Times,serif" font-size="14.00" fill="#000000">experience_params</text>
<text text-anchor="start" x="407" y="-693.3" font-family="Times,serif" font-size="14.00" fill="#000000">reaction_params</text>
<text text-anchor="start" x="407" y="-679.3" font-family="Times,serif" font-size="14.00" fill="#000000">set_experience</text>
</g>
<!-- BingoBoardsController -->
<g id="node5" class="node">
<title>BingoBoardsController</title>
<path fill="none" stroke="#000000" d="M705,-735.5C705,-735.5 846.2969,-735.5 846.2969,-735.5 852.2969,-735.5 858.2969,-741.5 858.2969,-747.5 858.2969,-747.5 858.2969,-981.5 858.2969,-981.5 858.2969,-987.5 852.2969,-993.5 846.2969,-993.5 846.2969,-993.5 705,-993.5 705,-993.5 699,-993.5 693,-987.5 693,-981.5 693,-981.5 693,-747.5 693,-747.5 693,-741.5 699,-735.5 705,-735.5"/>
<text text-anchor="middle" x="775.6484" y="-978.3" font-family="Times,serif" font-size="14.00" fill="#000000">BingoBoardsController</text>
<polyline fill="none" stroke="#000000" points="693,-971.5 858.2969,-971.5 "/>
<text text-anchor="start" x="701" y="-956.3" font-family="Times,serif" font-size="14.00" fill="#000000">verify_win</text>
<text text-anchor="start" x="701" y="-942.3" font-family="Times,serif" font-size="14.00" fill="#000000">board_for_game_demo</text>
<text text-anchor="start" x="701" y="-928.3" font-family="Times,serif" font-size="14.00" fill="#000000">board_for_game_helper</text>
<text text-anchor="start" x="701" y="-914.3" font-family="Times,serif" font-size="14.00" fill="#000000">index</text>
<text text-anchor="start" x="701" y="-900.3" font-family="Times,serif" font-size="14.00" fill="#000000">play_board</text>
<text text-anchor="start" x="701" y="-886.3" font-family="Times,serif" font-size="14.00" fill="#000000">show</text>
<text text-anchor="start" x="701" y="-872.3" font-family="Times,serif" font-size="14.00" fill="#000000">update</text>
<text text-anchor="start" x="701" y="-858.3" font-family="Times,serif" font-size="14.00" fill="#000000">update_demo</text>
<text text-anchor="start" x="701" y="-844.3" font-family="Times,serif" font-size="14.00" fill="#000000">update_responder</text>
<text text-anchor="start" x="701" y="-830.3" font-family="Times,serif" font-size="14.00" fill="#000000">board_for_game</text>
<polyline fill="none" stroke="#000000" points="693,-823.5 858.2969,-823.5 "/>
<polyline fill="none" stroke="#000000" points="693,-799.5 858.2969,-799.5 "/>
<text text-anchor="start" x="701" y="-784.3" font-family="Times,serif" font-size="14.00" fill="#000000">_layout</text>
<text text-anchor="start" x="701" y="-770.3" font-family="Times,serif" font-size="14.00" fill="#000000">bingo_board_params</text>
<text text-anchor="start" x="701" y="-756.3" font-family="Times,serif" font-size="14.00" fill="#000000">play_bingo_board_params</text>
<text text-anchor="start" x="701" y="-742.3" font-family="Times,serif" font-size="14.00" fill="#000000">set_bingo_board</text>
</g>
<!-- GraphingController -->
<g id="node6" class="node">
<title>GraphingController</title>
<path fill="none" stroke="#000000" d="M915,-882.5C915,-882.5 1017.4209,-882.5 1017.4209,-882.5 1023.4209,-882.5 1029.4209,-888.5 1029.4209,-894.5 1029.4209,-894.5 1029.4209,-1016.5 1029.4209,-1016.5 1029.4209,-1022.5 1023.4209,-1028.5 1017.4209,-1028.5 1017.4209,-1028.5 915,-1028.5 915,-1028.5 909,-1028.5 903,-1022.5 903,-1016.5 903,-1016.5 903,-894.5 903,-894.5 903,-888.5 909,-882.5 915,-882.5"/>
<text text-anchor="middle" x="966.2104" y="-1013.3" font-family="Times,serif" font-size="14.00" fill="#000000">GraphingController</text>
<polyline fill="none" stroke="#000000" points="903,-1006.5 1029.4209,-1006.5 "/>
<text text-anchor="start" x="911" y="-991.3" font-family="Times,serif" font-size="14.00" fill="#000000">data</text>
<text text-anchor="start" x="911" y="-977.3" font-family="Times,serif" font-size="14.00" fill="#000000">index</text>
<text text-anchor="start" x="911" y="-963.3" font-family="Times,serif" font-size="14.00" fill="#000000">projects</text>
<text text-anchor="start" x="911" y="-949.3" font-family="Times,serif" font-size="14.00" fill="#000000">raw_data</text>
<text text-anchor="start" x="911" y="-935.3" font-family="Times,serif" font-size="14.00" fill="#000000">subjects</text>
<polyline fill="none" stroke="#000000" points="903,-928.5 1029.4209,-928.5 "/>
<polyline fill="none" stroke="#000000" points="903,-904.5 1029.4209,-904.5 "/>
<text text-anchor="start" x="911" y="-889.3" font-family="Times,serif" font-size="14.00" fill="#000000">_layout</text>
</g>
<!-- InstallmentsController -->
<g id="node7" class="node">
<title>InstallmentsController</title>
<path fill="none" stroke="#000000" d="M264,-105.5C264,-105.5 381.9795,-105.5 381.9795,-105.5 387.9795,-105.5 393.9795,-111.5 393.9795,-117.5 393.9795,-117.5 393.9795,-253.5 393.9795,-253.5 393.9795,-259.5 387.9795,-265.5 381.9795,-265.5 381.9795,-265.5 264,-265.5 264,-265.5 258,-265.5 252,-259.5 252,-253.5 252,-253.5 252,-117.5 252,-117.5 252,-111.5 258,-105.5 264,-105.5"/>
<text text-anchor="middle" x="322.9897" y="-250.3" font-family="Times,serif" font-size="14.00" fill="#000000">InstallmentsController</text>
<polyline fill="none" stroke="#000000" points="252,-243.5 393.9795,-243.5 "/>
<text text-anchor="start" x="260" y="-228.3" font-family="Times,serif" font-size="14.00" fill="#000000">create</text>
<text text-anchor="start" x="260" y="-214.3" font-family="Times,serif" font-size="14.00" fill="#000000">demo_complete</text>
<text text-anchor="start" x="260" y="-200.3" font-family="Times,serif" font-size="14.00" fill="#000000">edit</text>
<text text-anchor="start" x="260" y="-186.3" font-family="Times,serif" font-size="14.00" fill="#000000">new</text>
<text text-anchor="start" x="260" y="-172.3" font-family="Times,serif" font-size="14.00" fill="#000000">update</text>
<polyline fill="none" stroke="#000000" points="252,-165.5 393.9795,-165.5 "/>
<polyline fill="none" stroke="#000000" points="252,-141.5 393.9795,-141.5 "/>
<text text-anchor="start" x="260" y="-126.3" font-family="Times,serif" font-size="14.00" fill="#000000">_layout</text>
<text text-anchor="start" x="260" y="-112.3" font-family="Times,serif" font-size="14.00" fill="#000000">i_params</text>
</g>
<!-- ConceptsController -->
<g id="node8" class="node">
<title>ConceptsController</title>
<path fill="none" stroke="#000000" d="M138,-399.5C138,-399.5 277.7246,-399.5 277.7246,-399.5 283.7246,-399.5 289.7246,-405.5 289.7246,-411.5 289.7246,-411.5 289.7246,-631.5 289.7246,-631.5 289.7246,-637.5 283.7246,-643.5 277.7246,-643.5 277.7246,-643.5 138,-643.5 138,-643.5 132,-643.5 126,-637.5 126,-631.5 126,-631.5 126,-411.5 126,-411.5 126,-405.5 132,-399.5 138,-399.5"/>
<text text-anchor="middle" x="207.8623" y="-628.3" font-family="Times,serif" font-size="14.00" fill="#000000">ConceptsController</text>
<polyline fill="none" stroke="#000000" points="126,-621.5 289.7246,-621.5 "/>
<text text-anchor="start" x="134" y="-606.3" font-family="Times,serif" font-size="14.00" fill="#000000">update</text>
<text text-anchor="start" x="134" y="-592.3" font-family="Times,serif" font-size="14.00" fill="#000000">concepts_for_game_demo</text>
<text text-anchor="start" x="134" y="-578.3" font-family="Times,serif" font-size="14.00" fill="#000000">create</text>
<text text-anchor="start" x="134" y="-564.3" font-family="Times,serif" font-size="14.00" fill="#000000">destroy</text>
<text text-anchor="start" x="134" y="-550.3" font-family="Times,serif" font-size="14.00" fill="#000000">edit</text>
<text text-anchor="start" x="134" y="-536.3" font-family="Times,serif" font-size="14.00" fill="#000000">index</text>
<text text-anchor="start" x="134" y="-522.3" font-family="Times,serif" font-size="14.00" fill="#000000">new</text>
<text text-anchor="start" x="134" y="-508.3" font-family="Times,serif" font-size="14.00" fill="#000000">show</text>
<text text-anchor="start" x="134" y="-494.3" font-family="Times,serif" font-size="14.00" fill="#000000">concepts_for_game</text>
<polyline fill="none" stroke="#000000" points="126,-487.5 289.7246,-487.5 "/>
<polyline fill="none" stroke="#000000" points="126,-463.5 289.7246,-463.5 "/>
<text text-anchor="start" x="134" y="-448.3" font-family="Times,serif" font-size="14.00" fill="#000000">_layout</text>
<text text-anchor="start" x="134" y="-434.3" font-family="Times,serif" font-size="14.00" fill="#000000">check_admin</text>
<text text-anchor="start" x="134" y="-420.3" font-family="Times,serif" font-size="14.00" fill="#000000">concept_params</text>
<text text-anchor="start" x="134" y="-406.3" font-family="Times,serif" font-size="14.00" fill="#000000">set_concept</text>
</g>
<!-- CoursesController -->
<g id="node9" class="node">
<title>CoursesController</title>
<path fill="none" stroke="#000000" d="M600,-336.5C600,-336.5 704.7383,-336.5 704.7383,-336.5 710.7383,-336.5 716.7383,-342.5 716.7383,-348.5 716.7383,-348.5 716.7383,-680.5 716.7383,-680.5 716.7383,-686.5 710.7383,-692.5 704.7383,-692.5 704.7383,-692.5 600,-692.5 600,-692.5 594,-692.5 588,-686.5 588,-680.5 588,-680.5 588,-348.5 588,-348.5 588,-342.5 594,-336.5 600,-336.5"/>
<text text-anchor="middle" x="652.3691" y="-677.3" font-family="Times,serif" font-size="14.00" fill="#000000">CoursesController</text>
<polyline fill="none" stroke="#000000" points="588,-670.5 716.7383,-670.5 "/>
<text text-anchor="start" x="596" y="-655.3" font-family="Times,serif" font-size="14.00" fill="#000000">update</text>
<text text-anchor="start" x="596" y="-641.3" font-family="Times,serif" font-size="14.00" fill="#000000">add_instructors</text>
<text text-anchor="start" x="596" y="-627.3" font-family="Times,serif" font-size="14.00" fill="#000000">add_students</text>
<text text-anchor="start" x="596" y="-613.3" font-family="Times,serif" font-size="14.00" fill="#000000">create</text>
<text text-anchor="start" x="596" y="-599.3" font-family="Times,serif" font-size="14.00" fill="#000000">decline_roster</text>
<text text-anchor="start" x="596" y="-585.3" font-family="Times,serif" font-size="14.00" fill="#000000">destroy</text>
<text text-anchor="start" x="596" y="-571.3" font-family="Times,serif" font-size="14.00" fill="#000000">drop_student</text>
<text text-anchor="start" x="596" y="-557.3" font-family="Times,serif" font-size="14.00" fill="#000000">edit</text>
<text text-anchor="start" x="596" y="-543.3" font-family="Times,serif" font-size="14.00" fill="#000000">index</text>
<text text-anchor="start" x="596" y="-529.3" font-family="Times,serif" font-size="14.00" fill="#000000">new</text>
<text text-anchor="start" x="596" y="-515.3" font-family="Times,serif" font-size="14.00" fill="#000000">new_from_template</text>
<text text-anchor="start" x="596" y="-501.3" font-family="Times,serif" font-size="14.00" fill="#000000">re_invite_student</text>
<text text-anchor="start" x="596" y="-487.3" font-family="Times,serif" font-size="14.00" fill="#000000">remove_instructor</text>
<text text-anchor="start" x="596" y="-473.3" font-family="Times,serif" font-size="14.00" fill="#000000">show</text>
<text text-anchor="start" x="596" y="-459.3" font-family="Times,serif" font-size="14.00" fill="#000000">accept_roster</text>
<polyline fill="none" stroke="#000000" points="588,-452.5 716.7383,-452.5 "/>
<polyline fill="none" stroke="#000000" points="588,-428.5 716.7383,-428.5 "/>
<text text-anchor="start" x="596" y="-413.3" font-family="Times,serif" font-size="14.00" fill="#000000">_layout</text>
<text text-anchor="start" x="596" y="-399.3" font-family="Times,serif" font-size="14.00" fill="#000000">check_admin</text>
<text text-anchor="start" x="596" y="-385.3" font-family="Times,serif" font-size="14.00" fill="#000000">check_editor</text>
<text text-anchor="start" x="596" y="-371.3" font-family="Times,serif" font-size="14.00" fill="#000000">check_viewer</text>
<text text-anchor="start" x="596" y="-357.3" font-family="Times,serif" font-size="14.00" fill="#000000">course_params</text>
<text text-anchor="start" x="596" y="-343.3" font-family="Times,serif" font-size="14.00" fill="#000000">set_course</text>
</g>
<!-- CandidateListsController -->
<g id="node10" class="node">
<title>CandidateListsController</title>
<path fill="none" stroke="#000000" d="M768,-168.5C768,-168.5 921.5059,-168.5 921.5059,-168.5 927.5059,-168.5 933.5059,-174.5 933.5059,-180.5 933.5059,-180.5 933.5059,-384.5 933.5059,-384.5 933.5059,-390.5 927.5059,-396.5 921.5059,-396.5 921.5059,-396.5 768,-396.5 768,-396.5 762,-396.5 756,-390.5 756,-384.5 756,-384.5 756,-180.5 756,-180.5 756,-174.5 762,-168.5 768,-168.5"/>
<text text-anchor="middle" x="844.7529" y="-381.3" font-family="Times,serif" font-size="14.00" fill="#000000">CandidateListsController</text>
<polyline fill="none" stroke="#000000" points="756,-374.5 933.5059,-374.5 "/>
<text text-anchor="start" x="764" y="-359.3" font-family="Times,serif" font-size="14.00" fill="#000000">update</text>
<text text-anchor="start" x="764" y="-345.3" font-family="Times,serif" font-size="14.00" fill="#000000">demo_entry</text>
<text text-anchor="start" x="764" y="-331.3" font-family="Times,serif" font-size="14.00" fill="#000000">demo_play</text>
<text text-anchor="start" x="764" y="-317.3" font-family="Times,serif" font-size="14.00" fill="#000000">edit</text>
<text text-anchor="start" x="764" y="-303.3" font-family="Times,serif" font-size="14.00" fill="#000000">list_stats</text>
<text text-anchor="start" x="764" y="-289.3" font-family="Times,serif" font-size="14.00" fill="#000000">request_collaboration</text>
<text text-anchor="start" x="764" y="-275.3" font-family="Times,serif" font-size="14.00" fill="#000000">show</text>
<text text-anchor="start" x="764" y="-261.3" font-family="Times,serif" font-size="14.00" fill="#000000">create</text>
<polyline fill="none" stroke="#000000" points="756,-254.5 933.5059,-254.5 "/>
<text text-anchor="start" x="764" y="-239.3" font-family="Times,serif" font-size="14.00" fill="#000000">merge_to_group_list</text>
<polyline fill="none" stroke="#000000" points="756,-232.5 933.5059,-232.5 "/>
<text text-anchor="start" x="764" y="-217.3" font-family="Times,serif" font-size="14.00" fill="#000000">_layout</text>
<text text-anchor="start" x="764" y="-203.3" font-family="Times,serif" font-size="14.00" fill="#000000">candidate_list_params</text>
<text text-anchor="start" x="764" y="-189.3" font-family="Times,serif" font-size="14.00" fill="#000000">merge_individuals_to_group</text>
<text text-anchor="start" x="764" y="-175.3" font-family="Times,serif" font-size="14.00" fill="#000000">set_candidate_list</text>
</g>
<!-- HomeController -->
<g id="node11" class="node">
<title>HomeController</title>
<path fill="none" stroke="#000000" d="M915,-693.5C915,-693.5 1032.1729,-693.5 1032.1729,-693.5 1038.1729,-693.5 1044.1729,-699.5 1044.1729,-705.5 1044.1729,-705.5 1044.1729,-827.5 1044.1729,-827.5 1044.1729,-833.5 1038.1729,-839.5 1032.1729,-839.5 1032.1729,-839.5 915,-839.5 915,-839.5 909,-839.5 903,-833.5 903,-827.5 903,-827.5 903,-705.5 903,-705.5 903,-699.5 909,-693.5 915,-693.5"/>
<text text-anchor="middle" x="973.5864" y="-824.3" font-family="Times,serif" font-size="14.00" fill="#000000">HomeController</text>
<polyline fill="none" stroke="#000000" points="903,-817.5 1044.1729,-817.5 "/>
<text text-anchor="start" x="911" y="-802.3" font-family="Times,serif" font-size="14.00" fill="#000000">check_diversity_score</text>
<text text-anchor="start" x="911" y="-788.3" font-family="Times,serif" font-size="14.00" fill="#000000">demo_start</text>
<text text-anchor="start" x="911" y="-774.3" font-family="Times,serif" font-size="14.00" fill="#000000">get_quote</text>
<text text-anchor="start" x="911" y="-760.3" font-family="Times,serif" font-size="14.00" fill="#000000">index</text>
<text text-anchor="start" x="911" y="-746.3" font-family="Times,serif" font-size="14.00" fill="#000000">states_for_country</text>
<polyline fill="none" stroke="#000000" points="903,-739.5 1044.1729,-739.5 "/>
<polyline fill="none" stroke="#000000" points="903,-715.5 1044.1729,-715.5 "/>
<text text-anchor="start" x="911" y="-700.3" font-family="Times,serif" font-size="14.00" fill="#000000">_layout</text>
</g>
<!-- Users::OmniauthCallbacksController -->
<g id="node12" class="node">
<title>Users::OmniauthCallbacksController</title>
<path fill="none" stroke="#000000" d="M453,-168.5C453,-168.5 653.4072,-168.5 653.4072,-168.5 659.4072,-168.5 665.4072,-174.5 665.4072,-180.5 665.4072,-180.5 665.4072,-260.5 665.4072,-260.5 665.4072,-266.5 659.4072,-272.5 653.4072,-272.5 653.4072,-272.5 453,-272.5 453,-272.5 447,-272.5 441,-266.5 441,-260.5 441,-260.5 441,-180.5 441,-180.5 441,-174.5 447,-168.5 453,-168.5"/>
<text text-anchor="middle" x="553.2036" y="-257.3" font-family="Times,serif" font-size="14.00" fill="#000000">Users::OmniauthCallbacksController</text>
<polyline fill="none" stroke="#000000" points="441,-250.5 665.4072,-250.5 "/>
<text text-anchor="start" x="449" y="-235.3" font-family="Times,serif" font-size="14.00" fill="#000000">failure</text>
<text text-anchor="start" x="449" y="-221.3" font-family="Times,serif" font-size="14.00" fill="#000000">google_oauth2</text>
<polyline fill="none" stroke="#000000" points="441,-214.5 665.4072,-214.5 "/>
<polyline fill="none" stroke="#000000" points="441,-190.5 665.4072,-190.5 "/>
<text text-anchor="start" x="449" y="-175.3" font-family="Times,serif" font-size="14.00" fill="#000000">_layout</text>
</g>
<!-- ConsentFormsController -->
<g id="node13" class="node">
<title>ConsentFormsController</title>
<path fill="none" stroke="#000000" d="M768,-441.5C768,-441.5 899.2207,-441.5 899.2207,-441.5 905.2207,-441.5 911.2207,-447.5 911.2207,-453.5 911.2207,-453.5 911.2207,-631.5 911.2207,-631.5 911.2207,-637.5 905.2207,-643.5 899.2207,-643.5 899.2207,-643.5 768,-643.5 768,-643.5 762,-643.5 756,-637.5 756,-631.5 756,-631.5 756,-453.5 756,-453.5 756,-447.5 762,-441.5 768,-441.5"/>
<text text-anchor="middle" x="833.6104" y="-628.3" font-family="Times,serif" font-size="14.00" fill="#000000">ConsentFormsController</text>
<polyline fill="none" stroke="#000000" points="756,-621.5 911.2207,-621.5 "/>
<text text-anchor="start" x="764" y="-606.3" font-family="Times,serif" font-size="14.00" fill="#000000">create</text>
<text text-anchor="start" x="764" y="-592.3" font-family="Times,serif" font-size="14.00" fill="#000000">destroy</text>
<text text-anchor="start" x="764" y="-578.3" font-family="Times,serif" font-size="14.00" fill="#000000">edit</text>
<text text-anchor="start" x="764" y="-564.3" font-family="Times,serif" font-size="14.00" fill="#000000">index</text>
<text text-anchor="start" x="764" y="-550.3" font-family="Times,serif" font-size="14.00" fill="#000000">new</text>
<text text-anchor="start" x="764" y="-536.3" font-family="Times,serif" font-size="14.00" fill="#000000">show</text>
<text text-anchor="start" x="764" y="-522.3" font-family="Times,serif" font-size="14.00" fill="#000000">update</text>
<polyline fill="none" stroke="#000000" points="756,-515.5 911.2207,-515.5 "/>
<polyline fill="none" stroke="#000000" points="756,-491.5 911.2207,-491.5 "/>
<text text-anchor="start" x="764" y="-476.3" font-family="Times,serif" font-size="14.00" fill="#000000">_layout</text>
<text text-anchor="start" x="764" y="-462.3" font-family="Times,serif" font-size="14.00" fill="#000000">consent_form_params</text>
<text text-anchor="start" x="764" y="-448.3" font-family="Times,serif" font-size="14.00" fill="#000000">set_consent_form</text>
</g>
<!-- BingoGamesController -->
<g id="node14" class="node">
<title>BingoGamesController</title>
<path fill="none" stroke="#000000" d="M348,-315.5C348,-315.5 526.5938,-315.5 526.5938,-315.5 532.5938,-315.5 538.5938,-321.5 538.5938,-327.5 538.5938,-327.5 538.5938,-617.5 538.5938,-617.5 538.5938,-623.5 532.5938,-629.5 526.5938,-629.5 526.5938,-629.5 348,-629.5 348,-629.5 342,-629.5 336,-623.5 336,-617.5 336,-617.5 336,-327.5 336,-327.5 336,-321.5 342,-315.5 348,-315.5"/>
<text text-anchor="middle" x="437.2969" y="-614.3" font-family="Times,serif" font-size="14.00" fill="#000000">BingoGamesController</text>
<polyline fill="none" stroke="#000000" points="336,-607.5 538.5938,-607.5 "/>
<text text-anchor="start" x="344" y="-592.3" font-family="Times,serif" font-size="14.00" fill="#000000">update_review_candidates</text>
<text text-anchor="start" x="344" y="-578.3" font-family="Times,serif" font-size="14.00" fill="#000000">create</text>
<text text-anchor="start" x="344" y="-564.3" font-family="Times,serif" font-size="14.00" fill="#000000">demo_update_review_candidates</text>
<text text-anchor="start" x="344" y="-550.3" font-family="Times,serif" font-size="14.00" fill="#000000">destroy</text>
<text text-anchor="start" x="344" y="-536.3" font-family="Times,serif" font-size="14.00" fill="#000000">edit</text>
<text text-anchor="start" x="344" y="-522.3" font-family="Times,serif" font-size="14.00" fill="#000000">index</text>
<text text-anchor="start" x="344" y="-508.3" font-family="Times,serif" font-size="14.00" fill="#000000">new</text>
<text text-anchor="start" x="344" y="-494.3" font-family="Times,serif" font-size="14.00" fill="#000000">review_candidates</text>
<text text-anchor="start" x="344" y="-480.3" font-family="Times,serif" font-size="14.00" fill="#000000">review_candidates_demo</text>
<text text-anchor="start" x="344" y="-466.3" font-family="Times,serif" font-size="14.00" fill="#000000">review_helper</text>
<text text-anchor="start" x="344" y="-452.3" font-family="Times,serif" font-size="14.00" fill="#000000">show</text>
<text text-anchor="start" x="344" y="-438.3" font-family="Times,serif" font-size="14.00" fill="#000000">update</text>
<text text-anchor="start" x="344" y="-424.3" font-family="Times,serif" font-size="14.00" fill="#000000">activate</text>
<polyline fill="none" stroke="#000000" points="336,-417.5 538.5938,-417.5 "/>
<polyline fill="none" stroke="#000000" points="336,-393.5 538.5938,-393.5 "/>
<text text-anchor="start" x="344" y="-378.3" font-family="Times,serif" font-size="14.00" fill="#000000">_layout</text>
<text text-anchor="start" x="344" y="-364.3" font-family="Times,serif" font-size="14.00" fill="#000000">bingo_game_params</text>
<text text-anchor="start" x="344" y="-350.3" font-family="Times,serif" font-size="14.00" fill="#000000">check_editor</text>
<text text-anchor="start" x="344" y="-336.3" font-family="Times,serif" font-size="14.00" fill="#000000">check_viewer</text>
<text text-anchor="start" x="344" y="-322.3" font-family="Times,serif" font-size="14.00" fill="#000000">set_bingo_game</text>
</g>
<!-- ConsentLogsController -->
<g id="node15" class="node">
<title>ConsentLogsController</title>
<path fill="none" stroke="#000000" d="M705,-.5C705,-.5 828.4346,-.5 828.4346,-.5 834.4346,-.5 840.4346,-6.5 840.4346,-12.5 840.4346,-12.5 840.4346,-106.5 840.4346,-106.5 840.4346,-112.5 834.4346,-118.5 828.4346,-118.5 828.4346,-118.5 705,-118.5 705,-118.5 699,-118.5 693,-112.5 693,-106.5 693,-106.5 693,-12.5 693,-12.5 693,-6.5 699,-.5 705,-.5"/>
<text text-anchor="middle" x="766.7173" y="-103.3" font-family="Times,serif" font-size="14.00" fill="#000000">ConsentLogsController</text>
<polyline fill="none" stroke="#000000" points="693,-96.5 840.4346,-96.5 "/>
<text text-anchor="start" x="701" y="-81.3" font-family="Times,serif" font-size="14.00" fill="#000000">edit</text>
<text text-anchor="start" x="701" y="-67.3" font-family="Times,serif" font-size="14.00" fill="#000000">update</text>
<polyline fill="none" stroke="#000000" points="693,-60.5 840.4346,-60.5 "/>
<polyline fill="none" stroke="#000000" points="693,-36.5 840.4346,-36.5 "/>
<text text-anchor="start" x="701" y="-21.3" font-family="Times,serif" font-size="14.00" fill="#000000">_layout</text>
<text text-anchor="start" x="701" y="-7.3" font-family="Times,serif" font-size="14.00" fill="#000000">cl_params</text>
</g>
<!-- ProjectsController -->
<g id="node16" class="node">
<title>ProjectsController</title>
<path fill="none" stroke="#000000" d="M243,-693.5C243,-693.5 337.6484,-693.5 337.6484,-693.5 343.6484,-693.5 349.6484,-699.5 349.6484,-705.5 349.6484,-705.5 349.6484,-981.5 349.6484,-981.5 349.6484,-987.5 343.6484,-993.5 337.6484,-993.5 337.6484,-993.5 243,-993.5 243,-993.5 237,-993.5 231,-987.5 231,-981.5 231,-981.5 231,-705.5 231,-705.5 231,-699.5 237,-693.5 243,-693.5"/>
<text text-anchor="middle" x="290.3242" y="-978.3" font-family="Times,serif" font-size="14.00" fill="#000000">ProjectsController</text>
<polyline fill="none" stroke="#000000" points="231,-971.5 349.6484,-971.5 "/>
<text text-anchor="start" x="239" y="-956.3" font-family="Times,serif" font-size="14.00" fill="#000000">update</text>
<text text-anchor="start" x="239" y="-942.3" font-family="Times,serif" font-size="14.00" fill="#000000">add_group</text>
<text text-anchor="start" x="239" y="-928.3" font-family="Times,serif" font-size="14.00" fill="#000000">create</text>
<text text-anchor="start" x="239" y="-914.3" font-family="Times,serif" font-size="14.00" fill="#000000">destroy</text>
<text text-anchor="start" x="239" y="-900.3" font-family="Times,serif" font-size="14.00" fill="#000000">edit</text>
<text text-anchor="start" x="239" y="-886.3" font-family="Times,serif" font-size="14.00" fill="#000000">index</text>
<text text-anchor="start" x="239" y="-872.3" font-family="Times,serif" font-size="14.00" fill="#000000">new</text>
<text text-anchor="start" x="239" y="-858.3" font-family="Times,serif" font-size="14.00" fill="#000000">remove_group</text>
<text text-anchor="start" x="239" y="-844.3" font-family="Times,serif" font-size="14.00" fill="#000000">rescore_group</text>
<text text-anchor="start" x="239" y="-830.3" font-family="Times,serif" font-size="14.00" fill="#000000">rescore_groups</text>
<text text-anchor="start" x="239" y="-816.3" font-family="Times,serif" font-size="14.00" fill="#000000">show</text>
<text text-anchor="start" x="239" y="-802.3" font-family="Times,serif" font-size="14.00" fill="#000000">activate</text>
<polyline fill="none" stroke="#000000" points="231,-795.5 349.6484,-795.5 "/>
<polyline fill="none" stroke="#000000" points="231,-771.5 349.6484,-771.5 "/>
<text text-anchor="start" x="239" y="-756.3" font-family="Times,serif" font-size="14.00" fill="#000000">_layout</text>
<text text-anchor="start" x="239" y="-742.3" font-family="Times,serif" font-size="14.00" fill="#000000">check_editor</text>
<text text-anchor="start" x="239" y="-728.3" font-family="Times,serif" font-size="14.00" fill="#000000">check_viewer</text>
<text text-anchor="start" x="239" y="-714.3" font-family="Times,serif" font-size="14.00" fill="#000000">project_params</text>
<text text-anchor="start" x="239" y="-700.3" font-family="Times,serif" font-size="14.00" fill="#000000">set_project</text>
</g>
<!-- RegistrationsController -->
<g id="node17" class="node">
<title>RegistrationsController</title>
<path fill="none" stroke="#000000" d="M54,-735.5C54,-735.5 178.1865,-735.5 178.1865,-735.5 184.1865,-735.5 190.1865,-741.5 190.1865,-747.5 190.1865,-747.5 190.1865,-867.5 190.1865,-867.5 190.1865,-873.5 184.1865,-879.5 178.1865,-879.5 178.1865,-879.5 54,-879.5 54,-879.5 48,-879.5 42,-873.5 42,-867.5 42,-867.5 42,-747.5 42,-747.5 42,-741.5 48,-735.5 54,-735.5"/>
<text text-anchor="middle" x="116.0933" y="-864.3" font-family="Times,serif" font-size="14.00" fill="#000000">RegistrationsController</text>
<polyline fill="none" stroke="#000000" points="42,-857.5 190.1865,-857.5 "/>
<text text-anchor="start" x="50" y="-842.3" font-family="Times,serif" font-size="14.00" fill="#000000">add_email</text>
<text text-anchor="start" x="50" y="-828.3" font-family="Times,serif" font-size="14.00" fill="#000000">initiate_password_reset</text>
<text text-anchor="start" x="50" y="-814.3" font-family="Times,serif" font-size="14.00" fill="#000000">remove_email</text>
<text text-anchor="start" x="50" y="-800.3" font-family="Times,serif" font-size="14.00" fill="#000000">set_primary_email</text>
<polyline fill="none" stroke="#000000" points="42,-793.5 190.1865,-793.5 "/>
<text text-anchor="start" x="50" y="-778.3" font-family="Times,serif" font-size="14.00" fill="#000000">update_resource</text>
<polyline fill="none" stroke="#000000" points="42,-771.5 190.1865,-771.5 "/>
<text text-anchor="start" x="50" y="-756.3" font-family="Times,serif" font-size="14.00" fill="#000000">_layout</text>
<text text-anchor="start" x="50" y="-742.3" font-family="Times,serif" font-size="14.00" fill="#000000">set_email</text>
</g>
</g>
</svg>
