<?xml version="1.0" encoding="UTF-8" standalone="no"?>
<!DOCTYPE svg PUBLIC "-//W3C//DTD SVG 1.1//EN"
 "http://www.w3.org/Graphics/SVG/1.1/DTD/svg11.dtd">
<!-- Generated by graphviz version 2.38.0 (20140413.2041)
 -->
<!-- Title: controllers_diagram Pages: 1 -->
<svg width="779pt" height="784pt"
 viewBox="0.00 0.00 778.50 784.00" xmlns="http://www.w3.org/2000/svg" xmlns:xlink="http://www.w3.org/1999/xlink">
<g id="graph0" class="graph" transform="scale(1 1) rotate(0) translate(308 476)">
<title>controllers_diagram</title>
<polygon fill="none" stroke="none" points="-308,308 -308,-476 470.5,-476 470.5,308 -308,308"/>
<!-- _diagram_info -->
<g id="node1" class="node"><title>_diagram_info</title>
<text text-anchor="start" x="8" y="221.4" font-family="Times,serif" font-size="13.00">Controllers diagram</text>
<text text-anchor="start" x="8" y="235.4" font-family="Times,serif" font-size="13.00">Date: Apr 06 2017 &#45; 17:45</text>
<text text-anchor="start" x="8" y="249.4" font-family="Times,serif" font-size="13.00">Migration version: 20170406070715</text>
<text text-anchor="start" x="8" y="263.4" font-family="Times,serif" font-size="13.00">Generated by RailRoady 1.5.2</text>
<text text-anchor="start" x="8" y="277.4" font-family="Times,serif" font-size="13.00">http://railroady.prestonlee.com</text>
</g>
<!-- ProjectsController -->
<g id="node2" class="node"><title>ProjectsController</title>
<path fill="none" stroke="black" d="M-45,-190.5C-45,-190.5 47,-190.5 47,-190.5 53,-190.5 59,-196.5 59,-202.5 59,-202.5 59,-451.5 59,-451.5 59,-457.5 53,-463.5 47,-463.5 47,-463.5 -45,-463.5 -45,-463.5 -51,-463.5 -57,-457.5 -57,-451.5 -57,-451.5 -57,-202.5 -57,-202.5 -57,-196.5 -51,-190.5 -45,-190.5"/>
<text text-anchor="middle" x="1" y="-448.3" font-family="Times,serif" font-size="14.00">ProjectsController</text>
<polyline fill="none" stroke="black" points="-57,-440.5 59,-440.5 "/>
<text text-anchor="start" x="-49" y="-425.3" font-family="Times,serif" font-size="14.00">activate</text>
<text text-anchor="start" x="-49" y="-410.3" font-family="Times,serif" font-size="14.00">add_group</text>
<text text-anchor="start" x="-49" y="-395.3" font-family="Times,serif" font-size="14.00">create</text>
<text text-anchor="start" x="-49" y="-380.3" font-family="Times,serif" font-size="14.00">destroy</text>
<text text-anchor="start" x="-49" y="-365.3" font-family="Times,serif" font-size="14.00">edit</text>
<text text-anchor="start" x="-49" y="-350.3" font-family="Times,serif" font-size="14.00">index</text>
<text text-anchor="start" x="-49" y="-335.3" font-family="Times,serif" font-size="14.00">new</text>
<text text-anchor="start" x="-49" y="-320.3" font-family="Times,serif" font-size="14.00">remove_group</text>
<text text-anchor="start" x="-49" y="-305.3" font-family="Times,serif" font-size="14.00">show</text>
<text text-anchor="start" x="-49" y="-290.3" font-family="Times,serif" font-size="14.00">update</text>
<polyline fill="none" stroke="black" points="-57,-282.5 59,-282.5 "/>
<polyline fill="none" stroke="black" points="-57,-258.5 59,-258.5 "/>
<text text-anchor="start" x="-49" y="-243.3" font-family="Times,serif" font-size="14.00">_layout</text>
<text text-anchor="start" x="-49" y="-228.3" font-family="Times,serif" font-size="14.00">check_admin</text>
<text text-anchor="start" x="-49" y="-213.3" font-family="Times,serif" font-size="14.00">project_params</text>
<text text-anchor="start" x="-49" y="-198.3" font-family="Times,serif" font-size="14.00">set_project</text>
</g>
<!-- BingoGamesController -->
<g id="node3" class="node"><title>BingoGamesController</title>
<path fill="none" stroke="black" d="M-215.5,-228.5C-215.5,-228.5 -96.5,-228.5 -96.5,-228.5 -90.5,-228.5 -84.5,-234.5 -84.5,-240.5 -84.5,-240.5 -84.5,-459.5 -84.5,-459.5 -84.5,-465.5 -90.5,-471.5 -96.5,-471.5 -96.5,-471.5 -215.5,-471.5 -215.5,-471.5 -221.5,-471.5 -227.5,-465.5 -227.5,-459.5 -227.5,-459.5 -227.5,-240.5 -227.5,-240.5 -227.5,-234.5 -221.5,-228.5 -215.5,-228.5"/>
<text text-anchor="middle" x="-156" y="-456.3" font-family="Times,serif" font-size="14.00">BingoGamesController</text>
<polyline fill="none" stroke="black" points="-227.5,-448.5 -84.5,-448.5 "/>
<text text-anchor="start" x="-219.5" y="-433.3" font-family="Times,serif" font-size="14.00">activate</text>
<text text-anchor="start" x="-219.5" y="-418.3" font-family="Times,serif" font-size="14.00">create</text>
<text text-anchor="start" x="-219.5" y="-403.3" font-family="Times,serif" font-size="14.00">destroy</text>
<text text-anchor="start" x="-219.5" y="-388.3" font-family="Times,serif" font-size="14.00">edit</text>
<text text-anchor="start" x="-219.5" y="-373.3" font-family="Times,serif" font-size="14.00">index</text>
<text text-anchor="start" x="-219.5" y="-358.3" font-family="Times,serif" font-size="14.00">new</text>
<text text-anchor="start" x="-219.5" y="-343.3" font-family="Times,serif" font-size="14.00">show</text>
<text text-anchor="start" x="-219.5" y="-328.3" font-family="Times,serif" font-size="14.00">update</text>
<polyline fill="none" stroke="black" points="-227.5,-320.5 -84.5,-320.5 "/>
<polyline fill="none" stroke="black" points="-227.5,-296.5 -84.5,-296.5 "/>
<text text-anchor="start" x="-219.5" y="-281.3" font-family="Times,serif" font-size="14.00">_layout</text>
<text text-anchor="start" x="-219.5" y="-266.3" font-family="Times,serif" font-size="14.00">bingo_game_params</text>
<text text-anchor="start" x="-219.5" y="-251.3" font-family="Times,serif" font-size="14.00">check_admin</text>
<text text-anchor="start" x="-219.5" y="-236.3" font-family="Times,serif" font-size="14.00">set_bingo_game</text>
</g>
<!-- CandidateListsController -->
<g id="node4" class="node"><title>CandidateListsController</title>
<path fill="none" stroke="black" d="M259.5,38C259.5,38 408.5,38 408.5,38 414.5,38 420.5,32 420.5,26 420.5,26 420.5,-118 420.5,-118 420.5,-124 414.5,-130 408.5,-130 408.5,-130 259.5,-130 259.5,-130 253.5,-130 247.5,-124 247.5,-118 247.5,-118 247.5,26 247.5,26 247.5,32 253.5,38 259.5,38"/>
<text text-anchor="middle" x="334" y="-114.8" font-family="Times,serif" font-size="14.00">CandidateListsController</text>
<polyline fill="none" stroke="black" points="247.5,-107 420.5,-107 "/>
<text text-anchor="start" x="255.5" y="-91.8" font-family="Times,serif" font-size="14.00">edit</text>
<text text-anchor="start" x="255.5" y="-76.8" font-family="Times,serif" font-size="14.00">request_collaboration</text>
<text text-anchor="start" x="255.5" y="-61.8" font-family="Times,serif" font-size="14.00">update</text>
<polyline fill="none" stroke="black" points="247.5,-54 420.5,-54 "/>
<polyline fill="none" stroke="black" points="247.5,-30 420.5,-30 "/>
<text text-anchor="start" x="255.5" y="-14.8" font-family="Times,serif" font-size="14.00">_layout</text>
<text text-anchor="start" x="255.5" y="0.2" font-family="Times,serif" font-size="14.00">candidate_list_params</text>
<text text-anchor="start" x="255.5" y="15.2" font-family="Times,serif" font-size="14.00">merge_individuals_to_group</text>
<text text-anchor="start" x="255.5" y="30.2" font-family="Times,serif" font-size="14.00">set_candidate_list</text>
</g>
<!-- CoursesController -->
<g id="node5" class="node"><title>CoursesController</title>
<path fill="none" stroke="black" d="M107,94.5C107,94.5 199,94.5 199,94.5 205,94.5 211,88.5 211,82.5 211,82.5 211,-226.5 211,-226.5 211,-232.5 205,-238.5 199,-238.5 199,-238.5 107,-238.5 107,-238.5 101,-238.5 95,-232.5 95,-226.5 95,-226.5 95,82.5 95,82.5 95,88.5 101,94.5 107,94.5"/>
<text text-anchor="middle" x="153" y="-223.3" font-family="Times,serif" font-size="14.00">CoursesController</text>
<polyline fill="none" stroke="black" points="95,-215.5 211,-215.5 "/>
<text text-anchor="start" x="103" y="-200.3" font-family="Times,serif" font-size="14.00">accept_roster</text>
<text text-anchor="start" x="103" y="-185.3" font-family="Times,serif" font-size="14.00">add_instructors</text>
<text text-anchor="start" x="103" y="-170.3" font-family="Times,serif" font-size="14.00">add_students</text>
<text text-anchor="start" x="103" y="-155.3" font-family="Times,serif" font-size="14.00">create</text>
<text text-anchor="start" x="103" y="-140.3" font-family="Times,serif" font-size="14.00">decline_roster</text>
<text text-anchor="start" x="103" y="-125.3" font-family="Times,serif" font-size="14.00">destroy</text>
<text text-anchor="start" x="103" y="-110.3" font-family="Times,serif" font-size="14.00">drop_student</text>
<text text-anchor="start" x="103" y="-95.3" font-family="Times,serif" font-size="14.00">edit</text>
<text text-anchor="start" x="103" y="-80.3" font-family="Times,serif" font-size="14.00">index</text>
<text text-anchor="start" x="103" y="-65.3" font-family="Times,serif" font-size="14.00">new</text>
<text text-anchor="start" x="103" y="-50.3" font-family="Times,serif" font-size="14.00">re_invite_student</text>
<text text-anchor="start" x="103" y="-35.3" font-family="Times,serif" font-size="14.00">remove_instructor</text>
<text text-anchor="start" x="103" y="-20.3" font-family="Times,serif" font-size="14.00">show</text>
<text text-anchor="start" x="103" y="-5.3" font-family="Times,serif" font-size="14.00">update</text>
<polyline fill="none" stroke="black" points="95,2.5 211,2.5 "/>
<polyline fill="none" stroke="black" points="95,26.5 211,26.5 "/>
<text text-anchor="start" x="103" y="41.7" font-family="Times,serif" font-size="14.00">_layout</text>
<text text-anchor="start" x="103" y="56.7" font-family="Times,serif" font-size="14.00">check_admin</text>
<text text-anchor="start" x="103" y="71.7" font-family="Times,serif" font-size="14.00">course_params</text>
<text text-anchor="start" x="103" y="86.7" font-family="Times,serif" font-size="14.00">set_course</text>
</g>
<!-- ApplicationController -->
<g id="node6" class="node"><title>ApplicationController</title>
<path fill="none" stroke="black" d="M-292,151C-292,151 -122,151 -122,151 -116,151 -110,145 -110,139 -110,139 -110,55 -110,55 -110,49 -116,43 -122,43 -122,43 -292,43 -292,43 -298,43 -304,49 -304,55 -304,55 -304,139 -304,139 -304,145 -298,151 -292,151"/>
<text text-anchor="middle" x="-207" y="58.2" font-family="Times,serif" font-size="14.00">ApplicationController</text>
<polyline fill="none" stroke="black" points="-304,66 -110,66 "/>
<polyline fill="none" stroke="black" points="-304,90 -110,90 "/>
<text text-anchor="start" x="-296" y="105.2" font-family="Times,serif" font-size="14.00">configure_permitted_parameters</text>
<text text-anchor="start" x="-296" y="120.2" font-family="Times,serif" font-size="14.00">set_time_zone</text>
<polyline fill="none" stroke="black" points="-304,128 -110,128 "/>
<text text-anchor="start" x="-296" y="143.2" font-family="Times,serif" font-size="14.00">_layout</text>
</g>
<!-- RegistrationsController -->
<g id="node7" class="node"><title>RegistrationsController</title>
<path fill="none" stroke="black" d="M335.5,-323.5C335.5,-323.5 454.5,-323.5 454.5,-323.5 460.5,-323.5 466.5,-329.5 466.5,-335.5 466.5,-335.5 466.5,-404.5 466.5,-404.5 466.5,-410.5 460.5,-416.5 454.5,-416.5 454.5,-416.5 335.5,-416.5 335.5,-416.5 329.5,-416.5 323.5,-410.5 323.5,-404.5 323.5,-404.5 323.5,-335.5 323.5,-335.5 323.5,-329.5 329.5,-323.5 335.5,-323.5"/>
<text text-anchor="middle" x="395" y="-401.3" font-family="Times,serif" font-size="14.00">RegistrationsController</text>
<polyline fill="none" stroke="black" points="323.5,-393.5 466.5,-393.5 "/>
<polyline fill="none" stroke="black" points="323.5,-369.5 466.5,-369.5 "/>
<text text-anchor="start" x="331.5" y="-354.3" font-family="Times,serif" font-size="14.00">update_resource</text>
<polyline fill="none" stroke="black" points="323.5,-346.5 466.5,-346.5 "/>
<text text-anchor="start" x="331.5" y="-331.3" font-family="Times,serif" font-size="14.00">_layout</text>
</g>
<!-- ExperiencesController -->
<g id="node8" class="node"><title>ExperiencesController</title>
<path fill="none" stroke="black" d="M-64,170C-64,170 50,170 50,170 56,170 62,164 62,158 62,158 62,-136 62,-136 62,-142 56,-148 50,-148 50,-148 -64,-148 -64,-148 -70,-148 -76,-142 -76,-136 -76,-136 -76,158 -76,158 -76,164 -70,170 -64,170"/>
<text text-anchor="middle" x="-7" y="-132.8" font-family="Times,serif" font-size="14.00">ExperiencesController</text>
<polyline fill="none" stroke="black" points="-76,-125 62,-125 "/>
<text text-anchor="start" x="-68" y="-109.8" font-family="Times,serif" font-size="14.00">activate</text>
<text text-anchor="start" x="-68" y="-94.8" font-family="Times,serif" font-size="14.00">create</text>
<text text-anchor="start" x="-68" y="-79.8" font-family="Times,serif" font-size="14.00">destroy</text>
<text text-anchor="start" x="-68" y="-64.8" font-family="Times,serif" font-size="14.00">diagnose</text>
<text text-anchor="start" x="-68" y="-49.8" font-family="Times,serif" font-size="14.00">edit</text>
<text text-anchor="start" x="-68" y="-34.8" font-family="Times,serif" font-size="14.00">index</text>
<text text-anchor="start" x="-68" y="-19.8" font-family="Times,serif" font-size="14.00">new</text>
<text text-anchor="start" x="-68" y="-4.8" font-family="Times,serif" font-size="14.00">next</text>
<text text-anchor="start" x="-68" y="10.2" font-family="Times,serif" font-size="14.00">react</text>
<text text-anchor="start" x="-68" y="25.2" font-family="Times,serif" font-size="14.00">show</text>
<text text-anchor="start" x="-68" y="40.2" font-family="Times,serif" font-size="14.00">update</text>
<polyline fill="none" stroke="black" points="-76,48 62,48 "/>
<polyline fill="none" stroke="black" points="-76,72 62,72 "/>
<text text-anchor="start" x="-68" y="87.2" font-family="Times,serif" font-size="14.00">_layout</text>
<text text-anchor="start" x="-68" y="102.2" font-family="Times,serif" font-size="14.00">check_admin</text>
<text text-anchor="start" x="-68" y="117.2" font-family="Times,serif" font-size="14.00">diagnosis_params</text>
<text text-anchor="start" x="-68" y="132.2" font-family="Times,serif" font-size="14.00">experience_params</text>
<text text-anchor="start" x="-68" y="147.2" font-family="Times,serif" font-size="14.00">reaction_params</text>
<text text-anchor="start" x="-68" y="162.2" font-family="Times,serif" font-size="14.00">set_experience</text>
</g>
<!-- Users::OmniauthCallbacksController -->
<g id="node9" class="node"><title>Users::OmniauthCallbacksController</title>
<path fill="none" stroke="black" d="M259,-172C259,-172 453,-172 453,-172 459,-172 465,-178 465,-184 465,-184 465,-268 465,-268 465,-274 459,-280 453,-280 453,-280 259,-280 259,-280 253,-280 247,-274 247,-268 247,-268 247,-184 247,-184 247,-178 253,-172 259,-172"/>
<text text-anchor="middle" x="356" y="-264.8" font-family="Times,serif" font-size="14.00">Users::OmniauthCallbacksController</text>
<polyline fill="none" stroke="black" points="247,-257 465,-257 "/>
<text text-anchor="start" x="255" y="-241.8" font-family="Times,serif" font-size="14.00">failure</text>
<text text-anchor="start" x="255" y="-226.8" font-family="Times,serif" font-size="14.00">google_oauth2</text>
<polyline fill="none" stroke="black" points="247,-219 465,-219 "/>
<polyline fill="none" stroke="black" points="247,-195 465,-195 "/>
<text text-anchor="start" x="255" y="-179.8" font-family="Times,serif" font-size="14.00">_layout</text>
</g>
<!-- HomeController -->
<g id="node10" class="node"><title>HomeController</title>
<path fill="none" stroke="black" d="M126,-285.5C126,-285.5 208,-285.5 208,-285.5 214,-285.5 220,-291.5 220,-297.5 220,-297.5 220,-366.5 220,-366.5 220,-372.5 214,-378.5 208,-378.5 208,-378.5 126,-378.5 126,-378.5 120,-378.5 114,-372.5 114,-366.5 114,-366.5 114,-297.5 114,-297.5 114,-291.5 120,-285.5 126,-285.5"/>
<text text-anchor="middle" x="167" y="-363.3" font-family="Times,serif" font-size="14.00">HomeController</text>
<polyline fill="none" stroke="black" points="114,-355.5 220,-355.5 "/>
<text text-anchor="start" x="122" y="-340.3" font-family="Times,serif" font-size="14.00">index</text>
<polyline fill="none" stroke="black" points="114,-332.5 220,-332.5 "/>
<polyline fill="none" stroke="black" points="114,-308.5 220,-308.5 "/>
<text text-anchor="start" x="122" y="-293.3" font-family="Times,serif" font-size="14.00">_layout</text>
</g>
<!-- InstallmentsController -->
<g id="node11" class="node"><title>InstallmentsController</title>
<path fill="none" stroke="black" d="M-234.5,-0.5C-234.5,-0.5 -119.5,-0.5 -119.5,-0.5 -113.5,-0.5 -107.5,-6.5 -107.5,-12.5 -107.5,-12.5 -107.5,-171.5 -107.5,-171.5 -107.5,-177.5 -113.5,-183.5 -119.5,-183.5 -119.5,-183.5 -234.5,-183.5 -234.5,-183.5 -240.5,-183.5 -246.5,-177.5 -246.5,-171.5 -246.5,-171.5 -246.5,-12.5 -246.5,-12.5 -246.5,-6.5 -240.5,-0.5 -234.5,-0.5"/>
<text text-anchor="middle" x="-177" y="-168.3" font-family="Times,serif" font-size="14.00">InstallmentsController</text>
<polyline fill="none" stroke="black" points="-246.5,-160.5 -107.5,-160.5 "/>
<text text-anchor="start" x="-238.5" y="-145.3" font-family="Times,serif" font-size="14.00">create</text>
<text text-anchor="start" x="-238.5" y="-130.3" font-family="Times,serif" font-size="14.00">demo_complete</text>
<text text-anchor="start" x="-238.5" y="-115.3" font-family="Times,serif" font-size="14.00">demo_start</text>
<text text-anchor="start" x="-238.5" y="-100.3" font-family="Times,serif" font-size="14.00">edit</text>
<text text-anchor="start" x="-238.5" y="-85.3" font-family="Times,serif" font-size="14.00">new</text>
<text text-anchor="start" x="-238.5" y="-70.3" font-family="Times,serif" font-size="14.00">update</text>
<polyline fill="none" stroke="black" points="-246.5,-62.5 -107.5,-62.5 "/>
<polyline fill="none" stroke="black" points="-246.5,-38.5 -107.5,-38.5 "/>
<text text-anchor="start" x="-238.5" y="-23.3" font-family="Times,serif" font-size="14.00">_layout</text>
<text text-anchor="start" x="-238.5" y="-8.3" font-family="Times,serif" font-size="14.00">i_params</text>
</g>
<!-- ConsentLogsController -->
<g id="node12" class="node"><title>ConsentLogsController</title>
<path fill="none" stroke="black" d="M-291.5,303.5C-291.5,303.5 -172.5,303.5 -172.5,303.5 -166.5,303.5 -160.5,297.5 -160.5,291.5 -160.5,291.5 -160.5,192.5 -160.5,192.5 -160.5,186.5 -166.5,180.5 -172.5,180.5 -172.5,180.5 -291.5,180.5 -291.5,180.5 -297.5,180.5 -303.5,186.5 -303.5,192.5 -303.5,192.5 -303.5,291.5 -303.5,291.5 -303.5,297.5 -297.5,303.5 -291.5,303.5"/>
<text text-anchor="middle" x="-232" y="195.7" font-family="Times,serif" font-size="14.00">ConsentLogsController</text>
<polyline fill="none" stroke="black" points="-303.5,203.5 -160.5,203.5 "/>
<text text-anchor="start" x="-295.5" y="218.7" font-family="Times,serif" font-size="14.00">edit</text>
<text text-anchor="start" x="-295.5" y="233.7" font-family="Times,serif" font-size="14.00">update</text>
<polyline fill="none" stroke="black" points="-303.5,241.5 -160.5,241.5 "/>
<polyline fill="none" stroke="black" points="-303.5,265.5 -160.5,265.5 "/>
<text text-anchor="start" x="-295.5" y="280.7" font-family="Times,serif" font-size="14.00">_layout</text>
<text text-anchor="start" x="-295.5" y="295.7" font-family="Times,serif" font-size="14.00">cl_params</text>
</g>
<!-- GraphingController -->
<g id="node13" class="node"><title>GraphingController</title>
<path fill="none" stroke="black" d="M259.5,247C259.5,247 410.5,247 410.5,247 416.5,247 422.5,241 422.5,235 422.5,235 422.5,91 422.5,91 422.5,85 416.5,79 410.5,79 410.5,79 259.5,79 259.5,79 253.5,79 247.5,85 247.5,91 247.5,91 247.5,235 247.5,235 247.5,241 253.5,247 259.5,247"/>
<text text-anchor="middle" x="335" y="94.2" font-family="Times,serif" font-size="14.00">GraphingController</text>
<polyline fill="none" stroke="black" points="247.5,102 422.5,102 "/>
<text text-anchor="start" x="255.5" y="117.2" font-family="Times,serif" font-size="14.00">data</text>
<text text-anchor="start" x="255.5" y="132.2" font-family="Times,serif" font-size="14.00">index</text>
<text text-anchor="start" x="255.5" y="147.2" font-family="Times,serif" font-size="14.00">individual_summary_data</text>
<text text-anchor="start" x="255.5" y="162.2" font-family="Times,serif" font-size="14.00">pull_and_organise_user_data</text>
<text text-anchor="start" x="255.5" y="177.2" font-family="Times,serif" font-size="14.00">raw_data</text>
<text text-anchor="start" x="255.5" y="192.2" font-family="Times,serif" font-size="14.00">subjects</text>
<polyline fill="none" stroke="black" points="247.5,200 422.5,200 "/>
<polyline fill="none" stroke="black" points="247.5,224 422.5,224 "/>
<text text-anchor="start" x="255.5" y="239.2" font-family="Times,serif" font-size="14.00">_layout</text>
</g>
</g>
</svg>
