<?xml version="1.0" encoding="UTF-8" standalone="no"?>
<!DOCTYPE svg PUBLIC "-//W3C//DTD SVG 1.1//EN"
 "http://www.w3.org/Graphics/SVG/1.1/DTD/svg11.dtd">
<!-- Generated by graphviz version 8.0.1 (20230327.1645)
 -->
<!-- Title: controllers_diagram Pages: 1 -->
<svg width="1222pt" height="1234pt"
 viewBox="0.00 0.00 1222.00 1234.00" xmlns="http://www.w3.org/2000/svg" xmlns:xlink="http://www.w3.org/1999/xlink">
<g id="graph0" class="graph" transform="scale(1 1) rotate(0) translate(4 1230)">
<title>controllers_diagram</title>
<polygon fill="none" stroke="none" points="-4,4 -4,-1230 1218,-1230 1218,4 -4,4"/>
<!-- _diagram_info -->
<g id="node1" class="node">
<title>_diagram_info</title>
<text text-anchor="start" x="844" y="-173.6" font-family="Times,serif" font-size="13.00">Controllers diagram</text>
<text text-anchor="start" x="844" y="-159.6" font-family="Times,serif" font-size="13.00">Date: Apr 24 2023 &#45; 14:51</text>
<text text-anchor="start" x="844" y="-145.6" font-family="Times,serif" font-size="13.00">Migration version: 20230415194655</text>
<text text-anchor="start" x="844" y="-131.6" font-family="Times,serif" font-size="13.00">Generated by RailRoady 1.6.0</text>
<text text-anchor="start" x="844" y="-117.6" font-family="Times,serif" font-size="13.00">http://railroady.prestonlee.com</text>
</g>
<!-- ApplicationController -->
<g id="node2" class="node">
<title>ApplicationController</title>
<path fill="none" stroke="black" d="M34,-858.5C34,-858.5 204,-858.5 204,-858.5 210,-858.5 216,-864.5 216,-870.5 216,-870.5 216,-954.5 216,-954.5 216,-960.5 210,-966.5 204,-966.5 204,-966.5 34,-966.5 34,-966.5 28,-966.5 22,-960.5 22,-954.5 22,-954.5 22,-870.5 22,-870.5 22,-864.5 28,-858.5 34,-858.5"/>
<text text-anchor="middle" x="119" y="-951.3" font-family="Times,serif" font-size="14.00">ApplicationController</text>
<polyline fill="none" stroke="black" points="22,-943.5 216,-943.5"/>
<polyline fill="none" stroke="black" points="22,-919.5 216,-919.5"/>
<text text-anchor="start" x="30" y="-904.3" font-family="Times,serif" font-size="14.00">configure_permitted_parameters</text>
<text text-anchor="start" x="30" y="-889.3" font-family="Times,serif" font-size="14.00">switch_locale</text>
<polyline fill="none" stroke="black" points="22,-881.5 216,-881.5"/>
<text text-anchor="start" x="30" y="-866.3" font-family="Times,serif" font-size="14.00">_layout</text>
</g>
<!-- AssignmentsController -->
<g id="node3" class="node">
<title>AssignmentsController</title>
<path fill="none" stroke="black" d="M892,-484.5C892,-484.5 1011,-484.5 1011,-484.5 1017,-484.5 1023,-490.5 1023,-496.5 1023,-496.5 1023,-700.5 1023,-700.5 1023,-706.5 1017,-712.5 1011,-712.5 1011,-712.5 892,-712.5 892,-712.5 886,-712.5 880,-706.5 880,-700.5 880,-700.5 880,-496.5 880,-496.5 880,-490.5 886,-484.5 892,-484.5"/>
<text text-anchor="middle" x="951.5" y="-697.3" font-family="Times,serif" font-size="14.00">AssignmentsController</text>
<polyline fill="none" stroke="black" points="880,-689.5 1023,-689.5"/>
<text text-anchor="start" x="888" y="-674.3" font-family="Times,serif" font-size="14.00">create</text>
<text text-anchor="start" x="888" y="-659.3" font-family="Times,serif" font-size="14.00">destroy</text>
<text text-anchor="start" x="888" y="-644.3" font-family="Times,serif" font-size="14.00">edit</text>
<text text-anchor="start" x="888" y="-629.3" font-family="Times,serif" font-size="14.00">index</text>
<text text-anchor="start" x="888" y="-614.3" font-family="Times,serif" font-size="14.00">new</text>
<text text-anchor="start" x="888" y="-599.3" font-family="Times,serif" font-size="14.00">show</text>
<text text-anchor="start" x="888" y="-584.3" font-family="Times,serif" font-size="14.00">update</text>
<polyline fill="none" stroke="black" points="880,-576.5 1023,-576.5"/>
<polyline fill="none" stroke="black" points="880,-552.5 1023,-552.5"/>
<text text-anchor="start" x="888" y="-537.3" font-family="Times,serif" font-size="14.00">_layout</text>
<text text-anchor="start" x="888" y="-522.3" font-family="Times,serif" font-size="14.00">assignment_params</text>
<text text-anchor="start" x="888" y="-507.3" font-family="Times,serif" font-size="14.00">set_assignment</text>
<text text-anchor="start" x="888" y="-492.3" font-family="Times,serif" font-size="14.00">standardized_response</text>
</g>
<!-- BingoBoardsController -->
<g id="node4" class="node">
<title>BingoBoardsController</title>
<path fill="none" stroke="black" d="M430,-836.5C430,-836.5 575,-836.5 575,-836.5 581,-836.5 587,-842.5 587,-848.5 587,-848.5 587,-1157.5 587,-1157.5 587,-1163.5 581,-1169.5 575,-1169.5 575,-1169.5 430,-1169.5 430,-1169.5 424,-1169.5 418,-1163.5 418,-1157.5 418,-1157.5 418,-848.5 418,-848.5 418,-842.5 424,-836.5 430,-836.5"/>
<text text-anchor="middle" x="502.5" y="-1154.3" font-family="Times,serif" font-size="14.00">BingoBoardsController</text>
<polyline fill="none" stroke="black" points="418,-1146.5 587,-1146.5"/>
<text text-anchor="start" x="426" y="-1131.3" font-family="Times,serif" font-size="14.00">worksheet_results</text>
<text text-anchor="start" x="426" y="-1116.3" font-family="Times,serif" font-size="14.00">board_for_game_demo</text>
<text text-anchor="start" x="426" y="-1101.3" font-family="Times,serif" font-size="14.00">board_for_game_helper</text>
<text text-anchor="start" x="426" y="-1086.3" font-family="Times,serif" font-size="14.00">demo_worksheet_for_game</text>
<text text-anchor="start" x="426" y="-1071.3" font-family="Times,serif" font-size="14.00">index</text>
<text text-anchor="start" x="426" y="-1056.3" font-family="Times,serif" font-size="14.00">score_worksheet</text>
<text text-anchor="start" x="426" y="-1041.3" font-family="Times,serif" font-size="14.00">show</text>
<text text-anchor="start" x="426" y="-1026.3" font-family="Times,serif" font-size="14.00">update</text>
<text text-anchor="start" x="426" y="-1011.3" font-family="Times,serif" font-size="14.00">update_demo</text>
<text text-anchor="start" x="426" y="-996.3" font-family="Times,serif" font-size="14.00">worksheet_for_game</text>
<text text-anchor="start" x="426" y="-981.3" font-family="Times,serif" font-size="14.00">board_for_game</text>
<polyline fill="none" stroke="black" points="418,-973.5 587,-973.5"/>
<polyline fill="none" stroke="black" points="418,-949.5 587,-949.5"/>
<text text-anchor="start" x="426" y="-934.3" font-family="Times,serif" font-size="14.00">_layout</text>
<text text-anchor="start" x="426" y="-919.3" font-family="Times,serif" font-size="14.00">bingo_board_params</text>
<text text-anchor="start" x="426" y="-904.3" font-family="Times,serif" font-size="14.00">check_editor</text>
<text text-anchor="start" x="426" y="-889.3" font-family="Times,serif" font-size="14.00">play_bingo_board_params</text>
<text text-anchor="start" x="426" y="-874.3" font-family="Times,serif" font-size="14.00">score_bingo_board_params</text>
<text text-anchor="start" x="426" y="-859.3" font-family="Times,serif" font-size="14.00">set_bingo_board</text>
<text text-anchor="start" x="426" y="-844.3" font-family="Times,serif" font-size="14.00">update_responder</text>
</g>
<!-- BingoGamesController -->
<g id="node5" class="node">
<title>BingoGamesController</title>
<path fill="none" stroke="black" d="M650,-462.5C650,-462.5 823,-462.5 823,-462.5 829,-462.5 835,-468.5 835,-474.5 835,-474.5 835,-813.5 835,-813.5 835,-819.5 829,-825.5 823,-825.5 823,-825.5 650,-825.5 650,-825.5 644,-825.5 638,-819.5 638,-813.5 638,-813.5 638,-474.5 638,-474.5 638,-468.5 644,-462.5 650,-462.5"/>
<text text-anchor="middle" x="736.5" y="-810.3" font-family="Times,serif" font-size="14.00">BingoGamesController</text>
<polyline fill="none" stroke="black" points="638,-802.5 835,-802.5"/>
<text text-anchor="start" x="646" y="-787.3" font-family="Times,serif" font-size="14.00">update_review_candidates</text>
<text text-anchor="start" x="646" y="-772.3" font-family="Times,serif" font-size="14.00">create</text>
<text text-anchor="start" x="646" y="-757.3" font-family="Times,serif" font-size="14.00">demo_my_results</text>
<text text-anchor="start" x="646" y="-742.3" font-family="Times,serif" font-size="14.00">demo_update_review_candidates</text>
<text text-anchor="start" x="646" y="-727.3" font-family="Times,serif" font-size="14.00">destroy</text>
<text text-anchor="start" x="646" y="-712.3" font-family="Times,serif" font-size="14.00">game_results</text>
<text text-anchor="start" x="646" y="-697.3" font-family="Times,serif" font-size="14.00">index</text>
<text text-anchor="start" x="646" y="-682.3" font-family="Times,serif" font-size="14.00">my_results</text>
<text text-anchor="start" x="646" y="-667.3" font-family="Times,serif" font-size="14.00">new</text>
<text text-anchor="start" x="646" y="-652.3" font-family="Times,serif" font-size="14.00">review_candidates</text>
<text text-anchor="start" x="646" y="-637.3" font-family="Times,serif" font-size="14.00">review_candidates_demo</text>
<text text-anchor="start" x="646" y="-622.3" font-family="Times,serif" font-size="14.00">review_helper</text>
<text text-anchor="start" x="646" y="-607.3" font-family="Times,serif" font-size="14.00">show</text>
<text text-anchor="start" x="646" y="-592.3" font-family="Times,serif" font-size="14.00">update</text>
<text text-anchor="start" x="646" y="-577.3" font-family="Times,serif" font-size="14.00">activate</text>
<polyline fill="none" stroke="black" points="638,-569.5 835,-569.5"/>
<polyline fill="none" stroke="black" points="638,-545.5 835,-545.5"/>
<text text-anchor="start" x="646" y="-530.3" font-family="Times,serif" font-size="14.00">_layout</text>
<text text-anchor="start" x="646" y="-515.3" font-family="Times,serif" font-size="14.00">bingo_game_params</text>
<text text-anchor="start" x="646" y="-500.3" font-family="Times,serif" font-size="14.00">bingo_responder</text>
<text text-anchor="start" x="646" y="-485.3" font-family="Times,serif" font-size="14.00">check_bingo_editor</text>
<text text-anchor="start" x="646" y="-470.3" font-family="Times,serif" font-size="14.00">set_bingo_game</text>
</g>
<!-- CandidateListsController -->
<g id="node6" class="node">
<title>CandidateListsController</title>
<path fill="none" stroke="black" d="M650,-176.5C650,-176.5 779,-176.5 779,-176.5 785,-176.5 791,-182.5 791,-188.5 791,-188.5 791,-406.5 791,-406.5 791,-412.5 785,-418.5 779,-418.5 779,-418.5 650,-418.5 650,-418.5 644,-418.5 638,-412.5 638,-406.5 638,-406.5 638,-188.5 638,-188.5 638,-182.5 644,-176.5 650,-176.5"/>
<text text-anchor="middle" x="714.5" y="-403.3" font-family="Times,serif" font-size="14.00">CandidateListsController</text>
<polyline fill="none" stroke="black" points="638,-395.5 791,-395.5"/>
<text text-anchor="start" x="646" y="-380.3" font-family="Times,serif" font-size="14.00">update</text>
<text text-anchor="start" x="646" y="-365.3" font-family="Times,serif" font-size="14.00">demo_entry</text>
<text text-anchor="start" x="646" y="-350.3" font-family="Times,serif" font-size="14.00">demo_play</text>
<text text-anchor="start" x="646" y="-335.3" font-family="Times,serif" font-size="14.00">edit</text>
<text text-anchor="start" x="646" y="-320.3" font-family="Times,serif" font-size="14.00">get_candidate_list</text>
<text text-anchor="start" x="646" y="-305.3" font-family="Times,serif" font-size="14.00">list_stats</text>
<text text-anchor="start" x="646" y="-290.3" font-family="Times,serif" font-size="14.00">request_collaboration</text>
<text text-anchor="start" x="646" y="-275.3" font-family="Times,serif" font-size="14.00">show</text>
<text text-anchor="start" x="646" y="-260.3" font-family="Times,serif" font-size="14.00">create</text>
<polyline fill="none" stroke="black" points="638,-252.5 791,-252.5"/>
<text text-anchor="start" x="646" y="-237.3" font-family="Times,serif" font-size="14.00">merge_to_group_list</text>
<polyline fill="none" stroke="black" points="638,-229.5 791,-229.5"/>
<text text-anchor="start" x="646" y="-214.3" font-family="Times,serif" font-size="14.00">_layout</text>
<text text-anchor="start" x="646" y="-199.3" font-family="Times,serif" font-size="14.00">candidate_list_params</text>
<text text-anchor="start" x="646" y="-184.3" font-family="Times,serif" font-size="14.00">set_candidate_list</text>
</g>
<!-- ConceptsController -->
<g id="node7" class="node">
<title>ConceptsController</title>
<path fill="none" stroke="black" d="M100,-572.5C100,-572.5 237,-572.5 237,-572.5 243,-572.5 249,-578.5 249,-584.5 249,-584.5 249,-773.5 249,-773.5 249,-779.5 243,-785.5 237,-785.5 237,-785.5 100,-785.5 100,-785.5 94,-785.5 88,-779.5 88,-773.5 88,-773.5 88,-584.5 88,-584.5 88,-578.5 94,-572.5 100,-572.5"/>
<text text-anchor="middle" x="168.5" y="-770.3" font-family="Times,serif" font-size="14.00">ConceptsController</text>
<polyline fill="none" stroke="black" points="88,-762.5 249,-762.5"/>
<text text-anchor="start" x="96" y="-747.3" font-family="Times,serif" font-size="14.00">concepts_for_game</text>
<text text-anchor="start" x="96" y="-732.3" font-family="Times,serif" font-size="14.00">concepts_for_game_demo</text>
<text text-anchor="start" x="96" y="-717.3" font-family="Times,serif" font-size="14.00">destroy</text>
<text text-anchor="start" x="96" y="-702.3" font-family="Times,serif" font-size="14.00">edit</text>
<text text-anchor="start" x="96" y="-687.3" font-family="Times,serif" font-size="14.00">index</text>
<text text-anchor="start" x="96" y="-672.3" font-family="Times,serif" font-size="14.00">show</text>
<text text-anchor="start" x="96" y="-657.3" font-family="Times,serif" font-size="14.00">update</text>
<polyline fill="none" stroke="black" points="88,-649.5 249,-649.5"/>
<polyline fill="none" stroke="black" points="88,-625.5 249,-625.5"/>
<text text-anchor="start" x="96" y="-610.3" font-family="Times,serif" font-size="14.00">_layout</text>
<text text-anchor="start" x="96" y="-595.3" font-family="Times,serif" font-size="14.00">concept_params</text>
<text text-anchor="start" x="96" y="-580.3" font-family="Times,serif" font-size="14.00">set_concept</text>
</g>
<!-- ConsentFormsController -->
<g id="node8" class="node">
<title>ConsentFormsController</title>
<path fill="none" stroke="black" d="M1002,-924.5C1002,-924.5 1130,-924.5 1130,-924.5 1136,-924.5 1142,-930.5 1142,-936.5 1142,-936.5 1142,-1110.5 1142,-1110.5 1142,-1116.5 1136,-1122.5 1130,-1122.5 1130,-1122.5 1002,-1122.5 1002,-1122.5 996,-1122.5 990,-1116.5 990,-1110.5 990,-1110.5 990,-936.5 990,-936.5 990,-930.5 996,-924.5 1002,-924.5"/>
<text text-anchor="middle" x="1066" y="-1107.3" font-family="Times,serif" font-size="14.00">ConsentFormsController</text>
<polyline fill="none" stroke="black" points="990,-1099.5 1142,-1099.5"/>
<text text-anchor="start" x="998" y="-1084.3" font-family="Times,serif" font-size="14.00">create</text>
<text text-anchor="start" x="998" y="-1069.3" font-family="Times,serif" font-size="14.00">destroy</text>
<text text-anchor="start" x="998" y="-1054.3" font-family="Times,serif" font-size="14.00">edit</text>
<text text-anchor="start" x="998" y="-1039.3" font-family="Times,serif" font-size="14.00">index</text>
<text text-anchor="start" x="998" y="-1024.3" font-family="Times,serif" font-size="14.00">show</text>
<text text-anchor="start" x="998" y="-1009.3" font-family="Times,serif" font-size="14.00">update</text>
<polyline fill="none" stroke="black" points="990,-1001.5 1142,-1001.5"/>
<polyline fill="none" stroke="black" points="990,-977.5 1142,-977.5"/>
<text text-anchor="start" x="998" y="-962.3" font-family="Times,serif" font-size="14.00">_layout</text>
<text text-anchor="start" x="998" y="-947.3" font-family="Times,serif" font-size="14.00">consent_form_params</text>
<text text-anchor="start" x="998" y="-932.3" font-family="Times,serif" font-size="14.00">set_consent_form</text>
</g>
<!-- ConsentLogsController -->
<g id="node9" class="node">
<title>ConsentLogsController</title>
<path fill="none" stroke="black" d="M1068,-484.5C1068,-484.5 1187,-484.5 1187,-484.5 1193,-484.5 1199,-490.5 1199,-496.5 1199,-496.5 1199,-610.5 1199,-610.5 1199,-616.5 1193,-622.5 1187,-622.5 1187,-622.5 1068,-622.5 1068,-622.5 1062,-622.5 1056,-616.5 1056,-610.5 1056,-610.5 1056,-496.5 1056,-496.5 1056,-490.5 1062,-484.5 1068,-484.5"/>
<text text-anchor="middle" x="1127.5" y="-607.3" font-family="Times,serif" font-size="14.00">ConsentLogsController</text>
<polyline fill="none" stroke="black" points="1056,-599.5 1199,-599.5"/>
<text text-anchor="start" x="1064" y="-584.3" font-family="Times,serif" font-size="14.00">edit</text>
<text text-anchor="start" x="1064" y="-569.3" font-family="Times,serif" font-size="14.00">update</text>
<text text-anchor="start" x="1064" y="-554.3" font-family="Times,serif" font-size="14.00">user_logs</text>
<polyline fill="none" stroke="black" points="1056,-546.5 1199,-546.5"/>
<polyline fill="none" stroke="black" points="1056,-522.5 1199,-522.5"/>
<text text-anchor="start" x="1064" y="-507.3" font-family="Times,serif" font-size="14.00">_layout</text>
<text text-anchor="start" x="1064" y="-492.3" font-family="Times,serif" font-size="14.00">cl_params</text>
</g>
<!-- CoursesController -->
<g id="node10" class="node">
<title>CoursesController</title>
<path fill="none" stroke="black" d="M474,-330.5C474,-330.5 577,-330.5 577,-330.5 583,-330.5 589,-336.5 589,-342.5 589,-342.5 589,-786.5 589,-786.5 589,-792.5 583,-798.5 577,-798.5 577,-798.5 474,-798.5 474,-798.5 468,-798.5 462,-792.5 462,-786.5 462,-786.5 462,-342.5 462,-342.5 462,-336.5 468,-330.5 474,-330.5"/>
<text text-anchor="middle" x="525.5" y="-783.3" font-family="Times,serif" font-size="14.00">CoursesController</text>
<polyline fill="none" stroke="black" points="462,-775.5 589,-775.5"/>
<text text-anchor="start" x="470" y="-760.3" font-family="Times,serif" font-size="14.00">update</text>
<text text-anchor="start" x="470" y="-745.3" font-family="Times,serif" font-size="14.00">add_instructors</text>
<text text-anchor="start" x="470" y="-730.3" font-family="Times,serif" font-size="14.00">add_students</text>
<text text-anchor="start" x="470" y="-715.3" font-family="Times,serif" font-size="14.00">calendar</text>
<text text-anchor="start" x="470" y="-700.3" font-family="Times,serif" font-size="14.00">create</text>
<text text-anchor="start" x="470" y="-685.3" font-family="Times,serif" font-size="14.00">decline_roster</text>
<text text-anchor="start" x="470" y="-670.3" font-family="Times,serif" font-size="14.00">destroy</text>
<text text-anchor="start" x="470" y="-655.3" font-family="Times,serif" font-size="14.00">drop_student</text>
<text text-anchor="start" x="470" y="-640.3" font-family="Times,serif" font-size="14.00">edit</text>
<text text-anchor="start" x="470" y="-625.3" font-family="Times,serif" font-size="14.00">get_users</text>
<text text-anchor="start" x="470" y="-610.3" font-family="Times,serif" font-size="14.00">index</text>
<text text-anchor="start" x="470" y="-595.3" font-family="Times,serif" font-size="14.00">new</text>
<text text-anchor="start" x="470" y="-580.3" font-family="Times,serif" font-size="14.00">new_from_template</text>
<text text-anchor="start" x="470" y="-565.3" font-family="Times,serif" font-size="14.00">proc_reg_requests</text>
<text text-anchor="start" x="470" y="-550.3" font-family="Times,serif" font-size="14.00">qr</text>
<text text-anchor="start" x="470" y="-535.3" font-family="Times,serif" font-size="14.00">re_invite_student</text>
<text text-anchor="start" x="470" y="-520.3" font-family="Times,serif" font-size="14.00">reg_requests</text>
<text text-anchor="start" x="470" y="-505.3" font-family="Times,serif" font-size="14.00">remove_instructor</text>
<text text-anchor="start" x="470" y="-490.3" font-family="Times,serif" font-size="14.00">score_sheet</text>
<text text-anchor="start" x="470" y="-475.3" font-family="Times,serif" font-size="14.00">self_reg_confirm</text>
<text text-anchor="start" x="470" y="-460.3" font-family="Times,serif" font-size="14.00">self_reg_init</text>
<text text-anchor="start" x="470" y="-445.3" font-family="Times,serif" font-size="14.00">show</text>
<text text-anchor="start" x="470" y="-430.3" font-family="Times,serif" font-size="14.00">accept_roster</text>
<polyline fill="none" stroke="black" points="462,-422.5 589,-422.5"/>
<polyline fill="none" stroke="black" points="462,-398.5 589,-398.5"/>
<text text-anchor="start" x="470" y="-383.3" font-family="Times,serif" font-size="14.00">_layout</text>
<text text-anchor="start" x="470" y="-368.3" font-family="Times,serif" font-size="14.00">course_params</text>
<text text-anchor="start" x="470" y="-353.3" font-family="Times,serif" font-size="14.00">set_course</text>
<text text-anchor="start" x="470" y="-338.3" font-family="Times,serif" font-size="14.00">set_reg_course</text>
</g>
<!-- ExperiencesController -->
<g id="node11" class="node">
<title>ExperiencesController</title>
<path fill="none" stroke="black" d="M826,-858.5C826,-858.5 940,-858.5 940,-858.5 946,-858.5 952,-864.5 952,-870.5 952,-870.5 952,-1149.5 952,-1149.5 952,-1155.5 946,-1161.5 940,-1161.5 940,-1161.5 826,-1161.5 826,-1161.5 820,-1161.5 814,-1155.5 814,-1149.5 814,-1149.5 814,-870.5 814,-870.5 814,-864.5 820,-858.5 826,-858.5"/>
<text text-anchor="middle" x="883" y="-1146.3" font-family="Times,serif" font-size="14.00">ExperiencesController</text>
<polyline fill="none" stroke="black" points="814,-1138.5 952,-1138.5"/>
<text text-anchor="start" x="822" y="-1123.3" font-family="Times,serif" font-size="14.00">update</text>
<text text-anchor="start" x="822" y="-1108.3" font-family="Times,serif" font-size="14.00">create</text>
<text text-anchor="start" x="822" y="-1093.3" font-family="Times,serif" font-size="14.00">destroy</text>
<text text-anchor="start" x="822" y="-1078.3" font-family="Times,serif" font-size="14.00">diagnose</text>
<text text-anchor="start" x="822" y="-1063.3" font-family="Times,serif" font-size="14.00">edit</text>
<text text-anchor="start" x="822" y="-1048.3" font-family="Times,serif" font-size="14.00">get_reactions</text>
<text text-anchor="start" x="822" y="-1033.3" font-family="Times,serif" font-size="14.00">index</text>
<text text-anchor="start" x="822" y="-1018.3" font-family="Times,serif" font-size="14.00">next</text>
<text text-anchor="start" x="822" y="-1003.3" font-family="Times,serif" font-size="14.00">react</text>
<text text-anchor="start" x="822" y="-988.3" font-family="Times,serif" font-size="14.00">show</text>
<text text-anchor="start" x="822" y="-973.3" font-family="Times,serif" font-size="14.00">activate</text>
<polyline fill="none" stroke="black" points="814,-965.5 952,-965.5"/>
<polyline fill="none" stroke="black" points="814,-941.5 952,-941.5"/>
<text text-anchor="start" x="822" y="-926.3" font-family="Times,serif" font-size="14.00">_layout</text>
<text text-anchor="start" x="822" y="-911.3" font-family="Times,serif" font-size="14.00">diagnosis_params</text>
<text text-anchor="start" x="822" y="-896.3" font-family="Times,serif" font-size="14.00">experience_params</text>
<text text-anchor="start" x="822" y="-881.3" font-family="Times,serif" font-size="14.00">reaction_params</text>
<text text-anchor="start" x="822" y="-866.3" font-family="Times,serif" font-size="14.00">set_experience</text>
</g>
<!-- GraphingController -->
<g id="node12" class="node">
<title>GraphingController</title>
<path fill="none" stroke="black" d="M188,-22.5C188,-22.5 287,-22.5 287,-22.5 293,-22.5 299,-28.5 299,-34.5 299,-34.5 299,-163.5 299,-163.5 299,-169.5 293,-175.5 287,-175.5 287,-175.5 188,-175.5 188,-175.5 182,-175.5 176,-169.5 176,-163.5 176,-163.5 176,-34.5 176,-34.5 176,-28.5 182,-22.5 188,-22.5"/>
<text text-anchor="middle" x="237.5" y="-160.3" font-family="Times,serif" font-size="14.00">GraphingController</text>
<polyline fill="none" stroke="black" points="176,-152.5 299,-152.5"/>
<text text-anchor="start" x="184" y="-137.3" font-family="Times,serif" font-size="14.00">data</text>
<text text-anchor="start" x="184" y="-122.3" font-family="Times,serif" font-size="14.00">index</text>
<text text-anchor="start" x="184" y="-107.3" font-family="Times,serif" font-size="14.00">projects</text>
<text text-anchor="start" x="184" y="-92.3" font-family="Times,serif" font-size="14.00">raw_data</text>
<text text-anchor="start" x="184" y="-77.3" font-family="Times,serif" font-size="14.00">subjects</text>
<polyline fill="none" stroke="black" points="176,-69.5 299,-69.5"/>
<polyline fill="none" stroke="black" points="176,-45.5 299,-45.5"/>
<text text-anchor="start" x="184" y="-30.3" font-family="Times,serif" font-size="14.00">_layout</text>
</g>
<!-- HomeController -->
<g id="node13" class="node">
<title>HomeController</title>
<path fill="none" stroke="black" d="M298,-484.5C298,-484.5 411,-484.5 411,-484.5 417,-484.5 423,-490.5 423,-496.5 423,-496.5 423,-790.5 423,-790.5 423,-796.5 417,-802.5 411,-802.5 411,-802.5 298,-802.5 298,-802.5 292,-802.5 286,-796.5 286,-790.5 286,-790.5 286,-496.5 286,-496.5 286,-490.5 292,-484.5 298,-484.5"/>
<text text-anchor="middle" x="354.5" y="-787.3" font-family="Times,serif" font-size="14.00">HomeController</text>
<polyline fill="none" stroke="black" points="286,-779.5 423,-779.5"/>
<text text-anchor="start" x="294" y="-764.3" font-family="Times,serif" font-size="14.00">user_courses</text>
<text text-anchor="start" x="294" y="-749.3" font-family="Times,serif" font-size="14.00">demo_start</text>
<text text-anchor="start" x="294" y="-734.3" font-family="Times,serif" font-size="14.00">endpoints</text>
<text text-anchor="start" x="294" y="-719.3" font-family="Times,serif" font-size="14.00">full_profile</text>
<text text-anchor="start" x="294" y="-704.3" font-family="Times,serif" font-size="14.00">get_lookups</text>
<text text-anchor="start" x="294" y="-689.3" font-family="Times,serif" font-size="14.00">get_profile_hash</text>
<text text-anchor="start" x="294" y="-674.3" font-family="Times,serif" font-size="14.00">get_quote</text>
<text text-anchor="start" x="294" y="-659.3" font-family="Times,serif" font-size="14.00">index</text>
<text text-anchor="start" x="294" y="-644.3" font-family="Times,serif" font-size="14.00">lookups</text>
<text text-anchor="start" x="294" y="-629.3" font-family="Times,serif" font-size="14.00">simple_profile</text>
<text text-anchor="start" x="294" y="-614.3" font-family="Times,serif" font-size="14.00">states_for_country</text>
<text text-anchor="start" x="294" y="-599.3" font-family="Times,serif" font-size="14.00">task_list</text>
<text text-anchor="start" x="294" y="-584.3" font-family="Times,serif" font-size="14.00">update_full_profile</text>
<text text-anchor="start" x="294" y="-569.3" font-family="Times,serif" font-size="14.00">user_activities</text>
<text text-anchor="start" x="294" y="-554.3" font-family="Times,serif" font-size="14.00">check_diversity_score</text>
<polyline fill="none" stroke="black" points="286,-546.5 423,-546.5"/>
<polyline fill="none" stroke="black" points="286,-522.5 423,-522.5"/>
<text text-anchor="start" x="294" y="-507.3" font-family="Times,serif" font-size="14.00">_layout</text>
<text text-anchor="start" x="294" y="-492.3" font-family="Times,serif" font-size="14.00">profile_params</text>
</g>
<!-- InstallmentsController -->
<g id="node14" class="node">
<title>InstallmentsController</title>
<path fill="none" stroke="black" d="M12,-352.5C12,-352.5 127,-352.5 127,-352.5 133,-352.5 139,-358.5 139,-364.5 139,-364.5 139,-508.5 139,-508.5 139,-514.5 133,-520.5 127,-520.5 127,-520.5 12,-520.5 12,-520.5 6,-520.5 0,-514.5 0,-508.5 0,-508.5 0,-364.5 0,-364.5 0,-358.5 6,-352.5 12,-352.5"/>
<text text-anchor="middle" x="69.5" y="-505.3" font-family="Times,serif" font-size="14.00">InstallmentsController</text>
<polyline fill="none" stroke="black" points="0,-497.5 139,-497.5"/>
<text text-anchor="start" x="8" y="-482.3" font-family="Times,serif" font-size="14.00">create</text>
<text text-anchor="start" x="8" y="-467.3" font-family="Times,serif" font-size="14.00">demo_complete</text>
<text text-anchor="start" x="8" y="-452.3" font-family="Times,serif" font-size="14.00">submit_helper</text>
<text text-anchor="start" x="8" y="-437.3" font-family="Times,serif" font-size="14.00">submit_installment</text>
<text text-anchor="start" x="8" y="-422.3" font-family="Times,serif" font-size="14.00">update</text>
<polyline fill="none" stroke="black" points="0,-414.5 139,-414.5"/>
<polyline fill="none" stroke="black" points="0,-390.5 139,-390.5"/>
<text text-anchor="start" x="8" y="-375.3" font-family="Times,serif" font-size="14.00">_layout</text>
<text text-anchor="start" x="8" y="-360.3" font-family="Times,serif" font-size="14.00">i_params</text>
</g>
<!-- LocalesController -->
<g id="node15" class="node">
<title>LocalesController</title>
<path fill="none" stroke="black" d="M1112,-0.5C1112,-0.5 1202,-0.5 1202,-0.5 1208,-0.5 1214,-6.5 1214,-12.5 1214,-12.5 1214,-81.5 1214,-81.5 1214,-87.5 1208,-93.5 1202,-93.5 1202,-93.5 1112,-93.5 1112,-93.5 1106,-93.5 1100,-87.5 1100,-81.5 1100,-81.5 1100,-12.5 1100,-12.5 1100,-6.5 1106,-0.5 1112,-0.5"/>
<text text-anchor="middle" x="1157" y="-78.3" font-family="Times,serif" font-size="14.00">LocalesController</text>
<polyline fill="none" stroke="black" points="1100,-70.5 1214,-70.5"/>
<text text-anchor="start" x="1108" y="-55.3" font-family="Times,serif" font-size="14.00">get_resources</text>
<polyline fill="none" stroke="black" points="1100,-47.5 1214,-47.5"/>
<polyline fill="none" stroke="black" points="1100,-23.5 1214,-23.5"/>
<text text-anchor="start" x="1108" y="-8.3" font-family="Times,serif" font-size="14.00">_layout</text>
</g>
<!-- ProjectsController -->
<g id="node16" class="node">
<title>ProjectsController</title>
<path fill="none" stroke="black" d="M276,-836.5C276,-836.5 369,-836.5 369,-836.5 375,-836.5 381,-842.5 381,-848.5 381,-848.5 381,-1142.5 381,-1142.5 381,-1148.5 375,-1154.5 369,-1154.5 369,-1154.5 276,-1154.5 276,-1154.5 270,-1154.5 264,-1148.5 264,-1142.5 264,-1142.5 264,-848.5 264,-848.5 264,-842.5 270,-836.5 276,-836.5"/>
<text text-anchor="middle" x="322.5" y="-1139.3" font-family="Times,serif" font-size="14.00">ProjectsController</text>
<polyline fill="none" stroke="black" points="264,-1131.5 381,-1131.5"/>
<text text-anchor="start" x="272" y="-1116.3" font-family="Times,serif" font-size="14.00">update</text>
<text text-anchor="start" x="272" y="-1101.3" font-family="Times,serif" font-size="14.00">add_group</text>
<text text-anchor="start" x="272" y="-1086.3" font-family="Times,serif" font-size="14.00">create</text>
<text text-anchor="start" x="272" y="-1071.3" font-family="Times,serif" font-size="14.00">destroy</text>
<text text-anchor="start" x="272" y="-1056.3" font-family="Times,serif" font-size="14.00">edit</text>
<text text-anchor="start" x="272" y="-1041.3" font-family="Times,serif" font-size="14.00">get_groups</text>
<text text-anchor="start" x="272" y="-1026.3" font-family="Times,serif" font-size="14.00">get_groups_helper</text>
<text text-anchor="start" x="272" y="-1011.3" font-family="Times,serif" font-size="14.00">index</text>
<text text-anchor="start" x="272" y="-996.3" font-family="Times,serif" font-size="14.00">remove_group</text>
<text text-anchor="start" x="272" y="-981.3" font-family="Times,serif" font-size="14.00">rescore_group</text>
<text text-anchor="start" x="272" y="-966.3" font-family="Times,serif" font-size="14.00">rescore_groups</text>
<text text-anchor="start" x="272" y="-951.3" font-family="Times,serif" font-size="14.00">set_groups</text>
<text text-anchor="start" x="272" y="-936.3" font-family="Times,serif" font-size="14.00">show</text>
<text text-anchor="start" x="272" y="-921.3" font-family="Times,serif" font-size="14.00">activate</text>
<polyline fill="none" stroke="black" points="264,-913.5 381,-913.5"/>
<polyline fill="none" stroke="black" points="264,-889.5 381,-889.5"/>
<text text-anchor="start" x="272" y="-874.3" font-family="Times,serif" font-size="14.00">_layout</text>
<text text-anchor="start" x="272" y="-859.3" font-family="Times,serif" font-size="14.00">project_params</text>
<text text-anchor="start" x="272" y="-844.3" font-family="Times,serif" font-size="14.00">set_project</text>
</g>
<!-- RegistrationsController -->
<g id="node17" class="node">
<title>RegistrationsController</title>
<path fill="none" stroke="black" d="M430,-88.5C430,-88.5 550,-88.5 550,-88.5 556,-88.5 562,-94.5 562,-100.5 562,-100.5 562,-273.5 562,-273.5 562,-279.5 556,-285.5 550,-285.5 550,-285.5 430,-285.5 430,-285.5 424,-285.5 418,-279.5 418,-273.5 418,-273.5 418,-100.5 418,-100.5 418,-94.5 424,-88.5 430,-88.5"/>
<text text-anchor="middle" x="490" y="-270.3" font-family="Times,serif" font-size="14.00">RegistrationsController</text>
<polyline fill="none" stroke="black" points="418,-262.5 562,-262.5"/>
<text text-anchor="start" x="426" y="-247.3" font-family="Times,serif" font-size="14.00">add_email</text>
<text text-anchor="start" x="426" y="-232.3" font-family="Times,serif" font-size="14.00">confirm</text>
<text text-anchor="start" x="426" y="-217.3" font-family="Times,serif" font-size="14.00">create</text>
<text text-anchor="start" x="426" y="-202.3" font-family="Times,serif" font-size="14.00">initiate_password_reset</text>
<text text-anchor="start" x="426" y="-187.3" font-family="Times,serif" font-size="14.00">password_change</text>
<text text-anchor="start" x="426" y="-172.3" font-family="Times,serif" font-size="14.00">remove_email</text>
<text text-anchor="start" x="426" y="-157.3" font-family="Times,serif" font-size="14.00">set_primary_email</text>
<polyline fill="none" stroke="black" points="418,-149.5 562,-149.5"/>
<text text-anchor="start" x="426" y="-134.3" font-family="Times,serif" font-size="14.00">update_resource</text>
<polyline fill="none" stroke="black" points="418,-126.5 562,-126.5"/>
<text text-anchor="start" x="426" y="-111.3" font-family="Times,serif" font-size="14.00">_layout</text>
<text text-anchor="start" x="426" y="-96.3" font-family="Times,serif" font-size="14.00">set_email</text>
</g>
<!-- RubricRowFeedbacksController -->
<g id="node18" class="node">
<title>RubricRowFeedbacksController</title>
<path fill="none" stroke="black" d="M892,-220.5C892,-220.5 1059,-220.5 1059,-220.5 1065,-220.5 1071,-226.5 1071,-232.5 1071,-232.5 1071,-421.5 1071,-421.5 1071,-427.5 1065,-433.5 1059,-433.5 1059,-433.5 892,-433.5 892,-433.5 886,-433.5 880,-427.5 880,-421.5 880,-421.5 880,-232.5 880,-232.5 880,-226.5 886,-220.5 892,-220.5"/>
<text text-anchor="middle" x="975.5" y="-418.3" font-family="Times,serif" font-size="14.00">RubricRowFeedbacksController</text>
<polyline fill="none" stroke="black" points="880,-410.5 1071,-410.5"/>
<text text-anchor="start" x="888" y="-395.3" font-family="Times,serif" font-size="14.00">create</text>
<text text-anchor="start" x="888" y="-380.3" font-family="Times,serif" font-size="14.00">destroy</text>
<text text-anchor="start" x="888" y="-365.3" font-family="Times,serif" font-size="14.00">edit</text>
<text text-anchor="start" x="888" y="-350.3" font-family="Times,serif" font-size="14.00">index</text>
<text text-anchor="start" x="888" y="-335.3" font-family="Times,serif" font-size="14.00">new</text>
<text text-anchor="start" x="888" y="-320.3" font-family="Times,serif" font-size="14.00">show</text>
<text text-anchor="start" x="888" y="-305.3" font-family="Times,serif" font-size="14.00">update</text>
<polyline fill="none" stroke="black" points="880,-297.5 1071,-297.5"/>
<polyline fill="none" stroke="black" points="880,-273.5 1071,-273.5"/>
<text text-anchor="start" x="888" y="-258.3" font-family="Times,serif" font-size="14.00">_layout</text>
<text text-anchor="start" x="888" y="-243.3" font-family="Times,serif" font-size="14.00">rubric_row_feedback_params</text>
<text text-anchor="start" x="888" y="-228.3" font-family="Times,serif" font-size="14.00">set_rubric_row_feedback</text>
</g>
<!-- RubricsController -->
<g id="node19" class="node">
<title>RubricsController</title>
<path fill="none" stroke="black" d="M650,-858.5C650,-858.5 765,-858.5 765,-858.5 771,-858.5 777,-864.5 777,-870.5 777,-870.5 777,-1104.5 777,-1104.5 777,-1110.5 771,-1116.5 765,-1116.5 765,-1116.5 650,-1116.5 650,-1116.5 644,-1116.5 638,-1110.5 638,-1104.5 638,-1104.5 638,-870.5 638,-870.5 638,-864.5 644,-858.5 650,-858.5"/>
<text text-anchor="middle" x="707.5" y="-1101.3" font-family="Times,serif" font-size="14.00">RubricsController</text>
<polyline fill="none" stroke="black" points="638,-1093.5 777,-1093.5"/>
<text text-anchor="start" x="646" y="-1078.3" font-family="Times,serif" font-size="14.00">update</text>
<text text-anchor="start" x="646" y="-1063.3" font-family="Times,serif" font-size="14.00">copy</text>
<text text-anchor="start" x="646" y="-1048.3" font-family="Times,serif" font-size="14.00">create</text>
<text text-anchor="start" x="646" y="-1033.3" font-family="Times,serif" font-size="14.00">destroy</text>
<text text-anchor="start" x="646" y="-1018.3" font-family="Times,serif" font-size="14.00">index</text>
<text text-anchor="start" x="646" y="-1003.3" font-family="Times,serif" font-size="14.00">new</text>
<text text-anchor="start" x="646" y="-988.3" font-family="Times,serif" font-size="14.00">publish</text>
<text text-anchor="start" x="646" y="-973.3" font-family="Times,serif" font-size="14.00">show</text>
<text text-anchor="start" x="646" y="-958.3" font-family="Times,serif" font-size="14.00">activate</text>
<polyline fill="none" stroke="black" points="638,-950.5 777,-950.5"/>
<polyline fill="none" stroke="black" points="638,-926.5 777,-926.5"/>
<text text-anchor="start" x="646" y="-911.3" font-family="Times,serif" font-size="14.00">_layout</text>
<text text-anchor="start" x="646" y="-896.3" font-family="Times,serif" font-size="14.00">rubric_params</text>
<text text-anchor="start" x="646" y="-881.3" font-family="Times,serif" font-size="14.00">set_rubric</text>
<text text-anchor="start" x="646" y="-866.3" font-family="Times,serif" font-size="14.00">standardized_response</text>
</g>
<!-- SchoolsController -->
<g id="node20" class="node">
<title>SchoolsController</title>
<path fill="none" stroke="black" d="M34,-110.5C34,-110.5 125,-110.5 125,-110.5 131,-110.5 137,-116.5 137,-122.5 137,-122.5 137,-296.5 137,-296.5 137,-302.5 131,-308.5 125,-308.5 125,-308.5 34,-308.5 34,-308.5 28,-308.5 22,-302.5 22,-296.5 22,-296.5 22,-122.5 22,-122.5 22,-116.5 28,-110.5 34,-110.5"/>
<text text-anchor="middle" x="79.5" y="-293.3" font-family="Times,serif" font-size="14.00">SchoolsController</text>
<polyline fill="none" stroke="black" points="22,-285.5 137,-285.5"/>
<text text-anchor="start" x="30" y="-270.3" font-family="Times,serif" font-size="14.00">create</text>
<text text-anchor="start" x="30" y="-255.3" font-family="Times,serif" font-size="14.00">destroy</text>
<text text-anchor="start" x="30" y="-240.3" font-family="Times,serif" font-size="14.00">edit</text>
<text text-anchor="start" x="30" y="-225.3" font-family="Times,serif" font-size="14.00">index</text>
<text text-anchor="start" x="30" y="-210.3" font-family="Times,serif" font-size="14.00">show</text>
<text text-anchor="start" x="30" y="-195.3" font-family="Times,serif" font-size="14.00">update</text>
<polyline fill="none" stroke="black" points="22,-187.5 137,-187.5"/>
<polyline fill="none" stroke="black" points="22,-163.5 137,-163.5"/>
<text text-anchor="start" x="30" y="-148.3" font-family="Times,serif" font-size="14.00">_layout</text>
<text text-anchor="start" x="30" y="-133.3" font-family="Times,serif" font-size="14.00">school_params</text>
<text text-anchor="start" x="30" y="-118.3" font-family="Times,serif" font-size="14.00">set_school</text>
</g>
<!-- SubmissionFeedbacksController -->
<g id="node21" class="node">
<title>SubmissionFeedbacksController</title>
<path fill="none" stroke="black" d="M188,-220.5C188,-220.5 357,-220.5 357,-220.5 363,-220.5 369,-226.5 369,-232.5 369,-232.5 369,-421.5 369,-421.5 369,-427.5 363,-433.5 357,-433.5 357,-433.5 188,-433.5 188,-433.5 182,-433.5 176,-427.5 176,-421.5 176,-421.5 176,-232.5 176,-232.5 176,-226.5 182,-220.5 188,-220.5"/>
<text text-anchor="middle" x="272.5" y="-418.3" font-family="Times,serif" font-size="14.00">SubmissionFeedbacksController</text>
<polyline fill="none" stroke="black" points="176,-410.5 369,-410.5"/>
<text text-anchor="start" x="184" y="-395.3" font-family="Times,serif" font-size="14.00">create</text>
<text text-anchor="start" x="184" y="-380.3" font-family="Times,serif" font-size="14.00">destroy</text>
<text text-anchor="start" x="184" y="-365.3" font-family="Times,serif" font-size="14.00">edit</text>
<text text-anchor="start" x="184" y="-350.3" font-family="Times,serif" font-size="14.00">index</text>
<text text-anchor="start" x="184" y="-335.3" font-family="Times,serif" font-size="14.00">new</text>
<text text-anchor="start" x="184" y="-320.3" font-family="Times,serif" font-size="14.00">show</text>
<text text-anchor="start" x="184" y="-305.3" font-family="Times,serif" font-size="14.00">update</text>
<polyline fill="none" stroke="black" points="176,-297.5 369,-297.5"/>
<polyline fill="none" stroke="black" points="176,-273.5 369,-273.5"/>
<text text-anchor="start" x="184" y="-258.3" font-family="Times,serif" font-size="14.00">_layout</text>
<text text-anchor="start" x="184" y="-243.3" font-family="Times,serif" font-size="14.00">set_submission_feedback</text>
<text text-anchor="start" x="184" y="-228.3" font-family="Times,serif" font-size="14.00">submission_feedback_params</text>
</g>
<!-- SubmissionsController -->
<g id="node22" class="node">
<title>SubmissionsController</title>
<path fill="none" stroke="black" d="M100,-1012.5C100,-1012.5 217,-1012.5 217,-1012.5 223,-1012.5 229,-1018.5 229,-1024.5 229,-1024.5 229,-1213.5 229,-1213.5 229,-1219.5 223,-1225.5 217,-1225.5 217,-1225.5 100,-1225.5 100,-1225.5 94,-1225.5 88,-1219.5 88,-1213.5 88,-1213.5 88,-1024.5 88,-1024.5 88,-1018.5 94,-1012.5 100,-1012.5"/>
<text text-anchor="middle" x="158.5" y="-1210.3" font-family="Times,serif" font-size="14.00">SubmissionsController</text>
<polyline fill="none" stroke="black" points="88,-1202.5 229,-1202.5"/>
<text text-anchor="start" x="96" y="-1187.3" font-family="Times,serif" font-size="14.00">create</text>
<text text-anchor="start" x="96" y="-1172.3" font-family="Times,serif" font-size="14.00">destroy</text>
<text text-anchor="start" x="96" y="-1157.3" font-family="Times,serif" font-size="14.00">edit</text>
<text text-anchor="start" x="96" y="-1142.3" font-family="Times,serif" font-size="14.00">index</text>
<text text-anchor="start" x="96" y="-1127.3" font-family="Times,serif" font-size="14.00">new</text>
<text text-anchor="start" x="96" y="-1112.3" font-family="Times,serif" font-size="14.00">show</text>
<text text-anchor="start" x="96" y="-1097.3" font-family="Times,serif" font-size="14.00">update</text>
<polyline fill="none" stroke="black" points="88,-1089.5 229,-1089.5"/>
<polyline fill="none" stroke="black" points="88,-1065.5 229,-1065.5"/>
<text text-anchor="start" x="96" y="-1050.3" font-family="Times,serif" font-size="14.00">_layout</text>
<text text-anchor="start" x="96" y="-1035.3" font-family="Times,serif" font-size="14.00">set_submission</text>
<text text-anchor="start" x="96" y="-1020.3" font-family="Times,serif" font-size="14.00">submission_params</text>
</g>
<!-- Users::OmniauthCallbacksController -->
<g id="node23" class="node">
<title>Users::OmniauthCallbacksController</title>
<path fill="none" stroke="black" d="M1002,-748.5C1002,-748.5 1196,-748.5 1196,-748.5 1202,-748.5 1208,-754.5 1208,-760.5 1208,-760.5 1208,-859.5 1208,-859.5 1208,-865.5 1202,-871.5 1196,-871.5 1196,-871.5 1002,-871.5 1002,-871.5 996,-871.5 990,-865.5 990,-859.5 990,-859.5 990,-760.5 990,-760.5 990,-754.5 996,-748.5 1002,-748.5"/>
<text text-anchor="middle" x="1099" y="-856.3" font-family="Times,serif" font-size="14.00">Users::OmniauthCallbacksController</text>
<polyline fill="none" stroke="black" points="990,-848.5 1208,-848.5"/>
<text text-anchor="start" x="998" y="-833.3" font-family="Times,serif" font-size="14.00">failure</text>
<text text-anchor="start" x="998" y="-818.3" font-family="Times,serif" font-size="14.00">validate</text>
<polyline fill="none" stroke="black" points="990,-810.5 1208,-810.5"/>
<polyline fill="none" stroke="black" points="990,-786.5 1208,-786.5"/>
<text text-anchor="start" x="998" y="-771.3" font-family="Times,serif" font-size="14.00">_layout</text>
<text text-anchor="start" x="998" y="-756.3" font-family="Times,serif" font-size="14.00">set_headers</text>
</g>
<!-- Users::SessionsController -->
<g id="node24" class="node">
<title>Users::SessionsController</title>
<path fill="none" stroke="black" d="M606,-44.5C606,-44.5 739,-44.5 739,-44.5 745,-44.5 751,-50.5 751,-56.5 751,-56.5 751,-126.5 751,-126.5 751,-132.5 745,-138.5 739,-138.5 739,-138.5 606,-138.5 606,-138.5 600,-138.5 594,-132.5 594,-126.5 594,-126.5 594,-56.5 594,-56.5 594,-50.5 600,-44.5 606,-44.5"/>
<text text-anchor="middle" x="672.5" y="-123.3" font-family="Times,serif" font-size="14.00">Users::SessionsController</text>
<polyline fill="none" stroke="black" points="594,-115.5 751,-115.5"/>
<polyline fill="none" stroke="black" points="594,-91.5 751,-91.5"/>
<polyline fill="none" stroke="black" points="594,-67.5 751,-67.5"/>
<text text-anchor="start" x="602" y="-52.3" font-family="Times,serif" font-size="14.00">_layout</text>
</g>
</g>
</svg>
