<?xml version="1.0" encoding="UTF-8" standalone="no"?>
<!DOCTYPE svg PUBLIC "-//W3C//DTD SVG 1.1//EN"
 "http://www.w3.org/Graphics/SVG/1.1/DTD/svg11.dtd">
<!-- Generated by graphviz version 2.36.0 (20140111.2315)
 -->
<!-- Title: controllers_diagram Pages: 1 -->
<svg width="906pt" height="817pt"
 viewBox="0.00 0.00 906.00 817.00" xmlns="http://www.w3.org/2000/svg" xmlns:xlink="http://www.w3.org/1999/xlink">
<g id="graph0" class="graph" transform="scale(1 1) rotate(0) translate(4 813)">
<title>controllers_diagram</title>
<polygon fill="none" stroke="none" points="-4,4 -4,-813 902,-813 902,4 -4,4"/>
<!-- _diagram_info -->
<g id="node1" class="node"><title>_diagram_info</title>
<text text-anchor="start" x="408" y="-83.6" font-family="Times,serif" font-size="13.00">Controllers diagram</text>
<text text-anchor="start" x="408" y="-69.6" font-family="Times,serif" font-size="13.00">Date: Jul 29 2017 &#45; 22:49</text>
<text text-anchor="start" x="408" y="-55.6" font-family="Times,serif" font-size="13.00">Migration version: 20170729030240</text>
<text text-anchor="start" x="408" y="-41.6" font-family="Times,serif" font-size="13.00">Generated by RailRoady 1.5.2</text>
<text text-anchor="start" x="408" y="-27.6" font-family="Times,serif" font-size="13.00">http://railroady.prestonlee.com</text>
</g>
<!-- ApplicationController -->
<g id="node2" class="node"><title>ApplicationController</title>
<path fill="none" stroke="black" d="M692,-380.5C692,-380.5 862,-380.5 862,-380.5 868,-380.5 874,-386.5 874,-392.5 874,-392.5 874,-476.5 874,-476.5 874,-482.5 868,-488.5 862,-488.5 862,-488.5 692,-488.5 692,-488.5 686,-488.5 680,-482.5 680,-476.5 680,-476.5 680,-392.5 680,-392.5 680,-386.5 686,-380.5 692,-380.5"/>
<text text-anchor="middle" x="777" y="-473.3" font-family="Times,serif" font-size="14.00">ApplicationController</text>
<polyline fill="none" stroke="black" points="680,-465.5 874,-465.5 "/>
<polyline fill="none" stroke="black" points="680,-441.5 874,-441.5 "/>
<text text-anchor="start" x="688" y="-426.3" font-family="Times,serif" font-size="14.00">configure_permitted_parameters</text>
<text text-anchor="start" x="688" y="-411.3" font-family="Times,serif" font-size="14.00">set_locale</text>
<polyline fill="none" stroke="black" points="680,-403.5 874,-403.5 "/>
<text text-anchor="start" x="688" y="-388.3" font-family="Times,serif" font-size="14.00">_layout</text>
</g>
<!-- BingoGamesController -->
<g id="node3" class="node"><title>BingoGamesController</title>
<path fill="none" stroke="black" d="M312,-520.5C312,-520.5 448,-520.5 448,-520.5 454,-520.5 460,-526.5 460,-532.5 460,-532.5 460,-781.5 460,-781.5 460,-787.5 454,-793.5 448,-793.5 448,-793.5 312,-793.5 312,-793.5 306,-793.5 300,-787.5 300,-781.5 300,-781.5 300,-532.5 300,-532.5 300,-526.5 306,-520.5 312,-520.5"/>
<text text-anchor="middle" x="380" y="-778.3" font-family="Times,serif" font-size="14.00">BingoGamesController</text>
<polyline fill="none" stroke="black" points="300,-770.5 460,-770.5 "/>
<text text-anchor="start" x="308" y="-755.3" font-family="Times,serif" font-size="14.00">activate</text>
<text text-anchor="start" x="308" y="-740.3" font-family="Times,serif" font-size="14.00">create</text>
<text text-anchor="start" x="308" y="-725.3" font-family="Times,serif" font-size="14.00">destroy</text>
<text text-anchor="start" x="308" y="-710.3" font-family="Times,serif" font-size="14.00">edit</text>
<text text-anchor="start" x="308" y="-695.3" font-family="Times,serif" font-size="14.00">index</text>
<text text-anchor="start" x="308" y="-680.3" font-family="Times,serif" font-size="14.00">new</text>
<text text-anchor="start" x="308" y="-665.3" font-family="Times,serif" font-size="14.00">review_candidates</text>
<text text-anchor="start" x="308" y="-650.3" font-family="Times,serif" font-size="14.00">show</text>
<text text-anchor="start" x="308" y="-635.3" font-family="Times,serif" font-size="14.00">update</text>
<text text-anchor="start" x="308" y="-620.3" font-family="Times,serif" font-size="14.00">update_review_candidates</text>
<polyline fill="none" stroke="black" points="300,-612.5 460,-612.5 "/>
<polyline fill="none" stroke="black" points="300,-588.5 460,-588.5 "/>
<text text-anchor="start" x="308" y="-573.3" font-family="Times,serif" font-size="14.00">_layout</text>
<text text-anchor="start" x="308" y="-558.3" font-family="Times,serif" font-size="14.00">bingo_game_params</text>
<text text-anchor="start" x="308" y="-543.3" font-family="Times,serif" font-size="14.00">check_admin</text>
<text text-anchor="start" x="308" y="-528.3" font-family="Times,serif" font-size="14.00">set_bingo_game</text>
</g>
<!-- CandidateListsController -->
<g id="node4" class="node"><title>CandidateListsController</title>
<path fill="none" stroke="black" d="M672,-580.5C672,-580.5 821,-580.5 821,-580.5 827,-580.5 833,-586.5 833,-592.5 833,-592.5 833,-795.5 833,-795.5 833,-801.5 827,-807.5 821,-807.5 821,-807.5 672,-807.5 672,-807.5 666,-807.5 660,-801.5 660,-795.5 660,-795.5 660,-592.5 660,-592.5 660,-586.5 666,-580.5 672,-580.5"/>
<text text-anchor="middle" x="746.5" y="-792.3" font-family="Times,serif" font-size="14.00">CandidateListsController</text>
<polyline fill="none" stroke="black" points="660,-784.5 833,-784.5 "/>
<text text-anchor="start" x="668" y="-769.3" font-family="Times,serif" font-size="14.00">create</text>
<text text-anchor="start" x="668" y="-754.3" font-family="Times,serif" font-size="14.00">demo_complete</text>
<text text-anchor="start" x="668" y="-739.3" font-family="Times,serif" font-size="14.00">edit</text>
<text text-anchor="start" x="668" y="-724.3" font-family="Times,serif" font-size="14.00">list_stats</text>
<text text-anchor="start" x="668" y="-709.3" font-family="Times,serif" font-size="14.00">request_collaboration</text>
<text text-anchor="start" x="668" y="-694.3" font-family="Times,serif" font-size="14.00">show</text>
<text text-anchor="start" x="668" y="-679.3" font-family="Times,serif" font-size="14.00">update</text>
<polyline fill="none" stroke="black" points="660,-671.5 833,-671.5 "/>
<text text-anchor="start" x="668" y="-656.3" font-family="Times,serif" font-size="14.00">merge_to_group_list</text>
<polyline fill="none" stroke="black" points="660,-648.5 833,-648.5 "/>
<text text-anchor="start" x="668" y="-633.3" font-family="Times,serif" font-size="14.00">_layout</text>
<text text-anchor="start" x="668" y="-618.3" font-family="Times,serif" font-size="14.00">candidate_list_params</text>
<text text-anchor="start" x="668" y="-603.3" font-family="Times,serif" font-size="14.00">merge_individuals_to_group</text>
<text text-anchor="start" x="668" y="-588.3" font-family="Times,serif" font-size="14.00">set_candidate_list</text>
</g>
<!-- ConsentLogsController -->
<g id="node5" class="node"><title>ConsentLogsController</title>
<path fill="none" stroke="black" d="M12,-440.5C12,-440.5 131,-440.5 131,-440.5 137,-440.5 143,-446.5 143,-452.5 143,-452.5 143,-551.5 143,-551.5 143,-557.5 137,-563.5 131,-563.5 131,-563.5 12,-563.5 12,-563.5 6,-563.5 0,-557.5 0,-551.5 0,-551.5 0,-452.5 0,-452.5 0,-446.5 6,-440.5 12,-440.5"/>
<text text-anchor="middle" x="71.5" y="-548.3" font-family="Times,serif" font-size="14.00">ConsentLogsController</text>
<polyline fill="none" stroke="black" points="0,-540.5 143,-540.5 "/>
<text text-anchor="start" x="8" y="-525.3" font-family="Times,serif" font-size="14.00">edit</text>
<text text-anchor="start" x="8" y="-510.3" font-family="Times,serif" font-size="14.00">update</text>
<polyline fill="none" stroke="black" points="0,-502.5 143,-502.5 "/>
<polyline fill="none" stroke="black" points="0,-478.5 143,-478.5 "/>
<text text-anchor="start" x="8" y="-463.3" font-family="Times,serif" font-size="14.00">_layout</text>
<text text-anchor="start" x="8" y="-448.3" font-family="Times,serif" font-size="14.00">cl_params</text>
</g>
<!-- CoursesController -->
<g id="node6" class="node"><title>CoursesController</title>
<path fill="none" stroke="black" d="M352,-140.5C352,-140.5 444,-140.5 444,-140.5 450,-140.5 456,-146.5 456,-152.5 456,-152.5 456,-461.5 456,-461.5 456,-467.5 450,-473.5 444,-473.5 444,-473.5 352,-473.5 352,-473.5 346,-473.5 340,-467.5 340,-461.5 340,-461.5 340,-152.5 340,-152.5 340,-146.5 346,-140.5 352,-140.5"/>
<text text-anchor="middle" x="398" y="-458.3" font-family="Times,serif" font-size="14.00">CoursesController</text>
<polyline fill="none" stroke="black" points="340,-450.5 456,-450.5 "/>
<text text-anchor="start" x="348" y="-435.3" font-family="Times,serif" font-size="14.00">accept_roster</text>
<text text-anchor="start" x="348" y="-420.3" font-family="Times,serif" font-size="14.00">add_instructors</text>
<text text-anchor="start" x="348" y="-405.3" font-family="Times,serif" font-size="14.00">add_students</text>
<text text-anchor="start" x="348" y="-390.3" font-family="Times,serif" font-size="14.00">create</text>
<text text-anchor="start" x="348" y="-375.3" font-family="Times,serif" font-size="14.00">decline_roster</text>
<text text-anchor="start" x="348" y="-360.3" font-family="Times,serif" font-size="14.00">destroy</text>
<text text-anchor="start" x="348" y="-345.3" font-family="Times,serif" font-size="14.00">drop_student</text>
<text text-anchor="start" x="348" y="-330.3" font-family="Times,serif" font-size="14.00">edit</text>
<text text-anchor="start" x="348" y="-315.3" font-family="Times,serif" font-size="14.00">index</text>
<text text-anchor="start" x="348" y="-300.3" font-family="Times,serif" font-size="14.00">new</text>
<text text-anchor="start" x="348" y="-285.3" font-family="Times,serif" font-size="14.00">re_invite_student</text>
<text text-anchor="start" x="348" y="-270.3" font-family="Times,serif" font-size="14.00">remove_instructor</text>
<text text-anchor="start" x="348" y="-255.3" font-family="Times,serif" font-size="14.00">show</text>
<text text-anchor="start" x="348" y="-240.3" font-family="Times,serif" font-size="14.00">update</text>
<polyline fill="none" stroke="black" points="340,-232.5 456,-232.5 "/>
<polyline fill="none" stroke="black" points="340,-208.5 456,-208.5 "/>
<text text-anchor="start" x="348" y="-193.3" font-family="Times,serif" font-size="14.00">_layout</text>
<text text-anchor="start" x="348" y="-178.3" font-family="Times,serif" font-size="14.00">check_admin</text>
<text text-anchor="start" x="348" y="-163.3" font-family="Times,serif" font-size="14.00">course_params</text>
<text text-anchor="start" x="348" y="-148.3" font-family="Times,serif" font-size="14.00">set_course</text>
</g>
<!-- ExperiencesController -->
<g id="node7" class="node"><title>ExperiencesController</title>
<path fill="none" stroke="black" d="M512,-220.5C512,-220.5 626,-220.5 626,-220.5 632,-220.5 638,-226.5 638,-232.5 638,-232.5 638,-526.5 638,-526.5 638,-532.5 632,-538.5 626,-538.5 626,-538.5 512,-538.5 512,-538.5 506,-538.5 500,-532.5 500,-526.5 500,-526.5 500,-232.5 500,-232.5 500,-226.5 506,-220.5 512,-220.5"/>
<text text-anchor="middle" x="569" y="-523.3" font-family="Times,serif" font-size="14.00">ExperiencesController</text>
<polyline fill="none" stroke="black" points="500,-515.5 638,-515.5 "/>
<text text-anchor="start" x="508" y="-500.3" font-family="Times,serif" font-size="14.00">activate</text>
<text text-anchor="start" x="508" y="-485.3" font-family="Times,serif" font-size="14.00">create</text>
<text text-anchor="start" x="508" y="-470.3" font-family="Times,serif" font-size="14.00">destroy</text>
<text text-anchor="start" x="508" y="-455.3" font-family="Times,serif" font-size="14.00">diagnose</text>
<text text-anchor="start" x="508" y="-440.3" font-family="Times,serif" font-size="14.00">edit</text>
<text text-anchor="start" x="508" y="-425.3" font-family="Times,serif" font-size="14.00">index</text>
<text text-anchor="start" x="508" y="-410.3" font-family="Times,serif" font-size="14.00">new</text>
<text text-anchor="start" x="508" y="-395.3" font-family="Times,serif" font-size="14.00">next</text>
<text text-anchor="start" x="508" y="-380.3" font-family="Times,serif" font-size="14.00">react</text>
<text text-anchor="start" x="508" y="-365.3" font-family="Times,serif" font-size="14.00">show</text>
<text text-anchor="start" x="508" y="-350.3" font-family="Times,serif" font-size="14.00">update</text>
<polyline fill="none" stroke="black" points="500,-342.5 638,-342.5 "/>
<polyline fill="none" stroke="black" points="500,-318.5 638,-318.5 "/>
<text text-anchor="start" x="508" y="-303.3" font-family="Times,serif" font-size="14.00">_layout</text>
<text text-anchor="start" x="508" y="-288.3" font-family="Times,serif" font-size="14.00">check_admin</text>
<text text-anchor="start" x="508" y="-273.3" font-family="Times,serif" font-size="14.00">diagnosis_params</text>
<text text-anchor="start" x="508" y="-258.3" font-family="Times,serif" font-size="14.00">experience_params</text>
<text text-anchor="start" x="508" y="-243.3" font-family="Times,serif" font-size="14.00">reaction_params</text>
<text text-anchor="start" x="508" y="-228.3" font-family="Times,serif" font-size="14.00">set_experience</text>
</g>
<!-- GraphingController -->
<g id="node8" class="node"><title>GraphingController</title>
<path fill="none" stroke="black" d="M692,-40.5C692,-40.5 843,-40.5 843,-40.5 849,-40.5 855,-46.5 855,-52.5 855,-52.5 855,-196.5 855,-196.5 855,-202.5 849,-208.5 843,-208.5 843,-208.5 692,-208.5 692,-208.5 686,-208.5 680,-202.5 680,-196.5 680,-196.5 680,-52.5 680,-52.5 680,-46.5 686,-40.5 692,-40.5"/>
<text text-anchor="middle" x="767.5" y="-193.3" font-family="Times,serif" font-size="14.00">GraphingController</text>
<polyline fill="none" stroke="black" points="680,-185.5 855,-185.5 "/>
<text text-anchor="start" x="688" y="-170.3" font-family="Times,serif" font-size="14.00">data</text>
<text text-anchor="start" x="688" y="-155.3" font-family="Times,serif" font-size="14.00">index</text>
<text text-anchor="start" x="688" y="-140.3" font-family="Times,serif" font-size="14.00">individual_summary_data</text>
<text text-anchor="start" x="688" y="-125.3" font-family="Times,serif" font-size="14.00">pull_and_organise_user_data</text>
<text text-anchor="start" x="688" y="-110.3" font-family="Times,serif" font-size="14.00">raw_data</text>
<text text-anchor="start" x="688" y="-95.3" font-family="Times,serif" font-size="14.00">subjects</text>
<polyline fill="none" stroke="black" points="680,-87.5 855,-87.5 "/>
<polyline fill="none" stroke="black" points="680,-63.5 855,-63.5 "/>
<text text-anchor="start" x="688" y="-48.3" font-family="Times,serif" font-size="14.00">_layout</text>
</g>
<!-- HomeController -->
<g id="node9" class="node"><title>HomeController</title>
<path fill="none" stroke="black" d="M272,-0.5C272,-0.5 354,-0.5 354,-0.5 360,-0.5 366,-6.5 366,-12.5 366,-12.5 366,-96.5 366,-96.5 366,-102.5 360,-108.5 354,-108.5 354,-108.5 272,-108.5 272,-108.5 266,-108.5 260,-102.5 260,-96.5 260,-96.5 260,-12.5 260,-12.5 260,-6.5 266,-0.5 272,-0.5"/>
<text text-anchor="middle" x="313" y="-93.3" font-family="Times,serif" font-size="14.00">HomeController</text>
<polyline fill="none" stroke="black" points="260,-85.5 366,-85.5 "/>
<text text-anchor="start" x="268" y="-70.3" font-family="Times,serif" font-size="14.00">demo_start</text>
<text text-anchor="start" x="268" y="-55.3" font-family="Times,serif" font-size="14.00">index</text>
<polyline fill="none" stroke="black" points="260,-47.5 366,-47.5 "/>
<polyline fill="none" stroke="black" points="260,-23.5 366,-23.5 "/>
<text text-anchor="start" x="268" y="-8.3" font-family="Times,serif" font-size="14.00">_layout</text>
</g>
<!-- InstallmentsController -->
<g id="node10" class="node"><title>InstallmentsController</title>
<path fill="none" stroke="black" d="M132,-600.5C132,-600.5 247,-600.5 247,-600.5 253,-600.5 259,-606.5 259,-612.5 259,-612.5 259,-756.5 259,-756.5 259,-762.5 253,-768.5 247,-768.5 247,-768.5 132,-768.5 132,-768.5 126,-768.5 120,-762.5 120,-756.5 120,-756.5 120,-612.5 120,-612.5 120,-606.5 126,-600.5 132,-600.5"/>
<text text-anchor="middle" x="189.5" y="-753.3" font-family="Times,serif" font-size="14.00">InstallmentsController</text>
<polyline fill="none" stroke="black" points="120,-745.5 259,-745.5 "/>
<text text-anchor="start" x="128" y="-730.3" font-family="Times,serif" font-size="14.00">create</text>
<text text-anchor="start" x="128" y="-715.3" font-family="Times,serif" font-size="14.00">demo_complete</text>
<text text-anchor="start" x="128" y="-700.3" font-family="Times,serif" font-size="14.00">edit</text>
<text text-anchor="start" x="128" y="-685.3" font-family="Times,serif" font-size="14.00">new</text>
<text text-anchor="start" x="128" y="-670.3" font-family="Times,serif" font-size="14.00">update</text>
<polyline fill="none" stroke="black" points="120,-662.5 259,-662.5 "/>
<polyline fill="none" stroke="black" points="120,-638.5 259,-638.5 "/>
<text text-anchor="start" x="128" y="-623.3" font-family="Times,serif" font-size="14.00">_layout</text>
<text text-anchor="start" x="128" y="-608.3" font-family="Times,serif" font-size="14.00">i_params</text>
</g>
<!-- ProjectsController -->
<g id="node11" class="node"><title>ProjectsController</title>
<path fill="none" stroke="black" d="M192,-200.5C192,-200.5 284,-200.5 284,-200.5 290,-200.5 296,-206.5 296,-212.5 296,-212.5 296,-461.5 296,-461.5 296,-467.5 290,-473.5 284,-473.5 284,-473.5 192,-473.5 192,-473.5 186,-473.5 180,-467.5 180,-461.5 180,-461.5 180,-212.5 180,-212.5 180,-206.5 186,-200.5 192,-200.5"/>
<text text-anchor="middle" x="238" y="-458.3" font-family="Times,serif" font-size="14.00">ProjectsController</text>
<polyline fill="none" stroke="black" points="180,-450.5 296,-450.5 "/>
<text text-anchor="start" x="188" y="-435.3" font-family="Times,serif" font-size="14.00">activate</text>
<text text-anchor="start" x="188" y="-420.3" font-family="Times,serif" font-size="14.00">add_group</text>
<text text-anchor="start" x="188" y="-405.3" font-family="Times,serif" font-size="14.00">create</text>
<text text-anchor="start" x="188" y="-390.3" font-family="Times,serif" font-size="14.00">destroy</text>
<text text-anchor="start" x="188" y="-375.3" font-family="Times,serif" font-size="14.00">edit</text>
<text text-anchor="start" x="188" y="-360.3" font-family="Times,serif" font-size="14.00">index</text>
<text text-anchor="start" x="188" y="-345.3" font-family="Times,serif" font-size="14.00">new</text>
<text text-anchor="start" x="188" y="-330.3" font-family="Times,serif" font-size="14.00">remove_group</text>
<text text-anchor="start" x="188" y="-315.3" font-family="Times,serif" font-size="14.00">show</text>
<text text-anchor="start" x="188" y="-300.3" font-family="Times,serif" font-size="14.00">update</text>
<polyline fill="none" stroke="black" points="180,-292.5 296,-292.5 "/>
<polyline fill="none" stroke="black" points="180,-268.5 296,-268.5 "/>
<text text-anchor="start" x="188" y="-253.3" font-family="Times,serif" font-size="14.00">_layout</text>
<text text-anchor="start" x="188" y="-238.3" font-family="Times,serif" font-size="14.00">check_admin</text>
<text text-anchor="start" x="188" y="-223.3" font-family="Times,serif" font-size="14.00">project_params</text>
<text text-anchor="start" x="188" y="-208.3" font-family="Times,serif" font-size="14.00">set_project</text>
</g>
<!-- RegistrationsController -->
<g id="node12" class="node"><title>RegistrationsController</title>
<path fill="none" stroke="black" d="M92,-0.5C92,-0.5 212,-0.5 212,-0.5 218,-0.5 224,-6.5 224,-12.5 224,-12.5 224,-140.5 224,-140.5 224,-146.5 218,-152.5 212,-152.5 212,-152.5 92,-152.5 92,-152.5 86,-152.5 80,-146.5 80,-140.5 80,-140.5 80,-12.5 80,-12.5 80,-6.5 86,-0.5 92,-0.5"/>
<text text-anchor="middle" x="152" y="-137.3" font-family="Times,serif" font-size="14.00">RegistrationsController</text>
<polyline fill="none" stroke="black" points="80,-129.5 224,-129.5 "/>
<text text-anchor="start" x="88" y="-114.3" font-family="Times,serif" font-size="14.00">add_email</text>
<text text-anchor="start" x="88" y="-99.3" font-family="Times,serif" font-size="14.00">initiate_password_reset</text>
<text text-anchor="start" x="88" y="-84.3" font-family="Times,serif" font-size="14.00">remove_email</text>
<text text-anchor="start" x="88" y="-69.3" font-family="Times,serif" font-size="14.00">set_primary_email</text>
<polyline fill="none" stroke="black" points="80,-61.5 224,-61.5 "/>
<text text-anchor="start" x="88" y="-46.3" font-family="Times,serif" font-size="14.00">update_resource</text>
<polyline fill="none" stroke="black" points="80,-38.5 224,-38.5 "/>
<text text-anchor="start" x="88" y="-23.3" font-family="Times,serif" font-size="14.00">_layout</text>
<text text-anchor="start" x="88" y="-8.3" font-family="Times,serif" font-size="14.00">set_email</text>
</g>
<!-- SchoolsController -->
<g id="node13" class="node"><title>SchoolsController</title>
<path fill="none" stroke="black" d="M512,-580.5C512,-580.5 603,-580.5 603,-580.5 609,-580.5 615,-586.5 615,-592.5 615,-592.5 615,-796.5 615,-796.5 615,-802.5 609,-808.5 603,-808.5 603,-808.5 512,-808.5 512,-808.5 506,-808.5 500,-802.5 500,-796.5 500,-796.5 500,-592.5 500,-592.5 500,-586.5 506,-580.5 512,-580.5"/>
<text text-anchor="middle" x="557.5" y="-793.3" font-family="Times,serif" font-size="14.00">SchoolsController</text>
<polyline fill="none" stroke="black" points="500,-785.5 615,-785.5 "/>
<text text-anchor="start" x="508" y="-770.3" font-family="Times,serif" font-size="14.00">create</text>
<text text-anchor="start" x="508" y="-755.3" font-family="Times,serif" font-size="14.00">destroy</text>
<text text-anchor="start" x="508" y="-740.3" font-family="Times,serif" font-size="14.00">edit</text>
<text text-anchor="start" x="508" y="-725.3" font-family="Times,serif" font-size="14.00">index</text>
<text text-anchor="start" x="508" y="-710.3" font-family="Times,serif" font-size="14.00">new</text>
<text text-anchor="start" x="508" y="-695.3" font-family="Times,serif" font-size="14.00">show</text>
<text text-anchor="start" x="508" y="-680.3" font-family="Times,serif" font-size="14.00">update</text>
<polyline fill="none" stroke="black" points="500,-672.5 615,-672.5 "/>
<polyline fill="none" stroke="black" points="500,-648.5 615,-648.5 "/>
<text text-anchor="start" x="508" y="-633.3" font-family="Times,serif" font-size="14.00">_layout</text>
<text text-anchor="start" x="508" y="-618.3" font-family="Times,serif" font-size="14.00">check_admin</text>
<text text-anchor="start" x="508" y="-603.3" font-family="Times,serif" font-size="14.00">school_params</text>
<text text-anchor="start" x="508" y="-588.3" font-family="Times,serif" font-size="14.00">set_school</text>
</g>
<!-- Users::OmniauthCallbacksController -->
<g id="node14" class="node"><title>Users::OmniauthCallbacksController</title>
<path fill="none" stroke="black" d="M692,-240.5C692,-240.5 886,-240.5 886,-240.5 892,-240.5 898,-246.5 898,-252.5 898,-252.5 898,-336.5 898,-336.5 898,-342.5 892,-348.5 886,-348.5 886,-348.5 692,-348.5 692,-348.5 686,-348.5 680,-342.5 680,-336.5 680,-336.5 680,-252.5 680,-252.5 680,-246.5 686,-240.5 692,-240.5"/>
<text text-anchor="middle" x="789" y="-333.3" font-family="Times,serif" font-size="14.00">Users::OmniauthCallbacksController</text>
<polyline fill="none" stroke="black" points="680,-325.5 898,-325.5 "/>
<text text-anchor="start" x="688" y="-310.3" font-family="Times,serif" font-size="14.00">failure</text>
<text text-anchor="start" x="688" y="-295.3" font-family="Times,serif" font-size="14.00">google_oauth2</text>
<polyline fill="none" stroke="black" points="680,-287.5 898,-287.5 "/>
<polyline fill="none" stroke="black" points="680,-263.5 898,-263.5 "/>
<text text-anchor="start" x="688" y="-248.3" font-family="Times,serif" font-size="14.00">_layout</text>
</g>
</g>
</svg>
