<?xml version="1.0" encoding="UTF-8" standalone="no"?>
<!DOCTYPE svg PUBLIC "-//W3C//DTD SVG 1.1//EN"
 "http://www.w3.org/Graphics/SVG/1.1/DTD/svg11.dtd">
<!-- Generated by graphviz version 2.38.0 (20140413.2041)
 -->
<!-- Title: controllers_diagram Pages: 1 -->
<svg width="594pt" height="580pt"
 viewBox="0.00 0.00 593.50 580.00" xmlns="http://www.w3.org/2000/svg" xmlns:xlink="http://www.w3.org/1999/xlink">
<g id="graph0" class="graph" transform="scale(1 1) rotate(0) translate(227.5 352)">
<title>controllers_diagram</title>
<polygon fill="none" stroke="none" points="-227.5,228 -227.5,-352 366,-352 366,228 -227.5,228"/>
<!-- _diagram_info -->
<g id="node1" class="node"><title>_diagram_info</title>
<text text-anchor="start" x="152" y="80.4" font-family="Times,serif" font-size="13.00">Controllers diagram</text>
<text text-anchor="start" x="152" y="94.4" font-family="Times,serif" font-size="13.00">Date: Feb 06 2017 &#45; 15:29</text>
<text text-anchor="start" x="152" y="108.4" font-family="Times,serif" font-size="13.00">Migration version: 20170206053808</text>
<text text-anchor="start" x="152" y="122.4" font-family="Times,serif" font-size="13.00">Generated by RailRoady 1.5.2</text>
<text text-anchor="start" x="152" y="136.4" font-family="Times,serif" font-size="13.00">http://railroady.prestonlee.com</text>
</g>
<!-- ApplicationController -->
<g id="node2" class="node"><title>ApplicationController</title>
<path fill="none" stroke="black" d="M92,-81C92,-81 262,-81 262,-81 268,-81 274,-87 274,-93 274,-93 274,-177 274,-177 274,-183 268,-189 262,-189 262,-189 92,-189 92,-189 86,-189 80,-183 80,-177 80,-177 80,-93 80,-93 80,-87 86,-81 92,-81"/>
<text text-anchor="middle" x="177" y="-173.8" font-family="Times,serif" font-size="14.00">ApplicationController</text>
<polyline fill="none" stroke="black" points="80,-166 274,-166 "/>
<polyline fill="none" stroke="black" points="80,-142 274,-142 "/>
<text text-anchor="start" x="88" y="-126.8" font-family="Times,serif" font-size="14.00">configure_permitted_parameters</text>
<text text-anchor="start" x="88" y="-111.8" font-family="Times,serif" font-size="14.00">set_time_zone</text>
<polyline fill="none" stroke="black" points="80,-104 274,-104 "/>
<text text-anchor="start" x="88" y="-88.8" font-family="Times,serif" font-size="14.00">_layout</text>
</g>
<!-- ExperiencesController -->
<g id="node3" class="node"><title>ExperiencesController</title>
<path fill="none" stroke="black" d="M236,-224.5C236,-224.5 350,-224.5 350,-224.5 356,-224.5 362,-230.5 362,-236.5 362,-236.5 362,-335.5 362,-335.5 362,-341.5 356,-347.5 350,-347.5 350,-347.5 236,-347.5 236,-347.5 230,-347.5 224,-341.5 224,-335.5 224,-335.5 224,-236.5 224,-236.5 224,-230.5 230,-224.5 236,-224.5"/>
<text text-anchor="middle" x="293" y="-332.3" font-family="Times,serif" font-size="14.00">ExperiencesController</text>
<polyline fill="none" stroke="black" points="224,-324.5 362,-324.5 "/>
<text text-anchor="start" x="232" y="-309.3" font-family="Times,serif" font-size="14.00">diagnose</text>
<text text-anchor="start" x="232" y="-294.3" font-family="Times,serif" font-size="14.00">next</text>
<text text-anchor="start" x="232" y="-279.3" font-family="Times,serif" font-size="14.00">reaction</text>
<polyline fill="none" stroke="black" points="224,-271.5 362,-271.5 "/>
<polyline fill="none" stroke="black" points="224,-247.5 362,-247.5 "/>
<text text-anchor="start" x="232" y="-232.3" font-family="Times,serif" font-size="14.00">_layout</text>
</g>
<!-- Users::OmniauthCallbacksController -->
<g id="node4" class="node"><title>Users::OmniauthCallbacksController</title>
<path fill="none" stroke="black" d="M-100,63C-100,63 94,63 94,63 100,63 106,57 106,51 106,51 106,-33 106,-33 106,-39 100,-45 94,-45 94,-45 -100,-45 -100,-45 -106,-45 -112,-39 -112,-33 -112,-33 -112,51 -112,51 -112,57 -106,63 -100,63"/>
<text text-anchor="middle" x="-3" y="-29.8" font-family="Times,serif" font-size="14.00">Users::OmniauthCallbacksController</text>
<polyline fill="none" stroke="black" points="-112,-22 106,-22 "/>
<text text-anchor="start" x="-104" y="-6.8" font-family="Times,serif" font-size="14.00">failure</text>
<text text-anchor="start" x="-104" y="8.2" font-family="Times,serif" font-size="14.00">google_oauth2</text>
<polyline fill="none" stroke="black" points="-112,16 106,16 "/>
<polyline fill="none" stroke="black" points="-112,40 106,40 "/>
<text text-anchor="start" x="-104" y="55.2" font-family="Times,serif" font-size="14.00">_layout</text>
</g>
<!-- HomeController -->
<g id="node5" class="node"><title>HomeController</title>
<path fill="none" stroke="black" d="M12,191.5C12,191.5 94,191.5 94,191.5 100,191.5 106,185.5 106,179.5 106,179.5 106,110.5 106,110.5 106,104.5 100,98.5 94,98.5 94,98.5 12,98.5 12,98.5 6,98.5 0,104.5 0,110.5 0,110.5 0,179.5 0,179.5 0,185.5 6,191.5 12,191.5"/>
<text text-anchor="middle" x="53" y="113.7" font-family="Times,serif" font-size="14.00">HomeController</text>
<polyline fill="none" stroke="black" points="0,121.5 106,121.5 "/>
<text text-anchor="start" x="8" y="136.7" font-family="Times,serif" font-size="14.00">index</text>
<polyline fill="none" stroke="black" points="0,144.5 106,144.5 "/>
<polyline fill="none" stroke="black" points="0,168.5 106,168.5 "/>
<text text-anchor="start" x="8" y="183.7" font-family="Times,serif" font-size="14.00">_layout</text>
</g>
<!-- InstallmentsController -->
<g id="node6" class="node"><title>InstallmentsController</title>
<path fill="none" stroke="black" d="M-83.5,-96.5C-83.5,-96.5 31.5,-96.5 31.5,-96.5 37.5,-96.5 43.5,-102.5 43.5,-108.5 43.5,-108.5 43.5,-237.5 43.5,-237.5 43.5,-243.5 37.5,-249.5 31.5,-249.5 31.5,-249.5 -83.5,-249.5 -83.5,-249.5 -89.5,-249.5 -95.5,-243.5 -95.5,-237.5 -95.5,-237.5 -95.5,-108.5 -95.5,-108.5 -95.5,-102.5 -89.5,-96.5 -83.5,-96.5"/>
<text text-anchor="middle" x="-26" y="-234.3" font-family="Times,serif" font-size="14.00">InstallmentsController</text>
<polyline fill="none" stroke="black" points="-95.5,-226.5 43.5,-226.5 "/>
<text text-anchor="start" x="-87.5" y="-211.3" font-family="Times,serif" font-size="14.00">create</text>
<text text-anchor="start" x="-87.5" y="-196.3" font-family="Times,serif" font-size="14.00">edit</text>
<text text-anchor="start" x="-87.5" y="-181.3" font-family="Times,serif" font-size="14.00">new</text>
<text text-anchor="start" x="-87.5" y="-166.3" font-family="Times,serif" font-size="14.00">update</text>
<polyline fill="none" stroke="black" points="-95.5,-158.5 43.5,-158.5 "/>
<polyline fill="none" stroke="black" points="-95.5,-134.5 43.5,-134.5 "/>
<text text-anchor="start" x="-87.5" y="-119.3" font-family="Times,serif" font-size="14.00">_layout</text>
<text text-anchor="start" x="-87.5" y="-104.3" font-family="Times,serif" font-size="14.00">i_params</text>
</g>
<!-- ConsentLogsController -->
<g id="node7" class="node"><title>ConsentLogsController</title>
<path fill="none" stroke="black" d="M-211.5,223.5C-211.5,223.5 -92.5,223.5 -92.5,223.5 -86.5,223.5 -80.5,217.5 -80.5,211.5 -80.5,211.5 -80.5,112.5 -80.5,112.5 -80.5,106.5 -86.5,100.5 -92.5,100.5 -92.5,100.5 -211.5,100.5 -211.5,100.5 -217.5,100.5 -223.5,106.5 -223.5,112.5 -223.5,112.5 -223.5,211.5 -223.5,211.5 -223.5,217.5 -217.5,223.5 -211.5,223.5"/>
<text text-anchor="middle" x="-152" y="115.7" font-family="Times,serif" font-size="14.00">ConsentLogsController</text>
<polyline fill="none" stroke="black" points="-223.5,123.5 -80.5,123.5 "/>
<text text-anchor="start" x="-215.5" y="138.7" font-family="Times,serif" font-size="14.00">edit</text>
<text text-anchor="start" x="-215.5" y="153.7" font-family="Times,serif" font-size="14.00">update</text>
<polyline fill="none" stroke="black" points="-223.5,161.5 -80.5,161.5 "/>
<polyline fill="none" stroke="black" points="-223.5,185.5 -80.5,185.5 "/>
<text text-anchor="start" x="-215.5" y="200.7" font-family="Times,serif" font-size="14.00">_layout</text>
<text text-anchor="start" x="-215.5" y="215.7" font-family="Times,serif" font-size="14.00">cl_params</text>
</g>
</g>
</svg>
