<?xml version="1.0" encoding="UTF-8" standalone="no"?>
<!DOCTYPE svg PUBLIC "-//W3C//DTD SVG 1.1//EN"
 "http://www.w3.org/Graphics/SVG/1.1/DTD/svg11.dtd">
<!-- Generated by graphviz version 2.38.0 (20140413.2041)
 -->
<!-- Title: controllers_diagram Pages: 1 -->
<svg width="566pt" height="570pt"
 viewBox="0.00 0.00 566.00 570.00" xmlns="http://www.w3.org/2000/svg" xmlns:xlink="http://www.w3.org/1999/xlink">
<g id="graph0" class="graph" transform="scale(1 1) rotate(0) translate(242 328)">
<title>controllers_diagram</title>
<polygon fill="none" stroke="none" points="-242,242 -242,-328 324,-328 324,242 -242,242"/>
<!-- _diagram_info -->
<g id="node1" class="node"><title>_diagram_info</title>
<text text-anchor="start" x="-145" y="-216.6" font-family="Times,serif" font-size="13.00">Controllers diagram</text>
<text text-anchor="start" x="-145" y="-202.6" font-family="Times,serif" font-size="13.00">Date: Feb 10 2017 &#45; 15:27</text>
<text text-anchor="start" x="-145" y="-188.6" font-family="Times,serif" font-size="13.00">Migration version: 20170209064126</text>
<text text-anchor="start" x="-145" y="-174.6" font-family="Times,serif" font-size="13.00">Generated by RailRoady 1.5.2</text>
<text text-anchor="start" x="-145" y="-160.6" font-family="Times,serif" font-size="13.00">http://railroady.prestonlee.com</text>
</g>
<!-- ApplicationController -->
<g id="node2" class="node"><title>ApplicationController</title>
<path fill="none" stroke="black" d="M114,-35C114,-35 284,-35 284,-35 290,-35 296,-41 296,-47 296,-47 296,-131 296,-131 296,-137 290,-143 284,-143 284,-143 114,-143 114,-143 108,-143 102,-137 102,-131 102,-131 102,-47 102,-47 102,-41 108,-35 114,-35"/>
<text text-anchor="middle" x="199" y="-127.8" font-family="Times,serif" font-size="14.00">ApplicationController</text>
<polyline fill="none" stroke="black" points="102,-120 296,-120 "/>
<polyline fill="none" stroke="black" points="102,-96 296,-96 "/>
<text text-anchor="start" x="110" y="-80.8" font-family="Times,serif" font-size="14.00">configure_permitted_parameters</text>
<text text-anchor="start" x="110" y="-65.8" font-family="Times,serif" font-size="14.00">set_time_zone</text>
<polyline fill="none" stroke="black" points="102,-58 296,-58 "/>
<text text-anchor="start" x="110" y="-42.8" font-family="Times,serif" font-size="14.00">_layout</text>
</g>
<!-- ExperiencesController -->
<g id="node3" class="node"><title>ExperiencesController</title>
<path fill="none" stroke="black" d="M-226,237.5C-226,237.5 -112,237.5 -112,237.5 -106,237.5 -100,231.5 -100,225.5 -100,225.5 -100,126.5 -100,126.5 -100,120.5 -106,114.5 -112,114.5 -112,114.5 -226,114.5 -226,114.5 -232,114.5 -238,120.5 -238,126.5 -238,126.5 -238,225.5 -238,225.5 -238,231.5 -232,237.5 -226,237.5"/>
<text text-anchor="middle" x="-169" y="129.7" font-family="Times,serif" font-size="14.00">ExperiencesController</text>
<polyline fill="none" stroke="black" points="-238,137.5 -100,137.5 "/>
<text text-anchor="start" x="-230" y="152.7" font-family="Times,serif" font-size="14.00">diagnose</text>
<text text-anchor="start" x="-230" y="167.7" font-family="Times,serif" font-size="14.00">next</text>
<text text-anchor="start" x="-230" y="182.7" font-family="Times,serif" font-size="14.00">reaction</text>
<polyline fill="none" stroke="black" points="-238,190.5 -100,190.5 "/>
<polyline fill="none" stroke="black" points="-238,214.5 -100,214.5 "/>
<text text-anchor="start" x="-230" y="229.7" font-family="Times,serif" font-size="14.00">_layout</text>
</g>
<!-- Users::OmniauthCallbacksController -->
<g id="node4" class="node"><title>Users::OmniauthCallbacksController</title>
<path fill="none" stroke="black" d="M114,101C114,101 308,101 308,101 314,101 320,95 320,89 320,89 320,5 320,5 320,-1 314,-7 308,-7 308,-7 114,-7 114,-7 108,-7 102,-1 102,5 102,5 102,89 102,89 102,95 108,101 114,101"/>
<text text-anchor="middle" x="211" y="8.2" font-family="Times,serif" font-size="14.00">Users::OmniauthCallbacksController</text>
<polyline fill="none" stroke="black" points="102,16 320,16 "/>
<text text-anchor="start" x="110" y="31.2" font-family="Times,serif" font-size="14.00">failure</text>
<text text-anchor="start" x="110" y="46.2" font-family="Times,serif" font-size="14.00">google_oauth2</text>
<polyline fill="none" stroke="black" points="102,54 320,54 "/>
<polyline fill="none" stroke="black" points="102,78 320,78 "/>
<text text-anchor="start" x="110" y="93.2" font-family="Times,serif" font-size="14.00">_layout</text>
</g>
<!-- HomeController -->
<g id="node5" class="node"><title>HomeController</title>
<path fill="none" stroke="black" d="M114,220.5C114,220.5 196,220.5 196,220.5 202,220.5 208,214.5 208,208.5 208,208.5 208,139.5 208,139.5 208,133.5 202,127.5 196,127.5 196,127.5 114,127.5 114,127.5 108,127.5 102,133.5 102,139.5 102,139.5 102,208.5 102,208.5 102,214.5 108,220.5 114,220.5"/>
<text text-anchor="middle" x="155" y="142.7" font-family="Times,serif" font-size="14.00">HomeController</text>
<polyline fill="none" stroke="black" points="102,150.5 208,150.5 "/>
<text text-anchor="start" x="110" y="165.7" font-family="Times,serif" font-size="14.00">index</text>
<polyline fill="none" stroke="black" points="102,173.5 208,173.5 "/>
<polyline fill="none" stroke="black" points="102,197.5 208,197.5 "/>
<text text-anchor="start" x="110" y="212.7" font-family="Times,serif" font-size="14.00">_layout</text>
</g>
<!-- InstallmentsController -->
<g id="node6" class="node"><title>InstallmentsController</title>
<path fill="none" stroke="black" d="M182.5,-170.5C182.5,-170.5 297.5,-170.5 297.5,-170.5 303.5,-170.5 309.5,-176.5 309.5,-182.5 309.5,-182.5 309.5,-311.5 309.5,-311.5 309.5,-317.5 303.5,-323.5 297.5,-323.5 297.5,-323.5 182.5,-323.5 182.5,-323.5 176.5,-323.5 170.5,-317.5 170.5,-311.5 170.5,-311.5 170.5,-182.5 170.5,-182.5 170.5,-176.5 176.5,-170.5 182.5,-170.5"/>
<text text-anchor="middle" x="240" y="-308.3" font-family="Times,serif" font-size="14.00">InstallmentsController</text>
<polyline fill="none" stroke="black" points="170.5,-300.5 309.5,-300.5 "/>
<text text-anchor="start" x="178.5" y="-285.3" font-family="Times,serif" font-size="14.00">create</text>
<text text-anchor="start" x="178.5" y="-270.3" font-family="Times,serif" font-size="14.00">edit</text>
<text text-anchor="start" x="178.5" y="-255.3" font-family="Times,serif" font-size="14.00">new</text>
<text text-anchor="start" x="178.5" y="-240.3" font-family="Times,serif" font-size="14.00">update</text>
<polyline fill="none" stroke="black" points="170.5,-232.5 309.5,-232.5 "/>
<polyline fill="none" stroke="black" points="170.5,-208.5 309.5,-208.5 "/>
<text text-anchor="start" x="178.5" y="-193.3" font-family="Times,serif" font-size="14.00">_layout</text>
<text text-anchor="start" x="178.5" y="-178.3" font-family="Times,serif" font-size="14.00">i_params</text>
</g>
<!-- ConsentLogsController -->
<g id="node7" class="node"><title>ConsentLogsController</title>
<path fill="none" stroke="black" d="M-55.5,237.5C-55.5,237.5 63.5,237.5 63.5,237.5 69.5,237.5 75.5,231.5 75.5,225.5 75.5,225.5 75.5,126.5 75.5,126.5 75.5,120.5 69.5,114.5 63.5,114.5 63.5,114.5 -55.5,114.5 -55.5,114.5 -61.5,114.5 -67.5,120.5 -67.5,126.5 -67.5,126.5 -67.5,225.5 -67.5,225.5 -67.5,231.5 -61.5,237.5 -55.5,237.5"/>
<text text-anchor="middle" x="4" y="129.7" font-family="Times,serif" font-size="14.00">ConsentLogsController</text>
<polyline fill="none" stroke="black" points="-67.5,137.5 75.5,137.5 "/>
<text text-anchor="start" x="-59.5" y="152.7" font-family="Times,serif" font-size="14.00">edit</text>
<text text-anchor="start" x="-59.5" y="167.7" font-family="Times,serif" font-size="14.00">update</text>
<polyline fill="none" stroke="black" points="-67.5,175.5 75.5,175.5 "/>
<polyline fill="none" stroke="black" points="-67.5,199.5 75.5,199.5 "/>
<text text-anchor="start" x="-59.5" y="214.7" font-family="Times,serif" font-size="14.00">_layout</text>
<text text-anchor="start" x="-59.5" y="229.7" font-family="Times,serif" font-size="14.00">cl_params</text>
</g>
<!-- GraphingController -->
<g id="node8" class="node"><title>GraphingController</title>
<path fill="none" stroke="black" d="M-89.5,85C-89.5,85 61.5,85 61.5,85 67.5,85 73.5,79 73.5,73 73.5,73 73.5,-71 73.5,-71 73.5,-77 67.5,-83 61.5,-83 61.5,-83 -89.5,-83 -89.5,-83 -95.5,-83 -101.5,-77 -101.5,-71 -101.5,-71 -101.5,73 -101.5,73 -101.5,79 -95.5,85 -89.5,85"/>
<text text-anchor="middle" x="-14" y="-67.8" font-family="Times,serif" font-size="14.00">GraphingController</text>
<polyline fill="none" stroke="black" points="-101.5,-60 73.5,-60 "/>
<text text-anchor="start" x="-93.5" y="-44.8" font-family="Times,serif" font-size="14.00">data</text>
<text text-anchor="start" x="-93.5" y="-29.8" font-family="Times,serif" font-size="14.00">index</text>
<text text-anchor="start" x="-93.5" y="-14.8" font-family="Times,serif" font-size="14.00">individual_summary_data</text>
<text text-anchor="start" x="-93.5" y="0.2" font-family="Times,serif" font-size="14.00">pull_and_organise_user_data</text>
<text text-anchor="start" x="-93.5" y="15.2" font-family="Times,serif" font-size="14.00">raw_data</text>
<text text-anchor="start" x="-93.5" y="30.2" font-family="Times,serif" font-size="14.00">subjects</text>
<polyline fill="none" stroke="black" points="-101.5,38 73.5,38 "/>
<polyline fill="none" stroke="black" points="-101.5,62 73.5,62 "/>
<text text-anchor="start" x="-93.5" y="77.2" font-family="Times,serif" font-size="14.00">_layout</text>
</g>
</g>
</svg>
