<?xml version="1.0" encoding="UTF-8" standalone="no"?>
<!DOCTYPE svg PUBLIC "-//W3C//DTD SVG 1.1//EN"
 "http://www.w3.org/Graphics/SVG/1.1/DTD/svg11.dtd">
<!-- Generated by graphviz version 2.38.0 (20140413.2041)
 -->
<!-- Title: controllers_diagram Pages: 1 -->
<svg width="417pt" height="329pt"
 viewBox="0.00 0.00 417.00 328.50" xmlns="http://www.w3.org/2000/svg" xmlns:xlink="http://www.w3.org/1999/xlink">
<g id="graph0" class="graph" transform="scale(1 1) rotate(0) translate(124 189.5)">
<title>controllers_diagram</title>
<polygon fill="none" stroke="none" points="-124,139 -124,-189.5 293,-189.5 293,139 -124,139"/>
<!-- _diagram_info -->
<g id="node1" class="node"><title>_diagram_info</title>
<text text-anchor="start" x="83" y="-138.6" font-family="Times,serif" font-size="13.00">Controllers diagram</text>
<text text-anchor="start" x="83" y="-124.6" font-family="Times,serif" font-size="13.00">Date: Jan 17 2017 &#45; 13:10</text>
<text text-anchor="start" x="83" y="-110.6" font-family="Times,serif" font-size="13.00">Migration version: 20170116103703</text>
<text text-anchor="start" x="83" y="-96.6" font-family="Times,serif" font-size="13.00">Generated by RailRoady 1.5.2</text>
<text text-anchor="start" x="83" y="-82.6" font-family="Times,serif" font-size="13.00">http://railroady.prestonlee.com</text>
</g>
<!-- ApplicationController -->
<g id="node2" class="node"><title>ApplicationController</title>
<path fill="none" stroke="black" d="M-78,-91C-78,-91 34,-91 34,-91 40,-91 46,-97 46,-103 46,-103 46,-173 46,-173 46,-179 40,-185 34,-185 34,-185 -78,-185 -78,-185 -84,-185 -90,-179 -90,-173 -90,-173 -90,-103 -90,-103 -90,-97 -84,-91 -78,-91"/>
<text text-anchor="middle" x="-22" y="-169.8" font-family="Times,serif" font-size="14.00">ApplicationController</text>
<polyline fill="none" stroke="black" points="-90,-162 46,-162 "/>
<polyline fill="none" stroke="black" points="-90,-138 46,-138 "/>
<polyline fill="none" stroke="black" points="-90,-114 46,-114 "/>
<text text-anchor="start" x="-82" y="-98.8" font-family="Times,serif" font-size="14.00">_layout</text>
</g>
<!-- Users::OmniauthCallbacksController -->
<g id="node3" class="node"><title>Users::OmniauthCallbacksController</title>
<path fill="none" stroke="black" d="M-108,59C-108,59 86,59 86,59 92,59 98,53 98,47 98,47 98,-37 98,-37 98,-43 92,-49 86,-49 86,-49 -108,-49 -108,-49 -114,-49 -120,-43 -120,-37 -120,-37 -120,47 -120,47 -120,53 -114,59 -108,59"/>
<text text-anchor="middle" x="-11" y="-33.8" font-family="Times,serif" font-size="14.00">Users::OmniauthCallbacksController</text>
<polyline fill="none" stroke="black" points="-120,-26 98,-26 "/>
<text text-anchor="start" x="-112" y="-10.8" font-family="Times,serif" font-size="14.00">failure</text>
<text text-anchor="start" x="-112" y="4.2" font-family="Times,serif" font-size="14.00">google_oauth2</text>
<polyline fill="none" stroke="black" points="-120,12 98,12 "/>
<polyline fill="none" stroke="black" points="-120,36 98,36 "/>
<text text-anchor="start" x="-112" y="51.2" font-family="Times,serif" font-size="14.00">_layout</text>
</g>
<!-- HomeController -->
<g id="node4" class="node"><title>HomeController</title>
<path fill="none" stroke="black" d="M147,134.5C147,134.5 229,134.5 229,134.5 235,134.5 241,128.5 241,122.5 241,122.5 241,53.5 241,53.5 241,47.5 235,41.5 229,41.5 229,41.5 147,41.5 147,41.5 141,41.5 135,47.5 135,53.5 135,53.5 135,122.5 135,122.5 135,128.5 141,134.5 147,134.5"/>
<text text-anchor="middle" x="188" y="56.7" font-family="Times,serif" font-size="14.00">HomeController</text>
<polyline fill="none" stroke="black" points="135,64.5 241,64.5 "/>
<text text-anchor="start" x="143" y="79.7" font-family="Times,serif" font-size="14.00">index</text>
<polyline fill="none" stroke="black" points="135,87.5 241,87.5 "/>
<polyline fill="none" stroke="black" points="135,111.5 241,111.5 "/>
<text text-anchor="start" x="143" y="126.7" font-family="Times,serif" font-size="14.00">_layout</text>
</g>
</g>
</svg>
