<?xml version="1.0" encoding="UTF-8" standalone="no"?>
<!DOCTYPE svg PUBLIC "-//W3C//DTD SVG 1.1//EN"
 "http://www.w3.org/Graphics/SVG/1.1/DTD/svg11.dtd">
<!-- Generated by graphviz version 2.36.0 (20140111.2315)
 -->
<!-- Title: controllers_diagram Pages: 1 -->
<svg width="657pt" height="546pt"
 viewBox="0.00 0.00 657.00 546.00" xmlns="http://www.w3.org/2000/svg" xmlns:xlink="http://www.w3.org/1999/xlink">
<g id="graph0" class="graph" transform="scale(1 1) rotate(0) translate(4 542)">
<title>controllers_diagram</title>
<polygon fill="none" stroke="none" points="-4,4 -4,-542 653,-542 653,4 -4,4"/>
<!-- _diagram_info -->
<g id="node1" class="node"><title>_diagram_info</title>
<text text-anchor="start" x="314" y="-369.6" font-family="Times,serif" font-size="13.00">Controllers diagram</text>
<text text-anchor="start" x="314" y="-355.6" font-family="Times,serif" font-size="13.00">Date: Feb 06 2017 &#45; 18:08</text>
<text text-anchor="start" x="314" y="-341.6" font-family="Times,serif" font-size="13.00">Migration version: 20170206071120</text>
<text text-anchor="start" x="314" y="-327.6" font-family="Times,serif" font-size="13.00">Generated by RailRoady 1.5.2</text>
<text text-anchor="start" x="314" y="-313.6" font-family="Times,serif" font-size="13.00">http://railroady.prestonlee.com</text>
</g>
<!-- ApplicationController -->
<g id="node2" class="node"><title>ApplicationController</title>
<path fill="none" stroke="black" d="M408,-36.5C408,-36.5 637,-36.5 637,-36.5 643,-36.5 649,-42.5 649,-48.5 649,-48.5 649,-132.5 649,-132.5 649,-138.5 643,-144.5 637,-144.5 637,-144.5 408,-144.5 408,-144.5 402,-144.5 396,-138.5 396,-132.5 396,-132.5 396,-48.5 396,-48.5 396,-42.5 402,-36.5 408,-36.5"/>
<text text-anchor="middle" x="522.5" y="-129.3" font-family="Times,serif" font-size="14.00">ApplicationController</text>
<polyline fill="none" stroke="black" points="396,-121.5 649,-121.5 "/>
<polyline fill="none" stroke="black" points="396,-97.5 649,-97.5 "/>
<text text-anchor="start" x="404" y="-82.3" font-family="Times,serif" font-size="14.00">configure_permitted_parameters</text>
<text text-anchor="start" x="404" y="-67.3" font-family="Times,serif" font-size="14.00">set_time_zone</text>
<polyline fill="none" stroke="black" points="396,-59.5 649,-59.5 "/>
<text text-anchor="start" x="404" y="-44.3" font-family="Times,serif" font-size="14.00">_layout</text>
</g>
<!-- ConsentLogsController -->
<g id="node3" class="node"><title>ConsentLogsController</title>
<path fill="none" stroke="black" d="M426,-414.5C426,-414.5 586,-414.5 586,-414.5 592,-414.5 598,-420.5 598,-426.5 598,-426.5 598,-525.5 598,-525.5 598,-531.5 592,-537.5 586,-537.5 586,-537.5 426,-537.5 426,-537.5 420,-537.5 414,-531.5 414,-525.5 414,-525.5 414,-426.5 414,-426.5 414,-420.5 420,-414.5 426,-414.5"/>
<text text-anchor="middle" x="506" y="-522.3" font-family="Times,serif" font-size="14.00">ConsentLogsController</text>
<polyline fill="none" stroke="black" points="414,-514.5 598,-514.5 "/>
<text text-anchor="start" x="422" y="-499.3" font-family="Times,serif" font-size="14.00">edit</text>
<text text-anchor="start" x="422" y="-484.3" font-family="Times,serif" font-size="14.00">update</text>
<polyline fill="none" stroke="black" points="414,-476.5 598,-476.5 "/>
<polyline fill="none" stroke="black" points="414,-452.5 598,-452.5 "/>
<text text-anchor="start" x="422" y="-437.3" font-family="Times,serif" font-size="14.00">_layout</text>
<text text-anchor="start" x="422" y="-422.3" font-family="Times,serif" font-size="14.00">cl_params</text>
</g>
<!-- ExperiencesController -->
<g id="node4" class="node"><title>ExperiencesController</title>
<path fill="none" stroke="black" d="M12,-0.5C12,-0.5 167,-0.5 167,-0.5 173,-0.5 179,-6.5 179,-12.5 179,-12.5 179,-111.5 179,-111.5 179,-117.5 173,-123.5 167,-123.5 167,-123.5 12,-123.5 12,-123.5 6,-123.5 0,-117.5 0,-111.5 0,-111.5 0,-12.5 0,-12.5 0,-6.5 6,-0.5 12,-0.5"/>
<text text-anchor="middle" x="89.5" y="-108.3" font-family="Times,serif" font-size="14.00">ExperiencesController</text>
<polyline fill="none" stroke="black" points="0,-100.5 179,-100.5 "/>
<text text-anchor="start" x="8" y="-85.3" font-family="Times,serif" font-size="14.00">diagnose</text>
<text text-anchor="start" x="8" y="-70.3" font-family="Times,serif" font-size="14.00">next</text>
<text text-anchor="start" x="8" y="-55.3" font-family="Times,serif" font-size="14.00">reaction</text>
<polyline fill="none" stroke="black" points="0,-47.5 179,-47.5 "/>
<polyline fill="none" stroke="black" points="0,-23.5 179,-23.5 "/>
<text text-anchor="start" x="8" y="-8.3" font-family="Times,serif" font-size="14.00">_layout</text>
</g>
<!-- HomeController -->
<g id="node5" class="node"><title>HomeController</title>
<path fill="none" stroke="black" d="M228,-36.5C228,-36.5 337,-36.5 337,-36.5 343,-36.5 349,-42.5 349,-48.5 349,-48.5 349,-117.5 349,-117.5 349,-123.5 343,-129.5 337,-129.5 337,-129.5 228,-129.5 228,-129.5 222,-129.5 216,-123.5 216,-117.5 216,-117.5 216,-48.5 216,-48.5 216,-42.5 222,-36.5 228,-36.5"/>
<text text-anchor="middle" x="282.5" y="-114.3" font-family="Times,serif" font-size="14.00">HomeController</text>
<polyline fill="none" stroke="black" points="216,-106.5 349,-106.5 "/>
<text text-anchor="start" x="224" y="-91.3" font-family="Times,serif" font-size="14.00">index</text>
<polyline fill="none" stroke="black" points="216,-83.5 349,-83.5 "/>
<polyline fill="none" stroke="black" points="216,-59.5 349,-59.5 "/>
<text text-anchor="start" x="224" y="-44.3" font-family="Times,serif" font-size="14.00">_layout</text>
</g>
<!-- InstallmentsController -->
<g id="node6" class="node"><title>InstallmentsController</title>
<path fill="none" stroke="black" d="M102,-342.5C102,-342.5 258,-342.5 258,-342.5 264,-342.5 270,-348.5 270,-354.5 270,-354.5 270,-483.5 270,-483.5 270,-489.5 264,-495.5 258,-495.5 258,-495.5 102,-495.5 102,-495.5 96,-495.5 90,-489.5 90,-483.5 90,-483.5 90,-354.5 90,-354.5 90,-348.5 96,-342.5 102,-342.5"/>
<text text-anchor="middle" x="180" y="-480.3" font-family="Times,serif" font-size="14.00">InstallmentsController</text>
<polyline fill="none" stroke="black" points="90,-472.5 270,-472.5 "/>
<text text-anchor="start" x="98" y="-457.3" font-family="Times,serif" font-size="14.00">create</text>
<text text-anchor="start" x="98" y="-442.3" font-family="Times,serif" font-size="14.00">edit</text>
<text text-anchor="start" x="98" y="-427.3" font-family="Times,serif" font-size="14.00">new</text>
<text text-anchor="start" x="98" y="-412.3" font-family="Times,serif" font-size="14.00">update</text>
<polyline fill="none" stroke="black" points="90,-404.5 270,-404.5 "/>
<polyline fill="none" stroke="black" points="90,-380.5 270,-380.5 "/>
<text text-anchor="start" x="98" y="-365.3" font-family="Times,serif" font-size="14.00">_layout</text>
<text text-anchor="start" x="98" y="-350.3" font-family="Times,serif" font-size="14.00">i_params</text>
</g>
<!-- Users::OmniauthCallbacksController -->
<g id="node7" class="node"><title>Users::OmniauthCallbacksController</title>
<path fill="none" stroke="black" d="M84,-162.5C84,-162.5 341,-162.5 341,-162.5 347,-162.5 353,-168.5 353,-174.5 353,-174.5 353,-258.5 353,-258.5 353,-264.5 347,-270.5 341,-270.5 341,-270.5 84,-270.5 84,-270.5 78,-270.5 72,-264.5 72,-258.5 72,-258.5 72,-174.5 72,-174.5 72,-168.5 78,-162.5 84,-162.5"/>
<text text-anchor="middle" x="212.5" y="-255.3" font-family="Times,serif" font-size="14.00">Users::OmniauthCallbacksController</text>
<polyline fill="none" stroke="black" points="72,-247.5 353,-247.5 "/>
<text text-anchor="start" x="80" y="-232.3" font-family="Times,serif" font-size="14.00">failure</text>
<text text-anchor="start" x="80" y="-217.3" font-family="Times,serif" font-size="14.00">google_oauth2</text>
<polyline fill="none" stroke="black" points="72,-209.5 353,-209.5 "/>
<polyline fill="none" stroke="black" points="72,-185.5 353,-185.5 "/>
<text text-anchor="start" x="80" y="-170.3" font-family="Times,serif" font-size="14.00">_layout</text>
</g>
</g>
</svg>
