<?xml version="1.0" encoding="UTF-8" standalone="no"?>
<!DOCTYPE svg PUBLIC "-//W3C//DTD SVG 1.1//EN"
 "http://www.w3.org/Graphics/SVG/1.1/DTD/svg11.dtd">
<!-- Generated by graphviz version 2.36.0 (20140111.2315)
 -->
<!-- Title: controllers_diagram Pages: 1 -->
<svg width="943pt" height="972pt"
 viewBox="0.00 0.00 943.00 972.00" xmlns="http://www.w3.org/2000/svg" xmlns:xlink="http://www.w3.org/1999/xlink">
<g id="graph0" class="graph" transform="scale(1 1) rotate(0) translate(4 968)">
<title>controllers_diagram</title>
<polygon fill="none" stroke="none" points="-4,4 -4,-968 939,-968 939,4 -4,4"/>
<!-- _diagram_info -->
<g id="node1" class="node"><title>_diagram_info</title>
<text text-anchor="start" x="8" y="-105.6" font-family="Times,serif" font-size="13.00">Controllers diagram</text>
<text text-anchor="start" x="8" y="-91.6" font-family="Times,serif" font-size="13.00">Date: Oct 09 2017 &#45; 17:51</text>
<text text-anchor="start" x="8" y="-77.6" font-family="Times,serif" font-size="13.00">Migration version: 20171009050315</text>
<text text-anchor="start" x="8" y="-63.6" font-family="Times,serif" font-size="13.00">Generated by RailRoady 1.5.2</text>
<text text-anchor="start" x="8" y="-49.6" font-family="Times,serif" font-size="13.00">http://railroady.prestonlee.com</text>
</g>
<!-- ApplicationController -->
<g id="node2" class="node"><title>ApplicationController</title>
<path fill="none" stroke="black" d="M642,-0.5C642,-0.5 812,-0.5 812,-0.5 818,-0.5 824,-6.5 824,-12.5 824,-12.5 824,-96.5 824,-96.5 824,-102.5 818,-108.5 812,-108.5 812,-108.5 642,-108.5 642,-108.5 636,-108.5 630,-102.5 630,-96.5 630,-96.5 630,-12.5 630,-12.5 630,-6.5 636,-0.5 642,-0.5"/>
<text text-anchor="middle" x="727" y="-93.3" font-family="Times,serif" font-size="14.00">ApplicationController</text>
<polyline fill="none" stroke="black" points="630,-85.5 824,-85.5 "/>
<polyline fill="none" stroke="black" points="630,-61.5 824,-61.5 "/>
<text text-anchor="start" x="638" y="-46.3" font-family="Times,serif" font-size="14.00">configure_permitted_parameters</text>
<text text-anchor="start" x="638" y="-31.3" font-family="Times,serif" font-size="14.00">set_locale</text>
<polyline fill="none" stroke="black" points="630,-23.5 824,-23.5 "/>
<text text-anchor="start" x="638" y="-8.3" font-family="Times,serif" font-size="14.00">_layout</text>
</g>
<!-- BingoGamesController -->
<g id="node3" class="node"><title>BingoGamesController</title>
<path fill="none" stroke="black" d="M306,-231.5C306,-231.5 442,-231.5 442,-231.5 448,-231.5 454,-237.5 454,-243.5 454,-243.5 454,-567.5 454,-567.5 454,-573.5 448,-579.5 442,-579.5 442,-579.5 306,-579.5 306,-579.5 300,-579.5 294,-573.5 294,-567.5 294,-567.5 294,-243.5 294,-243.5 294,-237.5 300,-231.5 306,-231.5"/>
<text text-anchor="middle" x="374" y="-564.3" font-family="Times,serif" font-size="14.00">BingoGamesController</text>
<polyline fill="none" stroke="black" points="294,-556.5 454,-556.5 "/>
<text text-anchor="start" x="302" y="-541.3" font-family="Times,serif" font-size="14.00">activate</text>
<text text-anchor="start" x="302" y="-526.3" font-family="Times,serif" font-size="14.00">create</text>
<text text-anchor="start" x="302" y="-511.3" font-family="Times,serif" font-size="14.00">destroy</text>
<text text-anchor="start" x="302" y="-496.3" font-family="Times,serif" font-size="14.00">edit</text>
<text text-anchor="start" x="302" y="-481.3" font-family="Times,serif" font-size="14.00">get_board</text>
<text text-anchor="start" x="302" y="-466.3" font-family="Times,serif" font-size="14.00">index</text>
<text text-anchor="start" x="302" y="-451.3" font-family="Times,serif" font-size="14.00">new</text>
<text text-anchor="start" x="302" y="-436.3" font-family="Times,serif" font-size="14.00">play_board</text>
<text text-anchor="start" x="302" y="-421.3" font-family="Times,serif" font-size="14.00">review_candidates</text>
<text text-anchor="start" x="302" y="-406.3" font-family="Times,serif" font-size="14.00">show</text>
<text text-anchor="start" x="302" y="-391.3" font-family="Times,serif" font-size="14.00">update</text>
<text text-anchor="start" x="302" y="-376.3" font-family="Times,serif" font-size="14.00">update_board</text>
<text text-anchor="start" x="302" y="-361.3" font-family="Times,serif" font-size="14.00">update_review_candidates</text>
<text text-anchor="start" x="302" y="-346.3" font-family="Times,serif" font-size="14.00">validate_win</text>
<polyline fill="none" stroke="black" points="294,-338.5 454,-338.5 "/>
<polyline fill="none" stroke="black" points="294,-314.5 454,-314.5 "/>
<text text-anchor="start" x="302" y="-299.3" font-family="Times,serif" font-size="14.00">_layout</text>
<text text-anchor="start" x="302" y="-284.3" font-family="Times,serif" font-size="14.00">bingo_game_params</text>
<text text-anchor="start" x="302" y="-269.3" font-family="Times,serif" font-size="14.00">check_editor</text>
<text text-anchor="start" x="302" y="-254.3" font-family="Times,serif" font-size="14.00">check_viewer</text>
<text text-anchor="start" x="302" y="-239.3" font-family="Times,serif" font-size="14.00">set_bingo_game</text>
</g>
<!-- CandidateListsController -->
<g id="node4" class="node"><title>CandidateListsController</title>
<path fill="none" stroke="black" d="M663,-147.5C663,-147.5 812,-147.5 812,-147.5 818,-147.5 824,-153.5 824,-159.5 824,-159.5 824,-362.5 824,-362.5 824,-368.5 818,-374.5 812,-374.5 812,-374.5 663,-374.5 663,-374.5 657,-374.5 651,-368.5 651,-362.5 651,-362.5 651,-159.5 651,-159.5 651,-153.5 657,-147.5 663,-147.5"/>
<text text-anchor="middle" x="737.5" y="-359.3" font-family="Times,serif" font-size="14.00">CandidateListsController</text>
<polyline fill="none" stroke="black" points="651,-351.5 824,-351.5 "/>
<text text-anchor="start" x="659" y="-336.3" font-family="Times,serif" font-size="14.00">create</text>
<text text-anchor="start" x="659" y="-321.3" font-family="Times,serif" font-size="14.00">demo_complete</text>
<text text-anchor="start" x="659" y="-306.3" font-family="Times,serif" font-size="14.00">edit</text>
<text text-anchor="start" x="659" y="-291.3" font-family="Times,serif" font-size="14.00">list_stats</text>
<text text-anchor="start" x="659" y="-276.3" font-family="Times,serif" font-size="14.00">request_collaboration</text>
<text text-anchor="start" x="659" y="-261.3" font-family="Times,serif" font-size="14.00">show</text>
<text text-anchor="start" x="659" y="-246.3" font-family="Times,serif" font-size="14.00">update</text>
<polyline fill="none" stroke="black" points="651,-238.5 824,-238.5 "/>
<text text-anchor="start" x="659" y="-223.3" font-family="Times,serif" font-size="14.00">merge_to_group_list</text>
<polyline fill="none" stroke="black" points="651,-215.5 824,-215.5 "/>
<text text-anchor="start" x="659" y="-200.3" font-family="Times,serif" font-size="14.00">_layout</text>
<text text-anchor="start" x="659" y="-185.3" font-family="Times,serif" font-size="14.00">candidate_list_params</text>
<text text-anchor="start" x="659" y="-170.3" font-family="Times,serif" font-size="14.00">merge_individuals_to_group</text>
<text text-anchor="start" x="659" y="-155.3" font-family="Times,serif" font-size="14.00">set_candidate_list</text>
</g>
<!-- ConsentFormsController -->
<g id="node5" class="node"><title>ConsentFormsController</title>
<path fill="none" stroke="black" d="M117,-378.5C117,-378.5 245,-378.5 245,-378.5 251,-378.5 257,-384.5 257,-390.5 257,-390.5 257,-579.5 257,-579.5 257,-585.5 251,-591.5 245,-591.5 245,-591.5 117,-591.5 117,-591.5 111,-591.5 105,-585.5 105,-579.5 105,-579.5 105,-390.5 105,-390.5 105,-384.5 111,-378.5 117,-378.5"/>
<text text-anchor="middle" x="181" y="-576.3" font-family="Times,serif" font-size="14.00">ConsentFormsController</text>
<polyline fill="none" stroke="black" points="105,-568.5 257,-568.5 "/>
<text text-anchor="start" x="113" y="-553.3" font-family="Times,serif" font-size="14.00">create</text>
<text text-anchor="start" x="113" y="-538.3" font-family="Times,serif" font-size="14.00">destroy</text>
<text text-anchor="start" x="113" y="-523.3" font-family="Times,serif" font-size="14.00">edit</text>
<text text-anchor="start" x="113" y="-508.3" font-family="Times,serif" font-size="14.00">index</text>
<text text-anchor="start" x="113" y="-493.3" font-family="Times,serif" font-size="14.00">new</text>
<text text-anchor="start" x="113" y="-478.3" font-family="Times,serif" font-size="14.00">show</text>
<text text-anchor="start" x="113" y="-463.3" font-family="Times,serif" font-size="14.00">update</text>
<polyline fill="none" stroke="black" points="105,-455.5 257,-455.5 "/>
<polyline fill="none" stroke="black" points="105,-431.5 257,-431.5 "/>
<text text-anchor="start" x="113" y="-416.3" font-family="Times,serif" font-size="14.00">_layout</text>
<text text-anchor="start" x="113" y="-401.3" font-family="Times,serif" font-size="14.00">consent_form_params</text>
<text text-anchor="start" x="113" y="-386.3" font-family="Times,serif" font-size="14.00">set_consent_form</text>
</g>
<!-- ConsentLogsController -->
<g id="node6" class="node"><title>ConsentLogsController</title>
<path fill="none" stroke="black" d="M12,-630.5C12,-630.5 131,-630.5 131,-630.5 137,-630.5 143,-636.5 143,-642.5 143,-642.5 143,-741.5 143,-741.5 143,-747.5 137,-753.5 131,-753.5 131,-753.5 12,-753.5 12,-753.5 6,-753.5 0,-747.5 0,-741.5 0,-741.5 0,-642.5 0,-642.5 0,-636.5 6,-630.5 12,-630.5"/>
<text text-anchor="middle" x="71.5" y="-738.3" font-family="Times,serif" font-size="14.00">ConsentLogsController</text>
<polyline fill="none" stroke="black" points="0,-730.5 143,-730.5 "/>
<text text-anchor="start" x="8" y="-715.3" font-family="Times,serif" font-size="14.00">edit</text>
<text text-anchor="start" x="8" y="-700.3" font-family="Times,serif" font-size="14.00">update</text>
<polyline fill="none" stroke="black" points="0,-692.5 143,-692.5 "/>
<polyline fill="none" stroke="black" points="0,-668.5 143,-668.5 "/>
<text text-anchor="start" x="8" y="-653.3" font-family="Times,serif" font-size="14.00">_layout</text>
<text text-anchor="start" x="8" y="-638.3" font-family="Times,serif" font-size="14.00">cl_params</text>
</g>
<!-- CoursesController -->
<g id="node7" class="node"><title>CoursesController</title>
<path fill="none" stroke="black" d="M516,-294.5C516,-294.5 608,-294.5 608,-294.5 614,-294.5 620,-300.5 620,-306.5 620,-306.5 620,-630.5 620,-630.5 620,-636.5 614,-642.5 608,-642.5 608,-642.5 516,-642.5 516,-642.5 510,-642.5 504,-636.5 504,-630.5 504,-630.5 504,-306.5 504,-306.5 504,-300.5 510,-294.5 516,-294.5"/>
<text text-anchor="middle" x="562" y="-627.3" font-family="Times,serif" font-size="14.00">CoursesController</text>
<polyline fill="none" stroke="black" points="504,-619.5 620,-619.5 "/>
<text text-anchor="start" x="512" y="-604.3" font-family="Times,serif" font-size="14.00">accept_roster</text>
<text text-anchor="start" x="512" y="-589.3" font-family="Times,serif" font-size="14.00">add_instructors</text>
<text text-anchor="start" x="512" y="-574.3" font-family="Times,serif" font-size="14.00">add_students</text>
<text text-anchor="start" x="512" y="-559.3" font-family="Times,serif" font-size="14.00">create</text>
<text text-anchor="start" x="512" y="-544.3" font-family="Times,serif" font-size="14.00">decline_roster</text>
<text text-anchor="start" x="512" y="-529.3" font-family="Times,serif" font-size="14.00">destroy</text>
<text text-anchor="start" x="512" y="-514.3" font-family="Times,serif" font-size="14.00">drop_student</text>
<text text-anchor="start" x="512" y="-499.3" font-family="Times,serif" font-size="14.00">edit</text>
<text text-anchor="start" x="512" y="-484.3" font-family="Times,serif" font-size="14.00">index</text>
<text text-anchor="start" x="512" y="-469.3" font-family="Times,serif" font-size="14.00">new</text>
<text text-anchor="start" x="512" y="-454.3" font-family="Times,serif" font-size="14.00">re_invite_student</text>
<text text-anchor="start" x="512" y="-439.3" font-family="Times,serif" font-size="14.00">remove_instructor</text>
<text text-anchor="start" x="512" y="-424.3" font-family="Times,serif" font-size="14.00">show</text>
<text text-anchor="start" x="512" y="-409.3" font-family="Times,serif" font-size="14.00">update</text>
<polyline fill="none" stroke="black" points="504,-401.5 620,-401.5 "/>
<polyline fill="none" stroke="black" points="504,-377.5 620,-377.5 "/>
<text text-anchor="start" x="512" y="-362.3" font-family="Times,serif" font-size="14.00">_layout</text>
<text text-anchor="start" x="512" y="-347.3" font-family="Times,serif" font-size="14.00">check_editor</text>
<text text-anchor="start" x="512" y="-332.3" font-family="Times,serif" font-size="14.00">check_viewer</text>
<text text-anchor="start" x="512" y="-317.3" font-family="Times,serif" font-size="14.00">course_params</text>
<text text-anchor="start" x="512" y="-302.3" font-family="Times,serif" font-size="14.00">set_course</text>
</g>
<!-- ExperiencesController -->
<g id="node8" class="node"><title>ExperiencesController</title>
<path fill="none" stroke="black" d="M348,-630.5C348,-630.5 462,-630.5 462,-630.5 468,-630.5 474,-636.5 474,-642.5 474,-642.5 474,-951.5 474,-951.5 474,-957.5 468,-963.5 462,-963.5 462,-963.5 348,-963.5 348,-963.5 342,-963.5 336,-957.5 336,-951.5 336,-951.5 336,-642.5 336,-642.5 336,-636.5 342,-630.5 348,-630.5"/>
<text text-anchor="middle" x="405" y="-948.3" font-family="Times,serif" font-size="14.00">ExperiencesController</text>
<polyline fill="none" stroke="black" points="336,-940.5 474,-940.5 "/>
<text text-anchor="start" x="344" y="-925.3" font-family="Times,serif" font-size="14.00">activate</text>
<text text-anchor="start" x="344" y="-910.3" font-family="Times,serif" font-size="14.00">create</text>
<text text-anchor="start" x="344" y="-895.3" font-family="Times,serif" font-size="14.00">destroy</text>
<text text-anchor="start" x="344" y="-880.3" font-family="Times,serif" font-size="14.00">diagnose</text>
<text text-anchor="start" x="344" y="-865.3" font-family="Times,serif" font-size="14.00">edit</text>
<text text-anchor="start" x="344" y="-850.3" font-family="Times,serif" font-size="14.00">index</text>
<text text-anchor="start" x="344" y="-835.3" font-family="Times,serif" font-size="14.00">new</text>
<text text-anchor="start" x="344" y="-820.3" font-family="Times,serif" font-size="14.00">next</text>
<text text-anchor="start" x="344" y="-805.3" font-family="Times,serif" font-size="14.00">react</text>
<text text-anchor="start" x="344" y="-790.3" font-family="Times,serif" font-size="14.00">show</text>
<text text-anchor="start" x="344" y="-775.3" font-family="Times,serif" font-size="14.00">update</text>
<polyline fill="none" stroke="black" points="336,-767.5 474,-767.5 "/>
<polyline fill="none" stroke="black" points="336,-743.5 474,-743.5 "/>
<text text-anchor="start" x="344" y="-728.3" font-family="Times,serif" font-size="14.00">_layout</text>
<text text-anchor="start" x="344" y="-713.3" font-family="Times,serif" font-size="14.00">check_editor</text>
<text text-anchor="start" x="344" y="-698.3" font-family="Times,serif" font-size="14.00">check_viewer</text>
<text text-anchor="start" x="344" y="-683.3" font-family="Times,serif" font-size="14.00">diagnosis_params</text>
<text text-anchor="start" x="344" y="-668.3" font-family="Times,serif" font-size="14.00">experience_params</text>
<text text-anchor="start" x="344" y="-653.3" font-family="Times,serif" font-size="14.00">reaction_params</text>
<text text-anchor="start" x="344" y="-638.3" font-family="Times,serif" font-size="14.00">set_experience</text>
</g>
<!-- GraphingController -->
<g id="node9" class="node"><title>GraphingController</title>
<path fill="none" stroke="black" d="M663,-420.5C663,-420.5 814,-420.5 814,-420.5 820,-420.5 826,-426.5 826,-432.5 826,-432.5 826,-576.5 826,-576.5 826,-582.5 820,-588.5 814,-588.5 814,-588.5 663,-588.5 663,-588.5 657,-588.5 651,-582.5 651,-576.5 651,-576.5 651,-432.5 651,-432.5 651,-426.5 657,-420.5 663,-420.5"/>
<text text-anchor="middle" x="738.5" y="-573.3" font-family="Times,serif" font-size="14.00">GraphingController</text>
<polyline fill="none" stroke="black" points="651,-565.5 826,-565.5 "/>
<text text-anchor="start" x="659" y="-550.3" font-family="Times,serif" font-size="14.00">data</text>
<text text-anchor="start" x="659" y="-535.3" font-family="Times,serif" font-size="14.00">index</text>
<text text-anchor="start" x="659" y="-520.3" font-family="Times,serif" font-size="14.00">individual_summary_data</text>
<text text-anchor="start" x="659" y="-505.3" font-family="Times,serif" font-size="14.00">pull_and_organise_user_data</text>
<text text-anchor="start" x="659" y="-490.3" font-family="Times,serif" font-size="14.00">raw_data</text>
<text text-anchor="start" x="659" y="-475.3" font-family="Times,serif" font-size="14.00">subjects</text>
<polyline fill="none" stroke="black" points="651,-467.5 826,-467.5 "/>
<polyline fill="none" stroke="black" points="651,-443.5 826,-443.5 "/>
<text text-anchor="start" x="659" y="-428.3" font-family="Times,serif" font-size="14.00">_layout</text>
</g>
<!-- HomeController -->
<g id="node10" class="node"><title>HomeController</title>
<path fill="none" stroke="black" d="M810,-630.5C810,-630.5 923,-630.5 923,-630.5 929,-630.5 935,-636.5 935,-642.5 935,-642.5 935,-756.5 935,-756.5 935,-762.5 929,-768.5 923,-768.5 923,-768.5 810,-768.5 810,-768.5 804,-768.5 798,-762.5 798,-756.5 798,-756.5 798,-642.5 798,-642.5 798,-636.5 804,-630.5 810,-630.5"/>
<text text-anchor="middle" x="866.5" y="-753.3" font-family="Times,serif" font-size="14.00">HomeController</text>
<polyline fill="none" stroke="black" points="798,-745.5 935,-745.5 "/>
<text text-anchor="start" x="806" y="-730.3" font-family="Times,serif" font-size="14.00">check_diversity_score</text>
<text text-anchor="start" x="806" y="-715.3" font-family="Times,serif" font-size="14.00">demo_start</text>
<text text-anchor="start" x="806" y="-700.3" font-family="Times,serif" font-size="14.00">index</text>
<text text-anchor="start" x="806" y="-685.3" font-family="Times,serif" font-size="14.00">states_for_country</text>
<polyline fill="none" stroke="black" points="798,-677.5 935,-677.5 "/>
<polyline fill="none" stroke="black" points="798,-653.5 935,-653.5 "/>
<text text-anchor="start" x="806" y="-638.3" font-family="Times,serif" font-size="14.00">_layout</text>
</g>
<!-- InstallmentsController -->
<g id="node11" class="node"><title>InstallmentsController</title>
<path fill="none" stroke="black" d="M117,-168.5C117,-168.5 232,-168.5 232,-168.5 238,-168.5 244,-174.5 244,-180.5 244,-180.5 244,-324.5 244,-324.5 244,-330.5 238,-336.5 232,-336.5 232,-336.5 117,-336.5 117,-336.5 111,-336.5 105,-330.5 105,-324.5 105,-324.5 105,-180.5 105,-180.5 105,-174.5 111,-168.5 117,-168.5"/>
<text text-anchor="middle" x="174.5" y="-321.3" font-family="Times,serif" font-size="14.00">InstallmentsController</text>
<polyline fill="none" stroke="black" points="105,-313.5 244,-313.5 "/>
<text text-anchor="start" x="113" y="-298.3" font-family="Times,serif" font-size="14.00">create</text>
<text text-anchor="start" x="113" y="-283.3" font-family="Times,serif" font-size="14.00">demo_complete</text>
<text text-anchor="start" x="113" y="-268.3" font-family="Times,serif" font-size="14.00">edit</text>
<text text-anchor="start" x="113" y="-253.3" font-family="Times,serif" font-size="14.00">new</text>
<text text-anchor="start" x="113" y="-238.3" font-family="Times,serif" font-size="14.00">update</text>
<polyline fill="none" stroke="black" points="105,-230.5 244,-230.5 "/>
<polyline fill="none" stroke="black" points="105,-206.5 244,-206.5 "/>
<text text-anchor="start" x="113" y="-191.3" font-family="Times,serif" font-size="14.00">_layout</text>
<text text-anchor="start" x="113" y="-176.3" font-family="Times,serif" font-size="14.00">i_params</text>
</g>
<!-- ProjectsController -->
<g id="node12" class="node"><title>ProjectsController</title>
<path fill="none" stroke="black" d="M201,-630.5C201,-630.5 293,-630.5 293,-630.5 299,-630.5 305,-636.5 305,-642.5 305,-642.5 305,-936.5 305,-936.5 305,-942.5 299,-948.5 293,-948.5 293,-948.5 201,-948.5 201,-948.5 195,-948.5 189,-942.5 189,-936.5 189,-936.5 189,-642.5 189,-642.5 189,-636.5 195,-630.5 201,-630.5"/>
<text text-anchor="middle" x="247" y="-933.3" font-family="Times,serif" font-size="14.00">ProjectsController</text>
<polyline fill="none" stroke="black" points="189,-925.5 305,-925.5 "/>
<text text-anchor="start" x="197" y="-910.3" font-family="Times,serif" font-size="14.00">activate</text>
<text text-anchor="start" x="197" y="-895.3" font-family="Times,serif" font-size="14.00">add_group</text>
<text text-anchor="start" x="197" y="-880.3" font-family="Times,serif" font-size="14.00">create</text>
<text text-anchor="start" x="197" y="-865.3" font-family="Times,serif" font-size="14.00">destroy</text>
<text text-anchor="start" x="197" y="-850.3" font-family="Times,serif" font-size="14.00">edit</text>
<text text-anchor="start" x="197" y="-835.3" font-family="Times,serif" font-size="14.00">index</text>
<text text-anchor="start" x="197" y="-820.3" font-family="Times,serif" font-size="14.00">new</text>
<text text-anchor="start" x="197" y="-805.3" font-family="Times,serif" font-size="14.00">remove_group</text>
<text text-anchor="start" x="197" y="-790.3" font-family="Times,serif" font-size="14.00">rescore_group</text>
<text text-anchor="start" x="197" y="-775.3" font-family="Times,serif" font-size="14.00">rescore_groups</text>
<text text-anchor="start" x="197" y="-760.3" font-family="Times,serif" font-size="14.00">show</text>
<text text-anchor="start" x="197" y="-745.3" font-family="Times,serif" font-size="14.00">update</text>
<polyline fill="none" stroke="black" points="189,-737.5 305,-737.5 "/>
<polyline fill="none" stroke="black" points="189,-713.5 305,-713.5 "/>
<text text-anchor="start" x="197" y="-698.3" font-family="Times,serif" font-size="14.00">_layout</text>
<text text-anchor="start" x="197" y="-683.3" font-family="Times,serif" font-size="14.00">check_editor</text>
<text text-anchor="start" x="197" y="-668.3" font-family="Times,serif" font-size="14.00">check_viewer</text>
<text text-anchor="start" x="197" y="-653.3" font-family="Times,serif" font-size="14.00">project_params</text>
<text text-anchor="start" x="197" y="-638.3" font-family="Times,serif" font-size="14.00">set_project</text>
</g>
<!-- RegistrationsController -->
<g id="node13" class="node"><title>RegistrationsController</title>
<path fill="none" stroke="black" d="M12,-798.5C12,-798.5 132,-798.5 132,-798.5 138,-798.5 144,-804.5 144,-810.5 144,-810.5 144,-938.5 144,-938.5 144,-944.5 138,-950.5 132,-950.5 132,-950.5 12,-950.5 12,-950.5 6,-950.5 0,-944.5 0,-938.5 0,-938.5 0,-810.5 0,-810.5 0,-804.5 6,-798.5 12,-798.5"/>
<text text-anchor="middle" x="72" y="-935.3" font-family="Times,serif" font-size="14.00">RegistrationsController</text>
<polyline fill="none" stroke="black" points="0,-927.5 144,-927.5 "/>
<text text-anchor="start" x="8" y="-912.3" font-family="Times,serif" font-size="14.00">add_email</text>
<text text-anchor="start" x="8" y="-897.3" font-family="Times,serif" font-size="14.00">initiate_password_reset</text>
<text text-anchor="start" x="8" y="-882.3" font-family="Times,serif" font-size="14.00">remove_email</text>
<text text-anchor="start" x="8" y="-867.3" font-family="Times,serif" font-size="14.00">set_primary_email</text>
<polyline fill="none" stroke="black" points="0,-859.5 144,-859.5 "/>
<text text-anchor="start" x="8" y="-844.3" font-family="Times,serif" font-size="14.00">update_resource</text>
<polyline fill="none" stroke="black" points="0,-836.5 144,-836.5 "/>
<text text-anchor="start" x="8" y="-821.3" font-family="Times,serif" font-size="14.00">_layout</text>
<text text-anchor="start" x="8" y="-806.3" font-family="Times,serif" font-size="14.00">set_email</text>
</g>
<!-- SchoolsController -->
<g id="node14" class="node"><title>SchoolsController</title>
<path fill="none" stroke="black" d="M663,-630.5C663,-630.5 754,-630.5 754,-630.5 760,-630.5 766,-636.5 766,-642.5 766,-642.5 766,-846.5 766,-846.5 766,-852.5 760,-858.5 754,-858.5 754,-858.5 663,-858.5 663,-858.5 657,-858.5 651,-852.5 651,-846.5 651,-846.5 651,-642.5 651,-642.5 651,-636.5 657,-630.5 663,-630.5"/>
<text text-anchor="middle" x="708.5" y="-843.3" font-family="Times,serif" font-size="14.00">SchoolsController</text>
<polyline fill="none" stroke="black" points="651,-835.5 766,-835.5 "/>
<text text-anchor="start" x="659" y="-820.3" font-family="Times,serif" font-size="14.00">create</text>
<text text-anchor="start" x="659" y="-805.3" font-family="Times,serif" font-size="14.00">destroy</text>
<text text-anchor="start" x="659" y="-790.3" font-family="Times,serif" font-size="14.00">edit</text>
<text text-anchor="start" x="659" y="-775.3" font-family="Times,serif" font-size="14.00">index</text>
<text text-anchor="start" x="659" y="-760.3" font-family="Times,serif" font-size="14.00">new</text>
<text text-anchor="start" x="659" y="-745.3" font-family="Times,serif" font-size="14.00">show</text>
<text text-anchor="start" x="659" y="-730.3" font-family="Times,serif" font-size="14.00">update</text>
<polyline fill="none" stroke="black" points="651,-722.5 766,-722.5 "/>
<polyline fill="none" stroke="black" points="651,-698.5 766,-698.5 "/>
<text text-anchor="start" x="659" y="-683.3" font-family="Times,serif" font-size="14.00">_layout</text>
<text text-anchor="start" x="659" y="-668.3" font-family="Times,serif" font-size="14.00">check_admin</text>
<text text-anchor="start" x="659" y="-653.3" font-family="Times,serif" font-size="14.00">school_params</text>
<text text-anchor="start" x="659" y="-638.3" font-family="Times,serif" font-size="14.00">set_school</text>
</g>
<!-- Users::OmniauthCallbacksController -->
<g id="node15" class="node"><title>Users::OmniauthCallbacksController</title>
<path fill="none" stroke="black" d="M390,-84.5C390,-84.5 584,-84.5 584,-84.5 590,-84.5 596,-90.5 596,-96.5 596,-96.5 596,-180.5 596,-180.5 596,-186.5 590,-192.5 584,-192.5 584,-192.5 390,-192.5 390,-192.5 384,-192.5 378,-186.5 378,-180.5 378,-180.5 378,-96.5 378,-96.5 378,-90.5 384,-84.5 390,-84.5"/>
<text text-anchor="middle" x="487" y="-177.3" font-family="Times,serif" font-size="14.00">Users::OmniauthCallbacksController</text>
<polyline fill="none" stroke="black" points="378,-169.5 596,-169.5 "/>
<text text-anchor="start" x="386" y="-154.3" font-family="Times,serif" font-size="14.00">failure</text>
<text text-anchor="start" x="386" y="-139.3" font-family="Times,serif" font-size="14.00">google_oauth2</text>
<polyline fill="none" stroke="black" points="378,-131.5 596,-131.5 "/>
<polyline fill="none" stroke="black" points="378,-107.5 596,-107.5 "/>
<text text-anchor="start" x="386" y="-92.3" font-family="Times,serif" font-size="14.00">_layout</text>
</g>
</g>
</svg>
