<?xml version="1.0" encoding="UTF-8" standalone="no"?>
<!DOCTYPE svg PUBLIC "-//W3C//DTD SVG 1.1//EN"
 "http://www.w3.org/Graphics/SVG/1.1/DTD/svg11.dtd">
<!-- Generated by graphviz version 2.36.0 (20140111.2315)
 -->
<!-- Title: controllers_diagram Pages: 1 -->
<svg width="899pt" height="854pt"
 viewBox="0.00 0.00 899.00 854.00" xmlns="http://www.w3.org/2000/svg" xmlns:xlink="http://www.w3.org/1999/xlink">
<g id="graph0" class="graph" transform="scale(1 1) rotate(0) translate(4 850)">
<title>controllers_diagram</title>
<polygon fill="none" stroke="none" points="-4,4 -4,-850 895,-850 895,4 -4,4"/>
<!-- _diagram_info -->
<g id="node1" class="node"><title>_diagram_info</title>
<text text-anchor="start" x="8" y="-107.6" font-family="Times,serif" font-size="13.00">Controllers diagram</text>
<text text-anchor="start" x="8" y="-93.6" font-family="Times,serif" font-size="13.00">Date: Mar 31 2017 &#45; 00:40</text>
<text text-anchor="start" x="8" y="-79.6" font-family="Times,serif" font-size="13.00">Migration version: 20170330153632</text>
<text text-anchor="start" x="8" y="-65.6" font-family="Times,serif" font-size="13.00">Generated by RailRoady 1.5.2</text>
<text text-anchor="start" x="8" y="-51.6" font-family="Times,serif" font-size="13.00">http://railroady.prestonlee.com</text>
</g>
<!-- ApplicationController -->
<g id="node2" class="node"><title>ApplicationController</title>
<path fill="none" stroke="black" d="M650,-220.5C650,-220.5 879,-220.5 879,-220.5 885,-220.5 891,-226.5 891,-232.5 891,-232.5 891,-316.5 891,-316.5 891,-322.5 885,-328.5 879,-328.5 879,-328.5 650,-328.5 650,-328.5 644,-328.5 638,-322.5 638,-316.5 638,-316.5 638,-232.5 638,-232.5 638,-226.5 644,-220.5 650,-220.5"/>
<text text-anchor="middle" x="764.5" y="-313.3" font-family="Times,serif" font-size="14.00">ApplicationController</text>
<polyline fill="none" stroke="black" points="638,-305.5 891,-305.5 "/>
<polyline fill="none" stroke="black" points="638,-281.5 891,-281.5 "/>
<text text-anchor="start" x="646" y="-266.3" font-family="Times,serif" font-size="14.00">configure_permitted_parameters</text>
<text text-anchor="start" x="646" y="-251.3" font-family="Times,serif" font-size="14.00">set_time_zone</text>
<polyline fill="none" stroke="black" points="638,-243.5 891,-243.5 "/>
<text text-anchor="start" x="646" y="-228.3" font-family="Times,serif" font-size="14.00">_layout</text>
</g>
<!-- BingoGamesController -->
<g id="node3" class="node"><title>BingoGamesController</title>
<path fill="none" stroke="black" d="M232,-506.5C232,-506.5 388,-506.5 388,-506.5 394,-506.5 400,-512.5 400,-518.5 400,-518.5 400,-782.5 400,-782.5 400,-788.5 394,-794.5 388,-794.5 388,-794.5 232,-794.5 232,-794.5 226,-794.5 220,-788.5 220,-782.5 220,-782.5 220,-518.5 220,-518.5 220,-512.5 226,-506.5 232,-506.5"/>
<text text-anchor="middle" x="310" y="-779.3" font-family="Times,serif" font-size="14.00">BingoGamesController</text>
<polyline fill="none" stroke="black" points="220,-771.5 400,-771.5 "/>
<text text-anchor="start" x="228" y="-756.3" font-family="Times,serif" font-size="14.00">activate</text>
<text text-anchor="start" x="228" y="-741.3" font-family="Times,serif" font-size="14.00">create</text>
<text text-anchor="start" x="228" y="-726.3" font-family="Times,serif" font-size="14.00">destroy</text>
<text text-anchor="start" x="228" y="-711.3" font-family="Times,serif" font-size="14.00">diagnose</text>
<text text-anchor="start" x="228" y="-696.3" font-family="Times,serif" font-size="14.00">edit</text>
<text text-anchor="start" x="228" y="-681.3" font-family="Times,serif" font-size="14.00">index</text>
<text text-anchor="start" x="228" y="-666.3" font-family="Times,serif" font-size="14.00">new</text>
<text text-anchor="start" x="228" y="-651.3" font-family="Times,serif" font-size="14.00">next</text>
<text text-anchor="start" x="228" y="-636.3" font-family="Times,serif" font-size="14.00">react</text>
<text text-anchor="start" x="228" y="-621.3" font-family="Times,serif" font-size="14.00">show</text>
<text text-anchor="start" x="228" y="-606.3" font-family="Times,serif" font-size="14.00">update</text>
<polyline fill="none" stroke="black" points="220,-598.5 400,-598.5 "/>
<polyline fill="none" stroke="black" points="220,-574.5 400,-574.5 "/>
<text text-anchor="start" x="228" y="-559.3" font-family="Times,serif" font-size="14.00">_layout</text>
<text text-anchor="start" x="228" y="-544.3" font-family="Times,serif" font-size="14.00">check_admin</text>
<text text-anchor="start" x="228" y="-529.3" font-family="Times,serif" font-size="14.00">experience_params</text>
<text text-anchor="start" x="228" y="-514.3" font-family="Times,serif" font-size="14.00">set_game</text>
</g>
<!-- ConsentLogsController -->
<g id="node4" class="node"><title>ConsentLogsController</title>
<path fill="none" stroke="black" d="M12,-638.5C12,-638.5 172,-638.5 172,-638.5 178,-638.5 184,-644.5 184,-650.5 184,-650.5 184,-749.5 184,-749.5 184,-755.5 178,-761.5 172,-761.5 172,-761.5 12,-761.5 12,-761.5 6,-761.5 0,-755.5 0,-749.5 0,-749.5 0,-650.5 0,-650.5 0,-644.5 6,-638.5 12,-638.5"/>
<text text-anchor="middle" x="92" y="-746.3" font-family="Times,serif" font-size="14.00">ConsentLogsController</text>
<polyline fill="none" stroke="black" points="0,-738.5 184,-738.5 "/>
<text text-anchor="start" x="8" y="-723.3" font-family="Times,serif" font-size="14.00">edit</text>
<text text-anchor="start" x="8" y="-708.3" font-family="Times,serif" font-size="14.00">update</text>
<polyline fill="none" stroke="black" points="0,-700.5 184,-700.5 "/>
<polyline fill="none" stroke="black" points="0,-676.5 184,-676.5 "/>
<text text-anchor="start" x="8" y="-661.3" font-family="Times,serif" font-size="14.00">_layout</text>
<text text-anchor="start" x="8" y="-646.3" font-family="Times,serif" font-size="14.00">cl_params</text>
</g>
<!-- CoursesController -->
<g id="node5" class="node"><title>CoursesController</title>
<path fill="none" stroke="black" d="M452,-198.5C452,-198.5 577,-198.5 577,-198.5 583,-198.5 589,-204.5 589,-210.5 589,-210.5 589,-519.5 589,-519.5 589,-525.5 583,-531.5 577,-531.5 577,-531.5 452,-531.5 452,-531.5 446,-531.5 440,-525.5 440,-519.5 440,-519.5 440,-210.5 440,-210.5 440,-204.5 446,-198.5 452,-198.5"/>
<text text-anchor="middle" x="514.5" y="-516.3" font-family="Times,serif" font-size="14.00">CoursesController</text>
<polyline fill="none" stroke="black" points="440,-508.5 589,-508.5 "/>
<text text-anchor="start" x="448" y="-493.3" font-family="Times,serif" font-size="14.00">accept_roster</text>
<text text-anchor="start" x="448" y="-478.3" font-family="Times,serif" font-size="14.00">add_instructors</text>
<text text-anchor="start" x="448" y="-463.3" font-family="Times,serif" font-size="14.00">add_students</text>
<text text-anchor="start" x="448" y="-448.3" font-family="Times,serif" font-size="14.00">create</text>
<text text-anchor="start" x="448" y="-433.3" font-family="Times,serif" font-size="14.00">decline_roster</text>
<text text-anchor="start" x="448" y="-418.3" font-family="Times,serif" font-size="14.00">destroy</text>
<text text-anchor="start" x="448" y="-403.3" font-family="Times,serif" font-size="14.00">drop_student</text>
<text text-anchor="start" x="448" y="-388.3" font-family="Times,serif" font-size="14.00">edit</text>
<text text-anchor="start" x="448" y="-373.3" font-family="Times,serif" font-size="14.00">index</text>
<text text-anchor="start" x="448" y="-358.3" font-family="Times,serif" font-size="14.00">new</text>
<text text-anchor="start" x="448" y="-343.3" font-family="Times,serif" font-size="14.00">re_invite_student</text>
<text text-anchor="start" x="448" y="-328.3" font-family="Times,serif" font-size="14.00">remove_instructor</text>
<text text-anchor="start" x="448" y="-313.3" font-family="Times,serif" font-size="14.00">show</text>
<text text-anchor="start" x="448" y="-298.3" font-family="Times,serif" font-size="14.00">update</text>
<polyline fill="none" stroke="black" points="440,-290.5 589,-290.5 "/>
<polyline fill="none" stroke="black" points="440,-266.5 589,-266.5 "/>
<text text-anchor="start" x="448" y="-251.3" font-family="Times,serif" font-size="14.00">_layout</text>
<text text-anchor="start" x="448" y="-236.3" font-family="Times,serif" font-size="14.00">check_admin</text>
<text text-anchor="start" x="448" y="-221.3" font-family="Times,serif" font-size="14.00">course_params</text>
<text text-anchor="start" x="448" y="-206.3" font-family="Times,serif" font-size="14.00">set_course</text>
</g>
<!-- ExperiencesController -->
<g id="node6" class="node"><title>ExperiencesController</title>
<path fill="none" stroke="black" d="M232,-154.5C232,-154.5 387,-154.5 387,-154.5 393,-154.5 399,-160.5 399,-166.5 399,-166.5 399,-460.5 399,-460.5 399,-466.5 393,-472.5 387,-472.5 387,-472.5 232,-472.5 232,-472.5 226,-472.5 220,-466.5 220,-460.5 220,-460.5 220,-166.5 220,-166.5 220,-160.5 226,-154.5 232,-154.5"/>
<text text-anchor="middle" x="309.5" y="-457.3" font-family="Times,serif" font-size="14.00">ExperiencesController</text>
<polyline fill="none" stroke="black" points="220,-449.5 399,-449.5 "/>
<text text-anchor="start" x="228" y="-434.3" font-family="Times,serif" font-size="14.00">activate</text>
<text text-anchor="start" x="228" y="-419.3" font-family="Times,serif" font-size="14.00">create</text>
<text text-anchor="start" x="228" y="-404.3" font-family="Times,serif" font-size="14.00">destroy</text>
<text text-anchor="start" x="228" y="-389.3" font-family="Times,serif" font-size="14.00">diagnose</text>
<text text-anchor="start" x="228" y="-374.3" font-family="Times,serif" font-size="14.00">edit</text>
<text text-anchor="start" x="228" y="-359.3" font-family="Times,serif" font-size="14.00">index</text>
<text text-anchor="start" x="228" y="-344.3" font-family="Times,serif" font-size="14.00">new</text>
<text text-anchor="start" x="228" y="-329.3" font-family="Times,serif" font-size="14.00">next</text>
<text text-anchor="start" x="228" y="-314.3" font-family="Times,serif" font-size="14.00">react</text>
<text text-anchor="start" x="228" y="-299.3" font-family="Times,serif" font-size="14.00">show</text>
<text text-anchor="start" x="228" y="-284.3" font-family="Times,serif" font-size="14.00">update</text>
<polyline fill="none" stroke="black" points="220,-276.5 399,-276.5 "/>
<polyline fill="none" stroke="black" points="220,-252.5 399,-252.5 "/>
<text text-anchor="start" x="228" y="-237.3" font-family="Times,serif" font-size="14.00">_layout</text>
<text text-anchor="start" x="228" y="-222.3" font-family="Times,serif" font-size="14.00">check_admin</text>
<text text-anchor="start" x="228" y="-207.3" font-family="Times,serif" font-size="14.00">diagnosis_params</text>
<text text-anchor="start" x="228" y="-192.3" font-family="Times,serif" font-size="14.00">experience_params</text>
<text text-anchor="start" x="228" y="-177.3" font-family="Times,serif" font-size="14.00">reaction_params</text>
<text text-anchor="start" x="228" y="-162.3" font-family="Times,serif" font-size="14.00">set_experience</text>
</g>
<!-- GraphingController -->
<g id="node7" class="node"><title>GraphingController</title>
<path fill="none" stroke="black" d="M650,-0.5C650,-0.5 850,-0.5 850,-0.5 856,-0.5 862,-6.5 862,-12.5 862,-12.5 862,-156.5 862,-156.5 862,-162.5 856,-168.5 850,-168.5 850,-168.5 650,-168.5 650,-168.5 644,-168.5 638,-162.5 638,-156.5 638,-156.5 638,-12.5 638,-12.5 638,-6.5 644,-0.5 650,-0.5"/>
<text text-anchor="middle" x="750" y="-153.3" font-family="Times,serif" font-size="14.00">GraphingController</text>
<polyline fill="none" stroke="black" points="638,-145.5 862,-145.5 "/>
<text text-anchor="start" x="646" y="-130.3" font-family="Times,serif" font-size="14.00">data</text>
<text text-anchor="start" x="646" y="-115.3" font-family="Times,serif" font-size="14.00">index</text>
<text text-anchor="start" x="646" y="-100.3" font-family="Times,serif" font-size="14.00">individual_summary_data</text>
<text text-anchor="start" x="646" y="-85.3" font-family="Times,serif" font-size="14.00">pull_and_organise_user_data</text>
<text text-anchor="start" x="646" y="-70.3" font-family="Times,serif" font-size="14.00">raw_data</text>
<text text-anchor="start" x="646" y="-55.3" font-family="Times,serif" font-size="14.00">subjects</text>
<polyline fill="none" stroke="black" points="638,-47.5 862,-47.5 "/>
<polyline fill="none" stroke="black" points="638,-23.5 862,-23.5 "/>
<text text-anchor="start" x="646" y="-8.3" font-family="Times,serif" font-size="14.00">_layout</text>
</g>
<!-- HomeController -->
<g id="node8" class="node"><title>HomeController</title>
<path fill="none" stroke="black" d="M650,-374.5C650,-374.5 759,-374.5 759,-374.5 765,-374.5 771,-380.5 771,-386.5 771,-386.5 771,-455.5 771,-455.5 771,-461.5 765,-467.5 759,-467.5 759,-467.5 650,-467.5 650,-467.5 644,-467.5 638,-461.5 638,-455.5 638,-455.5 638,-386.5 638,-386.5 638,-380.5 644,-374.5 650,-374.5"/>
<text text-anchor="middle" x="704.5" y="-452.3" font-family="Times,serif" font-size="14.00">HomeController</text>
<polyline fill="none" stroke="black" points="638,-444.5 771,-444.5 "/>
<text text-anchor="start" x="646" y="-429.3" font-family="Times,serif" font-size="14.00">index</text>
<polyline fill="none" stroke="black" points="638,-421.5 771,-421.5 "/>
<polyline fill="none" stroke="black" points="638,-397.5 771,-397.5 "/>
<text text-anchor="start" x="646" y="-382.3" font-family="Times,serif" font-size="14.00">_layout</text>
</g>
<!-- InstallmentsController -->
<g id="node9" class="node"><title>InstallmentsController</title>
<path fill="none" stroke="black" d="M12,-330.5C12,-330.5 168,-330.5 168,-330.5 174,-330.5 180,-336.5 180,-342.5 180,-342.5 180,-501.5 180,-501.5 180,-507.5 174,-513.5 168,-513.5 168,-513.5 12,-513.5 12,-513.5 6,-513.5 0,-507.5 0,-501.5 0,-501.5 0,-342.5 0,-342.5 0,-336.5 6,-330.5 12,-330.5"/>
<text text-anchor="middle" x="90" y="-498.3" font-family="Times,serif" font-size="14.00">InstallmentsController</text>
<polyline fill="none" stroke="black" points="0,-490.5 180,-490.5 "/>
<text text-anchor="start" x="8" y="-475.3" font-family="Times,serif" font-size="14.00">create</text>
<text text-anchor="start" x="8" y="-460.3" font-family="Times,serif" font-size="14.00">demo_complete</text>
<text text-anchor="start" x="8" y="-445.3" font-family="Times,serif" font-size="14.00">demo_start</text>
<text text-anchor="start" x="8" y="-430.3" font-family="Times,serif" font-size="14.00">edit</text>
<text text-anchor="start" x="8" y="-415.3" font-family="Times,serif" font-size="14.00">new</text>
<text text-anchor="start" x="8" y="-400.3" font-family="Times,serif" font-size="14.00">update</text>
<polyline fill="none" stroke="black" points="0,-392.5 180,-392.5 "/>
<polyline fill="none" stroke="black" points="0,-368.5 180,-368.5 "/>
<text text-anchor="start" x="8" y="-353.3" font-family="Times,serif" font-size="14.00">_layout</text>
<text text-anchor="start" x="8" y="-338.3" font-family="Times,serif" font-size="14.00">i_params</text>
</g>
<!-- ProjectsController -->
<g id="node10" class="node"><title>ProjectsController</title>
<path fill="none" stroke="black" d="M562,-572.5C562,-572.5 687,-572.5 687,-572.5 693,-572.5 699,-578.5 699,-584.5 699,-584.5 699,-833.5 699,-833.5 699,-839.5 693,-845.5 687,-845.5 687,-845.5 562,-845.5 562,-845.5 556,-845.5 550,-839.5 550,-833.5 550,-833.5 550,-584.5 550,-584.5 550,-578.5 556,-572.5 562,-572.5"/>
<text text-anchor="middle" x="624.5" y="-830.3" font-family="Times,serif" font-size="14.00">ProjectsController</text>
<polyline fill="none" stroke="black" points="550,-822.5 699,-822.5 "/>
<text text-anchor="start" x="558" y="-807.3" font-family="Times,serif" font-size="14.00">activate</text>
<text text-anchor="start" x="558" y="-792.3" font-family="Times,serif" font-size="14.00">add_group</text>
<text text-anchor="start" x="558" y="-777.3" font-family="Times,serif" font-size="14.00">create</text>
<text text-anchor="start" x="558" y="-762.3" font-family="Times,serif" font-size="14.00">destroy</text>
<text text-anchor="start" x="558" y="-747.3" font-family="Times,serif" font-size="14.00">edit</text>
<text text-anchor="start" x="558" y="-732.3" font-family="Times,serif" font-size="14.00">index</text>
<text text-anchor="start" x="558" y="-717.3" font-family="Times,serif" font-size="14.00">new</text>
<text text-anchor="start" x="558" y="-702.3" font-family="Times,serif" font-size="14.00">remove_group</text>
<text text-anchor="start" x="558" y="-687.3" font-family="Times,serif" font-size="14.00">show</text>
<text text-anchor="start" x="558" y="-672.3" font-family="Times,serif" font-size="14.00">update</text>
<polyline fill="none" stroke="black" points="550,-664.5 699,-664.5 "/>
<polyline fill="none" stroke="black" points="550,-640.5 699,-640.5 "/>
<text text-anchor="start" x="558" y="-625.3" font-family="Times,serif" font-size="14.00">_layout</text>
<text text-anchor="start" x="558" y="-610.3" font-family="Times,serif" font-size="14.00">check_admin</text>
<text text-anchor="start" x="558" y="-595.3" font-family="Times,serif" font-size="14.00">project_params</text>
<text text-anchor="start" x="558" y="-580.3" font-family="Times,serif" font-size="14.00">set_project</text>
</g>
<!-- RegistrationsController -->
<g id="node11" class="node"><title>RegistrationsController</title>
<path fill="none" stroke="black" d="M12,-198.5C12,-198.5 174,-198.5 174,-198.5 180,-198.5 186,-204.5 186,-210.5 186,-210.5 186,-279.5 186,-279.5 186,-285.5 180,-291.5 174,-291.5 174,-291.5 12,-291.5 12,-291.5 6,-291.5 -2.84217e-14,-285.5 -2.84217e-14,-279.5 -2.84217e-14,-279.5 -2.84217e-14,-210.5 -2.84217e-14,-210.5 -2.84217e-14,-204.5 6,-198.5 12,-198.5"/>
<text text-anchor="middle" x="93" y="-276.3" font-family="Times,serif" font-size="14.00">RegistrationsController</text>
<polyline fill="none" stroke="black" points="-2.84217e-14,-268.5 186,-268.5 "/>
<polyline fill="none" stroke="black" points="-2.84217e-14,-244.5 186,-244.5 "/>
<text text-anchor="start" x="8" y="-229.3" font-family="Times,serif" font-size="14.00">update_resource</text>
<polyline fill="none" stroke="black" points="-2.84217e-14,-221.5 186,-221.5 "/>
<text text-anchor="start" x="8" y="-206.3" font-family="Times,serif" font-size="14.00">_layout</text>
</g>
<!-- Users::OmniauthCallbacksController -->
<g id="node12" class="node"><title>Users::OmniauthCallbacksController</title>
<path fill="none" stroke="black" d="M320,-0.5C320,-0.5 577,-0.5 577,-0.5 583,-0.5 589,-6.5 589,-12.5 589,-12.5 589,-96.5 589,-96.5 589,-102.5 583,-108.5 577,-108.5 577,-108.5 320,-108.5 320,-108.5 314,-108.5 308,-102.5 308,-96.5 308,-96.5 308,-12.5 308,-12.5 308,-6.5 314,-0.5 320,-0.5"/>
<text text-anchor="middle" x="448.5" y="-93.3" font-family="Times,serif" font-size="14.00">Users::OmniauthCallbacksController</text>
<polyline fill="none" stroke="black" points="308,-85.5 589,-85.5 "/>
<text text-anchor="start" x="316" y="-70.3" font-family="Times,serif" font-size="14.00">failure</text>
<text text-anchor="start" x="316" y="-55.3" font-family="Times,serif" font-size="14.00">google_oauth2</text>
<polyline fill="none" stroke="black" points="308,-47.5 589,-47.5 "/>
<polyline fill="none" stroke="black" points="308,-23.5 589,-23.5 "/>
<text text-anchor="start" x="316" y="-8.3" font-family="Times,serif" font-size="14.00">_layout</text>
</g>
</g>
</svg>
