<?xml version="1.0" encoding="UTF-8" standalone="no"?>
<!DOCTYPE svg PUBLIC "-//W3C//DTD SVG 1.1//EN"
 "http://www.w3.org/Graphics/SVG/1.1/DTD/svg11.dtd">
<!-- Generated by graphviz version 7.0.6 (20230106.0513)
 -->
<!-- Title: controllers_diagram Pages: 1 -->
<svg width="1036pt" height="1134pt"
 viewBox="0.00 0.00 1036.00 1134.00" xmlns="http://www.w3.org/2000/svg" xmlns:xlink="http://www.w3.org/1999/xlink">
<g id="graph0" class="graph" transform="scale(1 1) rotate(0) translate(4 1130)">
<title>controllers_diagram</title>
<polygon fill="none" stroke="none" points="-4,4 -4,-1130 1032,-1130 1032,4 -4,4"/>
<!-- _diagram_info -->
<g id="node1" class="node">
<title>_diagram_info</title>
<text text-anchor="start" x="822" y="-723.6" font-family="Times,serif" font-size="13.00">Controllers diagram</text>
<text text-anchor="start" x="822" y="-709.6" font-family="Times,serif" font-size="13.00">Date: Jan 09 2023 &#45; 18:31</text>
<text text-anchor="start" x="822" y="-695.6" font-family="Times,serif" font-size="13.00">Migration version: 20191028013641</text>
<text text-anchor="start" x="822" y="-681.6" font-family="Times,serif" font-size="13.00">Generated by RailRoady 1.6.0</text>
<text text-anchor="start" x="822" y="-667.6" font-family="Times,serif" font-size="13.00">http://railroady.prestonlee.com</text>
</g>
<!-- ApplicationController -->
<g id="node2" class="node">
<title>ApplicationController</title>
<path fill="none" stroke="black" d="M56,-66.5C56,-66.5 226,-66.5 226,-66.5 232,-66.5 238,-72.5 238,-78.5 238,-78.5 238,-162.5 238,-162.5 238,-168.5 232,-174.5 226,-174.5 226,-174.5 56,-174.5 56,-174.5 50,-174.5 44,-168.5 44,-162.5 44,-162.5 44,-78.5 44,-78.5 44,-72.5 50,-66.5 56,-66.5"/>
<text text-anchor="middle" x="141" y="-159.3" font-family="Times,serif" font-size="14.00">ApplicationController</text>
<polyline fill="none" stroke="black" points="44,-151.5 238,-151.5"/>
<polyline fill="none" stroke="black" points="44,-127.5 238,-127.5"/>
<text text-anchor="start" x="52" y="-112.3" font-family="Times,serif" font-size="14.00">configure_permitted_parameters</text>
<text text-anchor="start" x="52" y="-97.3" font-family="Times,serif" font-size="14.00">switch_locale</text>
<polyline fill="none" stroke="black" points="44,-89.5 238,-89.5"/>
<text text-anchor="start" x="52" y="-74.3" font-family="Times,serif" font-size="14.00">_layout</text>
</g>
<!-- BingoBoardsController -->
<g id="node3" class="node">
<title>BingoBoardsController</title>
<path fill="none" stroke="black" d="M188,-484.5C188,-484.5 333,-484.5 333,-484.5 339,-484.5 345,-490.5 345,-496.5 345,-496.5 345,-805.5 345,-805.5 345,-811.5 339,-817.5 333,-817.5 333,-817.5 188,-817.5 188,-817.5 182,-817.5 176,-811.5 176,-805.5 176,-805.5 176,-496.5 176,-496.5 176,-490.5 182,-484.5 188,-484.5"/>
<text text-anchor="middle" x="260.5" y="-802.3" font-family="Times,serif" font-size="14.00">BingoBoardsController</text>
<polyline fill="none" stroke="black" points="176,-794.5 345,-794.5"/>
<text text-anchor="start" x="184" y="-779.3" font-family="Times,serif" font-size="14.00">worksheet_results</text>
<text text-anchor="start" x="184" y="-764.3" font-family="Times,serif" font-size="14.00">board_for_game_demo</text>
<text text-anchor="start" x="184" y="-749.3" font-family="Times,serif" font-size="14.00">board_for_game_helper</text>
<text text-anchor="start" x="184" y="-734.3" font-family="Times,serif" font-size="14.00">demo_worksheet_for_game</text>
<text text-anchor="start" x="184" y="-719.3" font-family="Times,serif" font-size="14.00">index</text>
<text text-anchor="start" x="184" y="-704.3" font-family="Times,serif" font-size="14.00">score_worksheet</text>
<text text-anchor="start" x="184" y="-689.3" font-family="Times,serif" font-size="14.00">show</text>
<text text-anchor="start" x="184" y="-674.3" font-family="Times,serif" font-size="14.00">update</text>
<text text-anchor="start" x="184" y="-659.3" font-family="Times,serif" font-size="14.00">update_demo</text>
<text text-anchor="start" x="184" y="-644.3" font-family="Times,serif" font-size="14.00">worksheet_for_game</text>
<text text-anchor="start" x="184" y="-629.3" font-family="Times,serif" font-size="14.00">board_for_game</text>
<polyline fill="none" stroke="black" points="176,-621.5 345,-621.5"/>
<polyline fill="none" stroke="black" points="176,-597.5 345,-597.5"/>
<text text-anchor="start" x="184" y="-582.3" font-family="Times,serif" font-size="14.00">_layout</text>
<text text-anchor="start" x="184" y="-567.3" font-family="Times,serif" font-size="14.00">bingo_board_params</text>
<text text-anchor="start" x="184" y="-552.3" font-family="Times,serif" font-size="14.00">check_editor</text>
<text text-anchor="start" x="184" y="-537.3" font-family="Times,serif" font-size="14.00">play_bingo_board_params</text>
<text text-anchor="start" x="184" y="-522.3" font-family="Times,serif" font-size="14.00">score_bingo_board_params</text>
<text text-anchor="start" x="184" y="-507.3" font-family="Times,serif" font-size="14.00">set_bingo_board</text>
<text text-anchor="start" x="184" y="-492.3" font-family="Times,serif" font-size="14.00">update_responder</text>
</g>
<!-- BingoGamesController -->
<g id="node4" class="node">
<title>BingoGamesController</title>
<path fill="none" stroke="black" d="M584,-374.5C584,-374.5 757,-374.5 757,-374.5 763,-374.5 769,-380.5 769,-386.5 769,-386.5 769,-740.5 769,-740.5 769,-746.5 763,-752.5 757,-752.5 757,-752.5 584,-752.5 584,-752.5 578,-752.5 572,-746.5 572,-740.5 572,-740.5 572,-386.5 572,-386.5 572,-380.5 578,-374.5 584,-374.5"/>
<text text-anchor="middle" x="670.5" y="-737.3" font-family="Times,serif" font-size="14.00">BingoGamesController</text>
<polyline fill="none" stroke="black" points="572,-729.5 769,-729.5"/>
<text text-anchor="start" x="580" y="-714.3" font-family="Times,serif" font-size="14.00">update_review_candidates</text>
<text text-anchor="start" x="580" y="-699.3" font-family="Times,serif" font-size="14.00">create</text>
<text text-anchor="start" x="580" y="-684.3" font-family="Times,serif" font-size="14.00">demo_my_results</text>
<text text-anchor="start" x="580" y="-669.3" font-family="Times,serif" font-size="14.00">demo_update_review_candidates</text>
<text text-anchor="start" x="580" y="-654.3" font-family="Times,serif" font-size="14.00">destroy</text>
<text text-anchor="start" x="580" y="-639.3" font-family="Times,serif" font-size="14.00">game_results</text>
<text text-anchor="start" x="580" y="-624.3" font-family="Times,serif" font-size="14.00">index</text>
<text text-anchor="start" x="580" y="-609.3" font-family="Times,serif" font-size="14.00">my_results</text>
<text text-anchor="start" x="580" y="-594.3" font-family="Times,serif" font-size="14.00">new</text>
<text text-anchor="start" x="580" y="-579.3" font-family="Times,serif" font-size="14.00">review_candidates</text>
<text text-anchor="start" x="580" y="-564.3" font-family="Times,serif" font-size="14.00">review_candidates_demo</text>
<text text-anchor="start" x="580" y="-549.3" font-family="Times,serif" font-size="14.00">review_helper</text>
<text text-anchor="start" x="580" y="-534.3" font-family="Times,serif" font-size="14.00">show</text>
<text text-anchor="start" x="580" y="-519.3" font-family="Times,serif" font-size="14.00">update</text>
<text text-anchor="start" x="580" y="-504.3" font-family="Times,serif" font-size="14.00">activate</text>
<polyline fill="none" stroke="black" points="572,-496.5 769,-496.5"/>
<polyline fill="none" stroke="black" points="572,-472.5 769,-472.5"/>
<text text-anchor="start" x="580" y="-457.3" font-family="Times,serif" font-size="14.00">_layout</text>
<text text-anchor="start" x="580" y="-442.3" font-family="Times,serif" font-size="14.00">bingo_game_params</text>
<text text-anchor="start" x="580" y="-427.3" font-family="Times,serif" font-size="14.00">bingo_responder</text>
<text text-anchor="start" x="580" y="-412.3" font-family="Times,serif" font-size="14.00">check_editor</text>
<text text-anchor="start" x="580" y="-397.3" font-family="Times,serif" font-size="14.00">check_viewer</text>
<text text-anchor="start" x="580" y="-382.3" font-family="Times,serif" font-size="14.00">set_bingo_game</text>
</g>
<!-- CandidateListsController -->
<g id="node5" class="node">
<title>CandidateListsController</title>
<path fill="none" stroke="black" d="M826,-132.5C826,-132.5 955,-132.5 955,-132.5 961,-132.5 967,-138.5 967,-144.5 967,-144.5 967,-362.5 967,-362.5 967,-368.5 961,-374.5 955,-374.5 955,-374.5 826,-374.5 826,-374.5 820,-374.5 814,-368.5 814,-362.5 814,-362.5 814,-144.5 814,-144.5 814,-138.5 820,-132.5 826,-132.5"/>
<text text-anchor="middle" x="890.5" y="-359.3" font-family="Times,serif" font-size="14.00">CandidateListsController</text>
<polyline fill="none" stroke="black" points="814,-351.5 967,-351.5"/>
<text text-anchor="start" x="822" y="-336.3" font-family="Times,serif" font-size="14.00">update</text>
<text text-anchor="start" x="822" y="-321.3" font-family="Times,serif" font-size="14.00">demo_entry</text>
<text text-anchor="start" x="822" y="-306.3" font-family="Times,serif" font-size="14.00">demo_play</text>
<text text-anchor="start" x="822" y="-291.3" font-family="Times,serif" font-size="14.00">edit</text>
<text text-anchor="start" x="822" y="-276.3" font-family="Times,serif" font-size="14.00">get_candidate_list</text>
<text text-anchor="start" x="822" y="-261.3" font-family="Times,serif" font-size="14.00">list_stats</text>
<text text-anchor="start" x="822" y="-246.3" font-family="Times,serif" font-size="14.00">request_collaboration</text>
<text text-anchor="start" x="822" y="-231.3" font-family="Times,serif" font-size="14.00">show</text>
<text text-anchor="start" x="822" y="-216.3" font-family="Times,serif" font-size="14.00">create</text>
<polyline fill="none" stroke="black" points="814,-208.5 967,-208.5"/>
<text text-anchor="start" x="822" y="-193.3" font-family="Times,serif" font-size="14.00">merge_to_group_list</text>
<polyline fill="none" stroke="black" points="814,-185.5 967,-185.5"/>
<text text-anchor="start" x="822" y="-170.3" font-family="Times,serif" font-size="14.00">_layout</text>
<text text-anchor="start" x="822" y="-155.3" font-family="Times,serif" font-size="14.00">candidate_list_params</text>
<text text-anchor="start" x="822" y="-140.3" font-family="Times,serif" font-size="14.00">set_candidate_list</text>
</g>
<!-- ConceptsController -->
<g id="node6" class="node">
<title>ConceptsController</title>
<path fill="none" stroke="black" d="M210,-220.5C210,-220.5 347,-220.5 347,-220.5 353,-220.5 359,-226.5 359,-232.5 359,-232.5 359,-436.5 359,-436.5 359,-442.5 353,-448.5 347,-448.5 347,-448.5 210,-448.5 210,-448.5 204,-448.5 198,-442.5 198,-436.5 198,-436.5 198,-232.5 198,-232.5 198,-226.5 204,-220.5 210,-220.5"/>
<text text-anchor="middle" x="278.5" y="-433.3" font-family="Times,serif" font-size="14.00">ConceptsController</text>
<polyline fill="none" stroke="black" points="198,-425.5 359,-425.5"/>
<text text-anchor="start" x="206" y="-410.3" font-family="Times,serif" font-size="14.00">concepts_for_game</text>
<text text-anchor="start" x="206" y="-395.3" font-family="Times,serif" font-size="14.00">concepts_for_game_demo</text>
<text text-anchor="start" x="206" y="-380.3" font-family="Times,serif" font-size="14.00">destroy</text>
<text text-anchor="start" x="206" y="-365.3" font-family="Times,serif" font-size="14.00">edit</text>
<text text-anchor="start" x="206" y="-350.3" font-family="Times,serif" font-size="14.00">index</text>
<text text-anchor="start" x="206" y="-335.3" font-family="Times,serif" font-size="14.00">show</text>
<text text-anchor="start" x="206" y="-320.3" font-family="Times,serif" font-size="14.00">update</text>
<polyline fill="none" stroke="black" points="198,-312.5 359,-312.5"/>
<polyline fill="none" stroke="black" points="198,-288.5 359,-288.5"/>
<text text-anchor="start" x="206" y="-273.3" font-family="Times,serif" font-size="14.00">_layout</text>
<text text-anchor="start" x="206" y="-258.3" font-family="Times,serif" font-size="14.00">check_admin</text>
<text text-anchor="start" x="206" y="-243.3" font-family="Times,serif" font-size="14.00">concept_params</text>
<text text-anchor="start" x="206" y="-228.3" font-family="Times,serif" font-size="14.00">set_concept</text>
</g>
<!-- ConsentFormsController -->
<g id="node7" class="node">
<title>ConsentFormsController</title>
<path fill="none" stroke="black" d="M584,-132.5C584,-132.5 712,-132.5 712,-132.5 718,-132.5 724,-138.5 724,-144.5 724,-144.5 724,-318.5 724,-318.5 724,-324.5 718,-330.5 712,-330.5 712,-330.5 584,-330.5 584,-330.5 578,-330.5 572,-324.5 572,-318.5 572,-318.5 572,-144.5 572,-144.5 572,-138.5 578,-132.5 584,-132.5"/>
<text text-anchor="middle" x="648" y="-315.3" font-family="Times,serif" font-size="14.00">ConsentFormsController</text>
<polyline fill="none" stroke="black" points="572,-307.5 724,-307.5"/>
<text text-anchor="start" x="580" y="-292.3" font-family="Times,serif" font-size="14.00">create</text>
<text text-anchor="start" x="580" y="-277.3" font-family="Times,serif" font-size="14.00">destroy</text>
<text text-anchor="start" x="580" y="-262.3" font-family="Times,serif" font-size="14.00">edit</text>
<text text-anchor="start" x="580" y="-247.3" font-family="Times,serif" font-size="14.00">index</text>
<text text-anchor="start" x="580" y="-232.3" font-family="Times,serif" font-size="14.00">show</text>
<text text-anchor="start" x="580" y="-217.3" font-family="Times,serif" font-size="14.00">update</text>
<polyline fill="none" stroke="black" points="572,-209.5 724,-209.5"/>
<polyline fill="none" stroke="black" points="572,-185.5 724,-185.5"/>
<text text-anchor="start" x="580" y="-170.3" font-family="Times,serif" font-size="14.00">_layout</text>
<text text-anchor="start" x="580" y="-155.3" font-family="Times,serif" font-size="14.00">consent_form_params</text>
<text text-anchor="start" x="580" y="-140.3" font-family="Times,serif" font-size="14.00">set_consent_form</text>
</g>
<!-- ConsentLogsController -->
<g id="node8" class="node">
<title>ConsentLogsController</title>
<path fill="none" stroke="black" d="M298,-44.5C298,-44.5 417,-44.5 417,-44.5 423,-44.5 429,-50.5 429,-56.5 429,-56.5 429,-170.5 429,-170.5 429,-176.5 423,-182.5 417,-182.5 417,-182.5 298,-182.5 298,-182.5 292,-182.5 286,-176.5 286,-170.5 286,-170.5 286,-56.5 286,-56.5 286,-50.5 292,-44.5 298,-44.5"/>
<text text-anchor="middle" x="357.5" y="-167.3" font-family="Times,serif" font-size="14.00">ConsentLogsController</text>
<polyline fill="none" stroke="black" points="286,-159.5 429,-159.5"/>
<text text-anchor="start" x="294" y="-144.3" font-family="Times,serif" font-size="14.00">edit</text>
<text text-anchor="start" x="294" y="-129.3" font-family="Times,serif" font-size="14.00">update</text>
<text text-anchor="start" x="294" y="-114.3" font-family="Times,serif" font-size="14.00">user_logs</text>
<polyline fill="none" stroke="black" points="286,-106.5 429,-106.5"/>
<polyline fill="none" stroke="black" points="286,-82.5 429,-82.5"/>
<text text-anchor="start" x="294" y="-67.3" font-family="Times,serif" font-size="14.00">_layout</text>
<text text-anchor="start" x="294" y="-52.3" font-family="Times,serif" font-size="14.00">cl_params</text>
</g>
<!-- CoursesController -->
<g id="node9" class="node">
<title>CoursesController</title>
<path fill="none" stroke="black" d="M408,-220.5C408,-220.5 511,-220.5 511,-220.5 517,-220.5 523,-226.5 523,-232.5 523,-232.5 523,-721.5 523,-721.5 523,-727.5 517,-733.5 511,-733.5 511,-733.5 408,-733.5 408,-733.5 402,-733.5 396,-727.5 396,-721.5 396,-721.5 396,-232.5 396,-232.5 396,-226.5 402,-220.5 408,-220.5"/>
<text text-anchor="middle" x="459.5" y="-718.3" font-family="Times,serif" font-size="14.00">CoursesController</text>
<polyline fill="none" stroke="black" points="396,-710.5 523,-710.5"/>
<text text-anchor="start" x="404" y="-695.3" font-family="Times,serif" font-size="14.00">update</text>
<text text-anchor="start" x="404" y="-680.3" font-family="Times,serif" font-size="14.00">add_instructors</text>
<text text-anchor="start" x="404" y="-665.3" font-family="Times,serif" font-size="14.00">add_students</text>
<text text-anchor="start" x="404" y="-650.3" font-family="Times,serif" font-size="14.00">calendar</text>
<text text-anchor="start" x="404" y="-635.3" font-family="Times,serif" font-size="14.00">create</text>
<text text-anchor="start" x="404" y="-620.3" font-family="Times,serif" font-size="14.00">decline_roster</text>
<text text-anchor="start" x="404" y="-605.3" font-family="Times,serif" font-size="14.00">destroy</text>
<text text-anchor="start" x="404" y="-590.3" font-family="Times,serif" font-size="14.00">drop_student</text>
<text text-anchor="start" x="404" y="-575.3" font-family="Times,serif" font-size="14.00">edit</text>
<text text-anchor="start" x="404" y="-560.3" font-family="Times,serif" font-size="14.00">get_users</text>
<text text-anchor="start" x="404" y="-545.3" font-family="Times,serif" font-size="14.00">index</text>
<text text-anchor="start" x="404" y="-530.3" font-family="Times,serif" font-size="14.00">new</text>
<text text-anchor="start" x="404" y="-515.3" font-family="Times,serif" font-size="14.00">new_from_template</text>
<text text-anchor="start" x="404" y="-500.3" font-family="Times,serif" font-size="14.00">proc_reg_requests</text>
<text text-anchor="start" x="404" y="-485.3" font-family="Times,serif" font-size="14.00">qr</text>
<text text-anchor="start" x="404" y="-470.3" font-family="Times,serif" font-size="14.00">re_invite_student</text>
<text text-anchor="start" x="404" y="-455.3" font-family="Times,serif" font-size="14.00">reg_requests</text>
<text text-anchor="start" x="404" y="-440.3" font-family="Times,serif" font-size="14.00">remove_instructor</text>
<text text-anchor="start" x="404" y="-425.3" font-family="Times,serif" font-size="14.00">score_sheet</text>
<text text-anchor="start" x="404" y="-410.3" font-family="Times,serif" font-size="14.00">self_reg_confirm</text>
<text text-anchor="start" x="404" y="-395.3" font-family="Times,serif" font-size="14.00">self_reg_init</text>
<text text-anchor="start" x="404" y="-380.3" font-family="Times,serif" font-size="14.00">show</text>
<text text-anchor="start" x="404" y="-365.3" font-family="Times,serif" font-size="14.00">accept_roster</text>
<polyline fill="none" stroke="black" points="396,-357.5 523,-357.5"/>
<polyline fill="none" stroke="black" points="396,-333.5 523,-333.5"/>
<text text-anchor="start" x="404" y="-318.3" font-family="Times,serif" font-size="14.00">_layout</text>
<text text-anchor="start" x="404" y="-303.3" font-family="Times,serif" font-size="14.00">check_admin</text>
<text text-anchor="start" x="404" y="-288.3" font-family="Times,serif" font-size="14.00">check_editor</text>
<text text-anchor="start" x="404" y="-273.3" font-family="Times,serif" font-size="14.00">check_viewer</text>
<text text-anchor="start" x="404" y="-258.3" font-family="Times,serif" font-size="14.00">course_params</text>
<text text-anchor="start" x="404" y="-243.3" font-family="Times,serif" font-size="14.00">set_course</text>
<text text-anchor="start" x="404" y="-228.3" font-family="Times,serif" font-size="14.00">set_reg_course</text>
</g>
<!-- ExperiencesController -->
<g id="node10" class="node">
<title>ExperiencesController</title>
<path fill="none" stroke="black" d="M782,-792.5C782,-792.5 896,-792.5 896,-792.5 902,-792.5 908,-798.5 908,-804.5 908,-804.5 908,-1113.5 908,-1113.5 908,-1119.5 902,-1125.5 896,-1125.5 896,-1125.5 782,-1125.5 782,-1125.5 776,-1125.5 770,-1119.5 770,-1113.5 770,-1113.5 770,-804.5 770,-804.5 770,-798.5 776,-792.5 782,-792.5"/>
<text text-anchor="middle" x="839" y="-1110.3" font-family="Times,serif" font-size="14.00">ExperiencesController</text>
<polyline fill="none" stroke="black" points="770,-1102.5 908,-1102.5"/>
<text text-anchor="start" x="778" y="-1087.3" font-family="Times,serif" font-size="14.00">update</text>
<text text-anchor="start" x="778" y="-1072.3" font-family="Times,serif" font-size="14.00">create</text>
<text text-anchor="start" x="778" y="-1057.3" font-family="Times,serif" font-size="14.00">destroy</text>
<text text-anchor="start" x="778" y="-1042.3" font-family="Times,serif" font-size="14.00">diagnose</text>
<text text-anchor="start" x="778" y="-1027.3" font-family="Times,serif" font-size="14.00">edit</text>
<text text-anchor="start" x="778" y="-1012.3" font-family="Times,serif" font-size="14.00">get_reactions</text>
<text text-anchor="start" x="778" y="-997.3" font-family="Times,serif" font-size="14.00">index</text>
<text text-anchor="start" x="778" y="-982.3" font-family="Times,serif" font-size="14.00">next</text>
<text text-anchor="start" x="778" y="-967.3" font-family="Times,serif" font-size="14.00">react</text>
<text text-anchor="start" x="778" y="-952.3" font-family="Times,serif" font-size="14.00">show</text>
<text text-anchor="start" x="778" y="-937.3" font-family="Times,serif" font-size="14.00">activate</text>
<polyline fill="none" stroke="black" points="770,-929.5 908,-929.5"/>
<polyline fill="none" stroke="black" points="770,-905.5 908,-905.5"/>
<text text-anchor="start" x="778" y="-890.3" font-family="Times,serif" font-size="14.00">_layout</text>
<text text-anchor="start" x="778" y="-875.3" font-family="Times,serif" font-size="14.00">check_editor</text>
<text text-anchor="start" x="778" y="-860.3" font-family="Times,serif" font-size="14.00">check_viewer</text>
<text text-anchor="start" x="778" y="-845.3" font-family="Times,serif" font-size="14.00">diagnosis_params</text>
<text text-anchor="start" x="778" y="-830.3" font-family="Times,serif" font-size="14.00">experience_params</text>
<text text-anchor="start" x="778" y="-815.3" font-family="Times,serif" font-size="14.00">reaction_params</text>
<text text-anchor="start" x="778" y="-800.3" font-family="Times,serif" font-size="14.00">set_experience</text>
</g>
<!-- GraphingController -->
<g id="node11" class="node">
<title>GraphingController</title>
<path fill="none" stroke="black" d="M12,-946.5C12,-946.5 111,-946.5 111,-946.5 117,-946.5 123,-952.5 123,-958.5 123,-958.5 123,-1087.5 123,-1087.5 123,-1093.5 117,-1099.5 111,-1099.5 111,-1099.5 12,-1099.5 12,-1099.5 6,-1099.5 0,-1093.5 0,-1087.5 0,-1087.5 0,-958.5 0,-958.5 0,-952.5 6,-946.5 12,-946.5"/>
<text text-anchor="middle" x="61.5" y="-1084.3" font-family="Times,serif" font-size="14.00">GraphingController</text>
<polyline fill="none" stroke="black" points="0,-1076.5 123,-1076.5"/>
<text text-anchor="start" x="8" y="-1061.3" font-family="Times,serif" font-size="14.00">data</text>
<text text-anchor="start" x="8" y="-1046.3" font-family="Times,serif" font-size="14.00">index</text>
<text text-anchor="start" x="8" y="-1031.3" font-family="Times,serif" font-size="14.00">projects</text>
<text text-anchor="start" x="8" y="-1016.3" font-family="Times,serif" font-size="14.00">raw_data</text>
<text text-anchor="start" x="8" y="-1001.3" font-family="Times,serif" font-size="14.00">subjects</text>
<polyline fill="none" stroke="black" points="0,-993.5 123,-993.5"/>
<polyline fill="none" stroke="black" points="0,-969.5 123,-969.5"/>
<text text-anchor="start" x="8" y="-954.3" font-family="Times,serif" font-size="14.00">_layout</text>
</g>
<!-- HomeController -->
<g id="node12" class="node">
<title>HomeController</title>
<path fill="none" stroke="black" d="M606,-792.5C606,-792.5 719,-792.5 719,-792.5 725,-792.5 731,-798.5 731,-804.5 731,-804.5 731,-1098.5 731,-1098.5 731,-1104.5 725,-1110.5 719,-1110.5 719,-1110.5 606,-1110.5 606,-1110.5 600,-1110.5 594,-1104.5 594,-1098.5 594,-1098.5 594,-804.5 594,-804.5 594,-798.5 600,-792.5 606,-792.5"/>
<text text-anchor="middle" x="662.5" y="-1095.3" font-family="Times,serif" font-size="14.00">HomeController</text>
<polyline fill="none" stroke="black" points="594,-1087.5 731,-1087.5"/>
<text text-anchor="start" x="602" y="-1072.3" font-family="Times,serif" font-size="14.00">user_courses</text>
<text text-anchor="start" x="602" y="-1057.3" font-family="Times,serif" font-size="14.00">demo_start</text>
<text text-anchor="start" x="602" y="-1042.3" font-family="Times,serif" font-size="14.00">endpoints</text>
<text text-anchor="start" x="602" y="-1027.3" font-family="Times,serif" font-size="14.00">full_profile</text>
<text text-anchor="start" x="602" y="-1012.3" font-family="Times,serif" font-size="14.00">get_lookups</text>
<text text-anchor="start" x="602" y="-997.3" font-family="Times,serif" font-size="14.00">get_profile_hash</text>
<text text-anchor="start" x="602" y="-982.3" font-family="Times,serif" font-size="14.00">get_quote</text>
<text text-anchor="start" x="602" y="-967.3" font-family="Times,serif" font-size="14.00">index</text>
<text text-anchor="start" x="602" y="-952.3" font-family="Times,serif" font-size="14.00">lookups</text>
<text text-anchor="start" x="602" y="-937.3" font-family="Times,serif" font-size="14.00">simple_profile</text>
<text text-anchor="start" x="602" y="-922.3" font-family="Times,serif" font-size="14.00">states_for_country</text>
<text text-anchor="start" x="602" y="-907.3" font-family="Times,serif" font-size="14.00">task_list</text>
<text text-anchor="start" x="602" y="-892.3" font-family="Times,serif" font-size="14.00">update_full_profile</text>
<text text-anchor="start" x="602" y="-877.3" font-family="Times,serif" font-size="14.00">user_activities</text>
<text text-anchor="start" x="602" y="-862.3" font-family="Times,serif" font-size="14.00">check_diversity_score</text>
<polyline fill="none" stroke="black" points="594,-854.5 731,-854.5"/>
<polyline fill="none" stroke="black" points="594,-830.5 731,-830.5"/>
<text text-anchor="start" x="602" y="-815.3" font-family="Times,serif" font-size="14.00">_layout</text>
<text text-anchor="start" x="602" y="-800.3" font-family="Times,serif" font-size="14.00">profile_params</text>
</g>
<!-- InstallmentsController -->
<g id="node13" class="node">
<title>InstallmentsController</title>
<path fill="none" stroke="black" d="M34,-264.5C34,-264.5 149,-264.5 149,-264.5 155,-264.5 161,-270.5 161,-276.5 161,-276.5 161,-420.5 161,-420.5 161,-426.5 155,-432.5 149,-432.5 149,-432.5 34,-432.5 34,-432.5 28,-432.5 22,-426.5 22,-420.5 22,-420.5 22,-276.5 22,-276.5 22,-270.5 28,-264.5 34,-264.5"/>
<text text-anchor="middle" x="91.5" y="-417.3" font-family="Times,serif" font-size="14.00">InstallmentsController</text>
<polyline fill="none" stroke="black" points="22,-409.5 161,-409.5"/>
<text text-anchor="start" x="30" y="-394.3" font-family="Times,serif" font-size="14.00">create</text>
<text text-anchor="start" x="30" y="-379.3" font-family="Times,serif" font-size="14.00">demo_complete</text>
<text text-anchor="start" x="30" y="-364.3" font-family="Times,serif" font-size="14.00">submit_helper</text>
<text text-anchor="start" x="30" y="-349.3" font-family="Times,serif" font-size="14.00">submit_installment</text>
<text text-anchor="start" x="30" y="-334.3" font-family="Times,serif" font-size="14.00">update</text>
<polyline fill="none" stroke="black" points="22,-326.5 161,-326.5"/>
<polyline fill="none" stroke="black" points="22,-302.5 161,-302.5"/>
<text text-anchor="start" x="30" y="-287.3" font-family="Times,serif" font-size="14.00">_layout</text>
<text text-anchor="start" x="30" y="-272.3" font-family="Times,serif" font-size="14.00">i_params</text>
</g>
<!-- LocalesController -->
<g id="node14" class="node">
<title>LocalesController</title>
<path fill="none" stroke="black" d="M12,-814.5C12,-814.5 102,-814.5 102,-814.5 108,-814.5 114,-820.5 114,-826.5 114,-826.5 114,-895.5 114,-895.5 114,-901.5 108,-907.5 102,-907.5 102,-907.5 12,-907.5 12,-907.5 6,-907.5 0,-901.5 0,-895.5 0,-895.5 0,-826.5 0,-826.5 0,-820.5 6,-814.5 12,-814.5"/>
<text text-anchor="middle" x="57" y="-892.3" font-family="Times,serif" font-size="14.00">LocalesController</text>
<polyline fill="none" stroke="black" points="0,-884.5 114,-884.5"/>
<text text-anchor="start" x="8" y="-869.3" font-family="Times,serif" font-size="14.00">get_resources</text>
<polyline fill="none" stroke="black" points="0,-861.5 114,-861.5"/>
<polyline fill="none" stroke="black" points="0,-837.5 114,-837.5"/>
<text text-anchor="start" x="8" y="-822.3" font-family="Times,serif" font-size="14.00">_layout</text>
</g>
<!-- ProjectsController -->
<g id="node15" class="node">
<title>ProjectsController</title>
<path fill="none" stroke="black" d="M430,-770.5C430,-770.5 523,-770.5 523,-770.5 529,-770.5 535,-776.5 535,-782.5 535,-782.5 535,-1106.5 535,-1106.5 535,-1112.5 529,-1118.5 523,-1118.5 523,-1118.5 430,-1118.5 430,-1118.5 424,-1118.5 418,-1112.5 418,-1106.5 418,-1106.5 418,-782.5 418,-782.5 418,-776.5 424,-770.5 430,-770.5"/>
<text text-anchor="middle" x="476.5" y="-1103.3" font-family="Times,serif" font-size="14.00">ProjectsController</text>
<polyline fill="none" stroke="black" points="418,-1095.5 535,-1095.5"/>
<text text-anchor="start" x="426" y="-1080.3" font-family="Times,serif" font-size="14.00">update</text>
<text text-anchor="start" x="426" y="-1065.3" font-family="Times,serif" font-size="14.00">add_group</text>
<text text-anchor="start" x="426" y="-1050.3" font-family="Times,serif" font-size="14.00">create</text>
<text text-anchor="start" x="426" y="-1035.3" font-family="Times,serif" font-size="14.00">destroy</text>
<text text-anchor="start" x="426" y="-1020.3" font-family="Times,serif" font-size="14.00">edit</text>
<text text-anchor="start" x="426" y="-1005.3" font-family="Times,serif" font-size="14.00">get_groups</text>
<text text-anchor="start" x="426" y="-990.3" font-family="Times,serif" font-size="14.00">get_groups_helper</text>
<text text-anchor="start" x="426" y="-975.3" font-family="Times,serif" font-size="14.00">index</text>
<text text-anchor="start" x="426" y="-960.3" font-family="Times,serif" font-size="14.00">remove_group</text>
<text text-anchor="start" x="426" y="-945.3" font-family="Times,serif" font-size="14.00">rescore_group</text>
<text text-anchor="start" x="426" y="-930.3" font-family="Times,serif" font-size="14.00">rescore_groups</text>
<text text-anchor="start" x="426" y="-915.3" font-family="Times,serif" font-size="14.00">set_groups</text>
<text text-anchor="start" x="426" y="-900.3" font-family="Times,serif" font-size="14.00">show</text>
<text text-anchor="start" x="426" y="-885.3" font-family="Times,serif" font-size="14.00">activate</text>
<polyline fill="none" stroke="black" points="418,-877.5 535,-877.5"/>
<polyline fill="none" stroke="black" points="418,-853.5 535,-853.5"/>
<text text-anchor="start" x="426" y="-838.3" font-family="Times,serif" font-size="14.00">_layout</text>
<text text-anchor="start" x="426" y="-823.3" font-family="Times,serif" font-size="14.00">check_editor</text>
<text text-anchor="start" x="426" y="-808.3" font-family="Times,serif" font-size="14.00">check_viewer</text>
<text text-anchor="start" x="426" y="-793.3" font-family="Times,serif" font-size="14.00">project_params</text>
<text text-anchor="start" x="426" y="-778.3" font-family="Times,serif" font-size="14.00">set_project</text>
</g>
<!-- RegistrationsController -->
<g id="node16" class="node">
<title>RegistrationsController</title>
<path fill="none" stroke="black" d="M826,-418.5C826,-418.5 946,-418.5 946,-418.5 952,-418.5 958,-424.5 958,-430.5 958,-430.5 958,-603.5 958,-603.5 958,-609.5 952,-615.5 946,-615.5 946,-615.5 826,-615.5 826,-615.5 820,-615.5 814,-609.5 814,-603.5 814,-603.5 814,-430.5 814,-430.5 814,-424.5 820,-418.5 826,-418.5"/>
<text text-anchor="middle" x="886" y="-600.3" font-family="Times,serif" font-size="14.00">RegistrationsController</text>
<polyline fill="none" stroke="black" points="814,-592.5 958,-592.5"/>
<text text-anchor="start" x="822" y="-577.3" font-family="Times,serif" font-size="14.00">add_email</text>
<text text-anchor="start" x="822" y="-562.3" font-family="Times,serif" font-size="14.00">confirm</text>
<text text-anchor="start" x="822" y="-547.3" font-family="Times,serif" font-size="14.00">create</text>
<text text-anchor="start" x="822" y="-532.3" font-family="Times,serif" font-size="14.00">initiate_password_reset</text>
<text text-anchor="start" x="822" y="-517.3" font-family="Times,serif" font-size="14.00">password_change</text>
<text text-anchor="start" x="822" y="-502.3" font-family="Times,serif" font-size="14.00">remove_email</text>
<text text-anchor="start" x="822" y="-487.3" font-family="Times,serif" font-size="14.00">set_primary_email</text>
<polyline fill="none" stroke="black" points="814,-479.5 958,-479.5"/>
<text text-anchor="start" x="822" y="-464.3" font-family="Times,serif" font-size="14.00">update_resource</text>
<polyline fill="none" stroke="black" points="814,-456.5 958,-456.5"/>
<text text-anchor="start" x="822" y="-441.3" font-family="Times,serif" font-size="14.00">_layout</text>
<text text-anchor="start" x="822" y="-426.3" font-family="Times,serif" font-size="14.00">set_email</text>
</g>
<!-- SchoolsController -->
<g id="node17" class="node">
<title>SchoolsController</title>
<path fill="none" stroke="black" d="M34,-484.5C34,-484.5 125,-484.5 125,-484.5 131,-484.5 137,-490.5 137,-496.5 137,-496.5 137,-685.5 137,-685.5 137,-691.5 131,-697.5 125,-697.5 125,-697.5 34,-697.5 34,-697.5 28,-697.5 22,-691.5 22,-685.5 22,-685.5 22,-496.5 22,-496.5 22,-490.5 28,-484.5 34,-484.5"/>
<text text-anchor="middle" x="79.5" y="-682.3" font-family="Times,serif" font-size="14.00">SchoolsController</text>
<polyline fill="none" stroke="black" points="22,-674.5 137,-674.5"/>
<text text-anchor="start" x="30" y="-659.3" font-family="Times,serif" font-size="14.00">create</text>
<text text-anchor="start" x="30" y="-644.3" font-family="Times,serif" font-size="14.00">destroy</text>
<text text-anchor="start" x="30" y="-629.3" font-family="Times,serif" font-size="14.00">edit</text>
<text text-anchor="start" x="30" y="-614.3" font-family="Times,serif" font-size="14.00">index</text>
<text text-anchor="start" x="30" y="-599.3" font-family="Times,serif" font-size="14.00">show</text>
<text text-anchor="start" x="30" y="-584.3" font-family="Times,serif" font-size="14.00">update</text>
<polyline fill="none" stroke="black" points="22,-576.5 137,-576.5"/>
<polyline fill="none" stroke="black" points="22,-552.5 137,-552.5"/>
<text text-anchor="start" x="30" y="-537.3" font-family="Times,serif" font-size="14.00">_layout</text>
<text text-anchor="start" x="30" y="-522.3" font-family="Times,serif" font-size="14.00">check_admin</text>
<text text-anchor="start" x="30" y="-507.3" font-family="Times,serif" font-size="14.00">school_params</text>
<text text-anchor="start" x="30" y="-492.3" font-family="Times,serif" font-size="14.00">set_school</text>
</g>
<!-- Users::OmniauthCallbacksController -->
<g id="node18" class="node">
<title>Users::OmniauthCallbacksController</title>
<path fill="none" stroke="black" d="M166,-858.5C166,-858.5 360,-858.5 360,-858.5 366,-858.5 372,-864.5 372,-870.5 372,-870.5 372,-969.5 372,-969.5 372,-975.5 366,-981.5 360,-981.5 360,-981.5 166,-981.5 166,-981.5 160,-981.5 154,-975.5 154,-969.5 154,-969.5 154,-870.5 154,-870.5 154,-864.5 160,-858.5 166,-858.5"/>
<text text-anchor="middle" x="263" y="-966.3" font-family="Times,serif" font-size="14.00">Users::OmniauthCallbacksController</text>
<polyline fill="none" stroke="black" points="154,-958.5 372,-958.5"/>
<text text-anchor="start" x="162" y="-943.3" font-family="Times,serif" font-size="14.00">failure</text>
<text text-anchor="start" x="162" y="-928.3" font-family="Times,serif" font-size="14.00">validate</text>
<polyline fill="none" stroke="black" points="154,-920.5 372,-920.5"/>
<polyline fill="none" stroke="black" points="154,-896.5 372,-896.5"/>
<text text-anchor="start" x="162" y="-881.3" font-family="Times,serif" font-size="14.00">_layout</text>
<text text-anchor="start" x="162" y="-866.3" font-family="Times,serif" font-size="14.00">set_headers</text>
</g>
<!-- Users::SessionsController -->
<g id="node19" class="node">
<title>Users::SessionsController</title>
<path fill="none" stroke="black" d="M474,-0.5C474,-0.5 607,-0.5 607,-0.5 613,-0.5 619,-6.5 619,-12.5 619,-12.5 619,-82.5 619,-82.5 619,-88.5 613,-94.5 607,-94.5 607,-94.5 474,-94.5 474,-94.5 468,-94.5 462,-88.5 462,-82.5 462,-82.5 462,-12.5 462,-12.5 462,-6.5 468,-0.5 474,-0.5"/>
<text text-anchor="middle" x="540.5" y="-79.3" font-family="Times,serif" font-size="14.00">Users::SessionsController</text>
<polyline fill="none" stroke="black" points="462,-71.5 619,-71.5"/>
<polyline fill="none" stroke="black" points="462,-47.5 619,-47.5"/>
<polyline fill="none" stroke="black" points="462,-23.5 619,-23.5"/>
<text text-anchor="start" x="470" y="-8.3" font-family="Times,serif" font-size="14.00">_layout</text>
</g>
</g>
</svg>
