<?xml version="1.0" encoding="UTF-8" standalone="no"?>
<!DOCTYPE svg PUBLIC "-//W3C//DTD SVG 1.1//EN"
 "http://www.w3.org/Graphics/SVG/1.1/DTD/svg11.dtd">
<!-- Generated by graphviz version 2.36.0 (20140111.2315)
 -->
<!-- Title: controllers_diagram Pages: 1 -->
<svg width="797pt" height="825pt"
 viewBox="0.00 0.00 797.00 825.00" xmlns="http://www.w3.org/2000/svg" xmlns:xlink="http://www.w3.org/1999/xlink">
<g id="graph0" class="graph" transform="scale(1 1) rotate(0) translate(4 821)">
<title>controllers_diagram</title>
<polygon fill="none" stroke="none" points="-4,4 -4,-821 793,-821 793,4 -4,4"/>
<!-- _diagram_info -->
<g id="node1" class="node"><title>_diagram_info</title>
<text text-anchor="start" x="323" y="-63.6" font-family="Times,serif" font-size="13.00">Controllers diagram</text>
<text text-anchor="start" x="323" y="-49.6" font-family="Times,serif" font-size="13.00">Date: Feb 25 2017 &#45; 21:33</text>
<text text-anchor="start" x="323" y="-35.6" font-family="Times,serif" font-size="13.00">Migration version: 20170225093259</text>
<text text-anchor="start" x="323" y="-21.6" font-family="Times,serif" font-size="13.00">Generated by RailRoady 1.5.2</text>
<text text-anchor="start" x="323" y="-7.6" font-family="Times,serif" font-size="13.00">http://railroady.prestonlee.com</text>
</g>
<!-- ApplicationController -->
<g id="node2" class="node"><title>ApplicationController</title>
<path fill="none" stroke="black" d="M12,-63.5C12,-63.5 241,-63.5 241,-63.5 247,-63.5 253,-69.5 253,-75.5 253,-75.5 253,-159.5 253,-159.5 253,-165.5 247,-171.5 241,-171.5 241,-171.5 12,-171.5 12,-171.5 6,-171.5 5.68434e-14,-165.5 5.68434e-14,-159.5 5.68434e-14,-159.5 5.68434e-14,-75.5 5.68434e-14,-75.5 5.68434e-14,-69.5 6,-63.5 12,-63.5"/>
<text text-anchor="middle" x="126.5" y="-156.3" font-family="Times,serif" font-size="14.00">ApplicationController</text>
<polyline fill="none" stroke="black" points="5.68434e-14,-148.5 253,-148.5 "/>
<polyline fill="none" stroke="black" points="5.68434e-14,-124.5 253,-124.5 "/>
<text text-anchor="start" x="8" y="-109.3" font-family="Times,serif" font-size="14.00">configure_permitted_parameters</text>
<text text-anchor="start" x="8" y="-94.3" font-family="Times,serif" font-size="14.00">set_time_zone</text>
<polyline fill="none" stroke="black" points="5.68434e-14,-86.5 253,-86.5 "/>
<text text-anchor="start" x="8" y="-71.3" font-family="Times,serif" font-size="14.00">_layout</text>
</g>
<!-- ConsentLogsController -->
<g id="node3" class="node"><title>ConsentLogsController</title>
<path fill="none" stroke="black" d="M12,-693.5C12,-693.5 172,-693.5 172,-693.5 178,-693.5 184,-699.5 184,-705.5 184,-705.5 184,-804.5 184,-804.5 184,-810.5 178,-816.5 172,-816.5 172,-816.5 12,-816.5 12,-816.5 6,-816.5 5.68434e-14,-810.5 5.68434e-14,-804.5 5.68434e-14,-804.5 5.68434e-14,-705.5 5.68434e-14,-705.5 5.68434e-14,-699.5 6,-693.5 12,-693.5"/>
<text text-anchor="middle" x="92" y="-801.3" font-family="Times,serif" font-size="14.00">ConsentLogsController</text>
<polyline fill="none" stroke="black" points="5.68434e-14,-793.5 184,-793.5 "/>
<text text-anchor="start" x="8" y="-778.3" font-family="Times,serif" font-size="14.00">edit</text>
<text text-anchor="start" x="8" y="-763.3" font-family="Times,serif" font-size="14.00">update</text>
<polyline fill="none" stroke="black" points="5.68434e-14,-755.5 184,-755.5 "/>
<polyline fill="none" stroke="black" points="5.68434e-14,-731.5 184,-731.5 "/>
<text text-anchor="start" x="8" y="-716.3" font-family="Times,serif" font-size="14.00">_layout</text>
<text text-anchor="start" x="8" y="-701.3" font-family="Times,serif" font-size="14.00">cl_params</text>
</g>
<!-- CoursesController -->
<g id="node4" class="node"><title>CoursesController</title>
<path fill="none" stroke="black" d="M432,-273.5C432,-273.5 557,-273.5 557,-273.5 563,-273.5 569,-279.5 569,-285.5 569,-285.5 569,-549.5 569,-549.5 569,-555.5 563,-561.5 557,-561.5 557,-561.5 432,-561.5 432,-561.5 426,-561.5 420,-555.5 420,-549.5 420,-549.5 420,-285.5 420,-285.5 420,-279.5 426,-273.5 432,-273.5"/>
<text text-anchor="middle" x="494.5" y="-546.3" font-family="Times,serif" font-size="14.00">CoursesController</text>
<polyline fill="none" stroke="black" points="420,-538.5 569,-538.5 "/>
<text text-anchor="start" x="428" y="-523.3" font-family="Times,serif" font-size="14.00">accept_roster</text>
<text text-anchor="start" x="428" y="-508.3" font-family="Times,serif" font-size="14.00">add_instructors</text>
<text text-anchor="start" x="428" y="-493.3" font-family="Times,serif" font-size="14.00">add_students</text>
<text text-anchor="start" x="428" y="-478.3" font-family="Times,serif" font-size="14.00">create</text>
<text text-anchor="start" x="428" y="-463.3" font-family="Times,serif" font-size="14.00">decline_roster</text>
<text text-anchor="start" x="428" y="-448.3" font-family="Times,serif" font-size="14.00">destroy</text>
<text text-anchor="start" x="428" y="-433.3" font-family="Times,serif" font-size="14.00">edit</text>
<text text-anchor="start" x="428" y="-418.3" font-family="Times,serif" font-size="14.00">index</text>
<text text-anchor="start" x="428" y="-403.3" font-family="Times,serif" font-size="14.00">new</text>
<text text-anchor="start" x="428" y="-388.3" font-family="Times,serif" font-size="14.00">show</text>
<text text-anchor="start" x="428" y="-373.3" font-family="Times,serif" font-size="14.00">update</text>
<polyline fill="none" stroke="black" points="420,-365.5 569,-365.5 "/>
<polyline fill="none" stroke="black" points="420,-341.5 569,-341.5 "/>
<text text-anchor="start" x="428" y="-326.3" font-family="Times,serif" font-size="14.00">_layout</text>
<text text-anchor="start" x="428" y="-311.3" font-family="Times,serif" font-size="14.00">check_admin</text>
<text text-anchor="start" x="428" y="-296.3" font-family="Times,serif" font-size="14.00">course_params</text>
<text text-anchor="start" x="428" y="-281.3" font-family="Times,serif" font-size="14.00">set_course</text>
</g>
<!-- ExperiencesController -->
<g id="node5" class="node"><title>ExperiencesController</title>
<path fill="none" stroke="black" d="M222,-210.5C222,-210.5 377,-210.5 377,-210.5 383,-210.5 389,-216.5 389,-222.5 389,-222.5 389,-501.5 389,-501.5 389,-507.5 383,-513.5 377,-513.5 377,-513.5 222,-513.5 222,-513.5 216,-513.5 210,-507.5 210,-501.5 210,-501.5 210,-222.5 210,-222.5 210,-216.5 216,-210.5 222,-210.5"/>
<text text-anchor="middle" x="299.5" y="-498.3" font-family="Times,serif" font-size="14.00">ExperiencesController</text>
<polyline fill="none" stroke="black" points="210,-490.5 389,-490.5 "/>
<text text-anchor="start" x="218" y="-475.3" font-family="Times,serif" font-size="14.00">create</text>
<text text-anchor="start" x="218" y="-460.3" font-family="Times,serif" font-size="14.00">destroy</text>
<text text-anchor="start" x="218" y="-445.3" font-family="Times,serif" font-size="14.00">diagnose</text>
<text text-anchor="start" x="218" y="-430.3" font-family="Times,serif" font-size="14.00">edit</text>
<text text-anchor="start" x="218" y="-415.3" font-family="Times,serif" font-size="14.00">index</text>
<text text-anchor="start" x="218" y="-400.3" font-family="Times,serif" font-size="14.00">new</text>
<text text-anchor="start" x="218" y="-385.3" font-family="Times,serif" font-size="14.00">next</text>
<text text-anchor="start" x="218" y="-370.3" font-family="Times,serif" font-size="14.00">react</text>
<text text-anchor="start" x="218" y="-355.3" font-family="Times,serif" font-size="14.00">show</text>
<text text-anchor="start" x="218" y="-340.3" font-family="Times,serif" font-size="14.00">update</text>
<polyline fill="none" stroke="black" points="210,-332.5 389,-332.5 "/>
<polyline fill="none" stroke="black" points="210,-308.5 389,-308.5 "/>
<text text-anchor="start" x="218" y="-293.3" font-family="Times,serif" font-size="14.00">_layout</text>
<text text-anchor="start" x="218" y="-278.3" font-family="Times,serif" font-size="14.00">check_admin</text>
<text text-anchor="start" x="218" y="-263.3" font-family="Times,serif" font-size="14.00">diagnosis_params</text>
<text text-anchor="start" x="218" y="-248.3" font-family="Times,serif" font-size="14.00">experience_params</text>
<text text-anchor="start" x="218" y="-233.3" font-family="Times,serif" font-size="14.00">reaction_params</text>
<text text-anchor="start" x="218" y="-218.3" font-family="Times,serif" font-size="14.00">set_experience</text>
</g>
<!-- GraphingController -->
<g id="node6" class="node"><title>GraphingController</title>
<path fill="none" stroke="black" d="M558,-609.5C558,-609.5 758,-609.5 758,-609.5 764,-609.5 770,-615.5 770,-621.5 770,-621.5 770,-765.5 770,-765.5 770,-771.5 764,-777.5 758,-777.5 758,-777.5 558,-777.5 558,-777.5 552,-777.5 546,-771.5 546,-765.5 546,-765.5 546,-621.5 546,-621.5 546,-615.5 552,-609.5 558,-609.5"/>
<text text-anchor="middle" x="658" y="-762.3" font-family="Times,serif" font-size="14.00">GraphingController</text>
<polyline fill="none" stroke="black" points="546,-754.5 770,-754.5 "/>
<text text-anchor="start" x="554" y="-739.3" font-family="Times,serif" font-size="14.00">data</text>
<text text-anchor="start" x="554" y="-724.3" font-family="Times,serif" font-size="14.00">index</text>
<text text-anchor="start" x="554" y="-709.3" font-family="Times,serif" font-size="14.00">individual_summary_data</text>
<text text-anchor="start" x="554" y="-694.3" font-family="Times,serif" font-size="14.00">pull_and_organise_user_data</text>
<text text-anchor="start" x="554" y="-679.3" font-family="Times,serif" font-size="14.00">raw_data</text>
<text text-anchor="start" x="554" y="-664.3" font-family="Times,serif" font-size="14.00">subjects</text>
<polyline fill="none" stroke="black" points="546,-656.5 770,-656.5 "/>
<polyline fill="none" stroke="black" points="546,-632.5 770,-632.5 "/>
<text text-anchor="start" x="554" y="-617.3" font-family="Times,serif" font-size="14.00">_layout</text>
</g>
<!-- HomeController -->
<g id="node7" class="node"><title>HomeController</title>
<path fill="none" stroke="black" d="M54,-441.5C54,-441.5 163,-441.5 163,-441.5 169,-441.5 175,-447.5 175,-453.5 175,-453.5 175,-522.5 175,-522.5 175,-528.5 169,-534.5 163,-534.5 163,-534.5 54,-534.5 54,-534.5 48,-534.5 42,-528.5 42,-522.5 42,-522.5 42,-453.5 42,-453.5 42,-447.5 48,-441.5 54,-441.5"/>
<text text-anchor="middle" x="108.5" y="-519.3" font-family="Times,serif" font-size="14.00">HomeController</text>
<polyline fill="none" stroke="black" points="42,-511.5 175,-511.5 "/>
<text text-anchor="start" x="50" y="-496.3" font-family="Times,serif" font-size="14.00">index</text>
<polyline fill="none" stroke="black" points="42,-488.5 175,-488.5 "/>
<polyline fill="none" stroke="black" points="42,-464.5 175,-464.5 "/>
<text text-anchor="start" x="50" y="-449.3" font-family="Times,serif" font-size="14.00">_layout</text>
</g>
<!-- InstallmentsController -->
<g id="node8" class="node"><title>InstallmentsController</title>
<path fill="none" stroke="black" d="M621,-273.5C621,-273.5 777,-273.5 777,-273.5 783,-273.5 789,-279.5 789,-285.5 789,-285.5 789,-444.5 789,-444.5 789,-450.5 783,-456.5 777,-456.5 777,-456.5 621,-456.5 621,-456.5 615,-456.5 609,-450.5 609,-444.5 609,-444.5 609,-285.5 609,-285.5 609,-279.5 615,-273.5 621,-273.5"/>
<text text-anchor="middle" x="699" y="-441.3" font-family="Times,serif" font-size="14.00">InstallmentsController</text>
<polyline fill="none" stroke="black" points="609,-433.5 789,-433.5 "/>
<text text-anchor="start" x="617" y="-418.3" font-family="Times,serif" font-size="14.00">create</text>
<text text-anchor="start" x="617" y="-403.3" font-family="Times,serif" font-size="14.00">demo_complete</text>
<text text-anchor="start" x="617" y="-388.3" font-family="Times,serif" font-size="14.00">demo_start</text>
<text text-anchor="start" x="617" y="-373.3" font-family="Times,serif" font-size="14.00">edit</text>
<text text-anchor="start" x="617" y="-358.3" font-family="Times,serif" font-size="14.00">new</text>
<text text-anchor="start" x="617" y="-343.3" font-family="Times,serif" font-size="14.00">update</text>
<polyline fill="none" stroke="black" points="609,-335.5 789,-335.5 "/>
<polyline fill="none" stroke="black" points="609,-311.5 789,-311.5 "/>
<text text-anchor="start" x="617" y="-296.3" font-family="Times,serif" font-size="14.00">_layout</text>
<text text-anchor="start" x="617" y="-281.3" font-family="Times,serif" font-size="14.00">i_params</text>
</g>
<!-- ProjectsController -->
<g id="node9" class="node"><title>ProjectsController</title>
<path fill="none" stroke="black" d="M243,-546.5C243,-546.5 368,-546.5 368,-546.5 374,-546.5 380,-552.5 380,-558.5 380,-558.5 380,-792.5 380,-792.5 380,-798.5 374,-804.5 368,-804.5 368,-804.5 243,-804.5 243,-804.5 237,-804.5 231,-798.5 231,-792.5 231,-792.5 231,-558.5 231,-558.5 231,-552.5 237,-546.5 243,-546.5"/>
<text text-anchor="middle" x="305.5" y="-789.3" font-family="Times,serif" font-size="14.00">ProjectsController</text>
<polyline fill="none" stroke="black" points="231,-781.5 380,-781.5 "/>
<text text-anchor="start" x="239" y="-766.3" font-family="Times,serif" font-size="14.00">add_group</text>
<text text-anchor="start" x="239" y="-751.3" font-family="Times,serif" font-size="14.00">create</text>
<text text-anchor="start" x="239" y="-736.3" font-family="Times,serif" font-size="14.00">destroy</text>
<text text-anchor="start" x="239" y="-721.3" font-family="Times,serif" font-size="14.00">edit</text>
<text text-anchor="start" x="239" y="-706.3" font-family="Times,serif" font-size="14.00">index</text>
<text text-anchor="start" x="239" y="-691.3" font-family="Times,serif" font-size="14.00">new</text>
<text text-anchor="start" x="239" y="-676.3" font-family="Times,serif" font-size="14.00">remove_group</text>
<text text-anchor="start" x="239" y="-661.3" font-family="Times,serif" font-size="14.00">show</text>
<text text-anchor="start" x="239" y="-646.3" font-family="Times,serif" font-size="14.00">update</text>
<polyline fill="none" stroke="black" points="231,-638.5 380,-638.5 "/>
<polyline fill="none" stroke="black" points="231,-614.5 380,-614.5 "/>
<text text-anchor="start" x="239" y="-599.3" font-family="Times,serif" font-size="14.00">_layout</text>
<text text-anchor="start" x="239" y="-584.3" font-family="Times,serif" font-size="14.00">check_admin</text>
<text text-anchor="start" x="239" y="-569.3" font-family="Times,serif" font-size="14.00">project_params</text>
<text text-anchor="start" x="239" y="-554.3" font-family="Times,serif" font-size="14.00">set_project</text>
</g>
<!-- RegistrationsController -->
<g id="node10" class="node"><title>RegistrationsController</title>
<path fill="none" stroke="black" d="M12,-567.5C12,-567.5 174,-567.5 174,-567.5 180,-567.5 186,-573.5 186,-579.5 186,-579.5 186,-648.5 186,-648.5 186,-654.5 180,-660.5 174,-660.5 174,-660.5 12,-660.5 12,-660.5 6,-660.5 2.84217e-14,-654.5 2.84217e-14,-648.5 2.84217e-14,-648.5 2.84217e-14,-579.5 2.84217e-14,-579.5 2.84217e-14,-573.5 6,-567.5 12,-567.5"/>
<text text-anchor="middle" x="93" y="-645.3" font-family="Times,serif" font-size="14.00">RegistrationsController</text>
<polyline fill="none" stroke="black" points="2.84217e-14,-637.5 186,-637.5 "/>
<polyline fill="none" stroke="black" points="2.84217e-14,-613.5 186,-613.5 "/>
<text text-anchor="start" x="8" y="-598.3" font-family="Times,serif" font-size="14.00">update_resource</text>
<polyline fill="none" stroke="black" points="2.84217e-14,-590.5 186,-590.5 "/>
<text text-anchor="start" x="8" y="-575.3" font-family="Times,serif" font-size="14.00">_layout</text>
</g>
<!-- Users::OmniauthCallbacksController -->
<g id="node11" class="node"><title>Users::OmniauthCallbacksController</title>
<path fill="none" stroke="black" d="M432,-126.5C432,-126.5 689,-126.5 689,-126.5 695,-126.5 701,-132.5 701,-138.5 701,-138.5 701,-222.5 701,-222.5 701,-228.5 695,-234.5 689,-234.5 689,-234.5 432,-234.5 432,-234.5 426,-234.5 420,-228.5 420,-222.5 420,-222.5 420,-138.5 420,-138.5 420,-132.5 426,-126.5 432,-126.5"/>
<text text-anchor="middle" x="560.5" y="-219.3" font-family="Times,serif" font-size="14.00">Users::OmniauthCallbacksController</text>
<polyline fill="none" stroke="black" points="420,-211.5 701,-211.5 "/>
<text text-anchor="start" x="428" y="-196.3" font-family="Times,serif" font-size="14.00">failure</text>
<text text-anchor="start" x="428" y="-181.3" font-family="Times,serif" font-size="14.00">google_oauth2</text>
<polyline fill="none" stroke="black" points="420,-173.5 701,-173.5 "/>
<polyline fill="none" stroke="black" points="420,-149.5 701,-149.5 "/>
<text text-anchor="start" x="428" y="-134.3" font-family="Times,serif" font-size="14.00">_layout</text>
</g>
</g>
</svg>
