<?xml version="1.0" encoding="UTF-8" standalone="no"?>
<!DOCTYPE svg PUBLIC "-//W3C//DTD SVG 1.1//EN"
 "http://www.w3.org/Graphics/SVG/1.1/DTD/svg11.dtd">
<!-- Generated by graphviz version 2.38.0 (20140413.2041)
 -->
<!-- Title: controllers_diagram Pages: 1 -->
<svg width="1052pt" height="1042pt"
 viewBox="0.00 0.00 1051.50 1042.00" xmlns="http://www.w3.org/2000/svg" xmlns:xlink="http://www.w3.org/1999/xlink">
<g id="graph0" class="graph" transform="scale(1 1) rotate(0) translate(443.5 598)">
<title>controllers_diagram</title>
<polygon fill="none" stroke="none" points="-443.5,444 -443.5,-598 608,-598 608,444 -443.5,444"/>
<!-- _diagram_info -->
<g id="node1" class="node"><title>_diagram_info</title>
<text text-anchor="start" x="268" y="316.4" font-family="Times,serif" font-size="13.00">Controllers diagram</text>
<text text-anchor="start" x="268" y="330.4" font-family="Times,serif" font-size="13.00">Date: Sep 07 2018 &#45; 17:54</text>
<text text-anchor="start" x="268" y="344.4" font-family="Times,serif" font-size="13.00">Migration version: 20180407212714</text>
<text text-anchor="start" x="268" y="358.4" font-family="Times,serif" font-size="13.00">Generated by RailRoady 1.5.3</text>
<text text-anchor="start" x="268" y="372.4" font-family="Times,serif" font-size="13.00">http://railroady.prestonlee.com</text>
</g>
<!-- CandidateListsController -->
<g id="node2" class="node"><title>CandidateListsController</title>
<path fill="none" stroke="black" d="M272.5,259.5C272.5,259.5 421.5,259.5 421.5,259.5 427.5,259.5 433.5,253.5 433.5,247.5 433.5,247.5 433.5,44.5 433.5,44.5 433.5,38.5 427.5,32.5 421.5,32.5 421.5,32.5 272.5,32.5 272.5,32.5 266.5,32.5 260.5,38.5 260.5,44.5 260.5,44.5 260.5,247.5 260.5,247.5 260.5,253.5 266.5,259.5 272.5,259.5"/>
<text text-anchor="middle" x="347" y="47.7" font-family="Times,serif" font-size="14.00">CandidateListsController</text>
<polyline fill="none" stroke="black" points="260.5,55.5 433.5,55.5 "/>
<text text-anchor="start" x="268.5" y="70.7" font-family="Times,serif" font-size="14.00">create</text>
<text text-anchor="start" x="268.5" y="85.7" font-family="Times,serif" font-size="14.00">demo_complete</text>
<text text-anchor="start" x="268.5" y="100.7" font-family="Times,serif" font-size="14.00">edit</text>
<text text-anchor="start" x="268.5" y="115.7" font-family="Times,serif" font-size="14.00">list_stats</text>
<text text-anchor="start" x="268.5" y="130.7" font-family="Times,serif" font-size="14.00">request_collaboration</text>
<text text-anchor="start" x="268.5" y="145.7" font-family="Times,serif" font-size="14.00">show</text>
<text text-anchor="start" x="268.5" y="160.7" font-family="Times,serif" font-size="14.00">update</text>
<polyline fill="none" stroke="black" points="260.5,168.5 433.5,168.5 "/>
<text text-anchor="start" x="268.5" y="183.7" font-family="Times,serif" font-size="14.00">merge_to_group_list</text>
<polyline fill="none" stroke="black" points="260.5,191.5 433.5,191.5 "/>
<text text-anchor="start" x="268.5" y="206.7" font-family="Times,serif" font-size="14.00">_layout</text>
<text text-anchor="start" x="268.5" y="221.7" font-family="Times,serif" font-size="14.00">candidate_list_params</text>
<text text-anchor="start" x="268.5" y="236.7" font-family="Times,serif" font-size="14.00">merge_individuals_to_group</text>
<text text-anchor="start" x="268.5" y="251.7" font-family="Times,serif" font-size="14.00">set_candidate_list</text>
</g>
<!-- BingoBoardsController -->
<g id="node3" class="node"><title>BingoBoardsController</title>
<path fill="none" stroke="black" d="M272.5,-0.5C272.5,-0.5 409.5,-0.5 409.5,-0.5 415.5,-0.5 421.5,-6.5 421.5,-12.5 421.5,-12.5 421.5,-201.5 421.5,-201.5 421.5,-207.5 415.5,-213.5 409.5,-213.5 409.5,-213.5 272.5,-213.5 272.5,-213.5 266.5,-213.5 260.5,-207.5 260.5,-201.5 260.5,-201.5 260.5,-12.5 260.5,-12.5 260.5,-6.5 266.5,-0.5 272.5,-0.5"/>
<text text-anchor="middle" x="341" y="-198.3" font-family="Times,serif" font-size="14.00">BingoBoardsController</text>
<polyline fill="none" stroke="black" points="260.5,-190.5 421.5,-190.5 "/>
<text text-anchor="start" x="268.5" y="-175.3" font-family="Times,serif" font-size="14.00">board_for_game</text>
<text text-anchor="start" x="268.5" y="-160.3" font-family="Times,serif" font-size="14.00">index</text>
<text text-anchor="start" x="268.5" y="-145.3" font-family="Times,serif" font-size="14.00">play_board</text>
<text text-anchor="start" x="268.5" y="-130.3" font-family="Times,serif" font-size="14.00">show</text>
<text text-anchor="start" x="268.5" y="-115.3" font-family="Times,serif" font-size="14.00">update</text>
<text text-anchor="start" x="268.5" y="-100.3" font-family="Times,serif" font-size="14.00">verify_win</text>
<polyline fill="none" stroke="black" points="260.5,-92.5 421.5,-92.5 "/>
<polyline fill="none" stroke="black" points="260.5,-68.5 421.5,-68.5 "/>
<text text-anchor="start" x="268.5" y="-53.3" font-family="Times,serif" font-size="14.00">_layout</text>
<text text-anchor="start" x="268.5" y="-38.3" font-family="Times,serif" font-size="14.00">bingo_board_params</text>
<text text-anchor="start" x="268.5" y="-23.3" font-family="Times,serif" font-size="14.00">play_bingo_board_params</text>
<text text-anchor="start" x="268.5" y="-8.3" font-family="Times,serif" font-size="14.00">set_bingo_board</text>
</g>
<!-- ApplicationController -->
<g id="node4" class="node"><title>ApplicationController</title>
<path fill="none" stroke="black" d="M-308,279C-308,279 -138,279 -138,279 -132,279 -126,273 -126,267 -126,267 -126,183 -126,183 -126,177 -132,171 -138,171 -138,171 -308,171 -308,171 -314,171 -320,177 -320,183 -320,183 -320,267 -320,267 -320,273 -314,279 -308,279"/>
<text text-anchor="middle" x="-223" y="186.2" font-family="Times,serif" font-size="14.00">ApplicationController</text>
<polyline fill="none" stroke="black" points="-320,194 -126,194 "/>
<polyline fill="none" stroke="black" points="-320,218 -126,218 "/>
<text text-anchor="start" x="-312" y="233.2" font-family="Times,serif" font-size="14.00">configure_permitted_parameters</text>
<text text-anchor="start" x="-312" y="248.2" font-family="Times,serif" font-size="14.00">set_locale</text>
<polyline fill="none" stroke="black" points="-320,256 -126,256 "/>
<text text-anchor="start" x="-312" y="271.2" font-family="Times,serif" font-size="14.00">_layout</text>
</g>
<!-- SchoolsController -->
<g id="node5" class="node"><title>SchoolsController</title>
<path fill="none" stroke="black" d="M-268.5,-281C-268.5,-281 -177.5,-281 -177.5,-281 -171.5,-281 -165.5,-287 -165.5,-293 -165.5,-293 -165.5,-497 -165.5,-497 -165.5,-503 -171.5,-509 -177.5,-509 -177.5,-509 -268.5,-509 -268.5,-509 -274.5,-509 -280.5,-503 -280.5,-497 -280.5,-497 -280.5,-293 -280.5,-293 -280.5,-287 -274.5,-281 -268.5,-281"/>
<text text-anchor="middle" x="-223" y="-493.8" font-family="Times,serif" font-size="14.00">SchoolsController</text>
<polyline fill="none" stroke="black" points="-280.5,-486 -165.5,-486 "/>
<text text-anchor="start" x="-272.5" y="-470.8" font-family="Times,serif" font-size="14.00">create</text>
<text text-anchor="start" x="-272.5" y="-455.8" font-family="Times,serif" font-size="14.00">destroy</text>
<text text-anchor="start" x="-272.5" y="-440.8" font-family="Times,serif" font-size="14.00">edit</text>
<text text-anchor="start" x="-272.5" y="-425.8" font-family="Times,serif" font-size="14.00">index</text>
<text text-anchor="start" x="-272.5" y="-410.8" font-family="Times,serif" font-size="14.00">new</text>
<text text-anchor="start" x="-272.5" y="-395.8" font-family="Times,serif" font-size="14.00">show</text>
<text text-anchor="start" x="-272.5" y="-380.8" font-family="Times,serif" font-size="14.00">update</text>
<polyline fill="none" stroke="black" points="-280.5,-373 -165.5,-373 "/>
<polyline fill="none" stroke="black" points="-280.5,-349 -165.5,-349 "/>
<text text-anchor="start" x="-272.5" y="-333.8" font-family="Times,serif" font-size="14.00">_layout</text>
<text text-anchor="start" x="-272.5" y="-318.8" font-family="Times,serif" font-size="14.00">check_admin</text>
<text text-anchor="start" x="-272.5" y="-303.8" font-family="Times,serif" font-size="14.00">school_params</text>
<text text-anchor="start" x="-272.5" y="-288.8" font-family="Times,serif" font-size="14.00">set_school</text>
</g>
<!-- Users::OmniauthCallbacksController -->
<g id="node6" class="node"><title>Users::OmniauthCallbacksController</title>
<path fill="none" stroke="black" d="M12,339C12,339 206,339 206,339 212,339 218,333 218,327 218,327 218,243 218,243 218,237 212,231 206,231 206,231 12,231 12,231 6,231 0,237 0,243 0,243 0,327 0,327 0,333 6,339 12,339"/>
<text text-anchor="middle" x="109" y="246.2" font-family="Times,serif" font-size="14.00">Users::OmniauthCallbacksController</text>
<polyline fill="none" stroke="black" points="0,254 218,254 "/>
<text text-anchor="start" x="8" y="269.2" font-family="Times,serif" font-size="14.00">failure</text>
<text text-anchor="start" x="8" y="284.2" font-family="Times,serif" font-size="14.00">google_oauth2</text>
<polyline fill="none" stroke="black" points="0,292 218,292 "/>
<polyline fill="none" stroke="black" points="0,316 218,316 "/>
<text text-anchor="start" x="8" y="331.2" font-family="Times,serif" font-size="14.00">_layout</text>
</g>
<!-- BingoGamesController -->
<g id="node7" class="node"><title>BingoGamesController</title>
<path fill="none" stroke="black" d="M-108,-221C-108,-221 28,-221 28,-221 34,-221 40,-227 40,-233 40,-233 40,-497 40,-497 40,-503 34,-509 28,-509 28,-509 -108,-509 -108,-509 -114,-509 -120,-503 -120,-497 -120,-497 -120,-233 -120,-233 -120,-227 -114,-221 -108,-221"/>
<text text-anchor="middle" x="-40" y="-493.8" font-family="Times,serif" font-size="14.00">BingoGamesController</text>
<polyline fill="none" stroke="black" points="-120,-486 40,-486 "/>
<text text-anchor="start" x="-112" y="-470.8" font-family="Times,serif" font-size="14.00">activate</text>
<text text-anchor="start" x="-112" y="-455.8" font-family="Times,serif" font-size="14.00">create</text>
<text text-anchor="start" x="-112" y="-440.8" font-family="Times,serif" font-size="14.00">destroy</text>
<text text-anchor="start" x="-112" y="-425.8" font-family="Times,serif" font-size="14.00">edit</text>
<text text-anchor="start" x="-112" y="-410.8" font-family="Times,serif" font-size="14.00">index</text>
<text text-anchor="start" x="-112" y="-395.8" font-family="Times,serif" font-size="14.00">new</text>
<text text-anchor="start" x="-112" y="-380.8" font-family="Times,serif" font-size="14.00">review_candidates</text>
<text text-anchor="start" x="-112" y="-365.8" font-family="Times,serif" font-size="14.00">show</text>
<text text-anchor="start" x="-112" y="-350.8" font-family="Times,serif" font-size="14.00">update</text>
<text text-anchor="start" x="-112" y="-335.8" font-family="Times,serif" font-size="14.00">update_review_candidates</text>
<polyline fill="none" stroke="black" points="-120,-328 40,-328 "/>
<polyline fill="none" stroke="black" points="-120,-304 40,-304 "/>
<text text-anchor="start" x="-112" y="-288.8" font-family="Times,serif" font-size="14.00">_layout</text>
<text text-anchor="start" x="-112" y="-273.8" font-family="Times,serif" font-size="14.00">bingo_game_params</text>
<text text-anchor="start" x="-112" y="-258.8" font-family="Times,serif" font-size="14.00">check_editor</text>
<text text-anchor="start" x="-112" y="-243.8" font-family="Times,serif" font-size="14.00">check_viewer</text>
<text text-anchor="start" x="-112" y="-228.8" font-family="Times,serif" font-size="14.00">set_bingo_game</text>
</g>
<!-- ConsentLogsController -->
<g id="node8" class="node"><title>ConsentLogsController</title>
<path fill="none" stroke="black" d="M-427.5,439.5C-427.5,439.5 -308.5,439.5 -308.5,439.5 -302.5,439.5 -296.5,433.5 -296.5,427.5 -296.5,427.5 -296.5,328.5 -296.5,328.5 -296.5,322.5 -302.5,316.5 -308.5,316.5 -308.5,316.5 -427.5,316.5 -427.5,316.5 -433.5,316.5 -439.5,322.5 -439.5,328.5 -439.5,328.5 -439.5,427.5 -439.5,427.5 -439.5,433.5 -433.5,439.5 -427.5,439.5"/>
<text text-anchor="middle" x="-368" y="331.7" font-family="Times,serif" font-size="14.00">ConsentLogsController</text>
<polyline fill="none" stroke="black" points="-439.5,339.5 -296.5,339.5 "/>
<text text-anchor="start" x="-431.5" y="354.7" font-family="Times,serif" font-size="14.00">edit</text>
<text text-anchor="start" x="-431.5" y="369.7" font-family="Times,serif" font-size="14.00">update</text>
<polyline fill="none" stroke="black" points="-439.5,377.5 -296.5,377.5 "/>
<polyline fill="none" stroke="black" points="-439.5,401.5 -296.5,401.5 "/>
<text text-anchor="start" x="-431.5" y="416.7" font-family="Times,serif" font-size="14.00">_layout</text>
<text text-anchor="start" x="-431.5" y="431.7" font-family="Times,serif" font-size="14.00">cl_params</text>
</g>
<!-- ExperiencesController -->
<g id="node9" class="node"><title>ExperiencesController</title>
<path fill="none" stroke="black" d="M92,79.5C92,79.5 206,79.5 206,79.5 212,79.5 218,73.5 218,67.5 218,67.5 218,-241.5 218,-241.5 218,-247.5 212,-253.5 206,-253.5 206,-253.5 92,-253.5 92,-253.5 86,-253.5 80,-247.5 80,-241.5 80,-241.5 80,67.5 80,67.5 80,73.5 86,79.5 92,79.5"/>
<text text-anchor="middle" x="149" y="-238.3" font-family="Times,serif" font-size="14.00">ExperiencesController</text>
<polyline fill="none" stroke="black" points="80,-230.5 218,-230.5 "/>
<text text-anchor="start" x="88" y="-215.3" font-family="Times,serif" font-size="14.00">activate</text>
<text text-anchor="start" x="88" y="-200.3" font-family="Times,serif" font-size="14.00">create</text>
<text text-anchor="start" x="88" y="-185.3" font-family="Times,serif" font-size="14.00">destroy</text>
<text text-anchor="start" x="88" y="-170.3" font-family="Times,serif" font-size="14.00">diagnose</text>
<text text-anchor="start" x="88" y="-155.3" font-family="Times,serif" font-size="14.00">edit</text>
<text text-anchor="start" x="88" y="-140.3" font-family="Times,serif" font-size="14.00">index</text>
<text text-anchor="start" x="88" y="-125.3" font-family="Times,serif" font-size="14.00">new</text>
<text text-anchor="start" x="88" y="-110.3" font-family="Times,serif" font-size="14.00">next</text>
<text text-anchor="start" x="88" y="-95.3" font-family="Times,serif" font-size="14.00">react</text>
<text text-anchor="start" x="88" y="-80.3" font-family="Times,serif" font-size="14.00">show</text>
<text text-anchor="start" x="88" y="-65.3" font-family="Times,serif" font-size="14.00">update</text>
<polyline fill="none" stroke="black" points="80,-57.5 218,-57.5 "/>
<polyline fill="none" stroke="black" points="80,-33.5 218,-33.5 "/>
<text text-anchor="start" x="88" y="-18.3" font-family="Times,serif" font-size="14.00">_layout</text>
<text text-anchor="start" x="88" y="-3.3" font-family="Times,serif" font-size="14.00">check_editor</text>
<text text-anchor="start" x="88" y="11.7" font-family="Times,serif" font-size="14.00">check_viewer</text>
<text text-anchor="start" x="88" y="26.7" font-family="Times,serif" font-size="14.00">diagnosis_params</text>
<text text-anchor="start" x="88" y="41.7" font-family="Times,serif" font-size="14.00">experience_params</text>
<text text-anchor="start" x="88" y="56.7" font-family="Times,serif" font-size="14.00">reaction_params</text>
<text text-anchor="start" x="88" y="71.7" font-family="Times,serif" font-size="14.00">set_experience</text>
</g>
<!-- HomeController -->
<g id="node10" class="node"><title>HomeController</title>
<path fill="none" stroke="black" d="M472.5,-0.5C472.5,-0.5 585.5,-0.5 585.5,-0.5 591.5,-0.5 597.5,-6.5 597.5,-12.5 597.5,-12.5 597.5,-141.5 597.5,-141.5 597.5,-147.5 591.5,-153.5 585.5,-153.5 585.5,-153.5 472.5,-153.5 472.5,-153.5 466.5,-153.5 460.5,-147.5 460.5,-141.5 460.5,-141.5 460.5,-12.5 460.5,-12.5 460.5,-6.5 466.5,-0.5 472.5,-0.5"/>
<text text-anchor="middle" x="529" y="-138.3" font-family="Times,serif" font-size="14.00">HomeController</text>
<polyline fill="none" stroke="black" points="460.5,-130.5 597.5,-130.5 "/>
<text text-anchor="start" x="468.5" y="-115.3" font-family="Times,serif" font-size="14.00">check_diversity_score</text>
<text text-anchor="start" x="468.5" y="-100.3" font-family="Times,serif" font-size="14.00">demo_start</text>
<text text-anchor="start" x="468.5" y="-85.3" font-family="Times,serif" font-size="14.00">get_quote</text>
<text text-anchor="start" x="468.5" y="-70.3" font-family="Times,serif" font-size="14.00">index</text>
<text text-anchor="start" x="468.5" y="-55.3" font-family="Times,serif" font-size="14.00">states_for_country</text>
<polyline fill="none" stroke="black" points="460.5,-47.5 597.5,-47.5 "/>
<polyline fill="none" stroke="black" points="460.5,-23.5 597.5,-23.5 "/>
<text text-anchor="start" x="468.5" y="-8.3" font-family="Times,serif" font-size="14.00">_layout</text>
</g>
<!-- ConceptsController -->
<g id="node11" class="node"><title>ConceptsController</title>
<path fill="none" stroke="black" d="M112.5,-300.5C112.5,-300.5 211.5,-300.5 211.5,-300.5 217.5,-300.5 223.5,-306.5 223.5,-312.5 223.5,-312.5 223.5,-531.5 223.5,-531.5 223.5,-537.5 217.5,-543.5 211.5,-543.5 211.5,-543.5 112.5,-543.5 112.5,-543.5 106.5,-543.5 100.5,-537.5 100.5,-531.5 100.5,-531.5 100.5,-312.5 100.5,-312.5 100.5,-306.5 106.5,-300.5 112.5,-300.5"/>
<text text-anchor="middle" x="162" y="-528.3" font-family="Times,serif" font-size="14.00">ConceptsController</text>
<polyline fill="none" stroke="black" points="100.5,-520.5 223.5,-520.5 "/>
<text text-anchor="start" x="108.5" y="-505.3" font-family="Times,serif" font-size="14.00">concepts_for_game</text>
<text text-anchor="start" x="108.5" y="-490.3" font-family="Times,serif" font-size="14.00">create</text>
<text text-anchor="start" x="108.5" y="-475.3" font-family="Times,serif" font-size="14.00">destroy</text>
<text text-anchor="start" x="108.5" y="-460.3" font-family="Times,serif" font-size="14.00">edit</text>
<text text-anchor="start" x="108.5" y="-445.3" font-family="Times,serif" font-size="14.00">index</text>
<text text-anchor="start" x="108.5" y="-430.3" font-family="Times,serif" font-size="14.00">new</text>
<text text-anchor="start" x="108.5" y="-415.3" font-family="Times,serif" font-size="14.00">show</text>
<text text-anchor="start" x="108.5" y="-400.3" font-family="Times,serif" font-size="14.00">update</text>
<polyline fill="none" stroke="black" points="100.5,-392.5 223.5,-392.5 "/>
<polyline fill="none" stroke="black" points="100.5,-368.5 223.5,-368.5 "/>
<text text-anchor="start" x="108.5" y="-353.3" font-family="Times,serif" font-size="14.00">_layout</text>
<text text-anchor="start" x="108.5" y="-338.3" font-family="Times,serif" font-size="14.00">check_admin</text>
<text text-anchor="start" x="108.5" y="-323.3" font-family="Times,serif" font-size="14.00">concept_params</text>
<text text-anchor="start" x="108.5" y="-308.3" font-family="Times,serif" font-size="14.00">set_concept</text>
</g>
<!-- GraphingController -->
<g id="node12" class="node"><title>GraphingController</title>
<path fill="none" stroke="black" d="M-427.5,-440.5C-427.5,-440.5 -328.5,-440.5 -328.5,-440.5 -322.5,-440.5 -316.5,-446.5 -316.5,-452.5 -316.5,-452.5 -316.5,-581.5 -316.5,-581.5 -316.5,-587.5 -322.5,-593.5 -328.5,-593.5 -328.5,-593.5 -427.5,-593.5 -427.5,-593.5 -433.5,-593.5 -439.5,-587.5 -439.5,-581.5 -439.5,-581.5 -439.5,-452.5 -439.5,-452.5 -439.5,-446.5 -433.5,-440.5 -427.5,-440.5"/>
<text text-anchor="middle" x="-378" y="-578.3" font-family="Times,serif" font-size="14.00">GraphingController</text>
<polyline fill="none" stroke="black" points="-439.5,-570.5 -316.5,-570.5 "/>
<text text-anchor="start" x="-431.5" y="-555.3" font-family="Times,serif" font-size="14.00">data</text>
<text text-anchor="start" x="-431.5" y="-540.3" font-family="Times,serif" font-size="14.00">index</text>
<text text-anchor="start" x="-431.5" y="-525.3" font-family="Times,serif" font-size="14.00">projects</text>
<text text-anchor="start" x="-431.5" y="-510.3" font-family="Times,serif" font-size="14.00">raw_data</text>
<text text-anchor="start" x="-431.5" y="-495.3" font-family="Times,serif" font-size="14.00">subjects</text>
<polyline fill="none" stroke="black" points="-439.5,-487.5 -316.5,-487.5 "/>
<polyline fill="none" stroke="black" points="-439.5,-463.5 -316.5,-463.5 "/>
<text text-anchor="start" x="-431.5" y="-448.3" font-family="Times,serif" font-size="14.00">_layout</text>
</g>
<!-- InstallmentsController -->
<g id="node13" class="node"><title>InstallmentsController</title>
<path fill="none" stroke="black" d="M-407.5,-0C-407.5,-0 -292.5,-0 -292.5,-0 -286.5,-0 -280.5,-6 -280.5,-12 -280.5,-12 -280.5,-156 -280.5,-156 -280.5,-162 -286.5,-168 -292.5,-168 -292.5,-168 -407.5,-168 -407.5,-168 -413.5,-168 -419.5,-162 -419.5,-156 -419.5,-156 -419.5,-12 -419.5,-12 -419.5,-6 -413.5,-0 -407.5,-0"/>
<text text-anchor="middle" x="-350" y="-152.8" font-family="Times,serif" font-size="14.00">InstallmentsController</text>
<polyline fill="none" stroke="black" points="-419.5,-145 -280.5,-145 "/>
<text text-anchor="start" x="-411.5" y="-129.8" font-family="Times,serif" font-size="14.00">create</text>
<text text-anchor="start" x="-411.5" y="-114.8" font-family="Times,serif" font-size="14.00">demo_complete</text>
<text text-anchor="start" x="-411.5" y="-99.8" font-family="Times,serif" font-size="14.00">edit</text>
<text text-anchor="start" x="-411.5" y="-84.8" font-family="Times,serif" font-size="14.00">new</text>
<text text-anchor="start" x="-411.5" y="-69.8" font-family="Times,serif" font-size="14.00">update</text>
<polyline fill="none" stroke="black" points="-419.5,-62 -280.5,-62 "/>
<polyline fill="none" stroke="black" points="-419.5,-38 -280.5,-38 "/>
<text text-anchor="start" x="-411.5" y="-22.8" font-family="Times,serif" font-size="14.00">_layout</text>
<text text-anchor="start" x="-411.5" y="-7.8" font-family="Times,serif" font-size="14.00">i_params</text>
</g>
<!-- ProjectsController -->
<g id="node14" class="node"><title>ProjectsController</title>
<path fill="none" stroke="black" d="M-228,139C-228,139 -136,139 -136,139 -130,139 -124,133 -124,127 -124,127 -124,-167 -124,-167 -124,-173 -130,-179 -136,-179 -136,-179 -228,-179 -228,-179 -234,-179 -240,-173 -240,-167 -240,-167 -240,127 -240,127 -240,133 -234,139 -228,139"/>
<text text-anchor="middle" x="-182" y="-163.8" font-family="Times,serif" font-size="14.00">ProjectsController</text>
<polyline fill="none" stroke="black" points="-240,-156 -124,-156 "/>
<text text-anchor="start" x="-232" y="-140.8" font-family="Times,serif" font-size="14.00">activate</text>
<text text-anchor="start" x="-232" y="-125.8" font-family="Times,serif" font-size="14.00">add_group</text>
<text text-anchor="start" x="-232" y="-110.8" font-family="Times,serif" font-size="14.00">create</text>
<text text-anchor="start" x="-232" y="-95.8" font-family="Times,serif" font-size="14.00">destroy</text>
<text text-anchor="start" x="-232" y="-80.8" font-family="Times,serif" font-size="14.00">edit</text>
<text text-anchor="start" x="-232" y="-65.8" font-family="Times,serif" font-size="14.00">index</text>
<text text-anchor="start" x="-232" y="-50.8" font-family="Times,serif" font-size="14.00">new</text>
<text text-anchor="start" x="-232" y="-35.8" font-family="Times,serif" font-size="14.00">remove_group</text>
<text text-anchor="start" x="-232" y="-20.8" font-family="Times,serif" font-size="14.00">rescore_group</text>
<text text-anchor="start" x="-232" y="-5.8" font-family="Times,serif" font-size="14.00">rescore_groups</text>
<text text-anchor="start" x="-232" y="9.2" font-family="Times,serif" font-size="14.00">show</text>
<text text-anchor="start" x="-232" y="24.2" font-family="Times,serif" font-size="14.00">update</text>
<polyline fill="none" stroke="black" points="-240,32 -124,32 "/>
<polyline fill="none" stroke="black" points="-240,56 -124,56 "/>
<text text-anchor="start" x="-232" y="71.2" font-family="Times,serif" font-size="14.00">_layout</text>
<text text-anchor="start" x="-232" y="86.2" font-family="Times,serif" font-size="14.00">check_editor</text>
<text text-anchor="start" x="-232" y="101.2" font-family="Times,serif" font-size="14.00">check_viewer</text>
<text text-anchor="start" x="-232" y="116.2" font-family="Times,serif" font-size="14.00">project_params</text>
<text text-anchor="start" x="-232" y="131.2" font-family="Times,serif" font-size="14.00">set_project</text>
</g>
<!-- CoursesController -->
<g id="node15" class="node"><title>CoursesController</title>
<path fill="none" stroke="black" d="M-67.5,199C-67.5,199 35.5,199 35.5,199 41.5,199 47.5,193 47.5,187 47.5,187 47.5,-167 47.5,-167 47.5,-173 41.5,-179 35.5,-179 35.5,-179 -67.5,-179 -67.5,-179 -73.5,-179 -79.5,-173 -79.5,-167 -79.5,-167 -79.5,187 -79.5,187 -79.5,193 -73.5,199 -67.5,199"/>
<text text-anchor="middle" x="-16" y="-163.8" font-family="Times,serif" font-size="14.00">CoursesController</text>
<polyline fill="none" stroke="black" points="-79.5,-156 47.5,-156 "/>
<text text-anchor="start" x="-71.5" y="-140.8" font-family="Times,serif" font-size="14.00">accept_roster</text>
<text text-anchor="start" x="-71.5" y="-125.8" font-family="Times,serif" font-size="14.00">add_instructors</text>
<text text-anchor="start" x="-71.5" y="-110.8" font-family="Times,serif" font-size="14.00">add_students</text>
<text text-anchor="start" x="-71.5" y="-95.8" font-family="Times,serif" font-size="14.00">create</text>
<text text-anchor="start" x="-71.5" y="-80.8" font-family="Times,serif" font-size="14.00">decline_roster</text>
<text text-anchor="start" x="-71.5" y="-65.8" font-family="Times,serif" font-size="14.00">destroy</text>
<text text-anchor="start" x="-71.5" y="-50.8" font-family="Times,serif" font-size="14.00">drop_student</text>
<text text-anchor="start" x="-71.5" y="-35.8" font-family="Times,serif" font-size="14.00">edit</text>
<text text-anchor="start" x="-71.5" y="-20.8" font-family="Times,serif" font-size="14.00">index</text>
<text text-anchor="start" x="-71.5" y="-5.8" font-family="Times,serif" font-size="14.00">new</text>
<text text-anchor="start" x="-71.5" y="9.2" font-family="Times,serif" font-size="14.00">new_from_template</text>
<text text-anchor="start" x="-71.5" y="24.2" font-family="Times,serif" font-size="14.00">re_invite_student</text>
<text text-anchor="start" x="-71.5" y="39.2" font-family="Times,serif" font-size="14.00">remove_instructor</text>
<text text-anchor="start" x="-71.5" y="54.2" font-family="Times,serif" font-size="14.00">show</text>
<text text-anchor="start" x="-71.5" y="69.2" font-family="Times,serif" font-size="14.00">update</text>
<polyline fill="none" stroke="black" points="-79.5,77 47.5,77 "/>
<polyline fill="none" stroke="black" points="-79.5,101 47.5,101 "/>
<text text-anchor="start" x="-71.5" y="116.2" font-family="Times,serif" font-size="14.00">_layout</text>
<text text-anchor="start" x="-71.5" y="131.2" font-family="Times,serif" font-size="14.00">check_admin</text>
<text text-anchor="start" x="-71.5" y="146.2" font-family="Times,serif" font-size="14.00">check_editor</text>
<text text-anchor="start" x="-71.5" y="161.2" font-family="Times,serif" font-size="14.00">check_viewer</text>
<text text-anchor="start" x="-71.5" y="176.2" font-family="Times,serif" font-size="14.00">course_params</text>
<text text-anchor="start" x="-71.5" y="191.2" font-family="Times,serif" font-size="14.00">set_course</text>
</g>
<!-- ConsentFormsController -->
<g id="node16" class="node"><title>ConsentFormsController</title>
<path fill="none" stroke="black" d="M272,-260.5C272,-260.5 400,-260.5 400,-260.5 406,-260.5 412,-266.5 412,-272.5 412,-272.5 412,-461.5 412,-461.5 412,-467.5 406,-473.5 400,-473.5 400,-473.5 272,-473.5 272,-473.5 266,-473.5 260,-467.5 260,-461.5 260,-461.5 260,-272.5 260,-272.5 260,-266.5 266,-260.5 272,-260.5"/>
<text text-anchor="middle" x="336" y="-458.3" font-family="Times,serif" font-size="14.00">ConsentFormsController</text>
<polyline fill="none" stroke="black" points="260,-450.5 412,-450.5 "/>
<text text-anchor="start" x="268" y="-435.3" font-family="Times,serif" font-size="14.00">create</text>
<text text-anchor="start" x="268" y="-420.3" font-family="Times,serif" font-size="14.00">destroy</text>
<text text-anchor="start" x="268" y="-405.3" font-family="Times,serif" font-size="14.00">edit</text>
<text text-anchor="start" x="268" y="-390.3" font-family="Times,serif" font-size="14.00">index</text>
<text text-anchor="start" x="268" y="-375.3" font-family="Times,serif" font-size="14.00">new</text>
<text text-anchor="start" x="268" y="-360.3" font-family="Times,serif" font-size="14.00">show</text>
<text text-anchor="start" x="268" y="-345.3" font-family="Times,serif" font-size="14.00">update</text>
<polyline fill="none" stroke="black" points="260,-337.5 412,-337.5 "/>
<polyline fill="none" stroke="black" points="260,-313.5 412,-313.5 "/>
<text text-anchor="start" x="268" y="-298.3" font-family="Times,serif" font-size="14.00">_layout</text>
<text text-anchor="start" x="268" y="-283.3" font-family="Times,serif" font-size="14.00">consent_form_params</text>
<text text-anchor="start" x="268" y="-268.3" font-family="Times,serif" font-size="14.00">set_consent_form</text>
</g>
<!-- RegistrationsController -->
<g id="node17" class="node"><title>RegistrationsController</title>
<path fill="none" stroke="black" d="M472,-201C472,-201 592,-201 592,-201 598,-201 604,-207 604,-213 604,-213 604,-341 604,-341 604,-347 598,-353 592,-353 592,-353 472,-353 472,-353 466,-353 460,-347 460,-341 460,-341 460,-213 460,-213 460,-207 466,-201 472,-201"/>
<text text-anchor="middle" x="532" y="-337.8" font-family="Times,serif" font-size="14.00">RegistrationsController</text>
<polyline fill="none" stroke="black" points="460,-330 604,-330 "/>
<text text-anchor="start" x="468" y="-314.8" font-family="Times,serif" font-size="14.00">add_email</text>
<text text-anchor="start" x="468" y="-299.8" font-family="Times,serif" font-size="14.00">initiate_password_reset</text>
<text text-anchor="start" x="468" y="-284.8" font-family="Times,serif" font-size="14.00">remove_email</text>
<text text-anchor="start" x="468" y="-269.8" font-family="Times,serif" font-size="14.00">set_primary_email</text>
<polyline fill="none" stroke="black" points="460,-262 604,-262 "/>
<text text-anchor="start" x="468" y="-246.8" font-family="Times,serif" font-size="14.00">update_resource</text>
<polyline fill="none" stroke="black" points="460,-239 604,-239 "/>
<text text-anchor="start" x="468" y="-223.8" font-family="Times,serif" font-size="14.00">_layout</text>
<text text-anchor="start" x="468" y="-208.8" font-family="Times,serif" font-size="14.00">set_email</text>
</g>
</g>
</svg>
