<?xml version="1.0" encoding="UTF-8" standalone="no"?>
<!DOCTYPE svg PUBLIC "-//W3C//DTD SVG 1.1//EN"
 "http://www.w3.org/Graphics/SVG/1.1/DTD/svg11.dtd">
<!-- Generated by graphviz version 2.36.0 (20140111.2315)
 -->
<!-- Title: controllers_diagram Pages: 1 -->
<svg width="1032pt" height="1001pt"
 viewBox="0.00 0.00 1032.00 1001.00" xmlns="http://www.w3.org/2000/svg" xmlns:xlink="http://www.w3.org/1999/xlink">
<g id="graph0" class="graph" transform="scale(1 1) rotate(0) translate(4 997)">
<title>controllers_diagram</title>
<polygon fill="none" stroke="none" points="-4,4 -4,-997 1028,-997 1028,4 -4,4"/>
<!-- _diagram_info -->
<g id="node1" class="node"><title>_diagram_info</title>
<text text-anchor="start" x="708" y="-63.6" font-family="Times,serif" font-size="13.00">Controllers diagram</text>
<text text-anchor="start" x="708" y="-49.6" font-family="Times,serif" font-size="13.00">Date: Oct 15 2017 &#45; 01:27</text>
<text text-anchor="start" x="708" y="-35.6" font-family="Times,serif" font-size="13.00">Migration version: 20171014135942</text>
<text text-anchor="start" x="708" y="-21.6" font-family="Times,serif" font-size="13.00">Generated by RailRoady 1.5.2</text>
<text text-anchor="start" x="708" y="-7.6" font-family="Times,serif" font-size="13.00">http://railroady.prestonlee.com</text>
</g>
<!-- ApplicationController -->
<g id="node2" class="node"><title>ApplicationController</title>
<path fill="none" stroke="black" d="M152,-100.5C152,-100.5 322,-100.5 322,-100.5 328,-100.5 334,-106.5 334,-112.5 334,-112.5 334,-196.5 334,-196.5 334,-202.5 328,-208.5 322,-208.5 322,-208.5 152,-208.5 152,-208.5 146,-208.5 140,-202.5 140,-196.5 140,-196.5 140,-112.5 140,-112.5 140,-106.5 146,-100.5 152,-100.5"/>
<text text-anchor="middle" x="237" y="-193.3" font-family="Times,serif" font-size="14.00">ApplicationController</text>
<polyline fill="none" stroke="black" points="140,-185.5 334,-185.5 "/>
<polyline fill="none" stroke="black" points="140,-161.5 334,-161.5 "/>
<text text-anchor="start" x="148" y="-146.3" font-family="Times,serif" font-size="14.00">configure_permitted_parameters</text>
<text text-anchor="start" x="148" y="-131.3" font-family="Times,serif" font-size="14.00">set_locale</text>
<polyline fill="none" stroke="black" points="140,-123.5 334,-123.5 "/>
<text text-anchor="start" x="148" y="-108.3" font-family="Times,serif" font-size="14.00">_layout</text>
</g>
<!-- BingoBoardsController -->
<g id="node3" class="node"><title>BingoBoardsController</title>
<path fill="none" stroke="black" d="M552,-680.5C552,-680.5 671,-680.5 671,-680.5 677,-680.5 683,-686.5 683,-692.5 683,-692.5 683,-836.5 683,-836.5 683,-842.5 677,-848.5 671,-848.5 671,-848.5 552,-848.5 552,-848.5 546,-848.5 540,-842.5 540,-836.5 540,-836.5 540,-692.5 540,-692.5 540,-686.5 546,-680.5 552,-680.5"/>
<text text-anchor="middle" x="611.5" y="-833.3" font-family="Times,serif" font-size="14.00">BingoBoardsController</text>
<polyline fill="none" stroke="black" points="540,-825.5 683,-825.5 "/>
<text text-anchor="start" x="548" y="-810.3" font-family="Times,serif" font-size="14.00">edit</text>
<text text-anchor="start" x="548" y="-795.3" font-family="Times,serif" font-size="14.00">index</text>
<text text-anchor="start" x="548" y="-780.3" font-family="Times,serif" font-size="14.00">show</text>
<text text-anchor="start" x="548" y="-765.3" font-family="Times,serif" font-size="14.00">update</text>
<polyline fill="none" stroke="black" points="540,-757.5 683,-757.5 "/>
<polyline fill="none" stroke="black" points="540,-733.5 683,-733.5 "/>
<text text-anchor="start" x="548" y="-718.3" font-family="Times,serif" font-size="14.00">_layout</text>
<text text-anchor="start" x="548" y="-703.3" font-family="Times,serif" font-size="14.00">bingo_board_params</text>
<text text-anchor="start" x="548" y="-688.3" font-family="Times,serif" font-size="14.00">set_bingo_board</text>
</g>
<!-- BingoGamesController -->
<g id="node4" class="node"><title>BingoGamesController</title>
<path fill="none" stroke="black" d="M352,-600.5C352,-600.5 488,-600.5 488,-600.5 494,-600.5 500,-606.5 500,-612.5 500,-612.5 500,-876.5 500,-876.5 500,-882.5 494,-888.5 488,-888.5 488,-888.5 352,-888.5 352,-888.5 346,-888.5 340,-882.5 340,-876.5 340,-876.5 340,-612.5 340,-612.5 340,-606.5 346,-600.5 352,-600.5"/>
<text text-anchor="middle" x="420" y="-873.3" font-family="Times,serif" font-size="14.00">BingoGamesController</text>
<polyline fill="none" stroke="black" points="340,-865.5 500,-865.5 "/>
<text text-anchor="start" x="348" y="-850.3" font-family="Times,serif" font-size="14.00">activate</text>
<text text-anchor="start" x="348" y="-835.3" font-family="Times,serif" font-size="14.00">create</text>
<text text-anchor="start" x="348" y="-820.3" font-family="Times,serif" font-size="14.00">destroy</text>
<text text-anchor="start" x="348" y="-805.3" font-family="Times,serif" font-size="14.00">edit</text>
<text text-anchor="start" x="348" y="-790.3" font-family="Times,serif" font-size="14.00">index</text>
<text text-anchor="start" x="348" y="-775.3" font-family="Times,serif" font-size="14.00">new</text>
<text text-anchor="start" x="348" y="-760.3" font-family="Times,serif" font-size="14.00">review_candidates</text>
<text text-anchor="start" x="348" y="-745.3" font-family="Times,serif" font-size="14.00">show</text>
<text text-anchor="start" x="348" y="-730.3" font-family="Times,serif" font-size="14.00">update</text>
<text text-anchor="start" x="348" y="-715.3" font-family="Times,serif" font-size="14.00">update_review_candidates</text>
<polyline fill="none" stroke="black" points="340,-707.5 500,-707.5 "/>
<polyline fill="none" stroke="black" points="340,-683.5 500,-683.5 "/>
<text text-anchor="start" x="348" y="-668.3" font-family="Times,serif" font-size="14.00">_layout</text>
<text text-anchor="start" x="348" y="-653.3" font-family="Times,serif" font-size="14.00">bingo_game_params</text>
<text text-anchor="start" x="348" y="-638.3" font-family="Times,serif" font-size="14.00">check_editor</text>
<text text-anchor="start" x="348" y="-623.3" font-family="Times,serif" font-size="14.00">check_viewer</text>
<text text-anchor="start" x="348" y="-608.3" font-family="Times,serif" font-size="14.00">set_bingo_game</text>
</g>
<!-- CandidateListsController -->
<g id="node5" class="node"><title>CandidateListsController</title>
<path fill="none" stroke="black" d="M732,-120.5C732,-120.5 881,-120.5 881,-120.5 887,-120.5 893,-126.5 893,-132.5 893,-132.5 893,-335.5 893,-335.5 893,-341.5 887,-347.5 881,-347.5 881,-347.5 732,-347.5 732,-347.5 726,-347.5 720,-341.5 720,-335.5 720,-335.5 720,-132.5 720,-132.5 720,-126.5 726,-120.5 732,-120.5"/>
<text text-anchor="middle" x="806.5" y="-332.3" font-family="Times,serif" font-size="14.00">CandidateListsController</text>
<polyline fill="none" stroke="black" points="720,-324.5 893,-324.5 "/>
<text text-anchor="start" x="728" y="-309.3" font-family="Times,serif" font-size="14.00">create</text>
<text text-anchor="start" x="728" y="-294.3" font-family="Times,serif" font-size="14.00">demo_complete</text>
<text text-anchor="start" x="728" y="-279.3" font-family="Times,serif" font-size="14.00">edit</text>
<text text-anchor="start" x="728" y="-264.3" font-family="Times,serif" font-size="14.00">list_stats</text>
<text text-anchor="start" x="728" y="-249.3" font-family="Times,serif" font-size="14.00">request_collaboration</text>
<text text-anchor="start" x="728" y="-234.3" font-family="Times,serif" font-size="14.00">show</text>
<text text-anchor="start" x="728" y="-219.3" font-family="Times,serif" font-size="14.00">update</text>
<polyline fill="none" stroke="black" points="720,-211.5 893,-211.5 "/>
<text text-anchor="start" x="728" y="-196.3" font-family="Times,serif" font-size="14.00">merge_to_group_list</text>
<polyline fill="none" stroke="black" points="720,-188.5 893,-188.5 "/>
<text text-anchor="start" x="728" y="-173.3" font-family="Times,serif" font-size="14.00">_layout</text>
<text text-anchor="start" x="728" y="-158.3" font-family="Times,serif" font-size="14.00">candidate_list_params</text>
<text text-anchor="start" x="728" y="-143.3" font-family="Times,serif" font-size="14.00">merge_individuals_to_group</text>
<text text-anchor="start" x="728" y="-128.3" font-family="Times,serif" font-size="14.00">set_candidate_list</text>
</g>
<!-- ConsentFormsController -->
<g id="node6" class="node"><title>ConsentFormsController</title>
<path fill="none" stroke="black" d="M732,-380.5C732,-380.5 860,-380.5 860,-380.5 866,-380.5 872,-386.5 872,-392.5 872,-392.5 872,-581.5 872,-581.5 872,-587.5 866,-593.5 860,-593.5 860,-593.5 732,-593.5 732,-593.5 726,-593.5 720,-587.5 720,-581.5 720,-581.5 720,-392.5 720,-392.5 720,-386.5 726,-380.5 732,-380.5"/>
<text text-anchor="middle" x="796" y="-578.3" font-family="Times,serif" font-size="14.00">ConsentFormsController</text>
<polyline fill="none" stroke="black" points="720,-570.5 872,-570.5 "/>
<text text-anchor="start" x="728" y="-555.3" font-family="Times,serif" font-size="14.00">create</text>
<text text-anchor="start" x="728" y="-540.3" font-family="Times,serif" font-size="14.00">destroy</text>
<text text-anchor="start" x="728" y="-525.3" font-family="Times,serif" font-size="14.00">edit</text>
<text text-anchor="start" x="728" y="-510.3" font-family="Times,serif" font-size="14.00">index</text>
<text text-anchor="start" x="728" y="-495.3" font-family="Times,serif" font-size="14.00">new</text>
<text text-anchor="start" x="728" y="-480.3" font-family="Times,serif" font-size="14.00">show</text>
<text text-anchor="start" x="728" y="-465.3" font-family="Times,serif" font-size="14.00">update</text>
<polyline fill="none" stroke="black" points="720,-457.5 872,-457.5 "/>
<polyline fill="none" stroke="black" points="720,-433.5 872,-433.5 "/>
<text text-anchor="start" x="728" y="-418.3" font-family="Times,serif" font-size="14.00">_layout</text>
<text text-anchor="start" x="728" y="-403.3" font-family="Times,serif" font-size="14.00">consent_form_params</text>
<text text-anchor="start" x="728" y="-388.3" font-family="Times,serif" font-size="14.00">set_consent_form</text>
</g>
<!-- ConsentLogsController -->
<g id="node7" class="node"><title>ConsentLogsController</title>
<path fill="none" stroke="black" d="M52,-240.5C52,-240.5 171,-240.5 171,-240.5 177,-240.5 183,-246.5 183,-252.5 183,-252.5 183,-351.5 183,-351.5 183,-357.5 177,-363.5 171,-363.5 171,-363.5 52,-363.5 52,-363.5 46,-363.5 40,-357.5 40,-351.5 40,-351.5 40,-252.5 40,-252.5 40,-246.5 46,-240.5 52,-240.5"/>
<text text-anchor="middle" x="111.5" y="-348.3" font-family="Times,serif" font-size="14.00">ConsentLogsController</text>
<polyline fill="none" stroke="black" points="40,-340.5 183,-340.5 "/>
<text text-anchor="start" x="48" y="-325.3" font-family="Times,serif" font-size="14.00">edit</text>
<text text-anchor="start" x="48" y="-310.3" font-family="Times,serif" font-size="14.00">update</text>
<polyline fill="none" stroke="black" points="40,-302.5 183,-302.5 "/>
<polyline fill="none" stroke="black" points="40,-278.5 183,-278.5 "/>
<text text-anchor="start" x="48" y="-263.3" font-family="Times,serif" font-size="14.00">_layout</text>
<text text-anchor="start" x="48" y="-248.3" font-family="Times,serif" font-size="14.00">cl_params</text>
</g>
<!-- CoursesController -->
<g id="node8" class="node"><title>CoursesController</title>
<path fill="none" stroke="black" d="M392,-220.5C392,-220.5 484,-220.5 484,-220.5 490,-220.5 496,-226.5 496,-232.5 496,-232.5 496,-556.5 496,-556.5 496,-562.5 490,-568.5 484,-568.5 484,-568.5 392,-568.5 392,-568.5 386,-568.5 380,-562.5 380,-556.5 380,-556.5 380,-232.5 380,-232.5 380,-226.5 386,-220.5 392,-220.5"/>
<text text-anchor="middle" x="438" y="-553.3" font-family="Times,serif" font-size="14.00">CoursesController</text>
<polyline fill="none" stroke="black" points="380,-545.5 496,-545.5 "/>
<text text-anchor="start" x="388" y="-530.3" font-family="Times,serif" font-size="14.00">accept_roster</text>
<text text-anchor="start" x="388" y="-515.3" font-family="Times,serif" font-size="14.00">add_instructors</text>
<text text-anchor="start" x="388" y="-500.3" font-family="Times,serif" font-size="14.00">add_students</text>
<text text-anchor="start" x="388" y="-485.3" font-family="Times,serif" font-size="14.00">create</text>
<text text-anchor="start" x="388" y="-470.3" font-family="Times,serif" font-size="14.00">decline_roster</text>
<text text-anchor="start" x="388" y="-455.3" font-family="Times,serif" font-size="14.00">destroy</text>
<text text-anchor="start" x="388" y="-440.3" font-family="Times,serif" font-size="14.00">drop_student</text>
<text text-anchor="start" x="388" y="-425.3" font-family="Times,serif" font-size="14.00">edit</text>
<text text-anchor="start" x="388" y="-410.3" font-family="Times,serif" font-size="14.00">index</text>
<text text-anchor="start" x="388" y="-395.3" font-family="Times,serif" font-size="14.00">new</text>
<text text-anchor="start" x="388" y="-380.3" font-family="Times,serif" font-size="14.00">re_invite_student</text>
<text text-anchor="start" x="388" y="-365.3" font-family="Times,serif" font-size="14.00">remove_instructor</text>
<text text-anchor="start" x="388" y="-350.3" font-family="Times,serif" font-size="14.00">show</text>
<text text-anchor="start" x="388" y="-335.3" font-family="Times,serif" font-size="14.00">update</text>
<polyline fill="none" stroke="black" points="380,-327.5 496,-327.5 "/>
<polyline fill="none" stroke="black" points="380,-303.5 496,-303.5 "/>
<text text-anchor="start" x="388" y="-288.3" font-family="Times,serif" font-size="14.00">_layout</text>
<text text-anchor="start" x="388" y="-273.3" font-family="Times,serif" font-size="14.00">check_editor</text>
<text text-anchor="start" x="388" y="-258.3" font-family="Times,serif" font-size="14.00">check_viewer</text>
<text text-anchor="start" x="388" y="-243.3" font-family="Times,serif" font-size="14.00">course_params</text>
<text text-anchor="start" x="388" y="-228.3" font-family="Times,serif" font-size="14.00">set_course</text>
</g>
<!-- ExperiencesController -->
<g id="node9" class="node"><title>ExperiencesController</title>
<path fill="none" stroke="black" d="M552,-300.5C552,-300.5 666,-300.5 666,-300.5 672,-300.5 678,-306.5 678,-312.5 678,-312.5 678,-621.5 678,-621.5 678,-627.5 672,-633.5 666,-633.5 666,-633.5 552,-633.5 552,-633.5 546,-633.5 540,-627.5 540,-621.5 540,-621.5 540,-312.5 540,-312.5 540,-306.5 546,-300.5 552,-300.5"/>
<text text-anchor="middle" x="609" y="-618.3" font-family="Times,serif" font-size="14.00">ExperiencesController</text>
<polyline fill="none" stroke="black" points="540,-610.5 678,-610.5 "/>
<text text-anchor="start" x="548" y="-595.3" font-family="Times,serif" font-size="14.00">activate</text>
<text text-anchor="start" x="548" y="-580.3" font-family="Times,serif" font-size="14.00">create</text>
<text text-anchor="start" x="548" y="-565.3" font-family="Times,serif" font-size="14.00">destroy</text>
<text text-anchor="start" x="548" y="-550.3" font-family="Times,serif" font-size="14.00">diagnose</text>
<text text-anchor="start" x="548" y="-535.3" font-family="Times,serif" font-size="14.00">edit</text>
<text text-anchor="start" x="548" y="-520.3" font-family="Times,serif" font-size="14.00">index</text>
<text text-anchor="start" x="548" y="-505.3" font-family="Times,serif" font-size="14.00">new</text>
<text text-anchor="start" x="548" y="-490.3" font-family="Times,serif" font-size="14.00">next</text>
<text text-anchor="start" x="548" y="-475.3" font-family="Times,serif" font-size="14.00">react</text>
<text text-anchor="start" x="548" y="-460.3" font-family="Times,serif" font-size="14.00">show</text>
<text text-anchor="start" x="548" y="-445.3" font-family="Times,serif" font-size="14.00">update</text>
<polyline fill="none" stroke="black" points="540,-437.5 678,-437.5 "/>
<polyline fill="none" stroke="black" points="540,-413.5 678,-413.5 "/>
<text text-anchor="start" x="548" y="-398.3" font-family="Times,serif" font-size="14.00">_layout</text>
<text text-anchor="start" x="548" y="-383.3" font-family="Times,serif" font-size="14.00">check_editor</text>
<text text-anchor="start" x="548" y="-368.3" font-family="Times,serif" font-size="14.00">check_viewer</text>
<text text-anchor="start" x="548" y="-353.3" font-family="Times,serif" font-size="14.00">diagnosis_params</text>
<text text-anchor="start" x="548" y="-338.3" font-family="Times,serif" font-size="14.00">experience_params</text>
<text text-anchor="start" x="548" y="-323.3" font-family="Times,serif" font-size="14.00">reaction_params</text>
<text text-anchor="start" x="548" y="-308.3" font-family="Times,serif" font-size="14.00">set_experience</text>
</g>
<!-- GraphingController -->
<g id="node10" class="node"><title>GraphingController</title>
<path fill="none" stroke="black" d="M732,-640.5C732,-640.5 883,-640.5 883,-640.5 889,-640.5 895,-646.5 895,-652.5 895,-652.5 895,-796.5 895,-796.5 895,-802.5 889,-808.5 883,-808.5 883,-808.5 732,-808.5 732,-808.5 726,-808.5 720,-802.5 720,-796.5 720,-796.5 720,-652.5 720,-652.5 720,-646.5 726,-640.5 732,-640.5"/>
<text text-anchor="middle" x="807.5" y="-793.3" font-family="Times,serif" font-size="14.00">GraphingController</text>
<polyline fill="none" stroke="black" points="720,-785.5 895,-785.5 "/>
<text text-anchor="start" x="728" y="-770.3" font-family="Times,serif" font-size="14.00">data</text>
<text text-anchor="start" x="728" y="-755.3" font-family="Times,serif" font-size="14.00">index</text>
<text text-anchor="start" x="728" y="-740.3" font-family="Times,serif" font-size="14.00">individual_summary_data</text>
<text text-anchor="start" x="728" y="-725.3" font-family="Times,serif" font-size="14.00">pull_and_organise_user_data</text>
<text text-anchor="start" x="728" y="-710.3" font-family="Times,serif" font-size="14.00">raw_data</text>
<text text-anchor="start" x="728" y="-695.3" font-family="Times,serif" font-size="14.00">subjects</text>
<polyline fill="none" stroke="black" points="720,-687.5 895,-687.5 "/>
<polyline fill="none" stroke="black" points="720,-663.5 895,-663.5 "/>
<text text-anchor="start" x="728" y="-648.3" font-family="Times,serif" font-size="14.00">_layout</text>
</g>
<!-- HomeController -->
<g id="node11" class="node"><title>HomeController</title>
<path fill="none" stroke="black" d="M12,-840.5C12,-840.5 125,-840.5 125,-840.5 131,-840.5 137,-846.5 137,-852.5 137,-852.5 137,-966.5 137,-966.5 137,-972.5 131,-978.5 125,-978.5 125,-978.5 12,-978.5 12,-978.5 6,-978.5 -5.68434e-14,-972.5 -5.68434e-14,-966.5 -5.68434e-14,-966.5 -5.68434e-14,-852.5 -5.68434e-14,-852.5 -5.68434e-14,-846.5 6,-840.5 12,-840.5"/>
<text text-anchor="middle" x="68.5" y="-963.3" font-family="Times,serif" font-size="14.00">HomeController</text>
<polyline fill="none" stroke="black" points="-5.68434e-14,-955.5 137,-955.5 "/>
<text text-anchor="start" x="8" y="-940.3" font-family="Times,serif" font-size="14.00">check_diversity_score</text>
<text text-anchor="start" x="8" y="-925.3" font-family="Times,serif" font-size="14.00">demo_start</text>
<text text-anchor="start" x="8" y="-910.3" font-family="Times,serif" font-size="14.00">index</text>
<text text-anchor="start" x="8" y="-895.3" font-family="Times,serif" font-size="14.00">states_for_country</text>
<polyline fill="none" stroke="black" points="-5.68434e-14,-887.5 137,-887.5 "/>
<polyline fill="none" stroke="black" points="-5.68434e-14,-863.5 137,-863.5 "/>
<text text-anchor="start" x="8" y="-848.3" font-family="Times,serif" font-size="14.00">_layout</text>
</g>
<!-- InstallmentsController -->
<g id="node12" class="node"><title>InstallmentsController</title>
<path fill="none" stroke="black" d="M52,-400.5C52,-400.5 167,-400.5 167,-400.5 173,-400.5 179,-406.5 179,-412.5 179,-412.5 179,-556.5 179,-556.5 179,-562.5 173,-568.5 167,-568.5 167,-568.5 52,-568.5 52,-568.5 46,-568.5 40,-562.5 40,-556.5 40,-556.5 40,-412.5 40,-412.5 40,-406.5 46,-400.5 52,-400.5"/>
<text text-anchor="middle" x="109.5" y="-553.3" font-family="Times,serif" font-size="14.00">InstallmentsController</text>
<polyline fill="none" stroke="black" points="40,-545.5 179,-545.5 "/>
<text text-anchor="start" x="48" y="-530.3" font-family="Times,serif" font-size="14.00">create</text>
<text text-anchor="start" x="48" y="-515.3" font-family="Times,serif" font-size="14.00">demo_complete</text>
<text text-anchor="start" x="48" y="-500.3" font-family="Times,serif" font-size="14.00">edit</text>
<text text-anchor="start" x="48" y="-485.3" font-family="Times,serif" font-size="14.00">new</text>
<text text-anchor="start" x="48" y="-470.3" font-family="Times,serif" font-size="14.00">update</text>
<polyline fill="none" stroke="black" points="40,-462.5 179,-462.5 "/>
<polyline fill="none" stroke="black" points="40,-438.5 179,-438.5 "/>
<text text-anchor="start" x="48" y="-423.3" font-family="Times,serif" font-size="14.00">_layout</text>
<text text-anchor="start" x="48" y="-408.3" font-family="Times,serif" font-size="14.00">i_params</text>
</g>
<!-- ProjectsController -->
<g id="node13" class="node"><title>ProjectsController</title>
<path fill="none" stroke="black" d="M232,-240.5C232,-240.5 324,-240.5 324,-240.5 330,-240.5 336,-246.5 336,-252.5 336,-252.5 336,-546.5 336,-546.5 336,-552.5 330,-558.5 324,-558.5 324,-558.5 232,-558.5 232,-558.5 226,-558.5 220,-552.5 220,-546.5 220,-546.5 220,-252.5 220,-252.5 220,-246.5 226,-240.5 232,-240.5"/>
<text text-anchor="middle" x="278" y="-543.3" font-family="Times,serif" font-size="14.00">ProjectsController</text>
<polyline fill="none" stroke="black" points="220,-535.5 336,-535.5 "/>
<text text-anchor="start" x="228" y="-520.3" font-family="Times,serif" font-size="14.00">activate</text>
<text text-anchor="start" x="228" y="-505.3" font-family="Times,serif" font-size="14.00">add_group</text>
<text text-anchor="start" x="228" y="-490.3" font-family="Times,serif" font-size="14.00">create</text>
<text text-anchor="start" x="228" y="-475.3" font-family="Times,serif" font-size="14.00">destroy</text>
<text text-anchor="start" x="228" y="-460.3" font-family="Times,serif" font-size="14.00">edit</text>
<text text-anchor="start" x="228" y="-445.3" font-family="Times,serif" font-size="14.00">index</text>
<text text-anchor="start" x="228" y="-430.3" font-family="Times,serif" font-size="14.00">new</text>
<text text-anchor="start" x="228" y="-415.3" font-family="Times,serif" font-size="14.00">remove_group</text>
<text text-anchor="start" x="228" y="-400.3" font-family="Times,serif" font-size="14.00">rescore_group</text>
<text text-anchor="start" x="228" y="-385.3" font-family="Times,serif" font-size="14.00">rescore_groups</text>
<text text-anchor="start" x="228" y="-370.3" font-family="Times,serif" font-size="14.00">show</text>
<text text-anchor="start" x="228" y="-355.3" font-family="Times,serif" font-size="14.00">update</text>
<polyline fill="none" stroke="black" points="220,-347.5 336,-347.5 "/>
<polyline fill="none" stroke="black" points="220,-323.5 336,-323.5 "/>
<text text-anchor="start" x="228" y="-308.3" font-family="Times,serif" font-size="14.00">_layout</text>
<text text-anchor="start" x="228" y="-293.3" font-family="Times,serif" font-size="14.00">check_editor</text>
<text text-anchor="start" x="228" y="-278.3" font-family="Times,serif" font-size="14.00">check_viewer</text>
<text text-anchor="start" x="228" y="-263.3" font-family="Times,serif" font-size="14.00">project_params</text>
<text text-anchor="start" x="228" y="-248.3" font-family="Times,serif" font-size="14.00">set_project</text>
</g>
<!-- RegistrationsController -->
<g id="node14" class="node"><title>RegistrationsController</title>
<path fill="none" stroke="black" d="M892,-840.5C892,-840.5 1012,-840.5 1012,-840.5 1018,-840.5 1024,-846.5 1024,-852.5 1024,-852.5 1024,-980.5 1024,-980.5 1024,-986.5 1018,-992.5 1012,-992.5 1012,-992.5 892,-992.5 892,-992.5 886,-992.5 880,-986.5 880,-980.5 880,-980.5 880,-852.5 880,-852.5 880,-846.5 886,-840.5 892,-840.5"/>
<text text-anchor="middle" x="952" y="-977.3" font-family="Times,serif" font-size="14.00">RegistrationsController</text>
<polyline fill="none" stroke="black" points="880,-969.5 1024,-969.5 "/>
<text text-anchor="start" x="888" y="-954.3" font-family="Times,serif" font-size="14.00">add_email</text>
<text text-anchor="start" x="888" y="-939.3" font-family="Times,serif" font-size="14.00">initiate_password_reset</text>
<text text-anchor="start" x="888" y="-924.3" font-family="Times,serif" font-size="14.00">remove_email</text>
<text text-anchor="start" x="888" y="-909.3" font-family="Times,serif" font-size="14.00">set_primary_email</text>
<polyline fill="none" stroke="black" points="880,-901.5 1024,-901.5 "/>
<text text-anchor="start" x="888" y="-886.3" font-family="Times,serif" font-size="14.00">update_resource</text>
<polyline fill="none" stroke="black" points="880,-878.5 1024,-878.5 "/>
<text text-anchor="start" x="888" y="-863.3" font-family="Times,serif" font-size="14.00">_layout</text>
<text text-anchor="start" x="888" y="-848.3" font-family="Times,serif" font-size="14.00">set_email</text>
</g>
<!-- SchoolsController -->
<g id="node15" class="node"><title>SchoolsController</title>
<path fill="none" stroke="black" d="M192,-660.5C192,-660.5 283,-660.5 283,-660.5 289,-660.5 295,-666.5 295,-672.5 295,-672.5 295,-876.5 295,-876.5 295,-882.5 289,-888.5 283,-888.5 283,-888.5 192,-888.5 192,-888.5 186,-888.5 180,-882.5 180,-876.5 180,-876.5 180,-672.5 180,-672.5 180,-666.5 186,-660.5 192,-660.5"/>
<text text-anchor="middle" x="237.5" y="-873.3" font-family="Times,serif" font-size="14.00">SchoolsController</text>
<polyline fill="none" stroke="black" points="180,-865.5 295,-865.5 "/>
<text text-anchor="start" x="188" y="-850.3" font-family="Times,serif" font-size="14.00">create</text>
<text text-anchor="start" x="188" y="-835.3" font-family="Times,serif" font-size="14.00">destroy</text>
<text text-anchor="start" x="188" y="-820.3" font-family="Times,serif" font-size="14.00">edit</text>
<text text-anchor="start" x="188" y="-805.3" font-family="Times,serif" font-size="14.00">index</text>
<text text-anchor="start" x="188" y="-790.3" font-family="Times,serif" font-size="14.00">new</text>
<text text-anchor="start" x="188" y="-775.3" font-family="Times,serif" font-size="14.00">show</text>
<text text-anchor="start" x="188" y="-760.3" font-family="Times,serif" font-size="14.00">update</text>
<polyline fill="none" stroke="black" points="180,-752.5 295,-752.5 "/>
<polyline fill="none" stroke="black" points="180,-728.5 295,-728.5 "/>
<text text-anchor="start" x="188" y="-713.3" font-family="Times,serif" font-size="14.00">_layout</text>
<text text-anchor="start" x="188" y="-698.3" font-family="Times,serif" font-size="14.00">check_admin</text>
<text text-anchor="start" x="188" y="-683.3" font-family="Times,serif" font-size="14.00">school_params</text>
<text text-anchor="start" x="188" y="-668.3" font-family="Times,serif" font-size="14.00">set_school</text>
</g>
<!-- Users::OmniauthCallbacksController -->
<g id="node16" class="node"><title>Users::OmniauthCallbacksController</title>
<path fill="none" stroke="black" d="M452,-80.5C452,-80.5 646,-80.5 646,-80.5 652,-80.5 658,-86.5 658,-92.5 658,-92.5 658,-176.5 658,-176.5 658,-182.5 652,-188.5 646,-188.5 646,-188.5 452,-188.5 452,-188.5 446,-188.5 440,-182.5 440,-176.5 440,-176.5 440,-92.5 440,-92.5 440,-86.5 446,-80.5 452,-80.5"/>
<text text-anchor="middle" x="549" y="-173.3" font-family="Times,serif" font-size="14.00">Users::OmniauthCallbacksController</text>
<polyline fill="none" stroke="black" points="440,-165.5 658,-165.5 "/>
<text text-anchor="start" x="448" y="-150.3" font-family="Times,serif" font-size="14.00">failure</text>
<text text-anchor="start" x="448" y="-135.3" font-family="Times,serif" font-size="14.00">google_oauth2</text>
<polyline fill="none" stroke="black" points="440,-127.5 658,-127.5 "/>
<polyline fill="none" stroke="black" points="440,-103.5 658,-103.5 "/>
<text text-anchor="start" x="448" y="-88.3" font-family="Times,serif" font-size="14.00">_layout</text>
</g>
</g>
</svg>
