<?xml version="1.0" encoding="UTF-8" standalone="no"?>
<!DOCTYPE svg PUBLIC "-//W3C//DTD SVG 1.1//EN"
 "http://www.w3.org/Graphics/SVG/1.1/DTD/svg11.dtd">
<!-- Generated by graphviz version 2.38.0 (20140413.2041)
 -->
<!-- Title: controllers_diagram Pages: 1 -->
<svg width="1032pt" height="988pt"
 viewBox="0.00 0.00 1031.50 987.50" xmlns="http://www.w3.org/2000/svg" xmlns:xlink="http://www.w3.org/1999/xlink">
<g id="graph0" class="graph" transform="scale(1 1) rotate(0) translate(443.5 583.5)">
<title>controllers_diagram</title>
<polygon fill="none" stroke="none" points="-443.5,404 -443.5,-583.5 588,-583.5 588,404 -443.5,404"/>
<!-- _diagram_info -->
<g id="node1" class="node"><title>_diagram_info</title>
<text text-anchor="start" x="268" y="336.4" font-family="Times,serif" font-size="13.00">Controllers diagram</text>
<text text-anchor="start" x="268" y="350.4" font-family="Times,serif" font-size="13.00">Date: Jan 15 2018 &#45; 19:18</text>
<text text-anchor="start" x="268" y="364.4" font-family="Times,serif" font-size="13.00">Migration version: 20171225131145</text>
<text text-anchor="start" x="268" y="378.4" font-family="Times,serif" font-size="13.00">Generated by RailRoady 1.5.3</text>
<text text-anchor="start" x="268" y="392.4" font-family="Times,serif" font-size="13.00">http://railroady.prestonlee.com</text>
</g>
<!-- ApplicationController -->
<g id="node2" class="node"><title>ApplicationController</title>
<path fill="none" stroke="black" d="M-288,279C-288,279 -118,279 -118,279 -112,279 -106,273 -106,267 -106,267 -106,183 -106,183 -106,177 -112,171 -118,171 -118,171 -288,171 -288,171 -294,171 -300,177 -300,183 -300,183 -300,267 -300,267 -300,273 -294,279 -288,279"/>
<text text-anchor="middle" x="-203" y="186.2" font-family="Times,serif" font-size="14.00">ApplicationController</text>
<polyline fill="none" stroke="black" points="-300,194 -106,194 "/>
<polyline fill="none" stroke="black" points="-300,218 -106,218 "/>
<text text-anchor="start" x="-292" y="233.2" font-family="Times,serif" font-size="14.00">configure_permitted_parameters</text>
<text text-anchor="start" x="-292" y="248.2" font-family="Times,serif" font-size="14.00">set_locale</text>
<polyline fill="none" stroke="black" points="-300,256 -106,256 "/>
<text text-anchor="start" x="-292" y="271.2" font-family="Times,serif" font-size="14.00">_layout</text>
</g>
<!-- BingoBoardsController -->
<g id="node3" class="node"><title>BingoBoardsController</title>
<path fill="none" stroke="black" d="M112.5,-281C112.5,-281 231.5,-281 231.5,-281 237.5,-281 243.5,-287 243.5,-293 243.5,-293 243.5,-467 243.5,-467 243.5,-473 237.5,-479 231.5,-479 231.5,-479 112.5,-479 112.5,-479 106.5,-479 100.5,-473 100.5,-467 100.5,-467 100.5,-293 100.5,-293 100.5,-287 106.5,-281 112.5,-281"/>
<text text-anchor="middle" x="172" y="-463.8" font-family="Times,serif" font-size="14.00">BingoBoardsController</text>
<polyline fill="none" stroke="black" points="100.5,-456 243.5,-456 "/>
<text text-anchor="start" x="108.5" y="-440.8" font-family="Times,serif" font-size="14.00">edit</text>
<text text-anchor="start" x="108.5" y="-425.8" font-family="Times,serif" font-size="14.00">index</text>
<text text-anchor="start" x="108.5" y="-410.8" font-family="Times,serif" font-size="14.00">play_board</text>
<text text-anchor="start" x="108.5" y="-395.8" font-family="Times,serif" font-size="14.00">show</text>
<text text-anchor="start" x="108.5" y="-380.8" font-family="Times,serif" font-size="14.00">update</text>
<text text-anchor="start" x="108.5" y="-365.8" font-family="Times,serif" font-size="14.00">verify_win</text>
<polyline fill="none" stroke="black" points="100.5,-358 243.5,-358 "/>
<polyline fill="none" stroke="black" points="100.5,-334 243.5,-334 "/>
<text text-anchor="start" x="108.5" y="-318.8" font-family="Times,serif" font-size="14.00">_layout</text>
<text text-anchor="start" x="108.5" y="-303.8" font-family="Times,serif" font-size="14.00">bingo_board_params</text>
<text text-anchor="start" x="108.5" y="-288.8" font-family="Times,serif" font-size="14.00">set_bingo_board</text>
</g>
<!-- BingoGamesController -->
<g id="node4" class="node"><title>BingoGamesController</title>
<path fill="none" stroke="black" d="M-88,-221C-88,-221 48,-221 48,-221 54,-221 60,-227 60,-233 60,-233 60,-497 60,-497 60,-503 54,-509 48,-509 48,-509 -88,-509 -88,-509 -94,-509 -100,-503 -100,-497 -100,-497 -100,-233 -100,-233 -100,-227 -94,-221 -88,-221"/>
<text text-anchor="middle" x="-20" y="-493.8" font-family="Times,serif" font-size="14.00">BingoGamesController</text>
<polyline fill="none" stroke="black" points="-100,-486 60,-486 "/>
<text text-anchor="start" x="-92" y="-470.8" font-family="Times,serif" font-size="14.00">activate</text>
<text text-anchor="start" x="-92" y="-455.8" font-family="Times,serif" font-size="14.00">create</text>
<text text-anchor="start" x="-92" y="-440.8" font-family="Times,serif" font-size="14.00">destroy</text>
<text text-anchor="start" x="-92" y="-425.8" font-family="Times,serif" font-size="14.00">edit</text>
<text text-anchor="start" x="-92" y="-410.8" font-family="Times,serif" font-size="14.00">index</text>
<text text-anchor="start" x="-92" y="-395.8" font-family="Times,serif" font-size="14.00">new</text>
<text text-anchor="start" x="-92" y="-380.8" font-family="Times,serif" font-size="14.00">review_candidates</text>
<text text-anchor="start" x="-92" y="-365.8" font-family="Times,serif" font-size="14.00">show</text>
<text text-anchor="start" x="-92" y="-350.8" font-family="Times,serif" font-size="14.00">update</text>
<text text-anchor="start" x="-92" y="-335.8" font-family="Times,serif" font-size="14.00">update_review_candidates</text>
<polyline fill="none" stroke="black" points="-100,-328 60,-328 "/>
<polyline fill="none" stroke="black" points="-100,-304 60,-304 "/>
<text text-anchor="start" x="-92" y="-288.8" font-family="Times,serif" font-size="14.00">_layout</text>
<text text-anchor="start" x="-92" y="-273.8" font-family="Times,serif" font-size="14.00">bingo_game_params</text>
<text text-anchor="start" x="-92" y="-258.8" font-family="Times,serif" font-size="14.00">check_editor</text>
<text text-anchor="start" x="-92" y="-243.8" font-family="Times,serif" font-size="14.00">check_viewer</text>
<text text-anchor="start" x="-92" y="-228.8" font-family="Times,serif" font-size="14.00">set_bingo_game</text>
</g>
<!-- CandidateListsController -->
<g id="node5" class="node"><title>CandidateListsController</title>
<path fill="none" stroke="black" d="M292.5,279.5C292.5,279.5 441.5,279.5 441.5,279.5 447.5,279.5 453.5,273.5 453.5,267.5 453.5,267.5 453.5,64.5 453.5,64.5 453.5,58.5 447.5,52.5 441.5,52.5 441.5,52.5 292.5,52.5 292.5,52.5 286.5,52.5 280.5,58.5 280.5,64.5 280.5,64.5 280.5,267.5 280.5,267.5 280.5,273.5 286.5,279.5 292.5,279.5"/>
<text text-anchor="middle" x="367" y="67.7" font-family="Times,serif" font-size="14.00">CandidateListsController</text>
<polyline fill="none" stroke="black" points="280.5,75.5 453.5,75.5 "/>
<text text-anchor="start" x="288.5" y="90.7" font-family="Times,serif" font-size="14.00">create</text>
<text text-anchor="start" x="288.5" y="105.7" font-family="Times,serif" font-size="14.00">demo_complete</text>
<text text-anchor="start" x="288.5" y="120.7" font-family="Times,serif" font-size="14.00">edit</text>
<text text-anchor="start" x="288.5" y="135.7" font-family="Times,serif" font-size="14.00">list_stats</text>
<text text-anchor="start" x="288.5" y="150.7" font-family="Times,serif" font-size="14.00">request_collaboration</text>
<text text-anchor="start" x="288.5" y="165.7" font-family="Times,serif" font-size="14.00">show</text>
<text text-anchor="start" x="288.5" y="180.7" font-family="Times,serif" font-size="14.00">update</text>
<polyline fill="none" stroke="black" points="280.5,188.5 453.5,188.5 "/>
<text text-anchor="start" x="288.5" y="203.7" font-family="Times,serif" font-size="14.00">merge_to_group_list</text>
<polyline fill="none" stroke="black" points="280.5,211.5 453.5,211.5 "/>
<text text-anchor="start" x="288.5" y="226.7" font-family="Times,serif" font-size="14.00">_layout</text>
<text text-anchor="start" x="288.5" y="241.7" font-family="Times,serif" font-size="14.00">candidate_list_params</text>
<text text-anchor="start" x="288.5" y="256.7" font-family="Times,serif" font-size="14.00">merge_individuals_to_group</text>
<text text-anchor="start" x="288.5" y="271.7" font-family="Times,serif" font-size="14.00">set_candidate_list</text>
</g>
<!-- ConceptsController -->
<g id="node6" class="node"><title>ConceptsController</title>
<path fill="none" stroke="black" d="M-247.5,-260.5C-247.5,-260.5 -148.5,-260.5 -148.5,-260.5 -142.5,-260.5 -136.5,-266.5 -136.5,-272.5 -136.5,-272.5 -136.5,-491.5 -136.5,-491.5 -136.5,-497.5 -142.5,-503.5 -148.5,-503.5 -148.5,-503.5 -247.5,-503.5 -247.5,-503.5 -253.5,-503.5 -259.5,-497.5 -259.5,-491.5 -259.5,-491.5 -259.5,-272.5 -259.5,-272.5 -259.5,-266.5 -253.5,-260.5 -247.5,-260.5"/>
<text text-anchor="middle" x="-198" y="-488.3" font-family="Times,serif" font-size="14.00">ConceptsController</text>
<polyline fill="none" stroke="black" points="-259.5,-480.5 -136.5,-480.5 "/>
<text text-anchor="start" x="-251.5" y="-465.3" font-family="Times,serif" font-size="14.00">concepts_for_game</text>
<text text-anchor="start" x="-251.5" y="-450.3" font-family="Times,serif" font-size="14.00">create</text>
<text text-anchor="start" x="-251.5" y="-435.3" font-family="Times,serif" font-size="14.00">destroy</text>
<text text-anchor="start" x="-251.5" y="-420.3" font-family="Times,serif" font-size="14.00">edit</text>
<text text-anchor="start" x="-251.5" y="-405.3" font-family="Times,serif" font-size="14.00">index</text>
<text text-anchor="start" x="-251.5" y="-390.3" font-family="Times,serif" font-size="14.00">new</text>
<text text-anchor="start" x="-251.5" y="-375.3" font-family="Times,serif" font-size="14.00">show</text>
<text text-anchor="start" x="-251.5" y="-360.3" font-family="Times,serif" font-size="14.00">update</text>
<polyline fill="none" stroke="black" points="-259.5,-352.5 -136.5,-352.5 "/>
<polyline fill="none" stroke="black" points="-259.5,-328.5 -136.5,-328.5 "/>
<text text-anchor="start" x="-251.5" y="-313.3" font-family="Times,serif" font-size="14.00">_layout</text>
<text text-anchor="start" x="-251.5" y="-298.3" font-family="Times,serif" font-size="14.00">check_admin</text>
<text text-anchor="start" x="-251.5" y="-283.3" font-family="Times,serif" font-size="14.00">concept_params</text>
<text text-anchor="start" x="-251.5" y="-268.3" font-family="Times,serif" font-size="14.00">set_concept</text>
</g>
<!-- ConsentFormsController -->
<g id="node7" class="node"><title>ConsentFormsController</title>
<path fill="none" stroke="black" d="M292,19.5C292,19.5 420,19.5 420,19.5 426,19.5 432,13.5 432,7.5 432,7.5 432,-181.5 432,-181.5 432,-187.5 426,-193.5 420,-193.5 420,-193.5 292,-193.5 292,-193.5 286,-193.5 280,-187.5 280,-181.5 280,-181.5 280,7.5 280,7.5 280,13.5 286,19.5 292,19.5"/>
<text text-anchor="middle" x="356" y="-178.3" font-family="Times,serif" font-size="14.00">ConsentFormsController</text>
<polyline fill="none" stroke="black" points="280,-170.5 432,-170.5 "/>
<text text-anchor="start" x="288" y="-155.3" font-family="Times,serif" font-size="14.00">create</text>
<text text-anchor="start" x="288" y="-140.3" font-family="Times,serif" font-size="14.00">destroy</text>
<text text-anchor="start" x="288" y="-125.3" font-family="Times,serif" font-size="14.00">edit</text>
<text text-anchor="start" x="288" y="-110.3" font-family="Times,serif" font-size="14.00">index</text>
<text text-anchor="start" x="288" y="-95.3" font-family="Times,serif" font-size="14.00">new</text>
<text text-anchor="start" x="288" y="-80.3" font-family="Times,serif" font-size="14.00">show</text>
<text text-anchor="start" x="288" y="-65.3" font-family="Times,serif" font-size="14.00">update</text>
<polyline fill="none" stroke="black" points="280,-57.5 432,-57.5 "/>
<polyline fill="none" stroke="black" points="280,-33.5 432,-33.5 "/>
<text text-anchor="start" x="288" y="-18.3" font-family="Times,serif" font-size="14.00">_layout</text>
<text text-anchor="start" x="288" y="-3.3" font-family="Times,serif" font-size="14.00">consent_form_params</text>
<text text-anchor="start" x="288" y="11.7" font-family="Times,serif" font-size="14.00">set_consent_form</text>
</g>
<!-- ConsentLogsController -->
<g id="node8" class="node"><title>ConsentLogsController</title>
<path fill="none" stroke="black" d="M-427.5,-260.5C-427.5,-260.5 -308.5,-260.5 -308.5,-260.5 -302.5,-260.5 -296.5,-266.5 -296.5,-272.5 -296.5,-272.5 -296.5,-371.5 -296.5,-371.5 -296.5,-377.5 -302.5,-383.5 -308.5,-383.5 -308.5,-383.5 -427.5,-383.5 -427.5,-383.5 -433.5,-383.5 -439.5,-377.5 -439.5,-371.5 -439.5,-371.5 -439.5,-272.5 -439.5,-272.5 -439.5,-266.5 -433.5,-260.5 -427.5,-260.5"/>
<text text-anchor="middle" x="-368" y="-368.3" font-family="Times,serif" font-size="14.00">ConsentLogsController</text>
<polyline fill="none" stroke="black" points="-439.5,-360.5 -296.5,-360.5 "/>
<text text-anchor="start" x="-431.5" y="-345.3" font-family="Times,serif" font-size="14.00">edit</text>
<text text-anchor="start" x="-431.5" y="-330.3" font-family="Times,serif" font-size="14.00">update</text>
<polyline fill="none" stroke="black" points="-439.5,-322.5 -296.5,-322.5 "/>
<polyline fill="none" stroke="black" points="-439.5,-298.5 -296.5,-298.5 "/>
<text text-anchor="start" x="-431.5" y="-283.3" font-family="Times,serif" font-size="14.00">_layout</text>
<text text-anchor="start" x="-431.5" y="-268.3" font-family="Times,serif" font-size="14.00">cl_params</text>
</g>
<!-- CoursesController -->
<g id="node9" class="node"><title>CoursesController</title>
<path fill="none" stroke="black" d="M-48,179.5C-48,179.5 44,179.5 44,179.5 50,179.5 56,173.5 56,167.5 56,167.5 56,-171.5 56,-171.5 56,-177.5 50,-183.5 44,-183.5 44,-183.5 -48,-183.5 -48,-183.5 -54,-183.5 -60,-177.5 -60,-171.5 -60,-171.5 -60,167.5 -60,167.5 -60,173.5 -54,179.5 -48,179.5"/>
<text text-anchor="middle" x="-2" y="-168.3" font-family="Times,serif" font-size="14.00">CoursesController</text>
<polyline fill="none" stroke="black" points="-60,-160.5 56,-160.5 "/>
<text text-anchor="start" x="-52" y="-145.3" font-family="Times,serif" font-size="14.00">accept_roster</text>
<text text-anchor="start" x="-52" y="-130.3" font-family="Times,serif" font-size="14.00">add_instructors</text>
<text text-anchor="start" x="-52" y="-115.3" font-family="Times,serif" font-size="14.00">add_students</text>
<text text-anchor="start" x="-52" y="-100.3" font-family="Times,serif" font-size="14.00">create</text>
<text text-anchor="start" x="-52" y="-85.3" font-family="Times,serif" font-size="14.00">decline_roster</text>
<text text-anchor="start" x="-52" y="-70.3" font-family="Times,serif" font-size="14.00">destroy</text>
<text text-anchor="start" x="-52" y="-55.3" font-family="Times,serif" font-size="14.00">drop_student</text>
<text text-anchor="start" x="-52" y="-40.3" font-family="Times,serif" font-size="14.00">edit</text>
<text text-anchor="start" x="-52" y="-25.3" font-family="Times,serif" font-size="14.00">index</text>
<text text-anchor="start" x="-52" y="-10.3" font-family="Times,serif" font-size="14.00">new</text>
<text text-anchor="start" x="-52" y="4.7" font-family="Times,serif" font-size="14.00">re_invite_student</text>
<text text-anchor="start" x="-52" y="19.7" font-family="Times,serif" font-size="14.00">remove_instructor</text>
<text text-anchor="start" x="-52" y="34.7" font-family="Times,serif" font-size="14.00">show</text>
<text text-anchor="start" x="-52" y="49.7" font-family="Times,serif" font-size="14.00">update</text>
<polyline fill="none" stroke="black" points="-60,57.5 56,57.5 "/>
<polyline fill="none" stroke="black" points="-60,81.5 56,81.5 "/>
<text text-anchor="start" x="-52" y="96.7" font-family="Times,serif" font-size="14.00">_layout</text>
<text text-anchor="start" x="-52" y="111.7" font-family="Times,serif" font-size="14.00">check_admin</text>
<text text-anchor="start" x="-52" y="126.7" font-family="Times,serif" font-size="14.00">check_editor</text>
<text text-anchor="start" x="-52" y="141.7" font-family="Times,serif" font-size="14.00">check_viewer</text>
<text text-anchor="start" x="-52" y="156.7" font-family="Times,serif" font-size="14.00">course_params</text>
<text text-anchor="start" x="-52" y="171.7" font-family="Times,serif" font-size="14.00">set_course</text>
</g>
<!-- ExperiencesController -->
<g id="node10" class="node"><title>ExperiencesController</title>
<path fill="none" stroke="black" d="M112,99.5C112,99.5 226,99.5 226,99.5 232,99.5 238,93.5 238,87.5 238,87.5 238,-221.5 238,-221.5 238,-227.5 232,-233.5 226,-233.5 226,-233.5 112,-233.5 112,-233.5 106,-233.5 100,-227.5 100,-221.5 100,-221.5 100,87.5 100,87.5 100,93.5 106,99.5 112,99.5"/>
<text text-anchor="middle" x="169" y="-218.3" font-family="Times,serif" font-size="14.00">ExperiencesController</text>
<polyline fill="none" stroke="black" points="100,-210.5 238,-210.5 "/>
<text text-anchor="start" x="108" y="-195.3" font-family="Times,serif" font-size="14.00">activate</text>
<text text-anchor="start" x="108" y="-180.3" font-family="Times,serif" font-size="14.00">create</text>
<text text-anchor="start" x="108" y="-165.3" font-family="Times,serif" font-size="14.00">destroy</text>
<text text-anchor="start" x="108" y="-150.3" font-family="Times,serif" font-size="14.00">diagnose</text>
<text text-anchor="start" x="108" y="-135.3" font-family="Times,serif" font-size="14.00">edit</text>
<text text-anchor="start" x="108" y="-120.3" font-family="Times,serif" font-size="14.00">index</text>
<text text-anchor="start" x="108" y="-105.3" font-family="Times,serif" font-size="14.00">new</text>
<text text-anchor="start" x="108" y="-90.3" font-family="Times,serif" font-size="14.00">next</text>
<text text-anchor="start" x="108" y="-75.3" font-family="Times,serif" font-size="14.00">react</text>
<text text-anchor="start" x="108" y="-60.3" font-family="Times,serif" font-size="14.00">show</text>
<text text-anchor="start" x="108" y="-45.3" font-family="Times,serif" font-size="14.00">update</text>
<polyline fill="none" stroke="black" points="100,-37.5 238,-37.5 "/>
<polyline fill="none" stroke="black" points="100,-13.5 238,-13.5 "/>
<text text-anchor="start" x="108" y="1.7" font-family="Times,serif" font-size="14.00">_layout</text>
<text text-anchor="start" x="108" y="16.7" font-family="Times,serif" font-size="14.00">check_editor</text>
<text text-anchor="start" x="108" y="31.7" font-family="Times,serif" font-size="14.00">check_viewer</text>
<text text-anchor="start" x="108" y="46.7" font-family="Times,serif" font-size="14.00">diagnosis_params</text>
<text text-anchor="start" x="108" y="61.7" font-family="Times,serif" font-size="14.00">experience_params</text>
<text text-anchor="start" x="108" y="76.7" font-family="Times,serif" font-size="14.00">reaction_params</text>
<text text-anchor="start" x="108" y="91.7" font-family="Times,serif" font-size="14.00">set_experience</text>
</g>
<!-- GraphingController -->
<g id="node11" class="node"><title>GraphingController</title>
<path fill="none" stroke="black" d="M-407.5,-420.5C-407.5,-420.5 -308.5,-420.5 -308.5,-420.5 -302.5,-420.5 -296.5,-426.5 -296.5,-432.5 -296.5,-432.5 -296.5,-561.5 -296.5,-561.5 -296.5,-567.5 -302.5,-573.5 -308.5,-573.5 -308.5,-573.5 -407.5,-573.5 -407.5,-573.5 -413.5,-573.5 -419.5,-567.5 -419.5,-561.5 -419.5,-561.5 -419.5,-432.5 -419.5,-432.5 -419.5,-426.5 -413.5,-420.5 -407.5,-420.5"/>
<text text-anchor="middle" x="-358" y="-558.3" font-family="Times,serif" font-size="14.00">GraphingController</text>
<polyline fill="none" stroke="black" points="-419.5,-550.5 -296.5,-550.5 "/>
<text text-anchor="start" x="-411.5" y="-535.3" font-family="Times,serif" font-size="14.00">data</text>
<text text-anchor="start" x="-411.5" y="-520.3" font-family="Times,serif" font-size="14.00">index</text>
<text text-anchor="start" x="-411.5" y="-505.3" font-family="Times,serif" font-size="14.00">projects</text>
<text text-anchor="start" x="-411.5" y="-490.3" font-family="Times,serif" font-size="14.00">raw_data</text>
<text text-anchor="start" x="-411.5" y="-475.3" font-family="Times,serif" font-size="14.00">subjects</text>
<polyline fill="none" stroke="black" points="-419.5,-467.5 -296.5,-467.5 "/>
<polyline fill="none" stroke="black" points="-419.5,-443.5 -296.5,-443.5 "/>
<text text-anchor="start" x="-411.5" y="-428.3" font-family="Times,serif" font-size="14.00">_layout</text>
</g>
<!-- HomeController -->
<g id="node12" class="node"><title>HomeController</title>
<path fill="none" stroke="black" d="M452.5,-441C452.5,-441 565.5,-441 565.5,-441 571.5,-441 577.5,-447 577.5,-453 577.5,-453 577.5,-567 577.5,-567 577.5,-573 571.5,-579 565.5,-579 565.5,-579 452.5,-579 452.5,-579 446.5,-579 440.5,-573 440.5,-567 440.5,-567 440.5,-453 440.5,-453 440.5,-447 446.5,-441 452.5,-441"/>
<text text-anchor="middle" x="509" y="-563.8" font-family="Times,serif" font-size="14.00">HomeController</text>
<polyline fill="none" stroke="black" points="440.5,-556 577.5,-556 "/>
<text text-anchor="start" x="448.5" y="-540.8" font-family="Times,serif" font-size="14.00">check_diversity_score</text>
<text text-anchor="start" x="448.5" y="-525.8" font-family="Times,serif" font-size="14.00">demo_start</text>
<text text-anchor="start" x="448.5" y="-510.8" font-family="Times,serif" font-size="14.00">index</text>
<text text-anchor="start" x="448.5" y="-495.8" font-family="Times,serif" font-size="14.00">states_for_country</text>
<polyline fill="none" stroke="black" points="440.5,-488 577.5,-488 "/>
<polyline fill="none" stroke="black" points="440.5,-464 577.5,-464 "/>
<text text-anchor="start" x="448.5" y="-448.8" font-family="Times,serif" font-size="14.00">_layout</text>
</g>
<!-- InstallmentsController -->
<g id="node13" class="node"><title>InstallmentsController</title>
<path fill="none" stroke="black" d="M-387.5,-0C-387.5,-0 -272.5,-0 -272.5,-0 -266.5,-0 -260.5,-6 -260.5,-12 -260.5,-12 -260.5,-156 -260.5,-156 -260.5,-162 -266.5,-168 -272.5,-168 -272.5,-168 -387.5,-168 -387.5,-168 -393.5,-168 -399.5,-162 -399.5,-156 -399.5,-156 -399.5,-12 -399.5,-12 -399.5,-6 -393.5,-0 -387.5,-0"/>
<text text-anchor="middle" x="-330" y="-152.8" font-family="Times,serif" font-size="14.00">InstallmentsController</text>
<polyline fill="none" stroke="black" points="-399.5,-145 -260.5,-145 "/>
<text text-anchor="start" x="-391.5" y="-129.8" font-family="Times,serif" font-size="14.00">create</text>
<text text-anchor="start" x="-391.5" y="-114.8" font-family="Times,serif" font-size="14.00">demo_complete</text>
<text text-anchor="start" x="-391.5" y="-99.8" font-family="Times,serif" font-size="14.00">edit</text>
<text text-anchor="start" x="-391.5" y="-84.8" font-family="Times,serif" font-size="14.00">new</text>
<text text-anchor="start" x="-391.5" y="-69.8" font-family="Times,serif" font-size="14.00">update</text>
<polyline fill="none" stroke="black" points="-399.5,-62 -260.5,-62 "/>
<polyline fill="none" stroke="black" points="-399.5,-38 -260.5,-38 "/>
<text text-anchor="start" x="-391.5" y="-22.8" font-family="Times,serif" font-size="14.00">_layout</text>
<text text-anchor="start" x="-391.5" y="-7.8" font-family="Times,serif" font-size="14.00">i_params</text>
</g>
<!-- ProjectsController -->
<g id="node14" class="node"><title>ProjectsController</title>
<path fill="none" stroke="black" d="M-208,139C-208,139 -116,139 -116,139 -110,139 -104,133 -104,127 -104,127 -104,-167 -104,-167 -104,-173 -110,-179 -116,-179 -116,-179 -208,-179 -208,-179 -214,-179 -220,-173 -220,-167 -220,-167 -220,127 -220,127 -220,133 -214,139 -208,139"/>
<text text-anchor="middle" x="-162" y="-163.8" font-family="Times,serif" font-size="14.00">ProjectsController</text>
<polyline fill="none" stroke="black" points="-220,-156 -104,-156 "/>
<text text-anchor="start" x="-212" y="-140.8" font-family="Times,serif" font-size="14.00">activate</text>
<text text-anchor="start" x="-212" y="-125.8" font-family="Times,serif" font-size="14.00">add_group</text>
<text text-anchor="start" x="-212" y="-110.8" font-family="Times,serif" font-size="14.00">create</text>
<text text-anchor="start" x="-212" y="-95.8" font-family="Times,serif" font-size="14.00">destroy</text>
<text text-anchor="start" x="-212" y="-80.8" font-family="Times,serif" font-size="14.00">edit</text>
<text text-anchor="start" x="-212" y="-65.8" font-family="Times,serif" font-size="14.00">index</text>
<text text-anchor="start" x="-212" y="-50.8" font-family="Times,serif" font-size="14.00">new</text>
<text text-anchor="start" x="-212" y="-35.8" font-family="Times,serif" font-size="14.00">remove_group</text>
<text text-anchor="start" x="-212" y="-20.8" font-family="Times,serif" font-size="14.00">rescore_group</text>
<text text-anchor="start" x="-212" y="-5.8" font-family="Times,serif" font-size="14.00">rescore_groups</text>
<text text-anchor="start" x="-212" y="9.2" font-family="Times,serif" font-size="14.00">show</text>
<text text-anchor="start" x="-212" y="24.2" font-family="Times,serif" font-size="14.00">update</text>
<polyline fill="none" stroke="black" points="-220,32 -104,32 "/>
<polyline fill="none" stroke="black" points="-220,56 -104,56 "/>
<text text-anchor="start" x="-212" y="71.2" font-family="Times,serif" font-size="14.00">_layout</text>
<text text-anchor="start" x="-212" y="86.2" font-family="Times,serif" font-size="14.00">check_editor</text>
<text text-anchor="start" x="-212" y="101.2" font-family="Times,serif" font-size="14.00">check_viewer</text>
<text text-anchor="start" x="-212" y="116.2" font-family="Times,serif" font-size="14.00">project_params</text>
<text text-anchor="start" x="-212" y="131.2" font-family="Times,serif" font-size="14.00">set_project</text>
</g>
<!-- RegistrationsController -->
<g id="node15" class="node"><title>RegistrationsController</title>
<path fill="none" stroke="black" d="M452,-241C452,-241 572,-241 572,-241 578,-241 584,-247 584,-253 584,-253 584,-381 584,-381 584,-387 578,-393 572,-393 572,-393 452,-393 452,-393 446,-393 440,-387 440,-381 440,-381 440,-253 440,-253 440,-247 446,-241 452,-241"/>
<text text-anchor="middle" x="512" y="-377.8" font-family="Times,serif" font-size="14.00">RegistrationsController</text>
<polyline fill="none" stroke="black" points="440,-370 584,-370 "/>
<text text-anchor="start" x="448" y="-354.8" font-family="Times,serif" font-size="14.00">add_email</text>
<text text-anchor="start" x="448" y="-339.8" font-family="Times,serif" font-size="14.00">initiate_password_reset</text>
<text text-anchor="start" x="448" y="-324.8" font-family="Times,serif" font-size="14.00">remove_email</text>
<text text-anchor="start" x="448" y="-309.8" font-family="Times,serif" font-size="14.00">set_primary_email</text>
<polyline fill="none" stroke="black" points="440,-302 584,-302 "/>
<text text-anchor="start" x="448" y="-286.8" font-family="Times,serif" font-size="14.00">update_resource</text>
<polyline fill="none" stroke="black" points="440,-279 584,-279 "/>
<text text-anchor="start" x="448" y="-263.8" font-family="Times,serif" font-size="14.00">_layout</text>
<text text-anchor="start" x="448" y="-248.8" font-family="Times,serif" font-size="14.00">set_email</text>
</g>
<!-- SchoolsController -->
<g id="node16" class="node"><title>SchoolsController</title>
<path fill="none" stroke="black" d="M291.5,-241C291.5,-241 382.5,-241 382.5,-241 388.5,-241 394.5,-247 394.5,-253 394.5,-253 394.5,-457 394.5,-457 394.5,-463 388.5,-469 382.5,-469 382.5,-469 291.5,-469 291.5,-469 285.5,-469 279.5,-463 279.5,-457 279.5,-457 279.5,-253 279.5,-253 279.5,-247 285.5,-241 291.5,-241"/>
<text text-anchor="middle" x="337" y="-453.8" font-family="Times,serif" font-size="14.00">SchoolsController</text>
<polyline fill="none" stroke="black" points="279.5,-446 394.5,-446 "/>
<text text-anchor="start" x="287.5" y="-430.8" font-family="Times,serif" font-size="14.00">create</text>
<text text-anchor="start" x="287.5" y="-415.8" font-family="Times,serif" font-size="14.00">destroy</text>
<text text-anchor="start" x="287.5" y="-400.8" font-family="Times,serif" font-size="14.00">edit</text>
<text text-anchor="start" x="287.5" y="-385.8" font-family="Times,serif" font-size="14.00">index</text>
<text text-anchor="start" x="287.5" y="-370.8" font-family="Times,serif" font-size="14.00">new</text>
<text text-anchor="start" x="287.5" y="-355.8" font-family="Times,serif" font-size="14.00">show</text>
<text text-anchor="start" x="287.5" y="-340.8" font-family="Times,serif" font-size="14.00">update</text>
<polyline fill="none" stroke="black" points="279.5,-333 394.5,-333 "/>
<polyline fill="none" stroke="black" points="279.5,-309 394.5,-309 "/>
<text text-anchor="start" x="287.5" y="-293.8" font-family="Times,serif" font-size="14.00">_layout</text>
<text text-anchor="start" x="287.5" y="-278.8" font-family="Times,serif" font-size="14.00">check_admin</text>
<text text-anchor="start" x="287.5" y="-263.8" font-family="Times,serif" font-size="14.00">school_params</text>
<text text-anchor="start" x="287.5" y="-248.8" font-family="Times,serif" font-size="14.00">set_school</text>
</g>
<!-- Users::OmniauthCallbacksController -->
<g id="node17" class="node"><title>Users::OmniauthCallbacksController</title>
<path fill="none" stroke="black" d="M12,319C12,319 206,319 206,319 212,319 218,313 218,307 218,307 218,223 218,223 218,217 212,211 206,211 206,211 12,211 12,211 6,211 0,217 0,223 0,223 0,307 0,307 0,313 6,319 12,319"/>
<text text-anchor="middle" x="109" y="226.2" font-family="Times,serif" font-size="14.00">Users::OmniauthCallbacksController</text>
<polyline fill="none" stroke="black" points="0,234 218,234 "/>
<text text-anchor="start" x="8" y="249.2" font-family="Times,serif" font-size="14.00">failure</text>
<text text-anchor="start" x="8" y="264.2" font-family="Times,serif" font-size="14.00">google_oauth2</text>
<polyline fill="none" stroke="black" points="0,272 218,272 "/>
<polyline fill="none" stroke="black" points="0,296 218,296 "/>
<text text-anchor="start" x="8" y="311.2" font-family="Times,serif" font-size="14.00">_layout</text>
</g>
</g>
</svg>
