<?xml version="1.0" encoding="UTF-8" standalone="no"?>
<!DOCTYPE svg PUBLIC "-//W3C//DTD SVG 1.1//EN"
 "http://www.w3.org/Graphics/SVG/1.1/DTD/svg11.dtd">
<!-- Generated by graphviz version 2.36.0 (20140111.2315)
 -->
<!-- Title: controllers_diagram Pages: 1 -->
<svg width="985pt" height="987pt"
 viewBox="0.00 0.00 985.00 987.00" xmlns="http://www.w3.org/2000/svg" xmlns:xlink="http://www.w3.org/1999/xlink">
<g id="graph0" class="graph" transform="scale(1 1) rotate(0) translate(4 983)">
<title>controllers_diagram</title>
<polygon fill="none" stroke="none" points="-4,4 -4,-983 981,-983 981,4 -4,4"/>
<!-- _diagram_info -->
<g id="node1" class="node"><title>_diagram_info</title>
<text text-anchor="start" x="668" y="-63.6" font-family="Times,serif" font-size="13.00">Controllers diagram</text>
<text text-anchor="start" x="668" y="-49.6" font-family="Times,serif" font-size="13.00">Date: Aug 30 2017 &#45; 22:29</text>
<text text-anchor="start" x="668" y="-35.6" font-family="Times,serif" font-size="13.00">Migration version: 20170828054803</text>
<text text-anchor="start" x="668" y="-21.6" font-family="Times,serif" font-size="13.00">Generated by RailRoady 1.5.2</text>
<text text-anchor="start" x="668" y="-7.6" font-family="Times,serif" font-size="13.00">http://railroady.prestonlee.com</text>
</g>
<!-- ApplicationController -->
<g id="node2" class="node"><title>ApplicationController</title>
<path fill="none" stroke="black" d="M112,-100.5C112,-100.5 282,-100.5 282,-100.5 288,-100.5 294,-106.5 294,-112.5 294,-112.5 294,-196.5 294,-196.5 294,-202.5 288,-208.5 282,-208.5 282,-208.5 112,-208.5 112,-208.5 106,-208.5 100,-202.5 100,-196.5 100,-196.5 100,-112.5 100,-112.5 100,-106.5 106,-100.5 112,-100.5"/>
<text text-anchor="middle" x="197" y="-193.3" font-family="Times,serif" font-size="14.00">ApplicationController</text>
<polyline fill="none" stroke="black" points="100,-185.5 294,-185.5 "/>
<polyline fill="none" stroke="black" points="100,-161.5 294,-161.5 "/>
<text text-anchor="start" x="108" y="-146.3" font-family="Times,serif" font-size="14.00">configure_permitted_parameters</text>
<text text-anchor="start" x="108" y="-131.3" font-family="Times,serif" font-size="14.00">set_locale</text>
<polyline fill="none" stroke="black" points="100,-123.5 294,-123.5 "/>
<text text-anchor="start" x="108" y="-108.3" font-family="Times,serif" font-size="14.00">_layout</text>
</g>
<!-- BingoGamesController -->
<g id="node3" class="node"><title>BingoGamesController</title>
<path fill="none" stroke="black" d="M312,-600.5C312,-600.5 448,-600.5 448,-600.5 454,-600.5 460,-606.5 460,-612.5 460,-612.5 460,-876.5 460,-876.5 460,-882.5 454,-888.5 448,-888.5 448,-888.5 312,-888.5 312,-888.5 306,-888.5 300,-882.5 300,-876.5 300,-876.5 300,-612.5 300,-612.5 300,-606.5 306,-600.5 312,-600.5"/>
<text text-anchor="middle" x="380" y="-873.3" font-family="Times,serif" font-size="14.00">BingoGamesController</text>
<polyline fill="none" stroke="black" points="300,-865.5 460,-865.5 "/>
<text text-anchor="start" x="308" y="-850.3" font-family="Times,serif" font-size="14.00">activate</text>
<text text-anchor="start" x="308" y="-835.3" font-family="Times,serif" font-size="14.00">create</text>
<text text-anchor="start" x="308" y="-820.3" font-family="Times,serif" font-size="14.00">destroy</text>
<text text-anchor="start" x="308" y="-805.3" font-family="Times,serif" font-size="14.00">edit</text>
<text text-anchor="start" x="308" y="-790.3" font-family="Times,serif" font-size="14.00">index</text>
<text text-anchor="start" x="308" y="-775.3" font-family="Times,serif" font-size="14.00">new</text>
<text text-anchor="start" x="308" y="-760.3" font-family="Times,serif" font-size="14.00">review_candidates</text>
<text text-anchor="start" x="308" y="-745.3" font-family="Times,serif" font-size="14.00">show</text>
<text text-anchor="start" x="308" y="-730.3" font-family="Times,serif" font-size="14.00">update</text>
<text text-anchor="start" x="308" y="-715.3" font-family="Times,serif" font-size="14.00">update_review_candidates</text>
<polyline fill="none" stroke="black" points="300,-707.5 460,-707.5 "/>
<polyline fill="none" stroke="black" points="300,-683.5 460,-683.5 "/>
<text text-anchor="start" x="308" y="-668.3" font-family="Times,serif" font-size="14.00">_layout</text>
<text text-anchor="start" x="308" y="-653.3" font-family="Times,serif" font-size="14.00">bingo_game_params</text>
<text text-anchor="start" x="308" y="-638.3" font-family="Times,serif" font-size="14.00">check_editor</text>
<text text-anchor="start" x="308" y="-623.3" font-family="Times,serif" font-size="14.00">check_viewer</text>
<text text-anchor="start" x="308" y="-608.3" font-family="Times,serif" font-size="14.00">set_bingo_game</text>
</g>
<!-- CandidateListsController -->
<g id="node4" class="node"><title>CandidateListsController</title>
<path fill="none" stroke="black" d="M692,-120.5C692,-120.5 841,-120.5 841,-120.5 847,-120.5 853,-126.5 853,-132.5 853,-132.5 853,-335.5 853,-335.5 853,-341.5 847,-347.5 841,-347.5 841,-347.5 692,-347.5 692,-347.5 686,-347.5 680,-341.5 680,-335.5 680,-335.5 680,-132.5 680,-132.5 680,-126.5 686,-120.5 692,-120.5"/>
<text text-anchor="middle" x="766.5" y="-332.3" font-family="Times,serif" font-size="14.00">CandidateListsController</text>
<polyline fill="none" stroke="black" points="680,-324.5 853,-324.5 "/>
<text text-anchor="start" x="688" y="-309.3" font-family="Times,serif" font-size="14.00">create</text>
<text text-anchor="start" x="688" y="-294.3" font-family="Times,serif" font-size="14.00">demo_complete</text>
<text text-anchor="start" x="688" y="-279.3" font-family="Times,serif" font-size="14.00">edit</text>
<text text-anchor="start" x="688" y="-264.3" font-family="Times,serif" font-size="14.00">list_stats</text>
<text text-anchor="start" x="688" y="-249.3" font-family="Times,serif" font-size="14.00">request_collaboration</text>
<text text-anchor="start" x="688" y="-234.3" font-family="Times,serif" font-size="14.00">show</text>
<text text-anchor="start" x="688" y="-219.3" font-family="Times,serif" font-size="14.00">update</text>
<polyline fill="none" stroke="black" points="680,-211.5 853,-211.5 "/>
<text text-anchor="start" x="688" y="-196.3" font-family="Times,serif" font-size="14.00">merge_to_group_list</text>
<polyline fill="none" stroke="black" points="680,-188.5 853,-188.5 "/>
<text text-anchor="start" x="688" y="-173.3" font-family="Times,serif" font-size="14.00">_layout</text>
<text text-anchor="start" x="688" y="-158.3" font-family="Times,serif" font-size="14.00">candidate_list_params</text>
<text text-anchor="start" x="688" y="-143.3" font-family="Times,serif" font-size="14.00">merge_individuals_to_group</text>
<text text-anchor="start" x="688" y="-128.3" font-family="Times,serif" font-size="14.00">set_candidate_list</text>
</g>
<!-- ConsentFormsController -->
<g id="node5" class="node"><title>ConsentFormsController</title>
<path fill="none" stroke="black" d="M692,-380.5C692,-380.5 820,-380.5 820,-380.5 826,-380.5 832,-386.5 832,-392.5 832,-392.5 832,-581.5 832,-581.5 832,-587.5 826,-593.5 820,-593.5 820,-593.5 692,-593.5 692,-593.5 686,-593.5 680,-587.5 680,-581.5 680,-581.5 680,-392.5 680,-392.5 680,-386.5 686,-380.5 692,-380.5"/>
<text text-anchor="middle" x="756" y="-578.3" font-family="Times,serif" font-size="14.00">ConsentFormsController</text>
<polyline fill="none" stroke="black" points="680,-570.5 832,-570.5 "/>
<text text-anchor="start" x="688" y="-555.3" font-family="Times,serif" font-size="14.00">create</text>
<text text-anchor="start" x="688" y="-540.3" font-family="Times,serif" font-size="14.00">destroy</text>
<text text-anchor="start" x="688" y="-525.3" font-family="Times,serif" font-size="14.00">edit</text>
<text text-anchor="start" x="688" y="-510.3" font-family="Times,serif" font-size="14.00">index</text>
<text text-anchor="start" x="688" y="-495.3" font-family="Times,serif" font-size="14.00">new</text>
<text text-anchor="start" x="688" y="-480.3" font-family="Times,serif" font-size="14.00">show</text>
<text text-anchor="start" x="688" y="-465.3" font-family="Times,serif" font-size="14.00">update</text>
<polyline fill="none" stroke="black" points="680,-457.5 832,-457.5 "/>
<polyline fill="none" stroke="black" points="680,-433.5 832,-433.5 "/>
<text text-anchor="start" x="688" y="-418.3" font-family="Times,serif" font-size="14.00">_layout</text>
<text text-anchor="start" x="688" y="-403.3" font-family="Times,serif" font-size="14.00">consent_form_params</text>
<text text-anchor="start" x="688" y="-388.3" font-family="Times,serif" font-size="14.00">set_consent_form</text>
</g>
<!-- ConsentLogsController -->
<g id="node6" class="node"><title>ConsentLogsController</title>
<path fill="none" stroke="black" d="M12,-240.5C12,-240.5 131,-240.5 131,-240.5 137,-240.5 143,-246.5 143,-252.5 143,-252.5 143,-351.5 143,-351.5 143,-357.5 137,-363.5 131,-363.5 131,-363.5 12,-363.5 12,-363.5 6,-363.5 0,-357.5 0,-351.5 0,-351.5 0,-252.5 0,-252.5 0,-246.5 6,-240.5 12,-240.5"/>
<text text-anchor="middle" x="71.5" y="-348.3" font-family="Times,serif" font-size="14.00">ConsentLogsController</text>
<polyline fill="none" stroke="black" points="0,-340.5 143,-340.5 "/>
<text text-anchor="start" x="8" y="-325.3" font-family="Times,serif" font-size="14.00">edit</text>
<text text-anchor="start" x="8" y="-310.3" font-family="Times,serif" font-size="14.00">update</text>
<polyline fill="none" stroke="black" points="0,-302.5 143,-302.5 "/>
<polyline fill="none" stroke="black" points="0,-278.5 143,-278.5 "/>
<text text-anchor="start" x="8" y="-263.3" font-family="Times,serif" font-size="14.00">_layout</text>
<text text-anchor="start" x="8" y="-248.3" font-family="Times,serif" font-size="14.00">cl_params</text>
</g>
<!-- CoursesController -->
<g id="node7" class="node"><title>CoursesController</title>
<path fill="none" stroke="black" d="M352,-220.5C352,-220.5 444,-220.5 444,-220.5 450,-220.5 456,-226.5 456,-232.5 456,-232.5 456,-556.5 456,-556.5 456,-562.5 450,-568.5 444,-568.5 444,-568.5 352,-568.5 352,-568.5 346,-568.5 340,-562.5 340,-556.5 340,-556.5 340,-232.5 340,-232.5 340,-226.5 346,-220.5 352,-220.5"/>
<text text-anchor="middle" x="398" y="-553.3" font-family="Times,serif" font-size="14.00">CoursesController</text>
<polyline fill="none" stroke="black" points="340,-545.5 456,-545.5 "/>
<text text-anchor="start" x="348" y="-530.3" font-family="Times,serif" font-size="14.00">accept_roster</text>
<text text-anchor="start" x="348" y="-515.3" font-family="Times,serif" font-size="14.00">add_instructors</text>
<text text-anchor="start" x="348" y="-500.3" font-family="Times,serif" font-size="14.00">add_students</text>
<text text-anchor="start" x="348" y="-485.3" font-family="Times,serif" font-size="14.00">create</text>
<text text-anchor="start" x="348" y="-470.3" font-family="Times,serif" font-size="14.00">decline_roster</text>
<text text-anchor="start" x="348" y="-455.3" font-family="Times,serif" font-size="14.00">destroy</text>
<text text-anchor="start" x="348" y="-440.3" font-family="Times,serif" font-size="14.00">drop_student</text>
<text text-anchor="start" x="348" y="-425.3" font-family="Times,serif" font-size="14.00">edit</text>
<text text-anchor="start" x="348" y="-410.3" font-family="Times,serif" font-size="14.00">index</text>
<text text-anchor="start" x="348" y="-395.3" font-family="Times,serif" font-size="14.00">new</text>
<text text-anchor="start" x="348" y="-380.3" font-family="Times,serif" font-size="14.00">re_invite_student</text>
<text text-anchor="start" x="348" y="-365.3" font-family="Times,serif" font-size="14.00">remove_instructor</text>
<text text-anchor="start" x="348" y="-350.3" font-family="Times,serif" font-size="14.00">show</text>
<text text-anchor="start" x="348" y="-335.3" font-family="Times,serif" font-size="14.00">update</text>
<polyline fill="none" stroke="black" points="340,-327.5 456,-327.5 "/>
<polyline fill="none" stroke="black" points="340,-303.5 456,-303.5 "/>
<text text-anchor="start" x="348" y="-288.3" font-family="Times,serif" font-size="14.00">_layout</text>
<text text-anchor="start" x="348" y="-273.3" font-family="Times,serif" font-size="14.00">check_editor</text>
<text text-anchor="start" x="348" y="-258.3" font-family="Times,serif" font-size="14.00">check_viewer</text>
<text text-anchor="start" x="348" y="-243.3" font-family="Times,serif" font-size="14.00">course_params</text>
<text text-anchor="start" x="348" y="-228.3" font-family="Times,serif" font-size="14.00">set_course</text>
</g>
<!-- ExperiencesController -->
<g id="node8" class="node"><title>ExperiencesController</title>
<path fill="none" stroke="black" d="M512,-300.5C512,-300.5 626,-300.5 626,-300.5 632,-300.5 638,-306.5 638,-312.5 638,-312.5 638,-621.5 638,-621.5 638,-627.5 632,-633.5 626,-633.5 626,-633.5 512,-633.5 512,-633.5 506,-633.5 500,-627.5 500,-621.5 500,-621.5 500,-312.5 500,-312.5 500,-306.5 506,-300.5 512,-300.5"/>
<text text-anchor="middle" x="569" y="-618.3" font-family="Times,serif" font-size="14.00">ExperiencesController</text>
<polyline fill="none" stroke="black" points="500,-610.5 638,-610.5 "/>
<text text-anchor="start" x="508" y="-595.3" font-family="Times,serif" font-size="14.00">activate</text>
<text text-anchor="start" x="508" y="-580.3" font-family="Times,serif" font-size="14.00">create</text>
<text text-anchor="start" x="508" y="-565.3" font-family="Times,serif" font-size="14.00">destroy</text>
<text text-anchor="start" x="508" y="-550.3" font-family="Times,serif" font-size="14.00">diagnose</text>
<text text-anchor="start" x="508" y="-535.3" font-family="Times,serif" font-size="14.00">edit</text>
<text text-anchor="start" x="508" y="-520.3" font-family="Times,serif" font-size="14.00">index</text>
<text text-anchor="start" x="508" y="-505.3" font-family="Times,serif" font-size="14.00">new</text>
<text text-anchor="start" x="508" y="-490.3" font-family="Times,serif" font-size="14.00">next</text>
<text text-anchor="start" x="508" y="-475.3" font-family="Times,serif" font-size="14.00">react</text>
<text text-anchor="start" x="508" y="-460.3" font-family="Times,serif" font-size="14.00">show</text>
<text text-anchor="start" x="508" y="-445.3" font-family="Times,serif" font-size="14.00">update</text>
<polyline fill="none" stroke="black" points="500,-437.5 638,-437.5 "/>
<polyline fill="none" stroke="black" points="500,-413.5 638,-413.5 "/>
<text text-anchor="start" x="508" y="-398.3" font-family="Times,serif" font-size="14.00">_layout</text>
<text text-anchor="start" x="508" y="-383.3" font-family="Times,serif" font-size="14.00">check_editor</text>
<text text-anchor="start" x="508" y="-368.3" font-family="Times,serif" font-size="14.00">check_viewer</text>
<text text-anchor="start" x="508" y="-353.3" font-family="Times,serif" font-size="14.00">diagnosis_params</text>
<text text-anchor="start" x="508" y="-338.3" font-family="Times,serif" font-size="14.00">experience_params</text>
<text text-anchor="start" x="508" y="-323.3" font-family="Times,serif" font-size="14.00">reaction_params</text>
<text text-anchor="start" x="508" y="-308.3" font-family="Times,serif" font-size="14.00">set_experience</text>
</g>
<!-- GraphingController -->
<g id="node9" class="node"><title>GraphingController</title>
<path fill="none" stroke="black" d="M692,-640.5C692,-640.5 843,-640.5 843,-640.5 849,-640.5 855,-646.5 855,-652.5 855,-652.5 855,-796.5 855,-796.5 855,-802.5 849,-808.5 843,-808.5 843,-808.5 692,-808.5 692,-808.5 686,-808.5 680,-802.5 680,-796.5 680,-796.5 680,-652.5 680,-652.5 680,-646.5 686,-640.5 692,-640.5"/>
<text text-anchor="middle" x="767.5" y="-793.3" font-family="Times,serif" font-size="14.00">GraphingController</text>
<polyline fill="none" stroke="black" points="680,-785.5 855,-785.5 "/>
<text text-anchor="start" x="688" y="-770.3" font-family="Times,serif" font-size="14.00">data</text>
<text text-anchor="start" x="688" y="-755.3" font-family="Times,serif" font-size="14.00">index</text>
<text text-anchor="start" x="688" y="-740.3" font-family="Times,serif" font-size="14.00">individual_summary_data</text>
<text text-anchor="start" x="688" y="-725.3" font-family="Times,serif" font-size="14.00">pull_and_organise_user_data</text>
<text text-anchor="start" x="688" y="-710.3" font-family="Times,serif" font-size="14.00">raw_data</text>
<text text-anchor="start" x="688" y="-695.3" font-family="Times,serif" font-size="14.00">subjects</text>
<polyline fill="none" stroke="black" points="680,-687.5 855,-687.5 "/>
<polyline fill="none" stroke="black" points="680,-663.5 855,-663.5 "/>
<text text-anchor="start" x="688" y="-648.3" font-family="Times,serif" font-size="14.00">_layout</text>
</g>
<!-- HomeController -->
<g id="node10" class="node"><title>HomeController</title>
<path fill="none" stroke="black" d="M852,-840.5C852,-840.5 965,-840.5 965,-840.5 971,-840.5 977,-846.5 977,-852.5 977,-852.5 977,-966.5 977,-966.5 977,-972.5 971,-978.5 965,-978.5 965,-978.5 852,-978.5 852,-978.5 846,-978.5 840,-972.5 840,-966.5 840,-966.5 840,-852.5 840,-852.5 840,-846.5 846,-840.5 852,-840.5"/>
<text text-anchor="middle" x="908.5" y="-963.3" font-family="Times,serif" font-size="14.00">HomeController</text>
<polyline fill="none" stroke="black" points="840,-955.5 977,-955.5 "/>
<text text-anchor="start" x="848" y="-940.3" font-family="Times,serif" font-size="14.00">check_diversity_score</text>
<text text-anchor="start" x="848" y="-925.3" font-family="Times,serif" font-size="14.00">demo_start</text>
<text text-anchor="start" x="848" y="-910.3" font-family="Times,serif" font-size="14.00">index</text>
<text text-anchor="start" x="848" y="-895.3" font-family="Times,serif" font-size="14.00">states_for_country</text>
<polyline fill="none" stroke="black" points="840,-887.5 977,-887.5 "/>
<polyline fill="none" stroke="black" points="840,-863.5 977,-863.5 "/>
<text text-anchor="start" x="848" y="-848.3" font-family="Times,serif" font-size="14.00">_layout</text>
</g>
<!-- InstallmentsController -->
<g id="node11" class="node"><title>InstallmentsController</title>
<path fill="none" stroke="black" d="M512,-680.5C512,-680.5 627,-680.5 627,-680.5 633,-680.5 639,-686.5 639,-692.5 639,-692.5 639,-836.5 639,-836.5 639,-842.5 633,-848.5 627,-848.5 627,-848.5 512,-848.5 512,-848.5 506,-848.5 500,-842.5 500,-836.5 500,-836.5 500,-692.5 500,-692.5 500,-686.5 506,-680.5 512,-680.5"/>
<text text-anchor="middle" x="569.5" y="-833.3" font-family="Times,serif" font-size="14.00">InstallmentsController</text>
<polyline fill="none" stroke="black" points="500,-825.5 639,-825.5 "/>
<text text-anchor="start" x="508" y="-810.3" font-family="Times,serif" font-size="14.00">create</text>
<text text-anchor="start" x="508" y="-795.3" font-family="Times,serif" font-size="14.00">demo_complete</text>
<text text-anchor="start" x="508" y="-780.3" font-family="Times,serif" font-size="14.00">edit</text>
<text text-anchor="start" x="508" y="-765.3" font-family="Times,serif" font-size="14.00">new</text>
<text text-anchor="start" x="508" y="-750.3" font-family="Times,serif" font-size="14.00">update</text>
<polyline fill="none" stroke="black" points="500,-742.5 639,-742.5 "/>
<polyline fill="none" stroke="black" points="500,-718.5 639,-718.5 "/>
<text text-anchor="start" x="508" y="-703.3" font-family="Times,serif" font-size="14.00">_layout</text>
<text text-anchor="start" x="508" y="-688.3" font-family="Times,serif" font-size="14.00">i_params</text>
</g>
<!-- ProjectsController -->
<g id="node12" class="node"><title>ProjectsController</title>
<path fill="none" stroke="black" d="M192,-240.5C192,-240.5 284,-240.5 284,-240.5 290,-240.5 296,-246.5 296,-252.5 296,-252.5 296,-546.5 296,-546.5 296,-552.5 290,-558.5 284,-558.5 284,-558.5 192,-558.5 192,-558.5 186,-558.5 180,-552.5 180,-546.5 180,-546.5 180,-252.5 180,-252.5 180,-246.5 186,-240.5 192,-240.5"/>
<text text-anchor="middle" x="238" y="-543.3" font-family="Times,serif" font-size="14.00">ProjectsController</text>
<polyline fill="none" stroke="black" points="180,-535.5 296,-535.5 "/>
<text text-anchor="start" x="188" y="-520.3" font-family="Times,serif" font-size="14.00">activate</text>
<text text-anchor="start" x="188" y="-505.3" font-family="Times,serif" font-size="14.00">add_group</text>
<text text-anchor="start" x="188" y="-490.3" font-family="Times,serif" font-size="14.00">create</text>
<text text-anchor="start" x="188" y="-475.3" font-family="Times,serif" font-size="14.00">destroy</text>
<text text-anchor="start" x="188" y="-460.3" font-family="Times,serif" font-size="14.00">edit</text>
<text text-anchor="start" x="188" y="-445.3" font-family="Times,serif" font-size="14.00">index</text>
<text text-anchor="start" x="188" y="-430.3" font-family="Times,serif" font-size="14.00">new</text>
<text text-anchor="start" x="188" y="-415.3" font-family="Times,serif" font-size="14.00">remove_group</text>
<text text-anchor="start" x="188" y="-400.3" font-family="Times,serif" font-size="14.00">rescore_group</text>
<text text-anchor="start" x="188" y="-385.3" font-family="Times,serif" font-size="14.00">rescore_groups</text>
<text text-anchor="start" x="188" y="-370.3" font-family="Times,serif" font-size="14.00">show</text>
<text text-anchor="start" x="188" y="-355.3" font-family="Times,serif" font-size="14.00">update</text>
<polyline fill="none" stroke="black" points="180,-347.5 296,-347.5 "/>
<polyline fill="none" stroke="black" points="180,-323.5 296,-323.5 "/>
<text text-anchor="start" x="188" y="-308.3" font-family="Times,serif" font-size="14.00">_layout</text>
<text text-anchor="start" x="188" y="-293.3" font-family="Times,serif" font-size="14.00">check_editor</text>
<text text-anchor="start" x="188" y="-278.3" font-family="Times,serif" font-size="14.00">check_viewer</text>
<text text-anchor="start" x="188" y="-263.3" font-family="Times,serif" font-size="14.00">project_params</text>
<text text-anchor="start" x="188" y="-248.3" font-family="Times,serif" font-size="14.00">set_project</text>
</g>
<!-- RegistrationsController -->
<g id="node13" class="node"><title>RegistrationsController</title>
<path fill="none" stroke="black" d="M12,-400.5C12,-400.5 132,-400.5 132,-400.5 138,-400.5 144,-406.5 144,-412.5 144,-412.5 144,-540.5 144,-540.5 144,-546.5 138,-552.5 132,-552.5 132,-552.5 12,-552.5 12,-552.5 6,-552.5 0,-546.5 0,-540.5 0,-540.5 0,-412.5 0,-412.5 0,-406.5 6,-400.5 12,-400.5"/>
<text text-anchor="middle" x="72" y="-537.3" font-family="Times,serif" font-size="14.00">RegistrationsController</text>
<polyline fill="none" stroke="black" points="0,-529.5 144,-529.5 "/>
<text text-anchor="start" x="8" y="-514.3" font-family="Times,serif" font-size="14.00">add_email</text>
<text text-anchor="start" x="8" y="-499.3" font-family="Times,serif" font-size="14.00">initiate_password_reset</text>
<text text-anchor="start" x="8" y="-484.3" font-family="Times,serif" font-size="14.00">remove_email</text>
<text text-anchor="start" x="8" y="-469.3" font-family="Times,serif" font-size="14.00">set_primary_email</text>
<polyline fill="none" stroke="black" points="0,-461.5 144,-461.5 "/>
<text text-anchor="start" x="8" y="-446.3" font-family="Times,serif" font-size="14.00">update_resource</text>
<polyline fill="none" stroke="black" points="0,-438.5 144,-438.5 "/>
<text text-anchor="start" x="8" y="-423.3" font-family="Times,serif" font-size="14.00">_layout</text>
<text text-anchor="start" x="8" y="-408.3" font-family="Times,serif" font-size="14.00">set_email</text>
</g>
<!-- SchoolsController -->
<g id="node14" class="node"><title>SchoolsController</title>
<path fill="none" stroke="black" d="M152,-660.5C152,-660.5 243,-660.5 243,-660.5 249,-660.5 255,-666.5 255,-672.5 255,-672.5 255,-876.5 255,-876.5 255,-882.5 249,-888.5 243,-888.5 243,-888.5 152,-888.5 152,-888.5 146,-888.5 140,-882.5 140,-876.5 140,-876.5 140,-672.5 140,-672.5 140,-666.5 146,-660.5 152,-660.5"/>
<text text-anchor="middle" x="197.5" y="-873.3" font-family="Times,serif" font-size="14.00">SchoolsController</text>
<polyline fill="none" stroke="black" points="140,-865.5 255,-865.5 "/>
<text text-anchor="start" x="148" y="-850.3" font-family="Times,serif" font-size="14.00">create</text>
<text text-anchor="start" x="148" y="-835.3" font-family="Times,serif" font-size="14.00">destroy</text>
<text text-anchor="start" x="148" y="-820.3" font-family="Times,serif" font-size="14.00">edit</text>
<text text-anchor="start" x="148" y="-805.3" font-family="Times,serif" font-size="14.00">index</text>
<text text-anchor="start" x="148" y="-790.3" font-family="Times,serif" font-size="14.00">new</text>
<text text-anchor="start" x="148" y="-775.3" font-family="Times,serif" font-size="14.00">show</text>
<text text-anchor="start" x="148" y="-760.3" font-family="Times,serif" font-size="14.00">update</text>
<polyline fill="none" stroke="black" points="140,-752.5 255,-752.5 "/>
<polyline fill="none" stroke="black" points="140,-728.5 255,-728.5 "/>
<text text-anchor="start" x="148" y="-713.3" font-family="Times,serif" font-size="14.00">_layout</text>
<text text-anchor="start" x="148" y="-698.3" font-family="Times,serif" font-size="14.00">check_admin</text>
<text text-anchor="start" x="148" y="-683.3" font-family="Times,serif" font-size="14.00">school_params</text>
<text text-anchor="start" x="148" y="-668.3" font-family="Times,serif" font-size="14.00">set_school</text>
</g>
<!-- Users::OmniauthCallbacksController -->
<g id="node15" class="node"><title>Users::OmniauthCallbacksController</title>
<path fill="none" stroke="black" d="M412,-80.5C412,-80.5 606,-80.5 606,-80.5 612,-80.5 618,-86.5 618,-92.5 618,-92.5 618,-176.5 618,-176.5 618,-182.5 612,-188.5 606,-188.5 606,-188.5 412,-188.5 412,-188.5 406,-188.5 400,-182.5 400,-176.5 400,-176.5 400,-92.5 400,-92.5 400,-86.5 406,-80.5 412,-80.5"/>
<text text-anchor="middle" x="509" y="-173.3" font-family="Times,serif" font-size="14.00">Users::OmniauthCallbacksController</text>
<polyline fill="none" stroke="black" points="400,-165.5 618,-165.5 "/>
<text text-anchor="start" x="408" y="-150.3" font-family="Times,serif" font-size="14.00">failure</text>
<text text-anchor="start" x="408" y="-135.3" font-family="Times,serif" font-size="14.00">google_oauth2</text>
<polyline fill="none" stroke="black" points="400,-127.5 618,-127.5 "/>
<polyline fill="none" stroke="black" points="400,-103.5 618,-103.5 "/>
<text text-anchor="start" x="408" y="-88.3" font-family="Times,serif" font-size="14.00">_layout</text>
</g>
</g>
</svg>
