<?xml version="1.0" encoding="UTF-8" standalone="no"?>
<!DOCTYPE svg PUBLIC "-//W3C//DTD SVG 1.1//EN"
 "http://www.w3.org/Graphics/SVG/1.1/DTD/svg11.dtd">
<!-- Generated by graphviz version 2.36.0 (20140111.2315)
 -->
<!-- Title: controllers_diagram Pages: 1 -->
<svg width="919pt" height="849pt"
 viewBox="0.00 0.00 919.00 849.00" xmlns="http://www.w3.org/2000/svg" xmlns:xlink="http://www.w3.org/1999/xlink">
<g id="graph0" class="graph" transform="scale(1 1) rotate(0) translate(4 845)">
<title>controllers_diagram</title>
<polygon fill="none" stroke="none" points="-4,4 -4,-845 915,-845 915,4 -4,4"/>
<!-- _diagram_info -->
<g id="node1" class="node"><title>_diagram_info</title>
<text text-anchor="start" x="344" y="-63.6" font-family="Times,serif" font-size="13.00">Controllers diagram</text>
<text text-anchor="start" x="344" y="-49.6" font-family="Times,serif" font-size="13.00">Date: Apr 01 2017 &#45; 01:43</text>
<text text-anchor="start" x="344" y="-35.6" font-family="Times,serif" font-size="13.00">Migration version: 20170331045901</text>
<text text-anchor="start" x="344" y="-21.6" font-family="Times,serif" font-size="13.00">Generated by RailRoady 1.5.2</text>
<text text-anchor="start" x="344" y="-7.6" font-family="Times,serif" font-size="13.00">http://railroady.prestonlee.com</text>
</g>
<!-- ApplicationController -->
<g id="node2" class="node"><title>ApplicationController</title>
<path fill="none" stroke="black" d="M642,-357.5C642,-357.5 871,-357.5 871,-357.5 877,-357.5 883,-363.5 883,-369.5 883,-369.5 883,-453.5 883,-453.5 883,-459.5 877,-465.5 871,-465.5 871,-465.5 642,-465.5 642,-465.5 636,-465.5 630,-459.5 630,-453.5 630,-453.5 630,-369.5 630,-369.5 630,-363.5 636,-357.5 642,-357.5"/>
<text text-anchor="middle" x="756.5" y="-450.3" font-family="Times,serif" font-size="14.00">ApplicationController</text>
<polyline fill="none" stroke="black" points="630,-442.5 883,-442.5 "/>
<polyline fill="none" stroke="black" points="630,-418.5 883,-418.5 "/>
<text text-anchor="start" x="638" y="-403.3" font-family="Times,serif" font-size="14.00">configure_permitted_parameters</text>
<text text-anchor="start" x="638" y="-388.3" font-family="Times,serif" font-size="14.00">set_time_zone</text>
<polyline fill="none" stroke="black" points="630,-380.5 883,-380.5 "/>
<text text-anchor="start" x="638" y="-365.3" font-family="Times,serif" font-size="14.00">_layout</text>
</g>
<!-- BingoGamesController -->
<g id="node3" class="node"><title>BingoGamesController</title>
<path fill="none" stroke="black" d="M243,-483.5C243,-483.5 399,-483.5 399,-483.5 405,-483.5 411,-489.5 411,-495.5 411,-495.5 411,-714.5 411,-714.5 411,-720.5 405,-726.5 399,-726.5 399,-726.5 243,-726.5 243,-726.5 237,-726.5 231,-720.5 231,-714.5 231,-714.5 231,-495.5 231,-495.5 231,-489.5 237,-483.5 243,-483.5"/>
<text text-anchor="middle" x="321" y="-711.3" font-family="Times,serif" font-size="14.00">BingoGamesController</text>
<polyline fill="none" stroke="black" points="231,-703.5 411,-703.5 "/>
<text text-anchor="start" x="239" y="-688.3" font-family="Times,serif" font-size="14.00">activate</text>
<text text-anchor="start" x="239" y="-673.3" font-family="Times,serif" font-size="14.00">create</text>
<text text-anchor="start" x="239" y="-658.3" font-family="Times,serif" font-size="14.00">destroy</text>
<text text-anchor="start" x="239" y="-643.3" font-family="Times,serif" font-size="14.00">edit</text>
<text text-anchor="start" x="239" y="-628.3" font-family="Times,serif" font-size="14.00">index</text>
<text text-anchor="start" x="239" y="-613.3" font-family="Times,serif" font-size="14.00">new</text>
<text text-anchor="start" x="239" y="-598.3" font-family="Times,serif" font-size="14.00">show</text>
<text text-anchor="start" x="239" y="-583.3" font-family="Times,serif" font-size="14.00">update</text>
<polyline fill="none" stroke="black" points="231,-575.5 411,-575.5 "/>
<polyline fill="none" stroke="black" points="231,-551.5 411,-551.5 "/>
<text text-anchor="start" x="239" y="-536.3" font-family="Times,serif" font-size="14.00">_layout</text>
<text text-anchor="start" x="239" y="-521.3" font-family="Times,serif" font-size="14.00">bingo_game_params</text>
<text text-anchor="start" x="239" y="-506.3" font-family="Times,serif" font-size="14.00">check_admin</text>
<text text-anchor="start" x="239" y="-491.3" font-family="Times,serif" font-size="14.00">set_bingo_game</text>
</g>
<!-- CandidateListsController -->
<g id="node4" class="node"><title>CandidateListsController</title>
<path fill="none" stroke="black" d="M12,-630.5C12,-630.5 187,-630.5 187,-630.5 193,-630.5 199,-636.5 199,-642.5 199,-642.5 199,-742.5 199,-742.5 199,-748.5 193,-754.5 187,-754.5 187,-754.5 12,-754.5 12,-754.5 6,-754.5 0,-748.5 0,-742.5 0,-742.5 0,-642.5 0,-642.5 0,-636.5 6,-630.5 12,-630.5"/>
<text text-anchor="middle" x="99.5" y="-739.3" font-family="Times,serif" font-size="14.00">CandidateListsController</text>
<polyline fill="none" stroke="black" points="0,-731.5 199,-731.5 "/>
<polyline fill="none" stroke="black" points="0,-707.5 199,-707.5 "/>
<polyline fill="none" stroke="black" points="0,-683.5 199,-683.5 "/>
<text text-anchor="start" x="8" y="-668.3" font-family="Times,serif" font-size="14.00">_layout</text>
<text text-anchor="start" x="8" y="-653.3" font-family="Times,serif" font-size="14.00">candidate_list_params</text>
<text text-anchor="start" x="8" y="-638.3" font-family="Times,serif" font-size="14.00">set_candidate_list</text>
</g>
<!-- ConsentLogsController -->
<g id="node5" class="node"><title>ConsentLogsController</title>
<path fill="none" stroke="black" d="M12,-126.5C12,-126.5 172,-126.5 172,-126.5 178,-126.5 184,-132.5 184,-138.5 184,-138.5 184,-237.5 184,-237.5 184,-243.5 178,-249.5 172,-249.5 172,-249.5 12,-249.5 12,-249.5 6,-249.5 0,-243.5 0,-237.5 0,-237.5 0,-138.5 0,-138.5 0,-132.5 6,-126.5 12,-126.5"/>
<text text-anchor="middle" x="92" y="-234.3" font-family="Times,serif" font-size="14.00">ConsentLogsController</text>
<polyline fill="none" stroke="black" points="0,-226.5 184,-226.5 "/>
<text text-anchor="start" x="8" y="-211.3" font-family="Times,serif" font-size="14.00">edit</text>
<text text-anchor="start" x="8" y="-196.3" font-family="Times,serif" font-size="14.00">update</text>
<polyline fill="none" stroke="black" points="0,-188.5 184,-188.5 "/>
<polyline fill="none" stroke="black" points="0,-164.5 184,-164.5 "/>
<text text-anchor="start" x="8" y="-149.3" font-family="Times,serif" font-size="14.00">_layout</text>
<text text-anchor="start" x="8" y="-134.3" font-family="Times,serif" font-size="14.00">cl_params</text>
</g>
<!-- CoursesController -->
<g id="node6" class="node"><title>CoursesController</title>
<path fill="none" stroke="black" d="M453,-189.5C453,-189.5 578,-189.5 578,-189.5 584,-189.5 590,-195.5 590,-201.5 590,-201.5 590,-510.5 590,-510.5 590,-516.5 584,-522.5 578,-522.5 578,-522.5 453,-522.5 453,-522.5 447,-522.5 441,-516.5 441,-510.5 441,-510.5 441,-201.5 441,-201.5 441,-195.5 447,-189.5 453,-189.5"/>
<text text-anchor="middle" x="515.5" y="-507.3" font-family="Times,serif" font-size="14.00">CoursesController</text>
<polyline fill="none" stroke="black" points="441,-499.5 590,-499.5 "/>
<text text-anchor="start" x="449" y="-484.3" font-family="Times,serif" font-size="14.00">accept_roster</text>
<text text-anchor="start" x="449" y="-469.3" font-family="Times,serif" font-size="14.00">add_instructors</text>
<text text-anchor="start" x="449" y="-454.3" font-family="Times,serif" font-size="14.00">add_students</text>
<text text-anchor="start" x="449" y="-439.3" font-family="Times,serif" font-size="14.00">create</text>
<text text-anchor="start" x="449" y="-424.3" font-family="Times,serif" font-size="14.00">decline_roster</text>
<text text-anchor="start" x="449" y="-409.3" font-family="Times,serif" font-size="14.00">destroy</text>
<text text-anchor="start" x="449" y="-394.3" font-family="Times,serif" font-size="14.00">drop_student</text>
<text text-anchor="start" x="449" y="-379.3" font-family="Times,serif" font-size="14.00">edit</text>
<text text-anchor="start" x="449" y="-364.3" font-family="Times,serif" font-size="14.00">index</text>
<text text-anchor="start" x="449" y="-349.3" font-family="Times,serif" font-size="14.00">new</text>
<text text-anchor="start" x="449" y="-334.3" font-family="Times,serif" font-size="14.00">re_invite_student</text>
<text text-anchor="start" x="449" y="-319.3" font-family="Times,serif" font-size="14.00">remove_instructor</text>
<text text-anchor="start" x="449" y="-304.3" font-family="Times,serif" font-size="14.00">show</text>
<text text-anchor="start" x="449" y="-289.3" font-family="Times,serif" font-size="14.00">update</text>
<polyline fill="none" stroke="black" points="441,-281.5 590,-281.5 "/>
<polyline fill="none" stroke="black" points="441,-257.5 590,-257.5 "/>
<text text-anchor="start" x="449" y="-242.3" font-family="Times,serif" font-size="14.00">_layout</text>
<text text-anchor="start" x="449" y="-227.3" font-family="Times,serif" font-size="14.00">check_admin</text>
<text text-anchor="start" x="449" y="-212.3" font-family="Times,serif" font-size="14.00">course_params</text>
<text text-anchor="start" x="449" y="-197.3" font-family="Times,serif" font-size="14.00">set_course</text>
</g>
<!-- ExperiencesController -->
<g id="node7" class="node"><title>ExperiencesController</title>
<path fill="none" stroke="black" d="M243,-126.5C243,-126.5 398,-126.5 398,-126.5 404,-126.5 410,-132.5 410,-138.5 410,-138.5 410,-432.5 410,-432.5 410,-438.5 404,-444.5 398,-444.5 398,-444.5 243,-444.5 243,-444.5 237,-444.5 231,-438.5 231,-432.5 231,-432.5 231,-138.5 231,-138.5 231,-132.5 237,-126.5 243,-126.5"/>
<text text-anchor="middle" x="320.5" y="-429.3" font-family="Times,serif" font-size="14.00">ExperiencesController</text>
<polyline fill="none" stroke="black" points="231,-421.5 410,-421.5 "/>
<text text-anchor="start" x="239" y="-406.3" font-family="Times,serif" font-size="14.00">activate</text>
<text text-anchor="start" x="239" y="-391.3" font-family="Times,serif" font-size="14.00">create</text>
<text text-anchor="start" x="239" y="-376.3" font-family="Times,serif" font-size="14.00">destroy</text>
<text text-anchor="start" x="239" y="-361.3" font-family="Times,serif" font-size="14.00">diagnose</text>
<text text-anchor="start" x="239" y="-346.3" font-family="Times,serif" font-size="14.00">edit</text>
<text text-anchor="start" x="239" y="-331.3" font-family="Times,serif" font-size="14.00">index</text>
<text text-anchor="start" x="239" y="-316.3" font-family="Times,serif" font-size="14.00">new</text>
<text text-anchor="start" x="239" y="-301.3" font-family="Times,serif" font-size="14.00">next</text>
<text text-anchor="start" x="239" y="-286.3" font-family="Times,serif" font-size="14.00">react</text>
<text text-anchor="start" x="239" y="-271.3" font-family="Times,serif" font-size="14.00">show</text>
<text text-anchor="start" x="239" y="-256.3" font-family="Times,serif" font-size="14.00">update</text>
<polyline fill="none" stroke="black" points="231,-248.5 410,-248.5 "/>
<polyline fill="none" stroke="black" points="231,-224.5 410,-224.5 "/>
<text text-anchor="start" x="239" y="-209.3" font-family="Times,serif" font-size="14.00">_layout</text>
<text text-anchor="start" x="239" y="-194.3" font-family="Times,serif" font-size="14.00">check_admin</text>
<text text-anchor="start" x="239" y="-179.3" font-family="Times,serif" font-size="14.00">diagnosis_params</text>
<text text-anchor="start" x="239" y="-164.3" font-family="Times,serif" font-size="14.00">experience_params</text>
<text text-anchor="start" x="239" y="-149.3" font-family="Times,serif" font-size="14.00">reaction_params</text>
<text text-anchor="start" x="239" y="-134.3" font-family="Times,serif" font-size="14.00">set_experience</text>
</g>
<!-- GraphingController -->
<g id="node8" class="node"><title>GraphingController</title>
<path fill="none" stroke="black" d="M642,-0.5C642,-0.5 842,-0.5 842,-0.5 848,-0.5 854,-6.5 854,-12.5 854,-12.5 854,-156.5 854,-156.5 854,-162.5 848,-168.5 842,-168.5 842,-168.5 642,-168.5 642,-168.5 636,-168.5 630,-162.5 630,-156.5 630,-156.5 630,-12.5 630,-12.5 630,-6.5 636,-0.5 642,-0.5"/>
<text text-anchor="middle" x="742" y="-153.3" font-family="Times,serif" font-size="14.00">GraphingController</text>
<polyline fill="none" stroke="black" points="630,-145.5 854,-145.5 "/>
<text text-anchor="start" x="638" y="-130.3" font-family="Times,serif" font-size="14.00">data</text>
<text text-anchor="start" x="638" y="-115.3" font-family="Times,serif" font-size="14.00">index</text>
<text text-anchor="start" x="638" y="-100.3" font-family="Times,serif" font-size="14.00">individual_summary_data</text>
<text text-anchor="start" x="638" y="-85.3" font-family="Times,serif" font-size="14.00">pull_and_organise_user_data</text>
<text text-anchor="start" x="638" y="-70.3" font-family="Times,serif" font-size="14.00">raw_data</text>
<text text-anchor="start" x="638" y="-55.3" font-family="Times,serif" font-size="14.00">subjects</text>
<polyline fill="none" stroke="black" points="630,-47.5 854,-47.5 "/>
<polyline fill="none" stroke="black" points="630,-23.5 854,-23.5 "/>
<text text-anchor="start" x="638" y="-8.3" font-family="Times,serif" font-size="14.00">_layout</text>
</g>
<!-- HomeController -->
<g id="node9" class="node"><title>HomeController</title>
<path fill="none" stroke="black" d="M453,-567.5C453,-567.5 562,-567.5 562,-567.5 568,-567.5 574,-573.5 574,-579.5 574,-579.5 574,-648.5 574,-648.5 574,-654.5 568,-660.5 562,-660.5 562,-660.5 453,-660.5 453,-660.5 447,-660.5 441,-654.5 441,-648.5 441,-648.5 441,-579.5 441,-579.5 441,-573.5 447,-567.5 453,-567.5"/>
<text text-anchor="middle" x="507.5" y="-645.3" font-family="Times,serif" font-size="14.00">HomeController</text>
<polyline fill="none" stroke="black" points="441,-637.5 574,-637.5 "/>
<text text-anchor="start" x="449" y="-622.3" font-family="Times,serif" font-size="14.00">index</text>
<polyline fill="none" stroke="black" points="441,-614.5 574,-614.5 "/>
<polyline fill="none" stroke="black" points="441,-590.5 574,-590.5 "/>
<text text-anchor="start" x="449" y="-575.3" font-family="Times,serif" font-size="14.00">_layout</text>
</g>
<!-- InstallmentsController -->
<g id="node10" class="node"><title>InstallmentsController</title>
<path fill="none" stroke="black" d="M33,-294.5C33,-294.5 189,-294.5 189,-294.5 195,-294.5 201,-300.5 201,-306.5 201,-306.5 201,-465.5 201,-465.5 201,-471.5 195,-477.5 189,-477.5 189,-477.5 33,-477.5 33,-477.5 27,-477.5 21,-471.5 21,-465.5 21,-465.5 21,-306.5 21,-306.5 21,-300.5 27,-294.5 33,-294.5"/>
<text text-anchor="middle" x="111" y="-462.3" font-family="Times,serif" font-size="14.00">InstallmentsController</text>
<polyline fill="none" stroke="black" points="21,-454.5 201,-454.5 "/>
<text text-anchor="start" x="29" y="-439.3" font-family="Times,serif" font-size="14.00">create</text>
<text text-anchor="start" x="29" y="-424.3" font-family="Times,serif" font-size="14.00">demo_complete</text>
<text text-anchor="start" x="29" y="-409.3" font-family="Times,serif" font-size="14.00">demo_start</text>
<text text-anchor="start" x="29" y="-394.3" font-family="Times,serif" font-size="14.00">edit</text>
<text text-anchor="start" x="29" y="-379.3" font-family="Times,serif" font-size="14.00">new</text>
<text text-anchor="start" x="29" y="-364.3" font-family="Times,serif" font-size="14.00">update</text>
<polyline fill="none" stroke="black" points="21,-356.5 201,-356.5 "/>
<polyline fill="none" stroke="black" points="21,-332.5 201,-332.5 "/>
<text text-anchor="start" x="29" y="-317.3" font-family="Times,serif" font-size="14.00">_layout</text>
<text text-anchor="start" x="29" y="-302.3" font-family="Times,serif" font-size="14.00">i_params</text>
</g>
<!-- ProjectsController -->
<g id="node11" class="node"><title>ProjectsController</title>
<path fill="none" stroke="black" d="M621,-567.5C621,-567.5 746,-567.5 746,-567.5 752,-567.5 758,-573.5 758,-579.5 758,-579.5 758,-828.5 758,-828.5 758,-834.5 752,-840.5 746,-840.5 746,-840.5 621,-840.5 621,-840.5 615,-840.5 609,-834.5 609,-828.5 609,-828.5 609,-579.5 609,-579.5 609,-573.5 615,-567.5 621,-567.5"/>
<text text-anchor="middle" x="683.5" y="-825.3" font-family="Times,serif" font-size="14.00">ProjectsController</text>
<polyline fill="none" stroke="black" points="609,-817.5 758,-817.5 "/>
<text text-anchor="start" x="617" y="-802.3" font-family="Times,serif" font-size="14.00">activate</text>
<text text-anchor="start" x="617" y="-787.3" font-family="Times,serif" font-size="14.00">add_group</text>
<text text-anchor="start" x="617" y="-772.3" font-family="Times,serif" font-size="14.00">create</text>
<text text-anchor="start" x="617" y="-757.3" font-family="Times,serif" font-size="14.00">destroy</text>
<text text-anchor="start" x="617" y="-742.3" font-family="Times,serif" font-size="14.00">edit</text>
<text text-anchor="start" x="617" y="-727.3" font-family="Times,serif" font-size="14.00">index</text>
<text text-anchor="start" x="617" y="-712.3" font-family="Times,serif" font-size="14.00">new</text>
<text text-anchor="start" x="617" y="-697.3" font-family="Times,serif" font-size="14.00">remove_group</text>
<text text-anchor="start" x="617" y="-682.3" font-family="Times,serif" font-size="14.00">show</text>
<text text-anchor="start" x="617" y="-667.3" font-family="Times,serif" font-size="14.00">update</text>
<polyline fill="none" stroke="black" points="609,-659.5 758,-659.5 "/>
<polyline fill="none" stroke="black" points="609,-635.5 758,-635.5 "/>
<text text-anchor="start" x="617" y="-620.3" font-family="Times,serif" font-size="14.00">_layout</text>
<text text-anchor="start" x="617" y="-605.3" font-family="Times,serif" font-size="14.00">check_admin</text>
<text text-anchor="start" x="617" y="-590.3" font-family="Times,serif" font-size="14.00">project_params</text>
<text text-anchor="start" x="617" y="-575.3" font-family="Times,serif" font-size="14.00">set_project</text>
</g>
<!-- RegistrationsController -->
<g id="node12" class="node"><title>RegistrationsController</title>
<path fill="none" stroke="black" d="M54,-0.5C54,-0.5 216,-0.5 216,-0.5 222,-0.5 228,-6.5 228,-12.5 228,-12.5 228,-81.5 228,-81.5 228,-87.5 222,-93.5 216,-93.5 216,-93.5 54,-93.5 54,-93.5 48,-93.5 42,-87.5 42,-81.5 42,-81.5 42,-12.5 42,-12.5 42,-6.5 48,-0.5 54,-0.5"/>
<text text-anchor="middle" x="135" y="-78.3" font-family="Times,serif" font-size="14.00">RegistrationsController</text>
<polyline fill="none" stroke="black" points="42,-70.5 228,-70.5 "/>
<polyline fill="none" stroke="black" points="42,-46.5 228,-46.5 "/>
<text text-anchor="start" x="50" y="-31.3" font-family="Times,serif" font-size="14.00">update_resource</text>
<polyline fill="none" stroke="black" points="42,-23.5 228,-23.5 "/>
<text text-anchor="start" x="50" y="-8.3" font-family="Times,serif" font-size="14.00">_layout</text>
</g>
<!-- Users::OmniauthCallbacksController -->
<g id="node13" class="node"><title>Users::OmniauthCallbacksController</title>
<path fill="none" stroke="black" d="M642,-210.5C642,-210.5 899,-210.5 899,-210.5 905,-210.5 911,-216.5 911,-222.5 911,-222.5 911,-306.5 911,-306.5 911,-312.5 905,-318.5 899,-318.5 899,-318.5 642,-318.5 642,-318.5 636,-318.5 630,-312.5 630,-306.5 630,-306.5 630,-222.5 630,-222.5 630,-216.5 636,-210.5 642,-210.5"/>
<text text-anchor="middle" x="770.5" y="-303.3" font-family="Times,serif" font-size="14.00">Users::OmniauthCallbacksController</text>
<polyline fill="none" stroke="black" points="630,-295.5 911,-295.5 "/>
<text text-anchor="start" x="638" y="-280.3" font-family="Times,serif" font-size="14.00">failure</text>
<text text-anchor="start" x="638" y="-265.3" font-family="Times,serif" font-size="14.00">google_oauth2</text>
<polyline fill="none" stroke="black" points="630,-257.5 911,-257.5 "/>
<polyline fill="none" stroke="black" points="630,-233.5 911,-233.5 "/>
<text text-anchor="start" x="638" y="-218.3" font-family="Times,serif" font-size="14.00">_layout</text>
</g>
</g>
</svg>
