<?xml version="1.0" encoding="UTF-8" standalone="no"?>
<!DOCTYPE svg PUBLIC "-//W3C//DTD SVG 1.1//EN"
 "http://www.w3.org/Graphics/SVG/1.1/DTD/svg11.dtd">
<!-- Generated by graphviz version 2.38.0 (20140413.2041)
 -->
<!-- Title: controllers_diagram Pages: 1 -->
<svg width="720pt" height="724pt"
 viewBox="0.00 0.00 719.50 723.50" xmlns="http://www.w3.org/2000/svg" xmlns:xlink="http://www.w3.org/1999/xlink">
<g id="graph0" class="graph" transform="scale(1 1) rotate(0) translate(250.5 453.5)">
<title>controllers_diagram</title>
<polygon fill="none" stroke="none" points="-250.5,270 -250.5,-453.5 469,-453.5 469,270 -250.5,270"/>
<!-- _diagram_info -->
<g id="node1" class="node"><title>_diagram_info</title>
<text text-anchor="start" x="8" y="202.4" font-family="Times,serif" font-size="13.00">Controllers diagram</text>
<text text-anchor="start" x="8" y="216.4" font-family="Times,serif" font-size="13.00">Date: Mar 22 2017 &#45; 17:21</text>
<text text-anchor="start" x="8" y="230.4" font-family="Times,serif" font-size="13.00">Migration version: 20170320150239</text>
<text text-anchor="start" x="8" y="244.4" font-family="Times,serif" font-size="13.00">Generated by RailRoady 1.5.2</text>
<text text-anchor="start" x="8" y="258.4" font-family="Times,serif" font-size="13.00">http://railroady.prestonlee.com</text>
</g>
<!-- ProjectsController -->
<g id="node2" class="node"><title>ProjectsController</title>
<path fill="none" stroke="black" d="M-45,-191C-45,-191 47,-191 47,-191 53,-191 59,-197 59,-203 59,-203 59,-437 59,-437 59,-443 53,-449 47,-449 47,-449 -45,-449 -45,-449 -51,-449 -57,-443 -57,-437 -57,-437 -57,-203 -57,-203 -57,-197 -51,-191 -45,-191"/>
<text text-anchor="middle" x="1" y="-433.8" font-family="Times,serif" font-size="14.00">ProjectsController</text>
<polyline fill="none" stroke="black" points="-57,-426 59,-426 "/>
<text text-anchor="start" x="-49" y="-410.8" font-family="Times,serif" font-size="14.00">add_group</text>
<text text-anchor="start" x="-49" y="-395.8" font-family="Times,serif" font-size="14.00">create</text>
<text text-anchor="start" x="-49" y="-380.8" font-family="Times,serif" font-size="14.00">destroy</text>
<text text-anchor="start" x="-49" y="-365.8" font-family="Times,serif" font-size="14.00">edit</text>
<text text-anchor="start" x="-49" y="-350.8" font-family="Times,serif" font-size="14.00">index</text>
<text text-anchor="start" x="-49" y="-335.8" font-family="Times,serif" font-size="14.00">new</text>
<text text-anchor="start" x="-49" y="-320.8" font-family="Times,serif" font-size="14.00">remove_group</text>
<text text-anchor="start" x="-49" y="-305.8" font-family="Times,serif" font-size="14.00">show</text>
<text text-anchor="start" x="-49" y="-290.8" font-family="Times,serif" font-size="14.00">update</text>
<polyline fill="none" stroke="black" points="-57,-283 59,-283 "/>
<polyline fill="none" stroke="black" points="-57,-259 59,-259 "/>
<text text-anchor="start" x="-49" y="-243.8" font-family="Times,serif" font-size="14.00">_layout</text>
<text text-anchor="start" x="-49" y="-228.8" font-family="Times,serif" font-size="14.00">check_admin</text>
<text text-anchor="start" x="-49" y="-213.8" font-family="Times,serif" font-size="14.00">project_params</text>
<text text-anchor="start" x="-49" y="-198.8" font-family="Times,serif" font-size="14.00">set_project</text>
</g>
<!-- CoursesController -->
<g id="node3" class="node"><title>CoursesController</title>
<path fill="none" stroke="black" d="M107,94.5C107,94.5 199,94.5 199,94.5 205,94.5 211,88.5 211,82.5 211,82.5 211,-196.5 211,-196.5 211,-202.5 205,-208.5 199,-208.5 199,-208.5 107,-208.5 107,-208.5 101,-208.5 95,-202.5 95,-196.5 95,-196.5 95,82.5 95,82.5 95,88.5 101,94.5 107,94.5"/>
<text text-anchor="middle" x="153" y="-193.3" font-family="Times,serif" font-size="14.00">CoursesController</text>
<polyline fill="none" stroke="black" points="95,-185.5 211,-185.5 "/>
<text text-anchor="start" x="103" y="-170.3" font-family="Times,serif" font-size="14.00">accept_roster</text>
<text text-anchor="start" x="103" y="-155.3" font-family="Times,serif" font-size="14.00">add_instructors</text>
<text text-anchor="start" x="103" y="-140.3" font-family="Times,serif" font-size="14.00">add_students</text>
<text text-anchor="start" x="103" y="-125.3" font-family="Times,serif" font-size="14.00">create</text>
<text text-anchor="start" x="103" y="-110.3" font-family="Times,serif" font-size="14.00">decline_roster</text>
<text text-anchor="start" x="103" y="-95.3" font-family="Times,serif" font-size="14.00">destroy</text>
<text text-anchor="start" x="103" y="-80.3" font-family="Times,serif" font-size="14.00">drop_student</text>
<text text-anchor="start" x="103" y="-65.3" font-family="Times,serif" font-size="14.00">edit</text>
<text text-anchor="start" x="103" y="-50.3" font-family="Times,serif" font-size="14.00">index</text>
<text text-anchor="start" x="103" y="-35.3" font-family="Times,serif" font-size="14.00">new</text>
<text text-anchor="start" x="103" y="-20.3" font-family="Times,serif" font-size="14.00">show</text>
<text text-anchor="start" x="103" y="-5.3" font-family="Times,serif" font-size="14.00">update</text>
<polyline fill="none" stroke="black" points="95,2.5 211,2.5 "/>
<polyline fill="none" stroke="black" points="95,26.5 211,26.5 "/>
<text text-anchor="start" x="103" y="41.7" font-family="Times,serif" font-size="14.00">_layout</text>
<text text-anchor="start" x="103" y="56.7" font-family="Times,serif" font-size="14.00">check_admin</text>
<text text-anchor="start" x="103" y="71.7" font-family="Times,serif" font-size="14.00">course_params</text>
<text text-anchor="start" x="103" y="86.7" font-family="Times,serif" font-size="14.00">set_course</text>
</g>
<!-- ApplicationController -->
<g id="node4" class="node"><title>ApplicationController</title>
<path fill="none" stroke="black" d="M259,-115C259,-115 429,-115 429,-115 435,-115 441,-121 441,-127 441,-127 441,-211 441,-211 441,-217 435,-223 429,-223 429,-223 259,-223 259,-223 253,-223 247,-217 247,-211 247,-211 247,-127 247,-127 247,-121 253,-115 259,-115"/>
<text text-anchor="middle" x="344" y="-207.8" font-family="Times,serif" font-size="14.00">ApplicationController</text>
<polyline fill="none" stroke="black" points="247,-200 441,-200 "/>
<polyline fill="none" stroke="black" points="247,-176 441,-176 "/>
<text text-anchor="start" x="255" y="-160.8" font-family="Times,serif" font-size="14.00">configure_permitted_parameters</text>
<text text-anchor="start" x="255" y="-145.8" font-family="Times,serif" font-size="14.00">set_time_zone</text>
<polyline fill="none" stroke="black" points="247,-138 441,-138 "/>
<text text-anchor="start" x="255" y="-122.8" font-family="Times,serif" font-size="14.00">_layout</text>
</g>
<!-- RegistrationsController -->
<g id="node5" class="node"><title>RegistrationsController</title>
<path fill="none" stroke="black" d="M-234.5,56.5C-234.5,56.5 -115.5,56.5 -115.5,56.5 -109.5,56.5 -103.5,50.5 -103.5,44.5 -103.5,44.5 -103.5,-24.5 -103.5,-24.5 -103.5,-30.5 -109.5,-36.5 -115.5,-36.5 -115.5,-36.5 -234.5,-36.5 -234.5,-36.5 -240.5,-36.5 -246.5,-30.5 -246.5,-24.5 -246.5,-24.5 -246.5,44.5 -246.5,44.5 -246.5,50.5 -240.5,56.5 -234.5,56.5"/>
<text text-anchor="middle" x="-175" y="-21.3" font-family="Times,serif" font-size="14.00">RegistrationsController</text>
<polyline fill="none" stroke="black" points="-246.5,-13.5 -103.5,-13.5 "/>
<polyline fill="none" stroke="black" points="-246.5,10.5 -103.5,10.5 "/>
<text text-anchor="start" x="-238.5" y="25.7" font-family="Times,serif" font-size="14.00">update_resource</text>
<polyline fill="none" stroke="black" points="-246.5,33.5 -103.5,33.5 "/>
<text text-anchor="start" x="-238.5" y="48.7" font-family="Times,serif" font-size="14.00">_layout</text>
</g>
<!-- ExperiencesController -->
<g id="node6" class="node"><title>ExperiencesController</title>
<path fill="none" stroke="black" d="M-64,151.5C-64,151.5 50,151.5 50,151.5 56,151.5 62,145.5 62,139.5 62,139.5 62,-139.5 62,-139.5 62,-145.5 56,-151.5 50,-151.5 50,-151.5 -64,-151.5 -64,-151.5 -70,-151.5 -76,-145.5 -76,-139.5 -76,-139.5 -76,139.5 -76,139.5 -76,145.5 -70,151.5 -64,151.5"/>
<text text-anchor="middle" x="-7" y="-136.3" font-family="Times,serif" font-size="14.00">ExperiencesController</text>
<polyline fill="none" stroke="black" points="-76,-128.5 62,-128.5 "/>
<text text-anchor="start" x="-68" y="-113.3" font-family="Times,serif" font-size="14.00">create</text>
<text text-anchor="start" x="-68" y="-98.3" font-family="Times,serif" font-size="14.00">destroy</text>
<text text-anchor="start" x="-68" y="-83.3" font-family="Times,serif" font-size="14.00">diagnose</text>
<text text-anchor="start" x="-68" y="-68.3" font-family="Times,serif" font-size="14.00">edit</text>
<text text-anchor="start" x="-68" y="-53.3" font-family="Times,serif" font-size="14.00">index</text>
<text text-anchor="start" x="-68" y="-38.3" font-family="Times,serif" font-size="14.00">new</text>
<text text-anchor="start" x="-68" y="-23.3" font-family="Times,serif" font-size="14.00">next</text>
<text text-anchor="start" x="-68" y="-8.3" font-family="Times,serif" font-size="14.00">react</text>
<text text-anchor="start" x="-68" y="6.7" font-family="Times,serif" font-size="14.00">show</text>
<text text-anchor="start" x="-68" y="21.7" font-family="Times,serif" font-size="14.00">update</text>
<polyline fill="none" stroke="black" points="-76,29.5 62,29.5 "/>
<polyline fill="none" stroke="black" points="-76,53.5 62,53.5 "/>
<text text-anchor="start" x="-68" y="68.7" font-family="Times,serif" font-size="14.00">_layout</text>
<text text-anchor="start" x="-68" y="83.7" font-family="Times,serif" font-size="14.00">check_admin</text>
<text text-anchor="start" x="-68" y="98.7" font-family="Times,serif" font-size="14.00">diagnosis_params</text>
<text text-anchor="start" x="-68" y="113.7" font-family="Times,serif" font-size="14.00">experience_params</text>
<text text-anchor="start" x="-68" y="128.7" font-family="Times,serif" font-size="14.00">reaction_params</text>
<text text-anchor="start" x="-68" y="143.7" font-family="Times,serif" font-size="14.00">set_experience</text>
</g>
<!-- Users::OmniauthCallbacksController -->
<g id="node7" class="node"><title>Users::OmniauthCallbacksController</title>
<path fill="none" stroke="black" d="M259,37C259,37 453,37 453,37 459,37 465,31 465,25 465,25 465,-59 465,-59 465,-65 459,-71 453,-71 453,-71 259,-71 259,-71 253,-71 247,-65 247,-59 247,-59 247,25 247,25 247,31 253,37 259,37"/>
<text text-anchor="middle" x="356" y="-55.8" font-family="Times,serif" font-size="14.00">Users::OmniauthCallbacksController</text>
<polyline fill="none" stroke="black" points="247,-48 465,-48 "/>
<text text-anchor="start" x="255" y="-32.8" font-family="Times,serif" font-size="14.00">failure</text>
<text text-anchor="start" x="255" y="-17.8" font-family="Times,serif" font-size="14.00">google_oauth2</text>
<polyline fill="none" stroke="black" points="247,-10 465,-10 "/>
<polyline fill="none" stroke="black" points="247,14 465,14 "/>
<text text-anchor="start" x="255" y="29.2" font-family="Times,serif" font-size="14.00">_layout</text>
</g>
<!-- HomeController -->
<g id="node8" class="node"><title>HomeController</title>
<path fill="none" stroke="black" d="M-197,189.5C-197,189.5 -115,189.5 -115,189.5 -109,189.5 -103,183.5 -103,177.5 -103,177.5 -103,108.5 -103,108.5 -103,102.5 -109,96.5 -115,96.5 -115,96.5 -197,96.5 -197,96.5 -203,96.5 -209,102.5 -209,108.5 -209,108.5 -209,177.5 -209,177.5 -209,183.5 -203,189.5 -197,189.5"/>
<text text-anchor="middle" x="-156" y="111.7" font-family="Times,serif" font-size="14.00">HomeController</text>
<polyline fill="none" stroke="black" points="-209,119.5 -103,119.5 "/>
<text text-anchor="start" x="-201" y="134.7" font-family="Times,serif" font-size="14.00">index</text>
<polyline fill="none" stroke="black" points="-209,142.5 -103,142.5 "/>
<polyline fill="none" stroke="black" points="-209,166.5 -103,166.5 "/>
<text text-anchor="start" x="-201" y="181.7" font-family="Times,serif" font-size="14.00">_layout</text>
</g>
<!-- InstallmentsController -->
<g id="node9" class="node"><title>InstallmentsController</title>
<path fill="none" stroke="black" d="M-215.5,-228.5C-215.5,-228.5 -100.5,-228.5 -100.5,-228.5 -94.5,-228.5 -88.5,-234.5 -88.5,-240.5 -88.5,-240.5 -88.5,-399.5 -88.5,-399.5 -88.5,-405.5 -94.5,-411.5 -100.5,-411.5 -100.5,-411.5 -215.5,-411.5 -215.5,-411.5 -221.5,-411.5 -227.5,-405.5 -227.5,-399.5 -227.5,-399.5 -227.5,-240.5 -227.5,-240.5 -227.5,-234.5 -221.5,-228.5 -215.5,-228.5"/>
<text text-anchor="middle" x="-158" y="-396.3" font-family="Times,serif" font-size="14.00">InstallmentsController</text>
<polyline fill="none" stroke="black" points="-227.5,-388.5 -88.5,-388.5 "/>
<text text-anchor="start" x="-219.5" y="-373.3" font-family="Times,serif" font-size="14.00">create</text>
<text text-anchor="start" x="-219.5" y="-358.3" font-family="Times,serif" font-size="14.00">demo_complete</text>
<text text-anchor="start" x="-219.5" y="-343.3" font-family="Times,serif" font-size="14.00">demo_start</text>
<text text-anchor="start" x="-219.5" y="-328.3" font-family="Times,serif" font-size="14.00">edit</text>
<text text-anchor="start" x="-219.5" y="-313.3" font-family="Times,serif" font-size="14.00">new</text>
<text text-anchor="start" x="-219.5" y="-298.3" font-family="Times,serif" font-size="14.00">update</text>
<polyline fill="none" stroke="black" points="-227.5,-290.5 -88.5,-290.5 "/>
<polyline fill="none" stroke="black" points="-227.5,-266.5 -88.5,-266.5 "/>
<text text-anchor="start" x="-219.5" y="-251.3" font-family="Times,serif" font-size="14.00">_layout</text>
<text text-anchor="start" x="-219.5" y="-236.3" font-family="Times,serif" font-size="14.00">i_params</text>
</g>
<!-- ConsentLogsController -->
<g id="node10" class="node"><title>ConsentLogsController</title>
<path fill="none" stroke="black" d="M-234.5,-76.5C-234.5,-76.5 -115.5,-76.5 -115.5,-76.5 -109.5,-76.5 -103.5,-82.5 -103.5,-88.5 -103.5,-88.5 -103.5,-187.5 -103.5,-187.5 -103.5,-193.5 -109.5,-199.5 -115.5,-199.5 -115.5,-199.5 -234.5,-199.5 -234.5,-199.5 -240.5,-199.5 -246.5,-193.5 -246.5,-187.5 -246.5,-187.5 -246.5,-88.5 -246.5,-88.5 -246.5,-82.5 -240.5,-76.5 -234.5,-76.5"/>
<text text-anchor="middle" x="-175" y="-184.3" font-family="Times,serif" font-size="14.00">ConsentLogsController</text>
<polyline fill="none" stroke="black" points="-246.5,-176.5 -103.5,-176.5 "/>
<text text-anchor="start" x="-238.5" y="-161.3" font-family="Times,serif" font-size="14.00">edit</text>
<text text-anchor="start" x="-238.5" y="-146.3" font-family="Times,serif" font-size="14.00">update</text>
<polyline fill="none" stroke="black" points="-246.5,-138.5 -103.5,-138.5 "/>
<polyline fill="none" stroke="black" points="-246.5,-114.5 -103.5,-114.5 "/>
<text text-anchor="start" x="-238.5" y="-99.3" font-family="Times,serif" font-size="14.00">_layout</text>
<text text-anchor="start" x="-238.5" y="-84.3" font-family="Times,serif" font-size="14.00">cl_params</text>
</g>
<!-- GraphingController -->
<g id="node11" class="node"><title>GraphingController</title>
<path fill="none" stroke="black" d="M259.5,247C259.5,247 410.5,247 410.5,247 416.5,247 422.5,241 422.5,235 422.5,235 422.5,91 422.5,91 422.5,85 416.5,79 410.5,79 410.5,79 259.5,79 259.5,79 253.5,79 247.5,85 247.5,91 247.5,91 247.5,235 247.5,235 247.5,241 253.5,247 259.5,247"/>
<text text-anchor="middle" x="335" y="94.2" font-family="Times,serif" font-size="14.00">GraphingController</text>
<polyline fill="none" stroke="black" points="247.5,102 422.5,102 "/>
<text text-anchor="start" x="255.5" y="117.2" font-family="Times,serif" font-size="14.00">data</text>
<text text-anchor="start" x="255.5" y="132.2" font-family="Times,serif" font-size="14.00">index</text>
<text text-anchor="start" x="255.5" y="147.2" font-family="Times,serif" font-size="14.00">individual_summary_data</text>
<text text-anchor="start" x="255.5" y="162.2" font-family="Times,serif" font-size="14.00">pull_and_organise_user_data</text>
<text text-anchor="start" x="255.5" y="177.2" font-family="Times,serif" font-size="14.00">raw_data</text>
<text text-anchor="start" x="255.5" y="192.2" font-family="Times,serif" font-size="14.00">subjects</text>
<polyline fill="none" stroke="black" points="247.5,200 422.5,200 "/>
<polyline fill="none" stroke="black" points="247.5,224 422.5,224 "/>
<text text-anchor="start" x="255.5" y="239.2" font-family="Times,serif" font-size="14.00">_layout</text>
</g>
</g>
</svg>
