<?xml version="1.0" encoding="UTF-8" standalone="no"?>
<!DOCTYPE svg PUBLIC "-//W3C//DTD SVG 1.1//EN"
 "http://www.w3.org/Graphics/SVG/1.1/DTD/svg11.dtd">
<!-- Generated by graphviz version 2.38.0 (20140413.2041)
 -->
<!-- Title: controllers_diagram Pages: 1 -->
<svg width="1164pt" height="1029pt"
 viewBox="0.00 0.00 1163.50 1028.50" xmlns="http://www.w3.org/2000/svg" xmlns:xlink="http://www.w3.org/1999/xlink">
<g id="graph0" class="graph" transform="scale(1 1) rotate(0) translate(487 611)">
<title>controllers_diagram</title>
<polygon fill="none" stroke="none" points="-487,417.5 -487,-611 676.5,-611 676.5,417.5 -487,417.5"/>
<!-- _diagram_info -->
<g id="node1" class="node"><title>_diagram_info</title>
<text text-anchor="start" x="-382.5" y="327.4" font-family="Times,serif" font-size="13.00">Controllers diagram</text>
<text text-anchor="start" x="-382.5" y="341.4" font-family="Times,serif" font-size="13.00">Date: Oct 28 2017 &#45; 23:59</text>
<text text-anchor="start" x="-382.5" y="355.4" font-family="Times,serif" font-size="13.00">Migration version: 20171026030636</text>
<text text-anchor="start" x="-382.5" y="369.4" font-family="Times,serif" font-size="13.00">Generated by RailRoady 1.5.2</text>
<text text-anchor="start" x="-382.5" y="383.4" font-family="Times,serif" font-size="13.00">http://railroady.prestonlee.com</text>
</g>
<!-- ApplicationController -->
<g id="node2" class="node"><title>ApplicationController</title>
<path fill="none" stroke="black" d="M403.5,-24C403.5,-24 632.5,-24 632.5,-24 638.5,-24 644.5,-30 644.5,-36 644.5,-36 644.5,-120 644.5,-120 644.5,-126 638.5,-132 632.5,-132 632.5,-132 403.5,-132 403.5,-132 397.5,-132 391.5,-126 391.5,-120 391.5,-120 391.5,-36 391.5,-36 391.5,-30 397.5,-24 403.5,-24"/>
<text text-anchor="middle" x="518" y="-116.8" font-family="Times,serif" font-size="14.00">ApplicationController</text>
<polyline fill="none" stroke="black" points="391.5,-109 644.5,-109 "/>
<polyline fill="none" stroke="black" points="391.5,-85 644.5,-85 "/>
<text text-anchor="start" x="399.5" y="-69.8" font-family="Times,serif" font-size="14.00">configure_permitted_parameters</text>
<text text-anchor="start" x="399.5" y="-54.8" font-family="Times,serif" font-size="14.00">set_locale</text>
<polyline fill="none" stroke="black" points="391.5,-47 644.5,-47 "/>
<text text-anchor="start" x="399.5" y="-31.8" font-family="Times,serif" font-size="14.00">_layout</text>
</g>
<!-- BingoBoardsController -->
<g id="node3" class="node"><title>BingoBoardsController</title>
<path fill="none" stroke="black" d="M380,-185C380,-185 538,-185 538,-185 544,-185 550,-191 550,-197 550,-197 550,-371 550,-371 550,-377 544,-383 538,-383 538,-383 380,-383 380,-383 374,-383 368,-377 368,-371 368,-371 368,-197 368,-197 368,-191 374,-185 380,-185"/>
<text text-anchor="middle" x="459" y="-367.8" font-family="Times,serif" font-size="14.00">BingoBoardsController</text>
<polyline fill="none" stroke="black" points="368,-360 550,-360 "/>
<text text-anchor="start" x="376" y="-344.8" font-family="Times,serif" font-size="14.00">edit</text>
<text text-anchor="start" x="376" y="-329.8" font-family="Times,serif" font-size="14.00">index</text>
<text text-anchor="start" x="376" y="-314.8" font-family="Times,serif" font-size="14.00">play_board</text>
<text text-anchor="start" x="376" y="-299.8" font-family="Times,serif" font-size="14.00">show</text>
<text text-anchor="start" x="376" y="-284.8" font-family="Times,serif" font-size="14.00">update</text>
<text text-anchor="start" x="376" y="-269.8" font-family="Times,serif" font-size="14.00">verify_win</text>
<polyline fill="none" stroke="black" points="368,-262 550,-262 "/>
<polyline fill="none" stroke="black" points="368,-238 550,-238 "/>
<text text-anchor="start" x="376" y="-222.8" font-family="Times,serif" font-size="14.00">_layout</text>
<text text-anchor="start" x="376" y="-207.8" font-family="Times,serif" font-size="14.00">bingo_board_params</text>
<text text-anchor="start" x="376" y="-192.8" font-family="Times,serif" font-size="14.00">set_bingo_board</text>
</g>
<!-- BingoGamesController -->
<g id="node4" class="node"><title>BingoGamesController</title>
<path fill="none" stroke="black" d="M150.5,137C150.5,137 333.5,137 333.5,137 339.5,137 345.5,131 345.5,125 345.5,125 345.5,-139 345.5,-139 345.5,-145 339.5,-151 333.5,-151 333.5,-151 150.5,-151 150.5,-151 144.5,-151 138.5,-145 138.5,-139 138.5,-139 138.5,125 138.5,125 138.5,131 144.5,137 150.5,137"/>
<text text-anchor="middle" x="242" y="-135.8" font-family="Times,serif" font-size="14.00">BingoGamesController</text>
<polyline fill="none" stroke="black" points="138.5,-128 345.5,-128 "/>
<text text-anchor="start" x="146.5" y="-112.8" font-family="Times,serif" font-size="14.00">activate</text>
<text text-anchor="start" x="146.5" y="-97.8" font-family="Times,serif" font-size="14.00">create</text>
<text text-anchor="start" x="146.5" y="-82.8" font-family="Times,serif" font-size="14.00">destroy</text>
<text text-anchor="start" x="146.5" y="-67.8" font-family="Times,serif" font-size="14.00">edit</text>
<text text-anchor="start" x="146.5" y="-52.8" font-family="Times,serif" font-size="14.00">index</text>
<text text-anchor="start" x="146.5" y="-37.8" font-family="Times,serif" font-size="14.00">new</text>
<text text-anchor="start" x="146.5" y="-22.8" font-family="Times,serif" font-size="14.00">review_candidates</text>
<text text-anchor="start" x="146.5" y="-7.8" font-family="Times,serif" font-size="14.00">show</text>
<text text-anchor="start" x="146.5" y="7.2" font-family="Times,serif" font-size="14.00">update</text>
<text text-anchor="start" x="146.5" y="22.2" font-family="Times,serif" font-size="14.00">update_review_candidates</text>
<polyline fill="none" stroke="black" points="138.5,30 345.5,30 "/>
<polyline fill="none" stroke="black" points="138.5,54 345.5,54 "/>
<text text-anchor="start" x="146.5" y="69.2" font-family="Times,serif" font-size="14.00">_layout</text>
<text text-anchor="start" x="146.5" y="84.2" font-family="Times,serif" font-size="14.00">bingo_game_params</text>
<text text-anchor="start" x="146.5" y="99.2" font-family="Times,serif" font-size="14.00">check_editor</text>
<text text-anchor="start" x="146.5" y="114.2" font-family="Times,serif" font-size="14.00">check_viewer</text>
<text text-anchor="start" x="146.5" y="129.2" font-family="Times,serif" font-size="14.00">set_bingo_game</text>
</g>
<!-- CandidateListsController -->
<g id="node5" class="node"><title>CandidateListsController</title>
<path fill="none" stroke="black" d="M-240.5,-253.5C-240.5,-253.5 -45.5,-253.5 -45.5,-253.5 -39.5,-253.5 -33.5,-259.5 -33.5,-265.5 -33.5,-265.5 -33.5,-468.5 -33.5,-468.5 -33.5,-474.5 -39.5,-480.5 -45.5,-480.5 -45.5,-480.5 -240.5,-480.5 -240.5,-480.5 -246.5,-480.5 -252.5,-474.5 -252.5,-468.5 -252.5,-468.5 -252.5,-265.5 -252.5,-265.5 -252.5,-259.5 -246.5,-253.5 -240.5,-253.5"/>
<text text-anchor="middle" x="-143" y="-465.3" font-family="Times,serif" font-size="14.00">CandidateListsController</text>
<polyline fill="none" stroke="black" points="-252.5,-457.5 -33.5,-457.5 "/>
<text text-anchor="start" x="-244.5" y="-442.3" font-family="Times,serif" font-size="14.00">create</text>
<text text-anchor="start" x="-244.5" y="-427.3" font-family="Times,serif" font-size="14.00">demo_complete</text>
<text text-anchor="start" x="-244.5" y="-412.3" font-family="Times,serif" font-size="14.00">edit</text>
<text text-anchor="start" x="-244.5" y="-397.3" font-family="Times,serif" font-size="14.00">list_stats</text>
<text text-anchor="start" x="-244.5" y="-382.3" font-family="Times,serif" font-size="14.00">request_collaboration</text>
<text text-anchor="start" x="-244.5" y="-367.3" font-family="Times,serif" font-size="14.00">show</text>
<text text-anchor="start" x="-244.5" y="-352.3" font-family="Times,serif" font-size="14.00">update</text>
<polyline fill="none" stroke="black" points="-252.5,-344.5 -33.5,-344.5 "/>
<text text-anchor="start" x="-244.5" y="-329.3" font-family="Times,serif" font-size="14.00">merge_to_group_list</text>
<polyline fill="none" stroke="black" points="-252.5,-321.5 -33.5,-321.5 "/>
<text text-anchor="start" x="-244.5" y="-306.3" font-family="Times,serif" font-size="14.00">_layout</text>
<text text-anchor="start" x="-244.5" y="-291.3" font-family="Times,serif" font-size="14.00">candidate_list_params</text>
<text text-anchor="start" x="-244.5" y="-276.3" font-family="Times,serif" font-size="14.00">merge_individuals_to_group</text>
<text text-anchor="start" x="-244.5" y="-261.3" font-family="Times,serif" font-size="14.00">set_candidate_list</text>
</g>
<!-- ConceptsController -->
<g id="node6" class="node"><title>ConceptsController</title>
<path fill="none" stroke="black" d="M-287,22.5C-287,22.5 -153,22.5 -153,22.5 -147,22.5 -141,16.5 -141,10.5 -141,10.5 -141,-208.5 -141,-208.5 -141,-214.5 -147,-220.5 -153,-220.5 -153,-220.5 -287,-220.5 -287,-220.5 -293,-220.5 -299,-214.5 -299,-208.5 -299,-208.5 -299,10.5 -299,10.5 -299,16.5 -293,22.5 -287,22.5"/>
<text text-anchor="middle" x="-220" y="-205.3" font-family="Times,serif" font-size="14.00">ConceptsController</text>
<polyline fill="none" stroke="black" points="-299,-197.5 -141,-197.5 "/>
<text text-anchor="start" x="-291" y="-182.3" font-family="Times,serif" font-size="14.00">concepts_for_game</text>
<text text-anchor="start" x="-291" y="-167.3" font-family="Times,serif" font-size="14.00">create</text>
<text text-anchor="start" x="-291" y="-152.3" font-family="Times,serif" font-size="14.00">destroy</text>
<text text-anchor="start" x="-291" y="-137.3" font-family="Times,serif" font-size="14.00">edit</text>
<text text-anchor="start" x="-291" y="-122.3" font-family="Times,serif" font-size="14.00">index</text>
<text text-anchor="start" x="-291" y="-107.3" font-family="Times,serif" font-size="14.00">new</text>
<text text-anchor="start" x="-291" y="-92.3" font-family="Times,serif" font-size="14.00">show</text>
<text text-anchor="start" x="-291" y="-77.3" font-family="Times,serif" font-size="14.00">update</text>
<polyline fill="none" stroke="black" points="-299,-69.5 -141,-69.5 "/>
<polyline fill="none" stroke="black" points="-299,-45.5 -141,-45.5 "/>
<text text-anchor="start" x="-291" y="-30.3" font-family="Times,serif" font-size="14.00">_layout</text>
<text text-anchor="start" x="-291" y="-15.3" font-family="Times,serif" font-size="14.00">check_admin</text>
<text text-anchor="start" x="-291" y="-0.3" font-family="Times,serif" font-size="14.00">concept_params</text>
<text text-anchor="start" x="-291" y="14.7" font-family="Times,serif" font-size="14.00">set_concept</text>
</g>
<!-- ConsentFormsController -->
<g id="node7" class="node"><title>ConsentFormsController</title>
<path fill="none" stroke="black" d="M-310,275.5C-310,275.5 -140,275.5 -140,275.5 -134,275.5 -128,269.5 -128,263.5 -128,263.5 -128,74.5 -128,74.5 -128,68.5 -134,62.5 -140,62.5 -140,62.5 -310,62.5 -310,62.5 -316,62.5 -322,68.5 -322,74.5 -322,74.5 -322,263.5 -322,263.5 -322,269.5 -316,275.5 -310,275.5"/>
<text text-anchor="middle" x="-225" y="77.7" font-family="Times,serif" font-size="14.00">ConsentFormsController</text>
<polyline fill="none" stroke="black" points="-322,85.5 -128,85.5 "/>
<text text-anchor="start" x="-314" y="100.7" font-family="Times,serif" font-size="14.00">create</text>
<text text-anchor="start" x="-314" y="115.7" font-family="Times,serif" font-size="14.00">destroy</text>
<text text-anchor="start" x="-314" y="130.7" font-family="Times,serif" font-size="14.00">edit</text>
<text text-anchor="start" x="-314" y="145.7" font-family="Times,serif" font-size="14.00">index</text>
<text text-anchor="start" x="-314" y="160.7" font-family="Times,serif" font-size="14.00">new</text>
<text text-anchor="start" x="-314" y="175.7" font-family="Times,serif" font-size="14.00">show</text>
<text text-anchor="start" x="-314" y="190.7" font-family="Times,serif" font-size="14.00">update</text>
<polyline fill="none" stroke="black" points="-322,198.5 -128,198.5 "/>
<polyline fill="none" stroke="black" points="-322,222.5 -128,222.5 "/>
<text text-anchor="start" x="-314" y="237.7" font-family="Times,serif" font-size="14.00">_layout</text>
<text text-anchor="start" x="-314" y="252.7" font-family="Times,serif" font-size="14.00">consent_form_params</text>
<text text-anchor="start" x="-314" y="267.7" font-family="Times,serif" font-size="14.00">set_consent_form</text>
</g>
<!-- ConsentLogsController -->
<g id="node8" class="node"><title>ConsentLogsController</title>
<path fill="none" stroke="black" d="M-471,-483.5C-471,-483.5 -311,-483.5 -311,-483.5 -305,-483.5 -299,-489.5 -299,-495.5 -299,-495.5 -299,-594.5 -299,-594.5 -299,-600.5 -305,-606.5 -311,-606.5 -311,-606.5 -471,-606.5 -471,-606.5 -477,-606.5 -483,-600.5 -483,-594.5 -483,-594.5 -483,-495.5 -483,-495.5 -483,-489.5 -477,-483.5 -471,-483.5"/>
<text text-anchor="middle" x="-391" y="-591.3" font-family="Times,serif" font-size="14.00">ConsentLogsController</text>
<polyline fill="none" stroke="black" points="-483,-583.5 -299,-583.5 "/>
<text text-anchor="start" x="-475" y="-568.3" font-family="Times,serif" font-size="14.00">edit</text>
<text text-anchor="start" x="-475" y="-553.3" font-family="Times,serif" font-size="14.00">update</text>
<polyline fill="none" stroke="black" points="-483,-545.5 -299,-545.5 "/>
<polyline fill="none" stroke="black" points="-483,-521.5 -299,-521.5 "/>
<text text-anchor="start" x="-475" y="-506.3" font-family="Times,serif" font-size="14.00">_layout</text>
<text text-anchor="start" x="-475" y="-491.3" font-family="Times,serif" font-size="14.00">cl_params</text>
</g>
<!-- CoursesController -->
<g id="node9" class="node"><title>CoursesController</title>
<path fill="none" stroke="black" d="M195.5,-185C195.5,-185 320.5,-185 320.5,-185 326.5,-185 332.5,-191 332.5,-197 332.5,-197 332.5,-521 332.5,-521 332.5,-527 326.5,-533 320.5,-533 320.5,-533 195.5,-533 195.5,-533 189.5,-533 183.5,-527 183.5,-521 183.5,-521 183.5,-197 183.5,-197 183.5,-191 189.5,-185 195.5,-185"/>
<text text-anchor="middle" x="258" y="-517.8" font-family="Times,serif" font-size="14.00">CoursesController</text>
<polyline fill="none" stroke="black" points="183.5,-510 332.5,-510 "/>
<text text-anchor="start" x="191.5" y="-494.8" font-family="Times,serif" font-size="14.00">accept_roster</text>
<text text-anchor="start" x="191.5" y="-479.8" font-family="Times,serif" font-size="14.00">add_instructors</text>
<text text-anchor="start" x="191.5" y="-464.8" font-family="Times,serif" font-size="14.00">add_students</text>
<text text-anchor="start" x="191.5" y="-449.8" font-family="Times,serif" font-size="14.00">create</text>
<text text-anchor="start" x="191.5" y="-434.8" font-family="Times,serif" font-size="14.00">decline_roster</text>
<text text-anchor="start" x="191.5" y="-419.8" font-family="Times,serif" font-size="14.00">destroy</text>
<text text-anchor="start" x="191.5" y="-404.8" font-family="Times,serif" font-size="14.00">drop_student</text>
<text text-anchor="start" x="191.5" y="-389.8" font-family="Times,serif" font-size="14.00">edit</text>
<text text-anchor="start" x="191.5" y="-374.8" font-family="Times,serif" font-size="14.00">index</text>
<text text-anchor="start" x="191.5" y="-359.8" font-family="Times,serif" font-size="14.00">new</text>
<text text-anchor="start" x="191.5" y="-344.8" font-family="Times,serif" font-size="14.00">re_invite_student</text>
<text text-anchor="start" x="191.5" y="-329.8" font-family="Times,serif" font-size="14.00">remove_instructor</text>
<text text-anchor="start" x="191.5" y="-314.8" font-family="Times,serif" font-size="14.00">show</text>
<text text-anchor="start" x="191.5" y="-299.8" font-family="Times,serif" font-size="14.00">update</text>
<polyline fill="none" stroke="black" points="183.5,-292 332.5,-292 "/>
<polyline fill="none" stroke="black" points="183.5,-268 332.5,-268 "/>
<text text-anchor="start" x="191.5" y="-252.8" font-family="Times,serif" font-size="14.00">_layout</text>
<text text-anchor="start" x="191.5" y="-237.8" font-family="Times,serif" font-size="14.00">check_editor</text>
<text text-anchor="start" x="191.5" y="-222.8" font-family="Times,serif" font-size="14.00">check_viewer</text>
<text text-anchor="start" x="191.5" y="-207.8" font-family="Times,serif" font-size="14.00">course_params</text>
<text text-anchor="start" x="191.5" y="-192.8" font-family="Times,serif" font-size="14.00">set_course</text>
</g>
<!-- ExperiencesController -->
<g id="node10" class="node"><title>ExperiencesController</title>
<path fill="none" stroke="black" d="M-79.5,183.5C-79.5,183.5 75.5,183.5 75.5,183.5 81.5,183.5 87.5,177.5 87.5,171.5 87.5,171.5 87.5,-137.5 87.5,-137.5 87.5,-143.5 81.5,-149.5 75.5,-149.5 75.5,-149.5 -79.5,-149.5 -79.5,-149.5 -85.5,-149.5 -91.5,-143.5 -91.5,-137.5 -91.5,-137.5 -91.5,171.5 -91.5,171.5 -91.5,177.5 -85.5,183.5 -79.5,183.5"/>
<text text-anchor="middle" x="-2" y="-134.3" font-family="Times,serif" font-size="14.00">ExperiencesController</text>
<polyline fill="none" stroke="black" points="-91.5,-126.5 87.5,-126.5 "/>
<text text-anchor="start" x="-83.5" y="-111.3" font-family="Times,serif" font-size="14.00">activate</text>
<text text-anchor="start" x="-83.5" y="-96.3" font-family="Times,serif" font-size="14.00">create</text>
<text text-anchor="start" x="-83.5" y="-81.3" font-family="Times,serif" font-size="14.00">destroy</text>
<text text-anchor="start" x="-83.5" y="-66.3" font-family="Times,serif" font-size="14.00">diagnose</text>
<text text-anchor="start" x="-83.5" y="-51.3" font-family="Times,serif" font-size="14.00">edit</text>
<text text-anchor="start" x="-83.5" y="-36.3" font-family="Times,serif" font-size="14.00">index</text>
<text text-anchor="start" x="-83.5" y="-21.3" font-family="Times,serif" font-size="14.00">new</text>
<text text-anchor="start" x="-83.5" y="-6.3" font-family="Times,serif" font-size="14.00">next</text>
<text text-anchor="start" x="-83.5" y="8.7" font-family="Times,serif" font-size="14.00">react</text>
<text text-anchor="start" x="-83.5" y="23.7" font-family="Times,serif" font-size="14.00">show</text>
<text text-anchor="start" x="-83.5" y="38.7" font-family="Times,serif" font-size="14.00">update</text>
<polyline fill="none" stroke="black" points="-91.5,46.5 87.5,46.5 "/>
<polyline fill="none" stroke="black" points="-91.5,70.5 87.5,70.5 "/>
<text text-anchor="start" x="-83.5" y="85.7" font-family="Times,serif" font-size="14.00">_layout</text>
<text text-anchor="start" x="-83.5" y="100.7" font-family="Times,serif" font-size="14.00">check_editor</text>
<text text-anchor="start" x="-83.5" y="115.7" font-family="Times,serif" font-size="14.00">check_viewer</text>
<text text-anchor="start" x="-83.5" y="130.7" font-family="Times,serif" font-size="14.00">diagnosis_params</text>
<text text-anchor="start" x="-83.5" y="145.7" font-family="Times,serif" font-size="14.00">experience_params</text>
<text text-anchor="start" x="-83.5" y="160.7" font-family="Times,serif" font-size="14.00">reaction_params</text>
<text text-anchor="start" x="-83.5" y="175.7" font-family="Times,serif" font-size="14.00">set_experience</text>
</g>
<!-- GraphingController -->
<g id="node11" class="node"><title>GraphingController</title>
<path fill="none" stroke="black" d="M150,345C150,345 350,345 350,345 356,345 362,339 362,333 362,333 362,189 362,189 362,183 356,177 350,177 350,177 150,177 150,177 144,177 138,183 138,189 138,189 138,333 138,333 138,339 144,345 150,345"/>
<text text-anchor="middle" x="250" y="192.2" font-family="Times,serif" font-size="14.00">GraphingController</text>
<polyline fill="none" stroke="black" points="138,200 362,200 "/>
<text text-anchor="start" x="146" y="215.2" font-family="Times,serif" font-size="14.00">data</text>
<text text-anchor="start" x="146" y="230.2" font-family="Times,serif" font-size="14.00">index</text>
<text text-anchor="start" x="146" y="245.2" font-family="Times,serif" font-size="14.00">individual_summary_data</text>
<text text-anchor="start" x="146" y="260.2" font-family="Times,serif" font-size="14.00">pull_and_organise_user_data</text>
<text text-anchor="start" x="146" y="275.2" font-family="Times,serif" font-size="14.00">raw_data</text>
<text text-anchor="start" x="146" y="290.2" font-family="Times,serif" font-size="14.00">subjects</text>
<polyline fill="none" stroke="black" points="138,298 362,298 "/>
<polyline fill="none" stroke="black" points="138,322 362,322 "/>
<text text-anchor="start" x="146" y="337.2" font-family="Times,serif" font-size="14.00">_layout</text>
</g>
<!-- HomeController -->
<g id="node12" class="node"><title>HomeController</title>
<path fill="none" stroke="black" d="M-448,-300C-448,-300 -296,-300 -296,-300 -290,-300 -284,-306 -284,-312 -284,-312 -284,-426 -284,-426 -284,-432 -290,-438 -296,-438 -296,-438 -448,-438 -448,-438 -454,-438 -460,-432 -460,-426 -460,-426 -460,-312 -460,-312 -460,-306 -454,-300 -448,-300"/>
<text text-anchor="middle" x="-372" y="-422.8" font-family="Times,serif" font-size="14.00">HomeController</text>
<polyline fill="none" stroke="black" points="-460,-415 -284,-415 "/>
<text text-anchor="start" x="-452" y="-399.8" font-family="Times,serif" font-size="14.00">check_diversity_score</text>
<text text-anchor="start" x="-452" y="-384.8" font-family="Times,serif" font-size="14.00">demo_start</text>
<text text-anchor="start" x="-452" y="-369.8" font-family="Times,serif" font-size="14.00">index</text>
<text text-anchor="start" x="-452" y="-354.8" font-family="Times,serif" font-size="14.00">states_for_country</text>
<polyline fill="none" stroke="black" points="-460,-347 -284,-347 "/>
<polyline fill="none" stroke="black" points="-460,-323 -284,-323 "/>
<text text-anchor="start" x="-452" y="-307.8" font-family="Times,serif" font-size="14.00">_layout</text>
</g>
<!-- InstallmentsController -->
<g id="node13" class="node"><title>InstallmentsController</title>
<path fill="none" stroke="black" d="M-80,391C-80,391 76,391 76,391 82,391 88,385 88,379 88,379 88,235 88,235 88,229 82,223 76,223 76,223 -80,223 -80,223 -86,223 -92,229 -92,235 -92,235 -92,379 -92,379 -92,385 -86,391 -80,391"/>
<text text-anchor="middle" x="-2" y="238.2" font-family="Times,serif" font-size="14.00">InstallmentsController</text>
<polyline fill="none" stroke="black" points="-92,246 88,246 "/>
<text text-anchor="start" x="-84" y="261.2" font-family="Times,serif" font-size="14.00">create</text>
<text text-anchor="start" x="-84" y="276.2" font-family="Times,serif" font-size="14.00">demo_complete</text>
<text text-anchor="start" x="-84" y="291.2" font-family="Times,serif" font-size="14.00">edit</text>
<text text-anchor="start" x="-84" y="306.2" font-family="Times,serif" font-size="14.00">new</text>
<text text-anchor="start" x="-84" y="321.2" font-family="Times,serif" font-size="14.00">update</text>
<polyline fill="none" stroke="black" points="-92,329 88,329 "/>
<polyline fill="none" stroke="black" points="-92,353 88,353 "/>
<text text-anchor="start" x="-84" y="368.2" font-family="Times,serif" font-size="14.00">_layout</text>
<text text-anchor="start" x="-84" y="383.2" font-family="Times,serif" font-size="14.00">i_params</text>
</g>
<!-- ProjectsController -->
<g id="node14" class="node"><title>ProjectsController</title>
<path fill="none" stroke="black" d="M11.5,-185C11.5,-185 136.5,-185 136.5,-185 142.5,-185 148.5,-191 148.5,-197 148.5,-197 148.5,-491 148.5,-491 148.5,-497 142.5,-503 136.5,-503 136.5,-503 11.5,-503 11.5,-503 5.5,-503 -0.5,-497 -0.5,-491 -0.5,-491 -0.5,-197 -0.5,-197 -0.5,-191 5.5,-185 11.5,-185"/>
<text text-anchor="middle" x="74" y="-487.8" font-family="Times,serif" font-size="14.00">ProjectsController</text>
<polyline fill="none" stroke="black" points="-0.5,-480 148.5,-480 "/>
<text text-anchor="start" x="7.5" y="-464.8" font-family="Times,serif" font-size="14.00">activate</text>
<text text-anchor="start" x="7.5" y="-449.8" font-family="Times,serif" font-size="14.00">add_group</text>
<text text-anchor="start" x="7.5" y="-434.8" font-family="Times,serif" font-size="14.00">create</text>
<text text-anchor="start" x="7.5" y="-419.8" font-family="Times,serif" font-size="14.00">destroy</text>
<text text-anchor="start" x="7.5" y="-404.8" font-family="Times,serif" font-size="14.00">edit</text>
<text text-anchor="start" x="7.5" y="-389.8" font-family="Times,serif" font-size="14.00">index</text>
<text text-anchor="start" x="7.5" y="-374.8" font-family="Times,serif" font-size="14.00">new</text>
<text text-anchor="start" x="7.5" y="-359.8" font-family="Times,serif" font-size="14.00">remove_group</text>
<text text-anchor="start" x="7.5" y="-344.8" font-family="Times,serif" font-size="14.00">rescore_group</text>
<text text-anchor="start" x="7.5" y="-329.8" font-family="Times,serif" font-size="14.00">rescore_groups</text>
<text text-anchor="start" x="7.5" y="-314.8" font-family="Times,serif" font-size="14.00">show</text>
<text text-anchor="start" x="7.5" y="-299.8" font-family="Times,serif" font-size="14.00">update</text>
<polyline fill="none" stroke="black" points="-0.5,-292 148.5,-292 "/>
<polyline fill="none" stroke="black" points="-0.5,-268 148.5,-268 "/>
<text text-anchor="start" x="7.5" y="-252.8" font-family="Times,serif" font-size="14.00">_layout</text>
<text text-anchor="start" x="7.5" y="-237.8" font-family="Times,serif" font-size="14.00">check_editor</text>
<text text-anchor="start" x="7.5" y="-222.8" font-family="Times,serif" font-size="14.00">check_viewer</text>
<text text-anchor="start" x="7.5" y="-207.8" font-family="Times,serif" font-size="14.00">project_params</text>
<text text-anchor="start" x="7.5" y="-192.8" font-family="Times,serif" font-size="14.00">set_project</text>
</g>
<!-- RegistrationsController -->
<g id="node15" class="node"><title>RegistrationsController</title>
<path fill="none" stroke="black" d="M449,-438C449,-438 613,-438 613,-438 619,-438 625,-444 625,-450 625,-450 625,-578 625,-578 625,-584 619,-590 613,-590 613,-590 449,-590 449,-590 443,-590 437,-584 437,-578 437,-578 437,-450 437,-450 437,-444 443,-438 449,-438"/>
<text text-anchor="middle" x="531" y="-574.8" font-family="Times,serif" font-size="14.00">RegistrationsController</text>
<polyline fill="none" stroke="black" points="437,-567 625,-567 "/>
<text text-anchor="start" x="445" y="-551.8" font-family="Times,serif" font-size="14.00">add_email</text>
<text text-anchor="start" x="445" y="-536.8" font-family="Times,serif" font-size="14.00">initiate_password_reset</text>
<text text-anchor="start" x="445" y="-521.8" font-family="Times,serif" font-size="14.00">remove_email</text>
<text text-anchor="start" x="445" y="-506.8" font-family="Times,serif" font-size="14.00">set_primary_email</text>
<polyline fill="none" stroke="black" points="437,-499 625,-499 "/>
<text text-anchor="start" x="445" y="-483.8" font-family="Times,serif" font-size="14.00">update_resource</text>
<polyline fill="none" stroke="black" points="437,-476 625,-476 "/>
<text text-anchor="start" x="445" y="-460.8" font-family="Times,serif" font-size="14.00">_layout</text>
<text text-anchor="start" x="445" y="-445.8" font-family="Times,serif" font-size="14.00">set_email</text>
</g>
<!-- SchoolsController -->
<g id="node16" class="node"><title>SchoolsController</title>
<path fill="none" stroke="black" d="M426.5,413C426.5,413 547.5,413 547.5,413 553.5,413 559.5,407 559.5,401 559.5,401 559.5,197 559.5,197 559.5,191 553.5,185 547.5,185 547.5,185 426.5,185 426.5,185 420.5,185 414.5,191 414.5,197 414.5,197 414.5,401 414.5,401 414.5,407 420.5,413 426.5,413"/>
<text text-anchor="middle" x="487" y="200.2" font-family="Times,serif" font-size="14.00">SchoolsController</text>
<polyline fill="none" stroke="black" points="414.5,208 559.5,208 "/>
<text text-anchor="start" x="422.5" y="223.2" font-family="Times,serif" font-size="14.00">create</text>
<text text-anchor="start" x="422.5" y="238.2" font-family="Times,serif" font-size="14.00">destroy</text>
<text text-anchor="start" x="422.5" y="253.2" font-family="Times,serif" font-size="14.00">edit</text>
<text text-anchor="start" x="422.5" y="268.2" font-family="Times,serif" font-size="14.00">index</text>
<text text-anchor="start" x="422.5" y="283.2" font-family="Times,serif" font-size="14.00">new</text>
<text text-anchor="start" x="422.5" y="298.2" font-family="Times,serif" font-size="14.00">show</text>
<text text-anchor="start" x="422.5" y="313.2" font-family="Times,serif" font-size="14.00">update</text>
<polyline fill="none" stroke="black" points="414.5,321 559.5,321 "/>
<polyline fill="none" stroke="black" points="414.5,345 559.5,345 "/>
<text text-anchor="start" x="422.5" y="360.2" font-family="Times,serif" font-size="14.00">_layout</text>
<text text-anchor="start" x="422.5" y="375.2" font-family="Times,serif" font-size="14.00">check_admin</text>
<text text-anchor="start" x="422.5" y="390.2" font-family="Times,serif" font-size="14.00">school_params</text>
<text text-anchor="start" x="422.5" y="405.2" font-family="Times,serif" font-size="14.00">set_school</text>
</g>
<!-- Users::OmniauthCallbacksController -->
<g id="node17" class="node"><title>Users::OmniauthCallbacksController</title>
<path fill="none" stroke="black" d="M403.5,137C403.5,137 660.5,137 660.5,137 666.5,137 672.5,131 672.5,125 672.5,125 672.5,41 672.5,41 672.5,35 666.5,29 660.5,29 660.5,29 403.5,29 403.5,29 397.5,29 391.5,35 391.5,41 391.5,41 391.5,125 391.5,125 391.5,131 397.5,137 403.5,137"/>
<text text-anchor="middle" x="532" y="44.2" font-family="Times,serif" font-size="14.00">Users::OmniauthCallbacksController</text>
<polyline fill="none" stroke="black" points="391.5,52 672.5,52 "/>
<text text-anchor="start" x="399.5" y="67.2" font-family="Times,serif" font-size="14.00">failure</text>
<text text-anchor="start" x="399.5" y="82.2" font-family="Times,serif" font-size="14.00">google_oauth2</text>
<polyline fill="none" stroke="black" points="391.5,90 672.5,90 "/>
<polyline fill="none" stroke="black" points="391.5,114 672.5,114 "/>
<text text-anchor="start" x="399.5" y="129.2" font-family="Times,serif" font-size="14.00">_layout</text>
</g>
</g>
</svg>
