<?xml version="1.0" encoding="UTF-8" standalone="no"?>
<!DOCTYPE svg PUBLIC "-//W3C//DTD SVG 1.1//EN"
 "http://www.w3.org/Graphics/SVG/1.1/DTD/svg11.dtd">
<!-- Generated by graphviz version 2.38.0 (20140413.2041)
 -->
<!-- Title: models_diagram Pages: 1 -->
<svg width="1490pt" height="1022pt"
 viewBox="0.00 0.00 1490.44 1022.00" xmlns="http://www.w3.org/2000/svg" xmlns:xlink="http://www.w3.org/1999/xlink">
<g id="graph0" class="graph" transform="scale(1 1) rotate(0) translate(4 1018)">
<title>models_diagram</title>
<polygon fill="none" stroke="none" points="-4,4 -4,-1018 1486.44,-1018 1486.44,4 -4,4"/>
<!-- _diagram_info -->
<g id="node1" class="node"><title>_diagram_info</title>
<text text-anchor="start" x="1069.95" y="-999.6" font-family="Times,serif" font-size="13.00">Models diagram</text>
<text text-anchor="start" x="1069.95" y="-985.6" font-family="Times,serif" font-size="13.00">Date: Jan 15 2018 &#45; 19:17</text>
<text text-anchor="start" x="1069.95" y="-971.6" font-family="Times,serif" font-size="13.00">Migration version: 20171225131145</text>
<text text-anchor="start" x="1069.95" y="-957.6" font-family="Times,serif" font-size="13.00">Generated by RailRoady 1.5.3</text>
<text text-anchor="start" x="1069.95" y="-943.6" font-family="Times,serif" font-size="13.00">http://railroady.prestonlee.com</text>
</g>
<!-- Assessment -->
<g id="node2" class="node"><title>Assessment</title>
<ellipse fill="none" stroke="black" cx="1346.95" cy="-975" rx="52.7911" ry="18"/>
<text text-anchor="middle" x="1346.95" y="-971.3" font-family="Times,serif" font-size="14.00">Assessment</text>
</g>
<!-- Factor -->
<g id="node18" class="node"><title>Factor</title>
<ellipse fill="none" stroke="black" cx="1156.95" cy="-162" rx="33.2948" ry="18"/>
<text text-anchor="middle" x="1156.95" y="-158.3" font-family="Times,serif" font-size="14.00">Factor</text>
</g>
<!-- Assessment&#45;&gt;Factor -->
<g id="edge2" class="edge"><title>Assessment&#45;&gt;Factor</title>
<path fill="none" stroke="#0e45c9" d="M1366.83,-949.252C1389.35,-918.67 1422.95,-864.142 1422.95,-811 1422.95,-811 1422.95,-811 1422.95,-521 1422.95,-410.305 1402.8,-375.459 1334.95,-288 1295.62,-237.316 1230.1,-198.854 1190.47,-178.713"/>
<polygon fill="#0e45c9" stroke="#0e45c9" points="1366.56,-949.608 1356.94,-954.869 1363.55,-953.596 1360.53,-957.584 1360.53,-957.584 1360.53,-957.584 1363.55,-953.596 1364.12,-960.299 1366.56,-949.608 1366.56,-949.608"/>
<polygon fill="#0e45c9" stroke="#0e45c9" points="1190.42,-178.685 1183.47,-170.198 1185.94,-176.455 1181.47,-174.225 1181.47,-174.225 1181.47,-174.225 1185.94,-176.455 1179.46,-178.253 1190.42,-178.685 1190.42,-178.685"/>
</g>
<!-- Group -->
<g id="node21" class="node"><title>Group</title>
<ellipse fill="none" stroke="black" cx="1067.95" cy="-882" rx="33.2948" ry="18"/>
<text text-anchor="middle" x="1067.95" y="-878.3" font-family="Times,serif" font-size="14.00">Group</text>
</g>
<!-- Assessment&#45;&gt;Group -->
<g id="edge4" class="edge"><title>Assessment&#45;&gt;Group</title>
<path fill="none" stroke="#a99c04" d="M1316.86,-952.973C1307.03,-946.819 1295.83,-940.535 1284.95,-936 1226.49,-911.651 1154.33,-896.801 1109.72,-889.239"/>
<polygon fill="#a99c04" stroke="#a99c04" points="1317.06,-953.102 1323.01,-962.312 1321.26,-955.818 1325.45,-958.533 1325.45,-958.533 1325.45,-958.533 1321.26,-955.818 1327.9,-954.755 1317.06,-953.102 1317.06,-953.102"/>
<polygon fill="#a99c04" stroke="#a99c04" points="1109.68,-889.233 1100.55,-883.163 1104.75,-888.418 1099.82,-887.603 1099.82,-887.603 1099.82,-887.603 1104.75,-888.418 1099.08,-892.043 1109.68,-889.233 1109.68,-889.233"/>
</g>
<!-- Installment -->
<g id="node25" class="node"><title>Installment</title>
<ellipse fill="none" stroke="black" cx="1340.95" cy="-162" rx="50.8918" ry="18"/>
<text text-anchor="middle" x="1340.95" y="-158.3" font-family="Times,serif" font-size="14.00">Installment</text>
</g>
<!-- Assessment&#45;&gt;Installment -->
<g id="edge1" class="edge"><title>Assessment&#45;&gt;Installment</title>
<path fill="none" stroke="#d44e9f" d="M1379.73,-954.47C1399.06,-941.356 1422.49,-922.405 1436.95,-900 1459.16,-865.576 1460.95,-851.969 1460.95,-811 1460.95,-811 1460.95,-811 1460.95,-305 1460.95,-261.261 1447.37,-249.243 1418.95,-216 1407.49,-202.604 1391.88,-191.102 1377.63,-182.27"/>
<ellipse fill="none" stroke="#d44e9f" cx="1376.16" cy="-956.829" rx="4.00002" ry="4.00002"/>
<polygon fill="#d44e9f" stroke="#d44e9f" points="1377.57,-182.238 1371.28,-173.256 1373.28,-179.681 1368.98,-177.123 1368.98,-177.123 1368.98,-177.123 1373.28,-179.681 1366.68,-180.99 1377.57,-182.238 1377.57,-182.238"/>
</g>
<!-- User -->
<g id="node36" class="node"><title>User</title>
<ellipse fill="none" stroke="black" cx="838.945" cy="-378" rx="27.0966" ry="18"/>
<text text-anchor="middle" x="838.945" y="-374.3" font-family="Times,serif" font-size="14.00">User</text>
</g>
<!-- Assessment&#45;&gt;User -->
<g id="edge3" class="edge"><title>Assessment&#45;&gt;User</title>
<path fill="none" stroke="#91c9db" d="M1341.85,-946.896C1321.89,-842.05 1248.18,-467.145 1207.95,-432 1159.04,-389.278 960.08,-380.967 876.356,-379.37"/>
<polygon fill="#91c9db" stroke="#91c9db" points="1341.9,-947.161 1339.34,-957.824 1342.83,-952.073 1343.76,-956.986 1343.76,-956.986 1343.76,-956.986 1342.83,-952.073 1348.18,-956.147 1341.9,-947.161 1341.9,-947.161"/>
<polygon fill="#91c9db" stroke="#91c9db" points="876.265,-379.369 866.342,-374.701 871.266,-379.284 866.266,-379.2 866.266,-379.2 866.266,-379.2 871.266,-379.284 866.19,-383.699 876.265,-379.369 876.265,-379.369"/>
</g>
<!-- Behavior -->
<g id="node3" class="node"><title>Behavior</title>
<ellipse fill="none" stroke="black" cx="436.945" cy="-162" rx="42.7926" ry="18"/>
<text text-anchor="middle" x="436.945" y="-158.3" font-family="Times,serif" font-size="14.00">Behavior</text>
</g>
<!-- Diagnosis -->
<g id="node15" class="node"><title>Diagnosis</title>
<ellipse fill="none" stroke="black" cx="365.945" cy="-450" rx="46.2923" ry="18"/>
<text text-anchor="middle" x="365.945" y="-446.3" font-family="Times,serif" font-size="14.00">Diagnosis</text>
</g>
<!-- Behavior&#45;&gt;Diagnosis -->
<g id="edge7" class="edge"><title>Behavior&#45;&gt;Diagnosis</title>
<path fill="none" stroke="#d7e563" d="M411.187,-183.717C401.937,-192.623 392.441,-203.794 386.945,-216 355.903,-284.94 358.902,-376.819 362.849,-421.825"/>
<ellipse fill="none" stroke="#d7e563" cx="414.24" cy="-180.911" rx="4.00002" ry="4.00002"/>
<polygon fill="#d7e563" stroke="#d7e563" points="362.867,-422.008 359.347,-432.394 363.347,-426.985 363.827,-431.962 363.827,-431.962 363.827,-431.962 363.347,-426.985 368.306,-431.531 362.867,-422.008 362.867,-422.008"/>
</g>
<!-- Reaction -->
<g id="node30" class="node"><title>Reaction</title>
<ellipse fill="none" stroke="black" cx="402.945" cy="-522" rx="42.4939" ry="18"/>
<text text-anchor="middle" x="402.945" y="-518.3" font-family="Times,serif" font-size="14.00">Reaction</text>
</g>
<!-- Behavior&#45;&gt;Reaction -->
<g id="edge6" class="edge"><title>Behavior&#45;&gt;Reaction</title>
<path fill="none" stroke="#9a3eae" d="M400.744,-179.06C357.797,-200.867 291.945,-244.214 291.945,-305 291.945,-379 291.945,-379 291.945,-379 291.945,-419.447 287.141,-435.3 310.945,-468 323.417,-485.132 343.24,-497.566 361.297,-506.065"/>
<ellipse fill="none" stroke="#9a3eae" cx="404.366" cy="-177.267" rx="4.00002" ry="4.00002"/>
<polygon fill="#9a3eae" stroke="#9a3eae" points="361.387,-506.105 368.708,-514.27 365.959,-508.13 370.53,-510.155 370.53,-510.155 370.53,-510.155 365.959,-508.13 372.353,-506.041 361.387,-506.105 361.387,-506.105"/>
</g>
<!-- Scenario -->
<g id="node32" class="node"><title>Scenario</title>
<ellipse fill="none" stroke="black" cx="476.945" cy="-90" rx="41.6928" ry="18"/>
<text text-anchor="middle" x="476.945" y="-86.3" font-family="Times,serif" font-size="14.00">Scenario</text>
</g>
<!-- Behavior&#45;&gt;Scenario -->
<g id="edge5" class="edge"><title>Behavior&#45;&gt;Scenario</title>
<path fill="none" stroke="#d85a28" d="M450.462,-137.346C454.249,-130.719 458.384,-123.483 462.236,-116.74"/>
<ellipse fill="none" stroke="#d85a28" cx="448.409" cy="-140.938" rx="4.00002" ry="4.00002"/>
<polygon fill="#d85a28" stroke="#d85a28" points="462.295,-116.639 471.163,-110.189 464.775,-112.297 467.256,-107.956 467.256,-107.956 467.256,-107.956 464.775,-112.297 463.349,-105.724 462.295,-116.639 462.295,-116.639"/>
</g>
<!-- BingoBoard -->
<g id="node4" class="node"><title>BingoBoard</title>
<ellipse fill="none" stroke="black" cx="53.9452" cy="-90" rx="53.8905" ry="18"/>
<text text-anchor="middle" x="53.9452" y="-86.3" font-family="Times,serif" font-size="14.00">BingoBoard</text>
</g>
<!-- BingoCell -->
<g id="node5" class="node"><title>BingoCell</title>
<ellipse fill="none" stroke="black" cx="53.9452" cy="-18" rx="46.5926" ry="18"/>
<text text-anchor="middle" x="53.9452" y="-14.3" font-family="Times,serif" font-size="14.00">BingoCell</text>
</g>
<!-- BingoBoard&#45;&gt;BingoCell -->
<g id="edge8" class="edge"><title>BingoBoard&#45;&gt;BingoCell</title>
<path fill="none" stroke="#aaa555" d="M53.9452,-63.6398C53.9452,-58.0629 53.9452,-52.1319 53.9452,-46.4761"/>
<ellipse fill="none" stroke="#aaa555" cx="53.9453" cy="-67.6966" rx="4" ry="4"/>
<polygon fill="#aaa555" stroke="#aaa555" points="53.9453,-46.1043 58.4452,-36.1043 53.9453,-41.1043 53.9452,-36.1043 53.9452,-36.1043 53.9452,-36.1043 53.9453,-41.1043 49.4452,-36.1044 53.9453,-46.1043 53.9453,-46.1043"/>
</g>
<!-- Concept -->
<g id="node11" class="node"><title>Concept</title>
<ellipse fill="none" stroke="black" cx="272.945" cy="-738" rx="40.0939" ry="18"/>
<text text-anchor="middle" x="272.945" y="-734.3" font-family="Times,serif" font-size="14.00">Concept</text>
</g>
<!-- BingoBoard&#45;&gt;Concept -->
<g id="edge9" class="edge"><title>BingoBoard&#45;&gt;Concept</title>
<path fill="none" stroke="#1527b7" d="M45.9442,-117.922C41.8071,-135.686 38.4694,-159.397 42.9452,-180 55.9073,-239.667 99.9452,-243.941 99.9452,-305 99.9452,-595 99.9452,-595 99.9452,-595 99.9452,-662.715 180.114,-704.041 231.304,-723.527"/>
<polygon fill="#1527b7" stroke="#1527b7" points="45.9478,-117.907 52.7798,-109.33 47.1836,-113.062 48.4194,-108.217 48.4194,-108.217 48.4194,-108.217 47.1836,-113.062 44.059,-107.105 45.9478,-117.907 45.9478,-117.907"/>
<polygon fill="#1527b7" stroke="#1527b7" points="231.425,-723.571 239.257,-731.247 236.118,-725.297 240.811,-727.023 240.811,-727.023 240.811,-727.023 236.118,-725.297 242.364,-722.8 231.425,-723.571 231.425,-723.571"/>
</g>
<!-- BingoGame -->
<g id="node6" class="node"><title>BingoGame</title>
<ellipse fill="none" stroke="black" cx="321.945" cy="-162" rx="53.8905" ry="18"/>
<text text-anchor="middle" x="321.945" y="-158.3" font-family="Times,serif" font-size="14.00">BingoGame</text>
</g>
<!-- BingoGame&#45;&gt;BingoBoard -->
<g id="edge11" class="edge"><title>BingoGame&#45;&gt;BingoBoard</title>
<path fill="none" stroke="#7ea3e8" d="M273.006,-148.217C225.342,-135.768 153.2,-116.925 104.87,-104.301"/>
<ellipse fill="none" stroke="#7ea3e8" cx="277.08" cy="-149.281" rx="4.00001" ry="4.00001"/>
<polygon fill="#7ea3e8" stroke="#7ea3e8" points="104.611,-104.234 96.0731,-97.3526 99.7735,-102.97 94.9358,-101.706 94.9358,-101.706 94.9358,-101.706 99.7735,-102.97 93.7986,-106.06 104.611,-104.234 104.611,-104.234"/>
</g>
<!-- Candidate -->
<g id="node7" class="node"><title>Candidate</title>
<ellipse fill="none" stroke="black" cx="239.945" cy="-90" rx="46.2923" ry="18"/>
<text text-anchor="middle" x="239.945" y="-86.3" font-family="Times,serif" font-size="14.00">Candidate</text>
</g>
<!-- BingoGame&#45;&gt;Candidate -->
<g id="edge12" class="edge"><title>BingoGame&#45;&gt;Candidate</title>
<path fill="none" stroke="#77fef4" d="M295.303,-138.257C285.945,-130.268 275.444,-121.304 266.124,-113.348"/>
<polygon fill="#77fef4" stroke="#77fef4" points="295.321,-138.272 300.005,-148.187 299.124,-141.518 302.927,-144.765 302.927,-144.765 302.927,-144.765 299.124,-141.518 305.848,-141.342 295.321,-138.272 295.321,-138.272"/>
<polygon fill="#77fef4" stroke="#77fef4" points="265.902,-113.158 261.218,-103.243 262.099,-109.912 258.297,-106.666 258.297,-106.666 258.297,-106.666 262.099,-109.912 255.375,-110.088 265.902,-113.158 265.902,-113.158"/>
</g>
<!-- CandidateList -->
<g id="node9" class="node"><title>CandidateList</title>
<ellipse fill="none" stroke="black" cx="335.945" cy="-810" rx="59.5901" ry="18"/>
<text text-anchor="middle" x="335.945" y="-806.3" font-family="Times,serif" font-size="14.00">CandidateList</text>
</g>
<!-- BingoGame&#45;&gt;CandidateList -->
<g id="edge10" class="edge"><title>BingoGame&#45;&gt;CandidateList</title>
<path fill="none" stroke="#f50ec7" d="M276.254,-177.637C201.661,-202.928 61.9452,-256.741 61.9452,-305 61.9452,-667 61.9452,-667 61.9452,-667 61.9452,-759.87 187.563,-792.078 268.688,-803.194"/>
<ellipse fill="none" stroke="#f50ec7" cx="280.347" cy="-176.262" rx="4.00001" ry="4.00001"/>
<polygon fill="#f50ec7" stroke="#f50ec7" points="268.922,-803.224 278.262,-808.97 273.881,-803.866 278.839,-804.508 278.839,-804.508 278.839,-804.508 273.881,-803.866 279.417,-800.045 268.922,-803.224 268.922,-803.224"/>
</g>
<!-- BingoGame&#45;&gt;Concept -->
<g id="edge13" class="edge"><title>BingoGame&#45;&gt;Concept</title>
<path fill="none" stroke="#feaee3" d="M291.419,-184.723C260.105,-209.797 215.945,-254.167 215.945,-305 215.945,-595 215.945,-595 215.945,-595 215.945,-638.438 239.2,-684.318 256.002,-711.799"/>
<polygon fill="#feaee3" stroke="#feaee3" points="291.568,-184.608 302.226,-182.027 295.517,-181.54 299.465,-178.473 299.465,-178.473 299.465,-178.473 295.517,-181.54 296.705,-174.919 291.568,-184.608 291.568,-184.608"/>
<polygon fill="#feaee3" stroke="#feaee3" points="256.08,-711.923 257.603,-722.782 258.745,-716.153 261.41,-720.384 261.41,-720.384 261.41,-720.384 258.745,-716.153 265.218,-717.985 256.08,-711.923 256.08,-711.923"/>
</g>
<!-- CandidateFeedback -->
<g id="node8" class="node"><title>CandidateFeedback</title>
<ellipse fill="none" stroke="black" cx="131.945" cy="-162" rx="79.8859" ry="18"/>
<text text-anchor="middle" x="131.945" y="-158.3" font-family="Times,serif" font-size="14.00">CandidateFeedback</text>
</g>
<!-- CandidateFeedback&#45;&gt;Candidate -->
<g id="edge14" class="edge"><title>CandidateFeedback&#45;&gt;Candidate</title>
<path fill="none" stroke="#b9a5ae" d="M164.084,-140.169C178.115,-131.075 194.516,-120.445 208.471,-111.4"/>
<ellipse fill="none" stroke="#b9a5ae" cx="160.351" cy="-142.589" rx="4.00002" ry="4.00002"/>
<polygon fill="#b9a5ae" stroke="#b9a5ae" points="208.848,-111.156 219.687,-109.493 213.043,-108.436 217.239,-105.717 217.239,-105.717 217.239,-105.717 213.043,-108.436 214.791,-101.941 208.848,-111.156 208.848,-111.156"/>
</g>
<!-- CandidateList&#45;&gt;Candidate -->
<g id="edge15" class="edge"><title>CandidateList&#45;&gt;Candidate</title>
<path fill="none" stroke="#cf0ca3" d="M268.391,-807.111C176.646,-800.537 23.9452,-773.584 23.9452,-667 23.9452,-667 23.9452,-667 23.9452,-233 23.9452,-192.553 15.1053,-173.341 42.9452,-144 62.6573,-123.225 136.08,-107.548 187.487,-98.8176"/>
<ellipse fill="none" stroke="#cf0ca3" cx="272.535" cy="-807.387" rx="4" ry="4"/>
<polygon fill="#cf0ca3" stroke="#cf0ca3" points="187.588,-98.8011 198.189,-101.604 192.52,-97.9829 197.453,-97.1648 197.453,-97.1648 197.453,-97.1648 192.52,-97.9829 196.716,-92.7255 187.588,-98.8011 187.588,-98.8011"/>
</g>
<!-- CandidateList&#45;&gt;Concept -->
<g id="edge16" class="edge"><title>CandidateList&#45;&gt;Concept</title>
<path fill="none" stroke="#29cf6d" d="M314.198,-784.837C307.674,-777.587 300.53,-769.65 294.048,-762.447"/>
<polygon fill="#29cf6d" stroke="#29cf6d" points="314.325,-784.978 317.67,-795.421 317.67,-788.694 321.015,-792.411 321.015,-792.411 321.015,-792.411 317.67,-788.694 324.36,-789.401 314.325,-784.978 314.325,-784.978"/>
<polygon fill="#29cf6d" stroke="#29cf6d" points="294.024,-762.421 290.679,-751.978 290.679,-758.705 287.335,-754.988 287.335,-754.988 287.335,-754.988 290.679,-758.705 283.99,-757.998 294.024,-762.421 294.024,-762.421"/>
</g>
<!-- Course -->
<g id="node14" class="node"><title>Course</title>
<ellipse fill="none" stroke="black" cx="524.945" cy="-666" rx="35.9954" ry="18"/>
<text text-anchor="middle" x="524.945" y="-662.3" font-family="Times,serif" font-size="14.00">Course</text>
</g>
<!-- CandidateList&#45;&gt;Course -->
<g id="edge17" class="edge"><title>CandidateList&#45;&gt;Course</title>
<path fill="none" stroke="#258167" d="M363.675,-788.166C400.072,-760.82 463.488,-713.174 498.984,-686.505"/>
<ellipse fill="none" stroke="#258167" cx="360.457" cy="-790.584" rx="4.00002" ry="4.00002"/>
<ellipse fill="#258167" stroke="#258167" cx="502.497" cy="-683.866" rx="4.00002" ry="4.00002"/>
</g>
<!-- CipCode -->
<g id="node10" class="node"><title>CipCode</title>
<ellipse fill="none" stroke="black" cx="1080.95" cy="-666" rx="42.4939" ry="18"/>
<text text-anchor="middle" x="1080.95" y="-662.3" font-family="Times,serif" font-size="14.00">CipCode</text>
</g>
<!-- CipCode&#45;&gt;User -->
<g id="edge18" class="edge"><title>CipCode&#45;&gt;User</title>
<path fill="none" stroke="#4804f3" d="M1093.86,-641.155C1116.86,-595.065 1158.04,-492.934 1107.95,-432 1079.04,-396.838 943.164,-384.632 876.3,-380.708"/>
<ellipse fill="none" stroke="#4804f3" cx="1092.02" cy="-644.752" rx="4.00002" ry="4.00002"/>
<polygon fill="#4804f3" stroke="#4804f3" points="876.173,-380.701 866.438,-375.654 871.181,-380.424 866.188,-380.147 866.188,-380.147 866.188,-380.147 871.181,-380.424 865.939,-384.64 876.173,-380.701 876.173,-380.701"/>
</g>
<!-- Concept&#45;&gt;Candidate -->
<g id="edge19" class="edge"><title>Concept&#45;&gt;Candidate</title>
<path fill="none" stroke="#d7b121" d="M247.588,-716.406C219.446,-691.066 177.945,-645.187 177.945,-595 177.945,-595 177.945,-595 177.945,-305 177.945,-246.249 205.228,-236.609 220.945,-180 226.616,-159.576 231.561,-136.117 234.984,-118.412"/>
<ellipse fill="none" stroke="#d7b121" cx="250.716" cy="-719.155" rx="4.00002" ry="4.00002"/>
<polygon fill="#d7b121" stroke="#d7b121" points="235.054,-118.037 241.333,-109.047 235.983,-113.124 236.911,-108.211 236.911,-108.211 236.911,-108.211 235.983,-113.124 232.489,-107.376 235.054,-118.037 235.054,-118.037"/>
</g>
<!-- Concept&#45;&gt;Course -->
<g id="edge20" class="edge"><title>Concept&#45;&gt;Course</title>
<path fill="none" stroke="#07ae6e" d="M317.799,-726.204C358.903,-716.08 421.333,-700.125 474.945,-684 478.786,-682.845 482.775,-681.588 486.749,-680.298"/>
<polygon fill="#07ae6e" stroke="#07ae6e" points="317.539,-726.268 306.755,-724.278 312.683,-727.458 307.827,-728.649 307.827,-728.649 307.827,-728.649 312.683,-727.458 308.898,-733.019 317.539,-726.268 317.539,-726.268"/>
<polygon fill="#07ae6e" stroke="#07ae6e" points="487.011,-680.211 497.919,-681.333 491.756,-678.636 496.502,-677.061 496.502,-677.061 496.502,-677.061 491.756,-678.636 495.085,-672.79 487.011,-680.211 487.011,-680.211"/>
</g>
<!-- ConsentForm -->
<g id="node12" class="node"><title>ConsentForm</title>
<ellipse fill="none" stroke="black" cx="1218.95" cy="-378" rx="59.2899" ry="18"/>
<text text-anchor="middle" x="1218.95" y="-374.3" font-family="Times,serif" font-size="14.00">ConsentForm</text>
</g>
<!-- ConsentLog -->
<g id="node13" class="node"><title>ConsentLog</title>
<ellipse fill="none" stroke="black" cx="1074.95" cy="-306" rx="53.8905" ry="18"/>
<text text-anchor="middle" x="1074.95" y="-302.3" font-family="Times,serif" font-size="14.00">ConsentLog</text>
</g>
<!-- ConsentForm&#45;&gt;ConsentLog -->
<g id="edge22" class="edge"><title>ConsentForm&#45;&gt;ConsentLog</title>
<path fill="none" stroke="#6d2376" d="M1181.5,-358.798C1160.47,-348.575 1134.28,-335.846 1113.13,-325.564"/>
<ellipse fill="none" stroke="#6d2376" cx="1185.16" cy="-360.577" rx="4.00002" ry="4.00002"/>
<polygon fill="#6d2376" stroke="#6d2376" points="1113.1,-325.549 1106.08,-317.13 1108.61,-323.363 1104.11,-321.177 1104.11,-321.177 1104.11,-321.177 1108.61,-323.363 1102.14,-325.224 1113.1,-325.549 1113.1,-325.549"/>
</g>
<!-- Project -->
<g id="node28" class="node"><title>Project</title>
<ellipse fill="none" stroke="black" cx="1156.95" cy="-234" rx="35.9954" ry="18"/>
<text text-anchor="middle" x="1156.95" y="-230.3" font-family="Times,serif" font-size="14.00">Project</text>
</g>
<!-- ConsentForm&#45;&gt;Project -->
<g id="edge21" class="edge"><title>ConsentForm&#45;&gt;Project</title>
<path fill="none" stroke="#1e81ae" d="M1257.13,-357.996C1269.98,-349.495 1282.85,-338.154 1289.95,-324 1297.12,-309.697 1298.92,-301.243 1289.95,-288 1270.33,-259.073 1232.14,-245.933 1201.7,-239.965"/>
<ellipse fill="none" stroke="#1e81ae" cx="1253.42" cy="-360.309" rx="4.00002" ry="4.00002"/>
<polygon fill="#1e81ae" stroke="#1e81ae" points="1201.56,-239.94 1192.49,-233.772 1196.63,-239.072 1191.71,-238.204 1191.71,-238.204 1191.71,-238.204 1196.63,-239.072 1190.93,-242.635 1201.56,-239.94 1201.56,-239.94"/>
</g>
<!-- ConsentLog&#45;&gt;Project -->
<g id="edge23" class="edge"><title>ConsentLog&#45;&gt;Project</title>
<path fill="none" stroke="#936c09" d="M1101.76,-282.113C1111.42,-273.861 1122.29,-264.585 1131.81,-256.459"/>
<polygon fill="#936c09" stroke="#936c09" points="1101.57,-282.272 1091.04,-285.342 1097.77,-285.518 1093.96,-288.765 1093.96,-288.765 1093.96,-288.765 1097.77,-285.518 1096.89,-292.187 1101.57,-282.272 1101.57,-282.272"/>
<polygon fill="#936c09" stroke="#936c09" points="1131.82,-256.445 1142.35,-253.375 1135.63,-253.199 1139.43,-249.952 1139.43,-249.952 1139.43,-249.952 1135.63,-253.199 1136.51,-246.53 1131.82,-256.445 1131.82,-256.445"/>
</g>
<!-- Course&#45;&gt;BingoGame -->
<g id="edge26" class="edge"><title>Course&#45;&gt;BingoGame</title>
<path fill="none" stroke="#93d35c" d="M481.741,-661.843C405.242,-653.649 253.945,-624.601 253.945,-523 253.945,-523 253.945,-523 253.945,-305 253.945,-260.357 281.623,-214.88 301.662,-187.803"/>
<ellipse fill="none" stroke="#93d35c" cx="485.815" cy="-662.255" rx="4" ry="4"/>
<polygon fill="#93d35c" stroke="#93d35c" points="301.791,-187.635 311.434,-182.412 304.823,-183.659 307.856,-179.683 307.856,-179.683 307.856,-179.683 304.823,-183.659 304.277,-176.954 301.791,-187.635 301.791,-187.635"/>
</g>
<!-- Experience -->
<g id="node17" class="node"><title>Experience</title>
<ellipse fill="none" stroke="black" cx="627.945" cy="-594" rx="50.0912" ry="18"/>
<text text-anchor="middle" x="627.945" y="-590.3" font-family="Times,serif" font-size="14.00">Experience</text>
</g>
<!-- Course&#45;&gt;Experience -->
<g id="edge28" class="edge"><title>Course&#45;&gt;Experience</title>
<path fill="none" stroke="#5b234a" d="M552.128,-646.526C565.908,-637.161 582.702,-625.748 596.978,-616.046"/>
<ellipse fill="none" stroke="#5b234a" cx="548.603" cy="-648.922" rx="4.00002" ry="4.00002"/>
<polygon fill="#5b234a" stroke="#5b234a" points="597.222,-615.88 608.022,-613.981 601.357,-613.07 605.493,-610.259 605.493,-610.259 605.493,-610.259 601.357,-613.07 602.963,-606.537 597.222,-615.88 597.222,-615.88"/>
</g>
<!-- Course&#45;&gt;Project -->
<g id="edge24" class="edge"><title>Course&#45;&gt;Project</title>
<path fill="none" stroke="#456736" d="M518.749,-639.752C503.66,-571.447 473.167,-381.861 572.945,-288 611.887,-251.368 980.132,-239.168 1111.04,-235.969"/>
<ellipse fill="none" stroke="#456736" cx="519.702" cy="-643.934" rx="4.00001" ry="4.00001"/>
<polygon fill="#456736" stroke="#456736" points="1111.14,-235.966 1121.25,-240.227 1116.14,-235.847 1121.14,-235.728 1121.14,-235.728 1121.14,-235.728 1116.14,-235.847 1121.03,-231.23 1111.14,-235.966 1111.14,-235.966"/>
</g>
<!-- Roster -->
<g id="node31" class="node"><title>Roster</title>
<ellipse fill="none" stroke="black" cx="615.945" cy="-306" rx="33.5952" ry="18"/>
<text text-anchor="middle" x="615.945" y="-302.3" font-family="Times,serif" font-size="14.00">Roster</text>
</g>
<!-- Course&#45;&gt;Roster -->
<g id="edge25" class="edge"><title>Course&#45;&gt;Roster</title>
<path fill="none" stroke="#216068" d="M528.474,-639.622C531.143,-621.739 535.16,-597.283 539.945,-576 560.178,-486.014 592.257,-381.377 607.442,-333.44"/>
<ellipse fill="none" stroke="#216068" cx="527.853" cy="-643.873" rx="4.00001" ry="4.00001"/>
<polygon fill="#216068" stroke="#216068" points="607.467,-333.361 614.788,-325.197 608.983,-328.596 610.5,-323.832 610.5,-323.832 610.5,-323.832 608.983,-328.596 606.212,-322.467 607.467,-333.361 607.467,-333.361"/>
</g>
<!-- Course&#45;&gt;User -->
<g id="edge27" class="edge"><title>Course&#45;&gt;User</title>
<path fill="none" stroke="#d79b43" d="M532.935,-638.173C539.837,-618.854 551.488,-593.255 568.945,-576 595.242,-550.007 614.902,-562.882 643.945,-540 692.58,-501.682 683.548,-470.619 731.945,-432 754.247,-414.204 783.496,-400.224 805.777,-391.101"/>
<polygon fill="#d79b43" stroke="#d79b43" points="532.853,-638.418 525.402,-646.463 531.261,-643.157 529.668,-647.897 529.668,-647.897 529.668,-647.897 531.261,-643.157 533.933,-649.33 532.853,-638.418 532.853,-638.418"/>
<polygon fill="#d79b43" stroke="#d79b43" points="805.871,-391.063 816.826,-391.555 810.518,-389.218 815.165,-387.373 815.165,-387.373 815.165,-387.373 810.518,-389.218 813.504,-383.19 805.871,-391.063 805.871,-391.063"/>
</g>
<!-- Diagnosis&#45;&gt;User -->
<g id="edge29" class="edge"><title>Diagnosis&#45;&gt;User</title>
<path fill="none" stroke="#1067df" d="M416.483,-441.521C513.196,-427.208 722.156,-396.284 804.546,-384.091"/>
<ellipse fill="none" stroke="#1067df" cx="412.294" cy="-442.141" rx="4.00001" ry="4.00001"/>
<ellipse fill="#1067df" stroke="#1067df" cx="808.62" cy="-383.488" rx="4.00001" ry="4.00001"/>
</g>
<!-- Email -->
<g id="node16" class="node"><title>Email</title>
<ellipse fill="none" stroke="black" cx="894.945" cy="-306" rx="32.4942" ry="18"/>
<text text-anchor="middle" x="894.945" y="-302.3" font-family="Times,serif" font-size="14.00">Email</text>
</g>
<!-- Experience&#45;&gt;Reaction -->
<g id="edge30" class="edge"><title>Experience&#45;&gt;Reaction</title>
<path fill="none" stroke="#88da10" d="M583.446,-579.156C543.399,-566.697 484.952,-548.513 445.511,-536.243"/>
<ellipse fill="none" stroke="#88da10" cx="587.475" cy="-580.409" rx="4.00001" ry="4.00001"/>
<polygon fill="#88da10" stroke="#88da10" points="445.465,-536.228 437.253,-528.961 440.691,-534.743 435.916,-533.258 435.916,-533.258 435.916,-533.258 440.691,-534.743 434.579,-537.555 445.465,-536.228 445.465,-536.228"/>
</g>
<!-- FactorPack -->
<g id="node19" class="node"><title>FactorPack</title>
<ellipse fill="none" stroke="black" cx="793.945" cy="-306" rx="50.0912" ry="18"/>
<text text-anchor="middle" x="793.945" y="-302.3" font-family="Times,serif" font-size="14.00">FactorPack</text>
</g>
<!-- FactorPack&#45;&gt;Factor -->
<g id="edge31" class="edge"><title>FactorPack&#45;&gt;Factor</title>
<path fill="none" stroke="#b1659e" d="M821.633,-284.696C850.21,-264.613 896.729,-234.305 940.945,-216 999.075,-191.935 1070.71,-177.033 1115.11,-169.379"/>
<ellipse fill="none" stroke="#b1659e" cx="818.029" cy="-287.253" rx="4.00002" ry="4.00002"/>
<polygon fill="#b1659e" stroke="#b1659e" points="1115.38,-169.334 1125.99,-172.115 1120.31,-168.505 1125.24,-167.677 1125.24,-167.677 1125.24,-167.677 1120.31,-168.505 1124.5,-163.239 1115.38,-169.334 1115.38,-169.334"/>
</g>
<!-- FactorPack&#45;&gt;Project -->
<g id="edge32" class="edge"><title>FactorPack&#45;&gt;Project</title>
<path fill="none" stroke="#d284d9" d="M839.049,-291.684C844.056,-290.365 849.097,-289.108 853.945,-288 945.049,-267.184 1053.18,-250.061 1112.49,-241.309"/>
<ellipse fill="none" stroke="#d284d9" cx="835.101" cy="-292.749" rx="4.00001" ry="4.00001"/>
<polygon fill="#d284d9" stroke="#d284d9" points="1112.74,-241.273 1123.29,-244.277 1117.69,-240.549 1122.64,-239.824 1122.64,-239.824 1122.64,-239.824 1117.69,-240.549 1121.98,-235.372 1112.74,-241.273 1112.74,-241.273"/>
</g>
<!-- Gender -->
<g id="node20" class="node"><title>Gender</title>
<ellipse fill="none" stroke="black" cx="1203.95" cy="-594" rx="36.2938" ry="18"/>
<text text-anchor="middle" x="1203.95" y="-590.3" font-family="Times,serif" font-size="14.00">Gender</text>
</g>
<!-- Gender&#45;&gt;User -->
<g id="edge33" class="edge"><title>Gender&#45;&gt;User</title>
<path fill="none" stroke="#00530f" d="M1209.13,-567.962C1214.85,-532.567 1219.11,-468.189 1183.95,-432 1141.97,-388.793 957.093,-380.73 876.605,-379.285"/>
<ellipse fill="none" stroke="#00530f" cx="1208.43" cy="-571.946" rx="4.00001" ry="4.00001"/>
<polygon fill="#00530f" stroke="#00530f" points="876.416,-379.282 866.487,-374.628 871.417,-379.204 866.418,-379.127 866.418,-379.127 866.418,-379.127 871.417,-379.204 866.348,-383.627 876.416,-379.282 876.416,-379.282"/>
</g>
<!-- Group&#45;&gt;CandidateList -->
<g id="edge36" class="edge"><title>Group&#45;&gt;CandidateList</title>
<path fill="none" stroke="#af10ac" d="M1027.45,-877.128C907.157,-865.624 551.05,-831.57 402.351,-817.35"/>
<ellipse fill="none" stroke="#af10ac" cx="1031.57" cy="-877.521" rx="4" ry="4"/>
<polygon fill="#af10ac" stroke="#af10ac" points="401.964,-817.313 392.438,-811.882 396.986,-816.837 392.009,-816.361 392.009,-816.361 392.009,-816.361 396.986,-816.837 391.581,-820.841 401.964,-817.313 401.964,-817.313"/>
</g>
<!-- Group&#45;&gt;CipCode -->
<g id="edge40" class="edge"><title>Group&#45;&gt;CipCode</title>
<path fill="none" stroke="#66c266" d="M1069.42,-853.792C1070.39,-836.169 1071.7,-812.724 1072.95,-792 1074.97,-758.382 1077.47,-719.69 1079.13,-694.368"/>
<polygon fill="#66c266" stroke="#66c266" points="1069.41,-853.951 1064.37,-863.69 1069.14,-858.943 1068.86,-863.936 1068.86,-863.936 1068.86,-863.936 1069.14,-858.943 1073.36,-864.181 1069.41,-853.951 1069.41,-853.951"/>
<polygon fill="#66c266" stroke="#66c266" points="1079.13,-694.366 1084.28,-684.684 1079.46,-689.377 1079.79,-684.388 1079.79,-684.388 1079.79,-684.388 1079.46,-689.377 1075.3,-684.092 1079.13,-694.366 1079.13,-694.366"/>
</g>
<!-- Group&#45;&gt;Gender -->
<g id="edge41" class="edge"><title>Group&#45;&gt;Gender</title>
<path fill="none" stroke="#4da19a" d="M1079.91,-854.929C1094.6,-823.033 1120.33,-767.42 1142.95,-720 1159.28,-685.749 1178.54,-646.448 1190.99,-621.202"/>
<polygon fill="#4da19a" stroke="#4da19a" points="1079.91,-854.947 1071.64,-862.151 1077.82,-859.489 1075.73,-864.032 1075.73,-864.032 1075.73,-864.032 1077.82,-859.489 1079.82,-865.912 1079.91,-854.947 1079.91,-854.947"/>
<polygon fill="#4da19a" stroke="#4da19a" points="1191.14,-620.904 1199.6,-613.928 1193.35,-616.42 1195.56,-611.936 1195.56,-611.936 1195.56,-611.936 1193.35,-616.42 1191.52,-609.945 1191.14,-620.904 1191.14,-620.904"/>
</g>
<!-- GroupRevision -->
<g id="node22" class="node"><title>GroupRevision</title>
<ellipse fill="none" stroke="black" cx="1216.95" cy="-810" rx="64.189" ry="18"/>
<text text-anchor="middle" x="1216.95" y="-806.3" font-family="Times,serif" font-size="14.00">GroupRevision</text>
</g>
<!-- Group&#45;&gt;GroupRevision -->
<g id="edge35" class="edge"><title>Group&#45;&gt;GroupRevision</title>
<path fill="none" stroke="#2ce94a" d="M1099.72,-866.071C1122.04,-855.586 1152.09,-841.47 1176.17,-830.155"/>
<ellipse fill="none" stroke="#2ce94a" cx="1095.84" cy="-867.897" rx="4.00002" ry="4.00002"/>
<polygon fill="#2ce94a" stroke="#2ce94a" points="1176.37,-830.064 1187.33,-829.885 1180.89,-827.938 1185.42,-825.812 1185.42,-825.812 1185.42,-825.812 1180.89,-827.938 1183.5,-821.739 1176.37,-830.064 1176.37,-830.064"/>
</g>
<!-- HomeCountry -->
<g id="node23" class="node"><title>HomeCountry</title>
<ellipse fill="none" stroke="black" cx="920.945" cy="-810" rx="61.99" ry="18"/>
<text text-anchor="middle" x="920.945" y="-806.3" font-family="Times,serif" font-size="14.00">HomeCountry</text>
</g>
<!-- Group&#45;&gt;HomeCountry -->
<g id="edge39" class="edge"><title>Group&#45;&gt;HomeCountry</title>
<path fill="none" stroke="#4de751" d="M1034.63,-865.134C1012.81,-854.744 984.169,-841.107 961.095,-830.119"/>
<polygon fill="#4de751" stroke="#4de751" points="1034.64,-865.142 1041.74,-873.504 1039.16,-867.291 1043.67,-869.441 1043.67,-869.441 1043.67,-869.441 1039.16,-867.291 1045.61,-865.378 1034.64,-865.142 1034.64,-865.142"/>
<polygon fill="#4de751" stroke="#4de751" points="960.935,-830.043 953.842,-821.681 956.421,-827.893 951.907,-825.744 951.907,-825.744 951.907,-825.744 956.421,-827.893 949.972,-829.807 960.935,-830.043 960.935,-830.043"/>
</g>
<!-- HomeState -->
<g id="node24" class="node"><title>HomeState</title>
<ellipse fill="none" stroke="black" cx="894.945" cy="-738" rx="50.0912" ry="18"/>
<text text-anchor="middle" x="894.945" y="-734.3" font-family="Times,serif" font-size="14.00">HomeState</text>
</g>
<!-- Group&#45;&gt;HomeState -->
<g id="edge38" class="edge"><title>Group&#45;&gt;HomeState</title>
<path fill="none" stroke="#511fa4" d="M1025.46,-876.82C968.312,-870.219 871.358,-855.243 849.945,-828 834.123,-807.871 851.595,-781.3 869.176,-762.446"/>
<polygon fill="#511fa4" stroke="#511fa4" points="1025.7,-876.847 1035.14,-882.428 1030.67,-877.401 1035.64,-877.956 1035.64,-877.956 1035.64,-877.956 1030.67,-877.401 1036.14,-873.484 1025.7,-876.847 1025.7,-876.847"/>
<polygon fill="#511fa4" stroke="#511fa4" points="869.607,-762.008 879.829,-758.036 873.114,-758.444 876.621,-754.88 876.621,-754.88 876.621,-754.88 873.114,-758.444 873.413,-751.723 869.607,-762.008 869.607,-762.008"/>
</g>
<!-- Group&#45;&gt;Installment -->
<g id="edge37" class="edge"><title>Group&#45;&gt;Installment</title>
<path fill="none" stroke="#807a51" d="M1109.51,-880.819C1195.49,-878.031 1384.95,-858.348 1384.95,-739 1384.95,-739 1384.95,-739 1384.95,-521 1384.95,-385.302 1453.68,-340.168 1398.95,-216 1393.47,-203.591 1383.51,-192.826 1373.36,-184.301"/>
<ellipse fill="none" stroke="#807a51" cx="1105.27" cy="-880.935" rx="4" ry="4"/>
<polygon fill="#807a51" stroke="#807a51" points="1373.13,-184.124 1368.04,-174.413 1369.2,-181.039 1365.26,-177.955 1365.26,-177.955 1365.26,-177.955 1369.2,-181.039 1362.49,-181.496 1373.13,-184.124 1373.13,-184.124"/>
</g>
<!-- Group&#45;&gt;User -->
<g id="edge34" class="edge"><title>Group&#45;&gt;User</title>
<path fill="none" stroke="#f15bc0" d="M1055.62,-855.054C1024.85,-790.127 942.424,-615.276 876.945,-468 867.544,-446.855 857.259,-422.7 849.763,-404.895"/>
<polygon fill="#f15bc0" stroke="#f15bc0" points="1055.66,-855.13 1055.88,-866.094 1057.8,-859.648 1059.94,-864.166 1059.94,-864.166 1059.94,-864.166 1057.8,-859.648 1064.01,-862.237 1055.66,-855.13 1055.66,-855.13"/>
<polygon fill="#f15bc0" stroke="#f15bc0" points="849.675,-404.687 849.953,-393.724 847.74,-400.077 845.804,-395.467 845.804,-395.467 845.804,-395.467 847.74,-400.077 841.655,-397.209 849.675,-404.687 849.675,-404.687"/>
</g>
<!-- HomeCountry&#45;&gt;HomeState -->
<g id="edge43" class="edge"><title>HomeCountry&#45;&gt;HomeState</title>
<path fill="none" stroke="#046afe" d="M911.863,-784.548C909.644,-778.574 907.257,-772.148 904.996,-766.061"/>
<ellipse fill="none" stroke="#046afe" cx="913.259" cy="-788.305" rx="4.00001" ry="4.00001"/>
<polygon fill="#046afe" stroke="#046afe" points="904.844,-765.65 905.58,-754.708 903.103,-760.962 901.362,-756.275 901.362,-756.275 901.362,-756.275 903.103,-760.962 897.143,-757.842 904.844,-765.65 904.844,-765.65"/>
</g>
<!-- HomeCountry&#45;&gt;User -->
<g id="edge42" class="edge"><title>HomeCountry&#45;&gt;User</title>
<path fill="none" stroke="#1fd9a8" d="M937.92,-783.468C986.808,-708.43 1121.54,-490.215 1074.95,-432 1050.5,-401.458 936.634,-387.299 876.453,-381.854"/>
<polygon fill="#1fd9a8" stroke="#1fd9a8" points="937.882,-783.524 928.637,-789.422 935.142,-787.706 932.401,-791.888 932.401,-791.888 932.401,-791.888 935.142,-787.706 936.165,-794.355 937.882,-783.524 937.882,-783.524"/>
<polygon fill="#1fd9a8" stroke="#1fd9a8" points="876.187,-381.831 866.614,-376.483 871.206,-381.399 866.225,-380.966 866.225,-380.966 866.225,-380.966 871.206,-381.399 865.836,-385.449 876.187,-381.831 876.187,-381.831"/>
</g>
<!-- HomeState&#45;&gt;User -->
<g id="edge44" class="edge"><title>HomeState&#45;&gt;User</title>
<path fill="none" stroke="#86093e" d="M889.05,-711.935C878.168,-664.578 855.027,-558.576 843.945,-468 841.424,-447.392 840.172,-423.941 839.551,-406.287"/>
<ellipse fill="none" stroke="#86093e" cx="889.971" cy="-715.917" rx="4.00001" ry="4.00001"/>
<polygon fill="#86093e" stroke="#86093e" points="839.546,-406.116 843.739,-395.984 839.394,-401.119 839.241,-396.121 839.241,-396.121 839.241,-396.121 839.394,-401.119 834.743,-396.258 839.546,-406.116 839.546,-406.116"/>
</g>
<!-- Value -->
<g id="node37" class="node"><title>Value</title>
<ellipse fill="none" stroke="black" cx="1340.95" cy="-90" rx="31.6951" ry="18"/>
<text text-anchor="middle" x="1340.95" y="-86.3" font-family="Times,serif" font-size="14.00">Value</text>
</g>
<!-- Installment&#45;&gt;Value -->
<g id="edge45" class="edge"><title>Installment&#45;&gt;Value</title>
<path fill="none" stroke="#d22c17" d="M1340.95,-135.64C1340.95,-130.063 1340.95,-124.132 1340.95,-118.476"/>
<ellipse fill="none" stroke="#d22c17" cx="1340.95" cy="-139.697" rx="4" ry="4"/>
<polygon fill="#d22c17" stroke="#d22c17" points="1340.95,-118.104 1345.45,-108.104 1340.95,-113.104 1340.95,-108.104 1340.95,-108.104 1340.95,-108.104 1340.95,-113.104 1336.45,-108.104 1340.95,-118.104 1340.95,-118.104"/>
</g>
<!-- Language -->
<g id="node26" class="node"><title>Language</title>
<ellipse fill="none" stroke="black" cx="930.945" cy="-450" rx="45.4919" ry="18"/>
<text text-anchor="middle" x="930.945" y="-446.3" font-family="Times,serif" font-size="14.00">Language</text>
</g>
<!-- Language&#45;&gt;User -->
<g id="edge46" class="edge"><title>Language&#45;&gt;User</title>
<path fill="none" stroke="#5f2cb3" d="M902.875,-427.642C890.59,-418.295 876.281,-407.408 864.319,-398.306"/>
<polygon fill="#5f2cb3" stroke="#5f2cb3" points="903.024,-427.756 908.258,-437.392 907.003,-430.783 910.983,-433.811 910.983,-433.811 910.983,-433.811 907.003,-430.783 913.707,-430.23 903.024,-427.756 903.024,-427.756"/>
<polygon fill="#5f2cb3" stroke="#5f2cb3" points="864.045,-398.097 858.811,-388.461 860.065,-395.07 856.086,-392.042 856.086,-392.042 856.086,-392.042 860.065,-395.07 853.361,-395.623 864.045,-398.097 864.045,-398.097"/>
</g>
<!-- Narrative -->
<g id="node27" class="node"><title>Narrative</title>
<ellipse fill="none" stroke="black" cx="481.945" cy="-306" rx="44.393" ry="18"/>
<text text-anchor="middle" x="481.945" y="-302.3" font-family="Times,serif" font-size="14.00">Narrative</text>
</g>
<!-- Narrative&#45;&gt;Behavior -->
<g id="edge48" class="edge"><title>Narrative&#45;&gt;Behavior</title>
<path fill="none" stroke="#753b43" d="M480.902,-279.446C479.521,-261.295 476.325,-236.591 468.945,-216 465.226,-205.621 459.349,-195.05 453.641,-186.107"/>
<ellipse fill="none" stroke="#753b43" cx="481.185" cy="-283.792" rx="4" ry="4"/>
<ellipse fill="#753b43" stroke="#753b43" cx="451.354" cy="-182.654" rx="4.00002" ry="4.00002"/>
</g>
<!-- Narrative&#45;&gt;Reaction -->
<g id="edge49" class="edge"><title>Narrative&#45;&gt;Reaction</title>
<path fill="none" stroke="#be9da2" d="M472.913,-331.466C457.986,-371.902 428.283,-452.363 412.82,-494.252"/>
<ellipse fill="none" stroke="#be9da2" cx="474.308" cy="-327.688" rx="4.00001" ry="4.00001"/>
<polygon fill="#be9da2" stroke="#be9da2" points="412.74,-494.468 405.055,-502.291 411.008,-499.159 409.277,-503.849 409.277,-503.849 409.277,-503.849 411.008,-499.159 413.498,-505.408 412.74,-494.468 412.74,-494.468"/>
</g>
<!-- Week -->
<g id="node38" class="node"><title>Week</title>
<ellipse fill="none" stroke="black" cx="427.945" cy="-234" rx="31.6951" ry="18"/>
<text text-anchor="middle" x="427.945" y="-230.3" font-family="Times,serif" font-size="14.00">Week</text>
</g>
<!-- Narrative&#45;&gt;Week -->
<g id="edge47" class="edge"><title>Narrative&#45;&gt;Week</title>
<path fill="none" stroke="#7550e3" d="M464.205,-282.003C458.576,-274.707 452.337,-266.619 446.643,-259.238"/>
<ellipse fill="none" stroke="#7550e3" cx="466.705" cy="-285.244" rx="4.00002" ry="4.00002"/>
<polygon fill="#7550e3" stroke="#7550e3" points="446.387,-258.906 443.842,-248.239 443.333,-254.947 440.279,-250.988 440.279,-250.988 440.279,-250.988 443.333,-254.947 436.716,-253.737 446.387,-258.906 446.387,-258.906"/>
</g>
<!-- Project&#45;&gt;Assessment -->
<g id="edge52" class="edge"><title>Project&#45;&gt;Assessment</title>
<path fill="none" stroke="#6d14df" d="M1199.41,-240.744C1232.31,-247.186 1277.16,-260.582 1306.95,-288 1338.85,-317.37 1346.95,-333.633 1346.95,-377 1346.95,-811 1346.95,-811 1346.95,-811 1346.95,-858.798 1346.95,-914.48 1346.95,-946.835"/>
<ellipse fill="none" stroke="#6d14df" cx="1195.25" cy="-239.977" rx="4.00001" ry="4.00001"/>
<polygon fill="#6d14df" stroke="#6d14df" points="1346.95,-946.869 1342.45,-956.869 1346.95,-951.869 1346.95,-956.869 1346.95,-956.869 1346.95,-956.869 1346.95,-951.869 1351.45,-956.869 1346.95,-946.869 1346.95,-946.869"/>
</g>
<!-- Project&#45;&gt;BingoGame -->
<g id="edge51" class="edge"><title>Project&#45;&gt;BingoGame</title>
<path fill="none" stroke="#90b0c9" d="M1112.7,-232.968C993.999,-232.236 658.928,-225.919 384.945,-180 380.235,-179.211 375.368,-178.22 370.523,-177.116"/>
<ellipse fill="none" stroke="#90b0c9" cx="1116.87" cy="-232.99" rx="4" ry="4"/>
<polygon fill="#90b0c9" stroke="#90b0c9" points="370.384,-177.083 361.731,-170.347 365.526,-175.901 360.667,-174.719 360.667,-174.719 360.667,-174.719 365.526,-175.901 359.604,-179.092 370.384,-177.083 370.384,-177.083"/>
</g>
<!-- Project&#45;&gt;Factor -->
<g id="edge55" class="edge"><title>Project&#45;&gt;Factor</title>
<path fill="none" stroke="#90cb63" d="M1156.95,-205.665C1156.95,-200.687 1156.95,-195.491 1156.95,-190.507"/>
<polygon fill="#90cb63" stroke="#90cb63" points="1156.95,-205.697 1152.45,-215.697 1156.95,-210.697 1156.95,-215.697 1156.95,-215.697 1156.95,-215.697 1156.95,-210.697 1161.45,-215.697 1156.95,-205.697 1156.95,-205.697"/>
<polygon fill="#90cb63" stroke="#90cb63" points="1156.95,-190.104 1161.45,-180.104 1156.95,-185.104 1156.95,-180.104 1156.95,-180.104 1156.95,-180.104 1156.95,-185.104 1152.45,-180.104 1156.95,-190.104 1156.95,-190.104"/>
</g>
<!-- Project&#45;&gt;Group -->
<g id="edge50" class="edge"><title>Project&#45;&gt;Group</title>
<path fill="none" stroke="#b7cb26" d="M1167.78,-259.019C1177.56,-278.544 1193.54,-305.751 1213.95,-324 1240.91,-348.115 1264.72,-331.455 1286.95,-360 1311.79,-391.916 1305.95,-408.553 1305.95,-449 1305.95,-523 1305.95,-523 1305.95,-523 1305.95,-683.893 1205.11,-697.543 1110.95,-828 1103.83,-837.857 1095.51,-848.325 1088.1,-857.332"/>
<ellipse fill="none" stroke="#b7cb26" cx="1165.96" cy="-255.286" rx="4.00002" ry="4.00002"/>
<polygon fill="#b7cb26" stroke="#b7cb26" points="1088,-857.448 1078.14,-862.254 1084.8,-861.291 1081.6,-865.133 1081.6,-865.133 1081.6,-865.133 1084.8,-861.291 1085.06,-868.013 1088,-857.448 1088,-857.448"/>
</g>
<!-- Project&#45;&gt;Installment -->
<g id="edge53" class="edge"><title>Project&#45;&gt;Installment</title>
<path fill="none" stroke="#b46502" d="M1193.86,-218.957C1223.98,-207.499 1266.56,-191.299 1298.16,-179.276"/>
<polygon fill="#b46502" stroke="#b46502" points="1193.84,-218.965 1182.89,-218.314 1189.17,-220.742 1184.49,-222.52 1184.49,-222.52 1184.49,-222.52 1189.17,-220.742 1186.09,-226.726 1193.84,-218.965 1193.84,-218.965"/>
<polygon fill="#b46502" stroke="#b46502" points="1298.24,-179.245 1309.19,-179.895 1302.92,-177.467 1307.59,-175.689 1307.59,-175.689 1307.59,-175.689 1302.92,-177.467 1305.99,-171.483 1298.24,-179.245 1298.24,-179.245"/>
</g>
<!-- Project&#45;&gt;User -->
<g id="edge54" class="edge"><title>Project&#45;&gt;User</title>
<path fill="none" stroke="#418785" d="M1116.15,-245.771C1086.14,-254.66 1045,-268.912 1011.95,-288 990.361,-300.465 990.297,-311.141 968.945,-324 938.397,-342.397 900.305,-357.077 873.269,-366.28"/>
<polygon fill="#418785" stroke="#418785" points="1116.27,-245.737 1127.13,-247.286 1121.07,-244.35 1125.88,-242.962 1125.88,-242.962 1125.88,-242.962 1121.07,-244.35 1124.63,-238.639 1116.27,-245.737 1116.27,-245.737"/>
<polygon fill="#418785" stroke="#418785" points="872.976,-366.377 862.066,-365.265 868.232,-367.956 863.487,-369.535 863.487,-369.535 863.487,-369.535 868.232,-367.956 864.908,-373.805 872.976,-366.377 872.976,-366.377"/>
</g>
<!-- Quote -->
<g id="node29" class="node"><title>Quote</title>
<ellipse fill="none" stroke="black" cx="1449.95" cy="-975" rx="32.4942" ry="18"/>
<text text-anchor="middle" x="1449.95" y="-971.3" font-family="Times,serif" font-size="14.00">Quote</text>
</g>
<!-- Reaction&#45;&gt;Course -->
<g id="edge56" class="edge"><title>Reaction&#45;&gt;Course</title>
<path fill="none" stroke="#ac39c5" d="M402.703,-548.236C403.753,-567.497 407.982,-593.744 421.945,-612 437.792,-632.719 464.022,-646.048 486.046,-654.158"/>
<ellipse fill="none" stroke="#ac39c5" cx="402.564" cy="-544.19" rx="4" ry="4"/>
<ellipse fill="#ac39c5" stroke="#ac39c5" cx="489.861" cy="-655.491" rx="4.00001" ry="4.00001"/>
</g>
<!-- Reaction&#45;&gt;Diagnosis -->
<g id="edge57" class="edge"><title>Reaction&#45;&gt;Diagnosis</title>
<path fill="none" stroke="#954cd3" d="M390.109,-496.714C386.719,-490.302 383.049,-483.358 379.617,-476.865"/>
<ellipse fill="none" stroke="#954cd3" cx="392.119" cy="-500.519" rx="4.00002" ry="4.00002"/>
<polygon fill="#954cd3" stroke="#954cd3" points="379.493,-476.63 378.798,-465.686 377.156,-472.209 374.819,-467.789 374.819,-467.789 374.819,-467.789 377.156,-472.209 370.841,-469.892 379.493,-476.63 379.493,-476.63"/>
</g>
<!-- Scenario&#45;&gt;Narrative -->
<g id="edge58" class="edge"><title>Scenario&#45;&gt;Narrative</title>
<path fill="none" stroke="#a86dce" d="M483.809,-116.008C485.898,-124.787 487.913,-134.763 488.945,-144 494.195,-190.964 489.47,-246.042 485.648,-278.083"/>
<ellipse fill="none" stroke="#a86dce" cx="482.784" cy="-111.902" rx="4.00001" ry="4.00001"/>
<polygon fill="#a86dce" stroke="#a86dce" points="485.646,-278.098 479.936,-287.461 485.024,-283.059 484.401,-288.02 484.401,-288.02 484.401,-288.02 485.024,-283.059 488.866,-288.58 485.646,-278.098 485.646,-278.098"/>
</g>
<!-- School -->
<g id="node33" class="node"><title>School</title>
<ellipse fill="none" stroke="black" cx="705.945" cy="-738" rx="35.194" ry="18"/>
<text text-anchor="middle" x="705.945" y="-734.3" font-family="Times,serif" font-size="14.00">School</text>
</g>
<!-- School&#45;&gt;BingoGame -->
<g id="edge60" class="edge"><title>School&#45;&gt;BingoGame</title>
<path fill="none" stroke="#dbfaba" d="M708.088,-709.647C709.53,-676.312 708.159,-619.108 686.945,-576 616.171,-432.182 531.205,-447.431 428.945,-324 391.919,-279.308 356.09,-221.53 336.737,-188.738"/>
<polygon fill="#dbfaba" stroke="#dbfaba" points="708.069,-709.997 703.023,-719.733 707.792,-714.989 707.516,-719.982 707.516,-719.982 707.516,-719.982 707.792,-714.989 712.009,-720.23 708.069,-709.997 708.069,-709.997"/>
<polygon fill="#dbfaba" stroke="#dbfaba" points="336.554,-188.425 335.386,-177.521 334.028,-184.11 331.502,-179.794 331.502,-179.794 331.502,-179.794 334.028,-184.11 327.618,-182.068 336.554,-188.425 336.554,-188.425"/>
</g>
<!-- School&#45;&gt;Course -->
<g id="edge59" class="edge"><title>School&#45;&gt;Course</title>
<path fill="none" stroke="#777064" d="M671.331,-723.613C640.018,-711.503 594.036,-693.72 561.991,-681.327"/>
<ellipse fill="none" stroke="#777064" cx="675.117" cy="-725.077" rx="4.00001" ry="4.00001"/>
<polygon fill="#777064" stroke="#777064" points="561.852,-681.273 554.148,-673.469 557.189,-679.47 552.525,-677.666 552.525,-677.666 552.525,-677.666 557.189,-679.47 550.902,-681.863 561.852,-681.273 561.852,-681.273"/>
</g>
<!-- School&#45;&gt;Experience -->
<g id="edge62" class="edge"><title>School&#45;&gt;Experience</title>
<path fill="none" stroke="#962b75" d="M691.867,-711.371C677.765,-685.698 656.182,-646.405 642.065,-620.705"/>
<polygon fill="#962b75" stroke="#962b75" points="692.03,-711.668 692.901,-722.599 694.438,-716.05 696.845,-720.433 696.845,-720.433 696.845,-720.433 694.438,-716.05 700.789,-718.266 692.03,-711.668 692.03,-711.668"/>
<polygon fill="#962b75" stroke="#962b75" points="642.044,-620.667 641.173,-609.735 639.637,-616.284 637.229,-611.902 637.229,-611.902 637.229,-611.902 639.637,-616.284 633.285,-614.068 642.044,-620.667 642.044,-620.667"/>
</g>
<!-- School&#45;&gt;Project -->
<g id="edge61" class="edge"><title>School&#45;&gt;Project</title>
<path fill="none" stroke="#15dc7e" d="M739.45,-720.474C810.298,-684.02 976.839,-590.156 1074.95,-468 1125.52,-405.031 1146.06,-308.61 1153.39,-262.035"/>
<polygon fill="#15dc7e" stroke="#15dc7e" points="739.41,-720.494 728.457,-721.025 734.955,-722.764 730.5,-725.034 730.5,-725.034 730.5,-725.034 734.955,-722.764 732.543,-729.043 739.41,-720.494 739.41,-720.494"/>
<polygon fill="#15dc7e" stroke="#15dc7e" points="1153.39,-261.989 1159.32,-252.76 1154.13,-257.043 1154.87,-252.098 1154.87,-252.098 1154.87,-252.098 1154.13,-257.043 1150.41,-251.435 1153.39,-261.989 1153.39,-261.989"/>
</g>
<!-- School&#45;&gt;Roster -->
<g id="edge63" class="edge"><title>School&#45;&gt;Roster</title>
<path fill="none" stroke="#9a4543" d="M714.401,-710.42C716.673,-702.055 718.813,-692.723 719.945,-684 726.126,-636.4 728.749,-623.186 719.945,-576 702.498,-482.487 653.668,-379.617 629.645,-332.782"/>
<polygon fill="#9a4543" stroke="#9a4543" points="714.398,-710.43 707.3,-718.789 713.011,-715.234 711.623,-720.038 711.623,-720.038 711.623,-720.038 713.011,-715.234 715.947,-721.286 714.398,-710.43 714.398,-710.43"/>
<polygon fill="#9a4543" stroke="#9a4543" points="629.519,-332.539 628.91,-321.59 627.217,-328.101 624.915,-323.662 624.915,-323.662 624.915,-323.662 627.217,-328.101 620.92,-325.734 629.519,-332.539 629.519,-332.539"/>
</g>
<!-- Style -->
<g id="node34" class="node"><title>Style</title>
<ellipse fill="none" stroke="black" cx="1251.95" cy="-306" rx="28.6953" ry="18"/>
<text text-anchor="middle" x="1251.95" y="-302.3" font-family="Times,serif" font-size="14.00">Style</text>
</g>
<!-- Style&#45;&gt;Project -->
<g id="edge64" class="edge"><title>Style&#45;&gt;Project</title>
<path fill="none" stroke="#66d620" d="M1227.57,-287.038C1214.39,-277.331 1198.08,-265.311 1184.45,-255.27"/>
<ellipse fill="none" stroke="#66d620" cx="1230.86" cy="-289.461" rx="4.00002" ry="4.00002"/>
<polygon fill="#66d620" stroke="#66d620" points="1184.42,-255.244 1179.04,-245.689 1180.39,-252.278 1176.37,-249.312 1176.37,-249.312 1176.37,-249.312 1180.39,-252.278 1173.7,-252.935 1184.42,-255.244 1184.42,-255.244"/>
</g>
<!-- Theme -->
<g id="node35" class="node"><title>Theme</title>
<ellipse fill="none" stroke="black" cx="1029.95" cy="-450" rx="35.9954" ry="18"/>
<text text-anchor="middle" x="1029.95" y="-446.3" font-family="Times,serif" font-size="14.00">Theme</text>
</g>
<!-- Theme&#45;&gt;User -->
<g id="edge65" class="edge"><title>Theme&#45;&gt;User</title>
<path fill="none" stroke="#0abf54" d="M994.71,-435.639C991.411,-434.403 988.117,-433.175 984.945,-432 946.21,-417.653 901.555,-401.499 871.935,-390.838"/>
<ellipse fill="none" stroke="#0abf54" cx="998.616" cy="-437.107" rx="4.00001" ry="4.00001"/>
<polygon fill="#0abf54" stroke="#0abf54" points="871.906,-390.827 864.019,-383.209 867.201,-389.135 862.496,-387.443 862.496,-387.443 862.496,-387.443 867.201,-389.135 860.973,-391.678 871.906,-390.827 871.906,-390.827"/>
</g>
<!-- User&#45;&gt;BingoGame -->
<g id="edge70" class="edge"><title>User&#45;&gt;BingoGame</title>
<path fill="none" stroke="#446c19" d="M804.406,-367.116C775.812,-358.132 734.711,-343.334 701.945,-324 680.479,-311.334 680.455,-300.592 658.945,-288 581.013,-242.377 553.646,-247.315 468.945,-216 434.768,-203.364 395.988,-189.398 366.843,-178.975"/>
<polygon fill="#446c19" stroke="#446c19" points="804.776,-367.229 813.018,-374.463 809.557,-368.695 814.337,-370.16 814.337,-370.16 814.337,-370.16 809.557,-368.695 815.656,-365.858 804.776,-367.229 804.776,-367.229"/>
<polygon fill="#446c19" stroke="#446c19" points="366.767,-178.948 358.864,-171.346 362.058,-177.266 357.35,-175.584 357.35,-175.584 357.35,-175.584 362.058,-177.266 355.836,-179.821 366.767,-178.948 366.767,-178.948"/>
</g>
<!-- User&#45;&gt;Candidate -->
<g id="edge71" class="edge"><title>User&#45;&gt;Candidate</title>
<path fill="none" stroke="#ab1303" d="M809.028,-364.174C787.625,-354.429 758.546,-340.006 734.945,-324 714.876,-310.389 713.006,-302.991 693.945,-288 606.428,-219.167 591.014,-188.489 488.945,-144 425.322,-116.269 346.063,-102.616 294.289,-96.2051"/>
<ellipse fill="none" stroke="#ab1303" cx="812.893" cy="-365.909" rx="4.00002" ry="4.00002"/>
<polygon fill="#ab1303" stroke="#ab1303" points="294.243,-96.1997 284.845,-90.5489 289.278,-95.6086 284.313,-95.0174 284.313,-95.0174 284.313,-95.0174 289.278,-95.6086 283.781,-99.4858 294.243,-96.1997 294.243,-96.1997"/>
</g>
<!-- User&#45;&gt;CandidateList -->
<g id="edge68" class="edge"><title>User&#45;&gt;CandidateList</title>
<path fill="none" stroke="#1faad6" d="M836.639,-404.533C829.148,-481.41 802.875,-708.332 749.945,-756 700.702,-800.348 510.482,-808.38 405.876,-809.351"/>
<ellipse fill="none" stroke="#1faad6" cx="837.041" cy="-400.314" rx="4" ry="4"/>
<polygon fill="#1faad6" stroke="#1faad6" points="405.718,-809.352 395.686,-804.926 400.719,-809.389 395.719,-809.426 395.719,-809.426 395.719,-809.426 400.719,-809.389 395.752,-813.926 405.718,-809.352 405.718,-809.352"/>
</g>
<!-- User&#45;&gt;Concept -->
<g id="edge69" class="edge"><title>User&#45;&gt;Concept</title>
<path fill="none" stroke="#61bb64" d="M806.105,-388.27C776.189,-397.362 731.269,-412.66 694.945,-432 532.293,-518.6 361.1,-660.673 298.1,-714.965"/>
<ellipse fill="none" stroke="#61bb64" cx="810.292" cy="-387.018" rx="4.00001" ry="4.00001"/>
<polygon fill="#61bb64" stroke="#61bb64" points="297.84,-715.19 287.334,-718.332 294.059,-718.462 290.279,-721.734 290.279,-721.734 290.279,-721.734 294.059,-718.462 293.224,-725.137 297.84,-715.19 297.84,-715.19"/>
</g>
<!-- User&#45;&gt;ConsentLog -->
<g id="edge67" class="edge"><title>User&#45;&gt;ConsentLog</title>
<path fill="none" stroke="#8ef6a1" d="M871.178,-367.439C911.135,-355.588 979.625,-335.273 1026.06,-321.5"/>
<ellipse fill="none" stroke="#8ef6a1" cx="867.147" cy="-368.635" rx="4.00001" ry="4.00001"/>
<polygon fill="#8ef6a1" stroke="#8ef6a1" points="1026.32,-321.423 1037.19,-322.894 1031.11,-320.001 1035.91,-318.579 1035.91,-318.579 1035.91,-318.579 1031.11,-320.001 1034.63,-314.265 1026.32,-321.423 1026.32,-321.423"/>
</g>
<!-- User&#45;&gt;Email -->
<g id="edge66" class="edge"><title>User&#45;&gt;Email</title>
<path fill="none" stroke="#7fe4d4" d="M856.145,-355.501C862.444,-347.626 869.605,-338.675 876.046,-330.624"/>
<ellipse fill="none" stroke="#7fe4d4" cx="853.595" cy="-358.688" rx="4.00002" ry="4.00002"/>
<polygon fill="#7fe4d4" stroke="#7fe4d4" points="876.183,-330.453 885.944,-325.455 879.307,-326.548 882.43,-322.644 882.43,-322.644 882.43,-322.644 879.307,-326.548 878.916,-319.833 876.183,-330.453 876.183,-330.453"/>
</g>
<!-- User&#45;&gt;Experience -->
<g id="edge75" class="edge"><title>User&#45;&gt;Experience</title>
<path fill="none" stroke="#d46c30" d="M811.544,-396.964C797.789,-406.583 781.264,-419.091 767.945,-432 723.886,-474.705 723.029,-494.425 681.945,-540 672.875,-550.062 662.35,-560.618 653.013,-569.637"/>
<polygon fill="#d46c30" stroke="#d46c30" points="811.874,-396.738 822.666,-394.796 815.998,-393.911 820.122,-391.084 820.122,-391.084 820.122,-391.084 815.998,-393.911 817.578,-387.372 811.874,-396.738 811.874,-396.738"/>
<polygon fill="#d46c30" stroke="#d46c30" points="652.739,-569.899 642.4,-573.553 649.124,-573.353 645.508,-576.807 645.508,-576.807 645.508,-576.807 649.124,-573.353 648.617,-580.061 652.739,-569.899 652.739,-569.899"/>
</g>
<!-- User&#45;&gt;Installment -->
<g id="edge72" class="edge"><title>User&#45;&gt;Installment</title>
<path fill="none" stroke="#40127a" d="M868.729,-363.891C888.754,-354.341 915.181,-340.264 935.945,-324 953.033,-310.616 951.635,-301.095 968.945,-288 1065.15,-215.224 1206.22,-183.323 1284.08,-170.568"/>
<ellipse fill="none" stroke="#40127a" cx="865.015" cy="-365.63" rx="4.00002" ry="4.00002"/>
<polygon fill="#40127a" stroke="#40127a" points="1284.29,-170.533 1294.88,-173.408 1289.23,-169.749 1294.17,-168.964 1294.17,-168.964 1294.17,-168.964 1289.23,-169.749 1293.46,-164.52 1284.29,-170.533 1284.29,-170.533"/>
</g>
<!-- User&#45;&gt;Narrative -->
<g id="edge76" class="edge"><title>User&#45;&gt;Narrative</title>
<path fill="none" stroke="#2bdff9" d="M802.838,-369.92C738.38,-357.281 603.467,-330.828 530.797,-316.579"/>
<polygon fill="#2bdff9" stroke="#2bdff9" points="803.17,-369.985 812.117,-376.325 808.077,-370.947 812.983,-371.909 812.983,-371.909 812.983,-371.909 808.077,-370.947 813.849,-367.493 803.17,-369.985 803.17,-369.985"/>
<polygon fill="#2bdff9" stroke="#2bdff9" points="530.783,-316.576 521.836,-310.236 525.877,-315.614 520.97,-314.652 520.97,-314.652 520.97,-314.652 525.877,-315.614 520.104,-319.068 530.783,-316.576 530.783,-316.576"/>
</g>
<!-- User&#45;&gt;Reaction -->
<g id="edge74" class="edge"><title>User&#45;&gt;Reaction</title>
<path fill="none" stroke="#4aafd4" d="M803.554,-380.715C746.299,-384.48 630.624,-396.225 539.945,-432 498.044,-448.531 455.407,-478.803 429.072,-499.405"/>
<ellipse fill="none" stroke="#4aafd4" cx="807.575" cy="-380.464" rx="4" ry="4"/>
<polygon fill="#4aafd4" stroke="#4aafd4" points="428.946,-499.505 418.317,-502.201 425.031,-502.615 421.116,-505.725 421.116,-505.725 421.116,-505.725 425.031,-502.615 423.915,-509.249 428.946,-499.505 428.946,-499.505"/>
</g>
<!-- User&#45;&gt;Roster -->
<g id="edge73" class="edge"><title>User&#45;&gt;Roster</title>
<path fill="none" stroke="#62c44f" d="M806.463,-367.651C771.221,-357.395 713.368,-340.226 663.945,-324 660.225,-322.778 656.354,-321.471 652.498,-320.143"/>
<ellipse fill="none" stroke="#62c44f" cx="810.645" cy="-368.866" rx="4.00001" ry="4.00001"/>
<polygon fill="#62c44f" stroke="#62c44f" points="652.474,-320.135 644.515,-312.591 647.753,-318.487 643.032,-316.84 643.032,-316.84 643.032,-316.84 647.753,-318.487 641.549,-321.089 652.474,-320.135 652.474,-320.135"/>
</g>
<!-- Week&#45;&gt;Behavior -->
<g id="edge77" class="edge"><title>Week&#45;&gt;Behavior</title>
<path fill="none" stroke="#f3d28a" d="M431.206,-207.64C432.015,-201.348 432.882,-194.605 433.69,-188.316"/>
<ellipse fill="none" stroke="#f3d28a" cx="430.68" cy="-211.729" rx="4.00001" ry="4.00001"/>
<ellipse fill="#f3d28a" stroke="#f3d28a" cx="434.236" cy="-184.072" rx="4.00001" ry="4.00001"/>
</g>
<!-- Week&#45;&gt;Diagnosis -->
<g id="edge78" class="edge"><title>Week&#45;&gt;Diagnosis</title>
<path fill="none" stroke="#fe2d68" d="M420.789,-259.701C409.078,-300.123 385.912,-380.083 373.777,-421.969"/>
<ellipse fill="none" stroke="#fe2d68" cx="421.926" cy="-255.777" rx="4.00001" ry="4.00001"/>
<polygon fill="#fe2d68" stroke="#fe2d68" points="373.697,-422.244 366.592,-430.597 372.306,-427.047 370.914,-431.849 370.914,-431.849 370.914,-431.849 372.306,-427.047 375.236,-433.102 373.697,-422.244 373.697,-422.244"/>
</g>
</g>
</svg>
