<?xml version="1.0" encoding="UTF-8" standalone="no"?>
<!DOCTYPE svg PUBLIC "-//W3C//DTD SVG 1.1//EN"
 "http://www.w3.org/Graphics/SVG/1.1/DTD/svg11.dtd">
<!-- Generated by graphviz version 2.38.0 (20140413.2041)
 -->
<!-- Title: models_diagram Pages: 1 -->
<svg width="1506pt" height="662pt"
 viewBox="0.00 0.00 1506.14 662.00" xmlns="http://www.w3.org/2000/svg" xmlns:xlink="http://www.w3.org/1999/xlink">
<g id="graph0" class="graph" transform="scale(1 1) rotate(0) translate(4 658)">
<title>models_diagram</title>
<polygon fill="none" stroke="none" points="-4,4 -4,-658 1502.14,-658 1502.14,4 -4,4"/>
<!-- _diagram_info -->
<g id="node1" class="node"><title>_diagram_info</title>
<text text-anchor="start" x="8" y="-639.6" font-family="Times,serif" font-size="13.00">Models diagram</text>
<text text-anchor="start" x="8" y="-625.6" font-family="Times,serif" font-size="13.00">Date: May 25 2017 &#45; 14:10</text>
<text text-anchor="start" x="8" y="-611.6" font-family="Times,serif" font-size="13.00">Migration version: 20170524112411</text>
<text text-anchor="start" x="8" y="-597.6" font-family="Times,serif" font-size="13.00">Generated by RailRoady 1.5.2</text>
<text text-anchor="start" x="8" y="-583.6" font-family="Times,serif" font-size="13.00">http://railroady.prestonlee.com</text>
</g>
<!-- GroupProjectCount -->
<g id="node2" class="node"><title>GroupProjectCount</title>
<ellipse fill="none" stroke="black" cx="414" cy="-615" rx="79.0865" ry="18"/>
<text text-anchor="middle" x="414" y="-611.3" font-family="Times,serif" font-size="14.00">GroupProjectCount</text>
</g>
<!-- User -->
<g id="node11" class="node"><title>User</title>
<ellipse fill="none" stroke="black" cx="547" cy="-522" rx="27.0966" ry="18"/>
<text text-anchor="middle" x="547" y="-518.3" font-family="Times,serif" font-size="14.00">User</text>
</g>
<!-- GroupProjectCount&#45;&gt;User -->
<g id="edge1" class="edge"><title>GroupProjectCount&#45;&gt;User</title>
<path fill="none" stroke="#056d3f" d="M444.464,-593.156C467.266,-577.555 498.166,-556.413 520.068,-541.427"/>
<ellipse fill="none" stroke="#056d3f" cx="441.079" cy="-595.472" rx="4.00002" ry="4.00002"/>
<polygon fill="#056d3f" stroke="#056d3f" points="520.311,-541.261 531.105,-539.328 524.437,-538.438 528.564,-535.614 528.564,-535.614 528.564,-535.614 524.437,-538.438 526.023,-531.9 520.311,-541.261 520.311,-541.261"/>
</g>
<!-- Theme -->
<g id="node3" class="node"><title>Theme</title>
<ellipse fill="none" stroke="black" cx="547" cy="-615" rx="35.9954" ry="18"/>
<text text-anchor="middle" x="547" y="-611.3" font-family="Times,serif" font-size="14.00">Theme</text>
</g>
<!-- Theme&#45;&gt;User -->
<g id="edge2" class="edge"><title>Theme&#45;&gt;User</title>
<path fill="none" stroke="#8a16bd" d="M547,-588.729C547,-576.725 547,-562.362 547,-550.129"/>
<ellipse fill="none" stroke="#8a16bd" cx="547" cy="-592.884" rx="4" ry="4"/>
<polygon fill="#8a16bd" stroke="#8a16bd" points="547,-550.04 551.5,-540.04 547,-545.04 547,-540.04 547,-540.04 547,-540.04 547,-545.04 542.5,-540.04 547,-550.04 547,-550.04"/>
</g>
<!-- FactorPack -->
<g id="node4" class="node"><title>FactorPack</title>
<ellipse fill="none" stroke="black" cx="1124" cy="-306" rx="50.0912" ry="18"/>
<text text-anchor="middle" x="1124" y="-302.3" font-family="Times,serif" font-size="14.00">FactorPack</text>
</g>
<!-- Project -->
<g id="node16" class="node"><title>Project</title>
<ellipse fill="none" stroke="black" cx="961" cy="-234" rx="35.9954" ry="18"/>
<text text-anchor="middle" x="961" y="-230.3" font-family="Times,serif" font-size="14.00">Project</text>
</g>
<!-- FactorPack&#45;&gt;Project -->
<g id="edge4" class="edge"><title>FactorPack&#45;&gt;Project</title>
<path fill="none" stroke="#be5b99" d="M1085.52,-288.475C1058.58,-276.905 1022.85,-261.56 996.57,-250.275"/>
<ellipse fill="none" stroke="#be5b99" cx="1089.28" cy="-290.09" rx="4.00002" ry="4.00002"/>
<polygon fill="#be5b99" stroke="#be5b99" points="996.539,-250.262 989.127,-242.181 991.945,-248.289 987.351,-246.316 987.351,-246.316 987.351,-246.316 991.945,-248.289 985.575,-250.451 996.539,-250.262 996.539,-250.262"/>
</g>
<!-- Factor -->
<g id="node21" class="node"><title>Factor</title>
<ellipse fill="none" stroke="black" cx="980" cy="-90" rx="33.2948" ry="18"/>
<text text-anchor="middle" x="980" y="-86.3" font-family="Times,serif" font-size="14.00">Factor</text>
</g>
<!-- FactorPack&#45;&gt;Factor -->
<g id="edge3" class="edge"><title>FactorPack&#45;&gt;Factor</title>
<path fill="none" stroke="#edd55c" d="M1106.98,-279.705C1079.08,-238.24 1023.97,-156.337 996.444,-115.437"/>
<polygon fill="#edd55c" stroke="#edd55c" points="1107.12,-279.911 1108.97,-290.72 1109.91,-284.059 1112.7,-288.208 1112.7,-288.208 1112.7,-288.208 1109.91,-284.059 1116.43,-285.696 1107.12,-279.911 1107.12,-279.911"/>
<polygon fill="#edd55c" stroke="#edd55c" points="996.436,-115.425 994.586,-104.616 993.644,-111.277 990.853,-107.129 990.853,-107.129 990.853,-107.129 993.644,-111.277 987.119,-109.641 996.436,-115.425 996.436,-115.425"/>
</g>
<!-- Course -->
<g id="node5" class="node"><title>Course</title>
<ellipse fill="none" stroke="black" cx="640" cy="-306" rx="35.9954" ry="18"/>
<text text-anchor="middle" x="640" y="-302.3" font-family="Times,serif" font-size="14.00">Course</text>
</g>
<!-- Course&#45;&gt;User -->
<g id="edge8" class="edge"><title>Course&#45;&gt;User</title>
<path fill="none" stroke="#59ca78" d="M632.074,-333.746C626.516,-351.611 618.57,-375.502 610,-396 595.122,-431.588 574.475,-471.098 560.932,-495.986"/>
<polygon fill="#59ca78" stroke="#59ca78" points="632.132,-333.557 639.361,-325.311 633.595,-328.776 635.058,-323.994 635.058,-323.994 635.058,-323.994 633.595,-328.776 630.755,-322.678 632.132,-333.557 632.132,-333.557"/>
<polygon fill="#59ca78" stroke="#59ca78" points="560.924,-496.001 552.17,-502.606 558.52,-500.385 556.116,-504.77 556.116,-504.77 556.116,-504.77 558.52,-500.385 560.062,-506.933 560.924,-496.001 560.924,-496.001"/>
</g>
<!-- Roster -->
<g id="node13" class="node"><title>Roster</title>
<ellipse fill="none" stroke="black" cx="794" cy="-234" rx="33.5952" ry="18"/>
<text text-anchor="middle" x="794" y="-230.3" font-family="Times,serif" font-size="14.00">Roster</text>
</g>
<!-- Course&#45;&gt;Roster -->
<g id="edge6" class="edge"><title>Course&#45;&gt;Roster</title>
<path fill="none" stroke="#acbf54" d="M673.189,-289.914C698.746,-278.297 733.952,-262.294 759.767,-250.561"/>
<ellipse fill="none" stroke="#acbf54" cx="669.418" cy="-291.628" rx="4.00002" ry="4.00002"/>
<polygon fill="#acbf54" stroke="#acbf54" points="760.057,-250.429 771.023,-250.387 764.609,-248.359 769.161,-246.29 769.161,-246.29 769.161,-246.29 764.609,-248.359 767.299,-242.194 760.057,-250.429 760.057,-250.429"/>
</g>
<!-- Course&#45;&gt;Project -->
<g id="edge5" class="edge"><title>Course&#45;&gt;Project</title>
<path fill="none" stroke="#59776f" d="M680.172,-296.24C741.207,-282.93 856.751,-257.733 918.907,-244.179"/>
<ellipse fill="none" stroke="#59776f" cx="676.157" cy="-297.115" rx="4.00001" ry="4.00001"/>
<polygon fill="#59776f" stroke="#59776f" points="919.003,-244.158 929.732,-246.424 923.888,-243.093 928.773,-242.028 928.773,-242.028 928.773,-242.028 923.888,-243.093 927.814,-237.631 919.003,-244.158 919.003,-244.158"/>
</g>
<!-- Experience -->
<g id="node33" class="node"><title>Experience</title>
<ellipse fill="none" stroke="black" cx="540" cy="-234" rx="50.0912" ry="18"/>
<text text-anchor="middle" x="540" y="-230.3" font-family="Times,serif" font-size="14.00">Experience</text>
</g>
<!-- Course&#45;&gt;Experience -->
<g id="edge9" class="edge"><title>Course&#45;&gt;Experience</title>
<path fill="none" stroke="#ae76ce" d="M613.168,-286.218C600.016,-277.011 584.118,-265.882 570.505,-256.354"/>
<ellipse fill="none" stroke="#ae76ce" cx="616.487" cy="-288.541" rx="4.00002" ry="4.00002"/>
<polygon fill="#ae76ce" stroke="#ae76ce" points="570.134,-256.094 564.522,-246.673 566.038,-253.226 561.942,-250.359 561.942,-250.359 561.942,-250.359 566.038,-253.226 559.361,-254.046 570.134,-256.094 570.134,-256.094"/>
</g>
<!-- BingoGame -->
<g id="node34" class="node"><title>BingoGame</title>
<ellipse fill="none" stroke="black" cx="656" cy="-162" rx="53.8905" ry="18"/>
<text text-anchor="middle" x="656" y="-158.3" font-family="Times,serif" font-size="14.00">BingoGame</text>
</g>
<!-- Course&#45;&gt;BingoGame -->
<g id="edge7" class="edge"><title>Course&#45;&gt;BingoGame</title>
<path fill="none" stroke="#943714" d="M656.433,-282.01C661.872,-273.081 667.238,-262.488 670,-252 675.428,-231.39 671.112,-207.506 665.886,-189.672"/>
<ellipse fill="none" stroke="#943714" cx="654.259" cy="-285.411" rx="4.00002" ry="4.00002"/>
<polygon fill="#943714" stroke="#943714" points="665.82,-189.466 667.057,-178.57 664.296,-184.704 662.771,-179.942 662.771,-179.942 662.771,-179.942 664.296,-184.704 658.486,-181.314 665.82,-189.466 665.82,-189.466"/>
</g>
<!-- Style -->
<g id="node6" class="node"><title>Style</title>
<ellipse fill="none" stroke="black" cx="989" cy="-306" rx="28.6953" ry="18"/>
<text text-anchor="middle" x="989" y="-302.3" font-family="Times,serif" font-size="14.00">Style</text>
</g>
<!-- Style&#45;&gt;Project -->
<g id="edge10" class="edge"><title>Style&#45;&gt;Project</title>
<path fill="none" stroke="#fbc487" d="M979.311,-280.778C976.818,-274.544 974.122,-267.805 971.585,-261.463"/>
<ellipse fill="none" stroke="#fbc487" cx="980.879" cy="-284.697" rx="4.00001" ry="4.00001"/>
<polygon fill="#fbc487" stroke="#fbc487" points="971.496,-261.241 971.961,-250.285 969.639,-256.599 967.782,-251.956 967.782,-251.956 967.782,-251.956 969.639,-256.599 963.604,-253.627 971.496,-261.241 971.496,-261.241"/>
</g>
<!-- Behavior -->
<g id="node7" class="node"><title>Behavior</title>
<ellipse fill="none" stroke="black" cx="139" cy="-234" rx="42.7926" ry="18"/>
<text text-anchor="middle" x="139" y="-230.3" font-family="Times,serif" font-size="14.00">Behavior</text>
</g>
<!-- Diagnosis -->
<g id="node20" class="node"><title>Diagnosis</title>
<ellipse fill="none" stroke="black" cx="243" cy="-90" rx="46.2923" ry="18"/>
<text text-anchor="middle" x="243" y="-86.3" font-family="Times,serif" font-size="14.00">Diagnosis</text>
</g>
<!-- Behavior&#45;&gt;Diagnosis -->
<g id="edge13" class="edge"><title>Behavior&#45;&gt;Diagnosis</title>
<path fill="none" stroke="#837aaf" d="M152.201,-208.901C162.669,-190.515 178.132,-164.879 194,-144 201.741,-133.814 211.101,-123.323 219.558,-114.391"/>
<ellipse fill="none" stroke="#837aaf" cx="149.996" cy="-212.817" rx="4.00002" ry="4.00002"/>
<polygon fill="#837aaf" stroke="#837aaf" points="219.753,-114.188 229.933,-110.112 223.223,-110.588 226.693,-106.989 226.693,-106.989 226.693,-106.989 223.223,-110.588 223.453,-103.866 219.753,-114.188 219.753,-114.188"/>
</g>
<!-- Scenario -->
<g id="node29" class="node"><title>Scenario</title>
<ellipse fill="none" stroke="black" cx="100" cy="-162" rx="41.6928" ry="18"/>
<text text-anchor="middle" x="100" y="-158.3" font-family="Times,serif" font-size="14.00">Scenario</text>
</g>
<!-- Behavior&#45;&gt;Scenario -->
<g id="edge11" class="edge"><title>Behavior&#45;&gt;Scenario</title>
<path fill="none" stroke="#06e7cb" d="M125.822,-209.346C122.129,-202.719 118.097,-195.483 114.341,-188.74"/>
<ellipse fill="none" stroke="#06e7cb" cx="127.811" cy="-212.917" rx="4.00002" ry="4.00002"/>
<polygon fill="#06e7cb" stroke="#06e7cb" points="114.314,-188.692 113.378,-177.766 111.881,-184.324 109.447,-179.956 109.447,-179.956 109.447,-179.956 111.881,-184.324 105.516,-182.146 114.314,-188.692 114.314,-188.692"/>
</g>
<!-- Reaction -->
<g id="node30" class="node"><title>Reaction</title>
<ellipse fill="none" stroke="black" cx="278" cy="-162" rx="42.4939" ry="18"/>
<text text-anchor="middle" x="278" y="-158.3" font-family="Times,serif" font-size="14.00">Reaction</text>
</g>
<!-- Behavior&#45;&gt;Reaction -->
<g id="edge12" class="edge"><title>Behavior&#45;&gt;Reaction</title>
<path fill="none" stroke="#e13738" d="M172.725,-216.016C193.857,-205.374 221.058,-191.676 242.516,-180.87"/>
<ellipse fill="none" stroke="#e13738" cx="169.045" cy="-217.87" rx="4.00002" ry="4.00002"/>
<polygon fill="#e13738" stroke="#e13738" points="242.695,-180.779 253.651,-180.301 247.161,-178.531 251.627,-176.282 251.627,-176.282 251.627,-176.282 247.161,-178.531 249.602,-172.262 242.695,-180.779 242.695,-180.779"/>
</g>
<!-- CandidateFeedback -->
<g id="node8" class="node"><title>CandidateFeedback</title>
<ellipse fill="none" stroke="black" cx="1111" cy="-90" rx="79.8859" ry="18"/>
<text text-anchor="middle" x="1111" y="-86.3" font-family="Times,serif" font-size="14.00">CandidateFeedback</text>
</g>
<!-- Candidate -->
<g id="node25" class="node"><title>Candidate</title>
<ellipse fill="none" stroke="black" cx="492" cy="-18" rx="46.2923" ry="18"/>
<text text-anchor="middle" x="492" y="-14.3" font-family="Times,serif" font-size="14.00">Candidate</text>
</g>
<!-- CandidateFeedback&#45;&gt;Candidate -->
<g id="edge14" class="edge"><title>CandidateFeedback&#45;&gt;Candidate</title>
<path fill="none" stroke="#a9b52f" d="M1045.74,-75.8452C1037.76,-74.4408 1029.71,-73.119 1022,-72 849.603,-46.966 643.927,-30.0754 547.307,-22.8996"/>
<ellipse fill="none" stroke="#a9b52f" cx="1049.74" cy="-76.5647" rx="4.00001" ry="4.00001"/>
<polygon fill="#a9b52f" stroke="#a9b52f" points="547.16,-22.8888 537.518,-17.6661 542.174,-22.5214 537.187,-22.154 537.187,-22.154 537.187,-22.154 542.174,-22.5214 536.856,-26.6418 547.16,-22.8888 547.16,-22.8888"/>
</g>
<!-- Installment -->
<g id="node9" class="node"><title>Installment</title>
<ellipse fill="none" stroke="black" cx="1278" cy="-90" rx="50.8918" ry="18"/>
<text text-anchor="middle" x="1278" y="-86.3" font-family="Times,serif" font-size="14.00">Installment</text>
</g>
<!-- Value -->
<g id="node28" class="node"><title>Value</title>
<ellipse fill="none" stroke="black" cx="1278" cy="-18" rx="31.6951" ry="18"/>
<text text-anchor="middle" x="1278" y="-14.3" font-family="Times,serif" font-size="14.00">Value</text>
</g>
<!-- Installment&#45;&gt;Value -->
<g id="edge15" class="edge"><title>Installment&#45;&gt;Value</title>
<path fill="none" stroke="#c54531" d="M1278,-63.6398C1278,-58.0629 1278,-52.1319 1278,-46.4761"/>
<ellipse fill="none" stroke="#c54531" cx="1278" cy="-67.6966" rx="4" ry="4"/>
<polygon fill="#c54531" stroke="#c54531" points="1278,-46.1043 1282.5,-36.1043 1278,-41.1043 1278,-36.1043 1278,-36.1043 1278,-36.1043 1278,-41.1043 1273.5,-36.1044 1278,-46.1043 1278,-46.1043"/>
</g>
<!-- ConsentForm -->
<g id="node10" class="node"><title>ConsentForm</title>
<ellipse fill="none" stroke="black" cx="1439" cy="-522" rx="59.2899" ry="18"/>
<text text-anchor="middle" x="1439" y="-518.3" font-family="Times,serif" font-size="14.00">ConsentForm</text>
</g>
<!-- ConsentForm&#45;&gt;Project -->
<g id="edge16" class="edge"><title>ConsentForm&#45;&gt;Project</title>
<path fill="none" stroke="#dff386" d="M1454.87,-497.218C1465.58,-477.893 1475.39,-450.843 1461,-432 1350.27,-287.023 1224.01,-413.426 1065,-324 1044.72,-312.596 1044.53,-303.296 1027,-288 1014.4,-277.009 999.972,-265.322 987.821,-255.726"/>
<ellipse fill="none" stroke="#dff386" cx="1452.79" cy="-500.763" rx="4.00002" ry="4.00002"/>
<polygon fill="#dff386" stroke="#dff386" points="987.692,-255.625 982.602,-245.912 983.758,-252.539 979.825,-249.452 979.825,-249.452 979.825,-249.452 983.758,-252.539 977.047,-252.993 987.692,-255.625 987.692,-255.625"/>
</g>
<!-- ConsentLog -->
<g id="node27" class="node"><title>ConsentLog</title>
<ellipse fill="none" stroke="black" cx="1398" cy="-450" rx="53.8905" ry="18"/>
<text text-anchor="middle" x="1398" y="-446.3" font-family="Times,serif" font-size="14.00">ConsentLog</text>
</g>
<!-- ConsentForm&#45;&gt;ConsentLog -->
<g id="edge17" class="edge"><title>ConsentForm&#45;&gt;ConsentLog</title>
<path fill="none" stroke="#6f619f" d="M1424.94,-496.998C1421.07,-490.387 1416.86,-483.194 1412.94,-476.502"/>
<ellipse fill="none" stroke="#6f619f" cx="1427.05" cy="-500.603" rx="4.00002" ry="4.00002"/>
<polygon fill="#6f619f" stroke="#6f619f" points="1412.89,-476.418 1411.72,-465.515 1410.36,-472.103 1407.83,-467.789 1407.83,-467.789 1407.83,-467.789 1410.36,-472.103 1403.95,-470.063 1412.89,-476.418 1412.89,-476.418"/>
</g>
<!-- User&#45;&gt;Installment -->
<g id="edge25" class="edge"><title>User&#45;&gt;Installment</title>
<path fill="none" stroke="#e573eb" d="M582.384,-520.632C668.523,-519.056 895.518,-510.819 1079,-468 1188.57,-442.43 1316,-491.516 1316,-379 1316,-379 1316,-379 1316,-233 1316,-191.633 1300.77,-145.722 1289.59,-117.605"/>
<ellipse fill="none" stroke="#e573eb" cx="578.253" cy="-520.701" rx="4" ry="4"/>
<polygon fill="#e573eb" stroke="#e573eb" points="1289.48,-117.346 1289.85,-106.386 1287.59,-112.719 1285.69,-108.093 1285.69,-108.093 1285.69,-108.093 1287.59,-112.719 1281.53,-109.799 1289.48,-117.346 1289.48,-117.346"/>
</g>
<!-- Concept -->
<g id="node12" class="node"><title>Concept</title>
<ellipse fill="none" stroke="black" cx="492" cy="-90" rx="40.0939" ry="18"/>
<text text-anchor="middle" x="492" y="-86.3" font-family="Times,serif" font-size="14.00">Concept</text>
</g>
<!-- User&#45;&gt;Concept -->
<g id="edge22" class="edge"><title>User&#45;&gt;Concept</title>
<path fill="none" stroke="#70cf5b" d="M529.427,-499.559C502.542,-465.121 452.573,-394.205 436,-324 418.183,-248.525 456.002,-159.43 477.883,-116.565"/>
<ellipse fill="none" stroke="#70cf5b" cx="531.998" cy="-502.811" rx="4.00002" ry="4.00002"/>
<polygon fill="#70cf5b" stroke="#70cf5b" points="477.907,-116.519 486.53,-109.744 480.225,-112.088 482.543,-107.658 482.543,-107.658 482.543,-107.658 480.225,-112.088 478.556,-105.572 477.907,-116.519 477.907,-116.519"/>
</g>
<!-- User&#45;&gt;Roster -->
<g id="edge26" class="edge"><title>User&#45;&gt;Roster</title>
<path fill="none" stroke="#1815e7" d="M578.412,-509.883C622.864,-492.537 703.638,-454.797 748,-396 778.176,-356.005 788.57,-296.89 792.141,-262.527"/>
<ellipse fill="none" stroke="#1815e7" cx="574.551" cy="-511.359" rx="4.00001" ry="4.00001"/>
<polygon fill="#1815e7" stroke="#1815e7" points="792.166,-262.254 797.558,-252.705 792.621,-257.274 793.077,-252.295 793.077,-252.295 793.077,-252.295 792.621,-257.274 788.596,-251.885 792.166,-262.254 792.166,-262.254"/>
</g>
<!-- Group -->
<g id="node15" class="node"><title>Group</title>
<ellipse fill="none" stroke="black" cx="978" cy="-450" rx="33.2948" ry="18"/>
<text text-anchor="middle" x="978" y="-446.3" font-family="Times,serif" font-size="14.00">Group</text>
</g>
<!-- User&#45;&gt;Group -->
<g id="edge19" class="edge"><title>User&#45;&gt;Group</title>
<path fill="none" stroke="#4fe10e" d="M583.282,-515.107C662.921,-502.173 852.616,-471.364 936.68,-457.711"/>
<polygon fill="#4fe10e" stroke="#4fe10e" points="583.183,-515.123 572.591,-512.285 578.248,-515.925 573.312,-516.727 573.312,-516.727 573.312,-516.727 578.248,-515.925 574.034,-521.168 583.183,-515.123 583.183,-515.123"/>
<polygon fill="#4fe10e" stroke="#4fe10e" points="936.761,-457.698 947.353,-460.536 941.696,-456.896 946.631,-456.095 946.631,-456.095 946.631,-456.095 941.696,-456.896 945.91,-451.653 936.761,-457.698 936.761,-457.698"/>
</g>
<!-- User&#45;&gt;Project -->
<g id="edge23" class="edge"><title>User&#45;&gt;Project</title>
<path fill="none" stroke="#4fdbb9" d="M582.705,-513.277C615.517,-505.184 664.72,-490.482 703,-468 804.136,-408.605 900.397,-305.119 940.905,-258.708"/>
<polygon fill="#4fdbb9" stroke="#4fdbb9" points="582.39,-513.352 571.618,-511.296 577.526,-514.513 572.663,-515.673 572.663,-515.673 572.663,-515.673 577.526,-514.513 573.707,-520.05 582.39,-513.352 582.39,-513.352"/>
<polygon fill="#4fdbb9" stroke="#4fdbb9" points="941.043,-258.548 950.99,-253.932 944.315,-254.768 947.588,-250.987 947.588,-250.987 947.588,-250.987 944.315,-254.768 944.185,-248.042 941.043,-258.548 941.043,-258.548"/>
</g>
<!-- Email -->
<g id="node18" class="node"><title>Email</title>
<ellipse fill="none" stroke="black" cx="441" cy="-450" rx="32.4942" ry="18"/>
<text text-anchor="middle" x="441" y="-446.3" font-family="Times,serif" font-size="14.00">Email</text>
</g>
<!-- User&#45;&gt;Email -->
<g id="edge18" class="edge"><title>User&#45;&gt;Email</title>
<path fill="none" stroke="#99cab2" d="M521.056,-503.867C505.504,-493.597 485.705,-480.522 469.689,-469.945"/>
<ellipse fill="none" stroke="#99cab2" cx="524.711" cy="-506.281" rx="4.00002" ry="4.00002"/>
<polygon fill="#99cab2" stroke="#99cab2" points="469.575,-469.87 463.71,-460.605 465.403,-467.115 461.23,-464.36 461.23,-464.36 461.23,-464.36 465.403,-467.115 458.75,-468.115 469.575,-469.87 469.575,-469.87"/>
</g>
<!-- Narrative -->
<g id="node24" class="node"><title>Narrative</title>
<ellipse fill="none" stroke="black" cx="203" cy="-378" rx="44.393" ry="18"/>
<text text-anchor="middle" x="203" y="-374.3" font-family="Times,serif" font-size="14.00">Narrative</text>
</g>
<!-- User&#45;&gt;Narrative -->
<g id="edge29" class="edge"><title>User&#45;&gt;Narrative</title>
<path fill="none" stroke="#bdc5d0" d="M509.389,-520.146C456.931,-517.486 360.231,-507.152 289,-468 260.662,-452.424 235.92,-424.402 220.34,-403.951"/>
<polygon fill="#bdc5d0" stroke="#bdc5d0" points="509.588,-520.154 519.381,-525.089 514.583,-520.374 519.579,-520.593 519.579,-520.593 519.579,-520.593 514.583,-520.374 519.776,-516.097 509.588,-520.154 509.588,-520.154"/>
<polygon fill="#bdc5d0" stroke="#bdc5d0" points="220.189,-403.747 217.858,-393.032 217.215,-399.728 214.241,-395.709 214.241,-395.709 214.241,-395.709 217.215,-399.728 210.623,-398.386 220.189,-403.747 220.189,-403.747"/>
</g>
<!-- User&#45;&gt;Candidate -->
<g id="edge24" class="edge"><title>User&#45;&gt;Candidate</title>
<path fill="none" stroke="#cf181a" d="M511.654,-518.952C395.055,-511.244 30,-479.116 30,-379 30,-379 30,-379 30,-161 30,-76.6112 315.2,-37.1712 437.44,-24.1425"/>
<ellipse fill="none" stroke="#cf181a" cx="515.94" cy="-519.228" rx="4" ry="4"/>
<polygon fill="#cf181a" stroke="#cf181a" points="437.756,-24.1095 448.169,-27.5458 442.729,-23.5898 447.701,-23.0701 447.701,-23.0701 447.701,-23.0701 442.729,-23.5898 447.234,-18.5945 437.756,-24.1095 437.756,-24.1095"/>
</g>
<!-- User&#45;&gt;ConsentLog -->
<g id="edge20" class="edge"><title>User&#45;&gt;ConsentLog</title>
<path fill="none" stroke="#b767e8" d="M582.805,-520.829C694.215,-519.815 1044.38,-513.005 1330,-468 1335.85,-467.078 1341.94,-465.892 1347.96,-464.575"/>
<ellipse fill="none" stroke="#b767e8" cx="578.589" cy="-520.864" rx="4" ry="4"/>
<polygon fill="#b767e8" stroke="#b767e8" points="1348.23,-464.513 1358.98,-466.644 1353.1,-463.386 1357.97,-462.26 1357.97,-462.26 1357.97,-462.26 1353.1,-463.386 1356.96,-457.875 1348.23,-464.513 1348.23,-464.513"/>
</g>
<!-- User&#45;&gt;Reaction -->
<g id="edge27" class="edge"><title>User&#45;&gt;Reaction</title>
<path fill="none" stroke="#baddbe" d="M511.702,-516.884C444.099,-506.829 303,-474.414 303,-379 303,-379 303,-379 303,-305 303,-264.381 292.955,-218.202 285.6,-189.832"/>
<ellipse fill="none" stroke="#baddbe" cx="515.995" cy="-517.493" rx="4.00001" ry="4.00001"/>
<polygon fill="#baddbe" stroke="#baddbe" points="285.522,-189.541 287.287,-178.718 284.231,-184.71 282.939,-179.88 282.939,-179.88 282.939,-179.88 284.231,-184.71 278.592,-181.042 285.522,-189.541 285.522,-189.541"/>
</g>
<!-- Assessment -->
<g id="node31" class="node"><title>Assessment</title>
<ellipse fill="none" stroke="black" cx="1197" cy="-162" rx="52.7911" ry="18"/>
<text text-anchor="middle" x="1197" y="-158.3" font-family="Times,serif" font-size="14.00">Assessment</text>
</g>
<!-- User&#45;&gt;Assessment -->
<g id="edge30" class="edge"><title>User&#45;&gt;Assessment</title>
<path fill="none" stroke="#32f246" d="M584.728,-521.804C666.281,-522.466 864.204,-518.247 1020,-468 1118.5,-436.232 1161.23,-418.689 1203,-324 1222.51,-279.767 1224.28,-263.632 1216,-216 1214.48,-207.236 1211.64,-198.006 1208.61,-189.748"/>
<polygon fill="#32f246" stroke="#32f246" points="584.46,-521.801 574.511,-517.189 579.461,-521.745 574.461,-521.689 574.461,-521.689 574.461,-521.689 579.461,-521.745 574.411,-526.188 584.46,-521.801 584.46,-521.801"/>
<polygon fill="#32f246" stroke="#32f246" points="1208.54,-189.568 1209.08,-178.616 1206.71,-184.911 1204.89,-180.255 1204.89,-180.255 1204.89,-180.255 1206.71,-184.911 1200.7,-181.894 1208.54,-189.568 1208.54,-189.568"/>
</g>
<!-- CandidateList -->
<g id="node32" class="node"><title>CandidateList</title>
<ellipse fill="none" stroke="black" cx="541" cy="-378" rx="59.5901" ry="18"/>
<text text-anchor="middle" x="541" y="-374.3" font-family="Times,serif" font-size="14.00">CandidateList</text>
</g>
<!-- User&#45;&gt;CandidateList -->
<g id="edge21" class="edge"><title>User&#45;&gt;CandidateList</title>
<path fill="none" stroke="#13fc3d" d="M545.925,-495.558C544.864,-470.444 543.246,-432.164 542.157,-406.393"/>
<ellipse fill="none" stroke="#13fc3d" cx="546.107" cy="-499.875" rx="4" ry="4"/>
<polygon fill="#13fc3d" stroke="#13fc3d" points="542.149,-406.18 546.222,-395.999 541.937,-401.185 541.726,-396.189 541.726,-396.189 541.726,-396.189 541.937,-401.185 537.23,-396.379 542.149,-406.18 542.149,-406.18"/>
</g>
<!-- User&#45;&gt;Experience -->
<g id="edge28" class="edge"><title>User&#45;&gt;Experience</title>
<path fill="none" stroke="#25d608" d="M509.492,-519.042C474.661,-514.995 424.59,-503.005 400,-468 347.493,-393.253 454.425,-298.334 509.709,-256.48"/>
<polygon fill="#25d608" stroke="#25d608" points="509.816,-519.074 519.324,-524.538 514.792,-519.567 519.767,-520.059 519.767,-520.059 519.767,-520.059 514.792,-519.567 520.211,-515.581 509.816,-519.074 509.816,-519.074"/>
<polygon fill="#25d608" stroke="#25d608" points="509.766,-256.437 520.474,-254.072 513.776,-253.45 517.786,-250.464 517.786,-250.464 517.786,-250.464 513.776,-253.45 515.098,-246.855 509.766,-256.437 509.766,-256.437"/>
</g>
<!-- Concept&#45;&gt;Candidate -->
<g id="edge31" class="edge"><title>Concept&#45;&gt;Candidate</title>
<path fill="none" stroke="#c15c69" d="M492,-63.6398C492,-58.0629 492,-52.1319 492,-46.4761"/>
<ellipse fill="none" stroke="#c15c69" cx="492" cy="-67.6966" rx="4" ry="4"/>
<polygon fill="#c15c69" stroke="#c15c69" points="492,-46.1043 496.5,-36.1043 492,-41.1043 492,-36.1043 492,-36.1043 492,-36.1043 492,-41.1043 487.5,-36.1044 492,-46.1043 492,-46.1043"/>
</g>
<!-- School -->
<g id="node14" class="node"><title>School</title>
<ellipse fill="none" stroke="black" cx="704" cy="-378" rx="35.194" ry="18"/>
<text text-anchor="middle" x="704" y="-374.3" font-family="Times,serif" font-size="14.00">School</text>
</g>
<!-- School&#45;&gt;Course -->
<g id="edge32" class="edge"><title>School&#45;&gt;Course</title>
<path fill="none" stroke="#c28e92" d="M684.381,-355.542C677.183,-347.669 668.996,-338.715 661.632,-330.66"/>
<ellipse fill="none" stroke="#c28e92" cx="687.097" cy="-358.513" rx="4.00002" ry="4.00002"/>
<polygon fill="#c28e92" stroke="#c28e92" points="661.355,-330.357 657.929,-319.941 657.982,-326.667 654.608,-322.977 654.608,-322.977 654.608,-322.977 657.982,-326.667 651.287,-326.014 661.355,-330.357 661.355,-330.357"/>
</g>
<!-- School&#45;&gt;Roster -->
<g id="edge36" class="edge"><title>School&#45;&gt;Roster</title>
<path fill="none" stroke="#8345ce" d="M719.846,-351.999C736.244,-326.126 761.712,-285.944 778.122,-260.052"/>
<polygon fill="#8345ce" stroke="#8345ce" points="719.678,-352.264 710.523,-358.302 717.001,-356.488 714.324,-360.711 714.324,-360.711 714.324,-360.711 717.001,-356.488 718.125,-363.12 719.678,-352.264 719.678,-352.264"/>
<polygon fill="#8345ce" stroke="#8345ce" points="778.166,-259.983 787.32,-253.946 780.842,-255.76 783.519,-251.537 783.519,-251.537 783.519,-251.537 780.842,-255.76 779.718,-249.128 778.166,-259.983 778.166,-259.983"/>
</g>
<!-- School&#45;&gt;Project -->
<g id="edge34" class="edge"><title>School&#45;&gt;Project</title>
<path fill="none" stroke="#8b08ec" d="M736.145,-359.239C785.443,-332.001 879.188,-280.203 928.625,-252.888"/>
<polygon fill="#8b08ec" stroke="#8b08ec" points="736.013,-359.312 725.084,-360.209 731.637,-361.73 727.26,-364.148 727.26,-364.148 727.26,-364.148 731.637,-361.73 729.437,-368.087 736.013,-359.312 736.013,-359.312"/>
<polygon fill="#8b08ec" stroke="#8b08ec" points="928.854,-252.761 939.783,-251.864 933.231,-250.343 937.607,-247.925 937.607,-247.925 937.607,-247.925 933.231,-250.343 935.431,-243.987 928.854,-252.761 928.854,-252.761"/>
</g>
<!-- School&#45;&gt;Experience -->
<g id="edge35" class="edge"><title>School&#45;&gt;Experience</title>
<path fill="none" stroke="#0e1a0d" d="M664.966,-364.233C642.625,-355.501 615.126,-342.19 595,-324 575.633,-306.496 560.677,-280.595 551.283,-261.242"/>
<polygon fill="#0e1a0d" stroke="#0e1a0d" points="665.142,-364.299 672.926,-372.023 669.824,-366.054 674.506,-367.81 674.506,-367.81 674.506,-367.81 669.824,-366.054 676.086,-363.596 665.142,-364.299 665.142,-364.299"/>
<polygon fill="#0e1a0d" stroke="#0e1a0d" points="551.23,-261.129 551.082,-250.164 549.117,-256.598 547.004,-252.066 547.004,-252.066 547.004,-252.066 549.117,-256.598 542.925,-253.968 551.23,-261.129 551.23,-261.129"/>
</g>
<!-- School&#45;&gt;BingoGame -->
<g id="edge33" class="edge"><title>School&#45;&gt;BingoGame</title>
<path fill="none" stroke="#0be942" d="M703.92,-349.5C703.11,-316.901 699.46,-261.287 685,-216 682.001,-206.608 677.294,-196.967 672.539,-188.527"/>
<polygon fill="#0be942" stroke="#0be942" points="703.922,-349.627 699.598,-359.704 704.01,-354.626 704.097,-359.625 704.097,-359.625 704.097,-359.625 704.01,-354.626 708.597,-359.547 703.922,-349.627 703.922,-349.627"/>
<polygon fill="#0be942" stroke="#0be942" points="672.531,-188.513 671.31,-177.616 669.984,-184.211 667.437,-179.908 667.437,-179.908 667.437,-179.908 669.984,-184.211 663.565,-182.2 672.531,-188.513 672.531,-188.513"/>
</g>
<!-- Group&#45;&gt;Installment -->
<g id="edge39" class="edge"><title>Group&#45;&gt;Installment</title>
<path fill="none" stroke="#62cf9b" d="M1017.99,-443.617C1054.52,-437.146 1108.67,-423.51 1148,-396 1242.56,-329.866 1268.74,-180.284 1275.65,-118.497"/>
<ellipse fill="none" stroke="#62cf9b" cx="1013.96" cy="-444.299" rx="4.00001" ry="4.00001"/>
<polygon fill="#62cf9b" stroke="#62cf9b" points="1275.67,-118.301 1281.17,-108.816 1276.18,-113.327 1276.7,-108.354 1276.7,-108.354 1276.7,-108.354 1276.18,-113.327 1272.22,-107.892 1275.67,-118.301 1275.67,-118.301"/>
</g>
<!-- GroupRevision -->
<g id="node26" class="node"><title>GroupRevision</title>
<ellipse fill="none" stroke="black" cx="1024" cy="-378" rx="64.189" ry="18"/>
<text text-anchor="middle" x="1024" y="-374.3" font-family="Times,serif" font-size="14.00">GroupRevision</text>
</g>
<!-- Group&#45;&gt;GroupRevision -->
<g id="edge37" class="edge"><title>Group&#45;&gt;GroupRevision</title>
<path fill="none" stroke="#5fbdbe" d="M993.129,-425.978C997.625,-419.136 1002.58,-411.599 1007.18,-404.603"/>
<ellipse fill="none" stroke="#5fbdbe" cx="990.866" cy="-429.422" rx="4.00002" ry="4.00002"/>
<polygon fill="#5fbdbe" stroke="#5fbdbe" points="1007.26,-404.481 1016.51,-398.595 1010,-400.302 1012.75,-396.124 1012.75,-396.124 1012.75,-396.124 1010,-400.302 1008.99,-393.653 1007.26,-404.481 1007.26,-404.481"/>
</g>
<!-- Group&#45;&gt;CandidateList -->
<g id="edge38" class="edge"><title>Group&#45;&gt;CandidateList</title>
<path fill="none" stroke="#0edaad" d="M938.296,-442.64C861.766,-430.381 693.374,-403.408 602.326,-388.823"/>
<ellipse fill="none" stroke="#0edaad" cx="942.622" cy="-443.333" rx="4.00001" ry="4.00001"/>
<polygon fill="#0edaad" stroke="#0edaad" points="602.295,-388.819 593.133,-382.793 597.358,-388.028 592.421,-387.237 592.421,-387.237 592.421,-387.237 597.358,-388.028 591.709,-391.68 602.295,-388.819 602.295,-388.819"/>
</g>
<!-- Project&#45;&gt;Group -->
<g id="edge40" class="edge"><title>Project&#45;&gt;Group</title>
<path fill="none" stroke="#fb01bb" d="M954.913,-260.176C948.192,-292.204 939.719,-349.004 951,-396 953.277,-405.484 957.549,-415.185 962.034,-423.651"/>
<ellipse fill="none" stroke="#fb01bb" cx="955.802" cy="-256.115" rx="4.00001" ry="4.00001"/>
<polygon fill="#fb01bb" stroke="#fb01bb" points="962.175,-423.901 963.175,-434.821 964.634,-428.254 967.094,-432.608 967.094,-432.608 967.094,-432.608 964.634,-428.254 971.012,-430.394 962.175,-423.901 962.175,-423.901"/>
</g>
<!-- Project&#45;&gt;Factor -->
<g id="edge43" class="edge"><title>Project&#45;&gt;Factor</title>
<path fill="none" stroke="#055b52" d="M964.656,-205.679C968.026,-180.487 973.003,-143.295 976.367,-118.156"/>
<polygon fill="#055b52" stroke="#055b52" points="964.618,-205.96 958.832,-215.275 963.955,-210.916 963.292,-215.871 963.292,-215.871 963.292,-215.871 963.955,-210.916 967.752,-216.468 964.618,-205.96 964.618,-205.96"/>
<polygon fill="#055b52" stroke="#055b52" points="976.374,-118.101 982.16,-108.786 977.037,-113.145 977.7,-108.189 977.7,-108.189 977.7,-108.189 977.037,-113.145 973.24,-107.592 976.374,-118.101 976.374,-118.101"/>
</g>
<!-- Project&#45;&gt;Assessment -->
<g id="edge42" class="edge"><title>Project&#45;&gt;Assessment</title>
<path fill="none" stroke="#9baeee" d="M999.224,-221.662C1039.99,-209.569 1104.66,-190.388 1148.87,-177.275"/>
<ellipse fill="none" stroke="#9baeee" cx="995.205" cy="-222.855" rx="4.00001" ry="4.00001"/>
<polygon fill="#9baeee" stroke="#9baeee" points="1148.95,-177.253 1159.82,-178.723 1153.74,-175.831 1158.54,-174.409 1158.54,-174.409 1158.54,-174.409 1153.74,-175.831 1157.26,-170.095 1148.95,-177.253 1148.95,-177.253"/>
</g>
<!-- Project&#45;&gt;BingoGame -->
<g id="edge41" class="edge"><title>Project&#45;&gt;BingoGame</title>
<path fill="none" stroke="#ad23f0" d="M921.117,-223.847C866.876,-211.398 769.698,-189.095 709.266,-175.225"/>
<ellipse fill="none" stroke="#ad23f0" cx="925.324" cy="-224.812" rx="4.00001" ry="4.00001"/>
<polygon fill="#ad23f0" stroke="#ad23f0" points="708.909,-175.143 700.169,-168.52 704.035,-174.025 699.162,-172.906 699.162,-172.906 699.162,-172.906 704.035,-174.025 698.155,-177.292 708.909,-175.143 708.909,-175.143"/>
</g>
<!-- Gender -->
<g id="node17" class="node"><title>Gender</title>
<ellipse fill="none" stroke="black" cx="637" cy="-615" rx="36.2938" ry="18"/>
<text text-anchor="middle" x="637" y="-611.3" font-family="Times,serif" font-size="14.00">Gender</text>
</g>
<!-- Gender&#45;&gt;User -->
<g id="edge44" class="edge"><title>Gender&#45;&gt;User</title>
<path fill="none" stroke="#664914" d="M615.869,-592.634C601.604,-578.211 582.836,-559.235 568.496,-544.735"/>
<ellipse fill="none" stroke="#664914" cx="618.92" cy="-595.719" rx="4.00002" ry="4.00002"/>
<polygon fill="#664914" stroke="#664914" points="568.479,-544.718 564.647,-534.444 564.964,-541.163 561.448,-537.608 561.448,-537.608 561.448,-537.608 564.964,-541.163 558.248,-540.772 568.479,-544.718 568.479,-544.718"/>
</g>
<!-- AgeRange -->
<g id="node19" class="node"><title>AgeRange</title>
<ellipse fill="none" stroke="black" cx="739" cy="-615" rx="48.1917" ry="18"/>
<text text-anchor="middle" x="739" y="-611.3" font-family="Times,serif" font-size="14.00">AgeRange</text>
</g>
<!-- AgeRange&#45;&gt;User -->
<g id="edge45" class="edge"><title>AgeRange&#45;&gt;User</title>
<path fill="none" stroke="#f2020f" d="M711.558,-593.985C702.41,-587.785 691.998,-581.219 682,-576 648.8,-558.671 608.609,-543.588 580.756,-533.99"/>
<ellipse fill="none" stroke="#f2020f" cx="714.988" cy="-596.353" rx="4.00002" ry="4.00002"/>
<polygon fill="#f2020f" stroke="#f2020f" points="580.558,-533.923 572.535,-526.447 575.823,-532.316 571.089,-530.709 571.089,-530.709 571.089,-530.709 575.823,-532.316 569.642,-534.97 580.558,-533.923 580.558,-533.923"/>
</g>
<!-- Diagnosis&#45;&gt;User -->
<g id="edge46" class="edge"><title>Diagnosis&#45;&gt;User</title>
<path fill="none" stroke="#48293a" d="M282.523,-106.87C299.239,-115.487 317.471,-127.751 329,-144 414.307,-264.227 302.769,-357.195 400,-468 428.372,-500.333 477.992,-512.946 511.655,-517.863"/>
<ellipse fill="none" stroke="#48293a" cx="278.57" cy="-104.929" rx="4.00002" ry="4.00002"/>
<ellipse fill="#48293a" stroke="#48293a" cx="515.882" cy="-518.426" rx="4.00001" ry="4.00001"/>
</g>
<!-- CipCode -->
<g id="node22" class="node"><title>CipCode</title>
<ellipse fill="none" stroke="black" cx="274" cy="-615" rx="42.4939" ry="18"/>
<text text-anchor="middle" x="274" y="-611.3" font-family="Times,serif" font-size="14.00">CipCode</text>
</g>
<!-- CipCode&#45;&gt;User -->
<g id="edge47" class="edge"><title>CipCode&#45;&gt;User</title>
<path fill="none" stroke="#46bac2" d="M298.31,-593.168C306.649,-586.884 316.327,-580.474 326,-576 387.13,-547.725 465,-533.593 510.105,-527.314"/>
<ellipse fill="none" stroke="#46bac2" cx="294.802" cy="-595.909" rx="4.00002" ry="4.00002"/>
<polygon fill="#46bac2" stroke="#46bac2" points="510.114,-527.313 520.622,-530.447 515.07,-526.65 520.025,-525.987 520.025,-525.987 520.025,-525.987 515.07,-526.65 519.429,-521.526 510.114,-527.313 510.114,-527.313"/>
</g>
<!-- Week -->
<g id="node23" class="node"><title>Week</title>
<ellipse fill="none" stroke="black" cx="203" cy="-306" rx="31.6951" ry="18"/>
<text text-anchor="middle" x="203" y="-302.3" font-family="Times,serif" font-size="14.00">Week</text>
</g>
<!-- Week&#45;&gt;Behavior -->
<g id="edge48" class="edge"><title>Week&#45;&gt;Behavior</title>
<path fill="none" stroke="#88277b" d="M183.381,-283.542C175.733,-275.177 166.969,-265.591 159.261,-257.16"/>
<ellipse fill="none" stroke="#88277b" cx="186.097" cy="-286.513" rx="4.00002" ry="4.00002"/>
<ellipse fill="#88277b" stroke="#88277b" cx="156.307" cy="-253.929" rx="4.00002" ry="4.00002"/>
</g>
<!-- Week&#45;&gt;Diagnosis -->
<g id="edge49" class="edge"><title>Week&#45;&gt;Diagnosis</title>
<path fill="none" stroke="#428b04" d="M205.631,-279.606C209.2,-247.701 216.374,-191.387 227,-144 228.944,-135.332 231.569,-126.015 234.131,-117.647"/>
<ellipse fill="none" stroke="#428b04" cx="205.155" cy="-283.953" rx="4" ry="4"/>
<polygon fill="#428b04" stroke="#428b04" points="234.161,-117.553 241.465,-109.374 235.667,-112.786 237.174,-108.018 237.174,-108.018 237.174,-108.018 235.667,-112.786 232.884,-106.662 234.161,-117.553 234.161,-117.553"/>
</g>
<!-- Narrative&#45;&gt;Behavior -->
<g id="edge51" class="edge"><title>Narrative&#45;&gt;Behavior</title>
<path fill="none" stroke="#a4cd2c" d="M182.562,-354.782C175.18,-345.775 167.355,-334.928 162,-324 152.012,-303.619 146.023,-278.415 142.673,-260.037"/>
<ellipse fill="none" stroke="#a4cd2c" cx="185.233" cy="-357.937" rx="4.00002" ry="4.00002"/>
<ellipse fill="#a4cd2c" stroke="#a4cd2c" cx="141.99" cy="-256.058" rx="4.00001" ry="4.00001"/>
</g>
<!-- Narrative&#45;&gt;Week -->
<g id="edge50" class="edge"><title>Narrative&#45;&gt;Week</title>
<path fill="none" stroke="#e53be2" d="M203,-351.64C203,-346.063 203,-340.132 203,-334.476"/>
<ellipse fill="none" stroke="#e53be2" cx="203" cy="-355.697" rx="4" ry="4"/>
<polygon fill="#e53be2" stroke="#e53be2" points="203,-334.104 207.5,-324.104 203,-329.104 203,-324.104 203,-324.104 203,-324.104 203,-329.104 198.5,-324.104 203,-334.104 203,-334.104"/>
</g>
<!-- Narrative&#45;&gt;Reaction -->
<g id="edge52" class="edge"><title>Narrative&#45;&gt;Reaction</title>
<path fill="none" stroke="#90eb72" d="M223.696,-354.905C231.111,-345.913 238.891,-335.045 244,-324 264.366,-279.973 272.674,-223.518 275.959,-190.492"/>
<ellipse fill="none" stroke="#90eb72" cx="221.004" cy="-358.055" rx="4.00002" ry="4.00002"/>
<polygon fill="#90eb72" stroke="#90eb72" points="275.985,-190.201 281.372,-180.649 276.438,-185.221 276.891,-180.242 276.891,-180.242 276.891,-180.242 276.438,-185.221 272.409,-179.834 275.985,-190.201 275.985,-190.201"/>
</g>
<!-- Scenario&#45;&gt;Narrative -->
<g id="edge53" class="edge"><title>Scenario&#45;&gt;Narrative</title>
<path fill="none" stroke="#95c3da" d="M90.2012,-187.704C84.4463,-205.915 79.6136,-231.056 87,-252 102.684,-296.471 143.756,-333.993 172.552,-355.997"/>
<ellipse fill="none" stroke="#95c3da" cx="91.5808" cy="-183.651" rx="4.00001" ry="4.00001"/>
<polygon fill="#95c3da" stroke="#95c3da" points="172.664,-356.08 177.998,-365.661 176.675,-359.066 180.685,-362.052 180.685,-362.052 180.685,-362.052 176.675,-359.066 183.372,-358.442 172.664,-356.08 172.664,-356.08"/>
</g>
<!-- Reaction&#45;&gt;Course -->
<g id="edge54" class="edge"><title>Reaction&#45;&gt;Course</title>
<path fill="none" stroke="#3a3070" d="M328.158,-165.619C407.524,-170.679 557.34,-184.24 599,-216 619.333,-231.501 629.923,-259.477 635.202,-279.937"/>
<ellipse fill="none" stroke="#3a3070" cx="323.764" cy="-165.347" rx="4" ry="4"/>
<ellipse fill="#3a3070" stroke="#3a3070" cx="636.17" cy="-284.021" rx="4.00001" ry="4.00001"/>
</g>
<!-- Reaction&#45;&gt;Diagnosis -->
<g id="edge55" class="edge"><title>Reaction&#45;&gt;Diagnosis</title>
<path fill="none" stroke="#c76bd8" d="M265.857,-136.714C262.651,-130.302 259.179,-123.358 255.932,-116.865"/>
<ellipse fill="none" stroke="#c76bd8" cx="267.739" cy="-140.477" rx="4.00002" ry="4.00002"/>
<polygon fill="#c76bd8" stroke="#c76bd8" points="255.867,-116.733 255.419,-105.777 253.631,-112.261 251.395,-107.789 251.395,-107.789 251.395,-107.789 253.631,-112.261 247.37,-109.801 255.867,-116.733 255.867,-116.733"/>
</g>
<!-- Assessment&#45;&gt;Installment -->
<g id="edge56" class="edge"><title>Assessment&#45;&gt;Installment</title>
<path fill="none" stroke="#396123" d="M1221.55,-139.78C1231.14,-131.496 1242.14,-121.986 1251.88,-113.576"/>
<ellipse fill="none" stroke="#396123" cx="1218.41" cy="-142.5" rx="4.00002" ry="4.00002"/>
<polygon fill="#396123" stroke="#396123" points="1252.13,-113.36 1262.63,-110.226 1255.91,-110.091 1259.69,-106.821 1259.69,-106.821 1259.69,-106.821 1255.91,-110.091 1256.75,-103.416 1252.13,-113.36 1252.13,-113.36"/>
</g>
<!-- Assessment&#45;&gt;Group -->
<g id="edge58" class="edge"><title>Assessment&#45;&gt;Group</title>
<path fill="none" stroke="#48412d" d="M1200.7,-190.127C1203.96,-223.609 1205.22,-281.339 1183,-324 1149.49,-388.331 1066.82,-422.961 1017.3,-438.544"/>
<polygon fill="#48412d" stroke="#48412d" points="1200.7,-190.098 1204.07,-179.665 1200.15,-185.128 1199.6,-180.159 1199.6,-180.159 1199.6,-180.159 1200.15,-185.128 1195.13,-180.653 1200.7,-190.098 1200.7,-190.098"/>
<polygon fill="#48412d" stroke="#48412d" points="1017.13,-438.594 1006.26,-437.191 1012.35,-440.045 1007.57,-441.497 1007.57,-441.497 1007.57,-441.497 1012.35,-440.045 1008.87,-445.803 1017.13,-438.594 1017.13,-438.594"/>
</g>
<!-- Assessment&#45;&gt;Factor -->
<g id="edge57" class="edge"><title>Assessment&#45;&gt;Factor</title>
<path fill="none" stroke="#782f5c" d="M1147.36,-147.265C1112.12,-137.197 1063.82,-122.763 1022,-108 1019.75,-107.205 1017.44,-106.359 1015.12,-105.485"/>
<polygon fill="#782f5c" stroke="#782f5c" points="1147.78,-147.384 1156.17,-154.444 1152.59,-148.749 1157.4,-150.115 1157.4,-150.115 1157.4,-150.115 1152.59,-148.749 1158.63,-145.786 1147.78,-147.384 1147.78,-147.384"/>
<polygon fill="#782f5c" stroke="#782f5c" points="1014.95,-105.42 1007.25,-97.6055 1010.29,-103.61 1005.62,-101.8 1005.62,-101.8 1005.62,-101.8 1010.29,-103.61 1004,-105.995 1014.95,-105.42 1014.95,-105.42"/>
</g>
<!-- CandidateList&#45;&gt;Course -->
<g id="edge61" class="edge"><title>CandidateList&#45;&gt;Course</title>
<path fill="none" stroke="#e0309b" d="M570.102,-356.423C583.763,-346.764 599.935,-335.329 613.282,-325.892"/>
<ellipse fill="none" stroke="#e0309b" cx="566.731" cy="-358.807" rx="4.00002" ry="4.00002"/>
<ellipse fill="#e0309b" stroke="#e0309b" cx="616.709" cy="-323.468" rx="4.00002" ry="4.00002"/>
</g>
<!-- CandidateList&#45;&gt;Concept -->
<g id="edge60" class="edge"><title>CandidateList&#45;&gt;Concept</title>
<path fill="none" stroke="#942d0f" d="M524.519,-351.472C509.807,-327.054 489.336,-288.631 481,-252 470.499,-205.858 478.644,-150.517 485.401,-118.203"/>
<polygon fill="#942d0f" stroke="#942d0f" points="524.595,-351.596 526.006,-362.47 527.217,-355.853 529.838,-360.111 529.838,-360.111 529.838,-360.111 527.217,-355.853 533.67,-357.752 524.595,-351.596 524.595,-351.596"/>
<polygon fill="#942d0f" stroke="#942d0f" points="485.459,-117.939 492.005,-109.141 486.534,-113.056 487.61,-108.173 487.61,-108.173 487.61,-108.173 486.534,-113.056 483.215,-107.205 485.459,-117.939 485.459,-117.939"/>
</g>
<!-- CandidateList&#45;&gt;Candidate -->
<g id="edge59" class="edge"><title>CandidateList&#45;&gt;Candidate</title>
<path fill="none" stroke="#378ee3" d="M508.623,-356.937C473.995,-332.702 424,-288.455 424,-235 424,-235 424,-235 424,-161 424,-120.553 424.385,-107.909 443,-72 448.71,-60.986 457.331,-50.5644 465.759,-41.9242"/>
<ellipse fill="none" stroke="#378ee3" cx="512.021" cy="-359.258" rx="4.00002" ry="4.00002"/>
<polygon fill="#378ee3" stroke="#378ee3" points="465.881,-41.8051 476.18,-38.0399 469.459,-38.3124 473.037,-34.8198 473.037,-34.8198 473.037,-34.8198 469.459,-38.3124 469.893,-31.5996 465.881,-41.8051 465.881,-41.8051"/>
</g>
<!-- Experience&#45;&gt;Reaction -->
<g id="edge62" class="edge"><title>Experience&#45;&gt;Reaction</title>
<path fill="none" stroke="#eecb27" d="M493.026,-220.45C444.731,-207.546 370.074,-187.6 322.647,-174.929"/>
<ellipse fill="none" stroke="#eecb27" cx="497.194" cy="-221.563" rx="4.00001" ry="4.00001"/>
<polygon fill="#eecb27" stroke="#eecb27" points="322.62,-174.922 314.121,-167.993 317.79,-173.631 312.959,-172.34 312.959,-172.34 312.959,-172.34 317.79,-173.631 311.798,-176.688 322.62,-174.922 322.62,-174.922"/>
</g>
<!-- BingoGame&#45;&gt;Concept -->
<g id="edge65" class="edge"><title>BingoGame&#45;&gt;Concept</title>
<path fill="none" stroke="#af3a49" d="M614.751,-143.394C588.533,-132.203 554.862,-117.831 529.418,-106.971"/>
<polygon fill="#af3a49" stroke="#af3a49" points="614.793,-143.411 622.223,-151.476 619.391,-145.374 623.99,-147.337 623.99,-147.337 623.99,-147.337 619.391,-145.374 625.756,-143.198 614.793,-143.411 614.793,-143.411"/>
<polygon fill="#af3a49" stroke="#af3a49" points="529.3,-106.921 521.869,-98.8561 524.701,-104.958 520.102,-102.995 520.102,-102.995 520.102,-102.995 524.701,-104.958 518.336,-107.134 529.3,-106.921 529.3,-106.921"/>
</g>
<!-- BingoGame&#45;&gt;Candidate -->
<g id="edge64" class="edge"><title>BingoGame&#45;&gt;Candidate</title>
<path fill="none" stroke="#8c6587" d="M629.944,-138.44C599.233,-111.848 548.513,-67.9318 517.879,-41.4074"/>
<polygon fill="#8c6587" stroke="#8c6587" points="629.946,-138.441 634.56,-148.389 633.726,-141.714 637.506,-144.987 637.506,-144.987 637.506,-144.987 633.726,-141.714 640.452,-141.585 629.946,-138.441 629.946,-138.441"/>
<polygon fill="#8c6587" stroke="#8c6587" points="517.736,-41.2838 513.122,-31.336 513.956,-38.0109 510.176,-34.738 510.176,-34.738 510.176,-34.738 513.956,-38.0109 507.231,-38.14 517.736,-41.2838 517.736,-41.2838"/>
</g>
<!-- BingoGame&#45;&gt;CandidateList -->
<g id="edge63" class="edge"><title>BingoGame&#45;&gt;CandidateList</title>
<path fill="none" stroke="#9f3005" d="M643.106,-186.994C621.364,-227.454 577.583,-308.924 555.072,-350.814"/>
<ellipse fill="none" stroke="#9f3005" cx="645.006" cy="-183.459" rx="4.00002" ry="4.00002"/>
<polygon fill="#9f3005" stroke="#9f3005" points="554.95,-351.041 546.253,-357.719 552.583,-355.445 550.217,-359.849 550.217,-359.849 550.217,-359.849 552.583,-355.445 554.18,-361.979 554.95,-351.041 554.95,-351.041"/>
</g>
<!-- Role -->
<g id="node35" class="node"><title>Role</title>
<ellipse fill="none" stroke="black" cx="848" cy="-615" rx="27.0966" ry="18"/>
<text text-anchor="middle" x="848" y="-611.3" font-family="Times,serif" font-size="14.00">Role</text>
</g>
<!-- Role&#45;&gt;User -->
<g id="edge66" class="edge"><title>Role&#45;&gt;User</title>
<path fill="none" stroke="#73adf3" d="M825.898,-594.658C817.106,-587.851 806.575,-580.727 796,-576 724.993,-544.256 633.943,-531.11 583.961,-525.993"/>
<ellipse fill="none" stroke="#73adf3" cx="829.133" cy="-597.254" rx="4.00002" ry="4.00002"/>
<polygon fill="#73adf3" stroke="#73adf3" points="583.894,-525.987 574.377,-520.54 578.918,-525.503 573.941,-525.019 573.941,-525.019 573.941,-525.019 578.918,-525.503 573.506,-529.498 583.894,-525.987 583.894,-525.987"/>
</g>
<!-- Role&#45;&gt;Roster -->
<g id="edge67" class="edge"><title>Role&#45;&gt;Roster</title>
<path fill="none" stroke="#bf6444" d="M844.387,-588.641C834.671,-520.452 808.04,-333.54 797.948,-262.707"/>
<ellipse fill="none" stroke="#bf6444" cx="844.975" cy="-592.77" rx="4.00001" ry="4.00001"/>
<polygon fill="#bf6444" stroke="#bf6444" points="797.886,-262.271 800.93,-251.736 797.18,-257.321 796.475,-252.371 796.475,-252.371 796.475,-252.371 797.18,-257.321 792.02,-253.006 797.886,-262.271 797.886,-262.271"/>
</g>
</g>
</svg>
