<?xml version="1.0" encoding="UTF-8" standalone="no"?>
<!DOCTYPE svg PUBLIC "-//W3C//DTD SVG 1.1//EN"
 "http://www.w3.org/Graphics/SVG/1.1/DTD/svg11.dtd">
<!-- Generated by graphviz version 2.38.0 (20140413.2041)
 -->
<!-- Title: models_diagram Pages: 1 -->
<svg width="1039pt" height="590pt"
 viewBox="0.00 0.00 1038.94 590.00" xmlns="http://www.w3.org/2000/svg" xmlns:xlink="http://www.w3.org/1999/xlink">
<g id="graph0" class="graph" transform="scale(1 1) rotate(0) translate(4 586)">
<title>models_diagram</title>
<polygon fill="none" stroke="none" points="-4,4 -4,-586 1034.94,-586 1034.94,4 -4,4"/>
<!-- _diagram_info -->
<g id="node1" class="node"><title>_diagram_info</title>
<text text-anchor="start" x="475.797" y="-567.6" font-family="Times,serif" font-size="13.00">Models diagram</text>
<text text-anchor="start" x="475.797" y="-553.6" font-family="Times,serif" font-size="13.00">Date: Mar 31 2017 &#45; 17:59</text>
<text text-anchor="start" x="475.797" y="-539.6" font-family="Times,serif" font-size="13.00">Migration version: 20170331045901</text>
<text text-anchor="start" x="475.797" y="-525.6" font-family="Times,serif" font-size="13.00">Generated by RailRoady 1.5.2</text>
<text text-anchor="start" x="475.797" y="-511.6" font-family="Times,serif" font-size="13.00">http://railroady.prestonlee.com</text>
</g>
<!-- GroupProjectCount -->
<g id="node2" class="node"><title>GroupProjectCount</title>
<ellipse fill="none" stroke="black" cx="512.797" cy="-450" rx="79.0865" ry="18"/>
<text text-anchor="middle" x="512.797" y="-446.3" font-family="Times,serif" font-size="14.00">GroupProjectCount</text>
</g>
<!-- User -->
<g id="node11" class="node"><title>User</title>
<ellipse fill="none" stroke="black" cx="382.797" cy="-378" rx="27.0966" ry="18"/>
<text text-anchor="middle" x="382.797" y="-374.3" font-family="Times,serif" font-size="14.00">User</text>
</g>
<!-- GroupProjectCount&#45;&gt;User -->
<g id="edge1" class="edge"><title>GroupProjectCount&#45;&gt;User</title>
<path fill="none" stroke="#0dcf1a" d="M476.193,-429.29C456.009,-418.422 431.278,-405.105 412.337,-394.906"/>
<ellipse fill="none" stroke="#0dcf1a" cx="479.776" cy="-431.219" rx="4.00002" ry="4.00002"/>
<polygon fill="#0dcf1a" stroke="#0dcf1a" points="412.086,-394.771 405.415,-386.068 407.684,-392.401 403.282,-390.03 403.282,-390.03 403.282,-390.03 407.684,-392.401 401.148,-393.992 412.086,-394.771 412.086,-394.771"/>
</g>
<!-- Theme -->
<g id="node3" class="node"><title>Theme</title>
<ellipse fill="none" stroke="black" cx="645.797" cy="-450" rx="35.9954" ry="18"/>
<text text-anchor="middle" x="645.797" y="-446.3" font-family="Times,serif" font-size="14.00">Theme</text>
</g>
<!-- Theme&#45;&gt;User -->
<g id="edge2" class="edge"><title>Theme&#45;&gt;User</title>
<path fill="none" stroke="#186f79" d="M610.689,-435.266C607.364,-434.107 604.028,-432.999 600.797,-432 537.409,-412.402 461.856,-395.419 418.393,-386.248"/>
<ellipse fill="none" stroke="#186f79" cx="614.613" cy="-436.677" rx="4.00001" ry="4.00001"/>
<polygon fill="#186f79" stroke="#186f79" points="418.37,-386.243 409.503,-379.791 413.475,-385.219 408.581,-384.195 408.581,-384.195 408.581,-384.195 413.475,-385.219 407.66,-388.6 418.37,-386.243 418.37,-386.243"/>
</g>
<!-- FactorPack -->
<g id="node4" class="node"><title>FactorPack</title>
<ellipse fill="none" stroke="black" cx="976.797" cy="-378" rx="50.0912" ry="18"/>
<text text-anchor="middle" x="976.797" y="-374.3" font-family="Times,serif" font-size="14.00">FactorPack</text>
</g>
<!-- Project -->
<g id="node16" class="node"><title>Project</title>
<ellipse fill="none" stroke="black" cx="804.797" cy="-306" rx="35.9954" ry="18"/>
<text text-anchor="middle" x="804.797" y="-302.3" font-family="Times,serif" font-size="14.00">Project</text>
</g>
<!-- FactorPack&#45;&gt;Project -->
<g id="edge4" class="edge"><title>FactorPack&#45;&gt;Project</title>
<path fill="none" stroke="#5c7b60" d="M937.33,-360.938C908.41,-349.168 869.445,-333.31 841.256,-321.838"/>
<ellipse fill="none" stroke="#5c7b60" cx="941.143" cy="-362.49" rx="4.00001" ry="4.00001"/>
<polygon fill="#5c7b60" stroke="#5c7b60" points="841.031,-321.746 833.465,-313.809 836.4,-319.862 831.769,-317.977 831.769,-317.977 831.769,-317.977 836.4,-319.862 830.072,-322.145 841.031,-321.746 841.031,-321.746"/>
</g>
<!-- Factor -->
<g id="node21" class="node"><title>Factor</title>
<ellipse fill="none" stroke="black" cx="997.797" cy="-162" rx="33.2948" ry="18"/>
<text text-anchor="middle" x="997.797" y="-158.3" font-family="Times,serif" font-size="14.00">Factor</text>
</g>
<!-- FactorPack&#45;&gt;Factor -->
<g id="edge3" class="edge"><title>FactorPack&#45;&gt;Factor</title>
<path fill="none" stroke="#6fc589" d="M979.475,-349.712C983.504,-308.65 991.083,-231.417 995.115,-190.33"/>
<polygon fill="#6fc589" stroke="#6fc589" points="979.457,-349.897 974.002,-359.41 978.968,-354.873 978.48,-359.849 978.48,-359.849 978.48,-359.849 978.968,-354.873 982.959,-360.289 979.457,-349.897 979.457,-349.897"/>
<polygon fill="#6fc589" stroke="#6fc589" points="995.129,-190.185 1000.58,-180.672 995.618,-185.209 996.106,-180.232 996.106,-180.232 996.106,-180.232 995.618,-185.209 991.627,-179.793 995.129,-190.185 995.129,-190.185"/>
</g>
<!-- Course -->
<g id="node5" class="node"><title>Course</title>
<ellipse fill="none" stroke="black" cx="734.797" cy="-450" rx="35.9954" ry="18"/>
<text text-anchor="middle" x="734.797" y="-446.3" font-family="Times,serif" font-size="14.00">Course</text>
</g>
<!-- Course&#45;&gt;User -->
<g id="edge8" class="edge"><title>Course&#45;&gt;User</title>
<path fill="none" stroke="#eefb15" d="M698.641,-434.383C696.006,-433.518 693.372,-432.711 690.797,-432 594.79,-405.475 478.096,-389.738 419.752,-382.957"/>
<polygon fill="#eefb15" stroke="#eefb15" points="698.657,-434.389 706.594,-441.956 703.373,-436.05 708.089,-437.711 708.089,-437.711 708.089,-437.711 703.373,-436.05 709.584,-433.467 698.657,-434.389 698.657,-434.389"/>
<polygon fill="#eefb15" stroke="#eefb15" points="419.49,-382.927 410.065,-377.323 414.523,-382.361 409.555,-381.794 409.555,-381.794 409.555,-381.794 414.523,-382.361 409.045,-386.265 419.49,-382.927 419.49,-382.927"/>
</g>
<!-- Roster -->
<g id="node13" class="node"><title>Roster</title>
<ellipse fill="none" stroke="black" cx="33.797" cy="-306" rx="33.5952" ry="18"/>
<text text-anchor="middle" x="33.797" y="-302.3" font-family="Times,serif" font-size="14.00">Roster</text>
</g>
<!-- Course&#45;&gt;Roster -->
<g id="edge6" class="edge"><title>Course&#45;&gt;Roster</title>
<path fill="none" stroke="#386de2" d="M700.88,-434.882C697.51,-433.787 694.111,-432.799 690.797,-432 541.352,-395.985 497.97,-423.89 346.797,-396 224.665,-373.468 194.742,-362.896 76.797,-324 74.2407,-323.157 71.6163,-322.243 68.9856,-321.292"/>
<ellipse fill="none" stroke="#386de2" cx="704.858" cy="-436.273" rx="4.00001" ry="4.00001"/>
<polygon fill="#386de2" stroke="#386de2" points="68.9008,-321.26 61.1255,-313.527 64.221,-319.499 59.5411,-317.739 59.5411,-317.739 59.5411,-317.739 64.221,-319.499 57.9567,-321.951 68.9008,-321.26 68.9008,-321.26"/>
</g>
<!-- Course&#45;&gt;Project -->
<g id="edge5" class="edge"><title>Course&#45;&gt;Project</title>
<path fill="none" stroke="#c8df6c" d="M771.633,-436.276C789.893,-427.885 810.248,-414.892 820.797,-396 831.631,-376.596 825.591,-351.438 818.026,-332.823"/>
<ellipse fill="none" stroke="#c8df6c" cx="767.641" cy="-438.005" rx="4.00002" ry="4.00002"/>
<polygon fill="#c8df6c" stroke="#c8df6c" points="817.942,-332.633 818.002,-321.667 815.915,-328.062 813.888,-323.491 813.888,-323.491 813.888,-323.491 815.915,-328.062 809.775,-325.315 817.942,-332.633 817.942,-332.633"/>
</g>
<!-- Experience -->
<g id="node33" class="node"><title>Experience</title>
<ellipse fill="none" stroke="black" cx="498.797" cy="-306" rx="50.0912" ry="18"/>
<text text-anchor="middle" x="498.797" y="-302.3" font-family="Times,serif" font-size="14.00">Experience</text>
</g>
<!-- Course&#45;&gt;Experience -->
<g id="edge9" class="edge"><title>Course&#45;&gt;Experience</title>
<path fill="none" stroke="#d71eea" d="M700.085,-434.986C665.726,-421.019 617.08,-400.956 608.797,-396 577.021,-376.986 544.527,-349.506 523.177,-330.122"/>
<ellipse fill="none" stroke="#d71eea" cx="703.906" cy="-436.537" rx="4.00001" ry="4.00001"/>
<polygon fill="#d71eea" stroke="#d71eea" points="522.927,-329.892 518.611,-319.811 519.246,-326.508 515.566,-323.124 515.566,-323.124 515.566,-323.124 519.246,-326.508 512.52,-326.437 522.927,-329.892 522.927,-329.892"/>
</g>
<!-- BingoGame -->
<g id="node34" class="node"><title>BingoGame</title>
<ellipse fill="none" stroke="black" cx="877.797" cy="-234" rx="53.8905" ry="18"/>
<text text-anchor="middle" x="877.797" y="-230.3" font-family="Times,serif" font-size="14.00">BingoGame</text>
</g>
<!-- Course&#45;&gt;BingoGame -->
<g id="edge7" class="edge"><title>Course&#45;&gt;BingoGame</title>
<path fill="none" stroke="#4bc52b" d="M773.318,-437.73C794.97,-429.5 820.784,-416.193 836.797,-396 867.847,-356.846 875.648,-296.949 877.448,-262.318"/>
<ellipse fill="none" stroke="#4bc52b" cx="769.318" cy="-439.176" rx="4.00001" ry="4.00001"/>
<polygon fill="#4bc52b" stroke="#4bc52b" points="877.459,-262.013 882.339,-252.193 877.651,-257.017 877.843,-252.02 877.843,-252.02 877.843,-252.02 877.651,-257.017 873.346,-251.848 877.459,-262.013 877.459,-262.013"/>
</g>
<!-- Style -->
<g id="node6" class="node"><title>Style</title>
<ellipse fill="none" stroke="black" cx="782.797" cy="-378" rx="28.6953" ry="18"/>
<text text-anchor="middle" x="782.797" y="-374.3" font-family="Times,serif" font-size="14.00">Style</text>
</g>
<!-- Style&#45;&gt;Project -->
<g id="edge10" class="edge"><title>Style&#45;&gt;Project</title>
<path fill="none" stroke="#4dcca1" d="M790.57,-352.267C792.433,-346.34 794.431,-339.981 796.324,-333.959"/>
<ellipse fill="none" stroke="#4dcca1" cx="789.322" cy="-356.239" rx="4.00001" ry="4.00001"/>
<polygon fill="#4dcca1" stroke="#4dcca1" points="796.369,-333.815 803.661,-325.625 797.868,-329.045 799.368,-324.275 799.368,-324.275 799.368,-324.275 797.868,-329.045 795.075,-322.926 796.369,-333.815 796.369,-333.815"/>
</g>
<!-- Behavior -->
<g id="node7" class="node"><title>Behavior</title>
<ellipse fill="none" stroke="black" cx="137.797" cy="-162" rx="42.7926" ry="18"/>
<text text-anchor="middle" x="137.797" y="-158.3" font-family="Times,serif" font-size="14.00">Behavior</text>
</g>
<!-- Diagnosis -->
<g id="node20" class="node"><title>Diagnosis</title>
<ellipse fill="none" stroke="black" cx="243.797" cy="-18" rx="46.2923" ry="18"/>
<text text-anchor="middle" x="243.797" y="-14.3" font-family="Times,serif" font-size="14.00">Diagnosis</text>
</g>
<!-- Behavior&#45;&gt;Diagnosis -->
<g id="edge13" class="edge"><title>Behavior&#45;&gt;Diagnosis</title>
<path fill="none" stroke="#57afd8" d="M151.327,-137.439C162.255,-119.045 178.454,-93.1485 194.797,-72 202.62,-61.8768 211.996,-51.3986 220.443,-42.4585"/>
<ellipse fill="none" stroke="#57afd8" cx="149.295" cy="-140.891" rx="4.00002" ry="4.00002"/>
<polygon fill="#57afd8" stroke="#57afd8" points="220.636,-42.2573 230.809,-38.1632 224.1,-38.6515 227.564,-35.0457 227.564,-35.0457 227.564,-35.0457 224.1,-38.6515 224.319,-31.9282 220.636,-42.2573 220.636,-42.2573"/>
</g>
<!-- Scenario -->
<g id="node29" class="node"><title>Scenario</title>
<ellipse fill="none" stroke="black" cx="75.797" cy="-90" rx="41.6928" ry="18"/>
<text text-anchor="middle" x="75.797" y="-86.3" font-family="Times,serif" font-size="14.00">Scenario</text>
</g>
<!-- Behavior&#45;&gt;Scenario -->
<g id="edge11" class="edge"><title>Behavior&#45;&gt;Scenario</title>
<path fill="none" stroke="#f92406" d="M117.995,-138.643C111.335,-131.123 103.878,-122.704 97.1069,-115.06"/>
<ellipse fill="none" stroke="#f92406" cx="120.765" cy="-141.77" rx="4.00002" ry="4.00002"/>
<polygon fill="#f92406" stroke="#f92406" points="96.7293,-114.633 93.4676,-104.164 93.4141,-110.89 90.0989,-107.147 90.0989,-107.147 90.0989,-107.147 93.4141,-110.89 86.7302,-110.131 96.7293,-114.633 96.7293,-114.633"/>
</g>
<!-- Reaction -->
<g id="node30" class="node"><title>Reaction</title>
<ellipse fill="none" stroke="black" cx="278.797" cy="-90" rx="42.4939" ry="18"/>
<text text-anchor="middle" x="278.797" y="-86.3" font-family="Times,serif" font-size="14.00">Reaction</text>
</g>
<!-- Behavior&#45;&gt;Reaction -->
<g id="edge12" class="edge"><title>Behavior&#45;&gt;Reaction</title>
<path fill="none" stroke="#7a46ca" d="M171.717,-144.16C193.389,-133.401 221.44,-119.475 243.395,-108.575"/>
<ellipse fill="none" stroke="#7a46ca" cx="167.901" cy="-146.055" rx="4.00002" ry="4.00002"/>
<polygon fill="#7a46ca" stroke="#7a46ca" points="243.438,-108.554 254.396,-108.138 247.916,-106.331 252.395,-104.107 252.395,-104.107 252.395,-104.107 247.916,-106.331 250.394,-100.077 243.438,-108.554 243.438,-108.554"/>
</g>
<!-- CandidateFeedback -->
<g id="node8" class="node"><title>CandidateFeedback</title>
<ellipse fill="none" stroke="black" cx="630.797" cy="-162" rx="79.8859" ry="18"/>
<text text-anchor="middle" x="630.797" y="-158.3" font-family="Times,serif" font-size="14.00">CandidateFeedback</text>
</g>
<!-- Candidate -->
<g id="node25" class="node"><title>Candidate</title>
<ellipse fill="none" stroke="black" cx="788.797" cy="-90" rx="46.2923" ry="18"/>
<text text-anchor="middle" x="788.797" y="-86.3" font-family="Times,serif" font-size="14.00">Candidate</text>
</g>
<!-- CandidateFeedback&#45;&gt;Candidate -->
<g id="edge14" class="edge"><title>CandidateFeedback&#45;&gt;Candidate</title>
<path fill="none" stroke="#553f78" d="M672.962,-142.319C696.978,-131.679 726.846,-118.447 750.238,-108.083"/>
<ellipse fill="none" stroke="#553f78" cx="669.128" cy="-144.018" rx="4.00002" ry="4.00002"/>
<polygon fill="#553f78" stroke="#553f78" points="750.362,-108.028 761.328,-108.092 754.934,-106.003 759.505,-103.977 759.505,-103.977 759.505,-103.977 754.934,-106.003 757.682,-99.8632 750.362,-108.028 750.362,-108.028"/>
</g>
<!-- Installment -->
<g id="node9" class="node"><title>Installment</title>
<ellipse fill="none" stroke="black" cx="439.797" cy="-90" rx="50.8918" ry="18"/>
<text text-anchor="middle" x="439.797" y="-86.3" font-family="Times,serif" font-size="14.00">Installment</text>
</g>
<!-- Value -->
<g id="node28" class="node"><title>Value</title>
<ellipse fill="none" stroke="black" cx="439.797" cy="-18" rx="31.6951" ry="18"/>
<text text-anchor="middle" x="439.797" y="-14.3" font-family="Times,serif" font-size="14.00">Value</text>
</g>
<!-- Installment&#45;&gt;Value -->
<g id="edge15" class="edge"><title>Installment&#45;&gt;Value</title>
<path fill="none" stroke="#0b0bf3" d="M439.797,-63.6398C439.797,-58.0629 439.797,-52.1319 439.797,-46.4761"/>
<ellipse fill="none" stroke="#0b0bf3" cx="439.797" cy="-67.6966" rx="4" ry="4"/>
<polygon fill="#0b0bf3" stroke="#0b0bf3" points="439.797,-46.1043 444.297,-36.1043 439.797,-41.1043 439.797,-36.1043 439.797,-36.1043 439.797,-36.1043 439.797,-41.1043 435.297,-36.1044 439.797,-46.1043 439.797,-46.1043"/>
</g>
<!-- ConsentForm -->
<g id="node10" class="node"><title>ConsentForm</title>
<ellipse fill="none" stroke="black" cx="676.797" cy="-378" rx="59.2899" ry="18"/>
<text text-anchor="middle" x="676.797" y="-374.3" font-family="Times,serif" font-size="14.00">ConsentForm</text>
</g>
<!-- ConsentForm&#45;&gt;Project -->
<g id="edge16" class="edge"><title>ConsentForm&#45;&gt;Project</title>
<path fill="none" stroke="#941579" d="M711.509,-358.017C730.434,-347.667 753.715,-334.936 772.285,-324.78"/>
<ellipse fill="none" stroke="#941579" cx="707.766" cy="-360.064" rx="4.00002" ry="4.00002"/>
<polygon fill="#941579" stroke="#941579" points="772.476,-324.675 783.409,-323.825 776.863,-322.276 781.25,-319.877 781.25,-319.877 781.25,-319.877 776.863,-322.276 779.091,-315.929 772.476,-324.675 772.476,-324.675"/>
</g>
<!-- ConsentLog -->
<g id="node27" class="node"><title>ConsentLog</title>
<ellipse fill="none" stroke="black" cx="696.797" cy="-306" rx="53.8905" ry="18"/>
<text text-anchor="middle" x="696.797" y="-302.3" font-family="Times,serif" font-size="14.00">ConsentLog</text>
</g>
<!-- ConsentForm&#45;&gt;ConsentLog -->
<g id="edge17" class="edge"><title>ConsentForm&#45;&gt;ConsentLog</title>
<path fill="none" stroke="#9fc4a2" d="M683.863,-352.267C685.557,-346.34 687.374,-339.981 689.095,-333.959"/>
<ellipse fill="none" stroke="#9fc4a2" cx="682.737" cy="-356.209" rx="4.00001" ry="4.00001"/>
<polygon fill="#9fc4a2" stroke="#9fc4a2" points="689.114,-333.891 696.188,-325.512 690.488,-329.083 691.861,-324.275 691.861,-324.275 691.861,-324.275 690.488,-329.083 687.534,-323.039 689.114,-333.891 689.114,-333.891"/>
</g>
<!-- User&#45;&gt;Installment -->
<g id="edge23" class="edge"><title>User&#45;&gt;Installment</title>
<path fill="none" stroke="#8febb5" d="M387.81,-351.847C398.465,-298.388 423.288,-173.835 434.331,-118.425"/>
<ellipse fill="none" stroke="#8febb5" cx="386.974" cy="-356.043" rx="4.00001" ry="4.00001"/>
<polygon fill="#8febb5" stroke="#8febb5" points="434.393,-118.114 440.761,-109.186 435.37,-113.21 436.348,-108.306 436.348,-108.306 436.348,-108.306 435.37,-113.21 431.935,-107.427 434.393,-118.114 434.393,-118.114"/>
</g>
<!-- User&#45;&gt;Roster -->
<g id="edge24" class="edge"><title>User&#45;&gt;Roster</title>
<path fill="none" stroke="#11f317" d="M347.755,-373.3C290.348,-366.713 173.02,-351.045 76.797,-324 74.2057,-323.272 71.5555,-322.442 68.9063,-321.551"/>
<ellipse fill="none" stroke="#11f317" cx="351.806" cy="-373.757" rx="4.00001" ry="4.00001"/>
<polygon fill="#11f317" stroke="#11f317" points="68.828,-321.523 60.9542,-313.891 64.126,-319.823 59.424,-318.123 59.424,-318.123 59.424,-318.123 64.126,-319.823 57.8937,-322.354 68.828,-321.523 68.828,-321.523"/>
</g>
<!-- Group -->
<g id="node15" class="node"><title>Group</title>
<ellipse fill="none" stroke="black" cx="499.797" cy="-162" rx="33.2948" ry="18"/>
<text text-anchor="middle" x="499.797" y="-158.3" font-family="Times,serif" font-size="14.00">Group</text>
</g>
<!-- User&#45;&gt;Group -->
<g id="edge19" class="edge"><title>User&#45;&gt;Group</title>
<path fill="none" stroke="#0ba5c9" d="M396.482,-351.97C418.919,-310.93 463.29,-229.774 485.879,-188.458"/>
<polygon fill="#0ba5c9" stroke="#0ba5c9" points="396.388,-352.141 387.643,-358.756 393.99,-356.528 391.591,-360.915 391.591,-360.915 391.591,-360.915 393.99,-356.528 395.539,-363.074 396.388,-352.141 396.388,-352.141"/>
<polygon fill="#0ba5c9" stroke="#0ba5c9" points="485.943,-188.34 494.689,-181.724 488.342,-183.953 490.74,-179.566 490.74,-179.566 490.74,-179.566 488.342,-183.953 486.792,-177.407 485.943,-188.34 485.943,-188.34"/>
</g>
<!-- User&#45;&gt;Project -->
<g id="edge22" class="edge"><title>User&#45;&gt;Project</title>
<path fill="none" stroke="#6ef0d1" d="M420.447,-374.48C488.898,-369.289 637.93,-355.174 759.797,-324 762.604,-323.282 765.476,-322.447 768.344,-321.539"/>
<polygon fill="#6ef0d1" stroke="#6ef0d1" points="420.142,-374.502 409.838,-370.75 415.156,-374.87 410.169,-375.238 410.169,-375.238 410.169,-375.238 415.156,-374.87 410.5,-379.726 420.142,-374.502 420.142,-374.502"/>
<polygon fill="#6ef0d1" stroke="#6ef0d1" points="768.521,-321.478 779.44,-322.495 773.252,-319.858 777.982,-318.237 777.982,-318.237 777.982,-318.237 773.252,-319.858 776.524,-313.98 768.521,-321.478 768.521,-321.478"/>
</g>
<!-- Email -->
<g id="node18" class="node"><title>Email</title>
<ellipse fill="none" stroke="black" cx="224.797" cy="-306" rx="32.4942" ry="18"/>
<text text-anchor="middle" x="224.797" y="-302.3" font-family="Times,serif" font-size="14.00">Email</text>
</g>
<!-- User&#45;&gt;Email -->
<g id="edge18" class="edge"><title>User&#45;&gt;Email</title>
<path fill="none" stroke="#f56b09" d="M353.202,-363.888C326.41,-352.018 286.955,-334.538 258.86,-322.091"/>
<ellipse fill="none" stroke="#f56b09" cx="357.171" cy="-365.647" rx="4.00002" ry="4.00002"/>
<polygon fill="#f56b09" stroke="#f56b09" points="258.579,-321.967 251.259,-313.802 254.007,-319.941 249.436,-317.916 249.436,-317.916 249.436,-317.916 254.007,-319.941 247.613,-322.03 258.579,-321.967 258.579,-321.967"/>
</g>
<!-- Narrative -->
<g id="node24" class="node"><title>Narrative</title>
<ellipse fill="none" stroke="black" cx="129.797" cy="-306" rx="44.393" ry="18"/>
<text text-anchor="middle" x="129.797" y="-302.3" font-family="Times,serif" font-size="14.00">Narrative</text>
</g>
<!-- User&#45;&gt;Narrative -->
<g id="edge27" class="edge"><title>User&#45;&gt;Narrative</title>
<path fill="none" stroke="#477e1c" d="M347.801,-368.184C307.952,-358.029 240.966,-340.603 183.797,-324 180.287,-322.981 176.657,-321.899 173.017,-320.794"/>
<polygon fill="#477e1c" stroke="#477e1c" points="347.874,-368.203 356.458,-375.027 352.72,-369.434 357.566,-370.666 357.566,-370.666 357.566,-370.666 352.72,-369.434 358.674,-366.304 347.874,-368.203 347.874,-368.203"/>
<polygon fill="#477e1c" stroke="#477e1c" points="172.987,-320.785 164.753,-313.542 168.208,-319.314 163.429,-317.843 163.429,-317.843 163.429,-317.843 168.208,-319.314 162.105,-322.144 172.987,-320.785 172.987,-320.785"/>
</g>
<!-- User&#45;&gt;ConsentLog -->
<g id="edge20" class="edge"><title>User&#45;&gt;ConsentLog</title>
<path fill="none" stroke="#a3916e" d="M416.818,-370.038C464.361,-360.225 553.331,-341.558 628.797,-324 634.131,-322.759 639.69,-321.429 645.232,-320.08"/>
<ellipse fill="none" stroke="#a3916e" cx="412.632" cy="-370.901" rx="4.00001" ry="4.00001"/>
<polygon fill="#a3916e" stroke="#a3916e" points="645.423,-320.033 656.208,-322.015 650.278,-318.839 655.134,-317.645 655.134,-317.645 655.134,-317.645 650.278,-318.839 654.059,-313.275 645.423,-320.033 645.423,-320.033"/>
</g>
<!-- User&#45;&gt;Reaction -->
<g id="edge25" class="edge"><title>User&#45;&gt;Reaction</title>
<path fill="none" stroke="#8df48a" d="M353.384,-363.413C337.522,-354.504 319.131,-341.292 308.797,-324 269.574,-258.367 271.709,-163.909 275.663,-118.041"/>
<ellipse fill="none" stroke="#8df48a" cx="356.93" cy="-365.313" rx="4.00002" ry="4.00002"/>
<polygon fill="#8df48a" stroke="#8df48a" points="275.673,-117.94 281.108,-108.416 276.151,-112.963 276.629,-107.986 276.629,-107.986 276.629,-107.986 276.151,-112.963 272.15,-107.556 275.673,-117.94 275.673,-117.94"/>
</g>
<!-- Assessment -->
<g id="node31" class="node"><title>Assessment</title>
<ellipse fill="none" stroke="black" cx="533.797" cy="-234" rx="52.7911" ry="18"/>
<text text-anchor="middle" x="533.797" y="-230.3" font-family="Times,serif" font-size="14.00">Assessment</text>
</g>
<!-- User&#45;&gt;Assessment -->
<g id="edge28" class="edge"><title>User&#45;&gt;Assessment</title>
<path fill="none" stroke="#a2b757" d="M420.457,-377.66C461.744,-376.099 526.301,-366.448 557.797,-324 571.565,-305.445 562.17,-279.512 551.36,-260.424"/>
<polygon fill="#a2b757" stroke="#a2b757" points="420.238,-377.665 410.135,-373.401 415.24,-377.782 410.241,-377.9 410.241,-377.9 410.241,-377.9 415.24,-377.782 410.347,-382.399 420.238,-377.665 420.238,-377.665"/>
<polygon fill="#a2b757" stroke="#a2b757" points="551.23,-260.21 549.879,-249.328 548.632,-255.938 546.034,-251.666 546.034,-251.666 546.034,-251.666 548.632,-255.938 542.189,-254.004 551.23,-260.21 551.23,-260.21"/>
</g>
<!-- CandidateList -->
<g id="node32" class="node"><title>CandidateList</title>
<ellipse fill="none" stroke="black" cx="788.797" cy="-162" rx="59.5901" ry="18"/>
<text text-anchor="middle" x="788.797" y="-158.3" font-family="Times,serif" font-size="14.00">CandidateList</text>
</g>
<!-- User&#45;&gt;CandidateList -->
<g id="edge21" class="edge"><title>User&#45;&gt;CandidateList</title>
<path fill="none" stroke="#b8d8f7" d="M417.269,-371.607C457.009,-364.483 523.559,-349.727 575.797,-324 615.304,-304.543 713.505,-225.276 761.508,-185.701"/>
<ellipse fill="none" stroke="#b8d8f7" cx="413.151" cy="-372.325" rx="4.00001" ry="4.00001"/>
<polygon fill="#b8d8f7" stroke="#b8d8f7" points="761.605,-185.621 772.18,-182.72 765.46,-182.436 769.314,-179.251 769.314,-179.251 769.314,-179.251 765.46,-182.436 766.447,-175.782 761.605,-185.621 761.605,-185.621"/>
</g>
<!-- User&#45;&gt;Experience -->
<g id="edge26" class="edge"><title>User&#45;&gt;Experience</title>
<path fill="none" stroke="#49d0c6" d="M410.868,-360.061C427.293,-350.149 448.13,-337.575 465.396,-327.156"/>
<polygon fill="#49d0c6" stroke="#49d0c6" points="410.775,-360.117 399.888,-361.431 406.494,-362.7 402.213,-365.284 402.213,-365.284 402.213,-365.284 406.494,-362.7 404.538,-369.136 410.775,-360.117 410.775,-360.117"/>
<polygon fill="#49d0c6" stroke="#49d0c6" points="465.496,-327.096 476.383,-325.782 469.777,-324.512 474.058,-321.929 474.058,-321.929 474.058,-321.929 469.777,-324.512 471.733,-318.076 465.496,-327.096 465.496,-327.096"/>
</g>
<!-- Concept -->
<g id="node12" class="node"><title>Concept</title>
<ellipse fill="none" stroke="black" cx="906.797" cy="-162" rx="40.0939" ry="18"/>
<text text-anchor="middle" x="906.797" y="-158.3" font-family="Times,serif" font-size="14.00">Concept</text>
</g>
<!-- Concept&#45;&gt;Candidate -->
<g id="edge29" class="edge"><title>Concept&#45;&gt;Candidate</title>
<path fill="none" stroke="#0ed1ab" d="M876.528,-143.044C859.962,-133.217 839.399,-121.018 822.346,-110.902"/>
<ellipse fill="none" stroke="#0ed1ab" cx="880.044" cy="-145.129" rx="4.00002" ry="4.00002"/>
<polygon fill="#0ed1ab" stroke="#0ed1ab" points="821.881,-110.626 815.576,-101.654 817.581,-108.075 813.28,-105.524 813.28,-105.524 813.28,-105.524 817.581,-108.075 810.984,-109.394 821.881,-110.626 821.881,-110.626"/>
</g>
<!-- School -->
<g id="node14" class="node"><title>School</title>
<ellipse fill="none" stroke="black" cx="734.797" cy="-543" rx="35.194" ry="18"/>
<text text-anchor="middle" x="734.797" y="-539.3" font-family="Times,serif" font-size="14.00">School</text>
</g>
<!-- School&#45;&gt;Course -->
<g id="edge30" class="edge"><title>School&#45;&gt;Course</title>
<path fill="none" stroke="#d95ab1" d="M734.797,-516.729C734.797,-504.725 734.797,-490.362 734.797,-478.129"/>
<ellipse fill="none" stroke="#d95ab1" cx="734.797" cy="-520.884" rx="4" ry="4"/>
<polygon fill="#d95ab1" stroke="#d95ab1" points="734.797,-478.04 739.297,-468.04 734.797,-473.04 734.797,-468.04 734.797,-468.04 734.797,-468.04 734.797,-473.04 730.297,-468.04 734.797,-478.04 734.797,-478.04"/>
</g>
<!-- Group&#45;&gt;Installment -->
<g id="edge32" class="edge"><title>Group&#45;&gt;Installment</title>
<path fill="none" stroke="#d7d2a5" d="M481.23,-139.338C474.761,-131.791 467.458,-123.271 460.805,-115.51"/>
<ellipse fill="none" stroke="#d7d2a5" cx="483.878" cy="-142.428" rx="4.00002" ry="4.00002"/>
<polygon fill="#d7d2a5" stroke="#d7d2a5" points="460.42,-115.06 457.328,-104.539 457.166,-111.263 453.912,-107.467 453.912,-107.467 453.912,-107.467 457.166,-111.263 450.495,-110.396 460.42,-115.06 460.42,-115.06"/>
</g>
<!-- GroupRevision -->
<g id="node26" class="node"><title>GroupRevision</title>
<ellipse fill="none" stroke="black" cx="572.797" cy="-90" rx="64.189" ry="18"/>
<text text-anchor="middle" x="572.797" y="-86.3" font-family="Times,serif" font-size="14.00">GroupRevision</text>
</g>
<!-- Group&#45;&gt;GroupRevision -->
<g id="edge31" class="edge"><title>Group&#45;&gt;GroupRevision</title>
<path fill="none" stroke="#c59176" d="M521.464,-140.223C529.928,-132.107 539.674,-122.762 548.385,-114.409"/>
<ellipse fill="none" stroke="#c59176" cx="518.524" cy="-143.043" rx="4.00002" ry="4.00002"/>
<polygon fill="#c59176" stroke="#c59176" points="548.497,-114.301 558.829,-110.628 552.106,-110.841 555.715,-107.38 555.715,-107.38 555.715,-107.38 552.106,-110.841 552.6,-104.132 548.497,-114.301 548.497,-114.301"/>
</g>
<!-- Project&#45;&gt;Group -->
<g id="edge33" class="edge"><title>Project&#45;&gt;Group</title>
<path fill="none" stroke="#cb1dad" d="M771.794,-289.635C713.338,-262.419 592.232,-206.035 533.371,-178.631"/>
<ellipse fill="none" stroke="#cb1dad" cx="775.691" cy="-291.449" rx="4.00002" ry="4.00002"/>
<polygon fill="#cb1dad" stroke="#cb1dad" points="533.206,-178.555 526.04,-170.254 528.674,-176.444 524.141,-174.334 524.141,-174.334 524.141,-174.334 528.674,-176.444 522.241,-178.413 533.206,-178.555 533.206,-178.555"/>
</g>
<!-- Project&#45;&gt;Factor -->
<g id="edge36" class="edge"><title>Project&#45;&gt;Factor</title>
<path fill="none" stroke="#9fe7e3" d="M800.375,-277.922C798.796,-258.428 800.238,-232.722 814.797,-216 857.266,-167.22 894.348,-200.179 955.797,-180 958.217,-179.205 960.696,-178.34 963.181,-177.434"/>
<polygon fill="#9fe7e3" stroke="#9fe7e3" points="800.392,-278.078 797.026,-288.514 800.945,-283.047 801.498,-288.016 801.498,-288.016 801.498,-288.016 800.945,-283.047 805.971,-287.518 800.392,-278.078 800.392,-278.078"/>
<polygon fill="#9fe7e3" stroke="#9fe7e3" points="963.34,-177.374 974.288,-178.01 968.011,-175.59 972.682,-173.806 972.682,-173.806 972.682,-173.806 968.011,-175.59 971.077,-169.602 963.34,-177.374 963.34,-177.374"/>
</g>
<!-- Project&#45;&gt;Assessment -->
<g id="edge35" class="edge"><title>Project&#45;&gt;Assessment</title>
<path fill="none" stroke="#c8e834" d="M769.698,-291.238C766.37,-290.085 763.032,-288.986 759.797,-288 702.095,-270.417 634.608,-255.277 588.504,-245.733"/>
<ellipse fill="none" stroke="#c8e834" cx="773.622" cy="-292.644" rx="4.00001" ry="4.00001"/>
<polygon fill="#c8e834" stroke="#c8e834" points="588.22,-245.675 579.329,-239.257 583.322,-244.67 578.424,-243.666 578.424,-243.666 578.424,-243.666 583.322,-244.67 577.52,-248.074 588.22,-245.675 588.22,-245.675"/>
</g>
<!-- Project&#45;&gt;BingoGame -->
<g id="edge34" class="edge"><title>Project&#45;&gt;BingoGame</title>
<path fill="none" stroke="#149887" d="M826.507,-284.182C835.036,-276.004 844.86,-266.583 853.614,-258.189"/>
<ellipse fill="none" stroke="#149887" cx="823.524" cy="-287.043" rx="4.00002" ry="4.00002"/>
<polygon fill="#149887" stroke="#149887" points="853.754,-258.055 864.087,-254.382 857.363,-254.594 860.972,-251.134 860.972,-251.134 860.972,-251.134 857.363,-254.594 857.857,-247.886 853.754,-258.055 853.754,-258.055"/>
</g>
<!-- Gender -->
<g id="node17" class="node"><title>Gender</title>
<ellipse fill="none" stroke="black" cx="162.797" cy="-450" rx="36.2938" ry="18"/>
<text text-anchor="middle" x="162.797" y="-446.3" font-family="Times,serif" font-size="14.00">Gender</text>
</g>
<!-- Gender&#45;&gt;User -->
<g id="edge37" class="edge"><title>Gender&#45;&gt;User</title>
<path fill="none" stroke="#11510a" d="M198.511,-435.259C201.642,-434.13 204.77,-433.029 207.797,-432 256.08,-415.589 312.676,-398.904 348.14,-388.752"/>
<ellipse fill="none" stroke="#11510a" cx="194.533" cy="-436.719" rx="4.00001" ry="4.00001"/>
<polygon fill="#11510a" stroke="#11510a" points="348.379,-388.684 359.23,-390.27 353.188,-387.313 357.996,-385.943 357.996,-385.943 357.996,-385.943 353.188,-387.313 356.763,-381.615 348.379,-388.684 348.379,-388.684"/>
</g>
<!-- AgeRange -->
<g id="node19" class="node"><title>AgeRange</title>
<ellipse fill="none" stroke="black" cx="264.797" cy="-450" rx="48.1917" ry="18"/>
<text text-anchor="middle" x="264.797" y="-446.3" font-family="Times,serif" font-size="14.00">AgeRange</text>
</g>
<!-- AgeRange&#45;&gt;User -->
<g id="edge38" class="edge"><title>AgeRange&#45;&gt;User</title>
<path fill="none" stroke="#6a4db3" d="M296.191,-430.376C314.278,-419.647 336.833,-406.267 354.391,-395.851"/>
<ellipse fill="none" stroke="#6a4db3" cx="292.687" cy="-432.455" rx="4.00002" ry="4.00002"/>
<polygon fill="#6a4db3" stroke="#6a4db3" points="354.467,-395.806 365.363,-394.574 358.767,-393.255 363.067,-390.704 363.067,-390.704 363.067,-390.704 358.767,-393.255 360.771,-386.834 354.467,-395.806 354.467,-395.806"/>
</g>
<!-- Diagnosis&#45;&gt;User -->
<g id="edge39" class="edge"><title>Diagnosis&#45;&gt;User</title>
<path fill="none" stroke="#a27550" d="M283.652,-34.64C300.433,-43.2109 318.625,-55.5033 329.797,-72 389.727,-160.494 388.531,-295.547 385.011,-351.425"/>
<ellipse fill="none" stroke="#a27550" cx="279.67" cy="-32.7081" rx="4.00002" ry="4.00002"/>
<ellipse fill="#a27550" stroke="#a27550" cx="384.713" cy="-355.704" rx="4" ry="4"/>
</g>
<!-- CipCode -->
<g id="node22" class="node"><title>CipCode</title>
<ellipse fill="none" stroke="black" cx="372.797" cy="-450" rx="42.4939" ry="18"/>
<text text-anchor="middle" x="372.797" y="-446.3" font-family="Times,serif" font-size="14.00">CipCode</text>
</g>
<!-- CipCode&#45;&gt;User -->
<g id="edge40" class="edge"><title>CipCode&#45;&gt;User</title>
<path fill="none" stroke="#62152e" d="M376.42,-423.64C377.237,-417.92 378.107,-411.828 378.934,-406.042"/>
<ellipse fill="none" stroke="#62152e" cx="375.835" cy="-427.737" rx="4.00001" ry="4.00001"/>
<polygon fill="#62152e" stroke="#62152e" points="378.939,-406.004 384.808,-396.741 379.646,-401.054 380.354,-396.104 380.354,-396.104 380.354,-396.104 379.646,-401.054 375.899,-395.468 378.939,-406.004 378.939,-406.004"/>
</g>
<!-- Week -->
<g id="node23" class="node"><title>Week</title>
<ellipse fill="none" stroke="black" cx="186.797" cy="-234" rx="31.6951" ry="18"/>
<text text-anchor="middle" x="186.797" y="-230.3" font-family="Times,serif" font-size="14.00">Week</text>
</g>
<!-- Week&#45;&gt;Behavior -->
<g id="edge41" class="edge"><title>Week&#45;&gt;Behavior</title>
<path fill="none" stroke="#ed282b" d="M171.053,-210.509C165.708,-202.873 159.723,-194.323 154.319,-186.603"/>
<ellipse fill="none" stroke="#ed282b" cx="173.384" cy="-213.839" rx="4.00002" ry="4.00002"/>
<ellipse fill="#ed282b" stroke="#ed282b" cx="151.849" cy="-183.074" rx="4.00002" ry="4.00002"/>
</g>
<!-- Week&#45;&gt;Diagnosis -->
<g id="edge42" class="edge"><title>Week&#45;&gt;Diagnosis</title>
<path fill="none" stroke="#4b835d" d="M192.772,-208.131C200.471,-176.423 214.459,-119.957 227.797,-72 230.177,-63.4417 232.924,-54.155 235.463,-45.7813"/>
<ellipse fill="none" stroke="#4b835d" cx="191.804" cy="-212.126" rx="4.00001" ry="4.00001"/>
<polygon fill="#4b835d" stroke="#4b835d" points="235.49,-45.6923 242.721,-37.4477 236.954,-40.9113 238.418,-36.1303 238.418,-36.1303 238.418,-36.1303 236.954,-40.9113 234.115,-34.813 235.49,-45.6923 235.49,-45.6923"/>
</g>
<!-- Narrative&#45;&gt;Behavior -->
<g id="edge44" class="edge"><title>Narrative&#45;&gt;Behavior</title>
<path fill="none" stroke="#99b45b" d="M131.23,-279.558C132.683,-253.771 134.918,-214.104 136.369,-188.35"/>
<ellipse fill="none" stroke="#99b45b" cx="130.987" cy="-283.878" rx="4" ry="4"/>
<ellipse fill="#99b45b" stroke="#99b45b" cx="136.604" cy="-184.183" rx="4" ry="4"/>
</g>
<!-- Narrative&#45;&gt;Week -->
<g id="edge43" class="edge"><title>Narrative&#45;&gt;Week</title>
<path fill="none" stroke="#498598" d="M148.077,-282.551C154.293,-274.917 161.257,-266.365 167.547,-258.64"/>
<ellipse fill="none" stroke="#498598" cx="145.543" cy="-285.663" rx="4.00002" ry="4.00002"/>
<polygon fill="#498598" stroke="#498598" points="167.726,-258.42 177.53,-253.507 170.883,-254.543 174.041,-250.666 174.041,-250.666 174.041,-250.666 170.883,-254.543 170.551,-247.824 167.726,-258.42 167.726,-258.42"/>
</g>
<!-- Narrative&#45;&gt;Reaction -->
<g id="edge45" class="edge"><title>Narrative&#45;&gt;Reaction</title>
<path fill="none" stroke="#10b503" d="M171.266,-290.989C190.855,-282.477 213.107,-269.766 227.797,-252 244.862,-231.361 263.542,-158.197 272.842,-117.979"/>
<ellipse fill="none" stroke="#10b503" cx="167.324" cy="-292.626" rx="4.00001" ry="4.00001"/>
<polygon fill="#10b503" stroke="#10b503" points="272.883,-117.797 279.49,-109.046 273.993,-112.922 275.103,-108.047 275.103,-108.047 275.103,-108.047 273.993,-112.922 270.715,-107.048 272.883,-117.797 272.883,-117.797"/>
</g>
<!-- Scenario&#45;&gt;Narrative -->
<g id="edge46" class="edge"><title>Scenario&#45;&gt;Narrative</title>
<path fill="none" stroke="#19efbf" d="M77.124,-116.492C78.43,-134.428 80.9639,-158.9 85.797,-180 93.7881,-214.887 108.315,-253.533 118.484,-278.487"/>
<ellipse fill="none" stroke="#19efbf" cx="76.8421" cy="-112.247" rx="4" ry="4"/>
<polygon fill="#19efbf" stroke="#19efbf" points="118.587,-278.735 118.252,-289.696 120.498,-283.356 122.41,-287.976 122.41,-287.976 122.41,-287.976 120.498,-283.356 126.568,-286.255 118.587,-278.735 118.587,-278.735"/>
</g>
<!-- Reaction&#45;&gt;Diagnosis -->
<g id="edge47" class="edge"><title>Reaction&#45;&gt;Diagnosis</title>
<path fill="none" stroke="#df8b6c" d="M266.654,-64.7144C263.448,-58.3016 259.976,-51.3577 256.729,-44.8648"/>
<ellipse fill="none" stroke="#df8b6c" cx="268.536" cy="-68.4772" rx="4.00002" ry="4.00002"/>
<polygon fill="#df8b6c" stroke="#df8b6c" points="256.664,-44.7333 256.216,-33.7765 254.428,-40.2611 252.192,-35.789 252.192,-35.789 252.192,-35.789 254.428,-40.2611 248.167,-37.8015 256.664,-44.7333 256.664,-44.7333"/>
</g>
<!-- Assessment&#45;&gt;Installment -->
<g id="edge48" class="edge"><title>Assessment&#45;&gt;Installment</title>
<path fill="none" stroke="#03d8e2" d="M496.243,-214.734C482.148,-206.075 467.266,-194.431 457.797,-180 445.796,-161.71 441.517,-137.099 440.114,-118.392"/>
<ellipse fill="none" stroke="#03d8e2" cx="500.057" cy="-216.967" rx="4.00002" ry="4.00002"/>
<polygon fill="#03d8e2" stroke="#03d8e2" points="440.101,-118.14 444.078,-107.921 439.842,-113.147 439.584,-108.153 439.584,-108.153 439.584,-108.153 439.842,-113.147 435.09,-108.386 440.101,-118.14 440.101,-118.14"/>
</g>
<!-- Assessment&#45;&gt;Group -->
<g id="edge50" class="edge"><title>Assessment&#45;&gt;Group</title>
<path fill="none" stroke="#7301f9" d="M521.169,-207.002C518.338,-201.173 515.334,-194.987 512.499,-189.152"/>
<polygon fill="#7301f9" stroke="#7301f9" points="521.197,-207.06 521.519,-218.021 523.382,-211.557 525.567,-216.055 525.567,-216.055 525.567,-216.055 523.382,-211.557 529.614,-214.089 521.197,-207.06 521.197,-207.06"/>
<polygon fill="#7301f9" stroke="#7301f9" points="512.321,-188.784 511.999,-177.823 510.136,-184.287 507.952,-179.789 507.952,-179.789 507.952,-179.789 510.136,-184.287 503.904,-181.755 512.321,-188.784 512.321,-188.784"/>
</g>
<!-- Assessment&#45;&gt;Factor -->
<g id="edge49" class="edge"><title>Assessment&#45;&gt;Factor</title>
<path fill="none" stroke="#15c087" d="M595.973,-230.237C679.131,-225.404 830.611,-212.602 955.797,-180 958.419,-179.317 961.095,-178.511 963.764,-177.626"/>
<polygon fill="#15c087" stroke="#15c087" points="595.916,-230.24 585.679,-226.308 590.924,-230.52 585.932,-230.801 585.932,-230.801 585.932,-230.801 590.924,-230.52 586.184,-235.294 595.916,-230.24 595.916,-230.24"/>
<polygon fill="#15c087" stroke="#15c087" points="963.888,-177.58 974.824,-178.389 968.586,-175.87 973.285,-174.16 973.285,-174.16 973.285,-174.16 968.586,-175.87 971.746,-169.931 963.888,-177.58 963.888,-177.58"/>
</g>
<!-- CandidateList&#45;&gt;Candidate -->
<g id="edge51" class="edge"><title>CandidateList&#45;&gt;Candidate</title>
<path fill="none" stroke="#4a4c2b" d="M788.797,-135.64C788.797,-130.063 788.797,-124.132 788.797,-118.476"/>
<ellipse fill="none" stroke="#4a4c2b" cx="788.797" cy="-139.697" rx="4" ry="4"/>
<polygon fill="#4a4c2b" stroke="#4a4c2b" points="788.797,-118.104 793.297,-108.104 788.797,-113.104 788.797,-108.104 788.797,-108.104 788.797,-108.104 788.797,-113.104 784.297,-108.104 788.797,-118.104 788.797,-118.104"/>
</g>
<!-- Experience&#45;&gt;Reaction -->
<g id="edge52" class="edge"><title>Experience&#45;&gt;Reaction</title>
<path fill="none" stroke="#02bf30" d="M476.359,-283.174C434.519,-242.475 344.976,-155.374 302.323,-113.885"/>
<ellipse fill="none" stroke="#02bf30" cx="479.394" cy="-286.126" rx="4.00002" ry="4.00002"/>
<polygon fill="#02bf30" stroke="#02bf30" points="302.095,-113.663 298.064,-103.464 298.511,-110.176 294.927,-106.69 294.927,-106.69 294.927,-106.69 298.511,-110.176 291.789,-109.916 302.095,-113.663 302.095,-113.663"/>
</g>
<!-- BingoGame&#45;&gt;CandidateList -->
<g id="edge53" class="edge"><title>BingoGame&#45;&gt;CandidateList</title>
<path fill="none" stroke="#edb43c" d="M851.234,-212.108C840.511,-203.674 828.12,-193.928 817.216,-185.352"/>
<ellipse fill="none" stroke="#edb43c" cx="854.457" cy="-214.643" rx="4.00002" ry="4.00002"/>
<polygon fill="#edb43c" stroke="#edb43c" points="817.081,-185.246 812.003,-175.526 813.151,-182.155 809.221,-179.064 809.221,-179.064 809.221,-179.064 813.151,-182.155 806.439,-182.601 817.081,-185.246 817.081,-185.246"/>
</g>
<!-- Role -->
<g id="node35" class="node"><title>Role</title>
<ellipse fill="none" stroke="black" cx="71.797" cy="-450" rx="27.0966" ry="18"/>
<text text-anchor="middle" x="71.797" y="-446.3" font-family="Times,serif" font-size="14.00">Role</text>
</g>
<!-- Role&#45;&gt;User -->
<g id="edge54" class="edge"><title>Role&#45;&gt;User</title>
<path fill="none" stroke="#b43f93" d="M102.336,-436.957C107.454,-435.157 112.743,-433.43 117.797,-432 198.046,-409.297 294.616,-392.569 346.152,-384.465"/>
<ellipse fill="none" stroke="#b43f93" cx="98.2529" cy="-438.442" rx="4.00001" ry="4.00001"/>
<polygon fill="#b43f93" stroke="#b43f93" points="346.26,-384.448 356.833,-387.36 351.201,-383.68 356.142,-382.913 356.142,-382.913 356.142,-382.913 351.201,-383.68 355.451,-378.466 346.26,-384.448 346.26,-384.448"/>
</g>
<!-- Role&#45;&gt;Roster -->
<g id="edge55" class="edge"><title>Role&#45;&gt;Roster</title>
<path fill="none" stroke="#abdc49" d="M65.1692,-424.233C58.4371,-399.076 48.0385,-360.218 41.0797,-334.214"/>
<ellipse fill="none" stroke="#abdc49" cx="66.2546" cy="-428.289" rx="4.00001" ry="4.00001"/>
<polygon fill="#abdc49" stroke="#abdc49" points="41.0031,-333.928 42.765,-323.104 39.7105,-329.098 38.418,-324.268 38.418,-324.268 38.418,-324.268 39.7105,-329.098 34.0709,-325.431 41.0031,-333.928 41.0031,-333.928"/>
</g>
</g>
</svg>
