<?xml version="1.0" encoding="UTF-8" standalone="no"?>
<!DOCTYPE svg PUBLIC "-//W3C//DTD SVG 1.1//EN"
 "http://www.w3.org/Graphics/SVG/1.1/DTD/svg11.dtd">
<!-- Generated by graphviz version 2.38.0 (20140413.2041)
 -->
<!-- Title: models_diagram Pages: 1 -->
<svg width="1600pt" height="950pt"
 viewBox="0.00 0.00 1599.94 950.00" xmlns="http://www.w3.org/2000/svg" xmlns:xlink="http://www.w3.org/1999/xlink">
<g id="graph0" class="graph" transform="scale(1 1) rotate(0) translate(4 946)">
<title>models_diagram</title>
<polygon fill="none" stroke="none" points="-4,4 -4,-946 1595.94,-946 1595.94,4 -4,4"/>
<!-- _diagram_info -->
<g id="node1" class="node"><title>_diagram_info</title>
<text text-anchor="start" x="288.943" y="-927.6" font-family="Times,serif" font-size="13.00">Models diagram</text>
<text text-anchor="start" x="288.943" y="-913.6" font-family="Times,serif" font-size="13.00">Date: Mar 19 2018 &#45; 09:52</text>
<text text-anchor="start" x="288.943" y="-899.6" font-family="Times,serif" font-size="13.00">Migration version: 20180228001942</text>
<text text-anchor="start" x="288.943" y="-885.6" font-family="Times,serif" font-size="13.00">Generated by RailRoady 1.5.3</text>
<text text-anchor="start" x="288.943" y="-871.6" font-family="Times,serif" font-size="13.00">http://railroady.prestonlee.com</text>
</g>
<!-- Course -->
<g id="node2" class="node"><title>Course</title>
<ellipse fill="none" stroke="black" cx="547.943" cy="-810" rx="35.9954" ry="18"/>
<text text-anchor="middle" x="547.943" y="-806.3" font-family="Times,serif" font-size="14.00">Course</text>
</g>
<!-- BingoGame -->
<g id="node8" class="node"><title>BingoGame</title>
<ellipse fill="none" stroke="black" cx="294.943" cy="-306" rx="53.8905" ry="18"/>
<text text-anchor="middle" x="294.943" y="-302.3" font-family="Times,serif" font-size="14.00">BingoGame</text>
</g>
<!-- Course&#45;&gt;BingoGame -->
<g id="edge3" class="edge"><title>Course&#45;&gt;BingoGame</title>
<path fill="none" stroke="#3d63a2" d="M504.095,-807.277C462.841,-803.399 401.762,-791.525 362.943,-756 306.376,-704.234 300.943,-671.678 300.943,-595 300.943,-595 300.943,-595 300.943,-449 300.943,-408.96 298.532,-362.627 296.767,-334.065"/>
<ellipse fill="none" stroke="#3d63a2" cx="508.084" cy="-807.614" rx="4" ry="4"/>
<polygon fill="#3d63a2" stroke="#3d63a2" points="296.764,-334.019 300.619,-323.753 296.446,-329.029 296.128,-324.039 296.128,-324.039 296.128,-324.039 296.446,-329.029 291.637,-324.326 296.764,-334.019 296.764,-334.019"/>
</g>
<!-- Project -->
<g id="node12" class="node"><title>Project</title>
<ellipse fill="none" stroke="black" cx="1307.94" cy="-738" rx="35.9954" ry="18"/>
<text text-anchor="middle" x="1307.94" y="-734.3" font-family="Times,serif" font-size="14.00">Project</text>
</g>
<!-- Course&#45;&gt;Project -->
<g id="edge1" class="edge"><title>Course&#45;&gt;Project</title>
<path fill="none" stroke="#9954e9" d="M591.576,-805.958C693.707,-798.696 956.223,-779.212 1174.94,-756 1204.54,-752.858 1237.76,-748.613 1263.59,-745.151"/>
<ellipse fill="none" stroke="#9954e9" cx="587.337" cy="-806.258" rx="4" ry="4"/>
<polygon fill="#9954e9" stroke="#9954e9" points="1263.91,-745.108 1274.42,-748.229 1268.87,-744.439 1273.82,-743.77 1273.82,-743.77 1273.82,-743.77 1268.87,-744.439 1273.22,-739.31 1263.91,-745.108 1263.91,-745.108"/>
</g>
<!-- User -->
<g id="node21" class="node"><title>User</title>
<ellipse fill="none" stroke="black" cx="930.943" cy="-378" rx="27.0966" ry="18"/>
<text text-anchor="middle" x="930.943" y="-374.3" font-family="Times,serif" font-size="14.00">User</text>
</g>
<!-- Course&#45;&gt;User -->
<g id="edge4" class="edge"><title>Course&#45;&gt;User</title>
<path fill="none" stroke="#c4791a" d="M553.719,-782.064C559.309,-753.608 566.943,-707.36 566.943,-667 566.943,-667 566.943,-667 566.943,-521 566.943,-480.553 556.527,-459.761 585.943,-432 629.755,-390.653 813.614,-381.562 893.557,-379.563"/>
<polygon fill="#c4791a" stroke="#c4791a" points="553.682,-782.248 547.286,-791.156 552.689,-787.148 551.697,-792.049 551.697,-792.049 551.697,-792.049 552.689,-787.148 556.107,-792.942 553.682,-782.248 553.682,-782.248"/>
<polygon fill="#c4791a" stroke="#c4791a" points="893.677,-379.56 903.776,-383.833 898.676,-379.447 903.675,-379.334 903.675,-379.334 903.675,-379.334 898.676,-379.447 903.573,-374.835 893.677,-379.56 893.677,-379.56"/>
</g>
<!-- Roster -->
<g id="node28" class="node"><title>Roster</title>
<ellipse fill="none" stroke="black" cx="552.943" cy="-306" rx="33.5952" ry="18"/>
<text text-anchor="middle" x="552.943" y="-302.3" font-family="Times,serif" font-size="14.00">Roster</text>
</g>
<!-- Course&#45;&gt;Roster -->
<g id="edge2" class="edge"><title>Course&#45;&gt;Roster</title>
<path fill="none" stroke="#24730e" d="M542.533,-783.918C536.917,-755.648 528.943,-708.249 528.943,-667 528.943,-667 528.943,-667 528.943,-449 528.943,-408.429 538.586,-362.237 545.647,-333.852"/>
<ellipse fill="none" stroke="#24730e" cx="543.391" cy="-788.129" rx="4.00001" ry="4.00001"/>
<polygon fill="#24730e" stroke="#24730e" points="545.717,-333.58 552.56,-325.011 546.959,-328.736 548.201,-323.893 548.201,-323.893 548.201,-323.893 546.959,-328.736 543.842,-322.775 545.717,-333.58 545.717,-333.58"/>
</g>
<!-- Experience -->
<g id="node37" class="node"><title>Experience</title>
<ellipse fill="none" stroke="black" cx="1159.94" cy="-306" rx="50.0912" ry="18"/>
<text text-anchor="middle" x="1159.94" y="-302.3" font-family="Times,serif" font-size="14.00">Experience</text>
</g>
<!-- Course&#45;&gt;Experience -->
<g id="edge5" class="edge"><title>Course&#45;&gt;Experience</title>
<path fill="none" stroke="#910dd4" d="M591.724,-808.01C721.292,-804.679 1096.35,-791.99 1136.94,-756 1260.19,-646.729 1195.88,-412.511 1169.47,-333.587"/>
<ellipse fill="none" stroke="#910dd4" cx="587.549" cy="-808.116" rx="4" ry="4"/>
<polygon fill="#910dd4" stroke="#910dd4" points="1169.4,-333.383 1170.43,-322.465 1167.79,-328.652 1166.17,-323.921 1166.17,-323.921 1166.17,-323.921 1167.79,-328.652 1161.91,-325.378 1169.4,-333.383 1169.4,-333.383"/>
</g>
<!-- Quote -->
<g id="node3" class="node"><title>Quote</title>
<ellipse fill="none" stroke="black" cx="633.943" cy="-903" rx="32.4942" ry="18"/>
<text text-anchor="middle" x="633.943" y="-899.3" font-family="Times,serif" font-size="14.00">Quote</text>
</g>
<!-- Behavior -->
<g id="node4" class="node"><title>Behavior</title>
<ellipse fill="none" stroke="black" cx="1266.94" cy="-162" rx="42.7926" ry="18"/>
<text text-anchor="middle" x="1266.94" y="-158.3" font-family="Times,serif" font-size="14.00">Behavior</text>
</g>
<!-- Diagnosis -->
<g id="node7" class="node"><title>Diagnosis</title>
<ellipse fill="none" stroke="black" cx="1158.94" cy="-18" rx="46.2923" ry="18"/>
<text text-anchor="middle" x="1158.94" y="-14.3" font-family="Times,serif" font-size="14.00">Diagnosis</text>
</g>
<!-- Behavior&#45;&gt;Diagnosis -->
<g id="edge8" class="edge"><title>Behavior&#45;&gt;Diagnosis</title>
<path fill="none" stroke="#c2e5c2" d="M1253.53,-137.347C1242.67,-118.903 1226.5,-92.9843 1209.94,-72 1201.79,-61.661 1191.93,-51.0513 1183.06,-42.0667"/>
<ellipse fill="none" stroke="#c2e5c2" cx="1255.55" cy="-140.812" rx="4.00002" ry="4.00002"/>
<polygon fill="#c2e5c2" stroke="#c2e5c2" points="1182.99,-41.9977 1179.07,-31.7539 1179.44,-38.4705 1175.9,-34.9434 1175.9,-34.9434 1175.9,-34.9434 1179.44,-38.4705 1172.73,-38.133 1182.99,-41.9977 1182.99,-41.9977"/>
</g>
<!-- Scenario -->
<g id="node25" class="node"><title>Scenario</title>
<ellipse fill="none" stroke="black" cx="1328.94" cy="-90" rx="41.6928" ry="18"/>
<text text-anchor="middle" x="1328.94" y="-86.3" font-family="Times,serif" font-size="14.00">Scenario</text>
</g>
<!-- Behavior&#45;&gt;Scenario -->
<g id="edge6" class="edge"><title>Behavior&#45;&gt;Scenario</title>
<path fill="none" stroke="#67fb65" d="M1286.75,-138.643C1293.41,-131.123 1300.86,-122.704 1307.63,-115.06"/>
<ellipse fill="none" stroke="#67fb65" cx="1283.97" cy="-141.77" rx="4.00002" ry="4.00002"/>
<polygon fill="#67fb65" stroke="#67fb65" points="1308.01,-114.633 1318.01,-110.131 1311.33,-110.89 1314.64,-107.147 1314.64,-107.147 1314.64,-107.147 1311.33,-110.89 1311.27,-104.164 1308.01,-114.633 1308.01,-114.633"/>
</g>
<!-- Reaction -->
<g id="node27" class="node"><title>Reaction</title>
<ellipse fill="none" stroke="black" cx="1122.94" cy="-90" rx="42.4939" ry="18"/>
<text text-anchor="middle" x="1122.94" y="-86.3" font-family="Times,serif" font-size="14.00">Reaction</text>
</g>
<!-- Behavior&#45;&gt;Reaction -->
<g id="edge7" class="edge"><title>Behavior&#45;&gt;Reaction</title>
<path fill="none" stroke="#34f27c" d="M1232.63,-144.319C1210.46,-133.545 1181.67,-119.546 1159.14,-108.595"/>
<ellipse fill="none" stroke="#34f27c" cx="1236.26" cy="-146.085" rx="4.00002" ry="4.00002"/>
<polygon fill="#34f27c" stroke="#34f27c" points="1158.9,-108.479 1151.87,-100.06 1154.4,-106.293 1149.91,-104.107 1149.91,-104.107 1149.91,-104.107 1154.4,-106.293 1147.94,-108.155 1158.9,-108.479 1158.9,-108.479"/>
</g>
<!-- CandidateList -->
<g id="node5" class="node"><title>CandidateList</title>
<ellipse fill="none" stroke="black" cx="477.943" cy="-234" rx="59.5901" ry="18"/>
<text text-anchor="middle" x="477.943" y="-230.3" font-family="Times,serif" font-size="14.00">CandidateList</text>
</g>
<!-- CandidateList&#45;&gt;Course -->
<g id="edge11" class="edge"><title>CandidateList&#45;&gt;Course</title>
<path fill="none" stroke="#75edb2" d="M474.282,-259.985C467.339,-309.611 452.943,-424.176 452.943,-521 452.943,-667 452.943,-667 452.943,-667 452.943,-717.463 494.901,-763.57 523.049,-788.822"/>
<ellipse fill="none" stroke="#75edb2" cx="474.847" cy="-256" rx="4.00001" ry="4.00001"/>
<ellipse fill="#75edb2" stroke="#75edb2" cx="526.165" cy="-791.551" rx="4.00002" ry="4.00002"/>
</g>
<!-- Candidate -->
<g id="node26" class="node"><title>Candidate</title>
<ellipse fill="none" stroke="black" cx="394.943" cy="-90" rx="46.2923" ry="18"/>
<text text-anchor="middle" x="394.943" y="-86.3" font-family="Times,serif" font-size="14.00">Candidate</text>
</g>
<!-- CandidateList&#45;&gt;Candidate -->
<g id="edge9" class="edge"><title>CandidateList&#45;&gt;Candidate</title>
<path fill="none" stroke="#26ce93" d="M471.296,-208.316C465.658,-189.771 456.482,-164.198 443.943,-144 437.298,-133.295 428.313,-122.823 419.853,-114.053"/>
<ellipse fill="none" stroke="#26ce93" cx="472.438" cy="-212.209" rx="4.00001" ry="4.00001"/>
<polygon fill="#26ce93" stroke="#26ce93" points="419.694,-113.893 415.807,-103.639 416.159,-110.357 412.625,-106.82 412.625,-106.82 412.625,-106.82 416.159,-110.357 409.442,-110.001 419.694,-113.893 419.694,-113.893"/>
</g>
<!-- Concept -->
<g id="node32" class="node"><title>Concept</title>
<ellipse fill="none" stroke="black" cx="394.943" cy="-162" rx="40.0939" ry="18"/>
<text text-anchor="middle" x="394.943" y="-158.3" font-family="Times,serif" font-size="14.00">Concept</text>
</g>
<!-- CandidateList&#45;&gt;Concept -->
<g id="edge10" class="edge"><title>CandidateList&#45;&gt;Concept</title>
<path fill="none" stroke="#62149c" d="M450.863,-210.161C441.15,-201.97 430.235,-192.764 420.643,-184.675"/>
<polygon fill="#62149c" stroke="#62149c" points="451.048,-210.318 455.791,-220.205 454.87,-213.541 458.692,-216.765 458.692,-216.765 458.692,-216.765 454.87,-213.541 461.594,-213.325 451.048,-210.318 451.048,-210.318"/>
<polygon fill="#62149c" stroke="#62149c" points="420.597,-184.636 415.854,-174.749 416.775,-181.412 412.953,-178.189 412.953,-178.189 412.953,-178.189 416.775,-181.412 410.051,-181.629 420.597,-184.636 420.597,-184.636"/>
</g>
<!-- ConsentForm -->
<g id="node6" class="node"><title>ConsentForm</title>
<ellipse fill="none" stroke="black" cx="1501.94" cy="-810" rx="59.2899" ry="18"/>
<text text-anchor="middle" x="1501.94" y="-806.3" font-family="Times,serif" font-size="14.00">ConsentForm</text>
</g>
<!-- ConsentLog -->
<g id="node11" class="node"><title>ConsentLog</title>
<ellipse fill="none" stroke="black" cx="1512.94" cy="-306" rx="53.8905" ry="18"/>
<text text-anchor="middle" x="1512.94" y="-302.3" font-family="Times,serif" font-size="14.00">ConsentLog</text>
</g>
<!-- ConsentForm&#45;&gt;ConsentLog -->
<g id="edge12" class="edge"><title>ConsentForm&#45;&gt;ConsentLog</title>
<path fill="none" stroke="#c7ce26" d="M1506.6,-783.702C1518.52,-715.182 1547.77,-520.373 1526.94,-360 1525.81,-351.277 1523.67,-341.945 1521.4,-333.58"/>
<ellipse fill="none" stroke="#c7ce26" cx="1505.87" cy="-787.849" rx="4.00001" ry="4.00001"/>
<polygon fill="#c7ce26" stroke="#c7ce26" points="1521.4,-333.57 1522.94,-322.714 1520.01,-328.766 1518.62,-323.962 1518.62,-323.962 1518.62,-323.962 1520.01,-328.766 1514.3,-325.211 1521.4,-333.57 1521.4,-333.57"/>
</g>
<!-- ConsentForm&#45;&gt;Project -->
<g id="edge13" class="edge"><title>ConsentForm&#45;&gt;Project</title>
<path fill="none" stroke="#7bdc6c" d="M1457.72,-793.044C1423.86,-780.827 1377.67,-764.159 1345.57,-752.577"/>
<ellipse fill="none" stroke="#7bdc6c" cx="1461.69" cy="-794.476" rx="4.00001" ry="4.00001"/>
<polygon fill="#7bdc6c" stroke="#7bdc6c" points="1345.5,-752.551 1337.62,-744.924 1340.79,-750.853 1336.09,-749.156 1336.09,-749.156 1336.09,-749.156 1340.79,-750.853 1334.56,-753.389 1345.5,-752.551 1345.5,-752.551"/>
</g>
<!-- Diagnosis&#45;&gt;User -->
<g id="edge14" class="edge"><title>Diagnosis&#45;&gt;User</title>
<path fill="none" stroke="#64debd" d="M1116.53,-32.9368C1065.59,-52.6584 986.943,-93.9659 986.943,-161 986.943,-235 986.943,-235 986.943,-235 986.943,-279.571 962.772,-326.868 946.19,-354.071"/>
<ellipse fill="none" stroke="#64debd" cx="1120.39" cy="-31.48" rx="4.00001" ry="4.00001"/>
<ellipse fill="#64debd" stroke="#64debd" cx="943.86" cy="-357.8" rx="4.00002" ry="4.00002"/>
</g>
<!-- BingoGame&#45;&gt;CandidateList -->
<g id="edge15" class="edge"><title>BingoGame&#45;&gt;CandidateList</title>
<path fill="none" stroke="#c0b40b" d="M336.798,-288.99C365.521,-278.003 403.605,-263.435 432.973,-252.201"/>
<ellipse fill="none" stroke="#c0b40b" cx="332.671" cy="-290.568" rx="4.00001" ry="4.00001"/>
<polygon fill="#c0b40b" stroke="#c0b40b" points="433.233,-252.102 444.181,-252.732 437.903,-250.316 442.573,-248.529 442.573,-248.529 442.573,-248.529 437.903,-250.316 440.965,-244.326 433.233,-252.102 433.233,-252.102"/>
</g>
<!-- BingoGame&#45;&gt;Candidate -->
<g id="edge17" class="edge"><title>BingoGame&#45;&gt;Candidate</title>
<path fill="none" stroke="#f1c363" d="M261.933,-283.513C251.712,-275.021 241.646,-264.325 235.943,-252 215.784,-208.429 205.799,-182.894 233.943,-144 257.753,-111.095 302.689,-98.2652 339.05,-93.4285"/>
<polygon fill="#f1c363" stroke="#f1c363" points="262.184,-283.707 267.324,-293.394 266.134,-286.773 270.083,-289.839 270.083,-289.839 270.083,-289.839 266.134,-286.773 272.843,-286.285 262.184,-283.707 262.184,-283.707"/>
<polygon fill="#f1c363" stroke="#f1c363" points="339.12,-93.4205 349.572,-96.7362 344.086,-92.8434 349.053,-92.2663 349.053,-92.2663 349.053,-92.2663 344.086,-92.8434 348.534,-87.7963 339.12,-93.4205 339.12,-93.4205"/>
</g>
<!-- BingoGame&#45;&gt;Concept -->
<g id="edge18" class="edge"><title>BingoGame&#45;&gt;Concept</title>
<path fill="none" stroke="#783558" d="M267.45,-282.065C248.729,-263.612 229.855,-237.332 244.943,-216 245.362,-215.407 310.04,-192.694 354.319,-177.197"/>
<polygon fill="#783558" stroke="#783558" points="267.522,-282.132 271.741,-292.254 271.17,-285.551 274.818,-288.97 274.818,-288.97 274.818,-288.97 271.17,-285.551 277.896,-285.687 267.522,-282.132 267.522,-282.132"/>
<polygon fill="#783558" stroke="#783558" points="354.54,-177.12 365.465,-178.065 359.259,-175.469 363.979,-173.817 363.979,-173.817 363.979,-173.817 359.259,-175.469 362.493,-169.57 354.54,-177.12 354.54,-177.12"/>
</g>
<!-- BingoBoard -->
<g id="node39" class="node"><title>BingoBoard</title>
<ellipse fill="none" stroke="black" cx="307.943" cy="-234" rx="53.8905" ry="18"/>
<text text-anchor="middle" x="307.943" y="-230.3" font-family="Times,serif" font-size="14.00">BingoBoard</text>
</g>
<!-- BingoGame&#45;&gt;BingoBoard -->
<g id="edge16" class="edge"><title>BingoGame&#45;&gt;BingoBoard</title>
<path fill="none" stroke="#b30068" d="M299.653,-279.64C300.715,-273.92 301.846,-267.828 302.921,-262.042"/>
<ellipse fill="none" stroke="#b30068" cx="298.887" cy="-283.764" rx="4.00001" ry="4.00001"/>
<polygon fill="#b30068" stroke="#b30068" points="302.94,-261.936 309.191,-252.926 303.853,-257.02 304.766,-252.104 304.766,-252.104 304.766,-252.104 303.853,-257.02 300.342,-251.283 302.94,-261.936 302.94,-261.936"/>
</g>
<!-- Assessment -->
<g id="node9" class="node"><title>Assessment</title>
<ellipse fill="none" stroke="black" cx="1317.94" cy="-666" rx="52.7911" ry="18"/>
<text text-anchor="middle" x="1317.94" y="-662.3" font-family="Times,serif" font-size="14.00">Assessment</text>
</g>
<!-- Group -->
<g id="node14" class="node"><title>Group</title>
<ellipse fill="none" stroke="black" cx="879.943" cy="-594" rx="33.2948" ry="18"/>
<text text-anchor="middle" x="879.943" y="-590.3" font-family="Times,serif" font-size="14.00">Group</text>
</g>
<!-- Assessment&#45;&gt;Group -->
<g id="edge22" class="edge"><title>Assessment&#45;&gt;Group</title>
<path fill="none" stroke="#230004" d="M1261.35,-655.808C1245.67,-653.27 1228.65,-650.521 1212.94,-648 1108.09,-631.168 984.632,-611.578 921.583,-601.591"/>
<polygon fill="#230004" stroke="#230004" points="1261.56,-655.842 1270.71,-661.884 1266.49,-656.642 1271.43,-657.441 1271.43,-657.441 1271.43,-657.441 1266.49,-656.642 1272.15,-652.999 1261.56,-655.842 1261.56,-655.842"/>
<polygon fill="#230004" stroke="#230004" points="921.505,-601.579 912.332,-595.569 916.567,-600.796 911.628,-600.014 911.628,-600.014 911.628,-600.014 916.567,-600.796 910.924,-604.459 921.505,-601.579 921.505,-601.579"/>
</g>
<!-- Installment -->
<g id="node15" class="node"><title>Installment</title>
<ellipse fill="none" stroke="black" cx="1384.94" cy="-306" rx="50.8918" ry="18"/>
<text text-anchor="middle" x="1384.94" y="-302.3" font-family="Times,serif" font-size="14.00">Installment</text>
</g>
<!-- Assessment&#45;&gt;Installment -->
<g id="edge19" class="edge"><title>Assessment&#45;&gt;Installment</title>
<path fill="none" stroke="#f87652" d="M1322.7,-639.577C1334.91,-574.36 1367.25,-401.54 1379.83,-334.304"/>
<ellipse fill="none" stroke="#f87652" cx="1321.91" cy="-643.801" rx="4.00001" ry="4.00001"/>
<polygon fill="#f87652" stroke="#f87652" points="1379.9,-333.923 1386.17,-324.922 1380.82,-329.008 1381.74,-324.094 1381.74,-324.094 1381.74,-324.094 1380.82,-329.008 1377.32,-323.266 1379.9,-333.923 1379.9,-333.923"/>
</g>
<!-- Assessment&#45;&gt;User -->
<g id="edge21" class="edge"><title>Assessment&#45;&gt;User</title>
<path fill="none" stroke="#068c2d" d="M1311.35,-637.909C1302.1,-604 1282.76,-545.356 1250.94,-504 1181.38,-413.582 1037.14,-388.497 968.634,-381.592"/>
<polygon fill="#068c2d" stroke="#068c2d" points="1311.46,-638.325 1309.65,-649.14 1312.73,-643.161 1314,-647.997 1314,-647.997 1314,-647.997 1312.73,-643.161 1318.35,-646.853 1311.46,-638.325 1311.46,-638.325"/>
<polygon fill="#068c2d" stroke="#068c2d" points="968.27,-381.558 958.73,-376.152 963.292,-381.095 958.313,-380.632 958.313,-380.632 958.313,-380.632 963.292,-381.095 957.897,-385.113 968.27,-381.558 968.27,-381.558"/>
</g>
<!-- Factor -->
<g id="node23" class="node"><title>Factor</title>
<ellipse fill="none" stroke="black" cx="1413.94" cy="-594" rx="33.2948" ry="18"/>
<text text-anchor="middle" x="1413.94" y="-590.3" font-family="Times,serif" font-size="14.00">Factor</text>
</g>
<!-- Assessment&#45;&gt;Factor -->
<g id="edge20" class="edge"><title>Assessment&#45;&gt;Factor</title>
<path fill="none" stroke="#c76b38" d="M1347.48,-643.463C1360.05,-634.3 1374.6,-623.685 1386.89,-614.729"/>
<polygon fill="#c76b38" stroke="#c76b38" points="1347.33,-643.573 1336.6,-645.829 1343.29,-646.519 1339.25,-649.465 1339.25,-649.465 1339.25,-649.465 1343.29,-646.519 1341.9,-653.101 1347.33,-643.573 1347.33,-643.573"/>
<polygon fill="#c76b38" stroke="#c76b38" points="1386.89,-614.724 1397.62,-612.468 1390.93,-611.778 1394.97,-608.832 1394.97,-608.832 1394.97,-608.832 1390.93,-611.778 1392.32,-605.196 1386.89,-614.724 1386.89,-614.724"/>
</g>
<!-- Language -->
<g id="node10" class="node"><title>Language</title>
<ellipse fill="none" stroke="black" cx="767.943" cy="-450" rx="45.4919" ry="18"/>
<text text-anchor="middle" x="767.943" y="-446.3" font-family="Times,serif" font-size="14.00">Language</text>
</g>
<!-- Language&#45;&gt;User -->
<g id="edge23" class="edge"><title>Language&#45;&gt;User</title>
<path fill="none" stroke="#c4cc20" d="M807.278,-432.108C835.416,-420.024 872.809,-403.965 899.084,-392.682"/>
<polygon fill="#c4cc20" stroke="#c4cc20" points="807.028,-432.215 796.064,-432.026 802.434,-434.188 797.84,-436.161 797.84,-436.161 797.84,-436.161 802.434,-434.188 799.615,-440.296 807.028,-432.215 807.028,-432.215"/>
<polygon fill="#c4cc20" stroke="#c4cc20" points="899.378,-392.555 910.343,-392.744 903.973,-390.582 908.567,-388.609 908.567,-388.609 908.567,-388.609 903.973,-390.582 906.791,-384.474 899.378,-392.555 899.378,-392.555"/>
</g>
<!-- ConsentLog&#45;&gt;Project -->
<g id="edge24" class="edge"><title>ConsentLog&#45;&gt;Project</title>
<path fill="none" stroke="#54da90" d="M1512.94,-334.08C1512.94,-362.653 1512.94,-408.996 1512.94,-449 1512.94,-595 1512.94,-595 1512.94,-595 1512.94,-673.375 1410.43,-711.912 1350.39,-727.763"/>
<polygon fill="#54da90" stroke="#54da90" points="1512.94,-334.049 1517.44,-324.049 1512.94,-329.049 1512.94,-324.049 1512.94,-324.049 1512.94,-324.049 1512.94,-329.049 1508.44,-324.049 1512.94,-334.049 1512.94,-334.049"/>
<polygon fill="#54da90" stroke="#54da90" points="1350.12,-727.832 1339.32,-725.927 1345.27,-729.06 1340.43,-730.289 1340.43,-730.289 1340.43,-730.289 1345.27,-729.06 1341.53,-734.651 1350.12,-727.832 1350.12,-727.832"/>
</g>
<!-- Project&#45;&gt;BingoGame -->
<g id="edge26" class="edge"><title>Project&#45;&gt;BingoGame</title>
<path fill="none" stroke="#efe6c7" d="M1265.66,-731.507C1152.52,-715.512 835.678,-662.148 602.943,-540 487.135,-479.22 368.987,-375.785 319.303,-329.988"/>
<ellipse fill="none" stroke="#efe6c7" cx="1269.8" cy="-732.085" rx="4.00001" ry="4.00001"/>
<polygon fill="#efe6c7" stroke="#efe6c7" points="319.26,-329.948 314.988,-319.849 315.594,-326.548 311.928,-323.148 311.928,-323.148 311.928,-323.148 315.594,-326.548 308.868,-326.448 319.26,-329.948 319.26,-329.948"/>
</g>
<!-- Project&#45;&gt;Assessment -->
<g id="edge27" class="edge"><title>Project&#45;&gt;Assessment</title>
<path fill="none" stroke="#f0504a" d="M1311.57,-711.64C1312.38,-705.92 1313.25,-699.828 1314.08,-694.042"/>
<ellipse fill="none" stroke="#f0504a" cx="1310.98" cy="-715.737" rx="4.00001" ry="4.00001"/>
<polygon fill="#f0504a" stroke="#f0504a" points="1314.09,-694.004 1319.95,-684.741 1314.79,-689.054 1315.5,-684.104 1315.5,-684.104 1315.5,-684.104 1314.79,-689.054 1311.04,-683.468 1314.09,-694.004 1314.09,-694.004"/>
</g>
<!-- Project&#45;&gt;Group -->
<g id="edge25" class="edge"><title>Project&#45;&gt;Group</title>
<path fill="none" stroke="#ea6476" d="M1271.09,-724.774C1190.3,-697.969 998.325,-634.276 917.178,-607.354"/>
<ellipse fill="none" stroke="#ea6476" cx="1275.06" cy="-726.092" rx="4.00001" ry="4.00001"/>
<polygon fill="#ea6476" stroke="#ea6476" points="916.883,-607.256 908.809,-599.836 912.137,-605.681 907.392,-604.107 907.392,-604.107 907.392,-604.107 912.137,-605.681 905.975,-608.378 916.883,-607.256 916.883,-607.256"/>
</g>
<!-- Project&#45;&gt;Installment -->
<g id="edge28" class="edge"><title>Project&#45;&gt;Installment</title>
<path fill="none" stroke="#c8f84d" d="M1344.03,-721.429C1362.84,-712.236 1385.49,-699.386 1402.94,-684 1432.75,-657.723 1443.55,-649.752 1455.94,-612 1489.22,-510.646 1429.77,-385.479 1400.19,-332.548"/>
<polygon fill="#c8f84d" stroke="#c8f84d" points="1343.91,-721.488 1332.94,-721.704 1339.39,-723.629 1334.87,-725.77 1334.87,-725.77 1334.87,-725.77 1339.39,-723.629 1336.8,-729.837 1343.91,-721.488 1343.91,-721.488"/>
<polygon fill="#c8f84d" stroke="#c8f84d" points="1400.17,-332.503 1399.13,-321.587 1397.69,-328.159 1395.22,-323.815 1395.22,-323.815 1395.22,-323.815 1397.69,-328.159 1391.31,-326.044 1400.17,-332.503 1400.17,-332.503"/>
</g>
<!-- Project&#45;&gt;User -->
<g id="edge29" class="edge"><title>Project&#45;&gt;User</title>
<path fill="none" stroke="#b903b9" d="M1283.7,-714.424C1274.55,-705.365 1264.33,-694.576 1255.94,-684 1173.24,-579.655 1200.05,-512.428 1093.94,-432 1056.39,-403.534 1002.92,-390.004 967.597,-383.825"/>
<polygon fill="#b903b9" stroke="#b903b9" points="1283.9,-714.62 1287.95,-724.814 1287.49,-718.102 1291.08,-721.585 1291.08,-721.585 1291.08,-721.585 1287.49,-718.102 1294.21,-718.356 1283.9,-714.62 1283.9,-714.62"/>
<polygon fill="#b903b9" stroke="#b903b9" points="967.568,-383.821 958.428,-377.762 962.634,-383.012 957.7,-382.203 957.7,-382.203 957.7,-382.203 962.634,-383.012 956.972,-386.644 967.568,-383.821 967.568,-383.821"/>
</g>
<!-- Project&#45;&gt;Factor -->
<g id="edge30" class="edge"><title>Project&#45;&gt;Factor</title>
<path fill="none" stroke="#8bf93f" d="M1340.52,-718.78C1354.21,-709.788 1369.38,-697.88 1379.94,-684 1393.97,-665.565 1402.83,-640.661 1407.97,-621.885"/>
<polygon fill="#8bf93f" stroke="#8bf93f" points="1340.27,-718.939 1329.41,-720.449 1336.04,-721.599 1331.8,-724.259 1331.8,-724.259 1331.8,-724.259 1336.04,-721.599 1334.2,-728.069 1340.27,-718.939 1340.27,-718.939"/>
<polygon fill="#8bf93f" stroke="#8bf93f" points="1407.98,-621.853 1414.82,-613.279 1409.22,-617.009 1410.46,-612.165 1410.46,-612.165 1410.46,-612.165 1409.22,-617.009 1406.1,-611.05 1407.98,-621.853 1407.98,-621.853"/>
</g>
<!-- HomeCountry -->
<g id="node13" class="node"><title>HomeCountry</title>
<ellipse fill="none" stroke="black" cx="924.943" cy="-522" rx="61.99" ry="18"/>
<text text-anchor="middle" x="924.943" y="-518.3" font-family="Times,serif" font-size="14.00">HomeCountry</text>
</g>
<!-- HomeState -->
<g id="node20" class="node"><title>HomeState</title>
<ellipse fill="none" stroke="black" cx="1008.94" cy="-450" rx="50.0912" ry="18"/>
<text text-anchor="middle" x="1008.94" y="-446.3" font-family="Times,serif" font-size="14.00">HomeState</text>
</g>
<!-- HomeCountry&#45;&gt;HomeState -->
<g id="edge32" class="edge"><title>HomeCountry&#45;&gt;HomeState</title>
<path fill="none" stroke="#3531e3" d="M950.78,-499.469C960.73,-491.178 972.107,-481.696 982.145,-473.331"/>
<ellipse fill="none" stroke="#3531e3" cx="947.498" cy="-502.204" rx="4.00002" ry="4.00002"/>
<polygon fill="#3531e3" stroke="#3531e3" points="982.174,-473.308 992.737,-470.363 986.015,-470.107 989.856,-466.906 989.856,-466.906 989.856,-466.906 986.015,-470.107 986.975,-463.449 982.174,-473.308 982.174,-473.308"/>
</g>
<!-- HomeCountry&#45;&gt;User -->
<g id="edge31" class="edge"><title>HomeCountry&#45;&gt;User</title>
<path fill="none" stroke="#9eaee4" d="M977.301,-506.136C1010.49,-496.263 1048.86,-482.489 1058.94,-468 1068.08,-454.867 1067.99,-445.198 1058.94,-432 1038.31,-401.892 997.924,-388.883 967.896,-383.265"/>
<polygon fill="#9eaee4" stroke="#9eaee4" points="977.258,-506.148 966.399,-504.622 972.457,-507.546 967.657,-508.943 967.657,-508.943 967.657,-508.943 972.457,-507.546 968.914,-513.264 977.258,-506.148 977.258,-506.148"/>
<polygon fill="#9eaee4" stroke="#9eaee4" points="967.619,-383.219 958.498,-377.132 962.688,-382.395 957.756,-381.57 957.756,-381.57 957.756,-381.57 962.688,-382.395 957.014,-386.009 967.619,-383.219 967.619,-383.219"/>
</g>
<!-- Group&#45;&gt;CandidateList -->
<g id="edge35" class="edge"><title>Group&#45;&gt;CandidateList</title>
<path fill="none" stroke="#6a4bac" d="M838.72,-591.018C790.412,-587.072 709.414,-575.271 649.943,-540 544.663,-477.56 498.59,-324.66 483.718,-262.226"/>
<ellipse fill="none" stroke="#6a4bac" cx="842.777" cy="-591.326" rx="4" ry="4"/>
<polygon fill="#6a4bac" stroke="#6a4bac" points="483.684,-262.08 485.83,-251.326 482.564,-257.207 481.444,-252.334 481.444,-252.334 481.444,-252.334 482.564,-257.207 477.059,-253.342 483.684,-262.08 483.684,-262.08"/>
</g>
<!-- Group&#45;&gt;HomeCountry -->
<g id="edge38" class="edge"><title>Group&#45;&gt;HomeCountry</title>
<path fill="none" stroke="#1e7777" d="M895.845,-568.264C899.865,-562.01 904.193,-555.278 908.251,-548.966"/>
<polygon fill="#1e7777" stroke="#1e7777" points="895.788,-568.353 886.595,-574.331 893.084,-572.559 890.38,-576.765 890.38,-576.765 890.38,-576.765 893.084,-572.559 894.165,-579.198 895.788,-568.353 895.788,-568.353"/>
<polygon fill="#1e7777" stroke="#1e7777" points="908.527,-548.536 917.72,-542.557 911.231,-544.33 913.935,-540.124 913.935,-540.124 913.935,-540.124 911.231,-544.33 910.149,-537.69 908.527,-548.536 908.527,-548.536"/>
</g>
<!-- Group&#45;&gt;Installment -->
<g id="edge36" class="edge"><title>Group&#45;&gt;Installment</title>
<path fill="none" stroke="#52b654" d="M921.175,-591.702C974.87,-588.487 1070.32,-577.47 1141.94,-540 1242.58,-487.349 1330.46,-380.368 1366.95,-331.882"/>
<ellipse fill="none" stroke="#52b654" cx="916.92" cy="-591.935" rx="4" ry="4"/>
<polygon fill="#52b654" stroke="#52b654" points="1366.99,-331.828 1376.57,-326.492 1369.98,-327.817 1372.96,-323.806 1372.96,-323.806 1372.96,-323.806 1369.98,-327.817 1369.35,-321.119 1366.99,-331.828 1366.99,-331.828"/>
</g>
<!-- Gender -->
<g id="node16" class="node"><title>Gender</title>
<ellipse fill="none" stroke="black" cx="630.943" cy="-450" rx="36.2938" ry="18"/>
<text text-anchor="middle" x="630.943" y="-446.3" font-family="Times,serif" font-size="14.00">Gender</text>
</g>
<!-- Group&#45;&gt;Gender -->
<g id="edge40" class="edge"><title>Group&#45;&gt;Gender</title>
<path fill="none" stroke="#a43af6" d="M836.931,-591.1C793.484,-587.156 726.454,-575.294 680.943,-540 660.575,-524.205 647.213,-497.634 639.469,-477.627"/>
<polygon fill="#a43af6" stroke="#a43af6" points="836.934,-591.101 846.54,-596.39 841.918,-591.503 846.902,-591.904 846.902,-591.904 846.902,-591.904 841.918,-591.503 847.264,-587.419 836.934,-591.101 836.934,-591.101"/>
<polygon fill="#a43af6" stroke="#a43af6" points="639.435,-477.531 640.249,-466.596 637.727,-472.832 636.019,-468.133 636.019,-468.133 636.019,-468.133 637.727,-472.832 631.79,-469.67 639.435,-477.531 639.435,-477.531"/>
</g>
<!-- GroupRevision -->
<g id="node19" class="node"><title>GroupRevision</title>
<ellipse fill="none" stroke="black" cx="1068.94" cy="-522" rx="64.189" ry="18"/>
<text text-anchor="middle" x="1068.94" y="-518.3" font-family="Times,serif" font-size="14.00">GroupRevision</text>
</g>
<!-- Group&#45;&gt;GroupRevision -->
<g id="edge34" class="edge"><title>Group&#45;&gt;GroupRevision</title>
<path fill="none" stroke="#12b559" d="M914.254,-580.292C944.441,-569.112 988.664,-552.733 1022.1,-540.348"/>
<ellipse fill="none" stroke="#12b559" cx="910.372" cy="-581.73" rx="4.00001" ry="4.00001"/>
<polygon fill="#12b559" stroke="#12b559" points="1022.29,-540.28 1033.23,-541.026 1026.98,-538.543 1031.67,-536.807 1031.67,-536.807 1031.67,-536.807 1026.98,-538.543 1030.1,-532.587 1022.29,-540.28 1022.29,-540.28"/>
</g>
<!-- Group&#45;&gt;HomeState -->
<g id="edge37" class="edge"><title>Group&#45;&gt;HomeState</title>
<path fill="none" stroke="#281856" d="M862.275,-568.71C850.762,-549.651 840.204,-523.218 853.943,-504 860.464,-494.878 917.78,-476.88 960.829,-464.404"/>
<polygon fill="#281856" stroke="#281856" points="862.301,-568.751 863.943,-579.593 865.012,-572.952 867.724,-577.153 867.724,-577.153 867.724,-577.153 865.012,-572.952 871.504,-574.713 862.301,-568.751 862.301,-568.751"/>
<polygon fill="#281856" stroke="#281856" points="960.987,-464.359 971.841,-465.921 965.793,-462.977 970.598,-461.596 970.598,-461.596 970.598,-461.596 965.793,-462.977 969.355,-457.271 960.987,-464.359 960.987,-464.359"/>
</g>
<!-- Group&#45;&gt;User -->
<g id="edge33" class="edge"><title>Group&#45;&gt;User</title>
<path fill="none" stroke="#d371b2" d="M836.527,-592.505C797.372,-589.462 741.79,-578.123 713.943,-540 685.63,-501.239 684.301,-469.754 713.943,-432 735.88,-404.061 837.542,-388.968 893.594,-382.643"/>
<polygon fill="#d371b2" stroke="#d371b2" points="836.618,-592.511 846.318,-597.627 841.609,-592.823 846.599,-593.135 846.599,-593.135 846.599,-593.135 841.609,-592.823 846.88,-588.644 836.618,-592.511 836.618,-592.511"/>
<polygon fill="#d371b2" stroke="#d371b2" points="893.888,-382.611 904.317,-386.001 898.859,-382.069 903.829,-381.528 903.829,-381.528 903.829,-381.528 898.859,-382.069 903.342,-377.054 893.888,-382.611 893.888,-382.611"/>
</g>
<!-- CipCode -->
<g id="node36" class="node"><title>CipCode</title>
<ellipse fill="none" stroke="black" cx="764.943" cy="-522" rx="42.4939" ry="18"/>
<text text-anchor="middle" x="764.943" y="-518.3" font-family="Times,serif" font-size="14.00">CipCode</text>
</g>
<!-- Group&#45;&gt;CipCode -->
<g id="edge39" class="edge"><title>Group&#45;&gt;CipCode</title>
<path fill="none" stroke="#74ba2d" d="M849.874,-574.697C833.606,-564.795 813.512,-552.564 796.954,-542.485"/>
<polygon fill="#74ba2d" stroke="#74ba2d" points="850.04,-574.798 856.242,-583.841 854.311,-577.398 858.582,-579.998 858.582,-579.998 858.582,-579.998 854.311,-577.398 860.922,-576.154 850.04,-574.798 850.04,-574.798"/>
<polygon fill="#74ba2d" stroke="#74ba2d" points="796.707,-542.335 790.505,-533.291 792.436,-539.735 788.165,-537.135 788.165,-537.135 788.165,-537.135 792.436,-539.735 785.825,-540.979 796.707,-542.335 796.707,-542.335"/>
</g>
<!-- Value -->
<g id="node22" class="node"><title>Value</title>
<ellipse fill="none" stroke="black" cx="1397.94" cy="-234" rx="31.6951" ry="18"/>
<text text-anchor="middle" x="1397.94" y="-230.3" font-family="Times,serif" font-size="14.00">Value</text>
</g>
<!-- Installment&#45;&gt;Value -->
<g id="edge41" class="edge"><title>Installment&#45;&gt;Value</title>
<path fill="none" stroke="#51cb60" d="M1389.65,-279.64C1390.71,-273.92 1391.85,-267.828 1392.92,-262.042"/>
<ellipse fill="none" stroke="#51cb60" cx="1388.89" cy="-283.764" rx="4.00001" ry="4.00001"/>
<polygon fill="#51cb60" stroke="#51cb60" points="1392.94,-261.936 1399.19,-252.926 1393.85,-257.02 1394.77,-252.104 1394.77,-252.104 1394.77,-252.104 1393.85,-257.02 1390.34,-251.283 1392.94,-261.936 1392.94,-261.936"/>
</g>
<!-- Gender&#45;&gt;User -->
<g id="edge42" class="edge"><title>Gender&#45;&gt;User</title>
<path fill="none" stroke="#0a88d5" d="M667.039,-436.162C671.692,-434.674 676.412,-433.246 680.943,-432 756.07,-411.343 845.771,-394.086 894.696,-385.285"/>
<ellipse fill="none" stroke="#0a88d5" cx="663.118" cy="-437.451" rx="4.00001" ry="4.00001"/>
<polygon fill="#0a88d5" stroke="#0a88d5" points="894.941,-385.242 905.575,-387.917 899.863,-384.364 904.785,-383.487 904.785,-383.487 904.785,-383.487 899.863,-384.364 903.995,-379.056 894.941,-385.242 894.941,-385.242"/>
</g>
<!-- Style -->
<g id="node17" class="node"><title>Style</title>
<ellipse fill="none" stroke="black" cx="1239.94" cy="-810" rx="28.6953" ry="18"/>
<text text-anchor="middle" x="1239.94" y="-806.3" font-family="Times,serif" font-size="14.00">Style</text>
</g>
<!-- Style&#45;&gt;Project -->
<g id="edge43" class="edge"><title>Style&#45;&gt;Project</title>
<path fill="none" stroke="#ad1b4d" d="M1260.2,-788.145C1268.15,-779.963 1277.3,-770.54 1285.46,-762.148"/>
<ellipse fill="none" stroke="#ad1b4d" cx="1257.15" cy="-791.286" rx="4.00002" ry="4.00002"/>
<polygon fill="#ad1b4d" stroke="#ad1b4d" points="1285.63,-761.969 1295.83,-757.932 1289.11,-758.383 1292.6,-754.797 1292.6,-754.797 1292.6,-754.797 1289.11,-758.383 1289.37,-751.661 1285.63,-761.969 1285.63,-761.969"/>
</g>
<!-- School -->
<g id="node18" class="node"><title>School</title>
<ellipse fill="none" stroke="black" cx="547.943" cy="-903" rx="35.194" ry="18"/>
<text text-anchor="middle" x="547.943" y="-899.3" font-family="Times,serif" font-size="14.00">School</text>
</g>
<!-- School&#45;&gt;Course -->
<g id="edge44" class="edge"><title>School&#45;&gt;Course</title>
<path fill="none" stroke="#73100d" d="M547.943,-876.729C547.943,-864.725 547.943,-850.362 547.943,-838.129"/>
<ellipse fill="none" stroke="#73100d" cx="547.943" cy="-880.884" rx="4" ry="4"/>
<polygon fill="#73100d" stroke="#73100d" points="547.943,-838.04 552.443,-828.04 547.943,-833.04 547.943,-828.04 547.943,-828.04 547.943,-828.04 547.943,-833.04 543.443,-828.04 547.943,-838.04 547.943,-838.04"/>
</g>
<!-- School&#45;&gt;BingoGame -->
<g id="edge45" class="edge"><title>School&#45;&gt;BingoGame</title>
<path fill="none" stroke="#748a3b" d="M525.539,-879.432C518.996,-873.772 511.547,-868.14 503.943,-864 397.968,-806.306 262.943,-859.662 262.943,-739 262.943,-739 262.943,-739 262.943,-449 262.943,-408.037 275.772,-362.018 285.184,-333.768"/>
<polygon fill="#748a3b" stroke="#748a3b" points="525.901,-879.762 530.253,-889.828 529.594,-883.133 533.287,-886.505 533.287,-886.505 533.287,-886.505 529.594,-883.133 536.321,-883.181 525.901,-879.762 525.901,-879.762"/>
<polygon fill="#748a3b" stroke="#748a3b" points="285.22,-333.665 292.723,-325.668 286.844,-328.936 288.467,-324.207 288.467,-324.207 288.467,-324.207 286.844,-328.936 284.211,-322.745 285.22,-333.665 285.22,-333.665"/>
</g>
<!-- School&#45;&gt;Project -->
<g id="edge46" class="edge"><title>School&#45;&gt;Project</title>
<path fill="none" stroke="#56119b" d="M569.245,-879.172C576.183,-873.16 584.332,-867.408 592.943,-864 663.81,-835.951 1217.23,-874.07 1277.94,-828 1296.86,-813.648 1303.96,-786.827 1306.57,-766.366"/>
<polygon fill="#56119b" stroke="#56119b" points="569.007,-879.394 558.629,-882.936 565.355,-882.808 561.702,-886.223 561.702,-886.223 561.702,-886.223 565.355,-882.808 564.776,-889.51 569.007,-879.394 569.007,-879.394"/>
<polygon fill="#56119b" stroke="#56119b" points="1306.58,-766.297 1312.04,-756.789 1307.07,-761.321 1307.56,-756.346 1307.56,-756.346 1307.56,-756.346 1307.07,-761.321 1303.09,-755.902 1306.58,-766.297 1306.58,-766.297"/>
</g>
<!-- School&#45;&gt;Roster -->
<g id="edge48" class="edge"><title>School&#45;&gt;Roster</title>
<path fill="none" stroke="#1e684c" d="M523.391,-880.351C517.112,-874.938 510.329,-869.196 503.943,-864 434.463,-807.469 343.781,-807.498 362.943,-720 397.31,-563.066 497.146,-394.59 536.613,-332.142"/>
<polygon fill="#1e684c" stroke="#1e684c" points="523.457,-880.408 528.056,-890.363 527.232,-883.687 531.007,-886.966 531.007,-886.966 531.007,-886.966 527.232,-883.687 533.958,-883.568 523.457,-880.408 523.457,-880.408"/>
<polygon fill="#1e684c" stroke="#1e684c" points="536.822,-331.813 545.991,-325.797 539.509,-327.596 542.196,-323.379 542.196,-323.379 542.196,-323.379 539.509,-327.596 538.401,-320.961 536.822,-331.813 536.822,-331.813"/>
</g>
<!-- School&#45;&gt;Experience -->
<g id="edge47" class="edge"><title>School&#45;&gt;Experience</title>
<path fill="none" stroke="#6773eb" d="M569.212,-879.087C576.148,-873.073 584.306,-867.34 592.943,-864 694.258,-824.815 1486.76,-897.869 1569.94,-828 1600.91,-801.985 1588.94,-779.447 1588.94,-739 1588.94,-739 1588.94,-739 1588.94,-665 1588.94,-467.727 1318.22,-357.961 1206.9,-321.161"/>
<polygon fill="#6773eb" stroke="#6773eb" points="568.971,-879.313 558.597,-882.866 565.323,-882.731 561.674,-886.15 561.674,-886.15 561.674,-886.15 565.323,-882.731 564.751,-889.434 568.971,-879.313 568.971,-879.313"/>
<polygon fill="#6773eb" stroke="#6773eb" points="1206.77,-321.121 1198.66,-313.749 1202.02,-319.575 1197.26,-318.028 1197.26,-318.028 1197.26,-318.028 1202.02,-319.575 1195.87,-322.308 1206.77,-321.121 1206.77,-321.121"/>
</g>
<!-- HomeState&#45;&gt;User -->
<g id="edge49" class="edge"><title>HomeState&#45;&gt;User</title>
<path fill="none" stroke="#f69350" d="M984.949,-427.467C975.162,-418.684 963.888,-408.566 954.18,-399.854"/>
<ellipse fill="none" stroke="#f69350" cx="988.267" cy="-430.444" rx="4.00002" ry="4.00002"/>
<polygon fill="#f69350" stroke="#f69350" points="953.903,-399.606 949.467,-389.577 950.182,-396.266 946.461,-392.927 946.461,-392.927 946.461,-392.927 950.182,-396.266 943.455,-396.276 953.903,-399.606 953.903,-399.606"/>
</g>
<!-- User&#45;&gt;CandidateList -->
<g id="edge52" class="edge"><title>User&#45;&gt;CandidateList</title>
<path fill="none" stroke="#1caf2b" d="M899.08,-367.012C821.334,-342.641 621.442,-279.982 527.772,-250.62"/>
<ellipse fill="none" stroke="#1caf2b" cx="903.091" cy="-368.269" rx="4.00001" ry="4.00001"/>
<polygon fill="#1caf2b" stroke="#1caf2b" points="527.51,-250.538 519.313,-243.252 522.738,-249.042 517.967,-247.546 517.967,-247.546 517.967,-247.546 522.738,-249.042 516.621,-251.84 527.51,-250.538 527.51,-250.538"/>
</g>
<!-- User&#45;&gt;BingoGame -->
<g id="edge54" class="edge"><title>User&#45;&gt;BingoGame</title>
<path fill="none" stroke="#ecfe93" d="M893.904,-372.923C788.414,-361.313 485.628,-327.987 355.534,-313.669"/>
<polygon fill="#ecfe93" stroke="#ecfe93" points="894.081,-372.943 903.529,-378.51 899.051,-373.49 904.021,-374.037 904.021,-374.037 904.021,-374.037 899.051,-373.49 904.513,-369.564 894.081,-372.943 894.081,-372.943"/>
<polygon fill="#ecfe93" stroke="#ecfe93" points="355.292,-313.642 345.845,-308.075 350.322,-313.095 345.352,-312.548 345.352,-312.548 345.352,-312.548 350.322,-313.095 344.86,-317.021 355.292,-313.642 355.292,-313.642"/>
</g>
<!-- User&#45;&gt;ConsentLog -->
<g id="edge51" class="edge"><title>User&#45;&gt;ConsentLog</title>
<path fill="none" stroke="#cdf445" d="M966.306,-375.092C1050.01,-370.197 1266.62,-355.32 1444.94,-324 1450.7,-322.989 1456.69,-321.758 1462.63,-320.426"/>
<ellipse fill="none" stroke="#cdf445" cx="962.153" cy="-375.331" rx="4" ry="4"/>
<polygon fill="#cdf445" stroke="#cdf445" points="1462.78,-320.392 1473.54,-322.491 1467.65,-319.251 1472.51,-318.11 1472.51,-318.11 1472.51,-318.11 1467.65,-319.251 1471.49,-313.729 1462.78,-320.392 1462.78,-320.392"/>
</g>
<!-- User&#45;&gt;HomeCountry -->
<g id="edge57" class="edge"><title>User&#45;&gt;HomeCountry</title>
<path fill="none" stroke="#8cb624" d="M966.231,-380.952C1001.27,-384.874 1052.72,-396.653 1076.94,-432 1085.99,-445.198 1086.08,-454.867 1076.94,-468 1065.86,-483.927 1020.59,-498.991 982.225,-508.958"/>
<ellipse fill="none" stroke="#8cb624" cx="962.122" cy="-380.546" rx="4" ry="4"/>
<ellipse fill="#8cb624" stroke="#8cb624" cx="978.035" cy="-510.022" rx="4.00001" ry="4.00001"/>
</g>
<!-- User&#45;&gt;Installment -->
<g id="edge58" class="edge"><title>User&#45;&gt;Installment</title>
<path fill="none" stroke="#6ccd7f" d="M965.894,-373.984C1035,-367.652 1193.77,-351.26 1324.94,-324 1329.29,-323.096 1333.79,-322.044 1338.28,-320.916"/>
<ellipse fill="none" stroke="#6ccd7f" cx="961.903" cy="-374.346" rx="4" ry="4"/>
<polygon fill="#6ccd7f" stroke="#6ccd7f" points="1338.35,-320.898 1349.17,-322.704 1343.18,-319.625 1348.02,-318.352 1348.02,-318.352 1348.02,-318.352 1343.18,-319.625 1346.87,-314 1338.35,-320.898 1338.35,-320.898"/>
</g>
<!-- User&#45;&gt;Candidate -->
<g id="edge56" class="edge"><title>User&#45;&gt;Candidate</title>
<path fill="none" stroke="#3e6d1d" d="M931.753,-351.664C931.041,-332.125 926.989,-305.557 911.943,-288 790.814,-146.656 556.798,-106.416 450.226,-95.2056"/>
<ellipse fill="none" stroke="#3e6d1d" cx="931.815" cy="-355.826" rx="4" ry="4"/>
<polygon fill="#3e6d1d" stroke="#3e6d1d" points="449.963,-95.1792 440.463,-89.7021 444.988,-94.6794 440.013,-94.1796 440.013,-94.1796 440.013,-94.1796 444.988,-94.6794 439.563,-98.6571 449.963,-95.1792 449.963,-95.1792"/>
</g>
<!-- User&#45;&gt;Reaction -->
<g id="edge60" class="edge"><title>User&#45;&gt;Reaction</title>
<path fill="none" stroke="#b8cd70" d="M958.078,-361.683C972.488,-352.38 989.528,-339.346 1000.94,-324 1051.89,-255.508 1021.15,-215.397 1067.94,-144 1075.46,-132.536 1085.87,-121.688 1095.61,-112.829"/>
<ellipse fill="none" stroke="#b8cd70" cx="954.645" cy="-363.826" rx="4.00002" ry="4.00002"/>
<polygon fill="#b8cd70" stroke="#b8cd70" points="1095.69,-112.76 1106.18,-109.563 1099.46,-109.468 1103.22,-106.176 1103.22,-106.176 1103.22,-106.176 1099.46,-109.468 1100.26,-102.789 1095.69,-112.76 1095.69,-112.76"/>
</g>
<!-- User&#45;&gt;Roster -->
<g id="edge59" class="edge"><title>User&#45;&gt;Roster</title>
<path fill="none" stroke="#9e6ae2" d="M896.086,-372.262C837.774,-364.085 716.896,-346.059 615.943,-324 608.083,-322.283 599.736,-320.21 591.777,-318.111"/>
<ellipse fill="none" stroke="#9e6ae2" cx="900.264" cy="-372.845" rx="4.00001" ry="4.00001"/>
<polygon fill="#9e6ae2" stroke="#9e6ae2" points="591.623,-318.069 583.141,-311.119 586.796,-316.766 581.968,-315.463 581.968,-315.463 581.968,-315.463 586.796,-316.766 580.796,-319.808 591.623,-318.069 591.623,-318.069"/>
</g>
<!-- Email -->
<g id="node31" class="node"><title>Email</title>
<ellipse fill="none" stroke="black" cx="870.943" cy="-306" rx="32.4942" ry="18"/>
<text text-anchor="middle" x="870.943" y="-302.3" font-family="Times,serif" font-size="14.00">Email</text>
</g>
<!-- User&#45;&gt;Email -->
<g id="edge50" class="edge"><title>User&#45;&gt;Email</title>
<path fill="none" stroke="#3c3648" d="M912.515,-355.501C905.694,-347.543 897.931,-338.486 890.975,-330.37"/>
<ellipse fill="none" stroke="#3c3648" cx="915.321" cy="-358.774" rx="4.00002" ry="4.00002"/>
<polygon fill="#3c3648" stroke="#3c3648" points="890.86,-330.237 887.769,-319.715 887.606,-326.44 884.352,-322.644 884.352,-322.644 884.352,-322.644 887.606,-326.44 880.935,-325.573 890.86,-330.237 890.86,-330.237"/>
</g>
<!-- User&#45;&gt;Concept -->
<g id="edge53" class="edge"><title>User&#45;&gt;Concept</title>
<path fill="none" stroke="#0f959d" d="M901.275,-363.825C837.135,-335.505 680.551,-267.247 546.943,-216 509.741,-201.731 466.833,-186.917 436.112,-176.591"/>
<ellipse fill="none" stroke="#0f959d" cx="904.973" cy="-365.46" rx="4.00002" ry="4.00002"/>
<polygon fill="#0f959d" stroke="#0f959d" points="436.071,-176.577 428.017,-169.135 431.329,-174.99 426.588,-173.402 426.588,-173.402 426.588,-173.402 431.329,-174.99 425.159,-177.669 436.071,-176.577 436.071,-176.577"/>
</g>
<!-- Narrative -->
<g id="node33" class="node"><title>Narrative</title>
<ellipse fill="none" stroke="black" cx="1271.94" cy="-306" rx="44.393" ry="18"/>
<text text-anchor="middle" x="1271.94" y="-302.3" font-family="Times,serif" font-size="14.00">Narrative</text>
</g>
<!-- User&#45;&gt;Narrative -->
<g id="edge62" class="edge"><title>User&#45;&gt;Narrative</title>
<path fill="none" stroke="#8769c2" d="M967.35,-371.835C1022.31,-363.694 1129.54,-346.465 1218.94,-324 1222.37,-323.138 1225.91,-322.175 1229.44,-321.157"/>
<polygon fill="#8769c2" stroke="#8769c2" points="967.288,-371.844 956.741,-368.843 962.341,-372.57 957.394,-373.295 957.394,-373.295 957.394,-373.295 962.341,-372.57 958.047,-377.747 967.288,-371.844 967.288,-371.844"/>
<polygon fill="#8769c2" stroke="#8769c2" points="1229.76,-321.062 1240.63,-322.492 1234.55,-319.622 1239.34,-318.183 1239.34,-318.183 1239.34,-318.183 1234.55,-319.622 1238.04,-313.873 1229.76,-321.062 1229.76,-321.062"/>
</g>
<!-- User&#45;&gt;Experience -->
<g id="edge61" class="edge"><title>User&#45;&gt;Experience</title>
<path fill="none" stroke="#7d35c7" d="M965.049,-366.575C1004.48,-354.52 1069.6,-334.615 1113.6,-321.165"/>
<polygon fill="#7d35c7" stroke="#7d35c7" points="965.013,-366.585 954.134,-365.205 960.232,-368.047 955.45,-369.509 955.45,-369.509 955.45,-369.509 960.232,-368.047 956.765,-373.812 965.013,-366.585 965.013,-366.585"/>
<polygon fill="#7d35c7" stroke="#7d35c7" points="1113.64,-321.153 1124.52,-322.533 1118.42,-319.691 1123.21,-318.23 1123.21,-318.23 1123.21,-318.23 1118.42,-319.691 1121.89,-313.926 1113.64,-321.153 1113.64,-321.153"/>
</g>
<!-- User&#45;&gt;BingoBoard -->
<g id="edge55" class="edge"><title>User&#45;&gt;BingoBoard</title>
<path fill="none" stroke="#686e3f" d="M895.551,-375.246C840.411,-371.461 731.546,-359.728 646.943,-324 621.384,-313.206 621.516,-298.762 595.943,-288 585.34,-283.538 445.749,-258.889 364.876,-244.831"/>
<ellipse fill="none" stroke="#686e3f" cx="899.616" cy="-375.509" rx="4" ry="4"/>
<polygon fill="#686e3f" stroke="#686e3f" points="364.688,-244.798 355.606,-238.654 359.762,-243.943 354.836,-243.088 354.836,-243.088 354.836,-243.088 359.762,-243.943 354.066,-247.521 364.688,-244.798 364.688,-244.798"/>
</g>
<!-- Week -->
<g id="node24" class="node"><title>Week</title>
<ellipse fill="none" stroke="black" cx="1217.94" cy="-234" rx="31.6951" ry="18"/>
<text text-anchor="middle" x="1217.94" y="-230.3" font-family="Times,serif" font-size="14.00">Week</text>
</g>
<!-- Week&#45;&gt;Behavior -->
<g id="edge63" class="edge"><title>Week&#45;&gt;Behavior</title>
<path fill="none" stroke="#bd6302" d="M1233.69,-210.509C1239.03,-202.873 1245.02,-194.323 1250.42,-186.603"/>
<ellipse fill="none" stroke="#bd6302" cx="1231.36" cy="-213.839" rx="4.00002" ry="4.00002"/>
<ellipse fill="#bd6302" stroke="#bd6302" cx="1252.89" cy="-183.074" rx="4.00002" ry="4.00002"/>
</g>
<!-- Week&#45;&gt;Diagnosis -->
<g id="edge64" class="edge"><title>Week&#45;&gt;Diagnosis</title>
<path fill="none" stroke="#ed0b8a" d="M1211.24,-208.201C1202.67,-176.567 1187.34,-120.178 1173.94,-72 1171.57,-63.4851 1168.96,-54.2105 1166.59,-45.8345"/>
<ellipse fill="none" stroke="#ed0b8a" cx="1212.32" cy="-212.204" rx="4.00001" ry="4.00001"/>
<polygon fill="#ed0b8a" stroke="#ed0b8a" points="1166.58,-45.7946 1168.18,-34.9458 1165.21,-40.9847 1163.85,-36.1747 1163.85,-36.1747 1163.85,-36.1747 1165.21,-40.9847 1159.52,-37.4037 1166.58,-45.7946 1166.58,-45.7946"/>
</g>
<!-- Scenario&#45;&gt;Narrative -->
<g id="edge65" class="edge"><title>Scenario&#45;&gt;Narrative</title>
<path fill="none" stroke="#2cd0ee" d="M1327.76,-116.525C1326.51,-134.476 1324,-158.952 1318.94,-180 1310.52,-215.07 1294.98,-253.677 1284.08,-278.571"/>
<ellipse fill="none" stroke="#2cd0ee" cx="1328.02" cy="-112.272" rx="4" ry="4"/>
<polygon fill="#2cd0ee" stroke="#2cd0ee" points="1283.93,-278.898 1275.76,-286.206 1281.9,-283.467 1279.87,-288.035 1279.87,-288.035 1279.87,-288.035 1281.9,-283.467 1283.98,-289.864 1283.93,-278.898 1283.93,-278.898"/>
</g>
<!-- Reaction&#45;&gt;Course -->
<g id="edge66" class="edge"><title>Reaction&#45;&gt;Course</title>
<path fill="none" stroke="#86282a" d="M1119.19,-116.385C1113.87,-153.831 1104.39,-226.128 1100.94,-288 1095.51,-385.563 1131.02,-406.898 1141.94,-504 1143.73,-519.9 1150.61,-526.554 1141.94,-540 1015.05,-736.77 705.479,-791.176 591.23,-804.818"/>
<ellipse fill="none" stroke="#86282a" cx="1119.82" cy="-112.034" rx="4.00001" ry="4.00001"/>
<ellipse fill="#86282a" stroke="#86282a" cx="586.999" cy="-805.307" rx="4.00001" ry="4.00001"/>
</g>
<!-- Reaction&#45;&gt;Diagnosis -->
<g id="edge67" class="edge"><title>Reaction&#45;&gt;Diagnosis</title>
<path fill="none" stroke="#213992" d="M1135.43,-64.7144C1138.73,-58.3016 1142.3,-51.3577 1145.64,-44.8648"/>
<ellipse fill="none" stroke="#213992" cx="1133.49" cy="-68.4978" rx="4.00002" ry="4.00002"/>
<polygon fill="#213992" stroke="#213992" points="1145.74,-44.6819 1154.31,-37.8471 1148.02,-40.2354 1150.31,-35.789 1150.31,-35.789 1150.31,-35.789 1148.02,-40.2354 1146.31,-33.7309 1145.74,-44.6819 1145.74,-44.6819"/>
</g>
<!-- ApplicationRecord -->
<g id="node29" class="node"><title>ApplicationRecord</title>
<ellipse fill="none" stroke="black" cx="761.943" cy="-903" rx="77.1866" ry="18"/>
<text text-anchor="middle" x="761.943" y="-899.3" font-family="Times,serif" font-size="14.00">ApplicationRecord</text>
</g>
<!-- Theme -->
<g id="node30" class="node"><title>Theme</title>
<ellipse fill="none" stroke="black" cx="866.943" cy="-450" rx="35.9954" ry="18"/>
<text text-anchor="middle" x="866.943" y="-446.3" font-family="Times,serif" font-size="14.00">Theme</text>
</g>
<!-- Theme&#45;&gt;User -->
<g id="edge68" class="edge"><title>Theme&#45;&gt;User</title>
<path fill="none" stroke="#a7b4ca" d="M886.721,-427.367C894.214,-419.172 902.76,-409.826 910.328,-401.548"/>
<ellipse fill="none" stroke="#a7b4ca" cx="883.846" cy="-430.513" rx="4.00002" ry="4.00002"/>
<polygon fill="#a7b4ca" stroke="#a7b4ca" points="910.47,-401.392 920.539,-397.048 913.844,-397.702 917.218,-394.011 917.218,-394.011 917.218,-394.011 913.844,-397.702 913.897,-390.975 910.47,-401.392 910.47,-401.392"/>
</g>
<!-- Concept&#45;&gt;Course -->
<g id="edge70" class="edge"><title>Concept&#45;&gt;Course</title>
<path fill="none" stroke="#7c054c" d="M396.342,-190.619C400.609,-268.646 415.271,-497.196 448.943,-684 454.758,-716.261 446.148,-729.143 464.943,-756 476.522,-772.547 495.087,-785.108 511.726,-793.838"/>
<polygon fill="#7c054c" stroke="#7c054c" points="396.32,-190.207 400.281,-179.982 396.054,-185.215 395.787,-180.222 395.787,-180.222 395.787,-180.222 396.054,-185.215 391.293,-180.462 396.32,-190.207 396.32,-190.207"/>
<polygon fill="#7c054c" stroke="#7c054c" points="511.756,-793.853 518.716,-802.327 516.235,-796.074 520.715,-798.295 520.715,-798.295 520.715,-798.295 516.235,-796.074 522.714,-794.264 511.756,-793.853 511.756,-793.853"/>
</g>
<!-- Concept&#45;&gt;Candidate -->
<g id="edge69" class="edge"><title>Concept&#45;&gt;Candidate</title>
<path fill="none" stroke="#396b67" d="M394.943,-135.64C394.943,-130.063 394.943,-124.132 394.943,-118.476"/>
<ellipse fill="none" stroke="#396b67" cx="394.943" cy="-139.697" rx="4" ry="4"/>
<polygon fill="#396b67" stroke="#396b67" points="394.943,-118.104 399.443,-108.104 394.943,-113.104 394.943,-108.104 394.943,-108.104 394.943,-108.104 394.943,-113.104 390.443,-108.104 394.943,-118.104 394.943,-118.104"/>
</g>
<!-- Narrative&#45;&gt;Behavior -->
<g id="edge72" class="edge"><title>Narrative&#45;&gt;Behavior</title>
<path fill="none" stroke="#a95b5f" d="M1271.05,-279.558C1270.14,-253.771 1268.74,-214.104 1267.84,-188.35"/>
<ellipse fill="none" stroke="#a95b5f" cx="1271.2" cy="-283.874" rx="4" ry="4"/>
<ellipse fill="#a95b5f" stroke="#a95b5f" cx="1267.69" cy="-184.187" rx="4" ry="4"/>
</g>
<!-- Narrative&#45;&gt;Week -->
<g id="edge71" class="edge"><title>Narrative&#45;&gt;Week</title>
<path fill="none" stroke="#fc4299" d="M1254.2,-282.003C1248.57,-274.707 1242.33,-266.619 1236.64,-259.238"/>
<ellipse fill="none" stroke="#fc4299" cx="1256.7" cy="-285.244" rx="4.00002" ry="4.00002"/>
<polygon fill="#fc4299" stroke="#fc4299" points="1236.38,-258.906 1233.84,-248.239 1233.33,-254.947 1230.28,-250.988 1230.28,-250.988 1230.28,-250.988 1233.33,-254.947 1226.71,-253.737 1236.38,-258.906 1236.38,-258.906"/>
</g>
<!-- Narrative&#45;&gt;Reaction -->
<g id="edge73" class="edge"><title>Narrative&#45;&gt;Reaction</title>
<path fill="none" stroke="#d844a8" d="M1231.72,-290.721C1212.73,-282.142 1191.16,-269.453 1176.94,-252 1145.17,-212.98 1159.39,-191.559 1142.94,-144 1139.94,-135.315 1136.46,-125.91 1133.26,-117.466"/>
<ellipse fill="none" stroke="#d844a8" cx="1235.45" cy="-292.335" rx="4.00002" ry="4.00002"/>
<polygon fill="#d844a8" stroke="#d844a8" points="1133.25,-117.436 1133.87,-106.487 1131.46,-112.767 1129.67,-108.098 1129.67,-108.098 1129.67,-108.098 1131.46,-112.767 1125.47,-109.708 1133.25,-117.436 1133.25,-117.436"/>
</g>
<!-- FactorPack -->
<g id="node34" class="node"><title>FactorPack</title>
<ellipse fill="none" stroke="black" cx="1374.94" cy="-810" rx="50.0912" ry="18"/>
<text text-anchor="middle" x="1374.94" y="-806.3" font-family="Times,serif" font-size="14.00">FactorPack</text>
</g>
<!-- FactorPack&#45;&gt;Project -->
<g id="edge75" class="edge"><title>FactorPack&#45;&gt;Project</title>
<path fill="none" stroke="#f4b5cb" d="M1353.74,-786.845C1346.23,-779 1337.76,-770.154 1330.17,-762.222"/>
<ellipse fill="none" stroke="#f4b5cb" cx="1356.64" cy="-789.875" rx="4.00002" ry="4.00002"/>
<polygon fill="#f4b5cb" stroke="#f4b5cb" points="1329.85,-761.89 1326.19,-751.554 1326.39,-758.278 1322.94,-754.666 1322.94,-754.666 1322.94,-754.666 1326.39,-758.278 1319.69,-757.777 1329.85,-761.89 1329.85,-761.89"/>
</g>
<!-- FactorPack&#45;&gt;Factor -->
<g id="edge74" class="edge"><title>FactorPack&#45;&gt;Factor</title>
<path fill="none" stroke="#b86aad" d="M1381.35,-783.778C1387.56,-758.634 1396.9,-718.846 1402.94,-684 1406.51,-663.42 1409.36,-639.968 1411.26,-622.306"/>
<ellipse fill="none" stroke="#b86aad" cx="1380.34" cy="-787.835" rx="4.00001" ry="4.00001"/>
<polygon fill="#b86aad" stroke="#b86aad" points="1411.29,-622.081 1416.8,-612.602 1411.81,-617.108 1412.33,-612.135 1412.33,-612.135 1412.33,-612.135 1411.81,-617.108 1407.85,-611.668 1411.29,-622.081 1411.29,-622.081"/>
</g>
<!-- BingoCell -->
<g id="node35" class="node"><title>BingoCell</title>
<ellipse fill="none" stroke="black" cx="289.943" cy="-162" rx="46.5926" ry="18"/>
<text text-anchor="middle" x="289.943" y="-158.3" font-family="Times,serif" font-size="14.00">BingoCell</text>
</g>
<!-- CipCode&#45;&gt;User -->
<g id="edge76" class="edge"><title>CipCode&#45;&gt;User</title>
<path fill="none" stroke="#21f43f" d="M808.75,-510.245C846.853,-500.021 898.079,-483.886 911.943,-468 926.669,-451.126 930.912,-425.652 931.767,-406.275"/>
<ellipse fill="none" stroke="#21f43f" cx="804.704" cy="-511.314" rx="4.00001" ry="4.00001"/>
<polygon fill="#21f43f" stroke="#21f43f" points="931.768,-406.229 936.437,-396.307 931.853,-401.23 931.938,-396.23 931.938,-396.23 931.938,-396.23 931.853,-401.23 927.439,-396.154 931.768,-406.229 931.768,-406.229"/>
</g>
<!-- Experience&#45;&gt;Reaction -->
<g id="edge77" class="edge"><title>Experience&#45;&gt;Reaction</title>
<path fill="none" stroke="#548188" d="M1151.57,-280.287C1148.82,-271.445 1145.95,-261.353 1143.94,-252 1133.95,-205.449 1128,-150.239 1125.11,-118.061"/>
<ellipse fill="none" stroke="#548188" cx="1152.82" cy="-284.19" rx="4.00001" ry="4.00001"/>
<polygon fill="#548188" stroke="#548188" points="1125.11,-118.039 1128.73,-107.688 1124.68,-113.058 1124.25,-108.077 1124.25,-108.077 1124.25,-108.077 1124.68,-113.058 1119.76,-108.465 1125.11,-118.039 1125.11,-118.039"/>
</g>
<!-- CandidateFeedback -->
<g id="node38" class="node"><title>CandidateFeedback</title>
<ellipse fill="none" stroke="black" cx="79.9429" cy="-162" rx="79.8859" ry="18"/>
<text text-anchor="middle" x="79.9429" y="-158.3" font-family="Times,serif" font-size="14.00">CandidateFeedback</text>
</g>
<!-- CandidateFeedback&#45;&gt;Candidate -->
<g id="edge78" class="edge"><title>CandidateFeedback&#45;&gt;Candidate</title>
<path fill="none" stroke="#56795c" d="M142.767,-147.039C202.491,-133.767 291.095,-114.077 345.816,-101.917"/>
<ellipse fill="none" stroke="#56795c" cx="138.716" cy="-147.939" rx="4.00001" ry="4.00001"/>
<polygon fill="#56795c" stroke="#56795c" points="345.863,-101.907 356.602,-104.13 350.744,-100.822 355.625,-99.7372 355.625,-99.7372 355.625,-99.7372 350.744,-100.822 354.649,-95.3444 345.863,-101.907 345.863,-101.907"/>
</g>
<!-- BingoBoard&#45;&gt;Concept -->
<g id="edge80" class="edge"><title>BingoBoard&#45;&gt;Concept</title>
<path fill="none" stroke="#fe0946" d="M335.581,-210.763C346.027,-202.358 357.887,-192.815 368.245,-184.481"/>
<polygon fill="#fe0946" stroke="#fe0946" points="335.476,-210.847 324.864,-213.61 331.58,-213.982 327.685,-217.116 327.685,-217.116 327.685,-217.116 331.58,-213.982 330.506,-220.622 335.476,-210.847 335.476,-210.847"/>
<polygon fill="#fe0946" stroke="#fe0946" points="368.383,-184.37 378.995,-181.607 372.278,-181.236 376.174,-178.101 376.174,-178.101 376.174,-178.101 372.278,-181.236 373.353,-174.595 368.383,-184.37 368.383,-184.37"/>
</g>
<!-- BingoBoard&#45;&gt;BingoCell -->
<g id="edge79" class="edge"><title>BingoBoard&#45;&gt;BingoCell</title>
<path fill="none" stroke="#03f7e6" d="M301.583,-208.267C300.096,-202.485 298.504,-196.291 296.989,-190.4"/>
<ellipse fill="none" stroke="#03f7e6" cx="302.589" cy="-212.181" rx="4.00001" ry="4.00001"/>
<polygon fill="#03f7e6" stroke="#03f7e6" points="296.876,-189.96 298.743,-179.155 295.63,-185.118 294.385,-180.275 294.385,-180.275 294.385,-180.275 295.63,-185.118 290.027,-181.396 296.876,-189.96 296.876,-189.96"/>
</g>
</g>
</svg>
