<?xml version="1.0" encoding="UTF-8" standalone="no"?>
<!DOCTYPE svg PUBLIC "-//W3C//DTD SVG 1.1//EN"
 "http://www.w3.org/Graphics/SVG/1.1/DTD/svg11.dtd">
<!-- Generated by graphviz version 7.0.6 (20230106.0513)
 -->
<!-- Title: models_diagram Pages: 1 -->
<svg width="2331pt" height="1223pt"
 viewBox="0.00 0.00 2331.00 1223.00" xmlns="http://www.w3.org/2000/svg" xmlns:xlink="http://www.w3.org/1999/xlink">
<g id="graph0" class="graph" transform="scale(1 1) rotate(0) translate(4 1219)">
<title>models_diagram</title>
<polygon fill="none" stroke="none" points="-4,4 -4,-1219 2327,-1219 2327,4 -4,4"/>
<!-- _diagram_info -->
<g id="node1" class="node">
<title>_diagram_info</title>
<text text-anchor="start" x="8" y="-1200.6" font-family="Times,serif" font-size="13.00">Models diagram</text>
<text text-anchor="start" x="8" y="-1186.6" font-family="Times,serif" font-size="13.00">Date: Jan 09 2023 &#45; 18:31</text>
<text text-anchor="start" x="8" y="-1172.6" font-family="Times,serif" font-size="13.00">Migration version: 20191028013641</text>
<text text-anchor="start" x="8" y="-1158.6" font-family="Times,serif" font-size="13.00">Generated by RailRoady 1.6.0</text>
<text text-anchor="start" x="8" y="-1144.6" font-family="Times,serif" font-size="13.00">http://railroady.prestonlee.com</text>
</g>
<!-- ApplicationRecord -->
<g id="node2" class="node">
<title>ApplicationRecord</title>
<ellipse fill="none" stroke="black" cx="309" cy="-1176" rx="77.19" ry="18"/>
<text text-anchor="middle" x="309" y="-1172.3" font-family="Times,serif" font-size="14.00">ApplicationRecord</text>
</g>
<!-- Assessment -->
<g id="node3" class="node">
<title>Assessment</title>
<ellipse fill="none" stroke="black" cx="457" cy="-1176" rx="52.79" ry="18"/>
<text text-anchor="middle" x="457" y="-1172.3" font-family="Times,serif" font-size="14.00">Assessment</text>
</g>
<!-- Course -->
<g id="node15" class="node">
<title>Course</title>
<ellipse fill="none" stroke="black" cx="1169" cy="-1082" rx="36" ry="18"/>
<text text-anchor="middle" x="1169" y="-1078.3" font-family="Times,serif" font-size="14.00">Course</text>
</g>
<!-- Assessment&#45;&gt;Course -->
<g id="edge2" class="edge">
<title>Assessment&#45;&gt;Course</title>
<path fill="none" stroke="#229418" d="M515.84,-1167.4C654.8,-1149.44 1000.88,-1104.72 1124.35,-1088.77"/>
<polygon fill="#229418" stroke="#229418" points="515.86,-1167.39 505.36,-1164.21 510.9,-1168.04 505.94,-1168.68 505.94,-1168.68 505.94,-1168.68 510.9,-1168.04 506.52,-1173.14 515.86,-1167.39 515.86,-1167.39"/>
<polygon fill="#229418" stroke="#229418" points="1124.31,-1088.77 1134.8,-1091.96 1129.27,-1088.13 1134.23,-1087.49 1134.23,-1087.49 1134.23,-1087.49 1129.27,-1088.13 1133.65,-1083.03 1124.31,-1088.77 1124.31,-1088.77"/>
</g>
<!-- Factor -->
<g id="node19" class="node">
<title>Factor</title>
<ellipse fill="none" stroke="black" cx="798" cy="-237" rx="33.29" ry="18"/>
<text text-anchor="middle" x="798" y="-233.3" font-family="Times,serif" font-size="14.00">Factor</text>
</g>
<!-- Assessment&#45;&gt;Factor -->
<g id="edge4" class="edge">
<title>Assessment&#45;&gt;Factor</title>
<path fill="none" stroke="#3b98bd" d="M428.41,-1153.55C418.35,-1147.1 406.64,-1140.75 395,-1137 324.9,-1114.42 68,-1156.65 68,-1083 68,-1083 68,-1083 68,-425.5 68,-282.74 598.38,-247.12 754.97,-239.72"/>
<polygon fill="#3b98bd" stroke="#3b98bd" points="428.13,-1153.36 433.92,-1162.67 432.28,-1156.15 436.43,-1158.94 436.43,-1158.94 436.43,-1158.94 432.28,-1156.15 438.94,-1155.2 428.13,-1153.36 428.13,-1153.36"/>
<polygon fill="#3b98bd" stroke="#3b98bd" points="754.75,-239.73 764.94,-243.77 759.74,-239.5 764.74,-239.27 764.74,-239.27 764.74,-239.27 759.74,-239.5 764.53,-234.78 754.75,-239.73 754.75,-239.73"/>
</g>
<!-- Group -->
<g id="node22" class="node">
<title>Group</title>
<ellipse fill="none" stroke="black" cx="1111" cy="-470" rx="33.29" ry="18"/>
<text text-anchor="middle" x="1111" y="-466.3" font-family="Times,serif" font-size="14.00">Group</text>
</g>
<!-- Assessment&#45;&gt;Group -->
<g id="edge6" class="edge">
<title>Assessment&#45;&gt;Group</title>
<path fill="none" stroke="#259915" d="M507.21,-1161.8C632.22,-1128.75 948.57,-1043.88 965,-1027 1003.36,-987.6 1083.89,-603.89 1105.54,-497.97"/>
<polygon fill="#259915" stroke="#259915" points="507.51,-1161.72 496.69,-1159.93 502.67,-1163 497.84,-1164.28 497.84,-1164.28 497.84,-1164.28 502.67,-1163 498.99,-1168.63 507.51,-1161.72 507.51,-1161.72"/>
<polygon fill="#259915" stroke="#259915" points="1105.51,-498.13 1111.92,-489.23 1106.51,-493.23 1107.51,-488.33 1107.51,-488.33 1107.51,-488.33 1106.51,-493.23 1103.1,-487.43 1105.51,-498.13 1105.51,-498.13"/>
</g>
<!-- Installment -->
<g id="node26" class="node">
<title>Installment</title>
<ellipse fill="none" stroke="black" cx="831" cy="-383" rx="50.89" ry="18"/>
<text text-anchor="middle" x="831" y="-379.3" font-family="Times,serif" font-size="14.00">Installment</text>
</g>
<!-- Assessment&#45;&gt;Installment -->
<g id="edge3" class="edge">
<title>Assessment&#45;&gt;Installment</title>
<path fill="none" stroke="#5ba7f9" d="M427.36,-1153.8C417.46,-1147.56 406.12,-1141.28 395,-1137 334.02,-1113.54 106,-1148.33 106,-1083 106,-1083 106,-1083 106,-579 106,-494.66 167.1,-478.99 247,-452 343.25,-419.49 642.93,-396.42 771.47,-387.77"/>
<polygon fill="#5ba7f9" stroke="#5ba7f9" points="427.27,-1153.74 433.18,-1162.98 431.45,-1156.48 435.64,-1159.21 435.64,-1159.21 435.64,-1159.21 431.45,-1156.48 438.1,-1155.44 427.27,-1153.74 427.27,-1153.74"/>
<polygon fill="#5ba7f9" stroke="#5ba7f9" points="771.18,-387.79 781.46,-391.61 776.17,-387.46 781.16,-387.12 781.16,-387.12 781.16,-387.12 776.17,-387.46 780.86,-382.63 771.18,-387.79 771.18,-387.79"/>
</g>
<!-- Project -->
<g id="node29" class="node">
<title>Project</title>
<ellipse fill="none" stroke="black" cx="1094" cy="-91" rx="36" ry="18"/>
<text text-anchor="middle" x="1094" y="-87.3" font-family="Times,serif" font-size="14.00">Project</text>
</g>
<!-- Assessment&#45;&gt;Project -->
<g id="edge1" class="edge">
<title>Assessment&#45;&gt;Project</title>
<path fill="none" stroke="#151417" d="M428.68,-1153.63C418.57,-1147.12 406.76,-1140.71 395,-1137 316.81,-1112.32 30,-1164.99 30,-1083 30,-1083 30,-1083 30,-163 30,-111.2 843.51,-95.7 1047.86,-92.63"/>
<polygon fill="#151417" stroke="#151417" points="428.44,-1153.47 434.22,-1162.79 432.59,-1156.27 436.73,-1159.06 436.73,-1159.06 436.73,-1159.06 432.59,-1156.27 439.25,-1155.33 428.44,-1153.47 428.44,-1153.47"/>
<polygon fill="#151417" stroke="#151417" points="1047.68,-92.63 1057.75,-96.98 1052.68,-92.56 1057.68,-92.48 1057.68,-92.48 1057.68,-92.48 1052.68,-92.56 1057.62,-87.98 1047.68,-92.63 1047.68,-92.63"/>
</g>
<!-- User -->
<g id="node37" class="node">
<title>User</title>
<ellipse fill="none" stroke="black" cx="1379" cy="-849" rx="27.1" ry="18"/>
<text text-anchor="middle" x="1379" y="-845.3" font-family="Times,serif" font-size="14.00">User</text>
</g>
<!-- Assessment&#45;&gt;User -->
<g id="edge5" class="edge">
<title>Assessment&#45;&gt;User</title>
<path fill="none" stroke="#ecab06" d="M518.77,-1171.7C592.02,-1166.37 717.03,-1152.78 819,-1119 902.04,-1091.49 918.04,-1072.09 993,-1027 1089.23,-969.11 1098.39,-928.32 1202,-885 1248.1,-865.73 1305.46,-856.88 1342.16,-852.95"/>
<polygon fill="#ecab06" stroke="#ecab06" points="519.2,-1171.67 508.91,-1167.88 514.21,-1172.02 509.22,-1172.37 509.22,-1172.37 509.22,-1172.37 514.21,-1172.02 509.54,-1176.85 519.2,-1171.67 519.2,-1171.67"/>
<polygon fill="#ecab06" stroke="#ecab06" points="1341.99,-852.97 1352.39,-856.45 1346.96,-852.47 1351.94,-851.97 1351.94,-851.97 1351.94,-851.97 1346.96,-852.47 1351.49,-847.5 1341.99,-852.97 1341.99,-852.97"/>
</g>
<!-- Behavior -->
<g id="node4" class="node">
<title>Behavior</title>
<ellipse fill="none" stroke="black" cx="2022" cy="-689" rx="42.79" ry="18"/>
<text text-anchor="middle" x="2022" y="-685.3" font-family="Times,serif" font-size="14.00">Behavior</text>
</g>
<!-- Diagnosis -->
<g id="node16" class="node">
<title>Diagnosis</title>
<ellipse fill="none" stroke="black" cx="2022" cy="-616" rx="46.29" ry="18"/>
<text text-anchor="middle" x="2022" y="-612.3" font-family="Times,serif" font-size="14.00">Diagnosis</text>
</g>
<!-- Behavior&#45;&gt;Diagnosis -->
<g id="edge9" class="edge">
<title>Behavior&#45;&gt;Diagnosis</title>
<path fill="none" stroke="#f68266" d="M2022,-661.05C2022,-655.38 2022,-649.4 2022,-643.74"/>
<polygon fill="#f68266" stroke="#f68266" points="2022,-660.81 2017.5,-670.81 2022,-665.81 2022,-670.81 2022,-670.81 2022,-670.81 2022,-665.81 2026.5,-670.81 2022,-660.81 2022,-660.81"/>
<polygon fill="#f68266" stroke="#f68266" points="2022,-644.03 2026.5,-634.03 2022,-639.03 2022,-634.03 2022,-634.03 2022,-634.03 2022,-639.03 2017.5,-634.03 2022,-644.03 2022,-644.03"/>
</g>
<!-- Reaction -->
<g id="node31" class="node">
<title>Reaction</title>
<ellipse fill="none" stroke="black" cx="1981" cy="-936" rx="42.49" ry="18"/>
<text text-anchor="middle" x="1981" y="-932.3" font-family="Times,serif" font-size="14.00">Reaction</text>
</g>
<!-- Behavior&#45;&gt;Reaction -->
<g id="edge8" class="edge">
<title>Behavior&#45;&gt;Reaction</title>
<path fill="none" stroke="#237c9e" d="M2017.48,-717.02C2009.58,-764.22 1993.36,-861.11 1985.49,-908.17"/>
<polygon fill="#237c9e" stroke="#237c9e" points="2017.47,-717.07 2023.56,-707.95 2018.29,-712.14 2019.12,-707.21 2019.12,-707.21 2019.12,-707.21 2018.29,-712.14 2014.68,-706.47 2017.47,-717.07 2017.47,-717.07"/>
<polygon fill="#237c9e" stroke="#237c9e" points="1985.53,-907.91 1979.44,-917.03 1984.71,-912.84 1983.88,-917.77 1983.88,-917.77 1983.88,-917.77 1984.71,-912.84 1988.32,-918.51 1985.53,-907.91 1985.53,-907.91"/>
</g>
<!-- Scenario -->
<g id="node33" class="node">
<title>Scenario</title>
<ellipse fill="none" stroke="black" cx="1916" cy="-616" rx="41.69" ry="18"/>
<text text-anchor="middle" x="1916" y="-612.3" font-family="Times,serif" font-size="14.00">Scenario</text>
</g>
<!-- Behavior&#45;&gt;Scenario -->
<g id="edge7" class="edge">
<title>Behavior&#45;&gt;Scenario</title>
<path fill="none" stroke="#20a2ed" d="M1991.96,-667.88C1977.58,-658.25 1960.41,-646.75 1946.03,-637.12"/>
<polygon fill="#20a2ed" stroke="#20a2ed" points="1991.73,-667.72 1997.53,-677.03 1995.88,-670.51 2000.04,-673.29 2000.04,-673.29 2000.04,-673.29 1995.88,-670.51 2002.54,-669.55 1991.73,-667.72 1991.73,-667.72"/>
<polygon fill="#20a2ed" stroke="#20a2ed" points="1946.24,-637.26 1940.44,-627.95 1942.09,-634.47 1937.94,-631.69 1937.94,-631.69 1937.94,-631.69 1942.09,-634.47 1935.43,-635.43 1946.24,-637.26 1946.24,-637.26"/>
</g>
<!-- BingoBoard -->
<g id="node5" class="node">
<title>BingoBoard</title>
<ellipse fill="none" stroke="black" cx="473" cy="-936" rx="53.89" ry="18"/>
<text text-anchor="middle" x="473" y="-932.3" font-family="Times,serif" font-size="14.00">BingoBoard</text>
</g>
<!-- BingoCell -->
<g id="node6" class="node">
<title>BingoCell</title>
<ellipse fill="none" stroke="black" cx="418" cy="-689" rx="46.59" ry="18"/>
<text text-anchor="middle" x="418" y="-685.3" font-family="Times,serif" font-size="14.00">BingoCell</text>
</g>
<!-- BingoBoard&#45;&gt;BingoCell -->
<g id="edge12" class="edge">
<title>BingoBoard&#45;&gt;BingoCell</title>
<path fill="none" stroke="#d5af2c" d="M448.55,-911.04C446,-907.55 443.71,-903.84 442,-900 414.79,-838.95 414.15,-758.47 416.05,-717.11"/>
<polygon fill="#d5af2c" stroke="#d5af2c" points="448.52,-910.99 451.4,-921.57 451.7,-914.85 454.88,-918.71 454.88,-918.71 454.88,-918.71 451.7,-914.85 458.35,-915.85 448.52,-910.99 448.52,-910.99"/>
<polygon fill="#d5af2c" stroke="#d5af2c" points="416.04,-717.22 421.08,-707.48 416.31,-712.23 416.58,-707.23 416.58,-707.23 416.58,-707.23 416.31,-712.23 412.09,-706.99 416.04,-717.22 416.04,-717.22"/>
</g>
<!-- BingoGame -->
<g id="node7" class="node">
<title>BingoGame</title>
<ellipse fill="none" stroke="black" cx="638" cy="-689" rx="53.89" ry="18"/>
<text text-anchor="middle" x="638" y="-685.3" font-family="Times,serif" font-size="14.00">BingoGame</text>
</g>
<!-- BingoBoard&#45;&gt;BingoGame -->
<g id="edge10" class="edge">
<title>BingoBoard&#45;&gt;BingoGame</title>
<path fill="none" stroke="#33ea25" d="M467.74,-908.22C464.77,-886.38 463.62,-855.28 475,-831 501.21,-775.09 561.36,-732.68 600.8,-709.59"/>
<polygon fill="#33ea25" stroke="#33ea25" points="467.7,-907.96 464.8,-918.54 468.47,-912.9 469.25,-917.84 469.25,-917.84 469.25,-917.84 468.47,-912.9 473.69,-917.14 467.7,-907.96 467.7,-907.96"/>
<polygon fill="#33ea25" stroke="#33ea25" points="600.69,-709.65 611.61,-708.59 605.03,-707.16 609.37,-704.68 609.37,-704.68 609.37,-704.68 605.03,-707.16 607.14,-700.77 600.69,-709.65 600.69,-709.65"/>
</g>
<!-- Concept -->
<g id="node12" class="node">
<title>Concept</title>
<ellipse fill="none" stroke="black" cx="296" cy="-470" rx="40.09" ry="18"/>
<text text-anchor="middle" x="296" y="-466.3" font-family="Times,serif" font-size="14.00">Concept</text>
</g>
<!-- BingoBoard&#45;&gt;Concept -->
<g id="edge15" class="edge">
<title>BingoBoard&#45;&gt;Concept</title>
<path fill="none" stroke="#c0f68b" d="M425.66,-919.51C334.61,-886.4 144,-799.59 144,-653 144,-653 144,-653 144,-542 144,-495.97 201.93,-479.71 246.27,-474.01"/>
<polygon fill="#c0f68b" stroke="#c0f68b" points="425.52,-919.46 433.42,-927.06 430.23,-921.14 434.94,-922.82 434.94,-922.82 434.94,-922.82 430.23,-921.14 436.45,-918.59 425.52,-919.46 425.52,-919.46"/>
<polygon fill="#c0f68b" stroke="#c0f68b" points="246.13,-474.03 256.58,-477.36 251.1,-473.46 256.06,-472.89 256.06,-472.89 256.06,-472.89 251.1,-473.46 255.55,-468.42 246.13,-474.03 246.13,-474.03"/>
</g>
<!-- BingoBoard&#45;&gt;User -->
<g id="edge11" class="edge">
<title>BingoBoard&#45;&gt;User</title>
<path fill="none" stroke="#5c4dbc" d="M534.07,-929.27C708.24,-912.93 1203.84,-866.43 1342.54,-853.42"/>
<polygon fill="#5c4dbc" stroke="#5c4dbc" points="534.26,-929.25 523.89,-925.71 529.28,-929.72 524.31,-930.19 524.31,-930.19 524.31,-930.19 529.28,-929.72 524.73,-934.67 534.26,-929.25 534.26,-929.25"/>
<polygon fill="#5c4dbc" stroke="#5c4dbc" points="1342.31,-853.44 1352.69,-856.99 1347.29,-852.98 1352.27,-852.51 1352.27,-852.51 1352.27,-852.51 1347.29,-852.98 1351.85,-848.03 1342.31,-853.44 1342.31,-853.44"/>
</g>
<!-- ActiveStorage::Attachment -->
<g id="node40" class="node">
<title>ActiveStorage::Attachment</title>
<ellipse fill="none" stroke="black" cx="591" cy="-849" rx="107.48" ry="18"/>
<text text-anchor="middle" x="591" y="-845.3" font-family="Times,serif" font-size="14.00">ActiveStorage::Attachment</text>
</g>
<!-- BingoBoard&#45;&gt;ActiveStorage::Attachment -->
<g id="edge13" class="edge">
<title>BingoBoard&#45;&gt;ActiveStorage::Attachment</title>
<path fill="none" stroke="#d5798e" d="M477.32,-908.22C479.83,-899.89 483.77,-891.26 490,-885 497.19,-877.77 505.94,-872.03 515.26,-867.48"/>
<polygon fill="#d5798e" stroke="#d5798e" points="477.38,-907.98 470.63,-916.62 476.19,-912.84 475,-917.69 475,-917.69 475,-917.69 476.19,-912.84 479.37,-918.76 477.38,-907.98 477.38,-907.98"/>
<polygon fill="#d5798e" stroke="#d5798e" points="515.19,-867.51 526.16,-867.58 519.76,-865.48 524.33,-863.46 524.33,-863.46 524.33,-863.46 519.76,-865.48 522.51,-859.35 515.19,-867.51 515.19,-867.51"/>
<text text-anchor="middle" x="553" y="-888.8" font-family="Times,serif" font-size="14.00">result_img_attachment</text>
</g>
<!-- ActiveStorage::Blob -->
<g id="node41" class="node">
<title>ActiveStorage::Blob</title>
<ellipse fill="none" stroke="black" cx="802" cy="-849" rx="83.39" ry="18"/>
<text text-anchor="middle" x="802" y="-845.3" font-family="Times,serif" font-size="14.00">ActiveStorage::Blob</text>
</g>
<!-- BingoBoard&#45;&gt;ActiveStorage::Blob -->
<g id="edge14" class="edge">
<title>BingoBoard&#45;&gt;ActiveStorage::Blob</title>
<path fill="none" stroke="#882881" d="M525.58,-922.43C552.64,-915.89 586.12,-907.67 616,-900 658.37,-889.12 706,-876.31 742.46,-866.37"/>
<polygon fill="#882881" stroke="#882881" points="525.65,-922.41 514.87,-920.39 520.79,-923.59 515.93,-924.76 515.93,-924.76 515.93,-924.76 520.79,-923.59 516.98,-929.14 525.65,-922.41 525.65,-922.41"/>
<polygon fill="#882881" stroke="#882881" points="742.3,-866.41 753.14,-868.12 747.13,-865.1 751.95,-863.78 751.95,-863.78 751.95,-863.78 747.13,-865.1 750.77,-859.44 742.3,-866.41 742.3,-866.41"/>
<text text-anchor="middle" x="718" y="-888.8" font-family="Times,serif" font-size="14.00">result_img_blob</text>
</g>
<!-- Candidate -->
<g id="node8" class="node">
<title>Candidate</title>
<ellipse fill="none" stroke="black" cx="498" cy="-616" rx="46.29" ry="18"/>
<text text-anchor="middle" x="498" y="-612.3" font-family="Times,serif" font-size="14.00">Candidate</text>
</g>
<!-- BingoCell&#45;&gt;Candidate -->
<g id="edge17" class="edge">
<title>BingoCell&#45;&gt;Candidate</title>
<path fill="none" stroke="#55f668" d="M442.91,-665.89C452.39,-657.48 463.2,-647.89 472.71,-639.44"/>
<polygon fill="#55f668" stroke="#55f668" points="443.23,-665.6 432.77,-668.88 439.49,-668.92 435.75,-672.24 435.75,-672.24 435.75,-672.24 439.49,-668.92 438.74,-675.61 443.23,-665.6 443.23,-665.6"/>
<polygon fill="#55f668" stroke="#55f668" points="472.54,-639.6 483.01,-636.32 476.28,-636.28 480.02,-632.96 480.02,-632.96 480.02,-632.96 476.28,-636.28 477.03,-629.59 472.54,-639.6 472.54,-639.6"/>
</g>
<!-- BingoCell&#45;&gt;Concept -->
<g id="edge16" class="edge">
<title>BingoCell&#45;&gt;Concept</title>
<path fill="none" stroke="#0baba7" d="M362.4,-684.32C317.29,-680.04 258.82,-671.1 244,-653 205.77,-606.32 249.13,-532.97 276.71,-495.23"/>
<polygon fill="#0baba7" stroke="#0baba7" points="362.13,-684.3 371.69,-689.67 367.11,-684.75 372.09,-685.19 372.09,-685.19 372.09,-685.19 367.11,-684.75 372.5,-680.71 362.13,-684.3 362.13,-684.3"/>
<polygon fill="#0baba7" stroke="#0baba7" points="276.65,-495.3 286.25,-490 279.65,-491.3 282.65,-487.3 282.65,-487.3 282.65,-487.3 279.65,-491.3 279.05,-484.6 276.65,-495.3 276.65,-495.3"/>
</g>
<!-- BingoGame&#45;&gt;Candidate -->
<g id="edge21" class="edge">
<title>BingoGame&#45;&gt;Candidate</title>
<path fill="none" stroke="#f7de91" d="M600.58,-669.02C579.9,-658.54 554.34,-645.57 533.91,-635.21"/>
<polygon fill="#f7de91" stroke="#f7de91" points="600.41,-668.94 607.3,-677.47 604.87,-671.2 609.33,-673.46 609.33,-673.46 609.33,-673.46 604.87,-671.2 611.37,-669.45 600.41,-668.94 600.41,-668.94"/>
<polygon fill="#f7de91" stroke="#f7de91" points="534.12,-635.32 527.24,-626.78 529.66,-633.06 525.2,-630.8 525.2,-630.8 525.2,-630.8 529.66,-633.06 523.17,-634.81 534.12,-635.32 534.12,-635.32"/>
</g>
<!-- CandidateList -->
<g id="node10" class="node">
<title>CandidateList</title>
<ellipse fill="none" stroke="black" cx="638" cy="-543" rx="59.59" ry="18"/>
<text text-anchor="middle" x="638" y="-539.3" font-family="Times,serif" font-size="14.00">CandidateList</text>
</g>
<!-- BingoGame&#45;&gt;CandidateList -->
<g id="edge19" class="edge">
<title>BingoGame&#45;&gt;CandidateList</title>
<path fill="none" stroke="#e4e843" d="M638,-660.68C638,-635.03 638,-596.87 638,-571.24"/>
<polygon fill="#e4e843" stroke="#e4e843" points="638,-660.63 633.5,-670.63 638,-665.63 638,-670.63 638,-670.63 638,-670.63 638,-665.63 642.5,-670.63 638,-660.63 638,-660.63"/>
<polygon fill="#e4e843" stroke="#e4e843" points="638,-571.43 642.5,-561.43 638,-566.43 638,-561.43 638,-561.43 638,-561.43 638,-566.43 633.5,-561.43 638,-571.43 638,-571.43"/>
</g>
<!-- BingoGame&#45;&gt;Concept -->
<g id="edge24" class="edge">
<title>BingoGame&#45;&gt;Concept</title>
<path fill="none" stroke="#a36a28" d="M576.5,-682.3C502.44,-671.88 380.35,-642.63 319,-561 305.35,-542.83 299.76,-517.4 297.49,-498.2"/>
<polygon fill="#a36a28" stroke="#a36a28" points="576.27,-682.27 585.58,-688.05 581.22,-682.93 586.18,-683.59 586.18,-683.59 586.18,-683.59 581.22,-682.93 586.78,-679.13 576.27,-682.27 576.27,-682.27"/>
<polygon fill="#a36a28" stroke="#a36a28" points="297.49,-498.22 301.02,-487.84 297.01,-493.24 296.54,-488.26 296.54,-488.26 296.54,-488.26 297.01,-493.24 292.06,-488.69 297.49,-498.22 297.49,-498.22"/>
</g>
<!-- BingoGame&#45;&gt;Course -->
<g id="edge18" class="edge">
<title>BingoGame&#45;&gt;Course</title>
<path fill="none" stroke="#68ea7d" d="M678.48,-708.18C730.66,-732.52 823.11,-778.74 894,-831 1004.81,-912.7 1009.93,-959.46 1117,-1046 1123.75,-1051.46 1131.35,-1056.91 1138.6,-1061.84"/>
<polygon fill="#68ea7d" stroke="#68ea7d" points="678.6,-708.24 671.42,-699.96 674.06,-706.14 669.53,-704.04 669.53,-704.04 669.53,-704.04 674.06,-706.14 667.64,-708.12 678.6,-708.24 678.6,-708.24"/>
<polygon fill="#68ea7d" stroke="#68ea7d" points="1138.56,-1061.81 1144.4,-1071.09 1142.73,-1064.58 1146.89,-1067.34 1146.89,-1067.34 1146.89,-1067.34 1142.73,-1064.58 1149.38,-1063.59 1138.56,-1061.81 1138.56,-1061.81"/>
</g>
<!-- BingoGame&#45;&gt;Group -->
<g id="edge23" class="edge">
<title>BingoGame&#45;&gt;Group</title>
<path fill="none" stroke="#cb3274" d="M700.32,-683.51C782.59,-674.94 928.93,-650.27 1031,-580 1047.47,-568.66 1077.45,-524.14 1095.67,-495.62"/>
<polygon fill="#cb3274" stroke="#cb3274" points="700.56,-683.49 690.16,-680 695.59,-683.99 690.61,-684.48 690.61,-684.48 690.61,-684.48 695.59,-683.99 691.06,-688.96 700.56,-683.49 700.56,-683.49"/>
<polygon fill="#cb3274" stroke="#cb3274" points="1095.56,-495.79 1104.71,-489.75 1098.24,-491.56 1100.91,-487.34 1100.91,-487.34 1100.91,-487.34 1098.24,-491.56 1097.11,-484.93 1095.56,-495.79 1095.56,-495.79"/>
</g>
<!-- BingoGame&#45;&gt;Project -->
<g id="edge20" class="edge">
<title>BingoGame&#45;&gt;Project</title>
<path fill="none" stroke="#859cfb" d="M582.23,-677.63C545.05,-670.7 495.09,-661.36 451,-653 271.02,-618.89 106,-610.68 106,-427.5 106,-427.5 106,-427.5 106,-163 106,-115.17 852.47,-96.85 1047.72,-92.87"/>
<polygon fill="#859cfb" stroke="#859cfb" points="582.05,-677.6 591.06,-683.85 586.96,-678.51 591.88,-679.43 591.88,-679.43 591.88,-679.43 586.96,-678.51 592.7,-675 582.05,-677.6 582.05,-677.6"/>
<polygon fill="#859cfb" stroke="#859cfb" points="1047.67,-92.87 1057.76,-97.17 1052.67,-92.77 1057.66,-92.67 1057.66,-92.67 1057.66,-92.67 1052.67,-92.77 1057.57,-88.17 1047.67,-92.87 1047.67,-92.87"/>
</g>
<!-- BingoGame&#45;&gt;User -->
<g id="edge22" class="edge">
<title>BingoGame&#45;&gt;User</title>
<path fill="none" stroke="#6d3af3" d="M701.26,-692.61C738.29,-696.38 784.91,-705.1 822,-725 870.19,-750.85 858.42,-789.93 908,-813 984.75,-848.71 1244.09,-849.59 1341.56,-848.59"/>
<polygon fill="#6d3af3" stroke="#6d3af3" points="701.53,-692.64 691.99,-687.24 696.55,-692.18 691.57,-691.72 691.57,-691.72 691.57,-691.72 696.55,-692.18 691.16,-696.2 701.53,-692.64 701.53,-692.64"/>
<polygon fill="#6d3af3" stroke="#6d3af3" points="1341.55,-848.59 1351.6,-852.97 1346.55,-848.53 1351.55,-848.47 1351.55,-848.47 1351.55,-848.47 1346.55,-848.53 1351.5,-843.97 1341.55,-848.59 1341.55,-848.59"/>
</g>
<!-- CandidateFeedback -->
<g id="node9" class="node">
<title>CandidateFeedback</title>
<ellipse fill="none" stroke="black" cx="442" cy="-543" rx="79.89" ry="18"/>
<text text-anchor="middle" x="442" y="-539.3" font-family="Times,serif" font-size="14.00">CandidateFeedback</text>
</g>
<!-- Candidate&#45;&gt;CandidateFeedback -->
<g id="edge26" class="edge">
<title>Candidate&#45;&gt;CandidateFeedback</title>
<path fill="none" stroke="#e2be01" d="M479.04,-590.96C473.31,-583.7 467.02,-575.72 461.28,-568.44"/>
<polygon fill="#e2be01" stroke="#e2be01" points="478.82,-590.68 481.48,-601.32 481.92,-594.61 485.01,-598.53 485.01,-598.53 485.01,-598.53 481.92,-594.61 488.54,-595.75 478.82,-590.68 478.82,-590.68"/>
<polygon fill="#e2be01" stroke="#e2be01" points="461.5,-568.72 458.84,-558.08 458.4,-564.8 455.31,-560.87 455.31,-560.87 455.31,-560.87 458.4,-564.8 451.77,-563.66 461.5,-568.72 461.5,-568.72"/>
</g>
<!-- Candidate&#45;&gt;CandidateList -->
<g id="edge25" class="edge">
<title>Candidate&#45;&gt;CandidateList</title>
<path fill="none" stroke="#1c5905" d="M534.13,-596.68C554.2,-586.5 579.16,-573.84 599.58,-563.48"/>
<polygon fill="#1c5905" stroke="#1c5905" points="534.24,-596.62 523.29,-597.13 529.79,-598.88 525.33,-601.14 525.33,-601.14 525.33,-601.14 529.79,-598.88 527.36,-605.16 534.24,-596.62 534.24,-596.62"/>
<polygon fill="#1c5905" stroke="#1c5905" points="599.4,-563.57 610.36,-563.06 603.86,-561.31 608.32,-559.05 608.32,-559.05 608.32,-559.05 603.86,-561.31 606.29,-555.04 599.4,-563.57 599.4,-563.57"/>
</g>
<!-- Candidate&#45;&gt;Concept -->
<g id="edge27" class="edge">
<title>Candidate&#45;&gt;Concept</title>
<path fill="none" stroke="#e7d171" d="M447.49,-604.77C417.57,-596.75 380.3,-583.14 353,-561 331.92,-543.9 316.27,-516.83 306.76,-496.84"/>
<polygon fill="#e7d171" stroke="#e7d171" points="447.23,-604.71 455.81,-611.54 452.08,-605.95 456.92,-607.18 456.92,-607.18 456.92,-607.18 452.08,-605.95 458.04,-602.82 447.23,-604.71 447.23,-604.71"/>
<polygon fill="#e7d171" stroke="#e7d171" points="306.85,-497.04 306.8,-486.08 304.78,-492.49 302.71,-487.94 302.71,-487.94 302.71,-487.94 304.78,-492.49 298.61,-489.81 306.85,-497.04 306.85,-497.04"/>
</g>
<!-- Candidate&#45;&gt;User -->
<g id="edge28" class="edge">
<title>Candidate&#45;&gt;User</title>
<path fill="none" stroke="#ee0073" d="M546.89,-628.29C588.31,-638.26 649.06,-653.85 701,-671 722.27,-678.03 828.52,-712.15 873,-744 909.3,-769.99 905.22,-794.84 946,-813 1016.32,-844.31 1249.81,-847.94 1341.54,-848.13"/>
<polygon fill="#ee0073" stroke="#ee0073" points="547.04,-628.33 538.36,-621.62 542.18,-627.16 537.32,-626 537.32,-626 537.32,-626 542.18,-627.16 536.27,-630.38 547.04,-628.33 547.04,-628.33"/>
<polygon fill="#ee0073" stroke="#ee0073" points="1341.5,-848.13 1351.49,-852.64 1346.5,-848.13 1351.5,-848.14 1351.5,-848.14 1351.5,-848.14 1346.5,-848.13 1351.5,-843.64 1341.5,-848.13 1341.5,-848.13"/>
</g>
<!-- CandidateList&#45;&gt;CandidateList -->
<g id="edge33" class="edge">
<title>CandidateList&#45;&gt;CandidateList</title>
<path fill="none" stroke="#f3aee8" d="M706.66,-545.63C712.29,-545.06 715.79,-544.19 715.79,-543 715.79,-541.81 712.29,-540.94 706.66,-540.37"/>
<polygon fill="#f3aee8" stroke="#f3aee8" points="707.01,-545.61 696.74,-541.76 702.02,-545.93 697.03,-546.25 697.03,-546.25 697.03,-546.25 702.02,-545.93 697.31,-550.74 707.01,-545.61 707.01,-545.61"/>
<polygon fill="#f3aee8" stroke="#f3aee8" points="707.01,-540.39 697.31,-535.26 702.02,-540.07 697.03,-539.75 697.03,-539.75 697.03,-539.75 702.02,-540.07 696.74,-544.24 707.01,-540.39 707.01,-540.39"/>
<text text-anchor="middle" x="776.29" y="-539.3" font-family="Times,serif" font-size="14.00">current_candidate_list</text>
</g>
<!-- CandidateList&#45;&gt;CandidateList -->
<g id="edge34" class="edge">
<title>CandidateList&#45;&gt;CandidateList</title>
<path fill="none" stroke="#fe3d0e" d="M704.63,-549.11C763.39,-551.09 836.79,-549.05 836.79,-543 836.79,-536.95 763.39,-534.91 704.63,-536.89"/>
<polygon fill="#fe3d0e" stroke="#fe3d0e" points="704.96,-549.13 695.14,-544.25 699.97,-548.94 694.97,-548.75 694.97,-548.75 694.97,-548.75 699.97,-548.94 694.8,-553.24 704.96,-549.13 704.96,-549.13"/>
<polygon fill="#fe3d0e" stroke="#fe3d0e" points="704.96,-536.87 694.8,-532.76 699.97,-537.06 694.97,-537.25 694.97,-537.25 694.97,-537.25 699.97,-537.06 695.14,-541.75 704.96,-536.87 704.96,-536.87"/>
<text text-anchor="middle" x="903.79" y="-539.3" font-family="Times,serif" font-size="14.00">archived_candidate_lists</text>
</g>
<!-- CandidateList&#45;&gt;Concept -->
<g id="edge31" class="edge">
<title>CandidateList&#45;&gt;Concept</title>
<path fill="none" stroke="#68bbd2" d="M602.67,-521.94C590.72,-515.94 577.09,-509.92 564,-506 489.95,-483.8 400.22,-475.68 345.66,-472.71"/>
<polygon fill="#68bbd2" stroke="#68bbd2" points="602.56,-521.88 609.37,-530.48 607,-524.18 611.44,-526.48 611.44,-526.48 611.44,-526.48 607,-524.18 613.51,-522.49 602.56,-521.88 602.56,-521.88"/>
<polygon fill="#68bbd2" stroke="#68bbd2" points="345.88,-472.72 336.12,-467.72 340.88,-472.46 335.89,-472.21 335.89,-472.21 335.89,-472.21 340.88,-472.46 335.66,-476.71 345.88,-472.72 345.88,-472.72"/>
</g>
<!-- CandidateList&#45;&gt;Course -->
<g id="edge32" class="edge">
<title>CandidateList&#45;&gt;Course</title>
<path fill="none" stroke="#4f4bb1" d="M664.3,-566.85C702.91,-600.64 776.87,-666.26 837,-725 876.94,-764.02 1035.66,-931.35 1090,-991 1110.34,-1013.32 1133.03,-1039.29 1148.85,-1057.58"/>
<polygon fill="#4f4bb1" stroke="#4f4bb1" points="664.6,-567.11 660.03,-557.14 660.83,-563.82 657.07,-560.53 657.07,-560.53 657.07,-560.53 660.83,-563.82 654.11,-563.92 664.6,-567.11 664.6,-567.11"/>
<polygon fill="#4f4bb1" stroke="#4f4bb1" points="1148.65,-1057.34 1151.79,-1067.85 1151.92,-1061.13 1155.19,-1064.91 1155.19,-1064.91 1155.19,-1064.91 1151.92,-1061.13 1158.6,-1061.97 1148.65,-1057.34 1148.65,-1057.34"/>
</g>
<!-- CandidateList&#45;&gt;Group -->
<g id="edge30" class="edge">
<title>CandidateList&#45;&gt;Group</title>
<path fill="none" stroke="#1290d2" d="M700.29,-532.65C798.24,-517.95 985.69,-489.81 1069.14,-477.28"/>
<polygon fill="#1290d2" stroke="#1290d2" points="700.32,-532.65 689.76,-529.68 695.37,-533.39 690.43,-534.13 690.43,-534.13 690.43,-534.13 695.37,-533.39 691.09,-538.58 700.32,-532.65 700.32,-532.65"/>
<polygon fill="#1290d2" stroke="#1290d2" points="1069.13,-477.28 1079.69,-480.25 1074.08,-476.54 1079.02,-475.8 1079.02,-475.8 1079.02,-475.8 1074.08,-476.54 1078.36,-471.35 1069.13,-477.28 1069.13,-477.28"/>
</g>
<!-- CandidateList&#45;&gt;User -->
<g id="edge29" class="edge">
<title>CandidateList&#45;&gt;User</title>
<path fill="none" stroke="#14b9b9" d="M707.07,-546.51C762.87,-550.04 842.87,-558.54 910,-579 1000.53,-606.59 1010.9,-647.35 1065,-725 1090.11,-761.04 1074.09,-787.7 1110,-813 1146.55,-838.75 1276.82,-845.55 1341.71,-847.35"/>
<polygon fill="#14b9b9" stroke="#14b9b9" points="707.28,-546.52 697.56,-541.43 702.29,-546.22 697.29,-545.92 697.29,-545.92 697.29,-545.92 702.29,-546.22 697.03,-550.41 707.28,-546.52 707.28,-546.52"/>
<polygon fill="#14b9b9" stroke="#14b9b9" points="1341.55,-847.35 1351.43,-852.1 1346.54,-847.48 1351.54,-847.6 1351.54,-847.6 1351.54,-847.6 1346.54,-847.48 1351.66,-843.1 1341.55,-847.35 1341.55,-847.35"/>
</g>
<!-- CipCode -->
<g id="node11" class="node">
<title>CipCode</title>
<ellipse fill="none" stroke="black" cx="1344" cy="-383" rx="42.49" ry="18"/>
<text text-anchor="middle" x="1344" y="-379.3" font-family="Times,serif" font-size="14.00">CipCode</text>
</g>
<!-- CipCode&#45;&gt;User -->
<g id="edge35" class="edge">
<title>CipCode&#45;&gt;User</title>
<path fill="none" stroke="#4630e2" d="M1313.14,-404.86C1309.03,-409.04 1305.41,-413.77 1303,-419 1300.21,-425.05 1302.3,-427.37 1303,-434 1317.75,-574.09 1347.56,-604.78 1369,-744 1372.99,-769.92 1375.66,-799.73 1377.23,-820.77"/>
<polygon fill="#4630e2" stroke="#4630e2" points="1312.94,-405.04 1323.39,-401.72 1316.66,-401.7 1320.38,-398.36 1320.38,-398.36 1320.38,-398.36 1316.66,-401.7 1317.38,-395.01 1312.94,-405.04 1312.94,-405.04"/>
<polygon fill="#4630e2" stroke="#4630e2" points="1377.23,-820.65 1373.45,-830.95 1377.58,-825.64 1377.94,-830.63 1377.94,-830.63 1377.94,-830.63 1377.58,-825.64 1382.43,-830.31 1377.23,-820.65 1377.23,-820.65"/>
</g>
<!-- Concept&#45;&gt;Course -->
<g id="edge36" class="edge">
<title>Concept&#45;&gt;Course</title>
<path fill="none" stroke="#b124ef" d="M258.89,-487.31C225.62,-504.74 182,-535.83 182,-579 182,-806.5 182,-806.5 182,-806.5 182,-927.19 294.46,-919.14 410,-954 594.49,-1009.67 657.48,-935.45 842,-991 874,-1000.63 876.63,-1015.49 908,-1027 981.25,-1053.88 1071.25,-1068.78 1124.15,-1075.82"/>
<polygon fill="#b124ef" stroke="#b124ef" points="258.59,-487.46 269.55,-486.98 263.06,-485.21 267.53,-482.96 267.53,-482.96 267.53,-482.96 263.06,-485.21 265.5,-478.94 258.59,-487.46 258.59,-487.46"/>
<polygon fill="#b124ef" stroke="#b124ef" points="1123.98,-1075.79 1133.32,-1081.54 1128.94,-1076.44 1133.9,-1077.08 1133.9,-1077.08 1133.9,-1077.08 1128.94,-1076.44 1134.48,-1072.62 1123.98,-1075.79 1123.98,-1075.79"/>
</g>
<!-- ConsentForm -->
<g id="node13" class="node">
<title>ConsentForm</title>
<ellipse fill="none" stroke="black" cx="1055" cy="-1176" rx="59.29" ry="18"/>
<text text-anchor="middle" x="1055" y="-1172.3" font-family="Times,serif" font-size="14.00">ConsentForm</text>
</g>
<!-- ConsentLog -->
<g id="node14" class="node">
<title>ConsentLog</title>
<ellipse fill="none" stroke="black" cx="2241" cy="-936" rx="53.89" ry="18"/>
<text text-anchor="middle" x="2241" y="-932.3" font-family="Times,serif" font-size="14.00">ConsentLog</text>
</g>
<!-- ConsentForm&#45;&gt;ConsentLog -->
<g id="edge40" class="edge">
<title>ConsentForm&#45;&gt;ConsentLog</title>
<path fill="none" stroke="#373727" d="M1086.47,-1154.06C1097.84,-1147.49 1111.07,-1140.93 1124,-1137 1347.88,-1068.98 1973.49,-1168.26 2173,-1046 2203.52,-1027.3 2222.5,-989.2 2232.41,-963.38"/>
<polygon fill="#373727" stroke="#373727" points="1086.75,-1153.89 1075.86,-1155.18 1082.46,-1156.47 1078.18,-1159.04 1078.18,-1159.04 1078.18,-1159.04 1082.46,-1156.47 1080.49,-1162.9 1086.75,-1153.89 1086.75,-1153.89"/>
<polygon fill="#373727" stroke="#373727" points="2232.35,-963.55 2240,-955.69 2234.06,-958.85 2235.77,-954.15 2235.77,-954.15 2235.77,-954.15 2234.06,-958.85 2231.55,-952.61 2232.35,-963.55 2232.35,-963.55"/>
</g>
<!-- ConsentForm&#45;&gt;Course -->
<g id="edge41" class="edge">
<title>ConsentForm&#45;&gt;Course</title>
<path fill="none" stroke="#cf6288" d="M1082.8,-1152.56C1101.25,-1137.68 1125.28,-1118.29 1143.28,-1103.76"/>
<polygon fill="#cf6288" stroke="#cf6288" points="1082.9,-1152.48 1072.29,-1155.26 1079.01,-1155.62 1075.12,-1158.76 1075.12,-1158.76 1075.12,-1158.76 1079.01,-1155.62 1077.94,-1162.27 1082.9,-1152.48 1082.9,-1152.48"/>
<polygon fill="#cf6288" stroke="#cf6288" points="1142.81,-1104.14 1153.42,-1101.36 1146.7,-1101 1150.59,-1097.86 1150.59,-1097.86 1150.59,-1097.86 1146.7,-1101 1147.76,-1094.36 1142.81,-1104.14 1142.81,-1104.14"/>
</g>
<!-- ConsentForm&#45;&gt;User -->
<g id="edge37" class="edge">
<title>ConsentForm&#45;&gt;User</title>
<path fill="none" stroke="#945aaa" d="M1052.47,-1148.07C1051.28,-1119.11 1054.06,-1073.43 1079,-1045 1165.57,-946.31 1273.52,-1052.77 1360,-954 1378.35,-933.04 1381.62,-900.39 1381.24,-877.26"/>
<polygon fill="#945aaa" stroke="#945aaa" points="1052.46,-1147.93 1048.56,-1158.18 1052.76,-1152.92 1053.05,-1157.91 1053.05,-1157.91 1053.05,-1157.91 1052.76,-1152.92 1057.55,-1157.65 1052.46,-1147.93 1052.46,-1147.93"/>
<polygon fill="#945aaa" stroke="#945aaa" points="1381.25,-877.38 1385.35,-867.21 1381.05,-872.38 1380.85,-867.39 1380.85,-867.39 1380.85,-867.39 1381.05,-872.38 1376.36,-867.57 1381.25,-877.38 1381.25,-877.38"/>
</g>
<!-- ConsentForm&#45;&gt;ActiveStorage::Attachment -->
<g id="edge38" class="edge">
<title>ConsentForm&#45;&gt;ActiveStorage::Attachment</title>
<path fill="none" stroke="#39fd8a" d="M1014.81,-1155.98C965.53,-1131.25 881.37,-1084.39 823,-1027 769.03,-973.94 790.72,-928.8 729,-885 715.52,-875.43 699.67,-868.48 683.6,-863.42"/>
<polygon fill="#39fd8a" stroke="#39fd8a" points="1014.63,-1155.89 1021.59,-1164.36 1019.11,-1158.11 1023.59,-1160.33 1023.59,-1160.33 1023.59,-1160.33 1019.11,-1158.11 1025.59,-1156.3 1014.63,-1155.89 1014.63,-1155.89"/>
<polygon fill="#39fd8a" stroke="#39fd8a" points="683.73,-863.46 675.39,-856.33 678.93,-862.06 674.13,-860.65 674.13,-860.65 674.13,-860.65 678.93,-862.06 672.87,-864.97 683.73,-863.46 683.73,-863.46"/>
<text text-anchor="middle" x="865.5" y="-1005.3" font-family="Times,serif" font-size="14.00">pdf_attachment</text>
</g>
<!-- ConsentForm&#45;&gt;ActiveStorage::Blob -->
<g id="edge39" class="edge">
<title>ConsentForm&#45;&gt;ActiveStorage::Blob</title>
<path fill="none" stroke="#b7152e" d="M1035.62,-1150.1C988.5,-1089.57 868.34,-935.22 821.3,-874.79"/>
<polygon fill="#b7152e" stroke="#b7152e" points="1035.61,-1150.09 1038.2,-1160.75 1038.68,-1154.04 1041.75,-1157.98 1041.75,-1157.98 1041.75,-1157.98 1038.68,-1154.04 1045.3,-1155.22 1035.61,-1150.09 1035.61,-1150.09"/>
<polygon fill="#b7152e" stroke="#b7152e" points="821.56,-875.13 818.97,-864.48 818.49,-871.18 815.42,-867.24 815.42,-867.24 815.42,-867.24 818.49,-871.18 811.87,-870 821.56,-875.13 821.56,-875.13"/>
<text text-anchor="middle" x="964.5" y="-1005.3" font-family="Times,serif" font-size="14.00">pdf_blob</text>
</g>
<!-- ConsentLog&#45;&gt;Project -->
<g id="edge43" class="edge">
<title>ConsentLog&#45;&gt;Project</title>
<path fill="none" stroke="#730349" d="M2244.35,-908.12C2246.15,-891.42 2248,-869.5 2248,-850 2248,-850 2248,-850 2248,-273 2248,-201.16 2210.7,-181.07 2148,-146 2059.23,-96.36 1331.62,-92.21 1140.07,-91.98"/>
<polygon fill="#730349" stroke="#730349" points="2244.38,-907.84 2238.78,-917.27 2243.82,-912.81 2243.25,-917.78 2243.25,-917.78 2243.25,-917.78 2243.82,-912.81 2247.72,-918.29 2244.38,-907.84 2244.38,-907.84"/>
<polygon fill="#730349" stroke="#730349" points="1140.31,-91.98 1130.31,-87.47 1135.31,-91.97 1130.31,-91.97 1130.31,-91.97 1130.31,-91.97 1135.31,-91.97 1130.3,-96.47 1140.31,-91.98 1140.31,-91.98"/>
</g>
<!-- ConsentLog&#45;&gt;User -->
<g id="edge42" class="edge">
<title>ConsentLog&#45;&gt;User</title>
<path fill="none" stroke="#6dfc05" d="M2179.75,-928.96C2012.09,-912.43 1549.23,-866.79 1415.58,-853.61"/>
<polygon fill="#6dfc05" stroke="#6dfc05" points="2179.71,-928.96 2189.22,-934.42 2184.68,-929.45 2189.66,-929.94 2189.66,-929.94 2189.66,-929.94 2184.68,-929.45 2190.1,-925.46 2179.71,-928.96 2179.71,-928.96"/>
<polygon fill="#6dfc05" stroke="#6dfc05" points="1415.77,-853.63 1406.26,-848.17 1410.79,-853.13 1405.81,-852.64 1405.81,-852.64 1405.81,-852.64 1410.79,-853.13 1405.37,-857.12 1415.77,-853.63 1415.77,-853.63"/>
</g>
<!-- Experience -->
<g id="node18" class="node">
<title>Experience</title>
<ellipse fill="none" stroke="black" cx="1860" cy="-1009" rx="50.09" ry="18"/>
<text text-anchor="middle" x="1860" y="-1005.3" font-family="Times,serif" font-size="14.00">Experience</text>
</g>
<!-- Course&#45;&gt;Experience -->
<g id="edge48" class="edge">
<title>Course&#45;&gt;Experience</title>
<path fill="none" stroke="#7b4582" d="M1214.91,-1080.63C1338.39,-1079.27 1675.51,-1073.12 1783,-1046 1797.65,-1042.3 1812.89,-1035.81 1825.92,-1029.34"/>
<polygon fill="#7b4582" stroke="#7b4582" points="1215.01,-1080.63 1204.96,-1076.23 1210.01,-1080.68 1205.01,-1080.73 1205.01,-1080.73 1205.01,-1080.73 1210.01,-1080.68 1205.06,-1085.23 1215.01,-1080.63 1215.01,-1080.63"/>
<polygon fill="#7b4582" stroke="#7b4582" points="1825.65,-1029.48 1836.6,-1028.9 1830.1,-1027.19 1834.55,-1024.9 1834.55,-1024.9 1834.55,-1024.9 1830.1,-1027.19 1832.49,-1020.9 1825.65,-1029.48 1825.65,-1029.48"/>
</g>
<!-- Course&#45;&gt;Project -->
<g id="edge45" class="edge">
<title>Course&#45;&gt;Project</title>
<path fill="none" stroke="#078a03" d="M1214.79,-1080.38C1355.01,-1077.88 1769,-1065.76 1769,-1010 1769,-1010 1769,-1010 1769,-804.5 1769,-753.61 1770,-740.89 1770,-690 1770,-690 1770,-690 1770,-163 1770,-99.55 1292.93,-92.6 1140.34,-92"/>
<polygon fill="#078a03" stroke="#078a03" points="1215.18,-1080.37 1205.1,-1076.04 1210.18,-1080.46 1205.18,-1080.54 1205.18,-1080.54 1205.18,-1080.54 1210.18,-1080.46 1205.26,-1085.04 1215.18,-1080.37 1215.18,-1080.37"/>
<polygon fill="#078a03" stroke="#078a03" points="1140.34,-92 1130.36,-87.47 1135.34,-91.98 1130.34,-91.97 1130.34,-91.97 1130.34,-91.97 1135.34,-91.98 1130.33,-96.47 1140.34,-92 1140.34,-92"/>
</g>
<!-- Roster -->
<g id="node32" class="node">
<title>Roster</title>
<ellipse fill="none" stroke="black" cx="2222" cy="-18" rx="33.6" ry="18"/>
<text text-anchor="middle" x="2222" y="-14.3" font-family="Times,serif" font-size="14.00">Roster</text>
</g>
<!-- Course&#45;&gt;Roster -->
<g id="edge46" class="edge">
<title>Course&#45;&gt;Roster</title>
<path fill="none" stroke="#247ef9" d="M1215.18,-1080.51C1385.18,-1078.41 1975.71,-1068.22 2159,-1027 2233.87,-1010.16 2323,-1049.74 2323,-973 2323,-973 2323,-973 2323,-90 2323,-58.61 2289.95,-39.9 2261.66,-29.63"/>
<polygon fill="#247ef9" stroke="#247ef9" points="1215.3,-1080.51 1205.24,-1076.13 1210.3,-1080.57 1205.3,-1080.63 1205.3,-1080.63 1205.3,-1080.63 1210.3,-1080.57 1205.35,-1085.13 1215.3,-1080.51 1215.3,-1080.51"/>
<polygon fill="#247ef9" stroke="#247ef9" points="2261.78,-29.67 2253.74,-22.21 2257.04,-28.07 2252.3,-26.47 2252.3,-26.47 2252.3,-26.47 2257.04,-28.07 2250.86,-30.73 2261.78,-29.67 2261.78,-29.67"/>
</g>
<!-- School -->
<g id="node34" class="node">
<title>School</title>
<ellipse fill="none" stroke="black" cx="2134" cy="-762" rx="35.19" ry="18"/>
<text text-anchor="middle" x="2134" y="-758.3" font-family="Times,serif" font-size="14.00">School</text>
</g>
<!-- Course&#45;&gt;School -->
<g id="edge44" class="edge">
<title>Course&#45;&gt;School</title>
<path fill="none" stroke="#f2f99d" d="M1215.05,-1080.14C1410.2,-1076.2 2159,-1057.96 2159,-1010 2159,-1010 2159,-1010 2159,-848 2159,-827.56 2152.26,-805.43 2145.78,-788.87"/>
<polygon fill="#f2f99d" stroke="#f2f99d" points="1215.11,-1080.14 1205.02,-1075.84 1210.11,-1080.24 1205.11,-1080.34 1205.11,-1080.34 1205.11,-1080.34 1210.11,-1080.24 1205.2,-1084.84 1215.11,-1080.14 1215.11,-1080.14"/>
<polygon fill="#f2f99d" stroke="#f2f99d" points="2145.86,-789.07 2146.21,-778.11 2143.95,-784.45 2142.05,-779.83 2142.05,-779.83 2142.05,-779.83 2143.95,-784.45 2137.89,-781.54 2145.86,-789.07 2145.86,-789.07"/>
</g>
<!-- Course&#45;&gt;User -->
<g id="edge47" class="edge">
<title>Course&#45;&gt;User</title>
<path fill="none" stroke="#747c2b" d="M1164.23,-1054.48C1159.49,-1019.32 1156.83,-957.15 1188,-918 1225.43,-870.99 1297.86,-856.44 1341.98,-851.96"/>
<polygon fill="#747c2b" stroke="#747c2b" points="1164.18,-1054.17 1161.21,-1064.73 1164.92,-1059.11 1165.66,-1064.06 1165.66,-1064.06 1165.66,-1064.06 1164.92,-1059.11 1170.11,-1063.39 1164.18,-1054.17 1164.18,-1054.17"/>
<polygon fill="#747c2b" stroke="#747c2b" points="1341.79,-851.98 1352.15,-855.57 1346.77,-851.53 1351.75,-851.09 1351.75,-851.09 1351.75,-851.09 1346.77,-851.53 1351.34,-846.61 1341.79,-851.98 1341.79,-851.98"/>
</g>
<!-- Diagnosis&#45;&gt;Reaction -->
<g id="edge49" class="edge">
<title>Diagnosis&#45;&gt;Reaction</title>
<path fill="none" stroke="#5daef8" d="M2050.7,-639.01C2059.95,-647.83 2069.08,-658.81 2074,-671 2079.98,-685.84 2076.88,-691.26 2074,-707 2057.51,-797.21 2040.09,-817.04 2001,-900 1999.52,-903.13 1997.87,-906.36 1996.16,-909.54"/>
<polygon fill="#5daef8" stroke="#5daef8" points="2050.78,-639.08 2046.33,-629.06 2047.05,-635.75 2043.33,-632.41 2043.33,-632.41 2043.33,-632.41 2047.05,-635.75 2040.33,-635.77 2050.78,-639.08 2050.78,-639.08"/>
<polygon fill="#5daef8" stroke="#5daef8" points="1996.2,-909.47 1987.39,-916 1993.76,-913.83 1991.32,-918.2 1991.32,-918.2 1991.32,-918.2 1993.76,-913.83 1995.24,-920.39 1996.2,-909.47 1996.2,-909.47"/>
</g>
<!-- Diagnosis&#45;&gt;User -->
<g id="edge51" class="edge">
<title>Diagnosis&#45;&gt;User</title>
<path fill="none" stroke="#d931c7" d="M1995.89,-639.68C1986.73,-648.7 1976.99,-659.63 1970,-671 1943.14,-714.71 1967.71,-743.17 1932,-780 1903.5,-809.39 1885.95,-804.04 1846,-813 1764.29,-831.32 1511.7,-842.82 1416.14,-846.61"/>
<polygon fill="#d931c7" stroke="#d931c7" points="1995.79,-639.77 2006.14,-636.16 1999.42,-636.33 2003.05,-632.89 2003.05,-632.89 2003.05,-632.89 1999.42,-636.33 1999.95,-629.63 1995.79,-639.77 1995.79,-639.77"/>
<polygon fill="#d931c7" stroke="#d931c7" points="1416.33,-846.61 1406.16,-842.5 1411.33,-846.8 1406.34,-847 1406.34,-847 1406.34,-847 1411.33,-846.8 1406.51,-851.49 1416.33,-846.61 1416.33,-846.61"/>
</g>
<!-- Week -->
<g id="node39" class="node">
<title>Week</title>
<ellipse fill="none" stroke="black" cx="2022" cy="-543" rx="31.4" ry="18"/>
<text text-anchor="middle" x="2022" y="-539.3" font-family="Times,serif" font-size="14.00">Week</text>
</g>
<!-- Diagnosis&#45;&gt;Week -->
<g id="edge50" class="edge">
<title>Diagnosis&#45;&gt;Week</title>
<path fill="none" stroke="#a5d673" d="M2022,-588.05C2022,-582.38 2022,-576.4 2022,-570.74"/>
<polygon fill="#a5d673" stroke="#a5d673" points="2022,-587.81 2017.5,-597.81 2022,-592.81 2022,-597.81 2022,-597.81 2022,-597.81 2022,-592.81 2026.5,-597.81 2022,-587.81 2022,-587.81"/>
<polygon fill="#a5d673" stroke="#a5d673" points="2022,-571.03 2026.5,-561.03 2022,-566.03 2022,-561.03 2022,-561.03 2022,-561.03 2022,-566.03 2017.5,-561.03 2022,-571.03 2022,-571.03"/>
</g>
<!-- Email -->
<g id="node17" class="node">
<title>Email</title>
<ellipse fill="none" stroke="black" cx="1229" cy="-936" rx="32.49" ry="18"/>
<text text-anchor="middle" x="1229" y="-932.3" font-family="Times,serif" font-size="14.00">Email</text>
</g>
<!-- Email&#45;&gt;User -->
<g id="edge52" class="edge">
<title>Email&#45;&gt;User</title>
<path fill="none" stroke="#56f681" d="M1259.82,-917.53C1286.29,-902.53 1324.17,-881.07 1350.08,-866.39"/>
<polygon fill="#56f681" stroke="#56f681" points="1259.83,-917.53 1248.91,-918.54 1255.48,-919.99 1251.13,-922.46 1251.13,-922.46 1251.13,-922.46 1255.48,-919.99 1253.35,-926.37 1259.83,-917.53 1259.83,-917.53"/>
<polygon fill="#56f681" stroke="#56f681" points="1350,-866.43 1360.92,-865.42 1354.35,-863.97 1358.7,-861.5 1358.7,-861.5 1358.7,-861.5 1354.35,-863.97 1356.48,-857.59 1350,-866.43 1350,-866.43"/>
</g>
<!-- Experience&#45;&gt;Reaction -->
<g id="edge53" class="edge">
<title>Experience&#45;&gt;Reaction</title>
<path fill="none" stroke="#12148d" d="M1893.91,-988.1C1910.98,-978.09 1931.58,-966 1948.46,-956.1"/>
<polygon fill="#12148d" stroke="#12148d" points="1893.99,-988.06 1883.09,-989.23 1889.68,-990.59 1885.37,-993.12 1885.37,-993.12 1885.37,-993.12 1889.68,-990.59 1887.64,-997 1893.99,-988.06 1893.99,-988.06"/>
<polygon fill="#12148d" stroke="#12148d" points="1948.28,-956.2 1959.18,-955.02 1952.59,-953.67 1956.9,-951.14 1956.9,-951.14 1956.9,-951.14 1952.59,-953.67 1954.63,-947.26 1948.28,-956.2 1948.28,-956.2"/>
</g>
<!-- FactorPack -->
<g id="node20" class="node">
<title>FactorPack</title>
<ellipse fill="none" stroke="black" cx="770" cy="-164" rx="50.09" ry="18"/>
<text text-anchor="middle" x="770" y="-160.3" font-family="Times,serif" font-size="14.00">FactorPack</text>
</g>
<!-- Factor&#45;&gt;FactorPack -->
<g id="edge54" class="edge">
<title>Factor&#45;&gt;FactorPack</title>
<path fill="none" stroke="#4efa4c" d="M787.74,-209.98C785.34,-203.9 782.79,-197.43 780.39,-191.34"/>
<polygon fill="#4efa4c" stroke="#4efa4c" points="787.7,-209.87 787.18,-220.82 789.53,-214.52 791.36,-219.17 791.36,-219.17 791.36,-219.17 789.53,-214.52 795.55,-217.52 787.7,-209.87 787.7,-209.87"/>
<polygon fill="#4efa4c" stroke="#4efa4c" points="780.45,-191.5 780.97,-180.55 778.62,-186.85 776.78,-182.2 776.78,-182.2 776.78,-182.2 778.62,-186.85 772.6,-183.85 780.45,-191.5 780.45,-191.5"/>
</g>
<!-- FactorPack&#45;&gt;Project -->
<g id="edge55" class="edge">
<title>FactorPack&#45;&gt;Project</title>
<path fill="none" stroke="#ab97d9" d="M800.93,-142.49C811.09,-136.62 822.69,-130.79 834,-127 906.22,-102.82 995.03,-95.29 1047.94,-92.98"/>
<polygon fill="#ab97d9" stroke="#ab97d9" points="800.99,-142.46 790.1,-143.75 796.7,-145.03 792.42,-147.61 792.42,-147.61 792.42,-147.61 796.7,-145.03 794.74,-151.47 800.99,-142.46 800.99,-142.46"/>
<polygon fill="#ab97d9" stroke="#ab97d9" points="1047.72,-92.99 1057.89,-97.1 1052.71,-92.8 1057.71,-92.6 1057.71,-92.6 1057.71,-92.6 1052.71,-92.8 1057.53,-88.1 1047.72,-92.99 1047.72,-92.99"/>
</g>
<!-- Gender -->
<g id="node21" class="node">
<title>Gender</title>
<ellipse fill="none" stroke="black" cx="1441" cy="-383" rx="36.29" ry="18"/>
<text text-anchor="middle" x="1441" y="-379.3" font-family="Times,serif" font-size="14.00">Gender</text>
</g>
<!-- Gender&#45;&gt;User -->
<g id="edge56" class="edge">
<title>Gender&#45;&gt;User</title>
<path fill="none" stroke="#88ce61" d="M1439.19,-411.26C1434.35,-479.49 1419.34,-662.92 1389,-813 1388.44,-815.79 1387.76,-818.68 1387.03,-821.54"/>
<polygon fill="#88ce61" stroke="#88ce61" points="1439.19,-411.3 1444.37,-401.63 1439.54,-406.31 1439.89,-401.32 1439.89,-401.32 1439.89,-401.32 1439.54,-406.31 1435.4,-401.01 1439.19,-411.3 1439.19,-411.3"/>
<polygon fill="#88ce61" stroke="#88ce61" points="1387.07,-821.4 1380.09,-829.85 1385.75,-826.22 1384.43,-831.04 1384.43,-831.04 1384.43,-831.04 1385.75,-826.22 1388.77,-832.23 1387.07,-821.4 1387.07,-821.4"/>
</g>
<!-- Group&#45;&gt;CipCode -->
<g id="edge63" class="edge">
<title>Group&#45;&gt;CipCode</title>
<path fill="none" stroke="#c91130" d="M1145.4,-454.24C1170.12,-443.85 1204.36,-429.91 1235,-419 1260.43,-409.95 1267.31,-409.27 1293,-401 1295.98,-400.04 1299.05,-399.04 1302.14,-398.03"/>
<polygon fill="#c91130" stroke="#c91130" points="1145.62,-454.15 1134.66,-453.89 1141.02,-456.09 1136.41,-458.04 1136.41,-458.04 1136.41,-458.04 1141.02,-456.09 1138.16,-462.18 1145.62,-454.15 1145.62,-454.15"/>
<polygon fill="#c91130" stroke="#c91130" points="1301.89,-398.11 1312.79,-399.26 1306.64,-396.55 1311.38,-394.98 1311.38,-394.98 1311.38,-394.98 1306.64,-396.55 1309.98,-390.71 1301.89,-398.11 1301.89,-398.11"/>
</g>
<!-- Group&#45;&gt;Gender -->
<g id="edge64" class="edge">
<title>Group&#45;&gt;Gender</title>
<path fill="none" stroke="#b55573" d="M1149.16,-458.05C1187.19,-447.33 1247.36,-430.93 1300,-419 1341.91,-409.5 1353.59,-412.49 1395,-401 1398.04,-400.16 1401.15,-399.2 1404.27,-398.19"/>
<polygon fill="#b55573" stroke="#b55573" points="1149.6,-457.92 1138.76,-456.31 1144.79,-459.28 1139.98,-460.64 1139.98,-460.64 1139.98,-460.64 1144.79,-459.28 1141.21,-464.97 1149.6,-457.92 1149.6,-457.92"/>
<polygon fill="#b55573" stroke="#b55573" points="1404.06,-398.26 1414.98,-399.26 1408.79,-396.63 1413.51,-395.01 1413.51,-395.01 1413.51,-395.01 1408.79,-396.63 1412.05,-390.75 1404.06,-398.26 1404.06,-398.26"/>
</g>
<!-- GroupRevision -->
<g id="node23" class="node">
<title>GroupRevision</title>
<ellipse fill="none" stroke="black" cx="1002" cy="-383" rx="64.19" ry="18"/>
<text text-anchor="middle" x="1002" y="-379.3" font-family="Times,serif" font-size="14.00">GroupRevision</text>
</g>
<!-- Group&#45;&gt;GroupRevision -->
<g id="edge59" class="edge">
<title>Group&#45;&gt;GroupRevision</title>
<path fill="none" stroke="#9e4dc2" d="M1088.21,-447.29C1078.29,-438.2 1066.36,-427.75 1055,-419 1048.92,-414.32 1042.23,-409.59 1035.7,-405.2"/>
<polygon fill="#9e4dc2" stroke="#9e4dc2" points="1088.02,-447.12 1092.3,-457.22 1091.69,-450.52 1095.36,-453.92 1095.36,-453.92 1095.36,-453.92 1091.69,-450.52 1098.42,-450.62 1088.02,-447.12 1088.02,-447.12"/>
<polygon fill="#9e4dc2" stroke="#9e4dc2" points="1035.93,-405.35 1030.08,-396.08 1031.76,-402.59 1027.59,-399.83 1027.59,-399.83 1027.59,-399.83 1031.76,-402.59 1025.11,-403.58 1035.93,-405.35 1035.93,-405.35"/>
</g>
<!-- HomeCountry -->
<g id="node24" class="node">
<title>HomeCountry</title>
<ellipse fill="none" stroke="black" cx="1222" cy="-383" rx="61.99" ry="18"/>
<text text-anchor="middle" x="1222" y="-379.3" font-family="Times,serif" font-size="14.00">HomeCountry</text>
</g>
<!-- Group&#45;&gt;HomeCountry -->
<g id="edge62" class="edge">
<title>Group&#45;&gt;HomeCountry</title>
<path fill="none" stroke="#e07bb4" d="M1135.38,-447.8C1146.12,-438.7 1159,-428.09 1171,-419 1177.02,-414.44 1183.58,-409.75 1189.93,-405.34"/>
<polygon fill="#e07bb4" stroke="#e07bb4" points="1135.59,-447.63 1125.06,-450.7 1131.78,-450.88 1127.98,-454.12 1127.98,-454.12 1127.98,-454.12 1131.78,-450.88 1130.91,-457.55 1135.59,-447.63 1135.59,-447.63"/>
<polygon fill="#e07bb4" stroke="#e07bb4" points="1189.56,-405.59 1200.35,-403.64 1193.68,-402.76 1197.8,-399.93 1197.8,-399.93 1197.8,-399.93 1193.68,-402.76 1195.26,-396.22 1189.56,-405.59 1189.56,-405.59"/>
</g>
<!-- HomeState -->
<g id="node25" class="node">
<title>HomeState</title>
<ellipse fill="none" stroke="black" cx="1222" cy="-310" rx="50.09" ry="18"/>
<text text-anchor="middle" x="1222" y="-306.3" font-family="Times,serif" font-size="14.00">HomeState</text>
</g>
<!-- Group&#45;&gt;HomeState -->
<g id="edge61" class="edge">
<title>Group&#45;&gt;HomeState</title>
<path fill="none" stroke="#45a10e" d="M1116.93,-442.22C1122.84,-419.93 1133.58,-388.21 1151,-365 1160.91,-351.79 1174.89,-340.22 1187.82,-331.21"/>
<polygon fill="#45a10e" stroke="#45a10e" points="1116.98,-442.03 1110.19,-450.64 1115.77,-446.88 1114.55,-451.73 1114.55,-451.73 1114.55,-451.73 1115.77,-446.88 1118.92,-452.83 1116.98,-442.03 1116.98,-442.03"/>
<polygon fill="#45a10e" stroke="#45a10e" points="1187.8,-331.22 1198.61,-329.41 1191.96,-328.44 1196.11,-325.67 1196.11,-325.67 1196.11,-325.67 1191.96,-328.44 1193.61,-321.92 1187.8,-331.22 1187.8,-331.22"/>
</g>
<!-- Group&#45;&gt;Installment -->
<g id="edge60" class="edge">
<title>Group&#45;&gt;Installment</title>
<path fill="none" stroke="#87e416" d="M1080.12,-451.42C1060.11,-440.68 1033.17,-427.44 1008,-419 985.82,-411.56 929.27,-400.89 886,-393.29"/>
<polygon fill="#87e416" stroke="#87e416" points="1080.02,-451.36 1086.64,-460.1 1084.41,-453.75 1088.8,-456.15 1088.8,-456.15 1088.8,-456.15 1084.41,-453.75 1090.95,-452.2 1080.02,-451.36 1080.02,-451.36"/>
<polygon fill="#87e416" stroke="#87e416" points="886.01,-393.29 876.93,-387.14 881.08,-392.43 876.16,-391.57 876.16,-391.57 876.16,-391.57 881.08,-392.43 875.38,-396 886.01,-393.29 886.01,-393.29"/>
</g>
<!-- Language -->
<g id="node27" class="node">
<title>Language</title>
<ellipse fill="none" stroke="black" cx="1578" cy="-383" rx="45.49" ry="18"/>
<text text-anchor="middle" x="1578" y="-379.3" font-family="Times,serif" font-size="14.00">Language</text>
</g>
<!-- Group&#45;&gt;Language -->
<g id="edge65" class="edge">
<title>Group&#45;&gt;Language</title>
<path fill="none" stroke="#71cd8b" d="M1151.64,-460.96C1203.43,-450.79 1295.75,-432.93 1375,-419 1424.22,-410.35 1436.76,-409.54 1486,-401 1499.65,-398.63 1514.42,-395.96 1528.04,-393.44"/>
<polygon fill="#71cd8b" stroke="#71cd8b" points="1151.65,-460.96 1140.97,-458.47 1146.75,-461.92 1141.84,-462.89 1141.84,-462.89 1141.84,-462.89 1146.75,-461.92 1142.71,-467.3 1151.65,-460.96 1151.65,-460.96"/>
<polygon fill="#71cd8b" stroke="#71cd8b" points="1527.9,-393.46 1538.55,-396.06 1532.81,-392.55 1537.73,-391.64 1537.73,-391.64 1537.73,-391.64 1532.81,-392.55 1536.91,-387.21 1527.9,-393.46 1527.9,-393.46"/>
<text text-anchor="middle" x="1427.5" y="-422.8" font-family="Times,serif" font-size="14.00">primary_languages</text>
</g>
<!-- Group&#45;&gt;Project -->
<g id="edge57" class="edge">
<title>Group&#45;&gt;Project</title>
<path fill="none" stroke="#635497" d="M1102.87,-442.35C1098.5,-425.73 1094,-403.82 1094,-384 1094,-384 1094,-384 1094,-163 1094,-148.51 1094,-132.35 1094,-119.12"/>
<polygon fill="#635497" stroke="#635497" points="1102.85,-442.31 1101.19,-453.15 1104.19,-447.13 1105.53,-451.94 1105.53,-451.94 1105.53,-451.94 1104.19,-447.13 1109.86,-450.74 1102.85,-442.31 1102.85,-442.31"/>
<polygon fill="#635497" stroke="#635497" points="1094,-119.22 1098.5,-109.22 1094,-114.22 1094,-109.22 1094,-109.22 1094,-109.22 1094,-114.22 1089.5,-109.22 1094,-119.22 1094,-119.22"/>
</g>
<!-- Group&#45;&gt;User -->
<g id="edge58" class="edge">
<title>Group&#45;&gt;User</title>
<path fill="none" stroke="#73295b" d="M1139.22,-490.55C1153.98,-503.24 1169,-521.26 1169,-542 1169,-653 1169,-653 1169,-653 1169,-724.51 1137.33,-760.61 1186,-813 1206.65,-835.23 1292.09,-843.47 1342.1,-846.43"/>
<polygon fill="#73295b" stroke="#73295b" points="1139.39,-490.69 1134.44,-480.9 1135.5,-487.55 1131.61,-484.41 1131.61,-484.41 1131.61,-484.41 1135.5,-487.55 1128.79,-487.91 1139.39,-490.69 1139.39,-490.69"/>
<polygon fill="#73295b" stroke="#73295b" points="1341.91,-846.42 1351.65,-851.46 1346.9,-846.69 1351.9,-846.97 1351.9,-846.97 1351.9,-846.97 1346.9,-846.69 1352.14,-842.47 1341.91,-846.42 1341.91,-846.42"/>
</g>
<!-- HomeCountry&#45;&gt;HomeState -->
<g id="edge67" class="edge">
<title>HomeCountry&#45;&gt;HomeState</title>
<path fill="none" stroke="#516699" d="M1222,-355.05C1222,-349.38 1222,-343.4 1222,-337.74"/>
<polygon fill="#516699" stroke="#516699" points="1222,-354.81 1217.5,-364.81 1222,-359.81 1222,-364.81 1222,-364.81 1222,-364.81 1222,-359.81 1226.5,-364.81 1222,-354.81 1222,-354.81"/>
<polygon fill="#516699" stroke="#516699" points="1222,-338.03 1226.5,-328.03 1222,-333.03 1222,-328.03 1222,-328.03 1222,-328.03 1222,-333.03 1217.5,-328.03 1222,-338.03 1222,-338.03"/>
</g>
<!-- HomeCountry&#45;&gt;User -->
<g id="edge66" class="edge">
<title>HomeCountry&#45;&gt;User</title>
<path fill="none" stroke="#c2d759" d="M1214.75,-411.02C1210.92,-427.62 1207,-449.39 1207,-469 1207,-653 1207,-653 1207,-653 1207,-709.7 1185.53,-734.24 1219,-780 1248.12,-819.8 1305.25,-836.5 1342.77,-843.37"/>
<polygon fill="#c2d759" stroke="#c2d759" points="1214.72,-411.14 1221.46,-402.49 1215.91,-406.28 1217.09,-401.42 1217.09,-401.42 1217.09,-401.42 1215.91,-406.28 1212.72,-400.36 1214.72,-411.14 1214.72,-411.14"/>
<polygon fill="#c2d759" stroke="#c2d759" points="1342.46,-843.32 1351.57,-849.42 1347.39,-844.15 1352.32,-844.98 1352.32,-844.98 1352.32,-844.98 1347.39,-844.15 1353.08,-840.55 1342.46,-843.32 1342.46,-843.32"/>
</g>
<!-- HomeState&#45;&gt;User -->
<g id="edge68" class="edge">
<title>HomeState&#45;&gt;User</title>
<path fill="none" stroke="#877f39" d="M1280.8,-314.59C1350.55,-320.22 1460.61,-333.89 1486,-365 1496.12,-377.4 1487.54,-385.07 1486,-401 1477.74,-486.41 1430.34,-696.17 1412,-780 1408.78,-794.74 1410.28,-799.28 1404,-813 1402.17,-817 1399.85,-821.02 1397.38,-824.83"/>
<polygon fill="#877f39" stroke="#877f39" points="1281.21,-314.62 1271.58,-309.36 1276.22,-314.24 1271.24,-313.85 1271.24,-313.85 1271.24,-313.85 1276.22,-314.24 1270.89,-318.34 1281.21,-314.62 1281.21,-314.62"/>
<polygon fill="#877f39" stroke="#877f39" points="1397.56,-824.57 1388.13,-830.18 1394.69,-828.67 1391.82,-832.76 1391.82,-832.76 1391.82,-832.76 1394.69,-828.67 1395.5,-835.34 1397.56,-824.57 1397.56,-824.57"/>
</g>
<!-- Installment&#45;&gt;User -->
<g id="edge69" class="edge">
<title>Installment&#45;&gt;User</title>
<path fill="none" stroke="#8f5cea" d="M865.09,-404.06C903.02,-428.11 963.51,-471.9 998,-525 1062.28,-623.97 1025.78,-671.42 1072,-780 1078.63,-795.57 1076.89,-803.66 1091,-813 1131.35,-839.71 1273.36,-846.04 1341.71,-847.54"/>
<polygon fill="#8f5cea" stroke="#8f5cea" points="865.37,-404.24 859.27,-395.13 861.13,-401.59 856.89,-398.95 856.89,-398.95 856.89,-398.95 861.13,-401.59 854.51,-402.76 865.37,-404.24 865.37,-404.24"/>
<polygon fill="#8f5cea" stroke="#8f5cea" points="1341.63,-847.54 1351.54,-852.23 1346.63,-847.63 1351.63,-847.73 1351.63,-847.73 1351.63,-847.73 1346.63,-847.63 1351.71,-843.23 1341.63,-847.54 1341.63,-847.54"/>
</g>
<!-- Value -->
<g id="node38" class="node">
<title>Value</title>
<ellipse fill="none" stroke="black" cx="827" cy="-310" rx="30.59" ry="18"/>
<text text-anchor="middle" x="827" y="-306.3" font-family="Times,serif" font-size="14.00">Value</text>
</g>
<!-- Installment&#45;&gt;Value -->
<g id="edge70" class="edge">
<title>Installment&#45;&gt;Value</title>
<path fill="none" stroke="#e04f8c" d="M829.48,-355.05C829.16,-349.38 828.83,-343.4 828.51,-337.74"/>
<polygon fill="#e04f8c" stroke="#e04f8c" points="829.47,-354.83 825.54,-365.07 829.75,-359.82 830.03,-364.81 830.03,-364.81 830.03,-364.81 829.75,-359.82 834.52,-364.56 829.47,-354.83 829.47,-354.83"/>
<polygon fill="#e04f8c" stroke="#e04f8c" points="828.52,-338.01 832.45,-327.78 828.24,-333.02 827.96,-328.03 827.96,-328.03 827.96,-328.03 828.24,-333.02 823.47,-328.28 828.52,-338.01 828.52,-338.01"/>
</g>
<!-- Language&#45;&gt;User -->
<g id="edge71" class="edge">
<title>Language&#45;&gt;User</title>
<path fill="none" stroke="#fe0504" d="M1542.24,-402.43C1519.38,-417.02 1494,-439.8 1494,-469 1494,-580 1494,-580 1494,-580 1494,-683.8 1540.8,-730.35 1478,-813 1463.37,-832.26 1437.31,-840.96 1415.6,-844.87"/>
<polygon fill="#fe0504" stroke="#fe0504" points="1541.94,-402.6 1552.83,-401.27 1546.22,-400.01 1550.5,-397.42 1550.5,-397.42 1550.5,-397.42 1546.22,-400.01 1548.16,-393.57 1541.94,-402.6 1541.94,-402.6"/>
<polygon fill="#fe0504" stroke="#fe0504" points="1415.87,-844.82 1405.3,-841.9 1410.93,-845.59 1405.99,-846.35 1405.99,-846.35 1405.99,-846.35 1410.93,-845.59 1406.67,-850.79 1415.87,-844.82 1415.87,-844.82"/>
</g>
<!-- Language&#45;&gt;User -->
<g id="edge72" class="edge">
<title>Language&#45;&gt;User</title>
<path fill="none" stroke="#3cd359" d="M1560.18,-409.01C1550.3,-425.29 1540,-447.45 1540,-469 1540,-763 1540,-763 1540,-763 1540,-818.92 1463.11,-838.14 1415.6,-844.69"/>
<polygon fill="#3cd359" stroke="#3cd359" points="1560.17,-409.03 1569.35,-403.03 1562.86,-404.82 1565.56,-400.6 1565.56,-400.6 1565.56,-400.6 1562.86,-404.82 1561.77,-398.18 1560.17,-409.03 1560.17,-409.03"/>
<polygon fill="#3cd359" stroke="#3cd359" points="1415.87,-844.65 1405.39,-841.43 1410.91,-845.28 1405.95,-845.9 1405.95,-845.9 1405.95,-845.9 1410.91,-845.28 1406.51,-850.36 1415.87,-844.65 1415.87,-844.65"/>
<text text-anchor="middle" x="1573" y="-612.3" font-family="Times,serif" font-size="14.00">home_users</text>
</g>
<!-- Narrative -->
<g id="node28" class="node">
<title>Narrative</title>
<ellipse fill="none" stroke="black" cx="1879" cy="-762" rx="44.39" ry="18"/>
<text text-anchor="middle" x="1879" y="-758.3" font-family="Times,serif" font-size="14.00">Narrative</text>
</g>
<!-- Narrative&#45;&gt;Behavior -->
<g id="edge75" class="edge">
<title>Narrative&#45;&gt;Behavior</title>
<path fill="none" stroke="#d98561" d="M1915.05,-743.1C1936.9,-732.25 1964.66,-718.47 1986.43,-707.66"/>
<polygon fill="#d98561" stroke="#d98561" points="1915.19,-743.03 1904.23,-743.45 1910.71,-745.25 1906.23,-747.48 1906.23,-747.48 1906.23,-747.48 1910.71,-745.25 1908.24,-751.51 1915.19,-743.03 1915.19,-743.03"/>
<polygon fill="#d98561" stroke="#d98561" points="1986.39,-707.68 1997.35,-707.26 1990.87,-705.45 1995.35,-703.23 1995.35,-703.23 1995.35,-703.23 1990.87,-705.45 1993.35,-699.2 1986.39,-707.68 1986.39,-707.68"/>
</g>
<!-- Narrative&#45;&gt;Reaction -->
<g id="edge76" class="edge">
<title>Narrative&#45;&gt;Reaction</title>
<path fill="none" stroke="#18c023" d="M1894.07,-788.41C1913.41,-821.03 1946.77,-877.28 1966.06,-909.8"/>
<polygon fill="#18c023" stroke="#18c023" points="1894.11,-788.47 1892.88,-777.58 1891.56,-784.17 1889.01,-779.87 1889.01,-779.87 1889.01,-779.87 1891.56,-784.17 1885.14,-782.17 1894.11,-788.47 1894.11,-788.47"/>
<polygon fill="#18c023" stroke="#18c023" points="1965.93,-909.59 1967.16,-920.49 1968.48,-913.89 1971.03,-918.19 1971.03,-918.19 1971.03,-918.19 1968.48,-913.89 1974.9,-915.9 1965.93,-909.59 1965.93,-909.59"/>
</g>
<!-- Narrative&#45;&gt;Scenario -->
<g id="edge73" class="edge">
<title>Narrative&#45;&gt;Scenario</title>
<path fill="none" stroke="#301bd8" d="M1885.94,-734.01C1892.59,-708.1 1902.59,-669.21 1909.2,-643.48"/>
<polygon fill="#301bd8" stroke="#301bd8" points="1885.95,-733.94 1879.1,-742.51 1884.71,-738.79 1883.46,-743.63 1883.46,-743.63 1883.46,-743.63 1884.71,-738.79 1887.82,-744.75 1885.95,-733.94 1885.95,-733.94"/>
<polygon fill="#301bd8" stroke="#301bd8" points="1909.15,-643.67 1915.99,-635.1 1910.39,-638.83 1911.64,-633.98 1911.64,-633.98 1911.64,-633.98 1910.39,-638.83 1907.28,-632.86 1909.15,-643.67 1909.15,-643.67"/>
</g>
<!-- Narrative&#45;&gt;Week -->
<g id="edge74" class="edge">
<title>Narrative&#45;&gt;Week</title>
<path fill="none" stroke="#8bacda" d="M1867.13,-734.82C1853.37,-700.12 1836.05,-638.58 1865,-598 1891.13,-561.38 1943.74,-549.34 1980.84,-545.52"/>
<polygon fill="#8bacda" stroke="#8bacda" points="1867.04,-734.62 1866.72,-745.58 1868.96,-739.24 1870.87,-743.85 1870.87,-743.85 1870.87,-743.85 1868.96,-739.24 1875.03,-742.13 1867.04,-734.62 1867.04,-734.62"/>
<polygon fill="#8bacda" stroke="#8bacda" points="1980.42,-545.56 1990.78,-549.17 1985.41,-545.12 1990.39,-544.68 1990.39,-544.68 1990.39,-544.68 1985.41,-545.12 1989.99,-540.2 1980.42,-545.56 1980.42,-545.56"/>
</g>
<!-- Project&#45;&gt;Factor -->
<g id="edge81" class="edge">
<title>Project&#45;&gt;Factor</title>
<path fill="none" stroke="#7dca41" d="M1048.67,-94.91C992.47,-99.23 900.59,-108.86 872,-127 855.55,-137.44 828.22,-182.26 811.78,-211.08"/>
<polygon fill="#7dca41" stroke="#7dca41" points="1048.42,-94.93 1058.72,-98.67 1053.4,-94.56 1058.39,-94.18 1058.39,-94.18 1058.39,-94.18 1053.4,-94.56 1058.06,-89.7 1048.42,-94.93 1048.42,-94.93"/>
<polygon fill="#7dca41" stroke="#7dca41" points="811.96,-210.74 803.13,-217.24 809.51,-215.1 807.05,-219.45 807.05,-219.45 807.05,-219.45 809.51,-215.1 810.97,-221.66 811.96,-210.74 811.96,-210.74"/>
</g>
<!-- Project&#45;&gt;Installment -->
<g id="edge79" class="edge">
<title>Project&#45;&gt;Installment</title>
<path fill="none" stroke="#f74d78" d="M1049.87,-97.98C988.81,-107.51 886,-128.66 886,-163 886,-274 886,-274 886,-274 886,-305.39 867.32,-336.88 851.73,-357.68"/>
<polygon fill="#f74d78" stroke="#f74d78" points="1049.77,-98 1060.33,-100.95 1054.71,-97.25 1059.65,-96.5 1059.65,-96.5 1059.65,-96.5 1054.71,-97.25 1058.98,-92.05 1049.77,-98 1049.77,-98"/>
<polygon fill="#f74d78" stroke="#f74d78" points="851.88,-357.49 842.19,-362.61 848.81,-361.43 845.74,-365.38 845.74,-365.38 845.74,-365.38 848.81,-361.43 849.29,-368.14 851.88,-357.49 851.88,-357.49"/>
</g>
<!-- Project&#45;&gt;Roster -->
<g id="edge77" class="edge">
<title>Project&#45;&gt;Roster</title>
<path fill="none" stroke="#89ee69" d="M1139.35,-87.15C1321.72,-75.67 2000.29,-32.96 2178.76,-21.72"/>
<polygon fill="#89ee69" stroke="#89ee69" points="1139.6,-87.13 1129.34,-83.27 1134.61,-87.44 1129.62,-87.76 1129.62,-87.76 1129.62,-87.76 1134.61,-87.44 1129.9,-92.25 1139.6,-87.13 1139.6,-87.13"/>
<polygon fill="#89ee69" stroke="#89ee69" points="2178.6,-21.73 2188.87,-25.59 2183.59,-21.42 2188.58,-21.1 2188.58,-21.1 2188.58,-21.1 2183.59,-21.42 2188.3,-16.61 2178.6,-21.73 2178.6,-21.73"/>
</g>
<!-- Style -->
<g id="node35" class="node">
<title>Style</title>
<ellipse fill="none" stroke="black" cx="1094" cy="-18" rx="28.7" ry="18"/>
<text text-anchor="middle" x="1094" y="-14.3" font-family="Times,serif" font-size="14.00">Style</text>
</g>
<!-- Project&#45;&gt;Style -->
<g id="edge78" class="edge">
<title>Project&#45;&gt;Style</title>
<path fill="none" stroke="#16094b" d="M1094,-63.05C1094,-57.38 1094,-51.4 1094,-45.74"/>
<polygon fill="#16094b" stroke="#16094b" points="1094,-62.81 1089.5,-72.81 1094,-67.81 1094,-72.81 1094,-72.81 1094,-72.81 1094,-67.81 1098.5,-72.81 1094,-62.81 1094,-62.81"/>
<polygon fill="#16094b" stroke="#16094b" points="1094,-46.03 1098.5,-36.03 1094,-41.03 1094,-36.03 1094,-36.03 1094,-36.03 1094,-41.03 1089.5,-36.03 1094,-46.03 1094,-46.03"/>
</g>
<!-- Project&#45;&gt;User -->
<g id="edge80" class="edge">
<title>Project&#45;&gt;User</title>
<path fill="none" stroke="#eb3a52" d="M1140.38,-91.96C1286.1,-92.16 1728.37,-95.39 1784,-127 1800.72,-136.5 1808,-143.77 1808,-163 1808,-690 1808,-690 1808,-690 1808,-794.73 1706.91,-781.59 1607,-813 1541.65,-833.54 1461.83,-842.26 1416.06,-845.78"/>
<polygon fill="#eb3a52" stroke="#eb3a52" points="1140.41,-91.96 1130.42,-87.45 1135.41,-91.95 1130.41,-91.95 1130.41,-91.95 1130.41,-91.95 1135.41,-91.95 1130.41,-96.45 1140.41,-91.96 1140.41,-91.96"/>
<polygon fill="#eb3a52" stroke="#eb3a52" points="1416.25,-845.77 1405.95,-842.01 1411.27,-846.13 1406.28,-846.5 1406.28,-846.5 1406.28,-846.5 1411.27,-846.13 1406.61,-850.98 1416.25,-845.77 1416.25,-845.77"/>
</g>
<!-- Quote -->
<g id="node30" class="node">
<title>Quote</title>
<ellipse fill="none" stroke="black" cx="1165" cy="-1176" rx="32.49" ry="18"/>
<text text-anchor="middle" x="1165" y="-1172.3" font-family="Times,serif" font-size="14.00">Quote</text>
</g>
<!-- Reaction&#45;&gt;Course -->
<g id="edge83" class="edge">
<title>Reaction&#45;&gt;Course</title>
<path fill="none" stroke="#8cdd75" d="M1970.13,-963.07C1960.04,-983.87 1942.95,-1011.93 1919,-1027 1872.93,-1055.99 1852.13,-1040.26 1798,-1046 1580.65,-1069.05 1319.33,-1077.44 1215.14,-1080.01"/>
<polygon fill="#8cdd75" stroke="#8cdd75" points="1970.08,-963.18 1978.36,-955.98 1972.18,-958.64 1974.28,-954.1 1974.28,-954.1 1974.28,-954.1 1972.18,-958.64 1970.19,-952.21 1970.08,-963.18 1970.08,-963.18"/>
<polygon fill="#8cdd75" stroke="#8cdd75" points="1215.26,-1080.01 1205.16,-1075.75 1210.26,-1080.13 1205.27,-1080.25 1205.27,-1080.25 1205.27,-1080.25 1210.26,-1080.13 1205.37,-1084.75 1215.26,-1080.01 1215.26,-1080.01"/>
</g>
<!-- Reaction&#45;&gt;User -->
<g id="edge82" class="edge">
<title>Reaction&#45;&gt;User</title>
<path fill="none" stroke="#fa2b27" d="M1931.2,-927.97C1813.09,-911.29 1518.2,-869.66 1415.2,-855.11"/>
<polygon fill="#fa2b27" stroke="#fa2b27" points="1931.13,-927.96 1940.41,-933.81 1936.08,-928.66 1941.03,-929.36 1941.03,-929.36 1941.03,-929.36 1936.08,-928.66 1941.66,-924.9 1931.13,-927.96 1931.13,-927.96"/>
<polygon fill="#fa2b27" stroke="#fa2b27" points="1415.46,-855.15 1406.19,-849.29 1410.51,-854.45 1405.56,-853.75 1405.56,-853.75 1405.56,-853.75 1410.51,-854.45 1404.93,-858.21 1415.46,-855.15 1415.46,-855.15"/>
</g>
<!-- Roster&#45;&gt;User -->
<g id="edge84" class="edge">
<title>Roster&#45;&gt;User</title>
<path fill="none" stroke="#271aba" d="M2220.57,-46.17C2217.39,-107.06 2210,-250.83 2210,-273 2210,-653 2210,-653 2210,-653 2210,-711.21 2220.52,-740.25 2178,-780 2121.7,-832.62 1565.1,-845.09 1415.73,-847.49"/>
<polygon fill="#271aba" stroke="#271aba" points="2220.56,-46.46 2225.57,-36.71 2220.82,-41.47 2221.08,-36.48 2221.08,-36.48 2221.08,-36.48 2220.82,-41.47 2216.58,-36.24 2220.56,-46.46 2220.56,-46.46"/>
<polygon fill="#271aba" stroke="#271aba" points="1416.09,-847.49 1406.02,-843.14 1411.09,-847.57 1406.09,-847.64 1406.09,-847.64 1406.09,-847.64 1411.09,-847.57 1406.16,-852.14 1416.09,-847.49 1416.09,-847.49"/>
</g>
<!-- School&#45;&gt;BingoGame -->
<g id="edge85" class="edge">
<title>School&#45;&gt;BingoGame</title>
<path fill="none" stroke="#7fb2c4" d="M2089.44,-756.71C2048.54,-752.89 1986.24,-747.41 1932,-744 1459.66,-714.28 889.27,-696.93 701.38,-691.7"/>
<polygon fill="#7fb2c4" stroke="#7fb2c4" points="2089.41,-756.7 2098.94,-762.12 2094.38,-757.17 2099.36,-757.64 2099.36,-757.64 2099.36,-757.64 2094.38,-757.17 2099.78,-753.16 2089.41,-756.7 2089.41,-756.7"/>
<polygon fill="#7fb2c4" stroke="#7fb2c4" points="701.66,-691.7 691.79,-686.93 696.66,-691.57 691.66,-691.43 691.66,-691.43 691.66,-691.43 696.66,-691.57 691.54,-695.92 701.66,-691.7 701.66,-691.7"/>
</g>
<!-- School&#45;&gt;Experience -->
<g id="edge87" class="edge">
<title>School&#45;&gt;Experience</title>
<path fill="none" stroke="#588a84" d="M2128.16,-789.45C2121.02,-818.21 2107.08,-864.77 2085,-900 2067.14,-928.5 2060.68,-936.44 2032,-954 1995.77,-976.19 1949.6,-990.03 1914.22,-998.13"/>
<polygon fill="#588a84" stroke="#588a84" points="2128.08,-789.79 2134.79,-781.12 2129.25,-784.93 2130.41,-780.07 2130.41,-780.07 2130.41,-780.07 2129.25,-784.93 2126.03,-779.02 2128.08,-789.79 2128.08,-789.79"/>
<polygon fill="#588a84" stroke="#588a84" points="1914.31,-998.11 1903.58,-995.88 1909.43,-999.19 1904.55,-1000.27 1904.55,-1000.27 1904.55,-1000.27 1909.43,-999.19 1905.52,-1004.67 1914.31,-998.11 1914.31,-998.11"/>
</g>
<!-- School&#45;&gt;Project -->
<g id="edge86" class="edge">
<title>School&#45;&gt;Project</title>
<path fill="none" stroke="#3a3e2b" d="M2134,-733.88C2134,-720.65 2134,-704.49 2134,-690 2134,-690 2134,-690 2134,-163 2134,-112.44 1341.38,-96.05 1140.06,-92.7"/>
<polygon fill="#3a3e2b" stroke="#3a3e2b" points="2134,-733.78 2129.5,-743.78 2134,-738.78 2134,-743.78 2134,-743.78 2134,-743.78 2134,-738.78 2138.5,-743.78 2134,-733.78 2134,-733.78"/>
<polygon fill="#3a3e2b" stroke="#3a3e2b" points="1140.1,-92.7 1130.17,-88.04 1135.1,-92.62 1130.1,-92.54 1130.1,-92.54 1130.1,-92.54 1135.1,-92.62 1130.03,-97.03 1140.1,-92.7 1140.1,-92.7"/>
</g>
<!-- School&#45;&gt;Roster -->
<g id="edge88" class="edge">
<title>School&#45;&gt;Roster</title>
<path fill="none" stroke="#a8d5b4" d="M2154.28,-737.1C2163.34,-724.04 2172,-707.09 2172,-690 2172,-690 2172,-690 2172,-200 2172,-142.79 2195.5,-78.95 2210.28,-44.46"/>
<polygon fill="#a8d5b4" stroke="#a8d5b4" points="2154.32,-737.04 2144.75,-742.39 2151.35,-741.06 2148.37,-745.08 2148.37,-745.08 2148.37,-745.08 2151.35,-741.06 2151.98,-747.76 2154.32,-737.04 2154.32,-737.04"/>
<polygon fill="#a8d5b4" stroke="#a8d5b4" points="2210.17,-44.7 2218.31,-37.35 2212.18,-40.12 2214.19,-35.55 2214.19,-35.55 2214.19,-35.55 2212.18,-40.12 2210.07,-33.74 2210.17,-44.7 2210.17,-44.7"/>
</g>
<!-- Theme -->
<g id="node36" class="node">
<title>Theme</title>
<ellipse fill="none" stroke="black" cx="1315" cy="-936" rx="36" ry="18"/>
<text text-anchor="middle" x="1315" y="-932.3" font-family="Times,serif" font-size="14.00">Theme</text>
</g>
<!-- Theme&#45;&gt;User -->
<g id="edge89" class="edge">
<title>Theme&#45;&gt;User</title>
<path fill="none" stroke="#73e41d" d="M1333.12,-910.93C1342.04,-899.08 1352.75,-884.86 1361.58,-873.14"/>
<polygon fill="#73e41d" stroke="#73e41d" points="1333.35,-910.62 1323.74,-915.9 1330.35,-914.62 1327.34,-918.61 1327.34,-918.61 1327.34,-918.61 1330.35,-914.62 1330.93,-921.32 1333.35,-910.62 1333.35,-910.62"/>
<polygon fill="#73e41d" stroke="#73e41d" points="1361.33,-873.47 1370.94,-868.19 1364.34,-869.47 1367.35,-865.48 1367.35,-865.48 1367.35,-865.48 1364.34,-869.47 1363.75,-862.77 1361.33,-873.47 1361.33,-873.47"/>
</g>
<!-- User&#45;&gt;Concept -->
<g id="edge90" class="edge">
<title>User&#45;&gt;Concept</title>
<path fill="none" stroke="#279531" d="M1341.86,-847.99C1261.91,-847.39 1076.37,-842.72 1022,-813 951.47,-774.44 976,-716.88 910,-671 779.25,-580.1 705.98,-642.22 569,-561 548.99,-549.13 551.5,-535.99 531,-525 471.98,-493.36 394.95,-480.17 345.47,-474.74"/>
<polygon fill="#279531" stroke="#279531" points="1341.52,-847.99 1351.49,-852.54 1346.52,-848.02 1351.52,-848.04 1351.52,-848.04 1351.52,-848.04 1346.52,-848.02 1351.55,-843.54 1341.52,-847.99 1341.52,-847.99"/>
<polygon fill="#279531" stroke="#279531" points="345.6,-474.75 336.12,-469.24 340.63,-474.24 335.65,-473.72 335.65,-473.72 335.65,-473.72 340.63,-474.24 335.19,-478.2 345.6,-474.75 345.6,-474.75"/>
</g>
<!-- User&#45;&gt;Experience -->
<g id="edge93" class="edge">
<title>User&#45;&gt;Experience</title>
<path fill="none" stroke="#378aec" d="M1412.23,-860.92C1496.48,-888.59 1718.53,-961.53 1814.61,-993.09"/>
<polygon fill="#378aec" stroke="#378aec" points="1412.39,-860.97 1404.3,-853.57 1407.64,-859.41 1402.89,-857.85 1402.89,-857.85 1402.89,-857.85 1407.64,-859.41 1401.49,-862.12 1412.39,-860.97 1412.39,-860.97"/>
<polygon fill="#378aec" stroke="#378aec" points="1814.35,-993 1822.44,-1000.4 1819.1,-994.56 1823.85,-996.12 1823.85,-996.12 1823.85,-996.12 1819.1,-994.56 1825.25,-991.85 1814.35,-993 1814.35,-993"/>
</g>
<!-- User&#45;&gt;Language -->
<g id="edge91" class="edge">
<title>User&#45;&gt;Language</title>
<path fill="none" stroke="#259b6a" d="M1415.27,-843.97C1487.41,-834.94 1642,-810.09 1642,-763 1642,-763 1642,-763 1642,-469 1642,-443.62 1623.57,-421.01 1606.49,-405.49"/>
<polygon fill="#259b6a" stroke="#259b6a" points="1415.59,-843.93 1405.12,-840.67 1410.63,-844.53 1405.67,-845.14 1405.67,-845.14 1405.67,-845.14 1410.63,-844.53 1406.21,-849.6 1415.59,-843.93 1415.59,-843.93"/>
<polygon fill="#259b6a" stroke="#259b6a" points="1606.88,-405.83 1602.25,-395.89 1603.1,-402.56 1599.31,-399.29 1599.31,-399.29 1599.31,-399.29 1603.1,-402.56 1596.37,-402.7 1606.88,-405.83 1606.88,-405.83"/>
<text text-anchor="middle" x="1692" y="-612.3" font-family="Times,serif" font-size="14.00">primary_language</text>
</g>
<!-- User&#45;&gt;Narrative -->
<g id="edge94" class="edge">
<title>User&#45;&gt;Narrative</title>
<path fill="none" stroke="#82f39d" d="M1416.21,-848C1508.97,-847.54 1748.25,-843.35 1821,-813 1835.02,-807.15 1848.08,-796.56 1858.24,-786.63"/>
<polygon fill="#82f39d" stroke="#82f39d" points="1416.41,-848 1406.39,-843.54 1411.41,-848.02 1406.41,-848.04 1406.41,-848.04 1406.41,-848.04 1411.41,-848.02 1406.43,-852.54 1416.41,-848 1416.41,-848"/>
<polygon fill="#82f39d" stroke="#82f39d" points="1858.12,-786.75 1868.33,-782.73 1861.61,-783.17 1865.1,-779.59 1865.1,-779.59 1865.1,-779.59 1861.61,-783.17 1861.88,-776.45 1858.12,-786.75 1858.12,-786.75"/>
</g>
<!-- User&#45;&gt;School -->
<g id="edge92" class="edge">
<title>User&#45;&gt;School</title>
<path fill="none" stroke="#049ca5" d="M1416.41,-848.31C1507.94,-848.51 1750.23,-845.62 1949,-813 2000.69,-804.52 2058.77,-787.56 2095.83,-775.76"/>
<polygon fill="#049ca5" stroke="#049ca5" points="1416.51,-848.31 1406.53,-843.78 1411.51,-848.29 1406.51,-848.28 1406.51,-848.28 1406.51,-848.28 1411.51,-848.29 1406.49,-852.78 1416.51,-848.31 1416.51,-848.31"/>
<polygon fill="#049ca5" stroke="#049ca5" points="2095.72,-775.79 2106.62,-777.01 2100.48,-774.26 2105.24,-772.73 2105.24,-772.73 2105.24,-772.73 2100.48,-774.26 2103.86,-768.44 2095.72,-775.79 2095.72,-775.79"/>
</g>
<!-- Ahoy::Message -->
<g id="node42" class="node">
<title>Ahoy::Message</title>
<ellipse fill="none" stroke="black" cx="1294" cy="-762" rx="66.09" ry="18"/>
<text text-anchor="middle" x="1294" y="-758.3" font-family="Times,serif" font-size="14.00">Ahoy::Message</text>
</g>
<!-- User&#45;&gt;Ahoy::Message -->
<g id="edge95" class="edge">
<title>User&#45;&gt;Ahoy::Message</title>
<path fill="none" stroke="#ecf298" d="M1348.49,-833.14C1339.25,-827.68 1329.56,-820.87 1322,-813 1315.32,-806.04 1309.68,-797.19 1305.26,-788.87"/>
<polygon fill="#ecf298" stroke="#ecf298" points="1348.39,-833.09 1354.93,-841.89 1352.76,-835.53 1357.12,-837.96 1357.12,-837.96 1357.12,-837.96 1352.76,-835.53 1359.31,-834.03 1348.39,-833.09 1348.39,-833.09"/>
<polygon fill="#ecf298" stroke="#ecf298" points="1305.38,-789.12 1304.97,-778.16 1303.16,-784.64 1300.94,-780.16 1300.94,-780.16 1300.94,-780.16 1303.16,-784.64 1296.91,-782.16 1305.38,-789.12 1305.38,-789.12"/>
<text text-anchor="middle" x="1348" y="-801.8" font-family="Times,serif" font-size="14.00">messages</text>
</g>
<!-- Value&#45;&gt;Factor -->
<g id="edge97" class="edge">
<title>Value&#45;&gt;Factor</title>
<path fill="none" stroke="#b31d81" d="M816.43,-283.13C813.83,-276.76 811.05,-269.94 808.45,-263.58"/>
<polygon fill="#b31d81" stroke="#b31d81" points="816.35,-282.92 815.96,-293.88 818.24,-287.55 820.13,-292.17 820.13,-292.17 820.13,-292.17 818.24,-287.55 824.29,-290.47 816.35,-282.92 816.35,-282.92"/>
<polygon fill="#b31d81" stroke="#b31d81" points="808.6,-263.96 808.99,-253 806.71,-259.33 804.82,-254.71 804.82,-254.71 804.82,-254.71 806.71,-259.33 800.66,-256.41 808.6,-263.96 808.6,-263.96"/>
</g>
<!-- Value&#45;&gt;User -->
<g id="edge96" class="edge">
<title>Value&#45;&gt;User</title>
<path fill="none" stroke="#da2cba" d="M852.39,-331.22C864.4,-341.08 878.75,-353.31 891,-365 942.08,-413.75 1073.14,-536.04 1107,-598 1147.06,-671.31 1125.19,-701.58 1154,-780 1159.62,-795.3 1156.95,-803.23 1170,-813 1196.58,-832.9 1289.55,-842.13 1342.1,-845.85"/>
<polygon fill="#da2cba" stroke="#da2cba" points="852.64,-331.42 847.73,-321.62 848.76,-328.27 844.89,-325.11 844.89,-325.11 844.89,-325.11 848.76,-328.27 842.05,-328.6 852.64,-331.42 852.64,-331.42"/>
<polygon fill="#da2cba" stroke="#da2cba" points="1342.06,-845.85 1351.73,-851.01 1347.05,-846.19 1352.03,-846.53 1352.03,-846.53 1352.03,-846.53 1347.05,-846.19 1352.34,-842.04 1342.06,-845.85 1342.06,-845.85"/>
</g>
<!-- Week&#45;&gt;Behavior -->
<g id="edge98" class="edge">
<title>Week&#45;&gt;Behavior</title>
<path fill="none" stroke="#3b58a3" d="M2049.63,-563.35C2060.3,-572.5 2071.29,-584.4 2077,-598 2083.19,-612.75 2083.19,-619.25 2077,-634 2071.64,-646.78 2061.61,-658.06 2051.57,-666.96"/>
<polygon fill="#3b58a3" stroke="#3b58a3" points="2049.79,-563.48 2044.83,-553.7 2045.9,-560.34 2042.01,-557.2 2042.01,-557.2 2042.01,-557.2 2045.9,-560.34 2039.18,-560.7 2049.79,-563.48 2049.79,-563.48"/>
<polygon fill="#3b58a3" stroke="#3b58a3" points="2051.65,-666.89 2041.09,-669.83 2047.81,-670.09 2043.96,-673.29 2043.96,-673.29 2043.96,-673.29 2047.81,-670.09 2046.84,-676.75 2051.65,-666.89 2051.65,-666.89"/>
</g>
</g>
</svg>
