<?xml version="1.0" encoding="UTF-8" standalone="no"?>
<!DOCTYPE svg PUBLIC "-//W3C//DTD SVG 1.1//EN"
 "http://www.w3.org/Graphics/SVG/1.1/DTD/svg11.dtd">
<!-- Generated by graphviz version 2.38.0 (20140413.2041)
 -->
<!-- Title: models_diagram Pages: 1 -->
<svg width="1251pt" height="1385pt"
 viewBox="0.00 0.00 1250.50 1385.00" xmlns="http://www.w3.org/2000/svg" xmlns:xlink="http://www.w3.org/1999/xlink">
<g id="graph0" class="graph" transform="scale(1 1) rotate(0) translate(4 1381)">
<title>models_diagram</title>
<polygon fill="none" stroke="none" points="-4,4 -4,-1381 1246.5,-1381 1246.5,4 -4,4"/>
<!-- _diagram_info -->
<g id="node1" class="node"><title>_diagram_info</title>
<text text-anchor="start" x="8" y="-1348.1" font-family="Times,serif" font-size="13.00">Models diagram</text>
<text text-anchor="start" x="8" y="-1334.1" font-family="Times,serif" font-size="13.00">Date: Jan 19 2017 &#45; 22:36</text>
<text text-anchor="start" x="8" y="-1320.1" font-family="Times,serif" font-size="13.00">Migration version: 20170119125723</text>
<text text-anchor="start" x="8" y="-1306.1" font-family="Times,serif" font-size="13.00">Generated by RailRoady 1.5.2</text>
<text text-anchor="start" x="8" y="-1292.1" font-family="Times,serif" font-size="13.00">http://railroady.prestonlee.com</text>
</g>
<!-- FactorPack -->
<g id="node2" class="node"><title>FactorPack</title>
<path fill="none" stroke="black" d="M1123.5,-962.5C1123.5,-962.5 1230.5,-962.5 1230.5,-962.5 1236.5,-962.5 1242.5,-968.5 1242.5,-974.5 1242.5,-974.5 1242.5,-1056.5 1242.5,-1056.5 1242.5,-1062.5 1236.5,-1068.5 1230.5,-1068.5 1230.5,-1068.5 1123.5,-1068.5 1123.5,-1068.5 1117.5,-1068.5 1111.5,-1062.5 1111.5,-1056.5 1111.5,-1056.5 1111.5,-974.5 1111.5,-974.5 1111.5,-968.5 1117.5,-962.5 1123.5,-962.5"/>
<text text-anchor="middle" x="1177" y="-1053.3" font-family="Times,serif" font-size="14.00">FactorPack</text>
<polyline fill="none" stroke="black" points="1111.5,-1045.5 1242.5,-1045.5 "/>
<text text-anchor="start" x="1119.5" y="-1030.3" font-family="Times,serif" font-size="14.00">id :int(11)</text>
<text text-anchor="start" x="1119.5" y="-1015.3" font-family="Times,serif" font-size="14.00">name :varchar(255)</text>
<text text-anchor="start" x="1119.5" y="-1000.3" font-family="Times,serif" font-size="14.00">description :text</text>
<text text-anchor="start" x="1119.5" y="-985.3" font-family="Times,serif" font-size="14.00">created_at :datetime</text>
<text text-anchor="start" x="1119.5" y="-970.3" font-family="Times,serif" font-size="14.00">updated_at :datetime</text>
</g>
<!-- Project -->
<g id="node11" class="node"><title>Project</title>
<path fill="none" stroke="black" d="M647,-519.5C647,-519.5 777,-519.5 777,-519.5 783,-519.5 789,-525.5 789,-531.5 789,-531.5 789,-748.5 789,-748.5 789,-754.5 783,-760.5 777,-760.5 777,-760.5 647,-760.5 647,-760.5 641,-760.5 635,-754.5 635,-748.5 635,-748.5 635,-531.5 635,-531.5 635,-525.5 641,-519.5 647,-519.5"/>
<text text-anchor="middle" x="712" y="-745.3" font-family="Times,serif" font-size="14.00">Project</text>
<polyline fill="none" stroke="black" points="635,-737.5 789,-737.5 "/>
<text text-anchor="start" x="643" y="-722.3" font-family="Times,serif" font-size="14.00">id :int(11)</text>
<text text-anchor="start" x="643" y="-707.3" font-family="Times,serif" font-size="14.00">name :varchar(255)</text>
<text text-anchor="start" x="643" y="-692.3" font-family="Times,serif" font-size="14.00">description :varchar(255)</text>
<text text-anchor="start" x="643" y="-677.3" font-family="Times,serif" font-size="14.00">course_id :int(11)</text>
<text text-anchor="start" x="643" y="-662.3" font-family="Times,serif" font-size="14.00">created_at :datetime</text>
<text text-anchor="start" x="643" y="-647.3" font-family="Times,serif" font-size="14.00">updated_at :datetime</text>
<text text-anchor="start" x="643" y="-632.3" font-family="Times,serif" font-size="14.00">start_dow :int(11)</text>
<text text-anchor="start" x="643" y="-617.3" font-family="Times,serif" font-size="14.00">end_dow :int(11)</text>
<text text-anchor="start" x="643" y="-602.3" font-family="Times,serif" font-size="14.00">active :tinyint(1)</text>
<text text-anchor="start" x="643" y="-587.3" font-family="Times,serif" font-size="14.00">start_date :date</text>
<text text-anchor="start" x="643" y="-572.3" font-family="Times,serif" font-size="14.00">end_date :date</text>
<text text-anchor="start" x="643" y="-557.3" font-family="Times,serif" font-size="14.00">consent_form_id :int(11)</text>
<text text-anchor="start" x="643" y="-542.3" font-family="Times,serif" font-size="14.00">factor_pack_id :int(11)</text>
<text text-anchor="start" x="643" y="-527.3" font-family="Times,serif" font-size="14.00">style_id :int(11)</text>
</g>
<!-- FactorPack&#45;&gt;Project -->
<g id="edge2" class="edge"><title>FactorPack&#45;&gt;Project</title>
<path fill="none" stroke="#5b02ea" d="M1170.06,-954.287C1161.58,-906.177 1142.89,-839.92 1102,-797 1101.3,-796.267 913.547,-721.341 798.837,-675.608"/>
<ellipse fill="none" stroke="#5b02ea" cx="1170.77" cy="-958.501" rx="4.00001" ry="4.00001"/>
<polygon fill="#5b02ea" stroke="#5b02ea" points="798.63,-675.525 791.008,-667.642 793.986,-673.674 789.341,-671.822 789.341,-671.822 789.341,-671.822 793.986,-673.674 787.675,-676.002 798.63,-675.525 798.63,-675.525"/>
</g>
<!-- Factor -->
<g id="node14" class="node"><title>Factor</title>
<path fill="none" stroke="black" d="M846,-369C846,-369 976,-369 976,-369 982,-369 988,-375 988,-381 988,-381 988,-463 988,-463 988,-469 982,-475 976,-475 976,-475 846,-475 846,-475 840,-475 834,-469 834,-463 834,-463 834,-381 834,-381 834,-375 840,-369 846,-369"/>
<text text-anchor="middle" x="911" y="-459.8" font-family="Times,serif" font-size="14.00">Factor</text>
<polyline fill="none" stroke="black" points="834,-452 988,-452 "/>
<text text-anchor="start" x="842" y="-436.8" font-family="Times,serif" font-size="14.00">id :int(11)</text>
<text text-anchor="start" x="842" y="-421.8" font-family="Times,serif" font-size="14.00">description :varchar(255)</text>
<text text-anchor="start" x="842" y="-406.8" font-family="Times,serif" font-size="14.00">name :varchar(255)</text>
<text text-anchor="start" x="842" y="-391.8" font-family="Times,serif" font-size="14.00">created_at :datetime</text>
<text text-anchor="start" x="842" y="-376.8" font-family="Times,serif" font-size="14.00">updated_at :datetime</text>
</g>
<!-- FactorPack&#45;&gt;Factor -->
<g id="edge1" class="edge"><title>FactorPack&#45;&gt;Factor</title>
<path fill="none" stroke="#c99fb8" d="M1158.21,-952.618C1144.24,-908.612 1123.87,-848.429 1102,-797 1053.84,-683.761 986.161,-557.269 945.634,-484.223"/>
<polygon fill="#c99fb8" stroke="#c99fb8" points="1158.26,-952.777 1156.98,-963.668 1159.77,-957.545 1161.27,-962.314 1161.27,-962.314 1161.27,-962.314 1159.77,-957.545 1165.56,-960.96 1158.26,-952.777 1158.26,-952.777"/>
<polygon fill="#c99fb8" stroke="#c99fb8" points="945.448,-483.888 944.519,-472.961 943.017,-479.518 940.587,-475.149 940.587,-475.149 940.587,-475.149 943.017,-479.518 936.654,-477.336 945.448,-483.888 945.448,-483.888"/>
</g>
<!-- Course -->
<g id="node3" class="node"><title>Course</title>
<path fill="none" stroke="black" d="M951,-940C951,-940 1081,-940 1081,-940 1087,-940 1093,-946 1093,-952 1093,-952 1093,-1079 1093,-1079 1093,-1085 1087,-1091 1081,-1091 1081,-1091 951,-1091 951,-1091 945,-1091 939,-1085 939,-1079 939,-1079 939,-952 939,-952 939,-946 945,-940 951,-940"/>
<text text-anchor="middle" x="1016" y="-1075.8" font-family="Times,serif" font-size="14.00">Course</text>
<polyline fill="none" stroke="black" points="939,-1068 1093,-1068 "/>
<text text-anchor="start" x="947" y="-1052.8" font-family="Times,serif" font-size="14.00">id :int(11)</text>
<text text-anchor="start" x="947" y="-1037.8" font-family="Times,serif" font-size="14.00">name :varchar(255)</text>
<text text-anchor="start" x="947" y="-1022.8" font-family="Times,serif" font-size="14.00">description :varchar(255)</text>
<text text-anchor="start" x="947" y="-1007.8" font-family="Times,serif" font-size="14.00">timezone :varchar(255)</text>
<text text-anchor="start" x="947" y="-992.8" font-family="Times,serif" font-size="14.00">school_id :int(11)</text>
<text text-anchor="start" x="947" y="-977.8" font-family="Times,serif" font-size="14.00">created_at :datetime</text>
<text text-anchor="start" x="947" y="-962.8" font-family="Times,serif" font-size="14.00">updated_at :datetime</text>
<text text-anchor="start" x="947" y="-947.8" font-family="Times,serif" font-size="14.00">number :varchar(255)</text>
</g>
<!-- Course&#45;&gt;Project -->
<g id="edge3" class="edge"><title>Course&#45;&gt;Project</title>
<path fill="none" stroke="#dfc461" d="M995.646,-932.11C982.077,-888.795 960.948,-836.621 930,-797 894.481,-751.526 842.232,-713.508 797.79,-686.391"/>
<ellipse fill="none" stroke="#dfc461" cx="996.835" cy="-935.988" rx="4.00001" ry="4.00001"/>
<polygon fill="#dfc461" stroke="#dfc461" points="797.584,-686.266 791.332,-677.257 793.299,-683.69 789.013,-681.113 789.013,-681.113 789.013,-681.113 793.299,-683.69 786.695,-684.97 797.584,-686.266 797.584,-686.266"/>
</g>
<!-- Style -->
<g id="node4" class="node"><title>Style</title>
<path fill="none" stroke="black" d="M791,-962.5C791,-962.5 909,-962.5 909,-962.5 915,-962.5 921,-968.5 921,-974.5 921,-974.5 921,-1056.5 921,-1056.5 921,-1062.5 915,-1068.5 909,-1068.5 909,-1068.5 791,-1068.5 791,-1068.5 785,-1068.5 779,-1062.5 779,-1056.5 779,-1056.5 779,-974.5 779,-974.5 779,-968.5 785,-962.5 791,-962.5"/>
<text text-anchor="middle" x="850" y="-1053.3" font-family="Times,serif" font-size="14.00">Style</text>
<polyline fill="none" stroke="black" points="779,-1045.5 921,-1045.5 "/>
<text text-anchor="start" x="787" y="-1030.3" font-family="Times,serif" font-size="14.00">id :int(11)</text>
<text text-anchor="start" x="787" y="-1015.3" font-family="Times,serif" font-size="14.00">name :varchar(255)</text>
<text text-anchor="start" x="787" y="-1000.3" font-family="Times,serif" font-size="14.00">filename :varchar(255)</text>
<text text-anchor="start" x="787" y="-985.3" font-family="Times,serif" font-size="14.00">created_at :datetime</text>
<text text-anchor="start" x="787" y="-970.3" font-family="Times,serif" font-size="14.00">updated_at :datetime</text>
</g>
<!-- Style&#45;&gt;Project -->
<g id="edge4" class="edge"><title>Style&#45;&gt;Project</title>
<path fill="none" stroke="#e92a1d" d="M827.996,-954.502C811.957,-910.812 789.681,-850.22 770,-797 766.764,-788.25 763.422,-779.227 760.052,-770.137"/>
<ellipse fill="none" stroke="#e92a1d" cx="829.437" cy="-958.428" rx="4.00001" ry="4.00001"/>
<polygon fill="#e92a1d" stroke="#e92a1d" points="760.011,-770.025 760.753,-759.084 758.272,-765.337 756.533,-760.649 756.533,-760.649 756.533,-760.649 758.272,-765.337 752.314,-762.214 760.011,-770.025 760.011,-770.025"/>
</g>
<!-- Installment -->
<g id="node5" class="node"><title>Installment</title>
<path fill="none" stroke="black" d="M291.5,-173.5C291.5,-173.5 406.5,-173.5 406.5,-173.5 412.5,-173.5 418.5,-179.5 418.5,-185.5 418.5,-185.5 418.5,-312.5 418.5,-312.5 418.5,-318.5 412.5,-324.5 406.5,-324.5 406.5,-324.5 291.5,-324.5 291.5,-324.5 285.5,-324.5 279.5,-318.5 279.5,-312.5 279.5,-312.5 279.5,-185.5 279.5,-185.5 279.5,-179.5 285.5,-173.5 291.5,-173.5"/>
<text text-anchor="middle" x="349" y="-309.3" font-family="Times,serif" font-size="14.00">Installment</text>
<polyline fill="none" stroke="black" points="279.5,-301.5 418.5,-301.5 "/>
<text text-anchor="start" x="287.5" y="-286.3" font-family="Times,serif" font-size="14.00">id :int(11)</text>
<text text-anchor="start" x="287.5" y="-271.3" font-family="Times,serif" font-size="14.00">inst_date :date</text>
<text text-anchor="start" x="287.5" y="-256.3" font-family="Times,serif" font-size="14.00">assessment_id :int(11)</text>
<text text-anchor="start" x="287.5" y="-241.3" font-family="Times,serif" font-size="14.00">user_id :int(11)</text>
<text text-anchor="start" x="287.5" y="-226.3" font-family="Times,serif" font-size="14.00">comments :text</text>
<text text-anchor="start" x="287.5" y="-211.3" font-family="Times,serif" font-size="14.00">group_id :int(11)</text>
<text text-anchor="start" x="287.5" y="-196.3" font-family="Times,serif" font-size="14.00">created_at :datetime</text>
<text text-anchor="start" x="287.5" y="-181.3" font-family="Times,serif" font-size="14.00">updated_at :datetime</text>
</g>
<!-- Value -->
<g id="node16" class="node"><title>Value</title>
<path fill="none" stroke="black" d="M291.5,-0.5C291.5,-0.5 406.5,-0.5 406.5,-0.5 412.5,-0.5 418.5,-6.5 418.5,-12.5 418.5,-12.5 418.5,-124.5 418.5,-124.5 418.5,-130.5 412.5,-136.5 406.5,-136.5 406.5,-136.5 291.5,-136.5 291.5,-136.5 285.5,-136.5 279.5,-130.5 279.5,-124.5 279.5,-124.5 279.5,-12.5 279.5,-12.5 279.5,-6.5 285.5,-0.5 291.5,-0.5"/>
<text text-anchor="middle" x="349" y="-121.3" font-family="Times,serif" font-size="14.00">Value</text>
<polyline fill="none" stroke="black" points="279.5,-113.5 418.5,-113.5 "/>
<text text-anchor="start" x="287.5" y="-98.3" font-family="Times,serif" font-size="14.00">id :int(11)</text>
<text text-anchor="start" x="287.5" y="-83.3" font-family="Times,serif" font-size="14.00">value :int(11)</text>
<text text-anchor="start" x="287.5" y="-68.3" font-family="Times,serif" font-size="14.00">user_id :int(11)</text>
<text text-anchor="start" x="287.5" y="-53.3" font-family="Times,serif" font-size="14.00">installment_id :int(11)</text>
<text text-anchor="start" x="287.5" y="-38.3" font-family="Times,serif" font-size="14.00">created_at :datetime</text>
<text text-anchor="start" x="287.5" y="-23.3" font-family="Times,serif" font-size="14.00">updated_at :datetime</text>
<text text-anchor="start" x="287.5" y="-8.3" font-family="Times,serif" font-size="14.00">factor_id :int(11)</text>
</g>
<!-- Installment&#45;&gt;Value -->
<g id="edge5" class="edge"><title>Installment&#45;&gt;Value</title>
<path fill="none" stroke="#aa20f8" d="M349,-165.329C349,-159.198 349,-153.025 349,-146.927"/>
<ellipse fill="none" stroke="#aa20f8" cx="349" cy="-169.334" rx="4" ry="4"/>
<polygon fill="#aa20f8" stroke="#aa20f8" points="349,-146.757 353.5,-136.757 349,-141.757 349,-136.757 349,-136.757 349,-136.757 349,-141.757 344.5,-136.757 349,-146.757 349,-146.757"/>
</g>
<!-- ConsentForm -->
<g id="node6" class="node"><title>ConsentForm</title>
<path fill="none" stroke="black" d="M435,-925C435,-925 599,-925 599,-925 605,-925 611,-931 611,-937 611,-937 611,-1094 611,-1094 611,-1100 605,-1106 599,-1106 599,-1106 435,-1106 435,-1106 429,-1106 423,-1100 423,-1094 423,-1094 423,-937 423,-937 423,-931 429,-925 435,-925"/>
<text text-anchor="middle" x="517" y="-1090.8" font-family="Times,serif" font-size="14.00">ConsentForm</text>
<polyline fill="none" stroke="black" points="423,-1083 611,-1083 "/>
<text text-anchor="start" x="431" y="-1067.8" font-family="Times,serif" font-size="14.00">id :int(11)</text>
<text text-anchor="start" x="431" y="-1052.8" font-family="Times,serif" font-size="14.00">name :varchar(255)</text>
<text text-anchor="start" x="431" y="-1037.8" font-family="Times,serif" font-size="14.00">user_id :int(11)</text>
<text text-anchor="start" x="431" y="-1022.8" font-family="Times,serif" font-size="14.00">created_at :datetime</text>
<text text-anchor="start" x="431" y="-1007.8" font-family="Times,serif" font-size="14.00">updated_at :datetime</text>
<text text-anchor="start" x="431" y="-992.8" font-family="Times,serif" font-size="14.00">pdf_file_name :varchar(255)</text>
<text text-anchor="start" x="431" y="-977.8" font-family="Times,serif" font-size="14.00">pdf_content_type :varchar(255)</text>
<text text-anchor="start" x="431" y="-962.8" font-family="Times,serif" font-size="14.00">pdf_file_size :int(11)</text>
<text text-anchor="start" x="431" y="-947.8" font-family="Times,serif" font-size="14.00">pdf_updated_at :datetime</text>
<text text-anchor="start" x="431" y="-932.8" font-family="Times,serif" font-size="14.00">form_text :text</text>
</g>
<!-- ConsentForm&#45;&gt;Project -->
<g id="edge6" class="edge"><title>ConsentForm&#45;&gt;Project</title>
<path fill="none" stroke="#99f3db" d="M561.396,-917.29C579.24,-879.406 600.431,-835.838 621,-797 625.782,-787.971 630.821,-778.713 635.974,-769.43"/>
<ellipse fill="none" stroke="#99f3db" cx="559.575" cy="-921.168" rx="4.00002" ry="4.00002"/>
<polygon fill="#99f3db" stroke="#99f3db" points="636.069,-769.261 644.873,-762.724 638.507,-764.895 640.945,-760.53 640.945,-760.53 640.945,-760.53 638.507,-764.895 637.016,-758.336 636.069,-769.261 636.069,-769.261"/>
</g>
<!-- ConsentLog -->
<g id="node15" class="node"><title>ConsentLog</title>
<path fill="none" stroke="black" d="M442.5,-572C442.5,-572 571.5,-572 571.5,-572 577.5,-572 583.5,-578 583.5,-584 583.5,-584 583.5,-696 583.5,-696 583.5,-702 577.5,-708 571.5,-708 571.5,-708 442.5,-708 442.5,-708 436.5,-708 430.5,-702 430.5,-696 430.5,-696 430.5,-584 430.5,-584 430.5,-578 436.5,-572 442.5,-572"/>
<text text-anchor="middle" x="507" y="-692.8" font-family="Times,serif" font-size="14.00">ConsentLog</text>
<polyline fill="none" stroke="black" points="430.5,-685 583.5,-685 "/>
<text text-anchor="start" x="438.5" y="-669.8" font-family="Times,serif" font-size="14.00">id :int(11)</text>
<text text-anchor="start" x="438.5" y="-654.8" font-family="Times,serif" font-size="14.00">accepted :tinyint(1)</text>
<text text-anchor="start" x="438.5" y="-639.8" font-family="Times,serif" font-size="14.00">consent_form_id :int(11)</text>
<text text-anchor="start" x="438.5" y="-624.8" font-family="Times,serif" font-size="14.00">user_id :int(11)</text>
<text text-anchor="start" x="438.5" y="-609.8" font-family="Times,serif" font-size="14.00">created_at :datetime</text>
<text text-anchor="start" x="438.5" y="-594.8" font-family="Times,serif" font-size="14.00">updated_at :datetime</text>
<text text-anchor="start" x="438.5" y="-579.8" font-family="Times,serif" font-size="14.00">presented :tinyint(1)</text>
</g>
<!-- ConsentForm&#45;&gt;ConsentLog -->
<g id="edge7" class="edge"><title>ConsentForm&#45;&gt;ConsentLog</title>
<path fill="none" stroke="#f52a3d" d="M514.37,-916.257C512.714,-854.408 510.607,-775.71 509.07,-718.318"/>
<ellipse fill="none" stroke="#f52a3d" cx="514.485" cy="-920.564" rx="4" ry="4"/>
<polygon fill="#f52a3d" stroke="#f52a3d" points="509.067,-718.215 513.298,-708.098 508.934,-713.217 508.8,-708.219 508.8,-708.219 508.8,-708.219 508.934,-713.217 504.301,-708.339 509.067,-718.215 509.067,-718.215"/>
</g>
<!-- User -->
<g id="node7" class="node"><title>User</title>
<path fill="none" stroke="black" d="M203,-797.5C203,-797.5 393,-797.5 393,-797.5 399,-797.5 405,-803.5 405,-809.5 405,-809.5 405,-1221.5 405,-1221.5 405,-1227.5 399,-1233.5 393,-1233.5 393,-1233.5 203,-1233.5 203,-1233.5 197,-1233.5 191,-1227.5 191,-1221.5 191,-1221.5 191,-809.5 191,-809.5 191,-803.5 197,-797.5 203,-797.5"/>
<text text-anchor="middle" x="298" y="-1218.3" font-family="Times,serif" font-size="14.00">User</text>
<polyline fill="none" stroke="black" points="191,-1210.5 405,-1210.5 "/>
<text text-anchor="start" x="199" y="-1195.3" font-family="Times,serif" font-size="14.00">id :int(11)</text>
<text text-anchor="start" x="199" y="-1180.3" font-family="Times,serif" font-size="14.00">email :varchar(255)</text>
<text text-anchor="start" x="199" y="-1165.3" font-family="Times,serif" font-size="14.00">encrypted_password :varchar(255)</text>
<text text-anchor="start" x="199" y="-1150.3" font-family="Times,serif" font-size="14.00">reset_password_token :varchar(255)</text>
<text text-anchor="start" x="199" y="-1135.3" font-family="Times,serif" font-size="14.00">reset_password_sent_at :datetime</text>
<text text-anchor="start" x="199" y="-1120.3" font-family="Times,serif" font-size="14.00">remember_created_at :datetime</text>
<text text-anchor="start" x="199" y="-1105.3" font-family="Times,serif" font-size="14.00">sign_in_count :int(11)</text>
<text text-anchor="start" x="199" y="-1090.3" font-family="Times,serif" font-size="14.00">current_sign_in_at :datetime</text>
<text text-anchor="start" x="199" y="-1075.3" font-family="Times,serif" font-size="14.00">last_sign_in_at :datetime</text>
<text text-anchor="start" x="199" y="-1060.3" font-family="Times,serif" font-size="14.00">current_sign_in_ip :varchar(255)</text>
<text text-anchor="start" x="199" y="-1045.3" font-family="Times,serif" font-size="14.00">last_sign_in_ip :varchar(255)</text>
<text text-anchor="start" x="199" y="-1030.3" font-family="Times,serif" font-size="14.00">confirmation_token :varchar(255)</text>
<text text-anchor="start" x="199" y="-1015.3" font-family="Times,serif" font-size="14.00">confirmed_at :datetime</text>
<text text-anchor="start" x="199" y="-1000.3" font-family="Times,serif" font-size="14.00">confirmation_sent_at :datetime</text>
<text text-anchor="start" x="199" y="-985.3" font-family="Times,serif" font-size="14.00">unconfirmed_email :varchar(255)</text>
<text text-anchor="start" x="199" y="-970.3" font-family="Times,serif" font-size="14.00">failed_attempts :int(11)</text>
<text text-anchor="start" x="199" y="-955.3" font-family="Times,serif" font-size="14.00">unlock_token :varchar(255)</text>
<text text-anchor="start" x="199" y="-940.3" font-family="Times,serif" font-size="14.00">locked_at :datetime</text>
<text text-anchor="start" x="199" y="-925.3" font-family="Times,serif" font-size="14.00">created_at :datetime</text>
<text text-anchor="start" x="199" y="-910.3" font-family="Times,serif" font-size="14.00">updated_at :datetime</text>
<text text-anchor="start" x="199" y="-895.3" font-family="Times,serif" font-size="14.00">first_name :varchar(255)</text>
<text text-anchor="start" x="199" y="-880.3" font-family="Times,serif" font-size="14.00">last_name :varchar(255)</text>
<text text-anchor="start" x="199" y="-865.3" font-family="Times,serif" font-size="14.00">gender_id :int(11)</text>
<text text-anchor="start" x="199" y="-850.3" font-family="Times,serif" font-size="14.00">age_range_id :int(11)</text>
<text text-anchor="start" x="199" y="-835.3" font-family="Times,serif" font-size="14.00">country :varchar(255)</text>
<text text-anchor="start" x="199" y="-820.3" font-family="Times,serif" font-size="14.00">admin :tinyint(1)</text>
<text text-anchor="start" x="199" y="-805.3" font-family="Times,serif" font-size="14.00">welcomed :tinyint(1)</text>
</g>
<!-- User&#45;&gt;Installment -->
<g id="edge11" class="edge"><title>User&#45;&gt;Installment</title>
<path fill="none" stroke="#eca5dc" d="M290.654,-788.989C290.003,-662.466 294.964,-502.147 317,-361 318.349,-352.362 320.166,-343.447 322.253,-334.599"/>
<ellipse fill="none" stroke="#eca5dc" cx="290.68" cy="-793.274" rx="4" ry="4"/>
<polygon fill="#eca5dc" stroke="#eca5dc" points="322.311,-334.365 329.082,-325.739 323.512,-329.511 324.714,-324.658 324.714,-324.658 324.714,-324.658 323.512,-329.511 320.345,-323.577 322.311,-334.365 322.311,-334.365"/>
</g>
<!-- Group -->
<g id="node10" class="node"><title>Group</title>
<path fill="none" stroke="black" d="M580.5,-369C580.5,-369 687.5,-369 687.5,-369 693.5,-369 699.5,-375 699.5,-381 699.5,-381 699.5,-463 699.5,-463 699.5,-469 693.5,-475 687.5,-475 687.5,-475 580.5,-475 580.5,-475 574.5,-475 568.5,-469 568.5,-463 568.5,-463 568.5,-381 568.5,-381 568.5,-375 574.5,-369 580.5,-369"/>
<text text-anchor="middle" x="634" y="-459.8" font-family="Times,serif" font-size="14.00">Group</text>
<polyline fill="none" stroke="black" points="568.5,-452 699.5,-452 "/>
<text text-anchor="start" x="576.5" y="-436.8" font-family="Times,serif" font-size="14.00">id :int(11)</text>
<text text-anchor="start" x="576.5" y="-421.8" font-family="Times,serif" font-size="14.00">name :varchar(255)</text>
<text text-anchor="start" x="576.5" y="-406.8" font-family="Times,serif" font-size="14.00">project_id :int(11)</text>
<text text-anchor="start" x="576.5" y="-391.8" font-family="Times,serif" font-size="14.00">created_at :datetime</text>
<text text-anchor="start" x="576.5" y="-376.8" font-family="Times,serif" font-size="14.00">updated_at :datetime</text>
</g>
<!-- User&#45;&gt;Group -->
<g id="edge8" class="edge"><title>User&#45;&gt;Group</title>
<path fill="none" stroke="#760cf9" d="M359.357,-787.468C361.626,-778.537 363.848,-769.689 366,-761 392.515,-653.936 351.182,-604.388 421,-519 430.592,-507.269 501.56,-476.524 558.984,-452.959"/>
<polygon fill="#760cf9" stroke="#760cf9" points="359.349,-787.5 352.518,-796.077 358.114,-792.345 356.878,-797.19 356.878,-797.19 356.878,-797.19 358.114,-792.345 361.239,-798.302 359.349,-787.5 359.349,-787.5"/>
<polygon fill="#760cf9" stroke="#760cf9" points="559.179,-452.879 570.138,-453.26 563.807,-450.987 568.435,-449.095 568.435,-449.095 568.435,-449.095 563.807,-450.987 566.732,-444.929 559.179,-452.879 559.179,-452.879"/>
</g>
<!-- User&#45;&gt;Project -->
<g id="edge10" class="edge"><title>User&#45;&gt;Project</title>
<path fill="none" stroke="#d4806b" d="M413.454,-797.408C413.635,-797.272 413.818,-797.136 414,-797 479.106,-748.561 521.554,-799.479 593,-761 604.848,-754.619 616.271,-746.672 627.041,-737.926"/>
<polygon fill="#d4806b" stroke="#d4806b" points="413.262,-797.561 402.637,-800.273 409.352,-800.676 405.441,-803.792 405.441,-803.792 405.441,-803.792 409.352,-800.676 408.245,-807.312 413.262,-797.561 413.262,-797.561"/>
<polygon fill="#d4806b" stroke="#d4806b" points="627.112,-737.865 637.661,-734.869 630.938,-734.646 634.763,-731.426 634.763,-731.426 634.763,-731.426 630.938,-734.646 631.866,-727.983 627.112,-737.865 627.112,-737.865"/>
</g>
<!-- User&#45;&gt;ConsentLog -->
<g id="edge9" class="edge"><title>User&#45;&gt;ConsentLog</title>
<path fill="none" stroke="#2bb3b2" d="M409.01,-805.876C410.68,-802.895 412.344,-799.935 414,-797 428.832,-770.717 445.574,-742.28 460.724,-716.974"/>
<ellipse fill="none" stroke="#2bb3b2" cx="407.054" cy="-809.376" rx="4.00002" ry="4.00002"/>
<polygon fill="#2bb3b2" stroke="#2bb3b2" points="460.866,-716.738 469.869,-710.477 463.438,-712.45 466.01,-708.162 466.01,-708.162 466.01,-708.162 463.438,-712.45 462.152,-705.847 460.866,-716.738 460.866,-716.738"/>
</g>
<!-- Assessment -->
<g id="node17" class="node"><title>Assessment</title>
<path fill="none" stroke="black" d="M338,-361.5C338,-361.5 460,-361.5 460,-361.5 466,-361.5 472,-367.5 472,-373.5 472,-373.5 472,-470.5 472,-470.5 472,-476.5 466,-482.5 460,-482.5 460,-482.5 338,-482.5 338,-482.5 332,-482.5 326,-476.5 326,-470.5 326,-470.5 326,-373.5 326,-373.5 326,-367.5 332,-361.5 338,-361.5"/>
<text text-anchor="middle" x="399" y="-467.3" font-family="Times,serif" font-size="14.00">Assessment</text>
<polyline fill="none" stroke="black" points="326,-459.5 472,-459.5 "/>
<text text-anchor="start" x="334" y="-444.3" font-family="Times,serif" font-size="14.00">id :int(11)</text>
<text text-anchor="start" x="334" y="-429.3" font-family="Times,serif" font-size="14.00">end_date :date</text>
<text text-anchor="start" x="334" y="-414.3" font-family="Times,serif" font-size="14.00">start_date :varchar(255)</text>
<text text-anchor="start" x="334" y="-399.3" font-family="Times,serif" font-size="14.00">project_id :int(11)</text>
<text text-anchor="start" x="334" y="-384.3" font-family="Times,serif" font-size="14.00">created_at :datetime</text>
<text text-anchor="start" x="334" y="-369.3" font-family="Times,serif" font-size="14.00">updated_at :datetime</text>
</g>
<!-- User&#45;&gt;Assessment -->
<g id="edge12" class="edge"><title>User&#45;&gt;Assessment</title>
<path fill="none" stroke="#515b0e" d="M325.813,-787.28C337.777,-702.64 353.342,-606.022 372,-519 373.846,-510.39 376.024,-501.412 378.33,-492.553"/>
<polygon fill="#515b0e" stroke="#515b0e" points="325.8,-787.373 319.953,-796.65 325.105,-792.325 324.409,-797.276 324.409,-797.276 324.409,-797.276 325.105,-792.325 328.865,-797.902 325.8,-787.373 325.8,-787.373"/>
<polygon fill="#515b0e" stroke="#515b0e" points="378.4,-492.288 385.324,-483.785 379.688,-487.457 380.976,-482.626 380.976,-482.626 380.976,-482.626 379.688,-487.457 376.628,-481.466 378.4,-492.288 378.4,-492.288"/>
</g>
<!-- Roster -->
<g id="node8" class="node"><title>Roster</title>
<path fill="none" stroke="black" d="M641.5,-955C641.5,-955 748.5,-955 748.5,-955 754.5,-955 760.5,-961 760.5,-967 760.5,-967 760.5,-1064 760.5,-1064 760.5,-1070 754.5,-1076 748.5,-1076 748.5,-1076 641.5,-1076 641.5,-1076 635.5,-1076 629.5,-1070 629.5,-1064 629.5,-1064 629.5,-967 629.5,-967 629.5,-961 635.5,-955 641.5,-955"/>
<text text-anchor="middle" x="695" y="-1060.8" font-family="Times,serif" font-size="14.00">Roster</text>
<polyline fill="none" stroke="black" points="629.5,-1053 760.5,-1053 "/>
<text text-anchor="start" x="637.5" y="-1037.8" font-family="Times,serif" font-size="14.00">id :int(11)</text>
<text text-anchor="start" x="637.5" y="-1022.8" font-family="Times,serif" font-size="14.00">role_id :int(11)</text>
<text text-anchor="start" x="637.5" y="-1007.8" font-family="Times,serif" font-size="14.00">course_id :int(11)</text>
<text text-anchor="start" x="637.5" y="-992.8" font-family="Times,serif" font-size="14.00">user_id :int(11)</text>
<text text-anchor="start" x="637.5" y="-977.8" font-family="Times,serif" font-size="14.00">created_at :datetime</text>
<text text-anchor="start" x="637.5" y="-962.8" font-family="Times,serif" font-size="14.00">updated_at :datetime</text>
</g>
<!-- School -->
<g id="node9" class="node"><title>School</title>
<path fill="none" stroke="black" d="M951,-1270.5C951,-1270.5 1081,-1270.5 1081,-1270.5 1087,-1270.5 1093,-1276.5 1093,-1282.5 1093,-1282.5 1093,-1364.5 1093,-1364.5 1093,-1370.5 1087,-1376.5 1081,-1376.5 1081,-1376.5 951,-1376.5 951,-1376.5 945,-1376.5 939,-1370.5 939,-1364.5 939,-1364.5 939,-1282.5 939,-1282.5 939,-1276.5 945,-1270.5 951,-1270.5"/>
<text text-anchor="middle" x="1016" y="-1361.3" font-family="Times,serif" font-size="14.00">School</text>
<polyline fill="none" stroke="black" points="939,-1353.5 1093,-1353.5 "/>
<text text-anchor="start" x="947" y="-1338.3" font-family="Times,serif" font-size="14.00">id :int(11)</text>
<text text-anchor="start" x="947" y="-1323.3" font-family="Times,serif" font-size="14.00">description :varchar(255)</text>
<text text-anchor="start" x="947" y="-1308.3" font-family="Times,serif" font-size="14.00">name :varchar(255)</text>
<text text-anchor="start" x="947" y="-1293.3" font-family="Times,serif" font-size="14.00">created_at :datetime</text>
<text text-anchor="start" x="947" y="-1278.3" font-family="Times,serif" font-size="14.00">updated_at :datetime</text>
</g>
<!-- School&#45;&gt;Course -->
<g id="edge13" class="edge"><title>School&#45;&gt;Course</title>
<path fill="none" stroke="#73c393" d="M1016,-1261.95C1016,-1215.99 1016,-1152.23 1016,-1101.21"/>
<ellipse fill="none" stroke="#73c393" cx="1016" cy="-1266.24" rx="4" ry="4"/>
<polygon fill="#73c393" stroke="#73c393" points="1016,-1101.19 1020.5,-1091.19 1016,-1096.19 1016,-1091.19 1016,-1091.19 1016,-1091.19 1016,-1096.19 1011.5,-1091.19 1016,-1101.19 1016,-1101.19"/>
</g>
<!-- Report -->
<g id="node19" class="node"><title>Report</title>
<ellipse fill="none" stroke="black" cx="634" cy="-249" rx="34.394" ry="18"/>
<text text-anchor="middle" x="634" y="-245.3" font-family="Times,serif" font-size="14.00">Report</text>
</g>
<!-- Group&#45;&gt;Report -->
<g id="edge14" class="edge"><title>Group&#45;&gt;Report</title>
<path fill="none" stroke="#7ea64e" d="M634,-360.471C634,-331.987 634,-299.451 634,-277.105"/>
<ellipse fill="none" stroke="#7ea64e" cx="634" cy="-364.765" rx="4" ry="4"/>
<polygon fill="#7ea64e" stroke="#7ea64e" points="634,-277.016 638.5,-267.016 634,-272.016 634,-267.016 634,-267.016 634,-267.016 634,-272.016 629.5,-267.016 634,-277.016 634,-277.016"/>
</g>
<!-- Project&#45;&gt;Group -->
<g id="edge15" class="edge"><title>Project&#45;&gt;Group</title>
<path fill="none" stroke="#bd4ed2" d="M666.041,-511.728C662.677,-502.414 659.385,-493.297 656.269,-484.668"/>
<ellipse fill="none" stroke="#bd4ed2" cx="667.421" cy="-515.551" rx="4.00001" ry="4.00001"/>
<polygon fill="#bd4ed2" stroke="#bd4ed2" points="656.227,-484.553 657.063,-473.619 654.529,-479.85 652.831,-475.147 652.831,-475.147 652.831,-475.147 654.529,-479.85 648.598,-476.676 656.227,-484.553 656.227,-484.553"/>
</g>
<!-- Project&#45;&gt;Factor -->
<g id="edge17" class="edge"><title>Project&#45;&gt;Factor</title>
<path fill="none" stroke="#a80a4f" d="M796.244,-547.559C816.42,-525.659 837.454,-502.829 855.919,-482.787"/>
<polygon fill="#a80a4f" stroke="#a80a4f" points="795.999,-547.825 785.914,-552.131 792.611,-551.502 789.223,-555.18 789.223,-555.18 789.223,-555.18 792.611,-551.502 792.533,-558.229 795.999,-547.825 795.999,-547.825"/>
<polygon fill="#a80a4f" stroke="#a80a4f" points="856.087,-482.604 866.172,-478.298 859.475,-478.927 862.863,-475.249 862.863,-475.249 862.863,-475.249 859.475,-478.927 859.553,-472.2 856.087,-482.604 856.087,-482.604"/>
</g>
<!-- Project&#45;&gt;Assessment -->
<g id="edge16" class="edge"><title>Project&#45;&gt;Assessment</title>
<path fill="none" stroke="#e38d05" d="M628.989,-548.542C617.409,-537.98 605.262,-527.839 593,-519 558.859,-494.391 517.462,-472.941 481.691,-456.596"/>
<ellipse fill="none" stroke="#e38d05" cx="632.056" cy="-551.381" rx="4.00002" ry="4.00002"/>
<polygon fill="#e38d05" stroke="#e38d05" points="481.362,-456.448 474.095,-448.235 476.804,-454.393 472.245,-452.338 472.245,-452.338 472.245,-452.338 476.804,-454.393 470.396,-456.44 481.362,-456.448 481.362,-456.448"/>
</g>
<!-- Gender -->
<g id="node12" class="node"><title>Gender</title>
<path fill="none" stroke="black" d="M244.5,-1278C244.5,-1278 351.5,-1278 351.5,-1278 357.5,-1278 363.5,-1284 363.5,-1290 363.5,-1290 363.5,-1357 363.5,-1357 363.5,-1363 357.5,-1369 351.5,-1369 351.5,-1369 244.5,-1369 244.5,-1369 238.5,-1369 232.5,-1363 232.5,-1357 232.5,-1357 232.5,-1290 232.5,-1290 232.5,-1284 238.5,-1278 244.5,-1278"/>
<text text-anchor="middle" x="298" y="-1353.8" font-family="Times,serif" font-size="14.00">Gender</text>
<polyline fill="none" stroke="black" points="232.5,-1346 363.5,-1346 "/>
<text text-anchor="start" x="240.5" y="-1330.8" font-family="Times,serif" font-size="14.00">id :int(11)</text>
<text text-anchor="start" x="240.5" y="-1315.8" font-family="Times,serif" font-size="14.00">name :varchar(255)</text>
<text text-anchor="start" x="240.5" y="-1300.8" font-family="Times,serif" font-size="14.00">created_at :datetime</text>
<text text-anchor="start" x="240.5" y="-1285.8" font-family="Times,serif" font-size="14.00">updated_at :datetime</text>
</g>
<!-- Gender&#45;&gt;User -->
<g id="edge18" class="edge"><title>Gender&#45;&gt;User</title>
<path fill="none" stroke="#eca42c" d="M298,-1269.59C298,-1261.58 298,-1252.93 298,-1243.81"/>
<ellipse fill="none" stroke="#eca42c" cx="298" cy="-1273.68" rx="4" ry="4"/>
<polygon fill="#eca42c" stroke="#eca42c" points="298,-1243.74 302.5,-1233.74 298,-1238.74 298,-1233.74 298,-1233.74 298,-1233.74 298,-1238.74 293.5,-1233.74 298,-1243.74 298,-1243.74"/>
</g>
<!-- AgeRange -->
<g id="node13" class="node"><title>AgeRange</title>
<path fill="none" stroke="black" d="M1123.5,-1278C1123.5,-1278 1230.5,-1278 1230.5,-1278 1236.5,-1278 1242.5,-1284 1242.5,-1290 1242.5,-1290 1242.5,-1357 1242.5,-1357 1242.5,-1363 1236.5,-1369 1230.5,-1369 1230.5,-1369 1123.5,-1369 1123.5,-1369 1117.5,-1369 1111.5,-1363 1111.5,-1357 1111.5,-1357 1111.5,-1290 1111.5,-1290 1111.5,-1284 1117.5,-1278 1123.5,-1278"/>
<text text-anchor="middle" x="1177" y="-1353.8" font-family="Times,serif" font-size="14.00">AgeRange</text>
<polyline fill="none" stroke="black" points="1111.5,-1346 1242.5,-1346 "/>
<text text-anchor="start" x="1119.5" y="-1330.8" font-family="Times,serif" font-size="14.00">id :int(11)</text>
<text text-anchor="start" x="1119.5" y="-1315.8" font-family="Times,serif" font-size="14.00">name :varchar(255)</text>
<text text-anchor="start" x="1119.5" y="-1300.8" font-family="Times,serif" font-size="14.00">created_at :datetime</text>
<text text-anchor="start" x="1119.5" y="-1285.8" font-family="Times,serif" font-size="14.00">updated_at :datetime</text>
</g>
<!-- Assessment&#45;&gt;Installment -->
<g id="edge19" class="edge"><title>Assessment&#45;&gt;Installment</title>
<path fill="none" stroke="#1449d1" d="M379.212,-353.325C377.396,-347.114 375.541,-340.772 373.689,-334.437"/>
<ellipse fill="none" stroke="#1449d1" cx="380.39" cy="-357.353" rx="4.00001" ry="4.00001"/>
<polygon fill="#1449d1" stroke="#1449d1" points="373.593,-334.108 375.106,-323.247 372.19,-329.309 370.786,-324.51 370.786,-324.51 370.786,-324.51 372.19,-329.309 366.467,-325.772 373.593,-334.108 373.593,-334.108"/>
</g>
<!-- Role -->
<g id="node18" class="node"><title>Role</title>
<path fill="none" stroke="black" d="M512,-1270.5C512,-1270.5 642,-1270.5 642,-1270.5 648,-1270.5 654,-1276.5 654,-1282.5 654,-1282.5 654,-1364.5 654,-1364.5 654,-1370.5 648,-1376.5 642,-1376.5 642,-1376.5 512,-1376.5 512,-1376.5 506,-1376.5 500,-1370.5 500,-1364.5 500,-1364.5 500,-1282.5 500,-1282.5 500,-1276.5 506,-1270.5 512,-1270.5"/>
<text text-anchor="middle" x="577" y="-1361.3" font-family="Times,serif" font-size="14.00">Role</text>
<polyline fill="none" stroke="black" points="500,-1353.5 654,-1353.5 "/>
<text text-anchor="start" x="508" y="-1338.3" font-family="Times,serif" font-size="14.00">id :int(11)</text>
<text text-anchor="start" x="508" y="-1323.3" font-family="Times,serif" font-size="14.00">name :varchar(255)</text>
<text text-anchor="start" x="508" y="-1308.3" font-family="Times,serif" font-size="14.00">description :varchar(255)</text>
<text text-anchor="start" x="508" y="-1293.3" font-family="Times,serif" font-size="14.00">created_at :datetime</text>
<text text-anchor="start" x="508" y="-1278.3" font-family="Times,serif" font-size="14.00">updated_at :datetime</text>
</g>
<!-- Role&#45;&gt;User -->
<g id="edge20" class="edge"><title>Role&#45;&gt;User</title>
<path fill="none" stroke="#a2a02f" d="M492.578,-1288.47C465.188,-1274.53 436.177,-1256.34 414,-1234 413.341,-1233.34 412.684,-1232.67 412.03,-1231.99"/>
<ellipse fill="none" stroke="#a2a02f" cx="496.296" cy="-1290.32" rx="4.00002" ry="4.00002"/>
<polygon fill="#a2a02f" stroke="#a2a02f" points="411.962,-1231.92 408.418,-1221.54 408.546,-1228.27 405.131,-1224.62 405.131,-1224.62 405.131,-1224.62 408.546,-1228.27 401.845,-1227.69 411.962,-1231.92 411.962,-1231.92"/>
</g>
<!-- Role&#45;&gt;Roster -->
<g id="edge21" class="edge"><title>Role&#45;&gt;Roster</title>
<path fill="none" stroke="#d668b7" d="M607.185,-1262.85C611.674,-1253.29 616.098,-1243.43 620,-1234 640.153,-1185.27 659.466,-1128.96 673.446,-1085.85"/>
<ellipse fill="none" stroke="#d668b7" cx="605.462" cy="-1266.48" rx="4.00002" ry="4.00002"/>
<polygon fill="#d668b7" stroke="#d668b7" points="673.455,-1085.82 680.807,-1077.68 674.989,-1081.06 676.524,-1076.3 676.524,-1076.3 676.524,-1076.3 674.989,-1081.06 672.241,-1074.92 673.455,-1085.82 673.455,-1085.82"/>
</g>
</g>
</svg>
