<?xml version="1.0" encoding="UTF-8" standalone="no"?>
<!DOCTYPE svg PUBLIC "-//W3C//DTD SVG 1.1//EN"
 "http://www.w3.org/Graphics/SVG/1.1/DTD/svg11.dtd">
<!-- Generated by graphviz version 2.38.0 (20140413.2041)
 -->
<!-- Title: models_diagram Pages: 1 -->
<svg width="1084pt" height="590pt"
 viewBox="0.00 0.00 1083.99 590.00" xmlns="http://www.w3.org/2000/svg" xmlns:xlink="http://www.w3.org/1999/xlink">
<g id="graph0" class="graph" transform="scale(1 1) rotate(0) translate(4 586)">
<title>models_diagram</title>
<polygon fill="none" stroke="none" points="-4,4 -4,-586 1079.99,-586 1079.99,4 -4,4"/>
<!-- _diagram_info -->
<g id="node1" class="node"><title>_diagram_info</title>
<text text-anchor="start" x="711.046" y="-567.6" font-family="Times,serif" font-size="13.00">Models diagram</text>
<text text-anchor="start" x="711.046" y="-553.6" font-family="Times,serif" font-size="13.00">Date: Apr 25 2017 &#45; 15:00</text>
<text text-anchor="start" x="711.046" y="-539.6" font-family="Times,serif" font-size="13.00">Migration version: 20170425000307</text>
<text text-anchor="start" x="711.046" y="-525.6" font-family="Times,serif" font-size="13.00">Generated by RailRoady 1.5.2</text>
<text text-anchor="start" x="711.046" y="-511.6" font-family="Times,serif" font-size="13.00">http://railroady.prestonlee.com</text>
</g>
<!-- GroupProjectCount -->
<g id="node2" class="node"><title>GroupProjectCount</title>
<ellipse fill="none" stroke="black" cx="764.046" cy="-450" rx="79.0865" ry="18"/>
<text text-anchor="middle" x="764.046" y="-446.3" font-family="Times,serif" font-size="14.00">GroupProjectCount</text>
</g>
<!-- User -->
<g id="node11" class="node"><title>User</title>
<ellipse fill="none" stroke="black" cx="570.046" cy="-378" rx="27.0966" ry="18"/>
<text text-anchor="middle" x="570.046" y="-374.3" font-family="Times,serif" font-size="14.00">User</text>
</g>
<!-- GroupProjectCount&#45;&gt;User -->
<g id="edge1" class="edge"><title>GroupProjectCount&#45;&gt;User</title>
<path fill="none" stroke="#a0b15e" d="M715.769,-431.581C680.541,-418.87 633.732,-401.98 602.785,-390.813"/>
<ellipse fill="none" stroke="#a0b15e" cx="719.614" cy="-432.968" rx="4.00001" ry="4.00001"/>
<polygon fill="#a0b15e" stroke="#a0b15e" points="602.736,-390.796 594.857,-383.169 598.033,-389.099 593.33,-387.402 593.33,-387.402 593.33,-387.402 598.033,-389.099 591.802,-391.634 602.736,-390.796 602.736,-390.796"/>
</g>
<!-- Theme -->
<g id="node3" class="node"><title>Theme</title>
<ellipse fill="none" stroke="black" cx="324.046" cy="-450" rx="35.9954" ry="18"/>
<text text-anchor="middle" x="324.046" y="-446.3" font-family="Times,serif" font-size="14.00">Theme</text>
</g>
<!-- Theme&#45;&gt;User -->
<g id="edge2" class="edge"><title>Theme&#45;&gt;User</title>
<path fill="none" stroke="#739fc0" d="M359.174,-435.332C362.495,-434.16 365.824,-433.03 369.046,-432 426.438,-413.647 494.468,-396.689 534.846,-387.113"/>
<ellipse fill="none" stroke="#739fc0" cx="355.254" cy="-436.753" rx="4.00001" ry="4.00001"/>
<polygon fill="#739fc0" stroke="#739fc0" points="535.002,-387.076 545.768,-389.165 539.869,-385.93 544.736,-384.784 544.736,-384.784 544.736,-384.784 539.869,-385.93 543.705,-380.404 535.002,-387.076 535.002,-387.076"/>
</g>
<!-- FactorPack -->
<g id="node4" class="node"><title>FactorPack</title>
<ellipse fill="none" stroke="black" cx="930.046" cy="-378" rx="50.0912" ry="18"/>
<text text-anchor="middle" x="930.046" y="-374.3" font-family="Times,serif" font-size="14.00">FactorPack</text>
</g>
<!-- Project -->
<g id="node16" class="node"><title>Project</title>
<ellipse fill="none" stroke="black" cx="874.046" cy="-306" rx="35.9954" ry="18"/>
<text text-anchor="middle" x="874.046" y="-302.3" font-family="Times,serif" font-size="14.00">Project</text>
</g>
<!-- FactorPack&#45;&gt;Project -->
<g id="edge4" class="edge"><title>FactorPack&#45;&gt;Project</title>
<path fill="none" stroke="#4acf58" d="M911.648,-354.003C905.811,-346.707 899.34,-338.619 893.436,-331.238"/>
<ellipse fill="none" stroke="#4acf58" cx="914.276" cy="-357.287" rx="4.00002" ry="4.00002"/>
<polygon fill="#4acf58" stroke="#4acf58" points="893.083,-330.797 890.35,-320.177 889.96,-326.892 886.836,-322.988 886.836,-322.988 886.836,-322.988 889.96,-326.892 883.322,-325.799 893.083,-330.797 893.083,-330.797"/>
</g>
<!-- Factor -->
<g id="node21" class="node"><title>Factor</title>
<ellipse fill="none" stroke="black" cx="864.046" cy="-162" rx="33.2948" ry="18"/>
<text text-anchor="middle" x="864.046" y="-158.3" font-family="Times,serif" font-size="14.00">Factor</text>
</g>
<!-- FactorPack&#45;&gt;Factor -->
<g id="edge3" class="edge"><title>FactorPack&#45;&gt;Factor</title>
<path fill="none" stroke="#dfadd6" d="M928.755,-349.973C927.405,-332.123 924.652,-308.357 919.046,-288 909.153,-252.08 890.682,-213.159 877.891,-188.456"/>
<polygon fill="#dfadd6" stroke="#dfadd6" points="928.757,-350.005 924.923,-360.279 929.085,-354.995 929.413,-359.984 929.413,-359.984 929.413,-359.984 929.085,-354.995 933.903,-359.689 928.757,-350.005 928.757,-350.005"/>
<polygon fill="#dfadd6" stroke="#dfadd6" points="877.788,-188.259 877.113,-177.314 875.459,-183.835 873.131,-179.41 873.131,-179.41 873.131,-179.41 875.459,-183.835 869.149,-181.505 877.788,-188.259 877.788,-188.259"/>
</g>
<!-- Course -->
<g id="node5" class="node"><title>Course</title>
<ellipse fill="none" stroke="black" cx="970.046" cy="-450" rx="35.9954" ry="18"/>
<text text-anchor="middle" x="970.046" y="-446.3" font-family="Times,serif" font-size="14.00">Course</text>
</g>
<!-- Course&#45;&gt;User -->
<g id="edge8" class="edge"><title>Course&#45;&gt;User</title>
<path fill="none" stroke="#eab3ac" d="M933.61,-434.393C930.737,-433.5 927.86,-432.687 925.046,-432 792.875,-399.72 753.827,-425.666 621.046,-396 615.094,-394.67 608.857,-392.912 602.87,-391.03"/>
<polygon fill="#eab3ac" stroke="#eab3ac" points="933.785,-434.452 941.81,-441.925 938.52,-436.058 943.255,-437.663 943.255,-437.663 943.255,-437.663 938.52,-436.058 944.7,-433.402 933.785,-434.452 933.785,-434.452"/>
<polygon fill="#eab3ac" stroke="#eab3ac" points="602.615,-390.945 594.537,-383.529 597.868,-389.373 593.122,-387.801 593.122,-387.801 593.122,-387.801 597.868,-389.373 591.707,-392.072 602.615,-390.945 602.615,-390.945"/>
</g>
<!-- Roster -->
<g id="node13" class="node"><title>Roster</title>
<ellipse fill="none" stroke="black" cx="1008.05" cy="-306" rx="33.5952" ry="18"/>
<text text-anchor="middle" x="1008.05" y="-302.3" font-family="Times,serif" font-size="14.00">Roster</text>
</g>
<!-- Course&#45;&gt;Roster -->
<g id="edge6" class="edge"><title>Course&#45;&gt;Roster</title>
<path fill="none" stroke="#bf1cad" d="M996.221,-429.789C1006.3,-420.787 1016.67,-409.143 1022.05,-396 1030.28,-375.842 1025.42,-351.288 1019.27,-333.08"/>
<ellipse fill="none" stroke="#bf1cad" cx="993.081" cy="-432.455" rx="4.00002" ry="4.00002"/>
<polygon fill="#bf1cad" stroke="#bf1cad" points="1019.26,-333.065 1020.02,-322.125 1017.53,-328.376 1015.8,-323.686 1015.8,-323.686 1015.8,-323.686 1017.53,-328.376 1011.58,-325.247 1019.26,-333.065 1019.26,-333.065"/>
</g>
<!-- Course&#45;&gt;Project -->
<g id="edge5" class="edge"><title>Course&#45;&gt;Project</title>
<path fill="none" stroke="#b33afd" d="M934.92,-434.794C909.49,-423.711 878.353,-408.202 871.046,-396 859.971,-377.509 861.848,-352.763 865.855,-334.058"/>
<ellipse fill="none" stroke="#b33afd" cx="938.919" cy="-436.508" rx="4.00001" ry="4.00001"/>
<polygon fill="#b33afd" stroke="#b33afd" points="865.915,-333.813 872.674,-325.177 867.11,-328.957 868.304,-324.102 868.304,-324.102 868.304,-324.102 867.11,-328.957 863.935,-323.027 865.915,-333.813 865.915,-333.813"/>
</g>
<!-- Experience -->
<g id="node33" class="node"><title>Experience</title>
<ellipse fill="none" stroke="black" cx="50.0456" cy="-306" rx="50.0912" ry="18"/>
<text text-anchor="middle" x="50.0456" y="-302.3" font-family="Times,serif" font-size="14.00">Experience</text>
</g>
<!-- Course&#45;&gt;Experience -->
<g id="edge9" class="edge"><title>Course&#45;&gt;Experience</title>
<path fill="none" stroke="#dfc303" d="M935.928,-435.027C932.295,-433.866 928.621,-432.824 925.046,-432 754.99,-392.809 707.068,-418.76 534.046,-396 346.274,-371.299 299.087,-364.351 114.046,-324 108.78,-322.852 103.298,-321.554 97.8534,-320.2"/>
<ellipse fill="none" stroke="#dfc303" cx="939.979" cy="-436.419" rx="4.00001" ry="4.00001"/>
<polygon fill="#dfc303" stroke="#dfc303" points="97.84,-320.197 89.2644,-313.363 92.9954,-318.96 88.1509,-317.723 88.1509,-317.723 88.1509,-317.723 92.9954,-318.96 87.0375,-322.083 97.84,-320.197 97.84,-320.197"/>
</g>
<!-- BingoGame -->
<g id="node34" class="node"><title>BingoGame</title>
<ellipse fill="none" stroke="black" cx="1022.05" cy="-234" rx="53.8905" ry="18"/>
<text text-anchor="middle" x="1022.05" y="-230.3" font-family="Times,serif" font-size="14.00">BingoGame</text>
</g>
<!-- Course&#45;&gt;BingoGame -->
<g id="edge7" class="edge"><title>Course&#45;&gt;BingoGame</title>
<path fill="none" stroke="#581099" d="M1001.36,-432.221C1015.07,-423.275 1030.04,-411 1039.05,-396 1063.9,-354.588 1063.01,-334.79 1051.05,-288 1048.6,-278.448 1044.04,-268.765 1039.25,-260.335"/>
<ellipse fill="none" stroke="#581099" cx="997.742" cy="-434.477" rx="4.00002" ry="4.00002"/>
<polygon fill="#581099" stroke="#581099" points="1039.23,-260.299 1037.9,-249.414 1036.64,-256.022 1034.05,-251.745 1034.05,-251.745 1034.05,-251.745 1036.64,-256.022 1030.2,-254.076 1039.23,-260.299 1039.23,-260.299"/>
</g>
<!-- Style -->
<g id="node6" class="node"><title>Style</title>
<ellipse fill="none" stroke="black" cx="795.046" cy="-378" rx="28.6953" ry="18"/>
<text text-anchor="middle" x="795.046" y="-374.3" font-family="Times,serif" font-size="14.00">Style</text>
</g>
<!-- Style&#45;&gt;Project -->
<g id="edge10" class="edge"><title>Style&#45;&gt;Project</title>
<path fill="none" stroke="#d754b6" d="M817.312,-357.271C827.338,-348.387 839.207,-337.87 849.491,-328.758"/>
<ellipse fill="none" stroke="#d754b6" cx="814.026" cy="-360.182" rx="4.00002" ry="4.00002"/>
<polygon fill="#d754b6" stroke="#d754b6" points="849.504,-328.745 859.973,-325.482 853.247,-325.429 856.989,-322.114 856.989,-322.114 856.989,-322.114 853.247,-325.429 854.004,-318.745 849.504,-328.745 849.504,-328.745"/>
</g>
<!-- Behavior -->
<g id="node7" class="node"><title>Behavior</title>
<ellipse fill="none" stroke="black" cx="265.046" cy="-162" rx="42.7926" ry="18"/>
<text text-anchor="middle" x="265.046" y="-158.3" font-family="Times,serif" font-size="14.00">Behavior</text>
</g>
<!-- Diagnosis -->
<g id="node20" class="node"><title>Diagnosis</title>
<ellipse fill="none" stroke="black" cx="213.046" cy="-18" rx="46.2923" ry="18"/>
<text text-anchor="middle" x="213.046" y="-14.3" font-family="Times,serif" font-size="14.00">Diagnosis</text>
</g>
<!-- Behavior&#45;&gt;Diagnosis -->
<g id="edge13" class="edge"><title>Behavior&#45;&gt;Diagnosis</title>
<path fill="none" stroke="#a620ea" d="M256.111,-136.6C246.867,-111.359 232.47,-72.0434 222.901,-45.913"/>
<ellipse fill="none" stroke="#a620ea" cx="257.501" cy="-140.397" rx="4.00001" ry="4.00001"/>
<polygon fill="#a620ea" stroke="#a620ea" points="222.808,-45.658 223.595,-34.7204 221.088,-40.9629 219.369,-36.2678 219.369,-36.2678 219.369,-36.2678 221.088,-40.9629 215.143,-37.8152 222.808,-45.658 222.808,-45.658"/>
</g>
<!-- Scenario -->
<g id="node29" class="node"><title>Scenario</title>
<ellipse fill="none" stroke="black" cx="304.046" cy="-90" rx="41.6928" ry="18"/>
<text text-anchor="middle" x="304.046" y="-86.3" font-family="Times,serif" font-size="14.00">Scenario</text>
</g>
<!-- Behavior&#45;&gt;Scenario -->
<g id="edge11" class="edge"><title>Behavior&#45;&gt;Scenario</title>
<path fill="none" stroke="#64ebba" d="M278.224,-137.346C281.916,-130.719 285.948,-123.483 289.704,-116.74"/>
<ellipse fill="none" stroke="#64ebba" cx="276.235" cy="-140.917" rx="4.00002" ry="4.00002"/>
<polygon fill="#64ebba" stroke="#64ebba" points="289.731,-116.692 298.53,-110.146 292.165,-112.324 294.599,-107.956 294.599,-107.956 294.599,-107.956 292.165,-112.324 290.667,-105.766 289.731,-116.692 289.731,-116.692"/>
</g>
<!-- Reaction -->
<g id="node30" class="node"><title>Reaction</title>
<ellipse fill="none" stroke="black" cx="124.046" cy="-90" rx="42.4939" ry="18"/>
<text text-anchor="middle" x="124.046" y="-86.3" font-family="Times,serif" font-size="14.00">Reaction</text>
</g>
<!-- Behavior&#45;&gt;Reaction -->
<g id="edge12" class="edge"><title>Behavior&#45;&gt;Reaction</title>
<path fill="none" stroke="#1a7ddc" d="M231.126,-144.16C209.454,-133.401 181.402,-119.475 159.447,-108.575"/>
<ellipse fill="none" stroke="#1a7ddc" cx="234.942" cy="-146.055" rx="4.00002" ry="4.00002"/>
<polygon fill="#1a7ddc" stroke="#1a7ddc" points="159.405,-108.554 152.449,-100.077 154.926,-106.331 150.448,-104.107 150.448,-104.107 150.448,-104.107 154.926,-106.331 148.447,-108.138 159.405,-108.554 159.405,-108.554"/>
</g>
<!-- CandidateFeedback -->
<g id="node8" class="node"><title>CandidateFeedback</title>
<ellipse fill="none" stroke="black" cx="786.046" cy="-90" rx="79.8859" ry="18"/>
<text text-anchor="middle" x="786.046" y="-86.3" font-family="Times,serif" font-size="14.00">CandidateFeedback</text>
</g>
<!-- Candidate -->
<g id="node25" class="node"><title>Candidate</title>
<ellipse fill="none" stroke="black" cx="944.046" cy="-18" rx="46.2923" ry="18"/>
<text text-anchor="middle" x="944.046" y="-14.3" font-family="Times,serif" font-size="14.00">Candidate</text>
</g>
<!-- CandidateFeedback&#45;&gt;Candidate -->
<g id="edge14" class="edge"><title>CandidateFeedback&#45;&gt;Candidate</title>
<path fill="none" stroke="#2f74da" d="M828.21,-70.3193C852.227,-59.6792 882.095,-46.4465 905.486,-36.0833"/>
<ellipse fill="none" stroke="#2f74da" cx="824.376" cy="-72.0179" rx="4.00002" ry="4.00002"/>
<polygon fill="#2f74da" stroke="#2f74da" points="905.611,-36.0282 916.576,-36.0918 910.182,-34.0028 914.754,-31.9775 914.754,-31.9775 914.754,-31.9775 910.182,-34.0028 912.931,-27.8632 905.611,-36.0282 905.611,-36.0282"/>
</g>
<!-- Installment -->
<g id="node9" class="node"><title>Installment</title>
<ellipse fill="none" stroke="black" cx="453.046" cy="-90" rx="50.8918" ry="18"/>
<text text-anchor="middle" x="453.046" y="-86.3" font-family="Times,serif" font-size="14.00">Installment</text>
</g>
<!-- Value -->
<g id="node28" class="node"><title>Value</title>
<ellipse fill="none" stroke="black" cx="453.046" cy="-18" rx="31.6951" ry="18"/>
<text text-anchor="middle" x="453.046" y="-14.3" font-family="Times,serif" font-size="14.00">Value</text>
</g>
<!-- Installment&#45;&gt;Value -->
<g id="edge15" class="edge"><title>Installment&#45;&gt;Value</title>
<path fill="none" stroke="#29bdd1" d="M453.046,-63.6398C453.046,-58.0629 453.046,-52.1319 453.046,-46.4761"/>
<ellipse fill="none" stroke="#29bdd1" cx="453.046" cy="-67.6966" rx="4" ry="4"/>
<polygon fill="#29bdd1" stroke="#29bdd1" points="453.046,-46.1043 457.546,-36.1043 453.046,-41.1043 453.046,-36.1043 453.046,-36.1043 453.046,-36.1043 453.046,-41.1043 448.546,-36.1044 453.046,-46.1043 453.046,-46.1043"/>
</g>
<!-- ConsentForm -->
<g id="node10" class="node"><title>ConsentForm</title>
<ellipse fill="none" stroke="black" cx="689.046" cy="-378" rx="59.2899" ry="18"/>
<text text-anchor="middle" x="689.046" y="-374.3" font-family="Times,serif" font-size="14.00">ConsentForm</text>
</g>
<!-- ConsentForm&#45;&gt;Project -->
<g id="edge16" class="edge"><title>ConsentForm&#45;&gt;Project</title>
<path fill="none" stroke="#674d15" d="M732.458,-360.574C764.078,-348.609 806.472,-332.568 836.608,-321.166"/>
<ellipse fill="none" stroke="#674d15" cx="728.457" cy="-362.088" rx="4.00001" ry="4.00001"/>
<polygon fill="#674d15" stroke="#674d15" points="836.971,-321.028 847.917,-321.698 841.648,-319.259 846.324,-317.489 846.324,-317.489 846.324,-317.489 841.648,-319.259 844.732,-313.28 836.971,-321.028 836.971,-321.028"/>
</g>
<!-- ConsentLog -->
<g id="node27" class="node"><title>ConsentLog</title>
<ellipse fill="none" stroke="black" cx="766.046" cy="-306" rx="53.8905" ry="18"/>
<text text-anchor="middle" x="766.046" y="-302.3" font-family="Times,serif" font-size="14.00">ConsentLog</text>
</g>
<!-- ConsentForm&#45;&gt;ConsentLog -->
<g id="edge17" class="edge"><title>ConsentForm&#45;&gt;ConsentLog</title>
<path fill="none" stroke="#962f62" d="M713.003,-355.22C721.823,-347.202 731.837,-338.099 740.769,-329.979"/>
<ellipse fill="none" stroke="#962f62" cx="709.864" cy="-358.074" rx="4.00002" ry="4.00002"/>
<polygon fill="#962f62" stroke="#962f62" points="740.884,-329.874 751.311,-326.477 744.584,-326.511 748.284,-323.147 748.284,-323.147 748.284,-323.147 744.584,-326.511 745.256,-319.818 740.884,-329.874 740.884,-329.874"/>
</g>
<!-- User&#45;&gt;Installment -->
<g id="edge25" class="edge"><title>User&#45;&gt;Installment</title>
<path fill="none" stroke="#207405" d="M534.773,-374.428C501.779,-369.932 454.211,-357.625 431.046,-324 387.343,-260.564 420.437,-163.296 440.549,-117.098"/>
<ellipse fill="none" stroke="#207405" cx="538.853" cy="-374.926" rx="4.00001" ry="4.00001"/>
<polygon fill="#207405" stroke="#207405" points="440.633,-116.91 448.836,-109.631 442.682,-112.349 444.731,-107.788 444.731,-107.788 444.731,-107.788 442.682,-112.349 440.626,-105.944 440.633,-116.91 440.633,-116.91"/>
</g>
<!-- Concept -->
<g id="node12" class="node"><title>Concept</title>
<ellipse fill="none" stroke="black" cx="1012.05" cy="-162" rx="40.0939" ry="18"/>
<text text-anchor="middle" x="1012.05" y="-158.3" font-family="Times,serif" font-size="14.00">Concept</text>
</g>
<!-- User&#45;&gt;Concept -->
<g id="edge22" class="edge"><title>User&#45;&gt;Concept</title>
<path fill="none" stroke="#1fc80b" d="M598.055,-362.077C616.2,-352.031 640.083,-338.09 660.046,-324 680.409,-309.627 681.677,-300.83 703.046,-288 791.87,-234.67 907.584,-194.796 969.135,-175.641"/>
<ellipse fill="none" stroke="#1fc80b" cx="594.165" cy="-364.209" rx="4.00002" ry="4.00002"/>
<polygon fill="#1fc80b" stroke="#1fc80b" points="969.339,-175.578 980.221,-176.936 974.118,-174.107 978.897,-172.636 978.897,-172.636 978.897,-172.636 974.118,-174.107 977.573,-168.335 969.339,-175.578 969.339,-175.578"/>
</g>
<!-- User&#45;&gt;Roster -->
<g id="edge26" class="edge"><title>User&#45;&gt;Roster</title>
<path fill="none" stroke="#742a8a" d="M601.128,-365.536C607.64,-363.447 614.515,-361.467 621.046,-360 751.209,-330.758 787.227,-344.527 919.046,-324 934.832,-321.542 952.1,-318.358 967.19,-315.412"/>
<ellipse fill="none" stroke="#742a8a" cx="596.918" cy="-366.943" rx="4.00001" ry="4.00001"/>
<polygon fill="#742a8a" stroke="#742a8a" points="967.435,-315.364 978.118,-317.836 972.34,-314.393 977.244,-313.422 977.244,-313.422 977.244,-313.422 972.34,-314.393 976.371,-309.008 967.435,-315.364 967.435,-315.364"/>
</g>
<!-- Group -->
<g id="node15" class="node"><title>Group</title>
<ellipse fill="none" stroke="black" cx="641.046" cy="-162" rx="33.2948" ry="18"/>
<text text-anchor="middle" x="641.046" y="-158.3" font-family="Times,serif" font-size="14.00">Group</text>
</g>
<!-- User&#45;&gt;Group -->
<g id="edge19" class="edge"><title>User&#45;&gt;Group</title>
<path fill="none" stroke="#5399f4" d="M568.036,-349.194C566.784,-315.86 568.401,-259.103 589.046,-216 594.933,-203.707 604.828,-192.528 614.415,-183.639"/>
<polygon fill="#5399f4" stroke="#5399f4" points="568.054,-349.559 564.052,-359.769 568.3,-354.553 568.547,-359.547 568.547,-359.547 568.547,-359.547 568.3,-354.553 573.041,-359.325 568.054,-349.559 568.054,-349.559"/>
<polygon fill="#5399f4" stroke="#5399f4" points="614.439,-183.619 624.924,-180.407 618.197,-180.321 621.956,-177.024 621.956,-177.024 621.956,-177.024 618.197,-180.321 618.989,-173.641 614.439,-183.619 614.439,-183.619"/>
</g>
<!-- User&#45;&gt;Project -->
<g id="edge23" class="edge"><title>User&#45;&gt;Project</title>
<path fill="none" stroke="#ab8cdb" d="M603.109,-365.178C609.036,-363.289 615.189,-361.474 621.046,-360 712.027,-337.101 738.534,-348.689 829.046,-324 831.84,-323.238 834.704,-322.37 837.566,-321.439"/>
<polygon fill="#ab8cdb" stroke="#ab8cdb" points="602.933,-365.236 592.026,-364.109 598.187,-366.808 593.441,-368.381 593.441,-368.381 593.441,-368.381 598.187,-366.808 594.856,-372.652 602.933,-365.236 602.933,-365.236"/>
<polygon fill="#ab8cdb" stroke="#ab8cdb" points="837.747,-321.376 848.67,-322.344 842.47,-319.735 847.192,-318.094 847.192,-318.094 847.192,-318.094 842.47,-319.735 845.715,-313.843 837.747,-321.376 837.747,-321.376"/>
</g>
<!-- Email -->
<g id="node18" class="node"><title>Email</title>
<ellipse fill="none" stroke="black" cx="472.046" cy="-306" rx="32.4942" ry="18"/>
<text text-anchor="middle" x="472.046" y="-302.3" font-family="Times,serif" font-size="14.00">Email</text>
</g>
<!-- User&#45;&gt;Email -->
<g id="edge18" class="edge"><title>User&#45;&gt;Email</title>
<path fill="none" stroke="#b1eae1" d="M545.231,-359.275C531.354,-349.363 514.023,-336.984 499.71,-326.761"/>
<ellipse fill="none" stroke="#b1eae1" cx="548.816" cy="-361.836" rx="4.00002" ry="4.00002"/>
<polygon fill="#b1eae1" stroke="#b1eae1" points="499.384,-326.527 493.862,-317.053 495.315,-323.621 491.246,-320.715 491.246,-320.715 491.246,-320.715 495.315,-323.621 488.631,-324.377 499.384,-326.527 499.384,-326.527"/>
</g>
<!-- Narrative -->
<g id="node24" class="node"><title>Narrative</title>
<ellipse fill="none" stroke="black" cx="287.046" cy="-306" rx="44.393" ry="18"/>
<text text-anchor="middle" x="287.046" y="-302.3" font-family="Times,serif" font-size="14.00">Narrative</text>
</g>
<!-- User&#45;&gt;Narrative -->
<g id="edge29" class="edge"><title>User&#45;&gt;Narrative</title>
<path fill="none" stroke="#85ba1c" d="M535.18,-368.376C484.51,-355.843 390.407,-332.567 333.779,-318.56"/>
<polygon fill="#85ba1c" stroke="#85ba1c" points="535.224,-368.387 543.851,-375.156 540.077,-369.587 544.931,-370.788 544.931,-370.788 544.931,-370.788 540.077,-369.587 546.012,-366.42 535.224,-368.387 535.224,-368.387"/>
<polygon fill="#85ba1c" stroke="#85ba1c" points="333.709,-318.542 325.083,-311.773 328.856,-317.342 324.002,-316.141 324.002,-316.141 324.002,-316.141 328.856,-317.342 322.921,-320.51 333.709,-318.542 333.709,-318.542"/>
</g>
<!-- User&#45;&gt;Candidate -->
<g id="edge24" class="edge"><title>User&#45;&gt;Candidate</title>
<path fill="none" stroke="#5f44f3" d="M559.371,-352.677C548.131,-324.811 532.046,-277.506 532.046,-235 532.046,-235 532.046,-235 532.046,-161 532.046,-120.553 521.376,-99.489 551.046,-72 598.859,-27.701 790.946,-19.9381 887.724,-18.8987"/>
<ellipse fill="none" stroke="#5f44f3" cx="561.01" cy="-356.641" rx="4.00001" ry="4.00001"/>
<polygon fill="#5f44f3" stroke="#5f44f3" points="887.912,-18.8972 897.951,-23.3103 892.912,-18.8538 897.912,-18.8104 897.912,-18.8104 897.912,-18.8104 892.912,-18.8538 897.873,-14.3106 887.912,-18.8972 887.912,-18.8972"/>
</g>
<!-- User&#45;&gt;ConsentLog -->
<g id="edge20" class="edge"><title>User&#45;&gt;ConsentLog</title>
<path fill="none" stroke="#a603a6" d="M601.297,-365.839C633.682,-354.273 684.599,-336.088 721.258,-322.996"/>
<ellipse fill="none" stroke="#a603a6" cx="597.455" cy="-367.211" rx="4.00001" ry="4.00001"/>
<polygon fill="#a603a6" stroke="#a603a6" points="721.303,-322.979 732.234,-323.854 726.012,-321.298 730.721,-319.616 730.721,-319.616 730.721,-319.616 726.012,-321.298 729.207,-315.378 721.303,-322.979 721.303,-322.979"/>
</g>
<!-- User&#45;&gt;Reaction -->
<g id="edge27" class="edge"><title>User&#45;&gt;Reaction</title>
<path fill="none" stroke="#f877a9" d="M534.946,-372.662C454.33,-362.528 260.788,-337.164 234.046,-324 163.679,-289.363 149.015,-256.571 132.046,-180 127.542,-159.68 125.562,-136.216 124.697,-118.483"/>
<ellipse fill="none" stroke="#f877a9" cx="539.326" cy="-373.211" rx="4.00001" ry="4.00001"/>
<polygon fill="#f877a9" stroke="#f877a9" points="124.688,-118.254 128.786,-108.083 124.489,-113.258 124.29,-108.262 124.29,-108.262 124.29,-108.262 124.489,-113.258 119.793,-108.441 124.688,-118.254 124.688,-118.254"/>
</g>
<!-- Assessment -->
<g id="node31" class="node"><title>Assessment</title>
<ellipse fill="none" stroke="black" cx="651.046" cy="-234" rx="52.7911" ry="18"/>
<text text-anchor="middle" x="651.046" y="-230.3" font-family="Times,serif" font-size="14.00">Assessment</text>
</g>
<!-- User&#45;&gt;Assessment -->
<g id="edge30" class="edge"><title>User&#45;&gt;Assessment</title>
<path fill="none" stroke="#c3b1a7" d="M584.319,-351.977C598.912,-326.395 621.475,-286.84 636.253,-260.932"/>
<polygon fill="#c3b1a7" stroke="#c3b1a7" points="584.135,-352.301 575.271,-358.757 581.657,-356.644 579.18,-360.987 579.18,-360.987 579.18,-360.987 581.657,-356.644 583.089,-363.217 584.135,-352.301 584.135,-352.301"/>
<polygon fill="#c3b1a7" stroke="#c3b1a7" points="636.362,-260.742 645.225,-254.285 638.839,-256.399 641.317,-252.056 641.317,-252.056 641.317,-252.056 638.839,-256.399 637.408,-249.826 636.362,-260.742 636.362,-260.742"/>
</g>
<!-- CandidateList -->
<g id="node32" class="node"><title>CandidateList</title>
<ellipse fill="none" stroke="black" cx="944.046" cy="-90" rx="59.5901" ry="18"/>
<text text-anchor="middle" x="944.046" y="-86.3" font-family="Times,serif" font-size="14.00">CandidateList</text>
</g>
<!-- User&#45;&gt;CandidateList -->
<g id="edge21" class="edge"><title>User&#45;&gt;CandidateList</title>
<path fill="none" stroke="#27571d" d="M590.911,-357.201C601.255,-347.307 613.891,-335.106 625.046,-324 640.86,-308.256 642.95,-302.343 660.046,-288 681.86,-269.698 691.061,-270.098 713.046,-252 765.698,-208.657 765.58,-182.243 822.046,-144 844.548,-128.76 872.144,-116.331 895.395,-107.35"/>
<ellipse fill="none" stroke="#27571d" cx="588.007" cy="-359.972" rx="4.00002" ry="4.00002"/>
<polygon fill="#27571d" stroke="#27571d" points="895.706,-107.233 906.65,-107.925 900.386,-105.473 905.067,-103.713 905.067,-103.713 905.067,-103.713 900.386,-105.473 903.483,-99.5011 895.706,-107.233 895.706,-107.233"/>
</g>
<!-- User&#45;&gt;Experience -->
<g id="edge28" class="edge"><title>User&#45;&gt;Experience</title>
<path fill="none" stroke="#23167a" d="M532.54,-374.478C454.245,-368.81 267.911,-353.22 114.046,-324 108.681,-322.981 103.103,-321.755 97.5769,-320.434"/>
<polygon fill="#23167a" stroke="#23167a" points="532.882,-374.502 542.537,-379.7 537.869,-374.857 542.856,-375.212 542.856,-375.212 542.856,-375.212 537.869,-374.857 543.176,-370.723 532.882,-374.502 532.882,-374.502"/>
<polygon fill="#23167a" stroke="#23167a" points="97.4435,-320.401 88.8323,-313.611 92.5926,-319.189 87.7416,-317.977 87.7416,-317.977 87.7416,-317.977 92.5926,-319.189 86.651,-322.343 97.4435,-320.401 97.4435,-320.401"/>
</g>
<!-- Concept&#45;&gt;Candidate -->
<g id="edge31" class="edge"><title>Concept&#45;&gt;Candidate</title>
<path fill="none" stroke="#70de6d" d="M1018.16,-135.905C1021.36,-117.299 1022.82,-91.8324 1013.05,-72 1006.1,-57.909 993.411,-46.5198 980.79,-37.9629"/>
<ellipse fill="none" stroke="#70de6d" cx="1017.37" cy="-140" rx="4.00001" ry="4.00001"/>
<polygon fill="#70de6d" stroke="#70de6d" points="980.588,-37.8354 974.539,-28.6889 976.362,-35.1641 972.135,-32.4929 972.135,-32.4929 972.135,-32.4929 976.362,-35.1641 969.731,-36.2969 980.588,-37.8354 980.588,-37.8354"/>
</g>
<!-- School -->
<g id="node14" class="node"><title>School</title>
<ellipse fill="none" stroke="black" cx="970.046" cy="-543" rx="35.194" ry="18"/>
<text text-anchor="middle" x="970.046" y="-539.3" font-family="Times,serif" font-size="14.00">School</text>
</g>
<!-- School&#45;&gt;Course -->
<g id="edge32" class="edge"><title>School&#45;&gt;Course</title>
<path fill="none" stroke="#fe1121" d="M970.046,-516.729C970.046,-504.725 970.046,-490.362 970.046,-478.129"/>
<ellipse fill="none" stroke="#fe1121" cx="970.046" cy="-520.884" rx="4" ry="4"/>
<polygon fill="#fe1121" stroke="#fe1121" points="970.046,-478.04 974.546,-468.04 970.046,-473.04 970.046,-468.04 970.046,-468.04 970.046,-468.04 970.046,-473.04 965.546,-468.04 970.046,-478.04 970.046,-478.04"/>
</g>
<!-- Group&#45;&gt;Installment -->
<g id="edge35" class="edge"><title>Group&#45;&gt;Installment</title>
<path fill="none" stroke="#57e0b3" d="M606.668,-148.2C575.627,-136.642 529.813,-119.583 496.294,-107.103"/>
<ellipse fill="none" stroke="#57e0b3" cx="610.76" cy="-149.723" rx="4.00001" ry="4.00001"/>
<polygon fill="#57e0b3" stroke="#57e0b3" points="496.125,-107.04 488.324,-99.3337 491.439,-105.296 486.754,-103.551 486.754,-103.551 486.754,-103.551 491.439,-105.296 485.183,-107.768 496.125,-107.04 496.125,-107.04"/>
</g>
<!-- GroupRevision -->
<g id="node26" class="node"><title>GroupRevision</title>
<ellipse fill="none" stroke="black" cx="624.046" cy="-90" rx="64.189" ry="18"/>
<text text-anchor="middle" x="624.046" y="-86.3" font-family="Times,serif" font-size="14.00">GroupRevision</text>
</g>
<!-- Group&#45;&gt;GroupRevision -->
<g id="edge33" class="edge"><title>Group&#45;&gt;GroupRevision</title>
<path fill="none" stroke="#ea45d8" d="M635.039,-136.267C633.635,-130.485 632.131,-124.291 630.7,-118.4"/>
<ellipse fill="none" stroke="#ea45d8" cx="635.986" cy="-140.168" rx="4.00001" ry="4.00001"/>
<polygon fill="#ea45d8" stroke="#ea45d8" points="630.601,-117.993 632.614,-107.213 629.421,-113.134 628.241,-108.275 628.241,-108.275 628.241,-108.275 629.421,-113.134 623.868,-109.337 630.601,-117.993 630.601,-117.993"/>
</g>
<!-- Group&#45;&gt;CandidateList -->
<g id="edge34" class="edge"><title>Group&#45;&gt;CandidateList</title>
<path fill="none" stroke="#3e23b1" d="M679.355,-152.555C725.741,-142.277 806.213,-124.273 875.046,-108 879.751,-106.888 884.632,-105.718 889.525,-104.533"/>
<ellipse fill="none" stroke="#3e23b1" cx="675.284" cy="-153.456" rx="4.00001" ry="4.00001"/>
<polygon fill="#3e23b1" stroke="#3e23b1" points="889.818,-104.462 900.599,-106.469 894.676,-103.28 899.535,-102.097 899.535,-102.097 899.535,-102.097 894.676,-103.28 898.47,-97.7246 889.818,-104.462 889.818,-104.462"/>
</g>
<!-- Project&#45;&gt;Group -->
<g id="edge36" class="edge"><title>Project&#45;&gt;Group</title>
<path fill="none" stroke="#e7a1f8" d="M845.198,-287.419C800.826,-260.377 716.244,-208.829 671.135,-181.338"/>
<ellipse fill="none" stroke="#e7a1f8" cx="848.71" cy="-289.559" rx="4.00002" ry="4.00002"/>
<polygon fill="#e7a1f8" stroke="#e7a1f8" points="670.94,-181.219 664.742,-172.172 666.67,-178.617 662.4,-176.015 662.4,-176.015 662.4,-176.015 666.67,-178.617 660.058,-179.857 670.94,-181.219 670.94,-181.219"/>
</g>
<!-- Project&#45;&gt;Factor -->
<g id="edge39" class="edge"><title>Project&#45;&gt;Factor</title>
<path fill="none" stroke="#10643d" d="M872.122,-277.679C870.355,-252.599 867.752,-215.627 865.982,-190.493"/>
<polygon fill="#10643d" stroke="#10643d" points="872.137,-277.896 868.35,-288.188 872.488,-282.884 872.839,-287.871 872.839,-287.871 872.839,-287.871 872.488,-282.884 877.328,-287.555 872.137,-277.896 872.137,-277.896"/>
<polygon fill="#10643d" stroke="#10643d" points="865.959,-190.165 869.745,-179.873 865.607,-185.177 865.256,-180.189 865.256,-180.189 865.256,-180.189 865.607,-185.177 860.767,-180.505 865.959,-190.165 865.959,-190.165"/>
</g>
<!-- Project&#45;&gt;Assessment -->
<g id="edge38" class="edge"><title>Project&#45;&gt;Assessment</title>
<path fill="none" stroke="#366bc5" d="M838.881,-291.44C835.568,-290.245 832.25,-289.081 829.046,-288 786.038,-273.494 736.509,-258.916 700.633,-248.731"/>
<ellipse fill="none" stroke="#366bc5" cx="842.797" cy="-292.877" rx="4.00001" ry="4.00001"/>
<polygon fill="#366bc5" stroke="#366bc5" points="700.516,-248.698 692.117,-241.649 695.705,-247.339 690.893,-245.979 690.893,-245.979 690.893,-245.979 695.705,-247.339 689.669,-250.309 700.516,-248.698 700.516,-248.698"/>
</g>
<!-- Project&#45;&gt;BingoGame -->
<g id="edge37" class="edge"><title>Project&#45;&gt;BingoGame</title>
<path fill="none" stroke="#2ff85d" d="M906.413,-289.691C928.974,-279.02 959.188,-264.73 983.073,-253.433"/>
<ellipse fill="none" stroke="#2ff85d" cx="902.768" cy="-291.415" rx="4.00002" ry="4.00002"/>
<polygon fill="#2ff85d" stroke="#2ff85d" points="983.178,-253.383 994.142,-253.176 987.698,-251.245 992.218,-249.108 992.218,-249.108 992.218,-249.108 987.698,-251.245 990.294,-245.04 983.178,-253.383 983.178,-253.383"/>
</g>
<!-- Gender -->
<g id="node17" class="node"><title>Gender</title>
<ellipse fill="none" stroke="black" cx="414.046" cy="-450" rx="36.2938" ry="18"/>
<text text-anchor="middle" x="414.046" y="-446.3" font-family="Times,serif" font-size="14.00">Gender</text>
</g>
<!-- Gender&#45;&gt;User -->
<g id="edge40" class="edge"><title>Gender&#45;&gt;User</title>
<path fill="none" stroke="#a64e4d" d="M447.559,-433.962C474.577,-421.838 512.293,-404.915 538.712,-393.06"/>
<ellipse fill="none" stroke="#a64e4d" cx="443.806" cy="-435.646" rx="4.00002" ry="4.00002"/>
<polygon fill="#a64e4d" stroke="#a64e4d" points="538.77,-393.034 549.736,-393.045 543.332,-390.987 547.894,-388.94 547.894,-388.94 547.894,-388.94 543.332,-390.987 546.052,-384.834 538.77,-393.034 538.77,-393.034"/>
</g>
<!-- AgeRange -->
<g id="node19" class="node"><title>AgeRange</title>
<ellipse fill="none" stroke="black" cx="516.046" cy="-450" rx="48.1917" ry="18"/>
<text text-anchor="middle" x="516.046" y="-446.3" font-family="Times,serif" font-size="14.00">AgeRange</text>
</g>
<!-- AgeRange&#45;&gt;User -->
<g id="edge41" class="edge"><title>AgeRange&#45;&gt;User</title>
<path fill="none" stroke="#28285e" d="M533.86,-425.908C539.574,-418.5 545.912,-410.285 551.666,-402.826"/>
<ellipse fill="none" stroke="#28285e" cx="531.286" cy="-429.244" rx="4.00002" ry="4.00002"/>
<polygon fill="#28285e" stroke="#28285e" points="551.972,-402.429 561.643,-397.259 555.026,-398.47 558.08,-394.511 558.08,-394.511 558.08,-394.511 555.026,-398.47 554.517,-391.762 551.972,-402.429 551.972,-402.429"/>
</g>
<!-- Diagnosis&#45;&gt;User -->
<g id="edge42" class="edge"><title>Diagnosis&#45;&gt;User</title>
<path fill="none" stroke="#08cf48" d="M264.616,-25.7203C295.204,-32.3959 332.321,-45.6655 355.046,-72 381.47,-102.622 374.046,-120.553 374.046,-161 374.046,-235 374.046,-235 374.046,-235 374.046,-278.01 380.443,-294.826 412.046,-324 446.291,-355.613 499.999,-368.427 535.116,-373.583"/>
<ellipse fill="none" stroke="#08cf48" cx="260.507" cy="-24.8829" rx="4.00001" ry="4.00001"/>
<ellipse fill="#08cf48" stroke="#08cf48" cx="539.221" cy="-374.141" rx="4.00001" ry="4.00001"/>
</g>
<!-- CipCode -->
<g id="node22" class="node"><title>CipCode</title>
<ellipse fill="none" stroke="black" cx="624.046" cy="-450" rx="42.4939" ry="18"/>
<text text-anchor="middle" x="624.046" y="-446.3" font-family="Times,serif" font-size="14.00">CipCode</text>
</g>
<!-- CipCode&#45;&gt;User -->
<g id="edge43" class="edge"><title>CipCode&#45;&gt;User</title>
<path fill="none" stroke="#3d4ac1" d="M606.501,-426.257C600.774,-418.833 594.397,-410.567 588.599,-403.05"/>
<ellipse fill="none" stroke="#3d4ac1" cx="609.078" cy="-429.598" rx="4.00002" ry="4.00002"/>
<polygon fill="#3d4ac1" stroke="#3d4ac1" points="588.239,-402.584 585.694,-391.917 585.185,-398.625 582.131,-394.666 582.131,-394.666 582.131,-394.666 585.185,-398.625 578.568,-397.414 588.239,-402.584 588.239,-402.584"/>
</g>
<!-- Week -->
<g id="node23" class="node"><title>Week</title>
<ellipse fill="none" stroke="black" cx="227.046" cy="-234" rx="31.6951" ry="18"/>
<text text-anchor="middle" x="227.046" y="-230.3" font-family="Times,serif" font-size="14.00">Week</text>
</g>
<!-- Week&#45;&gt;Behavior -->
<g id="edge44" class="edge"><title>Week&#45;&gt;Behavior</title>
<path fill="none" stroke="#4549e7" d="M239.886,-209.346C243.729,-202.267 247.949,-194.493 251.817,-187.369"/>
<ellipse fill="none" stroke="#4549e7" cx="237.959" cy="-212.896" rx="4.00002" ry="4.00002"/>
<ellipse fill="#4549e7" stroke="#4549e7" cx="253.932" cy="-183.472" rx="4.00002" ry="4.00002"/>
</g>
<!-- Week&#45;&gt;Diagnosis -->
<g id="edge45" class="edge"><title>Week&#45;&gt;Diagnosis</title>
<path fill="none" stroke="#182fc7" d="M219.116,-208.332C216.653,-199.494 214.265,-189.394 213.046,-180 206.993,-133.385 208.892,-78.5359 210.908,-46.3875"/>
<ellipse fill="none" stroke="#182fc7" cx="220.245" cy="-212.198" rx="4.00001" ry="4.00001"/>
<polygon fill="#182fc7" stroke="#182fc7" points="210.935,-45.9907 216.103,-36.3189 211.274,-41.0022 211.613,-36.0137 211.613,-36.0137 211.613,-36.0137 211.274,-41.0022 207.124,-35.7085 210.935,-45.9907 210.935,-45.9907"/>
</g>
<!-- Narrative&#45;&gt;Behavior -->
<g id="edge47" class="edge"><title>Narrative&#45;&gt;Behavior</title>
<path fill="none" stroke="#898cc8" d="M283.161,-279.929C279.17,-254.165 272.988,-214.266 268.979,-188.387"/>
<ellipse fill="none" stroke="#898cc8" cx="283.779" cy="-283.919" rx="4.00001" ry="4.00001"/>
<ellipse fill="#898cc8" stroke="#898cc8" cx="268.321" cy="-184.142" rx="4.00001" ry="4.00001"/>
</g>
<!-- Narrative&#45;&gt;Week -->
<g id="edge46" class="edge"><title>Narrative&#45;&gt;Week</title>
<path fill="none" stroke="#3eba89" d="M267.804,-282.551C261.26,-274.917 253.93,-266.365 247.309,-258.64"/>
<ellipse fill="none" stroke="#3eba89" cx="270.526" cy="-285.728" rx="4.00002" ry="4.00002"/>
<polygon fill="#3eba89" stroke="#3eba89" points="246.981,-258.258 243.89,-247.737 243.727,-254.462 240.473,-250.666 240.473,-250.666 240.473,-250.666 243.727,-254.462 237.057,-253.594 246.981,-258.258 246.981,-258.258"/>
</g>
<!-- Narrative&#45;&gt;Reaction -->
<g id="edge48" class="edge"><title>Narrative&#45;&gt;Reaction</title>
<path fill="none" stroke="#c223e0" d="M245.497,-291.17C225.259,-282.627 201.927,-269.834 186.046,-252 151.385,-213.079 135.199,-152.688 128.385,-117.994"/>
<ellipse fill="none" stroke="#c223e0" cx="249.372" cy="-292.738" rx="4.00001" ry="4.00001"/>
<polygon fill="#c223e0" stroke="#c223e0" points="128.375,-117.938 130.987,-107.288 127.469,-113.021 126.562,-108.104 126.562,-108.104 126.562,-108.104 127.469,-113.021 122.136,-108.92 128.375,-117.938 128.375,-117.938"/>
</g>
<!-- Scenario&#45;&gt;Narrative -->
<g id="edge49" class="edge"><title>Scenario&#45;&gt;Narrative</title>
<path fill="none" stroke="#37f31b" d="M311.48,-115.974C313.743,-124.751 315.926,-134.734 317.046,-144 322.832,-191.885 307.776,-247.005 296.96,-278.744"/>
<ellipse fill="none" stroke="#37f31b" cx="310.365" cy="-111.854" rx="4.00001" ry="4.00001"/>
<polygon fill="#37f31b" stroke="#37f31b" points="296.955,-278.758 289.385,-286.692 295.292,-283.473 293.629,-288.189 293.629,-288.189 293.629,-288.189 295.292,-283.473 297.872,-289.685 296.955,-278.758 296.955,-278.758"/>
</g>
<!-- Reaction&#45;&gt;Diagnosis -->
<g id="edge50" class="edge"><title>Reaction&#45;&gt;Diagnosis</title>
<path fill="none" stroke="#321dc5" d="M149.911,-68.6562C161.094,-59.8605 174.194,-49.5576 185.553,-40.6234"/>
<ellipse fill="none" stroke="#321dc5" cx="146.501" cy="-71.3382" rx="4.00002" ry="4.00002"/>
<polygon fill="#321dc5" stroke="#321dc5" points="185.604,-40.5832 196.246,-37.9381 189.534,-37.4921 193.464,-34.401 193.464,-34.401 193.464,-34.401 189.534,-37.4921 190.682,-30.864 185.604,-40.5832 185.604,-40.5832"/>
</g>
<!-- Assessment&#45;&gt;Installment -->
<g id="edge51" class="edge"><title>Assessment&#45;&gt;Installment</title>
<path fill="none" stroke="#53a9cc" d="M622.879,-212.8C585.869,-186.257 521.13,-139.828 483.17,-112.605"/>
<ellipse fill="none" stroke="#53a9cc" cx="626.229" cy="-215.202" rx="4.00002" ry="4.00002"/>
<polygon fill="#53a9cc" stroke="#53a9cc" points="482.712,-112.276 477.208,-102.791 478.648,-109.362 474.585,-106.448 474.585,-106.448 474.585,-106.448 478.648,-109.362 471.963,-110.105 482.712,-112.276 482.712,-112.276"/>
</g>
<!-- Assessment&#45;&gt;Group -->
<g id="edge53" class="edge"><title>Assessment&#45;&gt;Group</title>
<path fill="none" stroke="#2d5b01" d="M647.141,-205.665C646.41,-200.552 645.647,-195.21 644.917,-190.104"/>
<polygon fill="#2d5b01" stroke="#2d5b01" points="647.159,-205.797 644.119,-216.333 647.866,-210.747 648.574,-215.697 648.574,-215.697 648.574,-215.697 647.866,-210.747 653.028,-215.06 647.159,-205.797 647.159,-205.797"/>
<polygon fill="#2d5b01" stroke="#2d5b01" points="644.903,-190.004 647.944,-179.468 644.196,-185.054 643.489,-180.104 643.489,-180.104 643.489,-180.104 644.196,-185.054 639.034,-180.741 644.903,-190.004 644.903,-190.004"/>
</g>
<!-- Assessment&#45;&gt;Factor -->
<g id="edge52" class="edge"><title>Assessment&#45;&gt;Factor</title>
<path fill="none" stroke="#04ca3f" d="M697.206,-217.83C735.978,-205.088 790.676,-187.112 826.727,-175.264"/>
<polygon fill="#04ca3f" stroke="#04ca3f" points="697.162,-217.844 686.257,-216.692 692.412,-219.405 687.662,-220.967 687.662,-220.967 687.662,-220.967 692.412,-219.405 689.067,-225.242 697.162,-217.844 697.162,-217.844"/>
<polygon fill="#04ca3f" stroke="#04ca3f" points="826.873,-175.217 837.778,-176.369 831.623,-173.655 836.373,-172.094 836.373,-172.094 836.373,-172.094 831.623,-173.655 834.968,-167.819 826.873,-175.217 826.873,-175.217"/>
</g>
<!-- CandidateList&#45;&gt;Candidate -->
<g id="edge54" class="edge"><title>CandidateList&#45;&gt;Candidate</title>
<path fill="none" stroke="#c3e1a2" d="M944.046,-63.6398C944.046,-58.0629 944.046,-52.1319 944.046,-46.4761"/>
<ellipse fill="none" stroke="#c3e1a2" cx="944.046" cy="-67.6966" rx="4" ry="4"/>
<polygon fill="#c3e1a2" stroke="#c3e1a2" points="944.046,-46.1043 948.546,-36.1043 944.046,-41.1043 944.046,-36.1043 944.046,-36.1043 944.046,-36.1043 944.046,-41.1043 939.546,-36.1044 944.046,-46.1043 944.046,-46.1043"/>
</g>
<!-- Experience&#45;&gt;Reaction -->
<g id="edge55" class="edge"><title>Experience&#45;&gt;Reaction</title>
<path fill="none" stroke="#f74888" d="M58.0718,-280.121C68.3772,-248.404 86.9714,-191.929 104.046,-144 107.129,-135.344 110.626,-125.946 113.824,-117.501"/>
<ellipse fill="none" stroke="#f74888" cx="56.7484" cy="-284.203" rx="4.00001" ry="4.00001"/>
<polygon fill="#f74888" stroke="#f74888" points="113.836,-117.47 121.603,-109.729 115.617,-112.798 117.398,-108.126 117.398,-108.126 117.398,-108.126 115.617,-112.798 113.193,-106.523 113.836,-117.47 113.836,-117.47"/>
</g>
<!-- BingoGame&#45;&gt;Concept -->
<g id="edge58" class="edge"><title>BingoGame&#45;&gt;Concept</title>
<path fill="none" stroke="#53ee16" d="M1018.14,-205.665C1017.41,-200.552 1016.65,-195.21 1015.92,-190.104"/>
<polygon fill="#53ee16" stroke="#53ee16" points="1018.16,-205.797 1015.12,-216.333 1018.87,-210.747 1019.57,-215.697 1019.57,-215.697 1019.57,-215.697 1018.87,-210.747 1024.03,-215.06 1018.16,-205.797 1018.16,-205.797"/>
<polygon fill="#53ee16" stroke="#53ee16" points="1015.9,-190.004 1018.94,-179.468 1015.2,-185.054 1014.49,-180.104 1014.49,-180.104 1014.49,-180.104 1015.2,-185.054 1010.03,-180.741 1015.9,-190.004 1015.9,-190.004"/>
</g>
<!-- BingoGame&#45;&gt;Candidate -->
<g id="edge57" class="edge"><title>BingoGame&#45;&gt;Candidate</title>
<path fill="none" stroke="#ae21db" d="M1045.01,-208.581C1051.48,-200.164 1057.68,-190.257 1061.05,-180 1066.04,-164.798 1064.18,-159.689 1061.05,-144 1054.25,-110.007 1053.62,-98.3076 1031.05,-72 1018.12,-56.9385 999.809,-44.8974 983.318,-36.1227"/>
<polygon fill="#ae21db" stroke="#ae21db" points="1044.88,-208.734 1035.05,-213.602 1041.7,-212.597 1038.53,-216.459 1038.53,-216.459 1038.53,-216.459 1041.7,-212.597 1042.01,-219.317 1044.88,-208.734 1044.88,-208.734"/>
<polygon fill="#ae21db" stroke="#ae21db" points="983.304,-36.1157 976.428,-27.5738 978.846,-33.8506 974.389,-31.5856 974.389,-31.5856 974.389,-31.5856 978.846,-33.8506 972.35,-35.5973 983.304,-36.1157 983.304,-36.1157"/>
</g>
<!-- BingoGame&#45;&gt;CandidateList -->
<g id="edge56" class="edge"><title>BingoGame&#45;&gt;CandidateList</title>
<path fill="none" stroke="#7b1944" d="M992.291,-212.538C981.551,-203.714 970.299,-192.534 963.046,-180 952.13,-161.138 947.461,-136.766 945.477,-118.296"/>
<ellipse fill="none" stroke="#7b1944" cx="995.729" cy="-215.245" rx="4.00002" ry="4.00002"/>
<polygon fill="#7b1944" stroke="#7b1944" points="945.464,-118.151 949.074,-107.797 945.028,-113.17 944.591,-108.189 944.591,-108.189 944.591,-108.189 945.028,-113.17 940.108,-108.582 945.464,-118.151 945.464,-118.151"/>
</g>
<!-- Role -->
<g id="node35" class="node"><title>Role</title>
<ellipse fill="none" stroke="black" cx="889.046" cy="-450" rx="27.0966" ry="18"/>
<text text-anchor="middle" x="889.046" y="-446.3" font-family="Times,serif" font-size="14.00">Role</text>
</g>
<!-- Role&#45;&gt;User -->
<g id="edge59" class="edge"><title>Role&#45;&gt;User</title>
<path fill="none" stroke="#908796" d="M860.769,-435.059C857.864,-433.914 854.922,-432.867 852.046,-432 752.557,-402.024 722.018,-420.515 621.046,-396 615.119,-394.561 608.895,-392.749 602.912,-390.848"/>
<ellipse fill="none" stroke="#908796" cx="864.623" cy="-436.694" rx="4.00002" ry="4.00002"/>
<polygon fill="#908796" stroke="#908796" points="602.657,-390.764 594.582,-383.345 597.911,-389.19 593.165,-387.616 593.165,-387.616 593.165,-387.616 597.911,-389.19 591.748,-391.887 602.657,-390.764 602.657,-390.764"/>
</g>
<!-- Role&#45;&gt;Roster -->
<g id="edge60" class="edge"><title>Role&#45;&gt;Roster</title>
<path fill="none" stroke="#a58f9e" d="M918.234,-435.097C946.015,-421.617 984.283,-402.306 989.046,-396 1002.4,-378.317 1006.83,-353.296 1008.1,-334.285"/>
<ellipse fill="none" stroke="#a58f9e" cx="914.314" cy="-436.989" rx="4.00002" ry="4.00002"/>
<polygon fill="#a58f9e" stroke="#a58f9e" points="1008.1,-334.148 1013.02,-324.345 1008.31,-329.153 1008.52,-324.157 1008.52,-324.157 1008.52,-324.157 1008.31,-329.153 1004.02,-323.969 1008.1,-334.148 1008.1,-334.148"/>
</g>
</g>
</svg>
