<?xml version="1.0" encoding="UTF-8" standalone="no"?>
<!DOCTYPE svg PUBLIC "-//W3C//DTD SVG 1.1//EN"
 "http://www.w3.org/Graphics/SVG/1.1/DTD/svg11.dtd">
<!-- Generated by graphviz version 2.36.0 (20140111.2315)
 -->
<!-- Title: models_diagram Pages: 1 -->
<svg width="2125pt" height="1636pt"
 viewBox="0.00 0.00 2125.38 1636.00" xmlns="http://www.w3.org/2000/svg" xmlns:xlink="http://www.w3.org/1999/xlink">
<g id="graph0" class="graph" transform="scale(1 1) rotate(0) translate(4 1632)">
<title>models_diagram</title>
<polygon fill="none" stroke="none" points="-4,4 -4,-1632 2121.38,-1632 2121.38,4 -4,4"/>
<!-- _diagram_info -->
<g id="node1" class="node"><title>_diagram_info</title>
<text text-anchor="start" x="70.8819" y="-1598.6" font-family="Times,serif" font-size="13.00">Models diagram</text>
<text text-anchor="start" x="70.8819" y="-1584.6" font-family="Times,serif" font-size="13.00">Date: Feb 06 2017 &#45; 18:07</text>
<text text-anchor="start" x="70.8819" y="-1570.6" font-family="Times,serif" font-size="13.00">Migration version: 20170206071120</text>
<text text-anchor="start" x="70.8819" y="-1556.6" font-family="Times,serif" font-size="13.00">Generated by RailRoady 1.5.2</text>
<text text-anchor="start" x="70.8819" y="-1542.6" font-family="Times,serif" font-size="13.00">http://railroady.prestonlee.com</text>
</g>
<!-- AgeRange -->
<g id="node2" class="node"><title>AgeRange</title>
<path fill="none" stroke="black" d="M914.382,-881.5C914.382,-881.5 1060.38,-881.5 1060.38,-881.5 1066.38,-881.5 1072.38,-887.5 1072.38,-893.5 1072.38,-893.5 1072.38,-960.5 1072.38,-960.5 1072.38,-966.5 1066.38,-972.5 1060.38,-972.5 1060.38,-972.5 914.382,-972.5 914.382,-972.5 908.382,-972.5 902.382,-966.5 902.382,-960.5 902.382,-960.5 902.382,-893.5 902.382,-893.5 902.382,-887.5 908.382,-881.5 914.382,-881.5"/>
<text text-anchor="middle" x="987.382" y="-957.3" font-family="Times,serif" font-size="14.00">AgeRange</text>
<polyline fill="none" stroke="black" points="902.382,-949.5 1072.38,-949.5 "/>
<text text-anchor="start" x="910.382" y="-934.3" font-family="Times,serif" font-size="14.00">id :int(11)</text>
<text text-anchor="start" x="910.382" y="-919.3" font-family="Times,serif" font-size="14.00">name :varchar(255)</text>
<text text-anchor="start" x="910.382" y="-904.3" font-family="Times,serif" font-size="14.00">created_at :datetime</text>
<text text-anchor="start" x="910.382" y="-889.3" font-family="Times,serif" font-size="14.00">updated_at :datetime</text>
</g>
<!-- User -->
<g id="node25" class="node"><title>User</title>
<path fill="none" stroke="black" d="M972.882,-363C972.882,-363 1227.88,-363 1227.88,-363 1233.88,-363 1239.88,-369 1239.88,-375 1239.88,-375 1239.88,-817 1239.88,-817 1239.88,-823 1233.88,-829 1227.88,-829 1227.88,-829 972.882,-829 972.882,-829 966.882,-829 960.882,-823 960.882,-817 960.882,-817 960.882,-375 960.882,-375 960.882,-369 966.882,-363 972.882,-363"/>
<text text-anchor="middle" x="1100.38" y="-813.8" font-family="Times,serif" font-size="14.00">User</text>
<polyline fill="none" stroke="black" points="960.882,-806 1239.88,-806 "/>
<text text-anchor="start" x="968.882" y="-790.8" font-family="Times,serif" font-size="14.00">id :int(11)</text>
<text text-anchor="start" x="968.882" y="-775.8" font-family="Times,serif" font-size="14.00">email :varchar(255)</text>
<text text-anchor="start" x="968.882" y="-760.8" font-family="Times,serif" font-size="14.00">encrypted_password :varchar(255)</text>
<text text-anchor="start" x="968.882" y="-745.8" font-family="Times,serif" font-size="14.00">reset_password_token :varchar(255)</text>
<text text-anchor="start" x="968.882" y="-730.8" font-family="Times,serif" font-size="14.00">reset_password_sent_at :datetime</text>
<text text-anchor="start" x="968.882" y="-715.8" font-family="Times,serif" font-size="14.00">remember_created_at :datetime</text>
<text text-anchor="start" x="968.882" y="-700.8" font-family="Times,serif" font-size="14.00">sign_in_count :int(11)</text>
<text text-anchor="start" x="968.882" y="-685.8" font-family="Times,serif" font-size="14.00">current_sign_in_at :datetime</text>
<text text-anchor="start" x="968.882" y="-670.8" font-family="Times,serif" font-size="14.00">last_sign_in_at :datetime</text>
<text text-anchor="start" x="968.882" y="-655.8" font-family="Times,serif" font-size="14.00">current_sign_in_ip :varchar(255)</text>
<text text-anchor="start" x="968.882" y="-640.8" font-family="Times,serif" font-size="14.00">last_sign_in_ip :varchar(255)</text>
<text text-anchor="start" x="968.882" y="-625.8" font-family="Times,serif" font-size="14.00">confirmation_token :varchar(255)</text>
<text text-anchor="start" x="968.882" y="-610.8" font-family="Times,serif" font-size="14.00">confirmed_at :datetime</text>
<text text-anchor="start" x="968.882" y="-595.8" font-family="Times,serif" font-size="14.00">confirmation_sent_at :datetime</text>
<text text-anchor="start" x="968.882" y="-580.8" font-family="Times,serif" font-size="14.00">unconfirmed_email :varchar(255)</text>
<text text-anchor="start" x="968.882" y="-565.8" font-family="Times,serif" font-size="14.00">failed_attempts :int(11)</text>
<text text-anchor="start" x="968.882" y="-550.8" font-family="Times,serif" font-size="14.00">unlock_token :varchar(255)</text>
<text text-anchor="start" x="968.882" y="-535.8" font-family="Times,serif" font-size="14.00">locked_at :datetime</text>
<text text-anchor="start" x="968.882" y="-520.8" font-family="Times,serif" font-size="14.00">created_at :datetime</text>
<text text-anchor="start" x="968.882" y="-505.8" font-family="Times,serif" font-size="14.00">updated_at :datetime</text>
<text text-anchor="start" x="968.882" y="-490.8" font-family="Times,serif" font-size="14.00">first_name :varchar(255)</text>
<text text-anchor="start" x="968.882" y="-475.8" font-family="Times,serif" font-size="14.00">last_name :varchar(255)</text>
<text text-anchor="start" x="968.882" y="-460.8" font-family="Times,serif" font-size="14.00">gender_id :int(11)</text>
<text text-anchor="start" x="968.882" y="-445.8" font-family="Times,serif" font-size="14.00">age_range_id :int(11)</text>
<text text-anchor="start" x="968.882" y="-430.8" font-family="Times,serif" font-size="14.00">country :varchar(255)</text>
<text text-anchor="start" x="968.882" y="-415.8" font-family="Times,serif" font-size="14.00">timezone :varchar(255)</text>
<text text-anchor="start" x="968.882" y="-400.8" font-family="Times,serif" font-size="14.00">admin :tinyint(1)</text>
<text text-anchor="start" x="968.882" y="-385.8" font-family="Times,serif" font-size="14.00">welcomed :tinyint(1)</text>
<text text-anchor="start" x="968.882" y="-370.8" font-family="Times,serif" font-size="14.00">last_emailed :datetime</text>
</g>
<!-- AgeRange&#45;&gt;User -->
<g id="edge1" class="edge"><title>AgeRange&#45;&gt;User</title>
<path fill="none" stroke="#c2463d" d="M1005.34,-873.711C1008.97,-863.158 1012.99,-851.429 1017.29,-838.927"/>
<ellipse fill="none" stroke="#c2463d" cx="1004.04" cy="-877.504" rx="4.00001" ry="4.00001"/>
<polygon fill="#c2463d" stroke="#c2463d" points="1017.37,-838.68 1024.88,-830.684 1019,-833.951 1020.62,-829.222 1020.62,-829.222 1020.62,-829.222 1019,-833.951 1016.37,-827.76 1017.37,-838.68 1017.37,-838.68"/>
</g>
<!-- Assessment -->
<g id="node3" class="node"><title>Assessment</title>
<path fill="none" stroke="black" d="M1734.38,-866.5C1734.38,-866.5 1880.38,-866.5 1880.38,-866.5 1886.38,-866.5 1892.38,-872.5 1892.38,-878.5 1892.38,-878.5 1892.38,-975.5 1892.38,-975.5 1892.38,-981.5 1886.38,-987.5 1880.38,-987.5 1880.38,-987.5 1734.38,-987.5 1734.38,-987.5 1728.38,-987.5 1722.38,-981.5 1722.38,-975.5 1722.38,-975.5 1722.38,-878.5 1722.38,-878.5 1722.38,-872.5 1728.38,-866.5 1734.38,-866.5"/>
<text text-anchor="middle" x="1807.38" y="-972.3" font-family="Times,serif" font-size="14.00">Assessment</text>
<polyline fill="none" stroke="black" points="1722.38,-964.5 1892.38,-964.5 "/>
<text text-anchor="start" x="1730.38" y="-949.3" font-family="Times,serif" font-size="14.00">id :int(11)</text>
<text text-anchor="start" x="1730.38" y="-934.3" font-family="Times,serif" font-size="14.00">end_date :datetime</text>
<text text-anchor="start" x="1730.38" y="-919.3" font-family="Times,serif" font-size="14.00">start_date :datetime</text>
<text text-anchor="start" x="1730.38" y="-904.3" font-family="Times,serif" font-size="14.00">project_id :int(11)</text>
<text text-anchor="start" x="1730.38" y="-889.3" font-family="Times,serif" font-size="14.00">created_at :datetime</text>
<text text-anchor="start" x="1730.38" y="-874.3" font-family="Times,serif" font-size="14.00">updated_at :datetime</text>
</g>
<!-- Factor -->
<g id="node11" class="node"><title>Factor</title>
<path fill="none" stroke="black" d="M1742.38,-543C1742.38,-543 1918.38,-543 1918.38,-543 1924.38,-543 1930.38,-549 1930.38,-555 1930.38,-555 1930.38,-637 1930.38,-637 1930.38,-643 1924.38,-649 1918.38,-649 1918.38,-649 1742.38,-649 1742.38,-649 1736.38,-649 1730.38,-643 1730.38,-637 1730.38,-637 1730.38,-555 1730.38,-555 1730.38,-549 1736.38,-543 1742.38,-543"/>
<text text-anchor="middle" x="1830.38" y="-633.8" font-family="Times,serif" font-size="14.00">Factor</text>
<polyline fill="none" stroke="black" points="1730.38,-626 1930.38,-626 "/>
<text text-anchor="start" x="1738.38" y="-610.8" font-family="Times,serif" font-size="14.00">id :int(11)</text>
<text text-anchor="start" x="1738.38" y="-595.8" font-family="Times,serif" font-size="14.00">description :varchar(255)</text>
<text text-anchor="start" x="1738.38" y="-580.8" font-family="Times,serif" font-size="14.00">name :varchar(255)</text>
<text text-anchor="start" x="1738.38" y="-565.8" font-family="Times,serif" font-size="14.00">created_at :datetime</text>
<text text-anchor="start" x="1738.38" y="-550.8" font-family="Times,serif" font-size="14.00">updated_at :datetime</text>
</g>
<!-- Assessment&#45;&gt;Factor -->
<g id="edge3" class="edge"><title>Assessment&#45;&gt;Factor</title>
<path fill="none" stroke="#877531" d="M1812.25,-856.332C1816.33,-797.977 1822.1,-715.442 1826.03,-659.264"/>
<polygon fill="#877531" stroke="#877531" points="1812.24,-856.445 1807.06,-866.107 1811.9,-861.433 1811.55,-866.421 1811.55,-866.421 1811.55,-866.421 1811.9,-861.433 1816.04,-866.734 1812.24,-856.445 1812.24,-856.445"/>
<polygon fill="#877531" stroke="#877531" points="1826.04,-659.068 1831.23,-649.407 1826.39,-654.081 1826.74,-649.093 1826.74,-649.093 1826.74,-649.093 1826.39,-654.081 1822.25,-648.779 1826.04,-659.068 1826.04,-659.068"/>
</g>
<!-- Installment -->
<g id="node16" class="node"><title>Installment</title>
<path fill="none" stroke="black" d="M1479.38,-174.5C1479.38,-174.5 1633.38,-174.5 1633.38,-174.5 1639.38,-174.5 1645.38,-180.5 1645.38,-186.5 1645.38,-186.5 1645.38,-313.5 1645.38,-313.5 1645.38,-319.5 1639.38,-325.5 1633.38,-325.5 1633.38,-325.5 1479.38,-325.5 1479.38,-325.5 1473.38,-325.5 1467.38,-319.5 1467.38,-313.5 1467.38,-313.5 1467.38,-186.5 1467.38,-186.5 1467.38,-180.5 1473.38,-174.5 1479.38,-174.5"/>
<text text-anchor="middle" x="1556.38" y="-310.3" font-family="Times,serif" font-size="14.00">Installment</text>
<polyline fill="none" stroke="black" points="1467.38,-302.5 1645.38,-302.5 "/>
<text text-anchor="start" x="1475.38" y="-287.3" font-family="Times,serif" font-size="14.00">id :int(11)</text>
<text text-anchor="start" x="1475.38" y="-272.3" font-family="Times,serif" font-size="14.00">inst_date :datetime</text>
<text text-anchor="start" x="1475.38" y="-257.3" font-family="Times,serif" font-size="14.00">assessment_id :int(11)</text>
<text text-anchor="start" x="1475.38" y="-242.3" font-family="Times,serif" font-size="14.00">user_id :int(11)</text>
<text text-anchor="start" x="1475.38" y="-227.3" font-family="Times,serif" font-size="14.00">comments :text</text>
<text text-anchor="start" x="1475.38" y="-212.3" font-family="Times,serif" font-size="14.00">group_id :int(11)</text>
<text text-anchor="start" x="1475.38" y="-197.3" font-family="Times,serif" font-size="14.00">created_at :datetime</text>
<text text-anchor="start" x="1475.38" y="-182.3" font-family="Times,serif" font-size="14.00">updated_at :datetime</text>
</g>
<!-- Assessment&#45;&gt;Installment -->
<g id="edge2" class="edge"><title>Assessment&#45;&gt;Installment</title>
<path fill="none" stroke="#7092fb" d="M1741.01,-859.834C1733.65,-850.325 1726.86,-840.268 1721.38,-830 1620.42,-640.61 1670.08,-565.661 1602.38,-362 1599.45,-353.185 1596.15,-344.078 1592.69,-335.047"/>
<ellipse fill="none" stroke="#7092fb" cx="1743.69" cy="-863.198" rx="4.00002" ry="4.00002"/>
<polygon fill="#7092fb" stroke="#7092fb" points="1592.67,-334.998 1593.24,-324.046 1590.86,-330.339 1589.04,-325.68 1589.04,-325.68 1589.04,-325.68 1590.86,-330.339 1584.85,-327.313 1592.67,-334.998 1592.67,-334.998"/>
</g>
<!-- Assessment&#45;&gt;User -->
<g id="edge4" class="edge"><title>Assessment&#45;&gt;User</title>
<path fill="none" stroke="#e3e66f" d="M1713.65,-866.146C1713.56,-866.097 1713.47,-866.048 1713.38,-866 1559.51,-783.766 1375.31,-705.477 1249.26,-654.783"/>
<polygon fill="#e3e66f" stroke="#e3e66f" points="1713.39,-866.003 1720,-874.76 1717.78,-868.409 1722.16,-870.815 1722.16,-870.815 1722.16,-870.815 1717.78,-868.409 1724.33,-866.87 1713.39,-866.003 1713.39,-866.003"/>
<polygon fill="#e3e66f" stroke="#e3e66f" points="1249.19,-654.754 1241.59,-646.853 1244.55,-652.891 1239.91,-651.029 1239.91,-651.029 1239.91,-651.029 1244.55,-652.891 1238.23,-655.205 1249.19,-654.754 1249.19,-654.754"/>
</g>
<!-- Behavior -->
<g id="node4" class="node"><title>Behavior</title>
<path fill="none" stroke="black" d="M63.3819,-1092C63.3819,-1092 209.382,-1092 209.382,-1092 215.382,-1092 221.382,-1098 221.382,-1104 221.382,-1104 221.382,-1186 221.382,-1186 221.382,-1192 215.382,-1198 209.382,-1198 209.382,-1198 63.3819,-1198 63.3819,-1198 57.3819,-1198 51.3819,-1192 51.3819,-1186 51.3819,-1186 51.3819,-1104 51.3819,-1104 51.3819,-1098 57.3819,-1092 63.3819,-1092"/>
<text text-anchor="middle" x="136.382" y="-1182.8" font-family="Times,serif" font-size="14.00">Behavior</text>
<polyline fill="none" stroke="black" points="51.3819,-1175 221.382,-1175 "/>
<text text-anchor="start" x="59.3819" y="-1159.8" font-family="Times,serif" font-size="14.00">id :int(11)</text>
<text text-anchor="start" x="59.3819" y="-1144.8" font-family="Times,serif" font-size="14.00">name :varchar(255)</text>
<text text-anchor="start" x="59.3819" y="-1129.8" font-family="Times,serif" font-size="14.00">description :text</text>
<text text-anchor="start" x="59.3819" y="-1114.8" font-family="Times,serif" font-size="14.00">created_at :datetime</text>
<text text-anchor="start" x="59.3819" y="-1099.8" font-family="Times,serif" font-size="14.00">updated_at :datetime</text>
</g>
<!-- Diagnosis -->
<g id="node9" class="node"><title>Diagnosis</title>
<path fill="none" stroke="black" d="M202.382,-1C202.382,-1 348.382,-1 348.382,-1 354.382,-1 360.382,-7 360.382,-13 360.382,-13 360.382,-125 360.382,-125 360.382,-131 354.382,-137 348.382,-137 348.382,-137 202.382,-137 202.382,-137 196.382,-137 190.382,-131 190.382,-125 190.382,-125 190.382,-13 190.382,-13 190.382,-7 196.382,-1 202.382,-1"/>
<text text-anchor="middle" x="275.382" y="-121.8" font-family="Times,serif" font-size="14.00">Diagnosis</text>
<polyline fill="none" stroke="black" points="190.382,-114 360.382,-114 "/>
<text text-anchor="start" x="198.382" y="-98.8" font-family="Times,serif" font-size="14.00">id :int(11)</text>
<text text-anchor="start" x="198.382" y="-83.8" font-family="Times,serif" font-size="14.00">behavior_id :int(11)</text>
<text text-anchor="start" x="198.382" y="-68.8" font-family="Times,serif" font-size="14.00">reaction_id :int(11)</text>
<text text-anchor="start" x="198.382" y="-53.8" font-family="Times,serif" font-size="14.00">week_id :int(11)</text>
<text text-anchor="start" x="198.382" y="-38.8" font-family="Times,serif" font-size="14.00">comment :text</text>
<text text-anchor="start" x="198.382" y="-23.8" font-family="Times,serif" font-size="14.00">created_at :datetime</text>
<text text-anchor="start" x="198.382" y="-8.8" font-family="Times,serif" font-size="14.00">updated_at :datetime</text>
</g>
<!-- Behavior&#45;&gt;Diagnosis -->
<g id="edge7" class="edge"><title>Behavior&#45;&gt;Diagnosis</title>
<path fill="none" stroke="#4d4e7a" d="M112.07,-1084.03C51.0833,-923.261 -91.2481,-474.49 86.3819,-174 107.113,-138.929 144.352,-114.885 180.325,-98.8289"/>
<ellipse fill="none" stroke="#4d4e7a" cx="113.659" cy="-1088.19" rx="4.00001" ry="4.00001"/>
<polygon fill="#4d4e7a" stroke="#4d4e7a" points="180.735,-98.6533 191.699,-98.8498 185.331,-96.6835 189.926,-94.7137 189.926,-94.7137 189.926,-94.7137 185.331,-96.6835 188.154,-90.5776 180.735,-98.6533 180.735,-98.6533"/>
</g>
<!-- Reaction -->
<g id="node19" class="node"><title>Reaction</title>
<path fill="none" stroke="black" d="M295.882,-174.5C295.882,-174.5 444.882,-174.5 444.882,-174.5 450.882,-174.5 456.882,-180.5 456.882,-186.5 456.882,-186.5 456.882,-313.5 456.882,-313.5 456.882,-319.5 450.882,-325.5 444.882,-325.5 444.882,-325.5 295.882,-325.5 295.882,-325.5 289.882,-325.5 283.882,-319.5 283.882,-313.5 283.882,-313.5 283.882,-186.5 283.882,-186.5 283.882,-180.5 289.882,-174.5 295.882,-174.5"/>
<text text-anchor="middle" x="370.382" y="-310.3" font-family="Times,serif" font-size="14.00">Reaction</text>
<polyline fill="none" stroke="black" points="283.882,-302.5 456.882,-302.5 "/>
<text text-anchor="start" x="291.882" y="-287.3" font-family="Times,serif" font-size="14.00">id :int(11)</text>
<text text-anchor="start" x="291.882" y="-272.3" font-family="Times,serif" font-size="14.00">behavior_id :int(11)</text>
<text text-anchor="start" x="291.882" y="-257.3" font-family="Times,serif" font-size="14.00">narrative_id :int(11)</text>
<text text-anchor="start" x="291.882" y="-242.3" font-family="Times,serif" font-size="14.00">user_id :int(11)</text>
<text text-anchor="start" x="291.882" y="-227.3" font-family="Times,serif" font-size="14.00">improvements :text</text>
<text text-anchor="start" x="291.882" y="-212.3" font-family="Times,serif" font-size="14.00">created_at :datetime</text>
<text text-anchor="start" x="291.882" y="-197.3" font-family="Times,serif" font-size="14.00">updated_at :datetime</text>
<text text-anchor="start" x="291.882" y="-182.3" font-family="Times,serif" font-size="14.00">experience_id :int(11)</text>
</g>
<!-- Behavior&#45;&gt;Reaction -->
<g id="edge6" class="edge"><title>Behavior&#45;&gt;Reaction</title>
<path fill="none" stroke="#9aa400" d="M172.15,-1085.23C187.954,-1063.39 208.226,-1040.05 231.382,-1024 274.355,-994.215 311.814,-1029.68 343.382,-988 381.909,-937.131 376.805,-518.552 372.66,-335.808"/>
<ellipse fill="none" stroke="#9aa400" cx="169.703" cy="-1088.68" rx="4.00002" ry="4.00002"/>
<polygon fill="#9aa400" stroke="#9aa400" points="372.658,-335.698 376.925,-325.596 372.542,-330.699 372.426,-325.7 372.426,-325.7 372.426,-325.7 372.542,-330.699 367.927,-325.804 372.658,-335.698 372.658,-335.698"/>
</g>
<!-- Scenario -->
<g id="node22" class="node"><title>Scenario</title>
<path fill="none" stroke="black" d="M176.382,-874C176.382,-874 322.382,-874 322.382,-874 328.382,-874 334.382,-880 334.382,-886 334.382,-886 334.382,-968 334.382,-968 334.382,-974 328.382,-980 322.382,-980 322.382,-980 176.382,-980 176.382,-980 170.382,-980 164.382,-974 164.382,-968 164.382,-968 164.382,-886 164.382,-886 164.382,-880 170.382,-874 176.382,-874"/>
<text text-anchor="middle" x="249.382" y="-964.8" font-family="Times,serif" font-size="14.00">Scenario</text>
<polyline fill="none" stroke="black" points="164.382,-957 334.382,-957 "/>
<text text-anchor="start" x="172.382" y="-941.8" font-family="Times,serif" font-size="14.00">id :int(11)</text>
<text text-anchor="start" x="172.382" y="-926.8" font-family="Times,serif" font-size="14.00">name :varchar(255)</text>
<text text-anchor="start" x="172.382" y="-911.8" font-family="Times,serif" font-size="14.00">behavior_id :int(11)</text>
<text text-anchor="start" x="172.382" y="-896.8" font-family="Times,serif" font-size="14.00">created_at :datetime</text>
<text text-anchor="start" x="172.382" y="-881.8" font-family="Times,serif" font-size="14.00">updated_at :datetime</text>
</g>
<!-- Behavior&#45;&gt;Scenario -->
<g id="edge5" class="edge"><title>Behavior&#45;&gt;Scenario</title>
<path fill="none" stroke="#35d49d" d="M167.4,-1084.71C182.895,-1055.09 201.624,-1019.29 217.268,-989.387"/>
<ellipse fill="none" stroke="#35d49d" cx="165.446" cy="-1088.44" rx="4.00002" ry="4.00002"/>
<polygon fill="#35d49d" stroke="#35d49d" points="217.381,-989.17 226.004,-982.396 219.698,-984.74 222.016,-980.31 222.016,-980.31 222.016,-980.31 219.698,-984.74 218.029,-978.224 217.381,-989.17 217.381,-989.17"/>
</g>
<!-- CipCode -->
<g id="node5" class="node"><title>CipCode</title>
<path fill="none" stroke="black" d="M1140.38,-874C1140.38,-874 1316.38,-874 1316.38,-874 1322.38,-874 1328.38,-880 1328.38,-886 1328.38,-886 1328.38,-968 1328.38,-968 1328.38,-974 1322.38,-980 1316.38,-980 1316.38,-980 1140.38,-980 1140.38,-980 1134.38,-980 1128.38,-974 1128.38,-968 1128.38,-968 1128.38,-886 1128.38,-886 1128.38,-880 1134.38,-874 1140.38,-874"/>
<text text-anchor="middle" x="1228.38" y="-964.8" font-family="Times,serif" font-size="14.00">CipCode</text>
<polyline fill="none" stroke="black" points="1128.38,-957 1328.38,-957 "/>
<text text-anchor="start" x="1136.38" y="-941.8" font-family="Times,serif" font-size="14.00">id :int(11)</text>
<text text-anchor="start" x="1136.38" y="-926.8" font-family="Times,serif" font-size="14.00">gov_code :int(11)</text>
<text text-anchor="start" x="1136.38" y="-911.8" font-family="Times,serif" font-size="14.00">description :varchar(255)</text>
<text text-anchor="start" x="1136.38" y="-896.8" font-family="Times,serif" font-size="14.00">created_at :datetime</text>
<text text-anchor="start" x="1136.38" y="-881.8" font-family="Times,serif" font-size="14.00">updated_at :datetime</text>
</g>
<!-- CipCode&#45;&gt;User -->
<g id="edge8" class="edge"><title>CipCode&#45;&gt;User</title>
<path fill="none" stroke="#5b9425" d="M1205.11,-866.185C1201.76,-857.568 1198.15,-848.296 1194.36,-838.558"/>
<ellipse fill="none" stroke="#5b9425" cx="1206.65" cy="-870.141" rx="4.00001" ry="4.00001"/>
<polygon fill="#5b9425" stroke="#5b9425" points="1194.3,-838.405 1194.87,-827.453 1192.49,-833.745 1190.68,-829.085 1190.68,-829.085 1190.68,-829.085 1192.49,-833.745 1186.48,-830.717 1194.3,-838.405 1194.3,-838.405"/>
</g>
<!-- ConsentForm -->
<g id="node6" class="node"><title>ConsentForm</title>
<path fill="none" stroke="black" d="M1886.88,-1302.5C1886.88,-1302.5 2105.88,-1302.5 2105.88,-1302.5 2111.88,-1302.5 2117.88,-1308.5 2117.88,-1314.5 2117.88,-1314.5 2117.88,-1471.5 2117.88,-1471.5 2117.88,-1477.5 2111.88,-1483.5 2105.88,-1483.5 2105.88,-1483.5 1886.88,-1483.5 1886.88,-1483.5 1880.88,-1483.5 1874.88,-1477.5 1874.88,-1471.5 1874.88,-1471.5 1874.88,-1314.5 1874.88,-1314.5 1874.88,-1308.5 1880.88,-1302.5 1886.88,-1302.5"/>
<text text-anchor="middle" x="1996.38" y="-1468.3" font-family="Times,serif" font-size="14.00">ConsentForm</text>
<polyline fill="none" stroke="black" points="1874.88,-1460.5 2117.88,-1460.5 "/>
<text text-anchor="start" x="1882.88" y="-1445.3" font-family="Times,serif" font-size="14.00">id :int(11)</text>
<text text-anchor="start" x="1882.88" y="-1430.3" font-family="Times,serif" font-size="14.00">name :varchar(255)</text>
<text text-anchor="start" x="1882.88" y="-1415.3" font-family="Times,serif" font-size="14.00">user_id :int(11)</text>
<text text-anchor="start" x="1882.88" y="-1400.3" font-family="Times,serif" font-size="14.00">created_at :datetime</text>
<text text-anchor="start" x="1882.88" y="-1385.3" font-family="Times,serif" font-size="14.00">updated_at :datetime</text>
<text text-anchor="start" x="1882.88" y="-1370.3" font-family="Times,serif" font-size="14.00">pdf_file_name :varchar(255)</text>
<text text-anchor="start" x="1882.88" y="-1355.3" font-family="Times,serif" font-size="14.00">pdf_content_type :varchar(255)</text>
<text text-anchor="start" x="1882.88" y="-1340.3" font-family="Times,serif" font-size="14.00">pdf_file_size :int(11)</text>
<text text-anchor="start" x="1882.88" y="-1325.3" font-family="Times,serif" font-size="14.00">pdf_updated_at :datetime</text>
<text text-anchor="start" x="1882.88" y="-1310.3" font-family="Times,serif" font-size="14.00">form_text :text</text>
</g>
<!-- ConsentLog -->
<g id="node7" class="node"><title>ConsentLog</title>
<path fill="none" stroke="black" d="M1675.38,-182C1675.38,-182 1843.38,-182 1843.38,-182 1849.38,-182 1855.38,-188 1855.38,-194 1855.38,-194 1855.38,-306 1855.38,-306 1855.38,-312 1849.38,-318 1843.38,-318 1843.38,-318 1675.38,-318 1675.38,-318 1669.38,-318 1663.38,-312 1663.38,-306 1663.38,-306 1663.38,-194 1663.38,-194 1663.38,-188 1669.38,-182 1675.38,-182"/>
<text text-anchor="middle" x="1759.38" y="-302.8" font-family="Times,serif" font-size="14.00">ConsentLog</text>
<polyline fill="none" stroke="black" points="1663.38,-295 1855.38,-295 "/>
<text text-anchor="start" x="1671.38" y="-279.8" font-family="Times,serif" font-size="14.00">id :int(11)</text>
<text text-anchor="start" x="1671.38" y="-264.8" font-family="Times,serif" font-size="14.00">accepted :tinyint(1)</text>
<text text-anchor="start" x="1671.38" y="-249.8" font-family="Times,serif" font-size="14.00">consent_form_id :int(11)</text>
<text text-anchor="start" x="1671.38" y="-234.8" font-family="Times,serif" font-size="14.00">user_id :int(11)</text>
<text text-anchor="start" x="1671.38" y="-219.8" font-family="Times,serif" font-size="14.00">created_at :datetime</text>
<text text-anchor="start" x="1671.38" y="-204.8" font-family="Times,serif" font-size="14.00">updated_at :datetime</text>
<text text-anchor="start" x="1671.38" y="-189.8" font-family="Times,serif" font-size="14.00">presented :tinyint(1)</text>
</g>
<!-- ConsentForm&#45;&gt;ConsentLog -->
<g id="edge10" class="edge"><title>ConsentForm&#45;&gt;ConsentLog</title>
<path fill="none" stroke="#3a2426" d="M2021.16,-1294.39C2064.83,-1098.76 2133.64,-652.583 1939.38,-362 1918.83,-331.262 1896.21,-344.816 1864.38,-326 1863.06,-325.216 1861.73,-324.421 1860.39,-323.614"/>
<ellipse fill="none" stroke="#3a2426" cx="2020.24" cy="-1298.48" rx="4.00001" ry="4.00001"/>
<polygon fill="#3a2426" stroke="#3a2426" points="1860.06,-323.408 1853.92,-314.32 1855.81,-320.778 1851.55,-318.147 1851.55,-318.147 1851.55,-318.147 1855.81,-320.778 1849.19,-321.974 1860.06,-323.408 1860.06,-323.408"/>
</g>
<!-- Project -->
<g id="node18" class="node"><title>Project</title>
<path fill="none" stroke="black" d="M1699.38,-1024.5C1699.38,-1024.5 1875.38,-1024.5 1875.38,-1024.5 1881.38,-1024.5 1887.38,-1030.5 1887.38,-1036.5 1887.38,-1036.5 1887.38,-1253.5 1887.38,-1253.5 1887.38,-1259.5 1881.38,-1265.5 1875.38,-1265.5 1875.38,-1265.5 1699.38,-1265.5 1699.38,-1265.5 1693.38,-1265.5 1687.38,-1259.5 1687.38,-1253.5 1687.38,-1253.5 1687.38,-1036.5 1687.38,-1036.5 1687.38,-1030.5 1693.38,-1024.5 1699.38,-1024.5"/>
<text text-anchor="middle" x="1787.38" y="-1250.3" font-family="Times,serif" font-size="14.00">Project</text>
<polyline fill="none" stroke="black" points="1687.38,-1242.5 1887.38,-1242.5 "/>
<text text-anchor="start" x="1695.38" y="-1227.3" font-family="Times,serif" font-size="14.00">id :int(11)</text>
<text text-anchor="start" x="1695.38" y="-1212.3" font-family="Times,serif" font-size="14.00">name :varchar(255)</text>
<text text-anchor="start" x="1695.38" y="-1197.3" font-family="Times,serif" font-size="14.00">description :varchar(255)</text>
<text text-anchor="start" x="1695.38" y="-1182.3" font-family="Times,serif" font-size="14.00">course_id :int(11)</text>
<text text-anchor="start" x="1695.38" y="-1167.3" font-family="Times,serif" font-size="14.00">created_at :datetime</text>
<text text-anchor="start" x="1695.38" y="-1152.3" font-family="Times,serif" font-size="14.00">updated_at :datetime</text>
<text text-anchor="start" x="1695.38" y="-1137.3" font-family="Times,serif" font-size="14.00">start_dow :int(11)</text>
<text text-anchor="start" x="1695.38" y="-1122.3" font-family="Times,serif" font-size="14.00">end_dow :int(11)</text>
<text text-anchor="start" x="1695.38" y="-1107.3" font-family="Times,serif" font-size="14.00">active :tinyint(1)</text>
<text text-anchor="start" x="1695.38" y="-1092.3" font-family="Times,serif" font-size="14.00">start_date :datetime</text>
<text text-anchor="start" x="1695.38" y="-1077.3" font-family="Times,serif" font-size="14.00">end_date :datetime</text>
<text text-anchor="start" x="1695.38" y="-1062.3" font-family="Times,serif" font-size="14.00">consent_form_id :int(11)</text>
<text text-anchor="start" x="1695.38" y="-1047.3" font-family="Times,serif" font-size="14.00">factor_pack_id :int(11)</text>
<text text-anchor="start" x="1695.38" y="-1032.3" font-family="Times,serif" font-size="14.00">style_id :int(11)</text>
</g>
<!-- ConsentForm&#45;&gt;Project -->
<g id="edge9" class="edge"><title>ConsentForm&#45;&gt;Project</title>
<path fill="none" stroke="#9ef8e6" d="M1915.08,-1296.3C1908.27,-1288.29 1901.32,-1280.11 1894.36,-1271.92"/>
<ellipse fill="none" stroke="#9ef8e6" cx="1917.75" cy="-1299.44" rx="4.00002" ry="4.00002"/>
<polygon fill="#9ef8e6" stroke="#9ef8e6" points="1894.16,-1271.68 1891.12,-1261.15 1890.92,-1267.87 1887.69,-1264.06 1887.69,-1264.06 1887.69,-1264.06 1890.92,-1267.87 1884.26,-1266.98 1894.16,-1271.68 1894.16,-1271.68"/>
</g>
<!-- Course -->
<g id="node8" class="node"><title>Course</title>
<path fill="none" stroke="black" d="M350.382,-1302.5C350.382,-1302.5 526.382,-1302.5 526.382,-1302.5 532.382,-1302.5 538.382,-1308.5 538.382,-1314.5 538.382,-1314.5 538.382,-1471.5 538.382,-1471.5 538.382,-1477.5 532.382,-1483.5 526.382,-1483.5 526.382,-1483.5 350.382,-1483.5 350.382,-1483.5 344.382,-1483.5 338.382,-1477.5 338.382,-1471.5 338.382,-1471.5 338.382,-1314.5 338.382,-1314.5 338.382,-1308.5 344.382,-1302.5 350.382,-1302.5"/>
<text text-anchor="middle" x="438.382" y="-1468.3" font-family="Times,serif" font-size="14.00">Course</text>
<polyline fill="none" stroke="black" points="338.382,-1460.5 538.382,-1460.5 "/>
<text text-anchor="start" x="346.382" y="-1445.3" font-family="Times,serif" font-size="14.00">id :int(11)</text>
<text text-anchor="start" x="346.382" y="-1430.3" font-family="Times,serif" font-size="14.00">name :varchar(255)</text>
<text text-anchor="start" x="346.382" y="-1415.3" font-family="Times,serif" font-size="14.00">description :varchar(255)</text>
<text text-anchor="start" x="346.382" y="-1400.3" font-family="Times,serif" font-size="14.00">timezone :varchar(255)</text>
<text text-anchor="start" x="346.382" y="-1385.3" font-family="Times,serif" font-size="14.00">school_id :int(11)</text>
<text text-anchor="start" x="346.382" y="-1370.3" font-family="Times,serif" font-size="14.00">start_date :datetime</text>
<text text-anchor="start" x="346.382" y="-1355.3" font-family="Times,serif" font-size="14.00">end_date :datetime</text>
<text text-anchor="start" x="346.382" y="-1340.3" font-family="Times,serif" font-size="14.00">created_at :datetime</text>
<text text-anchor="start" x="346.382" y="-1325.3" font-family="Times,serif" font-size="14.00">updated_at :datetime</text>
<text text-anchor="start" x="346.382" y="-1310.3" font-family="Times,serif" font-size="14.00">number :varchar(255)</text>
</g>
<!-- Experience -->
<g id="node10" class="node"><title>Experience</title>
<path fill="none" stroke="black" d="M252.382,-1069.5C252.382,-1069.5 398.382,-1069.5 398.382,-1069.5 404.382,-1069.5 410.382,-1075.5 410.382,-1081.5 410.382,-1081.5 410.382,-1208.5 410.382,-1208.5 410.382,-1214.5 404.382,-1220.5 398.382,-1220.5 398.382,-1220.5 252.382,-1220.5 252.382,-1220.5 246.382,-1220.5 240.382,-1214.5 240.382,-1208.5 240.382,-1208.5 240.382,-1081.5 240.382,-1081.5 240.382,-1075.5 246.382,-1069.5 252.382,-1069.5"/>
<text text-anchor="middle" x="325.382" y="-1205.3" font-family="Times,serif" font-size="14.00">Experience</text>
<polyline fill="none" stroke="black" points="240.382,-1197.5 410.382,-1197.5 "/>
<text text-anchor="start" x="248.382" y="-1182.3" font-family="Times,serif" font-size="14.00">id :int(11)</text>
<text text-anchor="start" x="248.382" y="-1167.3" font-family="Times,serif" font-size="14.00">course_id :int(11)</text>
<text text-anchor="start" x="248.382" y="-1152.3" font-family="Times,serif" font-size="14.00">name :varchar(255)</text>
<text text-anchor="start" x="248.382" y="-1137.3" font-family="Times,serif" font-size="14.00">open_date :datetime</text>
<text text-anchor="start" x="248.382" y="-1122.3" font-family="Times,serif" font-size="14.00">close_date :datetime</text>
<text text-anchor="start" x="248.382" y="-1107.3" font-family="Times,serif" font-size="14.00">created_at :datetime</text>
<text text-anchor="start" x="248.382" y="-1092.3" font-family="Times,serif" font-size="14.00">updated_at :datetime</text>
<text text-anchor="start" x="248.382" y="-1077.3" font-family="Times,serif" font-size="14.00">active :tinyint(1)</text>
</g>
<!-- Course&#45;&gt;Experience -->
<g id="edge13" class="edge"><title>Course&#45;&gt;Experience</title>
<path fill="none" stroke="#a6d6ea" d="M393.926,-1295.22C384.037,-1273.69 373.631,-1251.04 363.998,-1230.07"/>
<ellipse fill="none" stroke="#a6d6ea" cx="395.597" cy="-1298.86" rx="4.00002" ry="4.00002"/>
<polygon fill="#a6d6ea" stroke="#a6d6ea" points="363.951,-1229.96 363.866,-1219 361.864,-1225.42 359.777,-1220.88 359.777,-1220.88 359.777,-1220.88 361.864,-1225.42 355.687,-1222.76 363.951,-1229.96 363.951,-1229.96"/>
</g>
<!-- Course&#45;&gt;Project -->
<g id="edge11" class="edge"><title>Course&#45;&gt;Project</title>
<path fill="none" stroke="#5d3db8" d="M546.588,-1372.27C798.758,-1326.28 1423.32,-1212.39 1677.31,-1166.07"/>
<ellipse fill="none" stroke="#5d3db8" cx="542.334" cy="-1373.04" rx="4.00001" ry="4.00001"/>
<polygon fill="#5d3db8" stroke="#5d3db8" points="1677.45,-1166.05 1688.1,-1168.68 1682.37,-1165.15 1687.29,-1164.25 1687.29,-1164.25 1687.29,-1164.25 1682.37,-1165.15 1686.48,-1159.83 1677.45,-1166.05 1677.45,-1166.05"/>
</g>
<!-- Roster -->
<g id="node21" class="node"><title>Roster</title>
<path fill="none" stroke="black" d="M493.382,-189.5C493.382,-189.5 639.382,-189.5 639.382,-189.5 645.382,-189.5 651.382,-195.5 651.382,-201.5 651.382,-201.5 651.382,-298.5 651.382,-298.5 651.382,-304.5 645.382,-310.5 639.382,-310.5 639.382,-310.5 493.382,-310.5 493.382,-310.5 487.382,-310.5 481.382,-304.5 481.382,-298.5 481.382,-298.5 481.382,-201.5 481.382,-201.5 481.382,-195.5 487.382,-189.5 493.382,-189.5"/>
<text text-anchor="middle" x="566.382" y="-295.3" font-family="Times,serif" font-size="14.00">Roster</text>
<polyline fill="none" stroke="black" points="481.382,-287.5 651.382,-287.5 "/>
<text text-anchor="start" x="489.382" y="-272.3" font-family="Times,serif" font-size="14.00">id :int(11)</text>
<text text-anchor="start" x="489.382" y="-257.3" font-family="Times,serif" font-size="14.00">role_id :int(11)</text>
<text text-anchor="start" x="489.382" y="-242.3" font-family="Times,serif" font-size="14.00">course_id :int(11)</text>
<text text-anchor="start" x="489.382" y="-227.3" font-family="Times,serif" font-size="14.00">user_id :int(11)</text>
<text text-anchor="start" x="489.382" y="-212.3" font-family="Times,serif" font-size="14.00">created_at :datetime</text>
<text text-anchor="start" x="489.382" y="-197.3" font-family="Times,serif" font-size="14.00">updated_at :datetime</text>
</g>
<!-- Course&#45;&gt;Roster -->
<g id="edge12" class="edge"><title>Course&#45;&gt;Roster</title>
<path fill="none" stroke="#40caf6" d="M437.852,-1294.25C438.225,-1188.42 441.588,-1014.78 457.382,-866 478.549,-666.604 526.01,-434.38 550.734,-320.794"/>
<ellipse fill="none" stroke="#40caf6" cx="437.84" cy="-1298.38" rx="4" ry="4"/>
<polygon fill="#40caf6" stroke="#40caf6" points="550.775,-320.607 557.305,-311.798 551.842,-315.722 552.909,-310.837 552.909,-310.837 552.909,-310.837 551.842,-315.722 548.513,-309.877 550.775,-320.607 550.775,-320.607"/>
</g>
<!-- Diagnosis&#45;&gt;User -->
<g id="edge14" class="edge"><title>Diagnosis&#45;&gt;User</title>
<path fill="none" stroke="#551874" d="M368.946,-81.9393C450.134,-95.3162 568.703,-122.286 660.382,-174 771.665,-236.772 875.935,-334.098 955.014,-419.365"/>
<ellipse fill="none" stroke="#551874" cx="364.665" cy="-81.2471" rx="4.00001" ry="4.00001"/>
<ellipse fill="#551874" stroke="#551874" cx="957.95" cy="-422.545" rx="4.00002" ry="4.00002"/>
</g>
<!-- Experience&#45;&gt;Reaction -->
<g id="edge15" class="edge"><title>Experience&#45;&gt;Reaction</title>
<path fill="none" stroke="#caadd0" d="M357.696,-1061.57C365.392,-1038.16 372.495,-1012.4 376.382,-988 413.624,-754.236 393.907,-473.459 380.106,-335.69"/>
<ellipse fill="none" stroke="#caadd0" cx="356.338" cy="-1065.62" rx="4.00001" ry="4.00001"/>
<polygon fill="#caadd0" stroke="#caadd0" points="380.093,-335.567 383.558,-325.163 379.587,-330.593 379.081,-325.618 379.081,-325.618 379.081,-325.618 379.587,-330.593 374.605,-326.074 380.093,-335.567 380.093,-335.567"/>
</g>
<!-- FactorPack -->
<g id="node12" class="node"><title>FactorPack</title>
<path fill="none" stroke="black" d="M1885.38,-197C1885.38,-197 2031.38,-197 2031.38,-197 2037.38,-197 2043.38,-203 2043.38,-209 2043.38,-209 2043.38,-291 2043.38,-291 2043.38,-297 2037.38,-303 2031.38,-303 2031.38,-303 1885.38,-303 1885.38,-303 1879.38,-303 1873.38,-297 1873.38,-291 1873.38,-291 1873.38,-209 1873.38,-209 1873.38,-203 1879.38,-197 1885.38,-197"/>
<text text-anchor="middle" x="1958.38" y="-287.8" font-family="Times,serif" font-size="14.00">FactorPack</text>
<polyline fill="none" stroke="black" points="1873.38,-280 2043.38,-280 "/>
<text text-anchor="start" x="1881.38" y="-264.8" font-family="Times,serif" font-size="14.00">id :int(11)</text>
<text text-anchor="start" x="1881.38" y="-249.8" font-family="Times,serif" font-size="14.00">name :varchar(255)</text>
<text text-anchor="start" x="1881.38" y="-234.8" font-family="Times,serif" font-size="14.00">description :text</text>
<text text-anchor="start" x="1881.38" y="-219.8" font-family="Times,serif" font-size="14.00">created_at :datetime</text>
<text text-anchor="start" x="1881.38" y="-204.8" font-family="Times,serif" font-size="14.00">updated_at :datetime</text>
</g>
<!-- Factor&#45;&gt;FactorPack -->
<g id="edge16" class="edge"><title>Factor&#45;&gt;FactorPack</title>
<path fill="none" stroke="#8ae8c4" d="M1853.32,-533.347C1876.51,-471.036 1912.14,-375.286 1935.35,-312.891"/>
<polygon fill="#8ae8c4" stroke="#8ae8c4" points="1853.31,-533.382 1845.6,-541.184 1851.57,-538.068 1849.82,-542.754 1849.82,-542.754 1849.82,-542.754 1851.57,-538.068 1854.04,-544.323 1853.31,-533.382 1853.31,-533.382"/>
<polygon fill="#8ae8c4" stroke="#8ae8c4" points="1935.48,-312.545 1943.19,-304.743 1937.22,-307.859 1938.97,-303.173 1938.97,-303.173 1938.97,-303.173 1937.22,-307.859 1934.75,-301.604 1935.48,-312.545 1935.48,-312.545"/>
</g>
<!-- FactorPack&#45;&gt;Project -->
<g id="edge17" class="edge"><title>FactorPack&#45;&gt;Project</title>
<path fill="none" stroke="#dfb1c3" d="M1969.14,-311.348C1989.46,-441.455 2022.91,-755.398 1921.38,-988 1914.15,-1004.57 1904.54,-1020.68 1893.77,-1035.87"/>
<ellipse fill="none" stroke="#dfb1c3" cx="1968.51" cy="-307.37" rx="4.00001" ry="4.00001"/>
<polygon fill="#dfb1c3" stroke="#dfb1c3" points="1893.58,-1036.14 1884.05,-1041.56 1890.63,-1040.18 1887.68,-1044.22 1887.68,-1044.22 1887.68,-1044.22 1890.63,-1040.18 1891.31,-1046.87 1893.58,-1036.14 1893.58,-1036.14"/>
</g>
<!-- Gender -->
<g id="node13" class="node"><title>Gender</title>
<path fill="none" stroke="black" d="M1358.38,-881.5C1358.38,-881.5 1504.38,-881.5 1504.38,-881.5 1510.38,-881.5 1516.38,-887.5 1516.38,-893.5 1516.38,-893.5 1516.38,-960.5 1516.38,-960.5 1516.38,-966.5 1510.38,-972.5 1504.38,-972.5 1504.38,-972.5 1358.38,-972.5 1358.38,-972.5 1352.38,-972.5 1346.38,-966.5 1346.38,-960.5 1346.38,-960.5 1346.38,-893.5 1346.38,-893.5 1346.38,-887.5 1352.38,-881.5 1358.38,-881.5"/>
<text text-anchor="middle" x="1431.38" y="-957.3" font-family="Times,serif" font-size="14.00">Gender</text>
<polyline fill="none" stroke="black" points="1346.38,-949.5 1516.38,-949.5 "/>
<text text-anchor="start" x="1354.38" y="-934.3" font-family="Times,serif" font-size="14.00">id :int(11)</text>
<text text-anchor="start" x="1354.38" y="-919.3" font-family="Times,serif" font-size="14.00">name :varchar(255)</text>
<text text-anchor="start" x="1354.38" y="-904.3" font-family="Times,serif" font-size="14.00">created_at :datetime</text>
<text text-anchor="start" x="1354.38" y="-889.3" font-family="Times,serif" font-size="14.00">updated_at :datetime</text>
</g>
<!-- Gender&#45;&gt;User -->
<g id="edge18" class="edge"><title>Gender&#45;&gt;User</title>
<path fill="none" stroke="#4823b6" d="M1380.51,-875.435C1344.81,-839.954 1295.13,-790.575 1247.51,-743.238"/>
<ellipse fill="none" stroke="#4823b6" cx="1383.56" cy="-878.467" rx="4.00002" ry="4.00002"/>
<polygon fill="#4823b6" stroke="#4823b6" points="1247.29,-743.016 1243.37,-732.775 1243.74,-739.491 1240.19,-735.966 1240.19,-735.966 1240.19,-735.966 1243.74,-739.491 1237.02,-739.158 1247.29,-743.016 1247.29,-743.016"/>
</g>
<!-- Group -->
<g id="node14" class="node"><title>Group</title>
<path fill="none" stroke="black" d="M1546.38,-874C1546.38,-874 1692.38,-874 1692.38,-874 1698.38,-874 1704.38,-880 1704.38,-886 1704.38,-886 1704.38,-968 1704.38,-968 1704.38,-974 1698.38,-980 1692.38,-980 1692.38,-980 1546.38,-980 1546.38,-980 1540.38,-980 1534.38,-974 1534.38,-968 1534.38,-968 1534.38,-886 1534.38,-886 1534.38,-880 1540.38,-874 1546.38,-874"/>
<text text-anchor="middle" x="1619.38" y="-964.8" font-family="Times,serif" font-size="14.00">Group</text>
<polyline fill="none" stroke="black" points="1534.38,-957 1704.38,-957 "/>
<text text-anchor="start" x="1542.38" y="-941.8" font-family="Times,serif" font-size="14.00">id :int(11)</text>
<text text-anchor="start" x="1542.38" y="-926.8" font-family="Times,serif" font-size="14.00">name :varchar(255)</text>
<text text-anchor="start" x="1542.38" y="-911.8" font-family="Times,serif" font-size="14.00">project_id :int(11)</text>
<text text-anchor="start" x="1542.38" y="-896.8" font-family="Times,serif" font-size="14.00">created_at :datetime</text>
<text text-anchor="start" x="1542.38" y="-881.8" font-family="Times,serif" font-size="14.00">updated_at :datetime</text>
</g>
<!-- Group&#45;&gt;Installment -->
<g id="edge20" class="edge"><title>Group&#45;&gt;Installment</title>
<path fill="none" stroke="#5210ac" d="M1613.75,-865.606C1602.49,-744.973 1577.19,-473.94 1564.28,-335.649"/>
<ellipse fill="none" stroke="#5210ac" cx="1614.15" cy="-869.893" rx="4" ry="4"/>
<polygon fill="#5210ac" stroke="#5210ac" points="1564.27,-335.478 1567.82,-325.103 1563.8,-330.499 1563.34,-325.521 1563.34,-325.521 1563.34,-325.521 1563.8,-330.499 1558.86,-325.939 1564.27,-335.478 1564.27,-335.478"/>
</g>
<!-- Group&#45;&gt;User -->
<g id="edge19" class="edge"><title>Group&#45;&gt;User</title>
<path fill="none" stroke="#bf6005" d="M1529.24,-868.452C1527.94,-867.629 1526.66,-866.811 1525.38,-866 1433.66,-807.698 1330.66,-742.501 1249.04,-690.896"/>
<polygon fill="#bf6005" stroke="#bf6005" points="1529.44,-868.578 1535.46,-877.744 1533.66,-871.263 1537.87,-873.947 1537.87,-873.947 1537.87,-873.947 1533.66,-871.263 1540.29,-870.15 1529.44,-868.578 1529.44,-868.578"/>
<polygon fill="#bf6005" stroke="#bf6005" points="1248.65,-690.653 1242.61,-681.506 1244.43,-687.981 1240.2,-685.31 1240.2,-685.31 1240.2,-685.31 1244.43,-687.981 1237.8,-689.113 1248.65,-690.653 1248.65,-690.653"/>
</g>
<!-- GroupProjectCount -->
<g id="node15" class="node"><title>GroupProjectCount</title>
<path fill="none" stroke="black" d="M696.382,-889C696.382,-889 872.382,-889 872.382,-889 878.382,-889 884.382,-895 884.382,-901 884.382,-901 884.382,-953 884.382,-953 884.382,-959 878.382,-965 872.382,-965 872.382,-965 696.382,-965 696.382,-965 690.382,-965 684.382,-959 684.382,-953 684.382,-953 684.382,-901 684.382,-901 684.382,-895 690.382,-889 696.382,-889"/>
<text text-anchor="middle" x="784.382" y="-949.8" font-family="Times,serif" font-size="14.00">GroupProjectCount</text>
<polyline fill="none" stroke="black" points="684.382,-942 884.382,-942 "/>
<text text-anchor="start" x="692.382" y="-926.8" font-family="Times,serif" font-size="14.00">id :int(11)</text>
<text text-anchor="start" x="692.382" y="-911.8" font-family="Times,serif" font-size="14.00">name :varchar(255)</text>
<text text-anchor="start" x="692.382" y="-896.8" font-family="Times,serif" font-size="14.00">description :varchar(255)</text>
</g>
<!-- GroupProjectCount&#45;&gt;User -->
<g id="edge21" class="edge"><title>GroupProjectCount&#45;&gt;User</title>
<path fill="none" stroke="#a39b54" d="M825.846,-882.83C858.739,-848.584 906.807,-798.538 953.563,-749.859"/>
<ellipse fill="none" stroke="#a39b54" cx="822.788" cy="-886.014" rx="4.00002" ry="4.00002"/>
<polygon fill="#a39b54" stroke="#a39b54" points="953.824,-749.587 963.997,-745.492 957.288,-745.981 960.751,-742.375 960.751,-742.375 960.751,-742.375 957.288,-745.981 957.506,-739.258 953.824,-749.587 953.824,-749.587"/>
</g>
<!-- Value -->
<g id="node26" class="node"><title>Value</title>
<path fill="none" stroke="black" d="M1480.38,-1C1480.38,-1 1632.38,-1 1632.38,-1 1638.38,-1 1644.38,-7 1644.38,-13 1644.38,-13 1644.38,-125 1644.38,-125 1644.38,-131 1638.38,-137 1632.38,-137 1632.38,-137 1480.38,-137 1480.38,-137 1474.38,-137 1468.38,-131 1468.38,-125 1468.38,-125 1468.38,-13 1468.38,-13 1468.38,-7 1474.38,-1 1480.38,-1"/>
<text text-anchor="middle" x="1556.38" y="-121.8" font-family="Times,serif" font-size="14.00">Value</text>
<polyline fill="none" stroke="black" points="1468.38,-114 1644.38,-114 "/>
<text text-anchor="start" x="1476.38" y="-98.8" font-family="Times,serif" font-size="14.00">id :int(11)</text>
<text text-anchor="start" x="1476.38" y="-83.8" font-family="Times,serif" font-size="14.00">value :int(11)</text>
<text text-anchor="start" x="1476.38" y="-68.8" font-family="Times,serif" font-size="14.00">user_id :int(11)</text>
<text text-anchor="start" x="1476.38" y="-53.8" font-family="Times,serif" font-size="14.00">installment_id :int(11)</text>
<text text-anchor="start" x="1476.38" y="-38.8" font-family="Times,serif" font-size="14.00">created_at :datetime</text>
<text text-anchor="start" x="1476.38" y="-23.8" font-family="Times,serif" font-size="14.00">updated_at :datetime</text>
<text text-anchor="start" x="1476.38" y="-8.8" font-family="Times,serif" font-size="14.00">factor_id :int(11)</text>
</g>
<!-- Installment&#45;&gt;Value -->
<g id="edge22" class="edge"><title>Installment&#45;&gt;Value</title>
<path fill="none" stroke="#dc2be6" d="M1556.38,-166.217C1556.38,-159.962 1556.38,-153.662 1556.38,-147.442"/>
<ellipse fill="none" stroke="#dc2be6" cx="1556.38" cy="-170.384" rx="4" ry="4"/>
<polygon fill="#dc2be6" stroke="#dc2be6" points="1556.38,-147.07 1560.88,-137.07 1556.38,-142.07 1556.38,-137.07 1556.38,-137.07 1556.38,-137.07 1556.38,-142.07 1551.88,-137.07 1556.38,-147.07 1556.38,-147.07"/>
</g>
<!-- Narrative -->
<g id="node17" class="node"><title>Narrative</title>
<path fill="none" stroke="black" d="M153.382,-543C153.382,-543 307.382,-543 307.382,-543 313.382,-543 319.382,-549 319.382,-555 319.382,-555 319.382,-637 319.382,-637 319.382,-643 313.382,-649 307.382,-649 307.382,-649 153.382,-649 153.382,-649 147.382,-649 141.382,-643 141.382,-637 141.382,-637 141.382,-555 141.382,-555 141.382,-549 147.382,-543 153.382,-543"/>
<text text-anchor="middle" x="230.382" y="-633.8" font-family="Times,serif" font-size="14.00">Narrative</text>
<polyline fill="none" stroke="black" points="141.382,-626 319.382,-626 "/>
<text text-anchor="start" x="149.382" y="-610.8" font-family="Times,serif" font-size="14.00">id :int(11)</text>
<text text-anchor="start" x="149.382" y="-595.8" font-family="Times,serif" font-size="14.00">member :varchar(255)</text>
<text text-anchor="start" x="149.382" y="-580.8" font-family="Times,serif" font-size="14.00">scenario_id :int(11)</text>
<text text-anchor="start" x="149.382" y="-565.8" font-family="Times,serif" font-size="14.00">created_at :datetime</text>
<text text-anchor="start" x="149.382" y="-550.8" font-family="Times,serif" font-size="14.00">updated_at :datetime</text>
</g>
<!-- Narrative&#45;&gt;Behavior -->
<g id="edge24" class="edge"><title>Narrative&#45;&gt;Behavior</title>
<path fill="none" stroke="#7530f8" d="M209.9,-656.865C192.343,-710.856 167.954,-792.789 155.382,-866 142.622,-940.3 138.356,-1027.16 136.972,-1083.75"/>
<ellipse fill="none" stroke="#7530f8" cx="211.194" cy="-652.908" rx="4.00001" ry="4.00001"/>
<ellipse fill="#7530f8" stroke="#7530f8" cx="136.878" cy="-1087.88" rx="4" ry="4"/>
</g>
<!-- Narrative&#45;&gt;Reaction -->
<g id="edge25" class="edge"><title>Narrative&#45;&gt;Reaction</title>
<path fill="none" stroke="#897c4a" d="M254.756,-535.11C277.264,-479.804 310.925,-397.095 336.132,-335.158"/>
<ellipse fill="none" stroke="#897c4a" cx="253.153" cy="-539.049" rx="4.00001" ry="4.00001"/>
<polygon fill="#897c4a" stroke="#897c4a" points="336.174,-335.053 344.112,-327.487 338.059,-330.421 339.944,-325.79 339.944,-325.79 339.944,-325.79 338.059,-330.421 335.776,-324.094 336.174,-335.053 336.174,-335.053"/>
</g>
<!-- Week -->
<g id="node27" class="node"><title>Week</title>
<path fill="none" stroke="black" d="M107.382,-189.5C107.382,-189.5 253.382,-189.5 253.382,-189.5 259.382,-189.5 265.382,-195.5 265.382,-201.5 265.382,-201.5 265.382,-298.5 265.382,-298.5 265.382,-304.5 259.382,-310.5 253.382,-310.5 253.382,-310.5 107.382,-310.5 107.382,-310.5 101.382,-310.5 95.3819,-304.5 95.3819,-298.5 95.3819,-298.5 95.3819,-201.5 95.3819,-201.5 95.3819,-195.5 101.382,-189.5 107.382,-189.5"/>
<text text-anchor="middle" x="180.382" y="-295.3" font-family="Times,serif" font-size="14.00">Week</text>
<polyline fill="none" stroke="black" points="95.3819,-287.5 265.382,-287.5 "/>
<text text-anchor="start" x="103.382" y="-272.3" font-family="Times,serif" font-size="14.00">id :int(11)</text>
<text text-anchor="start" x="103.382" y="-257.3" font-family="Times,serif" font-size="14.00">narrative_id :int(11)</text>
<text text-anchor="start" x="103.382" y="-242.3" font-family="Times,serif" font-size="14.00">week_num :int(11)</text>
<text text-anchor="start" x="103.382" y="-227.3" font-family="Times,serif" font-size="14.00">text :text</text>
<text text-anchor="start" x="103.382" y="-212.3" font-family="Times,serif" font-size="14.00">created_at :datetime</text>
<text text-anchor="start" x="103.382" y="-197.3" font-family="Times,serif" font-size="14.00">updated_at :datetime</text>
</g>
<!-- Narrative&#45;&gt;Week -->
<g id="edge23" class="edge"><title>Narrative&#45;&gt;Week</title>
<path fill="none" stroke="#dee924" d="M221.586,-534.485C212.91,-474.797 199.66,-383.636 190.541,-320.891"/>
<ellipse fill="none" stroke="#dee924" cx="222.213" cy="-538.795" rx="4.00001" ry="4.00001"/>
<polygon fill="#dee924" stroke="#dee924" points="190.496,-320.583 193.511,-310.04 189.777,-315.635 189.057,-310.687 189.057,-310.687 189.057,-310.687 189.777,-315.635 184.604,-311.334 190.496,-320.583 190.496,-320.583"/>
</g>
<!-- Project&#45;&gt;Assessment -->
<g id="edge27" class="edge"><title>Project&#45;&gt;Assessment</title>
<path fill="none" stroke="#a4f672" d="M1799.2,-1016.34C1799.79,-1010.01 1800.37,-1003.77 1800.93,-997.71"/>
<ellipse fill="none" stroke="#a4f672" cx="1798.83" cy="-1020.33" rx="4" ry="4"/>
<polygon fill="#a4f672" stroke="#a4f672" points="1800.93,-997.665 1806.33,-988.123 1801.39,-992.686 1801.85,-987.708 1801.85,-987.708 1801.85,-987.708 1801.39,-992.686 1797.37,-987.293 1800.93,-997.665 1800.93,-997.665"/>
</g>
<!-- Project&#45;&gt;Factor -->
<g id="edge29" class="edge"><title>Project&#45;&gt;Factor</title>
<path fill="none" stroke="#52b62e" d="M1890.4,-1014.97C1894.68,-1006.13 1898.41,-997.112 1901.38,-988 1938.36,-874.715 1893.12,-736.299 1859.77,-658.238"/>
<polygon fill="#52b62e" stroke="#52b62e" points="1890.28,-1015.2 1881.73,-1022.07 1888.01,-1019.65 1885.74,-1024.11 1885.74,-1024.11 1885.74,-1024.11 1888.01,-1019.65 1889.75,-1026.15 1890.28,-1015.2 1890.28,-1015.2"/>
<polygon fill="#52b62e" stroke="#52b62e" points="1859.75,-658.196 1859.9,-647.231 1857.76,-653.61 1855.77,-649.024 1855.77,-649.024 1855.77,-649.024 1857.76,-653.61 1851.64,-650.816 1859.75,-658.196 1859.75,-658.196"/>
</g>
<!-- Project&#45;&gt;Group -->
<g id="edge26" class="edge"><title>Project&#45;&gt;Group</title>
<path fill="none" stroke="#d92391" d="M1689.23,-1017.81C1681.29,-1007.6 1673.52,-997.612 1666.23,-988.229"/>
<ellipse fill="none" stroke="#d92391" cx="1691.84" cy="-1021.16" rx="4.00002" ry="4.00002"/>
<polygon fill="#d92391" stroke="#d92391" points="1666.08,-988.041 1663.49,-977.384 1663.01,-984.094 1659.94,-980.147 1659.94,-980.147 1659.94,-980.147 1663.01,-984.094 1656.39,-982.91 1666.08,-988.041 1666.08,-988.041"/>
</g>
<!-- Project&#45;&gt;User -->
<g id="edge28" class="edge"><title>Project&#45;&gt;User</title>
<path fill="none" stroke="#05a9f2" d="M1677.17,-1134.09C1506.32,-1116.26 1189.81,-1072.47 1119.38,-988 1098.94,-963.485 1090.94,-904.322 1089.01,-839.238"/>
<polygon fill="#05a9f2" stroke="#05a9f2" points="1677.26,-1134.1 1686.74,-1139.61 1682.23,-1134.62 1687.21,-1135.13 1687.21,-1135.13 1687.21,-1135.13 1682.23,-1134.62 1687.67,-1130.65 1677.26,-1134.1 1677.26,-1134.1"/>
<polygon fill="#05a9f2" stroke="#05a9f2" points="1089.01,-839.168 1093.26,-829.059 1088.88,-834.17 1088.76,-829.171 1088.76,-829.171 1088.76,-829.171 1088.88,-834.17 1084.26,-829.284 1089.01,-839.168 1089.01,-839.168"/>
</g>
<!-- Reaction&#45;&gt;Diagnosis -->
<g id="edge30" class="edge"><title>Reaction&#45;&gt;Diagnosis</title>
<path fill="none" stroke="#205265" d="M326.913,-167.096C323.246,-160.186 319.547,-153.216 315.903,-146.351"/>
<ellipse fill="none" stroke="#205265" cx="328.906" cy="-170.851" rx="4.00002" ry="4.00002"/>
<polygon fill="#205265" stroke="#205265" points="315.666,-145.903 314.953,-134.961 313.322,-141.487 310.978,-137.07 310.978,-137.07 310.978,-137.07 313.322,-141.487 307.003,-139.18 315.666,-145.903 315.666,-145.903"/>
</g>
<!-- Role -->
<g id="node20" class="node"><title>Role</title>
<path fill="none" stroke="black" d="M478.382,-874C478.382,-874 654.382,-874 654.382,-874 660.382,-874 666.382,-880 666.382,-886 666.382,-886 666.382,-968 666.382,-968 666.382,-974 660.382,-980 654.382,-980 654.382,-980 478.382,-980 478.382,-980 472.382,-980 466.382,-974 466.382,-968 466.382,-968 466.382,-886 466.382,-886 466.382,-880 472.382,-874 478.382,-874"/>
<text text-anchor="middle" x="566.382" y="-964.8" font-family="Times,serif" font-size="14.00">Role</text>
<polyline fill="none" stroke="black" points="466.382,-957 666.382,-957 "/>
<text text-anchor="start" x="474.382" y="-941.8" font-family="Times,serif" font-size="14.00">id :int(11)</text>
<text text-anchor="start" x="474.382" y="-926.8" font-family="Times,serif" font-size="14.00">name :varchar(255)</text>
<text text-anchor="start" x="474.382" y="-911.8" font-family="Times,serif" font-size="14.00">description :varchar(255)</text>
<text text-anchor="start" x="474.382" y="-896.8" font-family="Times,serif" font-size="14.00">created_at :datetime</text>
<text text-anchor="start" x="474.382" y="-881.8" font-family="Times,serif" font-size="14.00">updated_at :datetime</text>
</g>
<!-- Role&#45;&gt;Roster -->
<g id="edge32" class="edge"><title>Role&#45;&gt;Roster</title>
<path fill="none" stroke="#840872" d="M566.382,-865.669C566.382,-740.541 566.382,-453.405 566.382,-320.654"/>
<ellipse fill="none" stroke="#840872" cx="566.382" cy="-869.875" rx="4" ry="4"/>
<polygon fill="#840872" stroke="#840872" points="566.382,-320.598 570.882,-310.598 566.382,-315.598 566.382,-310.598 566.382,-310.598 566.382,-310.598 566.382,-315.598 561.882,-310.598 566.382,-320.598 566.382,-320.598"/>
</g>
<!-- Role&#45;&gt;User -->
<g id="edge31" class="edge"><title>Role&#45;&gt;User</title>
<path fill="none" stroke="#7d4f47" d="M657.917,-869.605C738.627,-819.879 857.726,-746.501 952.033,-688.398"/>
<ellipse fill="none" stroke="#7d4f47" cx="654.401" cy="-871.771" rx="4.00002" ry="4.00002"/>
<polygon fill="#7d4f47" stroke="#7d4f47" points="952.278,-688.248 963.152,-686.834 956.535,-685.625 960.791,-683.002 960.791,-683.002 960.791,-683.002 956.535,-685.625 958.431,-679.171 952.278,-688.248 952.278,-688.248"/>
</g>
<!-- Scenario&#45;&gt;Narrative -->
<g id="edge33" class="edge"><title>Scenario&#45;&gt;Narrative</title>
<path fill="none" stroke="#560f53" d="M245.901,-865.723C242.521,-807.205 237.414,-718.769 233.992,-659.505"/>
<ellipse fill="none" stroke="#560f53" cx="246.141" cy="-869.876" rx="4" ry="4"/>
<polygon fill="#560f53" stroke="#560f53" points="233.971,-659.142 237.887,-648.899 233.682,-654.15 233.394,-649.159 233.394,-649.159 233.394,-649.159 233.682,-654.15 228.902,-649.418 233.971,-659.142 233.971,-659.142"/>
</g>
<!-- School -->
<g id="node23" class="node"><title>School</title>
<path fill="none" stroke="black" d="M350.382,-1521C350.382,-1521 526.382,-1521 526.382,-1521 532.382,-1521 538.382,-1527 538.382,-1533 538.382,-1533 538.382,-1615 538.382,-1615 538.382,-1621 532.382,-1627 526.382,-1627 526.382,-1627 350.382,-1627 350.382,-1627 344.382,-1627 338.382,-1621 338.382,-1615 338.382,-1615 338.382,-1533 338.382,-1533 338.382,-1527 344.382,-1521 350.382,-1521"/>
<text text-anchor="middle" x="438.382" y="-1611.8" font-family="Times,serif" font-size="14.00">School</text>
<polyline fill="none" stroke="black" points="338.382,-1604 538.382,-1604 "/>
<text text-anchor="start" x="346.382" y="-1588.8" font-family="Times,serif" font-size="14.00">id :int(11)</text>
<text text-anchor="start" x="346.382" y="-1573.8" font-family="Times,serif" font-size="14.00">description :varchar(255)</text>
<text text-anchor="start" x="346.382" y="-1558.8" font-family="Times,serif" font-size="14.00">name :varchar(255)</text>
<text text-anchor="start" x="346.382" y="-1543.8" font-family="Times,serif" font-size="14.00">created_at :datetime</text>
<text text-anchor="start" x="346.382" y="-1528.8" font-family="Times,serif" font-size="14.00">updated_at :datetime</text>
</g>
<!-- School&#45;&gt;Course -->
<g id="edge34" class="edge"><title>School&#45;&gt;Course</title>
<path fill="none" stroke="#3533c9" d="M438.382,-1512.67C438.382,-1506.54 438.382,-1500.21 438.382,-1493.81"/>
<ellipse fill="none" stroke="#3533c9" cx="438.382" cy="-1516.74" rx="4" ry="4"/>
<polygon fill="#3533c9" stroke="#3533c9" points="438.382,-1493.7 442.882,-1483.7 438.382,-1488.7 438.382,-1483.7 438.382,-1483.7 438.382,-1483.7 438.382,-1488.7 433.882,-1483.7 438.382,-1493.7 438.382,-1493.7"/>
</g>
<!-- Style -->
<g id="node24" class="node"><title>Style</title>
<path fill="none" stroke="black" d="M1689.88,-1340C1689.88,-1340 1844.88,-1340 1844.88,-1340 1850.88,-1340 1856.88,-1346 1856.88,-1352 1856.88,-1352 1856.88,-1434 1856.88,-1434 1856.88,-1440 1850.88,-1446 1844.88,-1446 1844.88,-1446 1689.88,-1446 1689.88,-1446 1683.88,-1446 1677.88,-1440 1677.88,-1434 1677.88,-1434 1677.88,-1352 1677.88,-1352 1677.88,-1346 1683.88,-1340 1689.88,-1340"/>
<text text-anchor="middle" x="1767.38" y="-1430.8" font-family="Times,serif" font-size="14.00">Style</text>
<polyline fill="none" stroke="black" points="1677.88,-1423 1856.88,-1423 "/>
<text text-anchor="start" x="1685.88" y="-1407.8" font-family="Times,serif" font-size="14.00">id :int(11)</text>
<text text-anchor="start" x="1685.88" y="-1392.8" font-family="Times,serif" font-size="14.00">name :varchar(255)</text>
<text text-anchor="start" x="1685.88" y="-1377.8" font-family="Times,serif" font-size="14.00">filename :varchar(255)</text>
<text text-anchor="start" x="1685.88" y="-1362.8" font-family="Times,serif" font-size="14.00">created_at :datetime</text>
<text text-anchor="start" x="1685.88" y="-1347.8" font-family="Times,serif" font-size="14.00">updated_at :datetime</text>
</g>
<!-- Style&#45;&gt;Project -->
<g id="edge35" class="edge"><title>Style&#45;&gt;Project</title>
<path fill="none" stroke="#546d67" d="M1772.28,-1331.72C1773.67,-1314.65 1775.24,-1295.38 1776.82,-1275.87"/>
<ellipse fill="none" stroke="#546d67" cx="1771.95" cy="-1335.84" rx="4" ry="4"/>
<polygon fill="#546d67" stroke="#546d67" points="1776.84,-1275.63 1782.14,-1266.03 1777.25,-1270.65 1777.65,-1265.66 1777.65,-1265.66 1777.65,-1265.66 1777.25,-1270.65 1773.17,-1265.3 1776.84,-1275.63 1776.84,-1275.63"/>
</g>
<!-- User&#45;&gt;ConsentLog -->
<g id="edge36" class="edge"><title>User&#45;&gt;ConsentLog</title>
<path fill="none" stroke="#91d4a1" d="M1247.4,-531.407C1360.83,-480.47 1520.31,-404.73 1653.38,-326 1654.72,-325.211 1656.05,-324.41 1657.4,-323.599"/>
<ellipse fill="none" stroke="#91d4a1" cx="1243.64" cy="-533.09" rx="4.00002" ry="4.00002"/>
<polygon fill="#91d4a1" stroke="#91d4a1" points="1657.79,-323.358 1668.66,-321.932 1662.04,-320.731 1666.29,-318.104 1666.29,-318.104 1666.29,-318.104 1662.04,-320.731 1663.93,-314.275 1657.79,-323.358 1657.79,-323.358"/>
</g>
<!-- User&#45;&gt;Installment -->
<g id="edge37" class="edge"><title>User&#45;&gt;Installment</title>
<path fill="none" stroke="#b9bc50" d="M1246.52,-484.753C1316.02,-432.329 1397.21,-371.081 1459.04,-324.433"/>
<ellipse fill="none" stroke="#b9bc50" cx="1243.18" cy="-487.276" rx="4.00002" ry="4.00002"/>
<polygon fill="#b9bc50" stroke="#b9bc50" points="1459.27,-324.263 1469.96,-321.833 1463.26,-321.251 1467.25,-318.24 1467.25,-318.24 1467.25,-318.24 1463.26,-321.251 1464.54,-314.648 1459.27,-324.263 1459.27,-324.263"/>
</g>
<!-- User&#45;&gt;Reaction -->
<g id="edge39" class="edge"><title>User&#45;&gt;Reaction</title>
<path fill="none" stroke="#a6ef74" d="M952.967,-542.866C822.733,-494.263 629.623,-415.897 472.382,-326 470.17,-324.735 467.949,-323.431 465.724,-322.094"/>
<ellipse fill="none" stroke="#a6ef74" cx="956.926" cy="-544.34" rx="4.00001" ry="4.00001"/>
<polygon fill="#a6ef74" stroke="#a6ef74" points="465.643,-322.044 459.504,-312.958 461.39,-319.415 457.137,-316.785 457.137,-316.785 457.137,-316.785 461.39,-319.415 454.771,-320.613 465.643,-322.044 465.643,-322.044"/>
</g>
<!-- User&#45;&gt;Roster -->
<g id="edge38" class="edge"><title>User&#45;&gt;Roster</title>
<path fill="none" stroke="#db92c2" d="M953.83,-500.592C860.098,-440.211 741.311,-363.688 660.13,-311.392"/>
<ellipse fill="none" stroke="#db92c2" cx="957.415" cy="-502.901" rx="4.00002" ry="4.00002"/>
<polygon fill="#db92c2" stroke="#db92c2" points="659.816,-311.19 653.846,-301.991 655.612,-308.482 651.409,-305.774 651.409,-305.774 651.409,-305.774 655.612,-308.482 648.972,-309.557 659.816,-311.19 659.816,-311.19"/>
</g>
<!-- Week&#45;&gt;Behavior -->
<g id="edge40" class="edge"><title>Week&#45;&gt;Behavior</title>
<path fill="none" stroke="#44cfc8" d="M146.113,-318.327C140.423,-332.417 135.398,-347.428 132.382,-362 77.7405,-626.025 110.282,-951.014 127.625,-1083.49"/>
<ellipse fill="none" stroke="#44cfc8" cx="147.795" cy="-314.294" rx="4.00001" ry="4.00001"/>
<ellipse fill="#44cfc8" stroke="#44cfc8" cx="128.168" cy="-1087.59" rx="4.00001" ry="4.00001"/>
</g>
<!-- Week&#45;&gt;Diagnosis -->
<g id="edge41" class="edge"><title>Week&#45;&gt;Diagnosis</title>
<path fill="none" stroke="#9a0f00" d="M215.819,-182.23C222.06,-170.471 228.598,-158.151 234.963,-146.157"/>
<ellipse fill="none" stroke="#9a0f00" cx="213.891" cy="-185.862" rx="4.00002" ry="4.00002"/>
<polygon fill="#9a0f00" stroke="#9a0f00" points="235.101,-145.898 243.764,-139.174 237.445,-141.481 239.789,-137.065 239.789,-137.065 239.789,-137.065 237.445,-141.481 235.814,-134.955 235.101,-145.898 235.101,-145.898"/>
</g>
</g>
</svg>
