<?xml version="1.0" encoding="UTF-8" standalone="no"?>
<!DOCTYPE svg PUBLIC "-//W3C//DTD SVG 1.1//EN"
 "http://www.w3.org/Graphics/SVG/1.1/DTD/svg11.dtd">
<!-- Generated by graphviz version 2.36.0 (20140111.2315)
 -->
<!-- Title: models_diagram Pages: 1 -->
<svg width="1226pt" height="806pt"
 viewBox="0.00 0.00 1226.00 806.00" xmlns="http://www.w3.org/2000/svg" xmlns:xlink="http://www.w3.org/1999/xlink">
<g id="graph0" class="graph" transform="scale(1 1) rotate(0) translate(4 802)">
<title>models_diagram</title>
<polygon fill="none" stroke="none" points="-4,4 -4,-802 1222,-802 1222,4 -4,4"/>
<!-- _diagram_info -->
<g id="node1" class="node"><title>_diagram_info</title>
<text text-anchor="start" x="765.5" y="-783.6" font-family="Times,serif" font-size="13.00">Models diagram</text>
<text text-anchor="start" x="765.5" y="-769.6" font-family="Times,serif" font-size="13.00">Date: Feb 25 2017 &#45; 21:33</text>
<text text-anchor="start" x="765.5" y="-755.6" font-family="Times,serif" font-size="13.00">Migration version: 20170225093259</text>
<text text-anchor="start" x="765.5" y="-741.6" font-family="Times,serif" font-size="13.00">Generated by RailRoady 1.5.2</text>
<text text-anchor="start" x="765.5" y="-727.6" font-family="Times,serif" font-size="13.00">http://railroady.prestonlee.com</text>
</g>
<!-- AgeRange -->
<g id="node2" class="node"><title>AgeRange</title>
<ellipse fill="none" stroke="black" cx="481" cy="-450" rx="57.2688" ry="18"/>
<text text-anchor="middle" x="481" y="-446.3" font-family="Times,serif" font-size="14.00">AgeRange</text>
</g>
<!-- User -->
<g id="node27" class="node"><title>User</title>
<ellipse fill="none" stroke="black" cx="608" cy="-378" rx="32.2457" ry="18"/>
<text text-anchor="middle" x="608" y="-374.3" font-family="Times,serif" font-size="14.00">User</text>
</g>
<!-- AgeRange&#45;&gt;User -->
<g id="edge1" class="edge"><title>AgeRange&#45;&gt;User</title>
<path fill="none" stroke="#ca3a37" d="M515.293,-430.099C534.49,-419.517 558.242,-406.426 576.898,-396.143"/>
<ellipse fill="none" stroke="#ca3a37" cx="511.748" cy="-432.052" rx="4.00002" ry="4.00002"/>
<polygon fill="#ca3a37" stroke="#ca3a37" points="577.113,-396.025 588.043,-395.138 581.491,-393.611 585.87,-391.197 585.87,-391.197 585.87,-391.197 581.491,-393.611 583.698,-387.256 577.113,-396.025 577.113,-396.025"/>
</g>
<!-- Assessment -->
<g id="node3" class="node"><title>Assessment</title>
<ellipse fill="none" stroke="black" cx="234" cy="-522" rx="65.9423" ry="18"/>
<text text-anchor="middle" x="234" y="-518.3" font-family="Times,serif" font-size="14.00">Assessment</text>
</g>
<!-- Factor -->
<g id="node12" class="node"><title>Factor</title>
<ellipse fill="none" stroke="black" cx="152" cy="-450" rx="40.4202" ry="18"/>
<text text-anchor="middle" x="152" y="-446.3" font-family="Times,serif" font-size="14.00">Factor</text>
</g>
<!-- Assessment&#45;&gt;Factor -->
<g id="edge3" class="edge"><title>Assessment&#45;&gt;Factor</title>
<path fill="none" stroke="#dbbdc4" d="M206.893,-497.86C197.485,-489.829 186.971,-480.853 177.682,-472.923"/>
<polygon fill="#dbbdc4" stroke="#dbbdc4" points="206.961,-497.918 211.645,-507.834 210.764,-501.165 214.567,-504.411 214.567,-504.411 214.567,-504.411 210.764,-501.165 217.489,-500.988 206.961,-497.918 206.961,-497.918"/>
<polygon fill="#dbbdc4" stroke="#dbbdc4" points="177.498,-472.767 172.814,-462.851 173.695,-469.52 169.892,-466.274 169.892,-466.274 169.892,-466.274 173.695,-469.52 166.971,-469.696 177.498,-472.767 177.498,-472.767"/>
</g>
<!-- Group -->
<g id="node15" class="node"><title>Group</title>
<ellipse fill="none" stroke="black" cx="289" cy="-450" rx="39.4691" ry="18"/>
<text text-anchor="middle" x="289" y="-446.3" font-family="Times,serif" font-size="14.00">Group</text>
</g>
<!-- Assessment&#45;&gt;Group -->
<g id="edge5" class="edge"><title>Assessment&#45;&gt;Group</title>
<path fill="none" stroke="#c93165" d="M253.624,-496.025C258.898,-489.311 264.595,-482.061 269.844,-475.38"/>
<polygon fill="#c93165" stroke="#c93165" points="253.492,-496.192 243.776,-501.275 250.403,-500.123 247.314,-504.055 247.314,-504.055 247.314,-504.055 250.403,-500.123 250.852,-506.835 253.492,-496.192 253.492,-496.192"/>
<polygon fill="#c93165" stroke="#c93165" points="270.009,-475.17 279.726,-470.087 273.098,-471.239 276.187,-467.307 276.187,-467.307 276.187,-467.307 273.098,-471.239 272.649,-464.527 270.009,-475.17 270.009,-475.17"/>
</g>
<!-- Installment -->
<g id="node17" class="node"><title>Installment</title>
<ellipse fill="none" stroke="black" cx="289" cy="-306" rx="64.0172" ry="18"/>
<text text-anchor="middle" x="289" y="-302.3" font-family="Times,serif" font-size="14.00">Installment</text>
</g>
<!-- Assessment&#45;&gt;Installment -->
<g id="edge2" class="edge"><title>Assessment&#45;&gt;Installment</title>
<path fill="none" stroke="#fb580a" d="M233.663,-495.469C233.924,-477.516 235.285,-453.038 240,-432 247.965,-396.459 264.462,-357.734 276.108,-332.954"/>
<ellipse fill="none" stroke="#fb580a" cx="233.638" cy="-499.716" rx="4" ry="4"/>
<polygon fill="#fb580a" stroke="#fb580a" points="276.142,-332.883 284.518,-325.805 278.3,-328.373 280.459,-323.863 280.459,-323.863 280.459,-323.863 278.3,-328.373 276.399,-321.92 276.142,-332.883 276.142,-332.883"/>
</g>
<!-- Assessment&#45;&gt;User -->
<g id="edge4" class="edge"><title>Assessment&#45;&gt;User</title>
<path fill="none" stroke="#3d4978" d="M276.071,-501.848C295.19,-492.52 317.779,-480.606 337,-468 358.128,-454.143 358.332,-443.162 381,-432 441.42,-402.249 519.211,-388.781 566.257,-382.999"/>
<polygon fill="#3d4978" stroke="#3d4978" points="276.007,-501.879 265.045,-502.155 271.501,-504.045 266.995,-506.211 266.995,-506.211 266.995,-506.211 271.501,-504.045 268.944,-510.267 276.007,-501.879 276.007,-501.879"/>
<polygon fill="#3d4978" stroke="#3d4978" points="566.451,-382.976 576.906,-386.284 571.417,-382.396 576.383,-381.815 576.383,-381.815 576.383,-381.815 571.417,-382.396 575.86,-377.345 566.451,-382.976 566.451,-382.976"/>
</g>
<!-- Behavior -->
<g id="node4" class="node"><title>Behavior</title>
<ellipse fill="none" stroke="black" cx="740" cy="-162" rx="51.4931" ry="18"/>
<text text-anchor="middle" x="740" y="-158.3" font-family="Times,serif" font-size="14.00">Behavior</text>
</g>
<!-- Diagnosis -->
<g id="node9" class="node"><title>Diagnosis</title>
<ellipse fill="none" stroke="black" cx="767" cy="-18" rx="55.3436" ry="18"/>
<text text-anchor="middle" x="767" y="-14.3" font-family="Times,serif" font-size="14.00">Diagnosis</text>
</g>
<!-- Behavior&#45;&gt;Diagnosis -->
<g id="edge8" class="edge"><title>Behavior&#45;&gt;Diagnosis</title>
<path fill="none" stroke="#58e5fd" d="M744.767,-135.929C749.559,-110.725 756.924,-71.9942 761.848,-46.0947"/>
<ellipse fill="none" stroke="#58e5fd" cx="744.004" cy="-139.942" rx="4.00001" ry="4.00001"/>
<polygon fill="#58e5fd" stroke="#58e5fd" points="761.864,-46.0133 768.152,-37.0299 762.798,-41.1013 763.732,-36.1893 763.732,-36.1893 763.732,-36.1893 762.798,-41.1013 759.311,-35.3487 761.864,-46.0133 761.864,-46.0133"/>
</g>
<!-- Reaction -->
<g id="node20" class="node"><title>Reaction</title>
<ellipse fill="none" stroke="black" cx="660" cy="-90" rx="51.4931" ry="18"/>
<text text-anchor="middle" x="660" y="-86.3" font-family="Times,serif" font-size="14.00">Reaction</text>
</g>
<!-- Behavior&#45;&gt;Reaction -->
<g id="edge7" class="edge"><title>Behavior&#45;&gt;Reaction</title>
<path fill="none" stroke="#f351fd" d="M715.793,-139.819C706.396,-131.597 695.615,-122.163 686.05,-113.793"/>
<ellipse fill="none" stroke="#f351fd" cx="718.836" cy="-142.482" rx="4.00002" ry="4.00002"/>
<polygon fill="#f351fd" stroke="#f351fd" points="685.884,-113.649 681.322,-103.677 682.121,-110.356 678.358,-107.064 678.358,-107.064 678.358,-107.064 682.121,-110.356 675.395,-110.45 685.884,-113.649 685.884,-113.649"/>
</g>
<!-- Scenario -->
<g id="node23" class="node"><title>Scenario</title>
<ellipse fill="none" stroke="black" cx="868" cy="-90" rx="51.0191" ry="18"/>
<text text-anchor="middle" x="868" y="-86.3" font-family="Times,serif" font-size="14.00">Scenario</text>
</g>
<!-- Behavior&#45;&gt;Scenario -->
<g id="edge6" class="edge"><title>Behavior&#45;&gt;Scenario</title>
<path fill="none" stroke="#188e7b" d="M773.755,-142.54C791.879,-132.629 814.206,-120.419 832.578,-110.371"/>
<ellipse fill="none" stroke="#188e7b" cx="770.031" cy="-144.577" rx="4.00002" ry="4.00002"/>
<polygon fill="#188e7b" stroke="#188e7b" points="832.739,-110.284 843.671,-109.434 837.125,-107.885 841.512,-105.485 841.512,-105.485 841.512,-105.485 837.125,-107.885 839.353,-101.537 832.739,-110.284 832.739,-110.284"/>
</g>
<!-- CipCode -->
<g id="node5" class="node"><title>CipCode</title>
<ellipse fill="none" stroke="black" cx="608" cy="-450" rx="50.5427" ry="18"/>
<text text-anchor="middle" x="608" y="-446.3" font-family="Times,serif" font-size="14.00">CipCode</text>
</g>
<!-- CipCode&#45;&gt;User -->
<g id="edge9" class="edge"><title>CipCode&#45;&gt;User</title>
<path fill="none" stroke="#06716c" d="M608,-423.64C608,-418.063 608,-412.132 608,-406.476"/>
<ellipse fill="none" stroke="#06716c" cx="608" cy="-427.697" rx="4" ry="4"/>
<polygon fill="#06716c" stroke="#06716c" points="608,-406.104 612.5,-396.104 608,-401.104 608,-396.104 608,-396.104 608,-396.104 608,-401.104 603.5,-396.104 608,-406.104 608,-406.104"/>
</g>
<!-- ConsentForm -->
<g id="node6" class="node"><title>ConsentForm</title>
<ellipse fill="none" stroke="black" cx="73" cy="-666" rx="73.1654" ry="18"/>
<text text-anchor="middle" x="73" y="-662.3" font-family="Times,serif" font-size="14.00">ConsentForm</text>
</g>
<!-- ConsentLog -->
<g id="node7" class="node"><title>ConsentLog</title>
<ellipse fill="none" stroke="black" cx="89" cy="-306" rx="66.4165" ry="18"/>
<text text-anchor="middle" x="89" y="-302.3" font-family="Times,serif" font-size="14.00">ConsentLog</text>
</g>
<!-- ConsentForm&#45;&gt;ConsentLog -->
<g id="edge11" class="edge"><title>ConsentForm&#45;&gt;ConsentLog</title>
<path fill="none" stroke="#85dcdf" d="M62.7125,-640.165C52.0729,-612.192 37,-565.129 37,-523 37,-523 37,-523 37,-449 37,-408.553 40.8618,-397.507 56,-360 59.854,-350.451 65.3921,-340.691 70.8336,-332.191"/>
<ellipse fill="none" stroke="#85dcdf" cx="64.2621" cy="-644.14" rx="4.00001" ry="4.00001"/>
<polygon fill="#85dcdf" stroke="#85dcdf" points="70.8468,-332.171 80.1386,-326.347 73.6207,-328.011 76.3946,-323.851 76.3946,-323.851 76.3946,-323.851 73.6207,-328.011 72.6505,-321.354 70.8468,-332.171 70.8468,-332.171"/>
</g>
<!-- Project -->
<g id="node19" class="node"><title>Project</title>
<ellipse fill="none" stroke="black" cx="234" cy="-594" rx="44.2946" ry="18"/>
<text text-anchor="middle" x="234" y="-590.3" font-family="Times,serif" font-size="14.00">Project</text>
</g>
<!-- ConsentForm&#45;&gt;Project -->
<g id="edge10" class="edge"><title>ConsentForm&#45;&gt;Project</title>
<path fill="none" stroke="#33b515" d="M114.906,-646.78C139.871,-635.926 171.322,-622.251 195.634,-611.681"/>
<ellipse fill="none" stroke="#33b515" cx="111.207" cy="-648.388" rx="4.00002" ry="4.00002"/>
<polygon fill="#33b515" stroke="#33b515" points="195.736,-611.637 206.701,-611.776 200.321,-609.643 204.907,-607.649 204.907,-607.649 204.907,-607.649 200.321,-609.643 203.112,-603.522 195.736,-611.637 195.736,-611.637"/>
</g>
<!-- Course -->
<g id="node8" class="node"><title>Course</title>
<ellipse fill="none" stroke="black" cx="1074" cy="-666" rx="44.2946" ry="18"/>
<text text-anchor="middle" x="1074" y="-662.3" font-family="Times,serif" font-size="14.00">Course</text>
</g>
<!-- Experience -->
<g id="node11" class="node"><title>Experience</title>
<ellipse fill="none" stroke="black" cx="666" cy="-306" rx="63.5411" ry="18"/>
<text text-anchor="middle" x="666" y="-302.3" font-family="Times,serif" font-size="14.00">Experience</text>
</g>
<!-- Course&#45;&gt;Experience -->
<g id="edge15" class="edge"><title>Course&#45;&gt;Experience</title>
<path fill="none" stroke="#6ab753" d="M1090.41,-641.645C1107.87,-614.467 1133,-567.601 1133,-523 1133,-523 1133,-523 1133,-449 1133,-437.669 1123.94,-437.442 1114,-432 1079.2,-412.941 833.708,-349.453 721.599,-321.002"/>
<ellipse fill="none" stroke="#6ab753" cx="1088.14" cy="-645.102" rx="4.00002" ry="4.00002"/>
<polygon fill="#6ab753" stroke="#6ab753" points="721.516,-320.981 712.928,-314.162 716.669,-319.752 711.823,-318.524 711.823,-318.524 711.823,-318.524 716.669,-319.752 710.717,-322.886 721.516,-320.981 721.516,-320.981"/>
</g>
<!-- Course&#45;&gt;Project -->
<g id="edge12" class="edge"><title>Course&#45;&gt;Project</title>
<path fill="none" stroke="#35edca" d="M1022.84,-660.737C873.333,-648.278 438.168,-612.014 286.708,-599.392"/>
<ellipse fill="none" stroke="#35edca" cx="1027.2" cy="-661.1" rx="4" ry="4"/>
<polygon fill="#35edca" stroke="#35edca" points="286.69,-599.391 277.098,-594.076 281.707,-598.976 276.724,-598.56 276.724,-598.56 276.724,-598.56 281.707,-598.976 276.351,-603.045 286.69,-599.391 286.69,-599.391"/>
</g>
<!-- Roster -->
<g id="node22" class="node"><title>Roster</title>
<ellipse fill="none" stroke="black" cx="1074" cy="-306" rx="41.394" ry="18"/>
<text text-anchor="middle" x="1074" y="-302.3" font-family="Times,serif" font-size="14.00">Roster</text>
</g>
<!-- Course&#45;&gt;Roster -->
<g id="edge13" class="edge"><title>Course&#45;&gt;Roster</title>
<path fill="none" stroke="#a32910" d="M1108.03,-647.164C1121.96,-638.302 1137.09,-626.389 1147,-612 1170.24,-578.259 1171,-563.969 1171,-523 1171,-523 1171,-523 1171,-449 1171,-408.031 1170.24,-393.741 1147,-360 1137.31,-345.927 1122.62,-334.223 1108.95,-325.425"/>
<ellipse fill="none" stroke="#a32910" cx="1104.31" cy="-649.434" rx="4.00002" ry="4.00002"/>
<polygon fill="#a32910" stroke="#a32910" points="1108.71,-325.28 1102.53,-316.227 1104.45,-322.674 1100.18,-320.067 1100.18,-320.067 1100.18,-320.067 1104.45,-322.674 1097.83,-323.907 1108.71,-325.28 1108.71,-325.28"/>
</g>
<!-- Course&#45;&gt;User -->
<g id="edge14" class="edge"><title>Course&#45;&gt;User</title>
<path fill="none" stroke="#7ceb83" d="M1073.61,-637.656C1071.29,-588.149 1058.76,-483.987 996,-432 944.125,-389.032 740.091,-380.828 650.533,-379.314"/>
<polygon fill="#7ceb83" stroke="#7ceb83" points="1073.61,-637.911 1069.48,-648.066 1073.79,-642.908 1073.97,-647.905 1073.97,-647.905 1073.97,-647.905 1073.79,-642.908 1078.47,-647.743 1073.61,-637.911 1073.61,-637.911"/>
<polygon fill="#7ceb83" stroke="#7ceb83" points="650.449,-379.313 640.517,-374.664 645.449,-379.238 640.45,-379.164 640.45,-379.164 640.45,-379.164 645.449,-379.238 640.383,-383.663 650.449,-379.313 650.449,-379.313"/>
</g>
<!-- Diagnosis&#45;&gt;User -->
<g id="edge16" class="edge"><title>Diagnosis&#45;&gt;User</title>
<path fill="none" stroke="#322f0f" d="M828.453,-24.4459C862.449,-30.6752 902.794,-43.9226 928,-72 955.02,-102.098 947,-120.553 947,-161 947,-235 947,-235 947,-235 947,-363.086 738.571,-377.61 648.577,-377.912"/>
<ellipse fill="none" stroke="#322f0f" cx="824.353" cy="-23.7493" rx="4.00001" ry="4.00001"/>
<ellipse fill="#322f0f" stroke="#322f0f" cx="644.505" cy="-377.907" rx="4" ry="4"/>
</g>
<!-- Email -->
<g id="node10" class="node"><title>Email</title>
<ellipse fill="none" stroke="black" cx="547" cy="-306" rx="37.5442" ry="18"/>
<text text-anchor="middle" x="547" y="-302.3" font-family="Times,serif" font-size="14.00">Email</text>
</g>
<!-- Experience&#45;&gt;Reaction -->
<g id="edge17" class="edge"><title>Experience&#45;&gt;Reaction</title>
<path fill="none" stroke="#54b50e" d="M654.525,-280.189C651.066,-271.471 647.729,-261.482 646,-252 637.387,-204.779 639.819,-191.6 646,-144 647.133,-135.277 649.272,-125.945 651.544,-117.58"/>
<ellipse fill="none" stroke="#54b50e" cx="656.154" cy="-284.096" rx="4.00001" ry="4.00001"/>
<polygon fill="#54b50e" stroke="#54b50e" points="651.547,-117.57 658.645,-109.211 652.934,-112.766 654.322,-107.962 654.322,-107.962 654.322,-107.962 652.934,-112.766 649.999,-106.714 651.547,-117.57 651.547,-117.57"/>
</g>
<!-- FactorPack -->
<g id="node13" class="node"><title>FactorPack</title>
<ellipse fill="none" stroke="black" cx="129" cy="-378" rx="63.5411" ry="18"/>
<text text-anchor="middle" x="129" y="-374.3" font-family="Times,serif" font-size="14.00">FactorPack</text>
</g>
<!-- Factor&#45;&gt;FactorPack -->
<g id="edge18" class="edge"><title>Factor&#45;&gt;FactorPack</title>
<path fill="none" stroke="#deaf86" d="M143.224,-422.29C141.477,-416.975 139.642,-411.388 137.891,-406.061"/>
<polygon fill="#deaf86" stroke="#deaf86" points="143.311,-422.555 142.157,-433.46 144.872,-427.305 146.432,-432.055 146.432,-432.055 146.432,-432.055 144.872,-427.305 150.707,-430.65 143.311,-422.555 143.311,-422.555"/>
<polygon fill="#deaf86" stroke="#deaf86" points="137.798,-405.776 138.951,-394.871 136.237,-401.025 134.676,-396.275 134.676,-396.275 134.676,-396.275 136.237,-401.025 130.401,-397.68 137.798,-405.776 137.798,-405.776"/>
</g>
<!-- FactorPack&#45;&gt;Project -->
<g id="edge19" class="edge"><title>FactorPack&#45;&gt;Project</title>
<path fill="none" stroke="#a65a2c" d="M113.826,-402.87C109.057,-411.675 104.41,-421.959 102,-432 98.2654,-447.558 97.7448,-452.576 102,-468 111.913,-503.93 118.628,-513.661 145,-540 159.601,-554.583 178.995,-566.741 195.95,-575.719"/>
<ellipse fill="none" stroke="#a65a2c" cx="115.836" cy="-399.337" rx="4.00002" ry="4.00002"/>
<polygon fill="#a65a2c" stroke="#a65a2c" points="196.166,-575.829 203.028,-584.382 200.62,-578.101 205.074,-580.374 205.074,-580.374 205.074,-580.374 200.62,-578.101 207.119,-576.366 196.166,-575.829 196.166,-575.829"/>
</g>
<!-- Gender -->
<g id="node14" class="node"><title>Gender</title>
<ellipse fill="none" stroke="black" cx="722" cy="-450" rx="44.271" ry="18"/>
<text text-anchor="middle" x="722" y="-446.3" font-family="Times,serif" font-size="14.00">Gender</text>
</g>
<!-- Gender&#45;&gt;User -->
<g id="edge20" class="edge"><title>Gender&#45;&gt;User</title>
<path fill="none" stroke="#01fb16" d="M691.645,-430.361C674.962,-420.117 654.35,-407.46 637.761,-397.274"/>
<ellipse fill="none" stroke="#01fb16" cx="695.247" cy="-432.572" rx="4.00002" ry="4.00002"/>
<polygon fill="#01fb16" stroke="#01fb16" points="637.532,-397.134 631.365,-388.066 633.271,-394.517 629.01,-391.901 629.01,-391.901 629.01,-391.901 633.271,-394.517 626.655,-395.736 637.532,-397.134 637.532,-397.134"/>
</g>
<!-- Group&#45;&gt;Installment -->
<g id="edge22" class="edge"><title>Group&#45;&gt;Installment</title>
<path fill="none" stroke="#a03268" d="M289,-423.558C289,-398.444 289,-360.164 289,-334.393"/>
<ellipse fill="none" stroke="#a03268" cx="289" cy="-427.871" rx="4" ry="4"/>
<polygon fill="#a03268" stroke="#a03268" points="289,-334.189 293.5,-324.189 289,-329.189 289,-324.189 289,-324.189 289,-324.189 289,-329.189 284.5,-324.189 289,-334.189 289,-334.189"/>
</g>
<!-- Group&#45;&gt;User -->
<g id="edge21" class="edge"><title>Group&#45;&gt;User</title>
<path fill="none" stroke="#bccfd2" d="M329.482,-435.74C334.022,-434.406 338.597,-433.13 343,-432 421.82,-411.774 515.473,-394.627 567.684,-385.671"/>
<polygon fill="#bccfd2" stroke="#bccfd2" points="329.246,-435.811 318.37,-434.408 324.461,-437.263 319.676,-438.714 319.676,-438.714 319.676,-438.714 324.461,-437.263 320.982,-443.02 329.246,-435.811 329.246,-435.811"/>
<polygon fill="#bccfd2" stroke="#bccfd2" points="567.698,-385.668 578.312,-388.427 572.627,-384.829 577.556,-383.99 577.556,-383.99 577.556,-383.99 572.627,-384.829 576.801,-379.554 567.698,-385.668 567.698,-385.668"/>
</g>
<!-- GroupProjectCount -->
<g id="node16" class="node"><title>GroupProjectCount</title>
<ellipse fill="none" stroke="black" cx="886" cy="-450" rx="101.087" ry="18"/>
<text text-anchor="middle" x="886" y="-446.3" font-family="Times,serif" font-size="14.00">GroupProjectCount</text>
</g>
<!-- GroupProjectCount&#45;&gt;User -->
<g id="edge23" class="edge"><title>GroupProjectCount&#45;&gt;User</title>
<path fill="none" stroke="#df283b" d="M822.034,-432.893C767.897,-419.262 692.077,-400.17 646.718,-388.749"/>
<ellipse fill="none" stroke="#df283b" cx="826.198" cy="-433.942" rx="4.00001" ry="4.00001"/>
<polygon fill="#df283b" stroke="#df283b" points="646.67,-388.737 638.071,-381.931 641.821,-387.516 636.972,-386.295 636.972,-386.295 636.972,-386.295 641.821,-387.516 635.873,-390.659 646.67,-388.737 646.67,-388.737"/>
</g>
<!-- Value -->
<g id="node28" class="node"><title>Value</title>
<ellipse fill="none" stroke="black" cx="289" cy="-234" rx="36.096" ry="18"/>
<text text-anchor="middle" x="289" y="-230.3" font-family="Times,serif" font-size="14.00">Value</text>
</g>
<!-- Installment&#45;&gt;Value -->
<g id="edge24" class="edge"><title>Installment&#45;&gt;Value</title>
<path fill="none" stroke="#8d18d8" d="M289,-279.64C289,-274.063 289,-268.132 289,-262.476"/>
<ellipse fill="none" stroke="#8d18d8" cx="289" cy="-283.697" rx="4" ry="4"/>
<polygon fill="#8d18d8" stroke="#8d18d8" points="289,-262.104 293.5,-252.104 289,-257.104 289,-252.104 289,-252.104 289,-252.104 289,-257.104 284.5,-252.104 289,-262.104 289,-262.104"/>
</g>
<!-- Narrative -->
<g id="node18" class="node"><title>Narrative</title>
<ellipse fill="none" stroke="black" cx="804" cy="-306" rx="55.3436" ry="18"/>
<text text-anchor="middle" x="804" y="-302.3" font-family="Times,serif" font-size="14.00">Narrative</text>
</g>
<!-- Narrative&#45;&gt;Behavior -->
<g id="edge26" class="edge"><title>Narrative&#45;&gt;Behavior</title>
<path fill="none" stroke="#e3bc18" d="M781.106,-283.048C773.007,-274.124 764.541,-263.264 759,-252 749.082,-231.837 744.32,-206.609 742.046,-188.167"/>
<ellipse fill="none" stroke="#e3bc18" cx="783.873" cy="-285.986" rx="4.00002" ry="4.00002"/>
<ellipse fill="#e3bc18" stroke="#e3bc18" cx="741.606" cy="-184.189" rx="4.00001" ry="4.00001"/>
</g>
<!-- Narrative&#45;&gt;Reaction -->
<g id="edge27" class="edge"><title>Narrative&#45;&gt;Reaction</title>
<path fill="none" stroke="#ab4905" d="M774.399,-284.384C745.046,-262.202 701.323,-224.111 679,-180 669.22,-160.674 664.466,-136.523 662.159,-118.257"/>
<ellipse fill="none" stroke="#ab4905" cx="777.951" cy="-287.022" rx="4.00002" ry="4.00002"/>
<polygon fill="#ab4905" stroke="#ab4905" points="662.154,-118.204 665.538,-107.774 661.609,-113.234 661.065,-108.264 661.065,-108.264 661.065,-108.264 661.609,-113.234 656.591,-108.754 662.154,-118.204 662.154,-118.204"/>
</g>
<!-- Week -->
<g id="node29" class="node"><title>Week</title>
<ellipse fill="none" stroke="black" cx="804" cy="-234" rx="36.096" ry="18"/>
<text text-anchor="middle" x="804" y="-230.3" font-family="Times,serif" font-size="14.00">Week</text>
</g>
<!-- Narrative&#45;&gt;Week -->
<g id="edge25" class="edge"><title>Narrative&#45;&gt;Week</title>
<path fill="none" stroke="#8b32ce" d="M804,-279.64C804,-274.063 804,-268.132 804,-262.476"/>
<ellipse fill="none" stroke="#8b32ce" cx="804" cy="-283.697" rx="4" ry="4"/>
<polygon fill="#8b32ce" stroke="#8b32ce" points="804,-262.104 808.5,-252.104 804,-257.104 804,-252.104 804,-252.104 804,-252.104 804,-257.104 799.5,-252.104 804,-262.104 804,-262.104"/>
</g>
<!-- Project&#45;&gt;Assessment -->
<g id="edge29" class="edge"><title>Project&#45;&gt;Assessment</title>
<path fill="none" stroke="#1d73c9" d="M234,-567.64C234,-562.063 234,-556.132 234,-550.476"/>
<ellipse fill="none" stroke="#1d73c9" cx="234" cy="-571.697" rx="4" ry="4"/>
<polygon fill="#1d73c9" stroke="#1d73c9" points="234,-550.104 238.5,-540.104 234,-545.104 234,-540.104 234,-540.104 234,-540.104 234,-545.104 229.5,-540.104 234,-550.104 234,-550.104"/>
</g>
<!-- Project&#45;&gt;Factor -->
<g id="edge31" class="edge"><title>Project&#45;&gt;Factor</title>
<path fill="none" stroke="#9cb268" d="M195.783,-575.022C181.822,-566.443 167.405,-554.78 159,-540 148.368,-521.304 147.206,-496.726 148.371,-478.137"/>
<polygon fill="#9cb268" stroke="#9cb268" points="196.154,-575.234 202.583,-584.117 200.489,-577.725 204.825,-580.215 204.825,-580.215 204.825,-580.215 200.489,-577.725 207.066,-576.313 196.154,-575.234 196.154,-575.234"/>
<polygon fill="#9cb268" stroke="#9cb268" points="148.389,-477.934 153.754,-468.37 148.83,-472.953 149.271,-467.973 149.271,-467.973 149.271,-467.973 148.83,-472.953 144.789,-467.576 148.389,-477.934 148.389,-477.934"/>
</g>
<!-- Project&#45;&gt;Group -->
<g id="edge28" class="edge"><title>Project&#45;&gt;Group</title>
<path fill="none" stroke="#3cbc52" d="M270.811,-576.544C285.484,-567.923 300.809,-555.817 309,-540 319.294,-520.12 312.122,-495.058 303.633,-476.599"/>
<ellipse fill="none" stroke="#3cbc52" cx="267.191" cy="-578.555" rx="4.00002" ry="4.00002"/>
<polygon fill="#3cbc52" stroke="#3cbc52" points="303.615,-476.563 303.189,-465.605 301.388,-472.086 299.16,-467.61 299.16,-467.61 299.16,-467.61 301.388,-472.086 295.131,-469.615 303.615,-476.563 303.615,-476.563"/>
</g>
<!-- Project&#45;&gt;User -->
<g id="edge30" class="edge"><title>Project&#45;&gt;User</title>
<path fill="none" stroke="#356329" d="M271.64,-575.318C289.143,-566.127 309.652,-553.907 326,-540 373.162,-499.882 362.104,-465.77 414,-432 460.807,-401.541 524.855,-388.454 566.328,-382.921"/>
<polygon fill="#356329" stroke="#356329" points="271.176,-575.555 260.223,-576.097 266.723,-577.83 262.27,-580.105 262.27,-580.105 262.27,-580.105 266.723,-577.83 264.318,-584.112 271.176,-575.555 271.176,-575.555"/>
<polygon fill="#356329" stroke="#356329" points="566.438,-382.907 576.918,-386.137 571.4,-382.289 576.362,-381.671 576.362,-381.671 576.362,-381.671 571.4,-382.289 575.805,-377.206 566.438,-382.907 566.438,-382.907"/>
</g>
<!-- Reaction&#45;&gt;Diagnosis -->
<g id="edge32" class="edge"><title>Reaction&#45;&gt;Diagnosis</title>
<path fill="none" stroke="#7d1139" d="M690.189,-69.2501C704.166,-60.1065 720.781,-49.2367 734.977,-39.9495"/>
<ellipse fill="none" stroke="#7d1139" cx="686.565" cy="-71.6212" rx="4.00002" ry="4.00002"/>
<polygon fill="#7d1139" stroke="#7d1139" points="735.09,-39.8757 745.922,-38.1668 739.274,-37.1384 743.458,-34.401 743.458,-34.401 743.458,-34.401 739.274,-37.1384 740.995,-30.6353 735.09,-39.8757 735.09,-39.8757"/>
</g>
<!-- Role -->
<g id="node21" class="node"><title>Role</title>
<ellipse fill="none" stroke="black" cx="1074" cy="-450" rx="31.2965" ry="18"/>
<text text-anchor="middle" x="1074" y="-446.3" font-family="Times,serif" font-size="14.00">Role</text>
</g>
<!-- Role&#45;&gt;Roster -->
<g id="edge34" class="edge"><title>Role&#45;&gt;Roster</title>
<path fill="none" stroke="#794350" d="M1074,-423.558C1074,-398.444 1074,-360.164 1074,-334.393"/>
<ellipse fill="none" stroke="#794350" cx="1074" cy="-427.871" rx="4" ry="4"/>
<polygon fill="#794350" stroke="#794350" points="1074,-334.189 1078.5,-324.189 1074,-329.189 1074,-324.189 1074,-324.189 1074,-324.189 1074,-329.189 1069.5,-324.189 1074,-334.189 1074,-334.189"/>
</g>
<!-- Role&#45;&gt;User -->
<g id="edge33" class="edge"><title>Role&#45;&gt;User</title>
<path fill="none" stroke="#fe056e" d="M1041.97,-435.853C1037.66,-434.394 1033.26,-433.056 1029,-432 893.109,-398.281 726.943,-385.416 650.358,-381.026"/>
<ellipse fill="none" stroke="#fe056e" cx="1045.81" cy="-437.229" rx="4.00001" ry="4.00001"/>
<polygon fill="#fe056e" stroke="#fe056e" points="650.143,-381.014 640.407,-375.969 645.151,-380.738 640.159,-380.462 640.159,-380.462 640.159,-380.462 645.151,-380.738 639.91,-384.955 650.143,-381.014 650.143,-381.014"/>
</g>
<!-- Scenario&#45;&gt;Narrative -->
<g id="edge35" class="edge"><title>Scenario&#45;&gt;Narrative</title>
<path fill="none" stroke="#c152a0" d="M869.427,-116.438C870.293,-149.195 868.496,-207.23 849,-252 844.351,-262.676 836.816,-272.832 829.229,-281.344"/>
<ellipse fill="none" stroke="#c152a0" cx="869.281" cy="-112.287" rx="4" ry="4"/>
<polygon fill="#c152a0" stroke="#c152a0" points="829.187,-281.388 819.054,-285.58 825.759,-285.027 822.33,-288.666 822.33,-288.666 822.33,-288.666 825.759,-285.027 825.605,-291.753 829.187,-281.388 829.187,-281.388"/>
</g>
<!-- School -->
<g id="node24" class="node"><title>School</title>
<ellipse fill="none" stroke="black" cx="1074" cy="-759" rx="41.394" ry="18"/>
<text text-anchor="middle" x="1074" y="-755.3" font-family="Times,serif" font-size="14.00">School</text>
</g>
<!-- School&#45;&gt;Course -->
<g id="edge36" class="edge"><title>School&#45;&gt;Course</title>
<path fill="none" stroke="#7b3477" d="M1074,-732.729C1074,-720.725 1074,-706.362 1074,-694.129"/>
<ellipse fill="none" stroke="#7b3477" cx="1074" cy="-736.884" rx="4" ry="4"/>
<polygon fill="#7b3477" stroke="#7b3477" points="1074,-694.04 1078.5,-684.04 1074,-689.04 1074,-684.04 1074,-684.04 1074,-684.04 1074,-689.04 1069.5,-684.04 1074,-694.04 1074,-694.04"/>
</g>
<!-- Style -->
<g id="node25" class="node"><title>Style</title>
<ellipse fill="none" stroke="black" cx="234" cy="-666" rx="34.1708" ry="18"/>
<text text-anchor="middle" x="234" y="-662.3" font-family="Times,serif" font-size="14.00">Style</text>
</g>
<!-- Style&#45;&gt;Project -->
<g id="edge37" class="edge"><title>Style&#45;&gt;Project</title>
<path fill="none" stroke="#8dbf7e" d="M234,-639.64C234,-634.063 234,-628.132 234,-622.476"/>
<ellipse fill="none" stroke="#8dbf7e" cx="234" cy="-643.697" rx="4" ry="4"/>
<polygon fill="#8dbf7e" stroke="#8dbf7e" points="234,-622.104 238.5,-612.104 234,-617.104 234,-612.104 234,-612.104 234,-612.104 234,-617.104 229.5,-612.104 234,-622.104 234,-622.104"/>
</g>
<!-- Theme -->
<g id="node26" class="node"><title>Theme</title>
<ellipse fill="none" stroke="black" cx="1176" cy="-759" rx="42.3701" ry="18"/>
<text text-anchor="middle" x="1176" y="-755.3" font-family="Times,serif" font-size="14.00">Theme</text>
</g>
<!-- User&#45;&gt;ConsentLog -->
<g id="edge39" class="edge"><title>User&#45;&gt;ConsentLog</title>
<path fill="none" stroke="#7dde0c" d="M569.01,-371.741C481.224,-359.901 267.153,-331.028 156.978,-316.169"/>
<ellipse fill="none" stroke="#7dde0c" cx="573.124" cy="-372.296" rx="4.00001" ry="4.00001"/>
<polygon fill="#7dde0c" stroke="#7dde0c" points="156.881,-316.155 147.572,-310.359 151.926,-315.487 146.97,-314.819 146.97,-314.819 146.97,-314.819 151.926,-315.487 146.369,-319.278 156.881,-316.155 156.881,-316.155"/>
</g>
<!-- User&#45;&gt;Email -->
<g id="edge38" class="edge"><title>User&#45;&gt;Email</title>
<path fill="none" stroke="#dcfa53" d="M589.044,-355.247C582.224,-347.421 574.501,-338.559 567.552,-330.584"/>
<ellipse fill="none" stroke="#dcfa53" cx="591.834" cy="-358.449" rx="4.00002" ry="4.00002"/>
<polygon fill="#dcfa53" stroke="#dcfa53" points="567.493,-330.516 564.316,-320.021 564.208,-326.747 560.923,-322.977 560.923,-322.977 560.923,-322.977 564.208,-326.747 557.53,-325.934 567.493,-330.516 567.493,-330.516"/>
</g>
<!-- User&#45;&gt;Experience -->
<g id="edge43" class="edge"><title>User&#45;&gt;Experience</title>
<path fill="none" stroke="#be034d" d="M627.31,-353.695C633.1,-346.707 639.472,-339.016 645.345,-331.928"/>
<polygon fill="#be034d" stroke="#be034d" points="627.252,-353.764 617.407,-358.594 624.062,-357.615 620.872,-361.465 620.872,-361.465 620.872,-361.465 624.062,-357.615 624.337,-364.336 627.252,-353.764 627.252,-353.764"/>
<polygon fill="#be034d" stroke="#be034d" points="645.566,-331.662 655.411,-326.833 648.756,-327.812 651.946,-323.962 651.946,-323.962 651.946,-323.962 648.756,-327.812 648.481,-321.091 645.566,-331.662 645.566,-331.662"/>
</g>
<!-- User&#45;&gt;Installment -->
<g id="edge40" class="edge"><title>User&#45;&gt;Installment</title>
<path fill="none" stroke="#461b7a" d="M570.432,-368.756C515.585,-356.721 413.068,-334.225 348.067,-319.962"/>
<ellipse fill="none" stroke="#461b7a" cx="574.654" cy="-369.683" rx="4.00001" ry="4.00001"/>
<polygon fill="#461b7a" stroke="#461b7a" points="347.738,-319.889 338.935,-313.35 342.854,-318.818 337.97,-317.746 337.97,-317.746 337.97,-317.746 342.854,-318.818 337.006,-322.141 347.738,-319.889 347.738,-319.889"/>
</g>
<!-- User&#45;&gt;Narrative -->
<g id="edge44" class="edge"><title>User&#45;&gt;Narrative</title>
<path fill="none" stroke="#f202e2" d="M643.869,-364.19C676.116,-352.673 723.639,-335.7 758.54,-323.236"/>
<polygon fill="#f202e2" stroke="#f202e2" points="643.851,-364.196 632.92,-363.322 639.142,-365.878 634.433,-367.559 634.433,-367.559 634.433,-367.559 639.142,-365.878 635.947,-371.797 643.851,-364.196 643.851,-364.196"/>
<polygon fill="#f202e2" stroke="#f202e2" points="758.608,-323.211 769.539,-324.086 763.317,-321.53 768.026,-319.848 768.026,-319.848 768.026,-319.848 763.317,-321.53 766.512,-315.61 758.608,-323.211 758.608,-323.211"/>
</g>
<!-- User&#45;&gt;Reaction -->
<g id="edge42" class="edge"><title>User&#45;&gt;Reaction</title>
<path fill="none" stroke="#85d49b" d="M570.063,-369.2C545.462,-361.963 515.251,-348.472 500,-324 491.538,-310.421 494.648,-303.078 500,-288 526.417,-213.57 594.284,-146.787 632.603,-113.434"/>
<ellipse fill="none" stroke="#85d49b" cx="573.97" cy="-370.275" rx="4.00001" ry="4.00001"/>
<polygon fill="#85d49b" stroke="#85d49b" points="632.712,-113.34 643.234,-110.25 636.509,-110.087 640.306,-106.833 640.306,-106.833 640.306,-106.833 636.509,-110.087 637.377,-103.416 632.712,-113.34 632.712,-113.34"/>
</g>
<!-- User&#45;&gt;Roster -->
<g id="edge41" class="edge"><title>User&#45;&gt;Roster</title>
<path fill="none" stroke="#d0f3d9" d="M646.631,-371.204C711.56,-361.461 846.693,-341.179 961,-324 982.134,-320.824 1005.49,-317.311 1025.46,-314.306"/>
<ellipse fill="none" stroke="#d0f3d9" cx="642.648" cy="-371.801" rx="4.00001" ry="4.00001"/>
<polygon fill="#d0f3d9" stroke="#d0f3d9" points="1025.67,-314.274 1036.23,-317.236 1030.61,-313.53 1035.56,-312.786 1035.56,-312.786 1035.56,-312.786 1030.61,-313.53 1034.89,-308.336 1025.67,-314.274 1025.67,-314.274"/>
</g>
<!-- Week&#45;&gt;Behavior -->
<g id="edge45" class="edge"><title>Week&#45;&gt;Behavior</title>
<path fill="none" stroke="#f12cd3" d="M783.878,-210.991C776.403,-202.816 767.922,-193.539 760.421,-185.335"/>
<ellipse fill="none" stroke="#f12cd3" cx="786.778" cy="-214.164" rx="4.00002" ry="4.00002"/>
<ellipse fill="#f12cd3" stroke="#f12cd3" cx="757.608" cy="-182.259" rx="4.00002" ry="4.00002"/>
</g>
<!-- Week&#45;&gt;Diagnosis -->
<g id="edge46" class="edge"><title>Week&#45;&gt;Diagnosis</title>
<path fill="none" stroke="#780309" d="M804.291,-207.624C804.148,-189.742 803.25,-165.286 800,-144 794.73,-109.483 783.679,-70.7573 775.819,-45.6841"/>
<ellipse fill="none" stroke="#780309" cx="804.3" cy="-211.832" rx="4" ry="4"/>
<polygon fill="#780309" stroke="#780309" points="775.815,-45.6716 777.062,-34.7769 774.295,-40.9081 772.775,-36.1447 772.775,-36.1447 772.775,-36.1447 774.295,-40.9081 768.488,-37.5126 775.815,-45.6716 775.815,-45.6716"/>
</g>
</g>
</svg>
