<?xml version="1.0" encoding="UTF-8" standalone="no"?>
<!DOCTYPE svg PUBLIC "-//W3C//DTD SVG 1.1//EN"
 "http://www.w3.org/Graphics/SVG/1.1/DTD/svg11.dtd">
<!-- Generated by graphviz version 2.36.0 (20140111.2315)
 -->
<!-- Title: models_diagram Pages: 1 -->
<svg width="1264pt" height="662pt"
 viewBox="0.00 0.00 1264.00 662.00" xmlns="http://www.w3.org/2000/svg" xmlns:xlink="http://www.w3.org/1999/xlink">
<g id="graph0" class="graph" transform="scale(1 1) rotate(0) translate(4 658)">
<title>models_diagram</title>
<polygon fill="none" stroke="none" points="-4,4 -4,-658 1260,-658 1260,4 -4,4"/>
<!-- _diagram_info -->
<g id="node1" class="node"><title>_diagram_info</title>
<text text-anchor="start" x="90" y="-639.6" font-family="Times,serif" font-size="13.00">Models diagram</text>
<text text-anchor="start" x="90" y="-625.6" font-family="Times,serif" font-size="13.00">Date: Jul 08 2017 &#45; 08:00</text>
<text text-anchor="start" x="90" y="-611.6" font-family="Times,serif" font-size="13.00">Migration version: 20170702055534</text>
<text text-anchor="start" x="90" y="-597.6" font-family="Times,serif" font-size="13.00">Generated by RailRoady 1.5.2</text>
<text text-anchor="start" x="90" y="-583.6" font-family="Times,serif" font-size="13.00">http://railroady.prestonlee.com</text>
</g>
<!-- AgeRange -->
<g id="node2" class="node"><title>AgeRange</title>
<ellipse fill="none" stroke="black" cx="651" cy="-615" rx="48.1437" ry="18"/>
<text text-anchor="middle" x="651" y="-611.3" font-family="Times,serif" font-size="14.00">AgeRange</text>
</g>
<!-- User -->
<g id="node34" class="node"><title>User</title>
<ellipse fill="none" stroke="black" cx="605" cy="-522" rx="26.949" ry="18"/>
<text text-anchor="middle" x="605" y="-518.3" font-family="Times,serif" font-size="14.00">User</text>
</g>
<!-- AgeRange&#45;&gt;User -->
<g id="edge1" class="edge"><title>AgeRange&#45;&gt;User</title>
<path fill="none" stroke="#28fed4" d="M638.61,-589.489C632.217,-576.842 624.423,-561.423 617.95,-548.619"/>
<ellipse fill="none" stroke="#28fed4" cx="640.543" cy="-593.314" rx="4.00002" ry="4.00002"/>
<polygon fill="#28fed4" stroke="#28fed4" points="617.815,-548.351 617.32,-537.397 615.559,-543.889 613.304,-539.427 613.304,-539.427 613.304,-539.427 615.559,-543.889 609.288,-541.457 617.815,-548.351 617.815,-548.351"/>
</g>
<!-- Assessment -->
<g id="node3" class="node"><title>Assessment</title>
<ellipse fill="none" stroke="black" cx="219" cy="-234" rx="52.4675" ry="18"/>
<text text-anchor="middle" x="219" y="-230.3" font-family="Times,serif" font-size="14.00">Assessment</text>
</g>
<!-- Factor -->
<g id="node17" class="node"><title>Factor</title>
<ellipse fill="none" stroke="black" cx="138" cy="-162" rx="33.2209" ry="18"/>
<text text-anchor="middle" x="138" y="-158.3" font-family="Times,serif" font-size="14.00">Factor</text>
</g>
<!-- Assessment&#45;&gt;Factor -->
<g id="edge3" class="edge"><title>Assessment&#45;&gt;Factor</title>
<path fill="none" stroke="#abf576" d="M192.808,-210.365C183.097,-201.973 172.128,-192.493 162.567,-184.231"/>
<polygon fill="#abf576" stroke="#abf576" points="193.054,-210.577 197.677,-220.521 196.837,-213.847 200.62,-217.116 200.62,-217.116 200.62,-217.116 196.837,-213.847 203.562,-213.711 193.054,-210.577 193.054,-210.577"/>
<polygon fill="#abf576" stroke="#abf576" points="162.492,-184.166 157.869,-174.223 158.709,-180.897 154.926,-177.628 154.926,-177.628 154.926,-177.628 158.709,-180.897 151.984,-181.032 162.492,-184.166 162.492,-184.166"/>
</g>
<!-- Group -->
<g id="node20" class="node"><title>Group</title>
<ellipse fill="none" stroke="black" cx="295" cy="-162" rx="33.2209" ry="18"/>
<text text-anchor="middle" x="295" y="-158.3" font-family="Times,serif" font-size="14.00">Group</text>
</g>
<!-- Assessment&#45;&gt;Group -->
<g id="edge5" class="edge"><title>Assessment&#45;&gt;Group</title>
<path fill="none" stroke="#f9df30" d="M244.177,-209.811C252.899,-201.777 262.643,-192.803 271.247,-184.878"/>
<polygon fill="#f9df30" stroke="#f9df30" points="243.982,-209.99 233.578,-213.455 240.305,-213.377 236.627,-216.765 236.627,-216.765 236.627,-216.765 240.305,-213.377 239.676,-220.075 243.982,-209.99 243.982,-209.99"/>
<polygon fill="#f9df30" stroke="#f9df30" points="271.411,-184.727 281.815,-181.262 275.088,-181.34 278.766,-177.952 278.766,-177.952 278.766,-177.952 275.088,-181.34 275.717,-174.642 271.411,-184.727 271.411,-184.727"/>
</g>
<!-- Installment -->
<g id="node22" class="node"><title>Installment</title>
<ellipse fill="none" stroke="black" cx="260" cy="-90" rx="50.5427" ry="18"/>
<text text-anchor="middle" x="260" y="-86.3" font-family="Times,serif" font-size="14.00">Installment</text>
</g>
<!-- Assessment&#45;&gt;Installment -->
<g id="edge2" class="edge"><title>Assessment&#45;&gt;Installment</title>
<path fill="none" stroke="#d582e5" d="M226.239,-207.929C233.516,-182.725 244.699,-143.994 252.177,-118.095"/>
<ellipse fill="none" stroke="#d582e5" cx="225.055" cy="-212.028" rx="4.00001" ry="4.00001"/>
<polygon fill="#d582e5" stroke="#d582e5" points="252.263,-117.797 259.36,-109.438 253.65,-112.993 255.037,-108.189 255.037,-108.189 255.037,-108.189 253.65,-112.993 250.714,-106.941 252.263,-117.797 252.263,-117.797"/>
</g>
<!-- Assessment&#45;&gt;User -->
<g id="edge4" class="edge"><title>Assessment&#45;&gt;User</title>
<path fill="none" stroke="#b71050" d="M174.83,-251.564C109.644,-278.531 -0.00232983,-335.069 45,-396 77.3226,-439.764 112.953,-408.454 162,-432 187.671,-444.324 188.409,-457.813 215,-468 337.599,-514.969 495.856,-521.289 567.186,-521.52"/>
<polygon fill="#b71050" stroke="#b71050" points="175.223,-251.405 186.181,-251.819 179.857,-249.527 184.49,-247.649 184.49,-247.649 184.49,-247.649 179.857,-249.527 182.8,-243.478 175.223,-251.405 175.223,-251.405"/>
<polygon fill="#b71050" stroke="#b71050" points="567.467,-521.52 577.471,-526.012 572.467,-521.516 577.467,-521.512 577.467,-521.512 577.467,-521.512 572.467,-521.516 577.464,-517.012 567.467,-521.52 567.467,-521.52"/>
</g>
<!-- Behavior -->
<g id="node4" class="node"><title>Behavior</title>
<ellipse fill="none" stroke="black" cx="1071" cy="-306" rx="42.3456" ry="18"/>
<text text-anchor="middle" x="1071" y="-302.3" font-family="Times,serif" font-size="14.00">Behavior</text>
</g>
<!-- Diagnosis -->
<g id="node14" class="node"><title>Diagnosis</title>
<ellipse fill="none" stroke="black" cx="1072" cy="-162" rx="46.2191" ry="18"/>
<text text-anchor="middle" x="1072" y="-158.3" font-family="Times,serif" font-size="14.00">Diagnosis</text>
</g>
<!-- Behavior&#45;&gt;Diagnosis -->
<g id="edge8" class="edge"><title>Behavior&#45;&gt;Diagnosis</title>
<path fill="none" stroke="#5b4d09" d="M1044.67,-284.525C1035.34,-275.652 1025.94,-264.44 1021,-252 1015.09,-237.13 1015.02,-230.84 1021,-216 1025.77,-204.156 1034.6,-193.478 1043.58,-184.862"/>
<ellipse fill="none" stroke="#5b4d09" cx="1047.77" cy="-287.327" rx="4.00002" ry="4.00002"/>
<polygon fill="#5b4d09" stroke="#5b4d09" points="1043.64,-184.811 1054.09,-181.478 1047.36,-181.47 1051.08,-178.13 1051.08,-178.13 1051.08,-178.13 1047.36,-181.47 1048.08,-174.781 1043.64,-184.811 1043.64,-184.811"/>
</g>
<!-- Reaction -->
<g id="node27" class="node"><title>Reaction</title>
<ellipse fill="none" stroke="black" cx="932" cy="-234" rx="42.3701" ry="18"/>
<text text-anchor="middle" x="932" y="-230.3" font-family="Times,serif" font-size="14.00">Reaction</text>
</g>
<!-- Behavior&#45;&gt;Reaction -->
<g id="edge7" class="edge"><title>Behavior&#45;&gt;Reaction</title>
<path fill="none" stroke="#0aefbc" d="M1037.28,-288.016C1016.14,-277.374 988.942,-263.676 967.484,-252.87"/>
<ellipse fill="none" stroke="#0aefbc" cx="1040.96" cy="-289.87" rx="4.00002" ry="4.00002"/>
<polygon fill="#0aefbc" stroke="#0aefbc" points="967.305,-252.779 960.398,-244.262 962.839,-250.531 958.373,-248.282 958.373,-248.282 958.373,-248.282 962.839,-250.531 956.349,-252.301 967.305,-252.779 967.305,-252.779"/>
</g>
<!-- Scenario -->
<g id="node30" class="node"><title>Scenario</title>
<ellipse fill="none" stroke="black" cx="1072" cy="-234" rx="41.394" ry="18"/>
<text text-anchor="middle" x="1072" y="-230.3" font-family="Times,serif" font-size="14.00">Scenario</text>
</g>
<!-- Behavior&#45;&gt;Scenario -->
<g id="edge6" class="edge"><title>Behavior&#45;&gt;Scenario</title>
<path fill="none" stroke="#941a48" d="M1071.36,-279.64C1071.44,-274.063 1071.53,-268.132 1071.61,-262.476"/>
<ellipse fill="none" stroke="#941a48" cx="1071.3" cy="-283.697" rx="4" ry="4"/>
<polygon fill="#941a48" stroke="#941a48" points="1071.61,-262.103 1076.26,-252.169 1071.68,-257.104 1071.76,-252.104 1071.76,-252.104 1071.76,-252.104 1071.68,-257.104 1067.26,-252.04 1071.61,-262.103 1071.61,-262.103"/>
</g>
<!-- BingoGame -->
<g id="node5" class="node"><title>BingoGame</title>
<ellipse fill="none" stroke="black" cx="569" cy="-234" rx="53.4184" ry="18"/>
<text text-anchor="middle" x="569" y="-230.3" font-family="Times,serif" font-size="14.00">BingoGame</text>
</g>
<!-- Candidate -->
<g id="node6" class="node"><title>Candidate</title>
<ellipse fill="none" stroke="black" cx="610" cy="-90" rx="46.2191" ry="18"/>
<text text-anchor="middle" x="610" y="-86.3" font-family="Times,serif" font-size="14.00">Candidate</text>
</g>
<!-- BingoGame&#45;&gt;Candidate -->
<g id="edge10" class="edge"><title>BingoGame&#45;&gt;Candidate</title>
<path fill="none" stroke="#354568" d="M577.857,-206.228C580.555,-197.855 583.473,-188.566 586,-180 592.075,-159.408 598.374,-135.957 602.994,-118.298"/>
<polygon fill="#354568" stroke="#354568" points="577.812,-206.368 570.438,-214.485 576.265,-211.123 574.717,-215.877 574.717,-215.877 574.717,-215.877 576.265,-211.123 578.997,-217.27 577.812,-206.368 577.812,-206.368"/>
<polygon fill="#354568" stroke="#354568" points="603.121,-117.807 609.992,-109.261 604.379,-112.968 605.636,-108.129 605.636,-108.129 605.636,-108.129 604.379,-112.968 601.281,-106.997 603.121,-117.807 603.121,-117.807"/>
</g>
<!-- CandidateList -->
<g id="node8" class="node"><title>CandidateList</title>
<ellipse fill="none" stroke="black" cx="517" cy="-450" rx="59.1941" ry="18"/>
<text text-anchor="middle" x="517" y="-446.3" font-family="Times,serif" font-size="14.00">CandidateList</text>
</g>
<!-- BingoGame&#45;&gt;CandidateList -->
<g id="edge9" class="edge"><title>BingoGame&#45;&gt;CandidateList</title>
<path fill="none" stroke="#d4d8be" d="M561.687,-259.862C559.155,-268.718 556.363,-278.78 554,-288 541.975,-334.926 529.711,-390.016 522.758,-422.07"/>
<ellipse fill="none" stroke="#d4d8be" cx="562.81" cy="-255.97" rx="4.00001" ry="4.00001"/>
<polygon fill="#d4d8be" stroke="#d4d8be" points="522.722,-422.237 516.213,-431.062 521.667,-427.124 520.612,-432.012 520.612,-432.012 520.612,-432.012 521.667,-427.124 525.011,-432.961 522.722,-422.237 522.722,-422.237"/>
</g>
<!-- Concept -->
<g id="node10" class="node"><title>Concept</title>
<ellipse fill="none" stroke="black" cx="678" cy="-162" rx="39.9464" ry="18"/>
<text text-anchor="middle" x="678" y="-158.3" font-family="Times,serif" font-size="14.00">Concept</text>
</g>
<!-- BingoGame&#45;&gt;Concept -->
<g id="edge11" class="edge"><title>BingoGame&#45;&gt;Concept</title>
<path fill="none" stroke="#1d537a" d="M601.449,-212.161C615.988,-202.824 633.047,-191.869 647.366,-182.673"/>
<polygon fill="#1d537a" stroke="#1d537a" points="601.066,-212.407 590.22,-214.025 596.859,-215.109 592.651,-217.811 592.651,-217.811 592.651,-217.811 596.859,-215.109 595.083,-221.597 601.066,-212.407 601.066,-212.407"/>
<polygon fill="#1d537a" stroke="#1d537a" points="647.466,-182.609 658.312,-180.992 651.674,-179.907 655.881,-177.205 655.881,-177.205 655.881,-177.205 651.674,-179.907 653.449,-173.419 647.466,-182.609 647.466,-182.609"/>
</g>
<!-- CandidateFeedback -->
<g id="node7" class="node"><title>CandidateFeedback</title>
<ellipse fill="none" stroke="black" cx="464" cy="-162" rx="79.4147" ry="18"/>
<text text-anchor="middle" x="464" y="-158.3" font-family="Times,serif" font-size="14.00">CandidateFeedback</text>
</g>
<!-- CandidateFeedback&#45;&gt;Candidate -->
<g id="edge12" class="edge"><title>CandidateFeedback&#45;&gt;Candidate</title>
<path fill="none" stroke="#a51661" d="M503.875,-141.882C525.384,-131.569 551.762,-118.922 572.84,-108.817"/>
<ellipse fill="none" stroke="#a51661" cx="500.009" cy="-143.735" rx="4.00002" ry="4.00002"/>
<polygon fill="#a51661" stroke="#a51661" points="573.097,-108.693 584.06,-108.428 577.606,-106.532 582.114,-104.37 582.114,-104.37 582.114,-104.37 577.606,-106.532 580.169,-100.312 573.097,-108.693 573.097,-108.693"/>
</g>
<!-- CandidateList&#45;&gt;Candidate -->
<g id="edge13" class="edge"><title>CandidateList&#45;&gt;Candidate</title>
<path fill="none" stroke="#29342a" d="M508.499,-424.432C494.721,-380.176 472.27,-285.23 506,-216 517.371,-192.662 534.454,-199.134 552,-180 569.701,-160.697 585.612,-135.423 596.271,-116.743"/>
<ellipse fill="none" stroke="#29342a" cx="509.733" cy="-428.279" rx="4.00001" ry="4.00001"/>
<polygon fill="#29342a" stroke="#29342a" points="596.333,-116.631 605.136,-110.093 598.77,-112.265 601.207,-107.899 601.207,-107.899 601.207,-107.899 598.77,-112.265 597.278,-105.706 596.333,-116.631 596.333,-116.631"/>
</g>
<!-- CandidateList&#45;&gt;Concept -->
<g id="edge14" class="edge"><title>CandidateList&#45;&gt;Concept</title>
<path fill="none" stroke="#9e9f40" d="M532.331,-423.244C554.527,-385.792 596.707,-314 631,-252 642.632,-230.971 655.33,-206.85 664.593,-189.028"/>
<polygon fill="#9e9f40" stroke="#9e9f40" points="532.239,-423.399 523.266,-429.702 529.688,-427.699 527.136,-431.999 527.136,-431.999 527.136,-431.999 529.688,-427.699 531.006,-434.295 532.239,-423.399 532.239,-423.399"/>
<polygon fill="#9e9f40" stroke="#9e9f40" points="664.756,-188.714 673.352,-181.906 667.056,-184.275 669.356,-179.835 669.356,-179.835 669.356,-179.835 667.056,-184.275 665.361,-177.765 664.756,-188.714 664.756,-188.714"/>
</g>
<!-- Course -->
<g id="node13" class="node"><title>Course</title>
<ellipse fill="none" stroke="black" cx="707" cy="-378" rx="35.6194" ry="18"/>
<text text-anchor="middle" x="707" y="-374.3" font-family="Times,serif" font-size="14.00">Course</text>
</g>
<!-- CandidateList&#45;&gt;Course -->
<g id="edge15" class="edge"><title>CandidateList&#45;&gt;Course</title>
<path fill="none" stroke="#e59652" d="M560.742,-432.884C594.391,-420.488 640.285,-403.579 671.634,-392.029"/>
<ellipse fill="none" stroke="#e59652" cx="556.938" cy="-434.286" rx="4.00001" ry="4.00001"/>
<ellipse fill="#e59652" stroke="#e59652" cx="675.521" cy="-390.597" rx="4.00001" ry="4.00001"/>
</g>
<!-- CipCode -->
<g id="node9" class="node"><title>CipCode</title>
<ellipse fill="none" stroke="black" cx="759" cy="-615" rx="42.3701" ry="18"/>
<text text-anchor="middle" x="759" y="-611.3" font-family="Times,serif" font-size="14.00">CipCode</text>
</g>
<!-- CipCode&#45;&gt;User -->
<g id="edge16" class="edge"><title>CipCode&#45;&gt;User</title>
<path fill="none" stroke="#bc9cb2" d="M733.686,-593.853C725.666,-587.823 716.636,-581.388 708,-576 684.622,-561.415 656.764,-547.26 635.917,-537.253"/>
<ellipse fill="none" stroke="#bc9cb2" cx="736.975" cy="-596.363" rx="4.00002" ry="4.00002"/>
<polygon fill="#bc9cb2" stroke="#bc9cb2" points="635.908,-537.248 628.804,-528.895 631.391,-535.104 626.874,-532.96 626.874,-532.96 626.874,-532.96 631.391,-535.104 624.944,-537.025 635.908,-537.248 635.908,-537.248"/>
</g>
<!-- Concept&#45;&gt;Candidate -->
<g id="edge17" class="edge"><title>Concept&#45;&gt;Candidate</title>
<path fill="none" stroke="#ac2708" d="M656.901,-139.281C649.381,-131.539 640.872,-122.78 633.186,-114.868"/>
<ellipse fill="none" stroke="#ac2708" cx="659.783" cy="-142.247" rx="4.00002" ry="4.00002"/>
<polygon fill="#ac2708" stroke="#ac2708" points="632.809,-114.48 629.069,-104.171 629.325,-110.893 625.841,-107.307 625.841,-107.307 625.841,-107.307 629.325,-110.893 622.613,-110.443 632.809,-114.48 632.809,-114.48"/>
</g>
<!-- ConsentForm -->
<g id="node11" class="node"><title>ConsentForm</title>
<ellipse fill="none" stroke="black" cx="59" cy="-522" rx="59.2173" ry="18"/>
<text text-anchor="middle" x="59" y="-518.3" font-family="Times,serif" font-size="14.00">ConsentForm</text>
</g>
<!-- ConsentLog -->
<g id="node12" class="node"><title>ConsentLog</title>
<ellipse fill="none" stroke="black" cx="100" cy="-450" rx="53.4184" ry="18"/>
<text text-anchor="middle" x="100" y="-446.3" font-family="Times,serif" font-size="14.00">ConsentLog</text>
</g>
<!-- ConsentForm&#45;&gt;ConsentLog -->
<g id="edge19" class="edge"><title>ConsentForm&#45;&gt;ConsentLog</title>
<path fill="none" stroke="#cae3af" d="M73.0586,-496.998C76.9304,-490.387 81.1436,-483.194 85.0631,-476.502"/>
<ellipse fill="none" stroke="#cae3af" cx="70.9466" cy="-500.603" rx="4.00002" ry="4.00002"/>
<polygon fill="#cae3af" stroke="#cae3af" points="85.1124,-476.418 94.0494,-470.063 87.6394,-472.103 90.1664,-467.789 90.1664,-467.789 90.1664,-467.789 87.6394,-472.103 86.2835,-465.515 85.1124,-476.418 85.1124,-476.418"/>
</g>
<!-- Project -->
<g id="node25" class="node"><title>Project</title>
<ellipse fill="none" stroke="black" cx="221" cy="-306" rx="35.6194" ry="18"/>
<text text-anchor="middle" x="221" y="-302.3" font-family="Times,serif" font-size="14.00">Project</text>
</g>
<!-- ConsentForm&#45;&gt;Project -->
<g id="edge18" class="edge"><title>ConsentForm&#45;&gt;Project</title>
<path fill="none" stroke="#761513" d="M43.1912,-497.264C32.5103,-477.965 22.7216,-450.929 37,-432 72.0724,-385.503 116.138,-430.583 163,-396 184.807,-379.907 200.69,-352.963 210.264,-332.928"/>
<ellipse fill="none" stroke="#761513" cx="45.2592" cy="-500.796" rx="4.00002" ry="4.00002"/>
<polygon fill="#761513" stroke="#761513" points="210.311,-332.827 218.551,-325.592 212.383,-328.276 214.456,-323.726 214.456,-323.726 214.456,-323.726 212.383,-328.276 210.361,-321.861 210.311,-332.827 210.311,-332.827"/>
</g>
<!-- Course&#45;&gt;BingoGame -->
<g id="edge22" class="edge"><title>Course&#45;&gt;BingoGame</title>
<path fill="none" stroke="#08994b" d="M686.385,-355.788C661.142,-329.813 618.503,-285.937 592.154,-258.825"/>
<ellipse fill="none" stroke="#08994b" cx="689.181" cy="-358.665" rx="4.00002" ry="4.00002"/>
<polygon fill="#08994b" stroke="#08994b" points="591.829,-258.491 588.087,-248.183 588.344,-254.905 584.86,-251.32 584.86,-251.32 584.86,-251.32 588.344,-254.905 581.633,-254.456 591.829,-258.491 591.829,-258.491"/>
</g>
<!-- Experience -->
<g id="node16" class="node"><title>Experience</title>
<ellipse fill="none" stroke="black" cx="884" cy="-306" rx="50.0684" ry="18"/>
<text text-anchor="middle" x="884" y="-302.3" font-family="Times,serif" font-size="14.00">Experience</text>
</g>
<!-- Course&#45;&gt;Experience -->
<g id="edge24" class="edge"><title>Course&#45;&gt;Experience</title>
<path fill="none" stroke="#b4cdb8" d="M742.033,-363.145C770.791,-351.772 811.596,-335.634 842.084,-323.577"/>
<ellipse fill="none" stroke="#b4cdb8" cx="737.988" cy="-364.745" rx="4.00001" ry="4.00001"/>
<polygon fill="#b4cdb8" stroke="#b4cdb8" points="842.293,-323.495 853.247,-324.001 846.942,-321.656 851.592,-319.817 851.592,-319.817 851.592,-319.817 846.942,-321.656 849.937,-315.632 842.293,-323.495 842.293,-323.495"/>
</g>
<!-- Course&#45;&gt;Project -->
<g id="edge20" class="edge"><title>Course&#45;&gt;Project</title>
<path fill="none" stroke="#291a85" d="M665.282,-370.991C574.005,-357.844 357.334,-326.637 264.473,-313.262"/>
<ellipse fill="none" stroke="#291a85" cx="669.252" cy="-371.563" rx="4.00001" ry="4.00001"/>
<polygon fill="#291a85" stroke="#291a85" points="264.463,-313.26 255.207,-307.38 259.514,-312.547 254.565,-311.834 254.565,-311.834 254.565,-311.834 259.514,-312.547 253.923,-316.289 264.463,-313.26 264.463,-313.26"/>
</g>
<!-- Roster -->
<g id="node29" class="node"><title>Roster</title>
<ellipse fill="none" stroke="black" cx="782" cy="-306" rx="33.1991" ry="18"/>
<text text-anchor="middle" x="782" y="-302.3" font-family="Times,serif" font-size="14.00">Roster</text>
</g>
<!-- Course&#45;&gt;Roster -->
<g id="edge21" class="edge"><title>Course&#45;&gt;Roster</title>
<path fill="none" stroke="#11e53f" d="M729.201,-356.279C738.437,-347.659 749.167,-337.644 758.532,-328.903"/>
<ellipse fill="none" stroke="#11e53f" cx="726.198" cy="-359.082" rx="4.00002" ry="4.00002"/>
<polygon fill="#11e53f" stroke="#11e53f" points="758.705,-328.742 769.086,-325.209 762.36,-325.33 766.016,-321.919 766.016,-321.919 766.016,-321.919 762.36,-325.33 762.945,-318.629 758.705,-328.742 758.705,-328.742"/>
</g>
<!-- Course&#45;&gt;User -->
<g id="edge23" class="edge"><title>Course&#45;&gt;User</title>
<path fill="none" stroke="#65ae2b" d="M686.379,-402.647C678.792,-411.652 670.28,-422.124 663,-432 647.531,-452.985 631.461,-477.932 620.17,-496.067"/>
<polygon fill="#65ae2b" stroke="#65ae2b" points="686.538,-402.46 696.449,-397.768 689.781,-398.655 693.024,-394.849 693.024,-394.849 693.024,-394.849 689.781,-398.655 689.599,-391.93 686.538,-402.46 686.538,-402.46"/>
<polygon fill="#65ae2b" stroke="#65ae2b" points="619.986,-496.364 610.901,-502.506 617.358,-500.618 614.73,-504.872 614.73,-504.872 614.73,-504.872 617.358,-500.618 618.558,-507.237 619.986,-496.364 619.986,-496.364"/>
</g>
<!-- Diagnosis&#45;&gt;User -->
<g id="edge25" class="edge"><title>Diagnosis&#45;&gt;User</title>
<path fill="none" stroke="#a08e1b" d="M1109.16,-179.351C1152.42,-201.202 1218,-244.334 1218,-305 1218,-379 1218,-379 1218,-379 1218,-443.982 1162.34,-443.876 1102,-468 1017.74,-501.688 739.413,-515.707 640.372,-519.71"/>
<ellipse fill="none" stroke="#a08e1b" cx="1105.49" cy="-177.54" rx="4.00002" ry="4.00002"/>
<ellipse fill="#a08e1b" stroke="#a08e1b" cx="636.175" cy="-519.876" rx="4" ry="4"/>
</g>
<!-- Email -->
<g id="node15" class="node"><title>Email</title>
<ellipse fill="none" stroke="black" cx="280" cy="-450" rx="32.2457" ry="18"/>
<text text-anchor="middle" x="280" y="-446.3" font-family="Times,serif" font-size="14.00">Email</text>
</g>
<!-- Experience&#45;&gt;Reaction -->
<g id="edge26" class="edge"><title>Experience&#45;&gt;Reaction</title>
<path fill="none" stroke="#b6e0e0" d="M899.9,-281.812C904.688,-274.831 909.962,-267.138 914.828,-260.042"/>
<ellipse fill="none" stroke="#b6e0e0" cx="897.637" cy="-285.112" rx="4.00002" ry="4.00002"/>
<polygon fill="#b6e0e0" stroke="#b6e0e0" points="915.051,-259.717 924.418,-254.015 917.879,-255.594 920.706,-251.47 920.706,-251.47 920.706,-251.47 917.879,-255.594 916.995,-248.925 915.051,-259.717 915.051,-259.717"/>
</g>
<!-- FactorPack -->
<g id="node18" class="node"><title>FactorPack</title>
<ellipse fill="none" stroke="black" cx="104" cy="-378" rx="50.0684" ry="18"/>
<text text-anchor="middle" x="104" y="-374.3" font-family="Times,serif" font-size="14.00">FactorPack</text>
</g>
<!-- FactorPack&#45;&gt;Factor -->
<g id="edge27" class="edge"><title>FactorPack&#45;&gt;Factor</title>
<path fill="none" stroke="#1533ea" d="M107.981,-351.945C114.409,-311.483 127.026,-232.072 133.671,-190.249"/>
<ellipse fill="none" stroke="#1533ea" cx="107.353" cy="-355.899" rx="4.00001" ry="4.00001"/>
<polygon fill="#1533ea" stroke="#1533ea" points="133.693,-190.109 139.706,-180.939 134.478,-185.171 135.262,-180.232 135.262,-180.232 135.262,-180.232 134.478,-185.171 130.818,-179.526 133.693,-190.109 133.693,-190.109"/>
</g>
<!-- FactorPack&#45;&gt;Project -->
<g id="edge28" class="edge"><title>FactorPack&#45;&gt;Project</title>
<path fill="none" stroke="#62d6fe" d="M135.921,-357.902C152.801,-347.803 173.431,-335.46 190.148,-325.458"/>
<ellipse fill="none" stroke="#62d6fe" cx="132.245" cy="-360.101" rx="4.00002" ry="4.00002"/>
<polygon fill="#62d6fe" stroke="#62d6fe" points="190.403,-325.306 201.295,-324.033 194.694,-322.739 198.985,-320.172 198.985,-320.172 198.985,-320.172 194.694,-322.739 196.674,-316.31 190.403,-325.306 190.403,-325.306"/>
</g>
<!-- Gender -->
<g id="node19" class="node"><title>Gender</title>
<ellipse fill="none" stroke="black" cx="350" cy="-615" rx="36.096" ry="18"/>
<text text-anchor="middle" x="350" y="-611.3" font-family="Times,serif" font-size="14.00">Gender</text>
</g>
<!-- Gender&#45;&gt;User -->
<g id="edge29" class="edge"><title>Gender&#45;&gt;User</title>
<path fill="none" stroke="#ba3a7c" d="M371.654,-592.782C378.915,-586.619 387.371,-580.377 396,-576 452.286,-547.451 525.085,-533.518 568.233,-527.332"/>
<ellipse fill="none" stroke="#ba3a7c" cx="368.346" cy="-595.712" rx="4.00002" ry="4.00002"/>
<polygon fill="#ba3a7c" stroke="#ba3a7c" points="568.367,-527.314 578.886,-530.414 573.321,-526.635 578.275,-525.956 578.275,-525.956 578.275,-525.956 573.321,-526.635 577.664,-521.498 568.367,-527.314 568.367,-527.314"/>
</g>
<!-- Group&#45;&gt;CandidateList -->
<g id="edge32" class="edge"><title>Group&#45;&gt;CandidateList</title>
<path fill="none" stroke="#9668d9" d="M318.461,-182.749C329.205,-192.298 341.788,-204.223 352,-216 415.809,-289.585 419.874,-317.113 477,-396 483.763,-405.34 491.349,-415.473 498.081,-424.353"/>
<ellipse fill="none" stroke="#9668d9" cx="315.389" cy="-180.057" rx="4.00002" ry="4.00002"/>
<polygon fill="#9668d9" stroke="#9668d9" points="498.162,-424.46 500.638,-435.142 501.19,-428.438 504.219,-432.417 504.219,-432.417 504.219,-432.417 501.19,-428.438 507.8,-429.691 498.162,-424.46 498.162,-424.46"/>
</g>
<!-- GroupRevision -->
<g id="node21" class="node"><title>GroupRevision</title>
<ellipse fill="none" stroke="black" cx="393" cy="-90" rx="64.0172" ry="18"/>
<text text-anchor="middle" x="393" y="-86.3" font-family="Times,serif" font-size="14.00">GroupRevision</text>
</g>
<!-- Group&#45;&gt;GroupRevision -->
<g id="edge31" class="edge"><title>Group&#45;&gt;GroupRevision</title>
<path fill="none" stroke="#6991a6" d="M321.142,-142.327C333.791,-133.292 349.058,-122.387 362.262,-112.956"/>
<ellipse fill="none" stroke="#6991a6" cx="317.617" cy="-144.845" rx="4.00002" ry="4.00002"/>
<polygon fill="#6991a6" stroke="#6991a6" points="362.454,-112.818 373.207,-110.668 366.523,-109.912 370.592,-107.006 370.592,-107.006 370.592,-107.006 366.523,-109.912 367.976,-103.344 362.454,-112.818 362.454,-112.818"/>
</g>
<!-- Group&#45;&gt;Installment -->
<g id="edge33" class="edge"><title>Group&#45;&gt;Installment</title>
<path fill="none" stroke="#246215" d="M283.031,-137.062C279.816,-130.632 276.324,-123.647 273.053,-117.106"/>
<ellipse fill="none" stroke="#246215" cx="284.917" cy="-140.833" rx="4.00002" ry="4.00002"/>
<polygon fill="#246215" stroke="#246215" points="272.95,-116.9 272.503,-105.944 270.714,-112.428 268.478,-107.956 268.478,-107.956 268.478,-107.956 270.714,-112.428 264.453,-109.969 272.95,-116.9 272.95,-116.9"/>
</g>
<!-- Group&#45;&gt;User -->
<g id="edge30" class="edge"><title>Group&#45;&gt;User</title>
<path fill="none" stroke="#9056f6" d="M297.463,-190.205C304.107,-257.443 324.609,-428.845 364,-468 392.376,-496.206 507.643,-511.467 567.898,-517.658"/>
<polygon fill="#9056f6" stroke="#9056f6" points="297.438,-189.939 300.961,-179.554 296.96,-184.962 296.482,-179.984 296.482,-179.984 296.482,-179.984 296.96,-184.962 292.002,-180.415 297.438,-189.939 297.438,-189.939"/>
<polygon fill="#9056f6" stroke="#9056f6" points="568.175,-517.685 577.68,-523.153 573.15,-518.18 578.125,-518.675 578.125,-518.675 578.125,-518.675 573.15,-518.18 578.571,-514.198 568.175,-517.685 568.175,-517.685"/>
</g>
<!-- Value -->
<g id="node35" class="node"><title>Value</title>
<ellipse fill="none" stroke="black" cx="260" cy="-18" rx="31.2735" ry="18"/>
<text text-anchor="middle" x="260" y="-14.3" font-family="Times,serif" font-size="14.00">Value</text>
</g>
<!-- Installment&#45;&gt;Value -->
<g id="edge34" class="edge"><title>Installment&#45;&gt;Value</title>
<path fill="none" stroke="#18afd9" d="M260,-63.6398C260,-58.0629 260,-52.1319 260,-46.4761"/>
<ellipse fill="none" stroke="#18afd9" cx="260" cy="-67.6966" rx="4" ry="4"/>
<polygon fill="#18afd9" stroke="#18afd9" points="260,-46.1043 264.5,-36.1043 260,-41.1043 260,-36.1043 260,-36.1043 260,-36.1043 260,-41.1043 255.5,-36.1044 260,-46.1043 260,-46.1043"/>
</g>
<!-- Language -->
<g id="node23" class="node"><title>Language</title>
<ellipse fill="none" stroke="black" cx="450" cy="-615" rx="45.244" ry="18"/>
<text text-anchor="middle" x="450" y="-611.3" font-family="Times,serif" font-size="14.00">Language</text>
</g>
<!-- Language&#45;&gt;User -->
<g id="edge35" class="edge"><title>Language&#45;&gt;User</title>
<path fill="none" stroke="#9d10e7" d="M478.703,-592.766C486.747,-587.102 495.594,-581.133 504,-576 527.052,-561.923 554.211,-547.801 574.558,-537.678"/>
<polygon fill="#9d10e7" stroke="#9d10e7" points="478.483,-592.923 467.731,-595.079 474.415,-595.831 470.348,-598.739 470.348,-598.739 470.348,-598.739 474.415,-595.831 472.965,-602.4 478.483,-592.923 478.483,-592.923"/>
<polygon fill="#9d10e7" stroke="#9d10e7" points="574.699,-537.608 585.658,-537.221 579.184,-535.397 583.668,-533.185 583.668,-533.185 583.668,-533.185 579.184,-535.397 581.678,-529.149 574.699,-537.608 574.699,-537.608"/>
</g>
<!-- Narrative -->
<g id="node24" class="node"><title>Narrative</title>
<ellipse fill="none" stroke="black" cx="1049" cy="-450" rx="44.2946" ry="18"/>
<text text-anchor="middle" x="1049" y="-446.3" font-family="Times,serif" font-size="14.00">Narrative</text>
</g>
<!-- Narrative&#45;&gt;Behavior -->
<g id="edge37" class="edge"><title>Narrative&#45;&gt;Behavior</title>
<path fill="none" stroke="#0bb9cb" d="M1052.88,-423.929C1056.88,-398.165 1063.06,-358.266 1067.07,-332.387"/>
<ellipse fill="none" stroke="#0bb9cb" cx="1052.27" cy="-427.919" rx="4.00001" ry="4.00001"/>
<ellipse fill="#0bb9cb" stroke="#0bb9cb" cx="1067.72" cy="-328.142" rx="4.00001" ry="4.00001"/>
</g>
<!-- Narrative&#45;&gt;Reaction -->
<g id="edge38" class="edge"><title>Narrative&#45;&gt;Reaction</title>
<path fill="none" stroke="#212f34" d="M1040.1,-424.09C1027.94,-391.532 1004.37,-333.326 976,-288 969.587,-277.755 961.381,-267.34 953.796,-258.484"/>
<ellipse fill="none" stroke="#212f34" cx="1041.56" cy="-428.039" rx="4.00001" ry="4.00001"/>
<polygon fill="#212f34" stroke="#212f34" points="953.677,-258.35 950.453,-247.869 950.376,-254.595 947.074,-250.84 947.074,-250.84 947.074,-250.84 950.376,-254.595 943.694,-253.812 953.677,-258.35 953.677,-258.35"/>
</g>
<!-- Week -->
<g id="node36" class="node"><title>Week</title>
<ellipse fill="none" stroke="black" cx="1109" cy="-378" rx="31.2735" ry="18"/>
<text text-anchor="middle" x="1109" y="-374.3" font-family="Times,serif" font-size="14.00">Week</text>
</g>
<!-- Narrative&#45;&gt;Week -->
<g id="edge36" class="edge"><title>Narrative&#45;&gt;Week</title>
<path fill="none" stroke="#b1256f" d="M1068.24,-426.551C1074.79,-418.917 1082.12,-410.365 1088.74,-402.64"/>
<ellipse fill="none" stroke="#b1256f" cx="1065.52" cy="-429.728" rx="4.00002" ry="4.00002"/>
<polygon fill="#b1256f" stroke="#b1256f" points="1089.06,-402.258 1098.99,-397.594 1092.32,-398.462 1095.57,-394.666 1095.57,-394.666 1095.57,-394.666 1092.32,-398.462 1092.16,-391.737 1089.06,-402.258 1089.06,-402.258"/>
</g>
<!-- Project&#45;&gt;Assessment -->
<g id="edge41" class="edge"><title>Project&#45;&gt;Assessment</title>
<path fill="none" stroke="#d39d65" d="M220.275,-279.64C220.116,-274.063 219.947,-268.132 219.785,-262.476"/>
<ellipse fill="none" stroke="#d39d65" cx="220.391" cy="-283.698" rx="4" ry="4"/>
<polygon fill="#d39d65" stroke="#d39d65" points="219.774,-262.1 223.987,-251.976 219.632,-257.102 219.489,-252.104 219.489,-252.104 219.489,-252.104 219.632,-257.102 214.991,-252.233 219.774,-262.1 219.774,-262.1"/>
</g>
<!-- Project&#45;&gt;BingoGame -->
<g id="edge40" class="edge"><title>Project&#45;&gt;BingoGame</title>
<path fill="none" stroke="#e18048" d="M261.486,-296.856C324.017,-284.278 444.186,-260.106 514.36,-245.991"/>
<ellipse fill="none" stroke="#e18048" cx="257.348" cy="-297.689" rx="4.00001" ry="4.00001"/>
<polygon fill="#e18048" stroke="#e18048" points="514.534,-245.956 525.225,-248.395 519.436,-244.97 524.338,-243.984 524.338,-243.984 524.338,-243.984 519.436,-244.97 523.45,-239.572 514.534,-245.956 514.534,-245.956"/>
</g>
<!-- Project&#45;&gt;Factor -->
<g id="edge43" class="edge"><title>Project&#45;&gt;Factor</title>
<path fill="none" stroke="#88111a" d="M189.866,-285.856C177.874,-276.975 165.121,-265.404 157,-252 145.707,-233.362 141.068,-208.972 139.19,-190.438"/>
<polygon fill="#88111a" stroke="#88111a" points="190.201,-286.091 195.801,-295.519 194.293,-288.963 198.386,-291.835 198.386,-291.835 198.386,-291.835 194.293,-288.963 200.971,-288.152 190.201,-286.091 190.201,-286.091"/>
<polygon fill="#88111a" stroke="#88111a" points="139.176,-190.258 142.86,-179.93 138.775,-185.275 138.375,-180.291 138.375,-180.291 138.375,-180.291 138.775,-185.275 133.889,-180.651 139.176,-190.258 139.176,-190.258"/>
</g>
<!-- Project&#45;&gt;Group -->
<g id="edge39" class="edge"><title>Project&#45;&gt;Group</title>
<path fill="none" stroke="#5db5a0" d="M248.942,-286.386C260.341,-277.348 272.566,-265.514 280,-252 290.417,-233.064 293.964,-208.697 295.019,-190.248"/>
<ellipse fill="none" stroke="#5db5a0" cx="245.554" cy="-288.958" rx="4.00002" ry="4.00002"/>
<polygon fill="#5db5a0" stroke="#5db5a0" points="295.022,-190.149 299.882,-180.319 295.204,-185.152 295.385,-180.155 295.385,-180.155 295.385,-180.155 295.204,-185.152 290.888,-179.992 295.022,-190.149 295.022,-190.149"/>
</g>
<!-- Project&#45;&gt;User -->
<g id="edge42" class="edge"><title>Project&#45;&gt;User</title>
<path fill="none" stroke="#79f761" d="M215.021,-334.313C208.942,-370.13 204.696,-432.563 239,-468 283.859,-514.34 483.728,-520.588 567.676,-521.131"/>
<polygon fill="#79f761" stroke="#79f761" points="215.091,-333.941 221.35,-324.937 216.008,-329.026 216.926,-324.111 216.926,-324.111 216.926,-324.111 216.008,-329.026 212.503,-323.285 215.091,-333.941 215.091,-333.941"/>
<polygon fill="#79f761" stroke="#79f761" points="567.79,-521.131 577.772,-525.672 572.79,-521.152 577.79,-521.172 577.79,-521.172 577.79,-521.172 572.79,-521.152 577.809,-516.672 567.79,-521.131 567.79,-521.131"/>
</g>
<!-- Quote -->
<g id="node26" class="node"><title>Quote</title>
<ellipse fill="none" stroke="black" cx="925" cy="-615" rx="32.2457" ry="18"/>
<text text-anchor="middle" x="925" y="-611.3" font-family="Times,serif" font-size="14.00">Quote</text>
</g>
<!-- Reaction&#45;&gt;Course -->
<g id="edge44" class="edge"><title>Reaction&#45;&gt;Course</title>
<path fill="none" stroke="#6615d5" d="M881.675,-236.356C838.685,-240.134 777.808,-252.076 739,-288 721.182,-304.494 713.271,-331.629 709.767,-351.608"/>
<ellipse fill="none" stroke="#6615d5" cx="885.766" cy="-236.035" rx="4" ry="4"/>
<ellipse fill="#6615d5" stroke="#6615d5" cx="709.131" cy="-355.728" rx="4.00001" ry="4.00001"/>
</g>
<!-- Reaction&#45;&gt;Diagnosis -->
<g id="edge45" class="edge"><title>Reaction&#45;&gt;Diagnosis</title>
<path fill="none" stroke="#33865b" d="M965.583,-216.209C986.715,-205.642 1013.99,-192.007 1035.63,-181.185"/>
<ellipse fill="none" stroke="#33865b" cx="961.911" cy="-218.045" rx="4.00002" ry="4.00002"/>
<polygon fill="#33865b" stroke="#33865b" points="1035.89,-181.057 1046.84,-180.61 1040.36,-178.821 1044.83,-176.585 1044.83,-176.585 1044.83,-176.585 1040.36,-178.821 1042.82,-172.56 1035.89,-181.057 1035.89,-181.057"/>
</g>
<!-- Role -->
<g id="node28" class="node"><title>Role</title>
<ellipse fill="none" stroke="black" cx="847" cy="-615" rx="26.949" ry="18"/>
<text text-anchor="middle" x="847" y="-611.3" font-family="Times,serif" font-size="14.00">Role</text>
</g>
<!-- Role&#45;&gt;Roster -->
<g id="edge47" class="edge"><title>Role&#45;&gt;Roster</title>
<path fill="none" stroke="#6eb744" d="M842.739,-588.789C834.843,-542.985 816.915,-443.148 797,-360 794.941,-351.405 792.414,-342.108 790.025,-333.736"/>
<ellipse fill="none" stroke="#6eb744" cx="843.463" cy="-593.011" rx="4.00001" ry="4.00001"/>
<polygon fill="#6eb744" stroke="#6eb744" points="790.013,-333.695 791.541,-322.836 788.616,-328.894 787.22,-324.093 787.22,-324.093 787.22,-324.093 788.616,-328.894 782.899,-325.35 790.013,-333.695 790.013,-333.695"/>
</g>
<!-- Role&#45;&gt;User -->
<g id="edge46" class="edge"><title>Role&#45;&gt;User</title>
<path fill="none" stroke="#d0d9ae" d="M830.109,-592.629C824.315,-586.489 817.406,-580.298 810,-576 756.543,-544.975 684.875,-531.841 641.978,-526.48"/>
<ellipse fill="none" stroke="#d0d9ae" cx="832.846" cy="-595.697" rx="4.00002" ry="4.00002"/>
<polygon fill="#d0d9ae" stroke="#d0d9ae" points="641.912,-526.473 632.504,-520.838 636.946,-525.89 631.98,-525.307 631.98,-525.307 631.98,-525.307 636.946,-525.89 631.455,-529.776 641.912,-526.473 641.912,-526.473"/>
</g>
<!-- Scenario&#45;&gt;Narrative -->
<g id="edge48" class="edge"><title>Scenario&#45;&gt;Narrative</title>
<path fill="none" stroke="#c54d16" d="M1095.93,-256.509C1128.01,-288.031 1177.76,-348.214 1149,-396 1137.19,-415.621 1115.41,-428.361 1095.18,-436.419"/>
<ellipse fill="none" stroke="#c54d16" cx="1092.67" cy="-253.371" rx="4.00002" ry="4.00002"/>
<polygon fill="#c54d16" stroke="#c54d16" points="1095.12,-436.443 1084.18,-435.682 1090.43,-438.174 1085.74,-439.904 1085.74,-439.904 1085.74,-439.904 1090.43,-438.174 1087.29,-444.126 1095.12,-436.443 1095.12,-436.443"/>
</g>
<!-- School -->
<g id="node31" class="node"><title>School</title>
<ellipse fill="none" stroke="black" cx="707" cy="-450" rx="35.1455" ry="18"/>
<text text-anchor="middle" x="707" y="-446.3" font-family="Times,serif" font-size="14.00">School</text>
</g>
<!-- School&#45;&gt;BingoGame -->
<g id="edge50" class="edge"><title>School&#45;&gt;BingoGame</title>
<path fill="none" stroke="#5b3134" d="M685.762,-425.483C677.986,-416.494 669.309,-405.997 662,-396 629.229,-351.174 598.508,-293.895 581.879,-261.139"/>
<polygon fill="#5b3134" stroke="#5b3134" points="685.989,-425.742 689.202,-436.226 689.287,-429.5 692.585,-433.258 692.585,-433.258 692.585,-433.258 689.287,-429.5 695.967,-430.29 685.989,-425.742 685.989,-425.742"/>
<polygon fill="#5b3134" stroke="#5b3134" points="581.871,-261.124 581.397,-250.169 579.624,-256.658 577.377,-252.191 577.377,-252.191 577.377,-252.191 579.624,-256.658 573.357,-254.213 581.871,-261.124 581.871,-261.124"/>
</g>
<!-- School&#45;&gt;Course -->
<g id="edge49" class="edge"><title>School&#45;&gt;Course</title>
<path fill="none" stroke="#15bbfe" d="M707,-423.64C707,-418.063 707,-412.132 707,-406.476"/>
<ellipse fill="none" stroke="#15bbfe" cx="707" cy="-427.697" rx="4" ry="4"/>
<polygon fill="#15bbfe" stroke="#15bbfe" points="707,-406.104 711.5,-396.104 707,-401.104 707,-396.104 707,-396.104 707,-396.104 707,-401.104 702.5,-396.104 707,-406.104 707,-406.104"/>
</g>
<!-- School&#45;&gt;Experience -->
<g id="edge52" class="edge"><title>School&#45;&gt;Experience</title>
<path fill="none" stroke="#06c158" d="M733.34,-427.869C766.401,-401.345 822.839,-356.067 856.456,-329.098"/>
<polygon fill="#06c158" stroke="#06c158" points="733.076,-428.081 722.459,-430.828 729.175,-431.209 725.275,-434.338 725.275,-434.338 725.275,-434.338 729.175,-431.209 728.091,-437.848 733.076,-428.081 733.076,-428.081"/>
<polygon fill="#06c158" stroke="#06c158" points="856.683,-328.916 867.299,-326.168 860.583,-325.787 864.483,-322.658 864.483,-322.658 864.483,-322.658 860.583,-325.787 861.667,-319.148 856.683,-328.916 856.683,-328.916"/>
</g>
<!-- School&#45;&gt;Project -->
<g id="edge51" class="edge"><title>School&#45;&gt;Project</title>
<path fill="none" stroke="#f2defb" d="M667.579,-437.482C576.426,-410.849 351.914,-345.251 260.594,-318.568"/>
<polygon fill="#f2defb" stroke="#f2defb" points="667.731,-437.526 676.068,-444.65 672.531,-438.929 677.33,-440.331 677.33,-440.331 677.33,-440.331 672.531,-438.929 678.592,-436.012 667.731,-437.526 667.731,-437.526"/>
<polygon fill="#f2defb" stroke="#f2defb" points="260.498,-318.541 252.161,-311.417 255.698,-317.138 250.899,-315.736 250.899,-315.736 250.899,-315.736 255.698,-317.138 249.637,-320.055 260.498,-318.541 260.498,-318.541"/>
</g>
<!-- School&#45;&gt;Roster -->
<g id="edge53" class="edge"><title>School&#45;&gt;Roster</title>
<path fill="none" stroke="#6ce985" d="M729.312,-425.823C736.95,-416.999 745.057,-406.524 751,-396 762.081,-376.376 770.212,-352.106 775.359,-333.869"/>
<polygon fill="#6ce985" stroke="#6ce985" points="729.18,-425.97 719.155,-430.414 725.843,-429.694 722.506,-433.417 722.506,-433.417 722.506,-433.417 725.843,-429.694 725.857,-436.42 729.18,-425.97 729.18,-425.97"/>
<polygon fill="#6ce985" stroke="#6ce985" points="775.372,-333.823 782.323,-325.342 776.675,-328.996 777.979,-324.168 777.979,-324.168 777.979,-324.168 776.675,-328.996 773.634,-322.995 775.372,-333.823 775.372,-333.823"/>
</g>
<!-- Style -->
<g id="node32" class="node"><title>Style</title>
<ellipse fill="none" stroke="black" cx="277" cy="-378" rx="28.3955" ry="18"/>
<text text-anchor="middle" x="277" y="-374.3" font-family="Times,serif" font-size="14.00">Style</text>
</g>
<!-- Style&#45;&gt;Project -->
<g id="edge54" class="edge"><title>Style&#45;&gt;Project</title>
<path fill="none" stroke="#fd38ed" d="M259.361,-354.951C253.268,-347.336 246.414,-338.768 240.203,-331.004"/>
<ellipse fill="none" stroke="#fd38ed" cx="262.073" cy="-358.341" rx="4.00002" ry="4.00002"/>
<polygon fill="#fd38ed" stroke="#fd38ed" points="240.029,-330.786 237.296,-320.166 236.905,-326.882 233.782,-322.977 233.782,-322.977 233.782,-322.977 236.905,-326.882 230.268,-325.788 240.029,-330.786 240.029,-330.786"/>
</g>
<!-- Theme -->
<g id="node33" class="node"><title>Theme</title>
<ellipse fill="none" stroke="black" cx="549" cy="-615" rx="35.6194" ry="18"/>
<text text-anchor="middle" x="549" y="-611.3" font-family="Times,serif" font-size="14.00">Theme</text>
</g>
<!-- Theme&#45;&gt;User -->
<g id="edge55" class="edge"><title>Theme&#45;&gt;User</title>
<path fill="none" stroke="#dcc223" d="M563.367,-590.653C571.498,-577.44 581.659,-560.93 589.907,-547.527"/>
<ellipse fill="none" stroke="#dcc223" cx="561.108" cy="-594.324" rx="4.00002" ry="4.00002"/>
<polygon fill="#dcc223" stroke="#dcc223" points="590.022,-547.34 599.095,-541.182 592.642,-543.082 595.263,-538.823 595.263,-538.823 595.263,-538.823 592.642,-543.082 591.43,-536.465 590.022,-547.34 590.022,-547.34"/>
</g>
<!-- User&#45;&gt;Candidate -->
<g id="edge60" class="edge"><title>User&#45;&gt;Candidate</title>
<path fill="none" stroke="#7ce83d" d="M640.313,-520.588C747.47,-518.881 1067.31,-510.28 1161,-468 1213.74,-444.202 1256,-436.856 1256,-379 1256,-379 1256,-379 1256,-233 1256,-112.821 824.127,-94.2364 666.614,-91.4547"/>
<ellipse fill="none" stroke="#7ce83d" cx="636.083" cy="-520.652" rx="4" ry="4"/>
<polygon fill="#7ce83d" stroke="#7ce83d" points="666.198,-91.4481 656.272,-86.7875 661.199,-91.3675 656.199,-91.2869 656.199,-91.2869 656.199,-91.2869 661.199,-91.3675 656.127,-95.7864 666.198,-91.4481 666.198,-91.4481"/>
</g>
<!-- User&#45;&gt;CandidateList -->
<g id="edge58" class="edge"><title>User&#45;&gt;CandidateList</title>
<path fill="none" stroke="#13f3af" d="M581.577,-502.368C570.482,-493.543 557.135,-482.925 545.461,-473.64"/>
<ellipse fill="none" stroke="#13f3af" cx="584.902" cy="-505.013" rx="4.00002" ry="4.00002"/>
<polygon fill="#13f3af" stroke="#13f3af" points="545.139,-473.384 540.115,-463.637 541.226,-470.271 537.313,-467.158 537.313,-467.158 537.313,-467.158 541.226,-470.271 534.512,-470.68 545.139,-473.384 545.139,-473.384"/>
</g>
<!-- User&#45;&gt;Concept -->
<g id="edge59" class="edge"><title>User&#45;&gt;Concept</title>
<path fill="none" stroke="#b9ae57" d="M610.184,-495.577C623.483,-430.36 658.722,-257.54 672.432,-190.304"/>
<ellipse fill="none" stroke="#b9ae57" cx="609.32" cy="-499.814" rx="4.00001" ry="4.00001"/>
<polygon fill="#b9ae57" stroke="#b9ae57" points="672.516,-189.892 678.924,-180.993 673.515,-184.993 674.514,-180.094 674.514,-180.094 674.514,-180.094 673.515,-184.993 670.105,-179.195 672.516,-189.892 672.516,-189.892"/>
</g>
<!-- User&#45;&gt;ConsentLog -->
<g id="edge57" class="edge"><title>User&#45;&gt;ConsentLog</title>
<path fill="none" stroke="#055894" d="M570.1,-518.251C495.735,-512.069 316.341,-495.428 168,-468 162.251,-466.937 156.264,-465.674 150.332,-464.324"/>
<ellipse fill="none" stroke="#055894" cx="574.236" cy="-518.591" rx="4" ry="4"/>
<polygon fill="#055894" stroke="#055894" points="150.183,-464.289 141.486,-457.61 145.317,-463.139 140.451,-461.989 140.451,-461.989 140.451,-461.989 145.317,-463.139 139.416,-466.368 150.183,-464.289 150.183,-464.289"/>
</g>
<!-- User&#45;&gt;Email -->
<g id="edge56" class="edge"><title>User&#45;&gt;Email</title>
<path fill="none" stroke="#c8ce9a" d="M570.433,-516.324C517.288,-508.714 412.58,-492.042 326,-468 322.426,-467.008 318.737,-465.861 315.075,-464.641"/>
<ellipse fill="none" stroke="#c8ce9a" cx="574.548" cy="-516.907" rx="4.00001" ry="4.00001"/>
<polygon fill="#c8ce9a" stroke="#c8ce9a" points="314.978,-464.607 307.031,-457.05 310.26,-462.951 305.542,-461.296 305.542,-461.296 305.542,-461.296 310.26,-462.951 304.052,-465.542 314.978,-464.607 314.978,-464.607"/>
</g>
<!-- User&#45;&gt;Experience -->
<g id="edge64" class="edge"><title>User&#45;&gt;Experience</title>
<path fill="none" stroke="#0a78d8" d="M641.909,-516.695C678.682,-510.857 735.247,-497.532 775,-468 823.049,-432.305 856.832,-368.81 873.058,-333.156"/>
<polygon fill="#0a78d8" stroke="#0a78d8" points="641.525,-516.752 630.975,-513.762 636.579,-517.483 631.633,-518.214 631.633,-518.214 631.633,-518.214 636.579,-517.483 632.291,-522.665 641.525,-516.752 641.525,-516.752"/>
<polygon fill="#0a78d8" stroke="#0a78d8" points="873.115,-333.027 881.281,-325.708 875.141,-328.456 877.166,-323.885 877.166,-323.885 877.166,-323.885 875.141,-328.456 873.052,-322.061 873.115,-333.027 873.115,-333.027"/>
</g>
<!-- User&#45;&gt;Installment -->
<g id="edge61" class="edge"><title>User&#45;&gt;Installment</title>
<path fill="none" stroke="#6587fa" d="M570.106,-518.07C534.825,-513.301 480.936,-500.789 448,-468 340.125,-360.609 428.999,-265.268 337,-144 326.621,-130.318 311.665,-118.892 297.691,-110.193"/>
<ellipse fill="none" stroke="#6587fa" cx="574.242" cy="-518.582" rx="4.00001" ry="4.00001"/>
<polygon fill="#6587fa" stroke="#6587fa" points="297.312,-109.969 290.999,-101.003 293.009,-107.422 288.707,-104.875 288.707,-104.875 288.707,-104.875 293.009,-107.422 286.414,-108.748 297.312,-109.969 297.312,-109.969"/>
</g>
<!-- User&#45;&gt;Narrative -->
<g id="edge65" class="edge"><title>User&#45;&gt;Narrative</title>
<path fill="none" stroke="#9b2625" d="M641.699,-516.83C708.5,-509.002 854.293,-490.82 976,-468 984.642,-466.38 993.808,-464.43 1002.62,-462.438"/>
<polygon fill="#9b2625" stroke="#9b2625" points="641.605,-516.841 631.152,-513.527 636.639,-517.419 631.672,-517.997 631.672,-517.997 631.672,-517.997 636.639,-517.419 632.192,-522.467 641.605,-516.841 641.605,-516.841"/>
<polygon fill="#9b2625" stroke="#9b2625" points="1002.63,-462.437 1013.38,-464.572 1007.5,-461.312 1012.37,-460.187 1012.37,-460.187 1012.37,-460.187 1007.5,-461.312 1011.36,-455.802 1002.63,-462.437 1002.63,-462.437"/>
</g>
<!-- User&#45;&gt;Reaction -->
<g id="edge63" class="edge"><title>User&#45;&gt;Reaction</title>
<path fill="none" stroke="#8a0d8f" d="M639.816,-517.663C681.752,-512.378 753.144,-499.258 806,-468 882.036,-423.034 910.214,-406.028 943,-324 950.959,-304.088 947.169,-279.839 941.97,-261.684"/>
<ellipse fill="none" stroke="#8a0d8f" cx="635.808" cy="-518.142" rx="4.00001" ry="4.00001"/>
<polygon fill="#8a0d8f" stroke="#8a0d8f" points="941.933,-261.568 943.202,-250.676 940.423,-256.802 938.913,-252.035 938.913,-252.035 938.913,-252.035 940.423,-256.802 934.623,-253.394 941.933,-261.568 941.933,-261.568"/>
</g>
<!-- User&#45;&gt;Roster -->
<g id="edge62" class="edge"><title>User&#45;&gt;Roster</title>
<path fill="none" stroke="#5258fa" d="M639.931,-517.321C673.012,-512.002 721.84,-499.101 751,-468 785.052,-431.68 787.045,-369.835 784.89,-334.298"/>
<ellipse fill="none" stroke="#5258fa" cx="635.838" cy="-517.928" rx="4.00001" ry="4.00001"/>
<polygon fill="#5258fa" stroke="#5258fa" points="784.878,-334.142 788.606,-323.829 784.498,-329.156 784.119,-324.171 784.119,-324.171 784.119,-324.171 784.498,-329.156 779.632,-324.513 784.878,-334.142 784.878,-334.142"/>
</g>
<!-- Week&#45;&gt;Behavior -->
<g id="edge66" class="edge"><title>Week&#45;&gt;Behavior</title>
<path fill="none" stroke="#18084d" d="M1096.16,-353.346C1092.32,-346.267 1088.1,-338.493 1084.23,-331.369"/>
<ellipse fill="none" stroke="#18084d" cx="1098.09" cy="-356.896" rx="4.00002" ry="4.00002"/>
<ellipse fill="#18084d" stroke="#18084d" cx="1082.11" cy="-327.472" rx="4.00002" ry="4.00002"/>
</g>
<!-- Week&#45;&gt;Diagnosis -->
<g id="edge67" class="edge"><title>Week&#45;&gt;Diagnosis</title>
<path fill="none" stroke="#dbc17b" d="M1117.5,-352.63C1127.37,-320.201 1140.13,-261.648 1122,-216 1117.38,-204.361 1108.85,-193.798 1100.13,-185.219"/>
<ellipse fill="none" stroke="#dbc17b" cx="1116.28" cy="-356.475" rx="4.00001" ry="4.00001"/>
<polygon fill="#dbc17b" stroke="#dbc17b" points="1099.88,-184.983 1095.56,-174.902 1096.2,-181.599 1092.52,-178.214 1092.52,-178.214 1092.52,-178.214 1096.2,-181.599 1089.47,-181.526 1099.88,-184.983 1099.88,-184.983"/>
</g>
</g>
</svg>
