<?xml version="1.0" encoding="UTF-8" standalone="no"?>
<!DOCTYPE svg PUBLIC "-//W3C//DTD SVG 1.1//EN"
 "http://www.w3.org/Graphics/SVG/1.1/DTD/svg11.dtd">
<!-- Generated by graphviz version 2.36.0 (20140111.2315)
 -->
<!-- Title: models_diagram Pages: 1 -->
<svg width="1437pt" height="518pt"
 viewBox="0.00 0.00 1437.00 518.00" xmlns="http://www.w3.org/2000/svg" xmlns:xlink="http://www.w3.org/1999/xlink">
<g id="graph0" class="graph" transform="scale(1 1) rotate(0) translate(4 514)">
<title>models_diagram</title>
<polygon fill="none" stroke="none" points="-4,4 -4,-514 1433,-514 1433,4 -4,4"/>
<!-- _diagram_info -->
<g id="node1" class="node"><title>_diagram_info</title>
<text text-anchor="start" x="7.5" y="-495.6" font-family="Times,serif" font-size="13.00">Models diagram</text>
<text text-anchor="start" x="7.5" y="-481.6" font-family="Times,serif" font-size="13.00">Date: Feb 06 2017 &#45; 18:08</text>
<text text-anchor="start" x="7.5" y="-467.6" font-family="Times,serif" font-size="13.00">Migration version: 20170206071120</text>
<text text-anchor="start" x="7.5" y="-453.6" font-family="Times,serif" font-size="13.00">Generated by RailRoady 1.5.2</text>
<text text-anchor="start" x="7.5" y="-439.6" font-family="Times,serif" font-size="13.00">http://railroady.prestonlee.com</text>
</g>
<!-- AgeRange -->
<g id="node2" class="node"><title>AgeRange</title>
<ellipse fill="none" stroke="black" cx="703" cy="-234" rx="57.2688" ry="18"/>
<text text-anchor="middle" x="703" y="-230.3" font-family="Times,serif" font-size="14.00">AgeRange</text>
</g>
<!-- User -->
<g id="node25" class="node"><title>User</title>
<ellipse fill="none" stroke="black" cx="789" cy="-162" rx="32.2457" ry="18"/>
<text text-anchor="middle" x="789" y="-158.3" font-family="Times,serif" font-size="14.00">User</text>
</g>
<!-- AgeRange&#45;&gt;User -->
<g id="edge1" class="edge"><title>AgeRange&#45;&gt;User</title>
<path fill="none" stroke="#4b504b" d="M729.415,-211.5C740.308,-202.633 752.878,-192.402 763.657,-183.628"/>
<ellipse fill="none" stroke="#4b504b" cx="726.049" cy="-214.24" rx="4.00002" ry="4.00002"/>
<polygon fill="#4b504b" stroke="#4b504b" points="763.737,-183.563 774.334,-180.74 767.615,-180.406 771.493,-177.25 771.493,-177.25 771.493,-177.25 767.615,-180.406 768.652,-173.76 763.737,-183.563 763.737,-183.563"/>
</g>
<!-- Assessment -->
<g id="node3" class="node"><title>Assessment</title>
<ellipse fill="none" stroke="black" cx="1208" cy="-234" rx="65.9423" ry="18"/>
<text text-anchor="middle" x="1208" y="-230.3" font-family="Times,serif" font-size="14.00">Assessment</text>
</g>
<!-- Factor -->
<g id="node11" class="node"><title>Factor</title>
<ellipse fill="none" stroke="black" cx="1271" cy="-162" rx="40.4202" ry="18"/>
<text text-anchor="middle" x="1271" y="-158.3" font-family="Times,serif" font-size="14.00">Factor</text>
</g>
<!-- Assessment&#45;&gt;Factor -->
<g id="edge3" class="edge"><title>Assessment&#45;&gt;Factor</title>
<path fill="none" stroke="#feb3dc" d="M1229.75,-208.837C1236.27,-201.587 1243.42,-193.65 1249.9,-186.447"/>
<polygon fill="#feb3dc" stroke="#feb3dc" points="1229.62,-208.978 1219.59,-213.401 1226.27,-212.694 1222.93,-216.411 1222.93,-216.411 1222.93,-216.411 1226.27,-212.694 1226.27,-219.421 1229.62,-208.978 1229.62,-208.978"/>
<polygon fill="#feb3dc" stroke="#feb3dc" points="1249.92,-186.421 1259.96,-181.998 1253.27,-182.705 1256.61,-178.988 1256.61,-178.988 1256.61,-178.988 1253.27,-182.705 1253.27,-175.978 1249.92,-186.421 1249.92,-186.421"/>
</g>
<!-- Installment -->
<g id="node16" class="node"><title>Installment</title>
<ellipse fill="none" stroke="black" cx="1042" cy="-90" rx="64.0172" ry="18"/>
<text text-anchor="middle" x="1042" y="-86.3" font-family="Times,serif" font-size="14.00">Installment</text>
</g>
<!-- Assessment&#45;&gt;Installment -->
<g id="edge2" class="edge"><title>Assessment&#45;&gt;Installment</title>
<path fill="none" stroke="#c8c71b" d="M1182.61,-211.281C1151.89,-185.005 1100.4,-140.96 1068.99,-114.086"/>
<ellipse fill="none" stroke="#c8c71b" cx="1185.92" cy="-214.111" rx="4.00002" ry="4.00002"/>
<polygon fill="#c8c71b" stroke="#c8c71b" points="1068.67,-113.818 1064,-103.898 1064.87,-110.568 1061.08,-107.317 1061.08,-107.317 1061.08,-107.317 1064.87,-110.568 1058.15,-110.737 1068.67,-113.818 1068.67,-113.818"/>
</g>
<!-- Assessment&#45;&gt;User -->
<g id="edge4" class="edge"><title>Assessment&#45;&gt;User</title>
<path fill="none" stroke="#817356" d="M1149.54,-219.512C1143.63,-218.271 1137.7,-217.077 1132,-216 1023.75,-195.554 895.182,-177.281 830.523,-168.504"/>
<polygon fill="#817356" stroke="#817356" points="1149.67,-219.539 1158.51,-226.033 1154.56,-220.586 1159.45,-221.633 1159.45,-221.633 1159.45,-221.633 1154.56,-220.586 1160.39,-217.233 1149.67,-219.539 1149.67,-219.539"/>
<polygon fill="#817356" stroke="#817356" points="830.243,-168.466 820.935,-162.669 825.288,-167.797 820.333,-167.128 820.333,-167.128 820.333,-167.128 825.288,-167.797 819.73,-171.588 830.243,-168.466 830.243,-168.466"/>
</g>
<!-- Behavior -->
<g id="node4" class="node"><title>Behavior</title>
<ellipse fill="none" stroke="black" cx="82" cy="-306" rx="51.4931" ry="18"/>
<text text-anchor="middle" x="82" y="-302.3" font-family="Times,serif" font-size="14.00">Behavior</text>
</g>
<!-- Diagnosis -->
<g id="node9" class="node"><title>Diagnosis</title>
<ellipse fill="none" stroke="black" cx="193" cy="-18" rx="55.3436" ry="18"/>
<text text-anchor="middle" x="193" y="-14.3" font-family="Times,serif" font-size="14.00">Diagnosis</text>
</g>
<!-- Behavior&#45;&gt;Diagnosis -->
<g id="edge7" class="edge"><title>Behavior&#45;&gt;Diagnosis</title>
<path fill="none" stroke="#95111f" d="M74.8059,-280.148C62.9484,-233.476 45.2435,-132.027 95,-72 108.35,-55.8947 127.91,-43.9381 146.051,-35.4992"/>
<ellipse fill="none" stroke="#95111f" cx="75.8419" cy="-284.074" rx="4.00001" ry="4.00001"/>
<polygon fill="#95111f" stroke="#95111f" points="146.213,-35.4279 157.179,-35.5231 150.79,-33.4157 155.368,-31.4035 155.368,-31.4035 155.368,-31.4035 150.79,-33.4157 153.557,-27.284 146.213,-35.4279 146.213,-35.4279"/>
</g>
<!-- Reaction -->
<g id="node19" class="node"><title>Reaction</title>
<ellipse fill="none" stroke="black" cx="246" cy="-90" rx="51.4931" ry="18"/>
<text text-anchor="middle" x="246" y="-86.3" font-family="Times,serif" font-size="14.00">Reaction</text>
</g>
<!-- Behavior&#45;&gt;Reaction -->
<g id="edge6" class="edge"><title>Behavior&#45;&gt;Reaction</title>
<path fill="none" stroke="#86ad93" d="M130.06,-292.261C165.344,-281.923 209.106,-266.699 221,-252 251.959,-213.738 252.382,-153.11 249.477,-118.197"/>
<ellipse fill="none" stroke="#86ad93" cx="126.061" cy="-293.414" rx="4.00001" ry="4.00001"/>
<polygon fill="#86ad93" stroke="#86ad93" points="249.477,-118.192 252.977,-107.8 248.988,-113.216 248.499,-108.24 248.499,-108.24 248.499,-108.24 248.988,-113.216 244.021,-108.68 249.477,-118.192 249.477,-118.192"/>
</g>
<!-- Scenario -->
<g id="node22" class="node"><title>Scenario</title>
<ellipse fill="none" stroke="black" cx="161" cy="-234" rx="51.0191" ry="18"/>
<text text-anchor="middle" x="161" y="-230.3" font-family="Times,serif" font-size="14.00">Scenario</text>
</g>
<!-- Behavior&#45;&gt;Scenario -->
<g id="edge5" class="edge"><title>Behavior&#45;&gt;Scenario</title>
<path fill="none" stroke="#b4aa7c" d="M106.232,-283.529C115.457,-275.354 125.996,-266.016 135.349,-257.729"/>
<ellipse fill="none" stroke="#b4aa7c" cx="102.92" cy="-286.463" rx="4.00002" ry="4.00002"/>
<polygon fill="#b4aa7c" stroke="#b4aa7c" points="135.387,-257.695 145.856,-254.432 139.129,-254.379 142.871,-251.064 142.871,-251.064 142.871,-251.064 139.129,-254.379 139.887,-247.695 135.387,-257.695 135.387,-257.695"/>
</g>
<!-- CipCode -->
<g id="node5" class="node"><title>CipCode</title>
<ellipse fill="none" stroke="black" cx="868" cy="-234" rx="50.5427" ry="18"/>
<text text-anchor="middle" x="868" y="-230.3" font-family="Times,serif" font-size="14.00">CipCode</text>
</g>
<!-- CipCode&#45;&gt;User -->
<g id="edge8" class="edge"><title>CipCode&#45;&gt;User</title>
<path fill="none" stroke="#4aaf14" d="M843.831,-211.584C834.13,-202.989 822.969,-193.099 813.259,-184.496"/>
<ellipse fill="none" stroke="#4aaf14" cx="847.08" cy="-214.463" rx="4.00002" ry="4.00002"/>
<polygon fill="#4aaf14" stroke="#4aaf14" points="812.993,-184.26 808.493,-174.26 809.251,-180.944 805.508,-177.628 805.508,-177.628 805.508,-177.628 809.251,-180.944 802.524,-180.996 812.993,-184.26 812.993,-184.26"/>
</g>
<!-- ConsentForm -->
<g id="node6" class="node"><title>ConsentForm</title>
<ellipse fill="none" stroke="black" cx="1356" cy="-378" rx="73.1654" ry="18"/>
<text text-anchor="middle" x="1356" y="-374.3" font-family="Times,serif" font-size="14.00">ConsentForm</text>
</g>
<!-- ConsentLog -->
<g id="node7" class="node"><title>ConsentLog</title>
<ellipse fill="none" stroke="black" cx="1191" cy="-90" rx="66.4165" ry="18"/>
<text text-anchor="middle" x="1191" y="-86.3" font-family="Times,serif" font-size="14.00">ConsentLog</text>
</g>
<!-- ConsentForm&#45;&gt;ConsentLog -->
<g id="edge10" class="edge"><title>ConsentForm&#45;&gt;ConsentLog</title>
<path fill="none" stroke="#88775e" d="M1359.53,-351.863C1364.58,-305.49 1368.52,-205.603 1320,-144 1309.96,-131.256 1275.09,-117.332 1244.13,-106.955"/>
<ellipse fill="none" stroke="#88775e" cx="1359.05" cy="-355.905" rx="4.00001" ry="4.00001"/>
<polygon fill="#88775e" stroke="#88775e" points="1243.76,-106.832 1235.65,-99.4409 1239,-105.275 1234.25,-103.717 1234.25,-103.717 1234.25,-103.717 1239,-105.275 1232.85,-107.993 1243.76,-106.832 1243.76,-106.832"/>
</g>
<!-- Project -->
<g id="node18" class="node"><title>Project</title>
<ellipse fill="none" stroke="black" cx="1208" cy="-306" rx="44.2946" ry="18"/>
<text text-anchor="middle" x="1208" y="-302.3" font-family="Times,serif" font-size="14.00">Project</text>
</g>
<!-- ConsentForm&#45;&gt;Project -->
<g id="edge9" class="edge"><title>ConsentForm&#45;&gt;Project</title>
<path fill="none" stroke="#fd80d4" d="M1316.59,-358.361C1294.49,-347.906 1267.07,-334.937 1245.31,-324.647"/>
<ellipse fill="none" stroke="#fd80d4" cx="1320.27" cy="-360.101" rx="4.00002" ry="4.00002"/>
<polygon fill="#fd80d4" stroke="#fd80d4" points="1245.1,-324.548 1237.98,-316.204 1240.58,-322.41 1236.06,-320.272 1236.06,-320.272 1236.06,-320.272 1240.58,-322.41 1234.14,-324.34 1245.1,-324.548 1245.1,-324.548"/>
</g>
<!-- Course -->
<g id="node8" class="node"><title>Course</title>
<ellipse fill="none" stroke="black" cx="316" cy="-378" rx="44.2946" ry="18"/>
<text text-anchor="middle" x="316" y="-374.3" font-family="Times,serif" font-size="14.00">Course</text>
</g>
<!-- Experience -->
<g id="node10" class="node"><title>Experience</title>
<ellipse fill="none" stroke="black" cx="224" cy="-306" rx="63.5411" ry="18"/>
<text text-anchor="middle" x="224" y="-302.3" font-family="Times,serif" font-size="14.00">Experience</text>
</g>
<!-- Course&#45;&gt;Experience -->
<g id="edge13" class="edge"><title>Course&#45;&gt;Experience</title>
<path fill="none" stroke="#b8a5f1" d="M289.408,-356.767C278.104,-348.166 264.884,-338.108 253.3,-329.293"/>
<ellipse fill="none" stroke="#b8a5f1" cx="292.854" cy="-359.389" rx="4.00002" ry="4.00002"/>
<polygon fill="#b8a5f1" stroke="#b8a5f1" points="253.162,-329.189 247.929,-319.552 249.183,-326.161 245.204,-323.134 245.204,-323.134 245.204,-323.134 249.183,-326.161 242.479,-326.715 253.162,-329.189 253.162,-329.189"/>
</g>
<!-- Course&#45;&gt;Project -->
<g id="edge11" class="edge"><title>Course&#45;&gt;Project</title>
<path fill="none" stroke="#b7e2c9" d="M367.307,-372.974C524.155,-360.665 996.235,-323.618 1155.14,-311.148"/>
<ellipse fill="none" stroke="#b7e2c9" cx="363.011" cy="-373.311" rx="4" ry="4"/>
<polygon fill="#b7e2c9" stroke="#b7e2c9" points="1155.18,-311.145 1165.5,-314.849 1160.16,-310.754 1165.15,-310.363 1165.15,-310.363 1165.15,-310.363 1160.16,-310.754 1164.8,-305.877 1155.18,-311.145 1155.18,-311.145"/>
</g>
<!-- Roster -->
<g id="node21" class="node"><title>Roster</title>
<ellipse fill="none" stroke="black" cx="375" cy="-90" rx="41.394" ry="18"/>
<text text-anchor="middle" x="375" y="-86.3" font-family="Times,serif" font-size="14.00">Roster</text>
</g>
<!-- Course&#45;&gt;Roster -->
<g id="edge12" class="edge"><title>Course&#45;&gt;Roster</title>
<path fill="none" stroke="#bbe6f6" d="M317.486,-351.567C319.698,-319.623 324.748,-263.267 335,-216 342.513,-181.359 355.666,-142.66 364.83,-117.627"/>
<ellipse fill="none" stroke="#bbe6f6" cx="317.199" cy="-355.91" rx="4" ry="4"/>
<polygon fill="#bbe6f6" stroke="#bbe6f6" points="364.885,-117.479 372.584,-109.671 366.625,-112.792 368.366,-108.104 368.366,-108.104 368.366,-108.104 366.625,-112.792 364.147,-106.538 364.885,-117.479 364.885,-117.479"/>
</g>
<!-- Diagnosis&#45;&gt;User -->
<g id="edge14" class="edge"><title>Diagnosis&#45;&gt;User</title>
<path fill="none" stroke="#b1fbab" d="M245.443,-30.7416C292.5,-41.334 363.427,-57.4404 425,-72 544.909,-100.354 686.632,-135.469 752.257,-151.82"/>
<ellipse fill="none" stroke="#b1fbab" cx="241.425" cy="-29.8378" rx="4.00001" ry="4.00001"/>
<ellipse fill="#b1fbab" stroke="#b1fbab" cx="756.371" cy="-152.846" rx="4.00001" ry="4.00001"/>
</g>
<!-- Experience&#45;&gt;Reaction -->
<g id="edge15" class="edge"><title>Experience&#45;&gt;Reaction</title>
<path fill="none" stroke="#578ae5" d="M240.843,-281.334C246.14,-272.548 251.307,-262.224 254,-252 266.04,-206.289 258.709,-150.81 252.328,-118.352"/>
<ellipse fill="none" stroke="#578ae5" cx="238.557" cy="-284.938" rx="4.00002" ry="4.00002"/>
<polygon fill="#578ae5" stroke="#578ae5" points="252.268,-118.065 254.636,-107.357 251.249,-113.17 250.23,-108.275 250.23,-108.275 250.23,-108.275 251.249,-113.17 245.824,-109.192 252.268,-118.065 252.268,-118.065"/>
</g>
<!-- FactorPack -->
<g id="node12" class="node"><title>FactorPack</title>
<ellipse fill="none" stroke="black" cx="1340" cy="-90" rx="63.5411" ry="18"/>
<text text-anchor="middle" x="1340" y="-86.3" font-family="Times,serif" font-size="14.00">FactorPack</text>
</g>
<!-- Factor&#45;&gt;FactorPack -->
<g id="edge16" class="edge"><title>Factor&#45;&gt;FactorPack</title>
<path fill="none" stroke="#2cbf60" d="M1293.74,-137.932C1301.01,-130.553 1309.08,-122.37 1316.41,-114.931"/>
<polygon fill="#2cbf60" stroke="#2cbf60" points="1293.68,-137.994 1283.45,-141.957 1290.17,-141.555 1286.66,-145.116 1286.66,-145.116 1286.66,-145.116 1290.17,-141.555 1289.86,-148.275 1293.68,-137.994 1293.68,-137.994"/>
<polygon fill="#2cbf60" stroke="#2cbf60" points="1316.42,-114.919 1326.65,-110.956 1319.93,-111.358 1323.44,-107.797 1323.44,-107.797 1323.44,-107.797 1319.93,-111.358 1320.24,-104.638 1316.42,-114.919 1316.42,-114.919"/>
</g>
<!-- FactorPack&#45;&gt;Project -->
<g id="edge17" class="edge"><title>FactorPack&#45;&gt;Project</title>
<path fill="none" stroke="#4c2e79" d="M1339.67,-116.311C1337.97,-150.533 1330.36,-211.886 1299,-252 1286.27,-268.284 1267.03,-280.522 1249.52,-289.112"/>
<ellipse fill="none" stroke="#4c2e79" cx="1339.83" cy="-112.221" rx="4" ry="4"/>
<polygon fill="#4c2e79" stroke="#4c2e79" points="1249.1,-289.309 1238.13,-289.428 1244.56,-291.41 1240.02,-293.512 1240.02,-293.512 1240.02,-293.512 1244.56,-291.41 1241.91,-297.595 1249.1,-289.309 1249.1,-289.309"/>
</g>
<!-- Gender -->
<g id="node13" class="node"><title>Gender</title>
<ellipse fill="none" stroke="black" cx="982" cy="-234" rx="44.271" ry="18"/>
<text text-anchor="middle" x="982" y="-230.3" font-family="Times,serif" font-size="14.00">Gender</text>
</g>
<!-- Gender&#45;&gt;User -->
<g id="edge18" class="edge"><title>Gender&#45;&gt;User</title>
<path fill="none" stroke="#efce8a" d="M942.315,-218.606C907.886,-206.119 858.471,-188.197 825.128,-176.103"/>
<ellipse fill="none" stroke="#efce8a" cx="946.37" cy="-220.077" rx="4.00001" ry="4.00001"/>
<polygon fill="#efce8a" stroke="#efce8a" points="824.731,-175.96 816.865,-168.32 820.031,-174.255 815.33,-172.55 815.33,-172.55 815.33,-172.55 820.031,-174.255 813.796,-176.78 824.731,-175.96 824.731,-175.96"/>
</g>
<!-- Group -->
<g id="node14" class="node"><title>Group</title>
<ellipse fill="none" stroke="black" cx="1084" cy="-234" rx="39.4691" ry="18"/>
<text text-anchor="middle" x="1084" y="-230.3" font-family="Times,serif" font-size="14.00">Group</text>
</g>
<!-- Group&#45;&gt;Installment -->
<g id="edge20" class="edge"><title>Group&#45;&gt;Installment</title>
<path fill="none" stroke="#c87418" d="M1076.58,-207.929C1069.13,-182.725 1057.67,-143.994 1050.01,-118.095"/>
<ellipse fill="none" stroke="#c87418" cx="1077.8" cy="-212.036" rx="4.00001" ry="4.00001"/>
<polygon fill="#c87418" stroke="#c87418" points="1049.92,-117.779 1051.4,-106.913 1048.5,-112.984 1047.08,-108.189 1047.08,-108.189 1047.08,-108.189 1048.5,-112.984 1042.77,-109.466 1049.92,-117.779 1049.92,-117.779"/>
</g>
<!-- Group&#45;&gt;User -->
<g id="edge19" class="edge"><title>Group&#45;&gt;User</title>
<path fill="none" stroke="#2e27fb" d="M1044.68,-218.893C1041.42,-217.866 1038.16,-216.886 1035,-216 963.518,-195.98 878.554,-179.187 829.495,-170.157"/>
<polygon fill="#2e27fb" stroke="#2e27fb" points="1044.88,-218.958 1052.98,-226.352 1049.63,-220.517 1054.38,-222.076 1054.38,-222.076 1054.38,-222.076 1049.63,-220.517 1055.79,-217.801 1044.88,-218.958 1044.88,-218.958"/>
<polygon fill="#2e27fb" stroke="#2e27fb" points="829.426,-170.145 820.397,-163.923 824.508,-169.247 819.589,-168.35 819.589,-168.35 819.589,-168.35 824.508,-169.247 818.781,-172.777 829.426,-170.145 829.426,-170.145"/>
</g>
<!-- GroupProjectCount -->
<g id="node15" class="node"><title>GroupProjectCount</title>
<ellipse fill="none" stroke="black" cx="526" cy="-234" rx="101.087" ry="18"/>
<text text-anchor="middle" x="526" y="-230.3" font-family="Times,serif" font-size="14.00">GroupProjectCount</text>
</g>
<!-- GroupProjectCount&#45;&gt;User -->
<g id="edge21" class="edge"><title>GroupProjectCount&#45;&gt;User</title>
<path fill="none" stroke="#30d39c" d="M587.726,-216.571C638.175,-203.144 707.909,-184.583 750.653,-173.206"/>
<ellipse fill="none" stroke="#30d39c" cx="583.722" cy="-217.637" rx="4.00001" ry="4.00001"/>
<polygon fill="#30d39c" stroke="#30d39c" points="750.725,-173.187 761.547,-174.964 755.557,-171.901 760.389,-170.615 760.389,-170.615 760.389,-170.615 755.557,-171.901 759.232,-166.266 750.725,-173.187 750.725,-173.187"/>
</g>
<!-- Value -->
<g id="node26" class="node"><title>Value</title>
<ellipse fill="none" stroke="black" cx="1042" cy="-18" rx="36.096" ry="18"/>
<text text-anchor="middle" x="1042" y="-14.3" font-family="Times,serif" font-size="14.00">Value</text>
</g>
<!-- Installment&#45;&gt;Value -->
<g id="edge22" class="edge"><title>Installment&#45;&gt;Value</title>
<path fill="none" stroke="#3d5491" d="M1042,-63.6398C1042,-58.0629 1042,-52.1319 1042,-46.4761"/>
<ellipse fill="none" stroke="#3d5491" cx="1042" cy="-67.6966" rx="4" ry="4"/>
<polygon fill="#3d5491" stroke="#3d5491" points="1042,-46.1043 1046.5,-36.1043 1042,-41.1043 1042,-36.1043 1042,-36.1043 1042,-36.1043 1042,-41.1043 1037.5,-36.1044 1042,-46.1043 1042,-46.1043"/>
</g>
<!-- Narrative -->
<g id="node17" class="node"><title>Narrative</title>
<ellipse fill="none" stroke="black" cx="151" cy="-162" rx="55.3436" ry="18"/>
<text text-anchor="middle" x="151" y="-158.3" font-family="Times,serif" font-size="14.00">Narrative</text>
</g>
<!-- Narrative&#45;&gt;Behavior -->
<g id="edge24" class="edge"><title>Narrative&#45;&gt;Behavior</title>
<path fill="none" stroke="#436463" d="M125.564,-184.5C116.544,-193.382 107.124,-204.331 101,-216 90.5581,-235.896 85.8541,-261.154 83.7354,-279.676"/>
<ellipse fill="none" stroke="#436463" cx="128.491" cy="-181.726" rx="4.00002" ry="4.00002"/>
<ellipse fill="#436463" stroke="#436463" cx="83.3324" cy="-283.688" rx="4" ry="4"/>
</g>
<!-- Narrative&#45;&gt;Reaction -->
<g id="edge25" class="edge"><title>Narrative&#45;&gt;Reaction</title>
<path fill="none" stroke="#1794da" d="M179.057,-140.327C190.853,-131.635 204.583,-121.518 216.527,-112.717"/>
<ellipse fill="none" stroke="#1794da" cx="175.777" cy="-142.743" rx="4.00002" ry="4.00002"/>
<polygon fill="#1794da" stroke="#1794da" points="216.805,-112.512 227.525,-110.203 220.83,-109.546 224.856,-106.58 224.856,-106.58 224.856,-106.58 220.83,-109.546 222.186,-102.957 216.805,-112.512 216.805,-112.512"/>
</g>
<!-- Week -->
<g id="node27" class="node"><title>Week</title>
<ellipse fill="none" stroke="black" cx="140" cy="-90" rx="36.096" ry="18"/>
<text text-anchor="middle" x="140" y="-86.3" font-family="Times,serif" font-size="14.00">Week</text>
</g>
<!-- Narrative&#45;&gt;Week -->
<g id="edge23" class="edge"><title>Narrative&#45;&gt;Week</title>
<path fill="none" stroke="#c7473e" d="M147.015,-135.64C146.116,-129.92 145.159,-123.828 144.249,-118.042"/>
<ellipse fill="none" stroke="#c7473e" cx="147.66" cy="-139.745" rx="4.00001" ry="4.00001"/>
<polygon fill="#c7473e" stroke="#c7473e" points="144.24,-117.983 147.133,-107.406 143.464,-113.044 142.688,-108.104 142.688,-108.104 142.688,-108.104 143.464,-113.044 138.242,-108.803 144.24,-117.983 144.24,-117.983"/>
</g>
<!-- Project&#45;&gt;Assessment -->
<g id="edge27" class="edge"><title>Project&#45;&gt;Assessment</title>
<path fill="none" stroke="#bb245e" d="M1208,-279.64C1208,-274.063 1208,-268.132 1208,-262.476"/>
<ellipse fill="none" stroke="#bb245e" cx="1208" cy="-283.697" rx="4" ry="4"/>
<polygon fill="#bb245e" stroke="#bb245e" points="1208,-262.104 1212.5,-252.104 1208,-257.104 1208,-252.104 1208,-252.104 1208,-252.104 1208,-257.104 1203.5,-252.104 1208,-262.104 1208,-262.104"/>
</g>
<!-- Project&#45;&gt;Factor -->
<g id="edge29" class="edge"><title>Project&#45;&gt;Factor</title>
<path fill="none" stroke="#a6a21f" d="M1246.41,-287.59C1260.59,-279.038 1275.11,-267.242 1283,-252 1293.04,-232.608 1288.5,-207.794 1282.33,-189.296"/>
<polygon fill="#a6a21f" stroke="#a6a21f" points="1246.41,-287.593 1235.49,-288.576 1242.05,-290.045 1237.69,-292.497 1237.69,-292.497 1237.69,-292.497 1242.05,-290.045 1239.9,-296.419 1246.41,-287.593 1246.41,-287.593"/>
<polygon fill="#a6a21f" stroke="#a6a21f" points="1282.27,-189.129 1283.04,-178.191 1280.55,-184.437 1278.82,-179.744 1278.82,-179.744 1278.82,-179.744 1280.55,-184.437 1274.6,-181.297 1282.27,-189.129 1282.27,-189.129"/>
</g>
<!-- Project&#45;&gt;Group -->
<g id="edge26" class="edge"><title>Project&#45;&gt;Group</title>
<path fill="none" stroke="#e345e1" d="M1175.97,-286.917C1157.78,-276.652 1135.07,-263.83 1116.77,-253.497"/>
<ellipse fill="none" stroke="#e345e1" cx="1179.72" cy="-289.036" rx="4.00002" ry="4.00002"/>
<polygon fill="#e345e1" stroke="#e345e1" points="1116.62,-253.413 1110.12,-244.579 1112.26,-250.955 1107.91,-248.497 1107.91,-248.497 1107.91,-248.497 1112.26,-250.955 1105.7,-252.416 1116.62,-253.413 1116.62,-253.413"/>
</g>
<!-- Project&#45;&gt;User -->
<g id="edge28" class="edge"><title>Project&#45;&gt;User</title>
<path fill="none" stroke="#5def37" d="M1153.66,-305.27C1056.19,-304.583 857.199,-297.476 808,-252 791.281,-236.546 787.364,-210.29 787.134,-190.29"/>
<polygon fill="#5def37" stroke="#5def37" points="1153.9,-305.271 1163.88,-309.821 1158.9,-305.296 1163.9,-305.321 1163.9,-305.321 1163.9,-305.321 1158.9,-305.296 1163.92,-300.821 1153.9,-305.271 1153.9,-305.271"/>
<polygon fill="#5def37" stroke="#5def37" points="787.135,-190.21 791.814,-180.292 787.225,-185.21 787.314,-180.211 787.314,-180.211 787.314,-180.211 787.225,-185.21 782.815,-180.131 787.135,-190.21 787.135,-190.21"/>
</g>
<!-- Reaction&#45;&gt;Diagnosis -->
<g id="edge30" class="edge"><title>Reaction&#45;&gt;Diagnosis</title>
<path fill="none" stroke="#09b63f" d="M228.519,-65.9119C223.199,-58.8852 217.328,-51.1313 211.918,-43.9854"/>
<ellipse fill="none" stroke="#09b63f" cx="231.025" cy="-69.2219" rx="4.00002" ry="4.00002"/>
<polygon fill="#09b63f" stroke="#09b63f" points="211.875,-43.9288 209.426,-33.2398 208.856,-39.9425 205.838,-35.9562 205.838,-35.9562 205.838,-35.9562 208.856,-39.9425 202.251,-38.6726 211.875,-43.9288 211.875,-43.9288"/>
</g>
<!-- Role -->
<g id="node20" class="node"><title>Role</title>
<ellipse fill="none" stroke="black" cx="375" cy="-234" rx="31.2965" ry="18"/>
<text text-anchor="middle" x="375" y="-230.3" font-family="Times,serif" font-size="14.00">Role</text>
</g>
<!-- Role&#45;&gt;Roster -->
<g id="edge32" class="edge"><title>Role&#45;&gt;Roster</title>
<path fill="none" stroke="#bc4832" d="M375,-207.558C375,-182.444 375,-144.164 375,-118.393"/>
<ellipse fill="none" stroke="#bc4832" cx="375" cy="-211.871" rx="4" ry="4"/>
<polygon fill="#bc4832" stroke="#bc4832" points="375,-118.189 379.5,-108.189 375,-113.189 375,-108.189 375,-108.189 375,-108.189 375,-113.189 370.5,-108.189 375,-118.189 375,-118.189"/>
</g>
<!-- Role&#45;&gt;User -->
<g id="edge31" class="edge"><title>Role&#45;&gt;User</title>
<path fill="none" stroke="#4ca80b" d="M406.083,-219.165C409.392,-217.978 412.739,-216.892 416,-216 533.315,-183.898 677.006,-170.468 746.855,-165.522"/>
<ellipse fill="none" stroke="#4ca80b" cx="402.228" cy="-220.642" rx="4.00001" ry="4.00001"/>
<polygon fill="#4ca80b" stroke="#4ca80b" points="747.038,-165.51 757.322,-169.316 752.027,-165.168 757.015,-164.826 757.015,-164.826 757.015,-164.826 752.027,-165.168 756.707,-160.337 747.038,-165.51 747.038,-165.51"/>
</g>
<!-- Scenario&#45;&gt;Narrative -->
<g id="edge33" class="edge"><title>Scenario&#45;&gt;Narrative</title>
<path fill="none" stroke="#15a65d" d="M157.377,-207.64C156.56,-201.92 155.69,-195.828 154.863,-190.042"/>
<ellipse fill="none" stroke="#15a65d" cx="157.962" cy="-211.737" rx="4.00001" ry="4.00001"/>
<polygon fill="#15a65d" stroke="#15a65d" points="154.858,-190.004 157.898,-179.468 154.151,-185.054 153.443,-180.104 153.443,-180.104 153.443,-180.104 154.151,-185.054 148.989,-180.741 154.858,-190.004 154.858,-190.004"/>
</g>
<!-- School -->
<g id="node23" class="node"><title>School</title>
<ellipse fill="none" stroke="black" cx="316" cy="-471" rx="41.394" ry="18"/>
<text text-anchor="middle" x="316" y="-467.3" font-family="Times,serif" font-size="14.00">School</text>
</g>
<!-- School&#45;&gt;Course -->
<g id="edge34" class="edge"><title>School&#45;&gt;Course</title>
<path fill="none" stroke="#26a195" d="M316,-444.729C316,-432.725 316,-418.362 316,-406.129"/>
<ellipse fill="none" stroke="#26a195" cx="316" cy="-448.884" rx="4" ry="4"/>
<polygon fill="#26a195" stroke="#26a195" points="316,-406.04 320.5,-396.04 316,-401.04 316,-396.04 316,-396.04 316,-396.04 316,-401.04 311.5,-396.04 316,-406.04 316,-406.04"/>
</g>
<!-- Style -->
<g id="node24" class="node"><title>Style</title>
<ellipse fill="none" stroke="black" cx="1208" cy="-378" rx="34.1708" ry="18"/>
<text text-anchor="middle" x="1208" y="-374.3" font-family="Times,serif" font-size="14.00">Style</text>
</g>
<!-- Style&#45;&gt;Project -->
<g id="edge35" class="edge"><title>Style&#45;&gt;Project</title>
<path fill="none" stroke="#9d3b35" d="M1208,-351.64C1208,-346.063 1208,-340.132 1208,-334.476"/>
<ellipse fill="none" stroke="#9d3b35" cx="1208" cy="-355.697" rx="4" ry="4"/>
<polygon fill="#9d3b35" stroke="#9d3b35" points="1208,-334.104 1212.5,-324.104 1208,-329.104 1208,-324.104 1208,-324.104 1208,-324.104 1208,-329.104 1203.5,-324.104 1208,-334.104 1208,-334.104"/>
</g>
<!-- User&#45;&gt;ConsentLog -->
<g id="edge36" class="edge"><title>User&#45;&gt;ConsentLog</title>
<path fill="none" stroke="#345a87" d="M828.376,-155.364C889.79,-146.401 1012.03,-127.87 1115,-108 1120.7,-106.901 1126.62,-105.692 1132.54,-104.441"/>
<ellipse fill="none" stroke="#345a87" cx="824.081" cy="-155.988" rx="4.00001" ry="4.00001"/>
<polygon fill="#345a87" stroke="#345a87" points="1132.66,-104.415 1143.38,-106.709 1137.55,-103.362 1142.44,-102.31 1142.44,-102.31 1142.44,-102.31 1137.55,-103.362 1141.49,-97.9106 1132.66,-104.415 1132.66,-104.415"/>
</g>
<!-- User&#45;&gt;Installment -->
<g id="edge37" class="edge"><title>User&#45;&gt;Installment</title>
<path fill="none" stroke="#d21435" d="M825.374,-150.936C868.007,-139.14 939.051,-119.484 988.093,-105.915"/>
<ellipse fill="none" stroke="#d21435" cx="821.386" cy="-152.039" rx="4.00001" ry="4.00001"/>
<polygon fill="#d21435" stroke="#d21435" points="988.261,-105.869 999.099,-107.539 993.08,-104.535 997.899,-103.202 997.899,-103.202 997.899,-103.202 993.08,-104.535 996.699,-98.8648 988.261,-105.869 988.261,-105.869"/>
</g>
<!-- User&#45;&gt;Reaction -->
<g id="edge39" class="edge"><title>User&#45;&gt;Reaction</title>
<path fill="none" stroke="#219baa" d="M748.876,-157.803C668.098,-151.064 480.233,-133.861 324,-108 315.357,-106.569 306.226,-104.809 297.376,-102.968"/>
<ellipse fill="none" stroke="#219baa" cx="753.287" cy="-158.168" rx="4" ry="4"/>
<polygon fill="#219baa" stroke="#219baa" points="297.324,-102.957 288.484,-96.469 292.434,-101.914 287.544,-100.87 287.544,-100.87 287.544,-100.87 292.434,-101.914 286.605,-105.271 297.324,-102.957 297.324,-102.957"/>
</g>
<!-- User&#45;&gt;Roster -->
<g id="edge38" class="edge"><title>User&#45;&gt;Roster</title>
<path fill="none" stroke="#8f1e71" d="M750.309,-154.458C674.266,-141.601 505.546,-113.073 422.732,-99.0706"/>
<ellipse fill="none" stroke="#8f1e71" cx="754.614" cy="-155.186" rx="4.00001" ry="4.00001"/>
<polygon fill="#8f1e71" stroke="#8f1e71" points="422.691,-99.0637 413.581,-92.9595 417.761,-98.2301 412.831,-97.3965 412.831,-97.3965 412.831,-97.3965 417.761,-98.2301 412.081,-101.834 422.691,-99.0637 422.691,-99.0637"/>
</g>
<!-- Week&#45;&gt;Behavior -->
<g id="edge40" class="edge"><title>Week&#45;&gt;Behavior</title>
<path fill="none" stroke="#b4b561" d="M113,-110.086C102.564,-119.068 91.7644,-130.73 86,-144 66.6729,-188.493 71.7053,-246.626 76.9564,-279.476"/>
<ellipse fill="none" stroke="#b4b561" cx="116.306" cy="-107.383" rx="4.00002" ry="4.00002"/>
<ellipse fill="#b4b561" stroke="#b4b561" cx="77.6787" cy="-283.706" rx="4.00001" ry="4.00001"/>
</g>
<!-- Week&#45;&gt;Diagnosis -->
<g id="edge41" class="edge"><title>Week&#45;&gt;Diagnosis</title>
<path fill="none" stroke="#d2af14" d="M157.292,-66.1611C162.708,-59.0081 168.71,-51.0812 174.223,-43.7997"/>
<ellipse fill="none" stroke="#d2af14" cx="154.707" cy="-69.5756" rx="4.00002" ry="4.00002"/>
<polygon fill="#d2af14" stroke="#d2af14" points="174.37,-43.606 183.994,-38.3498 177.388,-39.6197 180.406,-35.6334 180.406,-35.6334 180.406,-35.6334 177.388,-39.6197 176.818,-32.917 174.37,-43.606 174.37,-43.606"/>
</g>
</g>
</svg>
