<?xml version="1.0" encoding="UTF-8" standalone="no"?>
<!DOCTYPE svg PUBLIC "-//W3C//DTD SVG 1.1//EN"
 "http://www.w3.org/Graphics/SVG/1.1/DTD/svg11.dtd">
<!-- Generated by graphviz version 2.38.0 (20140413.2041)
 -->
<!-- Title: models_diagram Pages: 1 -->
<svg width="868pt" height="518pt"
 viewBox="0.00 0.00 868.21 518.00" xmlns="http://www.w3.org/2000/svg" xmlns:xlink="http://www.w3.org/1999/xlink">
<g id="graph0" class="graph" transform="scale(1 1) rotate(0) translate(4 514)">
<title>models_diagram</title>
<polygon fill="none" stroke="none" points="-4,4 -4,-514 864.208,-514 864.208,4 -4,4"/>
<!-- _diagram_info -->
<g id="node1" class="node"><title>_diagram_info</title>
<text text-anchor="start" x="500.293" y="-495.6" font-family="Times,serif" font-size="13.00">Models diagram</text>
<text text-anchor="start" x="500.293" y="-481.6" font-family="Times,serif" font-size="13.00">Date: Feb 06 2017 &#45; 15:29</text>
<text text-anchor="start" x="500.293" y="-467.6" font-family="Times,serif" font-size="13.00">Migration version: 20170206053808</text>
<text text-anchor="start" x="500.293" y="-453.6" font-family="Times,serif" font-size="13.00">Generated by RailRoady 1.5.2</text>
<text text-anchor="start" x="500.293" y="-439.6" font-family="Times,serif" font-size="13.00">http://railroady.prestonlee.com</text>
</g>
<!-- GroupProjectCount -->
<g id="node2" class="node"><title>GroupProjectCount</title>
<ellipse fill="none" stroke="black" cx="79.293" cy="-378" rx="79.0865" ry="18"/>
<text text-anchor="middle" x="79.293" y="-374.3" font-family="Times,serif" font-size="14.00">GroupProjectCount</text>
</g>
<!-- User -->
<g id="node9" class="node"><title>User</title>
<ellipse fill="none" stroke="black" cx="373.293" cy="-306" rx="27.0966" ry="18"/>
<text text-anchor="middle" x="373.293" y="-302.3" font-family="Times,serif" font-size="14.00">User</text>
</g>
<!-- GroupProjectCount&#45;&gt;User -->
<g id="edge1" class="edge"><title>GroupProjectCount&#45;&gt;User</title>
<path fill="none" stroke="#de53bc" d="M146.351,-364.196C195.172,-354.419 262.72,-339.945 321.293,-324 327.281,-322.37 333.601,-320.464 339.692,-318.53"/>
<ellipse fill="none" stroke="#de53bc" cx="142.299" cy="-365.003" rx="4.00001" ry="4.00001"/>
<polygon fill="#de53bc" stroke="#de53bc" points="340.12,-318.39 351.023,-319.57 344.874,-316.841 349.628,-315.292 349.628,-315.292 349.628,-315.292 344.874,-316.841 348.234,-311.013 340.12,-318.39 340.12,-318.39"/>
</g>
<!-- FactorPack -->
<g id="node3" class="node"><title>FactorPack</title>
<ellipse fill="none" stroke="black" cx="50.293" cy="-306" rx="50.0912" ry="18"/>
<text text-anchor="middle" x="50.293" y="-302.3" font-family="Times,serif" font-size="14.00">FactorPack</text>
</g>
<!-- Project -->
<g id="node13" class="node"><title>Project</title>
<ellipse fill="none" stroke="black" cx="145.293" cy="-234" rx="35.9954" ry="18"/>
<text text-anchor="middle" x="145.293" y="-230.3" font-family="Times,serif" font-size="14.00">Project</text>
</g>
<!-- FactorPack&#45;&gt;Project -->
<g id="edge3" class="edge"><title>FactorPack&#45;&gt;Project</title>
<path fill="none" stroke="#ed3a75" d="M78.1591,-284.467C90.6177,-275.287 105.263,-264.496 117.691,-255.339"/>
<ellipse fill="none" stroke="#ed3a75" cx="74.5968" cy="-287.092" rx="4.00002" ry="4.00002"/>
<polygon fill="#ed3a75" stroke="#ed3a75" points="117.835,-255.232 128.555,-252.923 121.86,-252.266 125.886,-249.3 125.886,-249.3 125.886,-249.3 121.86,-252.266 123.216,-245.677 117.835,-255.232 117.835,-255.232"/>
</g>
<!-- Factor -->
<g id="node17" class="node"><title>Factor</title>
<ellipse fill="none" stroke="black" cx="145.293" cy="-90" rx="33.2948" ry="18"/>
<text text-anchor="middle" x="145.293" y="-86.3" font-family="Times,serif" font-size="14.00">Factor</text>
</g>
<!-- FactorPack&#45;&gt;Factor -->
<g id="edge2" class="edge"><title>FactorPack&#45;&gt;Factor</title>
<path fill="none" stroke="#3b3de1" d="M62.0533,-278.508C80.3921,-237.198 115.581,-157.931 133.772,-116.953"/>
<polygon fill="#3b3de1" stroke="#3b3de1" points="61.9641,-278.709 53.7937,-286.023 59.9354,-283.279 57.9066,-287.849 57.9066,-287.849 57.9066,-287.849 59.9354,-283.279 62.0196,-289.675 61.9641,-278.709 61.9641,-278.709"/>
<polygon fill="#3b3de1" stroke="#3b3de1" points="133.848,-116.78 142.019,-109.466 135.877,-112.21 137.906,-107.641 137.906,-107.641 137.906,-107.641 135.877,-112.21 133.793,-105.815 133.848,-116.78 133.848,-116.78"/>
</g>
<!-- Course -->
<g id="node4" class="node"><title>Course</title>
<ellipse fill="none" stroke="black" cx="583.293" cy="-306" rx="35.9954" ry="18"/>
<text text-anchor="middle" x="583.293" y="-302.3" font-family="Times,serif" font-size="14.00">Course</text>
</g>
<!-- Roster -->
<g id="node10" class="node"><title>Roster</title>
<ellipse fill="none" stroke="black" cx="511.293" cy="-234" rx="33.5952" ry="18"/>
<text text-anchor="middle" x="511.293" y="-230.3" font-family="Times,serif" font-size="14.00">Roster</text>
</g>
<!-- Course&#45;&gt;Roster -->
<g id="edge5" class="edge"><title>Course&#45;&gt;Roster</title>
<path fill="none" stroke="#dac224" d="M561.439,-283.753C552.912,-275.463 543.127,-265.949 534.477,-257.54"/>
<ellipse fill="none" stroke="#dac224" cx="564.446" cy="-286.676" rx="4.00002" ry="4.00002"/>
<polygon fill="#dac224" stroke="#dac224" points="534.397,-257.463 530.364,-247.265 530.812,-253.977 527.227,-250.492 527.227,-250.492 527.227,-250.492 530.812,-253.977 524.091,-253.718 534.397,-257.463 534.397,-257.463"/>
</g>
<!-- Course&#45;&gt;Project -->
<g id="edge4" class="edge"><title>Course&#45;&gt;Project</title>
<path fill="none" stroke="#c844ca" d="M540.632,-300.486C453.12,-291.024 256.005,-268.613 190.293,-252 187.484,-251.29 184.611,-250.46 181.741,-249.556"/>
<ellipse fill="none" stroke="#c844ca" cx="544.774" cy="-300.932" rx="4" ry="4"/>
<polygon fill="#c844ca" stroke="#c844ca" points="181.565,-249.496 173.556,-242.005 176.833,-247.879 172.102,-246.263 172.102,-246.263 172.102,-246.263 176.833,-247.879 170.647,-250.521 181.565,-249.496 181.565,-249.496"/>
</g>
<!-- Experience -->
<g id="node26" class="node"><title>Experience</title>
<ellipse fill="none" stroke="black" cx="613.293" cy="-234" rx="50.0912" ry="18"/>
<text text-anchor="middle" x="613.293" y="-230.3" font-family="Times,serif" font-size="14.00">Experience</text>
</g>
<!-- Course&#45;&gt;Experience -->
<g id="edge6" class="edge"><title>Course&#45;&gt;Experience</title>
<path fill="none" stroke="#4a80e5" d="M593.773,-280.548C596.395,-274.428 599.221,-267.835 601.886,-261.616"/>
<ellipse fill="none" stroke="#4a80e5" cx="592.131" cy="-284.378" rx="4.00002" ry="4.00002"/>
<polygon fill="#4a80e5" stroke="#4a80e5" points="601.95,-261.467 610.025,-254.048 603.92,-256.871 605.889,-252.275 605.889,-252.275 605.889,-252.275 603.92,-256.871 601.753,-250.503 601.95,-261.467 601.95,-261.467"/>
</g>
<!-- Style -->
<g id="node5" class="node"><title>Style</title>
<ellipse fill="none" stroke="black" cx="147.293" cy="-306" rx="28.6953" ry="18"/>
<text text-anchor="middle" x="147.293" y="-302.3" font-family="Times,serif" font-size="14.00">Style</text>
</g>
<!-- Style&#45;&gt;Project -->
<g id="edge7" class="edge"><title>Style&#45;&gt;Project</title>
<path fill="none" stroke="#0f725f" d="M146.568,-279.64C146.409,-274.063 146.24,-268.132 146.078,-262.476"/>
<ellipse fill="none" stroke="#0f725f" cx="146.684" cy="-283.698" rx="4" ry="4"/>
<polygon fill="#0f725f" stroke="#0f725f" points="146.067,-262.1 150.28,-251.976 145.925,-257.102 145.782,-252.104 145.782,-252.104 145.782,-252.104 145.925,-257.102 141.283,-252.233 146.067,-262.1 146.067,-262.1"/>
</g>
<!-- Behavior -->
<g id="node6" class="node"><title>Behavior</title>
<ellipse fill="none" stroke="black" cx="767.293" cy="-471" rx="42.7926" ry="18"/>
<text text-anchor="middle" x="767.293" y="-467.3" font-family="Times,serif" font-size="14.00">Behavior</text>
</g>
<!-- Diagnosis -->
<g id="node16" class="node"><title>Diagnosis</title>
<ellipse fill="none" stroke="black" cx="769.293" cy="-162" rx="46.2923" ry="18"/>
<text text-anchor="middle" x="769.293" y="-158.3" font-family="Times,serif" font-size="14.00">Diagnosis</text>
</g>
<!-- Behavior&#45;&gt;Diagnosis -->
<g id="edge10" class="edge"><title>Behavior&#45;&gt;Diagnosis</title>
<path fill="none" stroke="#de7f75" d="M793.12,-449.508C808.261,-435.992 826.319,-416.956 836.293,-396 864.062,-337.657 851.838,-316.461 856.293,-252 857.396,-236.038 864.129,-229.95 856.293,-216 846.792,-199.086 829.461,-186.937 812.754,-178.574"/>
<ellipse fill="none" stroke="#de7f75" cx="789.863" cy="-452.332" rx="4.00002" ry="4.00002"/>
<polygon fill="#de7f75" stroke="#de7f75" points="812.657,-178.529 805.488,-170.231 808.123,-176.42 803.59,-174.311 803.59,-174.311 803.59,-174.311 808.123,-176.42 801.692,-178.391 812.657,-178.529 812.657,-178.529"/>
</g>
<!-- Scenario -->
<g id="node23" class="node"><title>Scenario</title>
<ellipse fill="none" stroke="black" cx="767.293" cy="-378" rx="41.6928" ry="18"/>
<text text-anchor="middle" x="767.293" y="-374.3" font-family="Times,serif" font-size="14.00">Scenario</text>
</g>
<!-- Behavior&#45;&gt;Scenario -->
<g id="edge8" class="edge"><title>Behavior&#45;&gt;Scenario</title>
<path fill="none" stroke="#dd7819" d="M767.293,-444.729C767.293,-432.725 767.293,-418.362 767.293,-406.129"/>
<ellipse fill="none" stroke="#dd7819" cx="767.293" cy="-448.884" rx="4" ry="4"/>
<polygon fill="#dd7819" stroke="#dd7819" points="767.293,-406.04 771.793,-396.04 767.293,-401.04 767.293,-396.04 767.293,-396.04 767.293,-396.04 767.293,-401.04 762.793,-396.04 767.293,-406.04 767.293,-406.04"/>
</g>
<!-- Reaction -->
<g id="node24" class="node"><title>Reaction</title>
<ellipse fill="none" stroke="black" cx="723.293" cy="-234" rx="42.4939" ry="18"/>
<text text-anchor="middle" x="723.293" y="-230.3" font-family="Times,serif" font-size="14.00">Reaction</text>
</g>
<!-- Behavior&#45;&gt;Reaction -->
<g id="edge9" class="edge"><title>Behavior&#45;&gt;Reaction</title>
<path fill="none" stroke="#41c6ac" d="M745.65,-448.196C733.143,-434.357 718.172,-415.443 709.293,-396 689.186,-351.973 683.646,-334.979 695.293,-288 697.622,-278.606 701.954,-269.043 706.526,-260.673"/>
<ellipse fill="none" stroke="#41c6ac" cx="748.475" cy="-451.246" rx="4.00002" ry="4.00002"/>
<polygon fill="#41c6ac" stroke="#41c6ac" points="706.661,-260.443 715.585,-254.07 709.179,-256.123 711.697,-251.803 711.697,-251.803 711.697,-251.803 709.179,-256.123 707.809,-249.537 706.661,-260.443 706.661,-260.443"/>
</g>
<!-- Installment -->
<g id="node7" class="node"><title>Installment</title>
<ellipse fill="none" stroke="black" cx="345.293" cy="-90" rx="50.8918" ry="18"/>
<text text-anchor="middle" x="345.293" y="-86.3" font-family="Times,serif" font-size="14.00">Installment</text>
</g>
<!-- Value -->
<g id="node22" class="node"><title>Value</title>
<ellipse fill="none" stroke="black" cx="345.293" cy="-18" rx="31.6951" ry="18"/>
<text text-anchor="middle" x="345.293" y="-14.3" font-family="Times,serif" font-size="14.00">Value</text>
</g>
<!-- Installment&#45;&gt;Value -->
<g id="edge11" class="edge"><title>Installment&#45;&gt;Value</title>
<path fill="none" stroke="#08da45" d="M345.293,-63.6398C345.293,-58.0629 345.293,-52.1319 345.293,-46.4761"/>
<ellipse fill="none" stroke="#08da45" cx="345.293" cy="-67.6966" rx="4" ry="4"/>
<polygon fill="#08da45" stroke="#08da45" points="345.293,-46.1043 349.793,-36.1043 345.293,-41.1043 345.293,-36.1043 345.293,-36.1043 345.293,-36.1043 345.293,-41.1043 340.793,-36.1044 345.293,-46.1043 345.293,-46.1043"/>
</g>
<!-- ConsentForm -->
<g id="node8" class="node"><title>ConsentForm</title>
<ellipse fill="none" stroke="black" cx="253.293" cy="-306" rx="59.2899" ry="18"/>
<text text-anchor="middle" x="253.293" y="-302.3" font-family="Times,serif" font-size="14.00">ConsentForm</text>
</g>
<!-- ConsentForm&#45;&gt;Project -->
<g id="edge12" class="edge"><title>ConsentForm&#45;&gt;Project</title>
<path fill="none" stroke="#03fa18" d="M222.411,-284.984C207.52,-275.332 189.738,-263.807 175.004,-254.257"/>
<ellipse fill="none" stroke="#03fa18" cx="225.968" cy="-287.289" rx="4.00002" ry="4.00002"/>
<polygon fill="#03fa18" stroke="#03fa18" points="174.668,-254.039 168.724,-244.824 170.472,-251.32 166.277,-248.6 166.277,-248.6 166.277,-248.6 170.472,-251.32 163.829,-252.377 174.668,-254.039 174.668,-254.039"/>
</g>
<!-- ConsentLog -->
<g id="node21" class="node"><title>ConsentLog</title>
<ellipse fill="none" stroke="black" cx="253.293" cy="-234" rx="53.8905" ry="18"/>
<text text-anchor="middle" x="253.293" y="-230.3" font-family="Times,serif" font-size="14.00">ConsentLog</text>
</g>
<!-- ConsentForm&#45;&gt;ConsentLog -->
<g id="edge13" class="edge"><title>ConsentForm&#45;&gt;ConsentLog</title>
<path fill="none" stroke="#d1ead3" d="M253.293,-279.64C253.293,-274.063 253.293,-268.132 253.293,-262.476"/>
<ellipse fill="none" stroke="#d1ead3" cx="253.293" cy="-283.697" rx="4" ry="4"/>
<polygon fill="#d1ead3" stroke="#d1ead3" points="253.293,-262.104 257.793,-252.104 253.293,-257.104 253.293,-252.104 253.293,-252.104 253.293,-252.104 253.293,-257.104 248.793,-252.104 253.293,-262.104 253.293,-262.104"/>
</g>
<!-- User&#45;&gt;Installment -->
<g id="edge17" class="edge"><title>User&#45;&gt;Installment</title>
<path fill="none" stroke="#f56a93" d="M381.706,-279.936C391.18,-247.579 403.299,-189.971 387.293,-144 383.607,-133.413 376.827,-123.351 369.775,-114.894"/>
<ellipse fill="none" stroke="#f56a93" cx="380.419" cy="-284.153" rx="4.00001" ry="4.00001"/>
<polygon fill="#f56a93" stroke="#f56a93" points="369.674,-114.78 366.382,-104.32 366.348,-111.047 363.022,-107.313 363.022,-107.313 363.022,-107.313 366.348,-111.047 359.662,-110.307 369.674,-114.78 369.674,-114.78"/>
</g>
<!-- User&#45;&gt;Roster -->
<g id="edge18" class="edge"><title>User&#45;&gt;Roster</title>
<path fill="none" stroke="#6168c0" d="M401.708,-290.587C423.922,-279.319 454.844,-263.634 478.178,-251.797"/>
<ellipse fill="none" stroke="#6168c0" cx="397.82" cy="-292.559" rx="4.00002" ry="4.00002"/>
<polygon fill="#6168c0" stroke="#6168c0" points="478.431,-251.669 489.385,-251.159 482.89,-249.408 487.349,-247.146 487.349,-247.146 487.349,-247.146 482.89,-249.408 485.313,-243.132 478.431,-251.669 478.431,-251.669"/>
</g>
<!-- Group -->
<g id="node12" class="node"><title>Group</title>
<ellipse fill="none" stroke="black" cx="345.293" cy="-162" rx="33.2948" ry="18"/>
<text text-anchor="middle" x="345.293" y="-158.3" font-family="Times,serif" font-size="14.00">Group</text>
</g>
<!-- User&#45;&gt;Group -->
<g id="edge14" class="edge"><title>User&#45;&gt;Group</title>
<path fill="none" stroke="#02de55" d="M367.981,-278.059C363.015,-252.877 355.639,-215.469 350.657,-190.203"/>
<polygon fill="#02de55" stroke="#02de55" points="367.981,-278.06 365.501,-288.742 368.948,-282.966 369.916,-287.871 369.916,-287.871 369.916,-287.871 368.948,-282.966 374.33,-287.001 367.981,-278.06 367.981,-278.06"/>
<polygon fill="#02de55" stroke="#02de55" points="350.617,-190 353.097,-179.319 349.65,-185.095 348.682,-180.189 348.682,-180.189 348.682,-180.189 349.65,-185.095 344.267,-181.06 350.617,-190 350.617,-190"/>
</g>
<!-- User&#45;&gt;Project -->
<g id="edge16" class="edge"><title>User&#45;&gt;Project</title>
<path fill="none" stroke="#f970cc" d="M339.617,-293.731C333.534,-291.769 327.236,-289.787 321.293,-288 263.47,-270.614 247.708,-270.689 190.293,-252 187.702,-251.157 185.041,-250.252 182.369,-249.316"/>
<polygon fill="#f970cc" stroke="#f970cc" points="340.046,-293.871 348.156,-301.252 344.799,-295.423 349.552,-296.974 349.552,-296.974 349.552,-296.974 344.799,-295.423 350.949,-292.696 340.046,-293.871 340.046,-293.871"/>
<polygon fill="#f970cc" stroke="#f970cc" points="182.159,-249.24 174.286,-241.606 177.457,-247.539 172.755,-245.838 172.755,-245.838 172.755,-245.838 177.457,-247.539 171.224,-250.069 182.159,-249.24 182.159,-249.24"/>
</g>
<!-- User&#45;&gt;ConsentLog -->
<g id="edge15" class="edge"><title>User&#45;&gt;ConsentLog</title>
<path fill="none" stroke="#0b0c54" d="M346.41,-289.319C329.097,-279.219 306.425,-265.994 287.788,-255.122"/>
<ellipse fill="none" stroke="#0b0c54" cx="350.022" cy="-291.425" rx="4.00002" ry="4.00002"/>
<polygon fill="#0b0c54" stroke="#0b0c54" points="287.642,-255.037 281.271,-246.111 283.323,-252.517 279.004,-249.998 279.004,-249.998 279.004,-249.998 283.323,-252.517 276.736,-253.885 287.642,-255.037 287.642,-255.037"/>
</g>
<!-- User&#45;&gt;Reaction -->
<g id="edge19" class="edge"><title>User&#45;&gt;Reaction</title>
<path fill="none" stroke="#e6018f" d="M408.149,-300.51C464.293,-292.902 578.003,-275.935 672.293,-252 675.504,-251.185 678.806,-250.269 682.111,-249.296"/>
<ellipse fill="none" stroke="#e6018f" cx="403.932" cy="-301.076" rx="4.00001" ry="4.00001"/>
<polygon fill="#e6018f" stroke="#e6018f" points="682.396,-249.207 693.28,-250.547 687.172,-247.728 691.948,-246.248 691.948,-246.248 691.948,-246.248 687.172,-247.728 690.617,-241.95 682.396,-249.207 682.396,-249.207"/>
</g>
<!-- Assessment -->
<g id="node25" class="node"><title>Assessment</title>
<ellipse fill="none" stroke="black" cx="236.293" cy="-162" rx="52.7911" ry="18"/>
<text text-anchor="middle" x="236.293" y="-158.3" font-family="Times,serif" font-size="14.00">Assessment</text>
</g>
<!-- User&#45;&gt;Assessment -->
<g id="edge20" class="edge"><title>User&#45;&gt;Assessment</title>
<path fill="none" stroke="#9a5c38" d="M360.694,-279.5C350.487,-260.533 334.795,-234.79 316.293,-216 303.612,-203.121 287.312,-191.64 272.738,-182.685"/>
<polygon fill="#9a5c38" stroke="#9a5c38" points="360.749,-279.606 361.397,-290.553 363.067,-284.036 365.384,-288.467 365.384,-288.467 365.384,-288.467 363.067,-284.036 369.372,-286.381 360.749,-279.606 360.749,-279.606"/>
<polygon fill="#9a5c38" stroke="#9a5c38" points="272.528,-182.559 266.236,-173.578 268.231,-180.002 263.934,-177.445 263.934,-177.445 263.934,-177.445 268.231,-180.002 261.633,-181.312 272.528,-182.559 272.528,-182.559"/>
</g>
<!-- School -->
<g id="node11" class="node"><title>School</title>
<ellipse fill="none" stroke="black" cx="591.293" cy="-378" rx="35.194" ry="18"/>
<text text-anchor="middle" x="591.293" y="-374.3" font-family="Times,serif" font-size="14.00">School</text>
</g>
<!-- School&#45;&gt;Course -->
<g id="edge21" class="edge"><title>School&#45;&gt;Course</title>
<path fill="none" stroke="#12a588" d="M588.395,-351.64C587.741,-345.92 587.045,-339.828 586.383,-334.042"/>
<ellipse fill="none" stroke="#12a588" cx="588.861" cy="-355.722" rx="4.00001" ry="4.00001"/>
<polygon fill="#12a588" stroke="#12a588" points="586.383,-334.04 589.719,-323.593 585.816,-329.072 585.248,-324.104 585.248,-324.104 585.248,-324.104 585.816,-329.072 580.777,-324.615 586.383,-334.04 586.383,-334.04"/>
</g>
<!-- Group&#45;&gt;Installment -->
<g id="edge22" class="edge"><title>Group&#45;&gt;Installment</title>
<path fill="none" stroke="#5aa009" d="M345.293,-135.64C345.293,-130.063 345.293,-124.132 345.293,-118.476"/>
<ellipse fill="none" stroke="#5aa009" cx="345.293" cy="-139.697" rx="4" ry="4"/>
<polygon fill="#5aa009" stroke="#5aa009" points="345.293,-118.104 349.793,-108.104 345.293,-113.104 345.293,-108.104 345.293,-108.104 345.293,-108.104 345.293,-113.104 340.793,-108.104 345.293,-118.104 345.293,-118.104"/>
</g>
<!-- Project&#45;&gt;Group -->
<g id="edge23" class="edge"><title>Project&#45;&gt;Group</title>
<path fill="none" stroke="#43fc26" d="M180.495,-219.55C183.801,-218.332 187.106,-217.133 190.293,-216 237.968,-199.056 250.499,-196.606 298.293,-180 301.776,-178.79 305.399,-177.513 309.018,-176.224"/>
<ellipse fill="none" stroke="#43fc26" cx="176.585" cy="-221.004" rx="4.00001" ry="4.00001"/>
<polygon fill="#43fc26" stroke="#43fc26" points="309.079,-176.203 320.011,-177.062 313.785,-174.515 318.492,-172.827 318.492,-172.827 318.492,-172.827 313.785,-174.515 316.972,-168.591 309.079,-176.203 309.079,-176.203"/>
</g>
<!-- Project&#45;&gt;Factor -->
<g id="edge25" class="edge"><title>Project&#45;&gt;Factor</title>
<path fill="none" stroke="#198012" d="M145.293,-205.679C145.293,-180.599 145.293,-143.627 145.293,-118.493"/>
<polygon fill="#198012" stroke="#198012" points="145.293,-205.871 140.793,-215.871 145.293,-210.871 145.293,-215.871 145.293,-215.871 145.293,-215.871 145.293,-210.871 149.793,-215.872 145.293,-205.871 145.293,-205.871"/>
<polygon fill="#198012" stroke="#198012" points="145.293,-118.189 149.793,-108.189 145.293,-113.189 145.293,-108.189 145.293,-108.189 145.293,-108.189 145.293,-113.189 140.793,-108.189 145.293,-118.189 145.293,-118.189"/>
</g>
<!-- Project&#45;&gt;Assessment -->
<g id="edge24" class="edge"><title>Project&#45;&gt;Assessment</title>
<path fill="none" stroke="#33f362" d="M170.843,-213.346C182.299,-204.534 195.858,-194.104 207.656,-185.029"/>
<ellipse fill="none" stroke="#33f362" cx="167.319" cy="-216.057" rx="4.00002" ry="4.00002"/>
<polygon fill="#33f362" stroke="#33f362" points="207.953,-184.8 218.623,-182.269 211.917,-181.751 215.88,-178.703 215.88,-178.703 215.88,-178.703 211.917,-181.751 213.136,-175.136 207.953,-184.8 207.953,-184.8"/>
</g>
<!-- Gender -->
<g id="node14" class="node"><title>Gender</title>
<ellipse fill="none" stroke="black" cx="213.293" cy="-378" rx="36.2938" ry="18"/>
<text text-anchor="middle" x="213.293" y="-374.3" font-family="Times,serif" font-size="14.00">Gender</text>
</g>
<!-- Gender&#45;&gt;User -->
<g id="edge26" class="edge"><title>Gender&#45;&gt;User</title>
<path fill="none" stroke="#ba0570" d="M247.363,-362.094C275.305,-349.87 314.551,-332.699 341.774,-320.79"/>
<ellipse fill="none" stroke="#ba0570" cx="243.378" cy="-363.838" rx="4.00002" ry="4.00002"/>
<polygon fill="#ba0570" stroke="#ba0570" points="342.055,-320.667 353.02,-320.781 346.635,-318.663 351.216,-316.659 351.216,-316.659 351.216,-316.659 346.635,-318.663 349.413,-312.536 342.055,-320.667 342.055,-320.667"/>
</g>
<!-- AgeRange -->
<g id="node15" class="node"><title>AgeRange</title>
<ellipse fill="none" stroke="black" cx="315.293" cy="-378" rx="48.1917" ry="18"/>
<text text-anchor="middle" x="315.293" y="-374.3" font-family="Times,serif" font-size="14.00">AgeRange</text>
</g>
<!-- AgeRange&#45;&gt;User -->
<g id="edge27" class="edge"><title>AgeRange&#45;&gt;User</title>
<path fill="none" stroke="#181924" d="M334.258,-354.111C340.665,-346.378 347.818,-337.746 354.232,-330.004"/>
<ellipse fill="none" stroke="#181924" cx="331.59" cy="-357.331" rx="4.00002" ry="4.00002"/>
<polygon fill="#181924" stroke="#181924" points="354.452,-329.738 364.298,-324.909 357.643,-325.888 360.833,-322.038 360.833,-322.038 360.833,-322.038 357.643,-325.888 357.368,-319.167 354.452,-329.738 354.452,-329.738"/>
</g>
<!-- Diagnosis&#45;&gt;User -->
<g id="edge28" class="edge"><title>Diagnosis&#45;&gt;User</title>
<path fill="none" stroke="#cd7533" d="M714.995,-163.365C652.392,-165.807 547.895,-176.209 468.293,-216 459.497,-220.397 418.75,-259.953 393.563,-284.829"/>
<ellipse fill="none" stroke="#cd7533" cx="719.171" cy="-163.221" rx="4" ry="4"/>
<ellipse fill="#cd7533" stroke="#cd7533" cx="390.673" cy="-287.689" rx="4.00002" ry="4.00002"/>
</g>
<!-- CipCode -->
<g id="node18" class="node"><title>CipCode</title>
<ellipse fill="none" stroke="black" cx="423.293" cy="-378" rx="42.4939" ry="18"/>
<text text-anchor="middle" x="423.293" y="-374.3" font-family="Times,serif" font-size="14.00">CipCode</text>
</g>
<!-- CipCode&#45;&gt;User -->
<g id="edge29" class="edge"><title>CipCode&#45;&gt;User</title>
<path fill="none" stroke="#b59897" d="M406.588,-353.613C401.332,-346.255 395.525,-338.125 390.252,-330.742"/>
<ellipse fill="none" stroke="#b59897" cx="409.119" cy="-357.156" rx="4.00002" ry="4.00002"/>
<polygon fill="#b59897" stroke="#b59897" points="390.185,-330.648 388.034,-319.895 387.278,-326.58 384.372,-322.511 384.372,-322.511 384.372,-322.511 387.278,-326.58 380.71,-325.126 390.185,-330.648 390.185,-330.648"/>
</g>
<!-- Week -->
<g id="node19" class="node"><title>Week</title>
<ellipse fill="none" stroke="black" cx="815.293" cy="-234" rx="31.6951" ry="18"/>
<text text-anchor="middle" x="815.293" y="-230.3" font-family="Times,serif" font-size="14.00">Week</text>
</g>
<!-- Week&#45;&gt;Behavior -->
<g id="edge30" class="edge"><title>Week&#45;&gt;Behavior</title>
<path fill="none" stroke="#d26c17" d="M820.518,-259.958C826.205,-292.201 832.706,-349.688 818.293,-396 812.316,-415.204 799.427,-433.831 788.103,-447.593"/>
<ellipse fill="none" stroke="#d26c17" cx="819.759" cy="-255.877" rx="4.00001" ry="4.00001"/>
<ellipse fill="#d26c17" stroke="#d26c17" cx="785.298" cy="-450.892" rx="4.00002" ry="4.00002"/>
</g>
<!-- Week&#45;&gt;Diagnosis -->
<g id="edge31" class="edge"><title>Week&#45;&gt;Diagnosis</title>
<path fill="none" stroke="#00dde9" d="M800.096,-209.874C795.528,-202.924 790.496,-195.265 785.845,-188.188"/>
<ellipse fill="none" stroke="#00dde9" cx="802.427" cy="-213.422" rx="4.00002" ry="4.00002"/>
<polygon fill="#00dde9" stroke="#00dde9" points="785.715,-187.99 783.984,-177.162 782.969,-183.812 780.223,-179.633 780.223,-179.633 780.223,-179.633 782.969,-183.812 776.463,-182.105 785.715,-187.99 785.715,-187.99"/>
</g>
<!-- Narrative -->
<g id="node20" class="node"><title>Narrative</title>
<ellipse fill="none" stroke="black" cx="748.293" cy="-306" rx="44.393" ry="18"/>
<text text-anchor="middle" x="748.293" y="-302.3" font-family="Times,serif" font-size="14.00">Narrative</text>
</g>
<!-- Narrative&#45;&gt;Behavior -->
<g id="edge33" class="edge"><title>Narrative&#45;&gt;Behavior</title>
<path fill="none" stroke="#72dae3" d="M730.508,-330.259C724.801,-339.086 719.205,-349.542 716.293,-360 712.001,-375.414 711.538,-380.723 716.293,-396 722.27,-415.204 735.159,-433.831 746.483,-447.593"/>
<ellipse fill="none" stroke="#72dae3" cx="732.813" cy="-326.868" rx="4.00002" ry="4.00002"/>
<ellipse fill="#72dae3" stroke="#72dae3" cx="749.288" cy="-450.892" rx="4.00002" ry="4.00002"/>
</g>
<!-- Narrative&#45;&gt;Week -->
<g id="edge32" class="edge"><title>Narrative&#45;&gt;Week</title>
<path fill="none" stroke="#ea4280" d="M769.581,-282.758C777.204,-274.795 785.803,-265.81 793.47,-257.8"/>
<ellipse fill="none" stroke="#ea4280" cx="766.598" cy="-285.875" rx="4.00002" ry="4.00002"/>
<polygon fill="#ea4280" stroke="#ea4280" points="793.84,-257.413 804.006,-253.301 797.298,-253.801 800.755,-250.189 800.755,-250.189 800.755,-250.189 797.298,-253.801 797.504,-247.077 793.84,-257.413 793.84,-257.413"/>
</g>
<!-- Narrative&#45;&gt;Reaction -->
<g id="edge34" class="edge"><title>Narrative&#45;&gt;Reaction</title>
<path fill="none" stroke="#8e983b" d="M739.46,-280.267C737.343,-274.34 735.072,-267.981 732.921,-261.959"/>
<ellipse fill="none" stroke="#8e983b" cx="740.896" cy="-284.288" rx="4.00001" ry="4.00001"/>
<polygon fill="#8e983b" stroke="#8e983b" points="732.826,-261.693 733.701,-250.762 731.144,-256.984 729.463,-252.275 729.463,-252.275 729.463,-252.275 731.144,-256.984 725.225,-253.789 732.826,-261.693 732.826,-261.693"/>
</g>
<!-- Scenario&#45;&gt;Narrative -->
<g id="edge35" class="edge"><title>Scenario&#45;&gt;Narrative</title>
<path fill="none" stroke="#1fb85f" d="M760.58,-352.267C758.971,-346.34 757.245,-339.981 755.61,-333.959"/>
<ellipse fill="none" stroke="#1fb85f" cx="761.646" cy="-356.195" rx="4.00001" ry="4.00001"/>
<polygon fill="#1fb85f" stroke="#1fb85f" points="755.602,-333.926 757.325,-323.096 754.292,-329.101 752.982,-324.275 752.982,-324.275 752.982,-324.275 754.292,-329.101 748.639,-325.454 755.602,-333.926 755.602,-333.926"/>
</g>
<!-- Reaction&#45;&gt;Diagnosis -->
<g id="edge36" class="edge"><title>Reaction&#45;&gt;Diagnosis</title>
<path fill="none" stroke="#7b0edd" d="M738.651,-209.63C743.137,-202.803 748.06,-195.311 752.623,-188.367"/>
<ellipse fill="none" stroke="#7b0edd" cx="736.391" cy="-213.068" rx="4.00002" ry="4.00002"/>
<polygon fill="#7b0edd" stroke="#7b0edd" points="752.658,-188.313 761.911,-182.428 755.404,-184.135 758.15,-179.956 758.15,-179.956 758.15,-179.956 755.404,-184.135 754.39,-177.485 752.658,-188.313 752.658,-188.313"/>
</g>
<!-- Assessment&#45;&gt;Installment -->
<g id="edge37" class="edge"><title>Assessment&#45;&gt;Installment</title>
<path fill="none" stroke="#590692" d="M267.097,-141.217C281.44,-132.007 298.501,-121.05 313.022,-111.725"/>
<ellipse fill="none" stroke="#590692" cx="263.31" cy="-143.65" rx="4.00002" ry="4.00002"/>
<polygon fill="#590692" stroke="#590692" points="313.273,-111.563 324.119,-109.946 317.481,-108.861 321.688,-106.159 321.688,-106.159 321.688,-106.159 317.481,-108.861 319.256,-102.373 313.273,-111.563 313.273,-111.563"/>
</g>
<!-- Assessment&#45;&gt;Factor -->
<g id="edge38" class="edge"><title>Assessment&#45;&gt;Factor</title>
<path fill="none" stroke="#ca3a03" d="M207.549,-138.889C196.119,-130.097 183.049,-120.043 171.845,-111.425"/>
<polygon fill="#ca3a03" stroke="#ca3a03" points="207.717,-139.019 212.9,-148.683 211.681,-142.067 215.644,-145.116 215.644,-145.116 215.644,-145.116 211.681,-142.067 218.387,-141.549 207.717,-139.019 207.717,-139.019"/>
<polygon fill="#ca3a03" stroke="#ca3a03" points="171.626,-111.256 166.443,-101.592 167.663,-108.208 163.7,-105.159 163.7,-105.159 163.7,-105.159 167.663,-108.208 160.956,-108.726 171.626,-111.256 171.626,-111.256"/>
</g>
<!-- Role -->
<g id="node27" class="node"><title>Role</title>
<ellipse fill="none" stroke="black" cx="511.293" cy="-378" rx="27.0966" ry="18"/>
<text text-anchor="middle" x="511.293" y="-374.3" font-family="Times,serif" font-size="14.00">Role</text>
</g>
<!-- Role&#45;&gt;User -->
<g id="edge39" class="edge"><title>Role&#45;&gt;User</title>
<path fill="none" stroke="#f03703" d="M482.933,-362.615C459.832,-350.896 427.287,-334.388 403.659,-322.403"/>
<ellipse fill="none" stroke="#f03703" cx="486.766" cy="-364.559" rx="4.00002" ry="4.00002"/>
<polygon fill="#f03703" stroke="#f03703" points="403.368,-322.255 396.485,-313.718 398.909,-319.993 394.449,-317.732 394.449,-317.732 394.449,-317.732 398.909,-319.993 392.414,-321.745 403.368,-322.255 403.368,-322.255"/>
</g>
<!-- Role&#45;&gt;Roster -->
<g id="edge40" class="edge"><title>Role&#45;&gt;Roster</title>
<path fill="none" stroke="#14b4ed" d="M511.293,-351.558C511.293,-326.444 511.293,-288.164 511.293,-262.393"/>
<ellipse fill="none" stroke="#14b4ed" cx="511.293" cy="-355.871" rx="4" ry="4"/>
<polygon fill="#14b4ed" stroke="#14b4ed" points="511.293,-262.189 515.793,-252.189 511.293,-257.189 511.293,-252.189 511.293,-252.189 511.293,-252.189 511.293,-257.189 506.793,-252.189 511.293,-262.189 511.293,-262.189"/>
</g>
</g>
</svg>
