<?xml version="1.0" encoding="UTF-8" standalone="no"?>
<!DOCTYPE svg PUBLIC "-//W3C//DTD SVG 1.1//EN"
 "http://www.w3.org/Graphics/SVG/1.1/DTD/svg11.dtd">
<!-- Generated by graphviz version 2.36.0 (20140111.2315)
 -->
<!-- Title: models_diagram Pages: 1 -->
<svg width="1519pt" height="878pt"
 viewBox="0.00 0.00 1519.33 878.00" xmlns="http://www.w3.org/2000/svg" xmlns:xlink="http://www.w3.org/1999/xlink">
<g id="graph0" class="graph" transform="scale(1 1) rotate(0) translate(4 874)">
<title>models_diagram</title>
<polygon fill="none" stroke="none" points="-4,4 -4,-874 1515.33,-874 1515.33,4 -4,4"/>
<!-- _diagram_info -->
<g id="node1" class="node"><title>_diagram_info</title>
<text text-anchor="start" x="649.332" y="-855.6" font-family="Times,serif" font-size="13.00">Models diagram</text>
<text text-anchor="start" x="649.332" y="-841.6" font-family="Times,serif" font-size="13.00">Date: Oct 15 2017 &#45; 16:04</text>
<text text-anchor="start" x="649.332" y="-827.6" font-family="Times,serif" font-size="13.00">Migration version: 20171014135942</text>
<text text-anchor="start" x="649.332" y="-813.6" font-family="Times,serif" font-size="13.00">Generated by RailRoady 1.5.2</text>
<text text-anchor="start" x="649.332" y="-799.6" font-family="Times,serif" font-size="13.00">http://railroady.prestonlee.com</text>
</g>
<!-- Assessment -->
<g id="node2" class="node"><title>Assessment</title>
<ellipse fill="none" stroke="black" cx="926.332" cy="-831" rx="52.4675" ry="18"/>
<text text-anchor="middle" x="926.332" y="-827.3" font-family="Times,serif" font-size="14.00">Assessment</text>
</g>
<!-- Factor -->
<g id="node18" class="node"><title>Factor</title>
<ellipse fill="none" stroke="black" cx="290.332" cy="-450" rx="33.2209" ry="18"/>
<text text-anchor="middle" x="290.332" y="-446.3" font-family="Times,serif" font-size="14.00">Factor</text>
</g>
<!-- Assessment&#45;&gt;Factor -->
<g id="edge2" class="edge"><title>Assessment&#45;&gt;Factor</title>
<path fill="none" stroke="#8b1ba4" d="M897.079,-808.804C886.862,-802.389 875.018,-795.992 863.332,-792 732.183,-747.198 252.332,-805.59 252.332,-667 252.332,-667 252.332,-667 252.332,-593 252.332,-551.406 267.734,-505.217 278.927,-477.143"/>
<polygon fill="#8b1ba4" stroke="#8b1ba4" points="897.231,-808.904 903.126,-818.15 901.412,-811.645 905.594,-814.387 905.594,-814.387 905.594,-814.387 901.412,-811.645 908.061,-810.624 897.231,-808.904 897.231,-808.904"/>
<polygon fill="#8b1ba4" stroke="#8b1ba4" points="279.022,-476.911 286.986,-469.373 280.923,-472.287 282.824,-467.662 282.824,-467.662 282.824,-467.662 280.923,-472.287 278.662,-465.951 279.022,-476.911 279.022,-476.911"/>
</g>
<!-- Group -->
<g id="node21" class="node"><title>Group</title>
<ellipse fill="none" stroke="black" cx="926.332" cy="-738" rx="33.2209" ry="18"/>
<text text-anchor="middle" x="926.332" y="-734.3" font-family="Times,serif" font-size="14.00">Group</text>
</g>
<!-- Assessment&#45;&gt;Group -->
<g id="edge4" class="edge"><title>Assessment&#45;&gt;Group</title>
<path fill="none" stroke="#047763" d="M926.332,-802.549C926.332,-791.083 926.332,-777.792 926.332,-766.339"/>
<polygon fill="#047763" stroke="#047763" points="926.332,-802.884 921.832,-812.884 926.332,-807.884 926.332,-812.884 926.332,-812.884 926.332,-812.884 926.332,-807.884 930.832,-812.884 926.332,-802.884 926.332,-802.884"/>
<polygon fill="#047763" stroke="#047763" points="926.332,-766.04 930.832,-756.04 926.332,-761.04 926.332,-756.04 926.332,-756.04 926.332,-756.04 926.332,-761.04 921.832,-756.04 926.332,-766.04 926.332,-766.04"/>
</g>
<!-- Installment -->
<g id="node25" class="node"><title>Installment</title>
<ellipse fill="none" stroke="black" cx="1461.33" cy="-234" rx="50.5427" ry="18"/>
<text text-anchor="middle" x="1461.33" y="-230.3" font-family="Times,serif" font-size="14.00">Installment</text>
</g>
<!-- Assessment&#45;&gt;Installment -->
<g id="edge1" class="edge"><title>Assessment&#45;&gt;Installment</title>
<path fill="none" stroke="#51d819" d="M954.227,-809.883C964.518,-803.293 976.549,-796.512 988.332,-792 1204.66,-709.15 1494.33,-898.649 1494.33,-667 1494.33,-667 1494.33,-667 1494.33,-377 1494.33,-335.974 1481.1,-289.972 1471.4,-261.743"/>
<ellipse fill="none" stroke="#51d819" cx="950.743" cy="-812.181" rx="4.00002" ry="4.00002"/>
<polygon fill="#51d819" stroke="#51d819" points="1471.35,-261.615 1472.25,-250.686 1469.68,-256.902 1468.01,-252.189 1468.01,-252.189 1468.01,-252.189 1469.68,-256.902 1463.77,-253.692 1471.35,-261.615 1471.35,-261.615"/>
</g>
<!-- User -->
<g id="node37" class="node"><title>User</title>
<ellipse fill="none" stroke="black" cx="932.332" cy="-306" rx="26.949" ry="18"/>
<text text-anchor="middle" x="932.332" y="-302.3" font-family="Times,serif" font-size="14.00">User</text>
</g>
<!-- Assessment&#45;&gt;User -->
<g id="edge3" class="edge"><title>Assessment&#45;&gt;User</title>
<path fill="none" stroke="#fd6de8" d="M958.934,-809.446C968.344,-803.67 978.678,-797.475 988.332,-792 1092.6,-732.867 1227.33,-786.873 1227.33,-667 1227.33,-667 1227.33,-667 1227.33,-593 1227.33,-517.239 1212.44,-495.636 1171.33,-432 1158.71,-412.459 1115.33,-371.889 1095.33,-360 1055.11,-336.09 1002.81,-321.557 968.438,-313.903"/>
<polygon fill="#fd6de8" stroke="#fd6de8" points="958.754,-809.557 947.882,-810.99 954.501,-812.188 950.249,-814.818 950.249,-814.818 950.249,-814.818 954.501,-812.188 952.616,-818.645 958.754,-809.557 958.754,-809.557"/>
<polygon fill="#fd6de8" stroke="#fd6de8" points="968.157,-313.843 959.323,-307.345 963.268,-312.794 958.379,-311.745 958.379,-311.745 958.379,-311.745 963.268,-312.794 957.435,-316.145 968.157,-313.843 968.157,-313.843"/>
</g>
<!-- Behavior -->
<g id="node3" class="node"><title>Behavior</title>
<ellipse fill="none" stroke="black" cx="1284.33" cy="-90" rx="42.3456" ry="18"/>
<text text-anchor="middle" x="1284.33" y="-86.3" font-family="Times,serif" font-size="14.00">Behavior</text>
</g>
<!-- Diagnosis -->
<g id="node15" class="node"><title>Diagnosis</title>
<ellipse fill="none" stroke="black" cx="1306.33" cy="-378" rx="46.2191" ry="18"/>
<text text-anchor="middle" x="1306.33" y="-374.3" font-family="Times,serif" font-size="14.00">Diagnosis</text>
</g>
<!-- Behavior&#45;&gt;Diagnosis -->
<g id="edge7" class="edge"><title>Behavior&#45;&gt;Diagnosis</title>
<path fill="none" stroke="#4c1628" d="M1306.07,-113.1C1313.35,-121.963 1320.56,-132.741 1324.33,-144 1348.31,-215.587 1327.92,-306.211 1314.99,-350.373"/>
<ellipse fill="none" stroke="#4c1628" cx="1303.43" cy="-110.035" rx="4.00002" ry="4.00002"/>
<polygon fill="#4c1628" stroke="#4c1628" points="1314.96,-350.495 1307.75,-358.759 1313.51,-355.28 1312.05,-360.064 1312.05,-360.064 1312.05,-360.064 1313.51,-355.28 1316.36,-361.37 1314.96,-350.495 1314.96,-350.495"/>
</g>
<!-- Reaction -->
<g id="node30" class="node"><title>Reaction</title>
<ellipse fill="none" stroke="black" cx="1078.33" cy="-450" rx="42.3701" ry="18"/>
<text text-anchor="middle" x="1078.33" y="-446.3" font-family="Times,serif" font-size="14.00">Reaction</text>
</g>
<!-- Behavior&#45;&gt;Reaction -->
<g id="edge6" class="edge"><title>Behavior&#45;&gt;Reaction</title>
<path fill="none" stroke="#0ed7f4" d="M1313.32,-110.253C1324.32,-119.154 1335.76,-130.712 1342.33,-144 1507.59,-478.338 1393.21,-357.599 1361.33,-396 1332.52,-430.713 1203.63,-442.824 1130.13,-446.948"/>
<ellipse fill="none" stroke="#0ed7f4" cx="1310.11" cy="-107.771" rx="4.00002" ry="4.00002"/>
<polygon fill="#0ed7f4" stroke="#0ed7f4" points="1130.12,-446.948 1119.9,-442.984 1125.13,-447.213 1120.14,-447.478 1120.14,-447.478 1120.14,-447.478 1125.13,-447.213 1120.38,-451.972 1130.12,-446.948 1130.12,-446.948"/>
</g>
<!-- Scenario -->
<g id="node33" class="node"><title>Scenario</title>
<ellipse fill="none" stroke="black" cx="1235.33" cy="-18" rx="41.394" ry="18"/>
<text text-anchor="middle" x="1235.33" y="-14.3" font-family="Times,serif" font-size="14.00">Scenario</text>
</g>
<!-- Behavior&#45;&gt;Scenario -->
<g id="edge5" class="edge"><title>Behavior&#45;&gt;Scenario</title>
<path fill="none" stroke="#6fdd86" d="M1268.1,-65.8123C1263.21,-58.8305 1257.83,-51.1383 1252.86,-44.0419"/>
<ellipse fill="none" stroke="#6fdd86" cx="1270.43" cy="-69.134" rx="4.00002" ry="4.00002"/>
<polygon fill="#6fdd86" stroke="#6fdd86" points="1252.6,-43.6623 1250.55,-32.8893 1249.73,-39.5661 1246.86,-35.4699 1246.86,-35.4699 1246.86,-35.4699 1249.73,-39.5661 1243.17,-38.0505 1252.6,-43.6623 1252.6,-43.6623"/>
</g>
<!-- BingoBoard -->
<g id="node4" class="node"><title>BingoBoard</title>
<ellipse fill="none" stroke="black" cx="360.332" cy="-378" rx="53.4184" ry="18"/>
<text text-anchor="middle" x="360.332" y="-374.3" font-family="Times,serif" font-size="14.00">BingoBoard</text>
</g>
<!-- BingoCell -->
<g id="node5" class="node"><title>BingoCell</title>
<ellipse fill="none" stroke="black" cx="367.332" cy="-306" rx="46.1964" ry="18"/>
<text text-anchor="middle" x="367.332" y="-302.3" font-family="Times,serif" font-size="14.00">BingoCell</text>
</g>
<!-- BingoBoard&#45;&gt;BingoCell -->
<g id="edge8" class="edge"><title>BingoBoard&#45;&gt;BingoCell</title>
<path fill="none" stroke="#e43d97" d="M362.868,-351.64C363.425,-346.063 364.018,-340.132 364.584,-334.476"/>
<ellipse fill="none" stroke="#e43d97" cx="362.46" cy="-355.716" rx="4" ry="4"/>
<polygon fill="#e43d97" stroke="#e43d97" points="364.626,-334.055 370.099,-324.552 365.124,-329.08 365.621,-324.104 365.621,-324.104 365.621,-324.104 365.124,-329.08 361.144,-323.657 364.626,-334.055 364.626,-334.055"/>
</g>
<!-- Concept -->
<g id="node11" class="node"><title>Concept</title>
<ellipse fill="none" stroke="black" cx="248.332" cy="-234" rx="39.9464" ry="18"/>
<text text-anchor="middle" x="248.332" y="-230.3" font-family="Times,serif" font-size="14.00">Concept</text>
</g>
<!-- BingoBoard&#45;&gt;Concept -->
<g id="edge9" class="edge"><title>BingoBoard&#45;&gt;Concept</title>
<path fill="none" stroke="#9e38b0" d="M337.23,-353.342C328.811,-344.38 319.387,-333.939 311.332,-324 294.43,-303.146 276.923,-278.089 264.668,-259.882"/>
<polygon fill="#9e38b0" stroke="#9e38b0" points="337.419,-353.541 341.05,-363.888 340.865,-357.164 344.31,-360.787 344.31,-360.787 344.31,-360.787 340.865,-357.164 347.571,-357.686 337.419,-353.541 337.419,-353.541"/>
<polygon fill="#9e38b0" stroke="#9e38b0" points="264.652,-259.86 262.841,-249.044 261.875,-255.702 259.098,-251.544 259.098,-251.544 259.098,-251.544 261.875,-255.702 255.356,-254.043 264.652,-259.86 264.652,-259.86"/>
</g>
<!-- BingoGame -->
<g id="node6" class="node"><title>BingoGame</title>
<ellipse fill="none" stroke="black" cx="442.332" cy="-450" rx="53.4184" ry="18"/>
<text text-anchor="middle" x="442.332" y="-446.3" font-family="Times,serif" font-size="14.00">BingoGame</text>
</g>
<!-- BingoGame&#45;&gt;BingoBoard -->
<g id="edge11" class="edge"><title>BingoGame&#45;&gt;BingoBoard</title>
<path fill="none" stroke="#086cb2" d="M417.519,-427.819C407.888,-419.597 396.837,-410.163 387.033,-401.793"/>
<ellipse fill="none" stroke="#086cb2" cx="420.682" cy="-430.519" rx="4.00002" ry="4.00002"/>
<polygon fill="#086cb2" stroke="#086cb2" points="386.755,-401.556 382.071,-391.641 382.952,-398.31 379.149,-395.064 379.149,-395.064 379.149,-395.064 382.952,-398.31 376.227,-398.486 386.755,-401.556 386.755,-401.556"/>
</g>
<!-- Candidate -->
<g id="node7" class="node"><title>Candidate</title>
<ellipse fill="none" stroke="black" cx="248.332" cy="-162" rx="46.2191" ry="18"/>
<text text-anchor="middle" x="248.332" y="-158.3" font-family="Times,serif" font-size="14.00">Candidate</text>
</g>
<!-- BingoGame&#45;&gt;Candidate -->
<g id="edge12" class="edge"><title>BingoGame&#45;&gt;Candidate</title>
<path fill="none" stroke="#3c7b1d" d="M448.758,-422.225C458.416,-374.906 470.772,-275.855 422.332,-216 394.188,-181.225 343.908,-168.707 304.609,-164.463"/>
<polygon fill="#3c7b1d" stroke="#3c7b1d" points="448.751,-422.259 442.242,-431.085 447.696,-427.147 446.641,-432.034 446.641,-432.034 446.641,-432.034 447.696,-427.147 451.039,-432.984 448.751,-422.259 448.751,-422.259"/>
<polygon fill="#3c7b1d" stroke="#3c7b1d" points="304.575,-164.46 295.035,-159.052 299.597,-163.996 294.618,-163.533 294.618,-163.533 294.618,-163.533 299.597,-163.996 294.201,-168.014 304.575,-164.46 304.575,-164.46"/>
</g>
<!-- CandidateList -->
<g id="node9" class="node"><title>CandidateList</title>
<ellipse fill="none" stroke="black" cx="121.332" cy="-666" rx="59.1941" ry="18"/>
<text text-anchor="middle" x="121.332" y="-662.3" font-family="Times,serif" font-size="14.00">CandidateList</text>
</g>
<!-- BingoGame&#45;&gt;CandidateList -->
<g id="edge10" class="edge"><title>BingoGame&#45;&gt;CandidateList</title>
<path fill="none" stroke="#51fec8" d="M418.137,-472.433C380.443,-505.161 304.608,-568.38 233.332,-612 211.692,-625.243 186.22,-637.533 165.04,-646.937"/>
<ellipse fill="none" stroke="#51fec8" cx="421.273" cy="-469.698" rx="4.00002" ry="4.00002"/>
<polygon fill="#51fec8" stroke="#51fec8" points="164.802,-647.041 153.836,-646.925 160.221,-649.044 155.639,-651.048 155.639,-651.048 155.639,-651.048 160.221,-649.044 157.443,-655.171 164.802,-647.041 164.802,-647.041"/>
</g>
<!-- BingoGame&#45;&gt;Concept -->
<g id="edge13" class="edge"><title>BingoGame&#45;&gt;Concept</title>
<path fill="none" stroke="#44f66a" d="M383.673,-440.272C354.149,-433.036 319.926,-419.873 297.332,-396 262.204,-358.885 252.203,-297.331 249.393,-262.058"/>
<polygon fill="#44f66a" stroke="#44f66a" points="383.732,-440.285 392.483,-446.893 388.607,-441.395 393.482,-442.505 393.482,-442.505 393.482,-442.505 388.607,-441.395 394.482,-438.118 383.732,-440.285 383.732,-440.285"/>
<polygon fill="#44f66a" stroke="#44f66a" points="249.388,-261.99 253.221,-251.716 249.06,-257.001 248.731,-252.012 248.731,-252.012 248.731,-252.012 249.06,-257.001 244.241,-252.307 249.388,-261.99 249.388,-261.99"/>
</g>
<!-- CandidateFeedback -->
<g id="node8" class="node"><title>CandidateFeedback</title>
<ellipse fill="none" stroke="black" cx="110.332" cy="-234" rx="79.4147" ry="18"/>
<text text-anchor="middle" x="110.332" y="-230.3" font-family="Times,serif" font-size="14.00">CandidateFeedback</text>
</g>
<!-- CandidateFeedback&#45;&gt;Candidate -->
<g id="edge14" class="edge"><title>CandidateFeedback&#45;&gt;Candidate</title>
<path fill="none" stroke="#9007b4" d="M148.57,-213.604C168.483,-203.503 192.693,-191.223 212.276,-181.289"/>
<ellipse fill="none" stroke="#9007b4" cx="144.869" cy="-215.481" rx="4.00002" ry="4.00002"/>
<polygon fill="#9007b4" stroke="#9007b4" points="212.279,-181.288 223.233,-180.777 216.738,-179.026 221.197,-176.764 221.197,-176.764 221.197,-176.764 216.738,-179.026 219.162,-172.751 212.279,-181.288 212.279,-181.288"/>
</g>
<!-- CandidateList&#45;&gt;Candidate -->
<g id="edge15" class="edge"><title>CandidateList&#45;&gt;Candidate</title>
<path fill="none" stroke="#42a290" d="M88.4008,-645.071C53.1811,-620.959 2.33166,-576.826 2.33166,-523 2.33166,-523 2.33166,-523 2.33166,-305 2.33166,-264.553 -6.99497,-244.871 21.3317,-216 45.1101,-191.764 135.238,-176.53 194.523,-168.909"/>
<ellipse fill="none" stroke="#42a290" cx="91.8903" cy="-647.402" rx="4.00002" ry="4.00002"/>
<polygon fill="#42a290" stroke="#42a290" points="194.561,-168.904 205.043,-172.127 199.523,-168.283 204.484,-167.662 204.484,-167.662 204.484,-167.662 199.523,-168.283 203.925,-163.197 194.561,-168.904 194.561,-168.904"/>
</g>
<!-- CandidateList&#45;&gt;Concept -->
<g id="edge16" class="edge"><title>CandidateList&#45;&gt;Concept</title>
<path fill="none" stroke="#b84a9b" d="M97.0839,-640.772C73.2203,-614.249 40.3317,-569.297 40.3317,-523 40.3317,-523 40.3317,-523 40.3317,-377 40.3317,-336.015 151.877,-278.906 211.596,-251.268"/>
<polygon fill="#b84a9b" stroke="#b84a9b" points="97.3525,-641.062 100.855,-651.454 100.753,-644.727 104.154,-648.393 104.154,-648.393 104.154,-648.393 100.753,-644.727 107.453,-645.333 97.3525,-641.062 97.3525,-641.062"/>
<polygon fill="#b84a9b" stroke="#b84a9b" points="211.62,-251.258 222.585,-251.184 216.165,-249.175 220.711,-247.092 220.711,-247.092 220.711,-247.092 216.165,-249.175 218.837,-243.001 211.62,-251.258 211.62,-251.258"/>
</g>
<!-- Course -->
<g id="node14" class="node"><title>Course</title>
<ellipse fill="none" stroke="black" cx="700.332" cy="-594" rx="35.6194" ry="18"/>
<text text-anchor="middle" x="700.332" y="-590.3" font-family="Times,serif" font-size="14.00">Course</text>
</g>
<!-- CandidateList&#45;&gt;Course -->
<g id="edge17" class="edge"><title>CandidateList&#45;&gt;Course</title>
<path fill="none" stroke="#42a8e9" d="M184.281,-658.163C272.458,-648.48 437.731,-629.946 578.332,-612 605.087,-608.585 635.093,-604.408 658.652,-601.05"/>
<ellipse fill="none" stroke="#42a8e9" cx="180.227" cy="-658.607" rx="4.00001" ry="4.00001"/>
<ellipse fill="#42a8e9" stroke="#42a8e9" cx="662.741" cy="-600.465" rx="4.00001" ry="4.00001"/>
</g>
<!-- CipCode -->
<g id="node10" class="node"><title>CipCode</title>
<ellipse fill="none" stroke="black" cx="1028.33" cy="-522" rx="42.3701" ry="18"/>
<text text-anchor="middle" x="1028.33" y="-518.3" font-family="Times,serif" font-size="14.00">CipCode</text>
</g>
<!-- CipCode&#45;&gt;User -->
<g id="edge18" class="edge"><title>CipCode&#45;&gt;User</title>
<path fill="none" stroke="#d06ee3" d="M1025.44,-495.72C1020.8,-462.666 1009.5,-403.825 984.332,-360 977.24,-347.652 966.586,-336.091 956.764,-326.938"/>
<ellipse fill="none" stroke="#d06ee3" cx="1026.01" cy="-499.969" rx="4.00001" ry="4.00001"/>
<polygon fill="#d06ee3" stroke="#d06ee3" points="956.612,-326.802 952.146,-316.787 952.881,-323.474 949.15,-320.145 949.15,-320.145 949.15,-320.145 952.881,-323.474 946.154,-323.503 956.612,-326.802 956.612,-326.802"/>
</g>
<!-- Concept&#45;&gt;Candidate -->
<g id="edge19" class="edge"><title>Concept&#45;&gt;Candidate</title>
<path fill="none" stroke="#d9b022" d="M248.332,-207.64C248.332,-202.063 248.332,-196.132 248.332,-190.476"/>
<ellipse fill="none" stroke="#d9b022" cx="248.332" cy="-211.697" rx="4" ry="4"/>
<polygon fill="#d9b022" stroke="#d9b022" points="248.332,-190.104 252.832,-180.104 248.332,-185.104 248.332,-180.104 248.332,-180.104 248.332,-180.104 248.332,-185.104 243.832,-180.104 248.332,-190.104 248.332,-190.104"/>
</g>
<!-- ConsentForm -->
<g id="node12" class="node"><title>ConsentForm</title>
<ellipse fill="none" stroke="black" cx="165.332" cy="-594" rx="59.2173" ry="18"/>
<text text-anchor="middle" x="165.332" y="-590.3" font-family="Times,serif" font-size="14.00">ConsentForm</text>
</g>
<!-- ConsentLog -->
<g id="node13" class="node"><title>ConsentLog</title>
<ellipse fill="none" stroke="black" cx="360.332" cy="-234" rx="53.4184" ry="18"/>
<text text-anchor="middle" x="360.332" y="-230.3" font-family="Times,serif" font-size="14.00">ConsentLog</text>
</g>
<!-- ConsentForm&#45;&gt;ConsentLog -->
<g id="edge21" class="edge"><title>ConsentForm&#45;&gt;ConsentLog</title>
<path fill="none" stroke="#94fbfb" d="M174.269,-568.197C194.247,-514.451 245.947,-384.33 311.332,-288 318.408,-277.575 327.484,-267.163 335.898,-258.362"/>
<ellipse fill="none" stroke="#94fbfb" cx="172.83" cy="-572.102" rx="4.00001" ry="4.00001"/>
<polygon fill="#94fbfb" stroke="#94fbfb" points="336.044,-258.214 346.264,-254.238 339.549,-254.649 343.055,-251.083 343.055,-251.083 343.055,-251.083 339.549,-254.649 339.846,-247.928 336.044,-258.214 336.044,-258.214"/>
</g>
<!-- Project -->
<g id="node28" class="node"><title>Project</title>
<ellipse fill="none" stroke="black" cx="442.332" cy="-522" rx="35.6194" ry="18"/>
<text text-anchor="middle" x="442.332" y="-518.3" font-family="Times,serif" font-size="14.00">Project</text>
</g>
<!-- ConsentForm&#45;&gt;Project -->
<g id="edge20" class="edge"><title>ConsentForm&#45;&gt;Project</title>
<path fill="none" stroke="#512589" d="M217.043,-579.932C270.279,-566.479 352.17,-545.785 401.175,-533.401"/>
<ellipse fill="none" stroke="#512589" cx="213.101" cy="-580.928" rx="4.00001" ry="4.00001"/>
<polygon fill="#512589" stroke="#512589" points="401.415,-533.34 412.213,-535.253 406.263,-532.115 411.11,-530.89 411.11,-530.89 411.11,-530.89 406.263,-532.115 410.008,-526.527 401.415,-533.34 401.415,-533.34"/>
</g>
<!-- Course&#45;&gt;BingoGame -->
<g id="edge24" class="edge"><title>Course&#45;&gt;BingoGame</title>
<path fill="none" stroke="#1d8c2e" d="M664.777,-579.925C631.811,-567.585 585.366,-549.588 568.332,-540 545.093,-526.92 542.033,-519.498 520.332,-504 505.216,-493.205 488.179,-481.569 473.891,-471.957"/>
<ellipse fill="none" stroke="#1d8c2e" cx="668.676" cy="-581.379" rx="4.00001" ry="4.00001"/>
<polygon fill="#1d8c2e" stroke="#1d8c2e" points="473.699,-471.828 467.899,-462.522 469.546,-469.044 465.393,-466.26 465.393,-466.26 465.393,-466.26 469.546,-469.044 462.887,-469.997 473.699,-471.828 473.699,-471.828"/>
</g>
<!-- Experience -->
<g id="node17" class="node"><title>Experience</title>
<ellipse fill="none" stroke="black" cx="808.332" cy="-522" rx="50.0684" ry="18"/>
<text text-anchor="middle" x="808.332" y="-518.3" font-family="Times,serif" font-size="14.00">Experience</text>
</g>
<!-- Course&#45;&gt;Experience -->
<g id="edge26" class="edge"><title>Course&#45;&gt;Experience</title>
<path fill="none" stroke="#4e26b8" d="M728.153,-574.967C742.904,-565.407 761.093,-553.618 776.415,-543.687"/>
<ellipse fill="none" stroke="#4e26b8" cx="724.768" cy="-577.162" rx="4.00002" ry="4.00002"/>
<polygon fill="#4e26b8" stroke="#4e26b8" points="776.667,-543.524 787.506,-541.861 780.862,-540.804 785.058,-538.085 785.058,-538.085 785.058,-538.085 780.862,-540.804 782.611,-534.308 776.667,-543.524 776.667,-543.524"/>
</g>
<!-- Course&#45;&gt;Project -->
<g id="edge22" class="edge"><title>Course&#45;&gt;Project</title>
<path fill="none" stroke="#f6e533" d="M661.8,-582.546C613.706,-569.497 531.828,-547.282 482.833,-533.989"/>
<ellipse fill="none" stroke="#f6e533" cx="665.862" cy="-583.648" rx="4.00001" ry="4.00001"/>
<polygon fill="#f6e533" stroke="#f6e533" points="482.552,-533.913 474.079,-526.951 477.727,-532.603 472.901,-531.294 472.901,-531.294 472.901,-531.294 477.727,-532.603 471.723,-535.637 482.552,-533.913 482.552,-533.913"/>
</g>
<!-- Roster -->
<g id="node32" class="node"><title>Roster</title>
<ellipse fill="none" stroke="black" cx="1072.33" cy="-234" rx="33.1991" ry="18"/>
<text text-anchor="middle" x="1072.33" y="-230.3" font-family="Times,serif" font-size="14.00">Roster</text>
</g>
<!-- Course&#45;&gt;Roster -->
<g id="edge23" class="edge"><title>Course&#45;&gt;Roster</title>
<path fill="none" stroke="#c65600" d="M679.729,-571.43C672.177,-562.375 664.277,-551.324 659.332,-540 627.294,-466.647 602.875,-422.139 653.332,-360 677.879,-329.768 932.289,-267.688 1032.29,-244.241"/>
<ellipse fill="none" stroke="#c65600" cx="682.498" cy="-574.624" rx="4.00002" ry="4.00002"/>
<polygon fill="#c65600" stroke="#c65600" points="1032.29,-244.24 1043.05,-246.347 1037.16,-243.102 1042.03,-241.965 1042.03,-241.965 1042.03,-241.965 1037.16,-243.102 1041,-237.583 1032.29,-244.24 1032.29,-244.24"/>
</g>
<!-- Course&#45;&gt;User -->
<g id="edge25" class="edge"><title>Course&#45;&gt;User</title>
<path fill="none" stroke="#e88e28" d="M686.882,-567.088C664.545,-520.03 626.896,-419.865 676.332,-360 703.708,-326.849 830.769,-313.738 894.979,-309.162"/>
<polygon fill="#e88e28" stroke="#e88e28" points="686.989,-567.306 687.337,-578.266 689.184,-571.798 691.38,-576.291 691.38,-576.291 691.38,-576.291 689.184,-571.798 695.423,-574.315 686.989,-567.306 686.989,-567.306"/>
<polygon fill="#e88e28" stroke="#e88e28" points="895.113,-309.153 905.395,-312.965 900.101,-308.814 905.09,-308.475 905.09,-308.475 905.09,-308.475 900.101,-308.814 904.785,-303.985 895.113,-309.153 895.113,-309.153"/>
</g>
<!-- Diagnosis&#45;&gt;User -->
<g id="edge27" class="edge"><title>Diagnosis&#45;&gt;User</title>
<path fill="none" stroke="#d83cae" d="M1257.62,-367.882C1180.74,-353.494 1033.21,-325.881 966.535,-313.402"/>
<ellipse fill="none" stroke="#d83cae" cx="1261.66" cy="-368.64" rx="4.00001" ry="4.00001"/>
<ellipse fill="#d83cae" stroke="#d83cae" cx="962.367" cy="-312.622" rx="4.00001" ry="4.00001"/>
</g>
<!-- Email -->
<g id="node16" class="node"><title>Email</title>
<ellipse fill="none" stroke="black" cx="932.332" cy="-234" rx="32.2457" ry="18"/>
<text text-anchor="middle" x="932.332" y="-230.3" font-family="Times,serif" font-size="14.00">Email</text>
</g>
<!-- Experience&#45;&gt;Reaction -->
<g id="edge28" class="edge"><title>Experience&#45;&gt;Reaction</title>
<path fill="none" stroke="#8d69dd" d="M855.582,-508.75C905.739,-495.746 984.414,-475.349 1033.59,-462.599"/>
<ellipse fill="none" stroke="#8d69dd" cx="851.464" cy="-509.818" rx="4.00001" ry="4.00001"/>
<polygon fill="#8d69dd" stroke="#8d69dd" points="1033.64,-462.587 1044.45,-464.433 1038.48,-461.332 1043.32,-460.077 1043.32,-460.077 1043.32,-460.077 1038.48,-461.332 1042.19,-455.721 1033.64,-462.587 1033.64,-462.587"/>
</g>
<!-- FactorPack -->
<g id="node19" class="node"><title>FactorPack</title>
<ellipse fill="none" stroke="black" cx="368.332" cy="-594" rx="50.0684" ry="18"/>
<text text-anchor="middle" x="368.332" y="-590.3" font-family="Times,serif" font-size="14.00">FactorPack</text>
</g>
<!-- FactorPack&#45;&gt;Factor -->
<g id="edge29" class="edge"><title>FactorPack&#45;&gt;Factor</title>
<path fill="none" stroke="#801c08" d="M355.084,-568.883C340.945,-543.141 318.638,-502.531 304.247,-476.333"/>
<ellipse fill="none" stroke="#801c08" cx="357.152" cy="-572.647" rx="4.00002" ry="4.00002"/>
<polygon fill="#801c08" stroke="#801c08" points="304.147,-476.151 303.277,-465.22 301.74,-471.769 299.333,-467.387 299.333,-467.387 299.333,-467.387 301.74,-471.769 295.389,-469.553 304.147,-476.151 304.147,-476.151"/>
</g>
<!-- FactorPack&#45;&gt;Project -->
<g id="edge30" class="edge"><title>FactorPack&#45;&gt;Project</title>
<path fill="none" stroke="#cbece3" d="M391.53,-571.056C400.264,-562.793 410.197,-553.398 418.948,-545.12"/>
<ellipse fill="none" stroke="#cbece3" cx="388.401" cy="-574.016" rx="4.00002" ry="4.00002"/>
<polygon fill="#cbece3" stroke="#cbece3" points="419.01,-545.061 429.367,-541.458 422.642,-541.625 426.275,-538.189 426.275,-538.189 426.275,-538.189 422.642,-541.625 423.182,-534.92 419.01,-545.061 419.01,-545.061"/>
</g>
<!-- Gender -->
<g id="node20" class="node"><title>Gender</title>
<ellipse fill="none" stroke="black" cx="1125.33" cy="-522" rx="36.096" ry="18"/>
<text text-anchor="middle" x="1125.33" y="-518.3" font-family="Times,serif" font-size="14.00">Gender</text>
</g>
<!-- Gender&#45;&gt;User -->
<g id="edge31" class="edge"><title>Gender&#45;&gt;User</title>
<path fill="none" stroke="#f096c6" d="M1133.16,-496.188C1137.58,-477.37 1140.28,-451.503 1129.33,-432 1114.3,-405.213 1096.35,-412.326 1070.33,-396 1031.54,-371.664 987.105,-342.831 959.375,-324.724"/>
<ellipse fill="none" stroke="#f096c6" cx="1132.13" cy="-500.164" rx="4.00001" ry="4.00001"/>
<polygon fill="#f096c6" stroke="#f096c6" points="959.357,-324.712 953.449,-315.474 955.172,-321.977 950.987,-319.241 950.987,-319.241 950.987,-319.241 955.172,-321.977 948.525,-323.008 959.357,-324.712 959.357,-324.712"/>
</g>
<!-- Group&#45;&gt;CandidateList -->
<g id="edge34" class="edge"><title>Group&#45;&gt;CandidateList</title>
<path fill="none" stroke="#1ff90a" d="M885.429,-733.443C755.128,-722.113 348.91,-686.789 187.97,-672.795"/>
<ellipse fill="none" stroke="#1ff90a" cx="889.793" cy="-733.823" rx="4" ry="4"/>
<polygon fill="#1ff90a" stroke="#1ff90a" points="187.691,-672.77 178.119,-667.421 182.71,-672.337 177.729,-671.904 177.729,-671.904 177.729,-671.904 182.71,-672.337 177.339,-676.387 187.691,-672.77 187.691,-672.77"/>
</g>
<!-- Group&#45;&gt;CipCode -->
<g id="edge38" class="edge"><title>Group&#45;&gt;CipCode</title>
<path fill="none" stroke="#aa0593" d="M958.53,-719.77C972.213,-710.854 987.107,-698.731 996.332,-684 1022.26,-642.59 1027.81,-584.436 1028.65,-550.537"/>
<polygon fill="#aa0593" stroke="#aa0593" points="958.297,-719.913 947.423,-721.33 954.041,-722.537 949.784,-725.16 949.784,-725.16 949.784,-725.16 954.041,-722.537 952.146,-728.991 958.297,-719.913 958.297,-719.913"/>
<polygon fill="#aa0593" stroke="#aa0593" points="1028.65,-550.434 1033.28,-540.491 1028.72,-545.435 1028.78,-540.435 1028.78,-540.435 1028.78,-540.435 1028.72,-545.435 1024.28,-540.379 1028.65,-550.434 1028.65,-550.434"/>
</g>
<!-- Group&#45;&gt;Gender -->
<g id="edge39" class="edge"><title>Group&#45;&gt;Gender</title>
<path fill="none" stroke="#8c9a8e" d="M961.045,-721.804C979.438,-712.63 1001.62,-699.679 1018.33,-684 1061.11,-643.876 1095.34,-583.51 1112.76,-549.234"/>
<polygon fill="#8c9a8e" stroke="#8c9a8e" points="960.828,-721.908 949.866,-722.198 956.324,-724.08 951.821,-726.251 951.821,-726.251 951.821,-726.251 956.324,-724.08 953.775,-730.305 960.828,-721.908 960.828,-721.908"/>
<polygon fill="#8c9a8e" stroke="#8c9a8e" points="1112.96,-548.839 1121.45,-541.899 1115.19,-544.365 1117.42,-539.89 1117.42,-539.89 1117.42,-539.89 1115.19,-544.365 1113.4,-537.882 1112.96,-548.839 1112.96,-548.839"/>
</g>
<!-- GroupRevision -->
<g id="node22" class="node"><title>GroupRevision</title>
<ellipse fill="none" stroke="black" cx="615.332" cy="-666" rx="64.0172" ry="18"/>
<text text-anchor="middle" x="615.332" y="-662.3" font-family="Times,serif" font-size="14.00">GroupRevision</text>
</g>
<!-- Group&#45;&gt;GroupRevision -->
<g id="edge33" class="edge"><title>Group&#45;&gt;GroupRevision</title>
<path fill="none" stroke="#f31242" d="M888.176,-728.622C841.149,-718.27 758.807,-700.053 688.332,-684 683.306,-682.855 678.088,-681.658 672.858,-680.451"/>
<ellipse fill="none" stroke="#f31242" cx="892.348" cy="-729.54" rx="4.00001" ry="4.00001"/>
<polygon fill="#f31242" stroke="#f31242" points="672.573,-680.386 663.845,-673.747 667.702,-679.259 662.831,-678.132 662.831,-678.132 662.831,-678.132 667.702,-679.259 661.816,-682.516 672.573,-680.386 672.573,-680.386"/>
</g>
<!-- HomeCountry -->
<g id="node23" class="node"><title>HomeCountry</title>
<ellipse fill="none" stroke="black" cx="926.332" cy="-666" rx="61.6163" ry="18"/>
<text text-anchor="middle" x="926.332" y="-662.3" font-family="Times,serif" font-size="14.00">HomeCountry</text>
</g>
<!-- Group&#45;&gt;HomeCountry -->
<g id="edge37" class="edge"><title>Group&#45;&gt;HomeCountry</title>
<path fill="none" stroke="#5c658d" d="M926.332,-709.665C926.332,-704.687 926.332,-699.491 926.332,-694.507"/>
<polygon fill="#5c658d" stroke="#5c658d" points="926.332,-709.697 921.832,-719.697 926.332,-714.697 926.332,-719.697 926.332,-719.697 926.332,-719.697 926.332,-714.697 930.832,-719.697 926.332,-709.697 926.332,-709.697"/>
<polygon fill="#5c658d" stroke="#5c658d" points="926.332,-694.104 930.832,-684.104 926.332,-689.104 926.332,-684.104 926.332,-684.104 926.332,-684.104 926.332,-689.104 921.832,-684.104 926.332,-694.104 926.332,-694.104"/>
</g>
<!-- HomeState -->
<g id="node24" class="node"><title>HomeState</title>
<ellipse fill="none" stroke="black" cx="842.332" cy="-594" rx="50.0684" ry="18"/>
<text text-anchor="middle" x="842.332" y="-590.3" font-family="Times,serif" font-size="14.00">HomeState</text>
</g>
<!-- Group&#45;&gt;HomeState -->
<g id="edge36" class="edge"><title>Group&#45;&gt;HomeState</title>
<path fill="none" stroke="#2ea2b2" d="M893.323,-720.08C879.374,-711.227 864.308,-699.068 855.332,-684 844.241,-665.384 841.354,-640.8 841.036,-622.187"/>
<polygon fill="#2ea2b2" stroke="#2ea2b2" points="893.67,-720.287 899.945,-729.28 897.962,-722.853 902.254,-725.418 902.254,-725.418 902.254,-725.418 897.962,-722.853 904.563,-721.555 893.67,-720.287 893.67,-720.287"/>
<polygon fill="#2ea2b2" stroke="#2ea2b2" points="841.037,-622.008 845.603,-612.038 841.07,-617.009 841.103,-612.009 841.103,-612.009 841.103,-612.009 841.07,-617.009 836.603,-611.979 841.037,-622.008 841.037,-622.008"/>
</g>
<!-- Group&#45;&gt;Installment -->
<g id="edge35" class="edge"><title>Group&#45;&gt;Installment</title>
<path fill="none" stroke="#35962a" d="M967.267,-734.846C1091.59,-727.201 1456.33,-696.151 1456.33,-595 1456.33,-595 1456.33,-595 1456.33,-377 1456.33,-336.971 1458.34,-290.635 1459.81,-262.07"/>
<ellipse fill="none" stroke="#35962a" cx="963.078" cy="-735.097" rx="4" ry="4"/>
<polygon fill="#35962a" stroke="#35962a" points="1459.81,-262.028 1464.84,-252.281 1460.08,-257.035 1460.34,-252.042 1460.34,-252.042 1460.34,-252.042 1460.08,-257.035 1455.85,-251.804 1459.81,-262.028 1459.81,-262.028"/>
</g>
<!-- Group&#45;&gt;User -->
<g id="edge32" class="edge"><title>Group&#45;&gt;User</title>
<path fill="none" stroke="#a0557e" d="M964.195,-725.395C989.299,-716.551 1022.13,-702.7 1047.33,-684 1114.93,-633.845 1141.2,-618.966 1170.33,-540 1187.35,-493.869 1174.46,-472.334 1146.33,-432 1131.68,-410.991 1078.31,-373.154 1056.33,-360 1027.25,-342.592 991.399,-327.923 965.74,-318.462"/>
<polygon fill="#a0557e" stroke="#a0557e" points="964.108,-725.425 953.19,-724.392 959.375,-727.038 954.643,-728.652 954.643,-728.652 954.643,-728.652 959.375,-727.038 956.095,-732.911 964.108,-725.425 964.108,-725.425"/>
<polygon fill="#a0557e" stroke="#a0557e" points="965.504,-318.376 957.631,-310.743 960.802,-316.676 956.1,-314.975 956.1,-314.975 956.1,-314.975 960.802,-316.676 954.57,-319.207 965.504,-318.376 965.504,-318.376"/>
</g>
<!-- HomeCountry&#45;&gt;HomeState -->
<g id="edge41" class="edge"><title>HomeCountry&#45;&gt;HomeState</title>
<path fill="none" stroke="#211a26" d="M900.494,-643.469C890.545,-635.178 879.167,-625.696 869.129,-617.331"/>
<ellipse fill="none" stroke="#211a26" cx="903.776" cy="-646.204" rx="4.00002" ry="4.00002"/>
<polygon fill="#211a26" stroke="#211a26" points="869.101,-617.308 864.3,-607.449 865.26,-614.107 861.419,-610.906 861.419,-610.906 861.419,-610.906 865.26,-614.107 858.538,-614.363 869.101,-617.308 869.101,-617.308"/>
</g>
<!-- HomeCountry&#45;&gt;User -->
<g id="edge40" class="edge"><title>HomeCountry&#45;&gt;User</title>
<path fill="none" stroke="#e6d874" d="M927.143,-637.657C928.54,-589.043 931.346,-484.371 932.332,-396 932.563,-375.272 932.552,-351.827 932.489,-334.206"/>
<polygon fill="#e6d874" stroke="#e6d874" points="927.142,-637.698 922.353,-647.563 926.997,-642.696 926.851,-647.693 926.851,-647.693 926.851,-647.693 926.997,-642.696 931.35,-647.824 927.142,-637.698 927.142,-637.698"/>
<polygon fill="#e6d874" stroke="#e6d874" points="932.488,-334.062 936.945,-324.043 932.466,-329.062 932.445,-324.063 932.445,-324.063 932.445,-324.063 932.466,-329.062 927.945,-324.082 932.488,-334.062 932.488,-334.062"/>
</g>
<!-- HomeState&#45;&gt;User -->
<g id="edge42" class="edge"><title>HomeState&#45;&gt;User</title>
<path fill="none" stroke="#c6e8f2" d="M800.568,-577.19C782.654,-568.576 762.794,-556.298 749.332,-540 696.53,-476.076 648.644,-424.828 700.332,-360 724.326,-329.906 836.279,-315.544 895.451,-309.954"/>
<ellipse fill="none" stroke="#c6e8f2" cx="804.469" cy="-578.985" rx="4.00002" ry="4.00002"/>
<polygon fill="#c6e8f2" stroke="#c6e8f2" points="895.549,-309.945 905.915,-313.522 900.529,-309.493 905.508,-309.041 905.508,-309.041 905.508,-309.041 900.529,-309.493 905.101,-304.559 895.549,-309.945 895.549,-309.945"/>
</g>
<!-- Value -->
<g id="node38" class="node"><title>Value</title>
<ellipse fill="none" stroke="black" cx="1461.33" cy="-162" rx="31.2735" ry="18"/>
<text text-anchor="middle" x="1461.33" y="-158.3" font-family="Times,serif" font-size="14.00">Value</text>
</g>
<!-- Installment&#45;&gt;Value -->
<g id="edge43" class="edge"><title>Installment&#45;&gt;Value</title>
<path fill="none" stroke="#3a8809" d="M1461.33,-207.64C1461.33,-202.063 1461.33,-196.132 1461.33,-190.476"/>
<ellipse fill="none" stroke="#3a8809" cx="1461.33" cy="-211.697" rx="4" ry="4"/>
<polygon fill="#3a8809" stroke="#3a8809" points="1461.33,-190.104 1465.83,-180.104 1461.33,-185.104 1461.33,-180.104 1461.33,-180.104 1461.33,-180.104 1461.33,-185.104 1456.83,-180.104 1461.33,-190.104 1461.33,-190.104"/>
</g>
<!-- Language -->
<g id="node26" class="node"><title>Language</title>
<ellipse fill="none" stroke="black" cx="769.332" cy="-378" rx="45.244" ry="18"/>
<text text-anchor="middle" x="769.332" y="-374.3" font-family="Times,serif" font-size="14.00">Language</text>
</g>
<!-- Language&#45;&gt;User -->
<g id="edge44" class="edge"><title>Language&#45;&gt;User</title>
<path fill="none" stroke="#623780" d="M808.278,-360.275C836.406,-348.195 873.933,-332.079 900.321,-320.747"/>
<polygon fill="#623780" stroke="#623780" points="808.038,-360.377 797.074,-360.189 803.444,-362.351 798.85,-364.324 798.85,-364.324 798.85,-364.324 803.444,-362.351 800.625,-368.458 808.038,-360.377 808.038,-360.377"/>
<polygon fill="#623780" stroke="#623780" points="900.658,-320.602 911.622,-320.791 905.252,-318.629 909.846,-316.656 909.846,-316.656 909.846,-316.656 905.252,-318.629 908.071,-312.521 900.658,-320.602 900.658,-320.602"/>
</g>
<!-- Narrative -->
<g id="node27" class="node"><title>Narrative</title>
<ellipse fill="none" stroke="black" cx="1224.33" cy="-234" rx="44.2946" ry="18"/>
<text text-anchor="middle" x="1224.33" y="-230.3" font-family="Times,serif" font-size="14.00">Narrative</text>
</g>
<!-- Narrative&#45;&gt;Behavior -->
<g id="edge46" class="edge"><title>Narrative&#45;&gt;Behavior</title>
<path fill="none" stroke="#d3d37b" d="M1226.72,-207.466C1229.15,-189.133 1233.96,-164.2 1243.33,-144 1248.45,-132.961 1256.24,-122.093 1263.65,-113.101"/>
<ellipse fill="none" stroke="#d3d37b" cx="1226.18" cy="-211.914" rx="4.00001" ry="4.00001"/>
<ellipse fill="#d3d37b" stroke="#d3d37b" cx="1266.34" cy="-109.95" rx="4.00002" ry="4.00002"/>
</g>
<!-- Narrative&#45;&gt;Reaction -->
<g id="edge47" class="edge"><title>Narrative&#45;&gt;Reaction</title>
<path fill="none" stroke="#d9f60c" d="M1230.21,-260.106C1236.68,-294.349 1242.65,-356.002 1213.33,-396 1193.69,-422.796 1158.44,-436.05 1128.88,-442.602"/>
<ellipse fill="none" stroke="#d9f60c" cx="1229.37" cy="-255.942" rx="4.00001" ry="4.00001"/>
<polygon fill="#d9f60c" stroke="#d9f60c" points="1128.5,-442.678 1117.81,-440.24 1123.6,-443.665 1118.7,-444.652 1118.7,-444.652 1118.7,-444.652 1123.6,-443.665 1119.58,-449.063 1128.5,-442.678 1128.5,-442.678"/>
</g>
<!-- Week -->
<g id="node39" class="node"><title>Week</title>
<ellipse fill="none" stroke="black" cx="1284.33" cy="-162" rx="31.2735" ry="18"/>
<text text-anchor="middle" x="1284.33" y="-158.3" font-family="Times,serif" font-size="14.00">Week</text>
</g>
<!-- Narrative&#45;&gt;Week -->
<g id="edge45" class="edge"><title>Narrative&#45;&gt;Week</title>
<path fill="none" stroke="#a74352" d="M1243.57,-210.551C1250.12,-202.917 1257.45,-194.365 1264.07,-186.64"/>
<ellipse fill="none" stroke="#a74352" cx="1240.85" cy="-213.728" rx="4.00002" ry="4.00002"/>
<polygon fill="#a74352" stroke="#a74352" points="1264.4,-186.258 1274.32,-181.594 1267.65,-182.462 1270.9,-178.666 1270.9,-178.666 1270.9,-178.666 1267.65,-182.462 1267.49,-175.737 1264.4,-186.258 1264.4,-186.258"/>
</g>
<!-- Project&#45;&gt;Assessment -->
<g id="edge50" class="edge"><title>Project&#45;&gt;Assessment</title>
<path fill="none" stroke="#debf5e" d="M443.602,-548.253C446.888,-584.479 458.614,-650.51 500.332,-684 631.591,-789.373 709.363,-723.985 863.332,-792 874.156,-796.781 885.396,-803.079 895.334,-809.168"/>
<ellipse fill="none" stroke="#debf5e" cx="443.278" cy="-544.135" rx="4" ry="4"/>
<polygon fill="#debf5e" stroke="#debf5e" points="895.583,-809.325 901.647,-818.461 899.814,-811.989 904.045,-814.653 904.045,-814.653 904.045,-814.653 899.814,-811.989 906.443,-810.845 895.583,-809.325 895.583,-809.325"/>
</g>
<!-- Project&#45;&gt;BingoGame -->
<g id="edge49" class="edge"><title>Project&#45;&gt;BingoGame</title>
<path fill="none" stroke="#b87d2d" d="M442.332,-495.64C442.332,-490.063 442.332,-484.132 442.332,-478.476"/>
<ellipse fill="none" stroke="#b87d2d" cx="442.332" cy="-499.697" rx="4" ry="4"/>
<polygon fill="#b87d2d" stroke="#b87d2d" points="442.332,-478.104 446.832,-468.104 442.332,-473.104 442.332,-468.104 442.332,-468.104 442.332,-468.104 442.332,-473.104 437.832,-468.104 442.332,-478.104 442.332,-478.104"/>
</g>
<!-- Project&#45;&gt;Factor -->
<g id="edge52" class="edge"><title>Project&#45;&gt;Factor</title>
<path fill="none" stroke="#a6aa4e" d="M407.741,-505.07C382.727,-493.551 349.098,-478.064 324.242,-466.617"/>
<polygon fill="#a6aa4e" stroke="#a6aa4e" points="407.807,-505.101 415.008,-513.371 412.349,-507.192 416.89,-509.284 416.89,-509.284 416.89,-509.284 412.349,-507.192 418.773,-505.196 407.807,-505.101 407.807,-505.101"/>
<polygon fill="#a6aa4e" stroke="#a6aa4e" points="323.931,-466.474 316.73,-458.203 319.39,-464.382 314.848,-462.29 314.848,-462.29 314.848,-462.29 319.39,-464.382 312.966,-466.378 323.931,-466.474 323.931,-466.474"/>
</g>
<!-- Project&#45;&gt;Group -->
<g id="edge48" class="edge"><title>Project&#45;&gt;Group</title>
<path fill="none" stroke="#d82726" d="M450.031,-547.551C462.834,-583.949 492.179,-651.422 542.332,-684 597.852,-720.065 794.855,-732 883.069,-735.593"/>
<ellipse fill="none" stroke="#d82726" cx="448.699" cy="-543.641" rx="4.00001" ry="4.00001"/>
<polygon fill="#d82726" stroke="#d82726" points="883.278,-735.601 893.095,-740.487 888.274,-735.796 893.27,-735.991 893.27,-735.991 893.27,-735.991 888.274,-735.796 893.446,-731.494 883.278,-735.601 883.278,-735.601"/>
</g>
<!-- Project&#45;&gt;User -->
<g id="edge51" class="edge"><title>Project&#45;&gt;User</title>
<path fill="none" stroke="#5d5b00" d="M468.253,-499.898C479.575,-490.414 492.858,-478.919 504.332,-468 552.159,-422.485 548.001,-390.93 606.332,-360 655.944,-333.693 820.475,-316.616 895.033,-310.045"/>
<polygon fill="#5d5b00" stroke="#5d5b00" points="468.104,-500.022 457.536,-502.949 464.257,-503.216 460.41,-506.411 460.41,-506.411 460.41,-506.411 464.257,-503.216 463.285,-509.873 468.104,-500.022 468.104,-500.022"/>
<polygon fill="#5d5b00" stroke="#5d5b00" points="895.393,-310.013 905.744,-313.635 900.374,-309.582 905.356,-309.151 905.356,-309.151 905.356,-309.151 900.374,-309.582 904.968,-304.668 895.393,-310.013 895.393,-310.013"/>
</g>
<!-- Quote -->
<g id="node29" class="node"><title>Quote</title>
<ellipse fill="none" stroke="black" cx="1029.33" cy="-831" rx="32.2457" ry="18"/>
<text text-anchor="middle" x="1029.33" y="-827.3" font-family="Times,serif" font-size="14.00">Quote</text>
</g>
<!-- Reaction&#45;&gt;Course -->
<g id="edge53" class="edge"><title>Reaction&#45;&gt;Course</title>
<path fill="none" stroke="#d230f0" d="M1028.62,-453.721C948.044,-458.99 793.461,-472.919 749.332,-504 727.562,-519.333 714.428,-547.531 707.315,-568.089"/>
<ellipse fill="none" stroke="#d230f0" cx="1032.66" cy="-453.463" rx="4" ry="4"/>
<ellipse fill="#d230f0" stroke="#d230f0" cx="706.034" cy="-572.021" rx="4.00001" ry="4.00001"/>
</g>
<!-- Reaction&#45;&gt;Diagnosis -->
<g id="edge54" class="edge"><title>Reaction&#45;&gt;Diagnosis</title>
<path fill="none" stroke="#4c31b1" d="M1119.28,-436.427C1159.32,-424.135 1220.13,-405.465 1261.46,-392.776"/>
<ellipse fill="none" stroke="#4c31b1" cx="1115.31" cy="-437.647" rx="4.00001" ry="4.00001"/>
<polygon fill="#4c31b1" stroke="#4c31b1" points="1261.71,-392.701 1272.59,-394.068 1266.49,-391.233 1271.27,-389.766 1271.27,-389.766 1271.27,-389.766 1266.49,-391.233 1269.94,-385.464 1261.71,-392.701 1261.71,-392.701"/>
</g>
<!-- Role -->
<g id="node31" class="node"><title>Role</title>
<ellipse fill="none" stroke="black" cx="1177.33" cy="-378" rx="26.949" ry="18"/>
<text text-anchor="middle" x="1177.33" y="-374.3" font-family="Times,serif" font-size="14.00">Role</text>
</g>
<!-- Role&#45;&gt;Roster -->
<g id="edge56" class="edge"><title>Role&#45;&gt;Roster</title>
<path fill="none" stroke="#8d4c1e" d="M1161.09,-355.03C1141.85,-329.019 1109.93,-285.85 1090.07,-258.987"/>
<ellipse fill="none" stroke="#8d4c1e" cx="1163.52" cy="-358.317" rx="4.00002" ry="4.00002"/>
<polygon fill="#8d4c1e" stroke="#8d4c1e" points="1090.02,-258.922 1087.69,-248.206 1087.05,-254.902 1084.07,-250.881 1084.07,-250.881 1084.07,-250.881 1087.05,-254.902 1080.46,-253.557 1090.02,-258.922 1090.02,-258.922"/>
</g>
<!-- Role&#45;&gt;User -->
<g id="edge55" class="edge"><title>Role&#45;&gt;User</title>
<path fill="none" stroke="#905a95" d="M1147.75,-364.165C1143.94,-362.68 1140.06,-361.251 1136.33,-360 1078.12,-340.476 1008.59,-323.778 967.575,-314.588"/>
<ellipse fill="none" stroke="#905a95" cx="1151.71" cy="-365.76" rx="4.00001" ry="4.00001"/>
<polygon fill="#905a95" stroke="#905a95" points="967.549,-314.583 958.761,-308.023 962.668,-313.5 957.786,-312.417 957.786,-312.417 957.786,-312.417 962.668,-313.5 956.812,-316.81 967.549,-314.583 967.549,-314.583"/>
</g>
<!-- Scenario&#45;&gt;Narrative -->
<g id="edge57" class="edge"><title>Scenario&#45;&gt;Narrative</title>
<path fill="none" stroke="#9d1bde" d="M1233.46,-44.6834C1231.67,-69.9443 1229.01,-109.61 1227.33,-144 1226.32,-164.716 1225.54,-188.161 1225.04,-205.786"/>
<ellipse fill="none" stroke="#9d1bde" cx="1233.77" cy="-40.3711" rx="4" ry="4"/>
<polygon fill="#9d1bde" stroke="#9d1bde" points="1225.03,-205.936 1220.26,-215.807 1224.89,-210.934 1224.75,-215.932 1224.75,-215.932 1224.75,-215.932 1224.89,-210.934 1229.25,-216.057 1225.03,-205.936 1225.03,-205.936"/>
</g>
<!-- School -->
<g id="node34" class="node"><title>School</title>
<ellipse fill="none" stroke="black" cx="732.332" cy="-666" rx="35.1455" ry="18"/>
<text text-anchor="middle" x="732.332" y="-662.3" font-family="Times,serif" font-size="14.00">School</text>
</g>
<!-- School&#45;&gt;BingoGame -->
<g id="edge59" class="edge"><title>School&#45;&gt;BingoGame</title>
<path fill="none" stroke="#cdc819" d="M702.656,-645.763C688.105,-636.034 670.494,-623.809 655.332,-612 636.2,-597.1 635.091,-588.533 614.332,-576 576.033,-552.878 557.04,-565.572 520.332,-540 513.44,-535.199 483.53,-500.221 462.818,-475.575"/>
<polygon fill="#cdc819" stroke="#cdc819" points="702.935,-645.948 708.784,-655.223 707.103,-648.71 711.27,-651.472 711.27,-651.472 711.27,-651.472 707.103,-648.71 713.756,-647.721 702.935,-645.948 702.935,-645.948"/>
<polygon fill="#cdc819" stroke="#cdc819" points="462.617,-475.335 459.642,-464.78 459.405,-471.503 456.193,-467.671 456.193,-467.671 456.193,-467.671 459.405,-471.503 452.745,-470.562 462.617,-475.335 462.617,-475.335"/>
</g>
<!-- School&#45;&gt;Course -->
<g id="edge58" class="edge"><title>School&#45;&gt;Course</title>
<path fill="none" stroke="#eb5e9d" d="M721.389,-641.062C718.449,-634.632 715.256,-627.647 712.266,-621.106"/>
<ellipse fill="none" stroke="#eb5e9d" cx="723.085" cy="-644.773" rx="4.00002" ry="4.00002"/>
<polygon fill="#eb5e9d" stroke="#eb5e9d" points="712.241,-621.051 712.176,-610.085 710.162,-616.504 708.083,-611.956 708.083,-611.956 708.083,-611.956 710.162,-616.504 703.99,-613.827 712.241,-621.051 712.241,-621.051"/>
</g>
<!-- School&#45;&gt;Experience -->
<g id="edge61" class="edge"><title>School&#45;&gt;Experience</title>
<path fill="none" stroke="#1a43ae" d="M746.049,-639.371C759.729,-613.811 780.635,-574.749 794.393,-549.044"/>
<polygon fill="#1a43ae" stroke="#1a43ae" points="745.917,-639.616 737.231,-646.309 743.558,-644.025 741.199,-648.433 741.199,-648.433 741.199,-648.433 743.558,-644.025 745.166,-650.556 745.917,-639.616 745.917,-639.616"/>
<polygon fill="#1a43ae" stroke="#1a43ae" points="794.567,-548.718 803.253,-542.025 796.926,-544.31 799.286,-539.902 799.286,-539.902 799.286,-539.902 796.926,-544.31 795.318,-537.778 794.567,-548.718 794.567,-548.718"/>
</g>
<!-- School&#45;&gt;Project -->
<g id="edge60" class="edge"><title>School&#45;&gt;Project</title>
<path fill="none" stroke="#d304d5" d="M696.285,-650.224C674.237,-640.563 645.846,-626.985 622.332,-612 601.023,-598.421 600.149,-588.744 578.332,-576 561.254,-566.025 514.441,-548.51 480.502,-536.358"/>
<polygon fill="#d304d5" stroke="#d304d5" points="696.437,-650.289 703.839,-658.38 701.028,-652.268 705.62,-654.247 705.62,-654.247 705.62,-654.247 701.028,-652.268 707.401,-650.115 696.437,-650.289 696.437,-650.289"/>
<polygon fill="#d304d5" stroke="#d304d5" points="480.29,-536.283 472.379,-528.69 475.58,-534.606 470.869,-532.929 470.869,-532.929 470.869,-532.929 475.58,-534.606 469.36,-537.168 480.29,-536.283 480.29,-536.283"/>
</g>
<!-- School&#45;&gt;Roster -->
<g id="edge62" class="edge"><title>School&#45;&gt;Roster</title>
<path fill="none" stroke="#322f46" d="M776.305,-659.219C812.655,-652.672 864.152,-639.151 901.332,-612 948.732,-577.386 928.727,-536.902 977.332,-504 1034.82,-465.083 1062.36,-486.299 1129.33,-468 1233.48,-439.543 1297.3,-482.922 1361.33,-396 1370.82,-383.118 1370.12,-373.372 1361.33,-360 1332.38,-315.929 1182.93,-267.291 1111.04,-245.999"/>
<polygon fill="#322f46" stroke="#322f46" points="775.872,-659.292 765.261,-656.523 770.942,-660.126 766.012,-660.96 766.012,-660.96 766.012,-660.96 770.942,-660.126 766.763,-665.397 775.872,-659.292 775.872,-659.292"/>
<polygon fill="#322f46" stroke="#322f46" points="1111.03,-245.996 1102.7,-238.862 1106.23,-244.588 1101.44,-243.18 1101.44,-243.18 1101.44,-243.18 1106.23,-244.588 1100.17,-247.497 1111.03,-245.996 1111.03,-245.996"/>
</g>
<!-- Style -->
<g id="node35" class="node"><title>Style</title>
<ellipse fill="none" stroke="black" cx="541.332" cy="-594" rx="28.3955" ry="18"/>
<text text-anchor="middle" x="541.332" y="-590.3" font-family="Times,serif" font-size="14.00">Style</text>
</g>
<!-- Style&#45;&gt;Project -->
<g id="edge63" class="edge"><title>Style&#45;&gt;Project</title>
<path fill="none" stroke="#0769ed" d="M516.31,-575.308C502.389,-565.465 485.017,-553.181 470.605,-542.991"/>
<ellipse fill="none" stroke="#0769ed" cx="519.907" cy="-577.852" rx="4.00002" ry="4.00002"/>
<polygon fill="#0769ed" stroke="#0769ed" points="470.237,-542.731 464.67,-533.284 466.155,-539.845 462.072,-536.958 462.072,-536.958 462.072,-536.958 466.155,-539.845 459.474,-540.632 470.237,-542.731 470.237,-542.731"/>
</g>
<!-- Theme -->
<g id="node36" class="node"><title>Theme</title>
<ellipse fill="none" stroke="black" cx="868.332" cy="-378" rx="35.6194" ry="18"/>
<text text-anchor="middle" x="868.332" y="-374.3" font-family="Times,serif" font-size="14.00">Theme</text>
</g>
<!-- Theme&#45;&gt;User -->
<g id="edge64" class="edge"><title>Theme&#45;&gt;User</title>
<path fill="none" stroke="#0a1263" d="M888.11,-355.367C895.603,-347.172 904.148,-337.826 911.716,-329.548"/>
<ellipse fill="none" stroke="#0a1263" cx="885.234" cy="-358.513" rx="4.00002" ry="4.00002"/>
<polygon fill="#0a1263" stroke="#0a1263" points="911.859,-329.392 921.928,-325.048 915.233,-325.702 918.607,-322.011 918.607,-322.011 918.607,-322.011 915.233,-325.702 915.286,-318.975 911.859,-329.392 911.859,-329.392"/>
</g>
<!-- User&#45;&gt;Candidate -->
<g id="edge69" class="edge"><title>User&#45;&gt;Candidate</title>
<path fill="none" stroke="#1d776f" d="M898.679,-298.014C787.282,-274.887 430.115,-200.739 298.041,-173.32"/>
<ellipse fill="none" stroke="#1d776f" cx="902.85" cy="-298.879" rx="4.00001" ry="4.00001"/>
<polygon fill="#1d776f" stroke="#1d776f" points="297.977,-173.306 289.1,-166.868 293.081,-172.29 288.185,-171.274 288.185,-171.274 288.185,-171.274 293.081,-172.29 287.271,-175.68 297.977,-173.306 297.977,-173.306"/>
</g>
<!-- User&#45;&gt;CandidateList -->
<g id="edge67" class="edge"><title>User&#45;&gt;CandidateList</title>
<path fill="none" stroke="#0e3177" d="M897.222,-310.537C830.555,-317.567 681.223,-334.821 557.332,-360 496.479,-372.367 482.76,-381.704 422.332,-396 345.482,-414.181 318.275,-395.334 248.332,-432 166.198,-475.057 133.834,-490.75 97.3317,-576 88.5345,-596.545 96.4781,-621.161 105.515,-639.292"/>
<ellipse fill="none" stroke="#0e3177" cx="901.336" cy="-310.107" rx="4" ry="4"/>
<polygon fill="#0e3177" stroke="#0e3177" points="105.528,-639.316 106.293,-650.255 107.893,-643.721 110.258,-648.126 110.258,-648.126 110.258,-648.126 107.893,-643.721 114.223,-645.998 105.528,-639.316 105.528,-639.316"/>
</g>
<!-- User&#45;&gt;Concept -->
<g id="edge68" class="edge"><title>User&#45;&gt;Concept</title>
<path fill="none" stroke="#c337e8" d="M897.049,-305.134C800.136,-304.843 522.117,-299.584 297.332,-252 293.97,-251.288 290.523,-250.411 287.089,-249.434"/>
<ellipse fill="none" stroke="#c337e8" cx="901.056" cy="-305.14" rx="4" ry="4"/>
<polygon fill="#c337e8" stroke="#c337e8" points="287.082,-249.432 278.865,-242.17 282.307,-247.95 277.531,-246.467 277.531,-246.467 277.531,-246.467 282.307,-247.95 276.197,-250.765 287.082,-249.432 287.082,-249.432"/>
</g>
<!-- User&#45;&gt;ConsentLog -->
<g id="edge66" class="edge"><title>User&#45;&gt;ConsentLog</title>
<path fill="none" stroke="#1a0f38" d="M897.845,-300.78C803.255,-289.204 538.869,-256.849 419.795,-242.277"/>
<ellipse fill="none" stroke="#1a0f38" cx="901.92" cy="-301.278" rx="4.00001" ry="4.00001"/>
<polygon fill="#1a0f38" stroke="#1a0f38" points="419.687,-242.264 410.308,-236.582 414.724,-241.656 409.761,-241.049 409.761,-241.049 409.761,-241.049 414.724,-241.656 409.215,-245.516 419.687,-242.264 419.687,-242.264"/>
</g>
<!-- User&#45;&gt;Email -->
<g id="edge65" class="edge"><title>User&#45;&gt;Email</title>
<path fill="none" stroke="#3ddb61" d="M932.332,-279.64C932.332,-274.063 932.332,-268.132 932.332,-262.476"/>
<ellipse fill="none" stroke="#3ddb61" cx="932.332" cy="-283.697" rx="4" ry="4"/>
<polygon fill="#3ddb61" stroke="#3ddb61" points="932.332,-262.104 936.832,-252.104 932.332,-257.104 932.332,-252.104 932.332,-252.104 932.332,-252.104 932.332,-257.104 927.832,-252.104 932.332,-262.104 932.332,-262.104"/>
</g>
<!-- User&#45;&gt;Experience -->
<g id="edge73" class="edge"><title>User&#45;&gt;Experience</title>
<path fill="none" stroke="#9d30a2" d="M929.602,-334.159C926.976,-352.382 921.922,-376.522 912.332,-396 892.529,-436.223 857.271,-474.646 833.356,-498.023"/>
<polygon fill="#9d30a2" stroke="#9d30a2" points="929.608,-334.112 935.347,-324.768 930.246,-329.153 930.884,-324.193 930.884,-324.193 930.884,-324.193 930.246,-329.153 926.421,-323.619 929.608,-334.112 929.608,-334.112"/>
<polygon fill="#9d30a2" stroke="#9d30a2" points="833.234,-498.14 822.906,-501.823 829.629,-501.604 826.023,-505.068 826.023,-505.068 826.023,-505.068 829.629,-501.604 829.141,-508.313 833.234,-498.14 833.234,-498.14"/>
</g>
<!-- User&#45;&gt;Installment -->
<g id="edge70" class="edge"><title>User&#45;&gt;Installment</title>
<path fill="none" stroke="#d0843e" d="M967.098,-300.4C1056.52,-288.567 1295.15,-256.99 1404.8,-242.481"/>
<ellipse fill="none" stroke="#d0843e" cx="962.893" cy="-300.956" rx="4.00001" ry="4.00001"/>
<polygon fill="#d0843e" stroke="#d0843e" points="1405.08,-242.443 1415.59,-245.592 1410.04,-241.787 1415,-241.131 1415,-241.131 1415,-241.131 1410.04,-241.787 1414.41,-236.67 1405.08,-242.443 1405.08,-242.443"/>
</g>
<!-- User&#45;&gt;Narrative -->
<g id="edge74" class="edge"><title>User&#45;&gt;Narrative</title>
<path fill="none" stroke="#c5905d" d="M967.21,-296.639C1019.68,-284.06 1119.01,-260.249 1177.66,-246.188"/>
<polygon fill="#c5905d" stroke="#c5905d" points="967.205,-296.64 956.431,-294.595 962.342,-297.806 957.48,-298.971 957.48,-298.971 957.48,-298.971 962.342,-297.806 958.529,-303.347 967.205,-296.64 967.205,-296.64"/>
<polygon fill="#c5905d" stroke="#c5905d" points="1177.69,-246.181 1188.47,-248.226 1182.55,-245.015 1187.42,-243.85 1187.42,-243.85 1187.42,-243.85 1182.55,-245.015 1186.37,-239.474 1177.69,-246.181 1177.69,-246.181"/>
</g>
<!-- User&#45;&gt;Reaction -->
<g id="edge72" class="edge"><title>User&#45;&gt;Reaction</title>
<path fill="none" stroke="#1fd650" d="M897.053,-309.149C822.982,-314.909 662.314,-334.679 715.332,-396 754.839,-441.695 935.101,-448.771 1025.84,-449.372"/>
<ellipse fill="none" stroke="#1fd650" cx="901.225" cy="-308.839" rx="4" ry="4"/>
<polygon fill="#1fd650" stroke="#1fd650" points="1025.91,-449.372 1035.89,-453.914 1030.91,-449.393 1035.91,-449.414 1035.91,-449.414 1035.91,-449.414 1030.91,-449.393 1035.93,-444.914 1025.91,-449.372 1025.91,-449.372"/>
</g>
<!-- User&#45;&gt;Roster -->
<g id="edge71" class="edge"><title>User&#45;&gt;Roster</title>
<path fill="none" stroke="#df4606" d="M960.555,-290.888C983.324,-279.504 1015.39,-263.471 1039.34,-251.495"/>
<ellipse fill="none" stroke="#df4606" cx="956.869" cy="-292.731" rx="4.00002" ry="4.00002"/>
<polygon fill="#df4606" stroke="#df4606" points="1039.47,-251.433 1050.42,-250.986 1043.94,-249.197 1048.41,-246.961 1048.41,-246.961 1048.41,-246.961 1043.94,-249.197 1046.4,-242.936 1039.47,-251.433 1039.47,-251.433"/>
</g>
<!-- Week&#45;&gt;Behavior -->
<g id="edge75" class="edge"><title>Week&#45;&gt;Behavior</title>
<path fill="none" stroke="#961ad6" d="M1284.33,-135.64C1284.33,-129.348 1284.33,-122.605 1284.33,-116.316"/>
<ellipse fill="none" stroke="#961ad6" cx="1284.33" cy="-139.697" rx="4" ry="4"/>
<ellipse fill="#961ad6" stroke="#961ad6" cx="1284.33" cy="-112.104" rx="4" ry="4"/>
</g>
<!-- Week&#45;&gt;Diagnosis -->
<g id="edge76" class="edge"><title>Week&#45;&gt;Diagnosis</title>
<path fill="none" stroke="#8ad84d" d="M1286.93,-188.263C1291.09,-228.777 1299.23,-307.951 1303.53,-349.712"/>
<ellipse fill="none" stroke="#8ad84d" cx="1286.51" cy="-184.211" rx="4" ry="4"/>
<polygon fill="#8ad84d" stroke="#8ad84d" points="1303.55,-349.902 1300.09,-360.309 1304.06,-354.875 1304.57,-359.849 1304.57,-359.849 1304.57,-359.849 1304.06,-354.875 1309.04,-359.389 1303.55,-349.902 1303.55,-349.902"/>
</g>
</g>
</svg>
