<?xml version="1.0" encoding="UTF-8" standalone="no"?>
<!DOCTYPE svg PUBLIC "-//W3C//DTD SVG 1.1//EN"
 "http://www.w3.org/Graphics/SVG/1.1/DTD/svg11.dtd">
<!-- Generated by graphviz version 2.36.0 (20140111.2315)
 -->
<!-- Title: models_diagram Pages: 1 -->
<svg width="1520pt" height="878pt"
 viewBox="0.00 0.00 1520.00 878.00" xmlns="http://www.w3.org/2000/svg" xmlns:xlink="http://www.w3.org/1999/xlink">
<g id="graph0" class="graph" transform="scale(1 1) rotate(0) translate(4 874)">
<title>models_diagram</title>
<polygon fill="none" stroke="none" points="-4,4 -4,-874 1516,-874 1516,4 -4,4"/>
<!-- _diagram_info -->
<g id="node1" class="node"><title>_diagram_info</title>
<text text-anchor="start" x="417" y="-855.6" font-family="Times,serif" font-size="13.00">Models diagram</text>
<text text-anchor="start" x="417" y="-841.6" font-family="Times,serif" font-size="13.00">Date: Aug 05 2017 &#45; 10:56</text>
<text text-anchor="start" x="417" y="-827.6" font-family="Times,serif" font-size="13.00">Migration version: 20170803080009</text>
<text text-anchor="start" x="417" y="-813.6" font-family="Times,serif" font-size="13.00">Generated by RailRoady 1.5.2</text>
<text text-anchor="start" x="417" y="-799.6" font-family="Times,serif" font-size="13.00">http://railroady.prestonlee.com</text>
</g>
<!-- Assessment -->
<g id="node2" class="node"><title>Assessment</title>
<ellipse fill="none" stroke="black" cx="694" cy="-831" rx="52.4675" ry="18"/>
<text text-anchor="middle" x="694" y="-827.3" font-family="Times,serif" font-size="14.00">Assessment</text>
</g>
<!-- Factor -->
<g id="node16" class="node"><title>Factor</title>
<ellipse fill="none" stroke="black" cx="1222" cy="-450" rx="33.2209" ry="18"/>
<text text-anchor="middle" x="1222" y="-446.3" font-family="Times,serif" font-size="14.00">Factor</text>
</g>
<!-- Assessment&#45;&gt;Factor -->
<g id="edge2" class="edge"><title>Assessment&#45;&gt;Factor</title>
<path fill="none" stroke="#fc7fc9" d="M723.025,-808.748C733.024,-802.39 744.587,-796.043 756,-792 871.358,-751.131 910.219,-785.476 1029,-756 1207.52,-711.698 1311.97,-763.005 1417,-612 1465.38,-542.437 1329.97,-486.25 1260.4,-462.811"/>
<polygon fill="#fc7fc9" stroke="#fc7fc9" points="723.017,-808.753 712.196,-810.529 718.85,-811.516 714.683,-814.279 714.683,-814.279 714.683,-814.279 718.85,-811.516 717.17,-818.03 723.017,-808.753 723.017,-808.753"/>
<polygon fill="#fc7fc9" stroke="#fc7fc9" points="1260.14,-462.726 1252.05,-455.32 1255.39,-461.159 1250.64,-459.593 1250.64,-459.593 1250.64,-459.593 1255.39,-461.159 1249.23,-463.867 1260.14,-462.726 1260.14,-462.726"/>
</g>
<!-- Group -->
<g id="node19" class="node"><title>Group</title>
<ellipse fill="none" stroke="black" cx="694" cy="-738" rx="33.2209" ry="18"/>
<text text-anchor="middle" x="694" y="-734.3" font-family="Times,serif" font-size="14.00">Group</text>
</g>
<!-- Assessment&#45;&gt;Group -->
<g id="edge4" class="edge"><title>Assessment&#45;&gt;Group</title>
<path fill="none" stroke="#38e600" d="M694,-802.549C694,-791.083 694,-777.792 694,-766.339"/>
<polygon fill="#38e600" stroke="#38e600" points="694,-802.884 689.5,-812.884 694,-807.884 694,-812.884 694,-812.884 694,-812.884 694,-807.884 698.5,-812.884 694,-802.884 694,-802.884"/>
<polygon fill="#38e600" stroke="#38e600" points="694,-766.04 698.5,-756.04 694,-761.04 694,-756.04 694,-756.04 694,-756.04 694,-761.04 689.5,-756.04 694,-766.04 694,-766.04"/>
</g>
<!-- Installment -->
<g id="node23" class="node"><title>Installment</title>
<ellipse fill="none" stroke="black" cx="50" cy="-234" rx="50.5427" ry="18"/>
<text text-anchor="middle" x="50" y="-230.3" font-family="Times,serif" font-size="14.00">Installment</text>
</g>
<!-- Assessment&#45;&gt;Installment -->
<g id="edge1" class="edge"><title>Assessment&#45;&gt;Installment</title>
<path fill="none" stroke="#7c04ab" d="M665.894,-809.992C655.38,-803.347 643.055,-796.503 631,-792 500.151,-743.126 15,-806.679 15,-667 15,-667 15,-667 15,-377 15,-335.843 29.032,-289.876 39.3265,-261.69"/>
<ellipse fill="none" stroke="#7c04ab" cx="669.507" cy="-812.346" rx="4.00002" ry="4.00002"/>
<polygon fill="#7c04ab" stroke="#7c04ab" points="39.3939,-261.511 47.1287,-253.738 41.1556,-256.831 42.9172,-252.152 42.9172,-252.152 42.9172,-252.152 41.1556,-256.831 38.7058,-250.567 39.3939,-261.511 39.3939,-261.511"/>
</g>
<!-- User -->
<g id="node35" class="node"><title>User</title>
<ellipse fill="none" stroke="black" cx="577" cy="-306" rx="26.949" ry="18"/>
<text text-anchor="middle" x="577" y="-302.3" font-family="Times,serif" font-size="14.00">User</text>
</g>
<!-- Assessment&#45;&gt;User -->
<g id="edge3" class="edge"><title>Assessment&#45;&gt;User</title>
<path fill="none" stroke="#ddba68" d="M662.223,-809.473C652.398,-803.499 641.416,-797.19 631,-792 450.612,-702.117 291.161,-738.086 254,-540 251.05,-524.274 244.956,-517.199 254,-504 279.053,-467.438 308.703,-490.312 347,-468 412.496,-429.842 416.045,-402.22 479,-360 500.537,-345.557 526.392,-331.706 546.137,-321.788"/>
<polygon fill="#ddba68" stroke="#ddba68" points="662.368,-809.563 668.505,-818.651 666.62,-812.193 670.872,-814.824 670.872,-814.824 670.872,-814.824 666.62,-812.193 673.239,-810.997 662.368,-809.563 662.368,-809.563"/>
<polygon fill="#ddba68" stroke="#ddba68" points="546.334,-321.691 557.292,-321.282 550.814,-319.47 555.294,-317.25 555.294,-317.25 555.294,-317.25 550.814,-319.47 553.295,-313.218 546.334,-321.691 546.334,-321.691"/>
</g>
<!-- Behavior -->
<g id="node3" class="node"><title>Behavior</title>
<ellipse fill="none" stroke="black" cx="227" cy="-90" rx="42.3456" ry="18"/>
<text text-anchor="middle" x="227" y="-86.3" font-family="Times,serif" font-size="14.00">Behavior</text>
</g>
<!-- Diagnosis -->
<g id="node13" class="node"><title>Diagnosis</title>
<ellipse fill="none" stroke="black" cx="203" cy="-378" rx="46.2191" ry="18"/>
<text text-anchor="middle" x="203" y="-374.3" font-family="Times,serif" font-size="14.00">Diagnosis</text>
</g>
<!-- Behavior&#45;&gt;Diagnosis -->
<g id="edge7" class="edge"><title>Behavior&#45;&gt;Diagnosis</title>
<path fill="none" stroke="#798395" d="M204.722,-113.015C197.268,-121.867 189.874,-132.661 186,-144 161.6,-215.42 181.654,-306.12 194.428,-350.335"/>
<ellipse fill="none" stroke="#798395" cx="207.458" cy="-109.926" rx="4.00002" ry="4.00002"/>
<polygon fill="#798395" stroke="#798395" points="194.465,-350.46 193.023,-361.33 195.899,-355.25 197.333,-360.039 197.333,-360.039 197.333,-360.039 195.899,-355.25 201.644,-358.749 194.465,-350.46 194.465,-350.46"/>
</g>
<!-- Reaction -->
<g id="node28" class="node"><title>Reaction</title>
<ellipse fill="none" stroke="black" cx="296" cy="-450" rx="42.3701" ry="18"/>
<text text-anchor="middle" x="296" y="-446.3" font-family="Times,serif" font-size="14.00">Reaction</text>
</g>
<!-- Behavior&#45;&gt;Reaction -->
<g id="edge6" class="edge"><title>Behavior&#45;&gt;Reaction</title>
<path fill="none" stroke="#3c31a6" d="M200.842,-111.423C171.812,-136.599 129,-182.317 129,-233 129,-307 129,-307 129,-307 129,-347.447 121.372,-365.555 148,-396 172.401,-423.898 212.562,-437.112 244.895,-443.371"/>
<ellipse fill="none" stroke="#3c31a6" cx="204.115" cy="-108.654" rx="4.00002" ry="4.00002"/>
<polygon fill="#3c31a6" stroke="#3c31a6" points="245.24,-443.431 254.307,-449.6 250.164,-444.3 255.089,-445.168 255.089,-445.168 255.089,-445.168 250.164,-444.3 255.87,-440.736 245.24,-443.431 245.24,-443.431"/>
</g>
<!-- Scenario -->
<g id="node31" class="node"><title>Scenario</title>
<ellipse fill="none" stroke="black" cx="276" cy="-18" rx="41.394" ry="18"/>
<text text-anchor="middle" x="276" y="-14.3" font-family="Times,serif" font-size="14.00">Scenario</text>
</g>
<!-- Behavior&#45;&gt;Scenario -->
<g id="edge5" class="edge"><title>Behavior&#45;&gt;Scenario</title>
<path fill="none" stroke="#f10023" d="M243.231,-65.8123C248.119,-58.8305 253.503,-51.1383 258.471,-44.0419"/>
<ellipse fill="none" stroke="#f10023" cx="240.906" cy="-69.134" rx="4.00002" ry="4.00002"/>
<polygon fill="#f10023" stroke="#f10023" points="258.736,-43.6623 268.158,-38.0505 261.604,-39.5661 264.471,-35.4699 264.471,-35.4699 264.471,-35.4699 261.604,-39.5661 260.784,-32.8893 258.736,-43.6623 258.736,-43.6623"/>
</g>
<!-- BingoGame -->
<g id="node4" class="node"><title>BingoGame</title>
<ellipse fill="none" stroke="black" cx="1036" cy="-450" rx="53.4184" ry="18"/>
<text text-anchor="middle" x="1036" y="-446.3" font-family="Times,serif" font-size="14.00">BingoGame</text>
</g>
<!-- Candidate -->
<g id="node5" class="node"><title>Candidate</title>
<ellipse fill="none" stroke="black" cx="1156" cy="-162" rx="46.2191" ry="18"/>
<text text-anchor="middle" x="1156" y="-158.3" font-family="Times,serif" font-size="14.00">Candidate</text>
</g>
<!-- BingoGame&#45;&gt;Candidate -->
<g id="edge9" class="edge"><title>BingoGame&#45;&gt;Candidate</title>
<path fill="none" stroke="#c014b4" d="M1051.72,-423.224C1073.53,-386.456 1112.87,-316.272 1136,-252 1143.27,-231.79 1148.45,-208.015 1151.72,-190.124"/>
<polygon fill="#c014b4" stroke="#c014b4" points="1051.46,-423.671 1042.46,-429.942 1048.89,-427.962 1046.32,-432.252 1046.32,-432.252 1046.32,-432.252 1048.89,-427.962 1050.18,-434.563 1051.46,-423.671 1051.46,-423.671"/>
<polygon fill="#c014b4" stroke="#c014b4" points="1151.75,-189.939 1157.89,-180.857 1152.6,-185.012 1153.46,-180.086 1153.46,-180.086 1153.46,-180.086 1152.6,-185.012 1149.03,-179.316 1151.75,-189.939 1151.75,-189.939"/>
</g>
<!-- CandidateList -->
<g id="node7" class="node"><title>CandidateList</title>
<ellipse fill="none" stroke="black" cx="872" cy="-666" rx="59.1941" ry="18"/>
<text text-anchor="middle" x="872" y="-662.3" font-family="Times,serif" font-size="14.00">CandidateList</text>
</g>
<!-- BingoGame&#45;&gt;CandidateList -->
<g id="edge8" class="edge"><title>BingoGame&#45;&gt;CandidateList</title>
<path fill="none" stroke="#53080e" d="M1031.32,-476.582C1023.72,-511.378 1005.62,-573.669 968,-612 953.711,-626.56 934.564,-638.217 917.13,-646.851"/>
<ellipse fill="none" stroke="#53080e" cx="1032.21" cy="-472.276" rx="4.00001" ry="4.00001"/>
<polygon fill="#53080e" stroke="#53080e" points="916.7,-647.054 905.736,-647.268 912.181,-649.195 907.662,-651.335 907.662,-651.335 907.662,-651.335 912.181,-649.195 909.588,-655.402 916.7,-647.054 916.7,-647.054"/>
</g>
<!-- Concept -->
<g id="node9" class="node"><title>Concept</title>
<ellipse fill="none" stroke="black" cx="1224" cy="-234" rx="39.9464" ry="18"/>
<text text-anchor="middle" x="1224" y="-230.3" font-family="Times,serif" font-size="14.00">Concept</text>
</g>
<!-- BingoGame&#45;&gt;Concept -->
<g id="edge10" class="edge"><title>BingoGame&#45;&gt;Concept</title>
<path fill="none" stroke="#be7e04" d="M1092.57,-438.235C1119.21,-430.534 1149.55,-417.569 1170,-396 1205.3,-358.778 1217.56,-297.777 1221.79,-262.517"/>
<polygon fill="#be7e04" stroke="#be7e04" points="1092.23,-438.328 1081.4,-436.591 1087.4,-439.631 1082.58,-440.935 1082.58,-440.935 1082.58,-440.935 1087.4,-439.631 1083.75,-445.28 1092.23,-438.328 1092.23,-438.328"/>
<polygon fill="#be7e04" stroke="#be7e04" points="1221.81,-262.399 1227.34,-252.932 1222.34,-257.427 1222.87,-252.455 1222.87,-252.455 1222.87,-252.455 1222.34,-257.427 1218.39,-251.978 1221.81,-262.399 1221.81,-262.399"/>
</g>
<!-- CandidateFeedback -->
<g id="node6" class="node"><title>CandidateFeedback</title>
<ellipse fill="none" stroke="black" cx="922" cy="-234" rx="79.4147" ry="18"/>
<text text-anchor="middle" x="922" y="-230.3" font-family="Times,serif" font-size="14.00">CandidateFeedback</text>
</g>
<!-- CandidateFeedback&#45;&gt;Candidate -->
<g id="edge11" class="edge"><title>CandidateFeedback&#45;&gt;Candidate</title>
<path fill="none" stroke="#db6919" d="M975.757,-216.919C1016.54,-204.72 1071.97,-188.137 1110.55,-176.596"/>
<ellipse fill="none" stroke="#db6919" cx="971.784" cy="-218.107" rx="4.00001" ry="4.00001"/>
<polygon fill="#db6919" stroke="#db6919" points="1110.89,-176.495 1121.76,-177.94 1115.68,-175.062 1120.47,-173.629 1120.47,-173.629 1120.47,-173.629 1115.68,-175.062 1119.18,-169.318 1110.89,-176.495 1110.89,-176.495"/>
</g>
<!-- CandidateList&#45;&gt;Candidate -->
<g id="edge12" class="edge"><title>CandidateList&#45;&gt;Candidate</title>
<path fill="none" stroke="#f68dad" d="M922.325,-651.556C928.582,-650.194 934.916,-648.961 941,-648 1051.03,-630.613 1349.93,-676.151 1441,-612 1504.94,-566.964 1512,-529.205 1512,-451 1512,-451 1512,-451 1512,-305 1512,-240.171 1305.75,-191.764 1207.23,-172.338"/>
<ellipse fill="none" stroke="#f68dad" cx="918.367" cy="-652.454" rx="4.00001" ry="4.00001"/>
<polygon fill="#f68dad" stroke="#f68dad" points="1207,-172.294 1198.04,-165.968 1202.09,-171.34 1197.19,-170.385 1197.19,-170.385 1197.19,-170.385 1202.09,-171.34 1196.33,-174.802 1207,-172.294 1207,-172.294"/>
</g>
<!-- CandidateList&#45;&gt;Concept -->
<g id="edge13" class="edge"><title>CandidateList&#45;&gt;Concept</title>
<path fill="none" stroke="#6b4b83" d="M924.416,-651.127C929.989,-649.94 935.594,-648.864 941,-648 993.375,-639.627 1377.05,-646.893 1417,-612 1447.46,-585.391 1436,-563.447 1436,-523 1436,-523 1436,-523 1436,-377 1436,-297.9 1332.86,-260.061 1270.46,-244.406"/>
<polygon fill="#6b4b83" stroke="#6b4b83" points="924.226,-651.17 913.483,-648.974 919.348,-652.267 914.47,-653.364 914.47,-653.364 914.47,-653.364 919.348,-652.267 915.458,-657.754 924.226,-651.17 924.226,-651.17"/>
<polygon fill="#6b4b83" stroke="#6b4b83" points="1270.17,-244.335 1261.5,-237.619 1265.31,-243.165 1260.44,-241.994 1260.44,-241.994 1260.44,-241.994 1265.31,-243.165 1259.39,-246.369 1270.17,-244.335 1270.17,-244.335"/>
</g>
<!-- Course -->
<g id="node12" class="node"><title>Course</title>
<ellipse fill="none" stroke="black" cx="696" cy="-594" rx="35.6194" ry="18"/>
<text text-anchor="middle" x="696" y="-590.3" font-family="Times,serif" font-size="14.00">Course</text>
</g>
<!-- CandidateList&#45;&gt;Course -->
<g id="edge14" class="edge"><title>CandidateList&#45;&gt;Course</title>
<path fill="none" stroke="#3f134b" d="M829.497,-648.095C799.188,-636.041 758.945,-620.035 730.595,-608.76"/>
<ellipse fill="none" stroke="#3f134b" cx="833.511" cy="-649.692" rx="4.00001" ry="4.00001"/>
<ellipse fill="#3f134b" stroke="#3f134b" cx="726.65" cy="-607.19" rx="4.00001" ry="4.00001"/>
</g>
<!-- CipCode -->
<g id="node8" class="node"><title>CipCode</title>
<ellipse fill="none" stroke="black" cx="315" cy="-522" rx="42.3701" ry="18"/>
<text text-anchor="middle" x="315" y="-518.3" font-family="Times,serif" font-size="14.00">CipCode</text>
</g>
<!-- CipCode&#45;&gt;User -->
<g id="edge15" class="edge"><title>CipCode&#45;&gt;User</title>
<path fill="none" stroke="#cf5b25" d="M354.739,-507.58C393.995,-494.114 449.394,-474.469 458,-468 507.267,-430.964 545.379,-367.986 564.151,-332.776"/>
<ellipse fill="none" stroke="#cf5b25" cx="350.906" cy="-508.89" rx="4.00001" ry="4.00001"/>
<polygon fill="#cf5b25" stroke="#cf5b25" points="564.299,-332.492 572.915,-325.708 566.612,-328.059 568.925,-323.626 568.925,-323.626 568.925,-323.626 566.612,-328.059 564.936,-321.544 564.299,-332.492 564.299,-332.492"/>
</g>
<!-- Concept&#45;&gt;Candidate -->
<g id="edge16" class="edge"><title>Concept&#45;&gt;Candidate</title>
<path fill="none" stroke="#5d3eef" d="M1202.9,-211.281C1195.38,-203.539 1186.87,-194.78 1179.19,-186.868"/>
<ellipse fill="none" stroke="#5d3eef" cx="1205.78" cy="-214.247" rx="4.00002" ry="4.00002"/>
<polygon fill="#5d3eef" stroke="#5d3eef" points="1178.81,-186.48 1175.07,-176.171 1175.33,-182.893 1171.84,-179.307 1171.84,-179.307 1171.84,-179.307 1175.33,-182.893 1168.61,-182.443 1178.81,-186.48 1178.81,-186.48"/>
</g>
<!-- ConsentForm -->
<g id="node10" class="node"><title>ConsentForm</title>
<ellipse fill="none" stroke="black" cx="1349" cy="-594" rx="59.2173" ry="18"/>
<text text-anchor="middle" x="1349" y="-590.3" font-family="Times,serif" font-size="14.00">ConsentForm</text>
</g>
<!-- ConsentLog -->
<g id="node11" class="node"><title>ConsentLog</title>
<ellipse fill="none" stroke="black" cx="1074" cy="-234" rx="53.4184" ry="18"/>
<text text-anchor="middle" x="1074" y="-230.3" font-family="Times,serif" font-size="14.00">ConsentLog</text>
</g>
<!-- ConsentForm&#45;&gt;ConsentLog -->
<g id="edge18" class="edge"><title>ConsentForm&#45;&gt;ConsentLog</title>
<path fill="none" stroke="#448b3c" d="M1339.57,-568.088C1329.82,-540.048 1316,-492.925 1316,-451 1316,-451 1316,-451 1316,-377 1316,-292.383 1204.58,-257.219 1132.94,-243.355"/>
<ellipse fill="none" stroke="#448b3c" cx="1340.98" cy="-572.043" rx="4.00001" ry="4.00001"/>
<polygon fill="#448b3c" stroke="#448b3c" points="1132.52,-243.276 1123.5,-237.036 1127.6,-242.368 1122.68,-241.461 1122.68,-241.461 1122.68,-241.461 1127.6,-242.368 1121.86,-245.886 1132.52,-243.276 1132.52,-243.276"/>
</g>
<!-- Project -->
<g id="node26" class="node"><title>Project</title>
<ellipse fill="none" stroke="black" cx="1112" cy="-522" rx="35.6194" ry="18"/>
<text text-anchor="middle" x="1112" y="-518.3" font-family="Times,serif" font-size="14.00">Project</text>
</g>
<!-- ConsentForm&#45;&gt;Project -->
<g id="edge17" class="edge"><title>ConsentForm&#45;&gt;Project</title>
<path fill="none" stroke="#7baab9" d="M1300.27,-578.607C1256.33,-565.629 1192.51,-546.779 1151.63,-534.704"/>
<ellipse fill="none" stroke="#7baab9" cx="1304.15" cy="-579.754" rx="4.00001" ry="4.00001"/>
<polygon fill="#7baab9" stroke="#7baab9" points="1151.6,-534.695 1143.28,-527.547 1146.8,-533.279 1142.01,-531.863 1142.01,-531.863 1142.01,-531.863 1146.8,-533.279 1140.73,-536.178 1151.6,-534.695 1151.6,-534.695"/>
</g>
<!-- Course&#45;&gt;BingoGame -->
<g id="edge21" class="edge"><title>Course&#45;&gt;BingoGame</title>
<path fill="none" stroke="#5646f4" d="M732.244,-580.648C736.873,-579.08 741.547,-577.499 746,-576 793.952,-559.856 807.17,-559.156 854,-540 905.849,-518.791 963.628,-489.524 999.89,-470.434"/>
<ellipse fill="none" stroke="#5646f4" cx="728.334" cy="-581.976" rx="4.00001" ry="4.00001"/>
<polygon fill="#5646f4" stroke="#5646f4" points="1000.24,-470.251 1011.18,-469.551 1004.66,-467.912 1009.08,-465.573 1009.08,-465.573 1009.08,-465.573 1004.66,-467.912 1006.97,-461.596 1000.24,-470.251 1000.24,-470.251"/>
</g>
<!-- Experience -->
<g id="node15" class="node"><title>Experience</title>
<ellipse fill="none" stroke="black" cx="516" cy="-522" rx="50.0684" ry="18"/>
<text text-anchor="middle" x="516" y="-518.3" font-family="Times,serif" font-size="14.00">Experience</text>
</g>
<!-- Course&#45;&gt;Experience -->
<g id="edge23" class="edge"><title>Course&#45;&gt;Experience</title>
<path fill="none" stroke="#7cc49e" d="M661.167,-579.454C631.732,-568.007 589.479,-551.575 558.143,-539.389"/>
<ellipse fill="none" stroke="#7cc49e" cx="664.934" cy="-580.919" rx="4.00001" ry="4.00001"/>
<polygon fill="#7cc49e" stroke="#7cc49e" points="558.114,-539.378 550.425,-531.559 553.454,-537.566 548.794,-535.753 548.794,-535.753 548.794,-535.753 553.454,-537.566 547.163,-539.947 558.114,-539.378 558.114,-539.378"/>
</g>
<!-- Course&#45;&gt;Project -->
<g id="edge19" class="edge"><title>Course&#45;&gt;Project</title>
<path fill="none" stroke="#d4d451" d="M736.587,-584.89C751.48,-581.985 768.487,-578.751 784,-576 885.685,-557.967 1005.56,-539.235 1068.46,-529.601"/>
<ellipse fill="none" stroke="#d4d451" cx="732.478" cy="-585.695" rx="4.00001" ry="4.00001"/>
<polygon fill="#d4d451" stroke="#d4d451" points="1068.53,-529.59 1079.1,-532.527 1073.48,-528.834 1078.42,-528.079 1078.42,-528.079 1078.42,-528.079 1073.48,-528.834 1077.74,-523.631 1068.53,-529.59 1068.53,-529.59"/>
</g>
<!-- Roster -->
<g id="node30" class="node"><title>Roster</title>
<ellipse fill="none" stroke="black" cx="458" cy="-234" rx="33.1991" ry="18"/>
<text text-anchor="middle" x="458" y="-230.3" font-family="Times,serif" font-size="14.00">Roster</text>
</g>
<!-- Course&#45;&gt;Roster -->
<g id="edge20" class="edge"><title>Course&#45;&gt;Roster</title>
<path fill="none" stroke="#8b0575" d="M726.018,-575.936C789.936,-537.437 928.936,-440.876 869,-360 846.269,-329.328 596.978,-267.756 498.082,-244.334"/>
<ellipse fill="none" stroke="#8b0575" cx="722.416" cy="-578.079" rx="4.00002" ry="4.00002"/>
<polygon fill="#8b0575" stroke="#8b0575" points="497.897,-244.291 489.198,-237.614 493.031,-243.142 488.165,-241.994 488.165,-241.994 488.165,-241.994 493.031,-243.142 487.131,-246.374 497.897,-244.291 497.897,-244.291"/>
</g>
<!-- Course&#45;&gt;User -->
<g id="edge22" class="edge"><title>Course&#45;&gt;User</title>
<path fill="none" stroke="#60403a" d="M692.615,-565.832C686.039,-520.525 668.554,-427.827 629,-360 621.827,-347.699 611.161,-336.145 601.353,-326.984"/>
<polygon fill="#60403a" stroke="#60403a" points="692.621,-565.872 689.535,-576.395 693.306,-570.825 693.992,-575.778 693.992,-575.778 693.992,-575.778 693.306,-570.825 698.45,-575.16 692.621,-565.872 692.621,-565.872"/>
<polygon fill="#60403a" stroke="#60403a" points="601.205,-326.852 596.756,-316.829 597.48,-323.517 593.755,-320.182 593.755,-320.182 593.755,-320.182 597.48,-323.517 590.753,-323.534 601.205,-326.852 601.205,-326.852"/>
</g>
<!-- Diagnosis&#45;&gt;User -->
<g id="edge24" class="edge"><title>Diagnosis&#45;&gt;User</title>
<path fill="none" stroke="#235087" d="M251.716,-367.882C328.588,-353.494 476.123,-325.881 542.797,-313.402"/>
<ellipse fill="none" stroke="#235087" cx="247.668" cy="-368.64" rx="4.00001" ry="4.00001"/>
<ellipse fill="#235087" stroke="#235087" cx="546.964" cy="-312.622" rx="4.00001" ry="4.00001"/>
</g>
<!-- Email -->
<g id="node14" class="node"><title>Email</title>
<ellipse fill="none" stroke="black" cx="577" cy="-234" rx="32.2457" ry="18"/>
<text text-anchor="middle" x="577" y="-230.3" font-family="Times,serif" font-size="14.00">Email</text>
</g>
<!-- Experience&#45;&gt;Reaction -->
<g id="edge25" class="edge"><title>Experience&#45;&gt;Reaction</title>
<path fill="none" stroke="#7a8289" d="M472.03,-507.009C433.227,-494.663 377.023,-476.78 338.629,-464.564"/>
<ellipse fill="none" stroke="#7a8289" cx="475.86" cy="-508.228" rx="4.00001" ry="4.00001"/>
<polygon fill="#7a8289" stroke="#7a8289" points="338.317,-464.465 330.152,-457.144 333.552,-462.948 328.788,-461.432 328.788,-461.432 328.788,-461.432 333.552,-462.948 327.423,-465.721 338.317,-464.465 338.317,-464.465"/>
</g>
<!-- FactorPack -->
<g id="node17" class="node"><title>FactorPack</title>
<ellipse fill="none" stroke="black" cx="1222" cy="-594" rx="50.0684" ry="18"/>
<text text-anchor="middle" x="1222" y="-590.3" font-family="Times,serif" font-size="14.00">FactorPack</text>
</g>
<!-- FactorPack&#45;&gt;Factor -->
<g id="edge26" class="edge"><title>FactorPack&#45;&gt;Factor</title>
<path fill="none" stroke="#5edede" d="M1222,-567.558C1222,-542.444 1222,-504.164 1222,-478.393"/>
<ellipse fill="none" stroke="#5edede" cx="1222" cy="-571.871" rx="4" ry="4"/>
<polygon fill="#5edede" stroke="#5edede" points="1222,-478.189 1226.5,-468.189 1222,-473.189 1222,-468.189 1222,-468.189 1222,-468.189 1222,-473.189 1217.5,-468.189 1222,-478.189 1222,-478.189"/>
</g>
<!-- FactorPack&#45;&gt;Project -->
<g id="edge27" class="edge"><title>FactorPack&#45;&gt;Project</title>
<path fill="none" stroke="#0e0b0a" d="M1191.32,-573.474C1175.88,-563.652 1157.25,-551.793 1141.92,-542.039"/>
<ellipse fill="none" stroke="#0e0b0a" cx="1195.03" cy="-575.836" rx="4.00002" ry="4.00002"/>
<polygon fill="#0e0b0a" stroke="#0e0b0a" points="1141.76,-541.939 1135.74,-532.773 1137.54,-539.254 1133.32,-536.57 1133.32,-536.57 1133.32,-536.57 1137.54,-539.254 1130.91,-540.366 1141.76,-541.939 1141.76,-541.939"/>
</g>
<!-- Gender -->
<g id="node18" class="node"><title>Gender</title>
<ellipse fill="none" stroke="black" cx="412" cy="-522" rx="36.096" ry="18"/>
<text text-anchor="middle" x="412" y="-518.3" font-family="Times,serif" font-size="14.00">Gender</text>
</g>
<!-- Gender&#45;&gt;User -->
<g id="edge28" class="edge"><title>Gender&#45;&gt;User</title>
<path fill="none" stroke="#733e26" d="M446.512,-506.443C472.432,-494.938 505.096,-479.032 515,-468 549.817,-429.219 565.947,-368.778 572.708,-334.037"/>
<ellipse fill="none" stroke="#733e26" cx="442.724" cy="-508.106" rx="4.00002" ry="4.00002"/>
<polygon fill="#733e26" stroke="#733e26" points="572.72,-333.97 578.943,-324.941 573.618,-329.051 574.516,-324.133 574.516,-324.133 574.516,-324.133 573.618,-329.051 570.089,-323.324 572.72,-333.97 572.72,-333.97"/>
</g>
<!-- Group&#45;&gt;CandidateList -->
<g id="edge31" class="edge"><title>Group&#45;&gt;CandidateList</title>
<path fill="none" stroke="#ca6b0d" d="M727.876,-723.678C756.103,-712.578 796.532,-696.679 827.39,-684.543"/>
<ellipse fill="none" stroke="#ca6b0d" cx="723.987" cy="-725.207" rx="4.00001" ry="4.00001"/>
<polygon fill="#ca6b0d" stroke="#ca6b0d" points="827.739,-684.406 838.692,-684.934 832.392,-682.576 837.045,-680.746 837.045,-680.746 837.045,-680.746 832.392,-682.576 835.398,-676.558 827.739,-684.406 827.739,-684.406"/>
</g>
<!-- Group&#45;&gt;CipCode -->
<g id="edge35" class="edge"><title>Group&#45;&gt;CipCode</title>
<path fill="none" stroke="#186f2a" d="M651.82,-731.941C609.378,-725.509 543.073,-711.726 492,-684 425.925,-648.131 364.808,-582.506 334.665,-547.128"/>
<polygon fill="#186f2a" stroke="#186f2a" points="651.913,-731.954 661.166,-737.839 656.861,-732.67 661.81,-733.385 661.81,-733.385 661.81,-733.385 656.861,-732.67 662.454,-728.932 651.913,-731.954 651.913,-731.954"/>
<polygon fill="#186f2a" stroke="#186f2a" points="334.462,-546.887 331.47,-536.338 331.244,-543.061 328.026,-539.234 328.026,-539.234 328.026,-539.234 331.244,-543.061 324.582,-542.13 334.462,-546.887 334.462,-546.887"/>
</g>
<!-- Group&#45;&gt;Gender -->
<g id="edge36" class="edge"><title>Group&#45;&gt;Gender</title>
<path fill="none" stroke="#afcaa0" d="M652.434,-730.178C618.408,-723.029 570.302,-709.207 535,-684 484.106,-647.66 444.579,-584.145 425.177,-548.726"/>
<polygon fill="#afcaa0" stroke="#afcaa0" points="652.705,-730.232 661.632,-736.601 657.609,-731.21 662.512,-732.188 662.512,-732.188 662.512,-732.188 657.609,-731.21 663.392,-727.775 652.705,-730.232 652.705,-730.232"/>
<polygon fill="#afcaa0" stroke="#afcaa0" points="424.97,-548.341 424.211,-537.401 422.608,-543.934 420.245,-539.527 420.245,-539.527 420.245,-539.527 422.608,-543.934 416.279,-541.654 424.97,-548.341 424.97,-548.341"/>
</g>
<!-- GroupRevision -->
<g id="node20" class="node"><title>GroupRevision</title>
<ellipse fill="none" stroke="black" cx="1014" cy="-666" rx="64.0172" ry="18"/>
<text text-anchor="middle" x="1014" y="-662.3" font-family="Times,serif" font-size="14.00">GroupRevision</text>
</g>
<!-- Group&#45;&gt;GroupRevision -->
<g id="edge30" class="edge"><title>Group&#45;&gt;GroupRevision</title>
<path fill="none" stroke="#1a90b0" d="M732.345,-728.907C780.77,-718.649 866.631,-700.33 940,-684 945.308,-682.819 950.826,-681.577 956.35,-680.324"/>
<ellipse fill="none" stroke="#1a90b0" cx="728.24" cy="-729.777" rx="4.00001" ry="4.00001"/>
<polygon fill="#1a90b0" stroke="#1a90b0" points="956.503,-680.289 967.252,-682.457 961.378,-679.179 966.253,-678.069 966.253,-678.069 966.253,-678.069 961.378,-679.179 965.254,-673.682 956.503,-680.289 956.503,-680.289"/>
</g>
<!-- HomeCountry -->
<g id="node21" class="node"><title>HomeCountry</title>
<ellipse fill="none" stroke="black" cx="694" cy="-666" rx="61.6163" ry="18"/>
<text text-anchor="middle" x="694" y="-662.3" font-family="Times,serif" font-size="14.00">HomeCountry</text>
</g>
<!-- Group&#45;&gt;HomeCountry -->
<g id="edge34" class="edge"><title>Group&#45;&gt;HomeCountry</title>
<path fill="none" stroke="#3157ed" d="M694,-709.665C694,-704.687 694,-699.491 694,-694.507"/>
<polygon fill="#3157ed" stroke="#3157ed" points="694,-709.697 689.5,-719.697 694,-714.697 694,-719.697 694,-719.697 694,-719.697 694,-714.697 698.5,-719.697 694,-709.697 694,-709.697"/>
<polygon fill="#3157ed" stroke="#3157ed" points="694,-694.104 698.5,-684.104 694,-689.104 694,-684.104 694,-684.104 694,-684.104 694,-689.104 689.5,-684.104 694,-694.104 694,-694.104"/>
</g>
<!-- HomeState -->
<g id="node22" class="node"><title>HomeState</title>
<ellipse fill="none" stroke="black" cx="876" cy="-594" rx="50.0684" ry="18"/>
<text text-anchor="middle" x="876" y="-590.3" font-family="Times,serif" font-size="14.00">HomeState</text>
</g>
<!-- Group&#45;&gt;HomeState -->
<g id="edge33" class="edge"><title>Group&#45;&gt;HomeState</title>
<path fill="none" stroke="#b2a209" d="M721.577,-717.086C734.664,-707.393 750.382,-695.394 764,-684 782.091,-668.862 784.758,-662.955 803,-648 816.413,-637.004 831.882,-625.604 845.118,-616.206"/>
<polygon fill="#b2a209" stroke="#b2a209" points="721.462,-717.171 710.739,-719.468 717.433,-720.132 713.405,-723.094 713.405,-723.094 713.405,-723.094 717.433,-720.132 716.07,-726.719 721.462,-717.171 721.462,-717.171"/>
<polygon fill="#b2a209" stroke="#b2a209" points="845.271,-616.099 856.039,-614.025 849.36,-613.222 853.45,-610.344 853.45,-610.344 853.45,-610.344 849.36,-613.222 850.86,-606.664 845.271,-616.099 845.271,-616.099"/>
</g>
<!-- Group&#45;&gt;Installment -->
<g id="edge32" class="edge"><title>Group&#45;&gt;Installment</title>
<path fill="none" stroke="#3315d5" d="M652.21,-737.76C587.003,-737.358 458.529,-730.101 362,-684 180.054,-597.104 85.2406,-345.284 58.2299,-262.057"/>
<ellipse fill="none" stroke="#3315d5" cx="656.602" cy="-737.768" rx="4" ry="4"/>
<polygon fill="#3315d5" stroke="#3315d5" points="58.1668,-261.858 59.4229,-250.965 56.6508,-257.094 55.1347,-252.329 55.1347,-252.329 55.1347,-252.329 56.6508,-257.094 50.8466,-253.693 58.1668,-261.858 58.1668,-261.858"/>
</g>
<!-- Group&#45;&gt;User -->
<g id="edge29" class="edge"><title>Group&#45;&gt;User</title>
<path fill="none" stroke="#44248c" d="M651.283,-734.191C556.951,-725.298 333.702,-688.706 264,-540 257.209,-525.513 254.241,-516.679 264,-504 302.139,-454.452 345.081,-497.891 400,-468 417.812,-458.305 511.439,-369.722 554.854,-328.243"/>
<polygon fill="#44248c" stroke="#44248c" points="651.372,-734.199 660.937,-739.562 656.353,-734.639 661.333,-735.079 661.333,-735.079 661.333,-735.079 656.353,-734.639 661.729,-730.597 651.372,-734.199 651.372,-734.199"/>
<polygon fill="#44248c" stroke="#44248c" points="554.877,-328.22 565.214,-324.56 558.491,-324.764 562.104,-321.308 562.104,-321.308 562.104,-321.308 558.491,-324.764 558.993,-318.056 554.877,-328.22 554.877,-328.22"/>
</g>
<!-- HomeCountry&#45;&gt;HomeState -->
<g id="edge38" class="edge"><title>HomeCountry&#45;&gt;HomeState</title>
<path fill="none" stroke="#695857" d="M737.534,-648.256C766.692,-637.042 804.879,-622.354 833.764,-611.245"/>
<ellipse fill="none" stroke="#695857" cx="733.691" cy="-649.734" rx="4.00001" ry="4.00001"/>
<polygon fill="#695857" stroke="#695857" points="833.843,-611.214 844.792,-611.825 838.509,-609.419 843.176,-607.625 843.176,-607.625 843.176,-607.625 838.509,-609.419 841.561,-603.424 833.843,-611.214 833.843,-611.214"/>
</g>
<!-- HomeCountry&#45;&gt;User -->
<g id="edge37" class="edge"><title>HomeCountry&#45;&gt;User</title>
<path fill="none" stroke="#2c2800" d="M670.406,-640.578C663.278,-632.088 656.021,-622.139 651,-612 638.523,-586.804 598.061,-403.967 582.851,-334.07"/>
<polygon fill="#2c2800" stroke="#2c2800" points="670.525,-640.714 673.74,-651.198 673.823,-644.471 677.122,-648.229 677.122,-648.229 677.122,-648.229 673.823,-644.471 680.504,-645.261 670.525,-640.714 670.525,-640.714"/>
<polygon fill="#2c2800" stroke="#2c2800" points="582.838,-334.007 585.113,-323.28 581.777,-329.121 580.716,-324.235 580.716,-324.235 580.716,-324.235 581.777,-329.121 576.318,-325.19 582.838,-334.007 582.838,-334.007"/>
</g>
<!-- HomeState&#45;&gt;User -->
<g id="edge39" class="edge"><title>HomeState&#45;&gt;User</title>
<path fill="none" stroke="#643eb6" d="M884.212,-568.308C898.075,-521.481 919.928,-419.175 869,-360 836.472,-322.205 686.198,-311.264 614.831,-308.176"/>
<ellipse fill="none" stroke="#643eb6" cx="882.99" cy="-572.296" rx="4.00001" ry="4.00001"/>
<polygon fill="#643eb6" stroke="#643eb6" points="614.482,-308.162 604.671,-303.263 609.486,-307.961 604.49,-307.759 604.49,-307.759 604.49,-307.759 609.486,-307.961 604.309,-312.256 614.482,-308.162 614.482,-308.162"/>
</g>
<!-- Value -->
<g id="node36" class="node"><title>Value</title>
<ellipse fill="none" stroke="black" cx="50" cy="-162" rx="31.2735" ry="18"/>
<text text-anchor="middle" x="50" y="-158.3" font-family="Times,serif" font-size="14.00">Value</text>
</g>
<!-- Installment&#45;&gt;Value -->
<g id="edge40" class="edge"><title>Installment&#45;&gt;Value</title>
<path fill="none" stroke="#825299" d="M50,-207.64C50,-202.063 50,-196.132 50,-190.476"/>
<ellipse fill="none" stroke="#825299" cx="50" cy="-211.697" rx="4" ry="4"/>
<polygon fill="#825299" stroke="#825299" points="50.0001,-190.104 54.5,-180.104 50,-185.104 50,-180.104 50,-180.104 50,-180.104 50,-185.104 45.5,-180.104 50.0001,-190.104 50.0001,-190.104"/>
</g>
<!-- Language -->
<g id="node24" class="node"><title>Language</title>
<ellipse fill="none" stroke="black" cx="726" cy="-378" rx="45.244" ry="18"/>
<text text-anchor="middle" x="726" y="-374.3" font-family="Times,serif" font-size="14.00">Language</text>
</g>
<!-- Language&#45;&gt;User -->
<g id="edge41" class="edge"><title>Language&#45;&gt;User</title>
<path fill="none" stroke="#97376e" d="M688.747,-359.498C663.774,-347.766 631.284,-332.502 607.779,-321.46"/>
<polygon fill="#97376e" stroke="#97376e" points="688.923,-359.581 696.061,-367.906 693.449,-361.707 697.974,-363.834 697.974,-363.834 697.974,-363.834 693.449,-361.707 699.888,-359.761 688.923,-359.581 688.923,-359.581"/>
<polygon fill="#97376e" stroke="#97376e" points="607.67,-321.409 600.532,-313.083 603.144,-319.282 598.619,-317.156 598.619,-317.156 598.619,-317.156 603.144,-319.282 596.705,-321.229 607.67,-321.409 607.67,-321.409"/>
</g>
<!-- Narrative -->
<g id="node25" class="node"><title>Narrative</title>
<ellipse fill="none" stroke="black" cx="287" cy="-234" rx="44.2946" ry="18"/>
<text text-anchor="middle" x="287" y="-230.3" font-family="Times,serif" font-size="14.00">Narrative</text>
</g>
<!-- Narrative&#45;&gt;Behavior -->
<g id="edge43" class="edge"><title>Narrative&#45;&gt;Behavior</title>
<path fill="none" stroke="#61888a" d="M284.196,-207.498C281.495,-189.181 276.381,-164.253 267,-144 261.931,-133.058 254.326,-122.208 247.103,-113.203"/>
<ellipse fill="none" stroke="#61888a" cx="284.799" cy="-211.946" rx="4.00001" ry="4.00001"/>
<ellipse fill="#61888a" stroke="#61888a" cx="244.508" cy="-110.075" rx="4.00002" ry="4.00002"/>
</g>
<!-- Narrative&#45;&gt;Reaction -->
<g id="edge44" class="edge"><title>Narrative&#45;&gt;Reaction</title>
<path fill="none" stroke="#d579a4" d="M288.062,-260.263C289.766,-300.777 293.096,-379.951 294.852,-421.712"/>
<ellipse fill="none" stroke="#d579a4" cx="287.893" cy="-256.229" rx="4" ry="4"/>
<polygon fill="#d579a4" stroke="#d579a4" points="294.858,-421.858 290.783,-432.038 295.069,-426.854 295.279,-431.849 295.279,-431.849 295.279,-431.849 295.069,-426.854 299.775,-431.66 294.858,-421.858 294.858,-421.858"/>
</g>
<!-- Week -->
<g id="node37" class="node"><title>Week</title>
<ellipse fill="none" stroke="black" cx="227" cy="-162" rx="31.2735" ry="18"/>
<text text-anchor="middle" x="227" y="-158.3" font-family="Times,serif" font-size="14.00">Week</text>
</g>
<!-- Narrative&#45;&gt;Week -->
<g id="edge42" class="edge"><title>Narrative&#45;&gt;Week</title>
<path fill="none" stroke="#39ca1c" d="M267.758,-210.551C261.215,-202.917 253.884,-194.365 247.263,-186.64"/>
<ellipse fill="none" stroke="#39ca1c" cx="270.481" cy="-213.728" rx="4.00002" ry="4.00002"/>
<polygon fill="#39ca1c" stroke="#39ca1c" points="246.936,-186.258 243.844,-175.737 243.682,-182.462 240.428,-178.666 240.428,-178.666 240.428,-178.666 243.682,-182.462 237.011,-181.594 246.936,-186.258 246.936,-186.258"/>
</g>
<!-- Project&#45;&gt;Assessment -->
<g id="edge47" class="edge"><title>Project&#45;&gt;Assessment</title>
<path fill="none" stroke="#1bf616" d="M1122.19,-547.5C1125.35,-556.323 1128.42,-566.457 1130,-576 1137.94,-624.086 1144.81,-648.901 1111,-684 996.582,-802.77 906.41,-724.363 756,-792 745.421,-796.757 734.45,-802.994 724.731,-809.036"/>
<ellipse fill="none" stroke="#1bf616" cx="1120.7" cy="-543.564" rx="4.00001" ry="4.00001"/>
<polygon fill="#1bf616" stroke="#1bf616" points="724.632,-809.099 713.782,-810.689 720.418,-811.79 716.204,-814.482 716.204,-814.482 716.204,-814.482 720.418,-811.79 718.626,-818.274 724.632,-809.099 724.632,-809.099"/>
</g>
<!-- Project&#45;&gt;BingoGame -->
<g id="edge46" class="edge"><title>Project&#45;&gt;BingoGame</title>
<path fill="none" stroke="#926af2" d="M1089.4,-500.182C1080.43,-491.922 1070.08,-482.393 1060.9,-473.935"/>
<ellipse fill="none" stroke="#926af2" cx="1092.57" cy="-503.101" rx="4.00002" ry="4.00002"/>
<polygon fill="#926af2" stroke="#926af2" points="1060.87,-473.908 1056.57,-463.824 1057.19,-470.521 1053.52,-467.134 1053.52,-467.134 1053.52,-467.134 1057.19,-470.521 1050.47,-470.444 1060.87,-473.908 1060.87,-473.908"/>
</g>
<!-- Project&#45;&gt;Factor -->
<g id="edge49" class="edge"><title>Project&#45;&gt;Factor</title>
<path fill="none" stroke="#977f55" d="M1141.73,-502.084C1157.46,-492.069 1176.73,-479.809 1192.44,-469.81"/>
<polygon fill="#977f55" stroke="#977f55" points="1141.65,-502.134 1130.79,-503.707 1137.43,-504.819 1133.21,-507.503 1133.21,-507.503 1133.21,-507.503 1137.43,-504.819 1135.63,-511.3 1141.65,-502.134 1141.65,-502.134"/>
<polygon fill="#977f55" stroke="#977f55" points="1192.79,-469.587 1203.65,-468.014 1197.01,-466.902 1201.23,-464.218 1201.23,-464.218 1201.23,-464.218 1197.01,-466.902 1198.81,-460.421 1192.79,-469.587 1192.79,-469.587"/>
</g>
<!-- Project&#45;&gt;Group -->
<g id="edge45" class="edge"><title>Project&#45;&gt;Group</title>
<path fill="none" stroke="#40a9a0" d="M1116.34,-547.957C1120.96,-583.53 1123.28,-648.438 1087,-684 1038.24,-731.797 829.1,-737.344 737.388,-737.419"/>
<ellipse fill="none" stroke="#40a9a0" cx="1115.77" cy="-543.957" rx="4.00001" ry="4.00001"/>
<polygon fill="#40a9a0" stroke="#40a9a0" points="737.324,-737.419 727.33,-732.905 732.324,-737.412 727.324,-737.405 727.324,-737.405 727.324,-737.405 732.324,-737.412 727.318,-741.905 737.324,-737.419 737.324,-737.419"/>
</g>
<!-- Project&#45;&gt;User -->
<g id="edge48" class="edge"><title>Project&#45;&gt;User</title>
<path fill="none" stroke="#990888" d="M1113.5,-493.7C1113.22,-474.884 1110.16,-450.103 1098,-432 1063.54,-380.681 1037.33,-380.475 979,-360 850.484,-314.886 686.597,-307.691 614.219,-306.867"/>
<polygon fill="#990888" stroke="#990888" points="1113.5,-493.727 1108.89,-503.68 1113.45,-498.727 1113.39,-503.727 1113.39,-503.727 1113.39,-503.727 1113.45,-498.727 1117.89,-503.774 1113.5,-493.727 1113.5,-493.727"/>
<polygon fill="#990888" stroke="#990888" points="614.219,-306.867 604.255,-302.288 609.219,-306.828 604.219,-306.788 604.219,-306.788 604.219,-306.788 609.219,-306.828 604.183,-311.288 614.219,-306.867 614.219,-306.867"/>
</g>
<!-- Quote -->
<g id="node27" class="node"><title>Quote</title>
<ellipse fill="none" stroke="black" cx="797" cy="-831" rx="32.2457" ry="18"/>
<text text-anchor="middle" x="797" y="-827.3" font-family="Times,serif" font-size="14.00">Quote</text>
</g>
<!-- Reaction&#45;&gt;Course -->
<g id="edge50" class="edge"><title>Reaction&#45;&gt;Course</title>
<path fill="none" stroke="#ca69b4" d="M346.066,-453.814C403.474,-458.534 499.395,-471.054 575,-504 613.459,-520.759 651.366,-551.602 674.226,-572.209"/>
<ellipse fill="none" stroke="#ca69b4" cx="341.87" cy="-453.485" rx="4" ry="4"/>
<ellipse fill="#ca69b4" stroke="#ca69b4" cx="677.311" cy="-575.03" rx="4.00002" ry="4.00002"/>
</g>
<!-- Reaction&#45;&gt;Diagnosis -->
<g id="edge51" class="edge"><title>Reaction&#45;&gt;Diagnosis</title>
<path fill="none" stroke="#acc146" d="M269.367,-428.954C257.507,-420.027 243.524,-409.502 231.458,-400.42"/>
<ellipse fill="none" stroke="#acc146" cx="272.625" cy="-431.406" rx="4.00002" ry="4.00002"/>
<polygon fill="#acc146" stroke="#acc146" points="231.451,-400.415 226.168,-390.806 227.456,-397.408 223.461,-394.401 223.461,-394.401 223.461,-394.401 227.456,-397.408 220.755,-397.996 231.451,-400.415 231.451,-400.415"/>
</g>
<!-- Role -->
<g id="node29" class="node"><title>Role</title>
<ellipse fill="none" stroke="black" cx="332" cy="-378" rx="26.949" ry="18"/>
<text text-anchor="middle" x="332" y="-374.3" font-family="Times,serif" font-size="14.00">Role</text>
</g>
<!-- Role&#45;&gt;Roster -->
<g id="edge53" class="edge"><title>Role&#45;&gt;Roster</title>
<path fill="none" stroke="#51e454" d="M350.685,-355.942C373.831,-329.857 413.146,-285.549 437.221,-258.417"/>
<ellipse fill="none" stroke="#51e454" cx="347.901" cy="-359.08" rx="4.00002" ry="4.00002"/>
<polygon fill="#51e454" stroke="#51e454" points="437.531,-258.068 447.535,-253.575 440.85,-254.328 444.169,-250.588 444.169,-250.588 444.169,-250.588 440.85,-254.328 440.803,-247.601 437.531,-258.068 437.531,-258.068"/>
</g>
<!-- Role&#45;&gt;User -->
<g id="edge52" class="edge"><title>Role&#45;&gt;User</title>
<path fill="none" stroke="#f32ee7" d="M361.585,-364.165C365.396,-362.68 369.27,-361.251 373,-360 431.208,-340.476 500.744,-323.778 541.757,-314.588"/>
<ellipse fill="none" stroke="#f32ee7" cx="357.626" cy="-365.76" rx="4.00001" ry="4.00001"/>
<polygon fill="#f32ee7" stroke="#f32ee7" points="541.783,-314.583 552.52,-316.81 546.664,-313.5 551.545,-312.417 551.545,-312.417 551.545,-312.417 546.664,-313.5 550.57,-308.023 541.783,-314.583 541.783,-314.583"/>
</g>
<!-- Scenario&#45;&gt;Narrative -->
<g id="edge54" class="edge"><title>Scenario&#45;&gt;Narrative</title>
<path fill="none" stroke="#4e7bef" d="M278.885,-44.3229C281.604,-69.5443 285.48,-109.39 287,-144 287.909,-164.709 287.866,-188.155 287.618,-205.782"/>
<ellipse fill="none" stroke="#4e7bef" cx="278.448" cy="-40.3351" rx="4.00001" ry="4.00001"/>
<polygon fill="#4e7bef" stroke="#4e7bef" points="287.616,-205.93 282.945,-215.851 287.53,-210.929 287.444,-215.928 287.444,-215.928 287.444,-215.928 287.53,-210.929 291.944,-216.005 287.616,-205.93 287.616,-205.93"/>
</g>
<!-- School -->
<g id="node32" class="node"><title>School</title>
<ellipse fill="none" stroke="black" cx="579" cy="-666" rx="35.1455" ry="18"/>
<text text-anchor="middle" x="579" y="-662.3" font-family="Times,serif" font-size="14.00">School</text>
</g>
<!-- School&#45;&gt;BingoGame -->
<g id="edge56" class="edge"><title>School&#45;&gt;BingoGame</title>
<path fill="none" stroke="#62c39d" d="M615.272,-650.756C617.88,-649.803 620.476,-648.875 623,-648 674.407,-630.185 693.796,-640.726 740,-612 758.69,-600.38 755.125,-587.317 774,-576 826.153,-544.73 850.81,-565.531 906,-540 944.361,-522.254 983.779,-493.502 1009,-473.499"/>
<polygon fill="#62c39d" stroke="#62c39d" points="615.248,-650.765 604.305,-650.055 610.565,-652.518 605.882,-654.27 605.882,-654.27 605.882,-654.27 610.565,-652.518 607.459,-658.485 615.248,-650.765 615.248,-650.765"/>
<polygon fill="#62c39d" stroke="#62c39d" points="1009.19,-473.344 1019.81,-470.586 1013.09,-470.211 1016.99,-467.078 1016.99,-467.078 1016.99,-467.078 1013.09,-470.211 1014.17,-463.571 1009.19,-473.344 1009.19,-473.344"/>
</g>
<!-- School&#45;&gt;Course -->
<g id="edge55" class="edge"><title>School&#45;&gt;Course</title>
<path fill="none" stroke="#ccd6d7" d="M607.901,-647.709C625.206,-637.355 647.203,-624.195 664.887,-613.615"/>
<ellipse fill="none" stroke="#ccd6d7" cx="604.439" cy="-649.78" rx="4.00002" ry="4.00002"/>
<polygon fill="#ccd6d7" stroke="#ccd6d7" points="665.113,-613.48 676.004,-612.207 669.403,-610.913 673.694,-608.345 673.694,-608.345 673.694,-608.345 669.403,-610.913 671.384,-604.484 665.113,-613.48 665.113,-613.48"/>
</g>
<!-- School&#45;&gt;Experience -->
<g id="edge58" class="edge"><title>School&#45;&gt;Experience</title>
<path fill="none" stroke="#e1fc7a" d="M567.327,-638.688C556.009,-613.179 538.939,-574.703 527.634,-549.224"/>
<polygon fill="#e1fc7a" stroke="#e1fc7a" points="567.47,-639.012 567.412,-649.978 569.498,-643.583 571.526,-648.153 571.526,-648.153 571.526,-648.153 569.498,-643.583 575.639,-646.328 567.47,-639.012 567.47,-639.012"/>
<polygon fill="#e1fc7a" stroke="#e1fc7a" points="527.52,-548.966 527.578,-538 525.492,-544.395 523.465,-539.825 523.465,-539.825 523.465,-539.825 525.492,-544.395 519.351,-541.65 527.52,-548.966 527.52,-548.966"/>
</g>
<!-- School&#45;&gt;Project -->
<g id="edge57" class="edge"><title>School&#45;&gt;Project</title>
<path fill="none" stroke="#d1b7c2" d="M615.211,-650.569C617.833,-649.66 620.449,-648.793 623,-648 688.883,-627.521 712.35,-642.97 774,-612 796.272,-600.811 794.422,-586.558 817,-576 828.348,-570.694 989.601,-543.372 1068.77,-530.165"/>
<polygon fill="#d1b7c2" stroke="#d1b7c2" points="615.19,-650.577 604.254,-649.76 610.49,-652.284 605.79,-653.99 605.79,-653.99 605.79,-653.99 610.49,-652.284 607.326,-658.22 615.19,-650.577 615.19,-650.577"/>
<polygon fill="#d1b7c2" stroke="#d1b7c2" points="1069.06,-530.118 1079.66,-532.914 1073.99,-529.296 1078.92,-528.475 1078.92,-528.475 1078.92,-528.475 1073.99,-529.296 1078.18,-524.036 1069.06,-530.118 1069.06,-530.118"/>
</g>
<!-- School&#45;&gt;Roster -->
<g id="edge59" class="edge"><title>School&#45;&gt;Roster</title>
<path fill="none" stroke="#bbf698" d="M536.972,-656.456C440.544,-634.13 207.158,-563.74 148,-396 142.678,-380.911 139.048,-373.262 148,-360 179.615,-313.163 342.544,-265.245 418.69,-244.998"/>
<polygon fill="#bbf698" stroke="#bbf698" points="537.197,-656.507 545.961,-663.098 542.074,-657.608 546.952,-658.708 546.952,-658.708 546.952,-658.708 542.074,-657.608 547.942,-654.318 537.197,-656.507 537.197,-656.507"/>
<polygon fill="#bbf698" stroke="#bbf698" points="418.732,-244.987 429.548,-246.792 423.567,-243.714 428.402,-242.44 428.402,-242.44 428.402,-242.44 423.567,-243.714 427.257,-238.089 418.732,-244.987 418.732,-244.987"/>
</g>
<!-- Style -->
<g id="node33" class="node"><title>Style</title>
<ellipse fill="none" stroke="black" cx="1049" cy="-594" rx="28.3955" ry="18"/>
<text text-anchor="middle" x="1049" y="-590.3" font-family="Times,serif" font-size="14.00">Style</text>
</g>
<!-- Style&#45;&gt;Project -->
<g id="edge60" class="edge"><title>Style&#45;&gt;Project</title>
<path fill="none" stroke="#32a28c" d="M1068.08,-571.8C1075.36,-563.713 1083.69,-554.455 1091.13,-546.191"/>
<ellipse fill="none" stroke="#32a28c" cx="1065.35" cy="-574.838" rx="4.00002" ry="4.00002"/>
<polygon fill="#32a28c" stroke="#32a28c" points="1091.23,-546.077 1101.27,-541.654 1094.58,-542.36 1097.92,-538.644 1097.92,-538.644 1097.92,-538.644 1094.58,-542.36 1094.58,-535.634 1091.23,-546.077 1091.23,-546.077"/>
</g>
<!-- Theme -->
<g id="node34" class="node"><title>Theme</title>
<ellipse fill="none" stroke="black" cx="825" cy="-378" rx="35.6194" ry="18"/>
<text text-anchor="middle" x="825" y="-374.3" font-family="Times,serif" font-size="14.00">Theme</text>
</g>
<!-- Theme&#45;&gt;User -->
<g id="edge61" class="edge"><title>Theme&#45;&gt;User</title>
<path fill="none" stroke="#8ffc49" d="M790.435,-363.522C786.928,-362.281 783.404,-361.084 780,-360 721.891,-341.495 652.961,-324.526 612.219,-314.998"/>
<ellipse fill="none" stroke="#8ffc49" cx="794.276" cy="-364.917" rx="4.00001" ry="4.00001"/>
<polygon fill="#8ffc49" stroke="#8ffc49" points="611.987,-314.944 603.263,-308.3 607.116,-313.814 602.246,-312.683 602.246,-312.683 602.246,-312.683 607.116,-313.814 601.228,-317.066 611.987,-314.944 611.987,-314.944"/>
</g>
<!-- User&#45;&gt;Candidate -->
<g id="edge66" class="edge"><title>User&#45;&gt;Candidate</title>
<path fill="none" stroke="#6b48ba" d="M606.988,-292.677C654.278,-273.68 749.404,-237.222 833,-216 926.324,-192.309 1037.61,-176.761 1102.19,-168.955"/>
<ellipse fill="none" stroke="#6b48ba" cx="603.255" cy="-294.184" rx="4.00002" ry="4.00002"/>
<polygon fill="#6b48ba" stroke="#6b48ba" points="1102.22,-168.952 1112.68,-172.237 1107.18,-168.36 1112.15,-167.769 1112.15,-167.769 1112.15,-167.769 1107.18,-168.36 1111.62,-163.3 1102.22,-168.952 1102.22,-168.952"/>
</g>
<!-- User&#45;&gt;CandidateList -->
<g id="edge64" class="edge"><title>User&#45;&gt;CandidateList</title>
<path fill="none" stroke="#d3b4ad" d="M612.113,-308.302C685.527,-311.732 851.864,-323.438 893,-360 977.869,-435.431 982.921,-509.063 935,-612 929.087,-624.701 918.467,-635.445 907.611,-643.87"/>
<ellipse fill="none" stroke="#d3b4ad" cx="608.047" cy="-308.12" rx="4" ry="4"/>
<polygon fill="#d3b4ad" stroke="#d3b4ad" points="907.44,-643.993 896.7,-646.207 903.388,-646.924 899.337,-649.854 899.337,-649.854 899.337,-649.854 903.388,-646.924 901.974,-653.5 907.44,-643.993 907.44,-643.993"/>
</g>
<!-- User&#45;&gt;Concept -->
<g id="edge65" class="edge"><title>User&#45;&gt;Concept</title>
<path fill="none" stroke="#23e2d9" d="M611.93,-302.862C700.112,-297.211 938.762,-280.335 1136,-252 1149.87,-250.008 1164.87,-247.314 1178.49,-244.658"/>
<ellipse fill="none" stroke="#23e2d9" cx="607.864" cy="-303.12" rx="4" ry="4"/>
<polygon fill="#23e2d9" stroke="#23e2d9" points="1178.79,-244.599 1189.47,-247.06 1183.69,-243.623 1188.59,-242.647 1188.59,-242.647 1188.59,-242.647 1183.69,-243.623 1187.71,-238.233 1178.79,-244.599 1178.79,-244.599"/>
</g>
<!-- User&#45;&gt;ConsentLog -->
<g id="edge63" class="edge"><title>User&#45;&gt;ConsentLog</title>
<path fill="none" stroke="#caf4bc" d="M612.153,-302.351C686.223,-296.407 863.574,-280.269 1010,-252 1014.76,-251.081 1019.69,-250.004 1024.6,-248.846"/>
<ellipse fill="none" stroke="#caf4bc" cx="608.045" cy="-302.676" rx="4" ry="4"/>
<polygon fill="#caf4bc" stroke="#caf4bc" points="1024.89,-248.774 1035.67,-250.747 1029.74,-247.576 1034.59,-246.378 1034.59,-246.378 1034.59,-246.378 1029.74,-247.576 1033.52,-242.009 1024.89,-248.774 1024.89,-248.774"/>
</g>
<!-- User&#45;&gt;Email -->
<g id="edge62" class="edge"><title>User&#45;&gt;Email</title>
<path fill="none" stroke="#af27f0" d="M577,-279.64C577,-274.063 577,-268.132 577,-262.476"/>
<ellipse fill="none" stroke="#af27f0" cx="577" cy="-283.697" rx="4" ry="4"/>
<polygon fill="#af27f0" stroke="#af27f0" points="577,-262.104 581.5,-252.104 577,-257.104 577,-252.104 577,-252.104 577,-252.104 577,-257.104 572.5,-252.104 577,-262.104 577,-262.104"/>
</g>
<!-- User&#45;&gt;Experience -->
<g id="edge70" class="edge"><title>User&#45;&gt;Experience</title>
<path fill="none" stroke="#238c4a" d="M576.704,-334.301C575.507,-367.141 570.742,-423.413 553,-468 549.017,-478.01 542.818,-487.965 536.625,-496.499"/>
<polygon fill="#238c4a" stroke="#238c4a" points="576.709,-334.11 581.485,-324.238 576.848,-329.112 576.987,-324.114 576.987,-324.114 576.987,-324.114 576.848,-329.112 572.488,-323.989 576.709,-334.11 576.709,-334.11"/>
<polygon fill="#238c4a" stroke="#238c4a" points="536.581,-496.558 526.939,-501.781 533.549,-500.534 530.517,-504.51 530.517,-504.51 530.517,-504.51 533.549,-500.534 534.095,-507.238 536.581,-496.558 536.581,-496.558"/>
</g>
<!-- User&#45;&gt;Installment -->
<g id="edge67" class="edge"><title>User&#45;&gt;Installment</title>
<path fill="none" stroke="#7fb787" d="M542.375,-300.401C453.413,-288.584 216.166,-257.071 106.738,-242.536"/>
<ellipse fill="none" stroke="#7fb787" cx="546.54" cy="-300.954" rx="4.00001" ry="4.00001"/>
<polygon fill="#7fb787" stroke="#7fb787" points="106.47,-242.501 97.1494,-236.723 101.513,-241.842 96.5569,-241.184 96.5569,-241.184 96.5569,-241.184 101.513,-241.842 95.9643,-245.645 106.47,-242.501 106.47,-242.501"/>
</g>
<!-- User&#45;&gt;Narrative -->
<g id="edge71" class="edge"><title>User&#45;&gt;Narrative</title>
<path fill="none" stroke="#3d2250" d="M541.769,-296.496C489.729,-283.934 392.213,-260.396 334.09,-246.367"/>
<polygon fill="#3d2250" stroke="#3d2250" points="542.051,-296.564 550.716,-303.285 546.911,-297.737 551.772,-298.91 551.772,-298.91 551.772,-298.91 546.911,-297.737 552.828,-294.536 542.051,-296.564 542.051,-296.564"/>
<polygon fill="#3d2250" stroke="#3d2250" points="333.786,-246.293 325.121,-239.572 328.925,-245.12 324.065,-243.947 324.065,-243.947 324.065,-243.947 328.925,-245.12 323.009,-248.321 333.786,-246.293 333.786,-246.293"/>
</g>
<!-- User&#45;&gt;Reaction -->
<g id="edge69" class="edge"><title>User&#45;&gt;Reaction</title>
<path fill="none" stroke="#b5b5c7" d="M543.37,-313.698C508.701,-321.509 453.819,-336.439 411,-360 389.163,-372.016 387.601,-380.605 368,-396 354.082,-406.932 338.278,-418.64 325.03,-428.264"/>
<ellipse fill="none" stroke="#b5b5c7" cx="547.395" cy="-312.815" rx="4.00001" ry="4.00001"/>
<polygon fill="#b5b5c7" stroke="#b5b5c7" points="324.843,-428.399 314.102,-430.612 320.791,-431.329 316.739,-434.258 316.739,-434.258 316.739,-434.258 320.791,-431.329 319.375,-437.905 324.843,-428.399 324.843,-428.399"/>
</g>
<!-- User&#45;&gt;Roster -->
<g id="edge68" class="edge"><title>User&#45;&gt;Roster</title>
<path fill="none" stroke="#119cd3" d="M550.187,-289.227C531.81,-278.418 507.403,-264.06 488.318,-252.834"/>
<ellipse fill="none" stroke="#119cd3" cx="553.902" cy="-291.413" rx="4.00002" ry="4.00002"/>
<polygon fill="#119cd3" stroke="#119cd3" points="488.316,-252.833 481.978,-243.884 484.006,-250.298 479.697,-247.763 479.697,-247.763 479.697,-247.763 484.006,-250.298 477.415,-251.641 488.316,-252.833 488.316,-252.833"/>
</g>
<!-- Week&#45;&gt;Behavior -->
<g id="edge72" class="edge"><title>Week&#45;&gt;Behavior</title>
<path fill="none" stroke="#c647cc" d="M227,-135.64C227,-129.348 227,-122.605 227,-116.316"/>
<ellipse fill="none" stroke="#c647cc" cx="227" cy="-139.697" rx="4" ry="4"/>
<ellipse fill="#c647cc" stroke="#c647cc" cx="227" cy="-112.104" rx="4" ry="4"/>
</g>
<!-- Week&#45;&gt;Diagnosis -->
<g id="edge73" class="edge"><title>Week&#45;&gt;Diagnosis</title>
<path fill="none" stroke="#02a6e1" d="M224.167,-188.263C219.623,-228.777 210.744,-307.951 206.06,-349.712"/>
<ellipse fill="none" stroke="#02a6e1" cx="224.622" cy="-184.208" rx="4.00001" ry="4.00001"/>
<polygon fill="#02a6e1" stroke="#02a6e1" points="206.038,-349.912 200.451,-359.348 205.481,-354.88 204.923,-359.849 204.923,-359.849 204.923,-359.849 205.481,-354.88 209.395,-360.351 206.038,-349.912 206.038,-349.912"/>
</g>
</g>
</svg>
