<?xml version="1.0" encoding="UTF-8" standalone="no"?>
<!DOCTYPE svg PUBLIC "-//W3C//DTD SVG 1.1//EN"
 "http://www.w3.org/Graphics/SVG/1.1/DTD/svg11.dtd">
<!-- Generated by graphviz version 2.36.0 (20140111.2315)
 -->
<!-- Title: models_diagram Pages: 1 -->
<svg width="1795pt" height="878pt"
 viewBox="0.00 0.00 1795.00 878.00" xmlns="http://www.w3.org/2000/svg" xmlns:xlink="http://www.w3.org/1999/xlink">
<g id="graph0" class="graph" transform="scale(1 1) rotate(0) translate(4 874)">
<title>models_diagram</title>
<polygon fill="none" stroke="none" points="-4,4 -4,-874 1791,-874 1791,4 -4,4"/>
<!-- _diagram_info -->
<g id="node1" class="node"><title>_diagram_info</title>
<text text-anchor="start" x="568" y="-855.6" font-family="Times,serif" font-size="13.00">Models diagram</text>
<text text-anchor="start" x="568" y="-841.6" font-family="Times,serif" font-size="13.00">Date: Jul 29 2017 &#45; 22:48</text>
<text text-anchor="start" x="568" y="-827.6" font-family="Times,serif" font-size="13.00">Migration version: 20170729030240</text>
<text text-anchor="start" x="568" y="-813.6" font-family="Times,serif" font-size="13.00">Generated by RailRoady 1.5.2</text>
<text text-anchor="start" x="568" y="-799.6" font-family="Times,serif" font-size="13.00">http://railroady.prestonlee.com</text>
</g>
<!-- Assessment -->
<g id="node2" class="node"><title>Assessment</title>
<ellipse fill="none" stroke="black" cx="845" cy="-831" rx="52.4675" ry="18"/>
<text text-anchor="middle" x="845" y="-827.3" font-family="Times,serif" font-size="14.00">Assessment</text>
</g>
<!-- Factor -->
<g id="node16" class="node"><title>Factor</title>
<ellipse fill="none" stroke="black" cx="1671" cy="-450" rx="33.2209" ry="18"/>
<text text-anchor="middle" x="1671" y="-446.3" font-family="Times,serif" font-size="14.00">Factor</text>
</g>
<!-- Assessment&#45;&gt;Factor -->
<g id="edge2" class="edge"><title>Assessment&#45;&gt;Factor</title>
<path fill="none" stroke="#788917" d="M873.758,-808.831C883.811,-802.418 895.474,-796.016 907,-792 1032.56,-748.255 1072.26,-774.035 1204,-756 1333.85,-738.224 1787,-798.056 1787,-667 1787,-667 1787,-667 1787,-593 1787,-538.563 1735.24,-493.49 1700.87,-469.562"/>
<polygon fill="#788917" stroke="#788917" points="873.705,-808.867 862.888,-810.666 869.544,-811.639 865.383,-814.411 865.383,-814.411 865.383,-814.411 869.544,-811.639 867.878,-818.156 873.705,-808.867 873.705,-808.867"/>
<polygon fill="#788917" stroke="#788917" points="1700.83,-469.539 1695.07,-460.212 1696.69,-466.74 1692.55,-463.941 1692.55,-463.941 1692.55,-463.941 1696.69,-466.74 1690.03,-467.67 1700.83,-469.539 1700.83,-469.539"/>
</g>
<!-- Group -->
<g id="node19" class="node"><title>Group</title>
<ellipse fill="none" stroke="black" cx="845" cy="-738" rx="33.2209" ry="18"/>
<text text-anchor="middle" x="845" y="-734.3" font-family="Times,serif" font-size="14.00">Group</text>
</g>
<!-- Assessment&#45;&gt;Group -->
<g id="edge4" class="edge"><title>Assessment&#45;&gt;Group</title>
<path fill="none" stroke="#bd0e63" d="M845,-802.549C845,-791.083 845,-777.792 845,-766.339"/>
<polygon fill="#bd0e63" stroke="#bd0e63" points="845,-802.884 840.5,-812.884 845,-807.884 845,-812.884 845,-812.884 845,-812.884 845,-807.884 849.5,-812.884 845,-802.884 845,-802.884"/>
<polygon fill="#bd0e63" stroke="#bd0e63" points="845,-766.04 849.5,-756.04 845,-761.04 845,-756.04 845,-756.04 845,-756.04 845,-761.04 840.5,-756.04 845,-766.04 845,-766.04"/>
</g>
<!-- Installment -->
<g id="node23" class="node"><title>Installment</title>
<ellipse fill="none" stroke="black" cx="50" cy="-234" rx="50.5427" ry="18"/>
<text text-anchor="middle" x="50" y="-230.3" font-family="Times,serif" font-size="14.00">Installment</text>
</g>
<!-- Assessment&#45;&gt;Installment -->
<g id="edge1" class="edge"><title>Assessment&#45;&gt;Installment</title>
<path fill="none" stroke="#05a742" d="M817.909,-809.929C807.244,-803.056 794.557,-796.077 782,-792 625.252,-741.11 51,-831.802 51,-667 51,-667 51,-667 51,-377 51,-336.995 50.5982,-290.652 50.304,-262.079"/>
<ellipse fill="none" stroke="#05a742" cx="821.277" cy="-812.178" rx="4.00002" ry="4.00002"/>
<polygon fill="#05a742" stroke="#05a742" points="50.3038,-262.048 54.6973,-252.001 50.2507,-257.049 50.1976,-252.049 50.1976,-252.049 50.1976,-252.049 50.2507,-257.049 45.6978,-252.097 50.3038,-262.048 50.3038,-262.048"/>
</g>
<!-- User -->
<g id="node35" class="node"><title>User</title>
<ellipse fill="none" stroke="black" cx="817" cy="-306" rx="26.949" ry="18"/>
<text text-anchor="middle" x="817" y="-302.3" font-family="Times,serif" font-size="14.00">User</text>
</g>
<!-- Assessment&#45;&gt;User -->
<g id="edge3" class="edge"><title>Assessment&#45;&gt;User</title>
<path fill="none" stroke="#f2ceb6" d="M814.019,-809.131C804.082,-803.039 792.838,-796.751 782,-792 600.113,-712.267 353,-865.596 353,-667 353,-667 353,-667 353,-449 353,-404.058 363.945,-385.43 401,-360 462.136,-318.044 689.336,-309.301 779.642,-307.479"/>
<polygon fill="#f2ceb6" stroke="#f2ceb6" points="814.268,-809.288 820.329,-818.427 818.498,-811.954 822.728,-814.62 822.728,-814.62 822.728,-814.62 818.498,-811.954 825.127,-810.813 814.268,-809.288 814.268,-809.288"/>
<polygon fill="#f2ceb6" stroke="#f2ceb6" points="779.708,-307.478 789.789,-311.793 784.707,-307.386 789.706,-307.294 789.706,-307.294 789.706,-307.294 784.707,-307.386 789.623,-302.794 779.708,-307.478 779.708,-307.478"/>
</g>
<!-- Behavior -->
<g id="node3" class="node"><title>Behavior</title>
<ellipse fill="none" stroke="black" cx="227" cy="-90" rx="42.3456" ry="18"/>
<text text-anchor="middle" x="227" y="-86.3" font-family="Times,serif" font-size="14.00">Behavior</text>
</g>
<!-- Diagnosis -->
<g id="node13" class="node"><title>Diagnosis</title>
<ellipse fill="none" stroke="black" cx="203" cy="-378" rx="46.2191" ry="18"/>
<text text-anchor="middle" x="203" y="-374.3" font-family="Times,serif" font-size="14.00">Diagnosis</text>
</g>
<!-- Behavior&#45;&gt;Diagnosis -->
<g id="edge7" class="edge"><title>Behavior&#45;&gt;Diagnosis</title>
<path fill="none" stroke="#721323" d="M204.722,-113.015C197.268,-121.867 189.874,-132.661 186,-144 161.6,-215.42 181.654,-306.12 194.428,-350.335"/>
<ellipse fill="none" stroke="#721323" cx="207.458" cy="-109.926" rx="4.00002" ry="4.00002"/>
<polygon fill="#721323" stroke="#721323" points="194.465,-350.46 193.023,-361.33 195.899,-355.25 197.333,-360.039 197.333,-360.039 197.333,-360.039 195.899,-355.25 201.644,-358.749 194.465,-350.46 194.465,-350.46"/>
</g>
<!-- Reaction -->
<g id="node28" class="node"><title>Reaction</title>
<ellipse fill="none" stroke="black" cx="280" cy="-450" rx="42.3701" ry="18"/>
<text text-anchor="middle" x="280" y="-446.3" font-family="Times,serif" font-size="14.00">Reaction</text>
</g>
<!-- Behavior&#45;&gt;Reaction -->
<g id="edge6" class="edge"><title>Behavior&#45;&gt;Reaction</title>
<path fill="none" stroke="#bdb652" d="M200.842,-111.423C171.812,-136.599 129,-182.317 129,-233 129,-307 129,-307 129,-307 129,-347.447 121.954,-365.056 148,-396 168.678,-420.567 202.406,-433.851 230.591,-440.976"/>
<ellipse fill="none" stroke="#bdb652" cx="204.115" cy="-108.654" rx="4.00002" ry="4.00002"/>
<polygon fill="#bdb652" stroke="#bdb652" points="230.952,-441.06 239.668,-447.714 235.821,-442.196 240.69,-443.332 240.69,-443.332 240.69,-443.332 235.821,-442.196 241.712,-438.949 230.952,-441.06 230.952,-441.06"/>
</g>
<!-- Scenario -->
<g id="node31" class="node"><title>Scenario</title>
<ellipse fill="none" stroke="black" cx="276" cy="-18" rx="41.394" ry="18"/>
<text text-anchor="middle" x="276" y="-14.3" font-family="Times,serif" font-size="14.00">Scenario</text>
</g>
<!-- Behavior&#45;&gt;Scenario -->
<g id="edge5" class="edge"><title>Behavior&#45;&gt;Scenario</title>
<path fill="none" stroke="#b44040" d="M243.231,-65.8123C248.119,-58.8305 253.503,-51.1383 258.471,-44.0419"/>
<ellipse fill="none" stroke="#b44040" cx="240.906" cy="-69.134" rx="4.00002" ry="4.00002"/>
<polygon fill="#b44040" stroke="#b44040" points="258.736,-43.6623 268.158,-38.0505 261.604,-39.5661 264.471,-35.4699 264.471,-35.4699 264.471,-35.4699 261.604,-39.5661 260.784,-32.8893 258.736,-43.6623 258.736,-43.6623"/>
</g>
<!-- BingoGame -->
<g id="node4" class="node"><title>BingoGame</title>
<ellipse fill="none" stroke="black" cx="1311" cy="-450" rx="53.4184" ry="18"/>
<text text-anchor="middle" x="1311" y="-446.3" font-family="Times,serif" font-size="14.00">BingoGame</text>
</g>
<!-- Candidate -->
<g id="node5" class="node"><title>Candidate</title>
<ellipse fill="none" stroke="black" cx="1276" cy="-162" rx="46.2191" ry="18"/>
<text text-anchor="middle" x="1276" y="-158.3" font-family="Times,serif" font-size="14.00">Candidate</text>
</g>
<!-- BingoGame&#45;&gt;Candidate -->
<g id="edge9" class="edge"><title>BingoGame&#45;&gt;Candidate</title>
<path fill="none" stroke="#15c6f4" d="M1310.03,-421.809C1308.15,-378.129 1302.97,-289.753 1290,-216 1288.48,-207.337 1286.23,-198.021 1283.98,-189.653"/>
<polygon fill="#15c6f4" stroke="#15c6f4" points="1310.04,-421.923 1305.95,-432.097 1310.24,-426.919 1310.44,-431.914 1310.44,-431.914 1310.44,-431.914 1310.24,-426.919 1314.94,-431.732 1310.04,-421.923 1310.04,-421.923"/>
<polygon fill="#15c6f4" stroke="#15c6f4" points="1283.98,-189.652 1285.61,-178.809 1282.63,-184.838 1281.28,-180.023 1281.28,-180.023 1281.28,-180.023 1282.63,-184.838 1276.95,-181.238 1283.98,-189.652 1283.98,-189.652"/>
</g>
<!-- CandidateList -->
<g id="node7" class="node"><title>CandidateList</title>
<ellipse fill="none" stroke="black" cx="1216" cy="-666" rx="59.1941" ry="18"/>
<text text-anchor="middle" x="1216" y="-662.3" font-family="Times,serif" font-size="14.00">CandidateList</text>
</g>
<!-- BingoGame&#45;&gt;CandidateList -->
<g id="edge8" class="edge"><title>BingoGame&#45;&gt;CandidateList</title>
<path fill="none" stroke="#cb82b7" d="M1303.77,-475.802C1298.23,-493.87 1290.02,-518.792 1281,-540 1265.97,-575.325 1244.94,-614.319 1230.91,-639.206"/>
<ellipse fill="none" stroke="#cb82b7" cx="1304.96" cy="-471.849" rx="4.00001" ry="4.00001"/>
<polygon fill="#cb82b7" stroke="#cb82b7" points="1230.85,-639.322 1221.99,-645.794 1228.38,-643.669 1225.91,-648.017 1225.91,-648.017 1225.91,-648.017 1228.38,-643.669 1229.82,-650.24 1230.85,-639.322 1230.85,-639.322"/>
</g>
<!-- Concept -->
<g id="node9" class="node"><title>Concept</title>
<ellipse fill="none" stroke="black" cx="1508" cy="-234" rx="39.9464" ry="18"/>
<text text-anchor="middle" x="1508" y="-230.3" font-family="Times,serif" font-size="14.00">Concept</text>
</g>
<!-- BingoGame&#45;&gt;Concept -->
<g id="edge10" class="edge"><title>BingoGame&#45;&gt;Concept</title>
<path fill="none" stroke="#5edf73" d="M1332.92,-425.186C1370.92,-383.914 1448.54,-299.586 1486.35,-258.52"/>
<polygon fill="#5edf73" stroke="#5edf73" points="1332.9,-425.206 1322.82,-429.515 1329.52,-428.884 1326.13,-432.563 1326.13,-432.563 1326.13,-432.563 1329.52,-428.884 1329.44,-435.611 1332.9,-425.206 1332.9,-425.206"/>
<polygon fill="#5edf73" stroke="#5edf73" points="1486.58,-258.267 1496.67,-253.957 1489.97,-254.588 1493.35,-250.909 1493.35,-250.909 1493.35,-250.909 1489.97,-254.588 1490.04,-247.861 1486.58,-258.267 1486.58,-258.267"/>
</g>
<!-- CandidateFeedback -->
<g id="node6" class="node"><title>CandidateFeedback</title>
<ellipse fill="none" stroke="black" cx="951" cy="-234" rx="79.4147" ry="18"/>
<text text-anchor="middle" x="951" y="-230.3" font-family="Times,serif" font-size="14.00">CandidateFeedback</text>
</g>
<!-- CandidateFeedback&#45;&gt;Candidate -->
<g id="edge11" class="edge"><title>CandidateFeedback&#45;&gt;Candidate</title>
<path fill="none" stroke="#5a6632" d="M1014.36,-219.354C1076.51,-205.967 1169.99,-185.833 1226.77,-173.604"/>
<ellipse fill="none" stroke="#5a6632" cx="1010.41" cy="-220.204" rx="4.00001" ry="4.00001"/>
<polygon fill="#5a6632" stroke="#5a6632" points="1226.81,-173.596 1237.53,-175.889 1231.69,-172.543 1236.58,-171.49 1236.58,-171.49 1236.58,-171.49 1231.69,-172.543 1235.63,-167.091 1226.81,-173.596 1226.81,-173.596"/>
</g>
<!-- CandidateList&#45;&gt;Candidate -->
<g id="edge12" class="edge"><title>CandidateList&#45;&gt;Candidate</title>
<path fill="none" stroke="#527220" d="M1219,-639.859C1229.18,-554.729 1262.28,-277.755 1272.78,-189.957"/>
<ellipse fill="none" stroke="#527220" cx="1218.51" cy="-644.038" rx="4.00001" ry="4.00001"/>
<polygon fill="#527220" stroke="#527220" points="1272.78,-189.915 1278.44,-180.52 1273.38,-184.951 1273.97,-179.986 1273.97,-179.986 1273.97,-179.986 1273.38,-184.951 1269.5,-179.452 1272.78,-189.915 1272.78,-189.915"/>
</g>
<!-- CandidateList&#45;&gt;Concept -->
<g id="edge13" class="edge"><title>CandidateList&#45;&gt;Concept</title>
<path fill="none" stroke="#856062" d="M1284.76,-662.355C1417.19,-656.624 1697.51,-641.169 1730,-612 1760.1,-584.979 1749,-563.447 1749,-523 1749,-523 1749,-523 1749,-377 1749,-288.361 1626.49,-253.933 1556.16,-241.473"/>
<polygon fill="#856062" stroke="#856062" points="1284.7,-662.357 1274.52,-658.287 1279.71,-662.57 1274.71,-662.783 1274.71,-662.783 1274.71,-662.783 1279.71,-662.57 1274.91,-667.279 1284.7,-662.357 1284.7,-662.357"/>
<polygon fill="#856062" stroke="#856062" points="1556.05,-241.453 1546.94,-235.352 1551.12,-240.621 1546.19,-239.79 1546.19,-239.79 1546.19,-239.79 1551.12,-240.621 1545.44,-244.227 1556.05,-241.453 1556.05,-241.453"/>
</g>
<!-- Course -->
<g id="node12" class="node"><title>Course</title>
<ellipse fill="none" stroke="black" cx="1089" cy="-594" rx="35.6194" ry="18"/>
<text text-anchor="middle" x="1089" y="-590.3" font-family="Times,serif" font-size="14.00">Course</text>
</g>
<!-- CandidateList&#45;&gt;Course -->
<g id="edge14" class="edge"><title>CandidateList&#45;&gt;Course</title>
<path fill="none" stroke="#90a578" d="M1181.56,-646.017C1162.18,-635.336 1138.2,-622.119 1119.51,-611.814"/>
<ellipse fill="none" stroke="#90a578" cx="1185.25" cy="-648.052" rx="4.00002" ry="4.00002"/>
<ellipse fill="#90a578" stroke="#90a578" cx="1115.87" cy="-609.808" rx="4.00002" ry="4.00002"/>
</g>
<!-- CipCode -->
<g id="node8" class="node"><title>CipCode</title>
<ellipse fill="none" stroke="black" cx="853" cy="-378" rx="42.3701" ry="18"/>
<text text-anchor="middle" x="853" y="-374.3" font-family="Times,serif" font-size="14.00">CipCode</text>
</g>
<!-- CipCode&#45;&gt;User -->
<g id="edge15" class="edge"><title>CipCode&#45;&gt;User</title>
<path fill="none" stroke="#2f07a8" d="M840.6,-352.889C837.226,-346.328 833.56,-339.199 830.145,-332.56"/>
<ellipse fill="none" stroke="#2f07a8" cx="842.456" cy="-356.498" rx="4.00002" ry="4.00002"/>
<polygon fill="#2f07a8" stroke="#2f07a8" points="829.96,-332.2 829.388,-321.249 827.673,-327.753 825.386,-323.307 825.386,-323.307 825.386,-323.307 827.673,-327.753 821.385,-325.365 829.96,-332.2 829.96,-332.2"/>
</g>
<!-- Concept&#45;&gt;Candidate -->
<g id="edge16" class="edge"><title>Concept&#45;&gt;Candidate</title>
<path fill="none" stroke="#b5a879" d="M1469.34,-219.665C1465.51,-218.403 1461.69,-217.163 1458,-216 1412.1,-201.521 1359.24,-186.288 1322.36,-175.888"/>
<ellipse fill="none" stroke="#b5a879" cx="1473.34" cy="-220.999" rx="4.00001" ry="4.00001"/>
<polygon fill="#b5a879" stroke="#b5a879" points="1322.03,-175.794 1313.62,-168.755 1317.21,-174.44 1312.4,-173.087 1312.4,-173.087 1312.4,-173.087 1317.21,-174.44 1311.18,-177.419 1322.03,-175.794 1322.03,-175.794"/>
</g>
<!-- ConsentForm -->
<g id="node10" class="node"><title>ConsentForm</title>
<ellipse fill="none" stroke="black" cx="1354" cy="-594" rx="59.2173" ry="18"/>
<text text-anchor="middle" x="1354" y="-590.3" font-family="Times,serif" font-size="14.00">ConsentForm</text>
</g>
<!-- ConsentLog -->
<g id="node11" class="node"><title>ConsentLog</title>
<ellipse fill="none" stroke="black" cx="1396" cy="-234" rx="53.4184" ry="18"/>
<text text-anchor="middle" x="1396" y="-230.3" font-family="Times,serif" font-size="14.00">ConsentLog</text>
</g>
<!-- ConsentForm&#45;&gt;ConsentLog -->
<g id="edge18" class="edge"><title>ConsentForm&#45;&gt;ConsentLog</title>
<path fill="none" stroke="#98bee1" d="M1365.14,-568.247C1376.67,-540.347 1393,-493.349 1393,-451 1393,-451 1393,-451 1393,-377 1393,-336.987 1394.21,-290.646 1395.09,-262.076"/>
<ellipse fill="none" stroke="#98bee1" cx="1363.45" cy="-572.244" rx="4.00001" ry="4.00001"/>
<polygon fill="#98bee1" stroke="#98bee1" points="1395.09,-262.042 1399.91,-252.19 1395.25,-257.044 1395.41,-252.047 1395.41,-252.047 1395.41,-252.047 1395.25,-257.044 1390.91,-251.904 1395.09,-262.042 1395.09,-262.042"/>
</g>
<!-- Project -->
<g id="node26" class="node"><title>Project</title>
<ellipse fill="none" stroke="black" cx="1477" cy="-522" rx="35.6194" ry="18"/>
<text text-anchor="middle" x="1477" y="-518.3" font-family="Times,serif" font-size="14.00">Project</text>
</g>
<!-- ConsentForm&#45;&gt;Project -->
<g id="edge17" class="edge"><title>ConsentForm&#45;&gt;Project</title>
<path fill="none" stroke="#df9527" d="M1387.89,-573.713C1405.83,-563.504 1427.72,-551.045 1445.32,-541.031"/>
<ellipse fill="none" stroke="#df9527" cx="1384.17" cy="-575.833" rx="4.00002" ry="4.00002"/>
<polygon fill="#df9527" stroke="#df9527" points="1445.39,-540.988 1456.31,-539.953 1449.74,-538.515 1454.08,-536.042 1454.08,-536.042 1454.08,-536.042 1449.74,-538.515 1451.86,-532.131 1445.39,-540.988 1445.39,-540.988"/>
</g>
<!-- Course&#45;&gt;BingoGame -->
<g id="edge21" class="edge"><title>Course&#45;&gt;BingoGame</title>
<path fill="none" stroke="#439632" d="M1117.27,-574.92C1158.54,-548.517 1235.12,-499.533 1278.62,-471.714"/>
<ellipse fill="none" stroke="#439632" cx="1113.66" cy="-577.229" rx="4.00002" ry="4.00002"/>
<polygon fill="#439632" stroke="#439632" points="1278.69,-471.668 1289.54,-470.071 1282.9,-468.974 1287.11,-466.28 1287.11,-466.28 1287.11,-466.28 1282.9,-468.974 1284.69,-462.489 1278.69,-471.668 1278.69,-471.668"/>
</g>
<!-- Experience -->
<g id="node15" class="node"><title>Experience</title>
<ellipse fill="none" stroke="black" cx="923" cy="-522" rx="50.0684" ry="18"/>
<text text-anchor="middle" x="923" y="-518.3" font-family="Times,serif" font-size="14.00">Experience</text>
</g>
<!-- Course&#45;&gt;Experience -->
<g id="edge23" class="edge"><title>Course&#45;&gt;Experience</title>
<path fill="none" stroke="#75f0c8" d="M1055.1,-578.706C1028.67,-567.558 991.851,-552.034 963.799,-540.204"/>
<ellipse fill="none" stroke="#75f0c8" cx="1059.01" cy="-580.354" rx="4.00002" ry="4.00002"/>
<polygon fill="#75f0c8" stroke="#75f0c8" points="963.488,-540.073 956.022,-532.041 958.881,-538.13 954.274,-536.188 954.274,-536.188 954.274,-536.188 958.881,-538.13 952.525,-540.334 963.488,-540.073 963.488,-540.073"/>
</g>
<!-- Course&#45;&gt;Project -->
<g id="edge19" class="edge"><title>Course&#45;&gt;Project</title>
<path fill="none" stroke="#03f19a" d="M1129.84,-585.633C1203.7,-572.307 1358.79,-544.326 1434.12,-530.736"/>
<ellipse fill="none" stroke="#03f19a" cx="1125.68" cy="-586.382" rx="4.00001" ry="4.00001"/>
<polygon fill="#03f19a" stroke="#03f19a" points="1434.36,-530.692 1445,-533.345 1439.28,-529.804 1444.2,-528.917 1444.2,-528.917 1444.2,-528.917 1439.28,-529.804 1443.41,-524.488 1434.36,-530.692 1434.36,-530.692"/>
</g>
<!-- Roster -->
<g id="node30" class="node"><title>Roster</title>
<ellipse fill="none" stroke="black" cx="1173" cy="-234" rx="33.1991" ry="18"/>
<text text-anchor="middle" x="1173" y="-230.3" font-family="Times,serif" font-size="14.00">Roster</text>
</g>
<!-- Course&#45;&gt;Roster -->
<g id="edge20" class="edge"><title>Course&#45;&gt;Roster</title>
<path fill="none" stroke="#2ebe65" d="M1109.2,-570.809C1139.01,-536.402 1193.45,-466.745 1214,-396 1227.39,-349.905 1229.52,-333.422 1214,-288 1210.2,-276.875 1203.01,-266.273 1195.7,-257.516"/>
<ellipse fill="none" stroke="#2ebe65" cx="1106.22" cy="-574.203" rx="4.00002" ry="4.00002"/>
<polygon fill="#2ebe65" stroke="#2ebe65" points="1195.69,-257.505 1192.41,-247.041 1192.37,-253.767 1189.05,-250.03 1189.05,-250.03 1189.05,-250.03 1192.37,-253.767 1185.68,-253.02 1195.69,-257.505 1195.69,-257.505"/>
</g>
<!-- Course&#45;&gt;User -->
<g id="edge22" class="edge"><title>Course&#45;&gt;User</title>
<path fill="none" stroke="#3ee58e" d="M1074.85,-567.728C1063,-548.34 1044.58,-521.943 1023,-504 938.938,-434.106 859.897,-488.734 802,-396 790.058,-376.872 796.283,-351.123 804.023,-332.243"/>
<polygon fill="#3ee58e" stroke="#3ee58e" points="1074.87,-567.754 1076.11,-578.65 1077.42,-572.053 1079.97,-576.351 1079.97,-576.351 1079.97,-576.351 1077.42,-572.053 1083.84,-574.052 1074.87,-567.754 1074.87,-567.754"/>
<polygon fill="#3ee58e" stroke="#3ee58e" points="804.043,-332.198 812.23,-324.902 806.082,-327.633 808.121,-323.067 808.121,-323.067 808.121,-323.067 806.082,-327.633 804.012,-321.232 804.043,-332.198 804.043,-332.198"/>
</g>
<!-- Diagnosis&#45;&gt;User -->
<g id="edge24" class="edge"><title>Diagnosis&#45;&gt;User</title>
<path fill="none" stroke="#f76e24" d="M251.485,-367.903C267.241,-365.131 284.831,-362.23 301,-360 481.259,-335.138 698.426,-316.505 781.938,-309.756"/>
<ellipse fill="none" stroke="#f76e24" cx="247.368" cy="-368.636" rx="4.00001" ry="4.00001"/>
<ellipse fill="#f76e24" stroke="#f76e24" cx="786.075" cy="-309.424" rx="4" ry="4"/>
</g>
<!-- Email -->
<g id="node14" class="node"><title>Email</title>
<ellipse fill="none" stroke="black" cx="1081" cy="-234" rx="32.2457" ry="18"/>
<text text-anchor="middle" x="1081" y="-230.3" font-family="Times,serif" font-size="14.00">Email</text>
</g>
<!-- Experience&#45;&gt;Reaction -->
<g id="edge25" class="edge"><title>Experience&#45;&gt;Reaction</title>
<path fill="none" stroke="#3e73bf" d="M866.165,-516.928C766.729,-509.481 554.84,-492.179 377,-468 360.879,-465.808 343.341,-462.897 327.666,-460.104"/>
<ellipse fill="none" stroke="#3e73bf" cx="870.292" cy="-517.235" rx="4" ry="4"/>
<polygon fill="#3e73bf" stroke="#3e73bf" points="327.509,-460.076 318.47,-453.867 322.589,-459.185 317.669,-458.295 317.669,-458.295 317.669,-458.295 322.589,-459.185 316.867,-462.723 327.509,-460.076 327.509,-460.076"/>
</g>
<!-- FactorPack -->
<g id="node17" class="node"><title>FactorPack</title>
<ellipse fill="none" stroke="black" cx="1671" cy="-594" rx="50.0684" ry="18"/>
<text text-anchor="middle" x="1671" y="-590.3" font-family="Times,serif" font-size="14.00">FactorPack</text>
</g>
<!-- FactorPack&#45;&gt;Factor -->
<g id="edge26" class="edge"><title>FactorPack&#45;&gt;Factor</title>
<path fill="none" stroke="#061be1" d="M1671,-567.558C1671,-542.444 1671,-504.164 1671,-478.393"/>
<ellipse fill="none" stroke="#061be1" cx="1671" cy="-571.871" rx="4" ry="4"/>
<polygon fill="#061be1" stroke="#061be1" points="1671,-478.189 1675.5,-468.189 1671,-473.189 1671,-468.189 1671,-468.189 1671,-468.189 1671,-473.189 1666.5,-468.189 1671,-478.189 1671,-478.189"/>
</g>
<!-- FactorPack&#45;&gt;Project -->
<g id="edge27" class="edge"><title>FactorPack&#45;&gt;Project</title>
<path fill="none" stroke="#7e38c0" d="M1629.01,-577.849C1594.96,-565.565 1547.41,-548.407 1514.6,-536.568"/>
<ellipse fill="none" stroke="#7e38c0" cx="1633" cy="-579.289" rx="4.00001" ry="4.00001"/>
<polygon fill="#7e38c0" stroke="#7e38c0" points="1514.33,-536.47 1506.45,-528.843 1509.63,-534.773 1504.93,-533.076 1504.93,-533.076 1504.93,-533.076 1509.63,-534.773 1503.4,-537.309 1514.33,-536.47 1514.33,-536.47"/>
</g>
<!-- Gender -->
<g id="node18" class="node"><title>Gender</title>
<ellipse fill="none" stroke="black" cx="950" cy="-378" rx="36.096" ry="18"/>
<text text-anchor="middle" x="950" y="-374.3" font-family="Times,serif" font-size="14.00">Gender</text>
</g>
<!-- Gender&#45;&gt;User -->
<g id="edge28" class="edge"><title>Gender&#45;&gt;User</title>
<path fill="none" stroke="#cb88a3" d="M918.82,-360.59C897.085,-349.15 868.259,-333.978 846.827,-322.698"/>
<ellipse fill="none" stroke="#cb88a3" cx="922.375" cy="-362.461" rx="4.00002" ry="4.00002"/>
<polygon fill="#cb88a3" stroke="#cb88a3" points="846.694,-322.629 839.941,-313.989 842.27,-320.3 837.845,-317.971 837.845,-317.971 837.845,-317.971 842.27,-320.3 835.749,-321.953 846.694,-322.629 846.694,-322.629"/>
</g>
<!-- Group&#45;&gt;CandidateList -->
<g id="edge31" class="edge"><title>Group&#45;&gt;CandidateList</title>
<path fill="none" stroke="#492ca6" d="M884.299,-730.025C939.786,-720.119 1044.23,-701.256 1133,-684 1141.3,-682.386 1150.06,-680.639 1158.66,-678.901"/>
<ellipse fill="none" stroke="#492ca6" cx="880.088" cy="-730.776" rx="4.00001" ry="4.00001"/>
<polygon fill="#492ca6" stroke="#492ca6" points="1158.83,-678.866 1169.53,-681.283 1163.73,-677.869 1168.63,-676.873 1168.63,-676.873 1168.63,-676.873 1163.73,-677.869 1167.73,-672.463 1158.83,-678.866 1158.83,-678.866"/>
</g>
<!-- GroupRevision -->
<g id="node20" class="node"><title>GroupRevision</title>
<ellipse fill="none" stroke="black" cx="753" cy="-666" rx="64.0172" ry="18"/>
<text text-anchor="middle" x="753" y="-662.3" font-family="Times,serif" font-size="14.00">GroupRevision</text>
</g>
<!-- Group&#45;&gt;GroupRevision -->
<g id="edge30" class="edge"><title>Group&#45;&gt;GroupRevision</title>
<path fill="none" stroke="#f807bc" d="M819.668,-717.725C808.053,-708.888 794.218,-698.362 782.171,-689.195"/>
<ellipse fill="none" stroke="#f807bc" cx="823.199" cy="-720.412" rx="4.00002" ry="4.00002"/>
<polygon fill="#f807bc" stroke="#f807bc" points="782.123,-689.159 776.889,-679.522 778.144,-686.131 774.164,-683.103 774.164,-683.103 774.164,-683.103 778.144,-686.131 771.44,-686.685 782.123,-689.159 782.123,-689.159"/>
</g>
<!-- Group&#45;&gt;Installment -->
<g id="edge32" class="edge"><title>Group&#45;&gt;Installment</title>
<path fill="none" stroke="#32d73a" d="M808.495,-726.825C774.724,-717.049 723.35,-701.251 680,-684 473.502,-601.826 420.94,-580.04 229,-468 180.763,-439.843 162.019,-438.687 126,-396 91.4972,-355.11 68.907,-295.91 57.8939,-261.855"/>
<ellipse fill="none" stroke="#32d73a" cx="812.42" cy="-727.953" rx="4.00001" ry="4.00001"/>
<polygon fill="#32d73a" stroke="#32d73a" points="57.8401,-261.683 59.1412,-250.794 56.3437,-256.912 54.8474,-252.141 54.8474,-252.141 54.8474,-252.141 56.3437,-256.912 50.5536,-253.488 57.8401,-261.683 57.8401,-261.683"/>
</g>
<!-- Group&#45;&gt;User -->
<g id="edge29" class="edge"><title>Group&#45;&gt;User</title>
<path fill="none" stroke="#da0297" d="M840.74,-710.011C834.921,-664.596 828.861,-571.274 864,-504 904.057,-427.311 1046.72,-429.362 995,-360 978.067,-337.29 900.522,-320.787 853.547,-312.668"/>
<polygon fill="#da0297" stroke="#da0297" points="840.747,-710.066 837.655,-720.587 841.43,-715.019 842.113,-719.972 842.113,-719.972 842.113,-719.972 841.43,-715.019 846.571,-719.357 840.747,-710.066 840.747,-710.066"/>
<polygon fill="#da0297" stroke="#da0297" points="853.314,-312.629 844.199,-306.533 848.383,-311.8 843.453,-310.971 843.453,-310.971 843.453,-310.971 848.383,-311.8 842.706,-315.409 853.314,-312.629 853.314,-312.629"/>
</g>
<!-- HomeCountry -->
<g id="node21" class="node"><title>HomeCountry</title>
<ellipse fill="none" stroke="black" cx="514" cy="-450" rx="61.6163" ry="18"/>
<text text-anchor="middle" x="514" y="-446.3" font-family="Times,serif" font-size="14.00">HomeCountry</text>
</g>
<!-- HomeState -->
<g id="node22" class="node"><title>HomeState</title>
<ellipse fill="none" stroke="black" cx="469" cy="-378" rx="50.0684" ry="18"/>
<text text-anchor="middle" x="469" y="-374.3" font-family="Times,serif" font-size="14.00">HomeState</text>
</g>
<!-- HomeCountry&#45;&gt;HomeState -->
<g id="edge34" class="edge"><title>HomeCountry&#45;&gt;HomeState</title>
<path fill="none" stroke="#39d746" d="M498.751,-425.28C494.471,-418.622 489.799,-411.354 485.452,-404.591"/>
<ellipse fill="none" stroke="#39d746" cx="500.944" cy="-428.69" rx="4.00002" ry="4.00002"/>
<polygon fill="#39d746" stroke="#39d746" points="485.201,-404.201 483.578,-393.356 482.497,-399.995 479.793,-395.789 479.793,-395.789 479.793,-395.789 482.497,-399.995 476.008,-398.222 485.201,-404.201 485.201,-404.201"/>
</g>
<!-- HomeCountry&#45;&gt;User -->
<g id="edge33" class="edge"><title>HomeCountry&#45;&gt;User</title>
<path fill="none" stroke="#67b621" d="M522.015,-424.329C529.94,-403.921 544.093,-375.808 566,-360 599.885,-335.549 718.95,-318.467 780.118,-311.088"/>
<ellipse fill="none" stroke="#67b621" cx="520.568" cy="-428.25" rx="4.00001" ry="4.00001"/>
<polygon fill="#67b621" stroke="#67b621" points="780.194,-311.08 790.653,-314.375 785.16,-310.493 790.125,-309.906 790.125,-309.906 790.125,-309.906 785.16,-310.493 789.597,-305.437 780.194,-311.08 780.194,-311.08"/>
</g>
<!-- HomeState&#45;&gt;User -->
<g id="edge35" class="edge"><title>HomeState&#45;&gt;User</title>
<path fill="none" stroke="#eccd9f" d="M515.433,-364.228C521.33,-362.736 527.295,-361.288 533,-360 621.295,-340.064 726.239,-321.897 780.479,-312.912"/>
<ellipse fill="none" stroke="#eccd9f" cx="511.339" cy="-365.283" rx="4.00001" ry="4.00001"/>
<polygon fill="#eccd9f" stroke="#eccd9f" points="780.764,-312.865 791.363,-315.68 785.698,-312.053 790.631,-311.24 790.631,-311.24 790.631,-311.24 785.698,-312.053 789.9,-306.8 780.764,-312.865 780.764,-312.865"/>
</g>
<!-- Value -->
<g id="node36" class="node"><title>Value</title>
<ellipse fill="none" stroke="black" cx="50" cy="-162" rx="31.2735" ry="18"/>
<text text-anchor="middle" x="50" y="-158.3" font-family="Times,serif" font-size="14.00">Value</text>
</g>
<!-- Installment&#45;&gt;Value -->
<g id="edge36" class="edge"><title>Installment&#45;&gt;Value</title>
<path fill="none" stroke="#42263e" d="M50,-207.64C50,-202.063 50,-196.132 50,-190.476"/>
<ellipse fill="none" stroke="#42263e" cx="50" cy="-211.697" rx="4" ry="4"/>
<polygon fill="#42263e" stroke="#42263e" points="50.0001,-190.104 54.5,-180.104 50,-185.104 50,-180.104 50,-180.104 50,-180.104 50,-185.104 45.5,-180.104 50.0001,-190.104 50.0001,-190.104"/>
</g>
<!-- Language -->
<g id="node24" class="node"><title>Language</title>
<ellipse fill="none" stroke="black" cx="620" cy="-378" rx="45.244" ry="18"/>
<text text-anchor="middle" x="620" y="-374.3" font-family="Times,serif" font-size="14.00">Language</text>
</g>
<!-- Language&#45;&gt;User -->
<g id="edge37" class="edge"><title>Language&#45;&gt;User</title>
<path fill="none" stroke="#56880c" d="M662.058,-362.056C698.469,-349.118 750.412,-330.661 783.919,-318.755"/>
<polygon fill="#56880c" stroke="#56880c" points="661.953,-362.093 651.024,-361.201 657.242,-363.767 652.531,-365.441 652.531,-365.441 652.531,-365.441 657.242,-363.767 654.037,-369.681 661.953,-362.093 661.953,-362.093"/>
<polygon fill="#56880c" stroke="#56880c" points="784.266,-318.631 795.195,-319.523 788.977,-316.957 793.689,-315.283 793.689,-315.283 793.689,-315.283 788.977,-316.957 792.182,-311.043 784.266,-318.631 784.266,-318.631"/>
</g>
<!-- Narrative -->
<g id="node25" class="node"><title>Narrative</title>
<ellipse fill="none" stroke="black" cx="287" cy="-234" rx="44.2946" ry="18"/>
<text text-anchor="middle" x="287" y="-230.3" font-family="Times,serif" font-size="14.00">Narrative</text>
</g>
<!-- Narrative&#45;&gt;Behavior -->
<g id="edge39" class="edge"><title>Narrative&#45;&gt;Behavior</title>
<path fill="none" stroke="#8e9746" d="M284.196,-207.498C281.495,-189.181 276.381,-164.253 267,-144 261.931,-133.058 254.326,-122.208 247.103,-113.203"/>
<ellipse fill="none" stroke="#8e9746" cx="284.799" cy="-211.946" rx="4.00001" ry="4.00001"/>
<ellipse fill="#8e9746" stroke="#8e9746" cx="244.508" cy="-110.075" rx="4.00002" ry="4.00002"/>
</g>
<!-- Narrative&#45;&gt;Reaction -->
<g id="edge40" class="edge"><title>Narrative&#45;&gt;Reaction</title>
<path fill="none" stroke="#10e8c7" d="M286.174,-260.263C284.848,-300.777 282.259,-379.951 280.893,-421.712"/>
<ellipse fill="none" stroke="#10e8c7" cx="286.306" cy="-256.23" rx="4" ry="4"/>
<polygon fill="#10e8c7" stroke="#10e8c7" points="280.888,-421.855 276.063,-431.702 280.725,-426.852 280.561,-431.849 280.561,-431.849 280.561,-431.849 280.725,-426.852 285.059,-431.996 280.888,-421.855 280.888,-421.855"/>
</g>
<!-- Week -->
<g id="node37" class="node"><title>Week</title>
<ellipse fill="none" stroke="black" cx="227" cy="-162" rx="31.2735" ry="18"/>
<text text-anchor="middle" x="227" y="-158.3" font-family="Times,serif" font-size="14.00">Week</text>
</g>
<!-- Narrative&#45;&gt;Week -->
<g id="edge38" class="edge"><title>Narrative&#45;&gt;Week</title>
<path fill="none" stroke="#c52827" d="M267.758,-210.551C261.215,-202.917 253.884,-194.365 247.263,-186.64"/>
<ellipse fill="none" stroke="#c52827" cx="270.481" cy="-213.728" rx="4.00002" ry="4.00002"/>
<polygon fill="#c52827" stroke="#c52827" points="246.936,-186.258 243.844,-175.737 243.682,-182.462 240.428,-178.666 240.428,-178.666 240.428,-178.666 243.682,-182.462 237.011,-181.594 246.936,-186.258 246.936,-186.258"/>
</g>
<!-- Project&#45;&gt;Assessment -->
<g id="edge43" class="edge"><title>Project&#45;&gt;Assessment</title>
<path fill="none" stroke="#b2fe80" d="M1511.11,-537.904C1526.57,-546.601 1543.31,-559.209 1552,-576 1559.36,-590.208 1559.26,-597.742 1552,-612 1527.31,-660.482 1502.85,-662.212 1453,-684 1226.33,-783.066 1137.4,-701.956 907,-792 895.927,-796.328 884.61,-802.614 874.728,-808.831"/>
<ellipse fill="none" stroke="#b2fe80" cx="1507.2" cy="-535.824" rx="4.00002" ry="4.00002"/>
<polygon fill="#b2fe80" stroke="#b2fe80" points="874.476,-808.996 863.643,-810.697 870.29,-811.73 866.104,-814.464 866.104,-814.464 866.104,-814.464 870.29,-811.73 868.565,-818.232 874.476,-808.996 874.476,-808.996"/>
</g>
<!-- Project&#45;&gt;BingoGame -->
<g id="edge42" class="edge"><title>Project&#45;&gt;BingoGame</title>
<path fill="none" stroke="#8870e5" d="M1443.18,-506.737C1417.01,-495.701 1380.63,-480.363 1352.66,-468.569"/>
<ellipse fill="none" stroke="#8870e5" cx="1447.01" cy="-508.354" rx="4.00002" ry="4.00002"/>
<polygon fill="#8870e5" stroke="#8870e5" points="1352.37,-468.444 1344.9,-460.412 1347.76,-466.501 1343.15,-464.559 1343.15,-464.559 1343.15,-464.559 1347.76,-466.501 1341.4,-468.705 1352.37,-468.444 1352.37,-468.444"/>
</g>
<!-- Project&#45;&gt;Factor -->
<g id="edge45" class="edge"><title>Project&#45;&gt;Factor</title>
<path fill="none" stroke="#e68696" d="M1514.89,-507.327C1549.47,-494.85 1600.24,-476.53 1634.41,-464.203"/>
<polygon fill="#e68696" stroke="#e68696" points="1514.62,-507.427 1503.68,-506.589 1509.91,-509.124 1505.21,-510.821 1505.21,-510.821 1505.21,-510.821 1509.91,-509.124 1506.74,-515.054 1514.62,-507.427 1514.62,-507.427"/>
<polygon fill="#e68696" stroke="#e68696" points="1634.6,-464.134 1645.53,-464.972 1639.3,-462.437 1644.01,-460.74 1644.01,-460.74 1644.01,-460.74 1639.3,-462.437 1642.48,-456.507 1634.6,-464.134 1634.6,-464.134"/>
</g>
<!-- Project&#45;&gt;Group -->
<g id="edge41" class="edge"><title>Project&#45;&gt;Group</title>
<path fill="none" stroke="#85ef5e" d="M1505.55,-541.17C1516.96,-550.126 1528.84,-562.019 1535,-576 1541.45,-590.641 1544.63,-599.221 1535,-612 1456.64,-716.001 1027.41,-733.474 888.436,-736.408"/>
<ellipse fill="none" stroke="#85ef5e" cx="1502.15" cy="-538.632" rx="4.00002" ry="4.00002"/>
<polygon fill="#85ef5e" stroke="#85ef5e" points="888.175,-736.413 878.089,-732.11 883.176,-736.511 878.177,-736.609 878.177,-736.609 878.177,-736.609 883.176,-736.511 878.265,-741.108 888.175,-736.413 888.175,-736.413"/>
</g>
<!-- Project&#45;&gt;User -->
<g id="edge44" class="edge"><title>Project&#45;&gt;User</title>
<path fill="none" stroke="#2ea1f0" d="M1456.97,-497.482C1437.71,-476.59 1406.65,-447.093 1373,-432 1264.95,-383.532 1217.31,-443.884 1109,-396 1086.2,-385.922 1088.41,-370.917 1066,-360 996.078,-325.932 904.621,-313.657 854.279,-309.312"/>
<polygon fill="#2ea1f0" stroke="#2ea1f0" points="1457.06,-497.586 1460.4,-508.03 1460.41,-501.303 1463.75,-505.021 1463.75,-505.021 1463.75,-505.021 1460.41,-501.303 1467.1,-502.011 1457.06,-497.586 1457.06,-497.586"/>
<polygon fill="#2ea1f0" stroke="#2ea1f0" points="854.152,-309.302 844.544,-304.015 849.168,-308.901 844.184,-308.5 844.184,-308.5 844.184,-308.5 849.168,-308.901 843.823,-312.986 854.152,-309.302 854.152,-309.302"/>
</g>
<!-- Quote -->
<g id="node27" class="node"><title>Quote</title>
<ellipse fill="none" stroke="black" cx="948" cy="-831" rx="32.2457" ry="18"/>
<text text-anchor="middle" x="948" y="-827.3" font-family="Times,serif" font-size="14.00">Quote</text>
</g>
<!-- Reaction&#45;&gt;Course -->
<g id="edge46" class="edge"><title>Reaction&#45;&gt;Course</title>
<path fill="none" stroke="#d5efb2" d="M328.143,-456.496C360.572,-460.082 404.322,-464.693 443,-468 562.608,-478.228 870.53,-459.445 982,-504 1017.94,-518.366 1050.8,-549.6 1070.36,-570.968"/>
<ellipse fill="none" stroke="#d5efb2" cx="324.128" cy="-456.05" rx="4.00001" ry="4.00001"/>
<ellipse fill="#d5efb2" stroke="#d5efb2" cx="1073.08" cy="-574.004" rx="4.00002" ry="4.00002"/>
</g>
<!-- Reaction&#45;&gt;Diagnosis -->
<g id="edge47" class="edge"><title>Reaction&#45;&gt;Diagnosis</title>
<path fill="none" stroke="#66a809" d="M256.673,-427.794C247.531,-419.483 237.03,-409.936 227.754,-401.504"/>
<ellipse fill="none" stroke="#66a809" cx="259.951" cy="-430.774" rx="4.00002" ry="4.00002"/>
<polygon fill="#66a809" stroke="#66a809" points="227.707,-401.461 223.334,-391.404 224.007,-398.097 220.307,-394.734 220.307,-394.734 220.307,-394.734 224.007,-398.097 217.28,-398.064 227.707,-401.461 227.707,-401.461"/>
</g>
<!-- Role -->
<g id="node29" class="node"><title>Role</title>
<ellipse fill="none" stroke="black" cx="1145" cy="-378" rx="26.949" ry="18"/>
<text text-anchor="middle" x="1145" y="-374.3" font-family="Times,serif" font-size="14.00">Role</text>
</g>
<!-- Role&#45;&gt;Roster -->
<g id="edge49" class="edge"><title>Role&#45;&gt;Roster</title>
<path fill="none" stroke="#02f85e" d="M1149.94,-351.929C1154.91,-326.725 1162.55,-287.994 1167.66,-262.095"/>
<ellipse fill="none" stroke="#02f85e" cx="1149.15" cy="-355.947" rx="4.00001" ry="4.00001"/>
<polygon fill="#02f85e" stroke="#02f85e" points="1167.68,-262 1174.03,-253.06 1168.64,-257.095 1169.61,-252.189 1169.61,-252.189 1169.61,-252.189 1168.64,-257.095 1165.2,-251.319 1167.68,-262 1167.68,-262"/>
</g>
<!-- Role&#45;&gt;User -->
<g id="edge48" class="edge"><title>Role&#45;&gt;User</title>
<path fill="none" stroke="#5476f2" d="M1115.5,-363.907C1111.67,-362.465 1107.77,-361.117 1104,-360 1015.91,-333.92 908.633,-318.196 853.536,-311.242"/>
<ellipse fill="none" stroke="#5476f2" cx="1119.46" cy="-365.48" rx="4.00001" ry="4.00001"/>
<polygon fill="#5476f2" stroke="#5476f2" points="853.477,-311.234 844.106,-305.54 848.515,-310.62 843.553,-310.006 843.553,-310.006 843.553,-310.006 848.515,-310.62 843,-314.472 853.477,-311.234 853.477,-311.234"/>
</g>
<!-- Scenario&#45;&gt;Narrative -->
<g id="edge50" class="edge"><title>Scenario&#45;&gt;Narrative</title>
<path fill="none" stroke="#9601d6" d="M278.885,-44.3229C281.604,-69.5443 285.48,-109.39 287,-144 287.909,-164.709 287.866,-188.155 287.618,-205.782"/>
<ellipse fill="none" stroke="#9601d6" cx="278.448" cy="-40.3351" rx="4.00001" ry="4.00001"/>
<polygon fill="#9601d6" stroke="#9601d6" points="287.616,-205.93 282.945,-215.851 287.53,-210.929 287.444,-215.928 287.444,-215.928 287.444,-215.928 287.53,-210.929 291.944,-216.005 287.616,-205.93 287.616,-205.93"/>
</g>
<!-- School -->
<g id="node32" class="node"><title>School</title>
<ellipse fill="none" stroke="black" cx="1089" cy="-666" rx="35.1455" ry="18"/>
<text text-anchor="middle" x="1089" y="-662.3" font-family="Times,serif" font-size="14.00">School</text>
</g>
<!-- School&#45;&gt;BingoGame -->
<g id="edge52" class="edge"><title>School&#45;&gt;BingoGame</title>
<path fill="none" stroke="#1fc9f1" d="M1112.21,-642.624C1154.61,-601.756 1244.15,-515.443 1287.07,-474.068"/>
<polygon fill="#1fc9f1" stroke="#1fc9f1" points="1112.17,-642.669 1101.84,-646.37 1108.57,-646.14 1104.97,-649.61 1104.97,-649.61 1104.97,-649.61 1108.57,-646.14 1108.09,-652.849 1112.17,-642.669 1112.17,-642.669"/>
<polygon fill="#1fc9f1" stroke="#1fc9f1" points="1287.08,-474.061 1297.4,-470.36 1290.68,-470.59 1294.28,-467.12 1294.28,-467.12 1294.28,-467.12 1290.68,-470.59 1291.15,-463.881 1287.08,-474.061 1287.08,-474.061"/>
</g>
<!-- School&#45;&gt;Course -->
<g id="edge51" class="edge"><title>School&#45;&gt;Course</title>
<path fill="none" stroke="#ea45b6" d="M1089,-639.64C1089,-634.063 1089,-628.132 1089,-622.476"/>
<ellipse fill="none" stroke="#ea45b6" cx="1089" cy="-643.697" rx="4" ry="4"/>
<polygon fill="#ea45b6" stroke="#ea45b6" points="1089,-622.104 1093.5,-612.104 1089,-617.104 1089,-612.104 1089,-612.104 1089,-612.104 1089,-617.104 1084.5,-612.104 1089,-622.104 1089,-622.104"/>
</g>
<!-- School&#45;&gt;Experience -->
<g id="edge54" class="edge"><title>School&#45;&gt;Experience</title>
<path fill="none" stroke="#cc6fb6" d="M1058.23,-646.073C1043.46,-636.497 1025.8,-624.313 1011,-612 986.591,-591.693 961.376,-565.571 944.228,-546.889"/>
<polygon fill="#cc6fb6" stroke="#cc6fb6" points="1058.58,-646.293 1064.58,-655.468 1062.79,-648.985 1067,-651.676 1067,-651.676 1067,-651.676 1062.79,-648.985 1069.43,-647.883 1058.58,-646.293 1058.58,-646.293"/>
<polygon fill="#cc6fb6" stroke="#cc6fb6" points="944.125,-546.776 940.728,-536.349 940.762,-543.076 937.398,-539.376 937.398,-539.376 937.398,-539.376 940.762,-543.076 934.068,-542.403 944.125,-546.776 944.125,-546.776"/>
</g>
<!-- School&#45;&gt;Project -->
<g id="edge53" class="edge"><title>School&#45;&gt;Project</title>
<path fill="none" stroke="#b7642a" d="M1127.57,-652.792C1134.02,-651.013 1140.67,-649.334 1147,-648 1267.62,-622.588 1318.47,-678.903 1422,-612 1444.55,-597.428 1459.4,-570.012 1467.92,-549.443"/>
<polygon fill="#b7642a" stroke="#b7642a" points="1127.3,-652.871 1116.44,-651.311 1122.49,-654.253 1117.69,-655.636 1117.69,-655.636 1117.69,-655.636 1122.49,-654.253 1118.93,-659.96 1127.3,-652.871 1127.3,-652.871"/>
<polygon fill="#b7642a" stroke="#b7642a" points="1467.97,-549.301 1475.79,-541.613 1469.78,-544.641 1471.6,-539.982 1471.6,-539.982 1471.6,-539.982 1469.78,-544.641 1467.4,-538.35 1467.97,-549.301 1467.97,-549.301"/>
</g>
<!-- School&#45;&gt;Roster -->
<g id="edge55" class="edge"><title>School&#45;&gt;Roster</title>
<path fill="none" stroke="#f00a1f" d="M1064.37,-643.108C1056.27,-634.338 1048.25,-623.568 1044,-612 1038.48,-596.981 1038.89,-591.161 1044,-576 1076.13,-480.736 1148.87,-491.264 1181,-396 1196.19,-350.971 1187.71,-294.843 1180.28,-262.151"/>
<polygon fill="#f00a1f" stroke="#f00a1f" points="1064.4,-643.144 1068.21,-653.426 1067.91,-646.706 1071.42,-650.269 1071.42,-650.269 1071.42,-650.269 1067.91,-646.706 1074.63,-647.112 1064.4,-643.144 1064.4,-643.144"/>
<polygon fill="#f00a1f" stroke="#f00a1f" points="1180.17,-261.734 1182.21,-250.958 1179,-256.873 1177.83,-252.012 1177.83,-252.012 1177.83,-252.012 1179,-256.873 1173.46,-253.067 1180.17,-261.734 1180.17,-261.734"/>
</g>
<!-- Style -->
<g id="node33" class="node"><title>Style</title>
<ellipse fill="none" stroke="black" cx="1498" cy="-594" rx="28.3955" ry="18"/>
<text text-anchor="middle" x="1498" y="-590.3" font-family="Times,serif" font-size="14.00">Style</text>
</g>
<!-- Style&#45;&gt;Project -->
<g id="edge56" class="edge"><title>Style&#45;&gt;Project</title>
<path fill="none" stroke="#55137b" d="M1490.58,-568.267C1488.8,-562.34 1486.89,-555.981 1485.09,-549.959"/>
<ellipse fill="none" stroke="#55137b" cx="1491.77" cy="-572.224" rx="4.00001" ry="4.00001"/>
<polygon fill="#55137b" stroke="#55137b" points="1485.06,-549.854 1486.49,-538.982 1483.62,-545.064 1482.18,-540.275 1482.18,-540.275 1482.18,-540.275 1483.62,-545.064 1477.87,-541.568 1485.06,-549.854 1485.06,-549.854"/>
</g>
<!-- Theme -->
<g id="node34" class="node"><title>Theme</title>
<ellipse fill="none" stroke="black" cx="719" cy="-378" rx="35.6194" ry="18"/>
<text text-anchor="middle" x="719" y="-374.3" font-family="Times,serif" font-size="14.00">Theme</text>
</g>
<!-- Theme&#45;&gt;User -->
<g id="edge57" class="edge"><title>Theme&#45;&gt;User</title>
<path fill="none" stroke="#338f77" d="M745.346,-358.181C759.465,-348.096 776.801,-335.714 790.884,-325.654"/>
<ellipse fill="none" stroke="#338f77" cx="742.087" cy="-360.509" rx="4.00002" ry="4.00002"/>
<polygon fill="#338f77" stroke="#338f77" points="791.037,-325.545 801.79,-323.394 795.106,-322.638 799.175,-319.732 799.175,-319.732 799.175,-319.732 795.106,-322.638 796.559,-316.07 791.037,-325.545 791.037,-325.545"/>
</g>
<!-- User&#45;&gt;Candidate -->
<g id="edge62" class="edge"><title>User&#45;&gt;Candidate</title>
<path fill="none" stroke="#7b64e0" d="M822.622,-280.323C828.695,-259.654 840.527,-231.168 862,-216 918.376,-176.177 1120.12,-166.273 1219.65,-163.812"/>
<ellipse fill="none" stroke="#7b64e0" cx="821.553" cy="-284.233" rx="4.00001" ry="4.00001"/>
<polygon fill="#7b64e0" stroke="#7b64e0" points="1219.82,-163.809 1229.92,-168.077 1224.82,-163.693 1229.82,-163.578 1229.82,-163.578 1229.82,-163.578 1224.82,-163.693 1229.71,-159.079 1219.82,-163.809 1219.82,-163.809"/>
</g>
<!-- User&#45;&gt;CandidateList -->
<g id="edge60" class="edge"><title>User&#45;&gt;CandidateList</title>
<path fill="none" stroke="#fd3d42" d="M852.644,-307.931C897.587,-310.774 975.332,-321.417 1028,-360 1079.65,-397.839 1169.81,-572.072 1203.14,-638.852"/>
<ellipse fill="none" stroke="#fd3d42" cx="848.373" cy="-307.694" rx="4" ry="4"/>
<polygon fill="#fd3d42" stroke="#fd3d42" points="1203.18,-638.94 1203.6,-649.898 1205.41,-643.418 1207.63,-647.896 1207.63,-647.896 1207.63,-647.896 1205.41,-643.418 1211.66,-645.894 1203.18,-638.94 1203.18,-638.94"/>
</g>
<!-- User&#45;&gt;Concept -->
<g id="edge61" class="edge"><title>User&#45;&gt;Concept</title>
<path fill="none" stroke="#c41fae" d="M852.257,-305.098C949.731,-304.725 1230.67,-299.294 1458,-252 1461.47,-251.278 1465.03,-250.386 1468.58,-249.392"/>
<ellipse fill="none" stroke="#c41fae" cx="848.208" cy="-305.108" rx="4" ry="4"/>
<polygon fill="#c41fae" stroke="#c41fae" points="1468.89,-249.298 1479.77,-250.681 1473.67,-247.837 1478.46,-246.377 1478.46,-246.377 1478.46,-246.377 1473.67,-247.837 1477.14,-242.073 1468.89,-249.298 1468.89,-249.298"/>
</g>
<!-- User&#45;&gt;ConsentLog -->
<g id="edge59" class="edge"><title>User&#45;&gt;ConsentLog</title>
<path fill="none" stroke="#45e645" d="M851.919,-300.778C947.797,-289.187 1215.96,-256.766 1336.27,-242.222"/>
<ellipse fill="none" stroke="#45e645" cx="847.736" cy="-301.284" rx="4.00001" ry="4.00001"/>
<polygon fill="#45e645" stroke="#45e645" points="1336.47,-242.197 1346.94,-245.464 1341.44,-241.596 1346.4,-240.996 1346.4,-240.996 1346.4,-240.996 1341.44,-241.596 1345.86,-236.529 1336.47,-242.197 1336.47,-242.197"/>
</g>
<!-- User&#45;&gt;Email -->
<g id="edge58" class="edge"><title>User&#45;&gt;Email</title>
<path fill="none" stroke="#1a544d" d="M851.035,-298.533C894.979,-289.806 973.582,-272.918 1039,-252 1041.58,-251.175 1044.23,-250.264 1046.87,-249.306"/>
<ellipse fill="none" stroke="#1a544d" cx="846.908" cy="-299.345" rx="4.00001" ry="4.00001"/>
<polygon fill="#1a544d" stroke="#1a544d" points="1047.01,-249.255 1057.96,-249.899 1051.68,-247.474 1056.35,-245.694 1056.35,-245.694 1056.35,-245.694 1051.68,-247.474 1054.75,-241.489 1047.01,-249.255 1047.01,-249.255"/>
</g>
<!-- User&#45;&gt;Experience -->
<g id="edge66" class="edge"><title>User&#45;&gt;Experience</title>
<path fill="none" stroke="#7628aa" d="M779.969,-309.077C684.23,-314.824 434.275,-332.359 410,-360 399.442,-372.022 406.588,-380.368 410,-396 417.506,-430.391 414.464,-447.39 443,-468 508.662,-515.424 748.643,-521.453 862.4,-521.557"/>
<polygon fill="#7628aa" stroke="#7628aa" points="780.083,-309.071 790.331,-312.973 785.074,-308.776 790.065,-308.481 790.065,-308.481 790.065,-308.481 785.074,-308.776 789.8,-303.989 780.083,-309.071 780.083,-309.071"/>
<polygon fill="#7628aa" stroke="#7628aa" points="862.676,-521.557 872.679,-526.051 867.676,-521.554 872.676,-521.551 872.676,-521.551 872.676,-521.551 867.676,-521.554 872.673,-517.051 862.676,-521.557 862.676,-521.557"/>
</g>
<!-- User&#45;&gt;Installment -->
<g id="edge63" class="edge"><title>User&#45;&gt;Installment</title>
<path fill="none" stroke="#1aefd5" d="M782.279,-301.861C691.93,-293.691 442.066,-271.069 234,-252 191.985,-248.149 144.576,-243.768 108.405,-240.418"/>
<ellipse fill="none" stroke="#1aefd5" cx="786.284" cy="-302.224" rx="4" ry="4"/>
<polygon fill="#1aefd5" stroke="#1aefd5" points="107.995,-240.38 98.4532,-234.977 103.017,-239.919 98.038,-239.458 98.038,-239.458 98.038,-239.458 103.017,-239.919 97.6229,-243.939 107.995,-240.38 107.995,-240.38"/>
</g>
<!-- User&#45;&gt;Narrative -->
<g id="edge67" class="edge"><title>User&#45;&gt;Narrative</title>
<path fill="none" stroke="#d15a8a" d="M780.304,-300.153C687.858,-287.943 445.186,-255.892 338.534,-241.806"/>
<polygon fill="#d15a8a" stroke="#d15a8a" points="780.44,-300.171 789.765,-305.942 785.397,-300.826 790.354,-301.481 790.354,-301.481 790.354,-301.481 785.397,-300.826 790.943,-297.019 780.44,-300.171 780.44,-300.171"/>
<polygon fill="#d15a8a" stroke="#d15a8a" points="338.257,-241.77 328.932,-235.999 333.3,-241.115 328.343,-240.46 328.343,-240.46 328.343,-240.46 333.3,-241.115 327.754,-244.922 338.257,-241.77 338.257,-241.77"/>
</g>
<!-- User&#45;&gt;Reaction -->
<g id="edge65" class="edge"><title>User&#45;&gt;Reaction</title>
<path fill="none" stroke="#a691f2" d="M781.648,-307.112C684.083,-308.007 413.361,-314.622 339,-360 315.503,-374.339 299.415,-401.985 290.045,-422.678"/>
<ellipse fill="none" stroke="#a691f2" cx="785.729" cy="-307.079" rx="4" ry="4"/>
<polygon fill="#a691f2" stroke="#a691f2" points="290.031,-422.713 281.96,-430.136 288.064,-427.309 286.097,-431.906 286.097,-431.906 286.097,-431.906 288.064,-427.309 290.234,-433.677 290.031,-422.713 290.031,-422.713"/>
</g>
<!-- User&#45;&gt;Roster -->
<g id="edge64" class="edge"><title>User&#45;&gt;Roster</title>
<path fill="none" stroke="#fe87f1" d="M851.328,-300.742C908.159,-293.314 1025.14,-276.413 1122,-252 1126.73,-250.808 1131.65,-249.395 1136.49,-247.9"/>
<ellipse fill="none" stroke="#fe87f1" cx="847.356" cy="-301.256" rx="4.00001" ry="4.00001"/>
<polygon fill="#fe87f1" stroke="#fe87f1" points="1136.71,-247.83 1147.61,-249.044 1141.47,-246.296 1146.23,-244.761 1146.23,-244.761 1146.23,-244.761 1141.47,-246.296 1144.84,-240.478 1136.71,-247.83 1136.71,-247.83"/>
</g>
<!-- Week&#45;&gt;Behavior -->
<g id="edge68" class="edge"><title>Week&#45;&gt;Behavior</title>
<path fill="none" stroke="#f2372c" d="M227,-135.64C227,-129.348 227,-122.605 227,-116.316"/>
<ellipse fill="none" stroke="#f2372c" cx="227" cy="-139.697" rx="4" ry="4"/>
<ellipse fill="#f2372c" stroke="#f2372c" cx="227" cy="-112.104" rx="4" ry="4"/>
</g>
<!-- Week&#45;&gt;Diagnosis -->
<g id="edge69" class="edge"><title>Week&#45;&gt;Diagnosis</title>
<path fill="none" stroke="#417392" d="M224.167,-188.263C219.623,-228.777 210.744,-307.951 206.06,-349.712"/>
<ellipse fill="none" stroke="#417392" cx="224.622" cy="-184.208" rx="4.00001" ry="4.00001"/>
<polygon fill="#417392" stroke="#417392" points="206.038,-349.912 200.451,-359.348 205.481,-354.88 204.923,-359.849 204.923,-359.849 204.923,-359.849 205.481,-354.88 209.395,-360.351 206.038,-349.912 206.038,-349.912"/>
</g>
</g>
</svg>
