<?xml version="1.0" encoding="UTF-8" standalone="no"?>
<!DOCTYPE svg PUBLIC "-//W3C//DTD SVG 1.1//EN"
 "http://www.w3.org/Graphics/SVG/1.1/DTD/svg11.dtd">
<!-- Generated by graphviz version 7.0.2 (20221119.0110)
 -->
<!-- Title: models_diagram Pages: 1 -->
<svg width="2329pt" height="1223pt"
 viewBox="0.00 0.00 2329.00 1223.00" xmlns="http://www.w3.org/2000/svg" xmlns:xlink="http://www.w3.org/1999/xlink">
<g id="graph0" class="graph" transform="scale(1 1) rotate(0) translate(4 1219)">
<title>models_diagram</title>
<polygon fill="none" stroke="none" points="-4,4 -4,-1219 2325,-1219 2325,4 -4,4"/>
<!-- _diagram_info -->
<g id="node1" class="node">
<title>_diagram_info</title>
<text text-anchor="start" x="8" y="-1200.6" font-family="Times,serif" font-size="13.00">Models diagram</text>
<text text-anchor="start" x="8" y="-1186.6" font-family="Times,serif" font-size="13.00">Date: Dec 01 2022 &#45; 08:51</text>
<text text-anchor="start" x="8" y="-1172.6" font-family="Times,serif" font-size="13.00">Migration version: 20220226235110</text>
<text text-anchor="start" x="8" y="-1158.6" font-family="Times,serif" font-size="13.00">Generated by RailRoady 1.6.0</text>
<text text-anchor="start" x="8" y="-1144.6" font-family="Times,serif" font-size="13.00">http://railroady.prestonlee.com</text>
</g>
<!-- ApplicationRecord -->
<g id="node2" class="node">
<title>ApplicationRecord</title>
<ellipse fill="none" stroke="black" cx="307" cy="-1176" rx="77.19" ry="18"/>
<text text-anchor="middle" x="307" y="-1172.3" font-family="Times,serif" font-size="14.00">ApplicationRecord</text>
</g>
<!-- Assessment -->
<g id="node3" class="node">
<title>Assessment</title>
<ellipse fill="none" stroke="black" cx="455" cy="-1176" rx="52.79" ry="18"/>
<text text-anchor="middle" x="455" y="-1172.3" font-family="Times,serif" font-size="14.00">Assessment</text>
</g>
<!-- Course -->
<g id="node15" class="node">
<title>Course</title>
<ellipse fill="none" stroke="black" cx="1167" cy="-1082" rx="36" ry="18"/>
<text text-anchor="middle" x="1167" y="-1078.3" font-family="Times,serif" font-size="14.00">Course</text>
</g>
<!-- Assessment&#45;&gt;Course -->
<g id="edge2" class="edge">
<title>Assessment&#45;&gt;Course</title>
<path fill="none" stroke="#db0cc8" d="M513.84,-1167.4C652.8,-1149.44 998.88,-1104.72 1122.35,-1088.77"/>
<polygon fill="#db0cc8" stroke="#db0cc8" points="513.86,-1167.39 503.36,-1164.21 508.9,-1168.04 503.94,-1168.68 503.94,-1168.68 503.94,-1168.68 508.9,-1168.04 504.52,-1173.14 513.86,-1167.39 513.86,-1167.39"/>
<polygon fill="#db0cc8" stroke="#db0cc8" points="1122.31,-1088.77 1132.8,-1091.96 1127.27,-1088.13 1132.23,-1087.49 1132.23,-1087.49 1132.23,-1087.49 1127.27,-1088.13 1131.65,-1083.03 1122.31,-1088.77 1122.31,-1088.77"/>
</g>
<!-- Factor -->
<g id="node19" class="node">
<title>Factor</title>
<ellipse fill="none" stroke="black" cx="796" cy="-237" rx="33.29" ry="18"/>
<text text-anchor="middle" x="796" y="-233.3" font-family="Times,serif" font-size="14.00">Factor</text>
</g>
<!-- Assessment&#45;&gt;Factor -->
<g id="edge4" class="edge">
<title>Assessment&#45;&gt;Factor</title>
<path fill="none" stroke="#578e18" d="M426.41,-1153.55C416.35,-1147.1 404.64,-1140.75 393,-1137 322.9,-1114.42 66,-1156.65 66,-1083 66,-1083 66,-1083 66,-425.5 66,-282.74 596.38,-247.12 752.97,-239.72"/>
<polygon fill="#578e18" stroke="#578e18" points="426.13,-1153.36 431.92,-1162.67 430.28,-1156.15 434.43,-1158.94 434.43,-1158.94 434.43,-1158.94 430.28,-1156.15 436.94,-1155.2 426.13,-1153.36 426.13,-1153.36"/>
<polygon fill="#578e18" stroke="#578e18" points="752.75,-239.73 762.94,-243.77 757.74,-239.5 762.74,-239.27 762.74,-239.27 762.74,-239.27 757.74,-239.5 762.53,-234.78 752.75,-239.73 752.75,-239.73"/>
</g>
<!-- Group -->
<g id="node22" class="node">
<title>Group</title>
<ellipse fill="none" stroke="black" cx="1109" cy="-470" rx="33.29" ry="18"/>
<text text-anchor="middle" x="1109" y="-466.3" font-family="Times,serif" font-size="14.00">Group</text>
</g>
<!-- Assessment&#45;&gt;Group -->
<g id="edge6" class="edge">
<title>Assessment&#45;&gt;Group</title>
<path fill="none" stroke="#a355be" d="M505.21,-1161.8C630.22,-1128.75 946.57,-1043.88 963,-1027 1001.36,-987.6 1081.89,-603.89 1103.54,-497.97"/>
<polygon fill="#a355be" stroke="#a355be" points="505.51,-1161.72 494.69,-1159.93 500.67,-1163 495.84,-1164.28 495.84,-1164.28 495.84,-1164.28 500.67,-1163 496.99,-1168.63 505.51,-1161.72 505.51,-1161.72"/>
<polygon fill="#a355be" stroke="#a355be" points="1103.51,-498.13 1109.92,-489.23 1104.51,-493.23 1105.51,-488.33 1105.51,-488.33 1105.51,-488.33 1104.51,-493.23 1101.1,-487.43 1103.51,-498.13 1103.51,-498.13"/>
</g>
<!-- Installment -->
<g id="node26" class="node">
<title>Installment</title>
<ellipse fill="none" stroke="black" cx="829" cy="-383" rx="50.89" ry="18"/>
<text text-anchor="middle" x="829" y="-379.3" font-family="Times,serif" font-size="14.00">Installment</text>
</g>
<!-- Assessment&#45;&gt;Installment -->
<g id="edge3" class="edge">
<title>Assessment&#45;&gt;Installment</title>
<path fill="none" stroke="#8d4a16" d="M425.36,-1153.8C415.46,-1147.56 404.12,-1141.28 393,-1137 332.02,-1113.54 104,-1148.33 104,-1083 104,-1083 104,-1083 104,-579 104,-494.66 165.1,-478.99 245,-452 341.25,-419.49 640.93,-396.42 769.47,-387.77"/>
<polygon fill="#8d4a16" stroke="#8d4a16" points="425.27,-1153.74 431.18,-1162.98 429.45,-1156.48 433.64,-1159.21 433.64,-1159.21 433.64,-1159.21 429.45,-1156.48 436.1,-1155.44 425.27,-1153.74 425.27,-1153.74"/>
<polygon fill="#8d4a16" stroke="#8d4a16" points="769.18,-387.79 779.46,-391.61 774.17,-387.46 779.16,-387.12 779.16,-387.12 779.16,-387.12 774.17,-387.46 778.86,-382.63 769.18,-387.79 769.18,-387.79"/>
</g>
<!-- Project -->
<g id="node29" class="node">
<title>Project</title>
<ellipse fill="none" stroke="black" cx="1092" cy="-91" rx="36" ry="18"/>
<text text-anchor="middle" x="1092" y="-87.3" font-family="Times,serif" font-size="14.00">Project</text>
</g>
<!-- Assessment&#45;&gt;Project -->
<g id="edge1" class="edge">
<title>Assessment&#45;&gt;Project</title>
<path fill="none" stroke="#42e181" d="M426.68,-1153.63C416.57,-1147.12 404.76,-1140.71 393,-1137 314.81,-1112.32 28,-1164.99 28,-1083 28,-1083 28,-1083 28,-163 28,-111.2 841.51,-95.7 1045.86,-92.63"/>
<polygon fill="#42e181" stroke="#42e181" points="426.44,-1153.47 432.22,-1162.79 430.59,-1156.27 434.73,-1159.06 434.73,-1159.06 434.73,-1159.06 430.59,-1156.27 437.25,-1155.33 426.44,-1153.47 426.44,-1153.47"/>
<polygon fill="#42e181" stroke="#42e181" points="1045.68,-92.63 1055.75,-96.98 1050.68,-92.56 1055.68,-92.48 1055.68,-92.48 1055.68,-92.48 1050.68,-92.56 1055.62,-87.98 1045.68,-92.63 1045.68,-92.63"/>
</g>
<!-- User -->
<g id="node37" class="node">
<title>User</title>
<ellipse fill="none" stroke="black" cx="1377" cy="-849" rx="27.1" ry="18"/>
<text text-anchor="middle" x="1377" y="-845.3" font-family="Times,serif" font-size="14.00">User</text>
</g>
<!-- Assessment&#45;&gt;User -->
<g id="edge5" class="edge">
<title>Assessment&#45;&gt;User</title>
<path fill="none" stroke="#a4b245" d="M516.77,-1171.7C590.02,-1166.37 715.03,-1152.78 817,-1119 900.04,-1091.49 916.04,-1072.09 991,-1027 1087.23,-969.11 1096.39,-928.32 1200,-885 1246.1,-865.73 1303.46,-856.88 1340.16,-852.95"/>
<polygon fill="#a4b245" stroke="#a4b245" points="517.2,-1171.67 506.91,-1167.88 512.21,-1172.02 507.22,-1172.37 507.22,-1172.37 507.22,-1172.37 512.21,-1172.02 507.54,-1176.85 517.2,-1171.67 517.2,-1171.67"/>
<polygon fill="#a4b245" stroke="#a4b245" points="1339.99,-852.97 1350.39,-856.45 1344.96,-852.47 1349.94,-851.97 1349.94,-851.97 1349.94,-851.97 1344.96,-852.47 1349.49,-847.5 1339.99,-852.97 1339.99,-852.97"/>
</g>
<!-- Behavior -->
<g id="node4" class="node">
<title>Behavior</title>
<ellipse fill="none" stroke="black" cx="2020" cy="-689" rx="42.79" ry="18"/>
<text text-anchor="middle" x="2020" y="-685.3" font-family="Times,serif" font-size="14.00">Behavior</text>
</g>
<!-- Diagnosis -->
<g id="node16" class="node">
<title>Diagnosis</title>
<ellipse fill="none" stroke="black" cx="2020" cy="-616" rx="46.29" ry="18"/>
<text text-anchor="middle" x="2020" y="-612.3" font-family="Times,serif" font-size="14.00">Diagnosis</text>
</g>
<!-- Behavior&#45;&gt;Diagnosis -->
<g id="edge9" class="edge">
<title>Behavior&#45;&gt;Diagnosis</title>
<path fill="none" stroke="#a34a51" d="M2020,-661.05C2020,-655.38 2020,-649.4 2020,-643.74"/>
<polygon fill="#a34a51" stroke="#a34a51" points="2020,-660.81 2015.5,-670.81 2020,-665.81 2020,-670.81 2020,-670.81 2020,-670.81 2020,-665.81 2024.5,-670.81 2020,-660.81 2020,-660.81"/>
<polygon fill="#a34a51" stroke="#a34a51" points="2020,-644.03 2024.5,-634.03 2020,-639.03 2020,-634.03 2020,-634.03 2020,-634.03 2020,-639.03 2015.5,-634.03 2020,-644.03 2020,-644.03"/>
</g>
<!-- Reaction -->
<g id="node31" class="node">
<title>Reaction</title>
<ellipse fill="none" stroke="black" cx="1979" cy="-936" rx="42.49" ry="18"/>
<text text-anchor="middle" x="1979" y="-932.3" font-family="Times,serif" font-size="14.00">Reaction</text>
</g>
<!-- Behavior&#45;&gt;Reaction -->
<g id="edge8" class="edge">
<title>Behavior&#45;&gt;Reaction</title>
<path fill="none" stroke="#241d6d" d="M2015.48,-717.02C2007.58,-764.22 1991.36,-861.11 1983.49,-908.17"/>
<polygon fill="#241d6d" stroke="#241d6d" points="2015.47,-717.07 2021.56,-707.95 2016.29,-712.14 2017.12,-707.21 2017.12,-707.21 2017.12,-707.21 2016.29,-712.14 2012.68,-706.47 2015.47,-717.07 2015.47,-717.07"/>
<polygon fill="#241d6d" stroke="#241d6d" points="1983.53,-907.91 1977.44,-917.03 1982.71,-912.84 1981.88,-917.77 1981.88,-917.77 1981.88,-917.77 1982.71,-912.84 1986.32,-918.51 1983.53,-907.91 1983.53,-907.91"/>
</g>
<!-- Scenario -->
<g id="node33" class="node">
<title>Scenario</title>
<ellipse fill="none" stroke="black" cx="1914" cy="-616" rx="41.69" ry="18"/>
<text text-anchor="middle" x="1914" y="-612.3" font-family="Times,serif" font-size="14.00">Scenario</text>
</g>
<!-- Behavior&#45;&gt;Scenario -->
<g id="edge7" class="edge">
<title>Behavior&#45;&gt;Scenario</title>
<path fill="none" stroke="#1bbae4" d="M1989.96,-667.88C1975.58,-658.25 1958.41,-646.75 1944.03,-637.12"/>
<polygon fill="#1bbae4" stroke="#1bbae4" points="1989.73,-667.72 1995.53,-677.03 1993.88,-670.51 1998.04,-673.29 1998.04,-673.29 1998.04,-673.29 1993.88,-670.51 2000.54,-669.55 1989.73,-667.72 1989.73,-667.72"/>
<polygon fill="#1bbae4" stroke="#1bbae4" points="1944.24,-637.26 1938.44,-627.95 1940.09,-634.47 1935.94,-631.69 1935.94,-631.69 1935.94,-631.69 1940.09,-634.47 1933.43,-635.43 1944.24,-637.26 1944.24,-637.26"/>
</g>
<!-- BingoBoard -->
<g id="node5" class="node">
<title>BingoBoard</title>
<ellipse fill="none" stroke="black" cx="471" cy="-936" rx="53.89" ry="18"/>
<text text-anchor="middle" x="471" y="-932.3" font-family="Times,serif" font-size="14.00">BingoBoard</text>
</g>
<!-- BingoCell -->
<g id="node6" class="node">
<title>BingoCell</title>
<ellipse fill="none" stroke="black" cx="416" cy="-689" rx="46.59" ry="18"/>
<text text-anchor="middle" x="416" y="-685.3" font-family="Times,serif" font-size="14.00">BingoCell</text>
</g>
<!-- BingoBoard&#45;&gt;BingoCell -->
<g id="edge12" class="edge">
<title>BingoBoard&#45;&gt;BingoCell</title>
<path fill="none" stroke="#b166c8" d="M446.55,-911.04C444,-907.55 441.71,-903.84 440,-900 412.79,-838.95 412.15,-758.47 414.05,-717.11"/>
<polygon fill="#b166c8" stroke="#b166c8" points="446.52,-910.99 449.4,-921.57 449.7,-914.85 452.88,-918.71 452.88,-918.71 452.88,-918.71 449.7,-914.85 456.35,-915.85 446.52,-910.99 446.52,-910.99"/>
<polygon fill="#b166c8" stroke="#b166c8" points="414.04,-717.22 419.08,-707.48 414.31,-712.23 414.58,-707.23 414.58,-707.23 414.58,-707.23 414.31,-712.23 410.09,-706.99 414.04,-717.22 414.04,-717.22"/>
</g>
<!-- BingoGame -->
<g id="node7" class="node">
<title>BingoGame</title>
<ellipse fill="none" stroke="black" cx="636" cy="-689" rx="53.89" ry="18"/>
<text text-anchor="middle" x="636" y="-685.3" font-family="Times,serif" font-size="14.00">BingoGame</text>
</g>
<!-- BingoBoard&#45;&gt;BingoGame -->
<g id="edge10" class="edge">
<title>BingoBoard&#45;&gt;BingoGame</title>
<path fill="none" stroke="#32f990" d="M465.74,-908.22C462.77,-886.38 461.62,-855.28 473,-831 499.21,-775.09 559.36,-732.68 598.8,-709.59"/>
<polygon fill="#32f990" stroke="#32f990" points="465.7,-907.96 462.8,-918.54 466.47,-912.9 467.25,-917.84 467.25,-917.84 467.25,-917.84 466.47,-912.9 471.69,-917.14 465.7,-907.96 465.7,-907.96"/>
<polygon fill="#32f990" stroke="#32f990" points="598.69,-709.65 609.61,-708.59 603.03,-707.16 607.37,-704.68 607.37,-704.68 607.37,-704.68 603.03,-707.16 605.14,-700.77 598.69,-709.65 598.69,-709.65"/>
</g>
<!-- Concept -->
<g id="node12" class="node">
<title>Concept</title>
<ellipse fill="none" stroke="black" cx="294" cy="-470" rx="40.09" ry="18"/>
<text text-anchor="middle" x="294" y="-466.3" font-family="Times,serif" font-size="14.00">Concept</text>
</g>
<!-- BingoBoard&#45;&gt;Concept -->
<g id="edge15" class="edge">
<title>BingoBoard&#45;&gt;Concept</title>
<path fill="none" stroke="#01a360" d="M423.66,-919.51C332.61,-886.4 142,-799.59 142,-653 142,-653 142,-653 142,-542 142,-495.97 199.93,-479.71 244.27,-474.01"/>
<polygon fill="#01a360" stroke="#01a360" points="423.52,-919.46 431.42,-927.06 428.23,-921.14 432.94,-922.82 432.94,-922.82 432.94,-922.82 428.23,-921.14 434.45,-918.59 423.52,-919.46 423.52,-919.46"/>
<polygon fill="#01a360" stroke="#01a360" points="244.13,-474.03 254.58,-477.36 249.1,-473.46 254.06,-472.89 254.06,-472.89 254.06,-472.89 249.1,-473.46 253.55,-468.42 244.13,-474.03 244.13,-474.03"/>
</g>
<!-- BingoBoard&#45;&gt;User -->
<g id="edge11" class="edge">
<title>BingoBoard&#45;&gt;User</title>
<path fill="none" stroke="#9b8957" d="M532.07,-929.27C706.24,-912.93 1201.84,-866.43 1340.54,-853.42"/>
<polygon fill="#9b8957" stroke="#9b8957" points="532.26,-929.25 521.89,-925.71 527.28,-929.72 522.31,-930.19 522.31,-930.19 522.31,-930.19 527.28,-929.72 522.73,-934.67 532.26,-929.25 532.26,-929.25"/>
<polygon fill="#9b8957" stroke="#9b8957" points="1340.31,-853.44 1350.69,-856.99 1345.29,-852.98 1350.27,-852.51 1350.27,-852.51 1350.27,-852.51 1345.29,-852.98 1349.85,-848.03 1340.31,-853.44 1340.31,-853.44"/>
</g>
<!-- ActiveStorage::Attachment -->
<g id="node40" class="node">
<title>ActiveStorage::Attachment</title>
<ellipse fill="none" stroke="black" cx="589" cy="-849" rx="107.48" ry="18"/>
<text text-anchor="middle" x="589" y="-845.3" font-family="Times,serif" font-size="14.00">ActiveStorage::Attachment</text>
</g>
<!-- BingoBoard&#45;&gt;ActiveStorage::Attachment -->
<g id="edge13" class="edge">
<title>BingoBoard&#45;&gt;ActiveStorage::Attachment</title>
<path fill="none" stroke="#b28257" d="M475.32,-908.22C477.83,-899.89 481.77,-891.26 488,-885 495.19,-877.77 503.94,-872.03 513.26,-867.48"/>
<polygon fill="#b28257" stroke="#b28257" points="475.38,-907.98 468.63,-916.62 474.19,-912.84 473,-917.69 473,-917.69 473,-917.69 474.19,-912.84 477.37,-918.76 475.38,-907.98 475.38,-907.98"/>
<polygon fill="#b28257" stroke="#b28257" points="513.19,-867.51 524.16,-867.58 517.76,-865.48 522.33,-863.46 522.33,-863.46 522.33,-863.46 517.76,-865.48 520.51,-859.35 513.19,-867.51 513.19,-867.51"/>
<text text-anchor="middle" x="551" y="-888.8" font-family="Times,serif" font-size="14.00">result_img_attachment</text>
</g>
<!-- ActiveStorage::Blob -->
<g id="node41" class="node">
<title>ActiveStorage::Blob</title>
<ellipse fill="none" stroke="black" cx="800" cy="-849" rx="83.39" ry="18"/>
<text text-anchor="middle" x="800" y="-845.3" font-family="Times,serif" font-size="14.00">ActiveStorage::Blob</text>
</g>
<!-- BingoBoard&#45;&gt;ActiveStorage::Blob -->
<g id="edge14" class="edge">
<title>BingoBoard&#45;&gt;ActiveStorage::Blob</title>
<path fill="none" stroke="#4566a6" d="M523.58,-922.43C550.64,-915.89 584.12,-907.67 614,-900 656.37,-889.12 704,-876.31 740.46,-866.37"/>
<polygon fill="#4566a6" stroke="#4566a6" points="523.65,-922.41 512.87,-920.39 518.79,-923.59 513.93,-924.76 513.93,-924.76 513.93,-924.76 518.79,-923.59 514.98,-929.14 523.65,-922.41 523.65,-922.41"/>
<polygon fill="#4566a6" stroke="#4566a6" points="740.3,-866.41 751.14,-868.12 745.13,-865.1 749.95,-863.78 749.95,-863.78 749.95,-863.78 745.13,-865.1 748.77,-859.44 740.3,-866.41 740.3,-866.41"/>
<text text-anchor="middle" x="716" y="-888.8" font-family="Times,serif" font-size="14.00">result_img_blob</text>
</g>
<!-- Candidate -->
<g id="node8" class="node">
<title>Candidate</title>
<ellipse fill="none" stroke="black" cx="496" cy="-616" rx="46.29" ry="18"/>
<text text-anchor="middle" x="496" y="-612.3" font-family="Times,serif" font-size="14.00">Candidate</text>
</g>
<!-- BingoCell&#45;&gt;Candidate -->
<g id="edge17" class="edge">
<title>BingoCell&#45;&gt;Candidate</title>
<path fill="none" stroke="#4e87bd" d="M440.91,-665.89C450.39,-657.48 461.2,-647.89 470.71,-639.44"/>
<polygon fill="#4e87bd" stroke="#4e87bd" points="441.23,-665.6 430.77,-668.88 437.49,-668.92 433.75,-672.24 433.75,-672.24 433.75,-672.24 437.49,-668.92 436.74,-675.61 441.23,-665.6 441.23,-665.6"/>
<polygon fill="#4e87bd" stroke="#4e87bd" points="470.54,-639.6 481.01,-636.32 474.28,-636.28 478.02,-632.96 478.02,-632.96 478.02,-632.96 474.28,-636.28 475.03,-629.59 470.54,-639.6 470.54,-639.6"/>
</g>
<!-- BingoCell&#45;&gt;Concept -->
<g id="edge16" class="edge">
<title>BingoCell&#45;&gt;Concept</title>
<path fill="none" stroke="#e01156" d="M360.4,-684.32C315.29,-680.04 256.82,-671.1 242,-653 203.77,-606.32 247.13,-532.97 274.71,-495.23"/>
<polygon fill="#e01156" stroke="#e01156" points="360.13,-684.3 369.69,-689.67 365.11,-684.75 370.09,-685.19 370.09,-685.19 370.09,-685.19 365.11,-684.75 370.5,-680.71 360.13,-684.3 360.13,-684.3"/>
<polygon fill="#e01156" stroke="#e01156" points="274.65,-495.3 284.25,-490 277.65,-491.3 280.65,-487.3 280.65,-487.3 280.65,-487.3 277.65,-491.3 277.05,-484.6 274.65,-495.3 274.65,-495.3"/>
</g>
<!-- BingoGame&#45;&gt;Candidate -->
<g id="edge21" class="edge">
<title>BingoGame&#45;&gt;Candidate</title>
<path fill="none" stroke="#4183a6" d="M598.58,-669.02C577.9,-658.54 552.34,-645.57 531.91,-635.21"/>
<polygon fill="#4183a6" stroke="#4183a6" points="598.41,-668.94 605.3,-677.47 602.87,-671.2 607.33,-673.46 607.33,-673.46 607.33,-673.46 602.87,-671.2 609.37,-669.45 598.41,-668.94 598.41,-668.94"/>
<polygon fill="#4183a6" stroke="#4183a6" points="532.12,-635.32 525.24,-626.78 527.66,-633.06 523.2,-630.8 523.2,-630.8 523.2,-630.8 527.66,-633.06 521.17,-634.81 532.12,-635.32 532.12,-635.32"/>
</g>
<!-- CandidateList -->
<g id="node10" class="node">
<title>CandidateList</title>
<ellipse fill="none" stroke="black" cx="636" cy="-543" rx="59.59" ry="18"/>
<text text-anchor="middle" x="636" y="-539.3" font-family="Times,serif" font-size="14.00">CandidateList</text>
</g>
<!-- BingoGame&#45;&gt;CandidateList -->
<g id="edge19" class="edge">
<title>BingoGame&#45;&gt;CandidateList</title>
<path fill="none" stroke="#d72d1f" d="M636,-660.68C636,-635.03 636,-596.87 636,-571.24"/>
<polygon fill="#d72d1f" stroke="#d72d1f" points="636,-660.63 631.5,-670.63 636,-665.63 636,-670.63 636,-670.63 636,-670.63 636,-665.63 640.5,-670.63 636,-660.63 636,-660.63"/>
<polygon fill="#d72d1f" stroke="#d72d1f" points="636,-571.43 640.5,-561.43 636,-566.43 636,-561.43 636,-561.43 636,-561.43 636,-566.43 631.5,-561.43 636,-571.43 636,-571.43"/>
</g>
<!-- BingoGame&#45;&gt;Concept -->
<g id="edge24" class="edge">
<title>BingoGame&#45;&gt;Concept</title>
<path fill="none" stroke="#802f9f" d="M574.5,-682.3C500.44,-671.88 378.35,-642.63 317,-561 303.35,-542.83 297.76,-517.4 295.49,-498.2"/>
<polygon fill="#802f9f" stroke="#802f9f" points="574.27,-682.27 583.58,-688.05 579.22,-682.93 584.18,-683.59 584.18,-683.59 584.18,-683.59 579.22,-682.93 584.78,-679.13 574.27,-682.27 574.27,-682.27"/>
<polygon fill="#802f9f" stroke="#802f9f" points="295.49,-498.22 299.02,-487.84 295.01,-493.24 294.54,-488.26 294.54,-488.26 294.54,-488.26 295.01,-493.24 290.06,-488.69 295.49,-498.22 295.49,-498.22"/>
</g>
<!-- BingoGame&#45;&gt;Course -->
<g id="edge18" class="edge">
<title>BingoGame&#45;&gt;Course</title>
<path fill="none" stroke="#7bd170" d="M676.48,-708.18C728.66,-732.52 821.11,-778.74 892,-831 1002.81,-912.7 1007.93,-959.46 1115,-1046 1121.75,-1051.46 1129.35,-1056.91 1136.6,-1061.84"/>
<polygon fill="#7bd170" stroke="#7bd170" points="676.6,-708.24 669.42,-699.96 672.06,-706.14 667.53,-704.04 667.53,-704.04 667.53,-704.04 672.06,-706.14 665.64,-708.12 676.6,-708.24 676.6,-708.24"/>
<polygon fill="#7bd170" stroke="#7bd170" points="1136.56,-1061.81 1142.4,-1071.09 1140.73,-1064.58 1144.89,-1067.34 1144.89,-1067.34 1144.89,-1067.34 1140.73,-1064.58 1147.38,-1063.59 1136.56,-1061.81 1136.56,-1061.81"/>
</g>
<!-- BingoGame&#45;&gt;Group -->
<g id="edge23" class="edge">
<title>BingoGame&#45;&gt;Group</title>
<path fill="none" stroke="#71ab55" d="M698.32,-683.51C780.59,-674.94 926.93,-650.27 1029,-580 1045.47,-568.66 1075.45,-524.14 1093.67,-495.62"/>
<polygon fill="#71ab55" stroke="#71ab55" points="698.56,-683.49 688.16,-680 693.59,-683.99 688.61,-684.48 688.61,-684.48 688.61,-684.48 693.59,-683.99 689.06,-688.96 698.56,-683.49 698.56,-683.49"/>
<polygon fill="#71ab55" stroke="#71ab55" points="1093.56,-495.79 1102.71,-489.75 1096.24,-491.56 1098.91,-487.34 1098.91,-487.34 1098.91,-487.34 1096.24,-491.56 1095.11,-484.93 1093.56,-495.79 1093.56,-495.79"/>
</g>
<!-- BingoGame&#45;&gt;Project -->
<g id="edge20" class="edge">
<title>BingoGame&#45;&gt;Project</title>
<path fill="none" stroke="#9044d0" d="M580.23,-677.63C543.05,-670.7 493.09,-661.36 449,-653 269.02,-618.89 104,-610.68 104,-427.5 104,-427.5 104,-427.5 104,-163 104,-115.17 850.47,-96.85 1045.72,-92.87"/>
<polygon fill="#9044d0" stroke="#9044d0" points="580.05,-677.6 589.06,-683.85 584.96,-678.51 589.88,-679.43 589.88,-679.43 589.88,-679.43 584.96,-678.51 590.7,-675 580.05,-677.6 580.05,-677.6"/>
<polygon fill="#9044d0" stroke="#9044d0" points="1045.67,-92.87 1055.76,-97.17 1050.67,-92.77 1055.66,-92.67 1055.66,-92.67 1055.66,-92.67 1050.67,-92.77 1055.57,-88.17 1045.67,-92.87 1045.67,-92.87"/>
</g>
<!-- BingoGame&#45;&gt;User -->
<g id="edge22" class="edge">
<title>BingoGame&#45;&gt;User</title>
<path fill="none" stroke="#6e4a06" d="M699.26,-692.61C736.29,-696.38 782.91,-705.1 820,-725 868.19,-750.85 856.42,-789.93 906,-813 982.75,-848.71 1242.09,-849.59 1339.56,-848.59"/>
<polygon fill="#6e4a06" stroke="#6e4a06" points="699.53,-692.64 689.99,-687.24 694.55,-692.18 689.57,-691.72 689.57,-691.72 689.57,-691.72 694.55,-692.18 689.16,-696.2 699.53,-692.64 699.53,-692.64"/>
<polygon fill="#6e4a06" stroke="#6e4a06" points="1339.55,-848.59 1349.6,-852.97 1344.55,-848.53 1349.55,-848.47 1349.55,-848.47 1349.55,-848.47 1344.55,-848.53 1349.5,-843.97 1339.55,-848.59 1339.55,-848.59"/>
</g>
<!-- CandidateFeedback -->
<g id="node9" class="node">
<title>CandidateFeedback</title>
<ellipse fill="none" stroke="black" cx="440" cy="-543" rx="79.89" ry="18"/>
<text text-anchor="middle" x="440" y="-539.3" font-family="Times,serif" font-size="14.00">CandidateFeedback</text>
</g>
<!-- Candidate&#45;&gt;CandidateFeedback -->
<g id="edge26" class="edge">
<title>Candidate&#45;&gt;CandidateFeedback</title>
<path fill="none" stroke="#0c9fcd" d="M477.04,-590.96C471.31,-583.7 465.02,-575.72 459.28,-568.44"/>
<polygon fill="#0c9fcd" stroke="#0c9fcd" points="476.82,-590.68 479.48,-601.32 479.92,-594.61 483.01,-598.53 483.01,-598.53 483.01,-598.53 479.92,-594.61 486.54,-595.75 476.82,-590.68 476.82,-590.68"/>
<polygon fill="#0c9fcd" stroke="#0c9fcd" points="459.5,-568.72 456.84,-558.08 456.4,-564.8 453.31,-560.87 453.31,-560.87 453.31,-560.87 456.4,-564.8 449.77,-563.66 459.5,-568.72 459.5,-568.72"/>
</g>
<!-- Candidate&#45;&gt;CandidateList -->
<g id="edge25" class="edge">
<title>Candidate&#45;&gt;CandidateList</title>
<path fill="none" stroke="#183e63" d="M532.13,-596.68C552.2,-586.5 577.16,-573.84 597.58,-563.48"/>
<polygon fill="#183e63" stroke="#183e63" points="532.24,-596.62 521.29,-597.13 527.79,-598.88 523.33,-601.14 523.33,-601.14 523.33,-601.14 527.79,-598.88 525.36,-605.16 532.24,-596.62 532.24,-596.62"/>
<polygon fill="#183e63" stroke="#183e63" points="597.4,-563.57 608.36,-563.06 601.86,-561.31 606.32,-559.05 606.32,-559.05 606.32,-559.05 601.86,-561.31 604.29,-555.04 597.4,-563.57 597.4,-563.57"/>
</g>
<!-- Candidate&#45;&gt;Concept -->
<g id="edge27" class="edge">
<title>Candidate&#45;&gt;Concept</title>
<path fill="none" stroke="#3b5f37" d="M445.49,-604.77C415.57,-596.75 378.3,-583.14 351,-561 329.92,-543.9 314.27,-516.83 304.76,-496.84"/>
<polygon fill="#3b5f37" stroke="#3b5f37" points="445.23,-604.71 453.81,-611.54 450.08,-605.95 454.92,-607.18 454.92,-607.18 454.92,-607.18 450.08,-605.95 456.04,-602.82 445.23,-604.71 445.23,-604.71"/>
<polygon fill="#3b5f37" stroke="#3b5f37" points="304.85,-497.04 304.8,-486.08 302.78,-492.49 300.71,-487.94 300.71,-487.94 300.71,-487.94 302.78,-492.49 296.61,-489.81 304.85,-497.04 304.85,-497.04"/>
</g>
<!-- Candidate&#45;&gt;User -->
<g id="edge28" class="edge">
<title>Candidate&#45;&gt;User</title>
<path fill="none" stroke="#0e9f73" d="M544.89,-628.29C586.31,-638.26 647.06,-653.85 699,-671 720.27,-678.03 826.52,-712.15 871,-744 907.3,-769.99 903.22,-794.84 944,-813 1014.32,-844.31 1247.81,-847.94 1339.54,-848.13"/>
<polygon fill="#0e9f73" stroke="#0e9f73" points="545.04,-628.33 536.36,-621.62 540.18,-627.16 535.32,-626 535.32,-626 535.32,-626 540.18,-627.16 534.27,-630.38 545.04,-628.33 545.04,-628.33"/>
<polygon fill="#0e9f73" stroke="#0e9f73" points="1339.5,-848.13 1349.49,-852.64 1344.5,-848.13 1349.5,-848.14 1349.5,-848.14 1349.5,-848.14 1344.5,-848.13 1349.5,-843.64 1339.5,-848.13 1339.5,-848.13"/>
</g>
<!-- CandidateList&#45;&gt;CandidateList -->
<g id="edge33" class="edge">
<title>CandidateList&#45;&gt;CandidateList</title>
<path fill="none" stroke="#b06da3" d="M704.66,-545.63C710.29,-545.06 713.79,-544.19 713.79,-543 713.79,-541.81 710.29,-540.94 704.66,-540.37"/>
<polygon fill="#b06da3" stroke="#b06da3" points="705.01,-545.61 694.74,-541.76 700.02,-545.93 695.03,-546.25 695.03,-546.25 695.03,-546.25 700.02,-545.93 695.31,-550.74 705.01,-545.61 705.01,-545.61"/>
<polygon fill="#b06da3" stroke="#b06da3" points="705.01,-540.39 695.31,-535.26 700.02,-540.07 695.03,-539.75 695.03,-539.75 695.03,-539.75 700.02,-540.07 694.74,-544.24 705.01,-540.39 705.01,-540.39"/>
<text text-anchor="middle" x="774.29" y="-539.3" font-family="Times,serif" font-size="14.00">current_candidate_list</text>
</g>
<!-- CandidateList&#45;&gt;CandidateList -->
<g id="edge34" class="edge">
<title>CandidateList&#45;&gt;CandidateList</title>
<path fill="none" stroke="#bc5a03" d="M702.63,-549.11C761.39,-551.09 834.79,-549.05 834.79,-543 834.79,-536.95 761.39,-534.91 702.63,-536.89"/>
<polygon fill="#bc5a03" stroke="#bc5a03" points="702.96,-549.13 693.14,-544.25 697.97,-548.94 692.97,-548.75 692.97,-548.75 692.97,-548.75 697.97,-548.94 692.8,-553.24 702.96,-549.13 702.96,-549.13"/>
<polygon fill="#bc5a03" stroke="#bc5a03" points="702.96,-536.87 692.8,-532.76 697.97,-537.06 692.97,-537.25 692.97,-537.25 692.97,-537.25 697.97,-537.06 693.14,-541.75 702.96,-536.87 702.96,-536.87"/>
<text text-anchor="middle" x="901.79" y="-539.3" font-family="Times,serif" font-size="14.00">archived_candidate_lists</text>
</g>
<!-- CandidateList&#45;&gt;Concept -->
<g id="edge31" class="edge">
<title>CandidateList&#45;&gt;Concept</title>
<path fill="none" stroke="#1017a1" d="M600.67,-521.94C588.72,-515.94 575.09,-509.92 562,-506 487.95,-483.8 398.22,-475.68 343.66,-472.71"/>
<polygon fill="#1017a1" stroke="#1017a1" points="600.56,-521.88 607.37,-530.48 605,-524.18 609.44,-526.48 609.44,-526.48 609.44,-526.48 605,-524.18 611.51,-522.49 600.56,-521.88 600.56,-521.88"/>
<polygon fill="#1017a1" stroke="#1017a1" points="343.88,-472.72 334.12,-467.72 338.88,-472.46 333.89,-472.21 333.89,-472.21 333.89,-472.21 338.88,-472.46 333.66,-476.71 343.88,-472.72 343.88,-472.72"/>
</g>
<!-- CandidateList&#45;&gt;Course -->
<g id="edge32" class="edge">
<title>CandidateList&#45;&gt;Course</title>
<path fill="none" stroke="#5d6b76" d="M662.3,-566.85C700.91,-600.64 774.87,-666.26 835,-725 874.94,-764.02 1033.66,-931.35 1088,-991 1108.34,-1013.32 1131.03,-1039.29 1146.85,-1057.58"/>
<polygon fill="#5d6b76" stroke="#5d6b76" points="662.6,-567.11 658.03,-557.14 658.83,-563.82 655.07,-560.53 655.07,-560.53 655.07,-560.53 658.83,-563.82 652.11,-563.92 662.6,-567.11 662.6,-567.11"/>
<polygon fill="#5d6b76" stroke="#5d6b76" points="1146.65,-1057.34 1149.79,-1067.85 1149.92,-1061.13 1153.19,-1064.91 1153.19,-1064.91 1153.19,-1064.91 1149.92,-1061.13 1156.6,-1061.97 1146.65,-1057.34 1146.65,-1057.34"/>
</g>
<!-- CandidateList&#45;&gt;Group -->
<g id="edge30" class="edge">
<title>CandidateList&#45;&gt;Group</title>
<path fill="none" stroke="#ad22c8" d="M698.29,-532.65C796.24,-517.95 983.69,-489.81 1067.14,-477.28"/>
<polygon fill="#ad22c8" stroke="#ad22c8" points="698.32,-532.65 687.76,-529.68 693.37,-533.39 688.43,-534.13 688.43,-534.13 688.43,-534.13 693.37,-533.39 689.09,-538.58 698.32,-532.65 698.32,-532.65"/>
<polygon fill="#ad22c8" stroke="#ad22c8" points="1067.13,-477.28 1077.69,-480.25 1072.08,-476.54 1077.02,-475.8 1077.02,-475.8 1077.02,-475.8 1072.08,-476.54 1076.36,-471.35 1067.13,-477.28 1067.13,-477.28"/>
</g>
<!-- CandidateList&#45;&gt;User -->
<g id="edge29" class="edge">
<title>CandidateList&#45;&gt;User</title>
<path fill="none" stroke="#0db89a" d="M705.07,-546.51C760.87,-550.04 840.87,-558.54 908,-579 998.53,-606.59 1008.9,-647.35 1063,-725 1088.11,-761.04 1072.09,-787.7 1108,-813 1144.55,-838.75 1274.82,-845.55 1339.71,-847.35"/>
<polygon fill="#0db89a" stroke="#0db89a" points="705.28,-546.52 695.56,-541.43 700.29,-546.22 695.29,-545.92 695.29,-545.92 695.29,-545.92 700.29,-546.22 695.03,-550.41 705.28,-546.52 705.28,-546.52"/>
<polygon fill="#0db89a" stroke="#0db89a" points="1339.55,-847.35 1349.43,-852.1 1344.54,-847.48 1349.54,-847.6 1349.54,-847.6 1349.54,-847.6 1344.54,-847.48 1349.66,-843.1 1339.55,-847.35 1339.55,-847.35"/>
</g>
<!-- CipCode -->
<g id="node11" class="node">
<title>CipCode</title>
<ellipse fill="none" stroke="black" cx="1342" cy="-383" rx="42.49" ry="18"/>
<text text-anchor="middle" x="1342" y="-379.3" font-family="Times,serif" font-size="14.00">CipCode</text>
</g>
<!-- CipCode&#45;&gt;User -->
<g id="edge35" class="edge">
<title>CipCode&#45;&gt;User</title>
<path fill="none" stroke="#833c7a" d="M1311.14,-404.86C1307.03,-409.04 1303.41,-413.77 1301,-419 1298.21,-425.05 1300.3,-427.37 1301,-434 1315.75,-574.09 1345.56,-604.78 1367,-744 1370.99,-769.92 1373.66,-799.73 1375.23,-820.77"/>
<polygon fill="#833c7a" stroke="#833c7a" points="1310.94,-405.04 1321.39,-401.72 1314.66,-401.7 1318.38,-398.36 1318.38,-398.36 1318.38,-398.36 1314.66,-401.7 1315.38,-395.01 1310.94,-405.04 1310.94,-405.04"/>
<polygon fill="#833c7a" stroke="#833c7a" points="1375.23,-820.65 1371.45,-830.95 1375.58,-825.64 1375.94,-830.63 1375.94,-830.63 1375.94,-830.63 1375.58,-825.64 1380.43,-830.31 1375.23,-820.65 1375.23,-820.65"/>
</g>
<!-- Concept&#45;&gt;Course -->
<g id="edge36" class="edge">
<title>Concept&#45;&gt;Course</title>
<path fill="none" stroke="#11e2a5" d="M256.89,-487.31C223.62,-504.74 180,-535.83 180,-579 180,-806.5 180,-806.5 180,-806.5 180,-927.19 292.46,-919.14 408,-954 592.49,-1009.67 655.48,-935.45 840,-991 872,-1000.63 874.63,-1015.49 906,-1027 979.25,-1053.88 1069.25,-1068.78 1122.15,-1075.82"/>
<polygon fill="#11e2a5" stroke="#11e2a5" points="256.59,-487.46 267.55,-486.98 261.06,-485.21 265.53,-482.96 265.53,-482.96 265.53,-482.96 261.06,-485.21 263.5,-478.94 256.59,-487.46 256.59,-487.46"/>
<polygon fill="#11e2a5" stroke="#11e2a5" points="1121.98,-1075.79 1131.32,-1081.54 1126.94,-1076.44 1131.9,-1077.08 1131.9,-1077.08 1131.9,-1077.08 1126.94,-1076.44 1132.48,-1072.62 1121.98,-1075.79 1121.98,-1075.79"/>
</g>
<!-- ConsentForm -->
<g id="node13" class="node">
<title>ConsentForm</title>
<ellipse fill="none" stroke="black" cx="1053" cy="-1176" rx="59.29" ry="18"/>
<text text-anchor="middle" x="1053" y="-1172.3" font-family="Times,serif" font-size="14.00">ConsentForm</text>
</g>
<!-- ConsentLog -->
<g id="node14" class="node">
<title>ConsentLog</title>
<ellipse fill="none" stroke="black" cx="2239" cy="-936" rx="53.89" ry="18"/>
<text text-anchor="middle" x="2239" y="-932.3" font-family="Times,serif" font-size="14.00">ConsentLog</text>
</g>
<!-- ConsentForm&#45;&gt;ConsentLog -->
<g id="edge40" class="edge">
<title>ConsentForm&#45;&gt;ConsentLog</title>
<path fill="none" stroke="#7b4a40" d="M1084.47,-1154.06C1095.84,-1147.49 1109.07,-1140.93 1122,-1137 1345.88,-1068.98 1971.49,-1168.26 2171,-1046 2201.52,-1027.3 2220.5,-989.2 2230.41,-963.38"/>
<polygon fill="#7b4a40" stroke="#7b4a40" points="1084.75,-1153.89 1073.86,-1155.18 1080.46,-1156.47 1076.18,-1159.04 1076.18,-1159.04 1076.18,-1159.04 1080.46,-1156.47 1078.49,-1162.9 1084.75,-1153.89 1084.75,-1153.89"/>
<polygon fill="#7b4a40" stroke="#7b4a40" points="2230.35,-963.55 2238,-955.69 2232.06,-958.85 2233.77,-954.15 2233.77,-954.15 2233.77,-954.15 2232.06,-958.85 2229.55,-952.61 2230.35,-963.55 2230.35,-963.55"/>
</g>
<!-- ConsentForm&#45;&gt;Course -->
<g id="edge41" class="edge">
<title>ConsentForm&#45;&gt;Course</title>
<path fill="none" stroke="#bd6f12" d="M1080.8,-1152.56C1099.25,-1137.68 1123.28,-1118.29 1141.28,-1103.76"/>
<polygon fill="#bd6f12" stroke="#bd6f12" points="1080.9,-1152.48 1070.29,-1155.26 1077.01,-1155.62 1073.12,-1158.76 1073.12,-1158.76 1073.12,-1158.76 1077.01,-1155.62 1075.94,-1162.27 1080.9,-1152.48 1080.9,-1152.48"/>
<polygon fill="#bd6f12" stroke="#bd6f12" points="1140.81,-1104.14 1151.42,-1101.36 1144.7,-1101 1148.59,-1097.86 1148.59,-1097.86 1148.59,-1097.86 1144.7,-1101 1145.76,-1094.36 1140.81,-1104.14 1140.81,-1104.14"/>
</g>
<!-- ConsentForm&#45;&gt;User -->
<g id="edge37" class="edge">
<title>ConsentForm&#45;&gt;User</title>
<path fill="none" stroke="#df95eb" d="M1050.47,-1148.07C1049.28,-1119.11 1052.06,-1073.43 1077,-1045 1163.57,-946.31 1271.52,-1052.77 1358,-954 1376.35,-933.04 1379.62,-900.39 1379.24,-877.26"/>
<polygon fill="#df95eb" stroke="#df95eb" points="1050.46,-1147.93 1046.56,-1158.18 1050.76,-1152.92 1051.05,-1157.91 1051.05,-1157.91 1051.05,-1157.91 1050.76,-1152.92 1055.55,-1157.65 1050.46,-1147.93 1050.46,-1147.93"/>
<polygon fill="#df95eb" stroke="#df95eb" points="1379.25,-877.38 1383.35,-867.21 1379.05,-872.38 1378.85,-867.39 1378.85,-867.39 1378.85,-867.39 1379.05,-872.38 1374.36,-867.57 1379.25,-877.38 1379.25,-877.38"/>
</g>
<!-- ConsentForm&#45;&gt;ActiveStorage::Attachment -->
<g id="edge38" class="edge">
<title>ConsentForm&#45;&gt;ActiveStorage::Attachment</title>
<path fill="none" stroke="#82f746" d="M1012.81,-1155.98C963.53,-1131.25 879.37,-1084.39 821,-1027 767.03,-973.94 788.72,-928.8 727,-885 713.52,-875.43 697.67,-868.48 681.6,-863.42"/>
<polygon fill="#82f746" stroke="#82f746" points="1012.63,-1155.89 1019.59,-1164.36 1017.11,-1158.11 1021.59,-1160.33 1021.59,-1160.33 1021.59,-1160.33 1017.11,-1158.11 1023.59,-1156.3 1012.63,-1155.89 1012.63,-1155.89"/>
<polygon fill="#82f746" stroke="#82f746" points="681.73,-863.46 673.39,-856.33 676.93,-862.06 672.13,-860.65 672.13,-860.65 672.13,-860.65 676.93,-862.06 670.87,-864.97 681.73,-863.46 681.73,-863.46"/>
<text text-anchor="middle" x="863.5" y="-1005.3" font-family="Times,serif" font-size="14.00">pdf_attachment</text>
</g>
<!-- ConsentForm&#45;&gt;ActiveStorage::Blob -->
<g id="edge39" class="edge">
<title>ConsentForm&#45;&gt;ActiveStorage::Blob</title>
<path fill="none" stroke="#45789c" d="M1033.62,-1150.1C986.5,-1089.57 866.34,-935.22 819.3,-874.79"/>
<polygon fill="#45789c" stroke="#45789c" points="1033.61,-1150.09 1036.2,-1160.75 1036.68,-1154.04 1039.75,-1157.98 1039.75,-1157.98 1039.75,-1157.98 1036.68,-1154.04 1043.3,-1155.22 1033.61,-1150.09 1033.61,-1150.09"/>
<polygon fill="#45789c" stroke="#45789c" points="819.56,-875.13 816.97,-864.48 816.49,-871.18 813.42,-867.24 813.42,-867.24 813.42,-867.24 816.49,-871.18 809.87,-870 819.56,-875.13 819.56,-875.13"/>
<text text-anchor="middle" x="962.5" y="-1005.3" font-family="Times,serif" font-size="14.00">pdf_blob</text>
</g>
<!-- ConsentLog&#45;&gt;Project -->
<g id="edge43" class="edge">
<title>ConsentLog&#45;&gt;Project</title>
<path fill="none" stroke="#497a4e" d="M2242.35,-908.12C2244.15,-891.42 2246,-869.5 2246,-850 2246,-850 2246,-850 2246,-273 2246,-201.16 2208.7,-181.07 2146,-146 2057.23,-96.36 1329.62,-92.21 1138.07,-91.98"/>
<polygon fill="#497a4e" stroke="#497a4e" points="2242.38,-907.84 2236.78,-917.27 2241.82,-912.81 2241.25,-917.78 2241.25,-917.78 2241.25,-917.78 2241.82,-912.81 2245.72,-918.29 2242.38,-907.84 2242.38,-907.84"/>
<polygon fill="#497a4e" stroke="#497a4e" points="1138.31,-91.98 1128.31,-87.47 1133.31,-91.97 1128.31,-91.97 1128.31,-91.97 1128.31,-91.97 1133.31,-91.97 1128.3,-96.47 1138.31,-91.98 1138.31,-91.98"/>
</g>
<!-- ConsentLog&#45;&gt;User -->
<g id="edge42" class="edge">
<title>ConsentLog&#45;&gt;User</title>
<path fill="none" stroke="#f5caee" d="M2177.75,-928.96C2010.09,-912.43 1547.23,-866.79 1413.58,-853.61"/>
<polygon fill="#f5caee" stroke="#f5caee" points="2177.71,-928.96 2187.22,-934.42 2182.68,-929.45 2187.66,-929.94 2187.66,-929.94 2187.66,-929.94 2182.68,-929.45 2188.1,-925.46 2177.71,-928.96 2177.71,-928.96"/>
<polygon fill="#f5caee" stroke="#f5caee" points="1413.77,-853.63 1404.26,-848.17 1408.79,-853.13 1403.81,-852.64 1403.81,-852.64 1403.81,-852.64 1408.79,-853.13 1403.37,-857.12 1413.77,-853.63 1413.77,-853.63"/>
</g>
<!-- Experience -->
<g id="node18" class="node">
<title>Experience</title>
<ellipse fill="none" stroke="black" cx="1858" cy="-1009" rx="50.09" ry="18"/>
<text text-anchor="middle" x="1858" y="-1005.3" font-family="Times,serif" font-size="14.00">Experience</text>
</g>
<!-- Course&#45;&gt;Experience -->
<g id="edge48" class="edge">
<title>Course&#45;&gt;Experience</title>
<path fill="none" stroke="#60c84c" d="M1212.91,-1080.63C1336.39,-1079.27 1673.51,-1073.12 1781,-1046 1795.65,-1042.3 1810.89,-1035.81 1823.92,-1029.34"/>
<polygon fill="#60c84c" stroke="#60c84c" points="1213.01,-1080.63 1202.96,-1076.23 1208.01,-1080.68 1203.01,-1080.73 1203.01,-1080.73 1203.01,-1080.73 1208.01,-1080.68 1203.06,-1085.23 1213.01,-1080.63 1213.01,-1080.63"/>
<polygon fill="#60c84c" stroke="#60c84c" points="1823.65,-1029.48 1834.6,-1028.9 1828.1,-1027.19 1832.55,-1024.9 1832.55,-1024.9 1832.55,-1024.9 1828.1,-1027.19 1830.49,-1020.9 1823.65,-1029.48 1823.65,-1029.48"/>
</g>
<!-- Course&#45;&gt;Project -->
<g id="edge45" class="edge">
<title>Course&#45;&gt;Project</title>
<path fill="none" stroke="#b8e2af" d="M1212.79,-1080.38C1353.01,-1077.88 1767,-1065.76 1767,-1010 1767,-1010 1767,-1010 1767,-804.5 1767,-753.61 1768,-740.89 1768,-690 1768,-690 1768,-690 1768,-163 1768,-99.55 1290.93,-92.6 1138.34,-92"/>
<polygon fill="#b8e2af" stroke="#b8e2af" points="1213.18,-1080.37 1203.1,-1076.04 1208.18,-1080.46 1203.18,-1080.54 1203.18,-1080.54 1203.18,-1080.54 1208.18,-1080.46 1203.26,-1085.04 1213.18,-1080.37 1213.18,-1080.37"/>
<polygon fill="#b8e2af" stroke="#b8e2af" points="1138.34,-92 1128.36,-87.47 1133.34,-91.98 1128.34,-91.97 1128.34,-91.97 1128.34,-91.97 1133.34,-91.98 1128.33,-96.47 1138.34,-92 1138.34,-92"/>
</g>
<!-- Roster -->
<g id="node32" class="node">
<title>Roster</title>
<ellipse fill="none" stroke="black" cx="2220" cy="-18" rx="33.6" ry="18"/>
<text text-anchor="middle" x="2220" y="-14.3" font-family="Times,serif" font-size="14.00">Roster</text>
</g>
<!-- Course&#45;&gt;Roster -->
<g id="edge46" class="edge">
<title>Course&#45;&gt;Roster</title>
<path fill="none" stroke="#61c3fc" d="M1213.18,-1080.51C1383.18,-1078.41 1973.71,-1068.22 2157,-1027 2231.87,-1010.16 2321,-1049.74 2321,-973 2321,-973 2321,-973 2321,-90 2321,-58.61 2287.95,-39.9 2259.66,-29.63"/>
<polygon fill="#61c3fc" stroke="#61c3fc" points="1213.3,-1080.51 1203.24,-1076.13 1208.3,-1080.57 1203.3,-1080.63 1203.3,-1080.63 1203.3,-1080.63 1208.3,-1080.57 1203.35,-1085.13 1213.3,-1080.51 1213.3,-1080.51"/>
<polygon fill="#61c3fc" stroke="#61c3fc" points="2259.78,-29.67 2251.74,-22.21 2255.04,-28.07 2250.3,-26.47 2250.3,-26.47 2250.3,-26.47 2255.04,-28.07 2248.86,-30.73 2259.78,-29.67 2259.78,-29.67"/>
</g>
<!-- School -->
<g id="node34" class="node">
<title>School</title>
<ellipse fill="none" stroke="black" cx="2132" cy="-762" rx="35.19" ry="18"/>
<text text-anchor="middle" x="2132" y="-758.3" font-family="Times,serif" font-size="14.00">School</text>
</g>
<!-- Course&#45;&gt;School -->
<g id="edge44" class="edge">
<title>Course&#45;&gt;School</title>
<path fill="none" stroke="#f6bf9d" d="M1213.05,-1080.14C1408.2,-1076.2 2157,-1057.96 2157,-1010 2157,-1010 2157,-1010 2157,-848 2157,-827.56 2150.26,-805.43 2143.78,-788.87"/>
<polygon fill="#f6bf9d" stroke="#f6bf9d" points="1213.11,-1080.14 1203.02,-1075.84 1208.11,-1080.24 1203.11,-1080.34 1203.11,-1080.34 1203.11,-1080.34 1208.11,-1080.24 1203.2,-1084.84 1213.11,-1080.14 1213.11,-1080.14"/>
<polygon fill="#f6bf9d" stroke="#f6bf9d" points="2143.86,-789.07 2144.21,-778.11 2141.95,-784.45 2140.05,-779.83 2140.05,-779.83 2140.05,-779.83 2141.95,-784.45 2135.89,-781.54 2143.86,-789.07 2143.86,-789.07"/>
</g>
<!-- Course&#45;&gt;User -->
<g id="edge47" class="edge">
<title>Course&#45;&gt;User</title>
<path fill="none" stroke="#aaa7dd" d="M1162.23,-1054.48C1157.49,-1019.32 1154.83,-957.15 1186,-918 1223.43,-870.99 1295.86,-856.44 1339.98,-851.96"/>
<polygon fill="#aaa7dd" stroke="#aaa7dd" points="1162.18,-1054.17 1159.21,-1064.73 1162.92,-1059.11 1163.66,-1064.06 1163.66,-1064.06 1163.66,-1064.06 1162.92,-1059.11 1168.11,-1063.39 1162.18,-1054.17 1162.18,-1054.17"/>
<polygon fill="#aaa7dd" stroke="#aaa7dd" points="1339.79,-851.98 1350.15,-855.57 1344.77,-851.53 1349.75,-851.09 1349.75,-851.09 1349.75,-851.09 1344.77,-851.53 1349.34,-846.61 1339.79,-851.98 1339.79,-851.98"/>
</g>
<!-- Diagnosis&#45;&gt;Reaction -->
<g id="edge49" class="edge">
<title>Diagnosis&#45;&gt;Reaction</title>
<path fill="none" stroke="#ed5427" d="M2048.7,-639.01C2057.95,-647.83 2067.08,-658.81 2072,-671 2077.98,-685.84 2074.88,-691.26 2072,-707 2055.51,-797.21 2038.09,-817.04 1999,-900 1997.52,-903.13 1995.87,-906.36 1994.16,-909.54"/>
<polygon fill="#ed5427" stroke="#ed5427" points="2048.78,-639.08 2044.33,-629.06 2045.05,-635.75 2041.33,-632.41 2041.33,-632.41 2041.33,-632.41 2045.05,-635.75 2038.33,-635.77 2048.78,-639.08 2048.78,-639.08"/>
<polygon fill="#ed5427" stroke="#ed5427" points="1994.2,-909.47 1985.39,-916 1991.76,-913.83 1989.32,-918.2 1989.32,-918.2 1989.32,-918.2 1991.76,-913.83 1993.24,-920.39 1994.2,-909.47 1994.2,-909.47"/>
</g>
<!-- Diagnosis&#45;&gt;User -->
<g id="edge51" class="edge">
<title>Diagnosis&#45;&gt;User</title>
<path fill="none" stroke="#844817" d="M1993.89,-639.68C1984.73,-648.7 1974.99,-659.63 1968,-671 1941.14,-714.71 1965.71,-743.17 1930,-780 1901.5,-809.39 1883.95,-804.04 1844,-813 1762.29,-831.32 1509.7,-842.82 1414.14,-846.61"/>
<polygon fill="#844817" stroke="#844817" points="1993.79,-639.77 2004.14,-636.16 1997.42,-636.33 2001.05,-632.89 2001.05,-632.89 2001.05,-632.89 1997.42,-636.33 1997.95,-629.63 1993.79,-639.77 1993.79,-639.77"/>
<polygon fill="#844817" stroke="#844817" points="1414.33,-846.61 1404.16,-842.5 1409.33,-846.8 1404.34,-847 1404.34,-847 1404.34,-847 1409.33,-846.8 1404.51,-851.49 1414.33,-846.61 1414.33,-846.61"/>
</g>
<!-- Week -->
<g id="node39" class="node">
<title>Week</title>
<ellipse fill="none" stroke="black" cx="2020" cy="-543" rx="31.4" ry="18"/>
<text text-anchor="middle" x="2020" y="-539.3" font-family="Times,serif" font-size="14.00">Week</text>
</g>
<!-- Diagnosis&#45;&gt;Week -->
<g id="edge50" class="edge">
<title>Diagnosis&#45;&gt;Week</title>
<path fill="none" stroke="#32ac64" d="M2020,-588.05C2020,-582.38 2020,-576.4 2020,-570.74"/>
<polygon fill="#32ac64" stroke="#32ac64" points="2020,-587.81 2015.5,-597.81 2020,-592.81 2020,-597.81 2020,-597.81 2020,-597.81 2020,-592.81 2024.5,-597.81 2020,-587.81 2020,-587.81"/>
<polygon fill="#32ac64" stroke="#32ac64" points="2020,-571.03 2024.5,-561.03 2020,-566.03 2020,-561.03 2020,-561.03 2020,-561.03 2020,-566.03 2015.5,-561.03 2020,-571.03 2020,-571.03"/>
</g>
<!-- Email -->
<g id="node17" class="node">
<title>Email</title>
<ellipse fill="none" stroke="black" cx="1227" cy="-936" rx="32.49" ry="18"/>
<text text-anchor="middle" x="1227" y="-932.3" font-family="Times,serif" font-size="14.00">Email</text>
</g>
<!-- Email&#45;&gt;User -->
<g id="edge52" class="edge">
<title>Email&#45;&gt;User</title>
<path fill="none" stroke="#23cc90" d="M1257.82,-917.53C1284.29,-902.53 1322.17,-881.07 1348.08,-866.39"/>
<polygon fill="#23cc90" stroke="#23cc90" points="1257.83,-917.53 1246.91,-918.54 1253.48,-919.99 1249.13,-922.46 1249.13,-922.46 1249.13,-922.46 1253.48,-919.99 1251.35,-926.37 1257.83,-917.53 1257.83,-917.53"/>
<polygon fill="#23cc90" stroke="#23cc90" points="1348,-866.43 1358.92,-865.42 1352.35,-863.97 1356.7,-861.5 1356.7,-861.5 1356.7,-861.5 1352.35,-863.97 1354.48,-857.59 1348,-866.43 1348,-866.43"/>
</g>
<!-- Experience&#45;&gt;Reaction -->
<g id="edge53" class="edge">
<title>Experience&#45;&gt;Reaction</title>
<path fill="none" stroke="#f46e75" d="M1891.91,-988.1C1908.98,-978.09 1929.58,-966 1946.46,-956.1"/>
<polygon fill="#f46e75" stroke="#f46e75" points="1891.99,-988.06 1881.09,-989.23 1887.68,-990.59 1883.37,-993.12 1883.37,-993.12 1883.37,-993.12 1887.68,-990.59 1885.64,-997 1891.99,-988.06 1891.99,-988.06"/>
<polygon fill="#f46e75" stroke="#f46e75" points="1946.28,-956.2 1957.18,-955.02 1950.59,-953.67 1954.9,-951.14 1954.9,-951.14 1954.9,-951.14 1950.59,-953.67 1952.63,-947.26 1946.28,-956.2 1946.28,-956.2"/>
</g>
<!-- FactorPack -->
<g id="node20" class="node">
<title>FactorPack</title>
<ellipse fill="none" stroke="black" cx="768" cy="-164" rx="50.09" ry="18"/>
<text text-anchor="middle" x="768" y="-160.3" font-family="Times,serif" font-size="14.00">FactorPack</text>
</g>
<!-- Factor&#45;&gt;FactorPack -->
<g id="edge54" class="edge">
<title>Factor&#45;&gt;FactorPack</title>
<path fill="none" stroke="#7f058e" d="M785.74,-209.98C783.34,-203.9 780.79,-197.43 778.39,-191.34"/>
<polygon fill="#7f058e" stroke="#7f058e" points="785.7,-209.87 785.18,-220.82 787.53,-214.52 789.36,-219.17 789.36,-219.17 789.36,-219.17 787.53,-214.52 793.55,-217.52 785.7,-209.87 785.7,-209.87"/>
<polygon fill="#7f058e" stroke="#7f058e" points="778.45,-191.5 778.97,-180.55 776.62,-186.85 774.78,-182.2 774.78,-182.2 774.78,-182.2 776.62,-186.85 770.6,-183.85 778.45,-191.5 778.45,-191.5"/>
</g>
<!-- FactorPack&#45;&gt;Project -->
<g id="edge55" class="edge">
<title>FactorPack&#45;&gt;Project</title>
<path fill="none" stroke="#220303" d="M798.93,-142.49C809.09,-136.62 820.69,-130.79 832,-127 904.22,-102.82 993.03,-95.29 1045.94,-92.98"/>
<polygon fill="#220303" stroke="#220303" points="798.99,-142.46 788.1,-143.75 794.7,-145.03 790.42,-147.61 790.42,-147.61 790.42,-147.61 794.7,-145.03 792.74,-151.47 798.99,-142.46 798.99,-142.46"/>
<polygon fill="#220303" stroke="#220303" points="1045.72,-92.99 1055.89,-97.1 1050.71,-92.8 1055.71,-92.6 1055.71,-92.6 1055.71,-92.6 1050.71,-92.8 1055.53,-88.1 1045.72,-92.99 1045.72,-92.99"/>
</g>
<!-- Gender -->
<g id="node21" class="node">
<title>Gender</title>
<ellipse fill="none" stroke="black" cx="1439" cy="-383" rx="36.29" ry="18"/>
<text text-anchor="middle" x="1439" y="-379.3" font-family="Times,serif" font-size="14.00">Gender</text>
</g>
<!-- Gender&#45;&gt;User -->
<g id="edge56" class="edge">
<title>Gender&#45;&gt;User</title>
<path fill="none" stroke="#dc26ec" d="M1437.19,-411.26C1432.35,-479.49 1417.34,-662.92 1387,-813 1386.44,-815.79 1385.76,-818.68 1385.03,-821.54"/>
<polygon fill="#dc26ec" stroke="#dc26ec" points="1437.19,-411.3 1442.37,-401.63 1437.54,-406.31 1437.89,-401.32 1437.89,-401.32 1437.89,-401.32 1437.54,-406.31 1433.4,-401.01 1437.19,-411.3 1437.19,-411.3"/>
<polygon fill="#dc26ec" stroke="#dc26ec" points="1385.07,-821.4 1378.09,-829.85 1383.75,-826.22 1382.43,-831.04 1382.43,-831.04 1382.43,-831.04 1383.75,-826.22 1386.77,-832.23 1385.07,-821.4 1385.07,-821.4"/>
</g>
<!-- Group&#45;&gt;CipCode -->
<g id="edge63" class="edge">
<title>Group&#45;&gt;CipCode</title>
<path fill="none" stroke="#4de905" d="M1143.4,-454.24C1168.12,-443.85 1202.36,-429.91 1233,-419 1258.43,-409.95 1265.31,-409.27 1291,-401 1293.98,-400.04 1297.05,-399.04 1300.14,-398.03"/>
<polygon fill="#4de905" stroke="#4de905" points="1143.62,-454.15 1132.66,-453.89 1139.02,-456.09 1134.41,-458.04 1134.41,-458.04 1134.41,-458.04 1139.02,-456.09 1136.16,-462.18 1143.62,-454.15 1143.62,-454.15"/>
<polygon fill="#4de905" stroke="#4de905" points="1299.89,-398.11 1310.79,-399.26 1304.64,-396.55 1309.38,-394.98 1309.38,-394.98 1309.38,-394.98 1304.64,-396.55 1307.98,-390.71 1299.89,-398.11 1299.89,-398.11"/>
</g>
<!-- Group&#45;&gt;Gender -->
<g id="edge64" class="edge">
<title>Group&#45;&gt;Gender</title>
<path fill="none" stroke="#c9562c" d="M1147.16,-458.05C1185.19,-447.33 1245.36,-430.93 1298,-419 1339.91,-409.5 1351.59,-412.49 1393,-401 1396.04,-400.16 1399.15,-399.2 1402.27,-398.19"/>
<polygon fill="#c9562c" stroke="#c9562c" points="1147.6,-457.92 1136.76,-456.31 1142.79,-459.28 1137.98,-460.64 1137.98,-460.64 1137.98,-460.64 1142.79,-459.28 1139.21,-464.97 1147.6,-457.92 1147.6,-457.92"/>
<polygon fill="#c9562c" stroke="#c9562c" points="1402.06,-398.26 1412.98,-399.26 1406.79,-396.63 1411.51,-395.01 1411.51,-395.01 1411.51,-395.01 1406.79,-396.63 1410.05,-390.75 1402.06,-398.26 1402.06,-398.26"/>
</g>
<!-- GroupRevision -->
<g id="node23" class="node">
<title>GroupRevision</title>
<ellipse fill="none" stroke="black" cx="1000" cy="-383" rx="64.19" ry="18"/>
<text text-anchor="middle" x="1000" y="-379.3" font-family="Times,serif" font-size="14.00">GroupRevision</text>
</g>
<!-- Group&#45;&gt;GroupRevision -->
<g id="edge59" class="edge">
<title>Group&#45;&gt;GroupRevision</title>
<path fill="none" stroke="#73da04" d="M1086.21,-447.29C1076.29,-438.2 1064.36,-427.75 1053,-419 1046.92,-414.32 1040.23,-409.59 1033.7,-405.2"/>
<polygon fill="#73da04" stroke="#73da04" points="1086.02,-447.12 1090.3,-457.22 1089.69,-450.52 1093.36,-453.92 1093.36,-453.92 1093.36,-453.92 1089.69,-450.52 1096.42,-450.62 1086.02,-447.12 1086.02,-447.12"/>
<polygon fill="#73da04" stroke="#73da04" points="1033.93,-405.35 1028.08,-396.08 1029.76,-402.59 1025.59,-399.83 1025.59,-399.83 1025.59,-399.83 1029.76,-402.59 1023.11,-403.58 1033.93,-405.35 1033.93,-405.35"/>
</g>
<!-- HomeCountry -->
<g id="node24" class="node">
<title>HomeCountry</title>
<ellipse fill="none" stroke="black" cx="1220" cy="-383" rx="61.99" ry="18"/>
<text text-anchor="middle" x="1220" y="-379.3" font-family="Times,serif" font-size="14.00">HomeCountry</text>
</g>
<!-- Group&#45;&gt;HomeCountry -->
<g id="edge62" class="edge">
<title>Group&#45;&gt;HomeCountry</title>
<path fill="none" stroke="#cc492e" d="M1133.38,-447.8C1144.12,-438.7 1157,-428.09 1169,-419 1175.02,-414.44 1181.58,-409.75 1187.93,-405.34"/>
<polygon fill="#cc492e" stroke="#cc492e" points="1133.59,-447.63 1123.06,-450.7 1129.78,-450.88 1125.98,-454.12 1125.98,-454.12 1125.98,-454.12 1129.78,-450.88 1128.91,-457.55 1133.59,-447.63 1133.59,-447.63"/>
<polygon fill="#cc492e" stroke="#cc492e" points="1187.56,-405.59 1198.35,-403.64 1191.68,-402.76 1195.8,-399.93 1195.8,-399.93 1195.8,-399.93 1191.68,-402.76 1193.26,-396.22 1187.56,-405.59 1187.56,-405.59"/>
</g>
<!-- HomeState -->
<g id="node25" class="node">
<title>HomeState</title>
<ellipse fill="none" stroke="black" cx="1220" cy="-310" rx="50.09" ry="18"/>
<text text-anchor="middle" x="1220" y="-306.3" font-family="Times,serif" font-size="14.00">HomeState</text>
</g>
<!-- Group&#45;&gt;HomeState -->
<g id="edge61" class="edge">
<title>Group&#45;&gt;HomeState</title>
<path fill="none" stroke="#f0ecc1" d="M1114.93,-442.22C1120.84,-419.93 1131.58,-388.21 1149,-365 1158.91,-351.79 1172.89,-340.22 1185.82,-331.21"/>
<polygon fill="#f0ecc1" stroke="#f0ecc1" points="1114.98,-442.03 1108.19,-450.64 1113.77,-446.88 1112.55,-451.73 1112.55,-451.73 1112.55,-451.73 1113.77,-446.88 1116.92,-452.83 1114.98,-442.03 1114.98,-442.03"/>
<polygon fill="#f0ecc1" stroke="#f0ecc1" points="1185.8,-331.22 1196.61,-329.41 1189.96,-328.44 1194.11,-325.67 1194.11,-325.67 1194.11,-325.67 1189.96,-328.44 1191.61,-321.92 1185.8,-331.22 1185.8,-331.22"/>
</g>
<!-- Group&#45;&gt;Installment -->
<g id="edge60" class="edge">
<title>Group&#45;&gt;Installment</title>
<path fill="none" stroke="#aeb769" d="M1078.12,-451.42C1058.11,-440.68 1031.17,-427.44 1006,-419 983.82,-411.56 927.27,-400.89 884,-393.29"/>
<polygon fill="#aeb769" stroke="#aeb769" points="1078.02,-451.36 1084.64,-460.1 1082.41,-453.75 1086.8,-456.15 1086.8,-456.15 1086.8,-456.15 1082.41,-453.75 1088.95,-452.2 1078.02,-451.36 1078.02,-451.36"/>
<polygon fill="#aeb769" stroke="#aeb769" points="884.01,-393.29 874.93,-387.14 879.08,-392.43 874.16,-391.57 874.16,-391.57 874.16,-391.57 879.08,-392.43 873.38,-396 884.01,-393.29 884.01,-393.29"/>
</g>
<!-- Language -->
<g id="node27" class="node">
<title>Language</title>
<ellipse fill="none" stroke="black" cx="1576" cy="-383" rx="45.49" ry="18"/>
<text text-anchor="middle" x="1576" y="-379.3" font-family="Times,serif" font-size="14.00">Language</text>
</g>
<!-- Group&#45;&gt;Language -->
<g id="edge65" class="edge">
<title>Group&#45;&gt;Language</title>
<path fill="none" stroke="#11a4d7" d="M1149.64,-460.96C1201.43,-450.79 1293.75,-432.93 1373,-419 1422.22,-410.35 1434.76,-409.54 1484,-401 1497.65,-398.63 1512.42,-395.96 1526.04,-393.44"/>
<polygon fill="#11a4d7" stroke="#11a4d7" points="1149.65,-460.96 1138.97,-458.47 1144.75,-461.92 1139.84,-462.89 1139.84,-462.89 1139.84,-462.89 1144.75,-461.92 1140.71,-467.3 1149.65,-460.96 1149.65,-460.96"/>
<polygon fill="#11a4d7" stroke="#11a4d7" points="1525.9,-393.46 1536.55,-396.06 1530.81,-392.55 1535.73,-391.64 1535.73,-391.64 1535.73,-391.64 1530.81,-392.55 1534.91,-387.21 1525.9,-393.46 1525.9,-393.46"/>
<text text-anchor="middle" x="1425.5" y="-422.8" font-family="Times,serif" font-size="14.00">primary_languages</text>
</g>
<!-- Group&#45;&gt;Project -->
<g id="edge57" class="edge">
<title>Group&#45;&gt;Project</title>
<path fill="none" stroke="#74f2de" d="M1100.87,-442.35C1096.5,-425.73 1092,-403.82 1092,-384 1092,-384 1092,-384 1092,-163 1092,-148.51 1092,-132.35 1092,-119.12"/>
<polygon fill="#74f2de" stroke="#74f2de" points="1100.85,-442.31 1099.19,-453.15 1102.19,-447.13 1103.53,-451.94 1103.53,-451.94 1103.53,-451.94 1102.19,-447.13 1107.86,-450.74 1100.85,-442.31 1100.85,-442.31"/>
<polygon fill="#74f2de" stroke="#74f2de" points="1092,-119.22 1096.5,-109.22 1092,-114.22 1092,-109.22 1092,-109.22 1092,-109.22 1092,-114.22 1087.5,-109.22 1092,-119.22 1092,-119.22"/>
</g>
<!-- Group&#45;&gt;User -->
<g id="edge58" class="edge">
<title>Group&#45;&gt;User</title>
<path fill="none" stroke="#0d58ae" d="M1137.22,-490.55C1151.98,-503.24 1167,-521.26 1167,-542 1167,-653 1167,-653 1167,-653 1167,-724.51 1135.33,-760.61 1184,-813 1204.65,-835.23 1290.09,-843.47 1340.1,-846.43"/>
<polygon fill="#0d58ae" stroke="#0d58ae" points="1137.39,-490.69 1132.44,-480.9 1133.5,-487.55 1129.61,-484.41 1129.61,-484.41 1129.61,-484.41 1133.5,-487.55 1126.79,-487.91 1137.39,-490.69 1137.39,-490.69"/>
<polygon fill="#0d58ae" stroke="#0d58ae" points="1339.91,-846.42 1349.65,-851.46 1344.9,-846.69 1349.9,-846.97 1349.9,-846.97 1349.9,-846.97 1344.9,-846.69 1350.14,-842.47 1339.91,-846.42 1339.91,-846.42"/>
</g>
<!-- HomeCountry&#45;&gt;HomeState -->
<g id="edge67" class="edge">
<title>HomeCountry&#45;&gt;HomeState</title>
<path fill="none" stroke="#f5dce3" d="M1220,-355.05C1220,-349.38 1220,-343.4 1220,-337.74"/>
<polygon fill="#f5dce3" stroke="#f5dce3" points="1220,-354.81 1215.5,-364.81 1220,-359.81 1220,-364.81 1220,-364.81 1220,-364.81 1220,-359.81 1224.5,-364.81 1220,-354.81 1220,-354.81"/>
<polygon fill="#f5dce3" stroke="#f5dce3" points="1220,-338.03 1224.5,-328.03 1220,-333.03 1220,-328.03 1220,-328.03 1220,-328.03 1220,-333.03 1215.5,-328.03 1220,-338.03 1220,-338.03"/>
</g>
<!-- HomeCountry&#45;&gt;User -->
<g id="edge66" class="edge">
<title>HomeCountry&#45;&gt;User</title>
<path fill="none" stroke="#992ee9" d="M1212.75,-411.02C1208.92,-427.62 1205,-449.39 1205,-469 1205,-653 1205,-653 1205,-653 1205,-709.7 1183.53,-734.24 1217,-780 1246.12,-819.8 1303.25,-836.5 1340.77,-843.37"/>
<polygon fill="#992ee9" stroke="#992ee9" points="1212.72,-411.14 1219.46,-402.49 1213.91,-406.28 1215.09,-401.42 1215.09,-401.42 1215.09,-401.42 1213.91,-406.28 1210.72,-400.36 1212.72,-411.14 1212.72,-411.14"/>
<polygon fill="#992ee9" stroke="#992ee9" points="1340.46,-843.32 1349.57,-849.42 1345.39,-844.15 1350.32,-844.98 1350.32,-844.98 1350.32,-844.98 1345.39,-844.15 1351.08,-840.55 1340.46,-843.32 1340.46,-843.32"/>
</g>
<!-- HomeState&#45;&gt;User -->
<g id="edge68" class="edge">
<title>HomeState&#45;&gt;User</title>
<path fill="none" stroke="#d1d3f0" d="M1278.8,-314.59C1348.55,-320.22 1458.61,-333.89 1484,-365 1494.12,-377.4 1485.54,-385.07 1484,-401 1475.74,-486.41 1428.34,-696.17 1410,-780 1406.78,-794.74 1408.28,-799.28 1402,-813 1400.17,-817 1397.85,-821.02 1395.38,-824.83"/>
<polygon fill="#d1d3f0" stroke="#d1d3f0" points="1279.21,-314.62 1269.58,-309.36 1274.22,-314.24 1269.24,-313.85 1269.24,-313.85 1269.24,-313.85 1274.22,-314.24 1268.89,-318.34 1279.21,-314.62 1279.21,-314.62"/>
<polygon fill="#d1d3f0" stroke="#d1d3f0" points="1395.56,-824.57 1386.13,-830.18 1392.69,-828.67 1389.82,-832.76 1389.82,-832.76 1389.82,-832.76 1392.69,-828.67 1393.5,-835.34 1395.56,-824.57 1395.56,-824.57"/>
</g>
<!-- Installment&#45;&gt;User -->
<g id="edge69" class="edge">
<title>Installment&#45;&gt;User</title>
<path fill="none" stroke="#15bb49" d="M863.09,-404.06C901.02,-428.11 961.51,-471.9 996,-525 1060.28,-623.97 1023.78,-671.42 1070,-780 1076.63,-795.57 1074.89,-803.66 1089,-813 1129.35,-839.71 1271.36,-846.04 1339.71,-847.54"/>
<polygon fill="#15bb49" stroke="#15bb49" points="863.37,-404.24 857.27,-395.13 859.13,-401.59 854.89,-398.95 854.89,-398.95 854.89,-398.95 859.13,-401.59 852.51,-402.76 863.37,-404.24 863.37,-404.24"/>
<polygon fill="#15bb49" stroke="#15bb49" points="1339.63,-847.54 1349.54,-852.23 1344.63,-847.63 1349.63,-847.73 1349.63,-847.73 1349.63,-847.73 1344.63,-847.63 1349.71,-843.23 1339.63,-847.54 1339.63,-847.54"/>
</g>
<!-- Value -->
<g id="node38" class="node">
<title>Value</title>
<ellipse fill="none" stroke="black" cx="825" cy="-310" rx="30.59" ry="18"/>
<text text-anchor="middle" x="825" y="-306.3" font-family="Times,serif" font-size="14.00">Value</text>
</g>
<!-- Installment&#45;&gt;Value -->
<g id="edge70" class="edge">
<title>Installment&#45;&gt;Value</title>
<path fill="none" stroke="#41b992" d="M827.48,-355.05C827.16,-349.38 826.83,-343.4 826.51,-337.74"/>
<polygon fill="#41b992" stroke="#41b992" points="827.47,-354.83 823.54,-365.07 827.75,-359.82 828.03,-364.81 828.03,-364.81 828.03,-364.81 827.75,-359.82 832.52,-364.56 827.47,-354.83 827.47,-354.83"/>
<polygon fill="#41b992" stroke="#41b992" points="826.52,-338.01 830.45,-327.78 826.24,-333.02 825.96,-328.03 825.96,-328.03 825.96,-328.03 826.24,-333.02 821.47,-328.28 826.52,-338.01 826.52,-338.01"/>
</g>
<!-- Language&#45;&gt;User -->
<g id="edge71" class="edge">
<title>Language&#45;&gt;User</title>
<path fill="none" stroke="#3c35da" d="M1540.24,-402.43C1517.38,-417.02 1492,-439.8 1492,-469 1492,-580 1492,-580 1492,-580 1492,-683.8 1538.8,-730.35 1476,-813 1461.37,-832.26 1435.31,-840.96 1413.6,-844.87"/>
<polygon fill="#3c35da" stroke="#3c35da" points="1539.94,-402.6 1550.83,-401.27 1544.22,-400.01 1548.5,-397.42 1548.5,-397.42 1548.5,-397.42 1544.22,-400.01 1546.16,-393.57 1539.94,-402.6 1539.94,-402.6"/>
<polygon fill="#3c35da" stroke="#3c35da" points="1413.87,-844.82 1403.3,-841.9 1408.93,-845.59 1403.99,-846.35 1403.99,-846.35 1403.99,-846.35 1408.93,-845.59 1404.67,-850.79 1413.87,-844.82 1413.87,-844.82"/>
</g>
<!-- Language&#45;&gt;User -->
<g id="edge72" class="edge">
<title>Language&#45;&gt;User</title>
<path fill="none" stroke="#964c2f" d="M1558.18,-409.01C1548.3,-425.29 1538,-447.45 1538,-469 1538,-763 1538,-763 1538,-763 1538,-818.92 1461.11,-838.14 1413.6,-844.69"/>
<polygon fill="#964c2f" stroke="#964c2f" points="1558.17,-409.03 1567.35,-403.03 1560.86,-404.82 1563.56,-400.6 1563.56,-400.6 1563.56,-400.6 1560.86,-404.82 1559.77,-398.18 1558.17,-409.03 1558.17,-409.03"/>
<polygon fill="#964c2f" stroke="#964c2f" points="1413.87,-844.65 1403.39,-841.43 1408.91,-845.28 1403.95,-845.9 1403.95,-845.9 1403.95,-845.9 1408.91,-845.28 1404.51,-850.36 1413.87,-844.65 1413.87,-844.65"/>
<text text-anchor="middle" x="1571" y="-612.3" font-family="Times,serif" font-size="14.00">home_users</text>
</g>
<!-- Narrative -->
<g id="node28" class="node">
<title>Narrative</title>
<ellipse fill="none" stroke="black" cx="1877" cy="-762" rx="44.39" ry="18"/>
<text text-anchor="middle" x="1877" y="-758.3" font-family="Times,serif" font-size="14.00">Narrative</text>
</g>
<!-- Narrative&#45;&gt;Behavior -->
<g id="edge75" class="edge">
<title>Narrative&#45;&gt;Behavior</title>
<path fill="none" stroke="#5f3ef2" d="M1913.05,-743.1C1934.9,-732.25 1962.66,-718.47 1984.43,-707.66"/>
<polygon fill="#5f3ef2" stroke="#5f3ef2" points="1913.19,-743.03 1902.23,-743.45 1908.71,-745.25 1904.23,-747.48 1904.23,-747.48 1904.23,-747.48 1908.71,-745.25 1906.24,-751.51 1913.19,-743.03 1913.19,-743.03"/>
<polygon fill="#5f3ef2" stroke="#5f3ef2" points="1984.39,-707.68 1995.35,-707.26 1988.87,-705.45 1993.35,-703.23 1993.35,-703.23 1993.35,-703.23 1988.87,-705.45 1991.35,-699.2 1984.39,-707.68 1984.39,-707.68"/>
</g>
<!-- Narrative&#45;&gt;Reaction -->
<g id="edge76" class="edge">
<title>Narrative&#45;&gt;Reaction</title>
<path fill="none" stroke="#f1bc00" d="M1892.07,-788.41C1911.41,-821.03 1944.77,-877.28 1964.06,-909.8"/>
<polygon fill="#f1bc00" stroke="#f1bc00" points="1892.11,-788.47 1890.88,-777.58 1889.56,-784.17 1887.01,-779.87 1887.01,-779.87 1887.01,-779.87 1889.56,-784.17 1883.14,-782.17 1892.11,-788.47 1892.11,-788.47"/>
<polygon fill="#f1bc00" stroke="#f1bc00" points="1963.93,-909.59 1965.16,-920.49 1966.48,-913.89 1969.03,-918.19 1969.03,-918.19 1969.03,-918.19 1966.48,-913.89 1972.9,-915.9 1963.93,-909.59 1963.93,-909.59"/>
</g>
<!-- Narrative&#45;&gt;Scenario -->
<g id="edge73" class="edge">
<title>Narrative&#45;&gt;Scenario</title>
<path fill="none" stroke="#697d51" d="M1883.94,-734.01C1890.59,-708.1 1900.59,-669.21 1907.2,-643.48"/>
<polygon fill="#697d51" stroke="#697d51" points="1883.95,-733.94 1877.1,-742.51 1882.71,-738.79 1881.46,-743.63 1881.46,-743.63 1881.46,-743.63 1882.71,-738.79 1885.82,-744.75 1883.95,-733.94 1883.95,-733.94"/>
<polygon fill="#697d51" stroke="#697d51" points="1907.15,-643.67 1913.99,-635.1 1908.39,-638.83 1909.64,-633.98 1909.64,-633.98 1909.64,-633.98 1908.39,-638.83 1905.28,-632.86 1907.15,-643.67 1907.15,-643.67"/>
</g>
<!-- Narrative&#45;&gt;Week -->
<g id="edge74" class="edge">
<title>Narrative&#45;&gt;Week</title>
<path fill="none" stroke="#588a51" d="M1865.13,-734.82C1851.37,-700.12 1834.05,-638.58 1863,-598 1889.13,-561.38 1941.74,-549.34 1978.84,-545.52"/>
<polygon fill="#588a51" stroke="#588a51" points="1865.04,-734.62 1864.72,-745.58 1866.96,-739.24 1868.87,-743.85 1868.87,-743.85 1868.87,-743.85 1866.96,-739.24 1873.03,-742.13 1865.04,-734.62 1865.04,-734.62"/>
<polygon fill="#588a51" stroke="#588a51" points="1978.42,-545.56 1988.78,-549.17 1983.41,-545.12 1988.39,-544.68 1988.39,-544.68 1988.39,-544.68 1983.41,-545.12 1987.99,-540.2 1978.42,-545.56 1978.42,-545.56"/>
</g>
<!-- Project&#45;&gt;Factor -->
<g id="edge81" class="edge">
<title>Project&#45;&gt;Factor</title>
<path fill="none" stroke="#d566f0" d="M1046.67,-94.91C990.47,-99.23 898.59,-108.86 870,-127 853.55,-137.44 826.22,-182.26 809.78,-211.08"/>
<polygon fill="#d566f0" stroke="#d566f0" points="1046.42,-94.93 1056.72,-98.67 1051.4,-94.56 1056.39,-94.18 1056.39,-94.18 1056.39,-94.18 1051.4,-94.56 1056.06,-89.7 1046.42,-94.93 1046.42,-94.93"/>
<polygon fill="#d566f0" stroke="#d566f0" points="809.96,-210.74 801.13,-217.24 807.51,-215.1 805.05,-219.45 805.05,-219.45 805.05,-219.45 807.51,-215.1 808.97,-221.66 809.96,-210.74 809.96,-210.74"/>
</g>
<!-- Project&#45;&gt;Installment -->
<g id="edge79" class="edge">
<title>Project&#45;&gt;Installment</title>
<path fill="none" stroke="#488a5e" d="M1047.87,-97.98C986.81,-107.51 884,-128.66 884,-163 884,-274 884,-274 884,-274 884,-305.39 865.32,-336.88 849.73,-357.68"/>
<polygon fill="#488a5e" stroke="#488a5e" points="1047.77,-98 1058.33,-100.95 1052.71,-97.25 1057.65,-96.5 1057.65,-96.5 1057.65,-96.5 1052.71,-97.25 1056.98,-92.05 1047.77,-98 1047.77,-98"/>
<polygon fill="#488a5e" stroke="#488a5e" points="849.88,-357.49 840.19,-362.61 846.81,-361.43 843.74,-365.38 843.74,-365.38 843.74,-365.38 846.81,-361.43 847.29,-368.14 849.88,-357.49 849.88,-357.49"/>
</g>
<!-- Project&#45;&gt;Roster -->
<g id="edge77" class="edge">
<title>Project&#45;&gt;Roster</title>
<path fill="none" stroke="#d3cc8d" d="M1137.35,-87.15C1319.72,-75.67 1998.29,-32.96 2176.76,-21.72"/>
<polygon fill="#d3cc8d" stroke="#d3cc8d" points="1137.6,-87.13 1127.34,-83.27 1132.61,-87.44 1127.62,-87.76 1127.62,-87.76 1127.62,-87.76 1132.61,-87.44 1127.9,-92.25 1137.6,-87.13 1137.6,-87.13"/>
<polygon fill="#d3cc8d" stroke="#d3cc8d" points="2176.6,-21.73 2186.87,-25.59 2181.59,-21.42 2186.58,-21.1 2186.58,-21.1 2186.58,-21.1 2181.59,-21.42 2186.3,-16.61 2176.6,-21.73 2176.6,-21.73"/>
</g>
<!-- Style -->
<g id="node35" class="node">
<title>Style</title>
<ellipse fill="none" stroke="black" cx="1092" cy="-18" rx="28.7" ry="18"/>
<text text-anchor="middle" x="1092" y="-14.3" font-family="Times,serif" font-size="14.00">Style</text>
</g>
<!-- Project&#45;&gt;Style -->
<g id="edge78" class="edge">
<title>Project&#45;&gt;Style</title>
<path fill="none" stroke="#ca6541" d="M1092,-63.05C1092,-57.38 1092,-51.4 1092,-45.74"/>
<polygon fill="#ca6541" stroke="#ca6541" points="1092,-62.81 1087.5,-72.81 1092,-67.81 1092,-72.81 1092,-72.81 1092,-72.81 1092,-67.81 1096.5,-72.81 1092,-62.81 1092,-62.81"/>
<polygon fill="#ca6541" stroke="#ca6541" points="1092,-46.03 1096.5,-36.03 1092,-41.03 1092,-36.03 1092,-36.03 1092,-36.03 1092,-41.03 1087.5,-36.03 1092,-46.03 1092,-46.03"/>
</g>
<!-- Project&#45;&gt;User -->
<g id="edge80" class="edge">
<title>Project&#45;&gt;User</title>
<path fill="none" stroke="#6561e3" d="M1138.38,-91.96C1284.1,-92.16 1726.37,-95.39 1782,-127 1798.72,-136.5 1806,-143.77 1806,-163 1806,-690 1806,-690 1806,-690 1806,-794.73 1704.91,-781.59 1605,-813 1539.65,-833.54 1459.83,-842.26 1414.06,-845.78"/>
<polygon fill="#6561e3" stroke="#6561e3" points="1138.41,-91.96 1128.42,-87.45 1133.41,-91.95 1128.41,-91.95 1128.41,-91.95 1128.41,-91.95 1133.41,-91.95 1128.41,-96.45 1138.41,-91.96 1138.41,-91.96"/>
<polygon fill="#6561e3" stroke="#6561e3" points="1414.25,-845.77 1403.95,-842.01 1409.27,-846.13 1404.28,-846.5 1404.28,-846.5 1404.28,-846.5 1409.27,-846.13 1404.61,-850.98 1414.25,-845.77 1414.25,-845.77"/>
</g>
<!-- Quote -->
<g id="node30" class="node">
<title>Quote</title>
<ellipse fill="none" stroke="black" cx="1163" cy="-1176" rx="32.49" ry="18"/>
<text text-anchor="middle" x="1163" y="-1172.3" font-family="Times,serif" font-size="14.00">Quote</text>
</g>
<!-- Reaction&#45;&gt;Course -->
<g id="edge83" class="edge">
<title>Reaction&#45;&gt;Course</title>
<path fill="none" stroke="#1e17f5" d="M1968.13,-963.07C1958.04,-983.87 1940.95,-1011.93 1917,-1027 1870.93,-1055.99 1850.13,-1040.26 1796,-1046 1578.65,-1069.05 1317.33,-1077.44 1213.14,-1080.01"/>
<polygon fill="#1e17f5" stroke="#1e17f5" points="1968.08,-963.18 1976.36,-955.98 1970.18,-958.64 1972.28,-954.1 1972.28,-954.1 1972.28,-954.1 1970.18,-958.64 1968.19,-952.21 1968.08,-963.18 1968.08,-963.18"/>
<polygon fill="#1e17f5" stroke="#1e17f5" points="1213.26,-1080.01 1203.16,-1075.75 1208.26,-1080.13 1203.27,-1080.25 1203.27,-1080.25 1203.27,-1080.25 1208.26,-1080.13 1203.37,-1084.75 1213.26,-1080.01 1213.26,-1080.01"/>
</g>
<!-- Reaction&#45;&gt;User -->
<g id="edge82" class="edge">
<title>Reaction&#45;&gt;User</title>
<path fill="none" stroke="#cf46bf" d="M1929.2,-927.97C1811.09,-911.29 1516.2,-869.66 1413.2,-855.11"/>
<polygon fill="#cf46bf" stroke="#cf46bf" points="1929.13,-927.96 1938.41,-933.81 1934.08,-928.66 1939.03,-929.36 1939.03,-929.36 1939.03,-929.36 1934.08,-928.66 1939.66,-924.9 1929.13,-927.96 1929.13,-927.96"/>
<polygon fill="#cf46bf" stroke="#cf46bf" points="1413.46,-855.15 1404.19,-849.29 1408.51,-854.45 1403.56,-853.75 1403.56,-853.75 1403.56,-853.75 1408.51,-854.45 1402.93,-858.21 1413.46,-855.15 1413.46,-855.15"/>
</g>
<!-- Roster&#45;&gt;User -->
<g id="edge84" class="edge">
<title>Roster&#45;&gt;User</title>
<path fill="none" stroke="#0f0d66" d="M2218.57,-46.17C2215.39,-107.06 2208,-250.83 2208,-273 2208,-653 2208,-653 2208,-653 2208,-711.21 2218.52,-740.25 2176,-780 2119.7,-832.62 1563.1,-845.09 1413.73,-847.49"/>
<polygon fill="#0f0d66" stroke="#0f0d66" points="2218.56,-46.46 2223.57,-36.71 2218.82,-41.47 2219.08,-36.48 2219.08,-36.48 2219.08,-36.48 2218.82,-41.47 2214.58,-36.24 2218.56,-46.46 2218.56,-46.46"/>
<polygon fill="#0f0d66" stroke="#0f0d66" points="1414.09,-847.49 1404.02,-843.14 1409.09,-847.57 1404.09,-847.64 1404.09,-847.64 1404.09,-847.64 1409.09,-847.57 1404.16,-852.14 1414.09,-847.49 1414.09,-847.49"/>
</g>
<!-- School&#45;&gt;BingoGame -->
<g id="edge85" class="edge">
<title>School&#45;&gt;BingoGame</title>
<path fill="none" stroke="#6e7569" d="M2087.44,-756.71C2046.54,-752.89 1984.24,-747.41 1930,-744 1457.66,-714.28 887.27,-696.93 699.38,-691.7"/>
<polygon fill="#6e7569" stroke="#6e7569" points="2087.41,-756.7 2096.94,-762.12 2092.38,-757.17 2097.36,-757.64 2097.36,-757.64 2097.36,-757.64 2092.38,-757.17 2097.78,-753.16 2087.41,-756.7 2087.41,-756.7"/>
<polygon fill="#6e7569" stroke="#6e7569" points="699.66,-691.7 689.79,-686.93 694.66,-691.57 689.66,-691.43 689.66,-691.43 689.66,-691.43 694.66,-691.57 689.54,-695.92 699.66,-691.7 699.66,-691.7"/>
</g>
<!-- School&#45;&gt;Experience -->
<g id="edge87" class="edge">
<title>School&#45;&gt;Experience</title>
<path fill="none" stroke="#055821" d="M2126.16,-789.45C2119.02,-818.21 2105.08,-864.77 2083,-900 2065.14,-928.5 2058.68,-936.44 2030,-954 1993.77,-976.19 1947.6,-990.03 1912.22,-998.13"/>
<polygon fill="#055821" stroke="#055821" points="2126.08,-789.79 2132.79,-781.12 2127.25,-784.93 2128.41,-780.07 2128.41,-780.07 2128.41,-780.07 2127.25,-784.93 2124.03,-779.02 2126.08,-789.79 2126.08,-789.79"/>
<polygon fill="#055821" stroke="#055821" points="1912.31,-998.11 1901.58,-995.88 1907.43,-999.19 1902.55,-1000.27 1902.55,-1000.27 1902.55,-1000.27 1907.43,-999.19 1903.52,-1004.67 1912.31,-998.11 1912.31,-998.11"/>
</g>
<!-- School&#45;&gt;Project -->
<g id="edge86" class="edge">
<title>School&#45;&gt;Project</title>
<path fill="none" stroke="#b42f66" d="M2132,-733.88C2132,-720.65 2132,-704.49 2132,-690 2132,-690 2132,-690 2132,-163 2132,-112.44 1339.38,-96.05 1138.06,-92.7"/>
<polygon fill="#b42f66" stroke="#b42f66" points="2132,-733.78 2127.5,-743.78 2132,-738.78 2132,-743.78 2132,-743.78 2132,-743.78 2132,-738.78 2136.5,-743.78 2132,-733.78 2132,-733.78"/>
<polygon fill="#b42f66" stroke="#b42f66" points="1138.1,-92.7 1128.17,-88.04 1133.1,-92.62 1128.1,-92.54 1128.1,-92.54 1128.1,-92.54 1133.1,-92.62 1128.03,-97.03 1138.1,-92.7 1138.1,-92.7"/>
</g>
<!-- School&#45;&gt;Roster -->
<g id="edge88" class="edge">
<title>School&#45;&gt;Roster</title>
<path fill="none" stroke="#bd5b30" d="M2152.28,-737.1C2161.34,-724.04 2170,-707.09 2170,-690 2170,-690 2170,-690 2170,-200 2170,-142.79 2193.5,-78.95 2208.28,-44.46"/>
<polygon fill="#bd5b30" stroke="#bd5b30" points="2152.32,-737.04 2142.75,-742.39 2149.35,-741.06 2146.37,-745.08 2146.37,-745.08 2146.37,-745.08 2149.35,-741.06 2149.98,-747.76 2152.32,-737.04 2152.32,-737.04"/>
<polygon fill="#bd5b30" stroke="#bd5b30" points="2208.17,-44.7 2216.31,-37.35 2210.18,-40.12 2212.19,-35.55 2212.19,-35.55 2212.19,-35.55 2210.18,-40.12 2208.07,-33.74 2208.17,-44.7 2208.17,-44.7"/>
</g>
<!-- Theme -->
<g id="node36" class="node">
<title>Theme</title>
<ellipse fill="none" stroke="black" cx="1313" cy="-936" rx="36" ry="18"/>
<text text-anchor="middle" x="1313" y="-932.3" font-family="Times,serif" font-size="14.00">Theme</text>
</g>
<!-- Theme&#45;&gt;User -->
<g id="edge89" class="edge">
<title>Theme&#45;&gt;User</title>
<path fill="none" stroke="#459dd7" d="M1331.12,-910.93C1340.04,-899.08 1350.75,-884.86 1359.58,-873.14"/>
<polygon fill="#459dd7" stroke="#459dd7" points="1331.35,-910.62 1321.74,-915.9 1328.35,-914.62 1325.34,-918.61 1325.34,-918.61 1325.34,-918.61 1328.35,-914.62 1328.93,-921.32 1331.35,-910.62 1331.35,-910.62"/>
<polygon fill="#459dd7" stroke="#459dd7" points="1359.33,-873.47 1368.94,-868.19 1362.34,-869.47 1365.35,-865.48 1365.35,-865.48 1365.35,-865.48 1362.34,-869.47 1361.75,-862.77 1359.33,-873.47 1359.33,-873.47"/>
</g>
<!-- User&#45;&gt;Concept -->
<g id="edge90" class="edge">
<title>User&#45;&gt;Concept</title>
<path fill="none" stroke="#87f918" d="M1339.86,-847.99C1259.91,-847.39 1074.37,-842.72 1020,-813 949.47,-774.44 974,-716.88 908,-671 777.25,-580.1 703.98,-642.22 567,-561 546.99,-549.13 549.5,-535.99 529,-525 469.98,-493.36 392.95,-480.17 343.47,-474.74"/>
<polygon fill="#87f918" stroke="#87f918" points="1339.52,-847.99 1349.49,-852.54 1344.52,-848.02 1349.52,-848.04 1349.52,-848.04 1349.52,-848.04 1344.52,-848.02 1349.55,-843.54 1339.52,-847.99 1339.52,-847.99"/>
<polygon fill="#87f918" stroke="#87f918" points="343.6,-474.75 334.12,-469.24 338.63,-474.24 333.65,-473.72 333.65,-473.72 333.65,-473.72 338.63,-474.24 333.19,-478.2 343.6,-474.75 343.6,-474.75"/>
</g>
<!-- User&#45;&gt;Experience -->
<g id="edge93" class="edge">
<title>User&#45;&gt;Experience</title>
<path fill="none" stroke="#e6cdad" d="M1410.23,-860.92C1494.48,-888.59 1716.53,-961.53 1812.61,-993.09"/>
<polygon fill="#e6cdad" stroke="#e6cdad" points="1410.39,-860.97 1402.3,-853.57 1405.64,-859.41 1400.89,-857.85 1400.89,-857.85 1400.89,-857.85 1405.64,-859.41 1399.49,-862.12 1410.39,-860.97 1410.39,-860.97"/>
<polygon fill="#e6cdad" stroke="#e6cdad" points="1812.35,-993 1820.44,-1000.4 1817.1,-994.56 1821.85,-996.12 1821.85,-996.12 1821.85,-996.12 1817.1,-994.56 1823.25,-991.85 1812.35,-993 1812.35,-993"/>
</g>
<!-- User&#45;&gt;Language -->
<g id="edge91" class="edge">
<title>User&#45;&gt;Language</title>
<path fill="none" stroke="#365889" d="M1413.27,-843.97C1485.41,-834.94 1640,-810.09 1640,-763 1640,-763 1640,-763 1640,-469 1640,-443.62 1621.57,-421.01 1604.49,-405.49"/>
<polygon fill="#365889" stroke="#365889" points="1413.59,-843.93 1403.12,-840.67 1408.63,-844.53 1403.67,-845.14 1403.67,-845.14 1403.67,-845.14 1408.63,-844.53 1404.21,-849.6 1413.59,-843.93 1413.59,-843.93"/>
<polygon fill="#365889" stroke="#365889" points="1604.88,-405.83 1600.25,-395.89 1601.1,-402.56 1597.31,-399.29 1597.31,-399.29 1597.31,-399.29 1601.1,-402.56 1594.37,-402.7 1604.88,-405.83 1604.88,-405.83"/>
<text text-anchor="middle" x="1690" y="-612.3" font-family="Times,serif" font-size="14.00">primary_language</text>
</g>
<!-- User&#45;&gt;Narrative -->
<g id="edge94" class="edge">
<title>User&#45;&gt;Narrative</title>
<path fill="none" stroke="#591b66" d="M1414.21,-848C1506.97,-847.54 1746.25,-843.35 1819,-813 1833.02,-807.15 1846.08,-796.56 1856.24,-786.63"/>
<polygon fill="#591b66" stroke="#591b66" points="1414.41,-848 1404.39,-843.54 1409.41,-848.02 1404.41,-848.04 1404.41,-848.04 1404.41,-848.04 1409.41,-848.02 1404.43,-852.54 1414.41,-848 1414.41,-848"/>
<polygon fill="#591b66" stroke="#591b66" points="1856.12,-786.75 1866.33,-782.73 1859.61,-783.17 1863.1,-779.59 1863.1,-779.59 1863.1,-779.59 1859.61,-783.17 1859.88,-776.45 1856.12,-786.75 1856.12,-786.75"/>
</g>
<!-- User&#45;&gt;School -->
<g id="edge92" class="edge">
<title>User&#45;&gt;School</title>
<path fill="none" stroke="#08ebb0" d="M1414.41,-848.31C1505.94,-848.51 1748.23,-845.62 1947,-813 1998.69,-804.52 2056.77,-787.56 2093.83,-775.76"/>
<polygon fill="#08ebb0" stroke="#08ebb0" points="1414.51,-848.31 1404.53,-843.78 1409.51,-848.29 1404.51,-848.28 1404.51,-848.28 1404.51,-848.28 1409.51,-848.29 1404.49,-852.78 1414.51,-848.31 1414.51,-848.31"/>
<polygon fill="#08ebb0" stroke="#08ebb0" points="2093.72,-775.79 2104.62,-777.01 2098.48,-774.26 2103.24,-772.73 2103.24,-772.73 2103.24,-772.73 2098.48,-774.26 2101.86,-768.44 2093.72,-775.79 2093.72,-775.79"/>
</g>
<!-- Ahoy::Message -->
<g id="node42" class="node">
<title>Ahoy::Message</title>
<ellipse fill="none" stroke="black" cx="1292" cy="-762" rx="66.09" ry="18"/>
<text text-anchor="middle" x="1292" y="-758.3" font-family="Times,serif" font-size="14.00">Ahoy::Message</text>
</g>
<!-- User&#45;&gt;Ahoy::Message -->
<g id="edge95" class="edge">
<title>User&#45;&gt;Ahoy::Message</title>
<path fill="none" stroke="#7176d8" d="M1346.49,-833.14C1337.25,-827.68 1327.56,-820.87 1320,-813 1313.32,-806.04 1307.68,-797.19 1303.26,-788.87"/>
<polygon fill="#7176d8" stroke="#7176d8" points="1346.39,-833.09 1352.93,-841.89 1350.76,-835.53 1355.12,-837.96 1355.12,-837.96 1355.12,-837.96 1350.76,-835.53 1357.31,-834.03 1346.39,-833.09 1346.39,-833.09"/>
<polygon fill="#7176d8" stroke="#7176d8" points="1303.38,-789.12 1302.97,-778.16 1301.16,-784.64 1298.94,-780.16 1298.94,-780.16 1298.94,-780.16 1301.16,-784.64 1294.91,-782.16 1303.38,-789.12 1303.38,-789.12"/>
<text text-anchor="middle" x="1346" y="-801.8" font-family="Times,serif" font-size="14.00">messages</text>
</g>
<!-- Value&#45;&gt;Factor -->
<g id="edge97" class="edge">
<title>Value&#45;&gt;Factor</title>
<path fill="none" stroke="#7697da" d="M814.43,-283.13C811.83,-276.76 809.05,-269.94 806.45,-263.58"/>
<polygon fill="#7697da" stroke="#7697da" points="814.35,-282.92 813.96,-293.88 816.24,-287.55 818.13,-292.17 818.13,-292.17 818.13,-292.17 816.24,-287.55 822.29,-290.47 814.35,-282.92 814.35,-282.92"/>
<polygon fill="#7697da" stroke="#7697da" points="806.6,-263.96 806.99,-253 804.71,-259.33 802.82,-254.71 802.82,-254.71 802.82,-254.71 804.71,-259.33 798.66,-256.41 806.6,-263.96 806.6,-263.96"/>
</g>
<!-- Value&#45;&gt;User -->
<g id="edge96" class="edge">
<title>Value&#45;&gt;User</title>
<path fill="none" stroke="#824add" d="M850.39,-331.22C862.4,-341.08 876.75,-353.31 889,-365 940.08,-413.75 1071.14,-536.04 1105,-598 1145.06,-671.31 1123.19,-701.58 1152,-780 1157.62,-795.3 1154.95,-803.23 1168,-813 1194.58,-832.9 1287.55,-842.13 1340.1,-845.85"/>
<polygon fill="#824add" stroke="#824add" points="850.64,-331.42 845.73,-321.62 846.76,-328.27 842.89,-325.11 842.89,-325.11 842.89,-325.11 846.76,-328.27 840.05,-328.6 850.64,-331.42 850.64,-331.42"/>
<polygon fill="#824add" stroke="#824add" points="1340.06,-845.85 1349.73,-851.01 1345.05,-846.19 1350.03,-846.53 1350.03,-846.53 1350.03,-846.53 1345.05,-846.19 1350.34,-842.04 1340.06,-845.85 1340.06,-845.85"/>
</g>
<!-- Week&#45;&gt;Behavior -->
<g id="edge98" class="edge">
<title>Week&#45;&gt;Behavior</title>
<path fill="none" stroke="#057936" d="M2047.63,-563.35C2058.3,-572.5 2069.29,-584.4 2075,-598 2081.19,-612.75 2081.19,-619.25 2075,-634 2069.64,-646.78 2059.61,-658.06 2049.57,-666.96"/>
<polygon fill="#057936" stroke="#057936" points="2047.79,-563.48 2042.83,-553.7 2043.9,-560.34 2040.01,-557.2 2040.01,-557.2 2040.01,-557.2 2043.9,-560.34 2037.18,-560.7 2047.79,-563.48 2047.79,-563.48"/>
<polygon fill="#057936" stroke="#057936" points="2049.65,-666.89 2039.09,-669.83 2045.81,-670.09 2041.96,-673.29 2041.96,-673.29 2041.96,-673.29 2045.81,-670.09 2044.84,-676.75 2049.65,-666.89 2049.65,-666.89"/>
</g>
</g>
</svg>
