<?xml version="1.0" encoding="UTF-8" standalone="no"?>
<!DOCTYPE svg PUBLIC "-//W3C//DTD SVG 1.1//EN"
 "http://www.w3.org/Graphics/SVG/1.1/DTD/svg11.dtd">
<!-- Generated by graphviz version 2.38.0 (20140413.2041)
 -->
<!-- Title: models_diagram Pages: 1 -->
<svg width="1447pt" height="446pt"
 viewBox="0.00 0.00 1447.00 446.00" xmlns="http://www.w3.org/2000/svg" xmlns:xlink="http://www.w3.org/1999/xlink">
<g id="graph0" class="graph" transform="scale(1 1) rotate(0) translate(4 442)">
<title>models_diagram</title>
<polygon fill="none" stroke="none" points="-4,4 -4,-442 1443,-442 1443,4 -4,4"/>
<!-- _diagram_info -->
<g id="node1" class="node"><title>_diagram_info</title>
<text text-anchor="start" x="8" y="-423.6" font-family="Times,serif" font-size="13.00">Models diagram</text>
<text text-anchor="start" x="8" y="-409.6" font-family="Times,serif" font-size="13.00">Date: Jan 20 2017 &#45; 14:28</text>
<text text-anchor="start" x="8" y="-395.6" font-family="Times,serif" font-size="13.00">Migration version: 20170120030833</text>
<text text-anchor="start" x="8" y="-381.6" font-family="Times,serif" font-size="13.00">Generated by RailRoady 1.5.2</text>
<text text-anchor="start" x="8" y="-367.6" font-family="Times,serif" font-size="13.00">http://railroady.prestonlee.com</text>
</g>
<!-- GroupProjectCount -->
<g id="node2" class="node"><title>GroupProjectCount</title>
<ellipse fill="none" stroke="black" cx="311" cy="-399" rx="79.0865" ry="18"/>
<text text-anchor="middle" x="311" y="-395.3" font-family="Times,serif" font-size="14.00">GroupProjectCount</text>
</g>
<!-- User -->
<g id="node9" class="node"><title>User</title>
<ellipse fill="none" stroke="black" cx="446" cy="-306" rx="27.0966" ry="18"/>
<text text-anchor="middle" x="446" y="-302.3" font-family="Times,serif" font-size="14.00">User</text>
</g>
<!-- GroupProjectCount&#45;&gt;User -->
<g id="edge1" class="edge"><title>GroupProjectCount&#45;&gt;User</title>
<path fill="none" stroke="#58891b" d="M341.922,-377.156C365.17,-361.486 396.711,-340.225 418.959,-325.228"/>
<ellipse fill="none" stroke="#58891b" cx="338.452" cy="-379.495" rx="4.00002" ry="4.00002"/>
<polygon fill="#58891b" stroke="#58891b" points="418.994,-325.204 429.802,-323.346 423.14,-322.409 427.286,-319.614 427.286,-319.614 427.286,-319.614 423.14,-322.409 424.771,-315.883 418.994,-325.204 418.994,-325.204"/>
</g>
<!-- FactorPack -->
<g id="node3" class="node"><title>FactorPack</title>
<ellipse fill="none" stroke="black" cx="928" cy="-306" rx="50.0912" ry="18"/>
<text text-anchor="middle" x="928" y="-302.3" font-family="Times,serif" font-size="14.00">FactorPack</text>
</g>
<!-- Project -->
<g id="node13" class="node"><title>Project</title>
<ellipse fill="none" stroke="black" cx="735" cy="-234" rx="35.9954" ry="18"/>
<text text-anchor="middle" x="735" y="-230.3" font-family="Times,serif" font-size="14.00">Project</text>
</g>
<!-- FactorPack&#45;&gt;Project -->
<g id="edge3" class="edge"><title>FactorPack&#45;&gt;Project</title>
<path fill="none" stroke="#c6b030" d="M886.25,-289.857C852.484,-277.611 805.353,-260.517 772.716,-248.679"/>
<ellipse fill="none" stroke="#c6b030" cx="890.179" cy="-291.283" rx="4.00001" ry="4.00001"/>
<polygon fill="#c6b030" stroke="#c6b030" points="772.484,-248.595 764.618,-240.955 767.784,-246.89 763.083,-245.186 763.083,-245.186 763.083,-245.186 767.784,-246.89 761.549,-249.416 772.484,-248.595 772.484,-248.595"/>
</g>
<!-- Factor -->
<g id="node16" class="node"><title>Factor</title>
<ellipse fill="none" stroke="black" cx="735" cy="-90" rx="33.2948" ry="18"/>
<text text-anchor="middle" x="735" y="-86.3" font-family="Times,serif" font-size="14.00">Factor</text>
</g>
<!-- FactorPack&#45;&gt;Factor -->
<g id="edge2" class="edge"><title>FactorPack&#45;&gt;Factor</title>
<path fill="none" stroke="#0953f2" d="M906.258,-280.892C868.839,-239.401 792.744,-155.027 755.908,-114.184"/>
<polygon fill="#0953f2" stroke="#0953f2" points="906.479,-281.137 909.834,-291.577 909.827,-284.85 913.176,-288.563 913.176,-288.563 913.176,-288.563 909.827,-284.85 916.518,-285.549 906.479,-281.137 906.479,-281.137"/>
<polygon fill="#0953f2" stroke="#0953f2" points="755.785,-114.047 752.43,-103.607 752.437,-110.334 749.088,-106.621 749.088,-106.621 749.088,-106.621 752.437,-110.334 745.746,-109.635 755.785,-114.047 755.785,-114.047"/>
</g>
<!-- Course -->
<g id="node4" class="node"><title>Course</title>
<ellipse fill="none" stroke="black" cx="824" cy="-306" rx="35.9954" ry="18"/>
<text text-anchor="middle" x="824" y="-302.3" font-family="Times,serif" font-size="14.00">Course</text>
</g>
<!-- Course&#45;&gt;Project -->
<g id="edge4" class="edge"><title>Course&#45;&gt;Project</title>
<path fill="none" stroke="#cece2e" d="M799.168,-285.469C787.379,-276.197 773.285,-265.112 761.313,-255.695"/>
<ellipse fill="none" stroke="#cece2e" cx="802.415" cy="-288.023" rx="4.00002" ry="4.00002"/>
<polygon fill="#cece2e" stroke="#cece2e" points="761.277,-255.668 756.199,-245.948 757.347,-252.577 753.417,-249.485 753.417,-249.485 753.417,-249.485 757.347,-252.577 750.635,-253.023 761.277,-255.668 761.277,-255.668"/>
</g>
<!-- Style -->
<g id="node5" class="node"><title>Style</title>
<ellipse fill="none" stroke="black" cx="742" cy="-306" rx="28.6953" ry="18"/>
<text text-anchor="middle" x="742" y="-302.3" font-family="Times,serif" font-size="14.00">Style</text>
</g>
<!-- Style&#45;&gt;Project -->
<g id="edge5" class="edge"><title>Style&#45;&gt;Project</title>
<path fill="none" stroke="#4eef5e" d="M739.464,-279.64C738.906,-274.063 738.313,-268.132 737.748,-262.476"/>
<ellipse fill="none" stroke="#4eef5e" cx="739.872" cy="-283.716" rx="4" ry="4"/>
<polygon fill="#4eef5e" stroke="#4eef5e" points="737.706,-262.055 741.188,-251.657 737.208,-257.08 736.71,-252.104 736.71,-252.104 736.71,-252.104 737.208,-257.08 732.233,-252.552 737.706,-262.055 737.706,-262.055"/>
</g>
<!-- Behavior -->
<g id="node6" class="node"><title>Behavior</title>
<ellipse fill="none" stroke="black" cx="920" cy="-399" rx="42.7926" ry="18"/>
<text text-anchor="middle" x="920" y="-395.3" font-family="Times,serif" font-size="14.00">Behavior</text>
</g>
<!-- Installment -->
<g id="node7" class="node"><title>Installment</title>
<ellipse fill="none" stroke="black" cx="591" cy="-90" rx="50.8918" ry="18"/>
<text text-anchor="middle" x="591" y="-86.3" font-family="Times,serif" font-size="14.00">Installment</text>
</g>
<!-- Value -->
<g id="node20" class="node"><title>Value</title>
<ellipse fill="none" stroke="black" cx="591" cy="-18" rx="31.6951" ry="18"/>
<text text-anchor="middle" x="591" y="-14.3" font-family="Times,serif" font-size="14.00">Value</text>
</g>
<!-- Installment&#45;&gt;Value -->
<g id="edge6" class="edge"><title>Installment&#45;&gt;Value</title>
<path fill="none" stroke="#24bf78" d="M591,-63.6398C591,-58.0629 591,-52.1319 591,-46.4761"/>
<ellipse fill="none" stroke="#24bf78" cx="591" cy="-67.6966" rx="4" ry="4"/>
<polygon fill="#24bf78" stroke="#24bf78" points="591,-46.1043 595.5,-36.1043 591,-41.1043 591,-36.1043 591,-36.1043 591,-36.1043 591,-41.1043 586.5,-36.1044 591,-46.1043 591,-46.1043"/>
</g>
<!-- ConsentForm -->
<g id="node8" class="node"><title>ConsentForm</title>
<ellipse fill="none" stroke="black" cx="636" cy="-306" rx="59.2899" ry="18"/>
<text text-anchor="middle" x="636" y="-302.3" font-family="Times,serif" font-size="14.00">ConsentForm</text>
</g>
<!-- ConsentForm&#45;&gt;Project -->
<g id="edge7" class="edge"><title>ConsentForm&#45;&gt;Project</title>
<path fill="none" stroke="#b664f5" d="M665.102,-284.423C678.262,-275.118 693.752,-264.165 706.801,-254.939"/>
<ellipse fill="none" stroke="#b664f5" cx="661.731" cy="-286.807" rx="4.00002" ry="4.00002"/>
<polygon fill="#b664f5" stroke="#b664f5" points="706.81,-254.932 717.573,-252.833 710.893,-252.046 714.975,-249.159 714.975,-249.159 714.975,-249.159 710.893,-252.046 712.377,-245.485 706.81,-254.932 706.81,-254.932"/>
</g>
<!-- ConsentLog -->
<g id="node19" class="node"><title>ConsentLog</title>
<ellipse fill="none" stroke="black" cx="627" cy="-234" rx="53.8905" ry="18"/>
<text text-anchor="middle" x="627" y="-230.3" font-family="Times,serif" font-size="14.00">ConsentLog</text>
</g>
<!-- ConsentForm&#45;&gt;ConsentLog -->
<g id="edge8" class="edge"><title>ConsentForm&#45;&gt;ConsentLog</title>
<path fill="none" stroke="#f4a0bb" d="M632.739,-279.64C632.004,-273.92 631.221,-267.828 630.477,-262.042"/>
<ellipse fill="none" stroke="#f4a0bb" cx="633.265" cy="-283.729" rx="4.00001" ry="4.00001"/>
<polygon fill="#f4a0bb" stroke="#f4a0bb" points="630.474,-262.023 633.662,-251.53 629.837,-257.064 629.199,-252.104 629.199,-252.104 629.199,-252.104 629.837,-257.064 624.736,-252.678 630.474,-262.023 630.474,-262.023"/>
</g>
<!-- User&#45;&gt;Installment -->
<g id="edge12" class="edge"><title>User&#45;&gt;Installment</title>
<path fill="none" stroke="#4dcf25" d="M461.216,-282.543C488.519,-242.247 545.63,-157.959 574.106,-115.934"/>
<ellipse fill="none" stroke="#4dcf25" cx="458.906" cy="-285.953" rx="4.00002" ry="4.00002"/>
<polygon fill="#4dcf25" stroke="#4dcf25" points="574.117,-115.917 583.452,-110.163 576.922,-111.778 579.726,-107.638 579.726,-107.638 579.726,-107.638 576.922,-111.778 576.001,-105.114 574.117,-115.917 574.117,-115.917"/>
</g>
<!-- Group -->
<g id="node12" class="node"><title>Group</title>
<ellipse fill="none" stroke="black" cx="446" cy="-162" rx="33.2948" ry="18"/>
<text text-anchor="middle" x="446" y="-158.3" font-family="Times,serif" font-size="14.00">Group</text>
</g>
<!-- User&#45;&gt;Group -->
<g id="edge9" class="edge"><title>User&#45;&gt;Group</title>
<path fill="none" stroke="#6e7464" d="M446,-277.679C446,-252.599 446,-215.627 446,-190.493"/>
<polygon fill="#6e7464" stroke="#6e7464" points="446,-277.871 441.5,-287.871 446,-282.871 446,-287.871 446,-287.871 446,-287.871 446,-282.871 450.5,-287.872 446,-277.871 446,-277.871"/>
<polygon fill="#6e7464" stroke="#6e7464" points="446,-190.189 450.5,-180.189 446,-185.189 446,-180.189 446,-180.189 446,-180.189 446,-185.189 441.5,-180.189 446,-190.189 446,-190.189"/>
</g>
<!-- User&#45;&gt;Project -->
<g id="edge11" class="edge"><title>User&#45;&gt;Project</title>
<path fill="none" stroke="#2d03b9" d="M476.161,-290.05C478.115,-289.302 480.072,-288.61 482,-288 571.453,-259.712 599.488,-276.689 690,-252 692.795,-251.238 695.658,-250.37 698.521,-249.439"/>
<polygon fill="#2d03b9" stroke="#2d03b9" points="475.759,-290.22 464.795,-289.989 471.157,-292.175 466.555,-294.13 466.555,-294.13 466.555,-294.13 471.157,-292.175 468.315,-298.272 475.759,-290.22 475.759,-290.22"/>
<polygon fill="#2d03b9" stroke="#2d03b9" points="698.701,-249.376 709.624,-250.344 703.424,-247.735 708.147,-246.094 708.147,-246.094 708.147,-246.094 703.424,-247.735 706.67,-241.843 698.701,-249.376 698.701,-249.376"/>
</g>
<!-- User&#45;&gt;ConsentLog -->
<g id="edge10" class="edge"><title>User&#45;&gt;ConsentLog</title>
<path fill="none" stroke="#a5ac18" d="M474.584,-291.216C477.079,-290.099 479.577,-289.013 482,-288 514.519,-274.412 551.888,-260.799 580.545,-250.772"/>
<ellipse fill="none" stroke="#a5ac18" cx="470.813" cy="-292.943" rx="4.00002" ry="4.00002"/>
<polygon fill="#a5ac18" stroke="#a5ac18" points="580.851,-250.666 591.774,-251.632 585.573,-249.024 590.296,-247.381 590.296,-247.381 590.296,-247.381 585.573,-249.024 588.817,-243.131 580.851,-250.666 580.851,-250.666"/>
</g>
<!-- Assessment -->
<g id="node22" class="node"><title>Assessment</title>
<ellipse fill="none" stroke="black" cx="644" cy="-162" rx="52.7911" ry="18"/>
<text text-anchor="middle" x="644" y="-158.3" font-family="Times,serif" font-size="14.00">Assessment</text>
</g>
<!-- User&#45;&gt;Assessment -->
<g id="edge13" class="edge"><title>User&#45;&gt;Assessment</title>
<path fill="none" stroke="#a7f18e" d="M472.976,-286.73C487.426,-276.746 505.411,-264.001 521,-252 540.75,-236.795 544.024,-230.906 564,-216 579.038,-204.778 596.329,-193.172 610.979,-183.692"/>
<polygon fill="#a7f18e" stroke="#a7f18e" points="472.732,-286.897 461.941,-288.849 468.611,-289.728 464.489,-292.558 464.489,-292.558 464.489,-292.558 468.611,-289.728 467.036,-296.268 472.732,-286.897 472.732,-286.897"/>
<polygon fill="#a7f18e" stroke="#a7f18e" points="611.299,-183.487 622.146,-181.874 615.507,-180.787 619.715,-178.087 619.715,-178.087 619.715,-178.087 615.507,-180.787 617.285,-174.299 611.299,-183.487 611.299,-183.487"/>
</g>
<!-- Roster -->
<g id="node10" class="node"><title>Roster</title>
<ellipse fill="none" stroke="black" cx="525" cy="-306" rx="33.5952" ry="18"/>
<text text-anchor="middle" x="525" y="-302.3" font-family="Times,serif" font-size="14.00">Roster</text>
</g>
<!-- School -->
<g id="node11" class="node"><title>School</title>
<ellipse fill="none" stroke="black" cx="824" cy="-399" rx="35.194" ry="18"/>
<text text-anchor="middle" x="824" y="-395.3" font-family="Times,serif" font-size="14.00">School</text>
</g>
<!-- School&#45;&gt;Course -->
<g id="edge14" class="edge"><title>School&#45;&gt;Course</title>
<path fill="none" stroke="#776d60" d="M824,-372.729C824,-360.725 824,-346.362 824,-334.129"/>
<ellipse fill="none" stroke="#776d60" cx="824" cy="-376.884" rx="4" ry="4"/>
<polygon fill="#776d60" stroke="#776d60" points="824,-334.04 828.5,-324.04 824,-329.04 824,-324.04 824,-324.04 824,-324.04 824,-329.04 819.5,-324.04 824,-334.04 824,-334.04"/>
</g>
<!-- Report -->
<g id="node25" class="node"><title>Report</title>
<ellipse fill="none" stroke="black" cx="446" cy="-90" rx="34.394" ry="18"/>
<text text-anchor="middle" x="446" y="-86.3" font-family="Times,serif" font-size="14.00">Report</text>
</g>
<!-- Group&#45;&gt;Report -->
<g id="edge15" class="edge"><title>Group&#45;&gt;Report</title>
<path fill="none" stroke="#b67fb2" d="M446,-135.64C446,-130.063 446,-124.132 446,-118.476"/>
<ellipse fill="none" stroke="#b67fb2" cx="446" cy="-139.697" rx="4" ry="4"/>
<polygon fill="#b67fb2" stroke="#b67fb2" points="446,-118.104 450.5,-108.104 446,-113.104 446,-108.104 446,-108.104 446,-108.104 446,-113.104 441.5,-108.104 446,-118.104 446,-118.104"/>
</g>
<!-- Project&#45;&gt;Group -->
<g id="edge16" class="edge"><title>Project&#45;&gt;Group</title>
<path fill="none" stroke="#3e2715" d="M700.48,-219.374C696.964,-218.163 693.426,-217.013 690,-216 619.756,-195.226 535.933,-178.785 487.064,-170.007"/>
<ellipse fill="none" stroke="#3e2715" cx="704.326" cy="-220.75" rx="4.00001" ry="4.00001"/>
<polygon fill="#3e2715" stroke="#3e2715" points="487.029,-170.001 477.97,-163.821 482.106,-169.127 477.183,-168.252 477.183,-168.252 477.183,-168.252 482.106,-169.127 476.396,-172.683 487.029,-170.001 487.029,-170.001"/>
</g>
<!-- Project&#45;&gt;Factor -->
<g id="edge18" class="edge"><title>Project&#45;&gt;Factor</title>
<path fill="none" stroke="#b1944c" d="M735,-205.679C735,-180.599 735,-143.627 735,-118.493"/>
<polygon fill="#b1944c" stroke="#b1944c" points="735,-205.871 730.5,-215.871 735,-210.871 735,-215.871 735,-215.871 735,-215.871 735,-210.871 739.5,-215.872 735,-205.871 735,-205.871"/>
<polygon fill="#b1944c" stroke="#b1944c" points="735,-118.189 739.5,-108.189 735,-113.189 735,-108.189 735,-108.189 735,-108.189 735,-113.189 730.5,-108.189 735,-118.189 735,-118.189"/>
</g>
<!-- Project&#45;&gt;Assessment -->
<g id="edge17" class="edge"><title>Project&#45;&gt;Assessment</title>
<path fill="none" stroke="#bfb8a7" d="M709.45,-213.346C697.994,-204.534 684.435,-194.104 672.637,-185.029"/>
<ellipse fill="none" stroke="#bfb8a7" cx="712.974" cy="-216.057" rx="4.00002" ry="4.00002"/>
<polygon fill="#bfb8a7" stroke="#bfb8a7" points="672.34,-184.8 667.157,-175.136 668.376,-181.751 664.413,-178.703 664.413,-178.703 664.413,-178.703 668.376,-181.751 661.67,-182.269 672.34,-184.8 672.34,-184.8"/>
</g>
<!-- Gender -->
<g id="node14" class="node"><title>Gender</title>
<ellipse fill="none" stroke="black" cx="445" cy="-399" rx="36.2938" ry="18"/>
<text text-anchor="middle" x="445" y="-395.3" font-family="Times,serif" font-size="14.00">Gender</text>
</g>
<!-- Gender&#45;&gt;User -->
<g id="edge19" class="edge"><title>Gender&#45;&gt;User</title>
<path fill="none" stroke="#a8a39e" d="M445.278,-372.729C445.41,-360.725 445.567,-346.362 445.702,-334.129"/>
<ellipse fill="none" stroke="#a8a39e" cx="445.232" cy="-376.884" rx="4" ry="4"/>
<polygon fill="#a8a39e" stroke="#a8a39e" points="445.703,-334.039 450.312,-324.089 445.758,-329.039 445.813,-324.04 445.813,-324.04 445.813,-324.04 445.758,-329.039 441.313,-323.99 445.703,-334.039 445.703,-334.039"/>
</g>
<!-- AgeRange -->
<g id="node15" class="node"><title>AgeRange</title>
<ellipse fill="none" stroke="black" cx="1029" cy="-399" rx="48.1917" ry="18"/>
<text text-anchor="middle" x="1029" y="-395.3" font-family="Times,serif" font-size="14.00">AgeRange</text>
</g>
<!-- Week -->
<g id="node17" class="node"><title>Week</title>
<ellipse fill="none" stroke="black" cx="1127" cy="-399" rx="31.6951" ry="18"/>
<text text-anchor="middle" x="1127" y="-395.3" font-family="Times,serif" font-size="14.00">Week</text>
</g>
<!-- Narrative -->
<g id="node18" class="node"><title>Narrative</title>
<ellipse fill="none" stroke="black" cx="1221" cy="-399" rx="44.393" ry="18"/>
<text text-anchor="middle" x="1221" y="-395.3" font-family="Times,serif" font-size="14.00">Narrative</text>
</g>
<!-- Scenario -->
<g id="node21" class="node"><title>Scenario</title>
<ellipse fill="none" stroke="black" cx="1325" cy="-399" rx="41.6928" ry="18"/>
<text text-anchor="middle" x="1325" y="-395.3" font-family="Times,serif" font-size="14.00">Scenario</text>
</g>
<!-- Assessment&#45;&gt;Installment -->
<g id="edge20" class="edge"><title>Assessment&#45;&gt;Installment</title>
<path fill="none" stroke="#2f211c" d="M626.444,-137.812C621.04,-130.675 615.074,-122.796 609.603,-115.57"/>
<ellipse fill="none" stroke="#2f211c" cx="629.025" cy="-141.222" rx="4.00002" ry="4.00002"/>
<polygon fill="#2f211c" stroke="#2f211c" points="609.507,-115.443 607.058,-104.754 606.488,-111.456 603.47,-107.47 603.47,-107.47 603.47,-107.47 606.488,-111.456 599.882,-110.186 609.507,-115.443 609.507,-115.443"/>
</g>
<!-- Assessment&#45;&gt;Factor -->
<g id="edge21" class="edge"><title>Assessment&#45;&gt;Factor</title>
<path fill="none" stroke="#771846" d="M672.744,-138.889C684.174,-130.097 697.244,-120.043 708.448,-111.425"/>
<polygon fill="#771846" stroke="#771846" points="672.576,-139.019 661.906,-141.549 668.612,-142.067 664.649,-145.116 664.649,-145.116 664.649,-145.116 668.612,-142.067 667.393,-148.683 672.576,-139.019 672.576,-139.019"/>
<polygon fill="#771846" stroke="#771846" points="708.667,-111.256 719.337,-108.726 712.63,-108.208 716.593,-105.159 716.593,-105.159 716.593,-105.159 712.63,-108.208 713.85,-101.592 708.667,-111.256 708.667,-111.256"/>
</g>
<!-- Cip -->
<g id="node23" class="node"><title>Cip</title>
<ellipse fill="none" stroke="black" cx="1412" cy="-399" rx="27" ry="18"/>
<text text-anchor="middle" x="1412" y="-395.3" font-family="Times,serif" font-size="14.00">Cip</text>
</g>
<!-- Role -->
<g id="node24" class="node"><title>Role</title>
<ellipse fill="none" stroke="black" cx="527" cy="-399" rx="27.0966" ry="18"/>
<text text-anchor="middle" x="527" y="-395.3" font-family="Times,serif" font-size="14.00">Role</text>
</g>
<!-- Role&#45;&gt;User -->
<g id="edge22" class="edge"><title>Role&#45;&gt;User</title>
<path fill="none" stroke="#53787d" d="M507.999,-376.653C495.402,-362.501 478.898,-343.96 466.086,-329.565"/>
<ellipse fill="none" stroke="#53787d" cx="510.965" cy="-379.985" rx="4.00002" ry="4.00002"/>
<polygon fill="#53787d" stroke="#53787d" points="466.044,-329.519 462.757,-319.057 462.72,-325.784 459.395,-322.049 459.395,-322.049 459.395,-322.049 462.72,-325.784 456.034,-325.041 466.044,-329.519 466.044,-329.519"/>
</g>
<!-- Role&#45;&gt;Roster -->
<g id="edge23" class="edge"><title>Role&#45;&gt;Roster</title>
<path fill="none" stroke="#94ae63" d="M526.445,-372.729C526.181,-360.725 525.865,-346.362 525.596,-334.129"/>
<ellipse fill="none" stroke="#94ae63" cx="526.536" cy="-376.885" rx="4" ry="4"/>
<polygon fill="#94ae63" stroke="#94ae63" points="525.594,-334.037 529.873,-323.941 525.484,-329.038 525.374,-324.04 525.374,-324.04 525.374,-324.04 525.484,-329.038 520.876,-324.139 525.594,-334.037 525.594,-334.037"/>
</g>
</g>
</svg>
