<?xml version="1.0" encoding="UTF-8" standalone="no"?>
<!DOCTYPE svg PUBLIC "-//W3C//DTD SVG 1.1//EN"
 "http://www.w3.org/Graphics/SVG/1.1/DTD/svg11.dtd">
<!-- Generated by graphviz version 2.40.1 (20161225.0304)
 -->
<!-- Title: models_diagram Pages: 1 -->
<svg width="1527pt" height="873pt"
 viewBox="0.00 0.00 1526.96 873.00" xmlns="http://www.w3.org/2000/svg" xmlns:xlink="http://www.w3.org/1999/xlink">
<g id="graph0" class="graph" transform="scale(1 1) rotate(0) translate(4 869)">
<title>models_diagram</title>
<polygon fill="transparent" stroke="transparent" points="-4,4 -4,-869 1522.9628,-869 1522.9628,4 -4,4"/>
<!-- _diagram_info -->
<g id="node1" class="node">
<title>_diagram_info</title>
<text text-anchor="start" x="55.4268" y="-850.6" font-family="Times,serif" font-size="13.00" fill="#000000">Models diagram</text>
<text text-anchor="start" x="55.4268" y="-837.6" font-family="Times,serif" font-size="13.00" fill="#000000">Date: Feb 02 2019 &#45; 17:46</text>
<text text-anchor="start" x="55.4268" y="-824.6" font-family="Times,serif" font-size="13.00" fill="#000000">Migration version: 20190113055316</text>
<text text-anchor="start" x="55.4268" y="-811.6" font-family="Times,serif" font-size="13.00" fill="#000000">Generated by RailRoady 1.5.3</text>
<text text-anchor="start" x="55.4268" y="-798.6" font-family="Times,serif" font-size="13.00" fill="#000000">http://railroady.prestonlee.com</text>
</g>
<!-- Roster -->
<g id="node2" class="node">
<title>Roster</title>
<ellipse fill="none" stroke="#000000" cx="150.8765" cy="-306" rx="33.3925" ry="18"/>
<text text-anchor="middle" x="150.8765" y="-301.8" font-family="Times,serif" font-size="14.00" fill="#000000">Roster</text>
</g>
<!-- Reaction -->
<g id="node3" class="node">
<title>Reaction</title>
<ellipse fill="none" stroke="#000000" cx="290.8765" cy="-90" rx="41.5766" ry="18"/>
<text text-anchor="middle" x="290.8765" y="-85.8" font-family="Times,serif" font-size="14.00" fill="#000000">Reaction</text>
</g>
<!-- Diagnosis -->
<g id="node21" class="node">
<title>Diagnosis</title>
<ellipse fill="none" stroke="#000000" cx="328.8765" cy="-18" rx="45.4614" ry="18"/>
<text text-anchor="middle" x="328.8765" y="-13.8" font-family="Times,serif" font-size="14.00" fill="#000000">Diagnosis</text>
</g>
<!-- Reaction&#45;&gt;Diagnosis -->
<g id="edge2" class="edge">
<title>Reaction&#45;&gt;Diagnosis</title>
<path fill="none" stroke="#5a204e" d="M304.0086,-65.1182C307.4242,-58.6465 311.1203,-51.6434 314.5922,-45.0651"/>
<ellipse fill="none" stroke="#5a204e" cx="302.1368" cy="-68.6647" rx="4" ry="4"/>
<polygon fill="#5a204e" stroke="#5a204e" points="314.792,-44.6864 323.4393,-37.943 317.1258,-40.2645 319.4596,-35.8425 319.4596,-35.8425 319.4596,-35.8425 317.1258,-40.2645 315.4799,-33.7421 314.792,-44.6864 314.792,-44.6864"/>
</g>
<!-- Course -->
<g id="node31" class="node">
<title>Course</title>
<ellipse fill="none" stroke="#000000" cx="306.8765" cy="-738" rx="35.3216" ry="18"/>
<text text-anchor="middle" x="306.8765" y="-733.8" font-family="Times,serif" font-size="14.00" fill="#000000">Course</text>
</g>
<!-- Reaction&#45;&gt;Course -->
<g id="edge1" class="edge">
<title>Reaction&#45;&gt;Course</title>
<path fill="none" stroke="#52cabf" d="M279.1155,-115.1638C267.0008,-143.4317 249.8765,-190.9948 249.8765,-234 249.8765,-594 249.8765,-594 249.8765,-594 249.8765,-638.6739 273.8874,-686.0172 290.7414,-713.7463"/>
<ellipse fill="none" stroke="#52cabf" cx="280.7738" cy="-111.3851" rx="4" ry="4"/>
<ellipse fill="#52cabf" stroke="#52cabf" cx="292.9523" cy="-717.2983" rx="4" ry="4"/>
</g>
<!-- Project -->
<g id="node4" class="node">
<title>Project</title>
<ellipse fill="none" stroke="#000000" cx="1254.8765" cy="-666" rx="35.3129" ry="18"/>
<text text-anchor="middle" x="1254.8765" y="-661.8" font-family="Times,serif" font-size="14.00" fill="#000000">Project</text>
</g>
<!-- Factor -->
<g id="node16" class="node">
<title>Factor</title>
<ellipse fill="none" stroke="#000000" cx="722.8765" cy="-522" rx="32.8994" ry="18"/>
<text text-anchor="middle" x="722.8765" y="-517.8" font-family="Times,serif" font-size="14.00" fill="#000000">Factor</text>
</g>
<!-- Project&#45;&gt;Factor -->
<g id="edge8" class="edge">
<title>Project&#45;&gt;Factor</title>
<path fill="none" stroke="#5e2ee3" d="M1210.7829,-659.1854C1156.2902,-650.3351 1060.9526,-633.449 980.8765,-612 885.1635,-586.3625 863.0479,-573.7249 769.8765,-540 766.3847,-538.7361 762.7569,-537.3957 759.1345,-536.0392"/>
<polygon fill="#5e2ee3" stroke="#5e2ee3" points="1210.9218,-659.2076 1220.0804,-665.2384 1215.8584,-660.0015 1220.795,-660.7955 1220.795,-660.7955 1220.795,-660.7955 1215.8584,-660.0015 1221.5095,-656.3526 1210.9218,-659.2076 1210.9218,-659.2076"/>
<polygon fill="#5e2ee3" stroke="#5e2ee3" points="759.0082,-535.9914 751.2485,-528.243 754.3319,-534.2215 749.6556,-532.4517 749.6556,-532.4517 749.6556,-532.4517 754.3319,-534.2215 748.0627,-536.6603 759.0082,-535.9914 759.0082,-535.9914"/>
</g>
<!-- Group -->
<g id="node17" class="node">
<title>Group</title>
<ellipse fill="none" stroke="#000000" cx="1041.8765" cy="-522" rx="32.9081" ry="18"/>
<text text-anchor="middle" x="1041.8765" y="-517.8" font-family="Times,serif" font-size="14.00" fill="#000000">Group</text>
</g>
<!-- Project&#45;&gt;Group -->
<g id="edge3" class="edge">
<title>Project&#45;&gt;Group</title>
<path fill="none" stroke="#6f717b" d="M1226.3859,-646.7388C1185.85,-619.3342 1111.9225,-569.355 1071.0274,-541.7076"/>
<ellipse fill="none" stroke="#6f717b" cx="1229.967" cy="-649.1597" rx="4" ry="4"/>
<polygon fill="#6f717b" stroke="#6f717b" points="1070.8696,-541.601 1065.1055,-532.2722 1066.7273,-538.8006 1062.5851,-536.0002 1062.5851,-536.0002 1062.5851,-536.0002 1066.7273,-538.8006 1060.0648,-539.7282 1070.8696,-541.601 1070.8696,-541.601"/>
</g>
<!-- BingoGame -->
<g id="node32" class="node">
<title>BingoGame</title>
<ellipse fill="none" stroke="#000000" cx="1206.8765" cy="-234" rx="52.6865" ry="18"/>
<text text-anchor="middle" x="1206.8765" y="-229.8" font-family="Times,serif" font-size="14.00" fill="#000000">BingoGame</text>
</g>
<!-- Project&#45;&gt;BingoGame -->
<g id="edge4" class="edge">
<title>Project&#45;&gt;BingoGame</title>
<path fill="none" stroke="#fad29d" d="M1281.301,-645.2674C1310.6279,-619.7162 1353.8765,-573.3333 1353.8765,-522 1353.8765,-522 1353.8765,-522 1353.8765,-378 1353.8765,-336.6022 1356.825,-319.4254 1329.8765,-288 1312.3971,-267.6168 1285.7603,-254.6454 1261.7391,-246.5419"/>
<ellipse fill="none" stroke="#fad29d" cx="1277.9581" cy="-648.1095" rx="4" ry="4"/>
<polygon fill="#fad29d" stroke="#fad29d" points="1261.5258,-246.4746 1253.3452,-239.1719 1256.7579,-244.9688 1251.99,-243.463 1251.99,-243.463 1251.99,-243.463 1256.7579,-244.9688 1250.6348,-247.7541 1261.5258,-246.4746 1261.5258,-246.4746"/>
</g>
<!-- Assessment -->
<g id="node35" class="node">
<title>Assessment</title>
<ellipse fill="none" stroke="#000000" cx="1041.8765" cy="-594" rx="51.7346" ry="18"/>
<text text-anchor="middle" x="1041.8765" y="-589.8" font-family="Times,serif" font-size="14.00" fill="#000000">Assessment</text>
</g>
<!-- Project&#45;&gt;Assessment -->
<g id="edge5" class="edge">
<title>Project&#45;&gt;Assessment</title>
<path fill="none" stroke="#2bf129" d="M1217.2958,-653.2967C1181.5634,-641.2181 1127.6879,-623.0067 1089.0768,-609.955"/>
<ellipse fill="none" stroke="#2bf129" cx="1221.4704" cy="-654.7078" rx="4" ry="4"/>
<polygon fill="#2bf129" stroke="#2bf129" points="1088.5887,-609.7901 1080.5564,-602.3247 1083.852,-608.1889 1079.1153,-606.5878 1079.1153,-606.5878 1079.1153,-606.5878 1083.852,-608.1889 1077.6743,-610.8508 1088.5887,-609.7901 1088.5887,-609.7901"/>
</g>
<!-- Installment -->
<g id="node36" class="node">
<title>Installment</title>
<ellipse fill="none" stroke="#000000" cx="1237.8765" cy="-306" rx="49.7878" ry="18"/>
<text text-anchor="middle" x="1237.8765" y="-301.8" font-family="Times,serif" font-size="14.00" fill="#000000">Installment</text>
</g>
<!-- Project&#45;&gt;Installment -->
<g id="edge6" class="edge">
<title>Project&#45;&gt;Installment</title>
<path fill="none" stroke="#99a4be" d="M1255.4504,-637.4476C1256.2475,-583.2315 1256.6335,-461.7034 1246.8765,-360 1246.0724,-351.6183 1244.747,-342.5706 1243.3573,-334.3217"/>
<polygon fill="#99a4be" stroke="#99a4be" points="1255.4468,-637.6674 1250.7835,-647.5923 1255.3649,-642.6667 1255.2829,-647.6661 1255.2829,-647.6661 1255.2829,-647.6661 1255.3649,-642.6667 1259.7823,-647.7398 1255.4468,-637.6674 1255.4468,-637.6674"/>
<polygon fill="#99a4be" stroke="#99a4be" points="1243.3459,-334.2566 1246.0279,-323.6238 1242.4715,-329.3336 1241.5972,-324.4107 1241.5972,-324.4107 1241.5972,-324.4107 1242.4715,-329.3336 1237.1666,-325.1975 1243.3459,-334.2566 1243.3459,-334.2566"/>
</g>
<!-- User -->
<g id="node38" class="node">
<title>User</title>
<ellipse fill="none" stroke="#000000" cx="627.8765" cy="-378" rx="27" ry="18"/>
<text text-anchor="middle" x="627.8765" y="-373.8" font-family="Times,serif" font-size="14.00" fill="#000000">User</text>
</g>
<!-- Project&#45;&gt;User -->
<g id="edge7" class="edge">
<title>Project&#45;&gt;User</title>
<path fill="none" stroke="#932717" d="M1209.3979,-663.284C1135.6239,-658.0918 985.7383,-644.2636 862.8765,-612 778.7405,-589.9058 754.3795,-586.5223 680.8765,-540 641.2874,-514.9428 622.5296,-510.9793 603.8765,-468 594.8305,-447.1568 602.9444,-422.0814 612.1065,-403.6985"/>
<polygon fill="#932717" stroke="#932717" points="1209.7413,-663.3073 1219.4115,-668.4781 1214.7297,-663.648 1219.7181,-663.9886 1219.7181,-663.9886 1219.7181,-663.9886 1214.7297,-663.648 1220.0246,-659.499 1209.7413,-663.3073 1209.7413,-663.3073"/>
<polygon fill="#932717" stroke="#932717" points="612.1785,-403.5643 620.8728,-396.8816 614.5432,-399.1588 616.9079,-394.7534 616.9079,-394.7534 616.9079,-394.7534 614.5432,-399.1588 612.9429,-392.6251 612.1785,-403.5643 612.1785,-403.5643"/>
</g>
<!-- CipCode -->
<g id="node5" class="node">
<title>CipCode</title>
<ellipse fill="none" stroke="#000000" cx="833.8765" cy="-450" rx="41.6025" ry="18"/>
<text text-anchor="middle" x="833.8765" y="-445.8" font-family="Times,serif" font-size="14.00" fill="#000000">CipCode</text>
</g>
<!-- CipCode&#45;&gt;User -->
<g id="edge9" class="edge">
<title>CipCode&#45;&gt;User</title>
<path fill="none" stroke="#48690e" d="M793.648,-435.9395C755.1569,-422.4863 697.761,-402.4256 661.6002,-389.7869"/>
<ellipse fill="none" stroke="#48690e" cx="797.4592" cy="-437.2716" rx="4" ry="4"/>
<polygon fill="#48690e" stroke="#48690e" points="661.4375,-389.7301 653.4822,-382.1826 656.7175,-388.0804 651.9975,-386.4306 651.9975,-386.4306 651.9975,-386.4306 656.7175,-388.0804 650.5127,-390.6786 661.4375,-389.7301 661.4375,-389.7301"/>
</g>
<!-- Candidate -->
<g id="node6" class="node">
<title>Candidate</title>
<ellipse fill="none" stroke="#000000" cx="669.8765" cy="-90" rx="45.92" ry="18"/>
<text text-anchor="middle" x="669.8765" y="-85.8" font-family="Times,serif" font-size="14.00" fill="#000000">Candidate</text>
</g>
<!-- Week -->
<g id="node7" class="node">
<title>Week</title>
<ellipse fill="none" stroke="#000000" cx="383.8765" cy="-234" rx="30.0438" ry="18"/>
<text text-anchor="middle" x="383.8765" y="-229.8" font-family="Times,serif" font-size="14.00" fill="#000000">Week</text>
</g>
<!-- Week&#45;&gt;Diagnosis -->
<g id="edge11" class="edge">
<title>Week&#45;&gt;Diagnosis</title>
<path fill="none" stroke="#deba18" d="M377.2462,-207.9608C366.8313,-167.0589 346.7233,-88.0894 336.0072,-46.0043"/>
<ellipse fill="none" stroke="#deba18" cx="378.2948" cy="-212.0792" rx="4" ry="4"/>
<polygon fill="#deba18" stroke="#deba18" points="335.9644,-45.8358 337.8576,-35.0346 334.7306,-40.9905 333.4968,-36.1451 333.4968,-36.1451 333.4968,-36.1451 334.7306,-40.9905 329.1359,-37.2555 335.9644,-45.8358 335.9644,-45.8358"/>
</g>
<!-- Behavior -->
<g id="node33" class="node">
<title>Behavior</title>
<ellipse fill="none" stroke="#000000" cx="434.8765" cy="-162" rx="42.5456" ry="18"/>
<text text-anchor="middle" x="434.8765" y="-157.8" font-family="Times,serif" font-size="14.00" fill="#000000">Behavior</text>
</g>
<!-- Week&#45;&gt;Behavior -->
<g id="edge10" class="edge">
<title>Week&#45;&gt;Behavior</title>
<path fill="none" stroke="#de70e6" d="M400.4436,-210.6112C405.9089,-202.8954 412.0009,-194.2949 417.5234,-186.4986"/>
<ellipse fill="none" stroke="#de70e6" cx="398.0172" cy="-214.0367" rx="4" ry="4"/>
<ellipse fill="#de70e6" stroke="#de70e6" cx="420.0884" cy="-182.8773" rx="4" ry="4"/>
</g>
<!-- Value -->
<g id="node8" class="node">
<title>Value</title>
<ellipse fill="none" stroke="#000000" cx="1105.8765" cy="-234" rx="30.4862" ry="18"/>
<text text-anchor="middle" x="1105.8765" y="-229.8" font-family="Times,serif" font-size="14.00" fill="#000000">Value</text>
</g>
<!-- HomeState -->
<g id="node9" class="node">
<title>HomeState</title>
<ellipse fill="none" stroke="#000000" cx="920.8765" cy="-234" rx="49.3032" ry="18"/>
<text text-anchor="middle" x="920.8765" y="-229.8" font-family="Times,serif" font-size="14.00" fill="#000000">HomeState</text>
</g>
<!-- HomeState&#45;&gt;User -->
<g id="edge12" class="edge">
<title>HomeState&#45;&gt;User</title>
<path fill="none" stroke="#1bc999" d="M892.7825,-255.2654C879.9168,-265.1077 864.5275,-277.0274 850.8765,-288 831.4497,-303.6151 829.8184,-312.1767 807.8765,-324 761.4081,-349.0393 701.781,-363.9976 664.1874,-371.6161"/>
<ellipse fill="none" stroke="#1bc999" cx="896.078" cy="-252.7505" rx="4" ry="4"/>
<polygon fill="#1bc999" stroke="#1bc999" points="664.0112,-371.6506 653.3327,-369.1565 659.1044,-372.6116 654.1976,-373.5726 654.1976,-373.5726 654.1976,-373.5726 659.1044,-372.6116 655.0625,-377.9887 664.0112,-371.6506 664.0112,-371.6506"/>
</g>
<!-- Concept -->
<g id="node10" class="node">
<title>Concept</title>
<ellipse fill="none" stroke="#000000" cx="725.8765" cy="-306" rx="39.6558" ry="18"/>
<text text-anchor="middle" x="725.8765" y="-301.8" font-family="Times,serif" font-size="14.00" fill="#000000">Concept</text>
</g>
<!-- Concept&#45;&gt;Candidate -->
<g id="edge13" class="edge">
<title>Concept&#45;&gt;Candidate</title>
<path fill="none" stroke="#6531f5" d="M696.0354,-286.6468C665.54,-264.8993 620.0234,-226.4865 600.8765,-180 594.783,-165.2058 593.8685,-158.3836 600.8765,-144 607.6974,-130.0004 620.0976,-118.562 632.5238,-109.8751"/>
<ellipse fill="none" stroke="#6531f5" cx="699.4006" cy="-288.9994" rx="4" ry="4"/>
<polygon fill="#6531f5" stroke="#6531f5" points="632.6879,-109.7681 643.5218,-108.0717 636.8752,-107.0356 641.0625,-104.3031 641.0625,-104.3031 641.0625,-104.3031 636.8752,-107.0356 638.6033,-100.5345 632.6879,-109.7681 632.6879,-109.7681"/>
</g>
<!-- CandidateList -->
<g id="node24" class="node">
<title>CandidateList</title>
<ellipse fill="none" stroke="#000000" cx="669.8765" cy="-162" rx="59.9357" ry="18"/>
<text text-anchor="middle" x="669.8765" y="-157.8" font-family="Times,serif" font-size="14.00" fill="#000000">CandidateList</text>
</g>
<!-- Concept&#45;&gt;CandidateList -->
<g id="edge14" class="edge">
<title>Concept&#45;&gt;CandidateList</title>
<path fill="none" stroke="#929c62" d="M715.2007,-278.5479C705.2793,-253.0358 690.5775,-215.2312 680.631,-189.6544"/>
<polygon fill="#929c62" stroke="#929c62" points="715.2728,-278.7334 714.7033,-289.6845 717.085,-283.3934 718.8973,-288.0535 718.8973,-288.0535 718.8973,-288.0535 717.085,-283.3934 723.0913,-286.4224 715.2728,-278.7334 715.2728,-278.7334"/>
<polygon fill="#929c62" stroke="#929c62" points="680.5682,-189.4928 681.1377,-178.5417 678.7559,-184.8327 676.9437,-180.1727 676.9437,-180.1727 676.9437,-180.1727 678.7559,-184.8327 672.7497,-181.8037 680.5682,-189.4928 680.5682,-189.4928"/>
</g>
<!-- Concept&#45;&gt;Course -->
<g id="edge16" class="edge">
<title>Concept&#45;&gt;Course</title>
<path fill="none" stroke="#ba1857" d="M729.3342,-334.3146C732.0762,-368.5645 731.9913,-426.7501 706.8765,-468 661.8418,-541.9673 428.7205,-672.5301 340.6337,-720.0578"/>
<polygon fill="#ba1857" stroke="#ba1857" points="729.3088,-334.0434 732.853,-323.6661 728.8408,-329.0653 728.3728,-324.0873 728.3728,-324.0873 728.3728,-324.0873 728.8408,-329.0653 723.8926,-324.5085 729.3088,-334.0434 729.3088,-334.0434"/>
<polygon fill="#ba1857" stroke="#ba1857" points="340.4062,-720.1801 329.4675,-720.9523 336.0024,-722.5479 331.5986,-724.9157 331.5986,-724.9157 331.5986,-724.9157 336.0024,-722.5479 333.7296,-728.8791 340.4062,-720.1801 340.4062,-720.1801"/>
</g>
<!-- Concept&#45;&gt;BingoGame -->
<g id="edge15" class="edge">
<title>Concept&#45;&gt;BingoGame</title>
<path fill="none" stroke="#c429ba" d="M773.5681,-298.8906C796.8645,-295.4795 825.3187,-291.4045 850.8765,-288 981.3665,-270.6175 1015.9158,-278.437 1144.8765,-252 1149.2565,-251.1021 1153.7769,-250.047 1158.2876,-248.9054"/>
<polygon fill="#c429ba" stroke="#c429ba" points="773.4844,-298.9028 762.9363,-295.9048 768.5376,-299.6299 763.5907,-300.357 763.5907,-300.357 763.5907,-300.357 768.5376,-299.6299 764.2451,-304.8091 773.4844,-298.9028 773.4844,-298.9028"/>
<polygon fill="#c429ba" stroke="#c429ba" points="1158.4252,-248.8689 1169.2464,-250.6443 1163.2568,-247.5823 1168.0885,-246.2958 1168.0885,-246.2958 1168.0885,-246.2958 1163.2568,-247.5823 1166.9306,-241.9473 1158.4252,-248.8689 1158.4252,-248.8689"/>
</g>
<!-- Scenario -->
<g id="node11" class="node">
<title>Scenario</title>
<ellipse fill="none" stroke="#000000" cx="504.8765" cy="-90" rx="41.092" ry="18"/>
<text text-anchor="middle" x="504.8765" y="-85.8" font-family="Times,serif" font-size="14.00" fill="#000000">Scenario</text>
</g>
<!-- Narrative -->
<g id="node20" class="node">
<title>Narrative</title>
<ellipse fill="none" stroke="#000000" cx="430.8765" cy="-306" rx="43.4887" ry="18"/>
<text text-anchor="middle" x="430.8765" y="-301.8" font-family="Times,serif" font-size="14.00" fill="#000000">Narrative</text>
</g>
<!-- Scenario&#45;&gt;Narrative -->
<g id="edge17" class="edge">
<title>Scenario&#45;&gt;Narrative</title>
<path fill="none" stroke="#ab689f" d="M501.1436,-116.5777C498.2147,-134.7058 493.5146,-159.1199 486.8765,-180 475.6718,-215.2444 457.596,-253.8384 445.0229,-278.9032"/>
<ellipse fill="none" stroke="#ab689f" cx="501.8263" cy="-112.179" rx="4" ry="4"/>
<polygon fill="#ab689f" stroke="#ab689f" points="444.8648,-279.2145 436.3238,-286.0921 442.6003,-283.6723 440.3358,-288.1302 440.3358,-288.1302 440.3358,-288.1302 442.6003,-283.6723 444.3478,-290.1682 444.8648,-279.2145 444.8648,-279.2145"/>
</g>
<!-- Language -->
<g id="node12" class="node">
<title>Language</title>
<ellipse fill="none" stroke="#000000" cx="486.8765" cy="-450" rx="44.9423" ry="18"/>
<text text-anchor="middle" x="486.8765" y="-445.8" font-family="Times,serif" font-size="14.00" fill="#000000">Language</text>
</g>
<!-- Language&#45;&gt;User -->
<g id="edge18" class="edge">
<title>Language&#45;&gt;User</title>
<path fill="none" stroke="#4a9993" d="M523.9647,-431.0614C546.7317,-419.4356 575.546,-404.7219 597.0543,-393.739"/>
<polygon fill="#4a9993" stroke="#4a9993" points="523.6396,-431.2273 512.6871,-431.7674 519.1866,-433.5012 514.7336,-435.7751 514.7336,-435.7751 514.7336,-435.7751 519.1866,-433.5012 516.7801,-439.7828 523.6396,-431.2273 523.6396,-431.2273"/>
<polygon fill="#4a9993" stroke="#4a9993" points="597.1735,-393.6782 608.1261,-393.1381 601.6265,-391.4043 606.0796,-389.1303 606.0796,-389.1303 606.0796,-389.1303 601.6265,-391.4043 604.0331,-385.1226 597.1735,-393.6782 597.1735,-393.6782"/>
</g>
<!-- Email -->
<g id="node13" class="node">
<title>Email</title>
<ellipse fill="none" stroke="#000000" cx="598.8765" cy="-306" rx="31.4549" ry="18"/>
<text text-anchor="middle" x="598.8765" y="-301.8" font-family="Times,serif" font-size="14.00" fill="#000000">Email</text>
</g>
<!-- ConsentForm -->
<g id="node14" class="node">
<title>ConsentForm</title>
<ellipse fill="none" stroke="#000000" cx="1429.8765" cy="-738" rx="58.0169" ry="18"/>
<text text-anchor="middle" x="1429.8765" y="-733.8" font-family="Times,serif" font-size="14.00" fill="#000000">ConsentForm</text>
</g>
<!-- ConsentForm&#45;&gt;Project -->
<g id="edge20" class="edge">
<title>ConsentForm&#45;&gt;Project</title>
<path fill="none" stroke="#af2537" d="M1387.2609,-720.4667C1358.0372,-708.4433 1319.6535,-692.6511 1291.7457,-681.1691"/>
<ellipse fill="none" stroke="#af2537" cx="1391.1841" cy="-722.0808" rx="4" ry="4"/>
<polygon fill="#af2537" stroke="#af2537" points="1291.5914,-681.1056 1284.0557,-673.1392 1286.9675,-679.2032 1282.3435,-677.3007 1282.3435,-677.3007 1282.3435,-677.3007 1286.9675,-679.2032 1280.6313,-681.4623 1291.5914,-681.1056 1291.5914,-681.1056"/>
</g>
<!-- ConsentLog -->
<g id="node15" class="node">
<title>ConsentLog</title>
<ellipse fill="none" stroke="#000000" cx="1434.8765" cy="-306" rx="53.1797" ry="18"/>
<text text-anchor="middle" x="1434.8765" y="-301.8" font-family="Times,serif" font-size="14.00" fill="#000000">ConsentLog</text>
</g>
<!-- ConsentForm&#45;&gt;ConsentLog -->
<g id="edge19" class="edge">
<title>ConsentForm&#45;&gt;ConsentLog</title>
<path fill="none" stroke="#9ac1fc" d="M1429.8765,-711.4761C1429.8765,-682.5845 1429.8765,-635.0078 1429.8765,-594 1429.8765,-594 1429.8765,-594 1429.8765,-450 1429.8765,-409.8518 1431.8418,-363.4451 1433.3081,-334.4076"/>
<ellipse fill="none" stroke="#9ac1fc" cx="1429.8766" cy="-715.8146" rx="4" ry="4"/>
<polygon fill="#9ac1fc" stroke="#9ac1fc" points="1433.3206,-334.1648 1438.3344,-324.4123 1433.5806,-329.1716 1433.8405,-324.1784 1433.8405,-324.1784 1433.8405,-324.1784 1433.5806,-329.1716 1429.3466,-323.9444 1433.3206,-334.1648 1433.3206,-334.1648"/>
</g>
<!-- ConsentLog&#45;&gt;Project -->
<g id="edge21" class="edge">
<title>ConsentLog&#45;&gt;Project</title>
<path fill="none" stroke="#2ae59b" d="M1421.5104,-333.4108C1408.8873,-361.8592 1391.8765,-407.9897 1391.8765,-450 1391.8765,-522 1391.8765,-522 1391.8765,-522 1391.8765,-563.3978 1394.3171,-580.1461 1367.8765,-612 1349.7513,-633.836 1320.7356,-647.4428 1296.6454,-655.5356"/>
<polygon fill="#2ae59b" stroke="#2ae59b" points="1421.5994,-333.216 1429.8499,-325.9924 1423.6784,-328.6687 1425.7573,-324.1214 1425.7573,-324.1214 1425.7573,-324.1214 1423.6784,-328.6687 1421.6647,-322.2503 1421.5994,-333.216 1421.5994,-333.216"/>
<polygon fill="#2ae59b" stroke="#2ae59b" points="1296.5471,-655.5665 1285.6567,-654.282 1291.7785,-657.0701 1287.01,-658.5737 1287.01,-658.5737 1287.01,-658.5737 1291.7785,-657.0701 1288.3632,-662.8654 1296.5471,-655.5665 1296.5471,-655.5665"/>
</g>
<!-- Group&#45;&gt;CipCode -->
<g id="edge28" class="edge">
<title>Group&#45;&gt;CipCode</title>
<path fill="none" stroke="#3eec93" d="M1004.3339,-509.0045C968.2724,-496.5216 913.8658,-477.6886 876.2636,-464.6725"/>
<polygon fill="#3eec93" stroke="#3eec93" points="1004.3748,-509.0186 1012.3527,-516.5422 1009.0998,-510.6542 1013.8247,-512.2898 1013.8247,-512.2898 1013.8247,-512.2898 1009.0998,-510.6542 1015.2967,-508.0373 1004.3748,-509.0186 1004.3748,-509.0186"/>
<polygon fill="#3eec93" stroke="#3eec93" points="876.0606,-464.6022 868.0827,-457.0786 871.3356,-462.9666 866.6107,-461.3311 866.6107,-461.3311 866.6107,-461.3311 871.3356,-462.9666 865.1387,-465.5835 876.0606,-464.6022 876.0606,-464.6022"/>
</g>
<!-- Group&#45;&gt;HomeState -->
<g id="edge26" class="edge">
<title>Group&#45;&gt;HomeState</title>
<path fill="none" stroke="#45482b" d="M1066.0204,-498.7602C1073.5658,-489.9271 1080.941,-479.2601 1084.8765,-468 1090.1555,-452.896 1089.2101,-447.402 1084.8765,-432 1064.1758,-358.4278 1043.5497,-343.3798 990.8765,-288 979.7036,-276.2529 965.8339,-265.0067 953.3949,-255.8478"/>
<polygon fill="#45482b" stroke="#45482b" points="1065.8691,-498.9265 1055.8094,-503.2916 1062.503,-502.6238 1059.137,-506.321 1059.137,-506.321 1059.137,-506.321 1062.503,-502.6238 1062.4645,-509.3505 1065.8691,-498.9265 1065.8691,-498.9265"/>
<polygon fill="#45482b" stroke="#45482b" points="953.1832,-255.6957 947.6886,-246.2057 949.1229,-252.7779 945.0625,-249.86 945.0625,-249.86 945.0625,-249.86 949.1229,-252.7779 942.4365,-253.5143 953.1832,-255.6957 953.1832,-255.6957"/>
</g>
<!-- HomeCountry -->
<g id="node22" class="node">
<title>HomeCountry</title>
<ellipse fill="none" stroke="#000000" cx="920.8765" cy="-306" rx="60.9133" ry="18"/>
<text text-anchor="middle" x="920.8765" y="-301.8" font-family="Times,serif" font-size="14.00" fill="#000000">HomeCountry</text>
</g>
<!-- Group&#45;&gt;HomeCountry -->
<g id="edge27" class="edge">
<title>Group&#45;&gt;HomeCountry</title>
<path fill="none" stroke="#5aa304" d="M1059.1337,-496.5327C1069.3325,-478.117 1078.5332,-452.9034 1068.8765,-432 1046.7631,-384.1319 996.5052,-347.7561 960.6992,-326.6773"/>
<polygon fill="#5aa304" stroke="#5aa304" points="1059.0734,-496.6341 1050.0965,-502.9322 1056.5192,-500.9325 1053.9651,-505.231 1053.9651,-505.231 1053.9651,-505.231 1056.5192,-500.9325 1057.8336,-507.5297 1059.0734,-496.6341 1059.0734,-496.6341"/>
<polygon fill="#5aa304" stroke="#5aa304" points="960.608,-326.625 954.172,-317.7465 956.2707,-324.1376 951.9333,-321.6501 951.9333,-321.6501 951.9333,-321.6501 956.2707,-324.1376 949.6946,-325.5538 960.608,-326.625 960.608,-326.625"/>
</g>
<!-- Group&#45;&gt;CandidateList -->
<g id="edge24" class="edge">
<title>Group&#45;&gt;CandidateList</title>
<path fill="none" stroke="#b5fec8" d="M1002.2072,-515.455C974.8016,-508.6429 940.2685,-494.9911 922.8765,-468 891.536,-419.3618 978.9621,-365.2843 990.8765,-324 1004.2678,-277.5983 1013.303,-249.8713 978.8765,-216 940.4335,-178.177 791.7096,-190.8218 738.8765,-180 733.9248,-178.9857 728.7974,-177.8371 723.6765,-176.6229"/>
<ellipse fill="none" stroke="#b5fec8" cx="1006.1942" cy="-516.3771" rx="4" ry="4"/>
<polygon fill="#b5fec8" stroke="#b5fec8" points="723.5973,-176.6036 714.9547,-169.854 718.7408,-175.4142 713.8843,-174.2249 713.8843,-174.2249 713.8843,-174.2249 718.7408,-175.4142 712.8139,-178.5957 723.5973,-176.6036 723.5973,-176.6036"/>
</g>
<!-- GroupRevision -->
<g id="node26" class="node">
<title>GroupRevision</title>
<ellipse fill="none" stroke="#000000" cx="995.8765" cy="-450" rx="64.296" ry="18"/>
<text text-anchor="middle" x="995.8765" y="-445.8" font-family="Times,serif" font-size="14.00" fill="#000000">GroupRevision</text>
</g>
<!-- Group&#45;&gt;GroupRevision -->
<g id="edge23" class="edge">
<title>Group&#45;&gt;GroupRevision</title>
<path fill="none" stroke="#f1ba3c" d="M1026.5871,-498.0687C1022.1715,-491.1573 1017.3271,-483.5749 1012.8174,-476.5162"/>
<ellipse fill="none" stroke="#f1ba3c" cx="1028.8216" cy="-501.5662" rx="4" ry="4"/>
<polygon fill="#f1ba3c" stroke="#f1ba3c" points="1012.7255,-476.3722 1011.1337,-465.5225 1010.0335,-472.1587 1007.3415,-467.9453 1007.3415,-467.9453 1007.3415,-467.9453 1010.0335,-472.1587 1003.5494,-470.368 1012.7255,-476.3722 1012.7255,-476.3722"/>
</g>
<!-- Gender -->
<g id="node27" class="node">
<title>Gender</title>
<ellipse fill="none" stroke="#000000" cx="661.8765" cy="-450" rx="36.2645" ry="18"/>
<text text-anchor="middle" x="661.8765" y="-445.8" font-family="Times,serif" font-size="14.00" fill="#000000">Gender</text>
</g>
<!-- Group&#45;&gt;Gender -->
<g id="edge29" class="edge">
<title>Group&#45;&gt;Gender</title>
<path fill="none" stroke="#c3b0f8" d="M1000.7395,-514.6454C944.1669,-504.4734 839.1988,-485.3929 749.8765,-468 735.3424,-465.1699 719.4834,-461.9629 705.2819,-459.0479"/>
<polygon fill="#c3b0f8" stroke="#c3b0f8" points="1000.8824,-514.6709 1009.9295,-520.8677 1005.8037,-515.5548 1010.725,-516.4386 1010.725,-516.4386 1010.725,-516.4386 1005.8037,-515.5548 1011.5204,-512.0095 1000.8824,-514.6709 1000.8824,-514.6709"/>
<polygon fill="#c3b0f8" stroke="#c3b0f8" points="705.0709,-459.0045 696.1847,-452.5791 700.1738,-457.9955 695.2766,-456.9865 695.2766,-456.9865 695.2766,-456.9865 700.1738,-457.9955 694.3685,-461.394 705.0709,-459.0045 705.0709,-459.0045"/>
</g>
<!-- Group&#45;&gt;Installment -->
<g id="edge25" class="edge">
<title>Group&#45;&gt;Installment</title>
<path fill="none" stroke="#b0a0c3" d="M1081.6817,-515.2568C1111.7357,-508.237 1152.0745,-494.4093 1177.8765,-468 1196.9166,-448.5118 1219.1519,-375.0889 1230.4569,-334.1027"/>
<ellipse fill="none" stroke="#b0a0c3" cx="1077.4046" cy="-516.1997" rx="4" ry="4"/>
<polygon fill="#b0a0c3" stroke="#b0a0c3" points="1230.5274,-333.8432 1237.4937,-325.3744 1231.8394,-329.0184 1233.1514,-324.1936 1233.1514,-324.1936 1233.1514,-324.1936 1231.8394,-329.0184 1228.8091,-323.0128 1230.5274,-333.8432 1230.5274,-333.8432"/>
</g>
<!-- Group&#45;&gt;User -->
<g id="edge22" class="edge">
<title>Group&#45;&gt;User</title>
<path fill="none" stroke="#8cfe29" d="M999.1947,-517.3552C946.8655,-510.706 856.111,-496.0524 782.8765,-468 735.0065,-449.6635 684.5599,-417.657 654.6761,-397.1673"/>
<polygon fill="#8cfe29" stroke="#8cfe29" points="999.5197,-517.3951 1008.8948,-523.0835 1004.4822,-518.0062 1009.4447,-518.6172 1009.4447,-518.6172 1009.4447,-518.6172 1004.4822,-518.0062 1009.9947,-514.151 999.5197,-517.3951 999.5197,-517.3951"/>
<polygon fill="#8cfe29" stroke="#8cfe29" points="654.6662,-397.1605 649.0147,-387.7631 650.5579,-394.3105 646.4497,-391.4605 646.4497,-391.4605 646.4497,-391.4605 650.5579,-394.3105 643.8847,-395.1579 654.6662,-397.1605 654.6662,-397.1605"/>
</g>
<!-- FactorPack -->
<g id="node18" class="node">
<title>FactorPack</title>
<ellipse fill="none" stroke="#000000" cx="817.8765" cy="-738" rx="49.7792" ry="18"/>
<text text-anchor="middle" x="817.8765" y="-733.8" font-family="Times,serif" font-size="14.00" fill="#000000">FactorPack</text>
</g>
<!-- FactorPack&#45;&gt;Project -->
<g id="edge31" class="edge">
<title>FactorPack&#45;&gt;Project</title>
<path fill="none" stroke="#8aa362" d="M874.9944,-733.8918C951.3108,-727.5346 1090.3387,-712.9074 1205.8765,-684 1209.7229,-683.0376 1213.6857,-681.8785 1217.6128,-680.6179"/>
<ellipse fill="none" stroke="#8aa362" cx="870.8927" cy="-734.2276" rx="4" ry="4"/>
<polygon fill="#8aa362" stroke="#8aa362" points="1217.7538,-680.5697 1228.6723,-681.5872 1222.4841,-678.9498 1227.2144,-677.3299 1227.2144,-677.3299 1227.2144,-677.3299 1222.4841,-678.9498 1225.7565,-673.0726 1217.7538,-680.5697 1217.7538,-680.5697"/>
</g>
<!-- FactorPack&#45;&gt;Factor -->
<g id="edge30" class="edge">
<title>FactorPack&#45;&gt;Factor</title>
<path fill="none" stroke="#e1170b" d="M806.649,-712.4722C788.5605,-671.3447 753.1345,-590.7971 734.6833,-548.845"/>
<ellipse fill="none" stroke="#e1170b" cx="808.3298" cy="-716.294" rx="4" ry="4"/>
<polygon fill="#e1170b" stroke="#e1170b" points="734.6167,-548.6934 734.7099,-537.7279 732.6037,-544.1165 730.5907,-539.5396 730.5907,-539.5396 730.5907,-539.5396 732.6037,-544.1165 726.4715,-541.3513 734.6167,-548.6934 734.6167,-548.6934"/>
</g>
<!-- Experience -->
<g id="node19" class="node">
<title>Experience</title>
<ellipse fill="none" stroke="#000000" cx="49.8765" cy="-306" rx="49.7533" ry="18"/>
<text text-anchor="middle" x="49.8765" y="-301.8" font-family="Times,serif" font-size="14.00" fill="#000000">Experience</text>
</g>
<!-- Experience&#45;&gt;Reaction -->
<g id="edge32" class="edge">
<title>Experience&#45;&gt;Reaction</title>
<path fill="none" stroke="#66d13f" d="M74.9939,-283.4882C121.0757,-242.1866 218.6579,-154.7271 265.1727,-113.0374"/>
<ellipse fill="none" stroke="#66d13f" cx="71.7661" cy="-286.3811" rx="4" ry="4"/>
<polygon fill="#66d13f" stroke="#66d13f" points="265.2662,-112.9537 275.7164,-109.6304 268.9896,-109.6165 272.713,-106.2794 272.713,-106.2794 272.713,-106.2794 268.9896,-109.6165 269.7095,-102.9283 265.2662,-112.9537 265.2662,-112.9537"/>
</g>
<!-- Narrative&#45;&gt;Reaction -->
<g id="edge35" class="edge">
<title>Narrative&#45;&gt;Reaction</title>
<path fill="none" stroke="#e0da5e" d="M392.5155,-289.2856C375.8565,-280.3431 357.3439,-267.8689 344.8765,-252 328.2385,-230.8227 308.0179,-158.1082 297.6801,-117.6756"/>
<ellipse fill="none" stroke="#e0da5e" cx="396.4545" cy="-291.314" rx="4" ry="4"/>
<polygon fill="#e0da5e" stroke="#e0da5e" points="297.6615,-117.6018 299.5771,-106.8045 296.4377,-112.7539 295.2139,-107.906 295.2139,-107.906 295.2139,-107.906 296.4377,-112.7539 290.8508,-109.0074 297.6615,-117.6018 297.6615,-117.6018"/>
</g>
<!-- Narrative&#45;&gt;Week -->
<g id="edge33" class="edge">
<title>Narrative&#45;&gt;Week</title>
<path fill="none" stroke="#414a99" d="M415.0727,-281.7899C410.3961,-274.6258 405.2624,-266.7614 400.5337,-259.5174"/>
<ellipse fill="none" stroke="#414a99" cx="417.3126" cy="-285.2213" rx="4" ry="4"/>
<polygon fill="#414a99" stroke="#414a99" points="400.2918,-259.1467 398.5937,-248.3131 397.5586,-254.9598 394.8255,-250.7729 394.8255,-250.7729 394.8255,-250.7729 397.5586,-254.9598 391.0573,-253.2327 400.2918,-259.1467 400.2918,-259.1467"/>
</g>
<!-- Narrative&#45;&gt;Behavior -->
<g id="edge34" class="edge">
<title>Narrative&#45;&gt;Behavior</title>
<path fill="none" stroke="#20f6d4" d="M431.6061,-279.7351C432.3269,-253.7873 433.4233,-214.3165 434.1448,-188.3419"/>
<ellipse fill="none" stroke="#20f6d4" cx="431.4942" cy="-283.7638" rx="4" ry="4"/>
<ellipse fill="#20f6d4" stroke="#20f6d4" cx="434.2629" cy="-184.0881" rx="4" ry="4"/>
</g>
<!-- Diagnosis&#45;&gt;User -->
<g id="edge36" class="edge">
<title>Diagnosis&#45;&gt;User</title>
<path fill="none" stroke="#67d46d" d="M286.7742,-33.1616C269.2037,-41.7481 250.4544,-54.3721 239.8765,-72 223.386,-99.4813 236.7657,-111.963 235.8765,-144 235.4326,-159.9938 230.9887,-164.7649 235.8765,-180 259.9145,-254.9252 272.5159,-281.7167 338.8765,-324 380.6733,-350.6318 525.3579,-367.9326 592.7836,-374.7341"/>
<ellipse fill="none" stroke="#67d46d" cx="290.5743" cy="-31.4047" rx="4" ry="4"/>
<ellipse fill="#67d46d" stroke="#67d46d" cx="597.0164" cy="-375.1541" rx="4" ry="4"/>
</g>
<!-- HomeCountry&#45;&gt;HomeState -->
<g id="edge38" class="edge">
<title>HomeCountry&#45;&gt;HomeState</title>
<path fill="none" stroke="#302be0" d="M920.8765,-279.8144C920.8765,-274.2775 920.8765,-268.4053 920.8765,-262.7785"/>
<ellipse fill="none" stroke="#302be0" cx="920.8766" cy="-283.8314" rx="4" ry="4"/>
<polygon fill="#302be0" stroke="#302be0" points="920.8766,-262.4133 925.3765,-252.4132 920.8766,-257.4133 920.8765,-252.4133 920.8765,-252.4133 920.8765,-252.4133 920.8766,-257.4133 916.3765,-252.4133 920.8766,-262.4133 920.8766,-262.4133"/>
</g>
<!-- HomeCountry&#45;&gt;User -->
<g id="edge37" class="edge">
<title>HomeCountry&#45;&gt;User</title>
<path fill="none" stroke="#b7ecca" d="M866.2244,-320.8006C807.0076,-335.8173 714.3875,-358.4789 663.7362,-370.2638"/>
<polygon fill="#b7ecca" stroke="#b7ecca" points="866.4605,-320.7406 877.2613,-322.6357 871.3061,-319.5076 876.1517,-318.2747 876.1517,-318.2747 876.1517,-318.2747 871.3061,-319.5076 875.042,-313.9136 866.4605,-320.7406 866.4605,-320.7406"/>
<polygon fill="#b7ecca" stroke="#b7ecca" points="663.416,-370.3376 652.6597,-368.2037 658.5442,-371.463 653.6725,-372.5883 653.6725,-372.5883 653.6725,-372.5883 658.5442,-371.463 654.6853,-376.9729 663.416,-370.3376 663.416,-370.3376"/>
</g>
<!-- Quote -->
<g id="node23" class="node">
<title>Quote</title>
<ellipse fill="none" stroke="#000000" cx="390.8765" cy="-828.5" rx="31.9393" ry="18"/>
<text text-anchor="middle" x="390.8765" y="-824.3" font-family="Times,serif" font-size="14.00" fill="#000000">Quote</text>
</g>
<!-- CandidateList&#45;&gt;Candidate -->
<g id="edge39" class="edge">
<title>CandidateList&#45;&gt;Candidate</title>
<path fill="none" stroke="#561892" d="M669.8765,-135.8144C669.8765,-130.2775 669.8765,-124.4053 669.8765,-118.7785"/>
<ellipse fill="none" stroke="#561892" cx="669.8766" cy="-139.8314" rx="4" ry="4"/>
<polygon fill="#561892" stroke="#561892" points="669.8766,-118.4133 674.3765,-108.4132 669.8766,-113.4133 669.8765,-108.4133 669.8765,-108.4133 669.8765,-108.4133 669.8766,-113.4133 665.3765,-108.4133 669.8766,-118.4133 669.8766,-118.4133"/>
</g>
<!-- CandidateList&#45;&gt;Course -->
<g id="edge40" class="edge">
<title>CandidateList&#45;&gt;Course</title>
<path fill="none" stroke="#3302a9" d="M645.2522,-185.0667C610.2513,-217.4454 543.6076,-277.6039 482.8765,-324 414.407,-376.3079 375.4214,-364.4934 321.8765,-432 295.3046,-465.5005 287.8765,-479.2408 287.8765,-522 287.8765,-594 287.8765,-594 287.8765,-594 287.8765,-635.5415 295.7445,-683.2493 301.3542,-711.9848"/>
<ellipse fill="none" stroke="#3302a9" cx="648.4783" cy="-182.0741" rx="4" ry="4"/>
<ellipse fill="#3302a9" stroke="#3302a9" cx="302.1555" cy="-715.9932" rx="4" ry="4"/>
</g>
<!-- CandidateFeedback -->
<g id="node25" class="node">
<title>CandidateFeedback</title>
<ellipse fill="none" stroke="#000000" cx="827.8765" cy="-162" rx="79.6885" ry="18"/>
<text text-anchor="middle" x="827.8765" y="-157.8" font-family="Times,serif" font-size="14.00" fill="#000000">CandidateFeedback</text>
</g>
<!-- CandidateFeedback&#45;&gt;Candidate -->
<g id="edge41" class="edge">
<title>CandidateFeedback&#45;&gt;Candidate</title>
<path fill="none" stroke="#8eb90a" d="M785.0223,-142.4715C761.3401,-131.6796 732.1333,-118.3702 709.0611,-107.8563"/>
<ellipse fill="none" stroke="#8eb90a" cx="788.7783" cy="-144.1831" rx="4" ry="4"/>
<polygon fill="#8eb90a" stroke="#8eb90a" points="709.0041,-107.8304 701.7705,-99.5887 704.4543,-105.757 699.9044,-103.6836 699.9044,-103.6836 699.9044,-103.6836 704.4543,-105.757 698.0384,-107.7785 709.0041,-107.8304 709.0041,-107.8304"/>
</g>
<!-- Gender&#45;&gt;User -->
<g id="edge42" class="edge">
<title>Gender&#45;&gt;User</title>
<path fill="none" stroke="#536d5f" d="M649.9383,-424.7192C646.8566,-418.1931 643.5306,-411.1499 640.419,-404.5607"/>
<ellipse fill="none" stroke="#536d5f" cx="651.764" cy="-428.5852" rx="4" ry="4"/>
<polygon fill="#536d5f" stroke="#536d5f" points="640.3371,-404.3871 640.1361,-393.423 638.2021,-399.8658 636.067,-395.3446 636.067,-395.3446 636.067,-395.3446 638.2021,-399.8658 631.9979,-397.2661 640.3371,-404.3871 640.3371,-404.3871"/>
</g>
<!-- BingoCell -->
<g id="node28" class="node">
<title>BingoCell</title>
<ellipse fill="none" stroke="#000000" cx="978.8765" cy="-90" rx="46.4304" ry="18"/>
<text text-anchor="middle" x="978.8765" y="-85.8" font-family="Times,serif" font-size="14.00" fill="#000000">BingoCell</text>
</g>
<!-- Theme -->
<g id="node29" class="node">
<title>Theme</title>
<ellipse fill="none" stroke="#000000" cx="388.8765" cy="-450" rx="34.8198" ry="18"/>
<text text-anchor="middle" x="388.8765" y="-445.8" font-family="Times,serif" font-size="14.00" fill="#000000">Theme</text>
</g>
<!-- Theme&#45;&gt;User -->
<g id="edge43" class="edge">
<title>Theme&#45;&gt;User</title>
<path fill="none" stroke="#2081e8" d="M423.1969,-435.5065C426.4499,-434.27 429.7134,-433.0807 432.8765,-432 487.8029,-413.2332 553.0625,-396.1959 592.4338,-386.4737"/>
<ellipse fill="none" stroke="#2081e8" cx="419.403" cy="-436.9908" rx="4" ry="4"/>
<polygon fill="#2081e8" stroke="#2081e8" points="592.6297,-386.4258 603.4132,-388.4174 597.4862,-385.2362 602.3426,-384.0466 602.3426,-384.0466 602.3426,-384.0466 597.4862,-385.2362 601.2719,-379.6758 592.6297,-386.4258 592.6297,-386.4258"/>
</g>
<!-- Style -->
<g id="node30" class="node">
<title>Style</title>
<ellipse fill="none" stroke="#000000" cx="1254.8765" cy="-738" rx="28.0736" ry="18"/>
<text text-anchor="middle" x="1254.8765" y="-733.8" font-family="Times,serif" font-size="14.00" fill="#000000">Style</text>
</g>
<!-- Style&#45;&gt;Project -->
<g id="edge44" class="edge">
<title>Style&#45;&gt;Project</title>
<path fill="none" stroke="#14e123" d="M1254.8765,-711.8144C1254.8765,-706.2775 1254.8765,-700.4053 1254.8765,-694.7785"/>
<ellipse fill="none" stroke="#14e123" cx="1254.8766" cy="-715.8314" rx="4" ry="4"/>
<polygon fill="#14e123" stroke="#14e123" points="1254.8766,-694.4133 1259.3765,-684.4132 1254.8766,-689.4133 1254.8765,-684.4133 1254.8765,-684.4133 1254.8765,-684.4133 1254.8766,-689.4133 1250.3765,-684.4133 1254.8766,-694.4133 1254.8766,-694.4133"/>
</g>
<!-- Course&#45;&gt;Roster -->
<g id="edge46" class="edge">
<title>Course&#45;&gt;Roster</title>
<path fill="none" stroke="#74f360" d="M275.512,-720.4172C261.5958,-711.1966 246.0923,-698.7414 235.8765,-684 212.0895,-649.6754 208.8765,-635.7612 208.8765,-594 208.8765,-594 208.8765,-594 208.8765,-450 208.8765,-405.9298 185.2137,-359.4087 168.1165,-331.5474"/>
<ellipse fill="none" stroke="#74f360" cx="279.2349" cy="-722.7895" rx="4" ry="4"/>
<polygon fill="#74f360" stroke="#74f360" points="167.958,-331.2967 166.4171,-320.4396 165.2859,-327.0707 162.6137,-322.8446 162.6137,-322.8446 162.6137,-322.8446 165.2859,-327.0707 158.8102,-325.2496 167.958,-331.2967 167.958,-331.2967"/>
</g>
<!-- Course&#45;&gt;Project -->
<g id="edge45" class="edge">
<title>Course&#45;&gt;Project</title>
<path fill="none" stroke="#0acc8a" d="M350.1356,-736.1439C518.0729,-728.8369 1121.6848,-701.5948 1205.8765,-684 1209.9683,-683.1449 1214.1763,-682.0136 1218.3258,-680.7333"/>
<ellipse fill="none" stroke="#0acc8a" cx="346.0037" cy="-736.3233" rx="4" ry="4"/>
<polygon fill="#0acc8a" stroke="#0acc8a" points="1218.3428,-680.7277 1229.2561,-681.8004 1223.0812,-679.1317 1227.8197,-677.5358 1227.8197,-677.5358 1227.8197,-677.5358 1223.0812,-679.1317 1226.3833,-673.2712 1218.3428,-680.7277 1218.3428,-680.7277"/>
</g>
<!-- Course&#45;&gt;Experience -->
<g id="edge49" class="edge">
<title>Course&#45;&gt;Experience</title>
<path fill="none" stroke="#7eaa18" d="M266.006,-728.7493C206.461,-712.578 102.8765,-673.0815 102.8765,-594 102.8765,-594 102.8765,-594 102.8765,-450 102.8765,-406.9189 81.7262,-360.8026 66.1475,-332.678"/>
<ellipse fill="none" stroke="#7eaa18" cx="270.2319" cy="-729.8607" rx="4" ry="4"/>
<polygon fill="#7eaa18" stroke="#7eaa18" points="66.0721,-332.5459 65.025,-321.6301 63.5943,-328.2031 61.1164,-323.8602 61.1164,-323.8602 61.1164,-323.8602 63.5943,-328.2031 57.2079,-326.0903 66.0721,-332.5459 66.0721,-332.5459"/>
</g>
<!-- Course&#45;&gt;BingoGame -->
<g id="edge47" class="edge">
<title>Course&#45;&gt;BingoGame</title>
<path fill="none" stroke="#95a14e" d="M350.5606,-735.0813C497.4248,-724.6598 971.5094,-685.905 1102.8765,-612 1237.3834,-536.3286 1261.4184,-474.2032 1296.8765,-324 1300.5526,-308.428 1304.7597,-301.9232 1296.8765,-288 1287.4835,-271.4101 1270.7356,-259.3609 1254.2134,-250.912"/>
<ellipse fill="none" stroke="#95a14e" cx="346.1688" cy="-735.3899" rx="4" ry="4"/>
<polygon fill="#95a14e" stroke="#95a14e" points="1254.1373,-250.8759 1247.0378,-242.5184 1249.6216,-248.7292 1245.1058,-246.5826 1245.1058,-246.5826 1245.1058,-246.5826 1249.6216,-248.7292 1243.1738,-250.6467 1254.1373,-250.8759 1254.1373,-250.8759"/>
</g>
<!-- Course&#45;&gt;User -->
<g id="edge48" class="edge">
<title>Course&#45;&gt;User</title>
<path fill="none" stroke="#590660" d="M312.8365,-709.7275C318.4085,-680.7963 325.8765,-634.4718 325.8765,-594 325.8765,-594 325.8765,-594 325.8765,-522 325.8765,-481.1184 315.6882,-460.6243 344.8765,-432 379.1984,-398.3413 521.5265,-384.784 590.3189,-380.1178"/>
<polygon fill="#590660" stroke="#590660" points="312.7612,-710.1071 306.3995,-719.0391 311.7873,-715.0114 310.8133,-719.9156 310.8133,-719.9156 310.8133,-719.9156 311.7873,-715.0114 315.2271,-720.7922 312.7612,-710.1071 312.7612,-710.1071"/>
<polygon fill="#590660" stroke="#590660" points="590.7215,-380.0917 600.9922,-383.934 595.711,-379.7676 600.7005,-379.4435 600.7005,-379.4435 600.7005,-379.4435 595.711,-379.7676 600.4088,-374.953 590.7215,-380.0917 590.7215,-380.0917"/>
</g>
<!-- BingoGame&#45;&gt;Candidate -->
<g id="edge52" class="edge">
<title>BingoGame&#45;&gt;Candidate</title>
<path fill="none" stroke="#ef29e2" d="M1174.774,-212.1231C1142.4298,-191.1871 1090.3583,-160.4348 1040.8765,-144 933.0621,-108.1908 799.8039,-96.109 725.9145,-92.046"/>
<polygon fill="#ef29e2" stroke="#ef29e2" points="1174.9915,-212.2657 1180.8881,-221.5113 1179.1733,-215.0067 1183.355,-217.7477 1183.355,-217.7477 1183.355,-217.7477 1179.1733,-215.0067 1185.8219,-213.9842 1174.9915,-212.2657 1174.9915,-212.2657"/>
<polygon fill="#ef29e2" stroke="#ef29e2" points="725.8778,-92.0441 716.1252,-87.0303 720.8845,-91.7842 715.8913,-91.5242 715.8913,-91.5242 715.8913,-91.5242 720.8845,-91.7842 715.6573,-96.0181 725.8778,-92.0441 725.8778,-92.0441"/>
</g>
<!-- BingoGame&#45;&gt;Group -->
<g id="edge54" class="edge">
<title>BingoGame&#45;&gt;Group</title>
<path fill="none" stroke="#b766e9" d="M1192.5734,-260.7456C1188.0706,-269.3846 1183.1582,-279.0442 1178.8765,-288 1141.1932,-366.821 1150.4496,-396.7599 1099.8765,-468 1091.3089,-480.0688 1079.6997,-491.5302 1069.1182,-500.7635"/>
<polygon fill="#b766e9" stroke="#b766e9" points="1192.595,-260.7045 1201.2322,-253.948 1194.9221,-256.279 1197.2493,-251.8536 1197.2493,-251.8536 1197.2493,-251.8536 1194.9221,-256.279 1193.2664,-249.7592 1192.595,-260.7045 1192.595,-260.7045"/>
<polygon fill="#b766e9" stroke="#b766e9" points="1068.9381,-500.9155 1058.3928,-503.9234 1065.1161,-504.1393 1061.2942,-507.3631 1061.2942,-507.3631 1061.2942,-507.3631 1065.1161,-504.1393 1064.1956,-510.8028 1068.9381,-500.9155 1068.9381,-500.9155"/>
</g>
<!-- BingoGame&#45;&gt;CandidateList -->
<g id="edge50" class="edge">
<title>BingoGame&#45;&gt;CandidateList</title>
<path fill="none" stroke="#f244fe" d="M1160.3711,-219.449C1155.1778,-218.138 1149.937,-216.9496 1144.8765,-216 966.8318,-182.5892 917.3618,-210.971 738.8765,-180 733.7477,-179.11 728.4423,-178.0269 723.1566,-176.8379"/>
<ellipse fill="none" stroke="#f244fe" cx="1164.5939" cy="-220.5682" rx="4" ry="4"/>
<polygon fill="#f244fe" stroke="#f244fe" points="722.7979,-176.7529 714.1069,-170.0657 717.9329,-175.5985 713.068,-174.4442 713.068,-174.4442 713.068,-174.4442 717.9329,-175.5985 712.0291,-178.8226 722.7979,-176.7529 722.7979,-176.7529"/>
</g>
<!-- BingoBoard -->
<g id="node37" class="node">
<title>BingoBoard</title>
<ellipse fill="none" stroke="#000000" cx="978.8765" cy="-162" rx="53.1797" ry="18"/>
<text text-anchor="middle" x="978.8765" y="-157.8" font-family="Times,serif" font-size="14.00" fill="#000000">BingoBoard</text>
</g>
<!-- BingoGame&#45;&gt;BingoBoard -->
<g id="edge51" class="edge">
<title>BingoGame&#45;&gt;BingoBoard</title>
<path fill="none" stroke="#7271f6" d="M1160.084,-219.2234C1121.4509,-207.0235 1066.8017,-189.7659 1027.6374,-177.3982"/>
<ellipse fill="none" stroke="#7271f6" cx="1164.1266" cy="-220.5" rx="4" ry="4"/>
<polygon fill="#7271f6" stroke="#7271f6" points="1027.5689,-177.3766 1019.3882,-170.0741 1022.801,-175.8709 1018.0331,-174.3652 1018.0331,-174.3652 1018.0331,-174.3652 1022.801,-175.8709 1016.678,-178.6564 1027.5689,-177.3766 1027.5689,-177.3766"/>
</g>
<!-- BingoGame&#45;&gt;User -->
<g id="edge53" class="edge">
<title>BingoGame&#45;&gt;User</title>
<path fill="none" stroke="#afd023" d="M1168.1776,-253.5662C1125.7364,-274.1991 1055.1009,-306.14 990.8765,-324 874.5807,-356.3404 731.6083,-370.3882 665.1358,-375.5062"/>
<polygon fill="#afd023" stroke="#afd023" points="1168.3293,-253.4919 1179.2893,-253.1304 1172.8188,-251.2908 1177.3083,-249.0898 1177.3083,-249.0898 1177.3083,-249.0898 1172.8188,-251.2908 1175.3274,-245.0492 1168.3293,-253.4919 1168.3293,-253.4919"/>
<polygon fill="#afd023" stroke="#afd023" points="664.7355,-375.536 654.4286,-371.7921 659.7494,-375.9078 654.7632,-376.2796 654.7632,-376.2796 654.7632,-376.2796 659.7494,-375.9078 655.0979,-380.7672 664.7355,-375.536 664.7355,-375.536"/>
</g>
<!-- Behavior&#45;&gt;Reaction -->
<g id="edge56" class="edge">
<title>Behavior&#45;&gt;Reaction</title>
<path fill="none" stroke="#4b011a" d="M399.6415,-144.3825C377.7932,-133.4584 349.7721,-119.4478 327.6436,-108.3835"/>
<ellipse fill="none" stroke="#4b011a" cx="403.5341" cy="-146.3288" rx="4" ry="4"/>
<polygon fill="#4b011a" stroke="#4b011a" points="327.5002,-108.3119 320.5684,-99.8148 323.0281,-106.0758 318.5559,-103.8397 318.5559,-103.8397 318.5559,-103.8397 323.0281,-106.0758 316.5434,-107.8646 327.5002,-108.3119 327.5002,-108.3119"/>
</g>
<!-- Behavior&#45;&gt;Scenario -->
<g id="edge55" class="edge">
<title>Behavior&#45;&gt;Scenario</title>
<path fill="none" stroke="#43fcd6" d="M456.9446,-139.3014C464.8334,-131.1872 473.7421,-122.0239 481.7201,-113.818"/>
<ellipse fill="none" stroke="#43fcd6" cx="453.9002" cy="-142.4328" rx="4" ry="4"/>
<polygon fill="#43fcd6" stroke="#43fcd6" points="481.7584,-113.7786 491.9557,-109.7455 485.2438,-110.1936 488.7292,-106.6087 488.7292,-106.6087 488.7292,-106.6087 485.2438,-110.1936 485.5027,-103.4718 481.7584,-113.7786 481.7584,-113.7786"/>
</g>
<!-- Behavior&#45;&gt;Diagnosis -->
<g id="edge57" class="edge">
<title>Behavior&#45;&gt;Diagnosis</title>
<path fill="none" stroke="#a00f46" d="M420.7317,-137.1801C409.8094,-118.6651 393.8996,-93.0454 377.8765,-72 370.1659,-61.8726 360.9534,-51.3704 352.6081,-42.3501"/>
<ellipse fill="none" stroke="#a00f46" cx="422.7876" cy="-140.6971" rx="4" ry="4"/>
<polygon fill="#a00f46" stroke="#a00f46" points="352.4074,-42.1366 348.8357,-31.7687 348.9823,-38.4939 345.5573,-34.8513 345.5573,-34.8513 345.5573,-34.8513 348.9823,-38.4939 342.2789,-37.9338 352.4074,-42.1366 352.4074,-42.1366"/>
</g>
<!-- ApplicationRecord -->
<g id="node34" class="node">
<title>ApplicationRecord</title>
<ellipse fill="none" stroke="#000000" cx="517.8765" cy="-828.5" rx="77.2916" ry="18"/>
<text text-anchor="middle" x="517.8765" y="-824.3" font-family="Times,serif" font-size="14.00" fill="#000000">ApplicationRecord</text>
</g>
<!-- Assessment&#45;&gt;Factor -->
<g id="edge59" class="edge">
<title>Assessment&#45;&gt;Factor</title>
<path fill="none" stroke="#37bbdf" d="M983.6158,-585.3751C928.0699,-576.464 842.3822,-560.9172 769.8765,-540 766.1117,-538.9139 762.2238,-537.656 758.3712,-536.3198"/>
<polygon fill="#37bbdf" stroke="#37bbdf" points="983.7499,-585.3963 992.9223,-591.4061 988.6883,-586.1789 993.6267,-586.9616 993.6267,-586.9616 993.6267,-586.9616 988.6883,-586.1789 994.3311,-582.5171 983.7499,-585.3963 983.7499,-585.3963"/>
<polygon fill="#37bbdf" stroke="#37bbdf" points="758.354,-536.3136 750.4987,-528.6621 753.6561,-534.6019 748.9582,-532.8902 748.9582,-532.8902 748.9582,-532.8902 753.6561,-534.6019 747.4177,-537.1184 758.354,-536.3136 758.354,-536.3136"/>
</g>
<!-- Assessment&#45;&gt;Group -->
<g id="edge61" class="edge">
<title>Assessment&#45;&gt;Group</title>
<path fill="none" stroke="#227169" d="M1041.8765,-565.5726C1041.8765,-560.6792 1041.8765,-555.5904 1041.8765,-550.6901"/>
<polygon fill="#227169" stroke="#227169" points="1041.8766,-565.8314 1037.3765,-575.8313 1041.8766,-570.8314 1041.8765,-575.8314 1041.8765,-575.8314 1041.8765,-575.8314 1041.8766,-570.8314 1046.3765,-575.8314 1041.8766,-565.8314 1041.8766,-565.8314"/>
<polygon fill="#227169" stroke="#227169" points="1041.8766,-550.4133 1046.3765,-540.4132 1041.8766,-545.4133 1041.8765,-540.4133 1041.8765,-540.4133 1041.8765,-540.4133 1041.8766,-545.4133 1037.3765,-540.4133 1041.8766,-550.4133 1041.8766,-550.4133"/>
</g>
<!-- Assessment&#45;&gt;Installment -->
<g id="edge58" class="edge">
<title>Assessment&#45;&gt;Installment</title>
<path fill="none" stroke="#691011" d="M1076.9883,-574.726C1113.1644,-553.1762 1168.8017,-515.048 1201.8765,-468 1230.2094,-427.6972 1236.7541,-368.958 1237.9765,-334.3926"/>
<ellipse fill="none" stroke="#691011" cx="1073.4747" cy="-576.788" rx="4" ry="4"/>
<polygon fill="#691011" stroke="#691011" points="1237.9836,-334.071 1242.7061,-324.1742 1238.0954,-329.0723 1238.2072,-324.0735 1238.2072,-324.0735 1238.2072,-324.0735 1238.0954,-329.0723 1233.7083,-323.9729 1237.9836,-334.071 1237.9836,-334.071"/>
</g>
<!-- Assessment&#45;&gt;User -->
<g id="edge60" class="edge">
<title>Assessment&#45;&gt;User</title>
<path fill="none" stroke="#b721e1" d="M995.6557,-577.797C940.9278,-558.8884 846.8507,-527.2511 764.8765,-504 699.7498,-485.5275 658.707,-521.2252 616.8765,-468 602.9611,-450.294 608.0339,-424.2705 615.218,-404.7555"/>
<polygon fill="#b721e1" stroke="#b721e1" points="995.9559,-577.9009 1003.9317,-585.4267 1000.6804,-579.5378 1005.4049,-581.1746 1005.4049,-581.1746 1005.4049,-581.1746 1000.6804,-579.5378 1006.878,-576.9226 995.9559,-577.9009 995.9559,-577.9009"/>
<polygon fill="#b721e1" stroke="#b721e1" points="615.3249,-404.4912 623.249,-396.911 617.2014,-399.8567 619.0779,-395.2221 619.0779,-395.2221 619.0779,-395.2221 617.2014,-399.8567 614.9068,-393.5333 615.3249,-404.4912 615.3249,-404.4912"/>
</g>
<!-- Installment&#45;&gt;Value -->
<g id="edge62" class="edge">
<title>Installment&#45;&gt;Value</title>
<path fill="none" stroke="#d6a5b1" d="M1203.0968,-287.0293C1182.6489,-275.8759 1157.006,-261.8888 1137.1904,-251.0803"/>
<ellipse fill="none" stroke="#d6a5b1" cx="1206.6934" cy="-288.991" rx="4" ry="4"/>
<polygon fill="#d6a5b1" stroke="#d6a5b1" points="1137.037,-250.9967 1130.4129,-242.2576 1132.6475,-248.6024 1128.258,-246.2081 1128.258,-246.2081 1128.258,-246.2081 1132.6475,-248.6024 1126.1031,-250.1586 1137.037,-250.9967 1137.037,-250.9967"/>
</g>
<!-- BingoBoard&#45;&gt;Concept -->
<g id="edge64" class="edge">
<title>BingoBoard&#45;&gt;Concept</title>
<path fill="none" stroke="#04d754" d="M928.6739,-176.693C924.6857,-177.8242 920.7166,-178.9382 916.8765,-180 856.1973,-196.7778 830.2349,-178.2179 779.8765,-216 758.8331,-231.7881 744.3501,-258.3934 735.7209,-278.5934"/>
<polygon fill="#04d754" stroke="#04d754" points="928.9495,-176.6143 939.8012,-178.1923 933.7569,-175.24 938.5643,-173.8656 938.5643,-173.8656 938.5643,-173.8656 933.7569,-175.24 937.3274,-169.539 928.9495,-176.6143 928.9495,-176.6143"/>
<polygon fill="#04d754" stroke="#04d754" points="735.6988,-278.6482 727.7797,-286.2336 733.8253,-283.284 731.9518,-287.9197 731.9518,-287.9197 731.9518,-287.9197 733.8253,-283.284 736.124,-289.6058 735.6988,-278.6482 735.6988,-278.6482"/>
</g>
<!-- BingoBoard&#45;&gt;BingoCell -->
<g id="edge63" class="edge">
<title>BingoBoard&#45;&gt;BingoCell</title>
<path fill="none" stroke="#c3a71d" d="M978.8765,-135.8144C978.8765,-130.2775 978.8765,-124.4053 978.8765,-118.7785"/>
<ellipse fill="none" stroke="#c3a71d" cx="978.8766" cy="-139.8314" rx="4" ry="4"/>
<polygon fill="#c3a71d" stroke="#c3a71d" points="978.8766,-118.4133 983.3765,-108.4132 978.8766,-113.4133 978.8765,-108.4133 978.8765,-108.4133 978.8765,-108.4133 978.8766,-113.4133 974.3765,-108.4133 978.8766,-118.4133 978.8766,-118.4133"/>
</g>
<!-- User&#45;&gt;Roster -->
<g id="edge73" class="edge">
<title>User&#45;&gt;Roster</title>
<path fill="none" stroke="#bd1285" d="M592.696,-376.4486C518.6282,-372.5603 341.5943,-359.9842 197.8765,-324 194.0755,-323.0483 190.164,-321.8777 186.2973,-320.5941"/>
<ellipse fill="none" stroke="#bd1285" cx="596.7982" cy="-376.6572" rx="4" ry="4"/>
<polygon fill="#bd1285" stroke="#bd1285" points="186.2855,-320.5899 178.3781,-312.9923 181.576,-318.9104 176.8665,-317.2309 176.8665,-317.2309 176.8665,-317.2309 181.576,-318.9104 175.3549,-321.4694 186.2855,-320.5899 186.2855,-320.5899"/>
</g>
<!-- User&#45;&gt;Reaction -->
<g id="edge74" class="edge">
<title>User&#45;&gt;Reaction</title>
<path fill="none" stroke="#29a9de" d="M592.9669,-373.4918C533.145,-365.2692 414.0789,-346.5849 378.8765,-324 308.7909,-279.035 294.329,-170.0418 291.4819,-118.2437"/>
<ellipse fill="none" stroke="#29a9de" cx="597.0363" cy="-374.044" rx="4" ry="4"/>
<polygon fill="#29a9de" stroke="#29a9de" points="291.4753,-118.0926 295.5305,-107.904 291.2551,-113.0974 291.0348,-108.1023 291.0348,-108.1023 291.0348,-108.1023 291.2551,-113.0974 286.5392,-108.3005 291.4753,-118.0926 291.4753,-118.0926"/>
</g>
<!-- User&#45;&gt;Candidate -->
<g id="edge70" class="edge">
<title>User&#45;&gt;Candidate</title>
<path fill="none" stroke="#5d4c44" d="M598.567,-363.3935C583.747,-354.2857 567.1788,-341.0401 558.8765,-324 551.8685,-309.6164 557.0781,-303.8986 558.8765,-288 566.2566,-222.757 555.0597,-198.3657 591.8765,-144 601.6659,-129.5444 616.7214,-117.8017 631.0036,-109.0036"/>
<ellipse fill="none" stroke="#5d4c44" cx="602.203" cy="-365.5149" rx="4" ry="4"/>
<polygon fill="#5d4c44" stroke="#5d4c44" points="631.1037,-108.9453 642.0091,-107.7956 635.423,-106.4267 639.7424,-103.9082 639.7424,-103.9082 639.7424,-103.9082 635.423,-106.4267 637.4757,-100.0207 631.1037,-108.9453 631.1037,-108.9453"/>
</g>
<!-- User&#45;&gt;Concept -->
<g id="edge68" class="edge">
<title>User&#45;&gt;Concept</title>
<path fill="none" stroke="#39d864" d="M652.8849,-359.6265C666.1868,-349.8537 682.6204,-337.78 696.5244,-327.5648"/>
<ellipse fill="none" stroke="#39d864" cx="649.5331" cy="-362.089" rx="4" ry="4"/>
<polygon fill="#39d864" stroke="#39d864" points="696.7453,-327.4025 707.4685,-325.1082 700.7747,-324.4421 704.8042,-321.4817 704.8042,-321.4817 704.8042,-321.4817 700.7747,-324.4421 702.1398,-317.8553 696.7453,-327.4025 696.7453,-327.4025"/>
</g>
<!-- User&#45;&gt;Email -->
<g id="edge65" class="edge">
<title>User&#45;&gt;Email</title>
<path fill="none" stroke="#eac8cf" d="M617.862,-353.1363C615.3077,-346.7946 612.5474,-339.9414 609.9437,-333.4773"/>
<ellipse fill="none" stroke="#eac8cf" cx="619.3619" cy="-356.8605" rx="4" ry="4"/>
<polygon fill="#eac8cf" stroke="#eac8cf" points="609.7696,-333.0447 610.2076,-322.0876 607.9015,-328.4068 606.0334,-323.7689 606.0334,-323.7689 606.0334,-323.7689 607.9015,-328.4068 601.8593,-325.4502 609.7696,-333.0447 609.7696,-333.0447"/>
</g>
<!-- User&#45;&gt;ConsentLog -->
<g id="edge66" class="edge">
<title>User&#45;&gt;ConsentLog</title>
<path fill="none" stroke="#dad7bc" d="M663.2299,-375.7612C762.9751,-369.3121 1055.0711,-349.5133 1296.8765,-324 1322.6314,-321.2826 1351.012,-317.6851 1375.3043,-314.421"/>
<ellipse fill="none" stroke="#dad7bc" cx="658.9964" cy="-376.0338" rx="4" ry="4"/>
<polygon fill="#dad7bc" stroke="#dad7bc" points="1375.5362,-314.3896 1386.0501,-317.5052 1380.4908,-313.7178 1385.4455,-313.046 1385.4455,-313.046 1385.4455,-313.046 1380.4908,-313.7178 1384.8409,-308.5868 1375.5362,-314.3896 1375.5362,-314.3896"/>
</g>
<!-- User&#45;&gt;Experience -->
<g id="edge75" class="edge">
<title>User&#45;&gt;Experience</title>
<path fill="none" stroke="#e70a21" d="M590.8507,-376.5929C505.229,-372.8091 287.224,-360.1332 108.8765,-324 104.7437,-323.1627 100.4865,-322.1571 96.2409,-321.0549"/>
<polygon fill="#e70a21" stroke="#e70a21" points="590.8701,-376.5936 600.6686,-381.5169 595.8655,-376.8073 600.861,-377.021 600.861,-377.021 600.861,-377.021 595.8655,-376.8073 601.0533,-372.5251 590.8701,-376.5936 590.8701,-376.5936"/>
<polygon fill="#e70a21" stroke="#e70a21" points="96.0583,-321.0045 87.618,-314.0037 91.2389,-319.6728 86.4195,-318.3412 86.4195,-318.3412 86.4195,-318.3412 91.2389,-319.6728 85.221,-322.6786 96.0583,-321.0045 96.0583,-321.0045"/>
</g>
<!-- User&#45;&gt;Narrative -->
<g id="edge76" class="edge">
<title>User&#45;&gt;Narrative</title>
<path fill="none" stroke="#3e5072" d="M594.4197,-365.7721C561.0323,-353.5696 509.6154,-334.7777 473.3623,-321.5278"/>
<polygon fill="#3e5072" stroke="#3e5072" points="594.7213,-365.8823 602.5689,-373.5417 599.4175,-367.5987 604.1137,-369.3151 604.1137,-369.3151 604.1137,-369.3151 599.4175,-367.5987 605.6585,-365.0886 594.7213,-365.8823 594.7213,-365.8823"/>
<polygon fill="#3e5072" stroke="#3e5072" points="472.9592,-321.3805 465.1116,-313.7212 468.263,-319.6641 463.5668,-317.9477 463.5668,-317.9477 463.5668,-317.9477 468.263,-319.6641 462.022,-322.1743 472.9592,-321.3805 472.9592,-321.3805"/>
</g>
<!-- User&#45;&gt;HomeCountry -->
<g id="edge71" class="edge">
<title>User&#45;&gt;HomeCountry</title>
<path fill="none" stroke="#728eae" d="M660.6334,-368.7981C709.91,-356.0673 803.455,-333.0311 863.9959,-318.6782"/>
<ellipse fill="none" stroke="#728eae" cx="656.6697" cy="-369.8275" rx="4" ry="4"/>
<ellipse fill="#728eae" stroke="#728eae" cx="868.0511" cy="-317.7195" rx="4" ry="4"/>
</g>
<!-- User&#45;&gt;CandidateList -->
<g id="edge67" class="edge">
<title>User&#45;&gt;CandidateList</title>
<path fill="none" stroke="#39b37b" d="M633.2543,-351.9197C635.0633,-343.0624 637.0781,-333.1046 638.8765,-324 648.1493,-277.0547 658.5255,-222.3687 664.6133,-190.0516"/>
<ellipse fill="none" stroke="#39b37b" cx="632.3995" cy="-356.0921" rx="4" ry="4"/>
<polygon fill="#39b37b" stroke="#39b37b" points="664.6567,-189.8205 670.9281,-180.825 665.5812,-184.9067 666.5057,-179.9929 666.5057,-179.9929 666.5057,-179.9929 665.5812,-184.9067 662.0833,-179.1609 664.6567,-189.8205 664.6567,-189.8205"/>
</g>
<!-- User&#45;&gt;Installment -->
<g id="edge72" class="edge">
<title>User&#45;&gt;Installment</title>
<path fill="none" stroke="#73f122" d="M662.7167,-373.8877C763.339,-362.011 1055.1428,-327.5686 1180.044,-312.8261"/>
<ellipse fill="none" stroke="#73f122" cx="658.4521" cy="-374.391" rx="4" ry="4"/>
<polygon fill="#73f122" stroke="#73f122" points="1180.2431,-312.8027 1190.7017,-316.0994 1185.2086,-312.2166 1190.1742,-311.6304 1190.1742,-311.6304 1190.1742,-311.6304 1185.2086,-312.2166 1189.6466,-307.1615 1180.2431,-312.8027 1180.2431,-312.8027"/>
</g>
<!-- User&#45;&gt;BingoBoard -->
<g id="edge69" class="edge">
<title>User&#45;&gt;BingoBoard</title>
<path fill="none" stroke="#adafe7" d="M662.0823,-370.9323C693.5567,-363.2175 740.4357,-348.5651 774.8765,-324 800.0807,-306.0231 838.446,-235.0149 862.8765,-216 883.2624,-200.1331 909.0643,-187.5386 931.1549,-178.5175"/>
<ellipse fill="none" stroke="#adafe7" cx="657.926" cy="-371.9155" rx="4" ry="4"/>
<polygon fill="#adafe7" stroke="#adafe7" points="931.3889,-178.4251 942.343,-178.9333 936.0387,-176.5868 940.6885,-174.7484 940.6885,-174.7484 940.6885,-174.7484 936.0387,-176.5868 939.034,-170.5636 931.3889,-178.4251 931.3889,-178.4251"/>
</g>
<!-- School -->
<g id="node39" class="node">
<title>School</title>
<ellipse fill="none" stroke="#000000" cx="306.8765" cy="-828.5" rx="34.8458" ry="18"/>
<text text-anchor="middle" x="306.8765" y="-824.3" font-family="Times,serif" font-size="14.00" fill="#000000">School</text>
</g>
<!-- School&#45;&gt;Roster -->
<g id="edge81" class="edge">
<title>School&#45;&gt;Roster</title>
<path fill="none" stroke="#10d138" d="M280.5832,-806.2942C239.5354,-770.5553 164.8765,-700.7727 164.8765,-666 164.8765,-666 164.8765,-666 164.8765,-450 164.8765,-409.6868 159.3738,-363.322 155.2681,-334.3387"/>
<polygon fill="#10d138" stroke="#10d138" points="280.7433,-806.4325 285.3717,-816.3738 284.5279,-809.7001 288.3125,-812.9676 288.3125,-812.9676 288.3125,-812.9676 284.5279,-809.7001 291.2533,-809.5615 280.7433,-806.4325 280.7433,-806.4325"/>
<polygon fill="#10d138" stroke="#10d138" points="155.2224,-334.0255 158.2301,-323.4801 154.4999,-329.078 153.7773,-324.1304 153.7773,-324.1304 153.7773,-324.1304 154.4999,-329.078 149.3245,-324.7807 155.2224,-334.0255 155.2224,-334.0255"/>
</g>
<!-- School&#45;&gt;Project -->
<g id="edge79" class="edge">
<title>School&#45;&gt;Project</title>
<path fill="none" stroke="#7d3787" d="M329.3565,-804.86C335.504,-799.7515 342.5172,-794.9908 349.8765,-792 458.6232,-747.8053 760.6711,-772.5924 876.8765,-756 1025.0564,-734.8421 1062.179,-725.9043 1205.8765,-684 1209.6353,-682.9039 1213.521,-681.6651 1217.3837,-680.3629"/>
<polygon fill="#7d3787" stroke="#7d3787" points="328.9777,-805.2024 318.5416,-808.5698 325.2684,-808.5553 321.5591,-811.9081 321.5591,-811.9081 321.5591,-811.9081 325.2684,-808.5553 324.5767,-815.2465 328.9777,-805.2024 328.9777,-805.2024"/>
<polygon fill="#7d3787" stroke="#7d3787" points="1217.4164,-680.3515 1228.3423,-681.2873 1222.1345,-678.6963 1226.8526,-677.041 1226.8526,-677.041 1226.8526,-677.041 1222.1345,-678.6963 1225.3628,-672.7947 1217.4164,-680.3515 1217.4164,-680.3515"/>
</g>
<!-- School&#45;&gt;Experience -->
<g id="edge80" class="edge">
<title>School&#45;&gt;Experience</title>
<path fill="none" stroke="#86b1f8" d="M281.7945,-806.0711C275.7915,-801.1669 269.2653,-796.1938 262.8765,-792 171.8849,-732.2704 52.8765,-774.8444 52.8765,-666 52.8765,-666 52.8765,-666 52.8765,-450 52.8765,-409.8673 51.6974,-363.4566 50.8176,-334.414"/>
<polygon fill="#86b1f8" stroke="#86b1f8" points="281.9434,-806.1965 286.696,-816.079 285.7687,-809.4164 289.5939,-812.6363 289.5939,-812.6363 289.5939,-812.6363 285.7687,-809.4164 292.4918,-809.1936 281.9434,-806.1965 281.9434,-806.1965"/>
<polygon fill="#86b1f8" stroke="#86b1f8" points="50.8103,-334.178 54.9959,-324.0424 50.6542,-329.1804 50.4981,-324.1828 50.4981,-324.1828 50.4981,-324.1828 50.6542,-329.1804 46.0003,-324.3233 50.8103,-334.178 50.8103,-334.178"/>
</g>
<!-- School&#45;&gt;Course -->
<g id="edge77" class="edge">
<title>School&#45;&gt;Course</title>
<path fill="none" stroke="#45d54d" d="M306.8765,-801.9687C306.8765,-790.8402 306.8765,-777.878 306.8765,-766.5429"/>
<ellipse fill="none" stroke="#45d54d" cx="306.8766" cy="-806.186" rx="4" ry="4"/>
<polygon fill="#45d54d" stroke="#45d54d" points="306.8766,-766.2868 311.3765,-756.2867 306.8766,-761.2868 306.8765,-756.2868 306.8765,-756.2868 306.8765,-756.2868 306.8766,-761.2868 302.3765,-756.2868 306.8766,-766.2868 306.8766,-766.2868"/>
</g>
<!-- School&#45;&gt;BingoGame -->
<g id="edge78" class="edge">
<title>School&#45;&gt;BingoGame</title>
<path fill="none" stroke="#4c3b73" d="M329.2812,-804.6696C335.4304,-799.5657 342.4634,-794.8548 349.8765,-792 468.8654,-746.1772 1399.1124,-837.8551 1496.8765,-756 1528.2219,-729.7554 1515.8765,-706.8816 1515.8765,-666 1515.8765,-666 1515.8765,-666 1515.8765,-378 1515.8765,-337.1184 1526.1284,-316.5593 1496.8765,-288 1465.2909,-257.1622 1344.7377,-243.3695 1269.3625,-237.6495"/>
<polygon fill="#4c3b73" stroke="#4c3b73" points="328.8979,-805.0172 318.4676,-808.4025 325.1944,-808.3764 321.4909,-811.7356 321.4909,-811.7356 321.4909,-811.7356 325.1944,-808.3764 324.5142,-815.0688 328.8979,-805.0172 328.8979,-805.0172"/>
<polygon fill="#4c3b73" stroke="#4c3b73" points="1269.0139,-237.6241 1259.3686,-232.407 1264.0272,-237.2595 1259.0405,-236.895 1259.0405,-236.895 1259.0405,-236.895 1264.0272,-237.2595 1258.7124,-241.383 1269.0139,-237.6241 1269.0139,-237.6241"/>
</g>
</g>
</svg>
