<?xml version="1.0" encoding="UTF-8" standalone="no"?>
<!DOCTYPE svg PUBLIC "-//W3C//DTD SVG 1.1//EN"
 "http://www.w3.org/Graphics/SVG/1.1/DTD/svg11.dtd">
<!-- Generated by graphviz version 2.36.0 (20140111.2315)
 -->
<!-- Title: models_diagram Pages: 1 -->
<svg width="1577pt" height="806pt"
 viewBox="0.00 0.00 1577.00 806.00" xmlns="http://www.w3.org/2000/svg" xmlns:xlink="http://www.w3.org/1999/xlink">
<g id="graph0" class="graph" transform="scale(1 1) rotate(0) translate(4 802)">
<title>models_diagram</title>
<polygon fill="none" stroke="none" points="-4,4 -4,-802 1573,-802 1573,4 -4,4"/>
<!-- _diagram_info -->
<g id="node1" class="node"><title>_diagram_info</title>
<text text-anchor="start" x="479.5" y="-783.6" font-family="Times,serif" font-size="13.00">Models diagram</text>
<text text-anchor="start" x="479.5" y="-769.6" font-family="Times,serif" font-size="13.00">Date: Apr 20 2017 &#45; 22:35</text>
<text text-anchor="start" x="479.5" y="-755.6" font-family="Times,serif" font-size="13.00">Migration version: 20170320150239</text>
<text text-anchor="start" x="479.5" y="-741.6" font-family="Times,serif" font-size="13.00">Generated by RailRoady 1.5.2</text>
<text text-anchor="start" x="479.5" y="-727.6" font-family="Times,serif" font-size="13.00">http://railroady.prestonlee.com</text>
</g>
<!-- AgeRange -->
<g id="node2" class="node"><title>AgeRange</title>
<ellipse fill="none" stroke="black" cx="899" cy="-450" rx="57.2688" ry="18"/>
<text text-anchor="middle" x="899" y="-446.3" font-family="Times,serif" font-size="14.00">AgeRange</text>
</g>
<!-- User -->
<g id="node33" class="node"><title>User</title>
<ellipse fill="none" stroke="black" cx="899" cy="-378" rx="32.2457" ry="18"/>
<text text-anchor="middle" x="899" y="-374.3" font-family="Times,serif" font-size="14.00">User</text>
</g>
<!-- AgeRange&#45;&gt;User -->
<g id="edge1" class="edge"><title>AgeRange&#45;&gt;User</title>
<path fill="none" stroke="#80aa84" d="M899,-423.64C899,-418.063 899,-412.132 899,-406.476"/>
<ellipse fill="none" stroke="#80aa84" cx="899" cy="-427.697" rx="4" ry="4"/>
<polygon fill="#80aa84" stroke="#80aa84" points="899,-406.104 903.5,-396.104 899,-401.104 899,-396.104 899,-396.104 899,-396.104 899,-401.104 894.5,-396.104 899,-406.104 899,-406.104"/>
</g>
<!-- Assessment -->
<g id="node3" class="node"><title>Assessment</title>
<ellipse fill="none" stroke="black" cx="813" cy="-759" rx="65.9423" ry="18"/>
<text text-anchor="middle" x="813" y="-755.3" font-family="Times,serif" font-size="14.00">Assessment</text>
</g>
<!-- Factor -->
<g id="node17" class="node"><title>Factor</title>
<ellipse fill="none" stroke="black" cx="547" cy="-666" rx="40.4202" ry="18"/>
<text text-anchor="middle" x="547" y="-662.3" font-family="Times,serif" font-size="14.00">Factor</text>
</g>
<!-- Assessment&#45;&gt;Factor -->
<g id="edge3" class="edge"><title>Assessment&#45;&gt;Factor</title>
<path fill="none" stroke="#877cc2" d="M776.388,-737.918C764.096,-731.658 750.163,-725.073 737,-720 688.893,-701.461 631.659,-686.397 592.67,-677.133"/>
<polygon fill="#877cc2" stroke="#877cc2" points="776.552,-738.003 783.354,-746.605 780.99,-740.307 785.428,-742.611 785.428,-742.611 785.428,-742.611 780.99,-740.307 787.501,-738.617 776.552,-738.003 776.552,-738.003"/>
<polygon fill="#877cc2" stroke="#877cc2" points="592.41,-677.072 583.701,-670.409 587.542,-675.931 582.674,-674.79 582.674,-674.79 582.674,-674.79 587.542,-675.931 581.647,-679.171 592.41,-677.072 592.41,-677.072"/>
</g>
<!-- Group -->
<g id="node20" class="node"><title>Group</title>
<ellipse fill="none" stroke="black" cx="1463" cy="-450" rx="39.4691" ry="18"/>
<text text-anchor="middle" x="1463" y="-446.3" font-family="Times,serif" font-size="14.00">Group</text>
</g>
<!-- Assessment&#45;&gt;Group -->
<g id="edge5" class="edge"><title>Assessment&#45;&gt;Group</title>
<path fill="none" stroke="#f46520" d="M853.835,-738.713C972.4,-682.714 1315.34,-520.74 1427.23,-467.893"/>
<polygon fill="#f46520" stroke="#f46520" points="853.833,-738.714 842.869,-738.916 849.312,-740.85 844.791,-742.985 844.791,-742.985 844.791,-742.985 849.312,-740.85 846.713,-747.054 853.833,-738.714 853.833,-738.714"/>
<polygon fill="#f46520" stroke="#f46520" points="1427.37,-467.827 1438.34,-467.625 1431.89,-465.691 1436.42,-463.556 1436.42,-463.556 1436.42,-463.556 1431.89,-465.691 1434.49,-459.487 1427.37,-467.827 1427.37,-467.827"/>
</g>
<!-- Installment -->
<g id="node23" class="node"><title>Installment</title>
<ellipse fill="none" stroke="black" cx="1478" cy="-306" rx="64.0172" ry="18"/>
<text text-anchor="middle" x="1478" y="-302.3" font-family="Times,serif" font-size="14.00">Installment</text>
</g>
<!-- Assessment&#45;&gt;Installment -->
<g id="edge2" class="edge"><title>Assessment&#45;&gt;Installment</title>
<path fill="none" stroke="#7d5c7c" d="M887.113,-757.619C1077.52,-754.651 1569,-733.569 1569,-595 1569,-595 1569,-595 1569,-449 1569,-401.03 1531.73,-356.302 1504.9,-330.313"/>
<ellipse fill="none" stroke="#7d5c7c" cx="883.097" cy="-757.678" rx="4" ry="4"/>
<polygon fill="#7d5c7c" stroke="#7d5c7c" points="1504.59,-330.025 1500.38,-319.899 1500.94,-326.602 1497.3,-323.179 1497.3,-323.179 1497.3,-323.179 1500.94,-326.602 1494.22,-326.459 1504.59,-330.025 1504.59,-330.025"/>
</g>
<!-- Assessment&#45;&gt;User -->
<g id="edge4" class="edge"><title>Assessment&#45;&gt;User</title>
<path fill="none" stroke="#d15a1e" d="M813,-730.835C813,-698.48 813,-642.798 813,-595 813,-595 813,-595 813,-521 813,-480.553 810.655,-466.356 832,-432 840.84,-417.772 854.92,-405.783 867.896,-396.826"/>
<polygon fill="#d15a1e" stroke="#d15a1e" points="813,-730.869 808.5,-740.869 813,-735.869 813,-740.869 813,-740.869 813,-740.869 813,-735.869 817.5,-740.869 813,-730.869 813,-730.869"/>
<polygon fill="#d15a1e" stroke="#d15a1e" points="868.255,-396.591 879.088,-394.886 872.44,-393.855 876.625,-391.119 876.625,-391.119 876.625,-391.119 872.44,-393.855 874.163,-387.353 868.255,-396.591 868.255,-396.591"/>
</g>
<!-- Behavior -->
<g id="node4" class="node"><title>Behavior</title>
<ellipse fill="none" stroke="black" cx="914" cy="-162" rx="51.4931" ry="18"/>
<text text-anchor="middle" x="914" y="-158.3" font-family="Times,serif" font-size="14.00">Behavior</text>
</g>
<!-- Diagnosis -->
<g id="node14" class="node"><title>Diagnosis</title>
<ellipse fill="none" stroke="black" cx="1034" cy="-18" rx="55.3436" ry="18"/>
<text text-anchor="middle" x="1034" y="-14.3" font-family="Times,serif" font-size="14.00">Diagnosis</text>
</g>
<!-- Behavior&#45;&gt;Diagnosis -->
<g id="edge8" class="edge"><title>Behavior&#45;&gt;Diagnosis</title>
<path fill="none" stroke="#a098ec" d="M929.958,-137.43C942.77,-119.031 961.599,-93.1321 980,-72 988.761,-61.9384 999.07,-51.5184 1008.32,-42.608"/>
<ellipse fill="none" stroke="#a098ec" cx="927.463" cy="-141.041" rx="4.00002" ry="4.00002"/>
<polygon fill="#a098ec" stroke="#a098ec" points="1008.53,-42.4062 1018.88,-38.7822 1012.16,-38.9628 1015.78,-35.5194 1015.78,-35.5194 1015.78,-35.5194 1012.16,-38.9628 1012.68,-32.2565 1008.53,-42.4062 1008.53,-42.4062"/>
</g>
<!-- Reaction -->
<g id="node26" class="node"><title>Reaction</title>
<ellipse fill="none" stroke="black" cx="1074" cy="-90" rx="51.4931" ry="18"/>
<text text-anchor="middle" x="1074" y="-86.3" font-family="Times,serif" font-size="14.00">Reaction</text>
</g>
<!-- Behavior&#45;&gt;Reaction -->
<g id="edge7" class="edge"><title>Behavior&#45;&gt;Reaction</title>
<path fill="none" stroke="#de8676" d="M952.434,-144.185C977.108,-133.39 1009.09,-119.4 1034.05,-108.478"/>
<ellipse fill="none" stroke="#de8676" cx="948.514" cy="-145.9" rx="4.00002" ry="4.00002"/>
<polygon fill="#de8676" stroke="#de8676" points="1034.08,-108.464 1045.05,-108.578 1038.66,-106.459 1043.25,-104.455 1043.25,-104.455 1043.25,-104.455 1038.66,-106.459 1041.44,-100.333 1034.08,-108.464 1034.08,-108.464"/>
</g>
<!-- Scenario -->
<g id="node29" class="node"><title>Scenario</title>
<ellipse fill="none" stroke="black" cx="845" cy="-90" rx="51.0191" ry="18"/>
<text text-anchor="middle" x="845" y="-86.3" font-family="Times,serif" font-size="14.00">Scenario</text>
</g>
<!-- Behavior&#45;&gt;Scenario -->
<g id="edge6" class="edge"><title>Behavior&#45;&gt;Scenario</title>
<path fill="none" stroke="#6b0556" d="M892.247,-138.932C884.63,-131.204 876.048,-122.498 868.308,-114.646"/>
<ellipse fill="none" stroke="#6b0556" cx="895.189" cy="-141.916" rx="4.00002" ry="4.00002"/>
<polygon fill="#6b0556" stroke="#6b0556" points="867.937,-114.269 864.121,-103.988 864.427,-110.708 860.917,-107.147 860.917,-107.147 860.917,-107.147 864.427,-110.708 857.712,-110.306 867.937,-114.269 867.937,-114.269"/>
</g>
<!-- BingoGame -->
<g id="node5" class="node"><title>BingoGame</title>
<ellipse fill="none" stroke="black" cx="425" cy="-378" rx="64.0172" ry="18"/>
<text text-anchor="middle" x="425" y="-374.3" font-family="Times,serif" font-size="14.00">BingoGame</text>
</g>
<!-- Candidate -->
<g id="node6" class="node"><title>Candidate</title>
<ellipse fill="none" stroke="black" cx="464" cy="-234" rx="58.2422" ry="18"/>
<text text-anchor="middle" x="464" y="-230.3" font-family="Times,serif" font-size="14.00">Candidate</text>
</g>
<!-- BingoGame&#45;&gt;Candidate -->
<g id="edge10" class="edge"><title>BingoGame&#45;&gt;Candidate</title>
<path fill="none" stroke="#7ceeb2" d="M358.891,-367.182C297.262,-355.177 219.508,-330.946 253,-288 271.04,-264.868 344.871,-250.295 400.146,-242.41"/>
<polygon fill="#7ceeb2" stroke="#7ceeb2" points="359.182,-367.236 368.185,-373.498 364.097,-368.156 369.012,-369.075 369.012,-369.075 369.012,-369.075 364.097,-368.156 369.839,-364.651 359.182,-367.236 359.182,-367.236"/>
<polygon fill="#7ceeb2" stroke="#7ceeb2" points="400.328,-242.385 410.851,-245.473 405.281,-241.7 410.234,-241.015 410.234,-241.015 410.234,-241.015 405.281,-241.7 409.618,-236.558 400.328,-242.385 400.328,-242.385"/>
</g>
<!-- CandidateList -->
<g id="node8" class="node"><title>CandidateList</title>
<ellipse fill="none" stroke="black" cx="749" cy="-306" rx="76.5394" ry="18"/>
<text text-anchor="middle" x="749" y="-302.3" font-family="Times,serif" font-size="14.00">CandidateList</text>
</g>
<!-- BingoGame&#45;&gt;CandidateList -->
<g id="edge9" class="edge"><title>BingoGame&#45;&gt;CandidateList</title>
<path fill="none" stroke="#8b45f7" d="M482.081,-364.668C538.804,-352.413 625.645,-333.651 684.754,-320.88"/>
<ellipse fill="none" stroke="#8b45f7" cx="478.118" cy="-365.524" rx="4.00001" ry="4.00001"/>
<polygon fill="#8b45f7" stroke="#8b45f7" points="684.948,-320.838 695.673,-323.125 689.835,-319.783 694.723,-318.727 694.723,-318.727 694.723,-318.727 689.835,-319.783 693.772,-314.328 684.948,-320.838 684.948,-320.838"/>
</g>
<!-- Concept -->
<g id="node10" class="node"><title>Concept</title>
<ellipse fill="none" stroke="black" cx="464" cy="-306" rx="50.0684" ry="18"/>
<text text-anchor="middle" x="464" y="-302.3" font-family="Times,serif" font-size="14.00">Concept</text>
</g>
<!-- BingoGame&#45;&gt;Concept -->
<g id="edge11" class="edge"><title>BingoGame&#45;&gt;Concept</title>
<path fill="none" stroke="#cc6ca4" d="M439.325,-351.289C442.68,-345.267 446.255,-338.851 449.612,-332.824"/>
<polygon fill="#cc6ca4" stroke="#cc6ca4" points="439.308,-351.319 430.51,-357.865 436.874,-355.687 434.441,-360.055 434.441,-360.055 434.441,-360.055 436.874,-355.687 438.372,-362.245 439.308,-351.319 439.308,-351.319"/>
<polygon fill="#cc6ca4" stroke="#cc6ca4" points="449.779,-332.525 458.577,-325.979 452.213,-328.157 454.646,-323.789 454.646,-323.789 454.646,-323.789 452.213,-328.157 450.715,-321.599 449.779,-332.525 449.779,-332.525"/>
</g>
<!-- CandidateFeedback -->
<g id="node7" class="node"><title>CandidateFeedback</title>
<ellipse fill="none" stroke="black" cx="103" cy="-306" rx="103.012" ry="18"/>
<text text-anchor="middle" x="103" y="-302.3" font-family="Times,serif" font-size="14.00">CandidateFeedback</text>
</g>
<!-- CandidateFeedback&#45;&gt;Candidate -->
<g id="edge12" class="edge"><title>CandidateFeedback&#45;&gt;Candidate</title>
<path fill="none" stroke="#3a40ca" d="M177.33,-290.587C245.132,-277.44 343.943,-258.28 406.058,-246.235"/>
<ellipse fill="none" stroke="#3a40ca" cx="173.14" cy="-291.399" rx="4.00001" ry="4.00001"/>
<polygon fill="#3a40ca" stroke="#3a40ca" points="406.262,-246.196 416.936,-248.71 411.171,-245.244 416.079,-244.292 416.079,-244.292 416.079,-244.292 411.171,-245.244 415.223,-239.874 406.262,-246.196 406.262,-246.196"/>
</g>
<!-- CandidateList&#45;&gt;Candidate -->
<g id="edge13" class="edge"><title>CandidateList&#45;&gt;Candidate</title>
<path fill="none" stroke="#71bad1" d="M690.266,-290.574C639.739,-278.164 567.427,-260.403 518.247,-248.324"/>
<ellipse fill="none" stroke="#71bad1" cx="694.163" cy="-291.531" rx="4.00001" ry="4.00001"/>
<polygon fill="#71bad1" stroke="#71bad1" points="518.137,-248.297 509.5,-241.542 513.282,-247.104 508.426,-245.912 508.426,-245.912 508.426,-245.912 513.282,-247.104 507.353,-250.282 518.137,-248.297 518.137,-248.297"/>
</g>
<!-- CipCode -->
<g id="node9" class="node"><title>CipCode</title>
<ellipse fill="none" stroke="black" cx="1026" cy="-450" rx="50.5427" ry="18"/>
<text text-anchor="middle" x="1026" y="-446.3" font-family="Times,serif" font-size="14.00">CipCode</text>
</g>
<!-- CipCode&#45;&gt;User -->
<g id="edge14" class="edge"><title>CipCode&#45;&gt;User</title>
<path fill="none" stroke="#d74505" d="M992.601,-430.591C973.179,-419.886 948.869,-406.487 929.892,-396.027"/>
<ellipse fill="none" stroke="#d74505" cx="996.182" cy="-432.565" rx="4.00002" ry="4.00002"/>
<polygon fill="#d74505" stroke="#d74505" points="929.807,-395.98 923.221,-387.212 925.428,-393.567 921.049,-391.153 921.049,-391.153 921.049,-391.153 925.428,-393.567 918.877,-395.094 929.807,-395.98 929.807,-395.98"/>
</g>
<!-- Concept&#45;&gt;Candidate -->
<g id="edge15" class="edge"><title>Concept&#45;&gt;Candidate</title>
<path fill="none" stroke="#9da685" d="M464,-279.64C464,-274.063 464,-268.132 464,-262.476"/>
<ellipse fill="none" stroke="#9da685" cx="464" cy="-283.697" rx="4" ry="4"/>
<polygon fill="#9da685" stroke="#9da685" points="464,-262.104 468.5,-252.104 464,-257.104 464,-252.104 464,-252.104 464,-252.104 464,-257.104 459.5,-252.104 464,-262.104 464,-262.104"/>
</g>
<!-- ConsentForm -->
<g id="node11" class="node"><title>ConsentForm</title>
<ellipse fill="none" stroke="black" cx="229" cy="-594" rx="73.1654" ry="18"/>
<text text-anchor="middle" x="229" y="-590.3" font-family="Times,serif" font-size="14.00">ConsentForm</text>
</g>
<!-- ConsentLog -->
<g id="node12" class="node"><title>ConsentLog</title>
<ellipse fill="none" stroke="black" cx="329" cy="-306" rx="66.4165" ry="18"/>
<text text-anchor="middle" x="329" y="-302.3" font-family="Times,serif" font-size="14.00">ConsentLog</text>
</g>
<!-- ConsentForm&#45;&gt;ConsentLog -->
<g id="edge17" class="edge"><title>ConsentForm&#45;&gt;ConsentLog</title>
<path fill="none" stroke="#3e532f" d="M237.679,-568.177C256.39,-514.666 300.386,-388.837 319.668,-333.689"/>
<ellipse fill="none" stroke="#3e532f" cx="236.276" cy="-572.19" rx="4.00001" ry="4.00001"/>
<polygon fill="#3e532f" stroke="#3e532f" points="319.775,-333.384 327.323,-325.43 321.425,-328.665 323.075,-323.945 323.075,-323.945 323.075,-323.945 321.425,-328.665 318.827,-322.46 319.775,-333.384 319.775,-333.384"/>
</g>
<!-- Project -->
<g id="node25" class="node"><title>Project</title>
<ellipse fill="none" stroke="black" cx="407" cy="-522" rx="44.2946" ry="18"/>
<text text-anchor="middle" x="407" y="-518.3" font-family="Times,serif" font-size="14.00">Project</text>
</g>
<!-- ConsentForm&#45;&gt;Project -->
<g id="edge16" class="edge"><title>ConsentForm&#45;&gt;Project</title>
<path fill="none" stroke="#01bc55" d="M273.8,-575.382C302.419,-564.127 339.212,-549.658 366.873,-538.78"/>
<ellipse fill="none" stroke="#01bc55" cx="270.037" cy="-576.862" rx="4.00001" ry="4.00001"/>
<polygon fill="#01bc55" stroke="#01bc55" points="366.942,-538.753 377.896,-539.281 371.596,-536.923 376.249,-535.093 376.249,-535.093 376.249,-535.093 371.596,-536.923 374.602,-530.905 366.942,-538.753 366.942,-538.753"/>
</g>
<!-- Course -->
<g id="node13" class="node"><title>Course</title>
<ellipse fill="none" stroke="black" cx="673" cy="-594" rx="44.2946" ry="18"/>
<text text-anchor="middle" x="673" y="-590.3" font-family="Times,serif" font-size="14.00">Course</text>
</g>
<!-- Course&#45;&gt;BingoGame -->
<g id="edge20" class="edge"><title>Course&#45;&gt;BingoGame</title>
<path fill="none" stroke="#02eea1" d="M631.656,-579.965C627.383,-578.624 623.104,-577.283 619,-576 567.477,-559.895 543.927,-575.198 503,-540 461.528,-504.333 440.202,-441.543 430.931,-405.829"/>
<ellipse fill="none" stroke="#02eea1" cx="635.488" cy="-581.17" rx="4.00001" ry="4.00001"/>
<polygon fill="#02eea1" stroke="#02eea1" points="430.925,-405.805 432.899,-395.018 429.727,-400.951 428.53,-396.096 428.53,-396.096 428.53,-396.096 429.727,-400.951 424.161,-397.174 430.925,-405.805 430.925,-405.805"/>
</g>
<!-- Experience -->
<g id="node16" class="node"><title>Experience</title>
<ellipse fill="none" stroke="black" cx="1246" cy="-306" rx="63.5411" ry="18"/>
<text text-anchor="middle" x="1246" y="-302.3" font-family="Times,serif" font-size="14.00">Experience</text>
</g>
<!-- Course&#45;&gt;Experience -->
<g id="edge22" class="edge"><title>Course&#45;&gt;Experience</title>
<path fill="none" stroke="#00e698" d="M725.517,-593.64C892.824,-594.452 1408.36,-587.09 1511,-468 1546.33,-427.014 1467.45,-365.715 1459,-360 1416.98,-331.582 1361.06,-318.387 1317.06,-312.268"/>
<ellipse fill="none" stroke="#00e698" cx="721.345" cy="-593.616" rx="4" ry="4"/>
<polygon fill="#00e698" stroke="#00e698" points="1316.92,-312.251 1307.59,-306.501 1311.96,-311.607 1307.01,-310.963 1307.01,-310.963 1307.01,-310.963 1311.96,-311.607 1306.43,-315.426 1316.92,-312.251 1316.92,-312.251"/>
</g>
<!-- Course&#45;&gt;Project -->
<g id="edge18" class="edge"><title>Course&#45;&gt;Project</title>
<path fill="none" stroke="#e046a0" d="M631.929,-579.717C627.577,-578.416 623.207,-577.152 619,-576 551.207,-557.433 532.974,-557.892 465,-540 460.421,-538.795 455.654,-537.486 450.908,-536.148"/>
<ellipse fill="none" stroke="#e046a0" cx="635.875" cy="-580.92" rx="4.00001" ry="4.00001"/>
<polygon fill="#e046a0" stroke="#e046a0" points="450.875,-536.139 442.501,-529.058 446.068,-534.761 441.262,-533.384 441.262,-533.384 441.262,-533.384 446.068,-534.761 440.022,-537.71 450.875,-536.139 450.875,-536.139"/>
</g>
<!-- Roster -->
<g id="node28" class="node"><title>Roster</title>
<ellipse fill="none" stroke="black" cx="574" cy="-306" rx="41.394" ry="18"/>
<text text-anchor="middle" x="574" y="-302.3" font-family="Times,serif" font-size="14.00">Roster</text>
</g>
<!-- Course&#45;&gt;Roster -->
<g id="edge19" class="edge"><title>Course&#45;&gt;Roster</title>
<path fill="none" stroke="#0d89e1" d="M640.802,-574.83C607.453,-553.951 557.298,-516.263 536,-468 515.949,-422.563 540.327,-365.046 558.259,-332.503"/>
<ellipse fill="none" stroke="#0d89e1" cx="644.237" cy="-576.937" rx="4.00002" ry="4.00002"/>
<polygon fill="#0d89e1" stroke="#0d89e1" points="558.368,-332.312 567.239,-325.865 560.85,-327.972 563.332,-323.631 563.332,-323.631 563.332,-323.631 560.85,-327.972 559.426,-321.397 558.368,-332.312 558.368,-332.312"/>
</g>
<!-- Course&#45;&gt;User -->
<g id="edge21" class="edge"><title>Course&#45;&gt;User</title>
<path fill="none" stroke="#ae301e" d="M667.753,-565.922C662.594,-530.627 659.584,-469.049 692,-432 713.572,-407.345 803.906,-391.483 857.854,-384.016"/>
<polygon fill="#ae301e" stroke="#ae301e" points="667.783,-566.105 664.945,-576.697 668.585,-571.04 669.387,-575.975 669.387,-575.975 669.387,-575.975 668.585,-571.04 673.829,-575.253 667.783,-566.105 667.783,-566.105"/>
<polygon fill="#ae301e" stroke="#ae301e" points="857.893,-384.011 868.404,-387.137 862.848,-383.344 867.804,-382.677 867.804,-382.677 867.804,-382.677 862.848,-383.344 867.203,-378.217 857.893,-384.011 857.893,-384.011"/>
</g>
<!-- Diagnosis&#45;&gt;User -->
<g id="edge23" class="edge"><title>Diagnosis&#45;&gt;User</title>
<path fill="none" stroke="#efaea3" d="M1081.04,-34.0134C1100.12,-42.3489 1120.73,-54.6304 1134,-72 1158.61,-104.22 1154,-120.458 1154,-161 1154,-235 1154,-235 1154,-235 1154,-332.461 1010.06,-363.63 938.466,-373.105"/>
<ellipse fill="none" stroke="#efaea3" cx="1077.24" cy="-32.4345" rx="4.00002" ry="4.00002"/>
<ellipse fill="#efaea3" stroke="#efaea3" cx="934.492" cy="-373.606" rx="4.00001" ry="4.00001"/>
</g>
<!-- Email -->
<g id="node15" class="node"><title>Email</title>
<ellipse fill="none" stroke="black" cx="1012" cy="-306" rx="37.5442" ry="18"/>
<text text-anchor="middle" x="1012" y="-302.3" font-family="Times,serif" font-size="14.00">Email</text>
</g>
<!-- Experience&#45;&gt;Reaction -->
<g id="edge24" class="edge"><title>Experience&#45;&gt;Reaction</title>
<path fill="none" stroke="#6be99f" d="M1227.44,-281.912C1194.72,-241.197 1127.05,-157.01 1093.6,-115.388"/>
<ellipse fill="none" stroke="#6be99f" cx="1230" cy="-285.09" rx="4.00002" ry="4.00002"/>
<polygon fill="#6be99f" stroke="#6be99f" points="1093.46,-115.215 1090.71,-104.601 1090.33,-111.318 1087.2,-107.42 1087.2,-107.42 1087.2,-107.42 1090.33,-111.318 1083.69,-110.239 1093.46,-115.215 1093.46,-115.215"/>
</g>
<!-- FactorPack -->
<g id="node18" class="node"><title>FactorPack</title>
<ellipse fill="none" stroke="black" cx="547" cy="-594" rx="63.5411" ry="18"/>
<text text-anchor="middle" x="547" y="-590.3" font-family="Times,serif" font-size="14.00">FactorPack</text>
</g>
<!-- Factor&#45;&gt;FactorPack -->
<g id="edge25" class="edge"><title>Factor&#45;&gt;FactorPack</title>
<path fill="none" stroke="#6e54d6" d="M547,-637.665C547,-632.687 547,-627.491 547,-622.507"/>
<polygon fill="#6e54d6" stroke="#6e54d6" points="547,-637.697 542.5,-647.697 547,-642.697 547,-647.697 547,-647.697 547,-647.697 547,-642.697 551.5,-647.697 547,-637.697 547,-637.697"/>
<polygon fill="#6e54d6" stroke="#6e54d6" points="547,-622.104 551.5,-612.104 547,-617.104 547,-612.104 547,-612.104 547,-612.104 547,-617.104 542.5,-612.104 547,-622.104 547,-622.104"/>
</g>
<!-- FactorPack&#45;&gt;Project -->
<g id="edge26" class="edge"><title>FactorPack&#45;&gt;Project</title>
<path fill="none" stroke="#aa818c" d="M509.76,-574.38C488.98,-563.99 463.228,-551.114 442.702,-540.851"/>
<ellipse fill="none" stroke="#aa818c" cx="513.389" cy="-576.194" rx="4.00002" ry="4.00002"/>
<polygon fill="#aa818c" stroke="#aa818c" points="442.62,-540.81 435.688,-532.313 438.148,-538.574 433.675,-536.338 433.675,-536.338 433.675,-536.338 438.148,-538.574 431.663,-540.363 442.62,-540.81 442.62,-540.81"/>
</g>
<!-- Gender -->
<g id="node19" class="node"><title>Gender</title>
<ellipse fill="none" stroke="black" cx="1140" cy="-450" rx="44.271" ry="18"/>
<text text-anchor="middle" x="1140" y="-446.3" font-family="Times,serif" font-size="14.00">Gender</text>
</g>
<!-- Gender&#45;&gt;User -->
<g id="edge27" class="edge"><title>Gender&#45;&gt;User</title>
<path fill="none" stroke="#615e7e" d="M1098.1,-435.944C1093.68,-434.598 1089.25,-433.263 1085,-432 1034.1,-416.884 975.113,-400.22 937.45,-389.688"/>
<ellipse fill="none" stroke="#615e7e" cx="1102.18" cy="-437.192" rx="4.00001" ry="4.00001"/>
<polygon fill="#615e7e" stroke="#615e7e" points="937.049,-389.576 928.628,-382.552 932.233,-388.231 927.417,-386.886 927.417,-386.886 927.417,-386.886 932.233,-388.231 926.207,-391.22 937.049,-389.576 937.049,-389.576"/>
</g>
<!-- Group&#45;&gt;CandidateList -->
<g id="edge30" class="edge"><title>Group&#45;&gt;CandidateList</title>
<path fill="none" stroke="#3957a8" d="M1425.55,-435.368C1421.67,-434.149 1417.77,-433 1414,-432 1160.97,-364.912 1092.07,-373.382 835,-324 828.723,-322.794 822.19,-321.526 815.655,-320.249"/>
<ellipse fill="none" stroke="#3957a8" cx="1429.62" cy="-436.698" rx="4.00001" ry="4.00001"/>
<polygon fill="#3957a8" stroke="#3957a8" points="815.234,-320.167 806.286,-313.827 810.327,-319.205 805.421,-318.243 805.421,-318.243 805.421,-318.243 810.327,-319.205 804.555,-322.659 815.234,-320.167 815.234,-320.167"/>
</g>
<!-- GroupRevision -->
<g id="node22" class="node"><title>GroupRevision</title>
<ellipse fill="none" stroke="black" cx="1371" cy="-378" rx="78.9404" ry="18"/>
<text text-anchor="middle" x="1371" y="-374.3" font-family="Times,serif" font-size="14.00">GroupRevision</text>
</g>
<!-- Group&#45;&gt;GroupRevision -->
<g id="edge29" class="edge"><title>Group&#45;&gt;GroupRevision</title>
<path fill="none" stroke="#227f00" d="M1436.91,-429.15C1425.68,-420.605 1412.49,-410.568 1400.87,-401.727"/>
<ellipse fill="none" stroke="#227f00" cx="1440.31" cy="-431.733" rx="4.00002" ry="4.00002"/>
<polygon fill="#227f00" stroke="#227f00" points="1400.7,-401.594 1395.46,-391.958 1396.72,-398.567 1392.74,-395.539 1392.74,-395.539 1392.74,-395.539 1396.72,-398.567 1390.01,-399.12 1400.7,-401.594 1400.7,-401.594"/>
</g>
<!-- Group&#45;&gt;Installment -->
<g id="edge31" class="edge"><title>Group&#45;&gt;Installment</title>
<path fill="none" stroke="#7d6575" d="M1465.69,-423.558C1468.34,-398.444 1472.38,-360.164 1475.11,-334.393"/>
<ellipse fill="none" stroke="#7d6575" cx="1465.23" cy="-427.894" rx="4" ry="4"/>
<polygon fill="#7d6575" stroke="#7d6575" points="1475.13,-334.134 1480.66,-324.662 1475.66,-329.162 1476.18,-324.189 1476.18,-324.189 1476.18,-324.189 1475.66,-329.162 1471.71,-323.717 1475.13,-334.134 1475.13,-334.134"/>
</g>
<!-- Group&#45;&gt;User -->
<g id="edge28" class="edge"><title>Group&#45;&gt;User</title>
<path fill="none" stroke="#2262f5" d="M1424.37,-434.677C1420.89,-433.668 1417.4,-432.754 1414,-432 1368.26,-421.856 1055.44,-393.081 940.901,-382.75"/>
<polygon fill="#2262f5" stroke="#2262f5" points="1424.5,-434.718 1432.69,-442.008 1429.27,-436.217 1434.04,-437.715 1434.04,-437.715 1434.04,-437.715 1429.27,-436.217 1435.39,-433.422 1424.5,-434.718 1424.5,-434.718"/>
<polygon fill="#2262f5" stroke="#2262f5" points="940.728,-382.735 931.172,-377.356 935.748,-382.286 930.769,-381.838 930.769,-381.838 930.769,-381.838 935.748,-382.286 930.365,-386.32 940.728,-382.735 940.728,-382.735"/>
</g>
<!-- GroupProjectCount -->
<g id="node21" class="node"><title>GroupProjectCount</title>
<ellipse fill="none" stroke="black" cx="1304" cy="-450" rx="101.087" ry="18"/>
<text text-anchor="middle" x="1304" y="-446.3" font-family="Times,serif" font-size="14.00">GroupProjectCount</text>
</g>
<!-- GroupProjectCount&#45;&gt;User -->
<g id="edge32" class="edge"><title>GroupProjectCount&#45;&gt;User</title>
<path fill="none" stroke="#e11155" d="M1225.9,-435.502C1140.31,-420.708 1006.3,-397.546 939.578,-386.013"/>
<ellipse fill="none" stroke="#e11155" cx="1229.98" cy="-436.206" rx="4.00001" ry="4.00001"/>
<polygon fill="#e11155" stroke="#e11155" points="939.319,-385.969 930.231,-379.831 934.392,-385.117 929.465,-384.266 929.465,-384.266 929.465,-384.266 934.392,-385.117 928.698,-388.7 939.319,-385.969 939.319,-385.969"/>
</g>
<!-- Value -->
<g id="node34" class="node"><title>Value</title>
<ellipse fill="none" stroke="black" cx="1478" cy="-234" rx="36.096" ry="18"/>
<text text-anchor="middle" x="1478" y="-230.3" font-family="Times,serif" font-size="14.00">Value</text>
</g>
<!-- Installment&#45;&gt;Value -->
<g id="edge33" class="edge"><title>Installment&#45;&gt;Value</title>
<path fill="none" stroke="#e30a33" d="M1478,-279.64C1478,-274.063 1478,-268.132 1478,-262.476"/>
<ellipse fill="none" stroke="#e30a33" cx="1478" cy="-283.697" rx="4" ry="4"/>
<polygon fill="#e30a33" stroke="#e30a33" points="1478,-262.104 1482.5,-252.104 1478,-257.104 1478,-252.104 1478,-252.104 1478,-252.104 1478,-257.104 1473.5,-252.104 1478,-262.104 1478,-262.104"/>
</g>
<!-- Narrative -->
<g id="node24" class="node"><title>Narrative</title>
<ellipse fill="none" stroke="black" cx="900" cy="-306" rx="55.3436" ry="18"/>
<text text-anchor="middle" x="900" y="-302.3" font-family="Times,serif" font-size="14.00">Narrative</text>
</g>
<!-- Narrative&#45;&gt;Behavior -->
<g id="edge35" class="edge"><title>Narrative&#45;&gt;Behavior</title>
<path fill="none" stroke="#7906ab" d="M902.508,-279.558C905.051,-253.771 908.962,-214.104 911.501,-188.35"/>
<ellipse fill="none" stroke="#7906ab" cx="902.081" cy="-283.891" rx="4" ry="4"/>
<ellipse fill="#7906ab" stroke="#7906ab" cx="911.913" cy="-184.17" rx="4" ry="4"/>
</g>
<!-- Narrative&#45;&gt;Reaction -->
<g id="edge36" class="edge"><title>Narrative&#45;&gt;Reaction</title>
<path fill="none" stroke="#cd97f1" d="M947.807,-290.552C968.86,-282.158 992.504,-269.673 1009,-252 1044.79,-213.658 1061.96,-153.059 1069.28,-118.172"/>
<ellipse fill="none" stroke="#cd97f1" cx="943.923" cy="-292.035" rx="4.00001" ry="4.00001"/>
<polygon fill="#cd97f1" stroke="#cd97f1" points="1069.31,-118.033 1075.66,-109.096 1070.28,-113.128 1071.25,-108.223 1071.25,-108.223 1071.25,-108.223 1070.28,-113.128 1066.83,-107.35 1069.31,-118.033 1069.31,-118.033"/>
</g>
<!-- Week -->
<g id="node35" class="node"><title>Week</title>
<ellipse fill="none" stroke="black" cx="964" cy="-234" rx="36.096" ry="18"/>
<text text-anchor="middle" x="964" y="-230.3" font-family="Times,serif" font-size="14.00">Week</text>
</g>
<!-- Narrative&#45;&gt;Week -->
<g id="edge34" class="edge"><title>Narrative&#45;&gt;Week</title>
<path fill="none" stroke="#631fb7" d="M920.761,-282.293C927.622,-274.789 935.272,-266.421 942.208,-258.835"/>
<ellipse fill="none" stroke="#631fb7" cx="917.866" cy="-285.459" rx="4.00002" ry="4.00002"/>
<polygon fill="#631fb7" stroke="#631fb7" points="942.635,-258.368 952.703,-254.025 946.008,-254.678 949.382,-250.988 949.382,-250.988 949.382,-250.988 946.008,-254.678 946.061,-247.952 942.635,-258.368 942.635,-258.368"/>
</g>
<!-- Project&#45;&gt;Assessment -->
<g id="edge39" class="edge"><title>Project&#45;&gt;Assessment</title>
<path fill="none" stroke="#dab4a4" d="M412.536,-548.123C422.298,-585.571 446.509,-654.753 497,-684 590.333,-738.063 634.159,-687.48 737,-720 750.786,-724.359 765.157,-730.951 777.643,-737.427"/>
<ellipse fill="none" stroke="#dab4a4" cx="411.53" cy="-544.084" rx="4.00001" ry="4.00001"/>
<polygon fill="#dab4a4" stroke="#dab4a4" points="777.966,-737.6 784.66,-746.285 782.375,-739.958 786.783,-742.317 786.783,-742.317 786.783,-742.317 782.375,-739.958 788.906,-738.349 777.966,-737.6 777.966,-737.6"/>
</g>
<!-- Project&#45;&gt;BingoGame -->
<g id="edge38" class="edge"><title>Project&#45;&gt;BingoGame</title>
<path fill="none" stroke="#5ce9e8" d="M410.178,-495.929C413.359,-470.837 418.239,-432.338 421.522,-406.441"/>
<ellipse fill="none" stroke="#5ce9e8" cx="409.674" cy="-499.903" rx="4.00001" ry="4.00001"/>
<polygon fill="#5ce9e8" stroke="#5ce9e8" points="421.563,-406.11 427.285,-396.755 422.192,-401.15 422.821,-396.189 422.821,-396.189 422.821,-396.189 422.192,-401.15 418.357,-395.623 421.563,-406.11 421.563,-406.11"/>
</g>
<!-- Project&#45;&gt;Factor -->
<g id="edge41" class="edge"><title>Project&#45;&gt;Factor</title>
<path fill="none" stroke="#4b6de8" d="M422.973,-548.18C435.547,-566.931 454.204,-592.544 474,-612 486.553,-624.338 502.153,-636.057 515.705,-645.323"/>
<polygon fill="#4b6de8" stroke="#4b6de8" points="422.811,-547.934 421.069,-537.107 420.061,-543.758 417.311,-539.582 417.311,-539.582 417.311,-539.582 420.061,-543.758 413.553,-542.058 422.811,-547.934 422.811,-547.934"/>
<polygon fill="#4b6de8" stroke="#4b6de8" points="515.948,-645.485 521.763,-654.782 520.105,-648.262 524.263,-651.04 524.263,-651.04 524.263,-651.04 520.105,-648.262 526.763,-647.298 515.948,-645.485 515.948,-645.485"/>
</g>
<!-- Project&#45;&gt;Group -->
<g id="edge37" class="edge"><title>Project&#45;&gt;Group</title>
<path fill="none" stroke="#8d291c" d="M459.306,-520.185C638.733,-517.088 1228.39,-504.326 1414,-468 1417.46,-467.322 1421.01,-466.454 1424.54,-465.469"/>
<ellipse fill="none" stroke="#8d291c" cx="455.075" cy="-520.257" rx="4" ry="4"/>
<polygon fill="#8d291c" stroke="#8d291c" points="1424.8,-465.391 1435.68,-466.746 1429.57,-463.918 1434.35,-462.445 1434.35,-462.445 1434.35,-462.445 1429.57,-463.918 1433.03,-458.145 1424.8,-465.391 1424.8,-465.391"/>
</g>
<!-- Project&#45;&gt;User -->
<g id="edge40" class="edge"><title>Project&#45;&gt;User</title>
<path fill="none" stroke="#042788" d="M459.131,-514.41C502.865,-507.362 566.015,-493.56 616,-468 638.192,-456.652 636.635,-443.002 659,-432 723.7,-400.171 807.555,-387.269 857.087,-382.175"/>
<polygon fill="#042788" stroke="#042788" points="458.886,-514.448 448.315,-511.531 453.945,-515.213 449.004,-515.978 449.004,-515.978 449.004,-515.978 453.945,-515.213 449.692,-520.425 458.886,-514.448 458.886,-514.448"/>
<polygon fill="#042788" stroke="#042788" points="857.163,-382.168 867.551,-385.682 862.14,-381.686 867.117,-381.203 867.117,-381.203 867.117,-381.203 862.14,-381.686 866.682,-376.724 857.163,-382.168 857.163,-382.168"/>
</g>
<!-- Reaction&#45;&gt;Diagnosis -->
<g id="edge42" class="edge"><title>Reaction&#45;&gt;Diagnosis</title>
<path fill="none" stroke="#0fd2b7" d="M1060.28,-64.9976C1056.51,-58.3871 1052.4,-51.1939 1048.57,-44.502"/>
<ellipse fill="none" stroke="#0fd2b7" cx="1062.33" cy="-68.582" rx="4.00002" ry="4.00002"/>
<polygon fill="#0fd2b7" stroke="#0fd2b7" points="1048.56,-44.4714 1047.5,-33.5564 1046.07,-40.1302 1043.59,-35.789 1043.59,-35.789 1043.59,-35.789 1046.07,-40.1302 1039.69,-38.0216 1048.56,-44.4714 1048.56,-44.4714"/>
</g>
<!-- Role -->
<g id="node27" class="node"><title>Role</title>
<ellipse fill="none" stroke="black" cx="576" cy="-450" rx="31.2965" ry="18"/>
<text text-anchor="middle" x="576" y="-446.3" font-family="Times,serif" font-size="14.00">Role</text>
</g>
<!-- Role&#45;&gt;Roster -->
<g id="edge44" class="edge"><title>Role&#45;&gt;Roster</title>
<path fill="none" stroke="#c65d86" d="M575.642,-423.558C575.288,-398.444 574.749,-360.164 574.386,-334.393"/>
<ellipse fill="none" stroke="#c65d86" cx="575.702" cy="-427.872" rx="4" ry="4"/>
<polygon fill="#c65d86" stroke="#c65d86" points="574.383,-334.188 578.742,-324.126 574.313,-329.189 574.242,-324.189 574.242,-324.189 574.242,-324.189 574.313,-329.189 569.743,-324.253 574.383,-334.188 574.383,-334.188"/>
</g>
<!-- Role&#45;&gt;User -->
<g id="edge43" class="edge"><title>Role&#45;&gt;User</title>
<path fill="none" stroke="#9b379e" d="M608.099,-436.107C612.398,-434.606 616.78,-433.19 621,-432 703.633,-408.703 802.982,-392.517 857.727,-384.588"/>
<ellipse fill="none" stroke="#9b379e" cx="604.26" cy="-437.502" rx="4.00001" ry="4.00001"/>
<polygon fill="#9b379e" stroke="#9b379e" points="857.84,-384.572 868.376,-387.614 862.79,-383.866 867.74,-383.159 867.74,-383.159 867.74,-383.159 862.79,-383.866 867.104,-378.704 857.84,-384.572 857.84,-384.572"/>
</g>
<!-- Scenario&#45;&gt;Narrative -->
<g id="edge45" class="edge"><title>Scenario&#45;&gt;Narrative</title>
<path fill="none" stroke="#ac92b8" d="M845.472,-116.52C846.245,-134.469 848.189,-158.945 853,-180 861.07,-215.318 876.799,-254.092 887.831,-278.944"/>
<ellipse fill="none" stroke="#ac92b8" cx="845.321" cy="-112.274" rx="4" ry="4"/>
<polygon fill="#ac92b8" stroke="#ac92b8" points="887.833,-278.95 887.845,-289.916 889.89,-283.507 891.947,-288.065 891.947,-288.065 891.947,-288.065 889.89,-283.507 896.048,-286.214 887.833,-278.95 887.833,-278.95"/>
</g>
<!-- School -->
<g id="node30" class="node"><title>School</title>
<ellipse fill="none" stroke="black" cx="673" cy="-666" rx="41.394" ry="18"/>
<text text-anchor="middle" x="673" y="-662.3" font-family="Times,serif" font-size="14.00">School</text>
</g>
<!-- School&#45;&gt;Course -->
<g id="edge46" class="edge"><title>School&#45;&gt;Course</title>
<path fill="none" stroke="#dd5371" d="M673,-639.64C673,-634.063 673,-628.132 673,-622.476"/>
<ellipse fill="none" stroke="#dd5371" cx="673" cy="-643.697" rx="4" ry="4"/>
<polygon fill="#dd5371" stroke="#dd5371" points="673,-622.104 677.5,-612.104 673,-617.104 673,-612.104 673,-612.104 673,-612.104 673,-617.104 668.5,-612.104 673,-622.104 673,-622.104"/>
</g>
<!-- Style -->
<g id="node31" class="node"><title>Style</title>
<ellipse fill="none" stroke="black" cx="355" cy="-594" rx="34.1708" ry="18"/>
<text text-anchor="middle" x="355" y="-590.3" font-family="Times,serif" font-size="14.00">Style</text>
</g>
<!-- Style&#45;&gt;Project -->
<g id="edge47" class="edge"><title>Style&#45;&gt;Project</title>
<path fill="none" stroke="#522575" d="M371.966,-570.161C377.28,-563.008 383.168,-555.081 388.577,-547.8"/>
<ellipse fill="none" stroke="#522575" cx="369.446" cy="-573.554" rx="4.00002" ry="4.00002"/>
<polygon fill="#522575" stroke="#522575" points="388.68,-547.661 398.256,-542.317 391.662,-543.647 394.644,-539.633 394.644,-539.633 394.644,-539.633 391.662,-543.647 391.031,-536.95 388.68,-547.661 388.68,-547.661"/>
</g>
<!-- Theme -->
<g id="node32" class="node"><title>Theme</title>
<ellipse fill="none" stroke="black" cx="743" cy="-450" rx="42.3701" ry="18"/>
<text text-anchor="middle" x="743" y="-446.3" font-family="Times,serif" font-size="14.00">Theme</text>
</g>
<!-- Theme&#45;&gt;User -->
<g id="edge48" class="edge"><title>Theme&#45;&gt;User</title>
<path fill="none" stroke="#e771f4" d="M778.451,-433.093C804.438,-421.432 839.506,-405.696 865.118,-394.204"/>
<ellipse fill="none" stroke="#e771f4" cx="774.539" cy="-434.848" rx="4.00002" ry="4.00002"/>
<polygon fill="#e771f4" stroke="#e771f4" points="865.308,-394.118 876.274,-394.13 869.87,-392.071 874.432,-390.024 874.432,-390.024 874.432,-390.024 869.87,-392.071 872.59,-385.919 865.308,-394.118 865.308,-394.118"/>
</g>
<!-- User&#45;&gt;Candidate -->
<g id="edge53" class="edge"><title>User&#45;&gt;Candidate</title>
<path fill="none" stroke="#0b06bb" d="M858.937,-374.355C810.161,-369.747 726.45,-357.288 663,-324 642.111,-313.041 644.321,-299.979 624,-288 592.041,-269.161 552.496,-255.983 520.716,-247.479"/>
<ellipse fill="none" stroke="#0b06bb" cx="863.057" cy="-374.722" rx="4" ry="4"/>
<polygon fill="#0b06bb" stroke="#0b06bb" points="520.37,-247.39 511.819,-240.525 515.53,-246.135 510.69,-244.881 510.69,-244.881 510.69,-244.881 515.53,-246.135 509.561,-249.237 520.37,-247.39 520.37,-247.39"/>
</g>
<!-- User&#45;&gt;CandidateList -->
<g id="edge51" class="edge"><title>User&#45;&gt;CandidateList</title>
<path fill="none" stroke="#315656" d="M867.433,-362.269C845.222,-351.904 815.257,-337.92 791.026,-326.612"/>
<ellipse fill="none" stroke="#315656" cx="871.275" cy="-364.062" rx="4.00002" ry="4.00002"/>
<polygon fill="#315656" stroke="#315656" points="790.773,-326.494 783.614,-318.187 786.242,-324.38 781.711,-322.265 781.711,-322.265 781.711,-322.265 786.242,-324.38 779.808,-326.343 790.773,-326.494 790.773,-326.494"/>
</g>
<!-- User&#45;&gt;Concept -->
<g id="edge52" class="edge"><title>User&#45;&gt;Concept</title>
<path fill="none" stroke="#21f6fb" d="M859.275,-373.255C790.33,-366.345 644.272,-349.884 523,-324 518.895,-323.124 514.657,-322.115 510.424,-321.035"/>
<ellipse fill="none" stroke="#21f6fb" cx="863.314" cy="-373.656" rx="4" ry="4"/>
<polygon fill="#21f6fb" stroke="#21f6fb" points="510.283,-320.997 501.784,-314.068 505.452,-319.706 500.622,-318.415 500.622,-318.415 500.622,-318.415 505.452,-319.706 499.46,-322.763 510.283,-320.997 510.283,-320.997"/>
</g>
<!-- User&#45;&gt;ConsentLog -->
<g id="edge50" class="edge"><title>User&#45;&gt;ConsentLog</title>
<path fill="none" stroke="#670799" d="M859.018,-374.253C774.697,-368.123 572.61,-351.646 405,-324 399.189,-323.041 393.154,-321.917 387.141,-320.711"/>
<ellipse fill="none" stroke="#670799" cx="863.055" cy="-374.544" rx="4" ry="4"/>
<polygon fill="#670799" stroke="#670799" points="386.875,-320.655 378.002,-314.212 381.98,-319.637 377.085,-318.618 377.085,-318.618 377.085,-318.618 381.98,-319.637 376.168,-323.024 386.875,-320.655 386.875,-320.655"/>
</g>
<!-- User&#45;&gt;Email -->
<g id="edge49" class="edge"><title>User&#45;&gt;Email</title>
<path fill="none" stroke="#f8084c" d="M926.583,-359.913C943.147,-349.652 964.251,-336.579 981.337,-325.995"/>
<ellipse fill="none" stroke="#f8084c" cx="923.126" cy="-362.054" rx="4.00002" ry="4.00002"/>
<polygon fill="#f8084c" stroke="#f8084c" points="981.359,-325.981 992.23,-324.54 985.61,-323.348 989.86,-320.715 989.86,-320.715 989.86,-320.715 985.61,-323.348 987.49,-316.889 981.359,-325.981 981.359,-325.981"/>
</g>
<!-- User&#45;&gt;Experience -->
<g id="edge57" class="edge"><title>User&#45;&gt;Experience</title>
<path fill="none" stroke="#96d015" d="M939.241,-369.332C991.879,-359.243 1086.95,-340.816 1168,-324 1174.47,-322.657 1181.24,-321.224 1187.97,-319.782"/>
<polygon fill="#96d015" stroke="#96d015" points="939.118,-369.356 928.45,-366.816 934.207,-370.296 929.296,-371.236 929.296,-371.236 929.296,-371.236 934.207,-370.296 930.142,-375.656 939.118,-369.356 939.118,-369.356"/>
<polygon fill="#96d015" stroke="#96d015" points="1187.99,-319.778 1198.71,-322.07 1192.88,-318.724 1197.77,-317.671 1197.77,-317.671 1197.77,-317.671 1192.88,-318.724 1196.82,-313.272 1187.99,-319.778 1187.99,-319.778"/>
</g>
<!-- User&#45;&gt;Installment -->
<g id="edge54" class="edge"><title>User&#45;&gt;Installment</title>
<path fill="none" stroke="#90fb9c" d="M938.155,-372.266C1035.29,-360.523 1288.28,-329.937 1410.27,-315.188"/>
<ellipse fill="none" stroke="#90fb9c" cx="934.101" cy="-372.756" rx="4.00001" ry="4.00001"/>
<polygon fill="#90fb9c" stroke="#90fb9c" points="1410.31,-315.183 1420.78,-318.45 1415.28,-314.583 1420.24,-313.983 1420.24,-313.983 1420.24,-313.983 1415.28,-314.583 1419.7,-309.515 1410.31,-315.183 1410.31,-315.183"/>
</g>
<!-- User&#45;&gt;Narrative -->
<g id="edge58" class="edge"><title>User&#45;&gt;Narrative</title>
<path fill="none" stroke="#541e71" d="M899.39,-349.665C899.464,-344.552 899.54,-339.21 899.613,-334.104"/>
<polygon fill="#541e71" stroke="#541e71" points="899.39,-349.698 894.748,-359.632 899.319,-354.697 899.247,-359.697 899.247,-359.697 899.247,-359.697 899.319,-354.697 903.747,-359.761 899.39,-349.698 899.39,-349.698"/>
<polygon fill="#541e71" stroke="#541e71" points="899.613,-334.103 904.255,-324.169 899.684,-329.104 899.756,-324.104 899.756,-324.104 899.756,-324.104 899.684,-329.104 895.256,-324.04 899.613,-334.103 899.613,-334.103"/>
</g>
<!-- User&#45;&gt;Reaction -->
<g id="edge56" class="edge"><title>User&#45;&gt;Reaction</title>
<path fill="none" stroke="#43be14" d="M939.315,-375.567C976.488,-371.89 1030.01,-360.15 1058,-324 1104.96,-263.343 1091.25,-165.084 1080.89,-117.93"/>
<ellipse fill="none" stroke="#43be14" cx="935.164" cy="-375.925" rx="4" ry="4"/>
<polygon fill="#43be14" stroke="#43be14" points="1080.89,-117.889 1083.01,-107.132 1079.76,-113.018 1078.63,-108.147 1078.63,-108.147 1078.63,-108.147 1079.76,-113.018 1074.25,-109.161 1080.89,-117.889 1080.89,-117.889"/>
</g>
<!-- User&#45;&gt;Roster -->
<g id="edge55" class="edge"><title>User&#45;&gt;Roster</title>
<path fill="none" stroke="#896c82" d="M860.494,-370.664C808.033,-361.748 711.317,-344.299 630,-324 625.376,-322.846 620.567,-321.544 615.795,-320.187"/>
<ellipse fill="none" stroke="#896c82" cx="864.581" cy="-371.354" rx="4.00001" ry="4.00001"/>
<polygon fill="#896c82" stroke="#896c82" points="615.721,-320.165 607.389,-313.036 610.923,-318.76 606.124,-317.354 606.124,-317.354 606.124,-317.354 610.923,-318.76 604.859,-321.673 615.721,-320.165 615.721,-320.165"/>
</g>
<!-- Week&#45;&gt;Behavior -->
<g id="edge59" class="edge"><title>Week&#45;&gt;Behavior</title>
<path fill="none" stroke="#e2cf44" d="M947.687,-210.161C942.244,-202.542 936.174,-194.044 930.703,-186.384"/>
<ellipse fill="none" stroke="#e2cf44" cx="950.078" cy="-213.51" rx="4.00002" ry="4.00002"/>
<ellipse fill="#e2cf44" stroke="#e2cf44" cx="928.206" cy="-182.888" rx="4.00002" ry="4.00002"/>
</g>
<!-- Week&#45;&gt;Diagnosis -->
<g id="edge60" class="edge"><title>Week&#45;&gt;Diagnosis</title>
<path fill="none" stroke="#83ef98" d="M970.917,-208.016C979.886,-176.188 996.359,-119.597 1013,-72 1016.05,-63.2703 1019.67,-53.8526 1023.04,-45.412"/>
<ellipse fill="none" stroke="#83ef98" cx="969.778" cy="-212.08" rx="4.00001" ry="4.00001"/>
<polygon fill="#83ef98" stroke="#83ef98" points="1023.08,-45.3214 1031,-37.7409 1024.96,-40.6868 1026.83,-36.0522 1026.83,-36.0522 1026.83,-36.0522 1024.96,-40.6868 1022.66,-34.3634 1023.08,-45.3214 1023.08,-45.3214"/>
</g>
</g>
</svg>
