<?xml version="1.0" encoding="UTF-8" standalone="no"?>
<!DOCTYPE svg PUBLIC "-//W3C//DTD SVG 1.1//EN"
 "http://www.w3.org/Graphics/SVG/1.1/DTD/svg11.dtd">
<!-- Generated by graphviz version 2.36.0 (20140111.2315)
 -->
<!-- Title: models_diagram Pages: 1 -->
<svg width="1584pt" height="806pt"
 viewBox="0.00 0.00 1584.00 806.00" xmlns="http://www.w3.org/2000/svg" xmlns:xlink="http://www.w3.org/1999/xlink">
<g id="graph0" class="graph" transform="scale(1 1) rotate(0) translate(4 802)">
<title>models_diagram</title>
<polygon fill="none" stroke="none" points="-4,4 -4,-802 1580,-802 1580,4 -4,4"/>
<!-- _diagram_info -->
<g id="node1" class="node"><title>_diagram_info</title>
<text text-anchor="start" x="7.5" y="-783.6" font-family="Times,serif" font-size="13.00">Models diagram</text>
<text text-anchor="start" x="7.5" y="-769.6" font-family="Times,serif" font-size="13.00">Date: Apr 02 2017 &#45; 22:42</text>
<text text-anchor="start" x="7.5" y="-755.6" font-family="Times,serif" font-size="13.00">Migration version: 20170402134023</text>
<text text-anchor="start" x="7.5" y="-741.6" font-family="Times,serif" font-size="13.00">Generated by RailRoady 1.5.2</text>
<text text-anchor="start" x="7.5" y="-727.6" font-family="Times,serif" font-size="13.00">http://railroady.prestonlee.com</text>
</g>
<!-- AgeRange -->
<g id="node2" class="node"><title>AgeRange</title>
<ellipse fill="none" stroke="black" cx="953" cy="-450" rx="57.2688" ry="18"/>
<text text-anchor="middle" x="953" y="-446.3" font-family="Times,serif" font-size="14.00">AgeRange</text>
</g>
<!-- User -->
<g id="node33" class="node"><title>User</title>
<ellipse fill="none" stroke="black" cx="673" cy="-378" rx="32.2457" ry="18"/>
<text text-anchor="middle" x="673" y="-374.3" font-family="Times,serif" font-size="14.00">User</text>
</g>
<!-- AgeRange&#45;&gt;User -->
<g id="edge1" class="edge"><title>AgeRange&#45;&gt;User</title>
<path fill="none" stroke="#005a47" d="M901.918,-436.013C896.544,-434.655 891.161,-433.297 886,-432 825.226,-416.729 754.642,-399.208 711.927,-388.629"/>
<ellipse fill="none" stroke="#005a47" cx="905.88" cy="-437.016" rx="4.00001" ry="4.00001"/>
<polygon fill="#005a47" stroke="#005a47" points="711.657,-388.562 703.032,-381.791 706.804,-387.36 701.95,-386.159 701.95,-386.159 701.95,-386.159 706.804,-387.36 700.869,-390.527 711.657,-388.562 711.657,-388.562"/>
</g>
<!-- Assessment -->
<g id="node3" class="node"><title>Assessment</title>
<ellipse fill="none" stroke="black" cx="1292" cy="-522" rx="65.9423" ry="18"/>
<text text-anchor="middle" x="1292" y="-518.3" font-family="Times,serif" font-size="14.00">Assessment</text>
</g>
<!-- Factor -->
<g id="node17" class="node"><title>Factor</title>
<ellipse fill="none" stroke="black" cx="1405" cy="-450" rx="40.4202" ry="18"/>
<text text-anchor="middle" x="1405" y="-446.3" font-family="Times,serif" font-size="14.00">Factor</text>
</g>
<!-- Assessment&#45;&gt;Factor -->
<g id="edge3" class="edge"><title>Assessment&#45;&gt;Factor</title>
<path fill="none" stroke="#8cc209" d="M1325.98,-499.95C1341.1,-490.582 1358.8,-479.619 1373.61,-470.446"/>
<polygon fill="#8cc209" stroke="#8cc209" points="1325.86,-500.024 1314.99,-501.465 1321.61,-502.658 1317.36,-505.291 1317.36,-505.291 1317.36,-505.291 1321.61,-502.658 1319.73,-509.116 1325.86,-500.024 1325.86,-500.024"/>
<polygon fill="#8cc209" stroke="#8cc209" points="1373.91,-470.262 1384.78,-468.821 1378.16,-467.629 1382.41,-464.996 1382.41,-464.996 1382.41,-464.996 1378.16,-467.629 1380.04,-461.171 1373.91,-470.262 1373.91,-470.262"/>
</g>
<!-- Group -->
<g id="node20" class="node"><title>Group</title>
<ellipse fill="none" stroke="black" cx="1198" cy="-450" rx="39.4691" ry="18"/>
<text text-anchor="middle" x="1198" y="-446.3" font-family="Times,serif" font-size="14.00">Group</text>
</g>
<!-- Assessment&#45;&gt;Group -->
<g id="edge5" class="edge"><title>Assessment&#45;&gt;Group</title>
<path fill="none" stroke="#c0bbc9" d="M1262.02,-498.672C1250.49,-490.085 1237.37,-480.322 1226.03,-471.877"/>
<polygon fill="#c0bbc9" stroke="#c0bbc9" points="1262.18,-498.792 1267.51,-508.374 1266.19,-501.778 1270.2,-504.765 1270.2,-504.765 1270.2,-504.765 1266.19,-501.778 1272.89,-501.155 1262.18,-498.792 1262.18,-498.792"/>
<polygon fill="#c0bbc9" stroke="#c0bbc9" points="1225.78,-471.69 1220.45,-462.108 1221.77,-468.703 1217.76,-465.717 1217.76,-465.717 1217.76,-465.717 1221.77,-468.703 1215.08,-469.326 1225.78,-471.69 1225.78,-471.69"/>
</g>
<!-- Installment -->
<g id="node23" class="node"><title>Installment</title>
<ellipse fill="none" stroke="black" cx="1331" cy="-306" rx="64.0172" ry="18"/>
<text text-anchor="middle" x="1331" y="-302.3" font-family="Times,serif" font-size="14.00">Installment</text>
</g>
<!-- Assessment&#45;&gt;Installment -->
<g id="edge2" class="edge"><title>Assessment&#45;&gt;Installment</title>
<path fill="none" stroke="#efcb4a" d="M1296.57,-495.945C1303.94,-455.483 1318.41,-376.072 1326.03,-334.249"/>
<ellipse fill="none" stroke="#efcb4a" cx="1295.84" cy="-499.914" rx="4.00001" ry="4.00001"/>
<polygon fill="#efcb4a" stroke="#efcb4a" points="1326.07,-334.07 1332.29,-325.039 1326.96,-329.151 1327.86,-324.232 1327.86,-324.232 1327.86,-324.232 1326.96,-329.151 1323.43,-323.426 1326.07,-334.07 1326.07,-334.07"/>
</g>
<!-- Assessment&#45;&gt;User -->
<g id="edge4" class="edge"><title>Assessment&#45;&gt;User</title>
<path fill="none" stroke="#e60913" d="M1244.84,-503.575C1216.96,-493.257 1180.96,-479.914 1149,-468 1106.3,-452.082 1097.17,-443.215 1053,-432 932.638,-401.436 786.054,-387.28 715.272,-381.844"/>
<polygon fill="#e60913" stroke="#e60913" points="1244.97,-503.621 1252.79,-511.311 1249.66,-505.356 1254.35,-507.091 1254.35,-507.091 1254.35,-507.091 1249.66,-505.356 1255.91,-502.87 1244.97,-503.621 1244.97,-503.621"/>
<polygon fill="#e60913" stroke="#e60913" points="714.956,-381.82 705.32,-376.587 709.97,-381.447 704.984,-381.074 704.984,-381.074 704.984,-381.074 709.97,-381.447 704.648,-385.562 714.956,-381.82 714.956,-381.82"/>
</g>
<!-- Behavior -->
<g id="node4" class="node"><title>Behavior</title>
<ellipse fill="none" stroke="black" cx="487" cy="-162" rx="51.4931" ry="18"/>
<text text-anchor="middle" x="487" y="-158.3" font-family="Times,serif" font-size="14.00">Behavior</text>
</g>
<!-- Diagnosis -->
<g id="node14" class="node"><title>Diagnosis</title>
<ellipse fill="none" stroke="black" cx="536" cy="-18" rx="55.3436" ry="18"/>
<text text-anchor="middle" x="536" y="-14.3" font-family="Times,serif" font-size="14.00">Diagnosis</text>
</g>
<!-- Behavior&#45;&gt;Diagnosis -->
<g id="edge8" class="edge"><title>Behavior&#45;&gt;Diagnosis</title>
<path fill="none" stroke="#3b7fcb" d="M477.201,-136.432C471.399,-117.947 466.801,-92.3992 476,-72 481.59,-59.6032 491.672,-48.9404 501.995,-40.497"/>
<ellipse fill="none" stroke="#3b7fcb" cx="478.53" cy="-140.347" rx="4.00001" ry="4.00001"/>
<polygon fill="#3b7fcb" stroke="#3b7fcb" points="502.291,-40.2717 512.972,-37.79 506.268,-37.2412 510.245,-34.2107 510.245,-34.2107 510.245,-34.2107 506.268,-37.2412 507.518,-30.6314 502.291,-40.2717 502.291,-40.2717"/>
</g>
<!-- Reaction -->
<g id="node26" class="node"><title>Reaction</title>
<ellipse fill="none" stroke="black" cx="377" cy="-90" rx="51.4931" ry="18"/>
<text text-anchor="middle" x="377" y="-86.3" font-family="Times,serif" font-size="14.00">Reaction</text>
</g>
<!-- Behavior&#45;&gt;Reaction -->
<g id="edge7" class="edge"><title>Behavior&#45;&gt;Reaction</title>
<path fill="none" stroke="#363006" d="M456.653,-141.688C441.968,-132.343 424.326,-121.117 409.383,-111.607"/>
<ellipse fill="none" stroke="#363006" cx="460.028" cy="-143.836" rx="4.00002" ry="4.00002"/>
<polygon fill="#363006" stroke="#363006" points="409.375,-111.602 403.354,-102.437 405.157,-108.918 400.938,-106.233 400.938,-106.233 400.938,-106.233 405.157,-108.918 398.522,-110.03 409.375,-111.602 409.375,-111.602"/>
</g>
<!-- Scenario -->
<g id="node29" class="node"><title>Scenario</title>
<ellipse fill="none" stroke="black" cx="536" cy="-90" rx="51.0191" ry="18"/>
<text text-anchor="middle" x="536" y="-86.3" font-family="Times,serif" font-size="14.00">Scenario</text>
</g>
<!-- Behavior&#45;&gt;Scenario -->
<g id="edge6" class="edge"><title>Behavior&#45;&gt;Scenario</title>
<path fill="none" stroke="#2112f1" d="M503.359,-137.63C508.138,-130.803 513.383,-123.311 518.243,-116.367"/>
<ellipse fill="none" stroke="#2112f1" cx="500.906" cy="-141.134" rx="4.00002" ry="4.00002"/>
<polygon fill="#2112f1" stroke="#2112f1" points="518.396,-116.149 527.817,-110.537 521.263,-112.052 524.131,-107.956 524.131,-107.956 524.131,-107.956 521.263,-112.052 520.444,-105.376 518.396,-116.149 518.396,-116.149"/>
</g>
<!-- BingoGame -->
<g id="node5" class="node"><title>BingoGame</title>
<ellipse fill="none" stroke="black" cx="947" cy="-522" rx="64.0172" ry="18"/>
<text text-anchor="middle" x="947" y="-518.3" font-family="Times,serif" font-size="14.00">BingoGame</text>
</g>
<!-- CandidateList -->
<g id="node8" class="node"><title>CandidateList</title>
<ellipse fill="none" stroke="black" cx="1172" cy="-306" rx="76.5394" ry="18"/>
<text text-anchor="middle" x="1172" y="-302.3" font-family="Times,serif" font-size="14.00">CandidateList</text>
</g>
<!-- BingoGame&#45;&gt;CandidateList -->
<g id="edge9" class="edge"><title>BingoGame&#45;&gt;CandidateList</title>
<path fill="none" stroke="#eee7dc" d="M978.764,-500.637C991.915,-491.463 1006.89,-480.003 1019,-468 1061.62,-425.764 1057.38,-402.236 1100,-360 1111.47,-348.637 1125.5,-337.759 1138.12,-328.848"/>
<ellipse fill="none" stroke="#eee7dc" cx="975.378" cy="-502.957" rx="4.00002" ry="4.00002"/>
<polygon fill="#eee7dc" stroke="#eee7dc" points="1138.35,-328.688 1149.14,-326.715 1142.47,-325.85 1146.58,-323.011 1146.58,-323.011 1146.58,-323.011 1142.47,-325.85 1144.03,-319.306 1138.35,-328.688 1138.35,-328.688"/>
</g>
<!-- Candidate -->
<g id="node6" class="node"><title>Candidate</title>
<ellipse fill="none" stroke="black" cx="881" cy="-234" rx="58.2422" ry="18"/>
<text text-anchor="middle" x="881" y="-230.3" font-family="Times,serif" font-size="14.00">Candidate</text>
</g>
<!-- CandidateFeedback -->
<g id="node7" class="node"><title>CandidateFeedback</title>
<ellipse fill="none" stroke="black" cx="881" cy="-306" rx="103.012" ry="18"/>
<text text-anchor="middle" x="881" y="-302.3" font-family="Times,serif" font-size="14.00">CandidateFeedback</text>
</g>
<!-- CandidateFeedback&#45;&gt;Candidate -->
<g id="edge10" class="edge"><title>CandidateFeedback&#45;&gt;Candidate</title>
<path fill="none" stroke="#d87af8" d="M881,-279.64C881,-274.063 881,-268.132 881,-262.476"/>
<ellipse fill="none" stroke="#d87af8" cx="881" cy="-283.697" rx="4" ry="4"/>
<polygon fill="#d87af8" stroke="#d87af8" points="881,-262.104 885.5,-252.104 881,-257.104 881,-252.104 881,-252.104 881,-252.104 881,-257.104 876.5,-252.104 881,-262.104 881,-262.104"/>
</g>
<!-- CandidateList&#45;&gt;Candidate -->
<g id="edge11" class="edge"><title>CandidateList&#45;&gt;Candidate</title>
<path fill="none" stroke="#5681f6" d="M1112.66,-290.727C1060.7,-278.228 985.829,-260.217 935.393,-248.084"/>
<ellipse fill="none" stroke="#5681f6" cx="1116.76" cy="-291.711" rx="4.00001" ry="4.00001"/>
<polygon fill="#5681f6" stroke="#5681f6" points="935.369,-248.078 926.699,-241.364 930.507,-246.909 925.646,-245.74 925.646,-245.74 925.646,-245.74 930.507,-246.909 924.594,-250.115 935.369,-248.078 935.369,-248.078"/>
</g>
<!-- CipCode -->
<g id="node9" class="node"><title>CipCode</title>
<ellipse fill="none" stroke="black" cx="395" cy="-450" rx="50.5427" ry="18"/>
<text text-anchor="middle" x="395" y="-446.3" font-family="Times,serif" font-size="14.00">CipCode</text>
</g>
<!-- CipCode&#45;&gt;User -->
<g id="edge12" class="edge"><title>CipCode&#45;&gt;User</title>
<path fill="none" stroke="#3ee026" d="M440.956,-435.789C445.693,-434.484 450.439,-433.2 455,-432 517.246,-415.621 589.969,-398.303 633.706,-388.084"/>
<ellipse fill="none" stroke="#3ee026" cx="436.883" cy="-436.921" rx="4.00001" ry="4.00001"/>
<polygon fill="#3ee026" stroke="#3ee026" points="633.906,-388.037 644.667,-390.149 638.776,-386.902 643.645,-385.767 643.645,-385.767 643.645,-385.767 638.776,-386.902 642.624,-381.384 633.906,-388.037 633.906,-388.037"/>
</g>
<!-- Concept -->
<g id="node10" class="node"><title>Concept</title>
<ellipse fill="none" stroke="black" cx="710" cy="-306" rx="50.0684" ry="18"/>
<text text-anchor="middle" x="710" y="-302.3" font-family="Times,serif" font-size="14.00">Concept</text>
</g>
<!-- Concept&#45;&gt;Candidate -->
<g id="edge13" class="edge"><title>Concept&#45;&gt;Candidate</title>
<path fill="none" stroke="#ef9169" d="M749.44,-288.855C775.949,-278.003 810.88,-263.704 838.086,-252.567"/>
<ellipse fill="none" stroke="#ef9169" cx="745.465" cy="-290.482" rx="4.00001" ry="4.00001"/>
<polygon fill="#ef9169" stroke="#ef9169" points="838.106,-252.559 849.065,-252.935 842.733,-250.665 847.36,-248.771 847.36,-248.771 847.36,-248.771 842.733,-250.665 845.655,-244.606 838.106,-252.559 838.106,-252.559"/>
</g>
<!-- ConsentForm -->
<g id="node11" class="node"><title>ConsentForm</title>
<ellipse fill="none" stroke="black" cx="1449" cy="-666" rx="73.1654" ry="18"/>
<text text-anchor="middle" x="1449" y="-662.3" font-family="Times,serif" font-size="14.00">ConsentForm</text>
</g>
<!-- ConsentLog -->
<g id="node12" class="node"><title>ConsentLog</title>
<ellipse fill="none" stroke="black" cx="1510" cy="-306" rx="66.4165" ry="18"/>
<text text-anchor="middle" x="1510" y="-302.3" font-family="Times,serif" font-size="14.00">ConsentLog</text>
</g>
<!-- ConsentForm&#45;&gt;ConsentLog -->
<g id="edge15" class="edge"><title>ConsentForm&#45;&gt;ConsentLog</title>
<path fill="none" stroke="#9992dd" d="M1470.88,-642.306C1493.95,-615.89 1527,-569.871 1527,-523 1527,-523 1527,-523 1527,-449 1527,-408.931 1520.24,-362.949 1515.25,-334.433"/>
<ellipse fill="none" stroke="#9992dd" cx="1468.21" cy="-645.29" rx="4.00002" ry="4.00002"/>
<polygon fill="#9992dd" stroke="#9992dd" points="1515.22,-334.249 1517.87,-323.609 1514.33,-329.329 1513.44,-324.408 1513.44,-324.408 1513.44,-324.408 1514.33,-329.329 1509.01,-325.208 1515.22,-334.249 1515.22,-334.249"/>
</g>
<!-- Project -->
<g id="node25" class="node"><title>Project</title>
<ellipse fill="none" stroke="black" cx="1245" cy="-594" rx="44.2946" ry="18"/>
<text text-anchor="middle" x="1245" y="-590.3" font-family="Times,serif" font-size="14.00">Project</text>
</g>
<!-- ConsentForm&#45;&gt;Project -->
<g id="edge14" class="edge"><title>ConsentForm&#45;&gt;Project</title>
<path fill="none" stroke="#65f94b" d="M1400.33,-648.3C1365.96,-636.504 1320.33,-620.85 1287.44,-609.561"/>
<ellipse fill="none" stroke="#65f94b" cx="1404.42" cy="-649.704" rx="4.00001" ry="4.00001"/>
<polygon fill="#65f94b" stroke="#65f94b" points="1287.12,-609.453 1279.12,-601.951 1282.39,-607.83 1277.66,-606.207 1277.66,-606.207 1277.66,-606.207 1282.39,-607.83 1276.2,-610.464 1287.12,-609.453 1287.12,-609.453"/>
</g>
<!-- Course -->
<g id="node13" class="node"><title>Course</title>
<ellipse fill="none" stroke="black" cx="316" cy="-666" rx="44.2946" ry="18"/>
<text text-anchor="middle" x="316" y="-662.3" font-family="Times,serif" font-size="14.00">Course</text>
</g>
<!-- Course&#45;&gt;BingoGame -->
<g id="edge18" class="edge"><title>Course&#45;&gt;BingoGame</title>
<path fill="none" stroke="#3b48c7" d="M361.566,-654.746C473.869,-629.473 763.851,-564.216 888.562,-536.151"/>
<ellipse fill="none" stroke="#3b48c7" cx="357.485" cy="-655.664" rx="4.00001" ry="4.00001"/>
<polygon fill="#3b48c7" stroke="#3b48c7" points="888.925,-536.069 899.669,-538.264 893.803,-534.972 898.681,-533.874 898.681,-533.874 898.681,-533.874 893.803,-534.972 897.693,-529.484 888.925,-536.069 888.925,-536.069"/>
</g>
<!-- Experience -->
<g id="node16" class="node"><title>Experience</title>
<ellipse fill="none" stroke="black" cx="283" cy="-306" rx="63.5411" ry="18"/>
<text text-anchor="middle" x="283" y="-302.3" font-family="Times,serif" font-size="14.00">Experience</text>
</g>
<!-- Course&#45;&gt;Experience -->
<g id="edge20" class="edge"><title>Course&#45;&gt;Experience</title>
<path fill="none" stroke="#a5b523" d="M285.093,-646.206C250.131,-622.313 198,-577.541 198,-523 198,-523 198,-523 198,-449 198,-401.929 232.811,-356.95 257.878,-330.662"/>
<ellipse fill="none" stroke="#a5b523" cx="288.508" cy="-648.483" rx="4.00002" ry="4.00002"/>
<polygon fill="#a5b523" stroke="#a5b523" points="257.965,-330.574 268.184,-326.594 261.47,-327.007 264.974,-323.44 264.974,-323.44 264.974,-323.44 261.47,-327.007 261.764,-320.286 257.965,-330.574 257.965,-330.574"/>
</g>
<!-- Course&#45;&gt;Project -->
<g id="edge16" class="edge"><title>Course&#45;&gt;Project</title>
<path fill="none" stroke="#0568f1" d="M366.992,-661.158C528.372,-648.998 1026.97,-611.429 1191.62,-599.022"/>
<ellipse fill="none" stroke="#0568f1" cx="362.933" cy="-661.464" rx="4" ry="4"/>
<polygon fill="#0568f1" stroke="#0568f1" points="1192.01,-598.993 1202.31,-602.729 1196.99,-598.618 1201.98,-598.242 1201.98,-598.242 1201.98,-598.242 1196.99,-598.618 1201.64,-593.755 1192.01,-598.993 1192.01,-598.993"/>
</g>
<!-- Roster -->
<g id="node28" class="node"><title>Roster</title>
<ellipse fill="none" stroke="black" cx="160" cy="-306" rx="41.394" ry="18"/>
<text text-anchor="middle" x="160" y="-302.3" font-family="Times,serif" font-size="14.00">Roster</text>
</g>
<!-- Course&#45;&gt;Roster -->
<g id="edge17" class="edge"><title>Course&#45;&gt;Roster</title>
<path fill="none" stroke="#a0f874" d="M275.583,-650.784C254.803,-641.995 230.111,-629.099 212,-612 178.689,-580.55 160,-568.812 160,-523 160,-523 160,-523 160,-449 160,-408.996 160,-362.653 160,-334.08"/>
<ellipse fill="none" stroke="#a0f874" cx="279.34" cy="-652.321" rx="4.00002" ry="4.00002"/>
<polygon fill="#a0f874" stroke="#a0f874" points="160,-334.049 164.5,-324.049 160,-329.049 160,-324.049 160,-324.049 160,-324.049 160,-329.049 155.5,-324.049 160,-334.049 160,-334.049"/>
</g>
<!-- Course&#45;&gt;User -->
<g id="edge19" class="edge"><title>Course&#45;&gt;User</title>
<path fill="none" stroke="#6e0809" d="M308.697,-637.886C297.499,-589.614 282.499,-488.547 335,-432 374.258,-389.717 548.592,-381.087 630.376,-379.383"/>
<polygon fill="#6e0809" stroke="#6e0809" points="308.768,-638.176 306.77,-648.958 309.954,-643.033 311.141,-647.89 311.141,-647.89 311.141,-647.89 309.954,-643.033 315.513,-646.822 308.768,-638.176 308.768,-638.176"/>
<polygon fill="#6e0809" stroke="#6e0809" points="630.813,-379.375 640.893,-383.693 635.812,-379.284 640.811,-379.193 640.811,-379.193 640.811,-379.193 635.812,-379.284 640.729,-374.694 630.813,-379.375 630.813,-379.375"/>
</g>
<!-- Diagnosis&#45;&gt;User -->
<g id="edge21" class="edge"><title>Diagnosis&#45;&gt;User</title>
<path fill="none" stroke="#57cad6" d="M574.885,-36.7765C589.424,-45.3702 604.66,-57.0981 614,-72 674.119,-167.917 620.848,-214.889 651,-324 653.668,-333.655 657.634,-343.902 661.467,-352.786"/>
<ellipse fill="none" stroke="#57cad6" cx="571.319" cy="-34.7705" rx="4.00002" ry="4.00002"/>
<ellipse fill="#57cad6" stroke="#57cad6" cx="663.138" cy="-356.539" rx="4.00002" ry="4.00002"/>
</g>
<!-- Email -->
<g id="node15" class="node"><title>Email</title>
<ellipse fill="none" stroke="black" cx="1040" cy="-306" rx="37.5442" ry="18"/>
<text text-anchor="middle" x="1040" y="-302.3" font-family="Times,serif" font-size="14.00">Email</text>
</g>
<!-- Experience&#45;&gt;Reaction -->
<g id="edge22" class="edge"><title>Experience&#45;&gt;Reaction</title>
<path fill="none" stroke="#e84caa" d="M293.774,-280.472C311.628,-239.826 347.189,-158.867 365.506,-117.167"/>
<ellipse fill="none" stroke="#e84caa" cx="292.142" cy="-284.187" rx="4.00002" ry="4.00002"/>
<polygon fill="#e84caa" stroke="#e84caa" points="365.539,-117.091 373.681,-109.745 367.55,-112.513 369.561,-107.935 369.561,-107.935 369.561,-107.935 367.55,-112.513 365.441,-106.126 365.539,-117.091 365.539,-117.091"/>
</g>
<!-- FactorPack -->
<g id="node18" class="node"><title>FactorPack</title>
<ellipse fill="none" stroke="black" cx="1435" cy="-378" rx="63.5411" ry="18"/>
<text text-anchor="middle" x="1435" y="-374.3" font-family="Times,serif" font-size="14.00">FactorPack</text>
</g>
<!-- Factor&#45;&gt;FactorPack -->
<g id="edge23" class="edge"><title>Factor&#45;&gt;FactorPack</title>
<path fill="none" stroke="#42cefb" d="M1416.2,-422.858C1418.58,-417.308 1421.1,-411.441 1423.49,-405.865"/>
<polygon fill="#42cefb" stroke="#42cefb" points="1416.2,-422.863 1408.13,-430.282 1414.23,-427.459 1412.26,-432.055 1412.26,-432.055 1412.26,-432.055 1414.23,-427.459 1416.4,-433.828 1416.2,-422.863 1416.2,-422.863"/>
<polygon fill="#42cefb" stroke="#42cefb" points="1423.66,-405.467 1431.73,-398.048 1425.63,-400.871 1427.6,-396.275 1427.6,-396.275 1427.6,-396.275 1425.63,-400.871 1423.46,-394.503 1423.66,-405.467 1423.66,-405.467"/>
</g>
<!-- FactorPack&#45;&gt;Project -->
<g id="edge24" class="edge"><title>FactorPack&#45;&gt;Project</title>
<path fill="none" stroke="#9d753c" d="M1447.49,-403.476C1455.05,-421.663 1461.84,-446.875 1454,-468 1439.3,-507.589 1426.78,-516.052 1392,-540 1362.19,-560.526 1323.52,-574.052 1293.33,-582.3"/>
<ellipse fill="none" stroke="#9d753c" cx="1445.87" cy="-399.802" rx="4.00002" ry="4.00002"/>
<polygon fill="#9d753c" stroke="#9d753c" points="1293.11,-582.357 1282.3,-580.545 1288.28,-583.627 1283.44,-584.897 1283.44,-584.897 1283.44,-584.897 1288.28,-583.627 1284.58,-589.25 1293.11,-582.357 1293.11,-582.357"/>
</g>
<!-- Gender -->
<g id="node19" class="node"><title>Gender</title>
<ellipse fill="none" stroke="black" cx="509" cy="-450" rx="44.271" ry="18"/>
<text text-anchor="middle" x="509" y="-446.3" font-family="Times,serif" font-size="14.00">Gender</text>
</g>
<!-- Gender&#45;&gt;User -->
<g id="edge25" class="edge"><title>Gender&#45;&gt;User</title>
<path fill="none" stroke="#045d40" d="M546.335,-433.064C574.079,-421.222 611.641,-405.19 638.646,-393.663"/>
<ellipse fill="none" stroke="#045d40" cx="542.378" cy="-434.753" rx="4.00002" ry="4.00002"/>
<polygon fill="#045d40" stroke="#045d40" points="638.883,-393.562 649.847,-393.775 643.481,-391.599 648.08,-389.637 648.08,-389.637 648.08,-389.637 643.481,-391.599 646.314,-385.498 638.883,-393.562 638.883,-393.562"/>
</g>
<!-- Group&#45;&gt;CandidateList -->
<g id="edge28" class="edge"><title>Group&#45;&gt;CandidateList</title>
<path fill="none" stroke="#1c1db0" d="M1158.74,-435.768C1140.48,-427.416 1120.52,-414.613 1110,-396 1102.13,-382.07 1103.3,-374.532 1110,-360 1115.61,-347.822 1125.55,-337.402 1135.86,-329.105"/>
<ellipse fill="none" stroke="#1c1db0" cx="1162.75" cy="-437.497" rx="4.00002" ry="4.00002"/>
<polygon fill="#1c1db0" stroke="#1c1db0" points="1136.12,-328.91 1146.82,-326.515 1140.12,-325.912 1144.12,-322.914 1144.12,-322.914 1144.12,-322.914 1140.12,-325.912 1141.42,-319.313 1136.12,-328.91 1136.12,-328.91"/>
</g>
<!-- GroupRevision -->
<g id="node22" class="node"><title>GroupRevision</title>
<ellipse fill="none" stroke="black" cx="1198" cy="-378" rx="78.9404" ry="18"/>
<text text-anchor="middle" x="1198" y="-374.3" font-family="Times,serif" font-size="14.00">GroupRevision</text>
</g>
<!-- Group&#45;&gt;GroupRevision -->
<g id="edge27" class="edge"><title>Group&#45;&gt;GroupRevision</title>
<path fill="none" stroke="#dc0fa4" d="M1198,-423.64C1198,-418.063 1198,-412.132 1198,-406.476"/>
<ellipse fill="none" stroke="#dc0fa4" cx="1198" cy="-427.697" rx="4" ry="4"/>
<polygon fill="#dc0fa4" stroke="#dc0fa4" points="1198,-406.104 1202.5,-396.104 1198,-401.104 1198,-396.104 1198,-396.104 1198,-396.104 1198,-401.104 1193.5,-396.104 1198,-406.104 1198,-406.104"/>
</g>
<!-- Group&#45;&gt;Installment -->
<g id="edge29" class="edge"><title>Group&#45;&gt;Installment</title>
<path fill="none" stroke="#d7ef98" d="M1233.46,-433.465C1250.94,-424.466 1271.35,-411.78 1286,-396 1302.68,-378.04 1314.67,-352.729 1322.06,-333.688"/>
<ellipse fill="none" stroke="#d7ef98" cx="1229.76" cy="-435.31" rx="4.00002" ry="4.00002"/>
<polygon fill="#d7ef98" stroke="#d7ef98" points="1322.13,-333.489 1329.82,-325.668 1323.87,-328.799 1325.6,-324.109 1325.6,-324.109 1325.6,-324.109 1323.87,-328.799 1321.38,-322.55 1322.13,-333.489 1322.13,-333.489"/>
</g>
<!-- Group&#45;&gt;User -->
<g id="edge26" class="edge"><title>Group&#45;&gt;User</title>
<path fill="none" stroke="#433581" d="M1156.87,-436.2C1150.91,-434.624 1144.83,-433.162 1139,-432 984.474,-401.176 797.284,-386.668 715.114,-381.422"/>
<polygon fill="#433581" stroke="#433581" points="1157.07,-436.255 1165.5,-443.264 1161.88,-437.591 1166.7,-438.928 1166.7,-438.928 1166.7,-438.928 1161.88,-437.591 1167.9,-434.591 1157.07,-436.255 1157.07,-436.255"/>
<polygon fill="#433581" stroke="#433581" points="714.906,-381.409 705.206,-376.294 709.916,-381.097 704.925,-380.785 704.925,-380.785 704.925,-380.785 709.916,-381.097 704.644,-385.276 714.906,-381.409 714.906,-381.409"/>
</g>
<!-- GroupProjectCount -->
<g id="node21" class="node"><title>GroupProjectCount</title>
<ellipse fill="none" stroke="black" cx="673" cy="-450" rx="101.087" ry="18"/>
<text text-anchor="middle" x="673" y="-446.3" font-family="Times,serif" font-size="14.00">GroupProjectCount</text>
</g>
<!-- GroupProjectCount&#45;&gt;User -->
<g id="edge30" class="edge"><title>GroupProjectCount&#45;&gt;User</title>
<path fill="none" stroke="#751fd5" d="M673,-423.64C673,-418.063 673,-412.132 673,-406.476"/>
<ellipse fill="none" stroke="#751fd5" cx="673" cy="-427.697" rx="4" ry="4"/>
<polygon fill="#751fd5" stroke="#751fd5" points="673,-406.104 677.5,-396.104 673,-401.104 673,-396.104 673,-396.104 673,-396.104 673,-401.104 668.5,-396.104 673,-406.104 673,-406.104"/>
</g>
<!-- Value -->
<g id="node34" class="node"><title>Value</title>
<ellipse fill="none" stroke="black" cx="1331" cy="-234" rx="36.096" ry="18"/>
<text text-anchor="middle" x="1331" y="-230.3" font-family="Times,serif" font-size="14.00">Value</text>
</g>
<!-- Installment&#45;&gt;Value -->
<g id="edge31" class="edge"><title>Installment&#45;&gt;Value</title>
<path fill="none" stroke="#dd5f6f" d="M1331,-279.64C1331,-274.063 1331,-268.132 1331,-262.476"/>
<ellipse fill="none" stroke="#dd5f6f" cx="1331" cy="-283.697" rx="4" ry="4"/>
<polygon fill="#dd5f6f" stroke="#dd5f6f" points="1331,-262.104 1335.5,-252.104 1331,-257.104 1331,-252.104 1331,-252.104 1331,-252.104 1331,-257.104 1326.5,-252.104 1331,-262.104 1331,-262.104"/>
</g>
<!-- Narrative -->
<g id="node24" class="node"><title>Narrative</title>
<ellipse fill="none" stroke="black" cx="525" cy="-306" rx="55.3436" ry="18"/>
<text text-anchor="middle" x="525" y="-302.3" font-family="Times,serif" font-size="14.00">Narrative</text>
</g>
<!-- Narrative&#45;&gt;Behavior -->
<g id="edge33" class="edge"><title>Narrative&#45;&gt;Behavior</title>
<path fill="none" stroke="#23b7f8" d="M518.291,-279.929C511.366,-254.053 500.626,-213.919 493.704,-188.051"/>
<ellipse fill="none" stroke="#23b7f8" cx="519.382" cy="-284.007" rx="4.00001" ry="4.00001"/>
<ellipse fill="#23b7f8" stroke="#23b7f8" cx="492.634" cy="-184.053" rx="4.00001" ry="4.00001"/>
</g>
<!-- Narrative&#45;&gt;Reaction -->
<g id="edge34" class="edge"><title>Narrative&#45;&gt;Reaction</title>
<path fill="none" stroke="#8f9c83" d="M504.985,-282.141C484.07,-257.724 450.896,-217.461 426,-180 412.491,-159.673 399.269,-135.317 389.972,-117.227"/>
<ellipse fill="none" stroke="#8f9c83" cx="507.673" cy="-285.263" rx="4.00002" ry="4.00002"/>
<polygon fill="#8f9c83" stroke="#8f9c83" points="389.758,-116.805 389.246,-105.851 387.495,-112.346 385.233,-107.887 385.233,-107.887 385.233,-107.887 387.495,-112.346 381.22,-109.923 389.758,-116.805 389.758,-116.805"/>
</g>
<!-- Week -->
<g id="node35" class="node"><title>Week</title>
<ellipse fill="none" stroke="black" cx="589" cy="-234" rx="36.096" ry="18"/>
<text text-anchor="middle" x="589" y="-230.3" font-family="Times,serif" font-size="14.00">Week</text>
</g>
<!-- Narrative&#45;&gt;Week -->
<g id="edge32" class="edge"><title>Narrative&#45;&gt;Week</title>
<path fill="none" stroke="#d4b176" d="M545.761,-282.293C552.622,-274.789 560.272,-266.421 567.208,-258.835"/>
<ellipse fill="none" stroke="#d4b176" cx="542.866" cy="-285.459" rx="4.00002" ry="4.00002"/>
<polygon fill="#d4b176" stroke="#d4b176" points="567.635,-258.368 577.703,-254.025 571.008,-254.678 574.382,-250.988 574.382,-250.988 574.382,-250.988 571.008,-254.678 571.061,-247.952 567.635,-258.368 567.635,-258.368"/>
</g>
<!-- Project&#45;&gt;Assessment -->
<g id="edge37" class="edge"><title>Project&#45;&gt;Assessment</title>
<path fill="none" stroke="#5293f7" d="M1260.69,-569.63C1265.28,-562.803 1270.31,-555.311 1274.97,-548.367"/>
<ellipse fill="none" stroke="#5293f7" cx="1258.37" cy="-573.09" rx="4.00002" ry="4.00002"/>
<polygon fill="#5293f7" stroke="#5293f7" points="1275.04,-548.258 1284.35,-542.465 1277.83,-544.107 1280.62,-539.956 1280.62,-539.956 1280.62,-539.956 1277.83,-544.107 1276.88,-537.448 1275.04,-548.258 1275.04,-548.258"/>
</g>
<!-- Project&#45;&gt;BingoGame -->
<g id="edge36" class="edge"><title>Project&#45;&gt;BingoGame</title>
<path fill="none" stroke="#a2675d" d="M1199.97,-582.423C1147.71,-570.148 1061.43,-549.88 1004.4,-536.483"/>
<ellipse fill="none" stroke="#a2675d" cx="1203.97" cy="-583.361" rx="4.00001" ry="4.00001"/>
<polygon fill="#a2675d" stroke="#a2675d" points="1004.19,-536.435 995.487,-529.767 999.326,-535.291 994.458,-534.148 994.458,-534.148 994.458,-534.148 999.326,-535.291 993.429,-538.529 1004.19,-536.435 1004.19,-536.435"/>
</g>
<!-- Project&#45;&gt;Factor -->
<g id="edge39" class="edge"><title>Project&#45;&gt;Factor</title>
<path fill="none" stroke="#726303" d="M1292.47,-581.552C1317.34,-573.482 1346.74,-560.39 1367,-540 1383.86,-523.029 1393.73,-497.399 1399.16,-477.995"/>
<polygon fill="#726303" stroke="#726303" points="1292.4,-581.573 1281.52,-580.203 1287.62,-583.039 1282.84,-584.506 1282.84,-584.506 1282.84,-584.506 1287.62,-583.039 1284.16,-588.808 1292.4,-581.573 1292.4,-581.573"/>
<polygon fill="#726303" stroke="#726303" points="1399.18,-477.907 1406.03,-469.343 1400.42,-473.065 1401.67,-468.222 1401.67,-468.222 1401.67,-468.222 1400.42,-473.065 1397.31,-467.101 1399.18,-477.907 1399.18,-477.907"/>
</g>
<!-- Project&#45;&gt;Group -->
<g id="edge35" class="edge"><title>Project&#45;&gt;Group</title>
<path fill="none" stroke="#517294" d="M1230.66,-569.254C1225.76,-560.329 1220.61,-549.935 1217,-540 1209.69,-519.858 1204.79,-496.079 1201.8,-478.169"/>
<ellipse fill="none" stroke="#517294" cx="1232.71" cy="-572.881" rx="4.00002" ry="4.00002"/>
<polygon fill="#517294" stroke="#517294" points="1201.78,-477.997 1204.67,-467.419 1201,-473.058 1200.22,-468.119 1200.22,-468.119 1200.22,-468.119 1201,-473.058 1195.78,-468.818 1201.78,-477.997 1201.78,-477.997"/>
</g>
<!-- Project&#45;&gt;User -->
<g id="edge38" class="edge"><title>Project&#45;&gt;User</title>
<path fill="none" stroke="#facf79" d="M1210.99,-574.178C1171.26,-551.456 1104.42,-510.917 1053,-468 1036.1,-453.897 1038.49,-442.221 1019,-432 966.85,-404.652 795.369,-388.337 715.117,-382.023"/>
<polygon fill="#facf79" stroke="#facf79" points="1211.07,-574.22 1217.54,-583.07 1215.42,-576.688 1219.76,-579.156 1219.76,-579.156 1219.76,-579.156 1215.42,-576.688 1221.99,-575.243 1211.07,-574.22 1211.07,-574.22"/>
<polygon fill="#facf79" stroke="#facf79" points="714.849,-382.002 705.225,-376.746 709.864,-381.617 704.878,-381.233 704.878,-381.233 704.878,-381.233 709.864,-381.617 704.532,-385.719 714.849,-382.002 714.849,-382.002"/>
</g>
<!-- Reaction&#45;&gt;Diagnosis -->
<g id="edge40" class="edge"><title>Reaction&#45;&gt;Diagnosis</title>
<path fill="none" stroke="#9b1a07" d="M415.094,-72.2289C439.173,-61.6281 470.282,-47.9325 494.914,-37.0883"/>
<ellipse fill="none" stroke="#9b1a07" cx="411.318" cy="-73.8915" rx="4.00002" ry="4.00002"/>
<polygon fill="#9b1a07" stroke="#9b1a07" points="495.197,-36.9638 506.162,-37.0529 499.773,-34.9491 504.349,-32.9344 504.349,-32.9344 504.349,-32.9344 499.773,-34.9491 502.536,-28.8159 495.197,-36.9638 495.197,-36.9638"/>
</g>
<!-- Role -->
<g id="node27" class="node"><title>Role</title>
<ellipse fill="none" stroke="black" cx="257" cy="-450" rx="31.2965" ry="18"/>
<text text-anchor="middle" x="257" y="-446.3" font-family="Times,serif" font-size="14.00">Role</text>
</g>
<!-- Role&#45;&gt;Roster -->
<g id="edge42" class="edge"><title>Role&#45;&gt;Roster</title>
<path fill="none" stroke="#0e4dce" d="M241.391,-426.15C223.793,-400.388 195.27,-358.633 177.087,-332.014"/>
<ellipse fill="none" stroke="#0e4dce" cx="243.805" cy="-429.684" rx="4.00002" ry="4.00002"/>
<polygon fill="#0e4dce" stroke="#0e4dce" points="176.988,-331.869 175.063,-321.074 174.168,-327.74 171.347,-323.612 171.347,-323.612 171.347,-323.612 174.168,-327.74 167.632,-326.15 176.988,-331.869 176.988,-331.869"/>
</g>
<!-- Role&#45;&gt;User -->
<g id="edge41" class="edge"><title>Role&#45;&gt;User</title>
<path fill="none" stroke="#a00ade" d="M289.048,-435.92C293.356,-434.45 297.754,-433.091 302,-432 418.881,-401.962 561.147,-387.629 630.659,-382.012"/>
<ellipse fill="none" stroke="#a00ade" cx="285.207" cy="-437.301" rx="4.00001" ry="4.00001"/>
<polygon fill="#a00ade" stroke="#a00ade" points="630.806,-382 641.129,-385.701 635.791,-381.607 640.776,-381.215 640.776,-381.215 640.776,-381.215 635.791,-381.607 640.422,-376.728 630.806,-382 630.806,-382"/>
</g>
<!-- Scenario&#45;&gt;Narrative -->
<g id="edge43" class="edge"><title>Scenario&#45;&gt;Narrative</title>
<path fill="none" stroke="#976399" d="M542.293,-116.039C544.208,-124.82 546.054,-134.79 547,-144 548.634,-159.916 548.392,-164.061 547,-180 544.031,-213.997 536.602,-252.609 531.197,-277.809"/>
<ellipse fill="none" stroke="#976399" cx="541.357" cy="-111.946" rx="4.00001" ry="4.00001"/>
<polygon fill="#976399" stroke="#976399" points="531.162,-277.967 524.627,-286.773 530.093,-282.852 529.023,-287.736 529.023,-287.736 529.023,-287.736 530.093,-282.852 533.419,-288.699 531.162,-277.967 531.162,-277.967"/>
</g>
<!-- School -->
<g id="node30" class="node"><title>School</title>
<ellipse fill="none" stroke="black" cx="316" cy="-759" rx="41.394" ry="18"/>
<text text-anchor="middle" x="316" y="-755.3" font-family="Times,serif" font-size="14.00">School</text>
</g>
<!-- School&#45;&gt;Course -->
<g id="edge44" class="edge"><title>School&#45;&gt;Course</title>
<path fill="none" stroke="#3176d5" d="M316,-732.729C316,-720.725 316,-706.362 316,-694.129"/>
<ellipse fill="none" stroke="#3176d5" cx="316" cy="-736.884" rx="4" ry="4"/>
<polygon fill="#3176d5" stroke="#3176d5" points="316,-694.04 320.5,-684.04 316,-689.04 316,-684.04 316,-684.04 316,-684.04 316,-689.04 311.5,-684.04 316,-694.04 316,-694.04"/>
</g>
<!-- Style -->
<g id="node31" class="node"><title>Style</title>
<ellipse fill="none" stroke="black" cx="1245" cy="-666" rx="34.1708" ry="18"/>
<text text-anchor="middle" x="1245" y="-662.3" font-family="Times,serif" font-size="14.00">Style</text>
</g>
<!-- Style&#45;&gt;Project -->
<g id="edge45" class="edge"><title>Style&#45;&gt;Project</title>
<path fill="none" stroke="#c7cacb" d="M1245,-639.64C1245,-634.063 1245,-628.132 1245,-622.476"/>
<ellipse fill="none" stroke="#c7cacb" cx="1245" cy="-643.697" rx="4" ry="4"/>
<polygon fill="#c7cacb" stroke="#c7cacb" points="1245,-622.104 1249.5,-612.104 1245,-617.104 1245,-612.104 1245,-612.104 1245,-612.104 1245,-617.104 1240.5,-612.104 1245,-622.104 1245,-622.104"/>
</g>
<!-- Theme -->
<g id="node32" class="node"><title>Theme</title>
<ellipse fill="none" stroke="black" cx="835" cy="-450" rx="42.3701" ry="18"/>
<text text-anchor="middle" x="835" y="-446.3" font-family="Times,serif" font-size="14.00">Theme</text>
</g>
<!-- Theme&#45;&gt;User -->
<g id="edge46" class="edge"><title>Theme&#45;&gt;User</title>
<path fill="none" stroke="#79b687" d="M798.887,-433.396C771.518,-421.569 734.157,-405.426 707.255,-393.801"/>
<ellipse fill="none" stroke="#79b687" cx="802.739" cy="-435.06" rx="4.00002" ry="4.00002"/>
<polygon fill="#79b687" stroke="#79b687" points="707.034,-393.706 699.639,-385.609 702.444,-391.723 697.855,-389.74 697.855,-389.74 697.855,-389.74 702.444,-391.723 696.07,-393.87 707.034,-393.706 707.034,-393.706"/>
</g>
<!-- User&#45;&gt;CandidateList -->
<g id="edge49" class="edge"><title>User&#45;&gt;CandidateList</title>
<path fill="none" stroke="#f98868" d="M712.565,-372.823C786.259,-364.843 949.454,-346.231 1086,-324 1092.66,-322.915 1099.6,-321.697 1106.51,-320.422"/>
<ellipse fill="none" stroke="#f98868" cx="708.427" cy="-373.269" rx="4" ry="4"/>
<polygon fill="#f98868" stroke="#f98868" points="1106.76,-320.375 1117.42,-322.948 1111.67,-319.45 1116.58,-318.525 1116.58,-318.525 1116.58,-318.525 1111.67,-319.45 1115.75,-314.103 1106.76,-320.375 1106.76,-320.375"/>
</g>
<!-- User&#45;&gt;ConsentLog -->
<g id="edge48" class="edge"><title>User&#45;&gt;ConsentLog</title>
<path fill="none" stroke="#888354" d="M713.384,-375.302C824.089,-370.383 1141.62,-354.494 1404,-324 1417.63,-322.416 1432.19,-320.337 1446.01,-318.178"/>
<ellipse fill="none" stroke="#888354" cx="709.153" cy="-375.489" rx="4" ry="4"/>
<polygon fill="#888354" stroke="#888354" points="1446.05,-318.172 1456.64,-321.042 1450.99,-317.385 1455.93,-316.599 1455.93,-316.599 1455.93,-316.599 1450.99,-317.385 1455.22,-312.155 1446.05,-318.172 1446.05,-318.172"/>
</g>
<!-- User&#45;&gt;Email -->
<g id="edge47" class="edge"><title>User&#45;&gt;Email</title>
<path fill="none" stroke="#871559" d="M712.958,-372.763C774.011,-365.758 893.872,-349.903 993,-324 996.009,-323.214 999.097,-322.314 1002.18,-321.349"/>
<ellipse fill="none" stroke="#871559" cx="708.717" cy="-373.243" rx="4.00001" ry="4.00001"/>
<polygon fill="#871559" stroke="#871559" points="1002.44,-321.262 1013.35,-322.367 1007.19,-319.68 1011.93,-318.098 1011.93,-318.098 1011.93,-318.098 1007.19,-319.68 1010.51,-313.829 1002.44,-321.262 1002.44,-321.262"/>
</g>
<!-- User&#45;&gt;Experience -->
<g id="edge53" class="edge"><title>User&#45;&gt;Experience</title>
<path fill="none" stroke="#6ebcea" d="M632.215,-370.69C572.525,-361.315 457.934,-342.786 361,-324 354.509,-322.742 347.729,-321.363 340.993,-319.951"/>
<polygon fill="#6ebcea" stroke="#6ebcea" points="632.478,-370.731 641.661,-376.723 637.418,-371.504 642.357,-372.278 642.357,-372.278 642.357,-372.278 637.418,-371.504 643.053,-367.832 632.478,-370.731 632.478,-370.731"/>
<polygon fill="#6ebcea" stroke="#6ebcea" points="340.975,-319.947 332.129,-313.467 336.085,-318.908 331.194,-317.869 331.194,-317.869 331.194,-317.869 336.085,-318.908 330.259,-322.271 340.975,-319.947 340.975,-319.947"/>
</g>
<!-- User&#45;&gt;Installment -->
<g id="edge50" class="edge"><title>User&#45;&gt;Installment</title>
<path fill="none" stroke="#4b67ed" d="M713.359,-375.221C808.536,-370.616 1054.26,-356.336 1257,-324 1262.84,-323.069 1268.9,-321.942 1274.93,-320.718"/>
<ellipse fill="none" stroke="#4b67ed" cx="709.154" cy="-375.421" rx="4" ry="4"/>
<polygon fill="#4b67ed" stroke="#4b67ed" points="1275.22,-320.656 1285.94,-322.982 1280.11,-319.618 1285,-318.58 1285,-318.58 1285,-318.58 1280.11,-319.618 1284.07,-314.178 1275.22,-320.656 1275.22,-320.656"/>
</g>
<!-- User&#45;&gt;Narrative -->
<g id="edge54" class="edge"><title>User&#45;&gt;Narrative</title>
<path fill="none" stroke="#0d7827" d="M639.987,-361.386C617.561,-350.779 587.798,-336.702 564.171,-325.527"/>
<polygon fill="#0d7827" stroke="#0d7827" points="640.181,-361.478 647.297,-369.821 644.701,-363.615 649.221,-365.753 649.221,-365.753 649.221,-365.753 644.701,-363.615 651.145,-361.685 640.181,-361.478 640.181,-361.478"/>
<polygon fill="#0d7827" stroke="#0d7827" points="564.159,-325.521 557.043,-317.177 559.639,-323.383 555.119,-321.245 555.119,-321.245 555.119,-321.245 559.639,-323.383 553.195,-325.313 564.159,-325.521 564.159,-325.521"/>
</g>
<!-- User&#45;&gt;Reaction -->
<g id="edge52" class="edge"><title>User&#45;&gt;Reaction</title>
<path fill="none" stroke="#ebec93" d="M632.334,-377.322C585.466,-375.558 508.665,-365.824 460,-324 397.932,-270.658 382.278,-167.6 378.331,-118.416"/>
<ellipse fill="none" stroke="#ebec93" cx="636.441" cy="-377.442" rx="4" ry="4"/>
<polygon fill="#ebec93" stroke="#ebec93" points="378.316,-118.202 382.11,-107.913 377.968,-113.214 377.621,-108.226 377.621,-108.226 377.621,-108.226 377.968,-113.214 373.132,-108.539 378.316,-118.202 378.316,-118.202"/>
</g>
<!-- User&#45;&gt;Roster -->
<g id="edge51" class="edge"><title>User&#45;&gt;Roster</title>
<path fill="none" stroke="#161902" d="M632.456,-375.272C551.339,-371.178 363.666,-358.501 210,-324 206.633,-323.244 203.175,-322.343 199.725,-321.355"/>
<ellipse fill="none" stroke="#161902" cx="636.897" cy="-375.49" rx="4" ry="4"/>
<polygon fill="#161902" stroke="#161902" points="199.667,-321.338 191.435,-314.093 194.889,-319.866 190.11,-318.394 190.11,-318.394 190.11,-318.394 194.889,-319.866 188.786,-322.694 199.667,-321.338 199.667,-321.338"/>
</g>
<!-- Week&#45;&gt;Behavior -->
<g id="edge55" class="edge"><title>Week&#45;&gt;Behavior</title>
<path fill="none" stroke="#5dc729" d="M561.632,-214.218C547.578,-204.573 530.449,-192.818 516.148,-183.004"/>
<ellipse fill="none" stroke="#5dc729" cx="565.061" cy="-216.571" rx="4.00002" ry="4.00002"/>
<ellipse fill="#5dc729" stroke="#5dc729" cx="512.678" cy="-180.622" rx="4.00002" ry="4.00002"/>
</g>
<!-- Week&#45;&gt;Diagnosis -->
<g id="edge56" class="edge"><title>Week&#45;&gt;Diagnosis</title>
<path fill="none" stroke="#bdf814" d="M596.68,-208.338C605.446,-175.585 616.145,-116.673 596,-72 590.41,-59.6032 580.328,-48.9404 570.005,-40.497"/>
<ellipse fill="none" stroke="#bdf814" cx="595.592" cy="-212.225" rx="4.00001" ry="4.00001"/>
<polygon fill="#bdf814" stroke="#bdf814" points="569.709,-40.2717 564.482,-30.6314 565.732,-37.2412 561.755,-34.2107 561.755,-34.2107 561.755,-34.2107 565.732,-37.2412 559.028,-37.79 569.709,-40.2717 569.709,-40.2717"/>
</g>
</g>
</svg>
