<?xml version="1.0" encoding="UTF-8" standalone="no"?>
<!DOCTYPE svg PUBLIC "-//W3C//DTD SVG 1.1//EN"
 "http://www.w3.org/Graphics/SVG/1.1/DTD/svg11.dtd">
<!-- Generated by graphviz version 2.38.0 (20140413.2041)
 -->
<!-- Title: models_diagram Pages: 1 -->
<svg width="1101pt" height="590pt"
 viewBox="0.00 0.00 1100.78 590.00" xmlns="http://www.w3.org/2000/svg" xmlns:xlink="http://www.w3.org/1999/xlink">
<g id="graph0" class="graph" transform="scale(1 1) rotate(0) translate(4 586)">
<title>models_diagram</title>
<polygon fill="none" stroke="none" points="-4,4 -4,-586 1096.78,-586 1096.78,4 -4,4"/>
<!-- _diagram_info -->
<g id="node1" class="node"><title>_diagram_info</title>
<text text-anchor="start" x="433.797" y="-567.6" font-family="Times,serif" font-size="13.00">Models diagram</text>
<text text-anchor="start" x="433.797" y="-553.6" font-family="Times,serif" font-size="13.00">Date: Apr 11 2017 &#45; 17:29</text>
<text text-anchor="start" x="433.797" y="-539.6" font-family="Times,serif" font-size="13.00">Migration version: 20170411010208</text>
<text text-anchor="start" x="433.797" y="-525.6" font-family="Times,serif" font-size="13.00">Generated by RailRoady 1.5.2</text>
<text text-anchor="start" x="433.797" y="-511.6" font-family="Times,serif" font-size="13.00">http://railroady.prestonlee.com</text>
</g>
<!-- GroupProjectCount -->
<g id="node2" class="node"><title>GroupProjectCount</title>
<ellipse fill="none" stroke="black" cx="265.797" cy="-450" rx="79.0865" ry="18"/>
<text text-anchor="middle" x="265.797" y="-446.3" font-family="Times,serif" font-size="14.00">GroupProjectCount</text>
</g>
<!-- User -->
<g id="node11" class="node"><title>User</title>
<ellipse fill="none" stroke="black" cx="399.797" cy="-378" rx="27.0966" ry="18"/>
<text text-anchor="middle" x="399.797" y="-374.3" font-family="Times,serif" font-size="14.00">User</text>
</g>
<!-- GroupProjectCount&#45;&gt;User -->
<g id="edge1" class="edge"><title>GroupProjectCount&#45;&gt;User</title>
<path fill="none" stroke="#9460b9" d="M303.238,-429.441C324.281,-418.448 350.191,-404.914 369.871,-394.633"/>
<ellipse fill="none" stroke="#9460b9" cx="299.415" cy="-431.439" rx="4.00002" ry="4.00002"/>
<polygon fill="#9460b9" stroke="#9460b9" points="370.12,-394.503 381.067,-393.861 374.552,-392.188 378.984,-389.873 378.984,-389.873 378.984,-389.873 374.552,-392.188 376.9,-385.884 370.12,-394.503 370.12,-394.503"/>
</g>
<!-- Theme -->
<g id="node3" class="node"><title>Theme</title>
<ellipse fill="none" stroke="black" cx="398.797" cy="-450" rx="35.9954" ry="18"/>
<text text-anchor="middle" x="398.797" y="-446.3" font-family="Times,serif" font-size="14.00">Theme</text>
</g>
<!-- Theme&#45;&gt;User -->
<g id="edge2" class="edge"><title>Theme&#45;&gt;User</title>
<path fill="none" stroke="#7135e9" d="M399.159,-423.64C399.239,-418.063 399.324,-412.132 399.404,-406.476"/>
<ellipse fill="none" stroke="#7135e9" cx="399.101" cy="-427.697" rx="4" ry="4"/>
<polygon fill="#7135e9" stroke="#7135e9" points="399.41,-406.103 404.052,-396.169 399.481,-401.104 399.553,-396.104 399.553,-396.104 399.553,-396.104 399.481,-401.104 395.053,-396.04 399.41,-406.103 399.41,-406.103"/>
</g>
<!-- FactorPack -->
<g id="node4" class="node"><title>FactorPack</title>
<ellipse fill="none" stroke="black" cx="849.797" cy="-378" rx="50.0912" ry="18"/>
<text text-anchor="middle" x="849.797" y="-374.3" font-family="Times,serif" font-size="14.00">FactorPack</text>
</g>
<!-- Project -->
<g id="node16" class="node"><title>Project</title>
<ellipse fill="none" stroke="black" cx="781.797" cy="-306" rx="35.9954" ry="18"/>
<text text-anchor="middle" x="781.797" y="-302.3" font-family="Times,serif" font-size="14.00">Project</text>
</g>
<!-- FactorPack&#45;&gt;Project -->
<g id="edge4" class="edge"><title>FactorPack&#45;&gt;Project</title>
<path fill="none" stroke="#a3486e" d="M828.275,-354.845C820.654,-347 812.061,-338.154 804.356,-330.222"/>
<ellipse fill="none" stroke="#a3486e" cx="831.238" cy="-357.896" rx="4.00002" ry="4.00002"/>
<polygon fill="#a3486e" stroke="#a3486e" points="803.983,-329.839 800.243,-319.53 800.499,-326.252 797.015,-322.666 797.015,-322.666 797.015,-322.666 800.499,-326.252 793.787,-325.801 803.983,-329.839 803.983,-329.839"/>
</g>
<!-- Factor -->
<g id="node21" class="node"><title>Factor</title>
<ellipse fill="none" stroke="black" cx="781.797" cy="-162" rx="33.2948" ry="18"/>
<text text-anchor="middle" x="781.797" y="-158.3" font-family="Times,serif" font-size="14.00">Factor</text>
</g>
<!-- FactorPack&#45;&gt;Factor -->
<g id="edge3" class="edge"><title>FactorPack&#45;&gt;Factor</title>
<path fill="none" stroke="#06278d" d="M843.415,-349.611C839.121,-331.916 833.108,-308.459 826.797,-288 816.16,-253.52 801.718,-214.499 792.094,-189.365"/>
<polygon fill="#06278d" stroke="#06278d" points="843.527,-350.08 841.477,-360.853 844.691,-354.943 845.854,-359.806 845.854,-359.806 845.854,-359.806 844.691,-354.943 850.23,-358.759 843.527,-350.08 843.527,-350.08"/>
<polygon fill="#06278d" stroke="#06278d" points="792.01,-189.146 792.612,-178.197 790.212,-184.481 788.413,-179.816 788.413,-179.816 788.413,-179.816 790.212,-184.481 784.215,-181.434 792.01,-189.146 792.01,-189.146"/>
</g>
<!-- Course -->
<g id="node5" class="node"><title>Course</title>
<ellipse fill="none" stroke="black" cx="692.797" cy="-450" rx="35.9954" ry="18"/>
<text text-anchor="middle" x="692.797" y="-446.3" font-family="Times,serif" font-size="14.00">Course</text>
</g>
<!-- Course&#45;&gt;User -->
<g id="edge8" class="edge"><title>Course&#45;&gt;User</title>
<path fill="none" stroke="#362093" d="M656.288,-434.667C653.432,-433.712 650.579,-432.809 647.797,-432 572.389,-410.056 551.541,-412.681 474.797,-396 461.852,-393.186 447.676,-390 435.167,-387.153"/>
<polygon fill="#362093" stroke="#362093" points="656.471,-434.731 664.404,-442.302 661.186,-436.395 665.901,-438.059 665.901,-438.059 665.901,-438.059 661.186,-436.395 667.398,-433.815 656.471,-434.731 656.471,-434.731"/>
<polygon fill="#362093" stroke="#362093" points="434.864,-387.083 426.117,-380.469 429.989,-385.97 425.115,-384.856 425.115,-384.856 425.115,-384.856 429.989,-385.97 424.112,-389.243 434.864,-387.083 434.864,-387.083"/>
</g>
<!-- Roster -->
<g id="node13" class="node"><title>Roster</title>
<ellipse fill="none" stroke="black" cx="33.797" cy="-306" rx="33.5952" ry="18"/>
<text text-anchor="middle" x="33.797" y="-302.3" font-family="Times,serif" font-size="14.00">Roster</text>
</g>
<!-- Course&#45;&gt;Roster -->
<g id="edge6" class="edge"><title>Course&#45;&gt;Roster</title>
<path fill="none" stroke="#5c0aa1" d="M658.363,-435.059C654.829,-433.911 651.264,-432.862 647.797,-432 524.323,-401.306 488.836,-419.522 363.797,-396 234.556,-371.688 201.991,-364.261 76.797,-324 74.2345,-323.176 71.6056,-322.276 68.9716,-321.334"/>
<ellipse fill="none" stroke="#5c0aa1" cx="662.217" cy="-436.393" rx="4.00001" ry="4.00001"/>
<polygon fill="#5c0aa1" stroke="#5c0aa1" points="68.8876,-321.303 61.0959,-313.587 64.204,-319.553 59.5205,-317.802 59.5205,-317.802 59.5205,-317.802 64.204,-319.553 57.945,-322.017 68.8876,-321.303 68.8876,-321.303"/>
</g>
<!-- Course&#45;&gt;Project -->
<g id="edge5" class="edge"><title>Course&#45;&gt;Project</title>
<path fill="none" stroke="#4cdf96" d="M720.021,-430.115C731.508,-420.961 744.187,-409.11 752.797,-396 765.16,-377.177 772.636,-352.654 776.893,-334.117"/>
<ellipse fill="none" stroke="#4cdf96" cx="716.605" cy="-432.743" rx="4.00002" ry="4.00002"/>
<polygon fill="#4cdf96" stroke="#4cdf96" points="776.912,-334.028 783.391,-325.181 777.95,-329.137 778.989,-324.247 778.989,-324.247 778.989,-324.247 777.95,-329.137 774.587,-323.312 776.912,-334.028 776.912,-334.028"/>
</g>
<!-- Experience -->
<g id="node33" class="node"><title>Experience</title>
<ellipse fill="none" stroke="black" cx="399.797" cy="-306" rx="50.0912" ry="18"/>
<text text-anchor="middle" x="399.797" y="-302.3" font-family="Times,serif" font-size="14.00">Experience</text>
</g>
<!-- Course&#45;&gt;Experience -->
<g id="edge9" class="edge"><title>Course&#45;&gt;Experience</title>
<path fill="none" stroke="#8262a4" d="M657.591,-435.559C654.286,-434.34 650.982,-433.137 647.797,-432 600.543,-415.131 586.111,-417.544 540.797,-396 500.221,-376.709 457.02,-348.097 429.29,-328.556"/>
<ellipse fill="none" stroke="#8262a4" cx="661.501" cy="-437.015" rx="4.00001" ry="4.00001"/>
<polygon fill="#8262a4" stroke="#8262a4" points="429.001,-328.35 423.462,-318.887 424.927,-325.452 420.853,-322.553 420.853,-322.553 420.853,-322.553 424.927,-325.452 418.244,-326.22 429.001,-328.35 429.001,-328.35"/>
</g>
<!-- BingoGame -->
<g id="node34" class="node"><title>BingoGame</title>
<ellipse fill="none" stroke="black" cx="927.797" cy="-234" rx="53.8905" ry="18"/>
<text text-anchor="middle" x="927.797" y="-230.3" font-family="Times,serif" font-size="14.00">BingoGame</text>
</g>
<!-- Course&#45;&gt;BingoGame -->
<g id="edge7" class="edge"><title>Course&#45;&gt;BingoGame</title>
<path fill="none" stroke="#df70a0" d="M735.532,-444.265C791.781,-437.105 886.191,-421.576 908.797,-396 941.398,-359.115 938.321,-297.477 933.099,-262.127"/>
<ellipse fill="none" stroke="#df70a0" cx="731.492" cy="-444.767" rx="4.00001" ry="4.00001"/>
<polygon fill="#df70a0" stroke="#df70a0" points="933.066,-261.926 935.888,-251.329 932.257,-256.992 931.447,-252.058 931.447,-252.058 931.447,-252.058 932.257,-256.992 927.007,-252.786 933.066,-261.926 933.066,-261.926"/>
</g>
<!-- Style -->
<g id="node6" class="node"><title>Style</title>
<ellipse fill="none" stroke="black" cx="714.797" cy="-378" rx="28.6953" ry="18"/>
<text text-anchor="middle" x="714.797" y="-374.3" font-family="Times,serif" font-size="14.00">Style</text>
</g>
<!-- Style&#45;&gt;Project -->
<g id="edge10" class="edge"><title>Style&#45;&gt;Project</title>
<path fill="none" stroke="#99f4a0" d="M734.758,-356.145C742.59,-347.963 751.608,-338.54 759.641,-330.148"/>
<ellipse fill="none" stroke="#99f4a0" cx="731.772" cy="-359.265" rx="4.00002" ry="4.00002"/>
<polygon fill="#99f4a0" stroke="#99f4a0" points="759.763,-330.021 769.928,-325.908 763.22,-326.409 766.677,-322.797 766.677,-322.797 766.677,-322.797 763.22,-326.409 763.426,-319.685 759.763,-330.021 759.763,-330.021"/>
</g>
<!-- Behavior -->
<g id="node7" class="node"><title>Behavior</title>
<ellipse fill="none" stroke="black" cx="214.797" cy="-162" rx="42.7926" ry="18"/>
<text text-anchor="middle" x="214.797" y="-158.3" font-family="Times,serif" font-size="14.00">Behavior</text>
</g>
<!-- Diagnosis -->
<g id="node20" class="node"><title>Diagnosis</title>
<ellipse fill="none" stroke="black" cx="162.797" cy="-18" rx="46.2923" ry="18"/>
<text text-anchor="middle" x="162.797" y="-14.3" font-family="Times,serif" font-size="14.00">Diagnosis</text>
</g>
<!-- Behavior&#45;&gt;Diagnosis -->
<g id="edge13" class="edge"><title>Behavior&#45;&gt;Diagnosis</title>
<path fill="none" stroke="#0d1198" d="M205.862,-136.6C196.619,-111.359 182.221,-72.0434 172.652,-45.913"/>
<ellipse fill="none" stroke="#0d1198" cx="207.252" cy="-140.397" rx="4.00001" ry="4.00001"/>
<polygon fill="#0d1198" stroke="#0d1198" points="172.559,-45.658 173.346,-34.7204 170.84,-40.9629 169.12,-36.2678 169.12,-36.2678 169.12,-36.2678 170.84,-40.9629 164.895,-37.8152 172.559,-45.658 172.559,-45.658"/>
</g>
<!-- Scenario -->
<g id="node29" class="node"><title>Scenario</title>
<ellipse fill="none" stroke="black" cx="251.797" cy="-90" rx="41.6928" ry="18"/>
<text text-anchor="middle" x="251.797" y="-86.3" font-family="Times,serif" font-size="14.00">Scenario</text>
</g>
<!-- Behavior&#45;&gt;Scenario -->
<g id="edge11" class="edge"><title>Behavior&#45;&gt;Scenario</title>
<path fill="none" stroke="#fb582b" d="M227.634,-136.714C231.023,-130.302 234.694,-123.358 238.126,-116.865"/>
<ellipse fill="none" stroke="#fb582b" cx="225.623" cy="-140.519" rx="4.00002" ry="4.00002"/>
<polygon fill="#fb582b" stroke="#fb582b" points="238.25,-116.63 246.901,-109.892 240.586,-112.209 242.923,-107.789 242.923,-107.789 242.923,-107.789 240.586,-112.209 238.944,-105.686 238.25,-116.63 238.25,-116.63"/>
</g>
<!-- Reaction -->
<g id="node30" class="node"><title>Reaction</title>
<ellipse fill="none" stroke="black" cx="353.797" cy="-90" rx="42.4939" ry="18"/>
<text text-anchor="middle" x="353.797" y="-86.3" font-family="Times,serif" font-size="14.00">Reaction</text>
</g>
<!-- Behavior&#45;&gt;Reaction -->
<g id="edge12" class="edge"><title>Behavior&#45;&gt;Reaction</title>
<path fill="none" stroke="#16d18f" d="M248.522,-144.016C269.654,-133.374 296.855,-119.676 318.313,-108.87"/>
<ellipse fill="none" stroke="#16d18f" cx="244.842" cy="-145.87" rx="4.00002" ry="4.00002"/>
<polygon fill="#16d18f" stroke="#16d18f" points="318.492,-108.779 329.448,-108.301 322.958,-106.531 327.424,-104.282 327.424,-104.282 327.424,-104.282 322.958,-106.531 325.4,-100.262 318.492,-108.779 318.492,-108.779"/>
</g>
<!-- CandidateFeedback -->
<g id="node8" class="node"><title>CandidateFeedback</title>
<ellipse fill="none" stroke="black" cx="761.797" cy="-90" rx="79.8859" ry="18"/>
<text text-anchor="middle" x="761.797" y="-86.3" font-family="Times,serif" font-size="14.00">CandidateFeedback</text>
</g>
<!-- Candidate -->
<g id="node25" class="node"><title>Candidate</title>
<ellipse fill="none" stroke="black" cx="978.797" cy="-18" rx="46.2923" ry="18"/>
<text text-anchor="middle" x="978.797" y="-14.3" font-family="Times,serif" font-size="14.00">Candidate</text>
</g>
<!-- CandidateFeedback&#45;&gt;Candidate -->
<g id="edge14" class="edge"><title>CandidateFeedback&#45;&gt;Candidate</title>
<path fill="none" stroke="#e9e92b" d="M813.095,-72.4522C850.166,-60.4938 899.714,-44.5108 934.946,-33.1455"/>
<ellipse fill="none" stroke="#e9e92b" cx="809.256" cy="-73.6906" rx="4.00001" ry="4.00001"/>
<polygon fill="#e9e92b" stroke="#e9e92b" points="934.964,-33.1396 945.863,-34.3522 939.723,-31.6046 944.481,-30.0695 944.481,-30.0695 944.481,-30.0695 939.723,-31.6046 943.1,-25.7868 934.964,-33.1396 934.964,-33.1396"/>
</g>
<!-- Installment -->
<g id="node9" class="node"><title>Installment</title>
<ellipse fill="none" stroke="black" cx="466.797" cy="-90" rx="50.8918" ry="18"/>
<text text-anchor="middle" x="466.797" y="-86.3" font-family="Times,serif" font-size="14.00">Installment</text>
</g>
<!-- Value -->
<g id="node28" class="node"><title>Value</title>
<ellipse fill="none" stroke="black" cx="466.797" cy="-18" rx="31.6951" ry="18"/>
<text text-anchor="middle" x="466.797" y="-14.3" font-family="Times,serif" font-size="14.00">Value</text>
</g>
<!-- Installment&#45;&gt;Value -->
<g id="edge15" class="edge"><title>Installment&#45;&gt;Value</title>
<path fill="none" stroke="#998d93" d="M466.797,-63.6398C466.797,-58.0629 466.797,-52.1319 466.797,-46.4761"/>
<ellipse fill="none" stroke="#998d93" cx="466.797" cy="-67.6966" rx="4" ry="4"/>
<polygon fill="#998d93" stroke="#998d93" points="466.797,-46.1043 471.297,-36.1043 466.797,-41.1043 466.797,-36.1043 466.797,-36.1043 466.797,-36.1043 466.797,-41.1043 462.297,-36.1044 466.797,-46.1043 466.797,-46.1043"/>
</g>
<!-- ConsentForm -->
<g id="node10" class="node"><title>ConsentForm</title>
<ellipse fill="none" stroke="black" cx="608.797" cy="-378" rx="59.2899" ry="18"/>
<text text-anchor="middle" x="608.797" y="-374.3" font-family="Times,serif" font-size="14.00">ConsentForm</text>
</g>
<!-- ConsentForm&#45;&gt;Project -->
<g id="edge16" class="edge"><title>ConsentForm&#45;&gt;Project</title>
<path fill="none" stroke="#5c8e3c" d="M650.529,-360.114C679.501,-348.391 717.723,-332.926 745.446,-321.708"/>
<ellipse fill="none" stroke="#5c8e3c" cx="646.684" cy="-361.67" rx="4.00001" ry="4.00001"/>
<polygon fill="#5c8e3c" stroke="#5c8e3c" points="745.512,-321.682 756.47,-322.102 750.147,-319.806 754.782,-317.931 754.782,-317.931 754.782,-317.931 750.147,-319.806 753.094,-313.759 745.512,-321.682 745.512,-321.682"/>
</g>
<!-- ConsentLog -->
<g id="node27" class="node"><title>ConsentLog</title>
<ellipse fill="none" stroke="black" cx="673.797" cy="-306" rx="53.8905" ry="18"/>
<text text-anchor="middle" x="673.797" y="-302.3" font-family="Times,serif" font-size="14.00">ConsentLog</text>
</g>
<!-- ConsentForm&#45;&gt;ConsentLog -->
<g id="edge17" class="edge"><title>ConsentForm&#45;&gt;ConsentLog</title>
<path fill="none" stroke="#ef09cb" d="M629.798,-354.384C636.66,-346.994 644.307,-338.758 651.276,-331.253"/>
<ellipse fill="none" stroke="#ef09cb" cx="626.923" cy="-357.48" rx="4.00002" ry="4.00002"/>
<polygon fill="#ef09cb" stroke="#ef09cb" points="651.699,-330.798 661.801,-326.532 655.101,-327.134 658.503,-323.47 658.503,-323.47 658.503,-323.47 655.101,-327.134 655.206,-320.408 651.699,-330.798 651.699,-330.798"/>
</g>
<!-- User&#45;&gt;Installment -->
<g id="edge23" class="edge"><title>User&#45;&gt;Installment</title>
<path fill="none" stroke="#fe185f" d="M426.201,-360.653C438.451,-351.515 451.821,-338.949 458.797,-324 490.726,-255.579 480.37,-163.153 472.401,-118.037"/>
<ellipse fill="none" stroke="#fe185f" cx="422.819" cy="-363.055" rx="4.00002" ry="4.00002"/>
<polygon fill="#fe185f" stroke="#fe185f" points="472.387,-117.966 474.977,-107.31 471.47,-113.05 470.553,-108.135 470.553,-108.135 470.553,-108.135 471.47,-113.05 466.129,-108.961 472.387,-117.966 472.387,-117.966"/>
</g>
<!-- User&#45;&gt;Roster -->
<g id="edge24" class="edge"><title>User&#45;&gt;Roster</title>
<path fill="none" stroke="#eeae98" d="M364.562,-373.712C304.621,-367.567 179.332,-352.329 76.797,-324 74.2025,-323.283 71.5499,-322.462 68.899,-321.577"/>
<ellipse fill="none" stroke="#eeae98" cx="368.597" cy="-374.118" rx="4" ry="4"/>
<polygon fill="#eeae98" stroke="#eeae98" points="68.8217,-321.55 60.9381,-313.927 64.1174,-319.855 59.4132,-318.161 59.4132,-318.161 59.4132,-318.161 64.1174,-319.855 57.8884,-322.395 68.8217,-321.55 68.8217,-321.55"/>
</g>
<!-- Group -->
<g id="node15" class="node"><title>Group</title>
<ellipse fill="none" stroke="black" cx="599.797" cy="-162" rx="33.2948" ry="18"/>
<text text-anchor="middle" x="599.797" y="-158.3" font-family="Times,serif" font-size="14.00">Group</text>
</g>
<!-- User&#45;&gt;Group -->
<g id="edge19" class="edge"><title>User&#45;&gt;Group</title>
<path fill="none" stroke="#9c462b" d="M432.926,-364.467C452.313,-355.684 476.006,-342.241 491.797,-324 525.612,-284.939 504.241,-257.66 534.797,-216 544.453,-202.835 558.119,-191.035 570.431,-181.93"/>
<polygon fill="#9c462b" stroke="#9c462b" points="432.71,-364.56 421.745,-364.388 428.119,-366.54 423.527,-368.52 423.527,-368.52 423.527,-368.52 428.119,-366.54 425.31,-372.652 432.71,-364.56 432.71,-364.56"/>
<polygon fill="#9c462b" stroke="#9c462b" points="570.521,-181.866 581.279,-179.742 574.597,-178.97 578.673,-176.073 578.673,-176.073 578.673,-176.073 574.597,-178.97 576.066,-172.405 570.521,-181.866 570.521,-181.866"/>
</g>
<!-- User&#45;&gt;Project -->
<g id="edge22" class="edge"><title>User&#45;&gt;Project</title>
<path fill="none" stroke="#4fe0a4" d="M436.55,-372.191C511.673,-362.202 680.472,-338.899 736.797,-324 739.598,-323.259 742.465,-322.407 745.331,-321.487"/>
<polygon fill="#4fe0a4" stroke="#4fe0a4" points="436.506,-372.196 426.002,-369.049 431.55,-372.853 426.593,-373.51 426.593,-373.51 426.593,-373.51 431.55,-372.853 427.184,-377.971 436.506,-372.196 436.506,-372.196"/>
<polygon fill="#4fe0a4" stroke="#4fe0a4" points="745.51,-321.426 756.431,-322.417 750.236,-319.795 754.963,-318.163 754.963,-318.163 754.963,-318.163 750.236,-319.795 753.495,-313.91 745.51,-321.426 745.51,-321.426"/>
</g>
<!-- Email -->
<g id="node18" class="node"><title>Email</title>
<ellipse fill="none" stroke="black" cx="117.797" cy="-306" rx="32.4942" ry="18"/>
<text text-anchor="middle" x="117.797" y="-302.3" font-family="Times,serif" font-size="14.00">Email</text>
</g>
<!-- User&#45;&gt;Email -->
<g id="edge18" class="edge"><title>User&#45;&gt;Email</title>
<path fill="none" stroke="#7efd2e" d="M365.775,-370.837C319.579,-362.134 234.646,-344.946 163.797,-324 160.24,-322.948 156.562,-321.763 152.907,-320.518"/>
<ellipse fill="none" stroke="#7efd2e" cx="369.733" cy="-371.577" rx="4.00001" ry="4.00001"/>
<polygon fill="#7efd2e" stroke="#7efd2e" points="152.808,-320.484 144.887,-312.9 148.095,-318.813 143.383,-317.142 143.383,-317.142 143.383,-317.142 148.095,-318.813 141.879,-321.383 152.808,-320.484 152.808,-320.484"/>
</g>
<!-- Narrative -->
<g id="node24" class="node"><title>Narrative</title>
<ellipse fill="none" stroke="black" cx="249.797" cy="-306" rx="44.393" ry="18"/>
<text text-anchor="middle" x="249.797" y="-302.3" font-family="Times,serif" font-size="14.00">Narrative</text>
</g>
<!-- User&#45;&gt;Narrative -->
<g id="edge27" class="edge"><title>User&#45;&gt;Narrative</title>
<path fill="none" stroke="#0f2c0f" d="M368.684,-362.481C344.935,-351.398 312.129,-336.088 286.993,-324.358"/>
<polygon fill="#0f2c0f" stroke="#0f2c0f" points="368.924,-362.592 376.083,-370.899 373.455,-364.707 377.986,-366.821 377.986,-366.821 377.986,-366.821 373.455,-364.707 379.889,-362.744 368.924,-362.592 368.924,-362.592"/>
<polygon fill="#0f2c0f" stroke="#0f2c0f" points="286.832,-324.283 279.673,-315.976 282.301,-322.169 277.77,-320.054 277.77,-320.054 277.77,-320.054 282.301,-322.169 275.867,-324.132 286.832,-324.283 286.832,-324.283"/>
</g>
<!-- User&#45;&gt;ConsentLog -->
<g id="edge20" class="edge"><title>User&#45;&gt;ConsentLog</title>
<path fill="none" stroke="#804e57" d="M433.009,-368.515C480.109,-356.482 566.739,-334.351 622.236,-320.173"/>
<ellipse fill="none" stroke="#804e57" cx="428.959" cy="-369.55" rx="4.00001" ry="4.00001"/>
<polygon fill="#804e57" stroke="#804e57" points="622.531,-320.097 633.333,-321.982 627.375,-318.86 632.22,-317.622 632.22,-317.622 632.22,-317.622 627.375,-318.86 631.106,-313.262 622.531,-320.097 622.531,-320.097"/>
</g>
<!-- User&#45;&gt;Reaction -->
<g id="edge25" class="edge"><title>User&#45;&gt;Reaction</title>
<path fill="none" stroke="#08fd5c" d="M373.175,-360.753C360.869,-351.64 347.516,-339.067 340.797,-324 324.704,-287.912 340.683,-171.543 349.202,-118.188"/>
<ellipse fill="none" stroke="#08fd5c" cx="376.583" cy="-363.152" rx="4.00002" ry="4.00002"/>
<polygon fill="#08fd5c" stroke="#08fd5c" points="349.237,-117.974 355.285,-108.827 350.04,-113.039 350.844,-108.104 350.844,-108.104 350.844,-108.104 350.04,-113.039 346.402,-107.381 349.237,-117.974 349.237,-117.974"/>
</g>
<!-- Assessment -->
<g id="node31" class="node"><title>Assessment</title>
<ellipse fill="none" stroke="black" cx="596.797" cy="-234" rx="52.7911" ry="18"/>
<text text-anchor="middle" x="596.797" y="-230.3" font-family="Times,serif" font-size="14.00">Assessment</text>
</g>
<!-- User&#45;&gt;Assessment -->
<g id="edge28" class="edge"><title>User&#45;&gt;Assessment</title>
<path fill="none" stroke="#60162d" d="M434.767,-368.314C462.551,-360.17 501.335,-345.922 529.797,-324 552.151,-306.782 570.787,-280.283 582.682,-260.674"/>
<polygon fill="#60162d" stroke="#60162d" points="434.695,-368.334 423.85,-366.708 429.882,-369.687 425.068,-371.041 425.068,-371.041 425.068,-371.041 429.882,-369.687 426.286,-375.373 434.695,-368.334 434.695,-368.334"/>
<polygon fill="#60162d" stroke="#60162d" points="582.748,-260.562 591.694,-254.22 585.281,-256.251 587.814,-251.94 587.814,-251.94 587.814,-251.94 585.281,-256.251 583.935,-249.66 582.748,-260.562 582.748,-260.562"/>
</g>
<!-- CandidateList -->
<g id="node32" class="node"><title>CandidateList</title>
<ellipse fill="none" stroke="black" cx="919.797" cy="-90" rx="59.5901" ry="18"/>
<text text-anchor="middle" x="919.797" y="-86.3" font-family="Times,serif" font-size="14.00">CandidateList</text>
</g>
<!-- User&#45;&gt;CandidateList -->
<g id="edge21" class="edge"><title>User&#45;&gt;CandidateList</title>
<path fill="none" stroke="#705559" d="M433.172,-369.17C466.395,-360.643 518.281,-345.316 559.797,-324 565.847,-320.894 653.953,-256.773 658.797,-252 701.534,-209.887 690.509,-178.216 739.797,-144 750.406,-136.635 816.938,-118.058 866.04,-104.986"/>
<ellipse fill="none" stroke="#705559" cx="429.025" cy="-370.214" rx="4.00001" ry="4.00001"/>
<polygon fill="#705559" stroke="#705559" points="866.251,-104.93 877.07,-106.717 871.084,-103.649 875.917,-102.368 875.917,-102.368 875.917,-102.368 871.084,-103.649 874.764,-98.0179 866.251,-104.93 866.251,-104.93"/>
</g>
<!-- User&#45;&gt;Experience -->
<g id="edge26" class="edge"><title>User&#45;&gt;Experience</title>
<path fill="none" stroke="#5db1fc" d="M399.797,-349.665C399.797,-344.687 399.797,-339.491 399.797,-334.507"/>
<polygon fill="#5db1fc" stroke="#5db1fc" points="399.797,-349.697 395.297,-359.697 399.797,-354.697 399.797,-359.697 399.797,-359.697 399.797,-359.697 399.797,-354.697 404.297,-359.697 399.797,-349.697 399.797,-349.697"/>
<polygon fill="#5db1fc" stroke="#5db1fc" points="399.797,-334.104 404.297,-324.104 399.797,-329.104 399.797,-324.104 399.797,-324.104 399.797,-324.104 399.797,-329.104 395.297,-324.104 399.797,-334.104 399.797,-334.104"/>
</g>
<!-- Concept -->
<g id="node12" class="node"><title>Concept</title>
<ellipse fill="none" stroke="black" cx="1037.8" cy="-90" rx="40.0939" ry="18"/>
<text text-anchor="middle" x="1037.8" y="-86.3" font-family="Times,serif" font-size="14.00">Concept</text>
</g>
<!-- Concept&#45;&gt;Candidate -->
<g id="edge29" class="edge"><title>Concept&#45;&gt;Candidate</title>
<path fill="none" stroke="#ebe7f4" d="M1018.79,-66.4478C1012.59,-59.0906 1005.68,-50.8898 999.365,-43.4031"/>
<ellipse fill="none" stroke="#ebe7f4" cx="1021.54" cy="-69.7061" rx="4.00002" ry="4.00002"/>
<polygon fill="#ebe7f4" stroke="#ebe7f4" points="999.261,-43.2797 996.257,-32.7333 996.039,-39.4565 992.817,-35.6334 992.817,-35.6334 992.817,-35.6334 996.039,-39.4565 989.376,-38.5335 999.261,-43.2797 999.261,-43.2797"/>
</g>
<!-- School -->
<g id="node14" class="node"><title>School</title>
<ellipse fill="none" stroke="black" cx="692.797" cy="-543" rx="35.194" ry="18"/>
<text text-anchor="middle" x="692.797" y="-539.3" font-family="Times,serif" font-size="14.00">School</text>
</g>
<!-- School&#45;&gt;Course -->
<g id="edge30" class="edge"><title>School&#45;&gt;Course</title>
<path fill="none" stroke="#a532d5" d="M692.797,-516.729C692.797,-504.725 692.797,-490.362 692.797,-478.129"/>
<ellipse fill="none" stroke="#a532d5" cx="692.797" cy="-520.884" rx="4" ry="4"/>
<polygon fill="#a532d5" stroke="#a532d5" points="692.797,-478.04 697.297,-468.04 692.797,-473.04 692.797,-468.04 692.797,-468.04 692.797,-468.04 692.797,-473.04 688.297,-468.04 692.797,-478.04 692.797,-478.04"/>
</g>
<!-- Group&#45;&gt;Installment -->
<g id="edge33" class="edge"><title>Group&#45;&gt;Installment</title>
<path fill="none" stroke="#05b865" d="M569.853,-145.24C550.014,-134.798 523.877,-121.042 502.89,-109.996"/>
<ellipse fill="none" stroke="#05b865" cx="573.394" cy="-147.104" rx="4.00002" ry="4.00002"/>
<polygon fill="#05b865" stroke="#05b865" points="502.798,-109.948 496.044,-101.308 498.373,-107.619 493.948,-105.29 493.948,-105.29 493.948,-105.29 498.373,-107.619 491.852,-109.272 502.798,-109.948 502.798,-109.948"/>
</g>
<!-- GroupRevision -->
<g id="node26" class="node"><title>GroupRevision</title>
<ellipse fill="none" stroke="black" cx="599.797" cy="-90" rx="64.189" ry="18"/>
<text text-anchor="middle" x="599.797" y="-86.3" font-family="Times,serif" font-size="14.00">GroupRevision</text>
</g>
<!-- Group&#45;&gt;GroupRevision -->
<g id="edge31" class="edge"><title>Group&#45;&gt;GroupRevision</title>
<path fill="none" stroke="#07f154" d="M599.797,-135.64C599.797,-130.063 599.797,-124.132 599.797,-118.476"/>
<ellipse fill="none" stroke="#07f154" cx="599.797" cy="-139.697" rx="4" ry="4"/>
<polygon fill="#07f154" stroke="#07f154" points="599.797,-118.104 604.297,-108.104 599.797,-113.104 599.797,-108.104 599.797,-108.104 599.797,-108.104 599.797,-113.104 595.297,-108.104 599.797,-118.104 599.797,-118.104"/>
</g>
<!-- Group&#45;&gt;CandidateList -->
<g id="edge32" class="edge"><title>Group&#45;&gt;CandidateList</title>
<path fill="none" stroke="#9f44d5" d="M638.262,-153.294C687.592,-143.317 775.741,-125.165 850.797,-108 855.51,-106.922 860.397,-105.776 865.294,-104.608"/>
<ellipse fill="none" stroke="#9f44d5" cx="634.314" cy="-154.092" rx="4.00001" ry="4.00001"/>
<polygon fill="#9f44d5" stroke="#9f44d5" points="865.587,-104.537 876.363,-106.568 870.448,-103.365 875.308,-102.193 875.308,-102.193 875.308,-102.193 870.448,-103.365 874.253,-97.8183 865.587,-104.537 865.587,-104.537"/>
</g>
<!-- Project&#45;&gt;Group -->
<g id="edge34" class="edge"><title>Project&#45;&gt;Group</title>
<path fill="none" stroke="#308d14" d="M756.43,-285.208C722.088,-258.414 661.097,-210.827 626.219,-183.615"/>
<ellipse fill="none" stroke="#308d14" cx="759.852" cy="-287.878" rx="4.00002" ry="4.00002"/>
<polygon fill="#308d14" stroke="#308d14" points="625.83,-183.312 620.714,-173.612 621.888,-180.236 617.946,-177.16 617.946,-177.16 617.946,-177.16 621.888,-180.236 615.178,-180.708 625.83,-183.312 625.83,-183.312"/>
</g>
<!-- Project&#45;&gt;Factor -->
<g id="edge37" class="edge"><title>Project&#45;&gt;Factor</title>
<path fill="none" stroke="#e1bd2e" d="M781.797,-277.679C781.797,-252.599 781.797,-215.627 781.797,-190.493"/>
<polygon fill="#e1bd2e" stroke="#e1bd2e" points="781.797,-277.871 777.297,-287.871 781.797,-282.871 781.797,-287.871 781.797,-287.871 781.797,-287.871 781.797,-282.871 786.297,-287.872 781.797,-277.871 781.797,-277.871"/>
<polygon fill="#e1bd2e" stroke="#e1bd2e" points="781.797,-190.189 786.297,-180.189 781.797,-185.189 781.797,-180.189 781.797,-180.189 781.797,-180.189 781.797,-185.189 777.297,-180.189 781.797,-190.189 781.797,-190.189"/>
</g>
<!-- Project&#45;&gt;Assessment -->
<g id="edge36" class="edge"><title>Project&#45;&gt;Assessment</title>
<path fill="none" stroke="#66c543" d="M746.414,-291.612C716.205,-280.181 672.641,-263.698 640.305,-251.462"/>
<ellipse fill="none" stroke="#66c543" cx="750.359" cy="-293.105" rx="4.00001" ry="4.00001"/>
<polygon fill="#66c543" stroke="#66c543" points="640.01,-251.351 632.25,-243.603 635.334,-249.582 630.657,-247.812 630.657,-247.812 630.657,-247.812 635.334,-249.582 629.065,-252.021 640.01,-251.351 640.01,-251.351"/>
</g>
<!-- Project&#45;&gt;BingoGame -->
<g id="edge35" class="edge"><title>Project&#45;&gt;BingoGame</title>
<path fill="none" stroke="#2c92cf" d="M814.369,-289.383C836.444,-278.799 865.723,-264.761 889.004,-253.599"/>
<ellipse fill="none" stroke="#2c92cf" cx="810.502" cy="-291.237" rx="4.00002" ry="4.00002"/>
<polygon fill="#2c92cf" stroke="#2c92cf" points="889.234,-253.489 900.197,-253.224 893.742,-251.328 898.251,-249.166 898.251,-249.166 898.251,-249.166 893.742,-251.328 896.306,-245.108 889.234,-253.489 889.234,-253.489"/>
</g>
<!-- Gender -->
<g id="node17" class="node"><title>Gender</title>
<ellipse fill="none" stroke="black" cx="488.797" cy="-450" rx="36.2938" ry="18"/>
<text text-anchor="middle" x="488.797" y="-446.3" font-family="Times,serif" font-size="14.00">Gender</text>
</g>
<!-- Gender&#45;&gt;User -->
<g id="edge38" class="edge"><title>Gender&#45;&gt;User</title>
<path fill="none" stroke="#7d57a3" d="M463.35,-428.985C451.233,-419.456 436.794,-408.098 424.742,-398.62"/>
<ellipse fill="none" stroke="#7d57a3" cx="466.778" cy="-431.682" rx="4.00002" ry="4.00002"/>
<polygon fill="#7d57a3" stroke="#7d57a3" points="424.699,-398.586 419.621,-388.866 420.769,-395.495 416.839,-392.404 416.839,-392.404 416.839,-392.404 420.769,-395.495 414.057,-395.941 424.699,-398.586 424.699,-398.586"/>
</g>
<!-- AgeRange -->
<g id="node19" class="node"><title>AgeRange</title>
<ellipse fill="none" stroke="black" cx="590.797" cy="-450" rx="48.1917" ry="18"/>
<text text-anchor="middle" x="590.797" y="-446.3" font-family="Times,serif" font-size="14.00">AgeRange</text>
</g>
<!-- AgeRange&#45;&gt;User -->
<g id="edge39" class="edge"><title>AgeRange&#45;&gt;User</title>
<path fill="none" stroke="#7a9456" d="M549.562,-433.888C514.521,-421.046 464.893,-402.857 432.529,-390.996"/>
<ellipse fill="none" stroke="#7a9456" cx="553.772" cy="-435.43" rx="4.00001" ry="4.00001"/>
<polygon fill="#7a9456" stroke="#7a9456" points="432.463,-390.972 424.623,-383.306 427.769,-389.251 423.074,-387.531 423.074,-387.531 423.074,-387.531 427.769,-389.251 421.526,-391.756 432.463,-390.972 432.463,-390.972"/>
</g>
<!-- Diagnosis&#45;&gt;User -->
<g id="edge40" class="edge"><title>Diagnosis&#45;&gt;User</title>
<path fill="none" stroke="#81aeac" d="M155.256,-43.9381C143.398,-87.3453 123.972,-179.117 146.797,-252 158.44,-289.179 164.855,-301.694 196.797,-324 223.954,-342.964 314.986,-361.733 365.425,-371.013"/>
<ellipse fill="none" stroke="#81aeac" cx="156.359" cy="-40.0169" rx="4.00001" ry="4.00001"/>
<ellipse fill="#81aeac" stroke="#81aeac" cx="369.518" cy="-371.757" rx="4.00001" ry="4.00001"/>
</g>
<!-- CipCode -->
<g id="node22" class="node"><title>CipCode</title>
<ellipse fill="none" stroke="black" cx="125.797" cy="-450" rx="42.4939" ry="18"/>
<text text-anchor="middle" x="125.797" y="-446.3" font-family="Times,serif" font-size="14.00">CipCode</text>
</g>
<!-- CipCode&#45;&gt;User -->
<g id="edge41" class="edge"><title>CipCode&#45;&gt;User</title>
<path fill="none" stroke="#988baa" d="M165.65,-435.606C169.739,-434.341 173.842,-433.117 177.797,-432 242.933,-413.611 319.978,-396.166 364.044,-386.592"/>
<ellipse fill="none" stroke="#988baa" cx="161.663" cy="-436.864" rx="4.00001" ry="4.00001"/>
<polygon fill="#988baa" stroke="#988baa" points="364.209,-386.557 374.933,-388.844 369.096,-385.501 373.983,-384.445 373.983,-384.445 373.983,-384.445 369.096,-385.501 373.033,-380.047 364.209,-386.557 364.209,-386.557"/>
</g>
<!-- Week -->
<g id="node23" class="node"><title>Week</title>
<ellipse fill="none" stroke="black" cx="187.797" cy="-234" rx="31.6951" ry="18"/>
<text text-anchor="middle" x="187.797" y="-230.3" font-family="Times,serif" font-size="14.00">Week</text>
</g>
<!-- Week&#45;&gt;Behavior -->
<g id="edge42" class="edge"><title>Week&#45;&gt;Behavior</title>
<path fill="none" stroke="#79946d" d="M197.229,-208.548C199.814,-201.846 202.618,-194.575 205.212,-187.851"/>
<ellipse fill="none" stroke="#79946d" cx="195.772" cy="-212.323" rx="4.00001" ry="4.00001"/>
<ellipse fill="#79946d" stroke="#79946d" cx="206.694" cy="-184.007" rx="4.00001" ry="4.00001"/>
</g>
<!-- Week&#45;&gt;Diagnosis -->
<g id="edge43" class="edge"><title>Week&#45;&gt;Diagnosis</title>
<path fill="none" stroke="#422a64" d="M173.945,-209.415C169.457,-200.507 165.056,-190.083 162.797,-180 152.477,-133.93 155.775,-78.5662 159.214,-46.2277"/>
<ellipse fill="none" stroke="#422a64" cx="175.822" cy="-212.964" rx="4.00002" ry="4.00002"/>
<polygon fill="#422a64" stroke="#422a64" points="159.225,-46.1249 164.836,-36.7033 159.795,-41.1575 160.366,-36.1901 160.366,-36.1901 160.366,-36.1901 159.795,-41.1575 155.895,-35.6769 159.225,-46.1249 159.225,-46.1249"/>
</g>
<!-- Narrative&#45;&gt;Behavior -->
<g id="edge45" class="edge"><title>Narrative&#45;&gt;Behavior</title>
<path fill="none" stroke="#26bcf9" d="M244.02,-279.721C239.898,-261.884 234.158,-237.442 228.797,-216 226.5,-206.81 223.872,-196.755 221.519,-187.896"/>
<ellipse fill="none" stroke="#26bcf9" cx="245.008" cy="-284.008" rx="4.00001" ry="4.00001"/>
<ellipse fill="#26bcf9" stroke="#26bcf9" cx="220.484" cy="-184.021" rx="4.00001" ry="4.00001"/>
</g>
<!-- Narrative&#45;&gt;Week -->
<g id="edge44" class="edge"><title>Narrative&#45;&gt;Week</title>
<path fill="none" stroke="#6a496a" d="M229.914,-282.551C223.152,-274.917 215.577,-266.365 208.735,-258.64"/>
<ellipse fill="none" stroke="#6a496a" cx="232.765" cy="-285.77" rx="4.00002" ry="4.00002"/>
<polygon fill="#6a496a" stroke="#6a496a" points="208.303,-258.152 205.041,-247.682 204.988,-254.409 201.672,-250.666 201.672,-250.666 201.672,-250.666 204.988,-254.409 198.304,-253.649 208.303,-258.152 208.303,-258.152"/>
</g>
<!-- Narrative&#45;&gt;Reaction -->
<g id="edge46" class="edge"><title>Narrative&#45;&gt;Reaction</title>
<path fill="none" stroke="#3ac30a" d="M263.476,-280.785C268.431,-271.811 273.989,-261.506 278.797,-252 302.51,-205.121 327.879,-149.329 342.197,-117.252"/>
<ellipse fill="none" stroke="#3ac30a" cx="261.428" cy="-284.468" rx="4.00002" ry="4.00002"/>
<polygon fill="#3ac30a" stroke="#3ac30a" points="342.206,-117.231 350.383,-109.924 344.239,-112.663 346.272,-108.095 346.272,-108.095 346.272,-108.095 344.239,-112.663 342.16,-106.265 342.206,-117.231 342.206,-117.231"/>
</g>
<!-- Scenario&#45;&gt;Narrative -->
<g id="edge47" class="edge"><title>Scenario&#45;&gt;Narrative</title>
<path fill="none" stroke="#9e94a1" d="M260.292,-115.629C262.93,-124.464 265.489,-134.572 266.797,-144 273.323,-191.023 263.837,-246.083 256.627,-278.103"/>
<ellipse fill="none" stroke="#9e94a1" cx="259.075" cy="-111.747" rx="4.00001" ry="4.00001"/>
<polygon fill="#9e94a1" stroke="#9e94a1" points="256.581,-278.299 249.915,-287.006 255.438,-283.167 254.296,-288.035 254.296,-288.035 254.296,-288.035 255.438,-283.167 258.677,-289.063 256.581,-278.299 256.581,-278.299"/>
</g>
<!-- Reaction&#45;&gt;Diagnosis -->
<g id="edge48" class="edge"><title>Reaction&#45;&gt;Diagnosis</title>
<path fill="none" stroke="#509617" d="M314.975,-74.7719C283.012,-63.0579 237.778,-46.4798 204.939,-34.4447"/>
<ellipse fill="none" stroke="#509617" cx="318.929" cy="-76.221" rx="4.00001" ry="4.00001"/>
<polygon fill="#509617" stroke="#509617" points="204.563,-34.307 196.722,-26.6407 199.869,-32.5865 195.174,-30.8659 195.174,-30.8659 195.174,-30.8659 199.869,-32.5865 193.625,-35.0911 204.563,-34.307 204.563,-34.307"/>
</g>
<!-- Assessment&#45;&gt;Installment -->
<g id="edge49" class="edge"><title>Assessment&#45;&gt;Installment</title>
<path fill="none" stroke="#695b00" d="M576.27,-210.578C552.401,-184.506 513.162,-141.645 488.715,-114.941"/>
<ellipse fill="none" stroke="#695b00" cx="579.183" cy="-213.76" rx="4.00002" ry="4.00002"/>
<polygon fill="#695b00" stroke="#695b00" points="488.689,-114.913 485.255,-104.498 485.312,-111.225 481.936,-107.537 481.936,-107.537 481.936,-107.537 485.312,-111.225 478.617,-110.575 488.689,-114.913 488.689,-114.913"/>
</g>
<!-- Assessment&#45;&gt;Group -->
<g id="edge51" class="edge"><title>Assessment&#45;&gt;Group</title>
<path fill="none" stroke="#a54a98" d="M597.968,-205.665C598.188,-200.552 598.417,-195.21 598.635,-190.104"/>
<polygon fill="#a54a98" stroke="#a54a98" points="597.967,-205.706 593.043,-215.504 597.753,-210.701 597.539,-215.697 597.539,-215.697 597.539,-215.697 597.753,-210.701 602.034,-215.889 597.967,-205.706 597.967,-205.706"/>
<polygon fill="#a54a98" stroke="#a54a98" points="598.636,-190.095 603.56,-180.297 598.85,-185.1 599.064,-180.104 599.064,-180.104 599.064,-180.104 598.85,-185.1 594.568,-179.912 598.636,-190.095 598.636,-190.095"/>
</g>
<!-- Assessment&#45;&gt;Factor -->
<g id="edge50" class="edge"><title>Assessment&#45;&gt;Factor</title>
<path fill="none" stroke="#87e561" d="M640.395,-216.503C672.422,-204.385 715.427,-188.113 745.571,-176.707"/>
<polygon fill="#87e561" stroke="#87e561" points="640.082,-216.622 629.136,-215.952 635.405,-218.391 630.729,-220.161 630.729,-220.161 630.729,-220.161 635.405,-218.391 632.321,-224.37 640.082,-216.622 640.082,-216.622"/>
<polygon fill="#87e561" stroke="#87e561" points="745.914,-176.578 756.859,-177.247 750.59,-174.808 755.266,-173.039 755.266,-173.039 755.266,-173.039 750.59,-174.808 753.674,-168.83 745.914,-176.578 745.914,-176.578"/>
</g>
<!-- CandidateList&#45;&gt;Candidate -->
<g id="edge52" class="edge"><title>CandidateList&#45;&gt;Candidate</title>
<path fill="none" stroke="#e01729" d="M939.1,-66.0984C945.288,-58.7569 952.158,-50.6056 958.42,-43.1761"/>
<ellipse fill="none" stroke="#e01729" cx="936.357" cy="-69.3525" rx="4.00002" ry="4.00002"/>
<polygon fill="#e01729" stroke="#e01729" points="958.47,-43.1162 968.356,-38.3701 961.693,-39.2931 964.915,-35.4699 964.915,-35.4699 964.915,-35.4699 961.693,-39.2931 961.474,-32.5698 958.47,-43.1162 958.47,-43.1162"/>
</g>
<!-- Experience&#45;&gt;Reaction -->
<g id="edge53" class="edge"><title>Experience&#45;&gt;Reaction</title>
<path fill="none" stroke="#6e9983" d="M397.932,-279.414C395.15,-247.312 388.784,-190.795 375.797,-144 373.308,-135.03 369.705,-125.548 366.133,-117.122"/>
<ellipse fill="none" stroke="#6e9983" cx="398.295" cy="-283.806" rx="4" ry="4"/>
<polygon fill="#6e9983" stroke="#6e9983" points="366.06,-116.958 366.139,-105.992 364.041,-112.384 362.022,-107.809 362.022,-107.809 362.022,-107.809 364.041,-112.384 357.905,-109.627 366.06,-116.958 366.06,-116.958"/>
</g>
<!-- BingoGame&#45;&gt;Candidate -->
<g id="edge55" class="edge"><title>BingoGame&#45;&gt;Candidate</title>
<path fill="none" stroke="#324da2" d="M968.455,-214.399C1006.96,-194.285 1062.39,-158.224 1086.8,-108 1093.79,-93.6087 1095.26,-85.579 1086.8,-72 1073.81,-51.1549 1049.96,-38.2769 1027.97,-30.4451"/>
<polygon fill="#324da2" stroke="#324da2" points="967.978,-214.641 957.024,-215.155 963.519,-216.904 959.061,-219.168 959.061,-219.168 959.061,-219.168 963.519,-216.904 961.098,-223.18 967.978,-214.641 967.978,-214.641"/>
<polygon fill="#324da2" stroke="#324da2" points="1027.88,-30.4131 1019.78,-23.0153 1023.13,-28.8517 1018.38,-27.2903 1018.38,-27.2903 1018.38,-27.2903 1023.13,-28.8517 1016.97,-31.5652 1027.88,-30.4131 1027.88,-30.4131"/>
</g>
<!-- BingoGame&#45;&gt;CandidateList -->
<g id="edge54" class="edge"><title>BingoGame&#45;&gt;CandidateList</title>
<path fill="none" stroke="#37834b" d="M926.364,-207.558C924.949,-182.444 922.792,-144.164 921.34,-118.393"/>
<ellipse fill="none" stroke="#37834b" cx="926.607" cy="-211.878" rx="4" ry="4"/>
<polygon fill="#37834b" stroke="#37834b" points="921.328,-118.173 925.258,-107.936 921.047,-113.181 920.765,-108.189 920.765,-108.189 920.765,-108.189 921.047,-113.181 916.273,-108.442 921.328,-118.173 921.328,-118.173"/>
</g>
<!-- Role -->
<g id="node35" class="node"><title>Role</title>
<ellipse fill="none" stroke="black" cx="35.797" cy="-450" rx="27.0966" ry="18"/>
<text text-anchor="middle" x="35.797" y="-446.3" font-family="Times,serif" font-size="14.00">Role</text>
</g>
<!-- Role&#45;&gt;User -->
<g id="edge56" class="edge"><title>Role&#45;&gt;User</title>
<path fill="none" stroke="#ece35c" d="M64.8654,-435.397C68.1724,-434.13 71.5289,-432.962 74.797,-432 176.456,-402.066 301.297,-387.694 362.446,-382.041"/>
<ellipse fill="none" stroke="#ece35c" cx="61.0069" cy="-436.973" rx="4.00001" ry="4.00001"/>
<polygon fill="#ece35c" stroke="#ece35c" points="362.793,-382.01 373.155,-385.598 367.773,-381.563 372.753,-381.116 372.753,-381.116 372.753,-381.116 367.773,-381.563 372.35,-376.634 362.793,-382.01 362.793,-382.01"/>
</g>
<!-- Role&#45;&gt;Roster -->
<g id="edge57" class="edge"><title>Role&#45;&gt;Roster</title>
<path fill="none" stroke="#fb3933" d="M35.4387,-423.558C35.0849,-398.444 34.5458,-360.164 34.1828,-334.393"/>
<ellipse fill="none" stroke="#fb3933" cx="35.4994" cy="-427.872" rx="4" ry="4"/>
<polygon fill="#fb3933" stroke="#fb3933" points="34.18,-334.188 38.5387,-324.126 34.1096,-329.189 34.0391,-324.189 34.0391,-324.189 34.0391,-324.189 34.1096,-329.189 29.5395,-324.253 34.18,-334.188 34.18,-334.188"/>
</g>
</g>
</svg>
