<?xml version="1.0" encoding="UTF-8" standalone="no"?>
<!DOCTYPE svg PUBLIC "-//W3C//DTD SVG 1.1//EN"
 "http://www.w3.org/Graphics/SVG/1.1/DTD/svg11.dtd">
<!-- Generated by graphviz version 2.38.0 (20140413.2041)
 -->
<!-- Title: models_diagram Pages: 1 -->
<svg width="1078pt" height="590pt"
 viewBox="0.00 0.00 1077.89 590.00" xmlns="http://www.w3.org/2000/svg" xmlns:xlink="http://www.w3.org/1999/xlink">
<g id="graph0" class="graph" transform="scale(1 1) rotate(0) translate(4 586)">
<title>models_diagram</title>
<polygon fill="none" stroke="none" points="-4,4 -4,-586 1073.89,-586 1073.89,4 -4,4"/>
<!-- _diagram_info -->
<g id="node1" class="node"><title>_diagram_info</title>
<text text-anchor="start" x="128.795" y="-567.6" font-family="Times,serif" font-size="13.00">Models diagram</text>
<text text-anchor="start" x="128.795" y="-553.6" font-family="Times,serif" font-size="13.00">Date: Apr 06 2017 &#45; 17:45</text>
<text text-anchor="start" x="128.795" y="-539.6" font-family="Times,serif" font-size="13.00">Migration version: 20170406070715</text>
<text text-anchor="start" x="128.795" y="-525.6" font-family="Times,serif" font-size="13.00">Generated by RailRoady 1.5.2</text>
<text text-anchor="start" x="128.795" y="-511.6" font-family="Times,serif" font-size="13.00">http://railroady.prestonlee.com</text>
</g>
<!-- GroupProjectCount -->
<g id="node2" class="node"><title>GroupProjectCount</title>
<ellipse fill="none" stroke="black" cx="696.795" cy="-450" rx="79.0865" ry="18"/>
<text text-anchor="middle" x="696.795" y="-446.3" font-family="Times,serif" font-size="14.00">GroupProjectCount</text>
</g>
<!-- User -->
<g id="node11" class="node"><title>User</title>
<ellipse fill="none" stroke="black" cx="651.795" cy="-378" rx="27.0966" ry="18"/>
<text text-anchor="middle" x="651.795" y="-374.3" font-family="Times,serif" font-size="14.00">User</text>
</g>
<!-- GroupProjectCount&#45;&gt;User -->
<g id="edge1" class="edge"><title>GroupProjectCount&#45;&gt;User</title>
<path fill="none" stroke="#dbca92" d="M681.413,-425.072C676.898,-418.049 671.957,-410.363 667.426,-403.316"/>
<ellipse fill="none" stroke="#dbca92" cx="683.738" cy="-428.69" rx="4.00002" ry="4.00002"/>
<polygon fill="#dbca92" stroke="#dbca92" points="667.378,-403.241 665.756,-392.396 664.675,-399.035 661.971,-394.829 661.971,-394.829 661.971,-394.829 664.675,-399.035 658.185,-397.263 667.378,-403.241 667.378,-403.241"/>
</g>
<!-- Theme -->
<g id="node3" class="node"><title>Theme</title>
<ellipse fill="none" stroke="black" cx="829.795" cy="-450" rx="35.9954" ry="18"/>
<text text-anchor="middle" x="829.795" y="-446.3" font-family="Times,serif" font-size="14.00">Theme</text>
</g>
<!-- Theme&#45;&gt;User -->
<g id="edge2" class="edge"><title>Theme&#45;&gt;User</title>
<path fill="none" stroke="#78294e" d="M794.636,-435.173C762.541,-422.552 715.481,-404.045 684.259,-391.767"/>
<ellipse fill="none" stroke="#78294e" cx="798.65" cy="-436.752" rx="4.00001" ry="4.00001"/>
<polygon fill="#78294e" stroke="#78294e" points="684.025,-391.675 676.365,-383.827 679.372,-389.845 674.718,-388.015 674.718,-388.015 674.718,-388.015 679.372,-389.845 673.072,-392.203 684.025,-391.675 684.025,-391.675"/>
</g>
<!-- FactorPack -->
<g id="node4" class="node"><title>FactorPack</title>
<ellipse fill="none" stroke="black" cx="143.795" cy="-378" rx="50.0912" ry="18"/>
<text text-anchor="middle" x="143.795" y="-374.3" font-family="Times,serif" font-size="14.00">FactorPack</text>
</g>
<!-- Project -->
<g id="node16" class="node"><title>Project</title>
<ellipse fill="none" stroke="black" cx="261.795" cy="-306" rx="35.9954" ry="18"/>
<text text-anchor="middle" x="261.795" y="-302.3" font-family="Times,serif" font-size="14.00">Project</text>
</g>
<!-- FactorPack&#45;&gt;Project -->
<g id="edge4" class="edge"><title>FactorPack&#45;&gt;Project</title>
<path fill="none" stroke="#fc2a59" d="M175.433,-358.232C192.495,-348.11 213.479,-335.662 230.49,-325.571"/>
<ellipse fill="none" stroke="#fc2a59" cx="171.972" cy="-360.285" rx="4.00002" ry="4.00002"/>
<polygon fill="#fc2a59" stroke="#fc2a59" points="230.881,-325.339 241.778,-324.107 235.181,-322.788 239.482,-320.237 239.482,-320.237 239.482,-320.237 235.181,-322.788 237.186,-316.366 230.881,-325.339 230.881,-325.339"/>
</g>
<!-- Factor -->
<g id="node21" class="node"><title>Factor</title>
<ellipse fill="none" stroke="black" cx="261.795" cy="-162" rx="33.2948" ry="18"/>
<text text-anchor="middle" x="261.795" y="-158.3" font-family="Times,serif" font-size="14.00">Factor</text>
</g>
<!-- FactorPack&#45;&gt;Factor -->
<g id="edge3" class="edge"><title>FactorPack&#45;&gt;Factor</title>
<path fill="none" stroke="#ca9695" d="M157.883,-351.449C180.639,-310.181 225.215,-229.34 247.867,-188.259"/>
<polygon fill="#ca9695" stroke="#ca9695" points="157.883,-351.451 149.113,-358.035 155.468,-355.829 153.054,-360.208 153.054,-360.208 153.054,-360.208 155.468,-355.829 156.995,-362.381 157.883,-351.451 157.883,-351.451"/>
<polygon fill="#ca9695" stroke="#ca9695" points="247.912,-188.177 256.681,-181.593 250.326,-183.799 252.741,-179.42 252.741,-179.42 252.741,-179.42 250.326,-183.799 248.8,-177.247 247.912,-188.177 247.912,-188.177"/>
</g>
<!-- Course -->
<g id="node5" class="node"><title>Course</title>
<ellipse fill="none" stroke="black" cx="387.795" cy="-450" rx="35.9954" ry="18"/>
<text text-anchor="middle" x="387.795" y="-446.3" font-family="Times,serif" font-size="14.00">Course</text>
</g>
<!-- Course&#45;&gt;User -->
<g id="edge8" class="edge"><title>Course&#45;&gt;User</title>
<path fill="none" stroke="#8bae21" d="M424.842,-434.593C427.52,-433.678 430.191,-432.803 432.795,-432 496.468,-412.351 572.369,-395.384 616.033,-386.231"/>
<polygon fill="#8bae21" stroke="#8bae21" points="424.633,-434.667 413.702,-433.787 419.923,-436.347 415.214,-438.026 415.214,-438.026 415.214,-438.026 419.923,-436.347 416.725,-442.264 424.633,-434.667 424.633,-434.667"/>
<polygon fill="#8bae21" stroke="#8bae21" points="616.1,-386.217 626.806,-388.588 620.995,-385.2 625.891,-384.182 625.891,-384.182 625.891,-384.182 620.995,-385.2 624.975,-379.776 616.1,-386.217 616.1,-386.217"/>
</g>
<!-- Roster -->
<g id="node13" class="node"><title>Roster</title>
<ellipse fill="none" stroke="black" cx="475.795" cy="-306" rx="33.5952" ry="18"/>
<text text-anchor="middle" x="475.795" y="-302.3" font-family="Times,serif" font-size="14.00">Roster</text>
</g>
<!-- Course&#45;&gt;Roster -->
<g id="edge6" class="edge"><title>Course&#45;&gt;Roster</title>
<path fill="none" stroke="#6a2537" d="M417.091,-431.249C429.788,-422.173 443.781,-410.068 452.795,-396 464.742,-377.353 470.495,-352.772 473.259,-334.168"/>
<ellipse fill="none" stroke="#6a2537" cx="413.508" cy="-433.708" rx="4.00002" ry="4.00002"/>
<polygon fill="#6a2537" stroke="#6a2537" points="473.291,-333.913 479.028,-324.568 473.928,-328.954 474.565,-323.995 474.565,-323.995 474.565,-323.995 473.928,-328.954 470.101,-323.422 473.291,-333.913 473.291,-333.913"/>
</g>
<!-- Course&#45;&gt;Project -->
<g id="edge5" class="edge"><title>Course&#45;&gt;Project</title>
<path fill="none" stroke="#f0cc8e" d="M358.661,-430.954C344.965,-421.59 329.004,-409.33 316.795,-396 299.348,-376.952 284.312,-351.602 274.393,-332.83"/>
<ellipse fill="none" stroke="#f0cc8e" cx="362.258" cy="-433.355" rx="4.00002" ry="4.00002"/>
<polygon fill="#f0cc8e" stroke="#f0cc8e" points="274.261,-332.573 273.688,-321.622 271.974,-328.127 269.686,-323.681 269.686,-323.681 269.686,-323.681 271.974,-328.127 265.685,-325.739 274.261,-332.573 274.261,-332.573"/>
</g>
<!-- Experience -->
<g id="node33" class="node"><title>Experience</title>
<ellipse fill="none" stroke="black" cx="993.795" cy="-306" rx="50.0912" ry="18"/>
<text text-anchor="middle" x="993.795" y="-302.3" font-family="Times,serif" font-size="14.00">Experience</text>
</g>
<!-- Course&#45;&gt;Experience -->
<g id="edge9" class="edge"><title>Course&#45;&gt;Experience</title>
<path fill="none" stroke="#761ee9" d="M422.242,-435.11C425.773,-433.951 429.334,-432.886 432.795,-432 543.673,-403.602 575.891,-420.044 687.795,-396 782.136,-375.729 889.962,-341.769 949.109,-322.181"/>
<ellipse fill="none" stroke="#761ee9" cx="418.388" cy="-436.451" rx="4.00001" ry="4.00001"/>
<polygon fill="#761ee9" stroke="#761ee9" points="949.385,-322.09 960.294,-323.201 954.129,-320.511 958.873,-318.932 958.873,-318.932 958.873,-318.932 954.129,-320.511 957.452,-314.662 949.385,-322.09 949.385,-322.09"/>
</g>
<!-- BingoGame -->
<g id="node34" class="node"><title>BingoGame</title>
<ellipse fill="none" stroke="black" cx="65.7947" cy="-234" rx="53.8905" ry="18"/>
<text text-anchor="middle" x="65.7947" y="-230.3" font-family="Times,serif" font-size="14.00">BingoGame</text>
</g>
<!-- Course&#45;&gt;BingoGame -->
<g id="edge7" class="edge"><title>Course&#45;&gt;BingoGame</title>
<path fill="none" stroke="#40844e" d="M343.769,-447.555C268.426,-444.105 119.51,-432.705 84.7947,-396 50.8804,-360.142 54.5133,-297.865 60.1673,-262.188"/>
<ellipse fill="none" stroke="#40844e" cx="348.146" cy="-447.745" rx="4" ry="4"/>
<polygon fill="#40844e" stroke="#40844e" points="60.2214,-261.878 66.38,-252.805 61.0845,-256.953 61.9475,-252.028 61.9475,-252.028 61.9475,-252.028 61.0845,-256.953 57.515,-251.251 60.2214,-261.878 60.2214,-261.878"/>
</g>
<!-- Style -->
<g id="node6" class="node"><title>Style</title>
<ellipse fill="none" stroke="black" cx="240.795" cy="-378" rx="28.6953" ry="18"/>
<text text-anchor="middle" x="240.795" y="-374.3" font-family="Times,serif" font-size="14.00">Style</text>
</g>
<!-- Style&#45;&gt;Project -->
<g id="edge10" class="edge"><title>Style&#45;&gt;Project</title>
<path fill="none" stroke="#17fe1d" d="M248.214,-352.267C249.993,-346.34 251.9,-339.981 253.707,-333.959"/>
<ellipse fill="none" stroke="#17fe1d" cx="247.028" cy="-356.224" rx="4.00001" ry="4.00001"/>
<polygon fill="#17fe1d" stroke="#17fe1d" points="253.739,-333.854 260.922,-325.568 255.175,-329.064 256.612,-324.275 256.612,-324.275 256.612,-324.275 255.175,-329.064 252.302,-322.982 253.739,-333.854 253.739,-333.854"/>
</g>
<!-- Behavior -->
<g id="node7" class="node"><title>Behavior</title>
<ellipse fill="none" stroke="black" cx="798.795" cy="-162" rx="42.7926" ry="18"/>
<text text-anchor="middle" x="798.795" y="-158.3" font-family="Times,serif" font-size="14.00">Behavior</text>
</g>
<!-- Diagnosis -->
<g id="node20" class="node"><title>Diagnosis</title>
<ellipse fill="none" stroke="black" cx="850.795" cy="-18" rx="46.2923" ry="18"/>
<text text-anchor="middle" x="850.795" y="-14.3" font-family="Times,serif" font-size="14.00">Diagnosis</text>
</g>
<!-- Behavior&#45;&gt;Diagnosis -->
<g id="edge13" class="edge"><title>Behavior&#45;&gt;Diagnosis</title>
<path fill="none" stroke="#321238" d="M807.73,-136.6C816.973,-111.359 831.37,-72.0434 840.939,-45.913"/>
<ellipse fill="none" stroke="#321238" cx="806.339" cy="-140.397" rx="4.00001" ry="4.00001"/>
<polygon fill="#321238" stroke="#321238" points="841.033,-45.658 848.697,-37.8152 842.752,-40.9629 844.471,-36.2678 844.471,-36.2678 844.471,-36.2678 842.752,-40.9629 840.246,-34.7204 841.033,-45.658 841.033,-45.658"/>
</g>
<!-- Scenario -->
<g id="node29" class="node"><title>Scenario</title>
<ellipse fill="none" stroke="black" cx="761.795" cy="-90" rx="41.6928" ry="18"/>
<text text-anchor="middle" x="761.795" y="-86.3" font-family="Times,serif" font-size="14.00">Scenario</text>
</g>
<!-- Behavior&#45;&gt;Scenario -->
<g id="edge11" class="edge"><title>Behavior&#45;&gt;Scenario</title>
<path fill="none" stroke="#9e046a" d="M785.958,-136.714C782.568,-130.302 778.898,-123.358 775.466,-116.865"/>
<ellipse fill="none" stroke="#9e046a" cx="787.969" cy="-140.519" rx="4.00002" ry="4.00002"/>
<polygon fill="#9e046a" stroke="#9e046a" points="775.342,-116.63 774.647,-105.686 773.005,-112.209 770.669,-107.789 770.669,-107.789 770.669,-107.789 773.005,-112.209 766.69,-109.892 775.342,-116.63 775.342,-116.63"/>
</g>
<!-- Reaction -->
<g id="node30" class="node"><title>Reaction</title>
<ellipse fill="none" stroke="black" cx="939.795" cy="-90" rx="42.4939" ry="18"/>
<text text-anchor="middle" x="939.795" y="-86.3" font-family="Times,serif" font-size="14.00">Reaction</text>
</g>
<!-- Behavior&#45;&gt;Reaction -->
<g id="edge12" class="edge"><title>Behavior&#45;&gt;Reaction</title>
<path fill="none" stroke="#3b52ea" d="M832.714,-144.16C854.387,-133.401 882.438,-119.475 904.393,-108.575"/>
<ellipse fill="none" stroke="#3b52ea" cx="828.898" cy="-146.055" rx="4.00002" ry="4.00002"/>
<polygon fill="#3b52ea" stroke="#3b52ea" points="904.436,-108.554 915.394,-108.138 908.914,-106.331 913.393,-104.107 913.393,-104.107 913.393,-104.107 908.914,-106.331 911.392,-100.077 904.436,-108.554 904.436,-108.554"/>
</g>
<!-- CandidateFeedback -->
<g id="node8" class="node"><title>CandidateFeedback</title>
<ellipse fill="none" stroke="black" cx="462.795" cy="-90" rx="79.8859" ry="18"/>
<text text-anchor="middle" x="462.795" y="-86.3" font-family="Times,serif" font-size="14.00">CandidateFeedback</text>
</g>
<!-- Candidate -->
<g id="node25" class="node"><title>Candidate</title>
<ellipse fill="none" stroke="black" cx="177.795" cy="-18" rx="46.2923" ry="18"/>
<text text-anchor="middle" x="177.795" y="-14.3" font-family="Times,serif" font-size="14.00">Candidate</text>
</g>
<!-- CandidateFeedback&#45;&gt;Candidate -->
<g id="edge14" class="edge"><title>CandidateFeedback&#45;&gt;Candidate</title>
<path fill="none" stroke="#603e34" d="M403.069,-74.3306C350.363,-61.3852 274.531,-42.7598 225.709,-30.7685"/>
<ellipse fill="none" stroke="#603e34" cx="406.968" cy="-75.2882" rx="4.00001" ry="4.00001"/>
<polygon fill="#603e34" stroke="#603e34" points="225.431,-30.7001 216.793,-23.9447 220.575,-29.5075 215.719,-28.3148 215.719,-28.3148 215.719,-28.3148 220.575,-29.5075 214.646,-32.6849 225.431,-30.7001 225.431,-30.7001"/>
</g>
<!-- Installment -->
<g id="node9" class="node"><title>Installment</title>
<ellipse fill="none" stroke="black" cx="611.795" cy="-90" rx="50.8918" ry="18"/>
<text text-anchor="middle" x="611.795" y="-86.3" font-family="Times,serif" font-size="14.00">Installment</text>
</g>
<!-- Value -->
<g id="node28" class="node"><title>Value</title>
<ellipse fill="none" stroke="black" cx="611.795" cy="-18" rx="31.6951" ry="18"/>
<text text-anchor="middle" x="611.795" y="-14.3" font-family="Times,serif" font-size="14.00">Value</text>
</g>
<!-- Installment&#45;&gt;Value -->
<g id="edge15" class="edge"><title>Installment&#45;&gt;Value</title>
<path fill="none" stroke="#87e341" d="M611.795,-63.6398C611.795,-58.0629 611.795,-52.1319 611.795,-46.4761"/>
<ellipse fill="none" stroke="#87e341" cx="611.795" cy="-67.6966" rx="4" ry="4"/>
<polygon fill="#87e341" stroke="#87e341" points="611.795,-46.1043 616.295,-36.1043 611.795,-41.1043 611.795,-36.1043 611.795,-36.1043 611.795,-36.1043 611.795,-41.1043 607.295,-36.1044 611.795,-46.1043 611.795,-46.1043"/>
</g>
<!-- ConsentForm -->
<g id="node10" class="node"><title>ConsentForm</title>
<ellipse fill="none" stroke="black" cx="384.795" cy="-378" rx="59.2899" ry="18"/>
<text text-anchor="middle" x="384.795" y="-374.3" font-family="Times,serif" font-size="14.00">ConsentForm</text>
</g>
<!-- ConsentForm&#45;&gt;Project -->
<g id="edge16" class="edge"><title>ConsentForm&#45;&gt;Project</title>
<path fill="none" stroke="#615a5b" d="M350.904,-357.713C332.966,-347.504 311.074,-335.045 293.478,-325.031"/>
<ellipse fill="none" stroke="#615a5b" cx="354.629" cy="-359.833" rx="4.00002" ry="4.00002"/>
<polygon fill="#615a5b" stroke="#615a5b" points="293.403,-324.988 286.937,-316.131 289.057,-322.515 284.711,-320.042 284.711,-320.042 284.711,-320.042 289.057,-322.515 282.486,-323.953 293.403,-324.988 293.403,-324.988"/>
</g>
<!-- ConsentLog -->
<g id="node27" class="node"><title>ConsentLog</title>
<ellipse fill="none" stroke="black" cx="369.795" cy="-306" rx="53.8905" ry="18"/>
<text text-anchor="middle" x="369.795" y="-302.3" font-family="Times,serif" font-size="14.00">ConsentLog</text>
</g>
<!-- ConsentForm&#45;&gt;ConsentLog -->
<g id="edge17" class="edge"><title>ConsentForm&#45;&gt;ConsentLog</title>
<path fill="none" stroke="#a8dc58" d="M379.36,-351.64C378.135,-345.92 376.829,-339.828 375.589,-334.042"/>
<ellipse fill="none" stroke="#a8dc58" cx="380.249" cy="-355.785" rx="4.00001" ry="4.00001"/>
<polygon fill="#a8dc58" stroke="#a8dc58" points="375.555,-333.882 377.86,-323.161 374.508,-328.993 373.46,-324.104 373.46,-324.104 373.46,-324.104 374.508,-328.993 369.06,-325.047 375.555,-333.882 375.555,-333.882"/>
</g>
<!-- User&#45;&gt;Installment -->
<g id="edge23" class="edge"><title>User&#45;&gt;Installment</title>
<path fill="none" stroke="#cfba71" d="M648.277,-351.847C640.8,-298.388 623.38,-173.835 615.63,-118.425"/>
<ellipse fill="none" stroke="#cfba71" cx="648.858" cy="-356.004" rx="4.00001" ry="4.00001"/>
<polygon fill="#cfba71" stroke="#cfba71" points="615.6,-118.21 618.672,-107.683 614.908,-113.258 614.215,-108.306 614.215,-108.306 614.215,-108.306 614.908,-113.258 609.759,-108.93 615.6,-118.21 615.6,-118.21"/>
</g>
<!-- User&#45;&gt;Roster -->
<g id="edge24" class="edge"><title>User&#45;&gt;Roster</title>
<path fill="none" stroke="#4079f7" d="M621.078,-364.783C590.511,-352.626 543.638,-333.983 511.447,-321.18"/>
<ellipse fill="none" stroke="#4079f7" cx="625.069" cy="-366.37" rx="4.00001" ry="4.00001"/>
<polygon fill="#4079f7" stroke="#4079f7" points="511.255,-321.103 503.626,-313.226 506.609,-319.256 501.963,-317.408 501.963,-317.408 501.963,-317.408 506.609,-319.256 500.299,-321.589 511.255,-321.103 511.255,-321.103"/>
</g>
<!-- Group -->
<g id="node15" class="node"><title>Group</title>
<ellipse fill="none" stroke="black" cx="493.795" cy="-162" rx="33.2948" ry="18"/>
<text text-anchor="middle" x="493.795" y="-158.3" font-family="Times,serif" font-size="14.00">Group</text>
</g>
<!-- User&#45;&gt;Group -->
<g id="edge19" class="edge"><title>User&#45;&gt;Group</title>
<path fill="none" stroke="#9f741c" d="M644.891,-350.283C634.085,-310.074 612.573,-236.521 594.795,-216 578.153,-196.791 552.812,-183.521 531.677,-175.064"/>
<polygon fill="#9f741c" stroke="#9f741c" points="644.958,-350.536 643.171,-361.355 646.239,-355.368 647.521,-360.201 647.521,-360.201 647.521,-360.201 646.239,-355.368 651.871,-359.048 644.958,-350.536 644.958,-350.536"/>
<polygon fill="#9f741c" stroke="#9f741c" points="531.659,-175.057 523.904,-167.305 526.984,-173.285 522.309,-171.512 522.309,-171.512 522.309,-171.512 526.984,-173.285 520.714,-175.72 531.659,-175.057 531.659,-175.057"/>
</g>
<!-- User&#45;&gt;Project -->
<g id="edge22" class="edge"><title>User&#45;&gt;Project</title>
<path fill="none" stroke="#66e103" d="M614.575,-373.851C550.762,-367.886 416.725,-352.869 306.795,-324 303.993,-323.264 301.124,-322.416 298.258,-321.498"/>
<polygon fill="#66e103" stroke="#66e103" points="614.604,-373.854 624.153,-379.246 619.583,-374.309 624.563,-374.764 624.563,-374.764 624.563,-374.764 619.583,-374.309 624.972,-370.283 614.604,-373.854 614.604,-373.854"/>
<polygon fill="#66e103" stroke="#66e103" points="298.079,-321.437 290.091,-313.925 293.352,-319.808 288.625,-318.18 288.625,-318.18 288.625,-318.18 293.352,-319.808 287.159,-322.434 298.079,-321.437 298.079,-321.437"/>
</g>
<!-- Email -->
<g id="node18" class="node"><title>Email</title>
<ellipse fill="none" stroke="black" cx="855.795" cy="-306" rx="32.4942" ry="18"/>
<text text-anchor="middle" x="855.795" y="-302.3" font-family="Times,serif" font-size="14.00">Email</text>
</g>
<!-- User&#45;&gt;Email -->
<g id="edge18" class="edge"><title>User&#45;&gt;Email</title>
<path fill="none" stroke="#311501" d="M683.4,-366.711C715.365,-356.231 766.149,-339.381 809.795,-324 813.107,-322.833 816.546,-321.6 819.986,-320.354"/>
<ellipse fill="none" stroke="#311501" cx="679.497" cy="-367.989" rx="4.00001" ry="4.00001"/>
<polygon fill="#311501" stroke="#311501" points="820.181,-320.282 831.119,-321.073 824.877,-318.565 829.573,-316.847 829.573,-316.847 829.573,-316.847 824.877,-318.565 828.027,-312.621 820.181,-320.282 820.181,-320.282"/>
</g>
<!-- Narrative -->
<g id="node24" class="node"><title>Narrative</title>
<ellipse fill="none" stroke="black" cx="723.795" cy="-306" rx="44.393" ry="18"/>
<text text-anchor="middle" x="723.795" y="-302.3" font-family="Times,serif" font-size="14.00">Narrative</text>
</g>
<!-- User&#45;&gt;Narrative -->
<g id="edge27" class="edge"><title>User&#45;&gt;Narrative</title>
<path fill="none" stroke="#365c21" d="M674.136,-355.279C682.366,-347.277 691.715,-338.188 700.064,-330.072"/>
<polygon fill="#365c21" stroke="#365c21" points="673.883,-355.525 663.576,-359.269 670.298,-359.011 666.713,-362.496 666.713,-362.496 666.713,-362.496 670.298,-359.011 669.85,-365.722 673.883,-355.525 673.883,-355.525"/>
<polygon fill="#365c21" stroke="#365c21" points="700.219,-329.921 710.526,-326.176 703.804,-326.435 707.389,-322.95 707.389,-322.95 707.389,-322.95 703.804,-326.435 704.252,-319.723 700.219,-329.921 700.219,-329.921"/>
</g>
<!-- User&#45;&gt;ConsentLog -->
<g id="edge20" class="edge"><title>User&#45;&gt;ConsentLog</title>
<path fill="none" stroke="#40ca24" d="M618.58,-369.247C575.614,-359.152 498.482,-340.808 432.795,-324 428.658,-322.942 424.375,-321.826 420.076,-320.694"/>
<ellipse fill="none" stroke="#40ca24" cx="622.556" cy="-370.18" rx="4.00001" ry="4.00001"/>
<polygon fill="#40ca24" stroke="#40ca24" points="419.748,-320.607 411.239,-313.69 414.916,-319.323 410.084,-318.039 410.084,-318.039 410.084,-318.039 414.916,-319.323 408.928,-322.389 419.748,-320.607 419.748,-320.607"/>
</g>
<!-- User&#45;&gt;Reaction -->
<g id="edge25" class="edge"><title>User&#45;&gt;Reaction</title>
<path fill="none" stroke="#0b7d64" d="M678.683,-361.948C680.389,-361.234 682.101,-360.576 683.795,-360 774.689,-329.081 828.396,-391.376 896.795,-324 952.645,-268.984 949.17,-166.745 943.747,-118.088"/>
<ellipse fill="none" stroke="#0b7d64" cx="674.951" cy="-363.68" rx="4.00002" ry="4.00002"/>
<polygon fill="#0b7d64" stroke="#0b7d64" points="943.728,-117.937 946.974,-107.462 943.118,-112.974 942.508,-108.012 942.508,-108.012 942.508,-108.012 943.118,-112.974 938.041,-108.561 943.728,-117.937 943.728,-117.937"/>
</g>
<!-- Assessment -->
<g id="node31" class="node"><title>Assessment</title>
<ellipse fill="none" stroke="black" cx="532.795" cy="-234" rx="52.7911" ry="18"/>
<text text-anchor="middle" x="532.795" y="-230.3" font-family="Times,serif" font-size="14.00">Assessment</text>
</g>
<!-- User&#45;&gt;Assessment -->
<g id="edge28" class="edge"><title>User&#45;&gt;Assessment</title>
<path fill="none" stroke="#e3d072" d="M629.492,-355.554C620.038,-346.141 609.083,-334.794 599.795,-324 581.907,-303.213 563.279,-278.149 550.22,-259.923"/>
<polygon fill="#e3d072" stroke="#e3d072" points="629.565,-355.626 633.534,-365.848 633.128,-359.134 636.691,-362.642 636.691,-362.642 636.691,-362.642 633.128,-359.134 639.848,-359.435 629.565,-355.626 629.565,-355.626"/>
<polygon fill="#e3d072" stroke="#e3d072" points="550.078,-259.723 547.951,-248.966 547.181,-255.648 544.283,-251.573 544.283,-251.573 544.283,-251.573 547.181,-255.648 540.616,-254.181 550.078,-259.723 550.078,-259.723"/>
</g>
<!-- CandidateList -->
<g id="node32" class="node"><title>CandidateList</title>
<ellipse fill="none" stroke="black" cx="59.7947" cy="-90" rx="59.5901" ry="18"/>
<text text-anchor="middle" x="59.7947" y="-86.3" font-family="Times,serif" font-size="14.00">CandidateList</text>
</g>
<!-- User&#45;&gt;CandidateList -->
<g id="edge21" class="edge"><title>User&#45;&gt;CandidateList</title>
<path fill="none" stroke="#e13472" d="M624.999,-361.103C608.075,-350.865 585.877,-337.07 566.795,-324 544.794,-308.931 540.547,-303.425 518.795,-288 471.887,-254.737 356.837,-166.208 303.795,-144 230.549,-113.333 206.248,-125.501 128.795,-108 124.079,-106.934 119.19,-105.797 114.291,-104.634"/>
<ellipse fill="none" stroke="#e13472" cx="628.479" cy="-363.198" rx="4.00002" ry="4.00002"/>
<polygon fill="#e13472" stroke="#e13472" points="113.999,-104.564 105.327,-97.8517 109.137,-103.395 104.276,-102.227 104.276,-102.227 104.276,-102.227 109.137,-103.395 103.224,-106.603 113.999,-104.564 113.999,-104.564"/>
</g>
<!-- User&#45;&gt;Experience -->
<g id="edge26" class="edge"><title>User&#45;&gt;Experience</title>
<path fill="none" stroke="#35786a" d="M687.952,-370.955C741.157,-361.867 843.565,-343.646 929.795,-324 934.849,-322.848 940.109,-321.575 945.345,-320.259"/>
<polygon fill="#35786a" stroke="#35786a" points="687.845,-370.973 677.232,-368.212 682.916,-371.81 677.986,-372.648 677.986,-372.648 677.986,-372.648 682.916,-371.81 678.74,-377.084 687.845,-370.973 687.845,-370.973"/>
<polygon fill="#35786a" stroke="#35786a" points="945.638,-320.183 956.443,-322.053 950.481,-318.939 955.323,-317.694 955.323,-317.694 955.323,-317.694 950.481,-318.939 954.203,-313.336 945.638,-320.183 945.638,-320.183"/>
</g>
<!-- Concept -->
<g id="node12" class="node"><title>Concept</title>
<ellipse fill="none" stroke="black" cx="177.795" cy="-90" rx="40.0939" ry="18"/>
<text text-anchor="middle" x="177.795" y="-86.3" font-family="Times,serif" font-size="14.00">Concept</text>
</g>
<!-- Concept&#45;&gt;Candidate -->
<g id="edge29" class="edge"><title>Concept&#45;&gt;Candidate</title>
<path fill="none" stroke="#846bd9" d="M177.795,-63.6398C177.795,-58.0629 177.795,-52.1319 177.795,-46.4761"/>
<ellipse fill="none" stroke="#846bd9" cx="177.795" cy="-67.6966" rx="4" ry="4"/>
<polygon fill="#846bd9" stroke="#846bd9" points="177.795,-46.1043 182.295,-36.1043 177.795,-41.1043 177.795,-36.1043 177.795,-36.1043 177.795,-36.1043 177.795,-41.1043 173.295,-36.1044 177.795,-46.1043 177.795,-46.1043"/>
</g>
<!-- School -->
<g id="node14" class="node"><title>School</title>
<ellipse fill="none" stroke="black" cx="387.795" cy="-543" rx="35.194" ry="18"/>
<text text-anchor="middle" x="387.795" y="-539.3" font-family="Times,serif" font-size="14.00">School</text>
</g>
<!-- School&#45;&gt;Course -->
<g id="edge30" class="edge"><title>School&#45;&gt;Course</title>
<path fill="none" stroke="#31b3fa" d="M387.795,-516.729C387.795,-504.725 387.795,-490.362 387.795,-478.129"/>
<ellipse fill="none" stroke="#31b3fa" cx="387.795" cy="-520.884" rx="4" ry="4"/>
<polygon fill="#31b3fa" stroke="#31b3fa" points="387.795,-478.04 392.295,-468.04 387.795,-473.04 387.795,-468.04 387.795,-468.04 387.795,-468.04 387.795,-473.04 383.295,-468.04 387.795,-478.04 387.795,-478.04"/>
</g>
<!-- Group&#45;&gt;Installment -->
<g id="edge33" class="edge"><title>Group&#45;&gt;Installment</title>
<path fill="none" stroke="#1443c0" d="M522.359,-144.055C539.059,-134.148 560.239,-121.584 577.795,-111.169"/>
<ellipse fill="none" stroke="#1443c0" cx="518.878" cy="-146.12" rx="4.00002" ry="4.00002"/>
<polygon fill="#1443c0" stroke="#1443c0" points="578.002,-111.046 588.899,-109.815 582.303,-108.495 586.603,-105.944 586.603,-105.944 586.603,-105.944 582.303,-108.495 584.307,-102.074 578.002,-111.046 578.002,-111.046"/>
</g>
<!-- GroupRevision -->
<g id="node26" class="node"><title>GroupRevision</title>
<ellipse fill="none" stroke="black" cx="300.795" cy="-90" rx="64.189" ry="18"/>
<text text-anchor="middle" x="300.795" y="-86.3" font-family="Times,serif" font-size="14.00">GroupRevision</text>
</g>
<!-- Group&#45;&gt;GroupRevision -->
<g id="edge31" class="edge"><title>Group&#45;&gt;GroupRevision</title>
<path fill="none" stroke="#e4ee8f" d="M459.158,-148.437C428.282,-137.239 382.8,-120.743 348.49,-108.299"/>
<ellipse fill="none" stroke="#e4ee8f" cx="463.199" cy="-149.903" rx="4.00001" ry="4.00001"/>
<polygon fill="#e4ee8f" stroke="#e4ee8f" points="348.081,-108.151 340.215,-100.511 343.381,-106.446 338.681,-104.741 338.681,-104.741 338.681,-104.741 343.381,-106.446 337.146,-108.971 348.081,-108.151 348.081,-108.151"/>
</g>
<!-- Group&#45;&gt;CandidateList -->
<g id="edge32" class="edge"><title>Group&#45;&gt;CandidateList</title>
<path fill="none" stroke="#b8308f" d="M457.268,-150.673C447.73,-148.23 437.424,-145.812 427.795,-144 296.254,-119.253 260.464,-132.054 128.795,-108 123.692,-107.068 118.404,-105.983 113.129,-104.821"/>
<ellipse fill="none" stroke="#b8308f" cx="461.197" cy="-151.704" rx="4.00001" ry="4.00001"/>
<polygon fill="#b8308f" stroke="#b8308f" points="112.801,-104.746 104.059,-98.1256 107.927,-103.629 103.054,-102.512 103.054,-102.512 103.054,-102.512 107.927,-103.629 102.048,-106.898 112.801,-104.746 112.801,-104.746"/>
</g>
<!-- Project&#45;&gt;Group -->
<g id="edge34" class="edge"><title>Project&#45;&gt;Group</title>
<path fill="none" stroke="#bd39a1" d="M290.519,-287.419C334.7,-260.377 418.919,-208.829 463.834,-181.338"/>
<ellipse fill="none" stroke="#bd39a1" cx="287.032" cy="-289.553" rx="4.00002" ry="4.00002"/>
<polygon fill="#bd39a1" stroke="#bd39a1" points="464.002,-181.235 474.881,-179.853 468.267,-178.625 472.532,-176.015 472.532,-176.015 472.532,-176.015 468.267,-178.625 470.182,-172.176 464.002,-181.235 464.002,-181.235"/>
</g>
<!-- Project&#45;&gt;Factor -->
<g id="edge37" class="edge"><title>Project&#45;&gt;Factor</title>
<path fill="none" stroke="#cf2ce6" d="M261.795,-277.679C261.795,-252.599 261.795,-215.627 261.795,-190.493"/>
<polygon fill="#cf2ce6" stroke="#cf2ce6" points="261.795,-277.871 257.295,-287.871 261.795,-282.871 261.795,-287.871 261.795,-287.871 261.795,-287.871 261.795,-282.871 266.295,-287.872 261.795,-277.871 261.795,-277.871"/>
<polygon fill="#cf2ce6" stroke="#cf2ce6" points="261.795,-190.189 266.295,-180.189 261.795,-185.189 261.795,-180.189 261.795,-180.189 261.795,-180.189 261.795,-185.189 257.295,-180.189 261.795,-190.189 261.795,-190.189"/>
</g>
<!-- Project&#45;&gt;Assessment -->
<g id="edge36" class="edge"><title>Project&#45;&gt;Assessment</title>
<path fill="none" stroke="#67a19f" d="M296.324,-291.406C299.838,-290.188 303.373,-289.028 306.795,-288 376.184,-267.147 395.341,-268.911 465.795,-252 471.119,-250.722 476.673,-249.36 482.207,-247.984"/>
<ellipse fill="none" stroke="#67a19f" cx="292.479" cy="-292.786" rx="4.00001" ry="4.00001"/>
<polygon fill="#67a19f" stroke="#67a19f" points="482.39,-247.938 493.184,-249.872 487.24,-246.722 492.091,-245.507 492.091,-245.507 492.091,-245.507 487.24,-246.722 490.997,-241.142 482.39,-247.938 482.39,-247.938"/>
</g>
<!-- Project&#45;&gt;BingoGame -->
<g id="edge35" class="edge"><title>Project&#45;&gt;BingoGame</title>
<path fill="none" stroke="#70cc34" d="M225.582,-292.067C193.19,-280.498 145.587,-263.497 110.765,-251.061"/>
<ellipse fill="none" stroke="#70cc34" cx="229.528" cy="-293.476" rx="4.00001" ry="4.00001"/>
<polygon fill="#70cc34" stroke="#70cc34" points="110.723,-251.046 102.819,-243.445 106.014,-249.364 101.306,-247.682 101.306,-247.682 101.306,-247.682 106.014,-249.364 99.7921,-251.92 110.723,-251.046 110.723,-251.046"/>
</g>
<!-- Gender -->
<g id="node17" class="node"><title>Gender</title>
<ellipse fill="none" stroke="black" cx="919.795" cy="-450" rx="36.2938" ry="18"/>
<text text-anchor="middle" x="919.795" y="-446.3" font-family="Times,serif" font-size="14.00">Gender</text>
</g>
<!-- Gender&#45;&gt;User -->
<g id="edge38" class="edge"><title>Gender&#45;&gt;User</title>
<path fill="none" stroke="#eb9161" d="M884.692,-435.248C881.366,-434.093 878.029,-432.991 874.795,-432 809.806,-412.091 732.266,-395.155 687.855,-386.087"/>
<ellipse fill="none" stroke="#eb9161" cx="888.616" cy="-436.656" rx="4.00001" ry="4.00001"/>
<polygon fill="#eb9161" stroke="#eb9161" points="687.638,-386.044 678.728,-379.65 682.737,-385.052 677.836,-384.061 677.836,-384.061 677.836,-384.061 682.737,-385.052 676.944,-388.472 687.638,-386.044 687.638,-386.044"/>
</g>
<!-- AgeRange -->
<g id="node19" class="node"><title>AgeRange</title>
<ellipse fill="none" stroke="black" cx="1021.79" cy="-450" rx="48.1917" ry="18"/>
<text text-anchor="middle" x="1021.79" y="-446.3" font-family="Times,serif" font-size="14.00">AgeRange</text>
</g>
<!-- AgeRange&#45;&gt;User -->
<g id="edge39" class="edge"><title>AgeRange&#45;&gt;User</title>
<path fill="none" stroke="#abd659" d="M978.634,-435.526C973.984,-434.254 969.305,-433.05 964.795,-432 866.004,-408.995 747.484,-391.674 688.663,-383.755"/>
<ellipse fill="none" stroke="#abd659" cx="982.549" cy="-436.629" rx="4.00001" ry="4.00001"/>
<polygon fill="#abd659" stroke="#abd659" points="688.306,-383.708 678.988,-377.926 683.349,-383.047 678.393,-382.387 678.393,-382.387 678.393,-382.387 683.349,-383.047 677.799,-386.847 688.306,-383.708 688.306,-383.708"/>
</g>
<!-- Diagnosis&#45;&gt;User -->
<g id="edge40" class="edge"><title>Diagnosis&#45;&gt;User</title>
<path fill="none" stroke="#7723b9" d="M854.201,-44.1733C859.034,-88.6836 863.871,-183.079 829.795,-252 812.184,-287.619 808.36,-299.865 776.795,-324 741.586,-350.921 724.103,-341.57 683.795,-360 682.336,-360.667 680.85,-361.37 679.357,-362.095"/>
<ellipse fill="none" stroke="#7723b9" cx="853.738" cy="-40.1825" rx="4.00001" ry="4.00001"/>
<ellipse fill="#7723b9" stroke="#7723b9" cx="675.498" cy="-364.039" rx="4.00002" ry="4.00002"/>
</g>
<!-- CipCode -->
<g id="node22" class="node"><title>CipCode</title>
<ellipse fill="none" stroke="black" cx="556.795" cy="-450" rx="42.4939" ry="18"/>
<text text-anchor="middle" x="556.795" y="-446.3" font-family="Times,serif" font-size="14.00">CipCode</text>
</g>
<!-- CipCode&#45;&gt;User -->
<g id="edge41" class="edge"><title>CipCode&#45;&gt;User</title>
<path fill="none" stroke="#c9add6" d="M583.617,-429.236C596.918,-419.435 612.907,-407.654 626.057,-397.965"/>
<ellipse fill="none" stroke="#c9add6" cx="580.162" cy="-431.782" rx="4.00002" ry="4.00002"/>
<polygon fill="#c9add6" stroke="#c9add6" points="626.181,-397.873 636.901,-395.564 630.207,-394.907 634.232,-391.941 634.232,-391.941 634.232,-391.941 630.207,-394.907 631.562,-388.318 626.181,-397.873 626.181,-397.873"/>
</g>
<!-- Week -->
<g id="node23" class="node"><title>Week</title>
<ellipse fill="none" stroke="black" cx="771.795" cy="-234" rx="31.6951" ry="18"/>
<text text-anchor="middle" x="771.795" y="-230.3" font-family="Times,serif" font-size="14.00">Week</text>
</g>
<!-- Week&#45;&gt;Behavior -->
<g id="edge42" class="edge"><title>Week&#45;&gt;Behavior</title>
<path fill="none" stroke="#85035a" d="M781.226,-208.548C783.811,-201.846 786.616,-194.575 789.209,-187.851"/>
<ellipse fill="none" stroke="#85035a" cx="779.77" cy="-212.323" rx="4.00001" ry="4.00001"/>
<ellipse fill="#85035a" stroke="#85035a" cx="790.692" cy="-184.007" rx="4.00001" ry="4.00001"/>
</g>
<!-- Week&#45;&gt;Diagnosis -->
<g id="edge43" class="edge"><title>Week&#45;&gt;Diagnosis</title>
<path fill="none" stroke="#4fcc20" d="M751.643,-211.573C723.692,-179.167 679.9,-116.731 710.795,-72 729.903,-44.3343 765.454,-31.0953 795.948,-24.7671"/>
<ellipse fill="none" stroke="#4fcc20" cx="754.349" cy="-214.64" rx="4.00002" ry="4.00002"/>
<polygon fill="#4fcc20" stroke="#4fcc20" points="796.234,-24.7136 806.891,-27.2985 801.149,-23.7944 806.064,-22.8751 806.064,-22.8751 806.064,-22.8751 801.149,-23.7944 805.237,-18.4518 796.234,-24.7136 796.234,-24.7136"/>
</g>
<!-- Narrative&#45;&gt;Behavior -->
<g id="edge45" class="edge"><title>Narrative&#45;&gt;Behavior</title>
<path fill="none" stroke="#5bd2b3" d="M765.518,-290.948C783.412,-282.61 802.531,-270.058 812.795,-252 824.021,-232.248 818.001,-206.259 810.692,-187.469"/>
<ellipse fill="none" stroke="#5bd2b3" cx="761.616" cy="-292.661" rx="4.00002" ry="4.00002"/>
<ellipse fill="#5bd2b3" stroke="#5bd2b3" cx="809.069" cy="-183.586" rx="4.00002" ry="4.00002"/>
</g>
<!-- Narrative&#45;&gt;Week -->
<g id="edge44" class="edge"><title>Narrative&#45;&gt;Week</title>
<path fill="none" stroke="#0ee5c2" d="M739.763,-281.713C744.625,-274.623 749.983,-266.808 754.904,-259.633"/>
<ellipse fill="none" stroke="#0ee5c2" cx="737.432" cy="-285.112" rx="4.00002" ry="4.00002"/>
<polygon fill="#0ee5c2" stroke="#0ee5c2" points="755.176,-259.235 764.543,-253.533 758.004,-255.112 760.831,-250.988 760.831,-250.988 760.831,-250.988 758.004,-255.112 757.12,-248.443 755.176,-259.235 755.176,-259.235"/>
</g>
<!-- Narrative&#45;&gt;Reaction -->
<g id="edge46" class="edge"><title>Narrative&#45;&gt;Reaction</title>
<path fill="none" stroke="#88e7d9" d="M764.05,-290.595C785.186,-281.692 810.604,-268.748 829.795,-252 874.557,-212.936 909.643,-151.766 927.283,-117.159"/>
<ellipse fill="none" stroke="#88e7d9" cx="760.18" cy="-292.177" rx="4.00001" ry="4.00001"/>
<polygon fill="#88e7d9" stroke="#88e7d9" points="927.318,-117.088 935.814,-110.155 929.554,-112.616 931.789,-108.143 931.789,-108.143 931.789,-108.143 929.554,-112.616 927.764,-106.131 927.318,-117.088 927.318,-117.088"/>
</g>
<!-- Scenario&#45;&gt;Narrative -->
<g id="edge47" class="edge"><title>Scenario&#45;&gt;Narrative</title>
<path fill="none" stroke="#f51306" d="M754.444,-115.852C751.909,-124.707 749.124,-134.771 746.795,-144 738.772,-175.784 735.647,-183.581 730.795,-216 727.717,-236.564 725.942,-260.017 724.951,-277.683"/>
<ellipse fill="none" stroke="#f51306" cx="755.57" cy="-111.961" rx="4.00001" ry="4.00001"/>
<polygon fill="#f51306" stroke="#f51306" points="724.941,-277.871 719.935,-287.627 724.685,-282.864 724.43,-287.857 724.43,-287.857 724.43,-287.857 724.685,-282.864 728.924,-288.088 724.941,-277.871 724.941,-277.871"/>
</g>
<!-- Reaction&#45;&gt;Diagnosis -->
<g id="edge48" class="edge"><title>Reaction&#45;&gt;Diagnosis</title>
<path fill="none" stroke="#cb09a4" d="M913.929,-68.6562C902.746,-59.8605 889.646,-49.5576 878.287,-40.6234"/>
<ellipse fill="none" stroke="#cb09a4" cx="917.339" cy="-71.3382" rx="4.00002" ry="4.00002"/>
<polygon fill="#cb09a4" stroke="#cb09a4" points="878.236,-40.5832 873.158,-30.864 874.306,-37.4921 870.376,-34.401 870.376,-34.401 870.376,-34.401 874.306,-37.4921 867.594,-37.9381 878.236,-40.5832 878.236,-40.5832"/>
</g>
<!-- Assessment&#45;&gt;Installment -->
<g id="edge49" class="edge"><title>Assessment&#45;&gt;Installment</title>
<path fill="none" stroke="#fbd96a" d="M546.189,-208.925C560.424,-183.336 582.852,-143.023 597.443,-116.797"/>
<ellipse fill="none" stroke="#fbd96a" cx="544.112" cy="-212.658" rx="4.00002" ry="4.00002"/>
<polygon fill="#fbd96a" stroke="#fbd96a" points="597.573,-116.564 606.367,-110.013 600.003,-112.194 602.434,-107.825 602.434,-107.825 602.434,-107.825 600.003,-112.194 598.502,-105.637 597.573,-116.564 597.573,-116.564"/>
</g>
<!-- Assessment&#45;&gt;Group -->
<g id="edge51" class="edge"><title>Assessment&#45;&gt;Group</title>
<path fill="none" stroke="#2a7e5f" d="M518.47,-207.289C515.115,-201.267 511.54,-194.851 508.183,-188.824"/>
<polygon fill="#2a7e5f" stroke="#2a7e5f" points="518.487,-207.319 519.423,-218.245 520.92,-211.687 523.354,-216.055 523.354,-216.055 523.354,-216.055 520.92,-211.687 527.285,-213.865 518.487,-207.319 518.487,-207.319"/>
<polygon fill="#2a7e5f" stroke="#2a7e5f" points="508.016,-188.525 507.08,-177.599 505.582,-184.157 503.149,-179.789 503.149,-179.789 503.149,-179.789 505.582,-184.157 499.218,-181.979 508.016,-188.525 508.016,-188.525"/>
</g>
<!-- Assessment&#45;&gt;Factor -->
<g id="edge50" class="edge"><title>Assessment&#45;&gt;Factor</title>
<path fill="none" stroke="#e12430" d="M482.476,-220.003C430.031,-206.456 348.945,-185.511 301.042,-173.138"/>
<polygon fill="#e12430" stroke="#e12430" points="482.541,-220.019 491.098,-226.877 487.382,-221.27 492.223,-222.52 492.223,-222.52 492.223,-222.52 487.382,-221.27 493.349,-218.163 482.541,-220.019 482.541,-220.019"/>
<polygon fill="#e12430" stroke="#e12430" points="301.028,-173.134 292.471,-166.276 296.187,-171.884 291.346,-170.633 291.346,-170.633 291.346,-170.633 296.187,-171.884 290.22,-174.99 301.028,-173.134 301.028,-173.134"/>
</g>
<!-- CandidateList&#45;&gt;Candidate -->
<g id="edge52" class="edge"><title>CandidateList&#45;&gt;Candidate</title>
<path fill="none" stroke="#e58cc3" d="M92.5785,-69.552C108.889,-59.876 128.556,-48.2094 144.884,-38.5231"/>
<ellipse fill="none" stroke="#e58cc3" cx="89.1305" cy="-71.5974" rx="4.00002" ry="4.00002"/>
<polygon fill="#e58cc3" stroke="#e58cc3" points="144.969,-38.4729 155.865,-37.2411 149.269,-35.9219 153.57,-33.3708 153.57,-33.3708 153.57,-33.3708 149.269,-35.9219 151.274,-29.5006 144.969,-38.4729 144.969,-38.4729"/>
</g>
<!-- Experience&#45;&gt;Reaction -->
<g id="edge53" class="edge"><title>Experience&#45;&gt;Reaction</title>
<path fill="none" stroke="#24471d" d="M992.253,-279.614C989.721,-247.365 983.308,-190.335 967.795,-144 964.641,-134.579 959.945,-124.814 955.296,-116.271"/>
<ellipse fill="none" stroke="#24471d" cx="992.55" cy="-283.651" rx="4" ry="4"/>
<polygon fill="#24471d" stroke="#24471d" points="955.285,-116.251 954.258,-105.333 952.815,-111.903 950.345,-107.556 950.345,-107.556 950.345,-107.556 952.815,-111.903 946.432,-109.779 955.285,-116.251 955.285,-116.251"/>
</g>
<!-- BingoGame&#45;&gt;CandidateList -->
<g id="edge54" class="edge"><title>BingoGame&#45;&gt;CandidateList</title>
<path fill="none" stroke="#059ece" d="M64.7197,-207.558C63.6585,-182.444 62.0411,-144.164 60.9522,-118.393"/>
<ellipse fill="none" stroke="#059ece" cx="64.902" cy="-211.875" rx="4" ry="4"/>
<polygon fill="#059ece" stroke="#059ece" points="60.9433,-118.18 65.017,-107.999 60.7321,-113.185 60.521,-108.189 60.521,-108.189 60.521,-108.189 60.7321,-113.185 56.025,-108.379 60.9433,-118.18 60.9433,-118.18"/>
</g>
<!-- Role -->
<g id="node35" class="node"><title>Role</title>
<ellipse fill="none" stroke="black" cx="468.795" cy="-450" rx="27.0966" ry="18"/>
<text text-anchor="middle" x="468.795" y="-446.3" font-family="Times,serif" font-size="14.00">Role</text>
</g>
<!-- Role&#45;&gt;User -->
<g id="edge55" class="edge"><title>Role&#45;&gt;User</title>
<path fill="none" stroke="#1bf701" d="M497.489,-435.536C500.283,-434.31 503.085,-433.112 505.795,-432 544.008,-416.316 588.765,-400.425 618.553,-390.191"/>
<ellipse fill="none" stroke="#1bf701" cx="493.835" cy="-437.174" rx="4.00002" ry="4.00002"/>
<polygon fill="#1bf701" stroke="#1bf701" points="618.587,-390.179 629.505,-391.203 623.318,-388.562 628.049,-386.945 628.049,-386.945 628.049,-386.945 623.318,-388.562 626.594,-382.687 618.587,-390.179 618.587,-390.179"/>
</g>
<!-- Role&#45;&gt;Roster -->
<g id="edge56" class="edge"><title>Role&#45;&gt;Roster</title>
<path fill="none" stroke="#af7678" d="M478.418,-424.454C481.408,-415.627 484.308,-405.502 485.795,-396 489.019,-375.391 486.118,-351.941 482.625,-334.287"/>
<ellipse fill="none" stroke="#af7678" cx="477.025" cy="-428.372" rx="4.00001" ry="4.00001"/>
<polygon fill="#af7678" stroke="#af7678" points="482.541,-333.894 484.822,-323.168 481.482,-329.007 480.424,-324.121 480.424,-324.121 480.424,-324.121 481.482,-329.007 476.026,-325.073 482.541,-333.894 482.541,-333.894"/>
</g>
</g>
</svg>
