<?xml version="1.0" encoding="UTF-8" standalone="no"?>
<!DOCTYPE svg PUBLIC "-//W3C//DTD SVG 1.1//EN"
 "http://www.w3.org/Graphics/SVG/1.1/DTD/svg11.dtd">
<!-- Generated by graphviz version 2.38.0 (20140413.2041)
 -->
<!-- Title: models_diagram Pages: 1 -->
<svg width="1930pt" height="2384pt"
 viewBox="0.00 0.00 1930.00 2384.00" xmlns="http://www.w3.org/2000/svg" xmlns:xlink="http://www.w3.org/1999/xlink">
<g id="graph0" class="graph" transform="scale(1 1) rotate(0) translate(4 2380)">
<title>models_diagram</title>
<polygon fill="none" stroke="none" points="-4,4 -4,-2380 1926,-2380 1926,4 -4,4"/>
<!-- _diagram_info -->
<g id="node1" class="node"><title>_diagram_info</title>
<text text-anchor="start" x="8" y="-2347.1" font-family="Times,serif" font-size="13.00">Models diagram</text>
<text text-anchor="start" x="8" y="-2333.1" font-family="Times,serif" font-size="13.00">Date: May 25 2017 &#45; 09:29</text>
<text text-anchor="start" x="8" y="-2319.1" font-family="Times,serif" font-size="13.00">Migration version: 20170524044413</text>
<text text-anchor="start" x="8" y="-2305.1" font-family="Times,serif" font-size="13.00">Generated by RailRoady 1.5.2</text>
<text text-anchor="start" x="8" y="-2291.1" font-family="Times,serif" font-size="13.00">http://railroady.prestonlee.com</text>
</g>
<!-- GroupProjectCount -->
<g id="node2" class="node"><title>GroupProjectCount</title>
<path fill="none" stroke="black" d="M416,-2284.5C416,-2284.5 546,-2284.5 546,-2284.5 552,-2284.5 558,-2290.5 558,-2296.5 558,-2296.5 558,-2348.5 558,-2348.5 558,-2354.5 552,-2360.5 546,-2360.5 546,-2360.5 416,-2360.5 416,-2360.5 410,-2360.5 404,-2354.5 404,-2348.5 404,-2348.5 404,-2296.5 404,-2296.5 404,-2290.5 410,-2284.5 416,-2284.5"/>
<text text-anchor="middle" x="481" y="-2345.3" font-family="Times,serif" font-size="14.00">GroupProjectCount</text>
<polyline fill="none" stroke="black" points="404,-2337.5 558,-2337.5 "/>
<text text-anchor="start" x="412" y="-2322.3" font-family="Times,serif" font-size="14.00">id :int(11)</text>
<text text-anchor="start" x="412" y="-2307.3" font-family="Times,serif" font-size="14.00">name :varchar(255)</text>
<text text-anchor="start" x="412" y="-2292.3" font-family="Times,serif" font-size="14.00">description :varchar(255)</text>
</g>
<!-- User -->
<g id="node11" class="node"><title>User</title>
<path fill="none" stroke="black" d="M684,-1706.5C684,-1706.5 874,-1706.5 874,-1706.5 880,-1706.5 886,-1712.5 886,-1718.5 886,-1718.5 886,-2220.5 886,-2220.5 886,-2226.5 880,-2232.5 874,-2232.5 874,-2232.5 684,-2232.5 684,-2232.5 678,-2232.5 672,-2226.5 672,-2220.5 672,-2220.5 672,-1718.5 672,-1718.5 672,-1712.5 678,-1706.5 684,-1706.5"/>
<text text-anchor="middle" x="779" y="-2217.3" font-family="Times,serif" font-size="14.00">User</text>
<polyline fill="none" stroke="black" points="672,-2209.5 886,-2209.5 "/>
<text text-anchor="start" x="680" y="-2194.3" font-family="Times,serif" font-size="14.00">id :int(11)</text>
<text text-anchor="start" x="680" y="-2179.3" font-family="Times,serif" font-size="14.00">encrypted_password :varchar(255)</text>
<text text-anchor="start" x="680" y="-2164.3" font-family="Times,serif" font-size="14.00">reset_password_token :varchar(255)</text>
<text text-anchor="start" x="680" y="-2149.3" font-family="Times,serif" font-size="14.00">reset_password_sent_at :datetime</text>
<text text-anchor="start" x="680" y="-2134.3" font-family="Times,serif" font-size="14.00">remember_created_at :datetime</text>
<text text-anchor="start" x="680" y="-2119.3" font-family="Times,serif" font-size="14.00">sign_in_count :int(11)</text>
<text text-anchor="start" x="680" y="-2104.3" font-family="Times,serif" font-size="14.00">current_sign_in_at :datetime</text>
<text text-anchor="start" x="680" y="-2089.3" font-family="Times,serif" font-size="14.00">last_sign_in_at :datetime</text>
<text text-anchor="start" x="680" y="-2074.3" font-family="Times,serif" font-size="14.00">current_sign_in_ip :varchar(255)</text>
<text text-anchor="start" x="680" y="-2059.3" font-family="Times,serif" font-size="14.00">last_sign_in_ip :varchar(255)</text>
<text text-anchor="start" x="680" y="-2044.3" font-family="Times,serif" font-size="14.00">confirmation_token :varchar(255)</text>
<text text-anchor="start" x="680" y="-2029.3" font-family="Times,serif" font-size="14.00">confirmed_at :datetime</text>
<text text-anchor="start" x="680" y="-2014.3" font-family="Times,serif" font-size="14.00">confirmation_sent_at :datetime</text>
<text text-anchor="start" x="680" y="-1999.3" font-family="Times,serif" font-size="14.00">unconfirmed_email :varchar(255)</text>
<text text-anchor="start" x="680" y="-1984.3" font-family="Times,serif" font-size="14.00">failed_attempts :int(11)</text>
<text text-anchor="start" x="680" y="-1969.3" font-family="Times,serif" font-size="14.00">unlock_token :varchar(255)</text>
<text text-anchor="start" x="680" y="-1954.3" font-family="Times,serif" font-size="14.00">locked_at :datetime</text>
<text text-anchor="start" x="680" y="-1939.3" font-family="Times,serif" font-size="14.00">created_at :datetime</text>
<text text-anchor="start" x="680" y="-1924.3" font-family="Times,serif" font-size="14.00">updated_at :datetime</text>
<text text-anchor="start" x="680" y="-1909.3" font-family="Times,serif" font-size="14.00">first_name :varchar(255)</text>
<text text-anchor="start" x="680" y="-1894.3" font-family="Times,serif" font-size="14.00">last_name :varchar(255)</text>
<text text-anchor="start" x="680" y="-1879.3" font-family="Times,serif" font-size="14.00">gender_id :int(11)</text>
<text text-anchor="start" x="680" y="-1864.3" font-family="Times,serif" font-size="14.00">age_range_id :int(11)</text>
<text text-anchor="start" x="680" y="-1849.3" font-family="Times,serif" font-size="14.00">country :varchar(255)</text>
<text text-anchor="start" x="680" y="-1834.3" font-family="Times,serif" font-size="14.00">timezone :varchar(255)</text>
<text text-anchor="start" x="680" y="-1819.3" font-family="Times,serif" font-size="14.00">admin :tinyint(1)</text>
<text text-anchor="start" x="680" y="-1804.3" font-family="Times,serif" font-size="14.00">welcomed :tinyint(1)</text>
<text text-anchor="start" x="680" y="-1789.3" font-family="Times,serif" font-size="14.00">last_emailed :datetime</text>
<text text-anchor="start" x="680" y="-1774.3" font-family="Times,serif" font-size="14.00">theme_id :int(11)</text>
<text text-anchor="start" x="680" y="-1759.3" font-family="Times,serif" font-size="14.00">school_id :int(11)</text>
<text text-anchor="start" x="680" y="-1744.3" font-family="Times,serif" font-size="14.00">anon_first_name :varchar(255)</text>
<text text-anchor="start" x="680" y="-1729.3" font-family="Times,serif" font-size="14.00">anon_last_name :varchar(255)</text>
<text text-anchor="start" x="680" y="-1714.3" font-family="Times,serif" font-size="14.00">research :tinyint(1)</text>
</g>
<!-- GroupProjectCount&#45;&gt;User -->
<g id="edge1" class="edge"><title>GroupProjectCount&#45;&gt;User</title>
<path fill="none" stroke="#157202" d="M517.859,-2278.09C554.618,-2234.79 612.981,-2166.05 665.219,-2104.52"/>
<ellipse fill="none" stroke="#157202" cx="515.198" cy="-2281.22" rx="4.00002" ry="4.00002"/>
<polygon fill="#157202" stroke="#157202" points="665.413,-2104.29 675.316,-2099.58 668.649,-2100.48 671.885,-2096.67 671.885,-2096.67 671.885,-2096.67 668.649,-2100.48 668.455,-2093.75 665.413,-2104.29 665.413,-2104.29"/>
</g>
<!-- Theme -->
<g id="node3" class="node"><title>Theme</title>
<path fill="none" stroke="black" d="M588.5,-2269.5C588.5,-2269.5 695.5,-2269.5 695.5,-2269.5 701.5,-2269.5 707.5,-2275.5 707.5,-2281.5 707.5,-2281.5 707.5,-2363.5 707.5,-2363.5 707.5,-2369.5 701.5,-2375.5 695.5,-2375.5 695.5,-2375.5 588.5,-2375.5 588.5,-2375.5 582.5,-2375.5 576.5,-2369.5 576.5,-2363.5 576.5,-2363.5 576.5,-2281.5 576.5,-2281.5 576.5,-2275.5 582.5,-2269.5 588.5,-2269.5"/>
<text text-anchor="middle" x="642" y="-2360.3" font-family="Times,serif" font-size="14.00">Theme</text>
<polyline fill="none" stroke="black" points="576.5,-2352.5 707.5,-2352.5 "/>
<text text-anchor="start" x="584.5" y="-2337.3" font-family="Times,serif" font-size="14.00">id :int(11)</text>
<text text-anchor="start" x="584.5" y="-2322.3" font-family="Times,serif" font-size="14.00">code :varchar(255)</text>
<text text-anchor="start" x="584.5" y="-2307.3" font-family="Times,serif" font-size="14.00">name :varchar(255)</text>
<text text-anchor="start" x="584.5" y="-2292.3" font-family="Times,serif" font-size="14.00">created_at :datetime</text>
<text text-anchor="start" x="584.5" y="-2277.3" font-family="Times,serif" font-size="14.00">updated_at :datetime</text>
</g>
<!-- Theme&#45;&gt;User -->
<g id="edge2" class="edge"><title>Theme&#45;&gt;User</title>
<path fill="none" stroke="#c4cddc" d="M665.272,-2261.88C667.711,-2255.63 670.289,-2249.02 672.978,-2242.13"/>
<ellipse fill="none" stroke="#c4cddc" cx="663.817" cy="-2265.6" rx="4.00001" ry="4.00001"/>
<polygon fill="#c4cddc" stroke="#c4cddc" points="673.075,-2241.88 680.903,-2234.2 674.893,-2237.23 676.711,-2232.57 676.711,-2232.57 676.711,-2232.57 674.893,-2237.23 672.519,-2230.93 673.075,-2241.88 673.075,-2241.88"/>
</g>
<!-- FactorPack -->
<g id="node4" class="node"><title>FactorPack</title>
<path fill="none" stroke="black" d="M1409.5,-1105C1409.5,-1105 1516.5,-1105 1516.5,-1105 1522.5,-1105 1528.5,-1111 1528.5,-1117 1528.5,-1117 1528.5,-1199 1528.5,-1199 1528.5,-1205 1522.5,-1211 1516.5,-1211 1516.5,-1211 1409.5,-1211 1409.5,-1211 1403.5,-1211 1397.5,-1205 1397.5,-1199 1397.5,-1199 1397.5,-1117 1397.5,-1117 1397.5,-1111 1403.5,-1105 1409.5,-1105"/>
<text text-anchor="middle" x="1463" y="-1195.8" font-family="Times,serif" font-size="14.00">FactorPack</text>
<polyline fill="none" stroke="black" points="1397.5,-1188 1528.5,-1188 "/>
<text text-anchor="start" x="1405.5" y="-1172.8" font-family="Times,serif" font-size="14.00">id :int(11)</text>
<text text-anchor="start" x="1405.5" y="-1157.8" font-family="Times,serif" font-size="14.00">name :varchar(255)</text>
<text text-anchor="start" x="1405.5" y="-1142.8" font-family="Times,serif" font-size="14.00">description :text</text>
<text text-anchor="start" x="1405.5" y="-1127.8" font-family="Times,serif" font-size="14.00">created_at :datetime</text>
<text text-anchor="start" x="1405.5" y="-1112.8" font-family="Times,serif" font-size="14.00">updated_at :datetime</text>
</g>
<!-- Project -->
<g id="node16" class="node"><title>Project</title>
<path fill="none" stroke="black" d="M1168.5,-759.5C1168.5,-759.5 1301.5,-759.5 1301.5,-759.5 1307.5,-759.5 1313.5,-765.5 1313.5,-771.5 1313.5,-771.5 1313.5,-1003.5 1313.5,-1003.5 1313.5,-1009.5 1307.5,-1015.5 1301.5,-1015.5 1301.5,-1015.5 1168.5,-1015.5 1168.5,-1015.5 1162.5,-1015.5 1156.5,-1009.5 1156.5,-1003.5 1156.5,-1003.5 1156.5,-771.5 1156.5,-771.5 1156.5,-765.5 1162.5,-759.5 1168.5,-759.5"/>
<text text-anchor="middle" x="1235" y="-1000.3" font-family="Times,serif" font-size="14.00">Project</text>
<polyline fill="none" stroke="black" points="1156.5,-992.5 1313.5,-992.5 "/>
<text text-anchor="start" x="1164.5" y="-977.3" font-family="Times,serif" font-size="14.00">id :int(11)</text>
<text text-anchor="start" x="1164.5" y="-962.3" font-family="Times,serif" font-size="14.00">name :varchar(255)</text>
<text text-anchor="start" x="1164.5" y="-947.3" font-family="Times,serif" font-size="14.00">description :varchar(255)</text>
<text text-anchor="start" x="1164.5" y="-932.3" font-family="Times,serif" font-size="14.00">course_id :int(11)</text>
<text text-anchor="start" x="1164.5" y="-917.3" font-family="Times,serif" font-size="14.00">created_at :datetime</text>
<text text-anchor="start" x="1164.5" y="-902.3" font-family="Times,serif" font-size="14.00">updated_at :datetime</text>
<text text-anchor="start" x="1164.5" y="-887.3" font-family="Times,serif" font-size="14.00">start_dow :int(11)</text>
<text text-anchor="start" x="1164.5" y="-872.3" font-family="Times,serif" font-size="14.00">end_dow :int(11)</text>
<text text-anchor="start" x="1164.5" y="-857.3" font-family="Times,serif" font-size="14.00">active :tinyint(1)</text>
<text text-anchor="start" x="1164.5" y="-842.3" font-family="Times,serif" font-size="14.00">start_date :datetime</text>
<text text-anchor="start" x="1164.5" y="-827.3" font-family="Times,serif" font-size="14.00">end_date :datetime</text>
<text text-anchor="start" x="1164.5" y="-812.3" font-family="Times,serif" font-size="14.00">consent_form_id :int(11)</text>
<text text-anchor="start" x="1164.5" y="-797.3" font-family="Times,serif" font-size="14.00">factor_pack_id :int(11)</text>
<text text-anchor="start" x="1164.5" y="-782.3" font-family="Times,serif" font-size="14.00">style_id :int(11)</text>
<text text-anchor="start" x="1164.5" y="-767.3" font-family="Times,serif" font-size="14.00">anon_name :varchar(255)</text>
</g>
<!-- FactorPack&#45;&gt;Project -->
<g id="edge4" class="edge"><title>FactorPack&#45;&gt;Project</title>
<path fill="none" stroke="#2d4d1c" d="M1419.67,-1098.31C1408.01,-1083.03 1395.24,-1066.73 1383,-1052 1363.24,-1028.22 1341.21,-1003.17 1320.32,-980.022"/>
<ellipse fill="none" stroke="#2d4d1c" cx="1422.17" cy="-1101.6" rx="4.00002" ry="4.00002"/>
<polygon fill="#2d4d1c" stroke="#2d4d1c" points="1320.3,-979.991 1316.92,-969.557 1316.94,-976.283 1313.59,-972.576 1313.59,-972.576 1313.59,-972.576 1316.94,-976.283 1310.25,-975.596 1320.3,-979.991 1320.3,-979.991"/>
</g>
<!-- Factor -->
<g id="node21" class="node"><title>Factor</title>
<path fill="none" stroke="black" d="M1205,-226C1205,-226 1335,-226 1335,-226 1341,-226 1347,-232 1347,-238 1347,-238 1347,-320 1347,-320 1347,-326 1341,-332 1335,-332 1335,-332 1205,-332 1205,-332 1199,-332 1193,-326 1193,-320 1193,-320 1193,-238 1193,-238 1193,-232 1199,-226 1205,-226"/>
<text text-anchor="middle" x="1270" y="-316.8" font-family="Times,serif" font-size="14.00">Factor</text>
<polyline fill="none" stroke="black" points="1193,-309 1347,-309 "/>
<text text-anchor="start" x="1201" y="-293.8" font-family="Times,serif" font-size="14.00">id :int(11)</text>
<text text-anchor="start" x="1201" y="-278.8" font-family="Times,serif" font-size="14.00">description :varchar(255)</text>
<text text-anchor="start" x="1201" y="-263.8" font-family="Times,serif" font-size="14.00">name :varchar(255)</text>
<text text-anchor="start" x="1201" y="-248.8" font-family="Times,serif" font-size="14.00">created_at :datetime</text>
<text text-anchor="start" x="1201" y="-233.8" font-family="Times,serif" font-size="14.00">updated_at :datetime</text>
</g>
<!-- FactorPack&#45;&gt;Factor -->
<g id="edge3" class="edge"><title>FactorPack&#45;&gt;Factor</title>
<path fill="none" stroke="#0c7c96" d="M1449.31,-1094.8C1413.85,-933.644 1319.28,-503.932 1283.75,-342.478"/>
<polygon fill="#0c7c96" stroke="#0c7c96" points="1449.36,-1095 1447.11,-1105.73 1450.43,-1099.88 1451.5,-1104.77 1451.5,-1104.77 1451.5,-1104.77 1450.43,-1099.88 1455.9,-1103.8 1449.36,-1095 1449.36,-1095"/>
<polygon fill="#0c7c96" stroke="#0c7c96" points="1283.64,-342.003 1285.89,-331.269 1282.57,-337.12 1281.5,-332.237 1281.5,-332.237 1281.5,-332.237 1282.57,-337.12 1277.1,-333.204 1283.64,-342.003 1283.64,-342.003"/>
</g>
<!-- Course -->
<g id="node5" class="node"><title>Course</title>
<path fill="none" stroke="black" d="M758.5,-1052.5C758.5,-1052.5 903.5,-1052.5 903.5,-1052.5 909.5,-1052.5 915.5,-1058.5 915.5,-1064.5 915.5,-1064.5 915.5,-1251.5 915.5,-1251.5 915.5,-1257.5 909.5,-1263.5 903.5,-1263.5 903.5,-1263.5 758.5,-1263.5 758.5,-1263.5 752.5,-1263.5 746.5,-1257.5 746.5,-1251.5 746.5,-1251.5 746.5,-1064.5 746.5,-1064.5 746.5,-1058.5 752.5,-1052.5 758.5,-1052.5"/>
<text text-anchor="middle" x="831" y="-1248.3" font-family="Times,serif" font-size="14.00">Course</text>
<polyline fill="none" stroke="black" points="746.5,-1240.5 915.5,-1240.5 "/>
<text text-anchor="start" x="754.5" y="-1225.3" font-family="Times,serif" font-size="14.00">id :int(11)</text>
<text text-anchor="start" x="754.5" y="-1210.3" font-family="Times,serif" font-size="14.00">name :varchar(255)</text>
<text text-anchor="start" x="754.5" y="-1195.3" font-family="Times,serif" font-size="14.00">description :varchar(255)</text>
<text text-anchor="start" x="754.5" y="-1180.3" font-family="Times,serif" font-size="14.00">timezone :varchar(255)</text>
<text text-anchor="start" x="754.5" y="-1165.3" font-family="Times,serif" font-size="14.00">school_id :int(11)</text>
<text text-anchor="start" x="754.5" y="-1150.3" font-family="Times,serif" font-size="14.00">start_date :datetime</text>
<text text-anchor="start" x="754.5" y="-1135.3" font-family="Times,serif" font-size="14.00">end_date :datetime</text>
<text text-anchor="start" x="754.5" y="-1120.3" font-family="Times,serif" font-size="14.00">created_at :datetime</text>
<text text-anchor="start" x="754.5" y="-1105.3" font-family="Times,serif" font-size="14.00">updated_at :datetime</text>
<text text-anchor="start" x="754.5" y="-1090.3" font-family="Times,serif" font-size="14.00">number :varchar(255)</text>
<text text-anchor="start" x="754.5" y="-1075.3" font-family="Times,serif" font-size="14.00">anon_name :varchar(255)</text>
<text text-anchor="start" x="754.5" y="-1060.3" font-family="Times,serif" font-size="14.00">anon_number :varchar(255)</text>
</g>
<!-- Course&#45;&gt;User -->
<g id="edge8" class="edge"><title>Course&#45;&gt;User</title>
<path fill="none" stroke="#9d0680" d="M823.635,-1273.66C816.606,-1383.08 805.748,-1552.1 796.501,-1696.05"/>
<polygon fill="#9d0680" stroke="#9d0680" points="823.641,-1273.57 828.772,-1263.87 823.961,-1268.58 824.282,-1263.59 824.282,-1263.59 824.282,-1263.59 823.961,-1268.58 819.791,-1263.3 823.641,-1273.57 823.641,-1273.57"/>
<polygon fill="#9d0680" stroke="#9d0680" points="796.488,-1696.26 791.356,-1705.95 796.168,-1701.25 795.847,-1706.24 795.847,-1706.24 795.847,-1706.24 796.168,-1701.25 800.338,-1706.53 796.488,-1696.26 796.488,-1696.26"/>
</g>
<!-- Roster -->
<g id="node13" class="node"><title>Roster</title>
<path fill="none" stroke="black" d="M983.5,-827C983.5,-827 1090.5,-827 1090.5,-827 1096.5,-827 1102.5,-833 1102.5,-839 1102.5,-839 1102.5,-936 1102.5,-936 1102.5,-942 1096.5,-948 1090.5,-948 1090.5,-948 983.5,-948 983.5,-948 977.5,-948 971.5,-942 971.5,-936 971.5,-936 971.5,-839 971.5,-839 971.5,-833 977.5,-827 983.5,-827"/>
<text text-anchor="middle" x="1037" y="-932.8" font-family="Times,serif" font-size="14.00">Roster</text>
<polyline fill="none" stroke="black" points="971.5,-925 1102.5,-925 "/>
<text text-anchor="start" x="979.5" y="-909.8" font-family="Times,serif" font-size="14.00">id :int(11)</text>
<text text-anchor="start" x="979.5" y="-894.8" font-family="Times,serif" font-size="14.00">role_id :int(11)</text>
<text text-anchor="start" x="979.5" y="-879.8" font-family="Times,serif" font-size="14.00">course_id :int(11)</text>
<text text-anchor="start" x="979.5" y="-864.8" font-family="Times,serif" font-size="14.00">user_id :int(11)</text>
<text text-anchor="start" x="979.5" y="-849.8" font-family="Times,serif" font-size="14.00">created_at :datetime</text>
<text text-anchor="start" x="979.5" y="-834.8" font-family="Times,serif" font-size="14.00">updated_at :datetime</text>
</g>
<!-- Course&#45;&gt;Roster -->
<g id="edge6" class="edge"><title>Course&#45;&gt;Roster</title>
<path fill="none" stroke="#f9290a" d="M916.343,-1045.76C939.587,-1015.47 964.068,-983.56 984.858,-956.462"/>
<ellipse fill="none" stroke="#f9290a" cx="913.67" cy="-1049.25" rx="4.00002" ry="4.00002"/>
<polygon fill="#f9290a" stroke="#f9290a" points="985.099,-956.148 994.756,-950.953 988.142,-952.181 991.186,-948.214 991.186,-948.214 991.186,-948.214 988.142,-952.181 987.616,-945.475 985.099,-956.148 985.099,-956.148"/>
</g>
<!-- Course&#45;&gt;Project -->
<g id="edge5" class="edge"><title>Course&#45;&gt;Project</title>
<path fill="none" stroke="#78f043" d="M923.356,-1120.16C980.461,-1095.15 1053.72,-1058.87 1112,-1016 1124.62,-1006.72 1137.08,-996.083 1148.96,-985.001"/>
<ellipse fill="none" stroke="#78f043" cx="919.433" cy="-1121.87" rx="4.00002" ry="4.00002"/>
<polygon fill="#78f043" stroke="#78f043" points="1149.02,-984.94 1159.37,-981.313 1152.65,-981.495 1156.27,-978.051 1156.27,-978.051 1156.27,-978.051 1152.65,-981.495 1153.17,-974.789 1149.02,-984.94 1149.02,-984.94"/>
</g>
<!-- Experience -->
<g id="node33" class="node"><title>Experience</title>
<path fill="none" stroke="black" d="M637,-797C637,-797 789,-797 789,-797 795,-797 801,-803 801,-809 801,-809 801,-966 801,-966 801,-972 795,-978 789,-978 789,-978 637,-978 637,-978 631,-978 625,-972 625,-966 625,-966 625,-809 625,-809 625,-803 631,-797 637,-797"/>
<text text-anchor="middle" x="713" y="-962.8" font-family="Times,serif" font-size="14.00">Experience</text>
<polyline fill="none" stroke="black" points="625,-955 801,-955 "/>
<text text-anchor="start" x="633" y="-939.8" font-family="Times,serif" font-size="14.00">id :int(11)</text>
<text text-anchor="start" x="633" y="-924.8" font-family="Times,serif" font-size="14.00">course_id :int(11)</text>
<text text-anchor="start" x="633" y="-909.8" font-family="Times,serif" font-size="14.00">name :varchar(255)</text>
<text text-anchor="start" x="633" y="-894.8" font-family="Times,serif" font-size="14.00">start_date :datetime</text>
<text text-anchor="start" x="633" y="-879.8" font-family="Times,serif" font-size="14.00">end_date :datetime</text>
<text text-anchor="start" x="633" y="-864.8" font-family="Times,serif" font-size="14.00">created_at :datetime</text>
<text text-anchor="start" x="633" y="-849.8" font-family="Times,serif" font-size="14.00">updated_at :datetime</text>
<text text-anchor="start" x="633" y="-834.8" font-family="Times,serif" font-size="14.00">active :tinyint(1)</text>
<text text-anchor="start" x="633" y="-819.8" font-family="Times,serif" font-size="14.00">instructor_updated :tinyint(1)</text>
<text text-anchor="start" x="633" y="-804.8" font-family="Times,serif" font-size="14.00">anon_name :varchar(255)</text>
</g>
<!-- Course&#45;&gt;Experience -->
<g id="edge9" class="edge"><title>Course&#45;&gt;Experience</title>
<path fill="none" stroke="#701705" d="M781.75,-1044.94C773.411,-1025.96 764.805,-1006.38 756.623,-987.76"/>
<ellipse fill="none" stroke="#701705" cx="783.431" cy="-1048.76" rx="4.00002" ry="4.00002"/>
<polygon fill="#701705" stroke="#701705" points="756.539,-987.569 756.635,-976.604 754.527,-982.992 752.515,-978.414 752.515,-978.414 752.515,-978.414 754.527,-982.992 748.396,-980.225 756.539,-987.569 756.539,-987.569"/>
</g>
<!-- BingoGame -->
<g id="node34" class="node"><title>BingoGame</title>
<path fill="none" stroke="black" d="M791,-391.5C791,-391.5 943,-391.5 943,-391.5 949,-391.5 955,-397.5 955,-403.5 955,-403.5 955,-710.5 955,-710.5 955,-716.5 949,-722.5 943,-722.5 943,-722.5 791,-722.5 791,-722.5 785,-722.5 779,-716.5 779,-710.5 779,-710.5 779,-403.5 779,-403.5 779,-397.5 785,-391.5 791,-391.5"/>
<text text-anchor="middle" x="867" y="-707.3" font-family="Times,serif" font-size="14.00">BingoGame</text>
<polyline fill="none" stroke="black" points="779,-699.5 955,-699.5 "/>
<text text-anchor="start" x="787" y="-684.3" font-family="Times,serif" font-size="14.00">id :int(11)</text>
<text text-anchor="start" x="787" y="-669.3" font-family="Times,serif" font-size="14.00">topic :varchar(255)</text>
<text text-anchor="start" x="787" y="-654.3" font-family="Times,serif" font-size="14.00">description :text</text>
<text text-anchor="start" x="787" y="-639.3" font-family="Times,serif" font-size="14.00">link :varchar(255)</text>
<text text-anchor="start" x="787" y="-624.3" font-family="Times,serif" font-size="14.00">source :varchar(255)</text>
<text text-anchor="start" x="787" y="-609.3" font-family="Times,serif" font-size="14.00">group_option :tinyint(1)</text>
<text text-anchor="start" x="787" y="-594.3" font-family="Times,serif" font-size="14.00">individual_count :int(11)</text>
<text text-anchor="start" x="787" y="-579.3" font-family="Times,serif" font-size="14.00">start_date :datetime</text>
<text text-anchor="start" x="787" y="-564.3" font-family="Times,serif" font-size="14.00">end_date :datetime</text>
<text text-anchor="start" x="787" y="-549.3" font-family="Times,serif" font-size="14.00">created_at :datetime</text>
<text text-anchor="start" x="787" y="-534.3" font-family="Times,serif" font-size="14.00">updated_at :datetime</text>
<text text-anchor="start" x="787" y="-519.3" font-family="Times,serif" font-size="14.00">active :tinyint(1)</text>
<text text-anchor="start" x="787" y="-504.3" font-family="Times,serif" font-size="14.00">course_id :int(11)</text>
<text text-anchor="start" x="787" y="-489.3" font-family="Times,serif" font-size="14.00">project_id :int(11)</text>
<text text-anchor="start" x="787" y="-474.3" font-family="Times,serif" font-size="14.00">lead_time :int(11)</text>
<text text-anchor="start" x="787" y="-459.3" font-family="Times,serif" font-size="14.00">group_discount :int(11)</text>
<text text-anchor="start" x="787" y="-444.3" font-family="Times,serif" font-size="14.00">reviewed :tinyint(1)</text>
<text text-anchor="start" x="787" y="-429.3" font-family="Times,serif" font-size="14.00">instructor_notified :tinyint(1)</text>
<text text-anchor="start" x="787" y="-414.3" font-family="Times,serif" font-size="14.00">students_notified :tinyint(1)</text>
<text text-anchor="start" x="787" y="-399.3" font-family="Times,serif" font-size="14.00">anon_topic :varchar(255)</text>
</g>
<!-- Course&#45;&gt;BingoGame -->
<g id="edge7" class="edge"><title>Course&#45;&gt;BingoGame</title>
<path fill="none" stroke="#6a506c" d="M874.731,-1044.25C877.247,-1034.8 879.4,-1025.3 881,-1016 896.943,-923.336 895.18,-818.608 888.662,-732.708"/>
<ellipse fill="none" stroke="#6a506c" cx="873.603" cy="-1048.32" rx="4.00001" ry="4.00001"/>
<polygon fill="#6a506c" stroke="#6a506c" points="888.651,-732.564 892.353,-722.242 888.259,-727.58 887.867,-722.595 887.867,-722.595 887.867,-722.595 888.259,-727.58 883.38,-722.948 888.651,-732.564 888.651,-732.564"/>
</g>
<!-- Style -->
<g id="node6" class="node"><title>Style</title>
<path fill="none" stroke="black" d="M1211,-1105C1211,-1105 1329,-1105 1329,-1105 1335,-1105 1341,-1111 1341,-1117 1341,-1117 1341,-1199 1341,-1199 1341,-1205 1335,-1211 1329,-1211 1329,-1211 1211,-1211 1211,-1211 1205,-1211 1199,-1205 1199,-1199 1199,-1199 1199,-1117 1199,-1117 1199,-1111 1205,-1105 1211,-1105"/>
<text text-anchor="middle" x="1270" y="-1195.8" font-family="Times,serif" font-size="14.00">Style</text>
<polyline fill="none" stroke="black" points="1199,-1188 1341,-1188 "/>
<text text-anchor="start" x="1207" y="-1172.8" font-family="Times,serif" font-size="14.00">id :int(11)</text>
<text text-anchor="start" x="1207" y="-1157.8" font-family="Times,serif" font-size="14.00">name :varchar(255)</text>
<text text-anchor="start" x="1207" y="-1142.8" font-family="Times,serif" font-size="14.00">filename :varchar(255)</text>
<text text-anchor="start" x="1207" y="-1127.8" font-family="Times,serif" font-size="14.00">created_at :datetime</text>
<text text-anchor="start" x="1207" y="-1112.8" font-family="Times,serif" font-size="14.00">updated_at :datetime</text>
</g>
<!-- Style&#45;&gt;Project -->
<g id="edge10" class="edge"><title>Style&#45;&gt;Project</title>
<path fill="none" stroke="#ea123f" d="M1262.17,-1096.91C1259.39,-1075.6 1256.14,-1050.66 1252.87,-1025.59"/>
<ellipse fill="none" stroke="#ea123f" cx="1262.69" cy="-1100.95" rx="4.00001" ry="4.00001"/>
<polygon fill="#ea123f" stroke="#ea123f" points="1252.86,-1025.52 1256.03,-1015.02 1252.22,-1020.56 1251.57,-1015.61 1251.57,-1015.61 1251.57,-1015.61 1252.22,-1020.56 1247.11,-1016.19 1252.86,-1025.52 1252.86,-1025.52"/>
</g>
<!-- Behavior -->
<g id="node7" class="node"><title>Behavior</title>
<path fill="none" stroke="black" d="M122.5,-834.5C122.5,-834.5 229.5,-834.5 229.5,-834.5 235.5,-834.5 241.5,-840.5 241.5,-846.5 241.5,-846.5 241.5,-928.5 241.5,-928.5 241.5,-934.5 235.5,-940.5 229.5,-940.5 229.5,-940.5 122.5,-940.5 122.5,-940.5 116.5,-940.5 110.5,-934.5 110.5,-928.5 110.5,-928.5 110.5,-846.5 110.5,-846.5 110.5,-840.5 116.5,-834.5 122.5,-834.5"/>
<text text-anchor="middle" x="176" y="-925.3" font-family="Times,serif" font-size="14.00">Behavior</text>
<polyline fill="none" stroke="black" points="110.5,-917.5 241.5,-917.5 "/>
<text text-anchor="start" x="118.5" y="-902.3" font-family="Times,serif" font-size="14.00">id :int(11)</text>
<text text-anchor="start" x="118.5" y="-887.3" font-family="Times,serif" font-size="14.00">name :varchar(255)</text>
<text text-anchor="start" x="118.5" y="-872.3" font-family="Times,serif" font-size="14.00">description :text</text>
<text text-anchor="start" x="118.5" y="-857.3" font-family="Times,serif" font-size="14.00">created_at :datetime</text>
<text text-anchor="start" x="118.5" y="-842.3" font-family="Times,serif" font-size="14.00">updated_at :datetime</text>
</g>
<!-- Diagnosis -->
<g id="node20" class="node"><title>Diagnosis</title>
<path fill="none" stroke="black" d="M256,-203.5C256,-203.5 390,-203.5 390,-203.5 396,-203.5 402,-209.5 402,-215.5 402,-215.5 402,-342.5 402,-342.5 402,-348.5 396,-354.5 390,-354.5 390,-354.5 256,-354.5 256,-354.5 250,-354.5 244,-348.5 244,-342.5 244,-342.5 244,-215.5 244,-215.5 244,-209.5 250,-203.5 256,-203.5"/>
<text text-anchor="middle" x="323" y="-339.3" font-family="Times,serif" font-size="14.00">Diagnosis</text>
<polyline fill="none" stroke="black" points="244,-331.5 402,-331.5 "/>
<text text-anchor="start" x="252" y="-316.3" font-family="Times,serif" font-size="14.00">id :int(11)</text>
<text text-anchor="start" x="252" y="-301.3" font-family="Times,serif" font-size="14.00">behavior_id :int(11)</text>
<text text-anchor="start" x="252" y="-286.3" font-family="Times,serif" font-size="14.00">reaction_id :int(11)</text>
<text text-anchor="start" x="252" y="-271.3" font-family="Times,serif" font-size="14.00">week_id :int(11)</text>
<text text-anchor="start" x="252" y="-256.3" font-family="Times,serif" font-size="14.00">comment :text</text>
<text text-anchor="start" x="252" y="-241.3" font-family="Times,serif" font-size="14.00">created_at :datetime</text>
<text text-anchor="start" x="252" y="-226.3" font-family="Times,serif" font-size="14.00">updated_at :datetime</text>
<text text-anchor="start" x="252" y="-211.3" font-family="Times,serif" font-size="14.00">other_name :varchar(255)</text>
</g>
<!-- Behavior&#45;&gt;Diagnosis -->
<g id="edge13" class="edge"><title>Behavior&#45;&gt;Diagnosis</title>
<path fill="none" stroke="#9ed0dc" d="M190.564,-826.382C197.684,-795.593 205.992,-757.432 212,-723 237.577,-576.427 205.49,-531.309 255,-391 258.243,-381.809 262.323,-372.565 266.866,-363.546"/>
<ellipse fill="none" stroke="#9ed0dc" cx="189.592" cy="-830.556" rx="4.00001" ry="4.00001"/>
<polygon fill="#9ed0dc" stroke="#9ed0dc" points="266.906,-363.47 275.535,-356.703 269.228,-359.041 271.55,-354.613 271.55,-354.613 271.55,-354.613 269.228,-359.041 267.564,-352.524 266.906,-363.47 266.906,-363.47"/>
</g>
<!-- Scenario -->
<g id="node29" class="node"><title>Scenario</title>
<path fill="none" stroke="black" d="M83.5,-504C83.5,-504 190.5,-504 190.5,-504 196.5,-504 202.5,-510 202.5,-516 202.5,-516 202.5,-598 202.5,-598 202.5,-604 196.5,-610 190.5,-610 190.5,-610 83.5,-610 83.5,-610 77.5,-610 71.5,-604 71.5,-598 71.5,-598 71.5,-516 71.5,-516 71.5,-510 77.5,-504 83.5,-504"/>
<text text-anchor="middle" x="137" y="-594.8" font-family="Times,serif" font-size="14.00">Scenario</text>
<polyline fill="none" stroke="black" points="71.5,-587 202.5,-587 "/>
<text text-anchor="start" x="79.5" y="-571.8" font-family="Times,serif" font-size="14.00">id :int(11)</text>
<text text-anchor="start" x="79.5" y="-556.8" font-family="Times,serif" font-size="14.00">name :varchar(255)</text>
<text text-anchor="start" x="79.5" y="-541.8" font-family="Times,serif" font-size="14.00">behavior_id :int(11)</text>
<text text-anchor="start" x="79.5" y="-526.8" font-family="Times,serif" font-size="14.00">created_at :datetime</text>
<text text-anchor="start" x="79.5" y="-511.8" font-family="Times,serif" font-size="14.00">updated_at :datetime</text>
</g>
<!-- Behavior&#45;&gt;Scenario -->
<g id="edge11" class="edge"><title>Behavior&#45;&gt;Scenario</title>
<path fill="none" stroke="#30c385" d="M168.855,-826.315C161.904,-767.765 151.391,-679.218 144.366,-620.043"/>
<ellipse fill="none" stroke="#30c385" cx="169.349" cy="-830.476" rx="4.00001" ry="4.00001"/>
<polygon fill="#30c385" stroke="#30c385" points="144.362,-620.01 147.652,-609.549 143.772,-615.045 143.183,-610.079 143.183,-610.079 143.183,-610.079 143.772,-615.045 138.714,-610.61 144.362,-620.01 144.362,-620.01"/>
</g>
<!-- Reaction -->
<g id="node30" class="node"><title>Reaction</title>
<path fill="none" stroke="black" d="M309,-466.5C309,-466.5 443,-466.5 443,-466.5 449,-466.5 455,-472.5 455,-478.5 455,-478.5 455,-635.5 455,-635.5 455,-641.5 449,-647.5 443,-647.5 443,-647.5 309,-647.5 309,-647.5 303,-647.5 297,-641.5 297,-635.5 297,-635.5 297,-478.5 297,-478.5 297,-472.5 303,-466.5 309,-466.5"/>
<text text-anchor="middle" x="376" y="-632.3" font-family="Times,serif" font-size="14.00">Reaction</text>
<polyline fill="none" stroke="black" points="297,-624.5 455,-624.5 "/>
<text text-anchor="start" x="305" y="-609.3" font-family="Times,serif" font-size="14.00">id :int(11)</text>
<text text-anchor="start" x="305" y="-594.3" font-family="Times,serif" font-size="14.00">behavior_id :int(11)</text>
<text text-anchor="start" x="305" y="-579.3" font-family="Times,serif" font-size="14.00">narrative_id :int(11)</text>
<text text-anchor="start" x="305" y="-564.3" font-family="Times,serif" font-size="14.00">user_id :int(11)</text>
<text text-anchor="start" x="305" y="-549.3" font-family="Times,serif" font-size="14.00">improvements :text</text>
<text text-anchor="start" x="305" y="-534.3" font-family="Times,serif" font-size="14.00">created_at :datetime</text>
<text text-anchor="start" x="305" y="-519.3" font-family="Times,serif" font-size="14.00">updated_at :datetime</text>
<text text-anchor="start" x="305" y="-504.3" font-family="Times,serif" font-size="14.00">experience_id :int(11)</text>
<text text-anchor="start" x="305" y="-489.3" font-family="Times,serif" font-size="14.00">instructed :tinyint(1)</text>
<text text-anchor="start" x="305" y="-474.3" font-family="Times,serif" font-size="14.00">other_name :varchar(255)</text>
</g>
<!-- Behavior&#45;&gt;Reaction -->
<g id="edge12" class="edge"><title>Behavior&#45;&gt;Reaction</title>
<path fill="none" stroke="#08c585" d="M211.898,-827.537C240.833,-780.011 282.146,-712.155 316.08,-656.419"/>
<ellipse fill="none" stroke="#08c585" cx="209.771" cy="-831.032" rx="4.00002" ry="4.00002"/>
<polygon fill="#08c585" stroke="#08c585" points="316.259,-656.124 325.303,-649.923 318.859,-651.853 321.46,-647.583 321.46,-647.583 321.46,-647.583 318.859,-651.853 317.616,-645.242 316.259,-656.124 316.259,-656.124"/>
</g>
<!-- CandidateFeedback -->
<g id="node8" class="node"><title>CandidateFeedback</title>
<path fill="none" stroke="black" d="M1377,-226C1377,-226 1499,-226 1499,-226 1505,-226 1511,-232 1511,-238 1511,-238 1511,-320 1511,-320 1511,-326 1505,-332 1499,-332 1499,-332 1377,-332 1377,-332 1371,-332 1365,-326 1365,-320 1365,-320 1365,-238 1365,-238 1365,-232 1371,-226 1377,-226"/>
<text text-anchor="middle" x="1438" y="-316.8" font-family="Times,serif" font-size="14.00">CandidateFeedback</text>
<polyline fill="none" stroke="black" points="1365,-309 1511,-309 "/>
<text text-anchor="start" x="1373" y="-293.8" font-family="Times,serif" font-size="14.00">id :int(11)</text>
<text text-anchor="start" x="1373" y="-278.8" font-family="Times,serif" font-size="14.00">name :varchar(255)</text>
<text text-anchor="start" x="1373" y="-263.8" font-family="Times,serif" font-size="14.00">created_at :datetime</text>
<text text-anchor="start" x="1373" y="-248.8" font-family="Times,serif" font-size="14.00">updated_at :datetime</text>
<text text-anchor="start" x="1373" y="-233.8" font-family="Times,serif" font-size="14.00">definition :varchar(255)</text>
</g>
<!-- Candidate -->
<g id="node25" class="node"><title>Candidate</title>
<path fill="none" stroke="black" d="M572.5,-0.5C572.5,-0.5 733.5,-0.5 733.5,-0.5 739.5,-0.5 745.5,-6.5 745.5,-12.5 745.5,-12.5 745.5,-154.5 745.5,-154.5 745.5,-160.5 739.5,-166.5 733.5,-166.5 733.5,-166.5 572.5,-166.5 572.5,-166.5 566.5,-166.5 560.5,-160.5 560.5,-154.5 560.5,-154.5 560.5,-12.5 560.5,-12.5 560.5,-6.5 566.5,-0.5 572.5,-0.5"/>
<text text-anchor="middle" x="653" y="-151.3" font-family="Times,serif" font-size="14.00">Candidate</text>
<polyline fill="none" stroke="black" points="560.5,-143.5 745.5,-143.5 "/>
<text text-anchor="start" x="568.5" y="-128.3" font-family="Times,serif" font-size="14.00">id :int(11)</text>
<text text-anchor="start" x="568.5" y="-113.3" font-family="Times,serif" font-size="14.00">definition :text</text>
<text text-anchor="start" x="568.5" y="-98.3" font-family="Times,serif" font-size="14.00">candidate_list_id :int(11)</text>
<text text-anchor="start" x="568.5" y="-83.3" font-family="Times,serif" font-size="14.00">candidate_feedback_id :int(11)</text>
<text text-anchor="start" x="568.5" y="-68.3" font-family="Times,serif" font-size="14.00">created_at :datetime</text>
<text text-anchor="start" x="568.5" y="-53.3" font-family="Times,serif" font-size="14.00">updated_at :datetime</text>
<text text-anchor="start" x="568.5" y="-38.3" font-family="Times,serif" font-size="14.00">concept_id :int(11)</text>
<text text-anchor="start" x="568.5" y="-23.3" font-family="Times,serif" font-size="14.00">term :varchar(255)</text>
<text text-anchor="start" x="568.5" y="-8.3" font-family="Times,serif" font-size="14.00">user_id :int(11)</text>
</g>
<!-- CandidateFeedback&#45;&gt;Candidate -->
<g id="edge14" class="edge"><title>CandidateFeedback&#45;&gt;Candidate</title>
<path fill="none" stroke="#22d0dd" d="M1383.61,-220.695C1374.94,-213.885 1365.63,-207.697 1356,-203 1251.96,-152.241 924.636,-112.393 755.869,-94.6108"/>
<ellipse fill="none" stroke="#22d0dd" cx="1386.71" cy="-223.224" rx="4.00002" ry="4.00002"/>
<polygon fill="#22d0dd" stroke="#22d0dd" points="755.674,-94.5904 746.197,-89.0732 750.701,-94.0696 745.728,-93.5487 745.728,-93.5487 745.728,-93.5487 750.701,-94.0696 745.259,-98.0242 755.674,-94.5904 755.674,-94.5904"/>
</g>
<!-- Installment -->
<g id="node9" class="node"><title>Installment</title>
<path fill="none" stroke="black" d="M1575.5,-203.5C1575.5,-203.5 1690.5,-203.5 1690.5,-203.5 1696.5,-203.5 1702.5,-209.5 1702.5,-215.5 1702.5,-215.5 1702.5,-342.5 1702.5,-342.5 1702.5,-348.5 1696.5,-354.5 1690.5,-354.5 1690.5,-354.5 1575.5,-354.5 1575.5,-354.5 1569.5,-354.5 1563.5,-348.5 1563.5,-342.5 1563.5,-342.5 1563.5,-215.5 1563.5,-215.5 1563.5,-209.5 1569.5,-203.5 1575.5,-203.5"/>
<text text-anchor="middle" x="1633" y="-339.3" font-family="Times,serif" font-size="14.00">Installment</text>
<polyline fill="none" stroke="black" points="1563.5,-331.5 1702.5,-331.5 "/>
<text text-anchor="start" x="1571.5" y="-316.3" font-family="Times,serif" font-size="14.00">id :int(11)</text>
<text text-anchor="start" x="1571.5" y="-301.3" font-family="Times,serif" font-size="14.00">inst_date :datetime</text>
<text text-anchor="start" x="1571.5" y="-286.3" font-family="Times,serif" font-size="14.00">assessment_id :int(11)</text>
<text text-anchor="start" x="1571.5" y="-271.3" font-family="Times,serif" font-size="14.00">user_id :int(11)</text>
<text text-anchor="start" x="1571.5" y="-256.3" font-family="Times,serif" font-size="14.00">comments :text</text>
<text text-anchor="start" x="1571.5" y="-241.3" font-family="Times,serif" font-size="14.00">group_id :int(11)</text>
<text text-anchor="start" x="1571.5" y="-226.3" font-family="Times,serif" font-size="14.00">created_at :datetime</text>
<text text-anchor="start" x="1571.5" y="-211.3" font-family="Times,serif" font-size="14.00">updated_at :datetime</text>
</g>
<!-- Value -->
<g id="node28" class="node"><title>Value</title>
<path fill="none" stroke="black" d="M1575.5,-15.5C1575.5,-15.5 1690.5,-15.5 1690.5,-15.5 1696.5,-15.5 1702.5,-21.5 1702.5,-27.5 1702.5,-27.5 1702.5,-139.5 1702.5,-139.5 1702.5,-145.5 1696.5,-151.5 1690.5,-151.5 1690.5,-151.5 1575.5,-151.5 1575.5,-151.5 1569.5,-151.5 1563.5,-145.5 1563.5,-139.5 1563.5,-139.5 1563.5,-27.5 1563.5,-27.5 1563.5,-21.5 1569.5,-15.5 1575.5,-15.5"/>
<text text-anchor="middle" x="1633" y="-136.3" font-family="Times,serif" font-size="14.00">Value</text>
<polyline fill="none" stroke="black" points="1563.5,-128.5 1702.5,-128.5 "/>
<text text-anchor="start" x="1571.5" y="-113.3" font-family="Times,serif" font-size="14.00">id :int(11)</text>
<text text-anchor="start" x="1571.5" y="-98.3" font-family="Times,serif" font-size="14.00">value :int(11)</text>
<text text-anchor="start" x="1571.5" y="-83.3" font-family="Times,serif" font-size="14.00">user_id :int(11)</text>
<text text-anchor="start" x="1571.5" y="-68.3" font-family="Times,serif" font-size="14.00">installment_id :int(11)</text>
<text text-anchor="start" x="1571.5" y="-53.3" font-family="Times,serif" font-size="14.00">created_at :datetime</text>
<text text-anchor="start" x="1571.5" y="-38.3" font-family="Times,serif" font-size="14.00">updated_at :datetime</text>
<text text-anchor="start" x="1571.5" y="-23.3" font-family="Times,serif" font-size="14.00">factor_id :int(11)</text>
</g>
<!-- Installment&#45;&gt;Value -->
<g id="edge15" class="edge"><title>Installment&#45;&gt;Value</title>
<path fill="none" stroke="#d8031f" d="M1633,-195.417C1633,-184.253 1633,-172.831 1633,-161.765"/>
<ellipse fill="none" stroke="#d8031f" cx="1633" cy="-199.465" rx="4" ry="4"/>
<polygon fill="#d8031f" stroke="#d8031f" points="1633,-161.719 1637.5,-151.719 1633,-156.719 1633,-151.719 1633,-151.719 1633,-151.719 1633,-156.719 1628.5,-151.719 1633,-161.719 1633,-161.719"/>
</g>
<!-- ConsentForm -->
<g id="node10" class="node"><title>ConsentForm</title>
<path fill="none" stroke="black" d="M1746,-1879C1746,-1879 1910,-1879 1910,-1879 1916,-1879 1922,-1885 1922,-1891 1922,-1891 1922,-2048 1922,-2048 1922,-2054 1916,-2060 1910,-2060 1910,-2060 1746,-2060 1746,-2060 1740,-2060 1734,-2054 1734,-2048 1734,-2048 1734,-1891 1734,-1891 1734,-1885 1740,-1879 1746,-1879"/>
<text text-anchor="middle" x="1828" y="-2044.8" font-family="Times,serif" font-size="14.00">ConsentForm</text>
<polyline fill="none" stroke="black" points="1734,-2037 1922,-2037 "/>
<text text-anchor="start" x="1742" y="-2021.8" font-family="Times,serif" font-size="14.00">id :int(11)</text>
<text text-anchor="start" x="1742" y="-2006.8" font-family="Times,serif" font-size="14.00">name :varchar(255)</text>
<text text-anchor="start" x="1742" y="-1991.8" font-family="Times,serif" font-size="14.00">user_id :int(11)</text>
<text text-anchor="start" x="1742" y="-1976.8" font-family="Times,serif" font-size="14.00">created_at :datetime</text>
<text text-anchor="start" x="1742" y="-1961.8" font-family="Times,serif" font-size="14.00">updated_at :datetime</text>
<text text-anchor="start" x="1742" y="-1946.8" font-family="Times,serif" font-size="14.00">pdf_file_name :varchar(255)</text>
<text text-anchor="start" x="1742" y="-1931.8" font-family="Times,serif" font-size="14.00">pdf_content_type :varchar(255)</text>
<text text-anchor="start" x="1742" y="-1916.8" font-family="Times,serif" font-size="14.00">pdf_file_size :int(11)</text>
<text text-anchor="start" x="1742" y="-1901.8" font-family="Times,serif" font-size="14.00">pdf_updated_at :datetime</text>
<text text-anchor="start" x="1742" y="-1886.8" font-family="Times,serif" font-size="14.00">form_text :text</text>
</g>
<!-- ConsentForm&#45;&gt;Project -->
<g id="edge16" class="edge"><title>ConsentForm&#45;&gt;Project</title>
<path fill="none" stroke="#ec8208" d="M1866.65,-1871.18C1900.91,-1767.8 1935.19,-1603.65 1862,-1488 1737.61,-1291.45 1530.73,-1448.43 1389,-1264 1330.62,-1188.04 1387.08,-1140.34 1350,-1052 1341.79,-1032.44 1330.94,-1012.89 1319.18,-994.475"/>
<ellipse fill="none" stroke="#ec8208" cx="1865.36" cy="-1875.04" rx="4.00001" ry="4.00001"/>
<polygon fill="#ec8208" stroke="#ec8208" points="1319.18,-994.474 1317.49,-983.639 1316.45,-990.285 1313.72,-986.096 1313.72,-986.096 1313.72,-986.096 1316.45,-990.285 1309.95,-988.552 1319.18,-994.474 1319.18,-994.474"/>
</g>
<!-- ConsentLog -->
<g id="node27" class="node"><title>ConsentLog</title>
<path fill="none" stroke="black" d="M1711.5,-1511C1711.5,-1511 1840.5,-1511 1840.5,-1511 1846.5,-1511 1852.5,-1517 1852.5,-1523 1852.5,-1523 1852.5,-1635 1852.5,-1635 1852.5,-1641 1846.5,-1647 1840.5,-1647 1840.5,-1647 1711.5,-1647 1711.5,-1647 1705.5,-1647 1699.5,-1641 1699.5,-1635 1699.5,-1635 1699.5,-1523 1699.5,-1523 1699.5,-1517 1705.5,-1511 1711.5,-1511"/>
<text text-anchor="middle" x="1776" y="-1631.8" font-family="Times,serif" font-size="14.00">ConsentLog</text>
<polyline fill="none" stroke="black" points="1699.5,-1624 1852.5,-1624 "/>
<text text-anchor="start" x="1707.5" y="-1608.8" font-family="Times,serif" font-size="14.00">id :int(11)</text>
<text text-anchor="start" x="1707.5" y="-1593.8" font-family="Times,serif" font-size="14.00">accepted :tinyint(1)</text>
<text text-anchor="start" x="1707.5" y="-1578.8" font-family="Times,serif" font-size="14.00">consent_form_id :int(11)</text>
<text text-anchor="start" x="1707.5" y="-1563.8" font-family="Times,serif" font-size="14.00">user_id :int(11)</text>
<text text-anchor="start" x="1707.5" y="-1548.8" font-family="Times,serif" font-size="14.00">created_at :datetime</text>
<text text-anchor="start" x="1707.5" y="-1533.8" font-family="Times,serif" font-size="14.00">updated_at :datetime</text>
<text text-anchor="start" x="1707.5" y="-1518.8" font-family="Times,serif" font-size="14.00">presented :tinyint(1)</text>
</g>
<!-- ConsentForm&#45;&gt;ConsentLog -->
<g id="edge17" class="edge"><title>ConsentForm&#45;&gt;ConsentLog</title>
<path fill="none" stroke="#0eab01" d="M1814.94,-1870.91C1806.08,-1804.71 1794.53,-1718.42 1786.31,-1657.05"/>
<ellipse fill="none" stroke="#0eab01" cx="1815.47" cy="-1874.92" rx="4.00001" ry="4.00001"/>
<polygon fill="#0eab01" stroke="#0eab01" points="1786.3,-1656.95 1789.43,-1646.44 1785.64,-1651.99 1784.97,-1647.04 1784.97,-1647.04 1784.97,-1647.04 1785.64,-1651.99 1780.51,-1647.64 1786.3,-1656.95 1786.3,-1656.95"/>
</g>
<!-- User&#45;&gt;Installment -->
<g id="edge25" class="edge"><title>User&#45;&gt;Installment</title>
<path fill="none" stroke="#226237" d="M894.254,-1948.11C1135.39,-1898.12 1671,-1745.61 1671,-1377 1671,-1377 1671,-1377 1671,-886.5 1671,-666.133 1676.6,-610.1 1653,-391 1652.08,-382.442 1650.88,-373.551 1649.54,-364.692"/>
<ellipse fill="none" stroke="#226237" cx="890.071" cy="-1948.97" rx="4.00001" ry="4.00001"/>
<polygon fill="#226237" stroke="#226237" points="1649.52,-364.601 1652.4,-354.02 1648.74,-359.663 1647.96,-354.724 1647.96,-354.724 1647.96,-354.724 1648.74,-359.663 1643.51,-355.429 1649.52,-364.601 1649.52,-364.601"/>
</g>
<!-- Concept -->
<g id="node12" class="node"><title>Concept</title>
<path fill="none" stroke="black" d="M599.5,-233.5C599.5,-233.5 706.5,-233.5 706.5,-233.5 712.5,-233.5 718.5,-239.5 718.5,-245.5 718.5,-245.5 718.5,-312.5 718.5,-312.5 718.5,-318.5 712.5,-324.5 706.5,-324.5 706.5,-324.5 599.5,-324.5 599.5,-324.5 593.5,-324.5 587.5,-318.5 587.5,-312.5 587.5,-312.5 587.5,-245.5 587.5,-245.5 587.5,-239.5 593.5,-233.5 599.5,-233.5"/>
<text text-anchor="middle" x="653" y="-309.3" font-family="Times,serif" font-size="14.00">Concept</text>
<polyline fill="none" stroke="black" points="587.5,-301.5 718.5,-301.5 "/>
<text text-anchor="start" x="595.5" y="-286.3" font-family="Times,serif" font-size="14.00">id :int(11)</text>
<text text-anchor="start" x="595.5" y="-271.3" font-family="Times,serif" font-size="14.00">name :varchar(255)</text>
<text text-anchor="start" x="595.5" y="-256.3" font-family="Times,serif" font-size="14.00">created_at :datetime</text>
<text text-anchor="start" x="595.5" y="-241.3" font-family="Times,serif" font-size="14.00">updated_at :datetime</text>
</g>
<!-- User&#45;&gt;Concept -->
<g id="edge22" class="edge"><title>User&#45;&gt;Concept</title>
<path fill="none" stroke="#2c63ca" d="M753.058,-1698.17C741.938,-1593.89 729.749,-1497.16 722,-1488 685.215,-1444.51 637.843,-1493.66 599,-1452 540.682,-1389.45 567.164,-1349.03 558,-1264 531.379,-1016.99 591.137,-447.757 605,-391 609.666,-371.898 617.342,-351.916 625.202,-334.255"/>
<ellipse fill="none" stroke="#2c63ca" cx="753.503" cy="-1702.36" rx="4" ry="4"/>
<polygon fill="#2c63ca" stroke="#2c63ca" points="625.411,-333.797 633.662,-326.573 627.49,-329.25 629.569,-324.702 629.569,-324.702 629.569,-324.702 627.49,-329.25 625.476,-322.831 625.411,-333.797 625.411,-333.797"/>
</g>
<!-- User&#45;&gt;Roster -->
<g id="edge26" class="edge"><title>User&#45;&gt;Roster</title>
<path fill="none" stroke="#d993c6" d="M889.656,-1762.98C934,-1670.59 980.543,-1558.55 1006,-1452 1027.92,-1360.26 1034.4,-1087.77 1036.27,-958.309"/>
<ellipse fill="none" stroke="#d993c6" cx="887.795" cy="-1766.84" rx="4.00002" ry="4.00002"/>
<polygon fill="#d993c6" stroke="#d993c6" points="1036.27,-958.111 1040.91,-948.175 1036.34,-953.112 1036.41,-948.112 1036.41,-948.112 1036.41,-948.112 1036.34,-953.112 1031.91,-948.05 1036.27,-958.111 1036.27,-958.111"/>
</g>
<!-- Group -->
<g id="node15" class="node"><title>Group</title>
<path fill="none" stroke="black" d="M1183.5,-1526C1183.5,-1526 1290.5,-1526 1290.5,-1526 1296.5,-1526 1302.5,-1532 1302.5,-1538 1302.5,-1538 1302.5,-1620 1302.5,-1620 1302.5,-1626 1296.5,-1632 1290.5,-1632 1290.5,-1632 1183.5,-1632 1183.5,-1632 1177.5,-1632 1171.5,-1626 1171.5,-1620 1171.5,-1620 1171.5,-1538 1171.5,-1538 1171.5,-1532 1177.5,-1526 1183.5,-1526"/>
<text text-anchor="middle" x="1237" y="-1616.8" font-family="Times,serif" font-size="14.00">Group</text>
<polyline fill="none" stroke="black" points="1171.5,-1609 1302.5,-1609 "/>
<text text-anchor="start" x="1179.5" y="-1593.8" font-family="Times,serif" font-size="14.00">id :int(11)</text>
<text text-anchor="start" x="1179.5" y="-1578.8" font-family="Times,serif" font-size="14.00">name :varchar(255)</text>
<text text-anchor="start" x="1179.5" y="-1563.8" font-family="Times,serif" font-size="14.00">project_id :int(11)</text>
<text text-anchor="start" x="1179.5" y="-1548.8" font-family="Times,serif" font-size="14.00">created_at :datetime</text>
<text text-anchor="start" x="1179.5" y="-1533.8" font-family="Times,serif" font-size="14.00">updated_at :datetime</text>
</g>
<!-- User&#45;&gt;Group -->
<g id="edge19" class="edge"><title>User&#45;&gt;Group</title>
<path fill="none" stroke="#9e90fc" d="M893.823,-1871.1C980.032,-1797.97 1095.25,-1700.24 1167.8,-1638.7"/>
<polygon fill="#9e90fc" stroke="#9e90fc" points="893.718,-1871.19 883.181,-1874.23 889.905,-1874.42 886.092,-1877.66 886.092,-1877.66 886.092,-1877.66 889.905,-1874.42 889.002,-1881.09 893.718,-1871.19 893.718,-1871.19"/>
<polygon fill="#9e90fc" stroke="#9e90fc" points="1167.93,-1638.59 1178.47,-1635.55 1171.75,-1635.35 1175.56,-1632.12 1175.56,-1632.12 1175.56,-1632.12 1171.75,-1635.35 1172.65,-1628.68 1167.93,-1638.59 1167.93,-1638.59"/>
</g>
<!-- User&#45;&gt;Project -->
<g id="edge23" class="edge"><title>User&#45;&gt;Project</title>
<path fill="none" stroke="#971f75" d="M891.886,-1816.36C922.497,-1770.8 953.821,-1719.69 978,-1670 1006.74,-1610.94 1126.88,-1233.23 1192.22,-1025.31"/>
<polygon fill="#971f75" stroke="#971f75" points="891.78,-1816.52 882.452,-1822.29 888.98,-1820.66 886.18,-1824.81 886.18,-1824.81 886.18,-1824.81 888.98,-1820.66 889.909,-1827.33 891.78,-1816.52 891.78,-1816.52"/>
<polygon fill="#971f75" stroke="#971f75" points="1192.29,-1025.08 1199.58,-1016.89 1193.79,-1020.31 1195.29,-1015.54 1195.29,-1015.54 1195.29,-1015.54 1193.79,-1020.31 1191,-1014.19 1192.29,-1025.08 1192.29,-1025.08"/>
</g>
<!-- Email -->
<g id="node18" class="node"><title>Email</title>
<path fill="none" stroke="black" d="M523.5,-1488.5C523.5,-1488.5 700.5,-1488.5 700.5,-1488.5 706.5,-1488.5 712.5,-1494.5 712.5,-1500.5 712.5,-1500.5 712.5,-1657.5 712.5,-1657.5 712.5,-1663.5 706.5,-1669.5 700.5,-1669.5 700.5,-1669.5 523.5,-1669.5 523.5,-1669.5 517.5,-1669.5 511.5,-1663.5 511.5,-1657.5 511.5,-1657.5 511.5,-1500.5 511.5,-1500.5 511.5,-1494.5 517.5,-1488.5 523.5,-1488.5"/>
<text text-anchor="middle" x="612" y="-1654.3" font-family="Times,serif" font-size="14.00">Email</text>
<polyline fill="none" stroke="black" points="511.5,-1646.5 712.5,-1646.5 "/>
<text text-anchor="start" x="519.5" y="-1631.3" font-family="Times,serif" font-size="14.00">id :int(11)</text>
<text text-anchor="start" x="519.5" y="-1616.3" font-family="Times,serif" font-size="14.00">user_id :int(11)</text>
<text text-anchor="start" x="519.5" y="-1601.3" font-family="Times,serif" font-size="14.00">email :varchar(255)</text>
<text text-anchor="start" x="519.5" y="-1586.3" font-family="Times,serif" font-size="14.00">primary :tinyint(1)</text>
<text text-anchor="start" x="519.5" y="-1571.3" font-family="Times,serif" font-size="14.00">confirmation_token :varchar(255)</text>
<text text-anchor="start" x="519.5" y="-1556.3" font-family="Times,serif" font-size="14.00">unconfirmed_email :varchar(255)</text>
<text text-anchor="start" x="519.5" y="-1541.3" font-family="Times,serif" font-size="14.00">confirmed_at :datetime</text>
<text text-anchor="start" x="519.5" y="-1526.3" font-family="Times,serif" font-size="14.00">confirmation_sent_at :datetime</text>
<text text-anchor="start" x="519.5" y="-1511.3" font-family="Times,serif" font-size="14.00">created_at :datetime</text>
<text text-anchor="start" x="519.5" y="-1496.3" font-family="Times,serif" font-size="14.00">updated_at :datetime</text>
</g>
<!-- User&#45;&gt;Email -->
<g id="edge18" class="edge"><title>User&#45;&gt;Email</title>
<path fill="none" stroke="#294c26" d="M668.613,-1711.7C663.776,-1700.45 659.074,-1689.51 654.581,-1679.06"/>
<ellipse fill="none" stroke="#294c26" cx="670.357" cy="-1715.76" rx="4.00001" ry="4.00001"/>
<polygon fill="#294c26" stroke="#294c26" points="654.466,-1678.79 654.651,-1667.83 652.491,-1674.2 650.517,-1669.6 650.517,-1669.6 650.517,-1669.6 652.491,-1674.2 646.382,-1671.38 654.466,-1678.79 654.466,-1678.79"/>
</g>
<!-- Narrative -->
<g id="node24" class="node"><title>Narrative</title>
<path fill="none" stroke="black" d="M212,-1323C212,-1323 328,-1323 328,-1323 334,-1323 340,-1329 340,-1335 340,-1335 340,-1417 340,-1417 340,-1423 334,-1429 328,-1429 328,-1429 212,-1429 212,-1429 206,-1429 200,-1423 200,-1417 200,-1417 200,-1335 200,-1335 200,-1329 206,-1323 212,-1323"/>
<text text-anchor="middle" x="270" y="-1413.8" font-family="Times,serif" font-size="14.00">Narrative</text>
<polyline fill="none" stroke="black" points="200,-1406 340,-1406 "/>
<text text-anchor="start" x="208" y="-1390.8" font-family="Times,serif" font-size="14.00">id :int(11)</text>
<text text-anchor="start" x="208" y="-1375.8" font-family="Times,serif" font-size="14.00">member :varchar(255)</text>
<text text-anchor="start" x="208" y="-1360.8" font-family="Times,serif" font-size="14.00">scenario_id :int(11)</text>
<text text-anchor="start" x="208" y="-1345.8" font-family="Times,serif" font-size="14.00">created_at :datetime</text>
<text text-anchor="start" x="208" y="-1330.8" font-family="Times,serif" font-size="14.00">updated_at :datetime</text>
</g>
<!-- User&#45;&gt;Narrative -->
<g id="edge29" class="edge"><title>User&#45;&gt;Narrative</title>
<path fill="none" stroke="#35574d" d="M663.181,-1902.81C577.909,-1849.46 464.331,-1767.27 390,-1670 336.222,-1599.62 302.602,-1501.76 285.069,-1438.9"/>
<polygon fill="#35574d" stroke="#35574d" points="663.37,-1902.92 669.489,-1912.02 667.617,-1905.56 671.864,-1908.2 671.864,-1908.2 671.864,-1908.2 667.617,-1905.56 674.239,-1904.38 663.37,-1902.92 663.37,-1902.92"/>
<polygon fill="#35574d" stroke="#35574d" points="285.032,-1438.76 286.733,-1427.93 283.712,-1433.94 282.393,-1429.12 282.393,-1429.12 282.393,-1429.12 283.712,-1433.94 278.052,-1430.31 285.032,-1438.76 285.032,-1438.76"/>
</g>
<!-- User&#45;&gt;Candidate -->
<g id="edge24" class="edge"><title>User&#45;&gt;Candidate</title>
<path fill="none" stroke="#a5b292" d="M664.099,-1935.13C457.133,-1867.15 43,-1691.79 43,-1377 43,-1377 43,-1377 43,-556 43,-482.182 31.2772,-458.121 62,-391 109.259,-287.753 138.291,-262.504 235,-203 332.582,-142.959 461.524,-112.449 550.258,-97.564"/>
<ellipse fill="none" stroke="#a5b292" cx="668.176" cy="-1936.45" rx="4.00001" ry="4.00001"/>
<polygon fill="#a5b292" stroke="#a5b292" points="550.466,-97.5301 561.062,-100.353 555.4,-96.721 560.334,-95.9119 560.334,-95.9119 560.334,-95.9119 555.4,-96.721 559.606,-91.4712 550.466,-97.5301 550.466,-97.5301"/>
</g>
<!-- User&#45;&gt;ConsentLog -->
<g id="edge20" class="edge"><title>User&#45;&gt;ConsentLog</title>
<path fill="none" stroke="#6958d3" d="M894.123,-1948.27C1073.54,-1912.99 1426.09,-1828.41 1685,-1670 1692.79,-1665.23 1700.43,-1659.67 1707.77,-1653.7"/>
<ellipse fill="none" stroke="#6958d3" cx="890.163" cy="-1949.04" rx="4.00001" ry="4.00001"/>
<polygon fill="#6958d3" stroke="#6958d3" points="1707.96,-1653.53 1718.5,-1650.51 1711.78,-1650.3 1715.59,-1647.07 1715.59,-1647.07 1715.59,-1647.07 1711.78,-1650.3 1712.69,-1643.64 1707.96,-1653.53 1707.96,-1653.53"/>
</g>
<!-- User&#45;&gt;Reaction -->
<g id="edge27" class="edge"><title>User&#45;&gt;Reaction</title>
<path fill="none" stroke="#ecb4d6" d="M665.217,-1886.77C598.159,-1832.67 517.254,-1756 469,-1670 403.732,-1553.67 404,-1510.39 404,-1377 404,-1377 404,-1377 404,-1157 404,-981.237 391.822,-776.781 383.529,-657.921"/>
<ellipse fill="none" stroke="#ecb4d6" cx="668.541" cy="-1889.44" rx="4.00002" ry="4.00002"/>
<polygon fill="#ecb4d6" stroke="#ecb4d6" points="383.515,-657.725 387.303,-647.434 383.164,-652.737 382.814,-647.749 382.814,-647.749 382.814,-647.749 383.164,-652.737 378.325,-648.065 383.515,-657.725 383.515,-657.725"/>
</g>
<!-- Assessment -->
<g id="node31" class="node"><title>Assessment</title>
<path fill="none" stroke="black" d="M1441,-489C1441,-489 1593,-489 1593,-489 1599,-489 1605,-495 1605,-501 1605,-501 1605,-613 1605,-613 1605,-619 1599,-625 1593,-625 1593,-625 1441,-625 1441,-625 1435,-625 1429,-619 1429,-613 1429,-613 1429,-501 1429,-501 1429,-495 1435,-489 1441,-489"/>
<text text-anchor="middle" x="1517" y="-609.8" font-family="Times,serif" font-size="14.00">Assessment</text>
<polyline fill="none" stroke="black" points="1429,-602 1605,-602 "/>
<text text-anchor="start" x="1437" y="-586.8" font-family="Times,serif" font-size="14.00">id :int(11)</text>
<text text-anchor="start" x="1437" y="-571.8" font-family="Times,serif" font-size="14.00">end_date :datetime</text>
<text text-anchor="start" x="1437" y="-556.8" font-family="Times,serif" font-size="14.00">start_date :datetime</text>
<text text-anchor="start" x="1437" y="-541.8" font-family="Times,serif" font-size="14.00">project_id :int(11)</text>
<text text-anchor="start" x="1437" y="-526.8" font-family="Times,serif" font-size="14.00">created_at :datetime</text>
<text text-anchor="start" x="1437" y="-511.8" font-family="Times,serif" font-size="14.00">updated_at :datetime</text>
<text text-anchor="start" x="1437" y="-496.8" font-family="Times,serif" font-size="14.00">instructor_updated :tinyint(1)</text>
</g>
<!-- User&#45;&gt;Assessment -->
<g id="edge30" class="edge"><title>User&#45;&gt;Assessment</title>
<path fill="none" stroke="#4c9406" d="M895.287,-1920.58C1009.6,-1869.72 1184.93,-1781.37 1312,-1670 1402.98,-1590.26 1413.04,-1555.91 1475,-1452 1634.02,-1185.34 1597.85,-1067.51 1563,-759 1558.32,-717.53 1548.36,-672.146 1538.9,-635.013"/>
<polygon fill="#4c9406" stroke="#4c9406" points="895.281,-1920.58 884.315,-1920.51 890.708,-1922.61 886.136,-1924.63 886.136,-1924.63 886.136,-1924.63 890.708,-1922.61 887.957,-1928.74 895.281,-1920.58 895.281,-1920.58"/>
<polygon fill="#4c9406" stroke="#4c9406" points="1538.88,-634.946 1540.74,-624.138 1537.63,-630.105 1536.38,-625.264 1536.38,-625.264 1536.38,-625.264 1537.63,-630.105 1532.03,-626.39 1538.88,-634.946 1538.88,-634.946"/>
</g>
<!-- CandidateList -->
<g id="node32" class="node"><title>CandidateList</title>
<path fill="none" stroke="black" d="M619.5,-1300.5C619.5,-1300.5 760.5,-1300.5 760.5,-1300.5 766.5,-1300.5 772.5,-1306.5 772.5,-1312.5 772.5,-1312.5 772.5,-1439.5 772.5,-1439.5 772.5,-1445.5 766.5,-1451.5 760.5,-1451.5 760.5,-1451.5 619.5,-1451.5 619.5,-1451.5 613.5,-1451.5 607.5,-1445.5 607.5,-1439.5 607.5,-1439.5 607.5,-1312.5 607.5,-1312.5 607.5,-1306.5 613.5,-1300.5 619.5,-1300.5"/>
<text text-anchor="middle" x="690" y="-1436.3" font-family="Times,serif" font-size="14.00">CandidateList</text>
<polyline fill="none" stroke="black" points="607.5,-1428.5 772.5,-1428.5 "/>
<text text-anchor="start" x="615.5" y="-1413.3" font-family="Times,serif" font-size="14.00">id :int(11)</text>
<text text-anchor="start" x="615.5" y="-1398.3" font-family="Times,serif" font-size="14.00">user_id :int(11)</text>
<text text-anchor="start" x="615.5" y="-1383.3" font-family="Times,serif" font-size="14.00">group_id :int(11)</text>
<text text-anchor="start" x="615.5" y="-1368.3" font-family="Times,serif" font-size="14.00">is_group :tinyint(1)</text>
<text text-anchor="start" x="615.5" y="-1353.3" font-family="Times,serif" font-size="14.00">created_at :datetime</text>
<text text-anchor="start" x="615.5" y="-1338.3" font-family="Times,serif" font-size="14.00">updated_at :datetime</text>
<text text-anchor="start" x="615.5" y="-1323.3" font-family="Times,serif" font-size="14.00">bingo_game_id :int(11)</text>
<text text-anchor="start" x="615.5" y="-1308.3" font-family="Times,serif" font-size="14.00">group_requested :tinyint(1)</text>
</g>
<!-- User&#45;&gt;CandidateList -->
<g id="edge21" class="edge"><title>User&#45;&gt;CandidateList</title>
<path fill="none" stroke="#d07bf7" d="M788.099,-1698.22C784.339,-1628.6 774.853,-1554.57 755,-1488 752.276,-1478.87 748.654,-1469.69 744.509,-1460.75"/>
<ellipse fill="none" stroke="#d07bf7" cx="788.305" cy="-1702.25" rx="4" ry="4"/>
<polygon fill="#d07bf7" stroke="#d07bf7" points="744.394,-1460.51 744.062,-1449.55 742.205,-1456.02 740.016,-1451.52 740.016,-1451.52 740.016,-1451.52 742.205,-1456.02 735.97,-1453.49 744.394,-1460.51 744.394,-1460.51"/>
</g>
<!-- User&#45;&gt;Experience -->
<g id="edge28" class="edge"><title>User&#45;&gt;Experience</title>
<path fill="none" stroke="#a60dda" d="M664.025,-1880.86C603.67,-1827.38 535.631,-1753.36 503,-1670 409.793,-1431.9 555.255,-1137.36 647.138,-986.965"/>
<polygon fill="#a60dda" stroke="#a60dda" points="664.204,-1881.02 668.757,-1891 667.964,-1884.32 671.724,-1887.61 671.724,-1887.61 671.724,-1887.61 667.964,-1884.32 674.69,-1884.23 664.204,-1881.02 664.204,-1881.02"/>
<polygon fill="#a60dda" stroke="#a60dda" points="647.322,-986.667 656.396,-980.509 649.942,-982.409 652.563,-978.151 652.563,-978.151 652.563,-978.151 649.942,-982.409 648.731,-975.792 647.322,-986.667 647.322,-986.667"/>
</g>
<!-- Concept&#45;&gt;Candidate -->
<g id="edge31" class="edge"><title>Concept&#45;&gt;Candidate</title>
<path fill="none" stroke="#d0dcd3" d="M653,-225.043C653,-210.135 653,-193.47 653,-176.971"/>
<ellipse fill="none" stroke="#d0dcd3" cx="653" cy="-229.121" rx="4" ry="4"/>
<polygon fill="#d0dcd3" stroke="#d0dcd3" points="653,-176.737 657.5,-166.737 653,-171.737 653,-166.737 653,-166.737 653,-166.737 653,-171.737 648.5,-166.737 653,-176.737 653,-176.737"/>
</g>
<!-- School -->
<g id="node14" class="node"><title>School</title>
<path fill="none" stroke="black" d="M851.5,-1315.5C851.5,-1315.5 984.5,-1315.5 984.5,-1315.5 990.5,-1315.5 996.5,-1321.5 996.5,-1327.5 996.5,-1327.5 996.5,-1424.5 996.5,-1424.5 996.5,-1430.5 990.5,-1436.5 984.5,-1436.5 984.5,-1436.5 851.5,-1436.5 851.5,-1436.5 845.5,-1436.5 839.5,-1430.5 839.5,-1424.5 839.5,-1424.5 839.5,-1327.5 839.5,-1327.5 839.5,-1321.5 845.5,-1315.5 851.5,-1315.5"/>
<text text-anchor="middle" x="918" y="-1421.3" font-family="Times,serif" font-size="14.00">School</text>
<polyline fill="none" stroke="black" points="839.5,-1413.5 996.5,-1413.5 "/>
<text text-anchor="start" x="847.5" y="-1398.3" font-family="Times,serif" font-size="14.00">id :int(11)</text>
<text text-anchor="start" x="847.5" y="-1383.3" font-family="Times,serif" font-size="14.00">description :varchar(255)</text>
<text text-anchor="start" x="847.5" y="-1368.3" font-family="Times,serif" font-size="14.00">name :varchar(255)</text>
<text text-anchor="start" x="847.5" y="-1353.3" font-family="Times,serif" font-size="14.00">created_at :datetime</text>
<text text-anchor="start" x="847.5" y="-1338.3" font-family="Times,serif" font-size="14.00">updated_at :datetime</text>
<text text-anchor="start" x="847.5" y="-1323.3" font-family="Times,serif" font-size="14.00">anon_name :varchar(255)</text>
</g>
<!-- School&#45;&gt;Course -->
<g id="edge32" class="edge"><title>School&#45;&gt;Course</title>
<path fill="none" stroke="#23761b" d="M890.905,-1307.73C886.446,-1296.66 881.718,-1284.92 876.95,-1273.08"/>
<ellipse fill="none" stroke="#23761b" cx="892.502" cy="-1311.69" rx="4.00001" ry="4.00001"/>
<polygon fill="#23761b" stroke="#23761b" points="876.859,-1272.86 877.297,-1261.9 874.991,-1268.22 873.123,-1263.58 873.123,-1263.58 873.123,-1263.58 874.991,-1268.22 868.949,-1265.26 876.859,-1272.86 876.859,-1272.86"/>
</g>
<!-- School&#45;&gt;Roster -->
<g id="edge36" class="edge"><title>School&#45;&gt;Roster</title>
<path fill="none" stroke="#b73c76" d="M943.966,-1305.45C948.624,-1291.8 953.199,-1277.53 957,-1264 972.9,-1207.41 1004.87,-1050.54 1023.21,-958.439"/>
<polygon fill="#b73c76" stroke="#b73c76" points="943.843,-1305.8 936.317,-1313.77 942.206,-1310.52 940.569,-1315.25 940.569,-1315.25 940.569,-1315.25 942.206,-1310.52 944.821,-1316.72 943.843,-1305.8 943.843,-1305.8"/>
<polygon fill="#b73c76" stroke="#b73c76" points="1023.27,-958.171 1029.63,-949.242 1024.24,-953.268 1025.22,-948.364 1025.22,-948.364 1025.22,-948.364 1024.24,-953.268 1020.81,-947.486 1023.27,-958.171 1023.27,-958.171"/>
</g>
<!-- School&#45;&gt;Project -->
<g id="edge34" class="edge"><title>School&#45;&gt;Project</title>
<path fill="none" stroke="#7cc255" d="M965.84,-1306.68C975.345,-1292.68 985.124,-1277.95 994,-1264 1052.71,-1171.71 1059.52,-1143.8 1119,-1052 1128.9,-1036.72 1139.6,-1020.86 1150.35,-1005.29"/>
<polygon fill="#7cc255" stroke="#7cc255" points="965.601,-1307.03 956.25,-1312.76 962.784,-1311.16 959.968,-1315.29 959.968,-1315.29 959.968,-1315.29 962.784,-1311.16 963.686,-1317.83 965.601,-1307.03 965.601,-1307.03"/>
<polygon fill="#7cc255" stroke="#7cc255" points="1150.63,-1004.89 1160.03,-999.241 1153.48,-1000.78 1156.33,-996.675 1156.33,-996.675 1156.33,-996.675 1153.48,-1000.78 1152.63,-994.11 1150.63,-1004.89 1150.63,-1004.89"/>
</g>
<!-- School&#45;&gt;Experience -->
<g id="edge35" class="edge"><title>School&#45;&gt;Experience</title>
<path fill="none" stroke="#606b8a" d="M830.575,-1325.9C787.712,-1300.98 743.972,-1273.91 738,-1264 688.036,-1181.09 687.532,-1068.37 695.974,-988.118"/>
<polygon fill="#606b8a" stroke="#606b8a" points="830.754,-1326 837.154,-1334.91 835.082,-1328.51 839.409,-1331.02 839.409,-1331.02 839.409,-1331.02 835.082,-1328.51 841.663,-1327.12 830.754,-1326 830.754,-1326"/>
<polygon fill="#606b8a" stroke="#606b8a" points="695.993,-987.943 701.575,-978.504 696.548,-982.974 697.103,-978.004 697.103,-978.004 697.103,-978.004 696.548,-982.974 692.63,-977.505 695.993,-987.943 695.993,-987.943"/>
</g>
<!-- School&#45;&gt;BingoGame -->
<g id="edge33" class="edge"><title>School&#45;&gt;BingoGame</title>
<path fill="none" stroke="#9f19eb" d="M923.08,-1305.12C923.88,-1291.49 924.581,-1277.3 925,-1264 932.075,-1039.41 928.936,-981.954 901,-759 899.921,-750.389 898.737,-741.583 897.477,-732.699"/>
<polygon fill="#9f19eb" stroke="#9f19eb" points="923.061,-1305.43 917.959,-1315.14 922.756,-1310.42 922.451,-1315.41 922.451,-1315.41 922.451,-1315.41 922.756,-1310.42 926.943,-1315.68 923.061,-1305.43 923.061,-1305.43"/>
<polygon fill="#9f19eb" stroke="#9f19eb" points="897.454,-732.539 900.479,-721.999 896.74,-727.59 896.025,-722.642 896.025,-722.642 896.025,-722.642 896.74,-727.59 891.571,-723.285 897.454,-732.539 897.454,-732.539"/>
</g>
<!-- Group&#45;&gt;Installment -->
<g id="edge39" class="edge"><title>Group&#45;&gt;Installment</title>
<path fill="none" stroke="#5d23cb" d="M1310.15,-1553.66C1361.77,-1533.35 1429.55,-1499.95 1475,-1452 1538.34,-1385.18 1537.92,-1352.86 1562,-1264 1649.57,-940.84 1644.8,-537.456 1637.65,-364.795"/>
<ellipse fill="none" stroke="#5d23cb" cx="1306.38" cy="-1555.12" rx="4.00001" ry="4.00001"/>
<polygon fill="#5d23cb" stroke="#5d23cb" points="1637.65,-364.744 1641.72,-354.561 1637.44,-359.749 1637.22,-354.754 1637.22,-354.754 1637.22,-354.754 1637.44,-359.749 1632.73,-354.946 1637.65,-364.744 1637.65,-364.744"/>
</g>
<!-- GroupRevision -->
<g id="node26" class="node"><title>GroupRevision</title>
<path fill="none" stroke="black" d="M1211.5,-1315.5C1211.5,-1315.5 1332.5,-1315.5 1332.5,-1315.5 1338.5,-1315.5 1344.5,-1321.5 1344.5,-1327.5 1344.5,-1327.5 1344.5,-1424.5 1344.5,-1424.5 1344.5,-1430.5 1338.5,-1436.5 1332.5,-1436.5 1332.5,-1436.5 1211.5,-1436.5 1211.5,-1436.5 1205.5,-1436.5 1199.5,-1430.5 1199.5,-1424.5 1199.5,-1424.5 1199.5,-1327.5 1199.5,-1327.5 1199.5,-1321.5 1205.5,-1315.5 1211.5,-1315.5"/>
<text text-anchor="middle" x="1272" y="-1421.3" font-family="Times,serif" font-size="14.00">GroupRevision</text>
<polyline fill="none" stroke="black" points="1199.5,-1413.5 1344.5,-1413.5 "/>
<text text-anchor="start" x="1207.5" y="-1398.3" font-family="Times,serif" font-size="14.00">id :int(11)</text>
<text text-anchor="start" x="1207.5" y="-1383.3" font-family="Times,serif" font-size="14.00">group_id :int(11)</text>
<text text-anchor="start" x="1207.5" y="-1368.3" font-family="Times,serif" font-size="14.00">name :varchar(255)</text>
<text text-anchor="start" x="1207.5" y="-1353.3" font-family="Times,serif" font-size="14.00">members :varchar(255)</text>
<text text-anchor="start" x="1207.5" y="-1338.3" font-family="Times,serif" font-size="14.00">created_at :datetime</text>
<text text-anchor="start" x="1207.5" y="-1323.3" font-family="Times,serif" font-size="14.00">updated_at :datetime</text>
</g>
<!-- Group&#45;&gt;GroupRevision -->
<g id="edge37" class="edge"><title>Group&#45;&gt;GroupRevision</title>
<path fill="none" stroke="#a4f521" d="M1247.48,-1517.8C1251.38,-1495.43 1255.83,-1469.88 1259.86,-1446.73"/>
<ellipse fill="none" stroke="#a4f521" cx="1246.75" cy="-1522.04" rx="4.00001" ry="4.00001"/>
<polygon fill="#a4f521" stroke="#a4f521" points="1259.9,-1446.48 1266.05,-1437.4 1260.76,-1441.56 1261.62,-1436.63 1261.62,-1436.63 1261.62,-1436.63 1260.76,-1441.56 1257.18,-1435.86 1259.9,-1446.48 1259.9,-1446.48"/>
</g>
<!-- Group&#45;&gt;CandidateList -->
<g id="edge38" class="edge"><title>Group&#45;&gt;CandidateList</title>
<path fill="none" stroke="#9864bc" d="M1163.52,-1559.67C1081.06,-1538.07 944.014,-1499.1 831,-1452 814.697,-1445.21 797.776,-1437.15 781.555,-1428.88"/>
<ellipse fill="none" stroke="#9864bc" cx="1167.46" cy="-1560.69" rx="4.00001" ry="4.00001"/>
<polygon fill="#9864bc" stroke="#9864bc" points="781.51,-1428.85 774.688,-1420.27 777.067,-1426.56 772.624,-1424.27 772.624,-1424.27 772.624,-1424.27 777.067,-1426.56 770.56,-1428.27 781.51,-1428.85 781.51,-1428.85"/>
</g>
<!-- Project&#45;&gt;Group -->
<g id="edge40" class="edge"><title>Project&#45;&gt;Group</title>
<path fill="none" stroke="#753b2a" d="M1194.77,-1023.85C1192.87,-1033.32 1191.25,-1042.77 1190,-1052 1189.14,-1058.37 1188.4,-1437.53 1191,-1452 1194.87,-1473.57 1202.11,-1496.3 1209.72,-1516.44"/>
<ellipse fill="none" stroke="#753b2a" cx="1195.6" cy="-1019.82" rx="4.00001" ry="4.00001"/>
<polygon fill="#753b2a" stroke="#753b2a" points="1209.74,-1516.47 1209.16,-1527.42 1211.54,-1521.13 1213.35,-1525.79 1213.35,-1525.79 1213.35,-1525.79 1211.54,-1521.13 1217.55,-1524.16 1209.74,-1516.47 1209.74,-1516.47"/>
</g>
<!-- Project&#45;&gt;Factor -->
<g id="edge43" class="edge"><title>Project&#45;&gt;Factor</title>
<path fill="none" stroke="#8223a4" d="M1242.93,-749.147C1250.29,-621.536 1260.92,-437.305 1266.41,-342.135"/>
<polygon fill="#8223a4" stroke="#8223a4" points="1242.91,-749.374 1237.84,-759.098 1242.63,-754.366 1242.34,-759.358 1242.34,-759.358 1242.34,-759.358 1242.63,-754.366 1246.83,-759.617 1242.91,-749.374 1242.91,-749.374"/>
<polygon fill="#8223a4" stroke="#8223a4" points="1266.42,-342.076 1271.49,-332.352 1266.71,-337.085 1266.99,-332.093 1266.99,-332.093 1266.99,-332.093 1266.71,-337.085 1262.5,-331.834 1266.42,-342.076 1266.42,-342.076"/>
</g>
<!-- Project&#45;&gt;Assessment -->
<g id="edge42" class="edge"><title>Project&#45;&gt;Assessment</title>
<path fill="none" stroke="#126632" d="M1319.03,-788.618C1361.83,-738.755 1413.06,-679.081 1452.68,-632.928"/>
<ellipse fill="none" stroke="#126632" cx="1316.16" cy="-791.959" rx="4.00002" ry="4.00002"/>
<polygon fill="#126632" stroke="#126632" points="1452.92,-632.646 1462.85,-627.99 1456.18,-628.853 1459.43,-625.059 1459.43,-625.059 1459.43,-625.059 1456.18,-628.853 1456.02,-622.128 1452.92,-632.646 1452.92,-632.646"/>
</g>
<!-- Project&#45;&gt;BingoGame -->
<g id="edge41" class="edge"><title>Project&#45;&gt;BingoGame</title>
<path fill="none" stroke="#2aabdb" d="M1150.51,-796.27C1137.84,-783.517 1124.74,-770.756 1112,-759 1064.6,-715.267 1009.24,-669.442 963.152,-632.61"/>
<ellipse fill="none" stroke="#2aabdb" cx="1153.49" cy="-799.281" rx="4.00002" ry="4.00002"/>
<polygon fill="#2aabdb" stroke="#2aabdb" points="963.069,-632.543 958.054,-622.791 959.159,-629.426 955.249,-626.31 955.249,-626.31 955.249,-626.31 959.159,-629.426 952.444,-629.829 963.069,-632.543 963.069,-632.543"/>
</g>
<!-- Gender -->
<g id="node17" class="node"><title>Gender</title>
<path fill="none" stroke="black" d="M737.5,-2277C737.5,-2277 844.5,-2277 844.5,-2277 850.5,-2277 856.5,-2283 856.5,-2289 856.5,-2289 856.5,-2356 856.5,-2356 856.5,-2362 850.5,-2368 844.5,-2368 844.5,-2368 737.5,-2368 737.5,-2368 731.5,-2368 725.5,-2362 725.5,-2356 725.5,-2356 725.5,-2289 725.5,-2289 725.5,-2283 731.5,-2277 737.5,-2277"/>
<text text-anchor="middle" x="791" y="-2352.8" font-family="Times,serif" font-size="14.00">Gender</text>
<polyline fill="none" stroke="black" points="725.5,-2345 856.5,-2345 "/>
<text text-anchor="start" x="733.5" y="-2329.8" font-family="Times,serif" font-size="14.00">id :int(11)</text>
<text text-anchor="start" x="733.5" y="-2314.8" font-family="Times,serif" font-size="14.00">name :varchar(255)</text>
<text text-anchor="start" x="733.5" y="-2299.8" font-family="Times,serif" font-size="14.00">created_at :datetime</text>
<text text-anchor="start" x="733.5" y="-2284.8" font-family="Times,serif" font-size="14.00">updated_at :datetime</text>
</g>
<!-- Gender&#45;&gt;User -->
<g id="edge44" class="edge"><title>Gender&#45;&gt;User</title>
<path fill="none" stroke="#b862a3" d="M789.192,-2268.6C788.918,-2260.59 788.621,-2251.9 788.306,-2242.7"/>
<ellipse fill="none" stroke="#b862a3" cx="789.331" cy="-2272.69" rx="4" ry="4"/>
<polygon fill="#b862a3" stroke="#b862a3" points="788.299,-2242.51 792.455,-2232.36 788.129,-2237.51 787.958,-2232.51 787.958,-2232.51 787.958,-2232.51 788.129,-2237.51 783.46,-2232.67 788.299,-2242.51 788.299,-2242.51"/>
</g>
<!-- AgeRange -->
<g id="node19" class="node"><title>AgeRange</title>
<path fill="none" stroke="black" d="M886.5,-2277C886.5,-2277 993.5,-2277 993.5,-2277 999.5,-2277 1005.5,-2283 1005.5,-2289 1005.5,-2289 1005.5,-2356 1005.5,-2356 1005.5,-2362 999.5,-2368 993.5,-2368 993.5,-2368 886.5,-2368 886.5,-2368 880.5,-2368 874.5,-2362 874.5,-2356 874.5,-2356 874.5,-2289 874.5,-2289 874.5,-2283 880.5,-2277 886.5,-2277"/>
<text text-anchor="middle" x="940" y="-2352.8" font-family="Times,serif" font-size="14.00">AgeRange</text>
<polyline fill="none" stroke="black" points="874.5,-2345 1005.5,-2345 "/>
<text text-anchor="start" x="882.5" y="-2329.8" font-family="Times,serif" font-size="14.00">id :int(11)</text>
<text text-anchor="start" x="882.5" y="-2314.8" font-family="Times,serif" font-size="14.00">name :varchar(255)</text>
<text text-anchor="start" x="882.5" y="-2299.8" font-family="Times,serif" font-size="14.00">created_at :datetime</text>
<text text-anchor="start" x="882.5" y="-2284.8" font-family="Times,serif" font-size="14.00">updated_at :datetime</text>
</g>
<!-- AgeRange&#45;&gt;User -->
<g id="edge45" class="edge"><title>AgeRange&#45;&gt;User</title>
<path fill="none" stroke="#20809d" d="M915.886,-2268.93C908.434,-2252.68 899.686,-2233.61 890.278,-2213.1"/>
<ellipse fill="none" stroke="#20809d" cx="917.778" cy="-2273.05" rx="4.00002" ry="4.00002"/>
<polygon fill="#20809d" stroke="#20809d" points="890.229,-2212.99 890.15,-2202.03 888.144,-2208.45 886.06,-2203.9 886.06,-2203.9 886.06,-2203.9 888.144,-2208.45 881.97,-2205.78 890.229,-2212.99 890.229,-2212.99"/>
</g>
<!-- Diagnosis&#45;&gt;User -->
<g id="edge46" class="edge"><title>Diagnosis&#45;&gt;User</title>
<path fill="none" stroke="#c25e89" d="M408.849,-328.685C430.661,-345.471 451.452,-366.365 464,-391 564.026,-587.377 483,-666.116 483,-886.5 483,-1377 483,-1377 483,-1377 483,-1507.53 451.306,-1550.15 503,-1670 538.335,-1751.92 606.069,-1825.72 665.591,-1879.45"/>
<ellipse fill="none" stroke="#c25e89" cx="405.569" cy="-326.231" rx="4.00002" ry="4.00002"/>
<ellipse fill="#c25e89" stroke="#c25e89" cx="668.713" cy="-1882.24" rx="4.00002" ry="4.00002"/>
</g>
<!-- CipCode -->
<g id="node22" class="node"><title>CipCode</title>
<path fill="none" stroke="black" d="M244,-2269.5C244,-2269.5 374,-2269.5 374,-2269.5 380,-2269.5 386,-2275.5 386,-2281.5 386,-2281.5 386,-2363.5 386,-2363.5 386,-2369.5 380,-2375.5 374,-2375.5 374,-2375.5 244,-2375.5 244,-2375.5 238,-2375.5 232,-2369.5 232,-2363.5 232,-2363.5 232,-2281.5 232,-2281.5 232,-2275.5 238,-2269.5 244,-2269.5"/>
<text text-anchor="middle" x="309" y="-2360.3" font-family="Times,serif" font-size="14.00">CipCode</text>
<polyline fill="none" stroke="black" points="232,-2352.5 386,-2352.5 "/>
<text text-anchor="start" x="240" y="-2337.3" font-family="Times,serif" font-size="14.00">id :int(11)</text>
<text text-anchor="start" x="240" y="-2322.3" font-family="Times,serif" font-size="14.00">gov_code :int(11)</text>
<text text-anchor="start" x="240" y="-2307.3" font-family="Times,serif" font-size="14.00">description :varchar(255)</text>
<text text-anchor="start" x="240" y="-2292.3" font-family="Times,serif" font-size="14.00">created_at :datetime</text>
<text text-anchor="start" x="240" y="-2277.3" font-family="Times,serif" font-size="14.00">updated_at :datetime</text>
</g>
<!-- CipCode&#45;&gt;User -->
<g id="edge47" class="edge"><title>CipCode&#45;&gt;User</title>
<path fill="none" stroke="#0f0d36" d="M385.308,-2264.51C460.701,-2208.21 576.994,-2121.36 663.666,-2056.63"/>
<ellipse fill="none" stroke="#0f0d36" cx="382.061" cy="-2266.94" rx="4.00002" ry="4.00002"/>
<polygon fill="#0f0d36" stroke="#0f0d36" points="663.682,-2056.62 674.387,-2054.24 667.688,-2053.63 671.694,-2050.64 671.694,-2050.64 671.694,-2050.64 667.688,-2053.63 669.002,-2047.03 663.682,-2056.62 663.682,-2056.62"/>
</g>
<!-- Week -->
<g id="node23" class="node"><title>Week</title>
<path fill="none" stroke="black" d="M216.5,-1097.5C216.5,-1097.5 323.5,-1097.5 323.5,-1097.5 329.5,-1097.5 335.5,-1103.5 335.5,-1109.5 335.5,-1109.5 335.5,-1206.5 335.5,-1206.5 335.5,-1212.5 329.5,-1218.5 323.5,-1218.5 323.5,-1218.5 216.5,-1218.5 216.5,-1218.5 210.5,-1218.5 204.5,-1212.5 204.5,-1206.5 204.5,-1206.5 204.5,-1109.5 204.5,-1109.5 204.5,-1103.5 210.5,-1097.5 216.5,-1097.5"/>
<text text-anchor="middle" x="270" y="-1203.3" font-family="Times,serif" font-size="14.00">Week</text>
<polyline fill="none" stroke="black" points="204.5,-1195.5 335.5,-1195.5 "/>
<text text-anchor="start" x="212.5" y="-1180.3" font-family="Times,serif" font-size="14.00">id :int(11)</text>
<text text-anchor="start" x="212.5" y="-1165.3" font-family="Times,serif" font-size="14.00">narrative_id :int(11)</text>
<text text-anchor="start" x="212.5" y="-1150.3" font-family="Times,serif" font-size="14.00">week_num :int(11)</text>
<text text-anchor="start" x="212.5" y="-1135.3" font-family="Times,serif" font-size="14.00">text :text</text>
<text text-anchor="start" x="212.5" y="-1120.3" font-family="Times,serif" font-size="14.00">created_at :datetime</text>
<text text-anchor="start" x="212.5" y="-1105.3" font-family="Times,serif" font-size="14.00">updated_at :datetime</text>
</g>
<!-- Week&#45;&gt;Behavior -->
<g id="edge48" class="edge"><title>Week&#45;&gt;Behavior</title>
<path fill="none" stroke="#7aa55e" d="M246.487,-1089.84C231.268,-1046.37 211.627,-990.264 196.945,-948.327"/>
<ellipse fill="none" stroke="#7aa55e" cx="247.817" cy="-1093.64" rx="4.00001" ry="4.00001"/>
<ellipse fill="#7aa55e" stroke="#7aa55e" cx="195.585" cy="-944.443" rx="4.00001" ry="4.00001"/>
</g>
<!-- Week&#45;&gt;Diagnosis -->
<g id="edge49" class="edge"><title>Week&#45;&gt;Diagnosis</title>
<path fill="none" stroke="#82dcd8" d="M265.244,-1089.15C257.218,-954.798 245.707,-645.824 288,-391 289.458,-382.217 291.451,-373.169 293.751,-364.207"/>
<ellipse fill="none" stroke="#82dcd8" cx="265.5" cy="-1093.37" rx="4" ry="4"/>
<polygon fill="#82dcd8" stroke="#82dcd8" points="293.756,-364.189 300.702,-355.704 295.057,-359.361 296.357,-354.534 296.357,-354.534 296.357,-354.534 295.057,-359.361 292.012,-353.363 293.756,-364.189 293.756,-364.189"/>
</g>
<!-- Narrative&#45;&gt;Behavior -->
<g id="edge51" class="edge"><title>Narrative&#45;&gt;Behavior</title>
<path fill="none" stroke="#064ddc" d="M222.304,-1316C211.788,-1300 202.003,-1282.08 196,-1264 160.617,-1157.44 163.749,-1024.59 169.615,-948.856"/>
<ellipse fill="none" stroke="#064ddc" cx="224.61" cy="-1319.41" rx="4.00002" ry="4.00002"/>
<ellipse fill="#064ddc" stroke="#064ddc" cx="169.943" cy="-944.796" rx="4" ry="4"/>
</g>
<!-- Narrative&#45;&gt;Week -->
<g id="edge50" class="edge"><title>Narrative&#45;&gt;Week</title>
<path fill="none" stroke="#431559" d="M270,-1314.69C270,-1287.96 270,-1256.34 270,-1228.6"/>
<ellipse fill="none" stroke="#431559" cx="270" cy="-1318.99" rx="4" ry="4"/>
<polygon fill="#431559" stroke="#431559" points="270,-1228.58 274.5,-1218.58 270,-1223.58 270,-1218.58 270,-1218.58 270,-1218.58 270,-1223.58 265.5,-1218.58 270,-1228.58 270,-1228.58"/>
</g>
<!-- Narrative&#45;&gt;Reaction -->
<g id="edge52" class="edge"><title>Narrative&#45;&gt;Reaction</title>
<path fill="none" stroke="#7fbe34" d="M318.457,-1316.11C329.113,-1300.11 339,-1282.16 345,-1264 381.18,-1154.47 380.936,-824.956 378.256,-657.707"/>
<ellipse fill="none" stroke="#7fbe34" cx="316.11" cy="-1319.54" rx="4.00002" ry="4.00002"/>
<polygon fill="#7fbe34" stroke="#7fbe34" points="378.255,-657.662 382.588,-647.588 378.172,-652.662 378.089,-647.663 378.089,-647.663 378.089,-647.663 378.172,-652.662 373.589,-647.738 378.255,-657.662 378.255,-657.662"/>
</g>
<!-- Scenario&#45;&gt;Narrative -->
<g id="edge53" class="edge"><title>Scenario&#45;&gt;Narrative</title>
<path fill="none" stroke="#1a8367" d="M123.296,-618.399C115.001,-658.115 105.232,-711.363 101,-759 90.8917,-872.774 87.2593,-902.607 101,-1016 114.655,-1128.68 106.941,-1164.74 162,-1264 172.199,-1282.39 186.246,-1299.9 200.837,-1315.35"/>
<ellipse fill="none" stroke="#1a8367" cx="124.215" cy="-614.05" rx="4.00001" ry="4.00001"/>
<polygon fill="#1a8367" stroke="#1a8367" points="201.068,-1315.59 204.799,-1325.9 204.548,-1319.18 208.029,-1322.77 208.029,-1322.77 208.029,-1322.77 204.548,-1319.18 211.26,-1319.64 201.068,-1315.59 201.068,-1315.59"/>
</g>
<!-- Reaction&#45;&gt;Course -->
<g id="edge54" class="edge"><title>Reaction&#45;&gt;Course</title>
<path fill="none" stroke="#ef8980" d="M462.54,-592.459C583.045,-641.272 789.061,-728.056 810,-759 866.161,-841.996 865.498,-958.467 854.332,-1043.97"/>
<ellipse fill="none" stroke="#ef8980" cx="458.794" cy="-590.944" rx="4.00002" ry="4.00002"/>
<ellipse fill="#ef8980" stroke="#ef8980" cx="853.759" cy="-1048.19" rx="4.00001" ry="4.00001"/>
</g>
<!-- Reaction&#45;&gt;Diagnosis -->
<g id="edge55" class="edge"><title>Reaction&#45;&gt;Diagnosis</title>
<path fill="none" stroke="#1c8a8d" d="M357.236,-458.286C351.37,-427.737 344.949,-394.3 339.269,-364.721"/>
<ellipse fill="none" stroke="#1c8a8d" cx="358.038" cy="-462.462" rx="4.00001" ry="4.00001"/>
<polygon fill="#1c8a8d" stroke="#1c8a8d" points="339.259,-364.668 341.792,-353.999 338.316,-359.758 337.373,-354.847 337.373,-354.847 337.373,-354.847 338.316,-359.758 332.954,-355.696 339.259,-364.668 339.259,-364.668"/>
</g>
<!-- Assessment&#45;&gt;Installment -->
<g id="edge56" class="edge"><title>Assessment&#45;&gt;Installment</title>
<path fill="none" stroke="#257476" d="M1548.48,-481.111C1563.67,-444.946 1581.97,-401.411 1597.65,-364.109"/>
<ellipse fill="none" stroke="#257476" cx="1546.78" cy="-485.148" rx="4.00001" ry="4.00001"/>
<polygon fill="#257476" stroke="#257476" points="1597.7,-363.987 1605.72,-356.511 1599.64,-359.377 1601.58,-354.768 1601.58,-354.768 1601.58,-354.768 1599.64,-359.377 1597.43,-353.024 1597.7,-363.987 1597.7,-363.987"/>
</g>
<!-- Assessment&#45;&gt;Group -->
<g id="edge58" class="edge"><title>Assessment&#45;&gt;Group</title>
<path fill="none" stroke="#a84c30" d="M1526.99,-635.238C1546.31,-794.087 1583.05,-1151.9 1538,-1264 1492.52,-1377.18 1384.6,-1472.54 1311.14,-1527.51"/>
<polygon fill="#a84c30" stroke="#a84c30" points="1526.97,-634.993 1530.22,-624.521 1526.36,-630.031 1525.75,-625.068 1525.75,-625.068 1525.75,-625.068 1526.36,-630.031 1521.28,-625.615 1526.97,-634.993 1526.97,-634.993"/>
<polygon fill="#a84c30" stroke="#a84c30" points="1310.84,-1527.73 1300.13,-1530.07 1306.82,-1530.71 1302.81,-1533.69 1302.81,-1533.69 1302.81,-1533.69 1306.82,-1530.71 1305.49,-1537.3 1310.84,-1527.73 1310.84,-1527.73"/>
</g>
<!-- Assessment&#45;&gt;Factor -->
<g id="edge57" class="edge"><title>Assessment&#45;&gt;Factor</title>
<path fill="none" stroke="#763ab0" d="M1460.82,-480.845C1438.39,-452.026 1411.79,-419.289 1386,-391 1370.06,-373.517 1351.94,-355.426 1334.84,-339.051"/>
<polygon fill="#763ab0" stroke="#763ab0" points="1460.91,-480.958 1463.48,-491.619 1463.97,-484.91 1467.04,-488.863 1467.04,-488.863 1467.04,-488.863 1463.97,-484.91 1470.59,-486.106 1460.91,-480.958 1460.91,-480.958"/>
<polygon fill="#763ab0" stroke="#763ab0" points="1334.82,-339.038 1330.68,-328.885 1331.2,-335.592 1327.58,-332.145 1327.58,-332.145 1327.58,-332.145 1331.2,-335.592 1324.48,-335.405 1334.82,-339.038 1334.82,-339.038"/>
</g>
<!-- CandidateList&#45;&gt;Course -->
<g id="edge61" class="edge"><title>CandidateList&#45;&gt;Course</title>
<path fill="none" stroke="#409fe9" d="M743.103,-1293.65C747.987,-1286.17 752.99,-1278.51 758.009,-1270.82"/>
<ellipse fill="none" stroke="#409fe9" cx="740.908" cy="-1297.01" rx="4.00002" ry="4.00002"/>
<ellipse fill="#409fe9" stroke="#409fe9" cx="760.435" cy="-1267.1" rx="4.00002" ry="4.00002"/>
</g>
<!-- CandidateList&#45;&gt;Concept -->
<g id="edge60" class="edge"><title>CandidateList&#45;&gt;Concept</title>
<path fill="none" stroke="#642a3b" d="M667.494,-1290.43C649.486,-1218.16 625.697,-1111.08 616,-1016 590.11,-762.159 627.015,-457.134 644.588,-334.737"/>
<polygon fill="#642a3b" stroke="#642a3b" points="667.56,-1290.7 665.63,-1301.49 668.777,-1295.55 669.994,-1300.4 669.994,-1300.4 669.994,-1300.4 668.777,-1295.55 674.359,-1299.3 667.56,-1290.7 667.56,-1290.7"/>
<polygon fill="#642a3b" stroke="#642a3b" points="644.636,-334.402 650.526,-325.152 645.355,-329.454 646.073,-324.506 646.073,-324.506 646.073,-324.506 645.355,-329.454 641.62,-323.859 644.636,-334.402 644.636,-334.402"/>
</g>
<!-- CandidateList&#45;&gt;Candidate -->
<g id="edge59" class="edge"><title>CandidateList&#45;&gt;Candidate</title>
<path fill="none" stroke="#444be1" d="M630.027,-1293.44C624.671,-1283.83 619.835,-1273.91 616,-1264 555.065,-1106.58 559,-1057.3 559,-888.5 559,-888.5 559,-888.5 559,-556 559,-398.86 531.451,-352.774 579,-203 581.887,-193.906 585.634,-184.81 589.908,-175.925"/>
<ellipse fill="none" stroke="#444be1" cx="632.019" cy="-1296.91" rx="4.00002" ry="4.00002"/>
<polygon fill="#444be1" stroke="#444be1" points="590.032,-175.679 598.557,-168.781 592.286,-171.216 594.54,-166.753 594.54,-166.753 594.54,-166.753 592.286,-171.216 590.523,-164.724 590.032,-175.679 590.032,-175.679"/>
</g>
<!-- Experience&#45;&gt;Reaction -->
<g id="edge62" class="edge"><title>Experience&#45;&gt;Reaction</title>
<path fill="none" stroke="#7ebb2a" d="M618.991,-794.863C569.965,-747.073 510.405,-689.015 462.522,-642.34"/>
<ellipse fill="none" stroke="#7ebb2a" cx="622.033" cy="-797.827" rx="4.00002" ry="4.00002"/>
<polygon fill="#7ebb2a" stroke="#7ebb2a" points="462.404,-642.225 458.384,-632.022 458.824,-638.735 455.243,-635.244 455.243,-635.244 455.243,-635.244 458.824,-638.735 452.102,-638.467 462.404,-642.225 462.404,-642.225"/>
</g>
<!-- BingoGame&#45;&gt;Concept -->
<g id="edge65" class="edge"><title>BingoGame&#45;&gt;Concept</title>
<path fill="none" stroke="#a786a1" d="M772.319,-433.888C744.906,-398.533 716.4,-361.769 694.128,-333.043"/>
<polygon fill="#a786a1" stroke="#a786a1" points="772.595,-434.244 775.166,-444.904 775.659,-438.195 778.722,-442.147 778.722,-442.147 778.722,-442.147 775.659,-438.195 782.279,-439.389 772.595,-434.244 772.595,-434.244"/>
<polygon fill="#a786a1" stroke="#a786a1" points="693.849,-332.683 691.277,-322.023 690.785,-328.732 687.721,-324.781 687.721,-324.781 687.721,-324.781 690.785,-328.732 684.165,-327.538 693.849,-332.683 693.849,-332.683"/>
</g>
<!-- BingoGame&#45;&gt;Candidate -->
<g id="edge64" class="edge"><title>BingoGame&#45;&gt;Candidate</title>
<path fill="none" stroke="#a7e70a" d="M805.949,-381.883C783.666,-323.944 756.804,-259.748 728,-203 723.365,-193.869 718.229,-184.54 712.881,-175.324"/>
<polygon fill="#a7e70a" stroke="#a7e70a" points="806.054,-382.159 805.424,-393.107 807.84,-386.829 809.627,-391.499 809.627,-391.499 809.627,-391.499 807.84,-386.829 813.83,-389.891 806.054,-382.159 806.054,-382.159"/>
<polygon fill="#a7e70a" stroke="#a7e70a" points="712.777,-175.147 711.575,-164.247 710.238,-170.84 707.698,-166.533 707.698,-166.533 707.698,-166.533 710.238,-170.84 703.822,-168.818 712.777,-175.147 712.777,-175.147"/>
</g>
<!-- BingoGame&#45;&gt;CandidateList -->
<g id="edge63" class="edge"><title>BingoGame&#45;&gt;CandidateList</title>
<path fill="none" stroke="#e12ee2" d="M862.218,-730.755C856.049,-840.751 841.988,-970.763 810,-1016 789.344,-1045.21 759.001,-1023.04 738,-1052 688.044,-1120.9 680.171,-1220.06 682.204,-1290.3"/>
<ellipse fill="none" stroke="#e12ee2" cx="862.448" cy="-726.53" rx="4" ry="4"/>
<polygon fill="#e12ee2" stroke="#e12ee2" points="682.209,-1290.45 678.075,-1300.61 682.391,-1295.45 682.572,-1300.45 682.572,-1300.45 682.572,-1300.45 682.391,-1295.45 687.069,-1300.29 682.209,-1290.45 682.209,-1290.45"/>
</g>
<!-- Role -->
<g id="node35" class="node"><title>Role</title>
<path fill="none" stroke="black" d="M1036,-2269.5C1036,-2269.5 1166,-2269.5 1166,-2269.5 1172,-2269.5 1178,-2275.5 1178,-2281.5 1178,-2281.5 1178,-2363.5 1178,-2363.5 1178,-2369.5 1172,-2375.5 1166,-2375.5 1166,-2375.5 1036,-2375.5 1036,-2375.5 1030,-2375.5 1024,-2369.5 1024,-2363.5 1024,-2363.5 1024,-2281.5 1024,-2281.5 1024,-2275.5 1030,-2269.5 1036,-2269.5"/>
<text text-anchor="middle" x="1101" y="-2360.3" font-family="Times,serif" font-size="14.00">Role</text>
<polyline fill="none" stroke="black" points="1024,-2352.5 1178,-2352.5 "/>
<text text-anchor="start" x="1032" y="-2337.3" font-family="Times,serif" font-size="14.00">id :int(11)</text>
<text text-anchor="start" x="1032" y="-2322.3" font-family="Times,serif" font-size="14.00">name :varchar(255)</text>
<text text-anchor="start" x="1032" y="-2307.3" font-family="Times,serif" font-size="14.00">description :varchar(255)</text>
<text text-anchor="start" x="1032" y="-2292.3" font-family="Times,serif" font-size="14.00">created_at :datetime</text>
<text text-anchor="start" x="1032" y="-2277.3" font-family="Times,serif" font-size="14.00">updated_at :datetime</text>
</g>
<!-- Role&#45;&gt;User -->
<g id="edge66" class="edge"><title>Role&#45;&gt;User</title>
<path fill="none" stroke="#390ec6" d="M1047.63,-2263.32C1005.69,-2217.61 945.786,-2152.31 893.182,-2094.97"/>
<ellipse fill="none" stroke="#390ec6" cx="1050.44" cy="-2266.38" rx="4.00002" ry="4.00002"/>
<polygon fill="#390ec6" stroke="#390ec6" points="892.903,-2094.66 889.459,-2084.25 889.523,-2090.98 886.143,-2087.29 886.143,-2087.29 886.143,-2087.29 889.523,-2090.98 882.827,-2090.33 892.903,-2094.66 892.903,-2094.66"/>
</g>
<!-- Role&#45;&gt;Roster -->
<g id="edge67" class="edge"><title>Role&#45;&gt;Roster</title>
<path fill="none" stroke="#64b613" d="M1098.31,-2261.16C1088.01,-2030.54 1051.15,-1205.36 1040.13,-958.654"/>
<ellipse fill="none" stroke="#64b613" cx="1098.49" cy="-2265.23" rx="4" ry="4"/>
<polygon fill="#64b613" stroke="#64b613" points="1040.12,-958.375 1044.17,-948.184 1039.9,-953.38 1039.67,-948.385 1039.67,-948.385 1039.67,-948.385 1039.9,-953.38 1035.18,-948.585 1040.12,-958.375 1040.12,-958.375"/>
</g>
</g>
</svg>
