<?xml version="1.0" encoding="UTF-8" standalone="no"?>
<!DOCTYPE svg PUBLIC "-//W3C//DTD SVG 1.1//EN"
 "http://www.w3.org/Graphics/SVG/1.1/DTD/svg11.dtd">
<!-- Generated by graphviz version 2.38.0 (20140413.2041)
 -->
<!-- Title: models_diagram Pages: 1 -->
<svg width="1565pt" height="1141pt"
 viewBox="0.00 0.00 1564.50 1141.00" xmlns="http://www.w3.org/2000/svg" xmlns:xlink="http://www.w3.org/1999/xlink">
<g id="graph0" class="graph" transform="scale(1 1) rotate(0) translate(4 1137)">
<title>models_diagram</title>
<polygon fill="none" stroke="none" points="-4,4 -4,-1137 1560.5,-1137 1560.5,4 -4,4"/>
<!-- _diagram_info -->
<g id="node1" class="node"><title>_diagram_info</title>
<text text-anchor="start" x="8" y="-1081.6" font-family="Times,serif" font-size="13.00">Models diagram</text>
<text text-anchor="start" x="8" y="-1067.6" font-family="Times,serif" font-size="13.00">Date: Jan 19 2017 &#45; 19:44</text>
<text text-anchor="start" x="8" y="-1053.6" font-family="Times,serif" font-size="13.00">Migration version: 20170119092916</text>
<text text-anchor="start" x="8" y="-1039.6" font-family="Times,serif" font-size="13.00">Generated by RailRoady 1.5.2</text>
<text text-anchor="start" x="8" y="-1025.6" font-family="Times,serif" font-size="13.00">http://railroady.prestonlee.com</text>
</g>
<!-- FactorPack -->
<g id="node2" class="node"><title>FactorPack</title>
<path fill="none" stroke="black" d="M1123.5,-673.5C1123.5,-673.5 1230.5,-673.5 1230.5,-673.5 1236.5,-673.5 1242.5,-679.5 1242.5,-685.5 1242.5,-685.5 1242.5,-767.5 1242.5,-767.5 1242.5,-773.5 1236.5,-779.5 1230.5,-779.5 1230.5,-779.5 1123.5,-779.5 1123.5,-779.5 1117.5,-779.5 1111.5,-773.5 1111.5,-767.5 1111.5,-767.5 1111.5,-685.5 1111.5,-685.5 1111.5,-679.5 1117.5,-673.5 1123.5,-673.5"/>
<text text-anchor="middle" x="1177" y="-764.3" font-family="Times,serif" font-size="14.00">FactorPack</text>
<polyline fill="none" stroke="black" points="1111.5,-756.5 1242.5,-756.5 "/>
<text text-anchor="start" x="1119.5" y="-741.3" font-family="Times,serif" font-size="14.00">id :int(11)</text>
<text text-anchor="start" x="1119.5" y="-726.3" font-family="Times,serif" font-size="14.00">name :varchar(255)</text>
<text text-anchor="start" x="1119.5" y="-711.3" font-family="Times,serif" font-size="14.00">description :text</text>
<text text-anchor="start" x="1119.5" y="-696.3" font-family="Times,serif" font-size="14.00">created_at :datetime</text>
<text text-anchor="start" x="1119.5" y="-681.3" font-family="Times,serif" font-size="14.00">updated_at :datetime</text>
</g>
<!-- Project -->
<g id="node11" class="node"><title>Project</title>
<path fill="none" stroke="black" d="M592,-230.5C592,-230.5 722,-230.5 722,-230.5 728,-230.5 734,-236.5 734,-242.5 734,-242.5 734,-459.5 734,-459.5 734,-465.5 728,-471.5 722,-471.5 722,-471.5 592,-471.5 592,-471.5 586,-471.5 580,-465.5 580,-459.5 580,-459.5 580,-242.5 580,-242.5 580,-236.5 586,-230.5 592,-230.5"/>
<text text-anchor="middle" x="657" y="-456.3" font-family="Times,serif" font-size="14.00">Project</text>
<polyline fill="none" stroke="black" points="580,-448.5 734,-448.5 "/>
<text text-anchor="start" x="588" y="-433.3" font-family="Times,serif" font-size="14.00">id :int(11)</text>
<text text-anchor="start" x="588" y="-418.3" font-family="Times,serif" font-size="14.00">name :varchar(255)</text>
<text text-anchor="start" x="588" y="-403.3" font-family="Times,serif" font-size="14.00">description :varchar(255)</text>
<text text-anchor="start" x="588" y="-388.3" font-family="Times,serif" font-size="14.00">course_id :int(11)</text>
<text text-anchor="start" x="588" y="-373.3" font-family="Times,serif" font-size="14.00">created_at :datetime</text>
<text text-anchor="start" x="588" y="-358.3" font-family="Times,serif" font-size="14.00">updated_at :datetime</text>
<text text-anchor="start" x="588" y="-343.3" font-family="Times,serif" font-size="14.00">start_dow :int(11)</text>
<text text-anchor="start" x="588" y="-328.3" font-family="Times,serif" font-size="14.00">end_dow :int(11)</text>
<text text-anchor="start" x="588" y="-313.3" font-family="Times,serif" font-size="14.00">active :tinyint(1)</text>
<text text-anchor="start" x="588" y="-298.3" font-family="Times,serif" font-size="14.00">start_date :date</text>
<text text-anchor="start" x="588" y="-283.3" font-family="Times,serif" font-size="14.00">end_date :date</text>
<text text-anchor="start" x="588" y="-268.3" font-family="Times,serif" font-size="14.00">consent_form_id :int(11)</text>
<text text-anchor="start" x="588" y="-253.3" font-family="Times,serif" font-size="14.00">factor_pack_id :int(11)</text>
<text text-anchor="start" x="588" y="-238.3" font-family="Times,serif" font-size="14.00">style_id :int(11)</text>
</g>
<!-- FactorPack&#45;&gt;Project -->
<g id="edge2" class="edge"><title>FactorPack&#45;&gt;Project</title>
<path fill="none" stroke="#c01b2e" d="M1171.37,-665.406C1163.65,-616.54 1145.35,-549.166 1102,-508 1060.08,-468.189 1031.89,-490.164 977,-472 897.302,-445.625 807.953,-411.749 743.965,-386.72"/>
<ellipse fill="none" stroke="#c01b2e" cx="1171.97" cy="-669.432" rx="4.00001" ry="4.00001"/>
<polygon fill="#c01b2e" stroke="#c01b2e" points="743.626,-386.587 735.958,-378.748 738.971,-384.762 734.316,-382.937 734.316,-382.937 734.316,-382.937 738.971,-384.762 732.673,-387.127 743.626,-386.587 743.626,-386.587"/>
</g>
<!-- Factor -->
<g id="node14" class="node"><title>Factor</title>
<path fill="none" stroke="black" d="M822,-80C822,-80 952,-80 952,-80 958,-80 964,-86 964,-92 964,-92 964,-174 964,-174 964,-180 958,-186 952,-186 952,-186 822,-186 822,-186 816,-186 810,-180 810,-174 810,-174 810,-92 810,-92 810,-86 816,-80 822,-80"/>
<text text-anchor="middle" x="887" y="-170.8" font-family="Times,serif" font-size="14.00">Factor</text>
<polyline fill="none" stroke="black" points="810,-163 964,-163 "/>
<text text-anchor="start" x="818" y="-147.8" font-family="Times,serif" font-size="14.00">id :int(11)</text>
<text text-anchor="start" x="818" y="-132.8" font-family="Times,serif" font-size="14.00">description :varchar(255)</text>
<text text-anchor="start" x="818" y="-117.8" font-family="Times,serif" font-size="14.00">name :varchar(255)</text>
<text text-anchor="start" x="818" y="-102.8" font-family="Times,serif" font-size="14.00">created_at :datetime</text>
<text text-anchor="start" x="818" y="-87.8" font-family="Times,serif" font-size="14.00">updated_at :datetime</text>
</g>
<!-- FactorPack&#45;&gt;Factor -->
<g id="edge1" class="edge"><title>FactorPack&#45;&gt;Factor</title>
<path fill="none" stroke="#72df10" d="M1159.13,-663.713C1145.52,-619.507 1125.22,-559.04 1102,-508 1049.7,-393.029 973.005,-267.23 926.75,-194.763"/>
<polygon fill="#72df10" stroke="#72df10" points="1159.18,-663.888 1157.8,-674.766 1160.64,-668.671 1162.1,-673.453 1162.1,-673.453 1162.1,-673.453 1160.64,-668.671 1166.41,-672.14 1159.18,-663.888 1159.18,-663.888"/>
<polygon fill="#72df10" stroke="#72df10" points="926.656,-194.617 925.054,-183.768 923.96,-190.406 921.264,-186.195 921.264,-186.195 921.264,-186.195 923.96,-190.406 917.474,-188.621 926.656,-194.617 926.656,-194.617"/>
</g>
<!-- Course -->
<g id="node3" class="node"><title>Course</title>
<path fill="none" stroke="black" d="M951,-651C951,-651 1081,-651 1081,-651 1087,-651 1093,-657 1093,-663 1093,-663 1093,-790 1093,-790 1093,-796 1087,-802 1081,-802 1081,-802 951,-802 951,-802 945,-802 939,-796 939,-790 939,-790 939,-663 939,-663 939,-657 945,-651 951,-651"/>
<text text-anchor="middle" x="1016" y="-786.8" font-family="Times,serif" font-size="14.00">Course</text>
<polyline fill="none" stroke="black" points="939,-779 1093,-779 "/>
<text text-anchor="start" x="947" y="-763.8" font-family="Times,serif" font-size="14.00">id :int(11)</text>
<text text-anchor="start" x="947" y="-748.8" font-family="Times,serif" font-size="14.00">name :varchar(255)</text>
<text text-anchor="start" x="947" y="-733.8" font-family="Times,serif" font-size="14.00">description :varchar(255)</text>
<text text-anchor="start" x="947" y="-718.8" font-family="Times,serif" font-size="14.00">timezone :varchar(255)</text>
<text text-anchor="start" x="947" y="-703.8" font-family="Times,serif" font-size="14.00">school_id :int(11)</text>
<text text-anchor="start" x="947" y="-688.8" font-family="Times,serif" font-size="14.00">created_at :datetime</text>
<text text-anchor="start" x="947" y="-673.8" font-family="Times,serif" font-size="14.00">updated_at :datetime</text>
<text text-anchor="start" x="947" y="-658.8" font-family="Times,serif" font-size="14.00">number :varchar(255)</text>
</g>
<!-- Course&#45;&gt;Project -->
<g id="edge3" class="edge"><title>Course&#45;&gt;Project</title>
<path fill="none" stroke="#bb2f41" d="M997.601,-643.053C984.523,-599.107 963.241,-546.354 930,-508 879.944,-450.244 802.983,-409.001 743.518,-383.485"/>
<ellipse fill="none" stroke="#bb2f41" cx="998.754" cy="-647.028" rx="4.00001" ry="4.00001"/>
<polygon fill="#bb2f41" stroke="#bb2f41" points="743.345,-383.412 735.881,-375.378 738.738,-381.468 734.131,-379.524 734.131,-379.524 734.131,-379.524 738.738,-381.468 732.382,-383.67 743.345,-383.412 743.345,-383.412"/>
</g>
<!-- Style -->
<g id="node4" class="node"><title>Style</title>
<path fill="none" stroke="black" d="M791,-673.5C791,-673.5 909,-673.5 909,-673.5 915,-673.5 921,-679.5 921,-685.5 921,-685.5 921,-767.5 921,-767.5 921,-773.5 915,-779.5 909,-779.5 909,-779.5 791,-779.5 791,-779.5 785,-779.5 779,-773.5 779,-767.5 779,-767.5 779,-685.5 779,-685.5 779,-679.5 785,-673.5 791,-673.5"/>
<text text-anchor="middle" x="850" y="-764.3" font-family="Times,serif" font-size="14.00">Style</text>
<polyline fill="none" stroke="black" points="779,-756.5 921,-756.5 "/>
<text text-anchor="start" x="787" y="-741.3" font-family="Times,serif" font-size="14.00">id :int(11)</text>
<text text-anchor="start" x="787" y="-726.3" font-family="Times,serif" font-size="14.00">name :varchar(255)</text>
<text text-anchor="start" x="787" y="-711.3" font-family="Times,serif" font-size="14.00">filename :varchar(255)</text>
<text text-anchor="start" x="787" y="-696.3" font-family="Times,serif" font-size="14.00">created_at :datetime</text>
<text text-anchor="start" x="787" y="-681.3" font-family="Times,serif" font-size="14.00">updated_at :datetime</text>
</g>
<!-- Style&#45;&gt;Project -->
<g id="edge4" class="edge"><title>Style&#45;&gt;Project</title>
<path fill="none" stroke="#71a269" d="M832.793,-665.38C818.827,-620.619 797.045,-558.744 770,-508 761.16,-491.413 750.755,-474.59 739.898,-458.435"/>
<ellipse fill="none" stroke="#71a269" cx="834.043" cy="-669.43" rx="4.00001" ry="4.00001"/>
<polygon fill="#71a269" stroke="#71a269" points="739.817,-458.315 737.904,-447.518 737.001,-454.184 734.185,-450.052 734.185,-450.052 734.185,-450.052 737.001,-454.184 730.467,-452.586 739.817,-458.315 739.817,-458.315"/>
</g>
<!-- Installment -->
<g id="node5" class="node"><title>Installment</title>
<path fill="none" stroke="black" d="M1123.5,-981.5C1123.5,-981.5 1238.5,-981.5 1238.5,-981.5 1244.5,-981.5 1250.5,-987.5 1250.5,-993.5 1250.5,-993.5 1250.5,-1120.5 1250.5,-1120.5 1250.5,-1126.5 1244.5,-1132.5 1238.5,-1132.5 1238.5,-1132.5 1123.5,-1132.5 1123.5,-1132.5 1117.5,-1132.5 1111.5,-1126.5 1111.5,-1120.5 1111.5,-1120.5 1111.5,-993.5 1111.5,-993.5 1111.5,-987.5 1117.5,-981.5 1123.5,-981.5"/>
<text text-anchor="middle" x="1181" y="-1117.3" font-family="Times,serif" font-size="14.00">Installment</text>
<polyline fill="none" stroke="black" points="1111.5,-1109.5 1250.5,-1109.5 "/>
<text text-anchor="start" x="1119.5" y="-1094.3" font-family="Times,serif" font-size="14.00">id :int(11)</text>
<text text-anchor="start" x="1119.5" y="-1079.3" font-family="Times,serif" font-size="14.00">inst_date :date</text>
<text text-anchor="start" x="1119.5" y="-1064.3" font-family="Times,serif" font-size="14.00">assessment_id :int(11)</text>
<text text-anchor="start" x="1119.5" y="-1049.3" font-family="Times,serif" font-size="14.00">user_id :int(11)</text>
<text text-anchor="start" x="1119.5" y="-1034.3" font-family="Times,serif" font-size="14.00">comments :text</text>
<text text-anchor="start" x="1119.5" y="-1019.3" font-family="Times,serif" font-size="14.00">group_id :int(11)</text>
<text text-anchor="start" x="1119.5" y="-1004.3" font-family="Times,serif" font-size="14.00">created_at :datetime</text>
<text text-anchor="start" x="1119.5" y="-989.3" font-family="Times,serif" font-size="14.00">updated_at :datetime</text>
</g>
<!-- ConsentForm -->
<g id="node6" class="node"><title>ConsentForm</title>
<path fill="none" stroke="black" d="M435,-636C435,-636 599,-636 599,-636 605,-636 611,-642 611,-648 611,-648 611,-805 611,-805 611,-811 605,-817 599,-817 599,-817 435,-817 435,-817 429,-817 423,-811 423,-805 423,-805 423,-648 423,-648 423,-642 429,-636 435,-636"/>
<text text-anchor="middle" x="517" y="-801.8" font-family="Times,serif" font-size="14.00">ConsentForm</text>
<polyline fill="none" stroke="black" points="423,-794 611,-794 "/>
<text text-anchor="start" x="431" y="-778.8" font-family="Times,serif" font-size="14.00">id :int(11)</text>
<text text-anchor="start" x="431" y="-763.8" font-family="Times,serif" font-size="14.00">name :varchar(255)</text>
<text text-anchor="start" x="431" y="-748.8" font-family="Times,serif" font-size="14.00">user_id :int(11)</text>
<text text-anchor="start" x="431" y="-733.8" font-family="Times,serif" font-size="14.00">created_at :datetime</text>
<text text-anchor="start" x="431" y="-718.8" font-family="Times,serif" font-size="14.00">updated_at :datetime</text>
<text text-anchor="start" x="431" y="-703.8" font-family="Times,serif" font-size="14.00">pdf_file_name :varchar(255)</text>
<text text-anchor="start" x="431" y="-688.8" font-family="Times,serif" font-size="14.00">pdf_content_type :varchar(255)</text>
<text text-anchor="start" x="431" y="-673.8" font-family="Times,serif" font-size="14.00">pdf_file_size :int(11)</text>
<text text-anchor="start" x="431" y="-658.8" font-family="Times,serif" font-size="14.00">pdf_updated_at :datetime</text>
<text text-anchor="start" x="431" y="-643.8" font-family="Times,serif" font-size="14.00">form_text :text</text>
</g>
<!-- ConsentForm&#45;&gt;Project -->
<g id="edge5" class="edge"><title>ConsentForm&#45;&gt;Project</title>
<path fill="none" stroke="#1df7e4" d="M553.557,-627.971C570.375,-583.102 590.561,-529.251 608.618,-481.077"/>
<ellipse fill="none" stroke="#1df7e4" cx="552.116" cy="-631.817" rx="4.00001" ry="4.00001"/>
<polygon fill="#1df7e4" stroke="#1df7e4" points="608.689,-480.886 616.413,-473.101 610.444,-476.204 612.199,-471.522 612.199,-471.522 612.199,-471.522 610.444,-476.204 607.986,-469.943 608.689,-480.886 608.689,-480.886"/>
</g>
<!-- ConsentLog -->
<g id="node15" class="node"><title>ConsentLog</title>
<path fill="none" stroke="black" d="M415.5,-283C415.5,-283 544.5,-283 544.5,-283 550.5,-283 556.5,-289 556.5,-295 556.5,-295 556.5,-407 556.5,-407 556.5,-413 550.5,-419 544.5,-419 544.5,-419 415.5,-419 415.5,-419 409.5,-419 403.5,-413 403.5,-407 403.5,-407 403.5,-295 403.5,-295 403.5,-289 409.5,-283 415.5,-283"/>
<text text-anchor="middle" x="480" y="-403.8" font-family="Times,serif" font-size="14.00">ConsentLog</text>
<polyline fill="none" stroke="black" points="403.5,-396 556.5,-396 "/>
<text text-anchor="start" x="411.5" y="-380.8" font-family="Times,serif" font-size="14.00">id :int(11)</text>
<text text-anchor="start" x="411.5" y="-365.8" font-family="Times,serif" font-size="14.00">accepted :tinyint(1)</text>
<text text-anchor="start" x="411.5" y="-350.8" font-family="Times,serif" font-size="14.00">consent_form_id :int(11)</text>
<text text-anchor="start" x="411.5" y="-335.8" font-family="Times,serif" font-size="14.00">user_id :int(11)</text>
<text text-anchor="start" x="411.5" y="-320.8" font-family="Times,serif" font-size="14.00">created_at :datetime</text>
<text text-anchor="start" x="411.5" y="-305.8" font-family="Times,serif" font-size="14.00">updated_at :datetime</text>
<text text-anchor="start" x="411.5" y="-290.8" font-family="Times,serif" font-size="14.00">presented :tinyint(1)</text>
</g>
<!-- ConsentForm&#45;&gt;ConsentLog -->
<g id="edge6" class="edge"><title>ConsentForm&#45;&gt;ConsentLog</title>
<path fill="none" stroke="#45117c" d="M507.268,-627.257C501.141,-565.408 493.345,-486.71 487.659,-429.318"/>
<ellipse fill="none" stroke="#45117c" cx="507.696" cy="-631.582" rx="4" ry="4"/>
<polygon fill="#45117c" stroke="#45117c" points="487.645,-429.17 491.137,-418.775 487.152,-424.194 486.659,-419.219 486.659,-419.219 486.659,-419.219 487.152,-424.194 482.181,-419.662 487.645,-429.17 487.645,-429.17"/>
</g>
<!-- User -->
<g id="node7" class="node"><title>User</title>
<path fill="none" stroke="black" d="M203,-508.5C203,-508.5 393,-508.5 393,-508.5 399,-508.5 405,-514.5 405,-520.5 405,-520.5 405,-932.5 405,-932.5 405,-938.5 399,-944.5 393,-944.5 393,-944.5 203,-944.5 203,-944.5 197,-944.5 191,-938.5 191,-932.5 191,-932.5 191,-520.5 191,-520.5 191,-514.5 197,-508.5 203,-508.5"/>
<text text-anchor="middle" x="298" y="-929.3" font-family="Times,serif" font-size="14.00">User</text>
<polyline fill="none" stroke="black" points="191,-921.5 405,-921.5 "/>
<text text-anchor="start" x="199" y="-906.3" font-family="Times,serif" font-size="14.00">id :int(11)</text>
<text text-anchor="start" x="199" y="-891.3" font-family="Times,serif" font-size="14.00">email :varchar(255)</text>
<text text-anchor="start" x="199" y="-876.3" font-family="Times,serif" font-size="14.00">encrypted_password :varchar(255)</text>
<text text-anchor="start" x="199" y="-861.3" font-family="Times,serif" font-size="14.00">reset_password_token :varchar(255)</text>
<text text-anchor="start" x="199" y="-846.3" font-family="Times,serif" font-size="14.00">reset_password_sent_at :datetime</text>
<text text-anchor="start" x="199" y="-831.3" font-family="Times,serif" font-size="14.00">remember_created_at :datetime</text>
<text text-anchor="start" x="199" y="-816.3" font-family="Times,serif" font-size="14.00">sign_in_count :int(11)</text>
<text text-anchor="start" x="199" y="-801.3" font-family="Times,serif" font-size="14.00">current_sign_in_at :datetime</text>
<text text-anchor="start" x="199" y="-786.3" font-family="Times,serif" font-size="14.00">last_sign_in_at :datetime</text>
<text text-anchor="start" x="199" y="-771.3" font-family="Times,serif" font-size="14.00">current_sign_in_ip :varchar(255)</text>
<text text-anchor="start" x="199" y="-756.3" font-family="Times,serif" font-size="14.00">last_sign_in_ip :varchar(255)</text>
<text text-anchor="start" x="199" y="-741.3" font-family="Times,serif" font-size="14.00">confirmation_token :varchar(255)</text>
<text text-anchor="start" x="199" y="-726.3" font-family="Times,serif" font-size="14.00">confirmed_at :datetime</text>
<text text-anchor="start" x="199" y="-711.3" font-family="Times,serif" font-size="14.00">confirmation_sent_at :datetime</text>
<text text-anchor="start" x="199" y="-696.3" font-family="Times,serif" font-size="14.00">unconfirmed_email :varchar(255)</text>
<text text-anchor="start" x="199" y="-681.3" font-family="Times,serif" font-size="14.00">failed_attempts :int(11)</text>
<text text-anchor="start" x="199" y="-666.3" font-family="Times,serif" font-size="14.00">unlock_token :varchar(255)</text>
<text text-anchor="start" x="199" y="-651.3" font-family="Times,serif" font-size="14.00">locked_at :datetime</text>
<text text-anchor="start" x="199" y="-636.3" font-family="Times,serif" font-size="14.00">created_at :datetime</text>
<text text-anchor="start" x="199" y="-621.3" font-family="Times,serif" font-size="14.00">updated_at :datetime</text>
<text text-anchor="start" x="199" y="-606.3" font-family="Times,serif" font-size="14.00">first_name :varchar(255)</text>
<text text-anchor="start" x="199" y="-591.3" font-family="Times,serif" font-size="14.00">last_name :varchar(255)</text>
<text text-anchor="start" x="199" y="-576.3" font-family="Times,serif" font-size="14.00">gender_id :int(11)</text>
<text text-anchor="start" x="199" y="-561.3" font-family="Times,serif" font-size="14.00">age_range_id :int(11)</text>
<text text-anchor="start" x="199" y="-546.3" font-family="Times,serif" font-size="14.00">country :varchar(255)</text>
<text text-anchor="start" x="199" y="-531.3" font-family="Times,serif" font-size="14.00">admin :tinyint(1)</text>
<text text-anchor="start" x="199" y="-516.3" font-family="Times,serif" font-size="14.00">welcomed :tinyint(1)</text>
</g>
<!-- Group -->
<g id="node10" class="node"><title>Group</title>
<path fill="none" stroke="black" d="M363.5,-80C363.5,-80 470.5,-80 470.5,-80 476.5,-80 482.5,-86 482.5,-92 482.5,-92 482.5,-174 482.5,-174 482.5,-180 476.5,-186 470.5,-186 470.5,-186 363.5,-186 363.5,-186 357.5,-186 351.5,-180 351.5,-174 351.5,-174 351.5,-92 351.5,-92 351.5,-86 357.5,-80 363.5,-80"/>
<text text-anchor="middle" x="417" y="-170.8" font-family="Times,serif" font-size="14.00">Group</text>
<polyline fill="none" stroke="black" points="351.5,-163 482.5,-163 "/>
<text text-anchor="start" x="359.5" y="-147.8" font-family="Times,serif" font-size="14.00">id :int(11)</text>
<text text-anchor="start" x="359.5" y="-132.8" font-family="Times,serif" font-size="14.00">name :varchar(255)</text>
<text text-anchor="start" x="359.5" y="-117.8" font-family="Times,serif" font-size="14.00">project_id :int(11)</text>
<text text-anchor="start" x="359.5" y="-102.8" font-family="Times,serif" font-size="14.00">created_at :datetime</text>
<text text-anchor="start" x="359.5" y="-87.8" font-family="Times,serif" font-size="14.00">updated_at :datetime</text>
</g>
<!-- User&#45;&gt;Group -->
<g id="edge7" class="edge"><title>User&#45;&gt;Group</title>
<path fill="none" stroke="#1b22df" d="M305.899,-498.106C314.051,-412.274 329.636,-314.9 359,-230 363.093,-218.165 368.79,-206.219 375.026,-194.963"/>
<polygon fill="#1b22df" stroke="#1b22df" points="305.883,-498.288 300.485,-507.833 305.424,-503.267 304.966,-508.246 304.966,-508.246 304.966,-508.246 305.424,-503.267 309.447,-508.658 305.883,-498.288 305.883,-498.288"/>
<polygon fill="#1b22df" stroke="#1b22df" points="375.138,-194.768 384.024,-188.343 377.631,-190.434 380.123,-186.1 380.123,-186.1 380.123,-186.1 377.631,-190.434 376.222,-183.856 375.138,-194.768 375.138,-194.768"/>
</g>
<!-- User&#45;&gt;Project -->
<g id="edge9" class="edge"><title>User&#45;&gt;Project</title>
<path fill="none" stroke="#383677" d="M412.859,-508.887C413.238,-508.589 413.619,-508.294 414,-508 468.985,-465.616 507.825,-509.888 566,-472 567.958,-470.725 569.89,-469.392 571.796,-468.008"/>
<polygon fill="#383677" stroke="#383677" points="412.758,-508.971 402.188,-511.891 408.909,-512.163 405.061,-515.354 405.061,-515.354 405.061,-515.354 408.909,-512.163 407.933,-518.818 412.758,-508.971 412.758,-508.971"/>
<polygon fill="#383677" stroke="#383677" points="572.096,-467.774 582.749,-465.174 576.039,-464.7 579.982,-461.625 579.982,-461.625 579.982,-461.625 576.039,-464.7 577.215,-458.076 572.096,-467.774 572.096,-467.774"/>
</g>
<!-- User&#45;&gt;ConsentLog -->
<g id="edge8" class="edge"><title>User&#45;&gt;ConsentLog</title>
<path fill="none" stroke="#16d72c" d="M407.542,-500.698C420.135,-474.855 432.233,-450.028 442.815,-428.31"/>
<ellipse fill="none" stroke="#16d72c" cx="405.622" cy="-504.638" rx="4.00002" ry="4.00002"/>
<polygon fill="#16d72c" stroke="#16d72c" points="442.875,-428.188 451.3,-421.17 445.065,-423.694 447.255,-419.199 447.255,-419.199 447.255,-419.199 445.065,-423.694 443.21,-417.228 442.875,-428.188 442.875,-428.188"/>
</g>
<!-- Assessment -->
<g id="node17" class="node"><title>Assessment</title>
<path fill="none" stroke="black" d="M554,-72.5C554,-72.5 676,-72.5 676,-72.5 682,-72.5 688,-78.5 688,-84.5 688,-84.5 688,-181.5 688,-181.5 688,-187.5 682,-193.5 676,-193.5 676,-193.5 554,-193.5 554,-193.5 548,-193.5 542,-187.5 542,-181.5 542,-181.5 542,-84.5 542,-84.5 542,-78.5 548,-72.5 554,-72.5"/>
<text text-anchor="middle" x="615" y="-178.3" font-family="Times,serif" font-size="14.00">Assessment</text>
<polyline fill="none" stroke="black" points="542,-170.5 688,-170.5 "/>
<text text-anchor="start" x="550" y="-155.3" font-family="Times,serif" font-size="14.00">id :int(11)</text>
<text text-anchor="start" x="550" y="-140.3" font-family="Times,serif" font-size="14.00">end_date :date</text>
<text text-anchor="start" x="550" y="-125.3" font-family="Times,serif" font-size="14.00">start_date :varchar(255)</text>
<text text-anchor="start" x="550" y="-110.3" font-family="Times,serif" font-size="14.00">project_id :int(11)</text>
<text text-anchor="start" x="550" y="-95.3" font-family="Times,serif" font-size="14.00">created_at :datetime</text>
<text text-anchor="start" x="550" y="-80.3" font-family="Times,serif" font-size="14.00">updated_at :datetime</text>
</g>
<!-- User&#45;&gt;Assessment -->
<g id="edge10" class="edge"><title>User&#45;&gt;Assessment</title>
<path fill="none" stroke="#69a690" d="M342.885,-498.336C344.617,-489.443 346.327,-480.639 348,-472 368.815,-364.516 323.334,-313.621 394,-230 423.681,-194.878 448.7,-212.035 491,-194 504.495,-188.246 518.643,-181.805 532.356,-175.336"/>
<polygon fill="#69a690" stroke="#69a690" points="342.834,-498.594 336.504,-507.548 341.878,-503.502 340.921,-508.409 340.921,-508.409 340.921,-508.409 341.878,-503.502 345.338,-509.27 342.834,-498.594 342.834,-498.594"/>
<polygon fill="#69a690" stroke="#69a690" points="532.735,-175.155 543.699,-174.924 537.251,-173.008 541.766,-170.86 541.766,-170.86 541.766,-170.86 537.251,-173.008 539.834,-166.797 532.735,-175.155 532.735,-175.155"/>
</g>
<!-- Roster -->
<g id="node8" class="node"><title>Roster</title>
<path fill="none" stroke="black" d="M641.5,-666C641.5,-666 748.5,-666 748.5,-666 754.5,-666 760.5,-672 760.5,-678 760.5,-678 760.5,-775 760.5,-775 760.5,-781 754.5,-787 748.5,-787 748.5,-787 641.5,-787 641.5,-787 635.5,-787 629.5,-781 629.5,-775 629.5,-775 629.5,-678 629.5,-678 629.5,-672 635.5,-666 641.5,-666"/>
<text text-anchor="middle" x="695" y="-771.8" font-family="Times,serif" font-size="14.00">Roster</text>
<polyline fill="none" stroke="black" points="629.5,-764 760.5,-764 "/>
<text text-anchor="start" x="637.5" y="-748.8" font-family="Times,serif" font-size="14.00">id :int(11)</text>
<text text-anchor="start" x="637.5" y="-733.8" font-family="Times,serif" font-size="14.00">role_id :int(11)</text>
<text text-anchor="start" x="637.5" y="-718.8" font-family="Times,serif" font-size="14.00">course_id :int(11)</text>
<text text-anchor="start" x="637.5" y="-703.8" font-family="Times,serif" font-size="14.00">user_id :int(11)</text>
<text text-anchor="start" x="637.5" y="-688.8" font-family="Times,serif" font-size="14.00">created_at :datetime</text>
<text text-anchor="start" x="637.5" y="-673.8" font-family="Times,serif" font-size="14.00">updated_at :datetime</text>
</g>
<!-- School -->
<g id="node9" class="node"><title>School</title>
<path fill="none" stroke="black" d="M951,-1004C951,-1004 1081,-1004 1081,-1004 1087,-1004 1093,-1010 1093,-1016 1093,-1016 1093,-1098 1093,-1098 1093,-1104 1087,-1110 1081,-1110 1081,-1110 951,-1110 951,-1110 945,-1110 939,-1104 939,-1098 939,-1098 939,-1016 939,-1016 939,-1010 945,-1004 951,-1004"/>
<text text-anchor="middle" x="1016" y="-1094.8" font-family="Times,serif" font-size="14.00">School</text>
<polyline fill="none" stroke="black" points="939,-1087 1093,-1087 "/>
<text text-anchor="start" x="947" y="-1071.8" font-family="Times,serif" font-size="14.00">id :int(11)</text>
<text text-anchor="start" x="947" y="-1056.8" font-family="Times,serif" font-size="14.00">description :varchar(255)</text>
<text text-anchor="start" x="947" y="-1041.8" font-family="Times,serif" font-size="14.00">name :varchar(255)</text>
<text text-anchor="start" x="947" y="-1026.8" font-family="Times,serif" font-size="14.00">created_at :datetime</text>
<text text-anchor="start" x="947" y="-1011.8" font-family="Times,serif" font-size="14.00">updated_at :datetime</text>
</g>
<!-- School&#45;&gt;Course -->
<g id="edge11" class="edge"><title>School&#45;&gt;Course</title>
<path fill="none" stroke="#e89d4b" d="M1016,-995.766C1016,-944.351 1016,-869.831 1016,-812.372"/>
<ellipse fill="none" stroke="#e89d4b" cx="1016" cy="-999.948" rx="4" ry="4"/>
<polygon fill="#e89d4b" stroke="#e89d4b" points="1016,-812.216 1020.5,-802.216 1016,-807.216 1016,-802.216 1016,-802.216 1016,-802.216 1016,-807.216 1011.5,-802.216 1016,-812.216 1016,-812.216"/>
</g>
<!-- Report -->
<g id="node19" class="node"><title>Report</title>
<ellipse fill="none" stroke="black" cx="417" cy="-18" rx="34.394" ry="18"/>
<text text-anchor="middle" x="417" y="-14.3" font-family="Times,serif" font-size="14.00">Report</text>
</g>
<!-- Group&#45;&gt;Report -->
<g id="edge12" class="edge"><title>Group&#45;&gt;Report</title>
<path fill="none" stroke="#39bf83" d="M417,-71.6749C417,-62.8167 417,-54.0844 417,-46.3544"/>
<ellipse fill="none" stroke="#39bf83" cx="417" cy="-75.8" rx="4" ry="4"/>
<polygon fill="#39bf83" stroke="#39bf83" points="417,-46.1853 421.5,-36.1853 417,-41.1853 417,-36.1853 417,-36.1853 417,-36.1853 417,-41.1853 412.5,-36.1854 417,-46.1853 417,-46.1853"/>
</g>
<!-- Project&#45;&gt;Group -->
<g id="edge13" class="edge"><title>Project&#45;&gt;Group</title>
<path fill="none" stroke="#6beec2" d="M574.295,-238.016C571.557,-235.263 568.79,-232.585 566,-230 543.686,-209.33 516.389,-190.309 491.285,-174.747"/>
<ellipse fill="none" stroke="#6beec2" cx="577.085" cy="-240.895" rx="4.00002" ry="4.00002"/>
<polygon fill="#6beec2" stroke="#6beec2" points="491.044,-174.599 484.853,-165.548 486.776,-171.994 482.509,-169.389 482.509,-169.389 482.509,-169.389 486.776,-171.994 480.164,-173.23 491.044,-174.599 491.044,-174.599"/>
</g>
<!-- Project&#45;&gt;Factor -->
<g id="edge15" class="edge"><title>Project&#45;&gt;Factor</title>
<path fill="none" stroke="#71a51e" d="M741.764,-270.396C768.993,-244.824 798.657,-216.966 824.036,-193.132"/>
<polygon fill="#71a51e" stroke="#71a51e" points="741.516,-270.628 731.146,-274.194 737.871,-274.051 734.227,-277.474 734.227,-277.474 734.227,-277.474 737.871,-274.051 737.307,-280.755 741.516,-270.628 741.516,-270.628"/>
<polygon fill="#71a51e" stroke="#71a51e" points="824.13,-193.043 834.5,-189.477 827.775,-189.62 831.42,-186.197 831.42,-186.197 831.42,-186.197 827.775,-189.62 828.339,-182.917 824.13,-193.043 824.13,-193.043"/>
</g>
<!-- Project&#45;&gt;Assessment -->
<g id="edge14" class="edge"><title>Project&#45;&gt;Assessment</title>
<path fill="none" stroke="#62d673" d="M632.178,-222.341C630.946,-216.007 629.732,-209.766 628.555,-203.71"/>
<ellipse fill="none" stroke="#62d673" cx="632.964" cy="-226.387" rx="4.00001" ry="4.00001"/>
<polygon fill="#62d673" stroke="#62d673" points="628.519,-203.524 631.027,-192.849 627.564,-198.616 626.61,-193.708 626.61,-193.708 626.61,-193.708 627.564,-198.616 622.193,-194.567 628.519,-203.524 628.519,-203.524"/>
</g>
<!-- Gender -->
<g id="node12" class="node"><title>Gender</title>
<path fill="none" stroke="black" d="M244.5,-1011.5C244.5,-1011.5 351.5,-1011.5 351.5,-1011.5 357.5,-1011.5 363.5,-1017.5 363.5,-1023.5 363.5,-1023.5 363.5,-1090.5 363.5,-1090.5 363.5,-1096.5 357.5,-1102.5 351.5,-1102.5 351.5,-1102.5 244.5,-1102.5 244.5,-1102.5 238.5,-1102.5 232.5,-1096.5 232.5,-1090.5 232.5,-1090.5 232.5,-1023.5 232.5,-1023.5 232.5,-1017.5 238.5,-1011.5 244.5,-1011.5"/>
<text text-anchor="middle" x="298" y="-1087.3" font-family="Times,serif" font-size="14.00">Gender</text>
<polyline fill="none" stroke="black" points="232.5,-1079.5 363.5,-1079.5 "/>
<text text-anchor="start" x="240.5" y="-1064.3" font-family="Times,serif" font-size="14.00">id :int(11)</text>
<text text-anchor="start" x="240.5" y="-1049.3" font-family="Times,serif" font-size="14.00">name :varchar(255)</text>
<text text-anchor="start" x="240.5" y="-1034.3" font-family="Times,serif" font-size="14.00">created_at :datetime</text>
<text text-anchor="start" x="240.5" y="-1019.3" font-family="Times,serif" font-size="14.00">updated_at :datetime</text>
</g>
<!-- Gender&#45;&gt;User -->
<g id="edge16" class="edge"><title>Gender&#45;&gt;User</title>
<path fill="none" stroke="#b81bbb" d="M298,-1003.25C298,-989.029 298,-972.693 298,-955.224"/>
<ellipse fill="none" stroke="#b81bbb" cx="298" cy="-1007.36" rx="4" ry="4"/>
<polygon fill="#b81bbb" stroke="#b81bbb" points="298,-954.815 302.5,-944.815 298,-949.815 298,-944.815 298,-944.815 298,-944.815 298,-949.815 293.5,-944.815 298,-954.815 298,-954.815"/>
</g>
<!-- AgeRange -->
<g id="node13" class="node"><title>AgeRange</title>
<path fill="none" stroke="black" d="M1280.5,-1011.5C1280.5,-1011.5 1387.5,-1011.5 1387.5,-1011.5 1393.5,-1011.5 1399.5,-1017.5 1399.5,-1023.5 1399.5,-1023.5 1399.5,-1090.5 1399.5,-1090.5 1399.5,-1096.5 1393.5,-1102.5 1387.5,-1102.5 1387.5,-1102.5 1280.5,-1102.5 1280.5,-1102.5 1274.5,-1102.5 1268.5,-1096.5 1268.5,-1090.5 1268.5,-1090.5 1268.5,-1023.5 1268.5,-1023.5 1268.5,-1017.5 1274.5,-1011.5 1280.5,-1011.5"/>
<text text-anchor="middle" x="1334" y="-1087.3" font-family="Times,serif" font-size="14.00">AgeRange</text>
<polyline fill="none" stroke="black" points="1268.5,-1079.5 1399.5,-1079.5 "/>
<text text-anchor="start" x="1276.5" y="-1064.3" font-family="Times,serif" font-size="14.00">id :int(11)</text>
<text text-anchor="start" x="1276.5" y="-1049.3" font-family="Times,serif" font-size="14.00">name :varchar(255)</text>
<text text-anchor="start" x="1276.5" y="-1034.3" font-family="Times,serif" font-size="14.00">created_at :datetime</text>
<text text-anchor="start" x="1276.5" y="-1019.3" font-family="Times,serif" font-size="14.00">updated_at :datetime</text>
</g>
<!-- Value -->
<g id="node16" class="node"><title>Value</title>
<path fill="none" stroke="black" d="M1429.5,-996.5C1429.5,-996.5 1544.5,-996.5 1544.5,-996.5 1550.5,-996.5 1556.5,-1002.5 1556.5,-1008.5 1556.5,-1008.5 1556.5,-1105.5 1556.5,-1105.5 1556.5,-1111.5 1550.5,-1117.5 1544.5,-1117.5 1544.5,-1117.5 1429.5,-1117.5 1429.5,-1117.5 1423.5,-1117.5 1417.5,-1111.5 1417.5,-1105.5 1417.5,-1105.5 1417.5,-1008.5 1417.5,-1008.5 1417.5,-1002.5 1423.5,-996.5 1429.5,-996.5"/>
<text text-anchor="middle" x="1487" y="-1102.3" font-family="Times,serif" font-size="14.00">Value</text>
<polyline fill="none" stroke="black" points="1417.5,-1094.5 1556.5,-1094.5 "/>
<text text-anchor="start" x="1425.5" y="-1079.3" font-family="Times,serif" font-size="14.00">id :int(11)</text>
<text text-anchor="start" x="1425.5" y="-1064.3" font-family="Times,serif" font-size="14.00">value :int(11)</text>
<text text-anchor="start" x="1425.5" y="-1049.3" font-family="Times,serif" font-size="14.00">user_id :int(11)</text>
<text text-anchor="start" x="1425.5" y="-1034.3" font-family="Times,serif" font-size="14.00">installment_id :int(11)</text>
<text text-anchor="start" x="1425.5" y="-1019.3" font-family="Times,serif" font-size="14.00">created_at :datetime</text>
<text text-anchor="start" x="1425.5" y="-1004.3" font-family="Times,serif" font-size="14.00">updated_at :datetime</text>
</g>
<!-- Role -->
<g id="node18" class="node"><title>Role</title>
<path fill="none" stroke="black" d="M512,-1004C512,-1004 642,-1004 642,-1004 648,-1004 654,-1010 654,-1016 654,-1016 654,-1098 654,-1098 654,-1104 648,-1110 642,-1110 642,-1110 512,-1110 512,-1110 506,-1110 500,-1104 500,-1098 500,-1098 500,-1016 500,-1016 500,-1010 506,-1004 512,-1004"/>
<text text-anchor="middle" x="577" y="-1094.8" font-family="Times,serif" font-size="14.00">Role</text>
<polyline fill="none" stroke="black" points="500,-1087 654,-1087 "/>
<text text-anchor="start" x="508" y="-1071.8" font-family="Times,serif" font-size="14.00">id :int(11)</text>
<text text-anchor="start" x="508" y="-1056.8" font-family="Times,serif" font-size="14.00">name :varchar(255)</text>
<text text-anchor="start" x="508" y="-1041.8" font-family="Times,serif" font-size="14.00">description :varchar(255)</text>
<text text-anchor="start" x="508" y="-1026.8" font-family="Times,serif" font-size="14.00">created_at :datetime</text>
<text text-anchor="start" x="508" y="-1011.8" font-family="Times,serif" font-size="14.00">updated_at :datetime</text>
</g>
<!-- Role&#45;&gt;User -->
<g id="edge17" class="edge"><title>Role&#45;&gt;User</title>
<path fill="none" stroke="#d727dd" d="M492.747,-1009.73C465.384,-991.962 436.347,-969.898 414,-945 413.25,-944.164 412.502,-943.322 411.759,-942.475"/>
<ellipse fill="none" stroke="#d727dd" cx="496.293" cy="-1011.99" rx="4.00002" ry="4.00002"/>
<polygon fill="#d727dd" stroke="#d727dd" points="411.629,-942.323 408.577,-931.79 408.39,-938.515 405.15,-934.706 405.15,-934.706 405.15,-934.706 408.39,-938.515 401.722,-937.622 411.629,-942.323 411.629,-942.323"/>
</g>
<!-- Role&#45;&gt;Roster -->
<g id="edge18" class="edge"><title>Role&#45;&gt;Roster</title>
<path fill="none" stroke="#1ff5a1" d="M600.558,-996.409C606.99,-979.813 613.872,-961.746 620,-945 638.058,-895.656 657.362,-839.591 671.863,-796.743"/>
<ellipse fill="none" stroke="#1ff5a1" cx="599.088" cy="-1000.19" rx="4.00001" ry="4.00001"/>
<polygon fill="#1ff5a1" stroke="#1ff5a1" points="671.867,-796.73 679.331,-788.697 673.467,-791.993 675.068,-787.256 675.068,-787.256 675.068,-787.256 673.467,-791.993 670.804,-785.816 671.867,-796.73 671.867,-796.73"/>
</g>
</g>
</svg>
