<?xml version="1.0" encoding="UTF-8" standalone="no"?>
<!DOCTYPE svg PUBLIC "-//W3C//DTD SVG 1.1//EN"
 "http://www.w3.org/Graphics/SVG/1.1/DTD/svg11.dtd">
<!-- Generated by graphviz version 2.38.0 (20140413.2041)
 -->
<!-- Title: models_diagram Pages: 1 -->
<svg width="2155pt" height="1024pt"
 viewBox="0.00 0.00 2155.00 1024.00" xmlns="http://www.w3.org/2000/svg" xmlns:xlink="http://www.w3.org/1999/xlink">
<g id="graph0" class="graph" transform="scale(1 1) rotate(0) translate(4 1020)">
<title>models_diagram</title>
<polygon fill="none" stroke="none" points="-4,4 -4,-1020 2151,-1020 2151,4 -4,4"/>
<!-- _diagram_info -->
<g id="node1" class="node"><title>_diagram_info</title>
<text text-anchor="start" x="8" y="-964.6" font-family="Times,serif" font-size="13.00">Models diagram</text>
<text text-anchor="start" x="8" y="-950.6" font-family="Times,serif" font-size="13.00">Date: Jan 17 2017 &#45; 13:10</text>
<text text-anchor="start" x="8" y="-936.6" font-family="Times,serif" font-size="13.00">Migration version: 20170116103703</text>
<text text-anchor="start" x="8" y="-922.6" font-family="Times,serif" font-size="13.00">Generated by RailRoady 1.5.2</text>
<text text-anchor="start" x="8" y="-908.6" font-family="Times,serif" font-size="13.00">http://railroady.prestonlee.com</text>
</g>
<!-- GroupProjectCount -->
<g id="node2" class="node"><title>GroupProjectCount</title>
<path fill="none" stroke="black" d="M244,-887C244,-887 374,-887 374,-887 380,-887 386,-893 386,-899 386,-899 386,-981 386,-981 386,-987 380,-993 374,-993 374,-993 244,-993 244,-993 238,-993 232,-987 232,-981 232,-981 232,-899 232,-899 232,-893 238,-887 244,-887"/>
<text text-anchor="middle" x="309" y="-977.8" font-family="Times,serif" font-size="14.00">GroupProjectCount</text>
<polyline fill="none" stroke="black" points="232,-970 386,-970 "/>
<text text-anchor="start" x="240" y="-954.8" font-family="Times,serif" font-size="14.00">id :int(11)</text>
<text text-anchor="start" x="240" y="-939.8" font-family="Times,serif" font-size="14.00">name :varchar(255)</text>
<text text-anchor="start" x="240" y="-924.8" font-family="Times,serif" font-size="14.00">description :varchar(255)</text>
<text text-anchor="start" x="240" y="-909.8" font-family="Times,serif" font-size="14.00">created_at :datetime</text>
<text text-anchor="start" x="240" y="-894.8" font-family="Times,serif" font-size="14.00">updated_at :datetime</text>
</g>
<!-- Course -->
<g id="node3" class="node"><title>Course</title>
<path fill="none" stroke="black" d="M416,-864.5C416,-864.5 546,-864.5 546,-864.5 552,-864.5 558,-870.5 558,-876.5 558,-876.5 558,-1003.5 558,-1003.5 558,-1009.5 552,-1015.5 546,-1015.5 546,-1015.5 416,-1015.5 416,-1015.5 410,-1015.5 404,-1009.5 404,-1003.5 404,-1003.5 404,-876.5 404,-876.5 404,-870.5 410,-864.5 416,-864.5"/>
<text text-anchor="middle" x="481" y="-1000.3" font-family="Times,serif" font-size="14.00">Course</text>
<polyline fill="none" stroke="black" points="404,-992.5 558,-992.5 "/>
<text text-anchor="start" x="412" y="-977.3" font-family="Times,serif" font-size="14.00">id :int(11)</text>
<text text-anchor="start" x="412" y="-962.3" font-family="Times,serif" font-size="14.00">name :varchar(255)</text>
<text text-anchor="start" x="412" y="-947.3" font-family="Times,serif" font-size="14.00">description :varchar(255)</text>
<text text-anchor="start" x="412" y="-932.3" font-family="Times,serif" font-size="14.00">timezone :varchar(255)</text>
<text text-anchor="start" x="412" y="-917.3" font-family="Times,serif" font-size="14.00">school_id :int(11)</text>
<text text-anchor="start" x="412" y="-902.3" font-family="Times,serif" font-size="14.00">created_at :datetime</text>
<text text-anchor="start" x="412" y="-887.3" font-family="Times,serif" font-size="14.00">updated_at :datetime</text>
<text text-anchor="start" x="412" y="-872.3" font-family="Times,serif" font-size="14.00">number :varchar(255)</text>
</g>
<!-- Project -->
<g id="node12" class="node"><title>Project</title>
<path fill="none" stroke="black" d="M416,-631.5C416,-631.5 546,-631.5 546,-631.5 552,-631.5 558,-637.5 558,-643.5 558,-643.5 558,-815.5 558,-815.5 558,-821.5 552,-827.5 546,-827.5 546,-827.5 416,-827.5 416,-827.5 410,-827.5 404,-821.5 404,-815.5 404,-815.5 404,-643.5 404,-643.5 404,-637.5 410,-631.5 416,-631.5"/>
<text text-anchor="middle" x="481" y="-812.3" font-family="Times,serif" font-size="14.00">Project</text>
<polyline fill="none" stroke="black" points="404,-804.5 558,-804.5 "/>
<text text-anchor="start" x="412" y="-789.3" font-family="Times,serif" font-size="14.00">id :int(11)</text>
<text text-anchor="start" x="412" y="-774.3" font-family="Times,serif" font-size="14.00">name :varchar(255)</text>
<text text-anchor="start" x="412" y="-759.3" font-family="Times,serif" font-size="14.00">description :varchar(255)</text>
<text text-anchor="start" x="412" y="-744.3" font-family="Times,serif" font-size="14.00">course_id :int(11)</text>
<text text-anchor="start" x="412" y="-729.3" font-family="Times,serif" font-size="14.00">created_at :datetime</text>
<text text-anchor="start" x="412" y="-714.3" font-family="Times,serif" font-size="14.00">updated_at :datetime</text>
<text text-anchor="start" x="412" y="-699.3" font-family="Times,serif" font-size="14.00">start_dow :int(11)</text>
<text text-anchor="start" x="412" y="-684.3" font-family="Times,serif" font-size="14.00">end_dow :int(11)</text>
<text text-anchor="start" x="412" y="-669.3" font-family="Times,serif" font-size="14.00">active :tinyint(1)</text>
<text text-anchor="start" x="412" y="-654.3" font-family="Times,serif" font-size="14.00">start_date :date</text>
<text text-anchor="start" x="412" y="-639.3" font-family="Times,serif" font-size="14.00">end_date :date</text>
</g>
<!-- Course&#45;&gt;Project -->
<g id="edge1" class="edge"><title>Course&#45;&gt;Project</title>
<path fill="none" stroke="#b09174" d="M481,-856.136C481,-850.122 481,-844.009 481,-837.882"/>
<ellipse fill="none" stroke="#b09174" cx="481" cy="-860.316" rx="4" ry="4"/>
<polygon fill="#b09174" stroke="#b09174" points="481,-837.571 485.5,-827.57 481,-832.571 481,-827.571 481,-827.571 481,-827.571 481,-832.571 476.5,-827.571 481,-837.571 481,-837.571"/>
</g>
<!-- Style -->
<g id="node4" class="node"><title>Style</title>
<path fill="none" stroke="black" d="M588,-887C588,-887 706,-887 706,-887 712,-887 718,-893 718,-899 718,-899 718,-981 718,-981 718,-987 712,-993 706,-993 706,-993 588,-993 588,-993 582,-993 576,-987 576,-981 576,-981 576,-899 576,-899 576,-893 582,-887 588,-887"/>
<text text-anchor="middle" x="647" y="-977.8" font-family="Times,serif" font-size="14.00">Style</text>
<polyline fill="none" stroke="black" points="576,-970 718,-970 "/>
<text text-anchor="start" x="584" y="-954.8" font-family="Times,serif" font-size="14.00">id :int(11)</text>
<text text-anchor="start" x="584" y="-939.8" font-family="Times,serif" font-size="14.00">name :varchar(255)</text>
<text text-anchor="start" x="584" y="-924.8" font-family="Times,serif" font-size="14.00">filename :varchar(255)</text>
<text text-anchor="start" x="584" y="-909.8" font-family="Times,serif" font-size="14.00">created_at :datetime</text>
<text text-anchor="start" x="584" y="-894.8" font-family="Times,serif" font-size="14.00">updated_at :datetime</text>
</g>
<!-- Installment -->
<g id="node5" class="node"><title>Installment</title>
<path fill="none" stroke="black" d="M748.5,-864.5C748.5,-864.5 863.5,-864.5 863.5,-864.5 869.5,-864.5 875.5,-870.5 875.5,-876.5 875.5,-876.5 875.5,-1003.5 875.5,-1003.5 875.5,-1009.5 869.5,-1015.5 863.5,-1015.5 863.5,-1015.5 748.5,-1015.5 748.5,-1015.5 742.5,-1015.5 736.5,-1009.5 736.5,-1003.5 736.5,-1003.5 736.5,-876.5 736.5,-876.5 736.5,-870.5 742.5,-864.5 748.5,-864.5"/>
<text text-anchor="middle" x="806" y="-1000.3" font-family="Times,serif" font-size="14.00">Installment</text>
<polyline fill="none" stroke="black" points="736.5,-992.5 875.5,-992.5 "/>
<text text-anchor="start" x="744.5" y="-977.3" font-family="Times,serif" font-size="14.00">id :int(11)</text>
<text text-anchor="start" x="744.5" y="-962.3" font-family="Times,serif" font-size="14.00">inst_date :date</text>
<text text-anchor="start" x="744.5" y="-947.3" font-family="Times,serif" font-size="14.00">assessment_id :int(11)</text>
<text text-anchor="start" x="744.5" y="-932.3" font-family="Times,serif" font-size="14.00">user_id :int(11)</text>
<text text-anchor="start" x="744.5" y="-917.3" font-family="Times,serif" font-size="14.00">comments :text</text>
<text text-anchor="start" x="744.5" y="-902.3" font-family="Times,serif" font-size="14.00">group_id :int(11)</text>
<text text-anchor="start" x="744.5" y="-887.3" font-family="Times,serif" font-size="14.00">created_at :datetime</text>
<text text-anchor="start" x="744.5" y="-872.3" font-family="Times,serif" font-size="14.00">updated_at :datetime</text>
</g>
<!-- ConsentForm -->
<g id="node6" class="node"><title>ConsentForm</title>
<path fill="none" stroke="black" d="M905.5,-887C905.5,-887 1012.5,-887 1012.5,-887 1018.5,-887 1024.5,-893 1024.5,-899 1024.5,-899 1024.5,-981 1024.5,-981 1024.5,-987 1018.5,-993 1012.5,-993 1012.5,-993 905.5,-993 905.5,-993 899.5,-993 893.5,-987 893.5,-981 893.5,-981 893.5,-899 893.5,-899 893.5,-893 899.5,-887 905.5,-887"/>
<text text-anchor="middle" x="959" y="-977.8" font-family="Times,serif" font-size="14.00">ConsentForm</text>
<polyline fill="none" stroke="black" points="893.5,-970 1024.5,-970 "/>
<text text-anchor="start" x="901.5" y="-954.8" font-family="Times,serif" font-size="14.00">id :int(11)</text>
<text text-anchor="start" x="901.5" y="-939.8" font-family="Times,serif" font-size="14.00">name :varchar(255)</text>
<text text-anchor="start" x="901.5" y="-924.8" font-family="Times,serif" font-size="14.00">user_id :int(11)</text>
<text text-anchor="start" x="901.5" y="-909.8" font-family="Times,serif" font-size="14.00">created_at :datetime</text>
<text text-anchor="start" x="901.5" y="-894.8" font-family="Times,serif" font-size="14.00">updated_at :datetime</text>
</g>
<!-- Behaviour -->
<g id="node7" class="node"><title>Behaviour</title>
<path fill="none" stroke="black" d="M1055,-887C1055,-887 1185,-887 1185,-887 1191,-887 1197,-893 1197,-899 1197,-899 1197,-981 1197,-981 1197,-987 1191,-993 1185,-993 1185,-993 1055,-993 1055,-993 1049,-993 1043,-987 1043,-981 1043,-981 1043,-899 1043,-899 1043,-893 1049,-887 1055,-887"/>
<text text-anchor="middle" x="1120" y="-977.8" font-family="Times,serif" font-size="14.00">Behaviour</text>
<polyline fill="none" stroke="black" points="1043,-970 1197,-970 "/>
<text text-anchor="start" x="1051" y="-954.8" font-family="Times,serif" font-size="14.00">id :int(11)</text>
<text text-anchor="start" x="1051" y="-939.8" font-family="Times,serif" font-size="14.00">description :varchar(255)</text>
<text text-anchor="start" x="1051" y="-924.8" font-family="Times,serif" font-size="14.00">name :varchar(255)</text>
<text text-anchor="start" x="1051" y="-909.8" font-family="Times,serif" font-size="14.00">created_at :datetime</text>
<text text-anchor="start" x="1051" y="-894.8" font-family="Times,serif" font-size="14.00">updated_at :datetime</text>
</g>
<!-- User -->
<g id="node8" class="node"><title>User</title>
<path fill="none" stroke="black" d="M386,-158.5C386,-158.5 576,-158.5 576,-158.5 582,-158.5 588,-164.5 588,-170.5 588,-170.5 588,-582.5 588,-582.5 588,-588.5 582,-594.5 576,-594.5 576,-594.5 386,-594.5 386,-594.5 380,-594.5 374,-588.5 374,-582.5 374,-582.5 374,-170.5 374,-170.5 374,-164.5 380,-158.5 386,-158.5"/>
<text text-anchor="middle" x="481" y="-579.3" font-family="Times,serif" font-size="14.00">User</text>
<polyline fill="none" stroke="black" points="374,-571.5 588,-571.5 "/>
<text text-anchor="start" x="382" y="-556.3" font-family="Times,serif" font-size="14.00">id :int(11)</text>
<text text-anchor="start" x="382" y="-541.3" font-family="Times,serif" font-size="14.00">email :varchar(255)</text>
<text text-anchor="start" x="382" y="-526.3" font-family="Times,serif" font-size="14.00">encrypted_password :varchar(255)</text>
<text text-anchor="start" x="382" y="-511.3" font-family="Times,serif" font-size="14.00">reset_password_token :varchar(255)</text>
<text text-anchor="start" x="382" y="-496.3" font-family="Times,serif" font-size="14.00">reset_password_sent_at :datetime</text>
<text text-anchor="start" x="382" y="-481.3" font-family="Times,serif" font-size="14.00">remember_created_at :datetime</text>
<text text-anchor="start" x="382" y="-466.3" font-family="Times,serif" font-size="14.00">sign_in_count :int(11)</text>
<text text-anchor="start" x="382" y="-451.3" font-family="Times,serif" font-size="14.00">current_sign_in_at :datetime</text>
<text text-anchor="start" x="382" y="-436.3" font-family="Times,serif" font-size="14.00">last_sign_in_at :datetime</text>
<text text-anchor="start" x="382" y="-421.3" font-family="Times,serif" font-size="14.00">current_sign_in_ip :varchar(255)</text>
<text text-anchor="start" x="382" y="-406.3" font-family="Times,serif" font-size="14.00">last_sign_in_ip :varchar(255)</text>
<text text-anchor="start" x="382" y="-391.3" font-family="Times,serif" font-size="14.00">confirmation_token :varchar(255)</text>
<text text-anchor="start" x="382" y="-376.3" font-family="Times,serif" font-size="14.00">confirmed_at :datetime</text>
<text text-anchor="start" x="382" y="-361.3" font-family="Times,serif" font-size="14.00">confirmation_sent_at :datetime</text>
<text text-anchor="start" x="382" y="-346.3" font-family="Times,serif" font-size="14.00">unconfirmed_email :varchar(255)</text>
<text text-anchor="start" x="382" y="-331.3" font-family="Times,serif" font-size="14.00">failed_attempts :int(11)</text>
<text text-anchor="start" x="382" y="-316.3" font-family="Times,serif" font-size="14.00">unlock_token :varchar(255)</text>
<text text-anchor="start" x="382" y="-301.3" font-family="Times,serif" font-size="14.00">locked_at :datetime</text>
<text text-anchor="start" x="382" y="-286.3" font-family="Times,serif" font-size="14.00">created_at :datetime</text>
<text text-anchor="start" x="382" y="-271.3" font-family="Times,serif" font-size="14.00">updated_at :datetime</text>
<text text-anchor="start" x="382" y="-256.3" font-family="Times,serif" font-size="14.00">first_name :varchar(255)</text>
<text text-anchor="start" x="382" y="-241.3" font-family="Times,serif" font-size="14.00">last_name :varchar(255)</text>
<text text-anchor="start" x="382" y="-226.3" font-family="Times,serif" font-size="14.00">gender_id :int(11)</text>
<text text-anchor="start" x="382" y="-211.3" font-family="Times,serif" font-size="14.00">age_range_id :int(11)</text>
<text text-anchor="start" x="382" y="-196.3" font-family="Times,serif" font-size="14.00">country :varchar(255)</text>
<text text-anchor="start" x="382" y="-181.3" font-family="Times,serif" font-size="14.00">admin :tinyint(1)</text>
<text text-anchor="start" x="382" y="-166.3" font-family="Times,serif" font-size="14.00">welcomed :tinyint(1)</text>
</g>
<!-- Group -->
<g id="node11" class="node"><title>Group</title>
<path fill="none" stroke="black" d="M292.5,-8C292.5,-8 399.5,-8 399.5,-8 405.5,-8 411.5,-14 411.5,-20 411.5,-20 411.5,-102 411.5,-102 411.5,-108 405.5,-114 399.5,-114 399.5,-114 292.5,-114 292.5,-114 286.5,-114 280.5,-108 280.5,-102 280.5,-102 280.5,-20 280.5,-20 280.5,-14 286.5,-8 292.5,-8"/>
<text text-anchor="middle" x="346" y="-98.8" font-family="Times,serif" font-size="14.00">Group</text>
<polyline fill="none" stroke="black" points="280.5,-91 411.5,-91 "/>
<text text-anchor="start" x="288.5" y="-75.8" font-family="Times,serif" font-size="14.00">id :int(11)</text>
<text text-anchor="start" x="288.5" y="-60.8" font-family="Times,serif" font-size="14.00">name :varchar(255)</text>
<text text-anchor="start" x="288.5" y="-45.8" font-family="Times,serif" font-size="14.00">project_id :int(11)</text>
<text text-anchor="start" x="288.5" y="-30.8" font-family="Times,serif" font-size="14.00">created_at :datetime</text>
<text text-anchor="start" x="288.5" y="-15.8" font-family="Times,serif" font-size="14.00">updated_at :datetime</text>
</g>
<!-- User&#45;&gt;Group -->
<g id="edge2" class="edge"><title>User&#45;&gt;Group</title>
<path fill="none" stroke="#40df64" d="M383.451,-148.969C379.584,-139.99 375.883,-131.395 372.415,-123.342"/>
<polygon fill="#40df64" stroke="#40df64" points="383.467,-149.006 383.289,-159.971 385.444,-153.599 387.422,-158.191 387.422,-158.191 387.422,-158.191 385.444,-153.599 391.555,-156.411 383.467,-149.006 383.467,-149.006"/>
<polygon fill="#40df64" stroke="#40df64" points="372.411,-123.332 372.589,-112.368 370.433,-118.74 368.456,-114.148 368.456,-114.148 368.456,-114.148 370.433,-118.74 364.323,-115.927 372.411,-123.332 372.411,-123.332"/>
</g>
<!-- ConsentLog -->
<g id="node15" class="node"><title>ConsentLog</title>
<path fill="none" stroke="black" d="M441.5,-0.5C441.5,-0.5 570.5,-0.5 570.5,-0.5 576.5,-0.5 582.5,-6.5 582.5,-12.5 582.5,-12.5 582.5,-109.5 582.5,-109.5 582.5,-115.5 576.5,-121.5 570.5,-121.5 570.5,-121.5 441.5,-121.5 441.5,-121.5 435.5,-121.5 429.5,-115.5 429.5,-109.5 429.5,-109.5 429.5,-12.5 429.5,-12.5 429.5,-6.5 435.5,-0.5 441.5,-0.5"/>
<text text-anchor="middle" x="506" y="-106.3" font-family="Times,serif" font-size="14.00">ConsentLog</text>
<polyline fill="none" stroke="black" points="429.5,-98.5 582.5,-98.5 "/>
<text text-anchor="start" x="437.5" y="-83.3" font-family="Times,serif" font-size="14.00">id :int(11)</text>
<text text-anchor="start" x="437.5" y="-68.3" font-family="Times,serif" font-size="14.00">accepted :tinyint(1)</text>
<text text-anchor="start" x="437.5" y="-53.3" font-family="Times,serif" font-size="14.00">consent_form_id :int(11)</text>
<text text-anchor="start" x="437.5" y="-38.3" font-family="Times,serif" font-size="14.00">user_id :int(11)</text>
<text text-anchor="start" x="437.5" y="-23.3" font-family="Times,serif" font-size="14.00">created_at :datetime</text>
<text text-anchor="start" x="437.5" y="-8.3" font-family="Times,serif" font-size="14.00">updated_at :datetime</text>
</g>
<!-- User&#45;&gt;ConsentLog -->
<g id="edge3" class="edge"><title>User&#45;&gt;ConsentLog</title>
<path fill="none" stroke="#cdacb5" d="M498.978,-150.053C499.478,-143.786 499.963,-137.702 500.43,-131.853"/>
<ellipse fill="none" stroke="#cdacb5" cx="498.647" cy="-154.204" rx="4" ry="4"/>
<polygon fill="#cdacb5" stroke="#cdacb5" points="500.453,-131.561 505.734,-121.95 500.85,-126.576 501.248,-121.592 501.248,-121.592 501.248,-121.592 500.85,-126.576 496.762,-121.234 500.453,-131.561 500.453,-131.561"/>
</g>
<!-- Roster -->
<g id="node9" class="node"><title>Roster</title>
<path fill="none" stroke="black" d="M1227.5,-879.5C1227.5,-879.5 1334.5,-879.5 1334.5,-879.5 1340.5,-879.5 1346.5,-885.5 1346.5,-891.5 1346.5,-891.5 1346.5,-988.5 1346.5,-988.5 1346.5,-994.5 1340.5,-1000.5 1334.5,-1000.5 1334.5,-1000.5 1227.5,-1000.5 1227.5,-1000.5 1221.5,-1000.5 1215.5,-994.5 1215.5,-988.5 1215.5,-988.5 1215.5,-891.5 1215.5,-891.5 1215.5,-885.5 1221.5,-879.5 1227.5,-879.5"/>
<text text-anchor="middle" x="1281" y="-985.3" font-family="Times,serif" font-size="14.00">Roster</text>
<polyline fill="none" stroke="black" points="1215.5,-977.5 1346.5,-977.5 "/>
<text text-anchor="start" x="1223.5" y="-962.3" font-family="Times,serif" font-size="14.00">id :int(11)</text>
<text text-anchor="start" x="1223.5" y="-947.3" font-family="Times,serif" font-size="14.00">role_id :int(11)</text>
<text text-anchor="start" x="1223.5" y="-932.3" font-family="Times,serif" font-size="14.00">course_id :int(11)</text>
<text text-anchor="start" x="1223.5" y="-917.3" font-family="Times,serif" font-size="14.00">user_id :int(11)</text>
<text text-anchor="start" x="1223.5" y="-902.3" font-family="Times,serif" font-size="14.00">created_at :datetime</text>
<text text-anchor="start" x="1223.5" y="-887.3" font-family="Times,serif" font-size="14.00">updated_at :datetime</text>
</g>
<!-- School -->
<g id="node10" class="node"><title>School</title>
<path fill="none" stroke="black" d="M1377,-887C1377,-887 1507,-887 1507,-887 1513,-887 1519,-893 1519,-899 1519,-899 1519,-981 1519,-981 1519,-987 1513,-993 1507,-993 1507,-993 1377,-993 1377,-993 1371,-993 1365,-987 1365,-981 1365,-981 1365,-899 1365,-899 1365,-893 1371,-887 1377,-887"/>
<text text-anchor="middle" x="1442" y="-977.8" font-family="Times,serif" font-size="14.00">School</text>
<polyline fill="none" stroke="black" points="1365,-970 1519,-970 "/>
<text text-anchor="start" x="1373" y="-954.8" font-family="Times,serif" font-size="14.00">id :int(11)</text>
<text text-anchor="start" x="1373" y="-939.8" font-family="Times,serif" font-size="14.00">description :varchar(255)</text>
<text text-anchor="start" x="1373" y="-924.8" font-family="Times,serif" font-size="14.00">name :varchar(255)</text>
<text text-anchor="start" x="1373" y="-909.8" font-family="Times,serif" font-size="14.00">created_at :datetime</text>
<text text-anchor="start" x="1373" y="-894.8" font-family="Times,serif" font-size="14.00">updated_at :datetime</text>
</g>
<!-- Project&#45;&gt;User -->
<g id="edge6" class="edge"><title>Project&#45;&gt;User</title>
<path fill="none" stroke="#bcde72" d="M481,-620.938C481,-615.749 481,-610.466 481,-605.112"/>
<polygon fill="#bcde72" stroke="#bcde72" points="481,-621.193 476.5,-631.193 481,-626.193 481,-631.193 481,-631.193 481,-631.193 481,-626.193 485.5,-631.193 481,-621.193 481,-621.193"/>
<polygon fill="#bcde72" stroke="#bcde72" points="481,-604.735 485.5,-594.735 481,-599.735 481,-594.735 481,-594.735 481,-594.735 481,-599.735 476.5,-594.735 481,-604.735 481,-604.735"/>
</g>
<!-- Project&#45;&gt;Group -->
<g id="edge4" class="edge"><title>Project&#45;&gt;Group</title>
<path fill="none" stroke="#894311" d="M398.709,-651.089C385.097,-633.991 372.873,-614.971 365,-595 301.966,-435.099 320.354,-226.852 335.227,-124.441"/>
<ellipse fill="none" stroke="#894311" cx="401.251" cy="-654.202" rx="4.00002" ry="4.00002"/>
<polygon fill="#894311" stroke="#894311" points="335.269,-124.161 341.195,-114.934 336.007,-119.215 336.744,-114.27 336.744,-114.27 336.744,-114.27 336.007,-119.215 332.293,-113.606 335.269,-124.161 335.269,-124.161"/>
</g>
<!-- Assessment -->
<g id="node17" class="node"><title>Assessment</title>
<path fill="none" stroke="black" d="M618,-316C618,-316 740,-316 740,-316 746,-316 752,-322 752,-328 752,-328 752,-425 752,-425 752,-431 746,-437 740,-437 740,-437 618,-437 618,-437 612,-437 606,-431 606,-425 606,-425 606,-328 606,-328 606,-322 612,-316 618,-316"/>
<text text-anchor="middle" x="679" y="-421.8" font-family="Times,serif" font-size="14.00">Assessment</text>
<polyline fill="none" stroke="black" points="606,-414 752,-414 "/>
<text text-anchor="start" x="614" y="-398.8" font-family="Times,serif" font-size="14.00">id :int(11)</text>
<text text-anchor="start" x="614" y="-383.8" font-family="Times,serif" font-size="14.00">end_date :date</text>
<text text-anchor="start" x="614" y="-368.8" font-family="Times,serif" font-size="14.00">start_date :varchar(255)</text>
<text text-anchor="start" x="614" y="-353.8" font-family="Times,serif" font-size="14.00">project_id :int(11)</text>
<text text-anchor="start" x="614" y="-338.8" font-family="Times,serif" font-size="14.00">created_at :datetime</text>
<text text-anchor="start" x="614" y="-323.8" font-family="Times,serif" font-size="14.00">updated_at :datetime</text>
</g>
<!-- Project&#45;&gt;Assessment -->
<g id="edge5" class="edge"><title>Project&#45;&gt;Assessment</title>
<path fill="none" stroke="#bd18ac" d="M563.527,-642.309C575.699,-627.214 587.364,-611.15 597,-595 624.681,-548.605 645.836,-491.254 659.72,-447.093"/>
<ellipse fill="none" stroke="#bd18ac" cx="560.817" cy="-645.621" rx="4.00002" ry="4.00002"/>
<polygon fill="#bd18ac" stroke="#bd18ac" points="659.791,-446.864 667.044,-438.64 661.268,-442.087 662.745,-437.31 662.745,-437.31 662.745,-437.31 661.268,-442.087 658.446,-435.981 659.791,-446.864 659.791,-446.864"/>
</g>
<!-- Gender -->
<g id="node13" class="node"><title>Gender</title>
<path fill="none" stroke="black" d="M1549.5,-894.5C1549.5,-894.5 1656.5,-894.5 1656.5,-894.5 1662.5,-894.5 1668.5,-900.5 1668.5,-906.5 1668.5,-906.5 1668.5,-973.5 1668.5,-973.5 1668.5,-979.5 1662.5,-985.5 1656.5,-985.5 1656.5,-985.5 1549.5,-985.5 1549.5,-985.5 1543.5,-985.5 1537.5,-979.5 1537.5,-973.5 1537.5,-973.5 1537.5,-906.5 1537.5,-906.5 1537.5,-900.5 1543.5,-894.5 1549.5,-894.5"/>
<text text-anchor="middle" x="1603" y="-970.3" font-family="Times,serif" font-size="14.00">Gender</text>
<polyline fill="none" stroke="black" points="1537.5,-962.5 1668.5,-962.5 "/>
<text text-anchor="start" x="1545.5" y="-947.3" font-family="Times,serif" font-size="14.00">id :int(11)</text>
<text text-anchor="start" x="1545.5" y="-932.3" font-family="Times,serif" font-size="14.00">name :varchar(255)</text>
<text text-anchor="start" x="1545.5" y="-917.3" font-family="Times,serif" font-size="14.00">created_at :datetime</text>
<text text-anchor="start" x="1545.5" y="-902.3" font-family="Times,serif" font-size="14.00">updated_at :datetime</text>
</g>
<!-- AgeRange -->
<g id="node14" class="node"><title>AgeRange</title>
<path fill="none" stroke="black" d="M1698.5,-894.5C1698.5,-894.5 1805.5,-894.5 1805.5,-894.5 1811.5,-894.5 1817.5,-900.5 1817.5,-906.5 1817.5,-906.5 1817.5,-973.5 1817.5,-973.5 1817.5,-979.5 1811.5,-985.5 1805.5,-985.5 1805.5,-985.5 1698.5,-985.5 1698.5,-985.5 1692.5,-985.5 1686.5,-979.5 1686.5,-973.5 1686.5,-973.5 1686.5,-906.5 1686.5,-906.5 1686.5,-900.5 1692.5,-894.5 1698.5,-894.5"/>
<text text-anchor="middle" x="1752" y="-970.3" font-family="Times,serif" font-size="14.00">AgeRange</text>
<polyline fill="none" stroke="black" points="1686.5,-962.5 1817.5,-962.5 "/>
<text text-anchor="start" x="1694.5" y="-947.3" font-family="Times,serif" font-size="14.00">id :int(11)</text>
<text text-anchor="start" x="1694.5" y="-932.3" font-family="Times,serif" font-size="14.00">name :varchar(255)</text>
<text text-anchor="start" x="1694.5" y="-917.3" font-family="Times,serif" font-size="14.00">created_at :datetime</text>
<text text-anchor="start" x="1694.5" y="-902.3" font-family="Times,serif" font-size="14.00">updated_at :datetime</text>
</g>
<!-- Value -->
<g id="node16" class="node"><title>Value</title>
<path fill="none" stroke="black" d="M1847.5,-879.5C1847.5,-879.5 1962.5,-879.5 1962.5,-879.5 1968.5,-879.5 1974.5,-885.5 1974.5,-891.5 1974.5,-891.5 1974.5,-988.5 1974.5,-988.5 1974.5,-994.5 1968.5,-1000.5 1962.5,-1000.5 1962.5,-1000.5 1847.5,-1000.5 1847.5,-1000.5 1841.5,-1000.5 1835.5,-994.5 1835.5,-988.5 1835.5,-988.5 1835.5,-891.5 1835.5,-891.5 1835.5,-885.5 1841.5,-879.5 1847.5,-879.5"/>
<text text-anchor="middle" x="1905" y="-985.3" font-family="Times,serif" font-size="14.00">Value</text>
<polyline fill="none" stroke="black" points="1835.5,-977.5 1974.5,-977.5 "/>
<text text-anchor="start" x="1843.5" y="-962.3" font-family="Times,serif" font-size="14.00">id :int(11)</text>
<text text-anchor="start" x="1843.5" y="-947.3" font-family="Times,serif" font-size="14.00">value :int(11)</text>
<text text-anchor="start" x="1843.5" y="-932.3" font-family="Times,serif" font-size="14.00">user_id :int(11)</text>
<text text-anchor="start" x="1843.5" y="-917.3" font-family="Times,serif" font-size="14.00">installment_id :int(11)</text>
<text text-anchor="start" x="1843.5" y="-902.3" font-family="Times,serif" font-size="14.00">created_at :datetime</text>
<text text-anchor="start" x="1843.5" y="-887.3" font-family="Times,serif" font-size="14.00">updated_at :datetime</text>
</g>
<!-- Role -->
<g id="node18" class="node"><title>Role</title>
<path fill="none" stroke="black" d="M2005,-887C2005,-887 2135,-887 2135,-887 2141,-887 2147,-893 2147,-899 2147,-899 2147,-981 2147,-981 2147,-987 2141,-993 2135,-993 2135,-993 2005,-993 2005,-993 1999,-993 1993,-987 1993,-981 1993,-981 1993,-899 1993,-899 1993,-893 1999,-887 2005,-887"/>
<text text-anchor="middle" x="2070" y="-977.8" font-family="Times,serif" font-size="14.00">Role</text>
<polyline fill="none" stroke="black" points="1993,-970 2147,-970 "/>
<text text-anchor="start" x="2001" y="-954.8" font-family="Times,serif" font-size="14.00">id :int(11)</text>
<text text-anchor="start" x="2001" y="-939.8" font-family="Times,serif" font-size="14.00">name :varchar(255)</text>
<text text-anchor="start" x="2001" y="-924.8" font-family="Times,serif" font-size="14.00">description :varchar(255)</text>
<text text-anchor="start" x="2001" y="-909.8" font-family="Times,serif" font-size="14.00">created_at :datetime</text>
<text text-anchor="start" x="2001" y="-894.8" font-family="Times,serif" font-size="14.00">updated_at :datetime</text>
</g>
</g>
</svg>
