<?xml version="1.0" encoding="UTF-8" standalone="no"?>
<!DOCTYPE svg PUBLIC "-//W3C//DTD SVG 1.1//EN"
 "http://www.w3.org/Graphics/SVG/1.1/DTD/svg11.dtd">
<!-- Generated by graphviz version 2.38.0 (20140413.2041)
 -->
<!-- Title: models_diagram Pages: 1 -->
<svg width="1552pt" height="950pt"
 viewBox="0.00 0.00 1551.94 950.00" xmlns="http://www.w3.org/2000/svg" xmlns:xlink="http://www.w3.org/1999/xlink">
<g id="graph0" class="graph" transform="scale(1 1) rotate(0) translate(4 946)">
<title>models_diagram</title>
<polygon fill="none" stroke="none" points="-4,4 -4,-946 1547.94,-946 1547.94,4 -4,4"/>
<!-- _diagram_info -->
<g id="node1" class="node"><title>_diagram_info</title>
<text text-anchor="start" x="237.943" y="-927.6" font-family="Times,serif" font-size="13.00">Models diagram</text>
<text text-anchor="start" x="237.943" y="-913.6" font-family="Times,serif" font-size="13.00">Date: Nov 20 2017 &#45; 11:51</text>
<text text-anchor="start" x="237.943" y="-899.6" font-family="Times,serif" font-size="13.00">Migration version: 20171103055606</text>
<text text-anchor="start" x="237.943" y="-885.6" font-family="Times,serif" font-size="13.00">Generated by RailRoady 1.5.2</text>
<text text-anchor="start" x="237.943" y="-871.6" font-family="Times,serif" font-size="13.00">http://railroady.prestonlee.com</text>
</g>
<!-- Course -->
<g id="node2" class="node"><title>Course</title>
<ellipse fill="none" stroke="black" cx="496.943" cy="-810" rx="35.9954" ry="18"/>
<text text-anchor="middle" x="496.943" y="-806.3" font-family="Times,serif" font-size="14.00">Course</text>
</g>
<!-- BingoGame -->
<g id="node8" class="node"><title>BingoGame</title>
<ellipse fill="none" stroke="black" cx="271.943" cy="-306" rx="53.8905" ry="18"/>
<text text-anchor="middle" x="271.943" y="-302.3" font-family="Times,serif" font-size="14.00">BingoGame</text>
</g>
<!-- Course&#45;&gt;BingoGame -->
<g id="edge3" class="edge"><title>Course&#45;&gt;BingoGame</title>
<path fill="none" stroke="#f0487c" d="M456.398,-800.714C395.619,-785.657 287.943,-747.606 287.943,-667 287.943,-667 287.943,-667 287.943,-449 287.943,-408.743 281.514,-362.467 276.807,-333.978"/>
<ellipse fill="none" stroke="#f0487c" cx="460.397" cy="-801.672" rx="4.00001" ry="4.00001"/>
<polygon fill="#f0487c" stroke="#f0487c" points="276.783,-333.838 279.54,-323.224 275.944,-328.909 275.104,-323.98 275.104,-323.98 275.104,-323.98 275.944,-328.909 270.668,-324.735 276.783,-333.838 276.783,-333.838"/>
</g>
<!-- Project -->
<g id="node12" class="node"><title>Project</title>
<ellipse fill="none" stroke="black" cx="1249.94" cy="-738" rx="35.9954" ry="18"/>
<text text-anchor="middle" x="1249.94" y="-734.3" font-family="Times,serif" font-size="14.00">Project</text>
</g>
<!-- Course&#45;&gt;Project -->
<g id="edge1" class="edge"><title>Course&#45;&gt;Project</title>
<path fill="none" stroke="#c61fb6" d="M540.902,-807.312C648.045,-802.806 931.031,-788.554 1164.94,-756 1178.96,-754.049 1194.15,-751.238 1207.75,-748.462"/>
<ellipse fill="none" stroke="#c61fb6" cx="536.585" cy="-807.491" rx="4" ry="4"/>
<polygon fill="#c61fb6" stroke="#c61fb6" points="1208.02,-748.407 1218.73,-750.765 1212.91,-747.383 1217.81,-746.36 1217.81,-746.36 1217.81,-746.36 1212.91,-747.383 1216.88,-741.955 1208.02,-748.407 1208.02,-748.407"/>
</g>
<!-- User -->
<g id="node21" class="node"><title>User</title>
<ellipse fill="none" stroke="black" cx="849.943" cy="-378" rx="27.0966" ry="18"/>
<text text-anchor="middle" x="849.943" y="-374.3" font-family="Times,serif" font-size="14.00">User</text>
</g>
<!-- Course&#45;&gt;User -->
<g id="edge4" class="edge"><title>Course&#45;&gt;User</title>
<path fill="none" stroke="#38a1c8" d="M513.609,-784.251C530.432,-756.822 553.943,-710.676 553.943,-667 553.943,-667 553.943,-667 553.943,-521 553.943,-480.553 544.04,-460.294 572.943,-432 606.486,-399.163 745.177,-385.783 812.688,-381.135"/>
<polygon fill="#38a1c8" stroke="#38a1c8" points="513.546,-784.351 504.4,-790.4 510.875,-788.577 508.204,-792.804 508.204,-792.804 508.204,-792.804 510.875,-788.577 512.008,-795.208 513.546,-784.351 513.546,-784.351"/>
<polygon fill="#38a1c8" stroke="#38a1c8" points="812.906,-381.12 823.181,-384.952 817.895,-380.791 822.885,-380.462 822.885,-380.462 822.885,-380.462 817.895,-380.791 822.588,-375.972 812.906,-381.12 812.906,-381.12"/>
</g>
<!-- Roster -->
<g id="node28" class="node"><title>Roster</title>
<ellipse fill="none" stroke="black" cx="415.943" cy="-306" rx="33.5952" ry="18"/>
<text text-anchor="middle" x="415.943" y="-302.3" font-family="Times,serif" font-size="14.00">Roster</text>
</g>
<!-- Course&#45;&gt;Roster -->
<g id="edge2" class="edge"><title>Course&#45;&gt;Roster</title>
<path fill="none" stroke="#7cf9c0" d="M465.698,-792.183C451.661,-783.168 436.023,-770.846 425.943,-756 402.93,-722.106 401.943,-707.969 401.943,-667 401.943,-667 401.943,-667 401.943,-521 401.943,-453.813 408.899,-375.012 413.005,-334.356"/>
<ellipse fill="none" stroke="#7cf9c0" cx="469.449" cy="-794.494" rx="4.00002" ry="4.00002"/>
<polygon fill="#7cf9c0" stroke="#7cf9c0" points="413.029,-334.121 418.531,-324.635 413.542,-329.147 414.055,-324.173 414.055,-324.173 414.055,-324.173 413.542,-329.147 409.579,-323.712 413.029,-334.121 413.029,-334.121"/>
</g>
<!-- Experience -->
<g id="node36" class="node"><title>Experience</title>
<ellipse fill="none" stroke="black" cx="1190.94" cy="-306" rx="50.0912" ry="18"/>
<text text-anchor="middle" x="1190.94" y="-302.3" font-family="Times,serif" font-size="14.00">Experience</text>
</g>
<!-- Course&#45;&gt;Experience -->
<g id="edge5" class="edge"><title>Course&#45;&gt;Experience</title>
<path fill="none" stroke="#c9df1c" d="M539.392,-803.267C566.887,-799.687 603.489,-795.172 635.943,-792 690.385,-786.678 1084.76,-790.832 1126.94,-756 1158.53,-729.913 1150.94,-707.969 1150.94,-667 1150.94,-667 1150.94,-667 1150.94,-593 1150.94,-496.812 1173.41,-384.166 1184.67,-333.754"/>
<ellipse fill="none" stroke="#c9df1c" cx="535.132" cy="-803.825" rx="4.00001" ry="4.00001"/>
<polygon fill="#c9df1c" stroke="#c9df1c" points="1184.67,-333.721 1191.28,-324.965 1185.78,-328.845 1186.89,-323.969 1186.89,-323.969 1186.89,-323.969 1185.78,-328.845 1182.5,-322.973 1184.67,-333.721 1184.67,-333.721"/>
</g>
<!-- Quote -->
<g id="node3" class="node"><title>Quote</title>
<ellipse fill="none" stroke="black" cx="582.943" cy="-903" rx="32.4942" ry="18"/>
<text text-anchor="middle" x="582.943" y="-899.3" font-family="Times,serif" font-size="14.00">Quote</text>
</g>
<!-- Behavior -->
<g id="node4" class="node"><title>Behavior</title>
<ellipse fill="none" stroke="black" cx="965.943" cy="-162" rx="42.7926" ry="18"/>
<text text-anchor="middle" x="965.943" y="-158.3" font-family="Times,serif" font-size="14.00">Behavior</text>
</g>
<!-- Diagnosis -->
<g id="node7" class="node"><title>Diagnosis</title>
<ellipse fill="none" stroke="black" cx="964.943" cy="-18" rx="46.2923" ry="18"/>
<text text-anchor="middle" x="964.943" y="-14.3" font-family="Times,serif" font-size="14.00">Diagnosis</text>
</g>
<!-- Behavior&#45;&gt;Diagnosis -->
<g id="edge8" class="edge"><title>Behavior&#45;&gt;Diagnosis</title>
<path fill="none" stroke="#748bb5" d="M992.273,-140.525C1001.6,-131.652 1011,-120.44 1015.94,-108 1021.85,-93.1304 1021.92,-86.8403 1015.94,-72 1011.17,-60.156 1002.34,-49.478 993.359,-40.8623"/>
<ellipse fill="none" stroke="#748bb5" cx="989.171" cy="-143.327" rx="4.00002" ry="4.00002"/>
<polygon fill="#748bb5" stroke="#748bb5" points="993.302,-40.8105 988.867,-30.7813 989.581,-37.4702 985.861,-34.1298 985.861,-34.1298 985.861,-34.1298 989.581,-37.4702 982.854,-37.4782 993.302,-40.8105 993.302,-40.8105"/>
</g>
<!-- Scenario -->
<g id="node25" class="node"><title>Scenario</title>
<ellipse fill="none" stroke="black" cx="964.943" cy="-90" rx="41.6928" ry="18"/>
<text text-anchor="middle" x="964.943" y="-86.3" font-family="Times,serif" font-size="14.00">Scenario</text>
</g>
<!-- Behavior&#45;&gt;Scenario -->
<g id="edge6" class="edge"><title>Behavior&#45;&gt;Scenario</title>
<path fill="none" stroke="#fb0f70" d="M965.581,-135.64C965.501,-130.063 965.416,-124.132 965.335,-118.476"/>
<ellipse fill="none" stroke="#fb0f70" cx="965.639" cy="-139.697" rx="4" ry="4"/>
<polygon fill="#fb0f70" stroke="#fb0f70" points="965.33,-118.103 969.687,-108.04 965.259,-113.104 965.187,-108.104 965.187,-108.104 965.187,-108.104 965.259,-113.104 960.688,-108.169 965.33,-118.103 965.33,-118.103"/>
</g>
<!-- Reaction -->
<g id="node27" class="node"><title>Reaction</title>
<ellipse fill="none" stroke="black" cx="1104.94" cy="-90" rx="42.4939" ry="18"/>
<text text-anchor="middle" x="1104.94" y="-86.3" font-family="Times,serif" font-size="14.00">Reaction</text>
</g>
<!-- Behavior&#45;&gt;Reaction -->
<g id="edge7" class="edge"><title>Behavior&#45;&gt;Reaction</title>
<path fill="none" stroke="#8df7b1" d="M999.667,-144.016C1020.8,-133.374 1048,-119.676 1069.46,-108.87"/>
<ellipse fill="none" stroke="#8df7b1" cx="995.987" cy="-145.87" rx="4.00002" ry="4.00002"/>
<polygon fill="#8df7b1" stroke="#8df7b1" points="1069.64,-108.779 1080.59,-108.301 1074.1,-106.531 1078.57,-104.282 1078.57,-104.282 1078.57,-104.282 1074.1,-106.531 1076.55,-100.262 1069.64,-108.779 1069.64,-108.779"/>
</g>
<!-- CandidateList -->
<g id="node5" class="node"><title>CandidateList</title>
<ellipse fill="none" stroke="black" cx="477.943" cy="-234" rx="59.5901" ry="18"/>
<text text-anchor="middle" x="477.943" y="-230.3" font-family="Times,serif" font-size="14.00">CandidateList</text>
</g>
<!-- CandidateList&#45;&gt;Course -->
<g id="edge11" class="edge"><title>CandidateList&#45;&gt;Course</title>
<path fill="none" stroke="#df0b03" d="M473.451,-259.982C463.394,-318.16 439.943,-467.303 439.943,-593 439.943,-667 439.943,-667 439.943,-667 439.943,-711.626 464.487,-758.83 481.364,-786.013"/>
<ellipse fill="none" stroke="#df0b03" cx="474.145" cy="-256.012" rx="4.00001" ry="4.00001"/>
<ellipse fill="#df0b03" stroke="#df0b03" cx="483.536" cy="-789.429" rx="4.00002" ry="4.00002"/>
</g>
<!-- Candidate -->
<g id="node26" class="node"><title>Candidate</title>
<ellipse fill="none" stroke="black" cx="389.943" cy="-90" rx="46.2923" ry="18"/>
<text text-anchor="middle" x="389.943" y="-86.3" font-family="Times,serif" font-size="14.00">Candidate</text>
</g>
<!-- CandidateList&#45;&gt;Candidate -->
<g id="edge9" class="edge"><title>CandidateList&#45;&gt;Candidate</title>
<path fill="none" stroke="#eb52b8" d="M469.558,-208.03C462.755,-189.539 452.142,-164.164 438.943,-144 432.042,-133.458 423.003,-123.021 414.57,-114.233"/>
<ellipse fill="none" stroke="#eb52b8" cx="470.974" cy="-211.982" rx="4.00001" ry="4.00001"/>
<polygon fill="#eb52b8" stroke="#eb52b8" points="414.419,-114.08 410.583,-103.808 410.902,-110.527 407.385,-106.973 407.385,-106.973 407.385,-106.973 410.902,-110.527 404.186,-110.139 414.419,-114.08 414.419,-114.08"/>
</g>
<!-- Concept -->
<g id="node31" class="node"><title>Concept</title>
<ellipse fill="none" stroke="black" cx="389.943" cy="-162" rx="40.0939" ry="18"/>
<text text-anchor="middle" x="389.943" y="-158.3" font-family="Times,serif" font-size="14.00">Concept</text>
</g>
<!-- CandidateList&#45;&gt;Concept -->
<g id="edge10" class="edge"><title>CandidateList&#45;&gt;Concept</title>
<path fill="none" stroke="#85ec9d" d="M449.55,-210.415C439.005,-202.027 427.086,-192.546 416.693,-184.278"/>
<polygon fill="#85ec9d" stroke="#85ec9d" points="449.707,-210.539 454.731,-220.286 453.62,-213.652 457.533,-216.765 457.533,-216.765 457.533,-216.765 453.62,-213.652 460.334,-213.243 449.707,-210.539 449.707,-210.539"/>
<polygon fill="#85ec9d" stroke="#85ec9d" points="416.566,-184.178 411.542,-174.431 412.653,-181.065 408.74,-177.952 408.74,-177.952 408.74,-177.952 412.653,-181.065 405.939,-181.474 416.566,-184.178 416.566,-184.178"/>
</g>
<!-- ConsentForm -->
<g id="node6" class="node"><title>ConsentForm</title>
<ellipse fill="none" stroke="black" cx="1453.94" cy="-810" rx="59.2899" ry="18"/>
<text text-anchor="middle" x="1453.94" y="-806.3" font-family="Times,serif" font-size="14.00">ConsentForm</text>
</g>
<!-- ConsentLog -->
<g id="node11" class="node"><title>ConsentLog</title>
<ellipse fill="none" stroke="black" cx="1462.94" cy="-306" rx="53.8905" ry="18"/>
<text text-anchor="middle" x="1462.94" y="-302.3" font-family="Times,serif" font-size="14.00">ConsentLog</text>
</g>
<!-- ConsentForm&#45;&gt;ConsentLog -->
<g id="edge13" class="edge"><title>ConsentForm&#45;&gt;ConsentLog</title>
<path fill="none" stroke="#2080c1" d="M1467.76,-784.919C1482.25,-757.349 1502.94,-710.385 1502.94,-667 1502.94,-667 1502.94,-667 1502.94,-593 1502.94,-488.85 1497.75,-462.249 1477.94,-360 1476.26,-351.323 1473.84,-342.004 1471.43,-333.636"/>
<ellipse fill="none" stroke="#2080c1" cx="1465.76" cy="-788.64" rx="4.00002" ry="4.00002"/>
<polygon fill="#2080c1" stroke="#2080c1" points="1471.42,-333.589 1472.86,-322.719 1469.98,-328.799 1468.55,-324.009 1468.55,-324.009 1468.55,-324.009 1469.98,-328.799 1464.24,-325.3 1471.42,-333.589 1471.42,-333.589"/>
</g>
<!-- ConsentForm&#45;&gt;Project -->
<g id="edge12" class="edge"><title>ConsentForm&#45;&gt;Project</title>
<path fill="none" stroke="#5b843a" d="M1408.35,-793.356C1372.26,-780.972 1322.42,-763.871 1288.35,-752.177"/>
<ellipse fill="none" stroke="#5b843a" cx="1412.27" cy="-794.699" rx="4.00001" ry="4.00001"/>
<polygon fill="#5b843a" stroke="#5b843a" points="1288.2,-752.128 1280.2,-744.626 1283.47,-750.505 1278.74,-748.882 1278.74,-748.882 1278.74,-748.882 1283.47,-750.505 1277.28,-753.139 1288.2,-752.128 1288.2,-752.128"/>
</g>
<!-- Diagnosis&#45;&gt;User -->
<g id="edge14" class="edge"><title>Diagnosis&#45;&gt;User</title>
<path fill="none" stroke="#b2a834" d="M927.779,-35.3511C884.524,-57.2017 818.943,-100.334 818.943,-161 818.943,-235 818.943,-235 818.943,-235 818.943,-277.028 832.065,-324.477 841.235,-352.502"/>
<ellipse fill="none" stroke="#b2a834" cx="931.457" cy="-33.5403" rx="4.00002" ry="4.00002"/>
<ellipse fill="#b2a834" stroke="#b2a834" cx="842.547" cy="-356.417" rx="4.00001" ry="4.00001"/>
</g>
<!-- BingoGame&#45;&gt;CandidateList -->
<g id="edge15" class="edge"><title>BingoGame&#45;&gt;CandidateList</title>
<path fill="none" stroke="#d1dae3" d="M315.915,-290.058C349.438,-278.667 395.554,-262.996 430.017,-251.285"/>
<ellipse fill="none" stroke="#d1dae3" cx="312.085" cy="-291.36" rx="4.00001" ry="4.00001"/>
<polygon fill="#d1dae3" stroke="#d1dae3" points="430.391,-251.159 441.307,-252.202 435.125,-249.55 439.859,-247.941 439.859,-247.941 439.859,-247.941 435.125,-249.55 438.411,-243.68 430.391,-251.159 430.391,-251.159"/>
</g>
<!-- BingoGame&#45;&gt;Candidate -->
<g id="edge17" class="edge"><title>BingoGame&#45;&gt;Candidate</title>
<path fill="none" stroke="#00bebf" d="M236.108,-284.744C224.606,-276.245 213.226,-265.23 206.943,-252 197.601,-232.33 206.053,-153.606 213.943,-144 242.729,-108.952 293.801,-96.4838 333.54,-92.3266"/>
<polygon fill="#00bebf" stroke="#00bebf" points="236.201,-284.808 241.88,-294.189 240.318,-287.646 244.434,-290.484 244.434,-290.484 244.434,-290.484 240.318,-287.646 246.988,-286.779 236.201,-284.808 236.201,-284.808"/>
<polygon fill="#00bebf" stroke="#00bebf" points="333.678,-92.3143 344.04,-95.9025 338.658,-91.8674 343.638,-91.4205 343.638,-91.4205 343.638,-91.4205 338.658,-91.8674 343.236,-86.9385 333.678,-92.3143 333.678,-92.3143"/>
</g>
<!-- BingoGame&#45;&gt;Concept -->
<g id="edge18" class="edge"><title>BingoGame&#45;&gt;Concept</title>
<path fill="none" stroke="#38fa93" d="M300.712,-282.912C311.459,-273.939 323.368,-263.082 332.943,-252 349.978,-232.283 365.653,-207.054 376.235,-188.496"/>
<polygon fill="#38fa93" stroke="#38fa93" points="300.529,-283.061 289.934,-285.89 296.653,-286.22 292.777,-289.378 292.777,-289.378 292.777,-289.378 296.653,-286.22 295.62,-292.867 300.529,-283.061 300.529,-283.061"/>
<polygon fill="#38fa93" stroke="#38fa93" points="376.263,-188.447 385.072,-181.917 378.704,-184.083 381.145,-179.72 381.145,-179.72 381.145,-179.72 378.704,-184.083 377.218,-177.523 376.263,-188.447 376.263,-188.447"/>
</g>
<!-- BingoBoard -->
<g id="node38" class="node"><title>BingoBoard</title>
<ellipse fill="none" stroke="black" cx="269.943" cy="-234" rx="53.8905" ry="18"/>
<text text-anchor="middle" x="269.943" y="-230.3" font-family="Times,serif" font-size="14.00">BingoBoard</text>
</g>
<!-- BingoGame&#45;&gt;BingoBoard -->
<g id="edge16" class="edge"><title>BingoGame&#45;&gt;BingoBoard</title>
<path fill="none" stroke="#595cea" d="M271.218,-279.64C271.059,-274.063 270.89,-268.132 270.728,-262.476"/>
<ellipse fill="none" stroke="#595cea" cx="271.334" cy="-283.698" rx="4" ry="4"/>
<polygon fill="#595cea" stroke="#595cea" points="270.717,-262.1 274.93,-251.976 270.574,-257.102 270.432,-252.104 270.432,-252.104 270.432,-252.104 270.574,-257.102 265.933,-252.233 270.717,-262.1 270.717,-262.1"/>
</g>
<!-- Assessment -->
<g id="node9" class="node"><title>Assessment</title>
<ellipse fill="none" stroke="black" cx="1269.94" cy="-666" rx="52.7911" ry="18"/>
<text text-anchor="middle" x="1269.94" y="-662.3" font-family="Times,serif" font-size="14.00">Assessment</text>
</g>
<!-- Group -->
<g id="node14" class="node"><title>Group</title>
<ellipse fill="none" stroke="black" cx="831.943" cy="-594" rx="33.2948" ry="18"/>
<text text-anchor="middle" x="831.943" y="-590.3" font-family="Times,serif" font-size="14.00">Group</text>
</g>
<!-- Assessment&#45;&gt;Group -->
<g id="edge22" class="edge"><title>Assessment&#45;&gt;Group</title>
<path fill="none" stroke="#8aae34" d="M1212.93,-655.889C1123.39,-641.579 951.899,-614.171 873.231,-601.599"/>
<polygon fill="#8aae34" stroke="#8aae34" points="1213.19,-655.931 1222.36,-661.952 1218.13,-656.72 1223.07,-657.509 1223.07,-657.509 1223.07,-657.509 1218.13,-656.72 1223.78,-653.065 1213.19,-655.931 1213.19,-655.931"/>
<polygon fill="#8aae34" stroke="#8aae34" points="873.087,-601.576 863.922,-595.554 868.15,-600.786 863.212,-599.997 863.212,-599.997 863.212,-599.997 868.15,-600.786 862.502,-604.441 873.087,-601.576 873.087,-601.576"/>
</g>
<!-- Installment -->
<g id="node15" class="node"><title>Installment</title>
<ellipse fill="none" stroke="black" cx="1309.94" cy="-306" rx="50.8918" ry="18"/>
<text text-anchor="middle" x="1309.94" y="-302.3" font-family="Times,serif" font-size="14.00">Installment</text>
</g>
<!-- Assessment&#45;&gt;Installment -->
<g id="edge19" class="edge"><title>Assessment&#45;&gt;Installment</title>
<path fill="none" stroke="#723b83" d="M1279.37,-640.088C1289.13,-612.048 1302.94,-564.925 1302.94,-523 1302.94,-523 1302.94,-523 1302.94,-449 1302.94,-408.947 1305.76,-362.617 1307.81,-334.06"/>
<ellipse fill="none" stroke="#723b83" cx="1277.96" cy="-644.043" rx="4.00001" ry="4.00001"/>
<polygon fill="#723b83" stroke="#723b83" points="1307.82,-334.008 1313.05,-324.369 1308.19,-329.022 1308.56,-324.036 1308.56,-324.036 1308.56,-324.036 1308.19,-329.022 1304.07,-323.702 1307.82,-334.008 1307.82,-334.008"/>
</g>
<!-- Assessment&#45;&gt;User -->
<g id="edge21" class="edge"><title>Assessment&#45;&gt;User</title>
<path fill="none" stroke="#3a1667" d="M1270.1,-637.496C1269.19,-604.011 1263.99,-546.655 1240.94,-504 1218.83,-463.063 1206.58,-452.762 1164.94,-432 1072.95,-386.129 949.017,-378.899 887.637,-378.402"/>
<polygon fill="#3a1667" stroke="#3a1667" points="1270.11,-637.882 1265.77,-647.952 1270.19,-642.882 1270.27,-647.881 1270.27,-647.881 1270.27,-647.881 1270.19,-642.882 1274.77,-647.81 1270.11,-637.882 1270.11,-637.882"/>
<polygon fill="#3a1667" stroke="#3a1667" points="887.278,-378.401 877.288,-373.878 882.278,-378.39 877.278,-378.378 877.278,-378.378 877.278,-378.378 882.278,-378.39 877.267,-382.878 887.278,-378.401 887.278,-378.401"/>
</g>
<!-- Factor -->
<g id="node23" class="node"><title>Factor</title>
<ellipse fill="none" stroke="black" cx="1363.94" cy="-594" rx="33.2948" ry="18"/>
<text text-anchor="middle" x="1363.94" y="-590.3" font-family="Times,serif" font-size="14.00">Factor</text>
</g>
<!-- Assessment&#45;&gt;Factor -->
<g id="edge20" class="edge"><title>Assessment&#45;&gt;Factor</title>
<path fill="none" stroke="#6ce678" d="M1299.23,-643.193C1311.26,-634.234 1325.1,-623.925 1336.89,-615.146"/>
<polygon fill="#6ce678" stroke="#6ce678" points="1298.83,-643.492 1288.12,-645.856 1294.81,-646.478 1290.8,-649.465 1290.8,-649.465 1290.8,-649.465 1294.81,-646.478 1293.49,-653.074 1298.83,-643.492 1298.83,-643.492"/>
<polygon fill="#6ce678" stroke="#6ce678" points="1337.03,-615.038 1347.74,-612.675 1341.04,-612.052 1345.05,-609.066 1345.05,-609.066 1345.05,-609.066 1341.04,-612.052 1342.37,-605.456 1337.03,-615.038 1337.03,-615.038"/>
</g>
<!-- Language -->
<g id="node10" class="node"><title>Language</title>
<ellipse fill="none" stroke="black" cx="717.943" cy="-450" rx="45.4919" ry="18"/>
<text text-anchor="middle" x="717.943" y="-446.3" font-family="Times,serif" font-size="14.00">Language</text>
</g>
<!-- Language&#45;&gt;User -->
<g id="edge23" class="edge"><title>Language&#45;&gt;User</title>
<path fill="none" stroke="#eb0524" d="M752.93,-430.446C773.88,-419.336 800.226,-405.365 820.174,-394.787"/>
<polygon fill="#eb0524" stroke="#eb0524" points="752.856,-430.485 741.914,-431.195 748.439,-432.828 744.022,-435.17 744.022,-435.17 744.022,-435.17 748.439,-432.828 746.13,-439.146 752.856,-430.485 752.856,-430.485"/>
<polygon fill="#eb0524" stroke="#eb0524" points="820.288,-394.726 831.231,-394.017 824.705,-392.384 829.123,-390.041 829.123,-390.041 829.123,-390.041 824.705,-392.384 827.014,-386.065 820.288,-394.726 820.288,-394.726"/>
</g>
<!-- ConsentLog&#45;&gt;Project -->
<g id="edge24" class="edge"><title>ConsentLog&#45;&gt;Project</title>
<path fill="none" stroke="#e4fd67" d="M1464.12,-334.318C1465.61,-388.775 1464.67,-514.037 1430.94,-612 1418.66,-647.681 1415,-659.924 1385.94,-684 1358.89,-706.416 1321.24,-720.098 1292.42,-727.931"/>
<polygon fill="#e4fd67" stroke="#e4fd67" points="1464.12,-334.098 1468.29,-323.957 1463.95,-329.101 1463.79,-324.103 1463.79,-324.103 1463.79,-324.103 1463.95,-329.101 1459.29,-324.25 1464.12,-334.098 1464.12,-334.098"/>
<polygon fill="#e4fd67" stroke="#e4fd67" points="1292.3,-727.96 1281.5,-726.105 1287.46,-729.211 1282.62,-730.462 1282.62,-730.462 1282.62,-730.462 1287.46,-729.211 1283.75,-734.819 1292.3,-727.96 1292.3,-727.96"/>
</g>
<!-- Project&#45;&gt;BingoGame -->
<g id="edge26" class="edge"><title>Project&#45;&gt;BingoGame</title>
<path fill="none" stroke="#783045" d="M1206.89,-732.845C1090.43,-720.067 762.283,-673.769 528.943,-540 427.654,-481.933 332.393,-378.196 292.115,-331.256"/>
<ellipse fill="none" stroke="#783045" cx="1210.93" cy="-733.28" rx="4.00001" ry="4.00001"/>
<polygon fill="#783045" stroke="#783045" points="291.944,-331.055 288.893,-320.522 288.705,-327.246 285.465,-323.438 285.465,-323.438 285.465,-323.438 288.705,-327.246 282.037,-326.353 291.944,-331.055 291.944,-331.055"/>
</g>
<!-- Project&#45;&gt;Assessment -->
<g id="edge27" class="edge"><title>Project&#45;&gt;Assessment</title>
<path fill="none" stroke="#cedba2" d="M1257.01,-712.267C1258.7,-706.34 1260.52,-699.981 1262.24,-693.959"/>
<ellipse fill="none" stroke="#cedba2" cx="1255.88" cy="-716.209" rx="4.00001" ry="4.00001"/>
<polygon fill="#cedba2" stroke="#cedba2" points="1262.26,-693.891 1269.33,-685.512 1263.63,-689.083 1265.01,-684.275 1265.01,-684.275 1265.01,-684.275 1263.63,-689.083 1260.68,-683.039 1262.26,-693.891 1262.26,-693.891"/>
</g>
<!-- Project&#45;&gt;Group -->
<g id="edge25" class="edge"><title>Project&#45;&gt;Group</title>
<path fill="none" stroke="#70bcb5" d="M1213.62,-724.661C1134.69,-697.847 948.248,-634.51 868.818,-607.527"/>
<ellipse fill="none" stroke="#70bcb5" cx="1217.42" cy="-725.953" rx="4.00001" ry="4.00001"/>
<polygon fill="#70bcb5" stroke="#70bcb5" points="868.699,-607.487 860.678,-600.009 863.965,-605.878 859.23,-604.27 859.23,-604.27 859.23,-604.27 863.965,-605.878 857.783,-608.531 868.699,-607.487 868.699,-607.487"/>
</g>
<!-- Project&#45;&gt;Installment -->
<g id="edge28" class="edge"><title>Project&#45;&gt;Installment</title>
<path fill="none" stroke="#ddc699" d="M1287.85,-723.182C1309.1,-714.198 1335.22,-700.987 1354.94,-684 1414.07,-633.082 1424.94,-601.026 1424.94,-523 1424.94,-523 1424.94,-523 1424.94,-449 1424.94,-396.359 1376.63,-352.299 1342.63,-327.813"/>
<polygon fill="#ddc699" stroke="#ddc699" points="1287.73,-723.232 1276.77,-722.844 1283.1,-725.121 1278.47,-727.011 1278.47,-727.011 1278.47,-727.011 1283.1,-725.121 1280.17,-731.177 1287.73,-723.232 1287.73,-723.232"/>
<polygon fill="#ddc699" stroke="#ddc699" points="1342.53,-327.744 1336.91,-318.328 1338.43,-324.88 1334.33,-322.017 1334.33,-322.017 1334.33,-322.017 1338.43,-324.88 1331.75,-325.705 1342.53,-327.744 1342.53,-327.744"/>
</g>
<!-- Project&#45;&gt;User -->
<g id="edge29" class="edge"><title>Project&#45;&gt;User</title>
<path fill="none" stroke="#1aefab" d="M1229.89,-713.56C1222.61,-704.579 1214.55,-694.069 1207.94,-684 1138.21,-577.787 1173.62,-509.516 1072.94,-432 1018.27,-389.906 935.363,-380.52 887.544,-378.845"/>
<polygon fill="#1aefab" stroke="#1aefab" points="1229.94,-713.61 1232.83,-724.187 1233.12,-717.466 1236.3,-721.322 1236.3,-721.322 1236.3,-721.322 1233.12,-717.466 1239.77,-718.457 1229.94,-713.61 1229.94,-713.61"/>
<polygon fill="#1aefab" stroke="#1aefab" points="887.321,-378.839 877.438,-374.088 882.323,-378.713 877.324,-378.587 877.324,-378.587 877.324,-378.587 882.323,-378.713 877.211,-383.085 887.321,-378.839 887.321,-378.839"/>
</g>
<!-- Project&#45;&gt;Factor -->
<g id="edge30" class="edge"><title>Project&#45;&gt;Factor</title>
<path fill="none" stroke="#6b9fed" d="M1285.29,-720.837C1301.41,-711.944 1319.61,-699.536 1331.94,-684 1346.33,-665.881 1354.57,-640.744 1359.08,-621.805"/>
<polygon fill="#6b9fed" stroke="#6b9fed" points="1284.96,-721.014 1274.01,-721.68 1280.53,-723.339 1276.1,-725.663 1276.1,-725.663 1276.1,-725.663 1280.53,-723.339 1278.2,-729.647 1284.96,-721.014 1284.96,-721.014"/>
<polygon fill="#6b9fed" stroke="#6b9fed" points="1359.08,-621.776 1365.61,-612.962 1360.15,-616.89 1361.21,-612.005 1361.21,-612.005 1361.21,-612.005 1360.15,-616.89 1356.81,-611.048 1359.08,-621.776 1359.08,-621.776"/>
</g>
<!-- HomeCountry -->
<g id="node13" class="node"><title>HomeCountry</title>
<ellipse fill="none" stroke="black" cx="876.943" cy="-522" rx="61.99" ry="18"/>
<text text-anchor="middle" x="876.943" y="-518.3" font-family="Times,serif" font-size="14.00">HomeCountry</text>
</g>
<!-- HomeState -->
<g id="node20" class="node"><title>HomeState</title>
<ellipse fill="none" stroke="black" cx="996.943" cy="-450" rx="50.0912" ry="18"/>
<text text-anchor="middle" x="996.943" y="-446.3" font-family="Times,serif" font-size="14.00">HomeState</text>
</g>
<!-- HomeCountry&#45;&gt;HomeState -->
<g id="edge32" class="edge"><title>HomeCountry&#45;&gt;HomeState</title>
<path fill="none" stroke="#932930" d="M910.234,-501.58C926.703,-491.973 946.546,-480.398 963.091,-470.747"/>
<ellipse fill="none" stroke="#932930" cx="906.733" cy="-503.623" rx="4.00002" ry="4.00002"/>
<polygon fill="#932930" stroke="#932930" points="963.263,-470.646 974.169,-469.495 967.582,-468.127 971.901,-465.608 971.901,-465.608 971.901,-465.608 967.582,-468.127 969.634,-461.721 963.263,-470.646 963.263,-470.646"/>
</g>
<!-- HomeCountry&#45;&gt;User -->
<g id="edge31" class="edge"><title>HomeCountry&#45;&gt;User</title>
<path fill="none" stroke="#a1bc44" d="M930.875,-506.71C982.147,-492.87 1052.04,-473.23 1055.94,-468 1065.52,-455.18 1065.75,-444.645 1055.94,-432 1035.42,-405.528 940.542,-389.96 886.993,-383.135"/>
<polygon fill="#a1bc44" stroke="#a1bc44" points="930.873,-506.71 920.047,-504.963 926.045,-508.009 921.216,-509.308 921.216,-509.308 921.216,-509.308 926.045,-508.009 922.385,-513.654 930.873,-506.71 930.873,-506.71"/>
<polygon fill="#a1bc44" stroke="#a1bc44" points="886.793,-383.11 877.42,-377.419 881.831,-382.498 876.869,-381.886 876.869,-381.886 876.869,-381.886 881.831,-382.498 876.318,-386.352 886.793,-383.11 886.793,-383.11"/>
</g>
<!-- Group&#45;&gt;CandidateList -->
<g id="edge35" class="edge"><title>Group&#45;&gt;CandidateList</title>
<path fill="none" stroke="#2df2ba" d="M790.514,-592.771C704.803,-589.889 515.943,-570.034 515.943,-451 515.943,-451 515.943,-451 515.943,-377 515.943,-335.633 500.708,-289.722 489.531,-261.605"/>
<ellipse fill="none" stroke="#2df2ba" cx="794.724" cy="-592.891" rx="4" ry="4"/>
<polygon fill="#2df2ba" stroke="#2df2ba" points="489.425,-261.346 489.797,-250.386 487.529,-256.719 485.633,-252.093 485.633,-252.093 485.633,-252.093 487.529,-256.719 481.469,-253.799 489.425,-261.346 489.425,-261.346"/>
</g>
<!-- Group&#45;&gt;HomeCountry -->
<g id="edge38" class="edge"><title>Group&#45;&gt;HomeCountry</title>
<path fill="none" stroke="#3deab1" d="M847.845,-568.264C851.865,-562.01 856.193,-555.278 860.251,-548.966"/>
<polygon fill="#3deab1" stroke="#3deab1" points="847.788,-568.353 838.595,-574.331 845.084,-572.559 842.38,-576.765 842.38,-576.765 842.38,-576.765 845.084,-572.559 846.165,-579.198 847.788,-568.353 847.788,-568.353"/>
<polygon fill="#3deab1" stroke="#3deab1" points="860.527,-548.536 869.72,-542.557 863.231,-544.33 865.935,-540.124 865.935,-540.124 865.935,-540.124 863.231,-544.33 862.149,-537.69 860.527,-548.536 860.527,-548.536"/>
</g>
<!-- Group&#45;&gt;Installment -->
<g id="edge36" class="edge"><title>Group&#45;&gt;Installment</title>
<path fill="none" stroke="#697e43" d="M873.522,-592.342C927.595,-589.823 1023.45,-579.561 1093.94,-540 1187.03,-487.756 1262.82,-381.345 1294.26,-332.521"/>
<ellipse fill="none" stroke="#697e43" cx="869.209" cy="-592.519" rx="4" ry="4"/>
<polygon fill="#697e43" stroke="#697e43" points="1294.42,-332.27 1303.58,-326.241 1297.1,-328.049 1299.78,-323.829 1299.78,-323.829 1299.78,-323.829 1297.1,-328.049 1295.98,-321.416 1294.42,-332.27 1294.42,-332.27"/>
</g>
<!-- Gender -->
<g id="node16" class="node"><title>Gender</title>
<ellipse fill="none" stroke="black" cx="617.943" cy="-450" rx="36.2938" ry="18"/>
<text text-anchor="middle" x="617.943" y="-446.3" font-family="Times,serif" font-size="14.00">Gender</text>
</g>
<!-- Group&#45;&gt;Gender -->
<g id="edge40" class="edge"><title>Group&#45;&gt;Gender</title>
<path fill="none" stroke="#a61150" d="M790.133,-587.236C738.203,-579.199 653.876,-562.984 632.943,-540 617.898,-523.481 614.959,-497.752 615.308,-478.197"/>
<polygon fill="#a61150" stroke="#a61150" points="790.171,-587.241 799.388,-593.183 795.115,-587.987 800.059,-588.733 800.059,-588.733 800.059,-588.733 795.115,-587.987 800.731,-584.284 790.171,-587.241 790.171,-587.241"/>
<polygon fill="#a61150" stroke="#a61150" points="615.315,-478.056 620.279,-468.278 615.55,-473.061 615.784,-468.067 615.784,-468.067 615.784,-468.067 615.55,-473.061 611.289,-467.856 615.315,-478.056 615.315,-478.056"/>
</g>
<!-- GroupRevision -->
<g id="node19" class="node"><title>GroupRevision</title>
<ellipse fill="none" stroke="black" cx="1020.94" cy="-522" rx="64.189" ry="18"/>
<text text-anchor="middle" x="1020.94" y="-518.3" font-family="Times,serif" font-size="14.00">GroupRevision</text>
</g>
<!-- Group&#45;&gt;GroupRevision -->
<g id="edge34" class="edge"><title>Group&#45;&gt;GroupRevision</title>
<path fill="none" stroke="#c7a796" d="M866.254,-580.292C896.441,-569.112 940.664,-552.733 974.102,-540.348"/>
<ellipse fill="none" stroke="#c7a796" cx="862.372" cy="-581.73" rx="4.00001" ry="4.00001"/>
<polygon fill="#c7a796" stroke="#c7a796" points="974.288,-540.28 985.228,-541.026 978.976,-538.543 983.665,-536.807 983.665,-536.807 983.665,-536.807 978.976,-538.543 982.102,-532.587 974.288,-540.28 974.288,-540.28"/>
</g>
<!-- Group&#45;&gt;HomeState -->
<g id="edge37" class="edge"><title>Group&#45;&gt;HomeState</title>
<path fill="none" stroke="#a346cd" d="M813.969,-568.485C802.285,-549.299 791.645,-522.806 805.943,-504 814.528,-492.709 891.279,-473.978 944.832,-462.074"/>
<polygon fill="#a346cd" stroke="#a346cd" points="814.05,-568.61 815.733,-579.446 816.777,-572.801 819.504,-576.992 819.504,-576.992 819.504,-576.992 816.777,-572.801 823.276,-574.537 814.05,-568.61 814.05,-568.61"/>
<polygon fill="#a346cd" stroke="#a346cd" points="945.107,-462.013 955.841,-464.255 949.99,-460.937 954.873,-459.861 954.873,-459.861 954.873,-459.861 949.99,-460.937 953.904,-455.466 945.107,-462.013 945.107,-462.013"/>
</g>
<!-- Group&#45;&gt;User -->
<g id="edge33" class="edge"><title>Group&#45;&gt;User</title>
<path fill="none" stroke="#4357f6" d="M790.192,-586.702C729.358,-575.811 627.559,-550.076 665.943,-504 722.632,-435.951 805.254,-536.049 861.943,-468 876.541,-450.476 870.537,-423.919 862.71,-404.373"/>
<polygon fill="#4357f6" stroke="#4357f6" points="790.449,-586.746 799.54,-592.879 795.377,-587.595 800.304,-588.445 800.304,-588.445 800.304,-588.445 795.377,-587.595 801.068,-584.01 790.449,-586.746 790.449,-586.746"/>
<polygon fill="#4357f6" stroke="#4357f6" points="862.681,-404.308 862.801,-393.343 860.679,-399.726 858.677,-395.145 858.677,-395.145 858.677,-395.145 860.679,-399.726 854.554,-396.947 862.681,-404.308 862.681,-404.308"/>
</g>
<!-- CipCode -->
<g id="node35" class="node"><title>CipCode</title>
<ellipse fill="none" stroke="black" cx="716.943" cy="-522" rx="42.4939" ry="18"/>
<text text-anchor="middle" x="716.943" y="-518.3" font-family="Times,serif" font-size="14.00">CipCode</text>
</g>
<!-- Group&#45;&gt;CipCode -->
<g id="edge39" class="edge"><title>Group&#45;&gt;CipCode</title>
<path fill="none" stroke="#056ea5" d="M801.874,-574.697C785.606,-564.795 765.512,-552.564 748.954,-542.485"/>
<polygon fill="#056ea5" stroke="#056ea5" points="802.04,-574.798 808.242,-583.841 806.311,-577.398 810.582,-579.998 810.582,-579.998 810.582,-579.998 806.311,-577.398 812.922,-576.154 802.04,-574.798 802.04,-574.798"/>
<polygon fill="#056ea5" stroke="#056ea5" points="748.707,-542.335 742.505,-533.291 744.436,-539.735 740.165,-537.135 740.165,-537.135 740.165,-537.135 744.436,-539.735 737.825,-540.979 748.707,-542.335 748.707,-542.335"/>
</g>
<!-- Value -->
<g id="node22" class="node"><title>Value</title>
<ellipse fill="none" stroke="black" cx="1309.94" cy="-234" rx="31.6951" ry="18"/>
<text text-anchor="middle" x="1309.94" y="-230.3" font-family="Times,serif" font-size="14.00">Value</text>
</g>
<!-- Installment&#45;&gt;Value -->
<g id="edge41" class="edge"><title>Installment&#45;&gt;Value</title>
<path fill="none" stroke="#d04c7e" d="M1309.94,-279.64C1309.94,-274.063 1309.94,-268.132 1309.94,-262.476"/>
<ellipse fill="none" stroke="#d04c7e" cx="1309.94" cy="-283.697" rx="4" ry="4"/>
<polygon fill="#d04c7e" stroke="#d04c7e" points="1309.94,-262.104 1314.44,-252.104 1309.94,-257.104 1309.94,-252.104 1309.94,-252.104 1309.94,-252.104 1309.94,-257.104 1305.44,-252.104 1309.94,-262.104 1309.94,-262.104"/>
</g>
<!-- Gender&#45;&gt;User -->
<g id="edge42" class="edge"><title>Gender&#45;&gt;User</title>
<path fill="none" stroke="#1077cf" d="M653.603,-435.518C657.085,-434.293 660.574,-433.101 663.943,-432 716.018,-414.986 777.268,-398.13 814.845,-388.143"/>
<ellipse fill="none" stroke="#1077cf" cx="649.808" cy="-436.878" rx="4.00001" ry="4.00001"/>
<polygon fill="#1077cf" stroke="#1077cf" points="815.121,-388.07 825.939,-389.864 819.954,-386.791 824.788,-385.513 824.788,-385.513 824.788,-385.513 819.954,-386.791 823.638,-381.163 815.121,-388.07 815.121,-388.07"/>
</g>
<!-- Style -->
<g id="node17" class="node"><title>Style</title>
<ellipse fill="none" stroke="black" cx="1229.94" cy="-810" rx="28.6953" ry="18"/>
<text text-anchor="middle" x="1229.94" y="-806.3" font-family="Times,serif" font-size="14.00">Style</text>
</g>
<!-- Style&#45;&gt;Project -->
<g id="edge43" class="edge"><title>Style&#45;&gt;Project</title>
<path fill="none" stroke="#5367e3" d="M1237.01,-784.267C1238.7,-778.34 1240.52,-771.981 1242.24,-765.959"/>
<ellipse fill="none" stroke="#5367e3" cx="1235.88" cy="-788.209" rx="4.00001" ry="4.00001"/>
<polygon fill="#5367e3" stroke="#5367e3" points="1242.26,-765.891 1249.33,-757.512 1243.63,-761.083 1245.01,-756.275 1245.01,-756.275 1245.01,-756.275 1243.63,-761.083 1240.68,-755.039 1242.26,-765.891 1242.26,-765.891"/>
</g>
<!-- School -->
<g id="node18" class="node"><title>School</title>
<ellipse fill="none" stroke="black" cx="496.943" cy="-903" rx="35.194" ry="18"/>
<text text-anchor="middle" x="496.943" y="-899.3" font-family="Times,serif" font-size="14.00">School</text>
</g>
<!-- School&#45;&gt;Course -->
<g id="edge44" class="edge"><title>School&#45;&gt;Course</title>
<path fill="none" stroke="#53315c" d="M496.943,-876.729C496.943,-864.725 496.943,-850.362 496.943,-838.129"/>
<ellipse fill="none" stroke="#53315c" cx="496.943" cy="-880.884" rx="4" ry="4"/>
<polygon fill="#53315c" stroke="#53315c" points="496.943,-838.04 501.443,-828.04 496.943,-833.04 496.943,-828.04 496.943,-828.04 496.943,-828.04 496.943,-833.04 492.443,-828.04 496.943,-838.04 496.943,-838.04"/>
</g>
<!-- School&#45;&gt;BingoGame -->
<g id="edge45" class="edge"><title>School&#45;&gt;BingoGame</title>
<path fill="none" stroke="#45d211" d="M473.814,-879.836C467.351,-874.267 460.124,-868.578 452.943,-864 363.603,-807.037 249.943,-844.955 249.943,-739 249.943,-739 249.943,-739 249.943,-449 249.943,-408.74 258.686,-362.808 265.149,-334.355"/>
<polygon fill="#45d211" stroke="#45d211" points="474.075,-880.07 478.531,-890.089 477.802,-883.402 481.53,-886.734 481.53,-886.734 481.53,-886.734 477.802,-883.402 484.529,-883.379 474.075,-880.07 474.075,-880.07"/>
<polygon fill="#45d211" stroke="#45d211" points="265.21,-334.091 271.872,-325.381 266.351,-329.223 267.491,-324.354 267.491,-324.354 267.491,-324.354 266.351,-329.223 263.109,-323.328 265.21,-334.091 265.21,-334.091"/>
</g>
<!-- School&#45;&gt;Project -->
<g id="edge46" class="edge"><title>School&#45;&gt;Project</title>
<path fill="none" stroke="#3de771" d="M518.85,-879.521C525.721,-873.628 533.684,-867.852 541.943,-864 796.618,-745.205 888.695,-807.56 1164.94,-756 1178.74,-753.426 1193.76,-750.472 1207.28,-747.756"/>
<polygon fill="#3de771" stroke="#3de771" points="518.717,-879.642 508.298,-883.062 515.025,-883.014 511.332,-886.385 511.332,-886.385 511.332,-886.385 515.025,-883.014 514.366,-889.708 518.717,-879.642 518.717,-879.642"/>
<polygon fill="#3de771" stroke="#3de771" points="1207.48,-747.715 1218.18,-750.147 1212.39,-746.725 1217.29,-745.736 1217.29,-745.736 1217.29,-745.736 1212.39,-746.725 1216.4,-741.325 1207.48,-747.715 1207.48,-747.715"/>
</g>
<!-- School&#45;&gt;Roster -->
<g id="edge48" class="edge"><title>School&#45;&gt;Roster</title>
<path fill="none" stroke="#c2ee32" d="M472.249,-880.177C424.89,-838.096 325.943,-748.984 325.943,-739 325.943,-739 325.943,-739 325.943,-521 325.943,-447.306 371.854,-369.715 398.094,-331.386"/>
<polygon fill="#c2ee32" stroke="#c2ee32" points="472.441,-880.347 476.935,-890.35 476.181,-883.665 479.922,-886.984 479.922,-886.984 479.922,-886.984 476.181,-883.665 482.908,-883.617 472.441,-880.347 472.441,-880.347"/>
<polygon fill="#c2ee32" stroke="#c2ee32" points="398.263,-331.144 407.68,-325.525 401.127,-327.046 403.992,-322.947 403.992,-322.947 403.992,-322.947 401.127,-327.046 400.303,-320.369 398.263,-331.144 398.263,-331.144"/>
</g>
<!-- School&#45;&gt;Experience -->
<g id="edge47" class="edge"><title>School&#45;&gt;Experience</title>
<path fill="none" stroke="#435eac" d="M518.211,-879.087C525.148,-873.072 533.306,-867.34 541.943,-864 643.571,-824.7 1438.51,-898.078 1521.94,-828 1552.91,-801.987 1540.94,-779.447 1540.94,-739 1540.94,-739 1540.94,-739 1540.94,-593 1540.94,-438.581 1334.13,-352.569 1238.46,-321.041"/>
<polygon fill="#435eac" stroke="#435eac" points="517.971,-879.312 507.597,-882.866 514.322,-882.731 510.674,-886.15 510.674,-886.15 510.674,-886.15 514.322,-882.731 513.751,-889.433 517.971,-879.312 517.971,-879.312"/>
<polygon fill="#435eac" stroke="#435eac" points="1238.25,-320.973 1230.12,-313.616 1233.49,-319.435 1228.73,-317.898 1228.73,-317.898 1228.73,-317.898 1233.49,-319.435 1227.35,-322.18 1238.25,-320.973 1238.25,-320.973"/>
</g>
<!-- HomeState&#45;&gt;User -->
<g id="edge49" class="edge"><title>HomeState&#45;&gt;User</title>
<path fill="none" stroke="#77ed55" d="M960.674,-431.729C936.162,-420.057 904.144,-404.81 880.845,-393.715"/>
<ellipse fill="none" stroke="#77ed55" cx="964.289" cy="-433.45" rx="4.00002" ry="4.00002"/>
<polygon fill="#77ed55" stroke="#77ed55" points="880.783,-393.686 873.689,-385.324 876.269,-391.536 871.754,-389.386 871.754,-389.386 871.754,-389.386 876.269,-391.536 869.82,-393.449 880.783,-393.686 880.783,-393.686"/>
</g>
<!-- User&#45;&gt;CandidateList -->
<g id="edge52" class="edge"><title>User&#45;&gt;CandidateList</title>
<path fill="none" stroke="#c77a88" d="M815.164,-371.945C770.78,-364.76 692.18,-349.55 628.943,-324 584.708,-306.128 538.02,-276.765 508.474,-256.69"/>
<ellipse fill="none" stroke="#c77a88" cx="819.355" cy="-372.609" rx="4.00001" ry="4.00001"/>
<polygon fill="#c77a88" stroke="#c77a88" points="508.117,-256.445 502.425,-247.072 503.997,-253.613 499.876,-250.781 499.876,-250.781 499.876,-250.781 503.997,-253.613 497.327,-254.489 508.117,-256.445 508.117,-256.445"/>
</g>
<!-- User&#45;&gt;BingoGame -->
<g id="edge54" class="edge"><title>User&#45;&gt;BingoGame</title>
<path fill="none" stroke="#95b9ba" d="M812.873,-373.596C732.533,-366.061 536.423,-346.822 372.943,-324 358.348,-321.963 342.618,-319.463 328.017,-317.013"/>
<polygon fill="#95b9ba" stroke="#95b9ba" points="813.024,-373.61 822.563,-379.02 818.002,-374.074 822.981,-374.539 822.981,-374.539 822.981,-374.539 818.002,-374.074 823.399,-370.059 813.024,-373.61 813.024,-373.61"/>
<polygon fill="#95b9ba" stroke="#95b9ba" points="327.976,-317.006 318.871,-310.895 323.046,-316.169 318.117,-315.332 318.117,-315.332 318.117,-315.332 323.046,-316.169 317.363,-319.768 327.976,-317.006 327.976,-317.006"/>
</g>
<!-- User&#45;&gt;ConsentLog -->
<g id="edge51" class="edge"><title>User&#45;&gt;ConsentLog</title>
<path fill="none" stroke="#c0e0cf" d="M885.293,-374.369C969.487,-367.892 1188.41,-349.802 1369.94,-324 1382.13,-322.268 1395.16,-320.091 1407.49,-317.88"/>
<ellipse fill="none" stroke="#c0e0cf" cx="881.09" cy="-374.69" rx="4" ry="4"/>
<polygon fill="#c0e0cf" stroke="#c0e0cf" points="1407.81,-317.821 1418.46,-320.449 1412.73,-316.922 1417.65,-316.023 1417.65,-316.023 1417.65,-316.023 1412.73,-316.922 1416.84,-311.596 1407.81,-317.821 1407.81,-317.821"/>
</g>
<!-- User&#45;&gt;Installment -->
<g id="edge56" class="edge"><title>User&#45;&gt;Installment</title>
<path fill="none" stroke="#9ba77c" d="M884.908,-374.079C954.789,-367.866 1116.45,-351.604 1249.94,-324 1254.29,-323.1 1258.79,-322.052 1263.28,-320.926"/>
<ellipse fill="none" stroke="#9ba77c" cx="880.834" cy="-374.437" rx="4" ry="4"/>
<polygon fill="#9ba77c" stroke="#9ba77c" points="1263.35,-320.907 1274.17,-322.716 1268.19,-319.635 1273.02,-318.364 1273.02,-318.364 1273.02,-318.364 1268.19,-319.635 1271.88,-314.012 1263.35,-320.907 1263.35,-320.907"/>
</g>
<!-- User&#45;&gt;Candidate -->
<g id="edge55" class="edge"><title>User&#45;&gt;Candidate</title>
<path fill="none" stroke="#80c825" d="M817.807,-367.126C790.276,-357.971 750.098,-342.924 717.943,-324 652.318,-285.38 646.648,-260.616 584.943,-216 529.886,-176.191 462.565,-134.481 423.15,-110.72"/>
<ellipse fill="none" stroke="#80c825" cx="821.768" cy="-368.421" rx="4.00001" ry="4.00001"/>
<polygon fill="#80c825" stroke="#80c825" points="422.801,-110.51 416.546,-101.504 418.515,-107.936 414.229,-105.361 414.229,-105.361 414.229,-105.361 418.515,-107.936 411.911,-109.219 422.801,-110.51 422.801,-110.51"/>
</g>
<!-- User&#45;&gt;Reaction -->
<g id="edge58" class="edge"><title>User&#45;&gt;Reaction</title>
<path fill="none" stroke="#65ce37" d="M882.991,-368.216C908.875,-360.056 944.62,-345.834 969.943,-324 1037.4,-265.836 1079.22,-165.195 1096.2,-117.517"/>
<ellipse fill="none" stroke="#65ce37" cx="879.124" cy="-369.392" rx="4.00001" ry="4.00001"/>
<polygon fill="#65ce37" stroke="#65ce37" points="1096.26,-117.361 1103.79,-109.392 1097.9,-112.638 1099.54,-107.915 1099.54,-107.915 1099.54,-107.915 1097.9,-112.638 1095.29,-106.438 1096.26,-117.361 1096.26,-117.361"/>
</g>
<!-- User&#45;&gt;Roster -->
<g id="edge57" class="edge"><title>User&#45;&gt;Roster</title>
<path fill="none" stroke="#0bc815" d="M815.789,-371.491C737.133,-358.805 543.407,-327.559 457.788,-313.749"/>
<ellipse fill="none" stroke="#0bc815" cx="819.823" cy="-372.142" rx="4.00001" ry="4.00001"/>
<polygon fill="#0bc815" stroke="#0bc815" points="457.77,-313.746 448.614,-307.711 452.833,-312.95 447.897,-312.154 447.897,-312.154 447.897,-312.154 452.833,-312.95 447.181,-316.597 457.77,-313.746 457.77,-313.746"/>
</g>
<!-- Email -->
<g id="node30" class="node"><title>Email</title>
<ellipse fill="none" stroke="black" cx="758.943" cy="-306" rx="32.4942" ry="18"/>
<text text-anchor="middle" x="758.943" y="-302.3" font-family="Times,serif" font-size="14.00">Email</text>
</g>
<!-- User&#45;&gt;Email -->
<g id="edge50" class="edge"><title>User&#45;&gt;Email</title>
<path fill="none" stroke="#c1ddc7" d="M826.138,-358.689C813.598,-349.042 798.188,-337.188 785.289,-327.267"/>
<ellipse fill="none" stroke="#c1ddc7" cx="829.656" cy="-361.395" rx="4.00002" ry="4.00002"/>
<polygon fill="#c1ddc7" stroke="#c1ddc7" points="785.158,-327.165 779.975,-317.501 781.195,-324.117 777.232,-321.068 777.232,-321.068 777.232,-321.068 781.195,-324.117 774.488,-324.635 785.158,-327.165 785.158,-327.165"/>
</g>
<!-- User&#45;&gt;Concept -->
<g id="edge53" class="edge"><title>User&#45;&gt;Concept</title>
<path fill="none" stroke="#b4fa3c" d="M815.615,-370.795C779.325,-363.285 721.187,-348.503 675.943,-324 610.192,-288.392 612.154,-252.587 546.943,-216 511.626,-196.185 467.679,-182.137 435.271,-173.504"/>
<ellipse fill="none" stroke="#b4fa3c" cx="819.983" cy="-371.673" rx="4.00001" ry="4.00001"/>
<polygon fill="#b4fa3c" stroke="#b4fa3c" points="434.86,-173.398 426.308,-166.535 430.02,-172.145 425.18,-170.891 425.18,-170.891 425.18,-170.891 430.02,-172.145 424.052,-175.248 434.86,-173.398 434.86,-173.398"/>
</g>
<!-- Narrative -->
<g id="node32" class="node"><title>Narrative</title>
<ellipse fill="none" stroke="black" cx="916.943" cy="-306" rx="44.393" ry="18"/>
<text text-anchor="middle" x="916.943" y="-302.3" font-family="Times,serif" font-size="14.00">Narrative</text>
</g>
<!-- User&#45;&gt;Narrative -->
<g id="edge60" class="edge"><title>User&#45;&gt;Narrative</title>
<path fill="none" stroke="#d79469" d="M871.025,-354.974C878.48,-347.185 886.89,-338.398 894.458,-330.492"/>
<polygon fill="#d79469" stroke="#d79469" points="870.74,-355.272 860.574,-359.384 867.283,-358.884 863.825,-362.496 863.825,-362.496 863.825,-362.496 867.283,-358.884 867.076,-365.608 870.74,-355.272 870.74,-355.272"/>
<polygon fill="#d79469" stroke="#d79469" points="894.762,-330.174 904.928,-326.061 898.219,-326.562 901.677,-322.95 901.677,-322.95 901.677,-322.95 898.219,-326.562 898.426,-319.838 894.762,-330.174 894.762,-330.174"/>
</g>
<!-- User&#45;&gt;Experience -->
<g id="edge59" class="edge"><title>User&#45;&gt;Experience</title>
<path fill="none" stroke="#af926f" d="M885.483,-369.704C945.814,-357.32 1068.53,-332.129 1138.67,-317.731"/>
<polygon fill="#af926f" stroke="#af926f" points="885.369,-369.728 874.668,-367.331 880.471,-370.733 875.573,-371.739 875.573,-371.739 875.573,-371.739 880.471,-370.733 876.478,-376.147 885.369,-369.728 885.369,-369.728"/>
<polygon fill="#af926f" stroke="#af926f" points="1138.83,-317.698 1149.53,-320.095 1143.73,-316.693 1148.62,-315.687 1148.62,-315.687 1148.62,-315.687 1143.73,-316.693 1147.72,-311.279 1138.83,-317.698 1138.83,-317.698"/>
</g>
<!-- Week -->
<g id="node24" class="node"><title>Week</title>
<ellipse fill="none" stroke="black" cx="916.943" cy="-234" rx="31.6951" ry="18"/>
<text text-anchor="middle" x="916.943" y="-230.3" font-family="Times,serif" font-size="14.00">Week</text>
</g>
<!-- Week&#45;&gt;Behavior -->
<g id="edge61" class="edge"><title>Week&#45;&gt;Behavior</title>
<path fill="none" stroke="#87b087" d="M932.687,-210.509C938.032,-202.873 944.017,-194.323 949.421,-186.603"/>
<ellipse fill="none" stroke="#87b087" cx="930.356" cy="-213.839" rx="4.00002" ry="4.00002"/>
<ellipse fill="#87b087" stroke="#87b087" cx="951.891" cy="-183.074" rx="4.00002" ry="4.00002"/>
</g>
<!-- Week&#45;&gt;Diagnosis -->
<g id="edge62" class="edge"><title>Week&#45;&gt;Diagnosis</title>
<path fill="none" stroke="#10b005" d="M910.56,-207.63C903.635,-174.945 895.813,-116.987 913.943,-72 918.716,-60.156 927.542,-49.478 936.526,-40.8623"/>
<ellipse fill="none" stroke="#10b005" cx="911.504" cy="-211.855" rx="4.00001" ry="4.00001"/>
<polygon fill="#10b005" stroke="#10b005" points="936.584,-40.8105 947.031,-37.4782 940.305,-37.4702 944.025,-34.1298 944.025,-34.1298 944.025,-34.1298 940.305,-37.4702 941.019,-30.7813 936.584,-40.8105 936.584,-40.8105"/>
</g>
<!-- Scenario&#45;&gt;Narrative -->
<g id="edge63" class="edge"><title>Scenario&#45;&gt;Narrative</title>
<path fill="none" stroke="#71a4a8" d="M941.769,-112.425C919.026,-135.39 886.291,-174.222 875.943,-216 872.096,-231.531 870.77,-236.859 875.943,-252 879.591,-262.678 886.361,-272.874 893.363,-281.419"/>
<ellipse fill="none" stroke="#71a4a8" cx="944.759" cy="-109.47" rx="4.00002" ry="4.00002"/>
<polygon fill="#71a4a8" stroke="#71a4a8" points="893.47,-281.541 896.666,-292.031 896.762,-285.305 900.053,-289.068 900.053,-289.068 900.053,-289.068 896.762,-285.305 903.441,-286.106 893.47,-281.541 893.47,-281.541"/>
</g>
<!-- Reaction&#45;&gt;Course -->
<g id="edge64" class="edge"><title>Reaction&#45;&gt;Course</title>
<path fill="none" stroke="#b884e9" d="M1107.22,-116.194C1109.59,-144.563 1112.94,-192.05 1112.94,-233 1112.94,-667 1112.94,-667 1112.94,-667 1112.94,-725.981 678.585,-786.035 539.346,-803.771"/>
<ellipse fill="none" stroke="#b884e9" cx="1106.86" cy="-112.017" rx="4" ry="4"/>
<ellipse fill="#b884e9" stroke="#b884e9" cx="535.35" cy="-804.277" rx="4.00001" ry="4.00001"/>
</g>
<!-- Reaction&#45;&gt;Diagnosis -->
<g id="edge65" class="edge"><title>Reaction&#45;&gt;Diagnosis</title>
<path fill="none" stroke="#bac6da" d="M1071.36,-72.2087C1050.23,-61.6424 1022.96,-48.0073 1001.31,-37.1854"/>
<ellipse fill="none" stroke="#bac6da" cx="1075.03" cy="-74.0447" rx="4.00002" ry="4.00002"/>
<polygon fill="#bac6da" stroke="#bac6da" points="1001.06,-37.0571 994.125,-28.56 996.585,-34.821 992.113,-32.5849 992.113,-32.5849 992.113,-32.5849 996.585,-34.821 990.1,-36.6098 1001.06,-37.0571 1001.06,-37.0571"/>
</g>
<!-- Theme -->
<g id="node29" class="node"><title>Theme</title>
<ellipse fill="none" stroke="black" cx="816.943" cy="-450" rx="35.9954" ry="18"/>
<text text-anchor="middle" x="816.943" y="-446.3" font-family="Times,serif" font-size="14.00">Theme</text>
</g>
<!-- Theme&#45;&gt;User -->
<g id="edge66" class="edge"><title>Theme&#45;&gt;User</title>
<path fill="none" stroke="#3ef530" d="M828.281,-424.95C831.36,-418.418 834.706,-411.322 837.826,-404.703"/>
<ellipse fill="none" stroke="#3ef530" cx="826.469" cy="-428.793" rx="4.00002" ry="4.00002"/>
<polygon fill="#3ef530" stroke="#3ef530" points="837.914,-404.515 846.249,-397.389 840.046,-399.993 842.179,-395.47 842.179,-395.47 842.179,-395.47 840.046,-399.993 838.108,-393.551 837.914,-404.515 837.914,-404.515"/>
</g>
<!-- Concept&#45;&gt;Course -->
<g id="edge68" class="edge"><title>Concept&#45;&gt;Course</title>
<path fill="none" stroke="#830a1b" d="M385.458,-190.287C381.49,-215.553 375.886,-254.209 372.943,-288 363.95,-391.242 363.943,-417.367 363.943,-521 363.943,-667 363.943,-667 363.943,-667 363.943,-710.367 374.778,-723.905 403.943,-756 419.232,-772.825 441.145,-785.673 459.861,-794.502"/>
<polygon fill="#830a1b" stroke="#830a1b" points="385.471,-190.207 391.49,-181.04 386.259,-185.269 387.046,-180.331 387.046,-180.331 387.046,-180.331 386.259,-185.269 382.603,-179.623 385.471,-190.207 385.471,-190.207"/>
<polygon fill="#830a1b" stroke="#830a1b" points="459.909,-794.524 467.177,-802.735 464.467,-796.578 469.026,-798.633 469.026,-798.633 469.026,-798.633 464.467,-796.578 470.875,-794.53 459.909,-794.524 459.909,-794.524"/>
</g>
<!-- Concept&#45;&gt;Candidate -->
<g id="edge67" class="edge"><title>Concept&#45;&gt;Candidate</title>
<path fill="none" stroke="#5a4c9c" d="M389.943,-135.64C389.943,-130.063 389.943,-124.132 389.943,-118.476"/>
<ellipse fill="none" stroke="#5a4c9c" cx="389.943" cy="-139.697" rx="4" ry="4"/>
<polygon fill="#5a4c9c" stroke="#5a4c9c" points="389.943,-118.104 394.443,-108.104 389.943,-113.104 389.943,-108.104 389.943,-108.104 389.943,-108.104 389.943,-113.104 385.443,-108.104 389.943,-118.104 389.943,-118.104"/>
</g>
<!-- Narrative&#45;&gt;Behavior -->
<g id="edge70" class="edge"><title>Narrative&#45;&gt;Behavior</title>
<path fill="none" stroke="#23e2f8" d="M938.681,-282.787C946.073,-273.912 953.565,-263.154 957.943,-252 965.932,-231.647 967.549,-206.729 967.389,-188.441"/>
<ellipse fill="none" stroke="#23e2f8" cx="935.989" cy="-285.879" rx="4.00002" ry="4.00002"/>
<ellipse fill="#23e2f8" stroke="#23e2f8" cx="967.284" cy="-184.044" rx="4" ry="4"/>
</g>
<!-- Narrative&#45;&gt;Week -->
<g id="edge69" class="edge"><title>Narrative&#45;&gt;Week</title>
<path fill="none" stroke="#cb0a76" d="M916.943,-279.64C916.943,-274.063 916.943,-268.132 916.943,-262.476"/>
<ellipse fill="none" stroke="#cb0a76" cx="916.943" cy="-283.697" rx="4" ry="4"/>
<polygon fill="#cb0a76" stroke="#cb0a76" points="916.943,-262.104 921.443,-252.104 916.943,-257.104 916.943,-252.104 916.943,-252.104 916.943,-252.104 916.943,-257.104 912.443,-252.104 916.943,-262.104 916.943,-262.104"/>
</g>
<!-- Narrative&#45;&gt;Reaction -->
<g id="edge71" class="edge"><title>Narrative&#45;&gt;Reaction</title>
<path fill="none" stroke="#c768e3" d="M941.932,-284.243C952.785,-274.808 965.398,-263.255 975.943,-252 1017.71,-207.425 1022.54,-191.503 1060.94,-144 1068.66,-134.459 1077.25,-124.053 1084.79,-115.007"/>
<ellipse fill="none" stroke="#c768e3" cx="938.809" cy="-286.928" rx="4.00002" ry="4.00002"/>
<polygon fill="#c768e3" stroke="#c768e3" points="1084.94,-114.822 1094.81,-110.032 1088.15,-110.985 1091.35,-107.147 1091.35,-107.147 1091.35,-107.147 1088.15,-110.985 1087.9,-104.262 1084.94,-114.822 1084.94,-114.822"/>
</g>
<!-- FactorPack -->
<g id="node33" class="node"><title>FactorPack</title>
<ellipse fill="none" stroke="black" cx="1326.94" cy="-810" rx="50.0912" ry="18"/>
<text text-anchor="middle" x="1326.94" y="-806.3" font-family="Times,serif" font-size="14.00">FactorPack</text>
</g>
<!-- FactorPack&#45;&gt;Project -->
<g id="edge73" class="edge"><title>FactorPack&#45;&gt;Project</title>
<path fill="none" stroke="#5a885d" d="M1303.47,-787.663C1294.15,-779.192 1283.44,-769.454 1274.06,-760.926"/>
<ellipse fill="none" stroke="#5a885d" cx="1306.51" cy="-790.425" rx="4.00002" ry="4.00002"/>
<polygon fill="#5a885d" stroke="#5a885d" points="1273.95,-760.828 1269.58,-750.772 1270.25,-757.465 1266.55,-754.101 1266.55,-754.101 1266.55,-754.101 1270.25,-757.465 1263.53,-757.431 1273.95,-760.828 1273.95,-760.828"/>
</g>
<!-- FactorPack&#45;&gt;Factor -->
<g id="edge72" class="edge"><title>FactorPack&#45;&gt;Factor</title>
<path fill="none" stroke="#5773ba" d="M1333.52,-783.806C1339.85,-758.683 1349.29,-718.911 1354.94,-684 1358.27,-663.433 1360.59,-639.981 1362.03,-622.315"/>
<ellipse fill="none" stroke="#5773ba" cx="1332.49" cy="-787.86" rx="4.00001" ry="4.00001"/>
<polygon fill="#5773ba" stroke="#5773ba" points="1362.05,-622.111 1367.31,-612.489 1362.43,-617.126 1362.82,-612.141 1362.82,-612.141 1362.82,-612.141 1362.43,-617.126 1358.33,-611.793 1362.05,-622.111 1362.05,-622.111"/>
</g>
<!-- BingoCell -->
<g id="node34" class="node"><title>BingoCell</title>
<ellipse fill="none" stroke="black" cx="269.943" cy="-162" rx="46.5926" ry="18"/>
<text text-anchor="middle" x="269.943" y="-158.3" font-family="Times,serif" font-size="14.00">BingoCell</text>
</g>
<!-- CipCode&#45;&gt;User -->
<g id="edge74" class="edge"><title>CipCode&#45;&gt;User</title>
<path fill="none" stroke="#f023d9" d="M758.152,-508.45C763.134,-506.945 768.152,-505.434 772.943,-504 827.102,-487.789 861.094,-513.28 894.943,-468 910.817,-446.765 891.601,-419.091 873.594,-400.278"/>
<ellipse fill="none" stroke="#f023d9" cx="754.22" cy="-509.64" rx="4.00001" ry="4.00001"/>
<polygon fill="#f023d9" stroke="#f023d9" points="873.156,-399.845 869.225,-389.608 869.606,-396.324 866.056,-392.803 866.056,-392.803 866.056,-392.803 869.606,-396.324 862.887,-395.998 873.156,-399.845 873.156,-399.845"/>
</g>
<!-- Experience&#45;&gt;Reaction -->
<g id="edge75" class="edge"><title>Experience&#45;&gt;Reaction</title>
<path fill="none" stroke="#248b14" d="M1181.37,-280.576C1168.95,-248.991 1146.56,-192.297 1126.94,-144 1123.44,-135.376 1119.56,-125.987 1116.05,-117.54"/>
<ellipse fill="none" stroke="#248b14" cx="1182.84" cy="-284.322" rx="4.00001" ry="4.00001"/>
<polygon fill="#248b14" stroke="#248b14" points="1115.99,-117.389 1116.3,-106.428 1114.07,-112.774 1112.14,-108.159 1112.14,-108.159 1112.14,-108.159 1114.07,-112.774 1107.99,-109.89 1115.99,-117.389 1115.99,-117.389"/>
</g>
<!-- CandidateFeedback -->
<g id="node37" class="node"><title>CandidateFeedback</title>
<ellipse fill="none" stroke="black" cx="79.9429" cy="-162" rx="79.8859" ry="18"/>
<text text-anchor="middle" x="79.9429" y="-158.3" font-family="Times,serif" font-size="14.00">CandidateFeedback</text>
</g>
<!-- CandidateFeedback&#45;&gt;Candidate -->
<g id="edge76" class="edge"><title>CandidateFeedback&#45;&gt;Candidate</title>
<path fill="none" stroke="#c36fab" d="M142.109,-146.963C200.629,-133.748 287.104,-114.222 340.905,-102.073"/>
<ellipse fill="none" stroke="#c36fab" cx="138.197" cy="-147.846" rx="4.00001" ry="4.00001"/>
<polygon fill="#c36fab" stroke="#c36fab" points="341.13,-102.022 351.875,-104.209 346.007,-100.921 350.884,-99.8197 350.884,-99.8197 350.884,-99.8197 346.007,-100.921 349.893,-95.4302 341.13,-102.022 341.13,-102.022"/>
</g>
<!-- BingoBoard&#45;&gt;Concept -->
<g id="edge78" class="edge"><title>BingoBoard&#45;&gt;Concept</title>
<path fill="none" stroke="#a8581f" d="M304.43,-212.883C321.151,-203.129 341.121,-191.479 357.556,-181.892"/>
<polygon fill="#a8581f" stroke="#a8581f" points="304.324,-212.944 293.418,-214.096 300.005,-215.464 295.686,-217.983 295.686,-217.983 295.686,-217.983 300.005,-215.464 297.953,-221.87 304.324,-212.944 304.324,-212.944"/>
<polygon fill="#a8581f" stroke="#a8581f" points="357.642,-181.842 368.547,-180.691 361.961,-179.323 366.28,-176.804 366.28,-176.804 366.28,-176.804 361.961,-179.323 364.012,-172.917 357.642,-181.842 357.642,-181.842"/>
</g>
<!-- BingoBoard&#45;&gt;BingoCell -->
<g id="edge77" class="edge"><title>BingoBoard&#45;&gt;BingoCell</title>
<path fill="none" stroke="#54f982" d="M269.943,-207.64C269.943,-202.063 269.943,-196.132 269.943,-190.476"/>
<ellipse fill="none" stroke="#54f982" cx="269.943" cy="-211.697" rx="4" ry="4"/>
<polygon fill="#54f982" stroke="#54f982" points="269.943,-190.104 274.443,-180.104 269.943,-185.104 269.943,-180.104 269.943,-180.104 269.943,-180.104 269.943,-185.104 265.443,-180.104 269.943,-190.104 269.943,-190.104"/>
</g>
</g>
</svg>
