<?xml version="1.0" encoding="UTF-8" standalone="no"?>
<!DOCTYPE svg PUBLIC "-//W3C//DTD SVG 1.1//EN"
 "http://www.w3.org/Graphics/SVG/1.1/DTD/svg11.dtd">
<!-- Generated by graphviz version 2.38.0 (20140413.2041)
 -->
<!-- Title: models_diagram Pages: 1 -->
<svg width="1889pt" height="662pt"
 viewBox="0.00 0.00 1889.05 662.00" xmlns="http://www.w3.org/2000/svg" xmlns:xlink="http://www.w3.org/1999/xlink">
<g id="graph0" class="graph" transform="scale(1 1) rotate(0) translate(4 658)">
<title>models_diagram</title>
<polygon fill="none" stroke="none" points="-4,4 -4,-658 1885.05,-658 1885.05,4 -4,4"/>
<!-- _diagram_info -->
<g id="node1" class="node"><title>_diagram_info</title>
<text text-anchor="start" x="787.046" y="-639.6" font-family="Times,serif" font-size="13.00">Models diagram</text>
<text text-anchor="start" x="787.046" y="-625.6" font-family="Times,serif" font-size="13.00">Date: Aug 09 2017 &#45; 15:42</text>
<text text-anchor="start" x="787.046" y="-611.6" font-family="Times,serif" font-size="13.00">Migration version: 20170807013336</text>
<text text-anchor="start" x="787.046" y="-597.6" font-family="Times,serif" font-size="13.00">Generated by RailRoady 1.5.2</text>
<text text-anchor="start" x="787.046" y="-583.6" font-family="Times,serif" font-size="13.00">http://railroady.prestonlee.com</text>
</g>
<!-- Theme -->
<g id="node2" class="node"><title>Theme</title>
<ellipse fill="none" stroke="black" cx="1047.05" cy="-615" rx="35.9954" ry="18"/>
<text text-anchor="middle" x="1047.05" y="-611.3" font-family="Times,serif" font-size="14.00">Theme</text>
</g>
<!-- User -->
<g id="node10" class="node"><title>User</title>
<ellipse fill="none" stroke="black" cx="1096.05" cy="-522" rx="27.0966" ry="18"/>
<text text-anchor="middle" x="1096.05" y="-518.3" font-family="Times,serif" font-size="14.00">User</text>
</g>
<!-- Theme&#45;&gt;User -->
<g id="edge1" class="edge"><title>Theme&#45;&gt;User</title>
<path fill="none" stroke="#91a69d" d="M1060.04,-589.877C1066.96,-577.014 1075.48,-561.202 1082.49,-548.183"/>
<ellipse fill="none" stroke="#91a69d" cx="1057.93" cy="-593.787" rx="4.00002" ry="4.00002"/>
<polygon fill="#91a69d" stroke="#91a69d" points="1082.54,-548.084 1091.24,-541.412 1084.91,-543.681 1087.28,-539.279 1087.28,-539.279 1087.28,-539.279 1084.91,-543.681 1083.32,-537.145 1082.54,-548.084 1082.54,-548.084"/>
</g>
<!-- FactorPack -->
<g id="node3" class="node"><title>FactorPack</title>
<ellipse fill="none" stroke="black" cx="50.0456" cy="-306" rx="50.0912" ry="18"/>
<text text-anchor="middle" x="50.0456" y="-302.3" font-family="Times,serif" font-size="14.00">FactorPack</text>
</g>
<!-- Project -->
<g id="node16" class="node"><title>Project</title>
<ellipse fill="none" stroke="black" cx="496.046" cy="-234" rx="35.9954" ry="18"/>
<text text-anchor="middle" x="496.046" y="-230.3" font-family="Times,serif" font-size="14.00">Project</text>
</g>
<!-- FactorPack&#45;&gt;Project -->
<g id="edge3" class="edge"><title>FactorPack&#45;&gt;Project</title>
<path fill="none" stroke="#4eee1a" d="M95.532,-292.191C101.726,-290.66 108.023,-289.213 114.046,-288 234.943,-263.651 379.622,-246.903 451.275,-239.423"/>
<ellipse fill="none" stroke="#4eee1a" cx="91.646" cy="-293.179" rx="4.00001" ry="4.00001"/>
<polygon fill="#4eee1a" stroke="#4eee1a" points="451.359,-239.415 461.768,-242.863 456.332,-238.901 461.306,-238.387 461.306,-238.387 461.306,-238.387 456.332,-238.901 460.843,-233.911 451.359,-239.415 451.359,-239.415"/>
</g>
<!-- Factor -->
<g id="node22" class="node"><title>Factor</title>
<ellipse fill="none" stroke="black" cx="455.046" cy="-90" rx="33.2948" ry="18"/>
<text text-anchor="middle" x="455.046" y="-86.3" font-family="Times,serif" font-size="14.00">Factor</text>
</g>
<!-- FactorPack&#45;&gt;Factor -->
<g id="edge2" class="edge"><title>FactorPack&#45;&gt;Factor</title>
<path fill="none" stroke="#8ab045" d="M84.3428,-286.877C161.536,-246.089 348.025,-147.549 423.021,-107.922"/>
<ellipse fill="none" stroke="#8ab045" cx="80.469" cy="-288.924" rx="4.00002" ry="4.00002"/>
<polygon fill="#8ab045" stroke="#8ab045" points="423.173,-107.842 434.117,-107.148 427.593,-105.506 432.014,-103.17 432.014,-103.17 432.014,-103.17 427.593,-105.506 429.912,-99.1909 423.173,-107.842 423.173,-107.842"/>
</g>
<!-- Course -->
<g id="node4" class="node"><title>Course</title>
<ellipse fill="none" stroke="black" cx="1355.05" cy="-306" rx="35.9954" ry="18"/>
<text text-anchor="middle" x="1355.05" y="-302.3" font-family="Times,serif" font-size="14.00">Course</text>
</g>
<!-- Course&#45;&gt;User -->
<g id="edge7" class="edge"><title>Course&#45;&gt;User</title>
<path fill="none" stroke="#466ab0" d="M1363.2,-333.845C1367.24,-352.258 1369.49,-376.746 1360.05,-396 1318.04,-481.649 1195.21,-508.92 1133.03,-517.361"/>
<polygon fill="#466ab0" stroke="#466ab0" points="1363.17,-333.755 1365.12,-322.963 1361.96,-328.903 1360.75,-324.052 1360.75,-324.052 1360.75,-324.052 1361.96,-328.903 1356.39,-325.141 1363.17,-333.755 1363.17,-333.755"/>
<polygon fill="#466ab0" stroke="#466ab0" points="1132.79,-517.39 1122.31,-514.18 1127.83,-518.017 1122.87,-518.644 1122.87,-518.644 1122.87,-518.644 1127.83,-518.017 1123.44,-523.109 1132.79,-517.39 1132.79,-517.39"/>
</g>
<!-- Roster -->
<g id="node13" class="node"><title>Roster</title>
<ellipse fill="none" stroke="black" cx="1429.05" cy="-234" rx="33.5952" ry="18"/>
<text text-anchor="middle" x="1429.05" y="-230.3" font-family="Times,serif" font-size="14.00">Roster</text>
</g>
<!-- Course&#45;&gt;Roster -->
<g id="edge5" class="edge"><title>Course&#45;&gt;Roster</title>
<path fill="none" stroke="#4f43d3" d="M1377.23,-284.016C1386.23,-275.506 1396.62,-265.671 1405.73,-257.055"/>
<ellipse fill="none" stroke="#4f43d3" cx="1374.01" cy="-287.062" rx="4.00002" ry="4.00002"/>
<polygon fill="#4f43d3" stroke="#4f43d3" points="1405.76,-257.031 1416.11,-253.428 1409.39,-253.595 1413.02,-250.159 1413.02,-250.159 1413.02,-250.159 1409.39,-253.595 1409.93,-246.89 1405.76,-257.031 1405.76,-257.031"/>
</g>
<!-- Course&#45;&gt;Project -->
<g id="edge4" class="edge"><title>Course&#45;&gt;Project</title>
<path fill="none" stroke="#8ca4f0" d="M1312.42,-300.261C1279.34,-296.66 1232.31,-291.711 1191.05,-288 946.439,-266 652.86,-245.571 541.695,-238.05"/>
<ellipse fill="none" stroke="#8ca4f0" cx="1316.54" cy="-300.711" rx="4.00001" ry="4.00001"/>
<polygon fill="#8ca4f0" stroke="#8ca4f0" points="541.492,-238.036 531.817,-232.873 536.503,-237.7 531.514,-237.363 531.514,-237.363 531.514,-237.363 536.503,-237.7 531.211,-241.853 541.492,-238.036 541.492,-238.036"/>
</g>
<!-- Experience -->
<g id="node34" class="node"><title>Experience</title>
<ellipse fill="none" stroke="black" cx="1531.05" cy="-234" rx="50.0912" ry="18"/>
<text text-anchor="middle" x="1531.05" y="-230.3" font-family="Times,serif" font-size="14.00">Experience</text>
</g>
<!-- Course&#45;&gt;Experience -->
<g id="edge8" class="edge"><title>Course&#45;&gt;Experience</title>
<path fill="none" stroke="#58b8be" d="M1389.88,-291.145C1418.48,-279.772 1459.05,-263.634 1489.37,-251.577"/>
<ellipse fill="none" stroke="#58b8be" cx="1385.88" cy="-292.738" rx="4.00001" ry="4.00001"/>
<polygon fill="#58b8be" stroke="#58b8be" points="1489.53,-251.513 1500.48,-251.998 1494.17,-249.665 1498.82,-247.817 1498.82,-247.817 1498.82,-247.817 1494.17,-249.665 1497.16,-243.635 1489.53,-251.513 1489.53,-251.513"/>
</g>
<!-- BingoGame -->
<g id="node35" class="node"><title>BingoGame</title>
<ellipse fill="none" stroke="black" cx="1259.05" cy="-162" rx="53.8905" ry="18"/>
<text text-anchor="middle" x="1259.05" y="-158.3" font-family="Times,serif" font-size="14.00">BingoGame</text>
</g>
<!-- Course&#45;&gt;BingoGame -->
<g id="edge6" class="edge"><title>Course&#45;&gt;BingoGame</title>
<path fill="none" stroke="#8d6f2d" d="M1343.22,-280.927C1333.79,-262.554 1319.77,-236.924 1305.05,-216 1298.07,-206.084 1289.56,-195.867 1281.77,-187.082"/>
<ellipse fill="none" stroke="#8d6f2d" cx="1345.16" cy="-284.754" rx="4.00002" ry="4.00002"/>
<polygon fill="#8d6f2d" stroke="#8d6f2d" points="1281.59,-186.882 1278.22,-176.447 1278.24,-183.174 1274.88,-179.466 1274.88,-179.466 1274.88,-179.466 1278.24,-183.174 1271.54,-182.485 1281.59,-186.882 1281.59,-186.882"/>
</g>
<!-- Style -->
<g id="node5" class="node"><title>Style</title>
<ellipse fill="none" stroke="black" cx="349.046" cy="-306" rx="28.6953" ry="18"/>
<text text-anchor="middle" x="349.046" y="-302.3" font-family="Times,serif" font-size="14.00">Style</text>
</g>
<!-- Style&#45;&gt;Project -->
<g id="edge9" class="edge"><title>Style&#45;&gt;Project</title>
<path fill="none" stroke="#9554fa" d="M378.666,-290.895C402.715,-279.443 436.651,-263.283 461.852,-251.283"/>
<ellipse fill="none" stroke="#9554fa" cx="374.983" cy="-292.649" rx="4.00002" ry="4.00002"/>
<polygon fill="#9554fa" stroke="#9554fa" points="462.015,-251.205 472.979,-250.968 466.53,-249.055 471.044,-246.906 471.044,-246.906 471.044,-246.906 466.53,-249.055 469.109,-242.843 462.015,-251.205 462.015,-251.205"/>
</g>
<!-- Behavior -->
<g id="node6" class="node"><title>Behavior</title>
<ellipse fill="none" stroke="black" cx="1718.05" cy="-234" rx="42.7926" ry="18"/>
<text text-anchor="middle" x="1718.05" y="-230.3" font-family="Times,serif" font-size="14.00">Behavior</text>
</g>
<!-- Diagnosis -->
<g id="node21" class="node"><title>Diagnosis</title>
<ellipse fill="none" stroke="black" cx="1773.05" cy="-90" rx="46.2923" ry="18"/>
<text text-anchor="middle" x="1773.05" y="-86.3" font-family="Times,serif" font-size="14.00">Diagnosis</text>
</g>
<!-- Behavior&#45;&gt;Diagnosis -->
<g id="edge12" class="edge"><title>Behavior&#45;&gt;Diagnosis</title>
<path fill="none" stroke="#9b1a83" d="M1714.53,-207.363C1713.1,-188.981 1713.45,-164.031 1722.05,-144 1727.08,-132.266 1735.97,-121.612 1744.92,-112.985"/>
<ellipse fill="none" stroke="#9b1a83" cx="1714.96" cy="-211.828" rx="4" ry="4"/>
<polygon fill="#9b1a83" stroke="#9b1a83" points="1744.97,-112.946 1755.4,-109.572 1748.67,-109.591 1752.38,-106.236 1752.38,-106.236 1752.38,-106.236 1748.67,-109.591 1749.36,-102.899 1744.97,-112.946 1744.97,-112.946"/>
</g>
<!-- Scenario -->
<g id="node30" class="node"><title>Scenario</title>
<ellipse fill="none" stroke="black" cx="1773.05" cy="-162" rx="41.6928" ry="18"/>
<text text-anchor="middle" x="1773.05" y="-158.3" font-family="Times,serif" font-size="14.00">Scenario</text>
</g>
<!-- Behavior&#45;&gt;Scenario -->
<g id="edge10" class="edge"><title>Behavior&#45;&gt;Scenario</title>
<path fill="none" stroke="#1907e5" d="M1735.84,-210.352C1741.59,-203.04 1747.98,-194.903 1753.82,-187.465"/>
<ellipse fill="none" stroke="#1907e5" cx="1733.27" cy="-213.619" rx="4.00002" ry="4.00002"/>
<polygon fill="#1907e5" stroke="#1907e5" points="1754.18,-187.011 1763.9,-181.928 1757.27,-183.079 1760.36,-179.147 1760.36,-179.147 1760.36,-179.147 1757.27,-183.079 1756.82,-176.367 1754.18,-187.011 1754.18,-187.011"/>
</g>
<!-- Reaction -->
<g id="node31" class="node"><title>Reaction</title>
<ellipse fill="none" stroke="black" cx="1621.05" cy="-162" rx="42.4939" ry="18"/>
<text text-anchor="middle" x="1621.05" y="-158.3" font-family="Times,serif" font-size="14.00">Reaction</text>
</g>
<!-- Behavior&#45;&gt;Reaction -->
<g id="edge11" class="edge"><title>Behavior&#45;&gt;Reaction</title>
<path fill="none" stroke="#006b74" d="M1690.6,-213.195C1677.82,-203.975 1662.63,-193.008 1649.7,-183.681"/>
<ellipse fill="none" stroke="#006b74" cx="1694.23" cy="-215.814" rx="4.00002" ry="4.00002"/>
<polygon fill="#006b74" stroke="#006b74" points="1649.7,-183.676 1644.22,-174.175 1645.64,-180.75 1641.59,-177.824 1641.59,-177.824 1641.59,-177.824 1645.64,-180.75 1638.95,-181.473 1649.7,-183.676 1649.7,-183.676"/>
</g>
<!-- CandidateFeedback -->
<g id="node7" class="node"><title>CandidateFeedback</title>
<ellipse fill="none" stroke="black" cx="955.046" cy="-90" rx="79.8859" ry="18"/>
<text text-anchor="middle" x="955.046" y="-86.3" font-family="Times,serif" font-size="14.00">CandidateFeedback</text>
</g>
<!-- Candidate -->
<g id="node26" class="node"><title>Candidate</title>
<ellipse fill="none" stroke="black" cx="1101.05" cy="-18" rx="46.2923" ry="18"/>
<text text-anchor="middle" x="1101.05" y="-14.3" font-family="Times,serif" font-size="14.00">Candidate</text>
</g>
<!-- CandidateFeedback&#45;&gt;Candidate -->
<g id="edge13" class="edge"><title>CandidateFeedback&#45;&gt;Candidate</title>
<path fill="none" stroke="#206179" d="M994.92,-69.882C1016.43,-59.5694 1042.81,-46.9221 1063.89,-36.8166"/>
<ellipse fill="none" stroke="#206179" cx="991.055" cy="-71.7354" rx="4.00002" ry="4.00002"/>
<polygon fill="#206179" stroke="#206179" points="1064.14,-36.6933 1075.11,-36.4277 1068.65,-34.5316 1073.16,-32.37 1073.16,-32.37 1073.16,-32.37 1068.65,-34.5316 1071.21,-28.3122 1064.14,-36.6933 1064.14,-36.6933"/>
</g>
<!-- Installment -->
<g id="node8" class="node"><title>Installment</title>
<ellipse fill="none" stroke="black" cx="806.046" cy="-90" rx="50.8918" ry="18"/>
<text text-anchor="middle" x="806.046" y="-86.3" font-family="Times,serif" font-size="14.00">Installment</text>
</g>
<!-- Value -->
<g id="node29" class="node"><title>Value</title>
<ellipse fill="none" stroke="black" cx="806.046" cy="-18" rx="31.6951" ry="18"/>
<text text-anchor="middle" x="806.046" y="-14.3" font-family="Times,serif" font-size="14.00">Value</text>
</g>
<!-- Installment&#45;&gt;Value -->
<g id="edge14" class="edge"><title>Installment&#45;&gt;Value</title>
<path fill="none" stroke="#2468a0" d="M806.046,-63.6398C806.046,-58.0629 806.046,-52.1319 806.046,-46.4761"/>
<ellipse fill="none" stroke="#2468a0" cx="806.046" cy="-67.6966" rx="4" ry="4"/>
<polygon fill="#2468a0" stroke="#2468a0" points="806.046,-46.1043 810.546,-36.1043 806.046,-41.1043 806.046,-36.1043 806.046,-36.1043 806.046,-36.1043 806.046,-41.1043 801.546,-36.1044 806.046,-46.1043 806.046,-46.1043"/>
</g>
<!-- ConsentForm -->
<g id="node9" class="node"><title>ConsentForm</title>
<ellipse fill="none" stroke="black" cx="169.046" cy="-522" rx="59.2899" ry="18"/>
<text text-anchor="middle" x="169.046" y="-518.3" font-family="Times,serif" font-size="14.00">ConsentForm</text>
</g>
<!-- ConsentForm&#45;&gt;Project -->
<g id="edge15" class="edge"><title>ConsentForm&#45;&gt;Project</title>
<path fill="none" stroke="#339aaa" d="M154.576,-496.598C145.679,-478.252 137.626,-452.807 147.046,-432 187.051,-343.635 225.911,-334.485 311.046,-288 355.999,-263.455 413.454,-249.301 452.318,-241.894"/>
<ellipse fill="none" stroke="#339aaa" cx="156.558" cy="-500.437" rx="4.00002" ry="4.00002"/>
<polygon fill="#339aaa" stroke="#339aaa" points="452.433,-241.873 463.082,-244.494 457.351,-240.971 462.269,-240.068 462.269,-240.068 462.269,-240.068 457.351,-240.971 461.457,-235.642 452.433,-241.873 452.433,-241.873"/>
</g>
<!-- ConsentLog -->
<g id="node28" class="node"><title>ConsentLog</title>
<ellipse fill="none" stroke="black" cx="210.046" cy="-450" rx="53.8905" ry="18"/>
<text text-anchor="middle" x="210.046" y="-446.3" font-family="Times,serif" font-size="14.00">ConsentLog</text>
</g>
<!-- ConsentForm&#45;&gt;ConsentLog -->
<g id="edge16" class="edge"><title>ConsentForm&#45;&gt;ConsentLog</title>
<path fill="none" stroke="#98c4ef" d="M183.104,-496.998C186.976,-490.387 191.189,-483.194 195.109,-476.502"/>
<ellipse fill="none" stroke="#98c4ef" cx="180.992" cy="-500.603" rx="4.00002" ry="4.00002"/>
<polygon fill="#98c4ef" stroke="#98c4ef" points="195.158,-476.418 204.095,-470.063 197.685,-472.103 200.212,-467.789 200.212,-467.789 200.212,-467.789 197.685,-472.103 196.329,-465.515 195.158,-476.418 195.158,-476.418"/>
</g>
<!-- User&#45;&gt;Installment -->
<g id="edge25" class="edge"><title>User&#45;&gt;Installment</title>
<path fill="none" stroke="#e181fb" d="M1080.63,-498.228C1074.74,-489.05 1068.21,-478.229 1063.05,-468 1039.74,-421.889 1045.96,-404.695 1020.05,-360 962.72,-261.135 871.408,-159.654 829.036,-114.795"/>
<ellipse fill="none" stroke="#e181fb" cx="1082.98" cy="-501.844" rx="4.00002" ry="4.00002"/>
<polygon fill="#e181fb" stroke="#e181fb" points="828.84,-114.588 825.213,-104.24 825.396,-110.964 821.951,-107.34 821.951,-107.34 821.951,-107.34 825.396,-110.964 818.689,-110.44 828.84,-114.588 828.84,-114.588"/>
</g>
<!-- Concept -->
<g id="node12" class="node"><title>Concept</title>
<ellipse fill="none" stroke="black" cx="1173.05" cy="-90" rx="40.0939" ry="18"/>
<text text-anchor="middle" x="1173.05" y="-86.3" font-family="Times,serif" font-size="14.00">Concept</text>
</g>
<!-- User&#45;&gt;Concept -->
<g id="edge21" class="edge"><title>User&#45;&gt;Concept</title>
<path fill="none" stroke="#b10cb3" d="M1130.16,-514.514C1157.31,-507.583 1194.24,-493.891 1216.05,-468 1237.29,-442.77 1230.02,-428.738 1234.05,-396 1236,-380.12 1235.83,-375.901 1234.05,-360 1228.74,-312.623 1194.79,-176.22 1179.96,-117.932"/>
<ellipse fill="none" stroke="#b10cb3" cx="1125.97" cy="-515.52" rx="4.00001" ry="4.00001"/>
<polygon fill="#b10cb3" stroke="#b10cb3" points="1179.9,-117.686 1181.78,-106.884 1178.66,-112.841 1177.42,-107.997 1177.42,-107.997 1177.42,-107.997 1178.66,-112.841 1173.06,-109.109 1179.9,-117.686 1179.9,-117.686"/>
</g>
<!-- User&#45;&gt;Roster -->
<g id="edge26" class="edge"><title>User&#45;&gt;Roster</title>
<path fill="none" stroke="#40327d" d="M1131.68,-520.348C1179.48,-517.882 1265.24,-507.728 1325.05,-468 1389.32,-425.301 1397.88,-397.284 1422.05,-324 1428.63,-304.037 1430.2,-280.248 1430.22,-262.288"/>
<ellipse fill="none" stroke="#40327d" cx="1127.49" cy="-520.535" rx="4" ry="4"/>
<polygon fill="#40327d" stroke="#40327d" points="1430.22,-262.203 1434.58,-252.138 1430.15,-257.203 1430.08,-252.204 1430.08,-252.204 1430.08,-252.204 1430.15,-257.203 1425.58,-252.269 1430.22,-262.203 1430.22,-262.203"/>
</g>
<!-- Group -->
<g id="node15" class="node"><title>Group</title>
<ellipse fill="none" stroke="black" cx="789.046" cy="-450" rx="33.2948" ry="18"/>
<text text-anchor="middle" x="789.046" y="-446.3" font-family="Times,serif" font-size="14.00">Group</text>
</g>
<!-- User&#45;&gt;Group -->
<g id="edge18" class="edge"><title>User&#45;&gt;Group</title>
<path fill="none" stroke="#197b63" d="M1060.74,-512.95C1003.12,-499.812 889.253,-473.849 828.848,-460.076"/>
<polygon fill="#197b63" stroke="#197b63" points="1060.91,-512.989 1069.66,-519.599 1065.79,-514.1 1070.66,-515.212 1070.66,-515.212 1070.66,-515.212 1065.79,-514.1 1071.66,-510.825 1060.91,-512.989 1060.91,-512.989"/>
<polygon fill="#197b63" stroke="#197b63" points="828.672,-460.036 819.923,-453.425 823.798,-458.924 818.923,-457.812 818.923,-457.812 818.923,-457.812 823.798,-458.924 817.922,-462.2 828.672,-460.036 828.672,-460.036"/>
</g>
<!-- User&#45;&gt;Project -->
<g id="edge22" class="edge"><title>User&#45;&gt;Project</title>
<path fill="none" stroke="#76cfb1" d="M1058.76,-519.725C927.294,-514.996 490.29,-497.208 435.046,-468 386.879,-442.534 361.257,-412.146 377.046,-360 391.152,-313.41 435.28,-275.611 465.644,-254.209"/>
<polygon fill="#76cfb1" stroke="#76cfb1" points="1058.76,-519.725 1068.59,-524.578 1063.76,-519.903 1068.75,-520.08 1068.75,-520.08 1068.75,-520.08 1063.76,-519.903 1068.91,-515.583 1058.76,-519.725 1058.76,-519.725"/>
<polygon fill="#76cfb1" stroke="#76cfb1" points="465.94,-254.007 476.734,-252.071 470.066,-251.182 474.192,-248.358 474.192,-248.358 474.192,-248.358 470.066,-251.182 471.65,-244.644 465.94,-254.007 465.94,-254.007"/>
</g>
<!-- Email -->
<g id="node18" class="node"><title>Email</title>
<ellipse fill="none" stroke="black" cx="1175.05" cy="-450" rx="32.4942" ry="18"/>
<text text-anchor="middle" x="1175.05" y="-446.3" font-family="Times,serif" font-size="14.00">Email</text>
</g>
<!-- User&#45;&gt;Email -->
<g id="edge17" class="edge"><title>User&#45;&gt;Email</title>
<path fill="none" stroke="#c76921" d="M1117.67,-501.843C1127.89,-492.78 1140.15,-481.921 1150.7,-472.57"/>
<ellipse fill="none" stroke="#c76921" cx="1114.65" cy="-504.517" rx="4.00002" ry="4.00002"/>
<polygon fill="#c76921" stroke="#c76921" points="1150.89,-472.4 1161.36,-469.136 1154.64,-469.084 1158.38,-465.768 1158.38,-465.768 1158.38,-465.768 1154.64,-469.084 1155.39,-462.4 1150.89,-472.4 1150.89,-472.4"/>
</g>
<!-- HomeCountry -->
<g id="node19" class="node"><title>HomeCountry</title>
<ellipse fill="none" stroke="black" cx="458.046" cy="-378" rx="61.99" ry="18"/>
<text text-anchor="middle" x="458.046" y="-374.3" font-family="Times,serif" font-size="14.00">HomeCountry</text>
</g>
<!-- User&#45;&gt;HomeCountry -->
<g id="edge24" class="edge"><title>User&#45;&gt;HomeCountry</title>
<path fill="none" stroke="#b4c382" d="M1059.06,-517.206C994.979,-510.229 859.383,-493.679 747.046,-468 660.383,-448.19 561.923,-415.647 505.189,-395.883"/>
<polygon fill="#b4c382" stroke="#b4c382" points="1059.14,-517.215 1068.6,-522.757 1064.11,-517.749 1069.08,-518.283 1069.08,-518.283 1069.08,-518.283 1064.11,-517.749 1069.56,-513.808 1059.14,-517.215 1059.14,-517.215"/>
<polygon fill="#b4c382" stroke="#b4c382" points="504.871,-395.772 496.92,-388.22 500.152,-394.12 495.433,-392.467 495.433,-392.467 495.433,-392.467 500.152,-394.12 493.946,-396.714 504.871,-395.772 504.871,-395.772"/>
</g>
<!-- Narrative -->
<g id="node25" class="node"><title>Narrative</title>
<ellipse fill="none" stroke="black" cx="1685.05" cy="-378" rx="44.393" ry="18"/>
<text text-anchor="middle" x="1685.05" y="-374.3" font-family="Times,serif" font-size="14.00">Narrative</text>
</g>
<!-- User&#45;&gt;Narrative -->
<g id="edge29" class="edge"><title>User&#45;&gt;Narrative</title>
<path fill="none" stroke="#0625aa" d="M1133.43,-518.789C1227.31,-512.888 1470.96,-495.334 1547.05,-468 1589.65,-452.693 1632.51,-422.126 1658.9,-401.124"/>
<polygon fill="#0625aa" stroke="#0625aa" points="1133.24,-518.801 1122.98,-514.928 1128.25,-519.11 1123.26,-519.419 1123.26,-519.419 1123.26,-519.419 1128.25,-519.11 1123.53,-523.91 1133.24,-518.801 1133.24,-518.801"/>
<polygon fill="#0625aa" stroke="#0625aa" points="1659.1,-400.964 1669.7,-398.17 1662.99,-397.818 1666.87,-394.672 1666.87,-394.672 1666.87,-394.672 1662.99,-397.818 1664.04,-391.174 1659.1,-400.964 1659.1,-400.964"/>
</g>
<!-- User&#45;&gt;Candidate -->
<g id="edge23" class="edge"><title>User&#45;&gt;Candidate</title>
<path fill="none" stroke="#bbcd3d" d="M1091.21,-496.063C1082.05,-446.52 1063.05,-332.096 1063.05,-235 1063.05,-235 1063.05,-235 1063.05,-161 1063.05,-119.633 1078.28,-73.7216 1089.46,-45.6051"/>
<ellipse fill="none" stroke="#bbcd3d" cx="1091.96" cy="-500.062" rx="4.00001" ry="4.00001"/>
<polygon fill="#bbcd3d" stroke="#bbcd3d" points="1089.56,-45.346 1097.52,-37.7995 1091.46,-40.7194 1093.36,-36.0929 1093.36,-36.0929 1093.36,-36.0929 1091.46,-40.7194 1089.19,-34.3864 1089.56,-45.346 1089.56,-45.346"/>
</g>
<!-- User&#45;&gt;ConsentLog -->
<g id="edge19" class="edge"><title>User&#45;&gt;ConsentLog</title>
<path fill="none" stroke="#86e429" d="M1060.57,-520.976C946.352,-520.417 578.119,-514.838 278.046,-468 272.192,-467.086 266.105,-465.905 260.085,-464.592"/>
<ellipse fill="none" stroke="#86e429" cx="1064.67" cy="-520.993" rx="4" ry="4"/>
<polygon fill="#86e429" stroke="#86e429" points="259.815,-464.529 251.084,-457.895 254.944,-463.404 250.072,-462.279 250.072,-462.279 250.072,-462.279 254.944,-463.404 249.059,-466.664 259.815,-464.529 259.815,-464.529"/>
</g>
<!-- User&#45;&gt;Reaction -->
<g id="edge27" class="edge"><title>User&#45;&gt;Reaction</title>
<path fill="none" stroke="#7ea0d4" d="M1131.53,-519.995C1184.2,-517.196 1284.91,-506.74 1360.05,-468 1484.69,-403.732 1513.67,-369.608 1590.05,-252 1602.39,-232.985 1610.46,-208.478 1615.26,-189.996"/>
<ellipse fill="none" stroke="#7ea0d4" cx="1127.5" cy="-520.19" rx="4" ry="4"/>
<polygon fill="#7ea0d4" stroke="#7ea0d4" points="1615.29,-189.876 1622.03,-181.225 1616.47,-185.018 1617.65,-180.16 1617.65,-180.16 1617.65,-180.16 1616.47,-185.018 1613.28,-179.095 1615.29,-189.876 1615.29,-189.876"/>
</g>
<!-- Assessment -->
<g id="node32" class="node"><title>Assessment</title>
<ellipse fill="none" stroke="black" cx="536.046" cy="-162" rx="52.7911" ry="18"/>
<text text-anchor="middle" x="536.046" y="-158.3" font-family="Times,serif" font-size="14.00">Assessment</text>
</g>
<!-- User&#45;&gt;Assessment -->
<g id="edge30" class="edge"><title>User&#45;&gt;Assessment</title>
<path fill="none" stroke="#c2cf8f" d="M1058.21,-521.506C929.105,-522.724 507.129,-522.36 385.046,-468 332.782,-444.728 292.046,-436.211 292.046,-379 292.046,-379 292.046,-379 292.046,-305 292.046,-219.453 405.469,-184.549 477.652,-170.998"/>
<polygon fill="#c2cf8f" stroke="#c2cf8f" points="1058.4,-521.505 1068.44,-525.901 1063.39,-521.453 1068.39,-521.401 1068.39,-521.401 1068.39,-521.401 1063.39,-521.453 1068.35,-516.901 1058.4,-521.505 1058.4,-521.505"/>
<polygon fill="#c2cf8f" stroke="#c2cf8f" points="477.704,-170.989 488.341,-173.654 482.626,-170.107 487.547,-169.225 487.547,-169.225 487.547,-169.225 482.626,-170.107 486.753,-164.795 477.704,-170.989 477.704,-170.989"/>
</g>
<!-- CandidateList -->
<g id="node33" class="node"><title>CandidateList</title>
<ellipse fill="none" stroke="black" cx="1165.05" cy="-378" rx="59.5901" ry="18"/>
<text text-anchor="middle" x="1165.05" y="-374.3" font-family="Times,serif" font-size="14.00">CandidateList</text>
</g>
<!-- User&#45;&gt;CandidateList -->
<g id="edge20" class="edge"><title>User&#45;&gt;CandidateList</title>
<path fill="none" stroke="#3612e3" d="M1105.53,-496.532C1112.77,-478.439 1123.3,-453.342 1134.05,-432 1138.62,-422.91 1144.1,-413.229 1149.16,-404.662"/>
<ellipse fill="none" stroke="#3612e3" cx="1103.91" cy="-500.595" rx="4.00001" ry="4.00001"/>
<polygon fill="#3612e3" stroke="#3612e3" points="1149.29,-404.455 1158.29,-398.201 1151.86,-400.169 1154.44,-395.884 1154.44,-395.884 1154.44,-395.884 1151.86,-400.169 1150.58,-393.566 1149.29,-404.455 1149.29,-404.455"/>
</g>
<!-- User&#45;&gt;Experience -->
<g id="edge28" class="edge"><title>User&#45;&gt;Experience</title>
<path fill="none" stroke="#f6dff6" d="M1133.53,-521.456C1187.57,-520.441 1288.67,-512.149 1360.05,-468 1442.29,-417.131 1497.61,-310.802 1519.94,-261.345"/>
<polygon fill="#f6dff6" stroke="#f6dff6" points="1133.38,-521.458 1123.33,-517.071 1128.38,-521.514 1123.38,-521.57 1123.38,-521.57 1123.38,-521.57 1128.38,-521.514 1123.43,-526.07 1133.38,-521.458 1133.38,-521.458"/>
<polygon fill="#f6dff6" stroke="#f6dff6" points="1520.04,-261.117 1528.2,-253.789 1522.06,-256.544 1524.08,-251.97 1524.08,-251.97 1524.08,-251.97 1522.06,-256.544 1519.97,-250.151 1520.04,-261.117 1520.04,-261.117"/>
</g>
<!-- HomeState -->
<g id="node11" class="node"><title>HomeState</title>
<ellipse fill="none" stroke="black" cx="484.046" cy="-306" rx="50.0912" ry="18"/>
<text text-anchor="middle" x="484.046" y="-302.3" font-family="Times,serif" font-size="14.00">HomeState</text>
</g>
<!-- HomeState&#45;&gt;User -->
<g id="edge31" class="edge"><title>HomeState&#45;&gt;User</title>
<path fill="none" stroke="#7be948" d="M437.862,-320.488C418.62,-328.642 398.195,-341.204 387.046,-360 378.883,-373.761 377.587,-383.095 387.046,-396 467.434,-505.688 923.443,-519.219 1058.41,-520.81"/>
<ellipse fill="none" stroke="#7be948" cx="441.722" cy="-318.95" rx="4.00001" ry="4.00001"/>
<polygon fill="#7be948" stroke="#7be948" points="1058.66,-520.813 1068.61,-525.415 1063.66,-520.864 1068.66,-520.915 1068.66,-520.915 1068.66,-520.915 1063.66,-520.864 1068.7,-516.415 1058.66,-520.813 1058.66,-520.813"/>
</g>
<!-- Concept&#45;&gt;Candidate -->
<g id="edge32" class="edge"><title>Concept&#45;&gt;Candidate</title>
<path fill="none" stroke="#6f82e8" d="M1151.28,-67.8354C1142.88,-59.6689 1133.24,-50.3046 1124.68,-41.9749"/>
<ellipse fill="none" stroke="#6f82e8" cx="1154.2" cy="-70.6764" rx="4.00002" ry="4.00002"/>
<polygon fill="#6f82e8" stroke="#6f82e8" points="1124.65,-41.948 1120.62,-31.7507 1121.06,-38.4626 1117.48,-34.9772 1117.48,-34.9772 1117.48,-34.9772 1121.06,-38.4626 1114.34,-38.2036 1124.65,-41.948 1124.65,-41.948"/>
</g>
<!-- School -->
<g id="node14" class="node"><title>School</title>
<ellipse fill="none" stroke="black" cx="1316.05" cy="-378" rx="35.194" ry="18"/>
<text text-anchor="middle" x="1316.05" y="-374.3" font-family="Times,serif" font-size="14.00">School</text>
</g>
<!-- School&#45;&gt;Course -->
<g id="edge33" class="edge"><title>School&#45;&gt;Course</title>
<path fill="none" stroke="#ddf38b" d="M1329.28,-353.238C1333.03,-346.506 1337.13,-339.154 1340.93,-332.333"/>
<ellipse fill="none" stroke="#ddf38b" cx="1327.23" cy="-356.917" rx="4.00002" ry="4.00002"/>
<polygon fill="#ddf38b" stroke="#ddf38b" points="1341,-332.206 1349.8,-325.66 1343.44,-327.838 1345.87,-323.47 1345.87,-323.47 1345.87,-323.47 1343.44,-327.838 1341.94,-321.28 1341,-332.206 1341,-332.206"/>
</g>
<!-- School&#45;&gt;Roster -->
<g id="edge37" class="edge"><title>School&#45;&gt;Roster</title>
<path fill="none" stroke="#192ee3" d="M1351.65,-361.615C1368.41,-352.776 1387.44,-340.188 1400.05,-324 1414.05,-306.014 1421.41,-281.022 1425.21,-262.099"/>
<polygon fill="#192ee3" stroke="#192ee3" points="1351.57,-361.657 1340.61,-362.115 1347.1,-363.897 1342.63,-366.138 1342.63,-366.138 1342.63,-366.138 1347.1,-363.897 1344.64,-370.161 1351.57,-361.657 1351.57,-361.657"/>
<polygon fill="#192ee3" stroke="#192ee3" points="1425.25,-261.87 1431.44,-252.82 1426.13,-256.948 1427.01,-252.026 1427.01,-252.026 1427.01,-252.026 1426.13,-256.948 1422.58,-251.233 1425.25,-261.87 1425.25,-261.87"/>
</g>
<!-- School&#45;&gt;Project -->
<g id="edge35" class="edge"><title>School&#45;&gt;Project</title>
<path fill="none" stroke="#9b9fde" d="M1274.19,-368.015C1261.33,-365.337 1247.12,-362.462 1234.05,-360 971.195,-310.51 653.952,-259.798 539.691,-241.82"/>
<polygon fill="#9b9fde" stroke="#9b9fde" points="1274.38,-368.054 1283.24,-374.512 1279.27,-369.081 1284.17,-370.108 1284.17,-370.108 1284.17,-370.108 1279.27,-369.081 1285.09,-365.704 1274.38,-368.054 1274.38,-368.054"/>
<polygon fill="#9b9fde" stroke="#9b9fde" points="539.47,-241.785 530.29,-235.787 534.531,-241.009 529.591,-240.233 529.591,-240.233 529.591,-240.233 534.531,-241.009 528.893,-244.678 539.47,-241.785 539.47,-241.785"/>
</g>
<!-- School&#45;&gt;Experience -->
<g id="edge36" class="edge"><title>School&#45;&gt;Experience</title>
<path fill="none" stroke="#2e6aca" d="M1351.44,-361.697C1372.57,-351.984 1399.57,-338.537 1422.05,-324 1452.78,-304.115 1484.89,-277.013 1506.22,-257.958"/>
<polygon fill="#2e6aca" stroke="#2e6aca" points="1351.3,-361.763 1340.33,-361.787 1346.74,-363.825 1342.19,-365.887 1342.19,-365.887 1342.19,-365.887 1346.74,-363.825 1344.04,-369.986 1351.3,-361.763 1351.3,-361.763"/>
<polygon fill="#2e6aca" stroke="#2e6aca" points="1506.42,-257.778 1516.86,-254.422 1510.13,-254.429 1513.85,-251.08 1513.85,-251.08 1513.85,-251.08 1510.13,-254.429 1510.83,-247.739 1506.42,-257.778 1506.42,-257.778"/>
</g>
<!-- School&#45;&gt;BingoGame -->
<g id="edge34" class="edge"><title>School&#45;&gt;BingoGame</title>
<path fill="none" stroke="#45e0cf" d="M1308.85,-349.996C1297.91,-308.927 1277.21,-231.211 1266.26,-190.091"/>
<polygon fill="#45e0cf" stroke="#45e0cf" points="1308.9,-350.186 1307.13,-361.007 1310.19,-355.018 1311.48,-359.849 1311.48,-359.849 1311.48,-359.849 1310.19,-355.018 1315.83,-358.691 1308.9,-350.186 1308.9,-350.186"/>
<polygon fill="#45e0cf" stroke="#45e0cf" points="1266.21,-189.896 1267.98,-179.074 1264.92,-185.064 1263.64,-180.232 1263.64,-180.232 1263.64,-180.232 1264.92,-185.064 1259.29,-181.391 1266.21,-189.896 1266.21,-189.896"/>
</g>
<!-- Group&#45;&gt;Installment -->
<g id="edge40" class="edge"><title>Group&#45;&gt;Installment</title>
<path fill="none" stroke="#568134" d="M794.455,-423.918C800.072,-395.648 808.046,-348.249 808.046,-307 808.046,-307 808.046,-307 808.046,-233 808.046,-192.992 807.242,-146.65 806.654,-118.078"/>
<ellipse fill="none" stroke="#568134" cx="793.598" cy="-428.129" rx="4.00001" ry="4.00001"/>
<polygon fill="#568134" stroke="#568134" points="806.653,-118.046 810.94,-107.953 806.547,-113.047 806.441,-108.048 806.441,-108.048 806.441,-108.048 806.547,-113.047 801.942,-108.144 806.653,-118.046 806.653,-118.046"/>
</g>
<!-- Group&#45;&gt;HomeState -->
<g id="edge41" class="edge"><title>Group&#45;&gt;HomeState</title>
<path fill="none" stroke="#7810fd" d="M746.341,-445.504C700.651,-440.238 627.302,-427.293 572.046,-396 556.824,-387.379 525.937,-354.394 505.113,-331.104"/>
<polygon fill="#7810fd" stroke="#7810fd" points="746.551,-445.526 756.01,-451.074 751.522,-446.063 756.493,-446.6 756.493,-446.6 756.493,-446.6 751.522,-446.063 756.976,-442.126 746.551,-445.526 746.551,-445.526"/>
<polygon fill="#7810fd" stroke="#7810fd" points="504.847,-330.805 501.574,-320.339 501.528,-327.066 498.209,-323.326 498.209,-323.326 498.209,-323.326 501.528,-327.066 494.843,-326.314 504.847,-330.805 504.847,-330.805"/>
</g>
<!-- Gender -->
<g id="node17" class="node"><title>Gender</title>
<ellipse fill="none" stroke="black" cx="872.046" cy="-378" rx="36.2938" ry="18"/>
<text text-anchor="middle" x="872.046" y="-374.3" font-family="Times,serif" font-size="14.00">Gender</text>
</g>
<!-- Group&#45;&gt;Gender -->
<g id="edge44" class="edge"><title>Group&#45;&gt;Gender</title>
<path fill="none" stroke="#9e3fa1" d="M813.942,-428.003C824.197,-419.355 836.071,-409.34 846.403,-400.626"/>
<polygon fill="#9e3fa1" stroke="#9e3fa1" points="813.888,-428.049 803.342,-431.056 810.065,-431.272 806.243,-434.496 806.243,-434.496 806.243,-434.496 810.065,-431.272 809.144,-437.936 813.888,-428.049 813.888,-428.049"/>
<polygon fill="#9e3fa1" stroke="#9e3fa1" points="846.653,-400.416 857.198,-397.408 850.475,-397.192 854.297,-393.968 854.297,-393.968 854.297,-393.968 850.475,-397.192 851.396,-390.528 846.653,-400.416 846.653,-400.416"/>
</g>
<!-- Group&#45;&gt;HomeCountry -->
<g id="edge42" class="edge"><title>Group&#45;&gt;HomeCountry</title>
<path fill="none" stroke="#cba209" d="M748.555,-440.781C698.225,-430.52 609.718,-412.326 534.046,-396 527.974,-394.69 521.635,-393.303 515.319,-391.908"/>
<polygon fill="#cba209" stroke="#cba209" points="748.598,-440.79 757.499,-447.195 753.498,-441.788 758.397,-442.786 758.397,-442.786 758.397,-442.786 753.498,-441.788 759.295,-438.377 748.598,-440.79 748.598,-440.79"/>
<polygon fill="#cba209" stroke="#cba209" points="515.217,-391.886 506.429,-385.328 510.336,-390.803 505.455,-389.721 505.455,-389.721 505.455,-389.721 510.336,-390.803 504.48,-394.114 515.217,-391.886 515.217,-391.886"/>
</g>
<!-- CipCode -->
<g id="node23" class="node"><title>CipCode</title>
<ellipse fill="none" stroke="black" cx="969.046" cy="-378" rx="42.4939" ry="18"/>
<text text-anchor="middle" x="969.046" y="-374.3" font-family="Times,serif" font-size="14.00">CipCode</text>
</g>
<!-- Group&#45;&gt;CipCode -->
<g id="edge43" class="edge"><title>Group&#45;&gt;CipCode</title>
<path fill="none" stroke="#5c68e3" d="M824.609,-435.17C854.748,-423.449 897.933,-406.655 929.224,-394.486"/>
<polygon fill="#5c68e3" stroke="#5c68e3" points="824.539,-435.197 813.588,-434.627 819.879,-437.009 815.219,-438.821 815.219,-438.821 815.219,-438.821 819.879,-437.009 816.85,-443.015 824.539,-435.197 824.539,-435.197"/>
<polygon fill="#5c68e3" stroke="#5c68e3" points="929.614,-394.334 940.565,-394.904 934.274,-392.522 938.934,-390.71 938.934,-390.71 938.934,-390.71 934.274,-392.522 937.303,-386.516 929.614,-394.334 929.614,-394.334"/>
</g>
<!-- GroupRevision -->
<g id="node27" class="node"><title>GroupRevision</title>
<ellipse fill="none" stroke="black" cx="678.046" cy="-378" rx="64.189" ry="18"/>
<text text-anchor="middle" x="678.046" y="-374.3" font-family="Times,serif" font-size="14.00">GroupRevision</text>
</g>
<!-- Group&#45;&gt;GroupRevision -->
<g id="edge38" class="edge"><title>Group&#45;&gt;GroupRevision</title>
<path fill="none" stroke="#26cc00" d="M761.351,-431.535C746.275,-422.027 727.507,-410.192 711.604,-400.163"/>
<ellipse fill="none" stroke="#26cc00" cx="764.784" cy="-433.7" rx="4.00002" ry="4.00002"/>
<polygon fill="#26cc00" stroke="#26cc00" points="711.564,-400.138 705.506,-390.997 707.335,-397.471 703.105,-394.803 703.105,-394.803 703.105,-394.803 707.335,-397.471 700.705,-398.61 711.564,-400.138 711.564,-400.138"/>
</g>
<!-- Group&#45;&gt;CandidateList -->
<g id="edge39" class="edge"><title>Group&#45;&gt;CandidateList</title>
<path fill="none" stroke="#6a8a81" d="M827.829,-441.78C893.694,-429.518 1027.82,-404.548 1105.6,-390.067"/>
<ellipse fill="none" stroke="#6a8a81" cx="823.748" cy="-442.539" rx="4.00001" ry="4.00001"/>
<polygon fill="#6a8a81" stroke="#6a8a81" points="1105.89,-390.013 1116.55,-392.606 1110.81,-389.097 1115.72,-388.182 1115.72,-388.182 1115.72,-388.182 1110.81,-389.097 1114.9,-383.758 1105.89,-390.013 1105.89,-390.013"/>
</g>
<!-- Project&#45;&gt;Group -->
<g id="edge45" class="edge"><title>Project&#45;&gt;Group</title>
<path fill="none" stroke="#882032" d="M517.029,-256.623C525.561,-265.917 535.23,-277.128 543.046,-288 575.353,-332.939 561.494,-361.845 605.046,-396 627.284,-413.44 701.146,-431.093 748.25,-440.983"/>
<ellipse fill="none" stroke="#882032" cx="514.068" cy="-253.447" rx="4.00002" ry="4.00002"/>
<polygon fill="#882032" stroke="#882032" points="748.363,-441.006 757.244,-447.438 753.259,-442.019 758.156,-443.031 758.156,-443.031 758.156,-443.031 753.259,-442.019 759.067,-438.625 748.363,-441.006 748.363,-441.006"/>
</g>
<!-- Project&#45;&gt;Factor -->
<g id="edge48" class="edge"><title>Project&#45;&gt;Factor</title>
<path fill="none" stroke="#2d8dea" d="M484.047,-206.779C480.491,-198.348 476.813,-188.888 474.046,-180 467.675,-159.541 462.722,-135.781 459.472,-117.959"/>
<polygon fill="#2d8dea" stroke="#2d8dea" points="484.115,-206.937 483.975,-217.902 486.108,-211.522 488.102,-216.108 488.102,-216.108 488.102,-216.108 486.108,-211.522 492.229,-214.314 484.115,-206.937 484.115,-206.937"/>
<polygon fill="#2d8dea" stroke="#2d8dea" points="459.447,-117.817 462.147,-107.188 458.581,-112.892 457.715,-107.968 457.715,-107.968 457.715,-107.968 458.581,-112.892 453.283,-108.747 459.447,-117.817 459.447,-117.817"/>
</g>
<!-- Project&#45;&gt;Assessment -->
<g id="edge47" class="edge"><title>Project&#45;&gt;Assessment</title>
<path fill="none" stroke="#3b7a7d" d="M509.562,-209.346C513.349,-202.719 517.484,-195.483 521.337,-188.74"/>
<ellipse fill="none" stroke="#3b7a7d" cx="507.51" cy="-212.938" rx="4.00002" ry="4.00002"/>
<polygon fill="#3b7a7d" stroke="#3b7a7d" points="521.395,-188.639 530.263,-182.189 523.876,-184.297 526.356,-179.956 526.356,-179.956 526.356,-179.956 523.876,-184.297 522.449,-177.724 521.395,-188.639 521.395,-188.639"/>
</g>
<!-- Project&#45;&gt;BingoGame -->
<g id="edge46" class="edge"><title>Project&#45;&gt;BingoGame</title>
<path fill="none" stroke="#179f88" d="M539.079,-229.052C667.378,-217.281 1047.61,-182.398 1197.4,-168.655"/>
<ellipse fill="none" stroke="#179f88" cx="534.796" cy="-229.445" rx="4" ry="4"/>
<polygon fill="#179f88" stroke="#179f88" points="1197.83,-168.617 1208.2,-172.184 1202.81,-168.16 1207.78,-167.703 1207.78,-167.703 1207.78,-167.703 1202.81,-168.16 1207.37,-163.222 1197.83,-168.617 1197.83,-168.617"/>
</g>
<!-- Gender&#45;&gt;User -->
<g id="edge49" class="edge"><title>Gender&#45;&gt;User</title>
<path fill="none" stroke="#59dfb9" d="M896.871,-398.83C920.992,-417.678 959.008,-446.289 994.046,-468 1017.18,-482.337 1044.62,-496.442 1065.21,-506.493"/>
<ellipse fill="none" stroke="#59dfb9" cx="893.596" cy="-396.257" rx="4.00002" ry="4.00002"/>
<polygon fill="#59dfb9" stroke="#59dfb9" points="1065.43,-506.597 1072.47,-514.999 1069.93,-508.772 1074.43,-510.947 1074.43,-510.947 1074.43,-510.947 1069.93,-508.772 1076.39,-506.895 1065.43,-506.597 1065.43,-506.597"/>
</g>
<!-- HomeCountry&#45;&gt;HomeState -->
<g id="edge50" class="edge"><title>HomeCountry&#45;&gt;HomeState</title>
<path fill="none" stroke="#42e857" d="M467.128,-352.548C469.347,-346.574 471.733,-340.148 473.994,-334.061"/>
<ellipse fill="none" stroke="#42e857" cx="465.732" cy="-356.305" rx="4.00001" ry="4.00001"/>
<polygon fill="#42e857" stroke="#42e857" points="474.147,-333.65 481.847,-325.842 475.888,-328.962 477.629,-324.275 477.629,-324.275 477.629,-324.275 475.888,-328.962 473.411,-322.708 474.147,-333.65 474.147,-333.65"/>
</g>
<!-- Language -->
<g id="node20" class="node"><title>Language</title>
<ellipse fill="none" stroke="black" cx="1146.05" cy="-615" rx="45.4919" ry="18"/>
<text text-anchor="middle" x="1146.05" y="-611.3" font-family="Times,serif" font-size="14.00">Language</text>
</g>
<!-- Language&#45;&gt;User -->
<g id="edge51" class="edge"><title>Language&#45;&gt;User</title>
<path fill="none" stroke="#6e9a91" d="M1131.82,-588.115C1124.95,-575.598 1116.72,-560.631 1109.89,-548.204"/>
<polygon fill="#6e9a91" stroke="#6e9a91" points="1132.06,-588.545 1132.93,-599.476 1134.47,-592.927 1136.87,-597.309 1136.87,-597.309 1136.87,-597.309 1134.47,-592.927 1140.82,-595.142 1132.06,-588.545 1132.06,-588.545"/>
<polygon fill="#6e9a91" stroke="#6e9a91" points="1109.81,-548.043 1108.93,-537.112 1107.4,-543.661 1104.99,-539.279 1104.99,-539.279 1104.99,-539.279 1107.4,-543.661 1101.05,-541.446 1109.81,-548.043 1109.81,-548.043"/>
</g>
<!-- Diagnosis&#45;&gt;User -->
<g id="edge52" class="edge"><title>Diagnosis&#45;&gt;User</title>
<path fill="none" stroke="#60e13f" d="M1803.02,-110.534C1815.31,-119.623 1828.99,-131.244 1839.05,-144 1866.12,-178.349 1881.05,-189.261 1881.05,-233 1881.05,-379 1881.05,-379 1881.05,-379 1881.05,-456.308 1283.89,-506.782 1131.24,-518.422"/>
<ellipse fill="none" stroke="#60e13f" cx="1799.61" cy="-108.088" rx="4.00002" ry="4.00002"/>
<ellipse fill="#60e13f" stroke="#60e13f" cx="1127.06" cy="-518.739" rx="4" ry="4"/>
</g>
<!-- CipCode&#45;&gt;User -->
<g id="edge53" class="edge"><title>CipCode&#45;&gt;User</title>
<path fill="none" stroke="#3dd8fd" d="M980.867,-402.776C990.986,-421.71 1006.79,-448.226 1025.05,-468 1037.54,-481.535 1053.89,-494.005 1067.74,-503.445"/>
<ellipse fill="none" stroke="#3dd8fd" cx="979.001" cy="-399.213" rx="4.00002" ry="4.00002"/>
<polygon fill="#3dd8fd" stroke="#3dd8fd" points="1068.08,-503.672 1073.94,-512.944 1072.25,-506.432 1076.42,-509.192 1076.42,-509.192 1076.42,-509.192 1072.25,-506.432 1078.91,-505.44 1068.08,-503.672 1068.08,-503.672"/>
</g>
<!-- Week -->
<g id="node24" class="node"><title>Week</title>
<ellipse fill="none" stroke="black" cx="1745.05" cy="-306" rx="31.6951" ry="18"/>
<text text-anchor="middle" x="1745.05" y="-302.3" font-family="Times,serif" font-size="14.00">Week</text>
</g>
<!-- Week&#45;&gt;Behavior -->
<g id="edge54" class="edge"><title>Week&#45;&gt;Behavior</title>
<path fill="none" stroke="#8b9b8e" d="M1735.61,-280.548C1733.03,-273.846 1730.22,-266.575 1727.63,-259.851"/>
<ellipse fill="none" stroke="#8b9b8e" cx="1737.07" cy="-284.323" rx="4.00001" ry="4.00001"/>
<ellipse fill="#8b9b8e" stroke="#8b9b8e" cx="1726.15" cy="-256.007" rx="4.00001" ry="4.00001"/>
</g>
<!-- Week&#45;&gt;Diagnosis -->
<g id="edge55" class="edge"><title>Week&#45;&gt;Diagnosis</title>
<path fill="none" stroke="#f2c2d2" d="M1764.25,-283.281C1783.67,-259.736 1812.43,-220.122 1824.05,-180 1828.5,-164.631 1830.03,-158.84 1824.05,-144 1819.27,-132.156 1810.45,-121.478 1801.46,-112.862"/>
<ellipse fill="none" stroke="#f2c2d2" cx="1761.61" cy="-286.42" rx="4.00002" ry="4.00002"/>
<polygon fill="#f2c2d2" stroke="#f2c2d2" points="1801.4,-112.811 1796.97,-102.781 1797.68,-109.47 1793.96,-106.13 1793.96,-106.13 1793.96,-106.13 1797.68,-109.47 1790.96,-109.478 1801.4,-112.811 1801.4,-112.811"/>
</g>
<!-- Narrative&#45;&gt;Behavior -->
<g id="edge57" class="edge"><title>Narrative&#45;&gt;Behavior</title>
<path fill="none" stroke="#faf74a" d="M1690.11,-351.692C1693.77,-333.841 1698.94,-309.395 1704.05,-288 1706.24,-278.786 1708.85,-268.726 1711.21,-259.869"/>
<ellipse fill="none" stroke="#faf74a" cx="1689.24" cy="-355.964" rx="4.00001" ry="4.00001"/>
<ellipse fill="#faf74a" stroke="#faf74a" cx="1712.26" cy="-255.996" rx="4.00001" ry="4.00001"/>
</g>
<!-- Narrative&#45;&gt;Week -->
<g id="edge56" class="edge"><title>Narrative&#45;&gt;Week</title>
<path fill="none" stroke="#683b80" d="M1704.29,-354.551C1710.83,-346.917 1718.16,-338.365 1724.78,-330.64"/>
<ellipse fill="none" stroke="#683b80" cx="1701.56" cy="-357.728" rx="4.00002" ry="4.00002"/>
<polygon fill="#683b80" stroke="#683b80" points="1725.11,-330.258 1735.03,-325.594 1728.36,-326.462 1731.62,-322.666 1731.62,-322.666 1731.62,-322.666 1728.36,-326.462 1728.2,-319.737 1725.11,-330.258 1725.11,-330.258"/>
</g>
<!-- Narrative&#45;&gt;Reaction -->
<g id="edge58" class="edge"><title>Narrative&#45;&gt;Reaction</title>
<path fill="none" stroke="#f408e0" d="M1677.55,-351.924C1665.39,-311.262 1641.47,-231.305 1629.02,-189.653"/>
<ellipse fill="none" stroke="#f408e0" cx="1678.77" cy="-356.017" rx="4.00001" ry="4.00001"/>
<polygon fill="#f408e0" stroke="#f408e0" points="1628.98,-189.516 1630.42,-178.646 1627.54,-184.726 1626.11,-179.935 1626.11,-179.935 1626.11,-179.935 1627.54,-184.726 1621.8,-181.225 1628.98,-189.516 1628.98,-189.516"/>
</g>
<!-- Scenario&#45;&gt;Narrative -->
<g id="edge59" class="edge"><title>Scenario&#45;&gt;Narrative</title>
<path fill="none" stroke="#71915b" d="M1783.37,-187.498C1795.71,-220.94 1811.7,-281.566 1786.05,-324 1774.11,-343.749 1752.1,-356.501 1731.68,-364.534"/>
<ellipse fill="none" stroke="#71915b" cx="1781.93" cy="-183.737" rx="4.00001" ry="4.00001"/>
<polygon fill="#71915b" stroke="#71915b" points="1731.54,-364.586 1720.6,-363.775 1726.84,-366.295 1722.14,-368.004 1722.14,-368.004 1722.14,-368.004 1726.84,-366.295 1723.68,-372.233 1731.54,-364.586 1731.54,-364.586"/>
</g>
<!-- Reaction&#45;&gt;Course -->
<g id="edge60" class="edge"><title>Reaction&#45;&gt;Course</title>
<path fill="none" stroke="#c4fef1" d="M1572.33,-168.395C1511.8,-176.025 1413.16,-191.794 1386.05,-216 1367.89,-232.207 1360.37,-259.629 1357.25,-279.76"/>
<ellipse fill="none" stroke="#c4fef1" cx="1576.64" cy="-167.863" rx="4.00001" ry="4.00001"/>
<ellipse fill="#c4fef1" stroke="#c4fef1" cx="1356.69" cy="-283.922" rx="4.00001" ry="4.00001"/>
</g>
<!-- Reaction&#45;&gt;Diagnosis -->
<g id="edge61" class="edge"><title>Reaction&#45;&gt;Diagnosis</title>
<path fill="none" stroke="#7deb15" d="M1655.86,-144.968C1679.54,-134.063 1710.86,-119.639 1735.16,-108.447"/>
<ellipse fill="none" stroke="#7deb15" cx="1652.2" cy="-146.65" rx="4.00002" ry="4.00002"/>
<polygon fill="#7deb15" stroke="#7deb15" points="1735.35,-108.359 1746.32,-108.264 1739.89,-106.268 1744.43,-104.176 1744.43,-104.176 1744.43,-104.176 1739.89,-106.268 1742.55,-100.089 1735.35,-108.359 1735.35,-108.359"/>
</g>
<!-- Assessment&#45;&gt;Installment -->
<g id="edge62" class="edge"><title>Assessment&#45;&gt;Installment</title>
<path fill="none" stroke="#9d170c" d="M584.52,-148.433C633.135,-135.829 707.621,-116.517 756.583,-103.824"/>
<ellipse fill="none" stroke="#9d170c" cx="580.632" cy="-149.441" rx="4.00001" ry="4.00001"/>
<polygon fill="#9d170c" stroke="#9d170c" points="756.642,-103.808 767.451,-105.655 761.482,-102.554 766.322,-101.299 766.322,-101.299 766.322,-101.299 761.482,-102.554 765.192,-96.9428 756.642,-103.808 756.642,-103.808"/>
</g>
<!-- Assessment&#45;&gt;Group -->
<g id="edge64" class="edge"><title>Assessment&#45;&gt;Group</title>
<path fill="none" stroke="#15e8c7" d="M566.718,-184.392C612.237,-217.473 697.988,-285.095 751.046,-360 764.647,-379.202 774.74,-404.034 781.093,-422.587"/>
<polygon fill="#15e8c7" stroke="#15e8c7" points="566.555,-184.275 561.067,-174.781 562.497,-181.354 558.438,-178.434 558.438,-178.434 558.438,-178.434 562.497,-181.354 555.81,-182.086 566.555,-184.275 566.555,-184.275"/>
<polygon fill="#15e8c7" stroke="#15e8c7" points="781.12,-422.67 779.959,-433.575 782.678,-427.422 784.235,-432.173 784.235,-432.173 784.235,-432.173 782.678,-427.422 788.511,-430.771 781.12,-422.67 781.12,-422.67"/>
</g>
<!-- Assessment&#45;&gt;Factor -->
<g id="edge63" class="edge"><title>Assessment&#45;&gt;Factor</title>
<path fill="none" stroke="#36750b" d="M509.853,-138.365C500.143,-129.973 489.173,-120.493 479.613,-112.231"/>
<polygon fill="#36750b" stroke="#36750b" points="510.099,-138.577 514.723,-148.521 513.882,-141.847 517.665,-145.116 517.665,-145.116 517.665,-145.116 513.882,-141.847 520.608,-141.711 510.099,-138.577 510.099,-138.577"/>
<polygon fill="#36750b" stroke="#36750b" points="479.538,-112.166 474.914,-102.223 475.755,-108.897 471.972,-105.628 471.972,-105.628 471.972,-105.628 475.755,-108.897 469.029,-109.032 479.538,-112.166 479.538,-112.166"/>
</g>
<!-- CandidateList&#45;&gt;Course -->
<g id="edge67" class="edge"><title>CandidateList&#45;&gt;Course</title>
<path fill="none" stroke="#a7a3d6" d="M1208.77,-360.893C1242.31,-348.534 1288.03,-331.688 1319.38,-320.139"/>
<ellipse fill="none" stroke="#a7a3d6" cx="1204.98" cy="-362.286" rx="4.00001" ry="4.00001"/>
<ellipse fill="#a7a3d6" stroke="#a7a3d6" cx="1323.27" cy="-318.706" rx="4.00001" ry="4.00001"/>
</g>
<!-- CandidateList&#45;&gt;Concept -->
<g id="edge66" class="edge"><title>CandidateList&#45;&gt;Concept</title>
<path fill="none" stroke="#d55df0" d="M1163.03,-349.928C1160.2,-306.414 1156.1,-218.261 1163.05,-144 1163.84,-135.478 1165.35,-126.285 1166.95,-117.986"/>
<polygon fill="#d55df0" stroke="#d55df0" points="1163.04,-350.017 1159.23,-360.3 1163.38,-355.005 1163.72,-359.994 1163.72,-359.994 1163.72,-359.994 1163.38,-355.005 1168.21,-359.687 1163.04,-350.017 1163.04,-350.017"/>
<polygon fill="#d55df0" stroke="#d55df0" points="1166.97,-117.866 1173.39,-108.977 1167.98,-112.968 1168.99,-108.071 1168.99,-108.071 1168.99,-108.071 1167.98,-112.968 1164.58,-107.165 1166.97,-117.866 1166.97,-117.866"/>
</g>
<!-- CandidateList&#45;&gt;Candidate -->
<g id="edge65" class="edge"><title>CandidateList&#45;&gt;Candidate</title>
<path fill="none" stroke="#66eed4" d="M1146.93,-353.407C1128.01,-326.354 1101.05,-279.929 1101.05,-235 1101.05,-235 1101.05,-235 1101.05,-161 1101.05,-120.996 1101.05,-74.6528 1101.05,-46.0798"/>
<ellipse fill="none" stroke="#66eed4" cx="1149.45" cy="-356.929" rx="4.00002" ry="4.00002"/>
<polygon fill="#66eed4" stroke="#66eed4" points="1101.05,-46.0493 1105.55,-36.0492 1101.05,-41.0493 1101.05,-36.0493 1101.05,-36.0493 1101.05,-36.0493 1101.05,-41.0493 1096.55,-36.0493 1101.05,-46.0493 1101.05,-46.0493"/>
</g>
<!-- Experience&#45;&gt;Reaction -->
<g id="edge68" class="edge"><title>Experience&#45;&gt;Reaction</title>
<path fill="none" stroke="#58867a" d="M1557.65,-212.309C1568.94,-203.524 1582.11,-193.285 1593.5,-184.422"/>
<ellipse fill="none" stroke="#58867a" cx="1554.18" cy="-215.009" rx="4.00002" ry="4.00002"/>
<polygon fill="#58867a" stroke="#58867a" points="1593.54,-184.39 1604.2,-181.803 1597.49,-181.321 1601.44,-178.251 1601.44,-178.251 1601.44,-178.251 1597.49,-181.321 1598.67,-174.699 1593.54,-184.39 1593.54,-184.39"/>
</g>
<!-- BingoGame&#45;&gt;Concept -->
<g id="edge71" class="edge"><title>BingoGame&#45;&gt;Concept</title>
<path fill="none" stroke="#6d5a1e" d="M1231.73,-138.763C1221.4,-130.358 1209.68,-120.815 1199.44,-112.481"/>
<polygon fill="#6d5a1e" stroke="#6d5a1e" points="1231.78,-138.803 1236.69,-148.606 1235.65,-141.96 1239.53,-145.116 1239.53,-145.116 1239.53,-145.116 1235.65,-141.96 1242.37,-141.626 1231.78,-138.803 1231.78,-138.803"/>
<polygon fill="#6d5a1e" stroke="#6d5a1e" points="1199.35,-112.414 1194.44,-102.611 1195.48,-109.258 1191.6,-106.101 1191.6,-106.101 1191.6,-106.101 1195.48,-109.258 1188.76,-109.591 1199.35,-112.414 1199.35,-112.414"/>
</g>
<!-- BingoGame&#45;&gt;Candidate -->
<g id="edge70" class="edge"><title>BingoGame&#45;&gt;Candidate</title>
<path fill="none" stroke="#15bc6b" d="M1253.51,-134.027C1248.31,-114.634 1238.74,-89.008 1222.05,-72 1202.42,-52.0026 1173.97,-39.0214 1149.59,-30.914"/>
<polygon fill="#15bc6b" stroke="#15bc6b" points="1253.53,-134.082 1251.55,-144.868 1254.72,-138.938 1255.92,-143.793 1255.92,-143.793 1255.92,-143.793 1254.72,-138.938 1260.29,-142.719 1253.53,-134.082 1253.53,-134.082"/>
<polygon fill="#15bc6b" stroke="#15bc6b" points="1149.32,-30.8288 1141.12,-23.5413 1144.55,-29.3318 1139.77,-27.8349 1139.77,-27.8349 1139.77,-27.8349 1144.55,-29.3318 1138.43,-32.1285 1149.32,-30.8288 1149.32,-30.8288"/>
</g>
<!-- BingoGame&#45;&gt;CandidateList -->
<g id="edge69" class="edge"><title>BingoGame&#45;&gt;CandidateList</title>
<path fill="none" stroke="#d7c480" d="M1248.29,-187.483C1230.49,-228.016 1195.03,-308.73 1176.67,-350.533"/>
<ellipse fill="none" stroke="#d7c480" cx="1250" cy="-183.598" rx="4.00002" ry="4.00002"/>
<polygon fill="#d7c480" stroke="#d7c480" points="1176.6,-350.694 1168.46,-358.039 1174.59,-355.271 1172.58,-359.849 1172.58,-359.849 1172.58,-359.849 1174.59,-355.271 1176.7,-361.659 1176.6,-350.694 1176.6,-350.694"/>
</g>
<!-- Role -->
<g id="node36" class="node"><title>Role</title>
<ellipse fill="none" stroke="black" cx="1419.05" cy="-615" rx="27.0966" ry="18"/>
<text text-anchor="middle" x="1419.05" y="-611.3" font-family="Times,serif" font-size="14.00">Role</text>
</g>
<!-- Role&#45;&gt;User -->
<g id="edge72" class="edge"><title>Role&#45;&gt;User</title>
<path fill="none" stroke="#4c7602" d="M1386.67,-604.879C1325.57,-587.665 1193.75,-550.527 1130.84,-532.802"/>
<ellipse fill="none" stroke="#4c7602" cx="1390.65" cy="-606.001" rx="4.00001" ry="4.00001"/>
<polygon fill="#4c7602" stroke="#4c7602" points="1130.62,-532.741 1122.21,-525.697 1125.81,-531.385 1120.99,-530.029 1120.99,-530.029 1120.99,-530.029 1125.81,-531.385 1119.77,-534.36 1130.62,-532.741 1130.62,-532.741"/>
</g>
<!-- Role&#45;&gt;Roster -->
<g id="edge73" class="edge"><title>Role&#45;&gt;Roster</title>
<path fill="none" stroke="#029f58" d="M1421.35,-588.998C1425.85,-538.815 1435.66,-422.218 1439.05,-324 1439.6,-308.009 1440.54,-303.93 1439.05,-288 1438.25,-279.478 1436.75,-270.285 1435.14,-261.986"/>
<ellipse fill="none" stroke="#029f58" cx="1420.99" cy="-593.04" rx="4" ry="4"/>
<polygon fill="#029f58" stroke="#029f58" points="1435.12,-261.866 1437.51,-251.165 1434.11,-256.968 1433.1,-252.071 1433.1,-252.071 1433.1,-252.071 1434.11,-256.968 1428.7,-252.977 1435.12,-261.866 1435.12,-261.866"/>
</g>
<!-- Quote -->
<g id="node37" class="node"><title>Quote</title>
<ellipse fill="none" stroke="black" cx="1497.05" cy="-615" rx="32.4942" ry="18"/>
<text text-anchor="middle" x="1497.05" y="-611.3" font-family="Times,serif" font-size="14.00">Quote</text>
</g>
</g>
</svg>
