<?xml version="1.0" encoding="UTF-8" standalone="no"?>
<!DOCTYPE svg PUBLIC "-//W3C//DTD SVG 1.1//EN"
 "http://www.w3.org/Graphics/SVG/1.1/DTD/svg11.dtd">
<!-- Generated by graphviz version 2.38.0 (20140413.2041)
 -->
<!-- Title: models_diagram Pages: 1 -->
<svg width="1087pt" height="374pt"
 viewBox="0.00 0.00 1086.85 374.00" xmlns="http://www.w3.org/2000/svg" xmlns:xlink="http://www.w3.org/1999/xlink">
<g id="graph0" class="graph" transform="scale(1 1) rotate(0) translate(4 370)">
<title>models_diagram</title>
<polygon fill="none" stroke="none" points="-4,4 -4,-370 1082.85,-370 1082.85,4 -4,4"/>
<!-- _diagram_info -->
<g id="node1" class="node"><title>_diagram_info</title>
<text text-anchor="start" x="8" y="-351.6" font-family="Times,serif" font-size="13.00">Models diagram</text>
<text text-anchor="start" x="8" y="-337.6" font-family="Times,serif" font-size="13.00">Date: Jan 19 2017 &#45; 19:45</text>
<text text-anchor="start" x="8" y="-323.6" font-family="Times,serif" font-size="13.00">Migration version: 20170119092916</text>
<text text-anchor="start" x="8" y="-309.6" font-family="Times,serif" font-size="13.00">Generated by RailRoady 1.5.2</text>
<text text-anchor="start" x="8" y="-295.6" font-family="Times,serif" font-size="13.00">http://railroady.prestonlee.com</text>
</g>
<!-- GroupProjectCount -->
<g id="node2" class="node"><title>GroupProjectCount</title>
<ellipse fill="none" stroke="black" cx="593" cy="-327" rx="79.0865" ry="18"/>
<text text-anchor="middle" x="593" y="-323.3" font-family="Times,serif" font-size="14.00">GroupProjectCount</text>
</g>
<!-- User -->
<g id="node8" class="node"><title>User</title>
<ellipse fill="none" stroke="black" cx="570" cy="-234" rx="27.0966" ry="18"/>
<text text-anchor="middle" x="570" y="-230.3" font-family="Times,serif" font-size="14.00">User</text>
</g>
<!-- GroupProjectCount&#45;&gt;User -->
<g id="edge1" class="edge"><title>GroupProjectCount&#45;&gt;User</title>
<path fill="none" stroke="#dc5677" d="M586.613,-300.729C583.548,-288.603 579.875,-274.072 576.763,-261.759"/>
<ellipse fill="none" stroke="#dc5677" cx="587.694" cy="-305.006" rx="4.00001" ry="4.00001"/>
<polygon fill="#dc5677" stroke="#dc5677" points="576.757,-261.735 578.67,-250.937 575.532,-256.887 574.307,-252.04 574.307,-252.04 574.307,-252.04 575.532,-256.887 569.944,-253.142 576.757,-261.735 576.757,-261.735"/>
</g>
<!-- FactorPack -->
<g id="node3" class="node"><title>FactorPack</title>
<ellipse fill="none" stroke="black" cx="88" cy="-234" rx="50.0912" ry="18"/>
<text text-anchor="middle" x="88" y="-230.3" font-family="Times,serif" font-size="14.00">FactorPack</text>
</g>
<!-- Project -->
<g id="node12" class="node"><title>Project</title>
<ellipse fill="none" stroke="black" cx="274" cy="-162" rx="35.9954" ry="18"/>
<text text-anchor="middle" x="274" y="-158.3" font-family="Times,serif" font-size="14.00">Project</text>
</g>
<!-- FactorPack&#45;&gt;Project -->
<g id="edge3" class="edge"><title>FactorPack&#45;&gt;Project</title>
<path fill="none" stroke="#74a743" d="M129.055,-217.549C161.163,-205.466 205.432,-188.805 236.573,-177.086"/>
<ellipse fill="none" stroke="#74a743" cx="124.997" cy="-219.076" rx="4.00001" ry="4.00001"/>
<polygon fill="#74a743" stroke="#74a743" points="236.831,-176.988 247.775,-177.678 241.51,-175.227 246.19,-173.466 246.19,-173.466 246.19,-173.466 241.51,-175.227 244.605,-169.254 236.831,-176.988 236.831,-176.988"/>
</g>
<!-- Factor -->
<g id="node15" class="node"><title>Factor</title>
<ellipse fill="none" stroke="black" cx="237" cy="-90" rx="33.2948" ry="18"/>
<text text-anchor="middle" x="237" y="-86.3" font-family="Times,serif" font-size="14.00">Factor</text>
</g>
<!-- FactorPack&#45;&gt;Factor -->
<g id="edge2" class="edge"><title>FactorPack&#45;&gt;Factor</title>
<path fill="none" stroke="#f2f5a5" d="M112.14,-209.994C140.301,-183.156 186.511,-139.117 214.12,-112.805"/>
<polygon fill="#f2f5a5" stroke="#f2f5a5" points="112.042,-210.088 101.698,-213.729 108.422,-213.537 104.803,-216.987 104.803,-216.987 104.803,-216.987 108.422,-213.537 107.907,-220.244 112.042,-210.088 112.042,-210.088"/>
<polygon fill="#f2f5a5" stroke="#f2f5a5" points="214.144,-112.782 224.488,-109.141 217.764,-109.333 221.383,-105.883 221.383,-105.883 221.383,-105.883 217.764,-109.333 218.279,-102.626 214.144,-112.782 214.144,-112.782"/>
</g>
<!-- Course -->
<g id="node4" class="node"><title>Course</title>
<ellipse fill="none" stroke="black" cx="267" cy="-234" rx="35.9954" ry="18"/>
<text text-anchor="middle" x="267" y="-230.3" font-family="Times,serif" font-size="14.00">Course</text>
</g>
<!-- Course&#45;&gt;Project -->
<g id="edge4" class="edge"><title>Course&#45;&gt;Project</title>
<path fill="none" stroke="#8e9ec1" d="M269.536,-207.64C270.094,-202.063 270.687,-196.132 271.252,-190.476"/>
<ellipse fill="none" stroke="#8e9ec1" cx="269.128" cy="-211.716" rx="4" ry="4"/>
<polygon fill="#8e9ec1" stroke="#8e9ec1" points="271.294,-190.055 276.767,-180.552 271.792,-185.08 272.29,-180.104 272.29,-180.104 272.29,-180.104 271.792,-185.08 267.812,-179.657 271.294,-190.055 271.294,-190.055"/>
</g>
<!-- Style -->
<g id="node5" class="node"><title>Style</title>
<ellipse fill="none" stroke="black" cx="185" cy="-234" rx="28.6953" ry="18"/>
<text text-anchor="middle" x="185" y="-230.3" font-family="Times,serif" font-size="14.00">Style</text>
</g>
<!-- Style&#45;&gt;Project -->
<g id="edge5" class="edge"><title>Style&#45;&gt;Project</title>
<path fill="none" stroke="#8f0796" d="M208.577,-214.457C220.466,-205.105 234.936,-193.725 247.241,-184.046"/>
<ellipse fill="none" stroke="#8f0796" cx="205.304" cy="-217.03" rx="4.00002" ry="4.00002"/>
<polygon fill="#8f0796" stroke="#8f0796" points="247.496,-183.846 258.138,-181.201 251.426,-180.755 255.356,-177.664 255.356,-177.664 255.356,-177.664 251.426,-180.755 252.574,-174.127 247.496,-183.846 247.496,-183.846"/>
</g>
<!-- Installment -->
<g id="node6" class="node"><title>Installment</title>
<ellipse fill="none" stroke="black" cx="832" cy="-327" rx="50.8918" ry="18"/>
<text text-anchor="middle" x="832" y="-323.3" font-family="Times,serif" font-size="14.00">Installment</text>
</g>
<!-- ConsentForm -->
<g id="node7" class="node"><title>ConsentForm</title>
<ellipse fill="none" stroke="black" cx="380" cy="-234" rx="59.2899" ry="18"/>
<text text-anchor="middle" x="380" y="-230.3" font-family="Times,serif" font-size="14.00">ConsentForm</text>
</g>
<!-- ConsentForm&#45;&gt;Project -->
<g id="edge6" class="edge"><title>ConsentForm&#45;&gt;Project</title>
<path fill="none" stroke="#d2b6fe" d="M349.736,-213.014C335.223,-203.43 317.904,-191.993 303.492,-182.476"/>
<ellipse fill="none" stroke="#d2b6fe" cx="353.137" cy="-215.26" rx="4.00002" ry="4.00002"/>
<polygon fill="#d2b6fe" stroke="#d2b6fe" points="303.291,-182.343 297.426,-173.077 299.118,-179.588 294.946,-176.832 294.946,-176.832 294.946,-176.832 299.118,-179.588 292.466,-180.587 303.291,-182.343 303.291,-182.343"/>
</g>
<!-- ConsentLog -->
<g id="node16" class="node"><title>ConsentLog</title>
<ellipse fill="none" stroke="black" cx="389" cy="-162" rx="53.8905" ry="18"/>
<text text-anchor="middle" x="389" y="-158.3" font-family="Times,serif" font-size="14.00">ConsentLog</text>
</g>
<!-- ConsentForm&#45;&gt;ConsentLog -->
<g id="edge7" class="edge"><title>ConsentForm&#45;&gt;ConsentLog</title>
<path fill="none" stroke="#67f3ea" d="M383.261,-207.64C383.996,-201.92 384.779,-195.828 385.523,-190.042"/>
<ellipse fill="none" stroke="#67f3ea" cx="382.735" cy="-211.729" rx="4.00001" ry="4.00001"/>
<polygon fill="#67f3ea" stroke="#67f3ea" points="385.526,-190.023 391.264,-180.678 386.163,-185.064 386.801,-180.104 386.801,-180.104 386.801,-180.104 386.163,-185.064 382.338,-179.53 385.526,-190.023 385.526,-190.023"/>
</g>
<!-- Group -->
<g id="node11" class="node"><title>Group</title>
<ellipse fill="none" stroke="black" cx="389" cy="-90" rx="33.2948" ry="18"/>
<text text-anchor="middle" x="389" y="-86.3" font-family="Times,serif" font-size="14.00">Group</text>
</g>
<!-- User&#45;&gt;Group -->
<g id="edge8" class="edge"><title>User&#45;&gt;Group</title>
<path fill="none" stroke="#8a803f" d="M544.703,-213.154C510.583,-186.385 450.103,-138.938 415.417,-111.725"/>
<polygon fill="#8a803f" stroke="#8a803f" points="545.104,-213.468 550.194,-223.181 549.038,-216.555 552.972,-219.641 552.972,-219.641 552.972,-219.641 549.038,-216.555 555.75,-216.101 545.104,-213.468 545.104,-213.468"/>
<polygon fill="#8a803f" stroke="#8a803f" points="415.054,-111.44 409.964,-101.727 411.12,-108.354 407.186,-105.268 407.186,-105.268 407.186,-105.268 411.12,-108.354 404.409,-108.808 415.054,-111.44 415.054,-111.44"/>
</g>
<!-- User&#45;&gt;Project -->
<g id="edge10" class="edge"><title>User&#45;&gt;Project</title>
<path fill="none" stroke="#105f4f" d="M539.839,-218.05C537.885,-217.302 535.928,-216.61 534,-216 444.547,-187.712 417.047,-202.636 326,-180 321.524,-178.887 316.875,-177.585 312.279,-176.205"/>
<polygon fill="#105f4f" stroke="#105f4f" points="540.241,-218.22 547.685,-226.272 544.843,-220.175 549.445,-222.13 549.445,-222.13 549.445,-222.13 544.843,-220.175 551.205,-217.989 540.241,-218.22 540.241,-218.22"/>
<polygon fill="#105f4f" stroke="#105f4f" points="311.934,-176.097 303.74,-168.81 307.164,-174.6 302.393,-173.103 302.393,-173.103 302.393,-173.103 307.164,-174.6 301.046,-177.397 311.934,-176.097 311.934,-176.097"/>
</g>
<!-- User&#45;&gt;ConsentLog -->
<g id="edge9" class="edge"><title>User&#45;&gt;ConsentLog</title>
<path fill="none" stroke="#315ad1" d="M541.416,-219.216C538.921,-218.099 536.423,-217.013 534,-216 501.481,-202.412 464.112,-188.799 435.455,-178.772"/>
<ellipse fill="none" stroke="#315ad1" cx="545.187" cy="-220.943" rx="4.00002" ry="4.00002"/>
<polygon fill="#315ad1" stroke="#315ad1" points="435.149,-178.666 427.183,-171.131 430.427,-177.024 425.704,-175.381 425.704,-175.381 425.704,-175.381 430.427,-177.024 424.226,-179.632 435.149,-178.666 435.149,-178.666"/>
</g>
<!-- Assessment -->
<g id="node18" class="node"><title>Assessment</title>
<ellipse fill="none" stroke="black" cx="527" cy="-90" rx="52.7911" ry="18"/>
<text text-anchor="middle" x="527" y="-86.3" font-family="Times,serif" font-size="14.00">Assessment</text>
</g>
<!-- User&#45;&gt;Assessment -->
<g id="edge11" class="edge"><title>User&#45;&gt;Assessment</title>
<path fill="none" stroke="#01b587" d="M561.935,-206.366C554.287,-181.11 542.854,-143.355 535.171,-117.984"/>
<polygon fill="#01b587" stroke="#01b587" points="562,-206.582 560.592,-217.457 563.449,-211.368 564.898,-216.153 564.898,-216.153 564.898,-216.153 563.449,-211.368 569.205,-214.849 562,-206.582 562,-206.582"/>
<polygon fill="#01b587" stroke="#01b587" points="535.127,-117.839 536.536,-106.964 533.678,-113.053 532.229,-108.268 532.229,-108.268 532.229,-108.268 533.678,-113.053 527.922,-109.572 535.127,-117.839 535.127,-117.839"/>
</g>
<!-- Roster -->
<g id="node9" class="node"><title>Roster</title>
<ellipse fill="none" stroke="black" cx="491" cy="-234" rx="33.5952" ry="18"/>
<text text-anchor="middle" x="491" y="-230.3" font-family="Times,serif" font-size="14.00">Roster</text>
</g>
<!-- School -->
<g id="node10" class="node"><title>School</title>
<ellipse fill="none" stroke="black" cx="267" cy="-327" rx="35.194" ry="18"/>
<text text-anchor="middle" x="267" y="-323.3" font-family="Times,serif" font-size="14.00">School</text>
</g>
<!-- School&#45;&gt;Course -->
<g id="edge12" class="edge"><title>School&#45;&gt;Course</title>
<path fill="none" stroke="#89fa40" d="M267,-300.729C267,-288.725 267,-274.362 267,-262.129"/>
<ellipse fill="none" stroke="#89fa40" cx="267" cy="-304.884" rx="4" ry="4"/>
<polygon fill="#89fa40" stroke="#89fa40" points="267,-262.04 271.5,-252.04 267,-257.04 267,-252.04 267,-252.04 267,-252.04 267,-257.04 262.5,-252.04 267,-262.04 267,-262.04"/>
</g>
<!-- Report -->
<g id="node20" class="node"><title>Report</title>
<ellipse fill="none" stroke="black" cx="389" cy="-18" rx="34.394" ry="18"/>
<text text-anchor="middle" x="389" y="-14.3" font-family="Times,serif" font-size="14.00">Report</text>
</g>
<!-- Group&#45;&gt;Report -->
<g id="edge13" class="edge"><title>Group&#45;&gt;Report</title>
<path fill="none" stroke="#e37ea9" d="M389,-63.6398C389,-58.0629 389,-52.1319 389,-46.4761"/>
<ellipse fill="none" stroke="#e37ea9" cx="389" cy="-67.6966" rx="4" ry="4"/>
<polygon fill="#e37ea9" stroke="#e37ea9" points="389,-46.1043 393.5,-36.1043 389,-41.1043 389,-36.1043 389,-36.1043 389,-36.1043 389,-41.1043 384.5,-36.1044 389,-46.1043 389,-46.1043"/>
</g>
<!-- Project&#45;&gt;Group -->
<g id="edge14" class="edge"><title>Project&#45;&gt;Group</title>
<path fill="none" stroke="#c69718" d="M302.992,-143.352C320.093,-132.943 341.698,-119.793 358.976,-109.276"/>
<ellipse fill="none" stroke="#c69718" cx="299.318" cy="-145.589" rx="4.00002" ry="4.00002"/>
<polygon fill="#c69718" stroke="#c69718" points="359.028,-109.244 369.909,-107.889 363.299,-106.644 367.57,-104.045 367.57,-104.045 367.57,-104.045 363.299,-106.644 365.23,-100.201 359.028,-109.244 359.028,-109.244"/>
</g>
<!-- Project&#45;&gt;Factor -->
<g id="edge16" class="edge"><title>Project&#45;&gt;Factor</title>
<path fill="none" stroke="#c293f6" d="M260.52,-135.497C257.277,-129.362 253.811,-122.805 250.564,-116.662"/>
<polygon fill="#c293f6" stroke="#c293f6" points="260.558,-135.57 261.253,-146.514 262.895,-139.99 265.232,-144.411 265.232,-144.411 265.232,-144.411 262.895,-139.99 269.21,-142.308 260.558,-135.57 260.558,-135.57"/>
<polygon fill="#c293f6" stroke="#c293f6" points="250.379,-116.311 249.684,-105.367 248.042,-111.89 245.706,-107.47 245.706,-107.47 245.706,-107.47 248.042,-111.89 241.727,-109.573 250.379,-116.311 250.379,-116.311"/>
</g>
<!-- Project&#45;&gt;Assessment -->
<g id="edge15" class="edge"><title>Project&#45;&gt;Assessment</title>
<path fill="none" stroke="#a79c7c" d="M310.714,-148.703C315.833,-147.075 321.038,-145.464 326,-144 376.684,-129.047 435.146,-113.86 475.908,-103.599"/>
<ellipse fill="none" stroke="#a79c7c" cx="306.594" cy="-150.031" rx="4.00001" ry="4.00001"/>
<polygon fill="#a79c7c" stroke="#a79c7c" points="475.916,-103.597 486.71,-105.529 480.765,-102.38 485.615,-101.164 485.615,-101.164 485.615,-101.164 480.765,-102.38 484.52,-96.7992 475.916,-103.597 475.916,-103.597"/>
</g>
<!-- Gender -->
<g id="node13" class="node"><title>Gender</title>
<ellipse fill="none" stroke="black" cx="727" cy="-327" rx="36.2938" ry="18"/>
<text text-anchor="middle" x="727" y="-323.3" font-family="Times,serif" font-size="14.00">Gender</text>
</g>
<!-- Gender&#45;&gt;User -->
<g id="edge17" class="edge"><title>Gender&#45;&gt;User</title>
<path fill="none" stroke="#68eaeb" d="M704.414,-305.483C697.212,-299.458 689.023,-293.119 681,-288 655.797,-271.918 624.963,-257.575 602.194,-247.878"/>
<ellipse fill="none" stroke="#68eaeb" cx="707.681" cy="-308.28" rx="4.00002" ry="4.00002"/>
<polygon fill="#68eaeb" stroke="#68eaeb" points="602.194,-247.878 594.708,-239.865 597.582,-245.947 592.97,-244.016 592.97,-244.016 592.97,-244.016 597.582,-245.947 591.231,-248.167 602.194,-247.878 602.194,-247.878"/>
</g>
<!-- AgeRange -->
<g id="node14" class="node"><title>AgeRange</title>
<ellipse fill="none" stroke="black" cx="949" cy="-327" rx="48.1917" ry="18"/>
<text text-anchor="middle" x="949" y="-323.3" font-family="Times,serif" font-size="14.00">AgeRange</text>
</g>
<!-- Value -->
<g id="node17" class="node"><title>Value</title>
<ellipse fill="none" stroke="black" cx="1047" cy="-327" rx="31.6951" ry="18"/>
<text text-anchor="middle" x="1047" y="-323.3" font-family="Times,serif" font-size="14.00">Value</text>
</g>
<!-- Role -->
<g id="node19" class="node"><title>Role</title>
<ellipse fill="none" stroke="black" cx="468" cy="-327" rx="27.0966" ry="18"/>
<text text-anchor="middle" x="468" y="-323.3" font-family="Times,serif" font-size="14.00">Role</text>
</g>
<!-- Role&#45;&gt;User -->
<g id="edge18" class="edge"><title>Role&#45;&gt;User</title>
<path fill="none" stroke="#50a270" d="M487.426,-305.188C492.975,-299.483 499.115,-293.389 505,-288 517.652,-276.416 532.425,-264.269 544.688,-254.531"/>
<ellipse fill="none" stroke="#50a270" cx="484.448" cy="-308.289" rx="4.00002" ry="4.00002"/>
<polygon fill="#50a270" stroke="#50a270" points="544.861,-254.394 555.502,-251.746 548.79,-251.302 552.719,-248.21 552.719,-248.21 552.719,-248.21 548.79,-251.302 549.936,-244.674 544.861,-254.394 544.861,-254.394"/>
</g>
<!-- Role&#45;&gt;Roster -->
<g id="edge19" class="edge"><title>Role&#45;&gt;Roster</title>
<path fill="none" stroke="#725e47" d="M474.387,-300.729C477.452,-288.603 481.125,-274.072 484.237,-261.759"/>
<ellipse fill="none" stroke="#725e47" cx="473.306" cy="-305.006" rx="4.00001" ry="4.00001"/>
<polygon fill="#725e47" stroke="#725e47" points="484.243,-261.735 491.056,-253.142 485.468,-256.887 486.693,-252.04 486.693,-252.04 486.693,-252.04 485.468,-256.887 482.33,-250.937 484.243,-261.735 484.243,-261.735"/>
</g>
</g>
</svg>
