<?xml version="1.0" encoding="UTF-8" standalone="no"?>
<!DOCTYPE svg PUBLIC "-//W3C//DTD SVG 1.1//EN"
 "http://www.w3.org/Graphics/SVG/1.1/DTD/svg11.dtd">
<!-- Generated by graphviz version 2.36.0 (20140111.2315)
 -->
<!-- Title: models_diagram Pages: 1 -->
<svg width="1396pt" height="806pt"
 viewBox="0.00 0.00 1396.00 806.00" xmlns="http://www.w3.org/2000/svg" xmlns:xlink="http://www.w3.org/1999/xlink">
<g id="graph0" class="graph" transform="scale(1 1) rotate(0) translate(4 802)">
<title>models_diagram</title>
<polygon fill="none" stroke="none" points="-4,4 -4,-802 1392,-802 1392,4 -4,4"/>
<!-- _diagram_info -->
<g id="node1" class="node"><title>_diagram_info</title>
<text text-anchor="start" x="854.5" y="-783.6" font-family="Times,serif" font-size="13.00">Models diagram</text>
<text text-anchor="start" x="854.5" y="-769.6" font-family="Times,serif" font-size="13.00">Date: Mar 20 2017 &#45; 02:14</text>
<text text-anchor="start" x="854.5" y="-755.6" font-family="Times,serif" font-size="13.00">Migration version: 20170318141645</text>
<text text-anchor="start" x="854.5" y="-741.6" font-family="Times,serif" font-size="13.00">Generated by RailRoady 1.5.2</text>
<text text-anchor="start" x="854.5" y="-727.6" font-family="Times,serif" font-size="13.00">http://railroady.prestonlee.com</text>
</g>
<!-- AgeRange -->
<g id="node2" class="node"><title>AgeRange</title>
<ellipse fill="none" stroke="black" cx="957" cy="-450" rx="57.2688" ry="18"/>
<text text-anchor="middle" x="957" y="-446.3" font-family="Times,serif" font-size="14.00">AgeRange</text>
</g>
<!-- User -->
<g id="node33" class="node"><title>User</title>
<ellipse fill="none" stroke="black" cx="677" cy="-378" rx="32.2457" ry="18"/>
<text text-anchor="middle" x="677" y="-374.3" font-family="Times,serif" font-size="14.00">User</text>
</g>
<!-- AgeRange&#45;&gt;User -->
<g id="edge1" class="edge"><title>AgeRange&#45;&gt;User</title>
<path fill="none" stroke="#343e55" d="M905.918,-436.013C900.544,-434.655 895.161,-433.297 890,-432 829.226,-416.729 758.642,-399.208 715.927,-388.629"/>
<ellipse fill="none" stroke="#343e55" cx="909.88" cy="-437.016" rx="4.00001" ry="4.00001"/>
<polygon fill="#343e55" stroke="#343e55" points="715.657,-388.562 707.032,-381.791 710.804,-387.36 705.95,-386.159 705.95,-386.159 705.95,-386.159 710.804,-387.36 704.869,-390.527 715.657,-388.562 715.657,-388.562"/>
</g>
<!-- Assessment -->
<g id="node3" class="node"><title>Assessment</title>
<ellipse fill="none" stroke="black" cx="229" cy="-522" rx="65.9423" ry="18"/>
<text text-anchor="middle" x="229" y="-518.3" font-family="Times,serif" font-size="14.00">Assessment</text>
</g>
<!-- Factor -->
<g id="node17" class="node"><title>Factor</title>
<ellipse fill="none" stroke="black" cx="146" cy="-450" rx="40.4202" ry="18"/>
<text text-anchor="middle" x="146" y="-446.3" font-family="Times,serif" font-size="14.00">Factor</text>
</g>
<!-- Assessment&#45;&gt;Factor -->
<g id="edge3" class="edge"><title>Assessment&#45;&gt;Factor</title>
<path fill="none" stroke="#4bbdba" d="M201.92,-498.161C192.207,-489.97 181.292,-480.764 171.7,-472.675"/>
<polygon fill="#4bbdba" stroke="#4bbdba" points="202.105,-498.318 206.848,-508.205 205.927,-501.541 209.75,-504.765 209.75,-504.765 209.75,-504.765 205.927,-501.541 212.651,-501.325 202.105,-498.318 202.105,-498.318"/>
<polygon fill="#4bbdba" stroke="#4bbdba" points="171.654,-472.636 166.911,-462.749 167.832,-469.412 164.01,-466.189 164.01,-466.189 164.01,-466.189 167.832,-469.412 161.109,-469.629 171.654,-472.636 171.654,-472.636"/>
</g>
<!-- Group -->
<g id="node20" class="node"><title>Group</title>
<ellipse fill="none" stroke="black" cx="296" cy="-450" rx="39.4691" ry="18"/>
<text text-anchor="middle" x="296" y="-446.3" font-family="Times,serif" font-size="14.00">Group</text>
</g>
<!-- Assessment&#45;&gt;Group -->
<g id="edge5" class="edge"><title>Assessment&#45;&gt;Group</title>
<path fill="none" stroke="#2d3f38" d="M251.848,-497.129C258.837,-489.827 266.516,-481.804 273.483,-474.525"/>
<polygon fill="#2d3f38" stroke="#2d3f38" points="251.793,-497.187 241.627,-501.299 248.335,-500.799 244.878,-504.411 244.878,-504.411 244.878,-504.411 248.335,-500.799 248.129,-507.523 251.793,-497.187 251.793,-497.187"/>
<polygon fill="#2d3f38" stroke="#2d3f38" points="273.782,-474.212 283.948,-470.1 277.24,-470.6 280.697,-466.988 280.697,-466.988 280.697,-466.988 277.24,-470.6 277.446,-463.877 273.782,-474.212 273.782,-474.212"/>
</g>
<!-- Installment -->
<g id="node23" class="node"><title>Installment</title>
<ellipse fill="none" stroke="black" cx="253" cy="-306" rx="64.0172" ry="18"/>
<text text-anchor="middle" x="253" y="-302.3" font-family="Times,serif" font-size="14.00">Installment</text>
</g>
<!-- Assessment&#45;&gt;Installment -->
<g id="edge2" class="edge"><title>Assessment&#45;&gt;Installment</title>
<path fill="none" stroke="#348f6b" d="M231.841,-495.67C236.389,-455.116 245.267,-375.949 249.947,-334.227"/>
<ellipse fill="none" stroke="#348f6b" cx="231.369" cy="-499.874" rx="4.00001" ry="4.00001"/>
<polygon fill="#348f6b" stroke="#348f6b" points="249.953,-334.17 255.539,-324.734 250.51,-329.201 251.067,-324.232 251.067,-324.232 251.067,-324.232 250.51,-329.201 246.595,-323.731 249.953,-334.17 249.953,-334.17"/>
</g>
<!-- Assessment&#45;&gt;User -->
<g id="edge4" class="edge"><title>Assessment&#45;&gt;User</title>
<path fill="none" stroke="#7b172d" d="M270.57,-501.908C292.436,-491.849 319.683,-479.288 344,-468 378.266,-452.094 385.149,-443.91 421,-432 494.742,-407.502 584.348,-392.067 635.618,-384.529"/>
<polygon fill="#7b172d" stroke="#7b172d" points="270.328,-502.02 259.362,-502.109 265.785,-504.109 261.242,-506.198 261.242,-506.198 261.242,-506.198 265.785,-504.109 263.123,-510.286 270.328,-502.02 270.328,-502.02"/>
<polygon fill="#7b172d" stroke="#7b172d" points="635.753,-384.51 646.293,-387.537 640.702,-383.796 645.651,-383.083 645.651,-383.083 645.651,-383.083 640.702,-383.796 645.009,-378.629 635.753,-384.51 635.753,-384.51"/>
</g>
<!-- Behavior -->
<g id="node4" class="node"><title>Behavior</title>
<ellipse fill="none" stroke="black" cx="640" cy="-162" rx="51.4931" ry="18"/>
<text text-anchor="middle" x="640" y="-158.3" font-family="Times,serif" font-size="14.00">Behavior</text>
</g>
<!-- Diagnosis -->
<g id="node14" class="node"><title>Diagnosis</title>
<ellipse fill="none" stroke="black" cx="719" cy="-18" rx="55.3436" ry="18"/>
<text text-anchor="middle" x="719" y="-14.3" font-family="Times,serif" font-size="14.00">Diagnosis</text>
</g>
<!-- Behavior&#45;&gt;Diagnosis -->
<g id="edge8" class="edge"><title>Behavior&#45;&gt;Diagnosis</title>
<path fill="none" stroke="#cbfe87" d="M641.172,-135.723C643.003,-117.022 647.595,-91.5192 659,-72 666.04,-59.9509 676.788,-49.2005 687.252,-40.5834"/>
<ellipse fill="none" stroke="#cbfe87" cx="640.837" cy="-139.803" rx="4" ry="4"/>
<polygon fill="#cbfe87" stroke="#cbfe87" points="687.253,-40.5822 697.903,-37.969 691.192,-37.5029 695.132,-34.4236 695.132,-34.4236 695.132,-34.4236 691.192,-37.5029 692.36,-30.8782 687.253,-40.5822 687.253,-40.5822"/>
</g>
<!-- Reaction -->
<g id="node26" class="node"><title>Reaction</title>
<ellipse fill="none" stroke="black" cx="560" cy="-90" rx="51.4931" ry="18"/>
<text text-anchor="middle" x="560" y="-86.3" font-family="Times,serif" font-size="14.00">Reaction</text>
</g>
<!-- Behavior&#45;&gt;Reaction -->
<g id="edge7" class="edge"><title>Behavior&#45;&gt;Reaction</title>
<path fill="none" stroke="#3e9360" d="M615.793,-139.819C606.396,-131.597 595.615,-122.163 586.05,-113.793"/>
<ellipse fill="none" stroke="#3e9360" cx="618.836" cy="-142.482" rx="4.00002" ry="4.00002"/>
<polygon fill="#3e9360" stroke="#3e9360" points="585.884,-113.649 581.322,-103.677 582.121,-110.356 578.358,-107.064 578.358,-107.064 578.358,-107.064 582.121,-110.356 575.395,-110.45 585.884,-113.649 585.884,-113.649"/>
</g>
<!-- Scenario -->
<g id="node29" class="node"><title>Scenario</title>
<ellipse fill="none" stroke="black" cx="719" cy="-90" rx="51.0191" ry="18"/>
<text text-anchor="middle" x="719" y="-86.3" font-family="Times,serif" font-size="14.00">Scenario</text>
</g>
<!-- Behavior&#45;&gt;Scenario -->
<g id="edge6" class="edge"><title>Behavior&#45;&gt;Scenario</title>
<path fill="none" stroke="#807c74" d="M664.232,-139.529C673.457,-131.354 683.996,-122.016 693.349,-113.729"/>
<ellipse fill="none" stroke="#807c74" cx="660.92" cy="-142.463" rx="4.00002" ry="4.00002"/>
<polygon fill="#807c74" stroke="#807c74" points="693.387,-113.695 703.856,-110.432 697.129,-110.379 700.871,-107.064 700.871,-107.064 700.871,-107.064 697.129,-110.379 697.887,-103.695 693.387,-113.695 693.387,-113.695"/>
</g>
<!-- BingoGame -->
<g id="node5" class="node"><title>BingoGame</title>
<ellipse fill="none" stroke="black" cx="1255" cy="-522" rx="64.0172" ry="18"/>
<text text-anchor="middle" x="1255" y="-518.3" font-family="Times,serif" font-size="14.00">BingoGame</text>
</g>
<!-- CandidateList -->
<g id="node8" class="node"><title>CandidateList</title>
<ellipse fill="none" stroke="black" cx="1172" cy="-306" rx="76.5394" ry="18"/>
<text text-anchor="middle" x="1172" y="-302.3" font-family="Times,serif" font-size="14.00">CandidateList</text>
</g>
<!-- BingoGame&#45;&gt;CandidateList -->
<g id="edge9" class="edge"><title>BingoGame&#45;&gt;CandidateList</title>
<path fill="none" stroke="#bff083" d="M1262,-495.983C1265.89,-477.809 1268.73,-452.85 1262,-432 1249.17,-392.214 1218.45,-354.407 1196.47,-330.998"/>
<ellipse fill="none" stroke="#bff083" cx="1261.08" cy="-499.921" rx="4.00001" ry="4.00001"/>
<polygon fill="#bff083" stroke="#bff083" points="1196.32,-330.84 1192.64,-320.511 1192.85,-327.234 1189.39,-323.629 1189.39,-323.629 1189.39,-323.629 1192.85,-327.234 1186.14,-326.746 1196.32,-330.84 1196.32,-330.84"/>
</g>
<!-- Candidate -->
<g id="node6" class="node"><title>Candidate</title>
<ellipse fill="none" stroke="black" cx="1027" cy="-234" rx="58.2422" ry="18"/>
<text text-anchor="middle" x="1027" y="-230.3" font-family="Times,serif" font-size="14.00">Candidate</text>
</g>
<!-- CandidateFeedback -->
<g id="node7" class="node"><title>CandidateFeedback</title>
<ellipse fill="none" stroke="black" cx="856" cy="-306" rx="103.012" ry="18"/>
<text text-anchor="middle" x="856" y="-302.3" font-family="Times,serif" font-size="14.00">CandidateFeedback</text>
</g>
<!-- CandidateFeedback&#45;&gt;Candidate -->
<g id="edge10" class="edge"><title>CandidateFeedback&#45;&gt;Candidate</title>
<path fill="none" stroke="#af2c1f" d="M901.904,-286.209C927.347,-275.794 958.793,-262.921 983.792,-252.688"/>
<ellipse fill="none" stroke="#af2c1f" cx="898.078" cy="-287.775" rx="4.00001" ry="4.00001"/>
<polygon fill="#af2c1f" stroke="#af2c1f" points="984.122,-252.552 995.082,-252.928 988.75,-250.658 993.377,-248.764 993.377,-248.764 993.377,-248.764 988.75,-250.658 991.672,-244.599 984.122,-252.552 984.122,-252.552"/>
</g>
<!-- CandidateList&#45;&gt;Candidate -->
<g id="edge11" class="edge"><title>CandidateList&#45;&gt;Candidate</title>
<path fill="none" stroke="#942116" d="M1132.34,-285.854C1111.76,-275.917 1086.7,-263.819 1066.18,-253.916"/>
<ellipse fill="none" stroke="#942116" cx="1136.22" cy="-287.726" rx="4.00002" ry="4.00002"/>
<polygon fill="#942116" stroke="#942116" points="1066.12,-253.883 1059.07,-245.483 1061.61,-251.71 1057.11,-249.536 1057.11,-249.536 1057.11,-249.536 1061.61,-251.71 1055.15,-253.588 1066.12,-253.883 1066.12,-253.883"/>
</g>
<!-- CipCode -->
<g id="node9" class="node"><title>CipCode</title>
<ellipse fill="none" stroke="black" cx="1084" cy="-450" rx="50.5427" ry="18"/>
<text text-anchor="middle" x="1084" y="-446.3" font-family="Times,serif" font-size="14.00">CipCode</text>
</g>
<!-- CipCode&#45;&gt;User -->
<g id="edge12" class="edge"><title>CipCode&#45;&gt;User</title>
<path fill="none" stroke="#8701ed" d="M1038.97,-435.799C1033.61,-434.421 1028.2,-433.119 1023,-432 914.102,-408.573 783.767,-391.523 718.52,-383.728"/>
<ellipse fill="none" stroke="#8701ed" cx="1042.89" cy="-436.835" rx="4.00001" ry="4.00001"/>
<polygon fill="#8701ed" stroke="#8701ed" points="718.174,-383.687 708.772,-378.044 713.209,-383.1 708.243,-382.512 708.243,-382.512 708.243,-382.512 713.209,-383.1 707.715,-386.981 718.174,-383.687 718.174,-383.687"/>
</g>
<!-- Concept -->
<g id="node10" class="node"><title>Concept</title>
<ellipse fill="none" stroke="black" cx="1027" cy="-306" rx="50.0684" ry="18"/>
<text text-anchor="middle" x="1027" y="-302.3" font-family="Times,serif" font-size="14.00">Concept</text>
</g>
<!-- Concept&#45;&gt;Candidate -->
<g id="edge13" class="edge"><title>Concept&#45;&gt;Candidate</title>
<path fill="none" stroke="#8ee079" d="M1027,-279.64C1027,-274.063 1027,-268.132 1027,-262.476"/>
<ellipse fill="none" stroke="#8ee079" cx="1027" cy="-283.697" rx="4" ry="4"/>
<polygon fill="#8ee079" stroke="#8ee079" points="1027,-262.104 1031.5,-252.104 1027,-257.104 1027,-252.104 1027,-252.104 1027,-252.104 1027,-257.104 1022.5,-252.104 1027,-262.104 1027,-262.104"/>
</g>
<!-- ConsentForm -->
<g id="node11" class="node"><title>ConsentForm</title>
<ellipse fill="none" stroke="black" cx="73" cy="-666" rx="73.1654" ry="18"/>
<text text-anchor="middle" x="73" y="-662.3" font-family="Times,serif" font-size="14.00">ConsentForm</text>
</g>
<!-- ConsentLog -->
<g id="node12" class="node"><title>ConsentLog</title>
<ellipse fill="none" stroke="black" cx="68" cy="-306" rx="66.4165" ry="18"/>
<text text-anchor="middle" x="68" y="-302.3" font-family="Times,serif" font-size="14.00">ConsentLog</text>
</g>
<!-- ConsentForm&#45;&gt;ConsentLog -->
<g id="edge15" class="edge"><title>ConsentForm&#45;&gt;ConsentLog</title>
<path fill="none" stroke="#cdc5ca" d="M61.1574,-640.692C48.7363,-612.917 31,-565.769 31,-523 31,-523 31,-523 31,-449 31,-407.705 45.8339,-361.774 56.7166,-333.634"/>
<ellipse fill="none" stroke="#cdc5ca" cx="62.8352" cy="-644.356" rx="4.00002" ry="4.00002"/>
<polygon fill="#cdc5ca" stroke="#cdc5ca" points="56.8091,-333.402 64.6925,-325.78 58.6608,-328.758 60.5125,-324.113 60.5125,-324.113 60.5125,-324.113 58.6608,-328.758 56.3325,-322.447 56.8091,-333.402 56.8091,-333.402"/>
</g>
<!-- Project -->
<g id="node25" class="node"><title>Project</title>
<ellipse fill="none" stroke="black" cx="229" cy="-594" rx="44.2946" ry="18"/>
<text text-anchor="middle" x="229" y="-590.3" font-family="Times,serif" font-size="14.00">Project</text>
</g>
<!-- ConsentForm&#45;&gt;Project -->
<g id="edge14" class="edge"><title>ConsentForm&#45;&gt;Project</title>
<path fill="none" stroke="#aa1ce8" d="M113.93,-646.634C137.889,-635.883 167.928,-622.404 191.306,-611.914"/>
<ellipse fill="none" stroke="#aa1ce8" cx="110.115" cy="-648.346" rx="4.00002" ry="4.00002"/>
<polygon fill="#aa1ce8" stroke="#aa1ce8" points="191.433,-611.857 202.399,-611.869 195.995,-609.81 200.557,-607.763 200.557,-607.763 200.557,-607.763 195.995,-609.81 198.714,-603.657 191.433,-611.857 191.433,-611.857"/>
</g>
<!-- Course -->
<g id="node13" class="node"><title>Course</title>
<ellipse fill="none" stroke="black" cx="1163" cy="-666" rx="44.2946" ry="18"/>
<text text-anchor="middle" x="1163" y="-662.3" font-family="Times,serif" font-size="14.00">Course</text>
</g>
<!-- Course&#45;&gt;BingoGame -->
<g id="edge18" class="edge"><title>Course&#45;&gt;BingoGame</title>
<path fill="none" stroke="#d051bf" d="M1178.17,-641.591C1194.76,-615.979 1221.27,-575.054 1238.41,-548.605"/>
<ellipse fill="none" stroke="#d051bf" cx="1175.91" cy="-645.076" rx="4.00002" ry="4.00002"/>
<polygon fill="#d051bf" stroke="#d051bf" points="1238.61,-548.294 1247.83,-542.349 1241.33,-544.098 1244.05,-539.902 1244.05,-539.902 1244.05,-539.902 1241.33,-544.098 1240.27,-537.455 1238.61,-548.294 1238.61,-548.294"/>
</g>
<!-- Experience -->
<g id="node16" class="node"><title>Experience</title>
<ellipse fill="none" stroke="black" cx="448" cy="-306" rx="63.5411" ry="18"/>
<text text-anchor="middle" x="448" y="-302.3" font-family="Times,serif" font-size="14.00">Experience</text>
</g>
<!-- Course&#45;&gt;Experience -->
<g id="edge20" class="edge"><title>Course&#45;&gt;Experience</title>
<path fill="none" stroke="#30a549" d="M1112.39,-659.464C959.432,-641.591 507.13,-579.982 421,-468 411.245,-455.317 415.94,-447.179 421,-432 427.325,-413.026 441.675,-414.974 448,-396 454.627,-376.12 454.232,-352.325 452.396,-334.343"/>
<ellipse fill="none" stroke="#30a549" cx="1116.77" cy="-659.971" rx="4.00001" ry="4.00001"/>
<polygon fill="#30a549" stroke="#30a549" points="452.374,-334.168 455.62,-323.694 451.764,-329.206 451.153,-324.243 451.153,-324.243 451.153,-324.243 451.764,-329.206 446.687,-324.793 452.374,-334.168 452.374,-334.168"/>
</g>
<!-- Course&#45;&gt;Project -->
<g id="edge16" class="edge"><title>Course&#45;&gt;Project</title>
<path fill="none" stroke="#897e91" d="M1111.1,-662.959C982.113,-657.596 636.724,-641.446 350,-612 326.682,-609.605 300.95,-606.111 279.233,-602.912"/>
<ellipse fill="none" stroke="#897e91" cx="1115.28" cy="-663.132" rx="4" ry="4"/>
<polygon fill="#897e91" stroke="#897e91" points="279.132,-602.897 269.907,-596.969 274.187,-602.158 269.242,-601.42 269.242,-601.42 269.242,-601.42 274.187,-602.158 268.577,-605.87 279.132,-602.897 279.132,-602.897"/>
</g>
<!-- Roster -->
<g id="node28" class="node"><title>Roster</title>
<ellipse fill="none" stroke="black" cx="1347" cy="-306" rx="41.394" ry="18"/>
<text text-anchor="middle" x="1347" y="-302.3" font-family="Times,serif" font-size="14.00">Roster</text>
</g>
<!-- Course&#45;&gt;Roster -->
<g id="edge17" class="edge"><title>Course&#45;&gt;Roster</title>
<path fill="none" stroke="#1b6eb8" d="M1206.26,-652.675C1260.65,-634.215 1347,-593.766 1347,-523 1347,-523 1347,-523 1347,-449 1347,-408.996 1347,-362.653 1347,-334.08"/>
<ellipse fill="none" stroke="#1b6eb8" cx="1202.28" cy="-653.987" rx="4.00001" ry="4.00001"/>
<polygon fill="#1b6eb8" stroke="#1b6eb8" points="1347,-334.049 1351.5,-324.049 1347,-329.049 1347,-324.049 1347,-324.049 1347,-324.049 1347,-329.049 1342.5,-324.049 1347,-334.049 1347,-334.049"/>
</g>
<!-- Course&#45;&gt;User -->
<g id="edge19" class="edge"><title>Course&#45;&gt;User</title>
<path fill="none" stroke="#67b0e4" d="M1170.25,-638.305C1181.59,-589.913 1197.07,-487.582 1143,-432 1113.68,-401.856 828.216,-385.849 719.107,-380.792"/>
<polygon fill="#67b0e4" stroke="#67b0e4" points="1170.24,-638.337 1163.48,-646.969 1169.04,-643.191 1167.84,-648.046 1167.84,-648.046 1167.84,-648.046 1169.04,-643.191 1172.21,-649.123 1170.24,-638.337 1170.24,-638.337"/>
<polygon fill="#67b0e4" stroke="#67b0e4" points="719.102,-380.792 709.318,-375.842 714.108,-380.565 709.113,-380.337 709.113,-380.337 709.113,-380.337 714.108,-380.565 708.908,-384.833 719.102,-380.792 719.102,-380.792"/>
</g>
<!-- Diagnosis&#45;&gt;User -->
<g id="edge21" class="edge"><title>Diagnosis&#45;&gt;User</title>
<path fill="none" stroke="#130b97" d="M781.561,-21.7319C927.275,-29.7965 1277,-59.7037 1277,-161 1277,-235 1277,-235 1277,-235 1277,-275.542 1287.47,-297.254 1257,-324 1216.56,-359.498 842.382,-372.606 717.417,-376.016"/>
<ellipse fill="none" stroke="#130b97" cx="777.514" cy="-21.5133" rx="4" ry="4"/>
<ellipse fill="#130b97" stroke="#130b97" cx="713.204" cy="-376.129" rx="4" ry="4"/>
</g>
<!-- Email -->
<g id="node15" class="node"><title>Email</title>
<ellipse fill="none" stroke="black" cx="567" cy="-306" rx="37.5442" ry="18"/>
<text text-anchor="middle" x="567" y="-302.3" font-family="Times,serif" font-size="14.00">Email</text>
</g>
<!-- Experience&#45;&gt;Reaction -->
<g id="edge22" class="edge"><title>Experience&#45;&gt;Reaction</title>
<path fill="none" stroke="#755fdf" d="M460.695,-280.744C481.961,-240.11 524.597,-158.644 546.433,-116.923"/>
<ellipse fill="none" stroke="#755fdf" cx="458.831" cy="-284.305" rx="4.00002" ry="4.00002"/>
<polygon fill="#755fdf" stroke="#755fdf" points="546.5,-116.795 555.124,-110.022 548.818,-112.365 551.137,-107.935 551.137,-107.935 551.137,-107.935 548.818,-112.365 547.15,-105.849 546.5,-116.795 546.5,-116.795"/>
</g>
<!-- FactorPack -->
<g id="node18" class="node"><title>FactorPack</title>
<ellipse fill="none" stroke="black" cx="123" cy="-378" rx="63.5411" ry="18"/>
<text text-anchor="middle" x="123" y="-374.3" font-family="Times,serif" font-size="14.00">FactorPack</text>
</g>
<!-- Factor&#45;&gt;FactorPack -->
<g id="edge23" class="edge"><title>Factor&#45;&gt;FactorPack</title>
<path fill="none" stroke="#1ab7b6" d="M137.224,-422.29C135.477,-416.975 133.642,-411.388 131.891,-406.061"/>
<polygon fill="#1ab7b6" stroke="#1ab7b6" points="137.311,-422.555 136.157,-433.46 138.872,-427.305 140.432,-432.055 140.432,-432.055 140.432,-432.055 138.872,-427.305 144.707,-430.65 137.311,-422.555 137.311,-422.555"/>
<polygon fill="#1ab7b6" stroke="#1ab7b6" points="131.798,-405.776 132.951,-394.871 130.237,-401.025 128.676,-396.275 128.676,-396.275 128.676,-396.275 130.237,-401.025 124.401,-397.68 131.798,-405.776 131.798,-405.776"/>
</g>
<!-- FactorPack&#45;&gt;Project -->
<g id="edge24" class="edge"><title>FactorPack&#45;&gt;Project</title>
<path fill="none" stroke="#8e9c20" d="M107.826,-402.87C103.057,-411.675 98.4103,-421.959 96,-432 92.2654,-447.558 91.6664,-452.598 96,-468 106.157,-504.1 113.331,-513.634 140,-540 154.675,-554.508 174.076,-566.659 191.018,-575.651"/>
<ellipse fill="none" stroke="#8e9c20" cx="109.836" cy="-399.337" rx="4.00002" ry="4.00002"/>
<polygon fill="#8e9c20" stroke="#8e9c20" points="191.23,-575.759 198.081,-584.321 195.681,-578.037 200.131,-580.316 200.131,-580.316 200.131,-580.316 195.681,-578.037 202.182,-576.31 191.23,-575.759 191.23,-575.759"/>
</g>
<!-- Gender -->
<g id="node19" class="node"><title>Gender</title>
<ellipse fill="none" stroke="black" cx="475" cy="-450" rx="44.271" ry="18"/>
<text text-anchor="middle" x="475" y="-446.3" font-family="Times,serif" font-size="14.00">Gender</text>
</g>
<!-- Gender&#45;&gt;User -->
<g id="edge25" class="edge"><title>Gender&#45;&gt;User</title>
<path fill="none" stroke="#af15be" d="M515.64,-434.917C552.119,-422.275 605.191,-403.884 640.382,-391.69"/>
<ellipse fill="none" stroke="#af15be" cx="511.684" cy="-436.288" rx="4.00001" ry="4.00001"/>
<polygon fill="#af15be" stroke="#af15be" points="640.798,-391.545 651.72,-392.523 645.522,-389.908 650.247,-388.271 650.247,-388.271 650.247,-388.271 645.522,-389.908 648.773,-384.019 640.798,-391.545 640.798,-391.545"/>
</g>
<!-- GroupRevision -->
<g id="node22" class="node"><title>GroupRevision</title>
<ellipse fill="none" stroke="black" cx="360" cy="-378" rx="78.9404" ry="18"/>
<text text-anchor="middle" x="360" y="-374.3" font-family="Times,serif" font-size="14.00">GroupRevision</text>
</g>
<!-- Group&#45;&gt;GroupRevision -->
<g id="edge27" class="edge"><title>Group&#45;&gt;GroupRevision</title>
<path fill="none" stroke="#4b9e78" d="M316.039,-427.082C322.966,-419.506 330.767,-410.974 337.853,-403.223"/>
<ellipse fill="none" stroke="#4b9e78" cx="313.222" cy="-430.164" rx="4.00002" ry="4.00002"/>
<polygon fill="#4b9e78" stroke="#4b9e78" points="337.895,-403.178 347.964,-398.834 341.269,-399.488 344.642,-395.797 344.642,-395.797 344.642,-395.797 341.269,-399.488 341.321,-392.761 337.895,-403.178 337.895,-403.178"/>
</g>
<!-- Group&#45;&gt;Installment -->
<g id="edge28" class="edge"><title>Group&#45;&gt;Installment</title>
<path fill="none" stroke="#0a2baa" d="M283.709,-424.778C279.556,-415.893 275.173,-405.648 272,-396 265.305,-375.645 260.371,-351.879 257.211,-334.028"/>
<ellipse fill="none" stroke="#0a2baa" cx="285.533" cy="-428.58" rx="4.00002" ry="4.00002"/>
<polygon fill="#0a2baa" stroke="#0a2baa" points="257.186,-333.877 259.952,-323.265 256.35,-328.947 255.515,-324.017 255.515,-324.017 255.515,-324.017 256.35,-328.947 251.078,-324.769 257.186,-333.877 257.186,-333.877"/>
</g>
<!-- Group&#45;&gt;User -->
<g id="edge26" class="edge"><title>Group&#45;&gt;User</title>
<path fill="none" stroke="#78c6ce" d="M341.74,-440.535C356.504,-437.807 372.944,-434.772 388,-432 476.788,-415.655 580.94,-396.578 636.775,-386.359"/>
<polygon fill="#78c6ce" stroke="#78c6ce" points="341.658,-440.551 331.006,-437.944 336.741,-441.46 331.824,-442.369 331.824,-442.369 331.824,-442.369 336.741,-441.46 332.642,-446.794 341.658,-440.551 341.658,-440.551"/>
<polygon fill="#78c6ce" stroke="#78c6ce" points="636.787,-386.357 647.434,-388.983 641.705,-385.457 646.624,-384.557 646.624,-384.557 646.624,-384.557 641.705,-385.457 645.814,-380.13 636.787,-386.357 636.787,-386.357"/>
</g>
<!-- GroupProjectCount -->
<g id="node21" class="node"><title>GroupProjectCount</title>
<ellipse fill="none" stroke="black" cx="677" cy="-450" rx="101.087" ry="18"/>
<text text-anchor="middle" x="677" y="-446.3" font-family="Times,serif" font-size="14.00">GroupProjectCount</text>
</g>
<!-- GroupProjectCount&#45;&gt;User -->
<g id="edge29" class="edge"><title>GroupProjectCount&#45;&gt;User</title>
<path fill="none" stroke="#429916" d="M677,-423.64C677,-418.063 677,-412.132 677,-406.476"/>
<ellipse fill="none" stroke="#429916" cx="677" cy="-427.697" rx="4" ry="4"/>
<polygon fill="#429916" stroke="#429916" points="677,-406.104 681.5,-396.104 677,-401.104 677,-396.104 677,-396.104 677,-396.104 677,-401.104 672.5,-396.104 677,-406.104 677,-406.104"/>
</g>
<!-- Value -->
<g id="node34" class="node"><title>Value</title>
<ellipse fill="none" stroke="black" cx="253" cy="-234" rx="36.096" ry="18"/>
<text text-anchor="middle" x="253" y="-230.3" font-family="Times,serif" font-size="14.00">Value</text>
</g>
<!-- Installment&#45;&gt;Value -->
<g id="edge30" class="edge"><title>Installment&#45;&gt;Value</title>
<path fill="none" stroke="#786c0c" d="M253,-279.64C253,-274.063 253,-268.132 253,-262.476"/>
<ellipse fill="none" stroke="#786c0c" cx="253" cy="-283.697" rx="4" ry="4"/>
<polygon fill="#786c0c" stroke="#786c0c" points="253,-262.104 257.5,-252.104 253,-257.104 253,-252.104 253,-252.104 253,-252.104 253,-257.104 248.5,-252.104 253,-262.104 253,-262.104"/>
</g>
<!-- Narrative -->
<g id="node24" class="node"><title>Narrative</title>
<ellipse fill="none" stroke="black" cx="679" cy="-306" rx="55.3436" ry="18"/>
<text text-anchor="middle" x="679" y="-302.3" font-family="Times,serif" font-size="14.00">Narrative</text>
</g>
<!-- Narrative&#45;&gt;Behavior -->
<g id="edge32" class="edge"><title>Narrative&#45;&gt;Behavior</title>
<path fill="none" stroke="#6f1d4d" d="M654.436,-283.18C646.31,-274.398 638.26,-263.6 634,-252 626.407,-231.326 629.102,-206.154 632.998,-187.863"/>
<ellipse fill="none" stroke="#6f1d4d" cx="657.238" cy="-286.058" rx="4.00002" ry="4.00002"/>
<ellipse fill="#6f1d4d" stroke="#6f1d4d" cx="633.929" cy="-183.879" rx="4.00001" ry="4.00001"/>
</g>
<!-- Narrative&#45;&gt;Reaction -->
<g id="edge33" class="edge"><title>Narrative&#45;&gt;Reaction</title>
<path fill="none" stroke="#101bd2" d="M654.817,-283.51C645.045,-274.271 633.979,-263.066 625,-252 601.074,-222.512 593.417,-215.13 579,-180 570.865,-160.177 566.017,-136.379 563.256,-118.381"/>
<ellipse fill="none" stroke="#101bd2" cx="657.776" cy="-286.264" rx="4.00002" ry="4.00002"/>
<polygon fill="#101bd2" stroke="#101bd2" points="563.227,-118.172 566.285,-107.641 562.528,-113.221 561.83,-108.27 561.83,-108.27 561.83,-108.27 562.528,-113.221 557.374,-108.899 563.227,-118.172 563.227,-118.172"/>
</g>
<!-- Week -->
<g id="node35" class="node"><title>Week</title>
<ellipse fill="none" stroke="black" cx="679" cy="-234" rx="36.096" ry="18"/>
<text text-anchor="middle" x="679" y="-230.3" font-family="Times,serif" font-size="14.00">Week</text>
</g>
<!-- Narrative&#45;&gt;Week -->
<g id="edge31" class="edge"><title>Narrative&#45;&gt;Week</title>
<path fill="none" stroke="#ce758c" d="M679,-279.64C679,-274.063 679,-268.132 679,-262.476"/>
<ellipse fill="none" stroke="#ce758c" cx="679" cy="-283.697" rx="4" ry="4"/>
<polygon fill="#ce758c" stroke="#ce758c" points="679,-262.104 683.5,-252.104 679,-257.104 679,-252.104 679,-252.104 679,-252.104 679,-257.104 674.5,-252.104 679,-262.104 679,-262.104"/>
</g>
<!-- Project&#45;&gt;Assessment -->
<g id="edge35" class="edge"><title>Project&#45;&gt;Assessment</title>
<path fill="none" stroke="#5ef2f3" d="M229,-567.64C229,-562.063 229,-556.132 229,-550.476"/>
<ellipse fill="none" stroke="#5ef2f3" cx="229" cy="-571.697" rx="4" ry="4"/>
<polygon fill="#5ef2f3" stroke="#5ef2f3" points="229,-550.104 233.5,-540.104 229,-545.104 229,-540.104 229,-540.104 229,-540.104 229,-545.104 224.5,-540.104 229,-550.104 229,-550.104"/>
</g>
<!-- Project&#45;&gt;Factor -->
<g id="edge37" class="edge"><title>Project&#45;&gt;Factor</title>
<path fill="none" stroke="#a08c86" d="M190.868,-574.974C176.918,-566.388 162.487,-554.733 154,-540 143.254,-521.346 141.807,-496.765 142.736,-478.163"/>
<polygon fill="#a08c86" stroke="#a08c86" points="191.232,-575.183 197.652,-584.073 195.565,-577.678 199.898,-580.174 199.898,-580.174 199.898,-580.174 195.565,-577.678 202.143,-576.274 191.232,-575.183 191.232,-575.183"/>
<polygon fill="#a08c86" stroke="#a08c86" points="142.751,-477.963 147.992,-468.331 143.128,-472.977 143.505,-467.992 143.505,-467.992 143.505,-467.992 143.128,-472.977 139.017,-467.652 142.751,-477.963 142.751,-477.963"/>
</g>
<!-- Project&#45;&gt;Group -->
<g id="edge34" class="edge"><title>Project&#45;&gt;Group</title>
<path fill="none" stroke="#d95160" d="M265.811,-576.544C280.484,-567.923 295.809,-555.817 304,-540 313.992,-520.705 310.655,-495.882 305.584,-477.356"/>
<ellipse fill="none" stroke="#d95160" cx="262.191" cy="-578.555" rx="4.00002" ry="4.00002"/>
<polygon fill="#d95160" stroke="#d95160" points="305.583,-477.35 306.966,-466.472 304.122,-472.568 302.662,-467.786 302.662,-467.786 302.662,-467.786 304.122,-472.568 298.358,-469.101 305.583,-477.35 305.583,-477.35"/>
</g>
<!-- Project&#45;&gt;User -->
<g id="edge36" class="edge"><title>Project&#45;&gt;User</title>
<path fill="none" stroke="#69924a" d="M273.737,-579.743C334.355,-560.601 444.579,-521.553 528,-468 547.851,-455.257 547.494,-445.265 567,-432 590.362,-416.113 619.213,-402.402 641.506,-392.909"/>
<polygon fill="#69924a" stroke="#69924a" points="273.634,-579.775 262.747,-578.458 268.861,-581.265 264.088,-582.754 264.088,-582.754 264.088,-582.754 268.861,-581.265 265.428,-587.05 273.634,-579.775 273.634,-579.775"/>
<polygon fill="#69924a" stroke="#69924a" points="641.703,-392.827 652.665,-393.131 646.318,-390.902 650.933,-388.978 650.933,-388.978 650.933,-388.978 646.318,-390.902 649.201,-384.824 641.703,-392.827 641.703,-392.827"/>
</g>
<!-- Reaction&#45;&gt;Diagnosis -->
<g id="edge38" class="edge"><title>Reaction&#45;&gt;Diagnosis</title>
<path fill="none" stroke="#a416d4" d="M598.094,-72.2289C622.173,-61.6281 653.282,-47.9325 677.914,-37.0883"/>
<ellipse fill="none" stroke="#a416d4" cx="594.318" cy="-73.8915" rx="4.00002" ry="4.00002"/>
<polygon fill="#a416d4" stroke="#a416d4" points="678.197,-36.9638 689.162,-37.0529 682.773,-34.9491 687.349,-32.9344 687.349,-32.9344 687.349,-32.9344 682.773,-34.9491 685.536,-28.8159 678.197,-36.9638 678.197,-36.9638"/>
</g>
<!-- Role -->
<g id="node27" class="node"><title>Role</title>
<ellipse fill="none" stroke="black" cx="1222" cy="-450" rx="31.2965" ry="18"/>
<text text-anchor="middle" x="1222" y="-446.3" font-family="Times,serif" font-size="14.00">Role</text>
</g>
<!-- Role&#45;&gt;Roster -->
<g id="edge40" class="edge"><title>Role&#45;&gt;Roster</title>
<path fill="none" stroke="#b18204" d="M1240.99,-427.428C1263.8,-401.51 1301.97,-358.151 1325.75,-331.14"/>
<ellipse fill="none" stroke="#b18204" cx="1238.26" cy="-430.531" rx="4.00002" ry="4.00002"/>
<polygon fill="#b18204" stroke="#b18204" points="1326.03,-330.826 1336.01,-326.293 1329.33,-327.073 1332.63,-323.32 1332.63,-323.32 1332.63,-323.32 1329.33,-327.073 1329.26,-320.346 1326.03,-330.826 1326.03,-330.826"/>
</g>
<!-- Role&#45;&gt;User -->
<g id="edge39" class="edge"><title>Role&#45;&gt;User</title>
<path fill="none" stroke="#b35c86" d="M1189.99,-435.774C1185.67,-434.327 1181.27,-433.014 1177,-432 1010.72,-392.47 806.321,-382.404 719.37,-379.856"/>
<ellipse fill="none" stroke="#b35c86" cx="1193.83" cy="-437.144" rx="4.00001" ry="4.00001"/>
<polygon fill="#b35c86" stroke="#b35c86" points="719.356,-379.856 709.483,-375.083 714.357,-379.719 709.359,-379.581 709.359,-379.581 709.359,-379.581 714.357,-379.719 709.236,-384.08 719.356,-379.856 719.356,-379.856"/>
</g>
<!-- Scenario&#45;&gt;Narrative -->
<g id="edge41" class="edge"><title>Scenario&#45;&gt;Narrative</title>
<path fill="none" stroke="#821fd5" d="M725.435,-116.197C732.485,-148.697 740.727,-206.456 724,-252 719.986,-262.931 712.607,-273.149 704.969,-281.64"/>
<ellipse fill="none" stroke="#821fd5" cx="724.482" cy="-112.016" rx="4.00001" ry="4.00001"/>
<polygon fill="#821fd5" stroke="#821fd5" points="704.899,-281.713 694.726,-285.806 701.435,-285.318 697.971,-288.924 697.971,-288.924 697.971,-288.924 701.435,-285.318 701.216,-292.041 704.899,-281.713 704.899,-281.713"/>
</g>
<!-- School -->
<g id="node30" class="node"><title>School</title>
<ellipse fill="none" stroke="black" cx="1163" cy="-759" rx="41.394" ry="18"/>
<text text-anchor="middle" x="1163" y="-755.3" font-family="Times,serif" font-size="14.00">School</text>
</g>
<!-- School&#45;&gt;Course -->
<g id="edge42" class="edge"><title>School&#45;&gt;Course</title>
<path fill="none" stroke="#fac867" d="M1163,-732.729C1163,-720.725 1163,-706.362 1163,-694.129"/>
<ellipse fill="none" stroke="#fac867" cx="1163" cy="-736.884" rx="4" ry="4"/>
<polygon fill="#fac867" stroke="#fac867" points="1163,-694.04 1167.5,-684.04 1163,-689.04 1163,-684.04 1163,-684.04 1163,-684.04 1163,-689.04 1158.5,-684.04 1163,-694.04 1163,-694.04"/>
</g>
<!-- Style -->
<g id="node31" class="node"><title>Style</title>
<ellipse fill="none" stroke="black" cx="229" cy="-666" rx="34.1708" ry="18"/>
<text text-anchor="middle" x="229" y="-662.3" font-family="Times,serif" font-size="14.00">Style</text>
</g>
<!-- Style&#45;&gt;Project -->
<g id="edge43" class="edge"><title>Style&#45;&gt;Project</title>
<path fill="none" stroke="#8e1d5b" d="M229,-639.64C229,-634.063 229,-628.132 229,-622.476"/>
<ellipse fill="none" stroke="#8e1d5b" cx="229" cy="-643.697" rx="4" ry="4"/>
<polygon fill="#8e1d5b" stroke="#8e1d5b" points="229,-622.104 233.5,-612.104 229,-617.104 229,-612.104 229,-612.104 229,-612.104 229,-617.104 224.5,-612.104 229,-622.104 229,-622.104"/>
</g>
<!-- Theme -->
<g id="node32" class="node"><title>Theme</title>
<ellipse fill="none" stroke="black" cx="839" cy="-450" rx="42.3701" ry="18"/>
<text text-anchor="middle" x="839" y="-446.3" font-family="Times,serif" font-size="14.00">Theme</text>
</g>
<!-- Theme&#45;&gt;User -->
<g id="edge44" class="edge"><title>Theme&#45;&gt;User</title>
<path fill="none" stroke="#53081a" d="M802.887,-433.396C775.518,-421.569 738.157,-405.426 711.255,-393.801"/>
<ellipse fill="none" stroke="#53081a" cx="806.739" cy="-435.06" rx="4.00002" ry="4.00002"/>
<polygon fill="#53081a" stroke="#53081a" points="711.034,-393.706 703.639,-385.609 706.444,-391.723 701.855,-389.74 701.855,-389.74 701.855,-389.74 706.444,-391.723 700.07,-393.87 711.034,-393.706 711.034,-393.706"/>
</g>
<!-- User&#45;&gt;CandidateList -->
<g id="edge47" class="edge"><title>User&#45;&gt;CandidateList</title>
<path fill="none" stroke="#8decb2" d="M716.456,-372.768C789.564,-364.731 950.939,-346.075 1086,-324 1092.66,-322.911 1099.59,-321.69 1106.51,-320.414"/>
<ellipse fill="none" stroke="#8decb2" cx="712.38" cy="-373.214" rx="4.00001" ry="4.00001"/>
<polygon fill="#8decb2" stroke="#8decb2" points="1106.76,-320.367 1117.42,-322.937 1111.67,-319.441 1116.58,-318.515 1116.58,-318.515 1116.58,-318.515 1111.67,-319.441 1115.75,-314.093 1106.76,-320.367 1106.76,-320.367"/>
</g>
<!-- User&#45;&gt;ConsentLog -->
<g id="edge46" class="edge"><title>User&#45;&gt;ConsentLog</title>
<path fill="none" stroke="#7abd4d" d="M637.224,-373.363C552.837,-365.514 349.695,-345.916 180,-324 165.024,-322.066 148.956,-319.763 133.799,-317.486"/>
<ellipse fill="none" stroke="#7abd4d" cx="641.271" cy="-373.738" rx="4" ry="4"/>
<polygon fill="#7abd4d" stroke="#7abd4d" points="133.362,-317.42 124.151,-311.469 128.418,-316.669 123.475,-315.919 123.475,-315.919 123.475,-315.919 128.418,-316.669 122.8,-320.368 133.362,-317.42 133.362,-317.42"/>
</g>
<!-- User&#45;&gt;Email -->
<g id="edge45" class="edge"><title>User&#45;&gt;Email</title>
<path fill="none" stroke="#606830" d="M649.434,-359.458C633.617,-349.393 613.731,-336.738 597.453,-326.379"/>
<ellipse fill="none" stroke="#606830" cx="653.193" cy="-361.85" rx="4.00002" ry="4.00002"/>
<polygon fill="#606830" stroke="#606830" points="597.267,-326.261 591.246,-317.095 593.048,-323.576 588.83,-320.892 588.83,-320.892 588.83,-320.892 593.048,-323.576 586.414,-324.688 597.267,-326.261 597.267,-326.261"/>
</g>
<!-- User&#45;&gt;Experience -->
<g id="edge51" class="edge"><title>User&#45;&gt;Experience</title>
<path fill="none" stroke="#cc6f72" d="M639.735,-365.609C601.565,-353.941 541.941,-335.716 499.32,-322.687"/>
<polygon fill="#cc6f72" stroke="#cc6f72" points="639.814,-365.633 648.062,-372.86 644.596,-367.095 649.377,-368.556 649.377,-368.556 649.377,-368.556 644.596,-367.095 650.693,-364.253 639.814,-365.633 639.814,-365.633"/>
<polygon fill="#cc6f72" stroke="#cc6f72" points="499.251,-322.666 491.004,-315.44 494.47,-321.205 489.688,-319.743 489.688,-319.743 489.688,-319.743 494.47,-321.205 488.373,-324.047 499.251,-322.666 499.251,-322.666"/>
</g>
<!-- User&#45;&gt;Installment -->
<g id="edge48" class="edge"><title>User&#45;&gt;Installment</title>
<path fill="none" stroke="#9f17fd" d="M637.969,-371.237C575.412,-361.908 448.863,-342.655 342,-324 333.01,-322.431 323.523,-320.699 314.227,-318.96"/>
<ellipse fill="none" stroke="#9f17fd" cx="642.045" cy="-371.844" rx="4.00001" ry="4.00001"/>
<polygon fill="#9f17fd" stroke="#9f17fd" points="314.074,-318.932 305.082,-312.656 309.161,-318.005 304.248,-317.078 304.248,-317.078 304.248,-317.078 309.161,-318.005 303.413,-321.5 314.074,-318.932 314.074,-318.932"/>
</g>
<!-- User&#45;&gt;Narrative -->
<g id="edge52" class="edge"><title>User&#45;&gt;Narrative</title>
<path fill="none" stroke="#99df55" d="M677.781,-349.665C677.927,-344.552 678.08,-339.21 678.226,-334.104"/>
<polygon fill="#99df55" stroke="#99df55" points="677.78,-349.701 672.996,-359.568 677.637,-354.699 677.494,-359.697 677.494,-359.697 677.494,-359.697 677.637,-354.699 681.993,-359.825 677.78,-349.701 677.78,-349.701"/>
<polygon fill="#99df55" stroke="#99df55" points="678.226,-334.1 683.009,-324.233 678.368,-329.102 678.511,-324.104 678.511,-324.104 678.511,-324.104 678.368,-329.102 674.013,-323.976 678.226,-334.1 678.226,-334.1"/>
</g>
<!-- User&#45;&gt;Reaction -->
<g id="edge50" class="edge"><title>User&#45;&gt;Reaction</title>
<path fill="none" stroke="#2af24e" d="M636.647,-376.08C562.232,-373.441 407.963,-363.251 375,-324 309.831,-246.398 453.205,-150.893 523.754,-110.503"/>
<ellipse fill="none" stroke="#2af24e" cx="640.885" cy="-376.221" rx="4" ry="4"/>
<polygon fill="#2af24e" stroke="#2af24e" points="524.082,-110.318 535.003,-109.322 528.437,-107.861 532.791,-105.403 532.791,-105.403 532.791,-105.403 528.437,-107.861 530.579,-101.484 524.082,-110.318 524.082,-110.318"/>
</g>
<!-- User&#45;&gt;Roster -->
<g id="edge49" class="edge"><title>User&#45;&gt;Roster</title>
<path fill="none" stroke="#8f5a73" d="M717.513,-376.414C816.401,-374.355 1077.64,-365.125 1291,-324 1295.8,-323.075 1300.77,-321.898 1305.68,-320.595"/>
<ellipse fill="none" stroke="#8f5a73" cx="713.284" cy="-376.497" rx="4" ry="4"/>
<polygon fill="#8f5a73" stroke="#8f5a73" points="1305.98,-320.511 1316.83,-322.117 1310.79,-319.149 1315.6,-317.788 1315.6,-317.788 1315.6,-317.788 1310.79,-319.149 1314.37,-313.458 1305.98,-320.511 1305.98,-320.511"/>
</g>
<!-- Week&#45;&gt;Behavior -->
<g id="edge53" class="edge"><title>Week&#45;&gt;Behavior</title>
<path fill="none" stroke="#f0ea39" d="M665.822,-209.346C661.877,-202.267 657.546,-194.493 653.577,-187.369"/>
<ellipse fill="none" stroke="#f0ea39" cx="667.811" cy="-212.917" rx="4.00002" ry="4.00002"/>
<ellipse fill="#f0ea39" stroke="#f0ea39" cx="651.394" cy="-183.45" rx="4.00002" ry="4.00002"/>
</g>
<!-- Week&#45;&gt;Diagnosis -->
<g id="edge54" class="edge"><title>Week&#45;&gt;Diagnosis</title>
<path fill="none" stroke="#f30d32" d="M702.575,-212.874C727.074,-190.257 763.905,-151.033 779,-108 784.296,-92.9019 785.577,-86.5856 779,-72 773.41,-59.6032 763.328,-48.9404 753.005,-40.497"/>
<ellipse fill="none" stroke="#f30d32" cx="699.597" cy="-215.573" rx="4.00002" ry="4.00002"/>
<polygon fill="#f30d32" stroke="#f30d32" points="752.709,-40.2717 747.482,-30.6314 748.732,-37.2412 744.755,-34.2107 744.755,-34.2107 744.755,-34.2107 748.732,-37.2412 742.028,-37.79 752.709,-40.2717 752.709,-40.2717"/>
</g>
</g>
</svg>
