<?xml version="1.0" encoding="UTF-8" standalone="no"?>
<!DOCTYPE svg PUBLIC "-//W3C//DTD SVG 1.1//EN"
 "http://www.w3.org/Graphics/SVG/1.1/DTD/svg11.dtd">
<!-- Generated by graphviz version 2.38.0 (20140413.2041)
 -->
<!-- Title: models_diagram Pages: 1 -->
<svg width="986pt" height="446pt"
 viewBox="0.00 0.00 986.05 446.00" xmlns="http://www.w3.org/2000/svg" xmlns:xlink="http://www.w3.org/1999/xlink">
<g id="graph0" class="graph" transform="scale(1 1) rotate(0) translate(4 442)">
<title>models_diagram</title>
<polygon fill="none" stroke="none" points="-4,4 -4,-442 982.046,-442 982.046,4 -4,4"/>
<!-- _diagram_info -->
<g id="node1" class="node"><title>_diagram_info</title>
<text text-anchor="start" x="8" y="-423.6" font-family="Times,serif" font-size="13.00">Models diagram</text>
<text text-anchor="start" x="8" y="-409.6" font-family="Times,serif" font-size="13.00">Date: Jan 19 2017 &#45; 22:36</text>
<text text-anchor="start" x="8" y="-395.6" font-family="Times,serif" font-size="13.00">Migration version: 20170119125723</text>
<text text-anchor="start" x="8" y="-381.6" font-family="Times,serif" font-size="13.00">Generated by RailRoady 1.5.2</text>
<text text-anchor="start" x="8" y="-367.6" font-family="Times,serif" font-size="13.00">http://railroady.prestonlee.com</text>
</g>
<!-- GroupProjectCount -->
<g id="node2" class="node"><title>GroupProjectCount</title>
<ellipse fill="none" stroke="black" cx="311" cy="-399" rx="79.0865" ry="18"/>
<text text-anchor="middle" x="311" y="-395.3" font-family="Times,serif" font-size="14.00">GroupProjectCount</text>
</g>
<!-- User -->
<g id="node8" class="node"><title>User</title>
<ellipse fill="none" stroke="black" cx="446" cy="-306" rx="27.0966" ry="18"/>
<text text-anchor="middle" x="446" y="-302.3" font-family="Times,serif" font-size="14.00">User</text>
</g>
<!-- GroupProjectCount&#45;&gt;User -->
<g id="edge1" class="edge"><title>GroupProjectCount&#45;&gt;User</title>
<path fill="none" stroke="#d6dc2b" d="M341.922,-377.156C365.17,-361.486 396.711,-340.225 418.959,-325.228"/>
<ellipse fill="none" stroke="#d6dc2b" cx="338.452" cy="-379.495" rx="4.00002" ry="4.00002"/>
<polygon fill="#d6dc2b" stroke="#d6dc2b" points="418.994,-325.204 429.802,-323.346 423.14,-322.409 427.286,-319.614 427.286,-319.614 427.286,-319.614 423.14,-322.409 424.771,-315.883 418.994,-325.204 418.994,-325.204"/>
</g>
<!-- FactorPack -->
<g id="node3" class="node"><title>FactorPack</title>
<ellipse fill="none" stroke="black" cx="928" cy="-306" rx="50.0912" ry="18"/>
<text text-anchor="middle" x="928" y="-302.3" font-family="Times,serif" font-size="14.00">FactorPack</text>
</g>
<!-- Project -->
<g id="node12" class="node"><title>Project</title>
<ellipse fill="none" stroke="black" cx="714" cy="-234" rx="35.9954" ry="18"/>
<text text-anchor="middle" x="714" y="-230.3" font-family="Times,serif" font-size="14.00">Project</text>
</g>
<!-- FactorPack&#45;&gt;Project -->
<g id="edge3" class="edge"><title>FactorPack&#45;&gt;Project</title>
<path fill="none" stroke="#ddfa68" d="M884.556,-290.789C845.997,-278.177 790.167,-259.914 753.011,-247.761"/>
<ellipse fill="none" stroke="#ddfa68" cx="888.379" cy="-292.04" rx="4.00001" ry="4.00001"/>
<polygon fill="#ddfa68" stroke="#ddfa68" points="752.56,-247.613 744.455,-240.227 747.808,-246.059 743.056,-244.504 743.056,-244.504 743.056,-244.504 747.808,-246.059 741.657,-248.781 752.56,-247.613 752.56,-247.613"/>
</g>
<!-- Factor -->
<g id="node15" class="node"><title>Factor</title>
<ellipse fill="none" stroke="black" cx="804" cy="-162" rx="33.2948" ry="18"/>
<text text-anchor="middle" x="804" y="-158.3" font-family="Times,serif" font-size="14.00">Factor</text>
</g>
<!-- FactorPack&#45;&gt;Factor -->
<g id="edge2" class="edge"><title>FactorPack&#45;&gt;Factor</title>
<path fill="none" stroke="#8cd828" d="M907.068,-281.03C883.985,-254.596 847.099,-212.356 824.28,-186.224"/>
<polygon fill="#8cd828" stroke="#8cd828" points="907.198,-281.178 910.386,-291.671 910.487,-284.945 913.776,-288.711 913.776,-288.711 913.776,-288.711 910.487,-284.945 917.165,-285.751 907.198,-281.178 907.198,-281.178"/>
<polygon fill="#8cd828" stroke="#8cd828" points="824.258,-186.199 821.07,-175.707 820.969,-182.433 817.681,-178.667 817.681,-178.667 817.681,-178.667 820.969,-182.433 814.291,-181.626 824.258,-186.199 824.258,-186.199"/>
</g>
<!-- Course -->
<g id="node4" class="node"><title>Course</title>
<ellipse fill="none" stroke="black" cx="824" cy="-306" rx="35.9954" ry="18"/>
<text text-anchor="middle" x="824" y="-302.3" font-family="Times,serif" font-size="14.00">Course</text>
</g>
<!-- Course&#45;&gt;Project -->
<g id="edge4" class="edge"><title>Course&#45;&gt;Project</title>
<path fill="none" stroke="#a6dfe7" d="M795.641,-286.953C779.819,-276.885 760.119,-264.349 744.035,-254.113"/>
<ellipse fill="none" stroke="#a6dfe7" cx="799.416" cy="-289.356" rx="4.00002" ry="4.00002"/>
<polygon fill="#a6dfe7" stroke="#a6dfe7" points="743.956,-254.063 737.935,-244.898 739.738,-251.379 735.519,-248.694 735.519,-248.694 735.519,-248.694 739.738,-251.379 733.103,-252.491 743.956,-254.063 743.956,-254.063"/>
</g>
<!-- Style -->
<g id="node5" class="node"><title>Style</title>
<ellipse fill="none" stroke="black" cx="742" cy="-306" rx="28.6953" ry="18"/>
<text text-anchor="middle" x="742" y="-302.3" font-family="Times,serif" font-size="14.00">Style</text>
</g>
<!-- Style&#45;&gt;Project -->
<g id="edge5" class="edge"><title>Style&#45;&gt;Project</title>
<path fill="none" stroke="#941bcf" d="M732.311,-280.778C729.818,-274.544 727.122,-267.805 724.585,-261.463"/>
<ellipse fill="none" stroke="#941bcf" cx="733.879" cy="-284.697" rx="4.00001" ry="4.00001"/>
<polygon fill="#941bcf" stroke="#941bcf" points="724.496,-261.241 724.961,-250.285 722.639,-256.599 720.782,-251.956 720.782,-251.956 720.782,-251.956 722.639,-256.599 716.604,-253.627 724.496,-261.241 724.496,-261.241"/>
</g>
<!-- Installment -->
<g id="node6" class="node"><title>Installment</title>
<ellipse fill="none" stroke="black" cx="487" cy="-90" rx="50.8918" ry="18"/>
<text text-anchor="middle" x="487" y="-86.3" font-family="Times,serif" font-size="14.00">Installment</text>
</g>
<!-- Value -->
<g id="node17" class="node"><title>Value</title>
<ellipse fill="none" stroke="black" cx="487" cy="-18" rx="31.6951" ry="18"/>
<text text-anchor="middle" x="487" y="-14.3" font-family="Times,serif" font-size="14.00">Value</text>
</g>
<!-- Installment&#45;&gt;Value -->
<g id="edge6" class="edge"><title>Installment&#45;&gt;Value</title>
<path fill="none" stroke="#5bb96b" d="M487,-63.6398C487,-58.0629 487,-52.1319 487,-46.4761"/>
<ellipse fill="none" stroke="#5bb96b" cx="487" cy="-67.6966" rx="4" ry="4"/>
<polygon fill="#5bb96b" stroke="#5bb96b" points="487,-46.1043 491.5,-36.1043 487,-41.1043 487,-36.1043 487,-36.1043 487,-36.1043 487,-41.1043 482.5,-36.1044 487,-46.1043 487,-46.1043"/>
</g>
<!-- ConsentForm -->
<g id="node7" class="node"><title>ConsentForm</title>
<ellipse fill="none" stroke="black" cx="636" cy="-306" rx="59.2899" ry="18"/>
<text text-anchor="middle" x="636" y="-302.3" font-family="Times,serif" font-size="14.00">ConsentForm</text>
</g>
<!-- ConsentForm&#45;&gt;Project -->
<g id="edge7" class="edge"><title>ConsentForm&#45;&gt;Project</title>
<path fill="none" stroke="#1ba9f0" d="M660.166,-283.313C669.589,-274.856 680.371,-265.18 689.798,-256.72"/>
<ellipse fill="none" stroke="#1ba9f0" cx="657.068" cy="-286.093" rx="4.00002" ry="4.00002"/>
<polygon fill="#1ba9f0" stroke="#1ba9f0" points="689.896,-256.631 700.344,-253.301 693.618,-253.292 697.339,-249.952 697.339,-249.952 697.339,-249.952 693.618,-253.292 694.333,-246.603 689.896,-256.631 689.896,-256.631"/>
</g>
<!-- ConsentLog -->
<g id="node16" class="node"><title>ConsentLog</title>
<ellipse fill="none" stroke="black" cx="606" cy="-234" rx="53.8905" ry="18"/>
<text text-anchor="middle" x="606" y="-230.3" font-family="Times,serif" font-size="14.00">ConsentLog</text>
</g>
<!-- ConsentForm&#45;&gt;ConsentLog -->
<g id="edge8" class="edge"><title>ConsentForm&#45;&gt;ConsentLog</title>
<path fill="none" stroke="#f29888" d="M625.52,-280.548C622.898,-274.428 620.072,-267.835 617.407,-261.616"/>
<ellipse fill="none" stroke="#f29888" cx="627.162" cy="-284.378" rx="4.00002" ry="4.00002"/>
<polygon fill="#f29888" stroke="#f29888" points="617.343,-261.467 617.54,-250.503 615.373,-256.871 613.404,-252.275 613.404,-252.275 613.404,-252.275 615.373,-256.871 609.268,-254.048 617.343,-261.467 617.343,-261.467"/>
</g>
<!-- User&#45;&gt;Installment -->
<g id="edge12" class="edge"><title>User&#45;&gt;Installment</title>
<path fill="none" stroke="#974e82" d="M446.848,-279.414C448.403,-247.313 452.778,-190.796 465,-144 467.352,-134.993 470.918,-125.501 474.499,-117.077"/>
<ellipse fill="none" stroke="#974e82" cx="446.655" cy="-283.796" rx="4" ry="4"/>
<polygon fill="#974e82" stroke="#974e82" points="474.573,-116.909 482.748,-109.601 476.605,-112.341 478.636,-107.772 478.636,-107.772 478.636,-107.772 476.605,-112.341 474.524,-105.944 474.573,-116.909 474.573,-116.909"/>
</g>
<!-- Group -->
<g id="node11" class="node"><title>Group</title>
<ellipse fill="none" stroke="black" cx="672" cy="-162" rx="33.2948" ry="18"/>
<text text-anchor="middle" x="672" y="-158.3" font-family="Times,serif" font-size="14.00">Group</text>
</g>
<!-- User&#45;&gt;Group -->
<g id="edge9" class="edge"><title>User&#45;&gt;Group</title>
<path fill="none" stroke="#91203b" d="M467.891,-283.221C491.255,-260.291 527.056,-226.132 543,-216 571.539,-197.863 607.332,-183.742 633.97,-174.652"/>
<polygon fill="#91203b" stroke="#91203b" points="467.613,-283.496 457.332,-287.311 464.052,-287.006 460.491,-290.516 460.491,-290.516 460.491,-290.516 464.052,-287.006 463.651,-293.721 467.613,-283.496 467.613,-283.496"/>
<polygon fill="#91203b" stroke="#91203b" points="634.209,-174.573 645.118,-175.687 638.953,-172.995 643.698,-171.417 643.698,-171.417 643.698,-171.417 638.953,-172.995 642.277,-167.147 634.209,-174.573 634.209,-174.573"/>
</g>
<!-- User&#45;&gt;Project -->
<g id="edge11" class="edge"><title>User&#45;&gt;Project</title>
<path fill="none" stroke="#52aa63" d="M476.324,-290.034C478.226,-289.298 480.127,-288.612 482,-288 562.455,-261.723 587.559,-275.04 669,-252 671.787,-251.211 674.646,-250.324 677.504,-249.38"/>
<polygon fill="#52aa63" stroke="#52aa63" points="476.159,-290.104 465.196,-289.884 471.559,-292.064 466.959,-294.024 466.959,-294.024 466.959,-294.024 471.559,-292.064 468.723,-298.164 476.159,-290.104 476.159,-290.104"/>
<polygon fill="#52aa63" stroke="#52aa63" points="677.686,-249.317 688.612,-250.256 682.405,-247.663 687.123,-246.009 687.123,-246.009 687.123,-246.009 682.405,-247.663 685.635,-241.762 677.686,-249.317 677.686,-249.317"/>
</g>
<!-- User&#45;&gt;ConsentLog -->
<g id="edge10" class="edge"><title>User&#45;&gt;ConsentLog</title>
<path fill="none" stroke="#73c3e2" d="M475.294,-291.056C477.558,-290.012 479.813,-288.983 482,-288 509.239,-275.753 540.121,-262.551 564.253,-252.387"/>
<ellipse fill="none" stroke="#73c3e2" cx="471.267" cy="-292.932" rx="4.00002" ry="4.00002"/>
<polygon fill="#73c3e2" stroke="#73c3e2" points="564.262,-252.383 575.225,-252.658 568.872,-250.446 573.481,-248.509 573.481,-248.509 573.481,-248.509 568.872,-250.446 571.738,-244.36 564.262,-252.383 564.262,-252.383"/>
</g>
<!-- Assessment -->
<g id="node18" class="node"><title>Assessment</title>
<ellipse fill="none" stroke="black" cx="527" cy="-162" rx="52.7911" ry="18"/>
<text text-anchor="middle" x="527" y="-158.3" font-family="Times,serif" font-size="14.00">Assessment</text>
</g>
<!-- User&#45;&gt;Assessment -->
<g id="edge13" class="edge"><title>User&#45;&gt;Assessment</title>
<path fill="none" stroke="#03d321" d="M460.273,-279.977C474.866,-254.395 497.43,-214.84 512.208,-188.932"/>
<polygon fill="#03d321" stroke="#03d321" points="460.089,-280.301 451.225,-286.757 457.612,-284.644 455.134,-288.987 455.134,-288.987 455.134,-288.987 457.612,-284.644 459.043,-291.217 460.089,-280.301 460.089,-280.301"/>
<polygon fill="#03d321" stroke="#03d321" points="512.316,-188.742 521.18,-182.285 514.794,-184.399 517.271,-180.056 517.271,-180.056 517.271,-180.056 514.794,-184.399 513.362,-177.826 512.316,-188.742 512.316,-188.742"/>
</g>
<!-- Roster -->
<g id="node9" class="node"><title>Roster</title>
<ellipse fill="none" stroke="black" cx="525" cy="-306" rx="33.5952" ry="18"/>
<text text-anchor="middle" x="525" y="-302.3" font-family="Times,serif" font-size="14.00">Roster</text>
</g>
<!-- School -->
<g id="node10" class="node"><title>School</title>
<ellipse fill="none" stroke="black" cx="824" cy="-399" rx="35.194" ry="18"/>
<text text-anchor="middle" x="824" y="-395.3" font-family="Times,serif" font-size="14.00">School</text>
</g>
<!-- School&#45;&gt;Course -->
<g id="edge14" class="edge"><title>School&#45;&gt;Course</title>
<path fill="none" stroke="#cf580b" d="M824,-372.729C824,-360.725 824,-346.362 824,-334.129"/>
<ellipse fill="none" stroke="#cf580b" cx="824" cy="-376.884" rx="4" ry="4"/>
<polygon fill="#cf580b" stroke="#cf580b" points="824,-334.04 828.5,-324.04 824,-329.04 824,-324.04 824,-324.04 824,-324.04 824,-329.04 819.5,-324.04 824,-334.04 824,-334.04"/>
</g>
<!-- Report -->
<g id="node20" class="node"><title>Report</title>
<ellipse fill="none" stroke="black" cx="672" cy="-90" rx="34.394" ry="18"/>
<text text-anchor="middle" x="672" y="-86.3" font-family="Times,serif" font-size="14.00">Report</text>
</g>
<!-- Group&#45;&gt;Report -->
<g id="edge15" class="edge"><title>Group&#45;&gt;Report</title>
<path fill="none" stroke="#9dcfec" d="M672,-135.64C672,-130.063 672,-124.132 672,-118.476"/>
<ellipse fill="none" stroke="#9dcfec" cx="672" cy="-139.697" rx="4" ry="4"/>
<polygon fill="#9dcfec" stroke="#9dcfec" points="672,-118.104 676.5,-108.104 672,-113.104 672,-108.104 672,-108.104 672,-108.104 672,-113.104 667.5,-108.104 672,-118.104 672,-118.104"/>
</g>
<!-- Project&#45;&gt;Group -->
<g id="edge16" class="edge"><title>Project&#45;&gt;Group</title>
<path fill="none" stroke="#32179f" d="M699.915,-209.526C695.848,-202.746 691.39,-195.317 687.255,-188.425"/>
<ellipse fill="none" stroke="#32179f" cx="701.989" cy="-212.981" rx="4.00002" ry="4.00002"/>
<polygon fill="#32179f" stroke="#32179f" points="687.027,-188.045 685.741,-177.155 684.454,-183.757 681.882,-179.47 681.882,-179.47 681.882,-179.47 684.454,-183.757 678.023,-181.785 687.027,-188.045 687.027,-188.045"/>
</g>
<!-- Project&#45;&gt;Factor -->
<g id="edge18" class="edge"><title>Project&#45;&gt;Factor</title>
<path fill="none" stroke="#953be5" d="M740.767,-212.181C752.42,-203.117 766.038,-192.526 777.644,-183.499"/>
<polygon fill="#953be5" stroke="#953be5" points="740.542,-212.357 729.885,-214.944 736.595,-215.426 732.648,-218.496 732.648,-218.496 732.648,-218.496 736.595,-215.426 735.411,-222.048 740.542,-212.357 740.542,-212.357"/>
<polygon fill="#953be5" stroke="#953be5" points="777.79,-183.385 788.447,-180.798 781.737,-180.316 785.684,-177.246 785.684,-177.246 785.684,-177.246 781.737,-180.316 782.921,-173.694 777.79,-183.385 777.79,-183.385"/>
</g>
<!-- Project&#45;&gt;Assessment -->
<g id="edge17" class="edge"><title>Project&#45;&gt;Assessment</title>
<path fill="none" stroke="#642d24" d="M678.754,-219.67C675.457,-218.427 672.166,-217.189 669,-216 636.056,-203.629 598.78,-189.72 570.689,-179.255"/>
<ellipse fill="none" stroke="#642d24" cx="682.658" cy="-221.142" rx="4.00001" ry="4.00001"/>
<polygon fill="#642d24" stroke="#642d24" points="570.529,-179.196 562.729,-171.489 565.844,-177.451 561.158,-175.706 561.158,-175.706 561.158,-175.706 565.844,-177.451 559.587,-179.923 570.529,-179.196 570.529,-179.196"/>
</g>
<!-- Gender -->
<g id="node13" class="node"><title>Gender</title>
<ellipse fill="none" stroke="black" cx="445" cy="-399" rx="36.2938" ry="18"/>
<text text-anchor="middle" x="445" y="-395.3" font-family="Times,serif" font-size="14.00">Gender</text>
</g>
<!-- Gender&#45;&gt;User -->
<g id="edge19" class="edge"><title>Gender&#45;&gt;User</title>
<path fill="none" stroke="#e2c686" d="M445.278,-372.729C445.41,-360.725 445.567,-346.362 445.702,-334.129"/>
<ellipse fill="none" stroke="#e2c686" cx="445.232" cy="-376.884" rx="4" ry="4"/>
<polygon fill="#e2c686" stroke="#e2c686" points="445.703,-334.039 450.312,-324.089 445.758,-329.039 445.813,-324.04 445.813,-324.04 445.813,-324.04 445.758,-329.039 441.313,-323.99 445.703,-334.039 445.703,-334.039"/>
</g>
<!-- AgeRange -->
<g id="node14" class="node"><title>AgeRange</title>
<ellipse fill="none" stroke="black" cx="925" cy="-399" rx="48.1917" ry="18"/>
<text text-anchor="middle" x="925" y="-395.3" font-family="Times,serif" font-size="14.00">AgeRange</text>
</g>
<!-- Assessment&#45;&gt;Installment -->
<g id="edge20" class="edge"><title>Assessment&#45;&gt;Installment</title>
<path fill="none" stroke="#d608e1" d="M513.284,-136.998C509.507,-130.387 505.397,-123.194 501.573,-116.502"/>
<ellipse fill="none" stroke="#d608e1" cx="515.333" cy="-140.582" rx="4.00002" ry="4.00002"/>
<polygon fill="#d608e1" stroke="#d608e1" points="501.555,-116.471 500.501,-105.556 499.074,-112.13 496.594,-107.789 496.594,-107.789 496.594,-107.789 499.074,-112.13 492.687,-110.022 501.555,-116.471 501.555,-116.471"/>
</g>
<!-- Role -->
<g id="node19" class="node"><title>Role</title>
<ellipse fill="none" stroke="black" cx="527" cy="-399" rx="27.0966" ry="18"/>
<text text-anchor="middle" x="527" y="-395.3" font-family="Times,serif" font-size="14.00">Role</text>
</g>
<!-- Role&#45;&gt;User -->
<g id="edge21" class="edge"><title>Role&#45;&gt;User</title>
<path fill="none" stroke="#de38ee" d="M507.999,-376.653C495.402,-362.501 478.898,-343.96 466.086,-329.565"/>
<ellipse fill="none" stroke="#de38ee" cx="510.965" cy="-379.985" rx="4.00002" ry="4.00002"/>
<polygon fill="#de38ee" stroke="#de38ee" points="466.044,-329.519 462.757,-319.057 462.72,-325.784 459.395,-322.049 459.395,-322.049 459.395,-322.049 462.72,-325.784 456.034,-325.041 466.044,-329.519 466.044,-329.519"/>
</g>
<!-- Role&#45;&gt;Roster -->
<g id="edge22" class="edge"><title>Role&#45;&gt;Roster</title>
<path fill="none" stroke="#9511fe" d="M526.445,-372.729C526.181,-360.725 525.865,-346.362 525.596,-334.129"/>
<ellipse fill="none" stroke="#9511fe" cx="526.536" cy="-376.885" rx="4" ry="4"/>
<polygon fill="#9511fe" stroke="#9511fe" points="525.594,-334.037 529.873,-323.941 525.484,-329.038 525.374,-324.04 525.374,-324.04 525.374,-324.04 525.484,-329.038 520.876,-324.139 525.594,-334.037 525.594,-334.037"/>
</g>
</g>
</svg>
