<?xml version="1.0" encoding="UTF-8" standalone="no"?>
<!DOCTYPE svg PUBLIC "-//W3C//DTD SVG 1.1//EN"
 "http://www.w3.org/Graphics/SVG/1.1/DTD/svg11.dtd">
<!-- Generated by graphviz version 2.36.0 (20140111.2315)
 -->
<!-- Title: models_diagram Pages: 1 -->
<svg width="1221pt" height="662pt"
 viewBox="0.00 0.00 1221.00 662.00" xmlns="http://www.w3.org/2000/svg" xmlns:xlink="http://www.w3.org/1999/xlink">
<g id="graph0" class="graph" transform="scale(1 1) rotate(0) translate(4 658)">
<title>models_diagram</title>
<polygon fill="none" stroke="none" points="-4,4 -4,-658 1217,-658 1217,4 -4,4"/>
<!-- _diagram_info -->
<g id="node1" class="node"><title>_diagram_info</title>
<text text-anchor="start" x="7.5" y="-639.6" font-family="Times,serif" font-size="13.00">Models diagram</text>
<text text-anchor="start" x="7.5" y="-625.6" font-family="Times,serif" font-size="13.00">Date: Jan 24 2017 &#45; 16:23</text>
<text text-anchor="start" x="7.5" y="-611.6" font-family="Times,serif" font-size="13.00">Migration version: 20170120094750</text>
<text text-anchor="start" x="7.5" y="-597.6" font-family="Times,serif" font-size="13.00">Generated by RailRoady 1.5.2</text>
<text text-anchor="start" x="7.5" y="-583.6" font-family="Times,serif" font-size="13.00">http://railroady.prestonlee.com</text>
</g>
<!-- AgeRange -->
<g id="node2" class="node"><title>AgeRange</title>
<ellipse fill="none" stroke="black" cx="660" cy="-615" rx="57.2688" ry="18"/>
<text text-anchor="middle" x="660" y="-611.3" font-family="Times,serif" font-size="14.00">AgeRange</text>
</g>
<!-- User -->
<g id="node22" class="node"><title>User</title>
<ellipse fill="none" stroke="black" cx="660" cy="-522" rx="32.2457" ry="18"/>
<text text-anchor="middle" x="660" y="-518.3" font-family="Times,serif" font-size="14.00">User</text>
</g>
<!-- AgeRange&#45;&gt;User -->
<g id="edge1" class="edge"><title>AgeRange&#45;&gt;User</title>
<path fill="none" stroke="#5e9a09" d="M660,-588.729C660,-576.725 660,-562.362 660,-550.129"/>
<ellipse fill="none" stroke="#5e9a09" cx="660" cy="-592.884" rx="4" ry="4"/>
<polygon fill="#5e9a09" stroke="#5e9a09" points="660,-550.04 664.5,-540.04 660,-545.04 660,-540.04 660,-540.04 660,-540.04 660,-545.04 655.5,-540.04 660,-550.04 660,-550.04"/>
</g>
<!-- Assessment -->
<g id="node3" class="node"><title>Assessment</title>
<ellipse fill="none" stroke="black" cx="773" cy="-450" rx="65.9423" ry="18"/>
<text text-anchor="middle" x="773" y="-446.3" font-family="Times,serif" font-size="14.00">Assessment</text>
</g>
<!-- Factor -->
<g id="node9" class="node"><title>Factor</title>
<ellipse fill="none" stroke="black" cx="773" cy="-378" rx="40.4202" ry="18"/>
<text text-anchor="middle" x="773" y="-374.3" font-family="Times,serif" font-size="14.00">Factor</text>
</g>
<!-- Assessment&#45;&gt;Factor -->
<g id="edge3" class="edge"><title>Assessment&#45;&gt;Factor</title>
<path fill="none" stroke="#4aad48" d="M773,-421.665C773,-416.687 773,-411.491 773,-406.507"/>
<polygon fill="#4aad48" stroke="#4aad48" points="773,-421.697 768.5,-431.697 773,-426.697 773,-431.697 773,-431.697 773,-431.697 773,-426.697 777.5,-431.697 773,-421.697 773,-421.697"/>
<polygon fill="#4aad48" stroke="#4aad48" points="773,-406.104 777.5,-396.104 773,-401.104 773,-396.104 773,-396.104 773,-396.104 773,-401.104 768.5,-396.104 773,-406.104 773,-406.104"/>
</g>
<!-- Installment -->
<g id="node14" class="node"><title>Installment</title>
<ellipse fill="none" stroke="black" cx="637" cy="-90" rx="64.0172" ry="18"/>
<text text-anchor="middle" x="637" y="-86.3" font-family="Times,serif" font-size="14.00">Installment</text>
</g>
<!-- Assessment&#45;&gt;Installment -->
<g id="edge2" class="edge"><title>Assessment&#45;&gt;Installment</title>
<path fill="none" stroke="#ebe5cf" d="M817.948,-432.063C885.914,-405.039 1007,-350.755 1007,-307 1007,-307 1007,-307 1007,-233 1007,-168.095 806.044,-121.733 700.329,-101.833"/>
<ellipse fill="none" stroke="#ebe5cf" cx="814.058" cy="-433.597" rx="4.00001" ry="4.00001"/>
<polygon fill="#ebe5cf" stroke="#ebe5cf" points="700.238,-101.817 691.228,-95.5662 695.322,-100.904 690.406,-99.9906 690.406,-99.9906 690.406,-99.9906 695.322,-100.904 689.584,-104.415 700.238,-101.817 700.238,-101.817"/>
</g>
<!-- Behavior -->
<g id="node4" class="node"><title>Behavior</title>
<ellipse fill="none" stroke="black" cx="1162" cy="-615" rx="51.4931" ry="18"/>
<text text-anchor="middle" x="1162" y="-611.3" font-family="Times,serif" font-size="14.00">Behavior</text>
</g>
<!-- Scenario -->
<g id="node19" class="node"><title>Scenario</title>
<ellipse fill="none" stroke="black" cx="1083" cy="-522" rx="51.0191" ry="18"/>
<text text-anchor="middle" x="1083" y="-518.3" font-family="Times,serif" font-size="14.00">Scenario</text>
</g>
<!-- Behavior&#45;&gt;Scenario -->
<g id="edge4" class="edge"><title>Behavior&#45;&gt;Scenario</title>
<path fill="none" stroke="#fa3d35" d="M1142.22,-591.214C1130.57,-577.799 1115.85,-560.841 1104,-547.189"/>
<ellipse fill="none" stroke="#fa3d35" cx="1144.89" cy="-594.289" rx="4.00002" ry="4.00002"/>
<polygon fill="#fa3d35" stroke="#fa3d35" points="1103.95,-547.136 1100.8,-536.635 1100.68,-543.361 1097.4,-539.585 1097.4,-539.585 1097.4,-539.585 1100.68,-543.361 1094,-542.535 1103.95,-547.136 1103.95,-547.136"/>
</g>
<!-- CipCode -->
<g id="node5" class="node"><title>CipCode</title>
<ellipse fill="none" stroke="black" cx="787" cy="-615" rx="50.5427" ry="18"/>
<text text-anchor="middle" x="787" y="-611.3" font-family="Times,serif" font-size="14.00">CipCode</text>
</g>
<!-- CipCode&#45;&gt;User -->
<g id="edge5" class="edge"><title>CipCode&#45;&gt;User</title>
<path fill="none" stroke="#30af8f" d="M758.91,-593.872C737.614,-578.613 708.508,-557.758 687.387,-542.624"/>
<ellipse fill="none" stroke="#30af8f" cx="762.205" cy="-596.233" rx="4.00002" ry="4.00002"/>
<polygon fill="#30af8f" stroke="#30af8f" points="687.282,-542.548 681.774,-533.066 683.217,-539.636 679.153,-536.724 679.153,-536.724 679.153,-536.724 683.217,-539.636 676.532,-540.382 687.282,-542.548 687.282,-542.548"/>
</g>
<!-- ConsentForm -->
<g id="node6" class="node"><title>ConsentForm</title>
<ellipse fill="none" stroke="black" cx="375" cy="-522" rx="73.1654" ry="18"/>
<text text-anchor="middle" x="375" y="-518.3" font-family="Times,serif" font-size="14.00">ConsentForm</text>
</g>
<!-- ConsentLog -->
<g id="node7" class="node"><title>ConsentLog</title>
<ellipse fill="none" stroke="black" cx="423" cy="-450" rx="66.4165" ry="18"/>
<text text-anchor="middle" x="423" y="-446.3" font-family="Times,serif" font-size="14.00">ConsentLog</text>
</g>
<!-- ConsentForm&#45;&gt;ConsentLog -->
<g id="edge7" class="edge"><title>ConsentForm&#45;&gt;ConsentLog</title>
<path fill="none" stroke="#1b3529" d="M391.265,-497.28C395.935,-490.47 401.041,-483.023 405.767,-476.131"/>
<ellipse fill="none" stroke="#1b3529" cx="388.882" cy="-500.756" rx="4.00002" ry="4.00002"/>
<polygon fill="#1b3529" stroke="#1b3529" points="405.832,-476.036 415.199,-470.334 408.66,-471.913 411.488,-467.789 411.488,-467.789 411.488,-467.789 408.66,-471.913 407.776,-465.244 405.832,-476.036 405.832,-476.036"/>
</g>
<!-- Project -->
<g id="node16" class="node"><title>Project</title>
<ellipse fill="none" stroke="black" cx="726" cy="-234" rx="44.2946" ry="18"/>
<text text-anchor="middle" x="726" y="-230.3" font-family="Times,serif" font-size="14.00">Project</text>
</g>
<!-- ConsentForm&#45;&gt;Project -->
<g id="edge6" class="edge"><title>ConsentForm&#45;&gt;Project</title>
<path fill="none" stroke="#da88de" d="M357.533,-497.169C346.248,-478.627 335.611,-452.664 347,-432 414.66,-309.243 589.02,-260.365 675.632,-243.191"/>
<ellipse fill="none" stroke="#da88de" cx="359.847" cy="-500.766" rx="4.00002" ry="4.00002"/>
<polygon fill="#da88de" stroke="#da88de" points="675.675,-243.183 686.344,-245.717 680.585,-242.24 685.495,-241.297 685.495,-241.297 685.495,-241.297 680.585,-242.24 684.647,-236.878 675.675,-243.183 675.675,-243.183"/>
</g>
<!-- Course -->
<g id="node8" class="node"><title>Course</title>
<ellipse fill="none" stroke="black" cx="969" cy="-522" rx="44.2946" ry="18"/>
<text text-anchor="middle" x="969" y="-518.3" font-family="Times,serif" font-size="14.00">Course</text>
</g>
<!-- Course&#45;&gt;Project -->
<g id="edge8" class="edge"><title>Course&#45;&gt;Project</title>
<path fill="none" stroke="#92b4e3" d="M966.622,-495.989C960.703,-448.18 940.911,-343.636 878,-288 849.853,-263.108 809.346,-249.743 777.225,-242.664"/>
<ellipse fill="none" stroke="#92b4e3" cx="967.085" cy="-499.991" rx="4.00001" ry="4.00001"/>
<polygon fill="#92b4e3" stroke="#92b4e3" points="776.911,-242.599 768.026,-236.172 772.014,-241.589 767.117,-240.579 767.117,-240.579 767.117,-240.579 772.014,-241.589 766.208,-244.987 776.911,-242.599 776.911,-242.599"/>
</g>
<!-- Roster -->
<g id="node18" class="node"><title>Roster</title>
<ellipse fill="none" stroke="black" cx="899" cy="-450" rx="41.394" ry="18"/>
<text text-anchor="middle" x="899" y="-446.3" font-family="Times,serif" font-size="14.00">Roster</text>
</g>
<!-- Course&#45;&gt;Roster -->
<g id="edge9" class="edge"><title>Course&#45;&gt;Roster</title>
<path fill="none" stroke="#745ab2" d="M947.194,-499.194C939.17,-491.17 930.063,-482.063 921.942,-473.942"/>
<ellipse fill="none" stroke="#745ab2" cx="950.287" cy="-502.287" rx="4.00002" ry="4.00002"/>
<polygon fill="#745ab2" stroke="#745ab2" points="921.892,-473.892 918.003,-463.639 918.357,-470.357 914.821,-466.821 914.821,-466.821 914.821,-466.821 918.357,-470.357 911.639,-470.003 921.892,-473.892 921.892,-473.892"/>
</g>
<!-- FactorPack -->
<g id="node10" class="node"><title>FactorPack</title>
<ellipse fill="none" stroke="black" cx="772" cy="-306" rx="63.5411" ry="18"/>
<text text-anchor="middle" x="772" y="-302.3" font-family="Times,serif" font-size="14.00">FactorPack</text>
</g>
<!-- Factor&#45;&gt;FactorPack -->
<g id="edge10" class="edge"><title>Factor&#45;&gt;FactorPack</title>
<path fill="none" stroke="#fe839b" d="M772.61,-349.665C772.536,-344.552 772.46,-339.21 772.387,-334.104"/>
<polygon fill="#fe839b" stroke="#fe839b" points="772.61,-349.698 768.253,-359.761 772.681,-354.697 772.753,-359.697 772.753,-359.697 772.753,-359.697 772.681,-354.697 777.252,-359.632 772.61,-349.698 772.61,-349.698"/>
<polygon fill="#fe839b" stroke="#fe839b" points="772.387,-334.103 776.744,-324.04 772.316,-329.104 772.244,-324.104 772.244,-324.104 772.244,-324.104 772.316,-329.104 767.745,-324.169 772.387,-334.103 772.387,-334.103"/>
</g>
<!-- FactorPack&#45;&gt;Project -->
<g id="edge11" class="edge"><title>FactorPack&#45;&gt;Project</title>
<path fill="none" stroke="#09a399" d="M756.413,-281.28C752.037,-274.622 747.261,-267.354 742.817,-260.591"/>
<ellipse fill="none" stroke="#09a399" cx="758.668" cy="-284.712" rx="4.00002" ry="4.00002"/>
<polygon fill="#09a399" stroke="#09a399" points="742.525,-260.146 740.793,-249.318 739.779,-255.968 737.033,-251.789 737.033,-251.789 737.033,-251.789 739.779,-255.968 733.272,-254.26 742.525,-260.146 742.525,-260.146"/>
</g>
<!-- Gender -->
<g id="node11" class="node"><title>Gender</title>
<ellipse fill="none" stroke="black" cx="319" cy="-615" rx="44.271" ry="18"/>
<text text-anchor="middle" x="319" y="-611.3" font-family="Times,serif" font-size="14.00">Gender</text>
</g>
<!-- Gender&#45;&gt;User -->
<g id="edge12" class="edge"><title>Gender&#45;&gt;User</title>
<path fill="none" stroke="#c54127" d="M343.264,-593.578C352.131,-587.052 362.558,-580.389 373,-576 455.23,-541.436 560.085,-529.346 617.562,-525.166"/>
<ellipse fill="none" stroke="#c54127" cx="339.993" cy="-596.076" rx="4.00002" ry="4.00002"/>
<polygon fill="#c54127" stroke="#c54127" points="617.75,-525.153 628.033,-528.963 622.738,-524.813 627.727,-524.474 627.727,-524.474 627.727,-524.474 622.738,-524.813 627.421,-519.984 617.75,-525.153 617.75,-525.153"/>
</g>
<!-- Group -->
<g id="node12" class="node"><title>Group</title>
<ellipse fill="none" stroke="black" cx="637" cy="-162" rx="39.4691" ry="18"/>
<text text-anchor="middle" x="637" y="-158.3" font-family="Times,serif" font-size="14.00">Group</text>
</g>
<!-- Group&#45;&gt;Installment -->
<g id="edge14" class="edge"><title>Group&#45;&gt;Installment</title>
<path fill="none" stroke="#c085b3" d="M637,-135.64C637,-130.063 637,-124.132 637,-118.476"/>
<ellipse fill="none" stroke="#c085b3" cx="637" cy="-139.697" rx="4" ry="4"/>
<polygon fill="#c085b3" stroke="#c085b3" points="637,-118.104 641.5,-108.104 637,-113.104 637,-108.104 637,-108.104 637,-108.104 637,-113.104 632.5,-108.104 637,-118.104 637,-118.104"/>
</g>
<!-- Group&#45;&gt;User -->
<g id="edge13" class="edge"><title>Group&#45;&gt;User</title>
<path fill="none" stroke="#34990d" d="M617.649,-187.813C595.824,-218.785 564.634,-273.808 575,-324 588.452,-389.132 624.486,-459.238 645.06,-495.698"/>
<polygon fill="#34990d" stroke="#34990d" points="617.907,-187.458 627.429,-182.018 620.848,-183.415 623.79,-179.371 623.79,-179.371 623.79,-179.371 620.848,-183.415 620.151,-176.724 617.907,-187.458 617.907,-187.458"/>
<polygon fill="#34990d" stroke="#34990d" points="645.21,-495.96 646.272,-506.875 647.693,-500.3 650.177,-504.639 650.177,-504.639 650.177,-504.639 647.693,-500.3 654.083,-502.403 645.21,-495.96 645.21,-495.96"/>
</g>
<!-- GroupProjectCount -->
<g id="node13" class="node"><title>GroupProjectCount</title>
<ellipse fill="none" stroke="black" cx="483" cy="-615" rx="101.087" ry="18"/>
<text text-anchor="middle" x="483" y="-611.3" font-family="Times,serif" font-size="14.00">GroupProjectCount</text>
</g>
<!-- GroupProjectCount&#45;&gt;User -->
<g id="edge15" class="edge"><title>GroupProjectCount&#45;&gt;User</title>
<path fill="none" stroke="#74774e" d="M521.919,-593.991C553.731,-577.635 598.164,-554.792 627.951,-539.477"/>
<ellipse fill="none" stroke="#74774e" cx="518.201" cy="-595.902" rx="4.00002" ry="4.00002"/>
<polygon fill="#74774e" stroke="#74774e" points="628.179,-539.36 639.131,-538.789 632.626,-537.074 637.073,-534.787 637.073,-534.787 637.073,-534.787 632.626,-537.074 635.015,-530.785 628.179,-539.36 628.179,-539.36"/>
</g>
<!-- Value -->
<g id="node23" class="node"><title>Value</title>
<ellipse fill="none" stroke="black" cx="637" cy="-18" rx="36.096" ry="18"/>
<text text-anchor="middle" x="637" y="-14.3" font-family="Times,serif" font-size="14.00">Value</text>
</g>
<!-- Installment&#45;&gt;Value -->
<g id="edge16" class="edge"><title>Installment&#45;&gt;Value</title>
<path fill="none" stroke="#5c5c1b" d="M637,-63.6398C637,-58.0629 637,-52.1319 637,-46.4761"/>
<ellipse fill="none" stroke="#5c5c1b" cx="637" cy="-67.6966" rx="4" ry="4"/>
<polygon fill="#5c5c1b" stroke="#5c5c1b" points="637,-46.1043 641.5,-36.1043 637,-41.1043 637,-36.1043 637,-36.1043 637,-36.1043 637,-41.1043 632.5,-36.1044 637,-46.1043 637,-46.1043"/>
</g>
<!-- Narrative -->
<g id="node15" class="node"><title>Narrative</title>
<ellipse fill="none" stroke="black" cx="1116" cy="-450" rx="55.3436" ry="18"/>
<text text-anchor="middle" x="1116" y="-446.3" font-family="Times,serif" font-size="14.00">Narrative</text>
</g>
<!-- Narrative&#45;&gt;Behavior -->
<g id="edge18" class="edge"><title>Narrative&#45;&gt;Behavior</title>
<path fill="none" stroke="#22f4cb" d="M1130.23,-475.141C1134.91,-483.971 1139.74,-494.201 1143,-504 1152.38,-532.21 1157.34,-566.11 1159.81,-588.751"/>
<ellipse fill="none" stroke="#22f4cb" cx="1128.29" cy="-471.602" rx="4.00002" ry="4.00002"/>
<ellipse fill="#22f4cb" stroke="#22f4cb" cx="1160.23" cy="-592.862" rx="4" ry="4"/>
</g>
<!-- Week -->
<g id="node24" class="node"><title>Week</title>
<ellipse fill="none" stroke="black" cx="1158" cy="-378" rx="36.096" ry="18"/>
<text text-anchor="middle" x="1158" y="-374.3" font-family="Times,serif" font-size="14.00">Week</text>
</g>
<!-- Narrative&#45;&gt;Week -->
<g id="edge17" class="edge"><title>Narrative&#45;&gt;Week</title>
<path fill="none" stroke="#c98b85" d="M1130.4,-424.998C1134.37,-418.387 1138.68,-411.194 1142.7,-404.502"/>
<ellipse fill="none" stroke="#c98b85" cx="1128.23" cy="-428.625" rx="4.00002" ry="4.00002"/>
<polygon fill="#c98b85" stroke="#c98b85" points="1142.78,-404.364 1151.79,-398.104 1145.35,-400.076 1147.93,-395.789 1147.93,-395.789 1147.93,-395.789 1145.35,-400.076 1144.07,-393.474 1142.78,-404.364 1142.78,-404.364"/>
</g>
<!-- Project&#45;&gt;Assessment -->
<g id="edge20" class="edge"><title>Project&#45;&gt;Assessment</title>
<path fill="none" stroke="#1fd73e" d="M776.43,-240.958C806.101,-247.345 841.358,-260.579 860,-288 891.719,-334.655 837.577,-394.049 801.425,-426.062"/>
<ellipse fill="none" stroke="#1fd73e" cx="772.151" cy="-240.11" rx="4.00001" ry="4.00001"/>
<polygon fill="#1fd73e" stroke="#1fd73e" points="801.146,-426.303 790.636,-429.432 797.361,-429.571 793.577,-432.838 793.577,-432.838 793.577,-432.838 797.361,-429.571 796.517,-436.245 801.146,-426.303 801.146,-426.303"/>
</g>
<!-- Project&#45;&gt;Factor -->
<g id="edge22" class="edge"><title>Project&#45;&gt;Factor</title>
<path fill="none" stroke="#bc6c2e" d="M775.944,-244.167C800.898,-251.541 828.921,-264.697 844,-288 852.692,-301.433 851.172,-309.697 844,-324 836.534,-338.889 822.682,-350.665 809.181,-359.297"/>
<polygon fill="#bc6c2e" stroke="#bc6c2e" points="775.858,-244.143 767.384,-237.182 771.032,-242.834 766.206,-241.525 766.206,-241.525 766.206,-241.525 771.032,-242.834 765.028,-245.868 775.858,-244.143 775.858,-244.143"/>
<polygon fill="#bc6c2e" stroke="#bc6c2e" points="809.019,-359.394 798.125,-360.652 804.725,-361.956 800.431,-364.517 800.431,-364.517 800.431,-364.517 804.725,-361.956 802.736,-368.382 809.019,-359.394 809.019,-359.394"/>
</g>
<!-- Project&#45;&gt;Group -->
<g id="edge19" class="edge"><title>Project&#45;&gt;Group</title>
<path fill="none" stroke="#ac52e3" d="M700.04,-212.582C688.692,-203.657 675.385,-193.19 663.928,-184.18"/>
<ellipse fill="none" stroke="#ac52e3" cx="703.544" cy="-215.338" rx="4.00002" ry="4.00002"/>
<polygon fill="#ac52e3" stroke="#ac52e3" points="663.828,-184.101 658.75,-174.382 659.898,-181.01 655.968,-177.919 655.968,-177.919 655.968,-177.919 659.898,-181.01 653.186,-181.456 663.828,-184.101 663.828,-184.101"/>
</g>
<!-- Project&#45;&gt;User -->
<g id="edge21" class="edge"><title>Project&#45;&gt;User</title>
<path fill="none" stroke="#3a5f42" d="M710.963,-260.613C706.53,-269.094 702.054,-278.737 699,-288 675.261,-359.996 665.471,-449.492 661.862,-493.685"/>
<polygon fill="#3a5f42" stroke="#3a5f42" points="711.083,-260.393 719.822,-253.768 713.477,-256.003 715.872,-251.613 715.872,-251.613 715.872,-251.613 713.477,-256.003 711.921,-249.459 711.083,-260.393 711.083,-260.393"/>
<polygon fill="#3a5f42" stroke="#3a5f42" points="661.843,-493.936 656.587,-503.56 661.458,-498.922 661.073,-503.907 661.073,-503.907 661.073,-503.907 661.458,-498.922 665.56,-504.253 661.843,-493.936 661.843,-493.936"/>
</g>
<!-- Role -->
<g id="node17" class="node"><title>Role</title>
<ellipse fill="none" stroke="black" cx="887" cy="-615" rx="31.2965" ry="18"/>
<text text-anchor="middle" x="887" y="-611.3" font-family="Times,serif" font-size="14.00">Role</text>
</g>
<!-- Role&#45;&gt;Roster -->
<g id="edge24" class="edge"><title>Role&#45;&gt;Roster</title>
<path fill="none" stroke="#67c95e" d="M888.876,-588.52C891.079,-558.6 894.718,-509.164 896.981,-478.427"/>
<ellipse fill="none" stroke="#67c95e" cx="888.555" cy="-592.875" rx="4" ry="4"/>
<polygon fill="#67c95e" stroke="#67c95e" points="896.985,-478.37 902.207,-468.727 897.352,-473.383 897.719,-468.397 897.719,-468.397 897.719,-468.397 897.352,-473.383 893.231,-468.066 896.985,-478.37 896.985,-478.37"/>
</g>
<!-- Role&#45;&gt;User -->
<g id="edge23" class="edge"><title>Role&#45;&gt;User</title>
<path fill="none" stroke="#373330" d="M867.556,-592.487C861.184,-586.451 853.739,-580.355 846,-576 799.931,-550.079 740.181,-535.995 701,-528.993"/>
<ellipse fill="none" stroke="#373330" cx="870.705" cy="-595.617" rx="4.00002" ry="4.00002"/>
<polygon fill="#373330" stroke="#373330" points="700.87,-528.97 691.773,-522.846 695.942,-528.126 691.013,-527.282 691.013,-527.282 691.013,-527.282 695.942,-528.126 690.254,-531.717 700.87,-528.97 700.87,-528.97"/>
</g>
<!-- Scenario&#45;&gt;Narrative -->
<g id="edge25" class="edge"><title>Scenario&#45;&gt;Narrative</title>
<path fill="none" stroke="#f5b7e1" d="M1094.53,-496.548C1097.41,-490.428 1100.52,-483.835 1103.45,-477.616"/>
<ellipse fill="none" stroke="#f5b7e1" cx="1092.69" cy="-500.437" rx="4.00002" ry="4.00002"/>
<polygon fill="#f5b7e1" stroke="#f5b7e1" points="1103.59,-477.321 1111.93,-470.194 1105.72,-472.798 1107.86,-468.275 1107.86,-468.275 1107.86,-468.275 1105.72,-472.798 1103.79,-466.356 1103.59,-477.321 1103.59,-477.321"/>
</g>
<!-- School -->
<g id="node20" class="node"><title>School</title>
<ellipse fill="none" stroke="black" cx="978" cy="-615" rx="41.394" ry="18"/>
<text text-anchor="middle" x="978" y="-611.3" font-family="Times,serif" font-size="14.00">School</text>
</g>
<!-- School&#45;&gt;Course -->
<g id="edge26" class="edge"><title>School&#45;&gt;Course</title>
<path fill="none" stroke="#76bebd" d="M975.501,-588.729C974.313,-576.725 972.893,-562.362 971.683,-550.129"/>
<ellipse fill="none" stroke="#76bebd" cx="975.913" cy="-592.903" rx="4" ry="4"/>
<polygon fill="#76bebd" stroke="#76bebd" points="971.67,-549.991 975.163,-539.597 971.177,-545.015 970.685,-540.04 970.685,-540.04 970.685,-540.04 971.177,-545.015 966.207,-540.483 971.67,-549.991 971.67,-549.991"/>
</g>
<!-- Style -->
<g id="node21" class="node"><title>Style</title>
<ellipse fill="none" stroke="black" cx="618" cy="-306" rx="34.1708" ry="18"/>
<text text-anchor="middle" x="618" y="-302.3" font-family="Times,serif" font-size="14.00">Style</text>
</g>
<!-- Style&#45;&gt;Project -->
<g id="edge27" class="edge"><title>Style&#45;&gt;Project</title>
<path fill="none" stroke="#f1b7cd" d="M645.655,-287.076C660.618,-277.377 679.155,-265.362 694.653,-255.318"/>
<ellipse fill="none" stroke="#f1b7cd" cx="642.18" cy="-289.328" rx="4.00002" ry="4.00002"/>
<polygon fill="#f1b7cd" stroke="#f1b7cd" points="694.985,-255.103 705.824,-253.44 699.18,-252.383 703.376,-249.664 703.376,-249.664 703.376,-249.664 699.18,-252.383 700.929,-245.887 694.985,-255.103 694.985,-255.103"/>
</g>
<!-- User&#45;&gt;Assessment -->
<g id="edge31" class="edge"><title>User&#45;&gt;Assessment</title>
<path fill="none" stroke="#9c6c8f" d="M689.667,-502.622C704.739,-493.286 723.128,-481.894 738.795,-472.189"/>
<polygon fill="#9c6c8f" stroke="#9c6c8f" points="689.227,-502.895 678.356,-504.335 684.976,-505.528 680.726,-508.161 680.726,-508.161 680.726,-508.161 684.976,-505.528 683.096,-511.986 689.227,-502.895 689.227,-502.895"/>
<polygon fill="#9c6c8f" stroke="#9c6c8f" points="739.157,-471.965 750.028,-470.524 743.408,-469.332 747.658,-466.698 747.658,-466.698 747.658,-466.698 743.408,-469.332 745.288,-462.873 739.157,-471.965 739.157,-471.965"/>
</g>
<!-- User&#45;&gt;ConsentLog -->
<g id="edge28" class="edge"><title>User&#45;&gt;ConsentLog</title>
<path fill="none" stroke="#d78dbc" d="M624.068,-510.387C584.67,-498.751 521.064,-479.964 475.951,-466.639"/>
<ellipse fill="none" stroke="#d78dbc" cx="628.046" cy="-511.562" rx="4.00001" ry="4.00001"/>
<polygon fill="#d78dbc" stroke="#d78dbc" points="475.926,-466.632 467.611,-459.484 471.131,-465.216 466.336,-463.8 466.336,-463.8 466.336,-463.8 471.131,-465.216 465.061,-468.115 475.926,-466.632 475.926,-466.632"/>
</g>
<!-- User&#45;&gt;Installment -->
<g id="edge29" class="edge"><title>User&#45;&gt;Installment</title>
<path fill="none" stroke="#389a15" d="M630.78,-504.366C579.805,-472.923 480,-399.544 480,-307 480,-307 480,-307 480,-233 480,-172.486 544.95,-131.071 591.299,-109.222"/>
<ellipse fill="none" stroke="#389a15" cx="634.508" cy="-506.625" rx="4.00002" ry="4.00002"/>
<polygon fill="#389a15" stroke="#389a15" points="591.489,-109.135 602.454,-109.078 596.037,-107.06 600.586,-104.984 600.586,-104.984 600.586,-104.984 596.037,-107.06 598.719,-100.89 591.489,-109.135 591.489,-109.135"/>
</g>
<!-- User&#45;&gt;Roster -->
<g id="edge30" class="edge"><title>User&#45;&gt;Roster</title>
<path fill="none" stroke="#1c12a0" d="M696.203,-511.336C734.169,-501.075 795.497,-484.142 848,-468 851.167,-467.026 854.436,-465.996 857.719,-464.943"/>
<ellipse fill="none" stroke="#1c12a0" cx="692.33" cy="-512.38" rx="4.00001" ry="4.00001"/>
<polygon fill="#1c12a0" stroke="#1c12a0" points="858.008,-464.849 868.91,-466.03 862.762,-463.3 867.516,-461.752 867.516,-461.752 867.516,-461.752 862.762,-463.3 866.122,-457.473 858.008,-464.849 858.008,-464.849"/>
</g>
<!-- Week&#45;&gt;Behavior -->
<g id="edge32" class="edge"><title>Week&#45;&gt;Behavior</title>
<path fill="none" stroke="#68760e" d="M1170.32,-403.027C1174.23,-411.893 1178.04,-422.176 1180,-432 1191.03,-487.349 1178.07,-553.579 1169.11,-588.896"/>
<ellipse fill="none" stroke="#68760e" cx="1168.58" cy="-399.278" rx="4.00002" ry="4.00002"/>
<ellipse fill="#68760e" stroke="#68760e" cx="1168.06" cy="-592.903" rx="4.00001" ry="4.00001"/>
</g>
</g>
</svg>
