<?xml version="1.0" encoding="UTF-8" standalone="no"?>
<!DOCTYPE svg PUBLIC "-//W3C//DTD SVG 1.1//EN"
 "http://www.w3.org/Graphics/SVG/1.1/DTD/svg11.dtd">
<!-- Generated by graphviz version 2.36.0 (20140111.2315)
 -->
<!-- Title: models_diagram Pages: 1 -->
<svg width="1223pt" height="518pt"
 viewBox="0.00 0.00 1222.84 518.00" xmlns="http://www.w3.org/2000/svg" xmlns:xlink="http://www.w3.org/1999/xlink">
<g id="graph0" class="graph" transform="scale(1 1) rotate(0) translate(4 514)">
<title>models_diagram</title>
<polygon fill="none" stroke="none" points="-4,4 -4,-514 1218.84,-514 1218.84,4 -4,4"/>
<!-- _diagram_info -->
<g id="node1" class="node"><title>_diagram_info</title>
<text text-anchor="start" x="599.34" y="-495.6" font-family="Times,serif" font-size="13.00">Models diagram</text>
<text text-anchor="start" x="599.34" y="-481.6" font-family="Times,serif" font-size="13.00">Date: Jan 26 2017 &#45; 18:19</text>
<text text-anchor="start" x="599.34" y="-467.6" font-family="Times,serif" font-size="13.00">Migration version: 20170126073154</text>
<text text-anchor="start" x="599.34" y="-453.6" font-family="Times,serif" font-size="13.00">Generated by RailRoady 1.5.2</text>
<text text-anchor="start" x="599.34" y="-439.6" font-family="Times,serif" font-size="13.00">http://railroady.prestonlee.com</text>
</g>
<!-- AgeRange -->
<g id="node2" class="node"><title>AgeRange</title>
<ellipse fill="none" stroke="black" cx="394.84" cy="-234" rx="57.2688" ry="18"/>
<text text-anchor="middle" x="394.84" y="-230.3" font-family="Times,serif" font-size="14.00">AgeRange</text>
</g>
<!-- User -->
<g id="node21" class="node"><title>User</title>
<ellipse fill="none" stroke="black" cx="521.84" cy="-162" rx="32.2457" ry="18"/>
<text text-anchor="middle" x="521.84" y="-158.3" font-family="Times,serif" font-size="14.00">User</text>
</g>
<!-- AgeRange&#45;&gt;User -->
<g id="edge1" class="edge"><title>AgeRange&#45;&gt;User</title>
<path fill="none" stroke="#76588c" d="M429.132,-214.099C448.33,-203.517 472.082,-190.426 490.737,-180.143"/>
<ellipse fill="none" stroke="#76588c" cx="425.588" cy="-216.052" rx="4.00002" ry="4.00002"/>
<polygon fill="#76588c" stroke="#76588c" points="490.952,-180.025 501.882,-179.138 495.331,-177.611 499.71,-175.197 499.71,-175.197 499.71,-175.197 495.331,-177.611 497.538,-171.256 490.952,-180.025 490.952,-180.025"/>
</g>
<!-- Behavior -->
<g id="node3" class="node"><title>Behavior</title>
<ellipse fill="none" stroke="black" cx="1163.84" cy="-471" rx="51.4931" ry="18"/>
<text text-anchor="middle" x="1163.84" y="-467.3" font-family="Times,serif" font-size="14.00">Behavior</text>
</g>
<!-- Scenario -->
<g id="node18" class="node"><title>Scenario</title>
<ellipse fill="none" stroke="black" cx="1084.84" cy="-378" rx="51.0191" ry="18"/>
<text text-anchor="middle" x="1084.84" y="-374.3" font-family="Times,serif" font-size="14.00">Scenario</text>
</g>
<!-- Behavior&#45;&gt;Scenario -->
<g id="edge2" class="edge"><title>Behavior&#45;&gt;Scenario</title>
<path fill="none" stroke="#f9e37c" d="M1144.06,-447.214C1132.41,-433.799 1117.69,-416.841 1105.84,-403.189"/>
<ellipse fill="none" stroke="#f9e37c" cx="1146.73" cy="-450.289" rx="4.00002" ry="4.00002"/>
<polygon fill="#f9e37c" stroke="#f9e37c" points="1105.79,-403.136 1102.64,-392.635 1102.52,-399.361 1099.24,-395.585 1099.24,-395.585 1099.24,-395.585 1102.52,-399.361 1095.84,-398.535 1105.79,-403.136 1105.79,-403.136"/>
</g>
<!-- CipCode -->
<g id="node4" class="node"><title>CipCode</title>
<ellipse fill="none" stroke="black" cx="521.84" cy="-234" rx="50.5427" ry="18"/>
<text text-anchor="middle" x="521.84" y="-230.3" font-family="Times,serif" font-size="14.00">CipCode</text>
</g>
<!-- CipCode&#45;&gt;User -->
<g id="edge3" class="edge"><title>CipCode&#45;&gt;User</title>
<path fill="none" stroke="#27141a" d="M521.84,-207.64C521.84,-202.063 521.84,-196.132 521.84,-190.476"/>
<ellipse fill="none" stroke="#27141a" cx="521.84" cy="-211.697" rx="4" ry="4"/>
<polygon fill="#27141a" stroke="#27141a" points="521.84,-190.104 526.34,-180.104 521.84,-185.104 521.84,-180.104 521.84,-180.104 521.84,-180.104 521.84,-185.104 517.34,-180.104 521.84,-190.104 521.84,-190.104"/>
</g>
<!-- ConsentForm -->
<g id="node5" class="node"><title>ConsentForm</title>
<ellipse fill="none" stroke="black" cx="305.84" cy="-378" rx="73.1654" ry="18"/>
<text text-anchor="middle" x="305.84" y="-374.3" font-family="Times,serif" font-size="14.00">ConsentForm</text>
</g>
<!-- ConsentLog -->
<g id="node6" class="node"><title>ConsentLog</title>
<ellipse fill="none" stroke="black" cx="86.8397" cy="-90" rx="66.4165" ry="18"/>
<text text-anchor="middle" x="86.8397" y="-86.3" font-family="Times,serif" font-size="14.00">ConsentLog</text>
</g>
<!-- ConsentForm&#45;&gt;ConsentLog -->
<g id="edge5" class="edge"><title>ConsentForm&#45;&gt;ConsentLog</title>
<path fill="none" stroke="#02c3ef" d="M232.145,-368.681C161.635,-356.371 58.9727,-326.083 9.8397,-252 -20.4412,-206.342 27.8453,-146.946 60.61,-114.573"/>
<ellipse fill="none" stroke="#02c3ef" cx="236.204" cy="-369.363" rx="4.00001" ry="4.00001"/>
<polygon fill="#02c3ef" stroke="#02c3ef" points="60.9346,-114.261 71.2616,-110.573 64.5384,-110.795 68.1423,-107.329 68.1423,-107.329 68.1423,-107.329 64.5384,-110.795 65.0231,-104.086 60.9346,-114.261 60.9346,-114.261"/>
</g>
<!-- Project -->
<g id="node15" class="node"><title>Project</title>
<ellipse fill="none" stroke="black" cx="746.84" cy="-306" rx="44.2946" ry="18"/>
<text text-anchor="middle" x="746.84" y="-302.3" font-family="Times,serif" font-size="14.00">Project</text>
</g>
<!-- ConsentForm&#45;&gt;Project -->
<g id="edge4" class="edge"><title>ConsentForm&#45;&gt;Project</title>
<path fill="none" stroke="#032845" d="M373.716,-366.226C462.671,-352.106 616.677,-327.661 696.149,-315.046"/>
<ellipse fill="none" stroke="#032845" cx="369.724" cy="-366.86" rx="4.00001" ry="4.00001"/>
<polygon fill="#032845" stroke="#032845" points="696.513,-314.988 707.095,-317.865 701.451,-314.205 706.39,-313.421 706.39,-313.421 706.39,-313.421 701.451,-314.205 705.684,-308.976 696.513,-314.988 696.513,-314.988"/>
</g>
<!-- Course -->
<g id="node7" class="node"><title>Course</title>
<ellipse fill="none" stroke="black" cx="907.84" cy="-378" rx="44.2946" ry="18"/>
<text text-anchor="middle" x="907.84" y="-374.3" font-family="Times,serif" font-size="14.00">Course</text>
</g>
<!-- Course&#45;&gt;Project -->
<g id="edge6" class="edge"><title>Course&#45;&gt;Project</title>
<path fill="none" stroke="#13096c" d="M871.208,-361.073C845.452,-349.875 811.068,-334.925 784.982,-323.584"/>
<ellipse fill="none" stroke="#13096c" cx="875.016" cy="-362.729" rx="4.00002" ry="4.00002"/>
<polygon fill="#13096c" stroke="#13096c" points="784.949,-323.569 777.573,-315.455 780.364,-321.576 775.779,-319.582 775.779,-319.582 775.779,-319.582 780.364,-321.576 773.984,-323.709 784.949,-323.569 784.949,-323.569"/>
</g>
<!-- Roster -->
<g id="node17" class="node"><title>Roster</title>
<ellipse fill="none" stroke="black" cx="805.84" cy="-90" rx="41.394" ry="18"/>
<text text-anchor="middle" x="805.84" y="-86.3" font-family="Times,serif" font-size="14.00">Roster</text>
</g>
<!-- Course&#45;&gt;Roster -->
<g id="edge7" class="edge"><title>Course&#45;&gt;Roster</title>
<path fill="none" stroke="#c4a64d" d="M926.544,-354.24C960.708,-309.76 1025.41,-209.898 976.84,-144 949.614,-107.059 896.912,-95.0992 857.177,-91.5932"/>
<ellipse fill="none" stroke="#c4a64d" cx="924.007" cy="-357.488" rx="4.00002" ry="4.00002"/>
<polygon fill="#c4a64d" stroke="#c4a64d" points="857.094,-91.5872 847.448,-86.3708 852.107,-91.223 847.12,-90.8589 847.12,-90.8589 847.12,-90.8589 852.107,-91.223 846.792,-95.3469 857.094,-91.5872 857.094,-91.5872"/>
</g>
<!-- Factor -->
<g id="node8" class="node"><title>Factor</title>
<ellipse fill="none" stroke="black" cx="895.84" cy="-234" rx="40.4202" ry="18"/>
<text text-anchor="middle" x="895.84" y="-230.3" font-family="Times,serif" font-size="14.00">Factor</text>
</g>
<!-- FactorPack -->
<g id="node9" class="node"><title>FactorPack</title>
<ellipse fill="none" stroke="black" cx="904.84" cy="-162" rx="63.5411" ry="18"/>
<text text-anchor="middle" x="904.84" y="-158.3" font-family="Times,serif" font-size="14.00">FactorPack</text>
</g>
<!-- Factor&#45;&gt;FactorPack -->
<g id="edge8" class="edge"><title>Factor&#45;&gt;FactorPack</title>
<path fill="none" stroke="#7c0c01" d="M899.354,-205.665C900.012,-200.552 900.698,-195.21 901.355,-190.104"/>
<polygon fill="#7c0c01" stroke="#7c0c01" points="899.34,-205.778 893.601,-215.123 898.702,-210.737 898.064,-215.697 898.064,-215.697 898.064,-215.697 898.702,-210.737 902.528,-216.271 899.34,-205.778 899.34,-205.778"/>
<polygon fill="#7c0c01" stroke="#7c0c01" points="901.365,-190.023 907.104,-180.678 902.003,-185.064 902.641,-180.104 902.641,-180.104 902.641,-180.104 902.003,-185.064 898.177,-179.53 901.365,-190.023 901.365,-190.023"/>
</g>
<!-- FactorPack&#45;&gt;Project -->
<g id="edge9" class="edge"><title>FactorPack&#45;&gt;Project</title>
<path fill="none" stroke="#0bde4b" d="M927.679,-185.758C943.91,-204.737 960.315,-231.837 944.84,-252 927.117,-275.09 851.188,-290.313 798.682,-298.294"/>
<ellipse fill="none" stroke="#0bde4b" cx="924.892" cy="-182.637" rx="4.00002" ry="4.00002"/>
<polygon fill="#0bde4b" stroke="#0bde4b" points="798.411,-298.334 787.861,-295.342 793.464,-299.064 788.518,-299.794 788.518,-299.794 788.518,-299.794 793.464,-299.064 789.175,-304.246 798.411,-298.334 798.411,-298.334"/>
</g>
<!-- Gender -->
<g id="node10" class="node"><title>Gender</title>
<ellipse fill="none" stroke="black" cx="635.84" cy="-234" rx="44.271" ry="18"/>
<text text-anchor="middle" x="635.84" y="-230.3" font-family="Times,serif" font-size="14.00">Gender</text>
</g>
<!-- Gender&#45;&gt;User -->
<g id="edge10" class="edge"><title>Gender&#45;&gt;User</title>
<path fill="none" stroke="#0d0d12" d="M605.485,-214.361C588.802,-204.117 568.189,-191.46 551.601,-181.274"/>
<ellipse fill="none" stroke="#0d0d12" cx="609.086" cy="-216.572" rx="4.00002" ry="4.00002"/>
<polygon fill="#0d0d12" stroke="#0d0d12" points="551.371,-181.134 545.204,-172.066 547.111,-178.517 542.85,-175.901 542.85,-175.901 542.85,-175.901 547.111,-178.517 540.495,-179.736 551.371,-181.134 551.371,-181.134"/>
</g>
<!-- Group -->
<g id="node11" class="node"><title>Group</title>
<ellipse fill="none" stroke="black" cx="58.8397" cy="-234" rx="39.4691" ry="18"/>
<text text-anchor="middle" x="58.8397" y="-230.3" font-family="Times,serif" font-size="14.00">Group</text>
</g>
<!-- Installment -->
<g id="node13" class="node"><title>Installment</title>
<ellipse fill="none" stroke="black" cx="330.84" cy="-90" rx="64.0172" ry="18"/>
<text text-anchor="middle" x="330.84" y="-86.3" font-family="Times,serif" font-size="14.00">Installment</text>
</g>
<!-- Group&#45;&gt;Installment -->
<g id="edge12" class="edge"><title>Group&#45;&gt;Installment</title>
<path fill="none" stroke="#2f9ff2" d="M91.1182,-216.149C141.61,-189.789 239.052,-138.919 292.85,-110.833"/>
<ellipse fill="none" stroke="#2f9ff2" cx="87.4871" cy="-218.044" rx="4.00002" ry="4.00002"/>
<polygon fill="#2f9ff2" stroke="#2f9ff2" points="292.866,-110.824 303.814,-110.186 297.299,-108.51 301.731,-106.196 301.731,-106.196 301.731,-106.196 297.299,-108.51 299.648,-102.207 292.866,-110.824 292.866,-110.824"/>
</g>
<!-- Group&#45;&gt;User -->
<g id="edge11" class="edge"><title>Group&#45;&gt;User</title>
<path fill="none" stroke="#10f9c1" d="M97.6325,-218.727C101.059,-217.714 104.495,-216.785 107.84,-216 241.577,-184.597 404.283,-170.639 479.706,-165.51"/>
<polygon fill="#10f9c1" stroke="#10f9c1" points="97.6211,-218.73 86.729,-217.46 92.8545,-220.24 88.0879,-221.75 88.0879,-221.75 88.0879,-221.75 92.8545,-220.24 89.4468,-226.04 97.6211,-218.73 97.6211,-218.73"/>
<polygon fill="#10f9c1" stroke="#10f9c1" points="479.779,-165.505 490.054,-169.334 484.768,-165.175 489.757,-164.844 489.757,-164.844 489.757,-164.844 484.768,-165.175 489.459,-160.354 479.779,-165.505 479.779,-165.505"/>
</g>
<!-- GroupProjectCount -->
<g id="node12" class="node"><title>GroupProjectCount</title>
<ellipse fill="none" stroke="black" cx="217.84" cy="-234" rx="101.087" ry="18"/>
<text text-anchor="middle" x="217.84" y="-230.3" font-family="Times,serif" font-size="14.00">GroupProjectCount</text>
</g>
<!-- GroupProjectCount&#45;&gt;User -->
<g id="edge13" class="edge"><title>GroupProjectCount&#45;&gt;User</title>
<path fill="none" stroke="#c11f60" d="M285.326,-217.46C346.001,-203.489 433.015,-183.453 482.834,-171.982"/>
<ellipse fill="none" stroke="#c11f60" cx="281.074" cy="-218.44" rx="4.00001" ry="4.00001"/>
<polygon fill="#c11f60" stroke="#c11f60" points="482.835,-171.981 493.59,-174.123 487.707,-170.859 492.58,-169.737 492.58,-169.737 492.58,-169.737 487.707,-170.859 491.57,-165.352 482.835,-171.981 482.835,-171.981"/>
</g>
<!-- Value -->
<g id="node22" class="node"><title>Value</title>
<ellipse fill="none" stroke="black" cx="330.84" cy="-18" rx="36.096" ry="18"/>
<text text-anchor="middle" x="330.84" y="-14.3" font-family="Times,serif" font-size="14.00">Value</text>
</g>
<!-- Installment&#45;&gt;Value -->
<g id="edge14" class="edge"><title>Installment&#45;&gt;Value</title>
<path fill="none" stroke="#b97323" d="M330.84,-63.6398C330.84,-58.0629 330.84,-52.1319 330.84,-46.4761"/>
<ellipse fill="none" stroke="#b97323" cx="330.84" cy="-67.6966" rx="4" ry="4"/>
<polygon fill="#b97323" stroke="#b97323" points="330.84,-46.1043 335.34,-36.1043 330.84,-41.1043 330.84,-36.1043 330.84,-36.1043 330.84,-36.1043 330.84,-41.1043 326.34,-36.1044 330.84,-46.1043 330.84,-46.1043"/>
</g>
<!-- Narrative -->
<g id="node14" class="node"><title>Narrative</title>
<ellipse fill="none" stroke="black" cx="1117.84" cy="-306" rx="55.3436" ry="18"/>
<text text-anchor="middle" x="1117.84" y="-302.3" font-family="Times,serif" font-size="14.00">Narrative</text>
</g>
<!-- Narrative&#45;&gt;Behavior -->
<g id="edge16" class="edge"><title>Narrative&#45;&gt;Behavior</title>
<path fill="none" stroke="#bda83b" d="M1132.07,-331.141C1136.75,-339.971 1141.58,-350.201 1144.84,-360 1154.22,-388.21 1159.18,-422.11 1161.65,-444.751"/>
<ellipse fill="none" stroke="#bda83b" cx="1130.13" cy="-327.602" rx="4.00002" ry="4.00002"/>
<ellipse fill="#bda83b" stroke="#bda83b" cx="1162.07" cy="-448.862" rx="4" ry="4"/>
</g>
<!-- Week -->
<g id="node23" class="node"><title>Week</title>
<ellipse fill="none" stroke="black" cx="1159.84" cy="-234" rx="36.096" ry="18"/>
<text text-anchor="middle" x="1159.84" y="-230.3" font-family="Times,serif" font-size="14.00">Week</text>
</g>
<!-- Narrative&#45;&gt;Week -->
<g id="edge15" class="edge"><title>Narrative&#45;&gt;Week</title>
<path fill="none" stroke="#94ae5f" d="M1132.24,-280.998C1136.21,-274.387 1140.52,-267.194 1144.54,-260.502"/>
<ellipse fill="none" stroke="#94ae5f" cx="1130.06" cy="-284.625" rx="4.00002" ry="4.00002"/>
<polygon fill="#94ae5f" stroke="#94ae5f" points="1144.62,-260.364 1153.63,-254.104 1147.19,-256.076 1149.77,-251.789 1149.77,-251.789 1149.77,-251.789 1147.19,-256.076 1145.91,-249.474 1144.62,-260.364 1144.62,-260.364"/>
</g>
<!-- Project&#45;&gt;Factor -->
<g id="edge20" class="edge"><title>Project&#45;&gt;Factor</title>
<path fill="none" stroke="#9fc9f2" d="M784.167,-287.464C807.344,-276.575 836.974,-262.655 859.889,-251.89"/>
<polygon fill="#9fc9f2" stroke="#9fc9f2" points="783.916,-287.581 772.952,-287.761 779.391,-289.707 774.865,-291.834 774.865,-291.834 774.865,-291.834 779.391,-289.707 776.779,-295.906 783.916,-287.581 783.916,-287.581"/>
<polygon fill="#9fc9f2" stroke="#9fc9f2" points="859.892,-251.888 870.857,-251.709 864.418,-249.762 868.943,-247.636 868.943,-247.636 868.943,-247.636 864.418,-249.762 867.03,-243.563 859.892,-251.888 859.892,-251.888"/>
</g>
<!-- Project&#45;&gt;Group -->
<g id="edge17" class="edge"><title>Project&#45;&gt;Group</title>
<path fill="none" stroke="#21d9f0" d="M694.226,-305.076C584.144,-304.267 321.989,-297.275 107.84,-252 104.433,-251.28 100.937,-250.389 97.4571,-249.396"/>
<ellipse fill="none" stroke="#21d9f0" cx="698.516" cy="-305.102" rx="4" ry="4"/>
<polygon fill="#21d9f0" stroke="#21d9f0" points="97.3261,-249.355 89.1158,-242.086 92.5521,-247.869 87.7781,-246.383 87.7781,-246.383 87.7781,-246.383 92.5521,-247.869 86.4404,-250.679 97.3261,-249.355 97.3261,-249.355"/>
</g>
<!-- Project&#45;&gt;User -->
<g id="edge19" class="edge"><title>Project&#45;&gt;User</title>
<path fill="none" stroke="#16f48f" d="M735.806,-278.892C726.142,-258.991 710.285,-232.312 688.84,-216 651.931,-187.926 599.757,-174.493 563.589,-168.219"/>
<polygon fill="#16f48f" stroke="#16f48f" points="735.842,-278.971 735.967,-289.936 737.946,-283.507 740.049,-288.043 740.049,-288.043 740.049,-288.043 737.946,-283.507 744.132,-286.149 735.842,-278.971 735.842,-278.971"/>
<polygon fill="#16f48f" stroke="#16f48f" points="563.247,-168.164 554.096,-162.122 558.312,-167.364 553.376,-166.564 553.376,-166.564 553.376,-166.564 558.312,-167.364 552.656,-171.006 563.247,-168.164 563.247,-168.164"/>
</g>
<!-- Assessment -->
<g id="node24" class="node"><title>Assessment</title>
<ellipse fill="none" stroke="black" cx="600.84" cy="-90" rx="65.9423" ry="18"/>
<text text-anchor="middle" x="600.84" y="-86.3" font-family="Times,serif" font-size="14.00">Assessment</text>
</g>
<!-- Project&#45;&gt;Assessment -->
<g id="edge18" class="edge"><title>Project&#45;&gt;Assessment</title>
<path fill="none" stroke="#acedb1" d="M742.15,-279.997C737.935,-261.437 730.571,-235.989 718.84,-216 695.021,-175.414 655.774,-137.4 629.143,-114.189"/>
<ellipse fill="none" stroke="#acedb1" cx="743.028" cy="-284.085" rx="4.00001" ry="4.00001"/>
<polygon fill="#acedb1" stroke="#acedb1" points="628.905,-113.985 624.244,-104.058 625.11,-110.729 621.314,-107.474 621.314,-107.474 621.314,-107.474 625.11,-110.729 618.385,-110.89 628.905,-113.985 628.905,-113.985"/>
</g>
<!-- Role -->
<g id="node16" class="node"><title>Role</title>
<ellipse fill="none" stroke="black" cx="805.84" cy="-234" rx="31.2965" ry="18"/>
<text text-anchor="middle" x="805.84" y="-230.3" font-family="Times,serif" font-size="14.00">Role</text>
</g>
<!-- Role&#45;&gt;Roster -->
<g id="edge22" class="edge"><title>Role&#45;&gt;Roster</title>
<path fill="none" stroke="#81d516" d="M805.84,-207.558C805.84,-182.444 805.84,-144.164 805.84,-118.393"/>
<ellipse fill="none" stroke="#81d516" cx="805.84" cy="-211.871" rx="4" ry="4"/>
<polygon fill="#81d516" stroke="#81d516" points="805.84,-118.189 810.34,-108.189 805.84,-113.189 805.84,-108.189 805.84,-108.189 805.84,-108.189 805.84,-113.189 801.34,-108.189 805.84,-118.189 805.84,-118.189"/>
</g>
<!-- Role&#45;&gt;User -->
<g id="edge21" class="edge"><title>Role&#45;&gt;User</title>
<path fill="none" stroke="#919139" d="M769.826,-224.123C716.221,-210.911 615.851,-186.172 560.663,-172.569"/>
<ellipse fill="none" stroke="#919139" cx="773.948" cy="-225.139" rx="4.00001" ry="4.00001"/>
<polygon fill="#919139" stroke="#919139" points="560.615,-172.557 551.982,-165.795 555.76,-171.361 550.905,-170.164 550.905,-170.164 550.905,-170.164 555.76,-171.361 549.828,-174.533 560.615,-172.557 560.615,-172.557"/>
</g>
<!-- Scenario&#45;&gt;Narrative -->
<g id="edge23" class="edge"><title>Scenario&#45;&gt;Narrative</title>
<path fill="none" stroke="#9a6808" d="M1096.37,-352.548C1099.25,-346.428 1102.36,-339.835 1105.29,-333.616"/>
<ellipse fill="none" stroke="#9a6808" cx="1094.53" cy="-356.437" rx="4.00002" ry="4.00002"/>
<polygon fill="#9a6808" stroke="#9a6808" points="1105.43,-333.321 1113.77,-326.194 1107.56,-328.798 1109.7,-324.275 1109.7,-324.275 1109.7,-324.275 1107.56,-328.798 1105.63,-322.356 1105.43,-333.321 1105.43,-333.321"/>
</g>
<!-- School -->
<g id="node19" class="node"><title>School</title>
<ellipse fill="none" stroke="black" cx="907.84" cy="-471" rx="41.394" ry="18"/>
<text text-anchor="middle" x="907.84" y="-467.3" font-family="Times,serif" font-size="14.00">School</text>
</g>
<!-- School&#45;&gt;Course -->
<g id="edge24" class="edge"><title>School&#45;&gt;Course</title>
<path fill="none" stroke="#242669" d="M907.84,-444.729C907.84,-432.725 907.84,-418.362 907.84,-406.129"/>
<ellipse fill="none" stroke="#242669" cx="907.84" cy="-448.884" rx="4" ry="4"/>
<polygon fill="#242669" stroke="#242669" points="907.84,-406.04 912.34,-396.04 907.84,-401.04 907.84,-396.04 907.84,-396.04 907.84,-396.04 907.84,-401.04 903.34,-396.04 907.84,-406.04 907.84,-406.04"/>
</g>
<!-- Style -->
<g id="node20" class="node"><title>Style</title>
<ellipse fill="none" stroke="black" cx="746.84" cy="-378" rx="34.1708" ry="18"/>
<text text-anchor="middle" x="746.84" y="-374.3" font-family="Times,serif" font-size="14.00">Style</text>
</g>
<!-- Style&#45;&gt;Project -->
<g id="edge25" class="edge"><title>Style&#45;&gt;Project</title>
<path fill="none" stroke="#ceb352" d="M746.84,-351.64C746.84,-346.063 746.84,-340.132 746.84,-334.476"/>
<ellipse fill="none" stroke="#ceb352" cx="746.84" cy="-355.697" rx="4" ry="4"/>
<polygon fill="#ceb352" stroke="#ceb352" points="746.84,-334.104 751.34,-324.104 746.84,-329.104 746.84,-324.104 746.84,-324.104 746.84,-324.104 746.84,-329.104 742.34,-324.104 746.84,-334.104 746.84,-334.104"/>
</g>
<!-- User&#45;&gt;ConsentLog -->
<g id="edge26" class="edge"><title>User&#45;&gt;ConsentLog</title>
<path fill="none" stroke="#994fe5" d="M483.201,-154.782C408.75,-142.802 244.662,-116.397 152.666,-101.593"/>
<ellipse fill="none" stroke="#994fe5" cx="487.302" cy="-155.442" rx="4.00001" ry="4.00001"/>
<polygon fill="#994fe5" stroke="#994fe5" points="152.505,-101.567 143.347,-95.5353 147.569,-100.773 142.632,-99.9781 142.632,-99.9781 142.632,-99.9781 147.569,-100.773 141.917,-104.421 152.505,-101.567 152.505,-101.567"/>
</g>
<!-- User&#45;&gt;Installment -->
<g id="edge27" class="edge"><title>User&#45;&gt;Installment</title>
<path fill="none" stroke="#a23df1" d="M487.956,-148.582C457.354,-137.366 412.02,-120.752 377.903,-108.248"/>
<ellipse fill="none" stroke="#a23df1" cx="491.927" cy="-150.037" rx="4.00001" ry="4.00001"/>
<polygon fill="#a23df1" stroke="#a23df1" points="377.542,-108.116 369.701,-100.45 372.847,-106.395 368.153,-104.675 368.153,-104.675 368.153,-104.675 372.847,-106.395 366.604,-108.9 377.542,-108.116 377.542,-108.116"/>
</g>
<!-- User&#45;&gt;Roster -->
<g id="edge28" class="edge"><title>User&#45;&gt;Roster</title>
<path fill="none" stroke="#ded600" d="M559.005,-151.84C610.942,-139.038 705.119,-115.826 760.921,-102.071"/>
<ellipse fill="none" stroke="#ded600" cx="554.782" cy="-152.88" rx="4.00001" ry="4.00001"/>
<polygon fill="#ded600" stroke="#ded600" points="761.166,-102.011 771.953,-103.987 766.021,-100.815 770.876,-99.6179 770.876,-99.6179 770.876,-99.6179 766.021,-100.815 769.799,-95.2487 761.166,-102.011 761.166,-102.011"/>
</g>
<!-- User&#45;&gt;Assessment -->
<g id="edge29" class="edge"><title>User&#45;&gt;Assessment</title>
<path fill="none" stroke="#0a6046" d="M546.225,-139.393C555.183,-131.455 565.363,-122.435 574.486,-114.352"/>
<polygon fill="#0a6046" stroke="#0a6046" points="546.078,-139.523 535.609,-142.787 542.336,-142.839 538.594,-146.155 538.594,-146.155 538.594,-146.155 542.336,-142.839 541.578,-149.523 546.078,-139.523 546.078,-139.523"/>
<polygon fill="#0a6046" stroke="#0a6046" points="574.69,-114.171 585.158,-110.907 578.432,-110.855 582.174,-107.539 582.174,-107.539 582.174,-107.539 578.432,-110.855 579.19,-104.171 574.69,-114.171 574.69,-114.171"/>
</g>
<!-- Week&#45;&gt;Behavior -->
<g id="edge30" class="edge"><title>Week&#45;&gt;Behavior</title>
<path fill="none" stroke="#91afdf" d="M1172.16,-259.027C1176.07,-267.893 1179.88,-278.176 1181.84,-288 1192.87,-343.349 1179.91,-409.579 1170.95,-444.896"/>
<ellipse fill="none" stroke="#91afdf" cx="1170.42" cy="-255.278" rx="4.00002" ry="4.00002"/>
<ellipse fill="#91afdf" stroke="#91afdf" cx="1169.9" cy="-448.903" rx="4.00001" ry="4.00001"/>
</g>
</g>
</svg>
