<?xml version="1.0" encoding="UTF-8" standalone="no"?>
<!DOCTYPE svg PUBLIC "-//W3C//DTD SVG 1.1//EN"
 "http://www.w3.org/Graphics/SVG/1.1/DTD/svg11.dtd">
<!-- Generated by graphviz version 2.38.0 (20140413.2041)
 -->
<!-- Title: models_diagram Pages: 1 -->
<svg width="1613pt" height="662pt"
 viewBox="0.00 0.00 1613.14 662.00" xmlns="http://www.w3.org/2000/svg" xmlns:xlink="http://www.w3.org/1999/xlink">
<g id="graph0" class="graph" transform="scale(1 1) rotate(0) translate(4 658)">
<title>models_diagram</title>
<polygon fill="none" stroke="none" points="-4,4 -4,-658 1609.14,-658 1609.14,4 -4,4"/>
<!-- _diagram_info -->
<g id="node1" class="node"><title>_diagram_info</title>
<text text-anchor="start" x="8" y="-639.6" font-family="Times,serif" font-size="13.00">Models diagram</text>
<text text-anchor="start" x="8" y="-625.6" font-family="Times,serif" font-size="13.00">Date: Jun 23 2017 &#45; 14:40</text>
<text text-anchor="start" x="8" y="-611.6" font-family="Times,serif" font-size="13.00">Migration version: 20170622054630</text>
<text text-anchor="start" x="8" y="-597.6" font-family="Times,serif" font-size="13.00">Generated by RailRoady 1.5.2</text>
<text text-anchor="start" x="8" y="-583.6" font-family="Times,serif" font-size="13.00">http://railroady.prestonlee.com</text>
</g>
<!-- GroupProjectCount -->
<g id="node2" class="node"><title>GroupProjectCount</title>
<ellipse fill="none" stroke="black" cx="528" cy="-615" rx="79.0865" ry="18"/>
<text text-anchor="middle" x="528" y="-611.3" font-family="Times,serif" font-size="14.00">GroupProjectCount</text>
</g>
<!-- User -->
<g id="node11" class="node"><title>User</title>
<ellipse fill="none" stroke="black" cx="657" cy="-522" rx="27.0966" ry="18"/>
<text text-anchor="middle" x="657" y="-518.3" font-family="Times,serif" font-size="14.00">User</text>
</g>
<!-- GroupProjectCount&#45;&gt;User -->
<g id="edge1" class="edge"><title>GroupProjectCount&#45;&gt;User</title>
<path fill="none" stroke="#f436d0" d="M557.869,-592.929C579.967,-577.341 609.773,-556.315 630.915,-541.401"/>
<ellipse fill="none" stroke="#f436d0" cx="554.331" cy="-595.425" rx="4.00002" ry="4.00002"/>
<polygon fill="#f436d0" stroke="#f436d0" points="630.947,-541.379 641.712,-539.291 635.032,-538.497 639.118,-535.614 639.118,-535.614 639.118,-535.614 635.032,-538.497 636.524,-531.937 630.947,-541.379 630.947,-541.379"/>
</g>
<!-- Theme -->
<g id="node3" class="node"><title>Theme</title>
<ellipse fill="none" stroke="black" cx="661" cy="-615" rx="35.9954" ry="18"/>
<text text-anchor="middle" x="661" y="-611.3" font-family="Times,serif" font-size="14.00">Theme</text>
</g>
<!-- Theme&#45;&gt;User -->
<g id="edge2" class="edge"><title>Theme&#45;&gt;User</title>
<path fill="none" stroke="#cf620c" d="M659.889,-588.729C659.362,-576.725 658.73,-562.362 658.192,-550.129"/>
<ellipse fill="none" stroke="#cf620c" cx="660.072" cy="-592.887" rx="4" ry="4"/>
<polygon fill="#cf620c" stroke="#cf620c" points="658.188,-550.03 662.245,-539.842 657.969,-545.035 657.749,-540.04 657.749,-540.04 657.749,-540.04 657.969,-545.035 653.253,-540.237 658.188,-550.03 658.188,-550.03"/>
</g>
<!-- FactorPack -->
<g id="node4" class="node"><title>FactorPack</title>
<ellipse fill="none" stroke="black" cx="1231" cy="-306" rx="50.0912" ry="18"/>
<text text-anchor="middle" x="1231" y="-302.3" font-family="Times,serif" font-size="14.00">FactorPack</text>
</g>
<!-- Project -->
<g id="node16" class="node"><title>Project</title>
<ellipse fill="none" stroke="black" cx="1068" cy="-234" rx="35.9954" ry="18"/>
<text text-anchor="middle" x="1068" y="-230.3" font-family="Times,serif" font-size="14.00">Project</text>
</g>
<!-- FactorPack&#45;&gt;Project -->
<g id="edge4" class="edge"><title>FactorPack&#45;&gt;Project</title>
<path fill="none" stroke="#297639" d="M1192.52,-288.475C1165.58,-276.905 1129.85,-261.56 1103.57,-250.275"/>
<ellipse fill="none" stroke="#297639" cx="1196.28" cy="-290.09" rx="4.00002" ry="4.00002"/>
<polygon fill="#297639" stroke="#297639" points="1103.54,-250.262 1096.13,-242.181 1098.95,-248.289 1094.35,-246.316 1094.35,-246.316 1094.35,-246.316 1098.95,-248.289 1092.58,-250.451 1103.54,-250.262 1103.54,-250.262"/>
</g>
<!-- Factor -->
<g id="node22" class="node"><title>Factor</title>
<ellipse fill="none" stroke="black" cx="1087" cy="-90" rx="33.2948" ry="18"/>
<text text-anchor="middle" x="1087" y="-86.3" font-family="Times,serif" font-size="14.00">Factor</text>
</g>
<!-- FactorPack&#45;&gt;Factor -->
<g id="edge3" class="edge"><title>FactorPack&#45;&gt;Factor</title>
<path fill="none" stroke="#abedf2" d="M1215.09,-281.356C1187.59,-240.487 1131.44,-157.039 1103.52,-115.55"/>
<ellipse fill="none" stroke="#abedf2" cx="1217.47" cy="-284.889" rx="4.00002" ry="4.00002"/>
<polygon fill="#abedf2" stroke="#abedf2" points="1103.44,-115.425 1101.59,-104.616 1100.64,-111.277 1097.85,-107.129 1097.85,-107.129 1097.85,-107.129 1100.64,-111.277 1094.12,-109.641 1103.44,-115.425 1103.44,-115.425"/>
</g>
<!-- Course -->
<g id="node5" class="node"><title>Course</title>
<ellipse fill="none" stroke="black" cx="747" cy="-306" rx="35.9954" ry="18"/>
<text text-anchor="middle" x="747" y="-302.3" font-family="Times,serif" font-size="14.00">Course</text>
</g>
<!-- Course&#45;&gt;User -->
<g id="edge8" class="edge"><title>Course&#45;&gt;User</title>
<path fill="none" stroke="#0a1ac7" d="M738.944,-333.692C733.33,-351.534 725.371,-375.42 717,-396 702.668,-431.236 683.167,-470.6 670.34,-495.57"/>
<polygon fill="#0a1ac7" stroke="#0a1ac7" points="739.001,-333.507 746.262,-325.289 740.483,-328.731 741.964,-323.956 741.964,-323.956 741.964,-323.956 740.483,-328.731 737.666,-322.623 739.001,-333.507 739.001,-333.507"/>
<polygon fill="#0a1ac7" stroke="#0a1ac7" points="670.207,-495.828 661.616,-502.642 667.91,-500.269 665.613,-504.71 665.613,-504.71 665.613,-504.71 667.91,-500.269 669.61,-506.777 670.207,-495.828 670.207,-495.828"/>
</g>
<!-- Roster -->
<g id="node13" class="node"><title>Roster</title>
<ellipse fill="none" stroke="black" cx="901" cy="-234" rx="33.5952" ry="18"/>
<text text-anchor="middle" x="901" y="-230.3" font-family="Times,serif" font-size="14.00">Roster</text>
</g>
<!-- Course&#45;&gt;Roster -->
<g id="edge6" class="edge"><title>Course&#45;&gt;Roster</title>
<path fill="none" stroke="#95fcd0" d="M780.189,-289.914C805.746,-278.297 840.952,-262.294 866.767,-250.561"/>
<ellipse fill="none" stroke="#95fcd0" cx="776.418" cy="-291.628" rx="4.00002" ry="4.00002"/>
<polygon fill="#95fcd0" stroke="#95fcd0" points="867.057,-250.429 878.023,-250.387 871.609,-248.359 876.161,-246.29 876.161,-246.29 876.161,-246.29 871.609,-248.359 874.299,-242.194 867.057,-250.429 867.057,-250.429"/>
</g>
<!-- Course&#45;&gt;Project -->
<g id="edge5" class="edge"><title>Course&#45;&gt;Project</title>
<path fill="none" stroke="#691616" d="M787.172,-296.24C848.207,-282.93 963.751,-257.733 1025.91,-244.179"/>
<ellipse fill="none" stroke="#691616" cx="783.157" cy="-297.115" rx="4.00001" ry="4.00001"/>
<polygon fill="#691616" stroke="#691616" points="1026,-244.158 1036.73,-246.424 1030.89,-243.093 1035.77,-242.028 1035.77,-242.028 1035.77,-242.028 1030.89,-243.093 1034.81,-237.631 1026,-244.158 1026,-244.158"/>
</g>
<!-- Experience -->
<g id="node34" class="node"><title>Experience</title>
<ellipse fill="none" stroke="black" cx="647" cy="-234" rx="50.0912" ry="18"/>
<text text-anchor="middle" x="647" y="-230.3" font-family="Times,serif" font-size="14.00">Experience</text>
</g>
<!-- Course&#45;&gt;Experience -->
<g id="edge9" class="edge"><title>Course&#45;&gt;Experience</title>
<path fill="none" stroke="#911d93" d="M720.168,-286.218C707.016,-277.011 691.118,-265.882 677.505,-256.354"/>
<ellipse fill="none" stroke="#911d93" cx="723.487" cy="-288.541" rx="4.00002" ry="4.00002"/>
<polygon fill="#911d93" stroke="#911d93" points="677.134,-256.094 671.522,-246.673 673.038,-253.226 668.942,-250.359 668.942,-250.359 668.942,-250.359 673.038,-253.226 666.361,-254.046 677.134,-256.094 677.134,-256.094"/>
</g>
<!-- BingoGame -->
<g id="node35" class="node"><title>BingoGame</title>
<ellipse fill="none" stroke="black" cx="763" cy="-162" rx="53.8905" ry="18"/>
<text text-anchor="middle" x="763" y="-158.3" font-family="Times,serif" font-size="14.00">BingoGame</text>
</g>
<!-- Course&#45;&gt;BingoGame -->
<g id="edge7" class="edge"><title>Course&#45;&gt;BingoGame</title>
<path fill="none" stroke="#40437f" d="M763.433,-282.01C768.872,-273.081 774.238,-262.488 777,-252 782.428,-231.39 778.112,-207.506 772.886,-189.672"/>
<ellipse fill="none" stroke="#40437f" cx="761.259" cy="-285.411" rx="4.00002" ry="4.00002"/>
<polygon fill="#40437f" stroke="#40437f" points="772.82,-189.466 774.057,-178.57 771.296,-184.704 769.771,-179.942 769.771,-179.942 769.771,-179.942 771.296,-184.704 765.486,-181.314 772.82,-189.466 772.82,-189.466"/>
</g>
<!-- Style -->
<g id="node6" class="node"><title>Style</title>
<ellipse fill="none" stroke="black" cx="1096" cy="-306" rx="28.6953" ry="18"/>
<text text-anchor="middle" x="1096" y="-302.3" font-family="Times,serif" font-size="14.00">Style</text>
</g>
<!-- Style&#45;&gt;Project -->
<g id="edge10" class="edge"><title>Style&#45;&gt;Project</title>
<path fill="none" stroke="#a726d0" d="M1086.31,-280.778C1083.82,-274.544 1081.12,-267.805 1078.59,-261.463"/>
<ellipse fill="none" stroke="#a726d0" cx="1087.88" cy="-284.697" rx="4.00001" ry="4.00001"/>
<polygon fill="#a726d0" stroke="#a726d0" points="1078.5,-261.241 1078.96,-250.285 1076.64,-256.599 1074.78,-251.956 1074.78,-251.956 1074.78,-251.956 1076.64,-256.599 1070.6,-253.627 1078.5,-261.241 1078.5,-261.241"/>
</g>
<!-- Behavior -->
<g id="node7" class="node"><title>Behavior</title>
<ellipse fill="none" stroke="black" cx="246" cy="-234" rx="42.7926" ry="18"/>
<text text-anchor="middle" x="246" y="-230.3" font-family="Times,serif" font-size="14.00">Behavior</text>
</g>
<!-- Diagnosis -->
<g id="node21" class="node"><title>Diagnosis</title>
<ellipse fill="none" stroke="black" cx="350" cy="-90" rx="46.2923" ry="18"/>
<text text-anchor="middle" x="350" y="-86.3" font-family="Times,serif" font-size="14.00">Diagnosis</text>
</g>
<!-- Behavior&#45;&gt;Diagnosis -->
<g id="edge13" class="edge"><title>Behavior&#45;&gt;Diagnosis</title>
<path fill="none" stroke="#2fa28e" d="M259.201,-208.901C269.669,-190.515 285.132,-164.879 301,-144 308.741,-133.814 318.101,-123.323 326.558,-114.391"/>
<ellipse fill="none" stroke="#2fa28e" cx="256.996" cy="-212.817" rx="4.00002" ry="4.00002"/>
<polygon fill="#2fa28e" stroke="#2fa28e" points="326.753,-114.188 336.933,-110.112 330.223,-110.588 333.693,-106.989 333.693,-106.989 333.693,-106.989 330.223,-110.588 330.453,-103.866 326.753,-114.188 326.753,-114.188"/>
</g>
<!-- Scenario -->
<g id="node30" class="node"><title>Scenario</title>
<ellipse fill="none" stroke="black" cx="207" cy="-162" rx="41.6928" ry="18"/>
<text text-anchor="middle" x="207" y="-158.3" font-family="Times,serif" font-size="14.00">Scenario</text>
</g>
<!-- Behavior&#45;&gt;Scenario -->
<g id="edge11" class="edge"><title>Behavior&#45;&gt;Scenario</title>
<path fill="none" stroke="#24a37e" d="M232.822,-209.346C229.129,-202.719 225.097,-195.483 221.341,-188.74"/>
<ellipse fill="none" stroke="#24a37e" cx="234.811" cy="-212.917" rx="4.00002" ry="4.00002"/>
<polygon fill="#24a37e" stroke="#24a37e" points="221.314,-188.692 220.378,-177.766 218.881,-184.324 216.447,-179.956 216.447,-179.956 216.447,-179.956 218.881,-184.324 212.516,-182.146 221.314,-188.692 221.314,-188.692"/>
</g>
<!-- Reaction -->
<g id="node31" class="node"><title>Reaction</title>
<ellipse fill="none" stroke="black" cx="385" cy="-162" rx="42.4939" ry="18"/>
<text text-anchor="middle" x="385" y="-158.3" font-family="Times,serif" font-size="14.00">Reaction</text>
</g>
<!-- Behavior&#45;&gt;Reaction -->
<g id="edge12" class="edge"><title>Behavior&#45;&gt;Reaction</title>
<path fill="none" stroke="#9402f6" d="M279.725,-216.016C300.857,-205.374 328.058,-191.676 349.516,-180.87"/>
<ellipse fill="none" stroke="#9402f6" cx="276.045" cy="-217.87" rx="4.00002" ry="4.00002"/>
<polygon fill="#9402f6" stroke="#9402f6" points="349.695,-180.779 360.651,-180.301 354.161,-178.531 358.627,-176.282 358.627,-176.282 358.627,-176.282 354.161,-178.531 356.602,-172.262 349.695,-180.779 349.695,-180.779"/>
</g>
<!-- CandidateFeedback -->
<g id="node8" class="node"><title>CandidateFeedback</title>
<ellipse fill="none" stroke="black" cx="1218" cy="-90" rx="79.8859" ry="18"/>
<text text-anchor="middle" x="1218" y="-86.3" font-family="Times,serif" font-size="14.00">CandidateFeedback</text>
</g>
<!-- Candidate -->
<g id="node26" class="node"><title>Candidate</title>
<ellipse fill="none" stroke="black" cx="599" cy="-18" rx="46.2923" ry="18"/>
<text text-anchor="middle" x="599" y="-14.3" font-family="Times,serif" font-size="14.00">Candidate</text>
</g>
<!-- CandidateFeedback&#45;&gt;Candidate -->
<g id="edge14" class="edge"><title>CandidateFeedback&#45;&gt;Candidate</title>
<path fill="none" stroke="#62473d" d="M1152.74,-75.8452C1144.76,-74.4408 1136.71,-73.119 1129,-72 956.603,-46.966 750.927,-30.0754 654.307,-22.8996"/>
<ellipse fill="none" stroke="#62473d" cx="1156.74" cy="-76.5647" rx="4.00001" ry="4.00001"/>
<polygon fill="#62473d" stroke="#62473d" points="654.16,-22.8888 644.518,-17.6661 649.174,-22.5214 644.187,-22.154 644.187,-22.154 644.187,-22.154 649.174,-22.5214 643.856,-26.6418 654.16,-22.8888 654.16,-22.8888"/>
</g>
<!-- Installment -->
<g id="node9" class="node"><title>Installment</title>
<ellipse fill="none" stroke="black" cx="1385" cy="-90" rx="50.8918" ry="18"/>
<text text-anchor="middle" x="1385" y="-86.3" font-family="Times,serif" font-size="14.00">Installment</text>
</g>
<!-- Value -->
<g id="node29" class="node"><title>Value</title>
<ellipse fill="none" stroke="black" cx="1385" cy="-18" rx="31.6951" ry="18"/>
<text text-anchor="middle" x="1385" y="-14.3" font-family="Times,serif" font-size="14.00">Value</text>
</g>
<!-- Installment&#45;&gt;Value -->
<g id="edge15" class="edge"><title>Installment&#45;&gt;Value</title>
<path fill="none" stroke="#34efda" d="M1385,-63.6398C1385,-58.0629 1385,-52.1319 1385,-46.4761"/>
<ellipse fill="none" stroke="#34efda" cx="1385" cy="-67.6966" rx="4" ry="4"/>
<polygon fill="#34efda" stroke="#34efda" points="1385,-46.1043 1389.5,-36.1043 1385,-41.1043 1385,-36.1043 1385,-36.1043 1385,-36.1043 1385,-41.1043 1380.5,-36.1044 1385,-46.1043 1385,-46.1043"/>
</g>
<!-- ConsentForm -->
<g id="node10" class="node"><title>ConsentForm</title>
<ellipse fill="none" stroke="black" cx="1546" cy="-522" rx="59.2899" ry="18"/>
<text text-anchor="middle" x="1546" y="-518.3" font-family="Times,serif" font-size="14.00">ConsentForm</text>
</g>
<!-- ConsentForm&#45;&gt;Project -->
<g id="edge16" class="edge"><title>ConsentForm&#45;&gt;Project</title>
<path fill="none" stroke="#403887" d="M1561.87,-497.218C1572.58,-477.893 1582.39,-450.843 1568,-432 1457.27,-287.023 1331.01,-413.426 1172,-324 1151.72,-312.596 1151.53,-303.296 1134,-288 1121.4,-277.009 1106.97,-265.322 1094.82,-255.726"/>
<ellipse fill="none" stroke="#403887" cx="1559.79" cy="-500.763" rx="4.00002" ry="4.00002"/>
<polygon fill="#403887" stroke="#403887" points="1094.69,-255.625 1089.6,-245.912 1090.76,-252.539 1086.82,-249.452 1086.82,-249.452 1086.82,-249.452 1090.76,-252.539 1084.05,-252.993 1094.69,-255.625 1094.69,-255.625"/>
</g>
<!-- ConsentLog -->
<g id="node28" class="node"><title>ConsentLog</title>
<ellipse fill="none" stroke="black" cx="1505" cy="-450" rx="53.8905" ry="18"/>
<text text-anchor="middle" x="1505" y="-446.3" font-family="Times,serif" font-size="14.00">ConsentLog</text>
</g>
<!-- ConsentForm&#45;&gt;ConsentLog -->
<g id="edge17" class="edge"><title>ConsentForm&#45;&gt;ConsentLog</title>
<path fill="none" stroke="#ee2d6f" d="M1531.94,-496.998C1528.07,-490.387 1523.86,-483.194 1519.94,-476.502"/>
<ellipse fill="none" stroke="#ee2d6f" cx="1534.05" cy="-500.603" rx="4.00002" ry="4.00002"/>
<polygon fill="#ee2d6f" stroke="#ee2d6f" points="1519.89,-476.418 1518.72,-465.515 1517.36,-472.103 1514.83,-467.789 1514.83,-467.789 1514.83,-467.789 1517.36,-472.103 1510.95,-470.063 1519.89,-476.418 1519.89,-476.418"/>
</g>
<!-- User&#45;&gt;Installment -->
<g id="edge25" class="edge"><title>User&#45;&gt;Installment</title>
<path fill="none" stroke="#cc3f2d" d="M692.491,-520.601C778.377,-518.958 1003.77,-510.58 1186,-468 1295.56,-442.399 1423,-491.516 1423,-379 1423,-379 1423,-379 1423,-233 1423,-191.633 1407.77,-145.722 1396.59,-117.605"/>
<ellipse fill="none" stroke="#cc3f2d" cx="688.382" cy="-520.674" rx="4" ry="4"/>
<polygon fill="#cc3f2d" stroke="#cc3f2d" points="1396.48,-117.346 1396.85,-106.386 1394.59,-112.719 1392.69,-108.093 1392.69,-108.093 1392.69,-108.093 1394.59,-112.719 1388.53,-109.799 1396.48,-117.346 1396.48,-117.346"/>
</g>
<!-- Concept -->
<g id="node12" class="node"><title>Concept</title>
<ellipse fill="none" stroke="black" cx="599" cy="-90" rx="40.0939" ry="18"/>
<text text-anchor="middle" x="599" y="-86.3" font-family="Times,serif" font-size="14.00">Concept</text>
</g>
<!-- User&#45;&gt;Concept -->
<g id="edge22" class="edge"><title>User&#45;&gt;Concept</title>
<path fill="none" stroke="#90a5a4" d="M638.871,-499.669C611.149,-465.382 559.682,-394.667 543,-324 525.183,-248.525 563.002,-159.43 584.883,-116.565"/>
<ellipse fill="none" stroke="#90a5a4" cx="641.546" cy="-502.935" rx="4.00002" ry="4.00002"/>
<polygon fill="#90a5a4" stroke="#90a5a4" points="584.907,-116.519 593.53,-109.744 587.225,-112.088 589.543,-107.658 589.543,-107.658 589.543,-107.658 587.225,-112.088 585.556,-105.572 584.907,-116.519 584.907,-116.519"/>
</g>
<!-- User&#45;&gt;Roster -->
<g id="edge26" class="edge"><title>User&#45;&gt;Roster</title>
<path fill="none" stroke="#c684fb" d="M687.947,-509.753C731.739,-492.247 811.312,-454.314 855,-396 885.04,-355.903 895.481,-296.823 899.098,-262.494"/>
<ellipse fill="none" stroke="#c684fb" cx="684.186" cy="-511.226" rx="4.00001" ry="4.00001"/>
<polygon fill="#c684fb" stroke="#c684fb" points="899.122,-262.23 904.529,-252.69 899.585,-257.252 900.048,-252.273 900.048,-252.273 900.048,-252.273 899.585,-257.252 895.567,-251.857 899.122,-262.23 899.122,-262.23"/>
</g>
<!-- Group -->
<g id="node15" class="node"><title>Group</title>
<ellipse fill="none" stroke="black" cx="1085" cy="-450" rx="33.2948" ry="18"/>
<text text-anchor="middle" x="1085" y="-446.3" font-family="Times,serif" font-size="14.00">Group</text>
</g>
<!-- User&#45;&gt;Group -->
<g id="edge19" class="edge"><title>User&#45;&gt;Group</title>
<path fill="none" stroke="#198e1c" d="M693.017,-515.109C771.994,-502.193 960.007,-471.443 1043.65,-457.763"/>
<polygon fill="#198e1c" stroke="#198e1c" points="692.998,-515.112 682.403,-512.286 688.063,-515.919 683.129,-516.727 683.129,-516.727 683.129,-516.727 688.063,-515.919 683.855,-521.168 692.998,-515.112 692.998,-515.112"/>
<polygon fill="#198e1c" stroke="#198e1c" points="1043.69,-457.757 1054.28,-460.584 1048.62,-456.95 1053.56,-456.143 1053.56,-456.143 1053.56,-456.143 1048.62,-456.95 1052.83,-451.702 1043.69,-457.757 1043.69,-457.757"/>
</g>
<!-- User&#45;&gt;Project -->
<g id="edge23" class="edge"><title>User&#45;&gt;Project</title>
<path fill="none" stroke="#c2e08e" d="M692.332,-512.945C724.289,-504.695 771.882,-489.95 809,-468 910.171,-408.17 1006.99,-304.91 1047.77,-258.632"/>
<polygon fill="#c2e08e" stroke="#c2e08e" points="692.24,-512.968 681.446,-511.031 687.389,-514.182 682.539,-515.397 682.539,-515.397 682.539,-515.397 687.389,-514.182 683.632,-519.762 692.24,-512.968 692.24,-512.968"/>
<polygon fill="#c2e08e" stroke="#c2e08e" points="1047.91,-258.464 1057.88,-253.896 1051.2,-254.7 1054.49,-250.935 1054.49,-250.935 1054.49,-250.935 1051.2,-254.7 1051.1,-247.973 1047.91,-258.464 1047.91,-258.464"/>
</g>
<!-- Email -->
<g id="node18" class="node"><title>Email</title>
<ellipse fill="none" stroke="black" cx="548" cy="-450" rx="32.4942" ry="18"/>
<text text-anchor="middle" x="548" y="-446.3" font-family="Times,serif" font-size="14.00">Email</text>
</g>
<!-- User&#45;&gt;Email -->
<g id="edge18" class="edge"><title>User&#45;&gt;Email</title>
<path fill="none" stroke="#c744f2" d="M631.043,-504.33C614.928,-493.981 594.175,-480.654 577.447,-469.911"/>
<ellipse fill="none" stroke="#c744f2" cx="634.648" cy="-506.645" rx="4.00002" ry="4.00002"/>
<polygon fill="#c744f2" stroke="#c744f2" points="577.037,-469.647 571.054,-460.457 572.829,-466.945 568.622,-464.244 568.622,-464.244 568.622,-464.244 572.829,-466.945 566.191,-468.03 577.037,-469.647 577.037,-469.647"/>
</g>
<!-- Narrative -->
<g id="node25" class="node"><title>Narrative</title>
<ellipse fill="none" stroke="black" cx="310" cy="-378" rx="44.393" ry="18"/>
<text text-anchor="middle" x="310" y="-374.3" font-family="Times,serif" font-size="14.00">Narrative</text>
</g>
<!-- User&#45;&gt;Narrative -->
<g id="edge29" class="edge"><title>User&#45;&gt;Narrative</title>
<path fill="none" stroke="#a435b7" d="M619.373,-520.265C566.406,-517.757 468.26,-507.611 396,-468 367.644,-452.456 342.905,-424.429 327.331,-403.968"/>
<polygon fill="#a435b7" stroke="#a435b7" points="619.662,-520.277 629.472,-525.178 624.658,-520.479 629.654,-520.682 629.654,-520.682 629.654,-520.682 624.658,-520.479 629.836,-516.186 619.662,-520.277 619.662,-520.277"/>
<polygon fill="#a435b7" stroke="#a435b7" points="327.179,-403.762 324.853,-393.045 324.207,-399.741 321.234,-395.721 321.234,-395.721 321.234,-395.721 324.207,-399.741 317.616,-398.396 327.179,-403.762 327.179,-403.762"/>
</g>
<!-- User&#45;&gt;Candidate -->
<g id="edge24" class="edge"><title>User&#45;&gt;Candidate</title>
<path fill="none" stroke="#434c81" d="M621.449,-518.993C504.174,-511.417 137,-479.657 137,-379 137,-379 137,-379 137,-161 137,-76.6112 422.2,-37.1712 544.44,-24.1425"/>
<ellipse fill="none" stroke="#434c81" cx="625.783" cy="-519.266" rx="4" ry="4"/>
<polygon fill="#434c81" stroke="#434c81" points="544.756,-24.1095 555.169,-27.5458 549.729,-23.5898 554.701,-23.0701 554.701,-23.0701 554.701,-23.0701 549.729,-23.5898 554.234,-18.5945 544.756,-24.1095 544.756,-24.1095"/>
</g>
<!-- User&#45;&gt;ConsentLog -->
<g id="edge20" class="edge"><title>User&#45;&gt;ConsentLog</title>
<path fill="none" stroke="#731744" d="M692.668,-520.817C803.651,-519.769 1152.47,-512.87 1437,-468 1442.85,-467.077 1448.94,-465.89 1454.96,-464.573"/>
<ellipse fill="none" stroke="#731744" cx="688.483" cy="-520.853" rx="4" ry="4"/>
<polygon fill="#731744" stroke="#731744" points="1455.23,-464.511 1465.98,-466.642 1460.1,-463.385 1464.97,-462.258 1464.97,-462.258 1464.97,-462.258 1460.1,-463.385 1463.96,-457.874 1455.23,-464.511 1455.23,-464.511"/>
</g>
<!-- User&#45;&gt;Reaction -->
<g id="edge27" class="edge"><title>User&#45;&gt;Reaction</title>
<path fill="none" stroke="#432080" d="M621.772,-517.107C553.539,-507.407 410,-475.529 410,-379 410,-379 410,-379 410,-305 410,-264.381 399.955,-218.202 392.6,-189.832"/>
<ellipse fill="none" stroke="#432080" cx="626.133" cy="-517.697" rx="4.00001" ry="4.00001"/>
<polygon fill="#432080" stroke="#432080" points="392.522,-189.541 394.287,-178.718 391.231,-184.71 389.939,-179.88 389.939,-179.88 389.939,-179.88 391.231,-184.71 385.592,-181.042 392.522,-189.541 392.522,-189.541"/>
</g>
<!-- Assessment -->
<g id="node32" class="node"><title>Assessment</title>
<ellipse fill="none" stroke="black" cx="1304" cy="-162" rx="52.7911" ry="18"/>
<text text-anchor="middle" x="1304" y="-158.3" font-family="Times,serif" font-size="14.00">Assessment</text>
</g>
<!-- User&#45;&gt;Assessment -->
<g id="edge30" class="edge"><title>User&#45;&gt;Assessment</title>
<path fill="none" stroke="#aacb80" d="M694.783,-521.766C776.001,-522.337 972.384,-517.927 1127,-468 1225.49,-436.198 1268.23,-418.689 1310,-324 1329.51,-279.767 1331.28,-263.632 1323,-216 1321.48,-207.236 1318.64,-198.006 1315.61,-189.748"/>
<polygon fill="#aacb80" stroke="#aacb80" points="694.554,-521.764 684.6,-517.163 689.554,-521.713 684.554,-521.662 684.554,-521.662 684.554,-521.662 689.554,-521.713 684.509,-526.162 694.554,-521.764 694.554,-521.764"/>
<polygon fill="#aacb80" stroke="#aacb80" points="1315.54,-189.568 1316.08,-178.616 1313.71,-184.911 1311.89,-180.255 1311.89,-180.255 1311.89,-180.255 1313.71,-184.911 1307.7,-181.894 1315.54,-189.568 1315.54,-189.568"/>
</g>
<!-- CandidateList -->
<g id="node33" class="node"><title>CandidateList</title>
<ellipse fill="none" stroke="black" cx="648" cy="-378" rx="59.5901" ry="18"/>
<text text-anchor="middle" x="648" y="-374.3" font-family="Times,serif" font-size="14.00">CandidateList</text>
</g>
<!-- User&#45;&gt;CandidateList -->
<g id="edge21" class="edge"><title>User&#45;&gt;CandidateList</title>
<path fill="none" stroke="#72a8fd" d="M655.388,-495.558C653.796,-470.444 651.37,-432.164 649.736,-406.393"/>
<ellipse fill="none" stroke="#72a8fd" cx="655.661" cy="-499.879" rx="4" ry="4"/>
<polygon fill="#72a8fd" stroke="#72a8fd" points="649.722,-406.169 653.58,-395.905 649.406,-401.179 649.089,-396.189 649.089,-396.189 649.089,-396.189 649.406,-401.179 644.598,-396.474 649.722,-406.169 649.722,-406.169"/>
</g>
<!-- User&#45;&gt;Experience -->
<g id="edge28" class="edge"><title>User&#45;&gt;Experience</title>
<path fill="none" stroke="#968cf7" d="M619.516,-519.369C583.964,-515.589 532.329,-503.814 507,-468 454.124,-393.238 561.836,-297.949 617.074,-256.202"/>
<polygon fill="#968cf7" stroke="#968cf7" points="619.573,-519.374 629.13,-524.752 624.553,-519.822 629.533,-520.27 629.533,-520.27 629.533,-520.27 624.553,-519.822 629.936,-515.788 619.573,-519.374 619.573,-519.374"/>
<polygon fill="#968cf7" stroke="#968cf7" points="617.112,-256.173 627.822,-253.817 621.124,-253.19 625.137,-250.206 625.137,-250.206 625.137,-250.206 621.124,-253.19 622.451,-246.595 617.112,-256.173 617.112,-256.173"/>
</g>
<!-- Concept&#45;&gt;Candidate -->
<g id="edge31" class="edge"><title>Concept&#45;&gt;Candidate</title>
<path fill="none" stroke="#287b9f" d="M599,-63.6398C599,-58.0629 599,-52.1319 599,-46.4761"/>
<ellipse fill="none" stroke="#287b9f" cx="599" cy="-67.6966" rx="4" ry="4"/>
<polygon fill="#287b9f" stroke="#287b9f" points="599,-46.1043 603.5,-36.1043 599,-41.1043 599,-36.1043 599,-36.1043 599,-36.1043 599,-41.1043 594.5,-36.1044 599,-46.1043 599,-46.1043"/>
</g>
<!-- School -->
<g id="node14" class="node"><title>School</title>
<ellipse fill="none" stroke="black" cx="811" cy="-378" rx="35.194" ry="18"/>
<text text-anchor="middle" x="811" y="-374.3" font-family="Times,serif" font-size="14.00">School</text>
</g>
<!-- School&#45;&gt;Course -->
<g id="edge32" class="edge"><title>School&#45;&gt;Course</title>
<path fill="none" stroke="#872dad" d="M791.381,-355.542C784.183,-347.669 775.996,-338.715 768.632,-330.66"/>
<ellipse fill="none" stroke="#872dad" cx="794.097" cy="-358.513" rx="4.00002" ry="4.00002"/>
<polygon fill="#872dad" stroke="#872dad" points="768.355,-330.357 764.929,-319.941 764.982,-326.667 761.608,-322.977 761.608,-322.977 761.608,-322.977 764.982,-326.667 758.287,-326.014 768.355,-330.357 768.355,-330.357"/>
</g>
<!-- School&#45;&gt;Roster -->
<g id="edge36" class="edge"><title>School&#45;&gt;Roster</title>
<path fill="none" stroke="#a8a76c" d="M826.846,-351.999C843.244,-326.126 868.712,-285.944 885.122,-260.052"/>
<polygon fill="#a8a76c" stroke="#a8a76c" points="826.678,-352.264 817.523,-358.302 824.001,-356.488 821.324,-360.711 821.324,-360.711 821.324,-360.711 824.001,-356.488 825.125,-363.12 826.678,-352.264 826.678,-352.264"/>
<polygon fill="#a8a76c" stroke="#a8a76c" points="885.166,-259.983 894.32,-253.946 887.842,-255.76 890.519,-251.537 890.519,-251.537 890.519,-251.537 887.842,-255.76 886.718,-249.128 885.166,-259.983 885.166,-259.983"/>
</g>
<!-- School&#45;&gt;Project -->
<g id="edge34" class="edge"><title>School&#45;&gt;Project</title>
<path fill="none" stroke="#509d19" d="M843.145,-359.239C892.443,-332.001 986.188,-280.203 1035.62,-252.888"/>
<polygon fill="#509d19" stroke="#509d19" points="843.013,-359.312 832.084,-360.209 838.637,-361.73 834.26,-364.148 834.26,-364.148 834.26,-364.148 838.637,-361.73 836.437,-368.087 843.013,-359.312 843.013,-359.312"/>
<polygon fill="#509d19" stroke="#509d19" points="1035.85,-252.761 1046.78,-251.864 1040.23,-250.343 1044.61,-247.925 1044.61,-247.925 1044.61,-247.925 1040.23,-250.343 1042.43,-243.987 1035.85,-252.761 1035.85,-252.761"/>
</g>
<!-- School&#45;&gt;Experience -->
<g id="edge35" class="edge"><title>School&#45;&gt;Experience</title>
<path fill="none" stroke="#5f76ae" d="M771.966,-364.233C749.625,-355.501 722.126,-342.19 702,-324 682.633,-306.496 667.677,-280.595 658.283,-261.242"/>
<polygon fill="#5f76ae" stroke="#5f76ae" points="772.142,-364.299 779.926,-372.023 776.824,-366.054 781.506,-367.81 781.506,-367.81 781.506,-367.81 776.824,-366.054 783.086,-363.596 772.142,-364.299 772.142,-364.299"/>
<polygon fill="#5f76ae" stroke="#5f76ae" points="658.23,-261.129 658.082,-250.164 656.117,-256.598 654.004,-252.066 654.004,-252.066 654.004,-252.066 656.117,-256.598 649.925,-253.968 658.23,-261.129 658.23,-261.129"/>
</g>
<!-- School&#45;&gt;BingoGame -->
<g id="edge33" class="edge"><title>School&#45;&gt;BingoGame</title>
<path fill="none" stroke="#01b91f" d="M810.92,-349.5C810.11,-316.901 806.46,-261.287 792,-216 789.001,-206.608 784.294,-196.967 779.539,-188.527"/>
<polygon fill="#01b91f" stroke="#01b91f" points="810.922,-349.627 806.598,-359.704 811.01,-354.626 811.097,-359.625 811.097,-359.625 811.097,-359.625 811.01,-354.626 815.597,-359.547 810.922,-349.627 810.922,-349.627"/>
<polygon fill="#01b91f" stroke="#01b91f" points="779.531,-188.513 778.31,-177.616 776.984,-184.211 774.437,-179.908 774.437,-179.908 774.437,-179.908 776.984,-184.211 770.565,-182.2 779.531,-188.513 779.531,-188.513"/>
</g>
<!-- Group&#45;&gt;Installment -->
<g id="edge39" class="edge"><title>Group&#45;&gt;Installment</title>
<path fill="none" stroke="#feb32f" d="M1124.99,-443.617C1161.52,-437.146 1215.67,-423.51 1255,-396 1349.56,-329.866 1375.74,-180.284 1382.65,-118.497"/>
<ellipse fill="none" stroke="#feb32f" cx="1120.96" cy="-444.299" rx="4.00001" ry="4.00001"/>
<polygon fill="#feb32f" stroke="#feb32f" points="1382.67,-118.301 1388.17,-108.816 1383.18,-113.327 1383.7,-108.354 1383.7,-108.354 1383.7,-108.354 1383.18,-113.327 1379.22,-107.892 1382.67,-118.301 1382.67,-118.301"/>
</g>
<!-- GroupRevision -->
<g id="node27" class="node"><title>GroupRevision</title>
<ellipse fill="none" stroke="black" cx="1131" cy="-378" rx="64.189" ry="18"/>
<text text-anchor="middle" x="1131" y="-374.3" font-family="Times,serif" font-size="14.00">GroupRevision</text>
</g>
<!-- Group&#45;&gt;GroupRevision -->
<g id="edge37" class="edge"><title>Group&#45;&gt;GroupRevision</title>
<path fill="none" stroke="#86e911" d="M1100.13,-425.978C1104.63,-419.136 1109.58,-411.599 1114.18,-404.603"/>
<ellipse fill="none" stroke="#86e911" cx="1097.87" cy="-429.422" rx="4.00002" ry="4.00002"/>
<polygon fill="#86e911" stroke="#86e911" points="1114.26,-404.481 1123.51,-398.595 1117,-400.302 1119.75,-396.124 1119.75,-396.124 1119.75,-396.124 1117,-400.302 1115.99,-393.653 1114.26,-404.481 1114.26,-404.481"/>
</g>
<!-- Group&#45;&gt;CandidateList -->
<g id="edge38" class="edge"><title>Group&#45;&gt;CandidateList</title>
<path fill="none" stroke="#5f6a97" d="M1045.3,-442.64C968.766,-430.381 800.374,-403.408 709.326,-388.823"/>
<ellipse fill="none" stroke="#5f6a97" cx="1049.62" cy="-443.333" rx="4.00001" ry="4.00001"/>
<polygon fill="#5f6a97" stroke="#5f6a97" points="709.295,-388.819 700.133,-382.793 704.358,-388.028 699.421,-387.237 699.421,-387.237 699.421,-387.237 704.358,-388.028 698.709,-391.68 709.295,-388.819 709.295,-388.819"/>
</g>
<!-- Project&#45;&gt;Group -->
<g id="edge40" class="edge"><title>Project&#45;&gt;Group</title>
<path fill="none" stroke="#5168f7" d="M1061.91,-260.176C1055.19,-292.204 1046.72,-349.004 1058,-396 1060.28,-405.484 1064.55,-415.185 1069.03,-423.651"/>
<ellipse fill="none" stroke="#5168f7" cx="1062.8" cy="-256.115" rx="4.00001" ry="4.00001"/>
<polygon fill="#5168f7" stroke="#5168f7" points="1069.18,-423.901 1070.18,-434.821 1071.63,-428.254 1074.09,-432.608 1074.09,-432.608 1074.09,-432.608 1071.63,-428.254 1078.01,-430.394 1069.18,-423.901 1069.18,-423.901"/>
</g>
<!-- Project&#45;&gt;Factor -->
<g id="edge43" class="edge"><title>Project&#45;&gt;Factor</title>
<path fill="none" stroke="#d45426" d="M1071.66,-205.679C1075.03,-180.487 1080,-143.295 1083.37,-118.156"/>
<polygon fill="#d45426" stroke="#d45426" points="1071.62,-205.96 1065.83,-215.275 1070.95,-210.916 1070.29,-215.871 1070.29,-215.871 1070.29,-215.871 1070.95,-210.916 1074.75,-216.468 1071.62,-205.96 1071.62,-205.96"/>
<polygon fill="#d45426" stroke="#d45426" points="1083.37,-118.101 1089.16,-108.786 1084.04,-113.145 1084.7,-108.189 1084.7,-108.189 1084.7,-108.189 1084.04,-113.145 1080.24,-107.592 1083.37,-118.101 1083.37,-118.101"/>
</g>
<!-- Project&#45;&gt;Assessment -->
<g id="edge42" class="edge"><title>Project&#45;&gt;Assessment</title>
<path fill="none" stroke="#5f9c40" d="M1106.22,-221.662C1146.99,-209.569 1211.66,-190.388 1255.87,-177.275"/>
<ellipse fill="none" stroke="#5f9c40" cx="1102.2" cy="-222.855" rx="4.00001" ry="4.00001"/>
<polygon fill="#5f9c40" stroke="#5f9c40" points="1255.95,-177.253 1266.82,-178.723 1260.74,-175.831 1265.54,-174.409 1265.54,-174.409 1265.54,-174.409 1260.74,-175.831 1264.26,-170.095 1255.95,-177.253 1255.95,-177.253"/>
</g>
<!-- Project&#45;&gt;BingoGame -->
<g id="edge41" class="edge"><title>Project&#45;&gt;BingoGame</title>
<path fill="none" stroke="#4164ef" d="M1028.12,-223.847C973.876,-211.398 876.698,-189.095 816.266,-175.225"/>
<ellipse fill="none" stroke="#4164ef" cx="1032.32" cy="-224.812" rx="4.00001" ry="4.00001"/>
<polygon fill="#4164ef" stroke="#4164ef" points="815.909,-175.143 807.169,-168.52 811.035,-174.025 806.162,-172.906 806.162,-172.906 806.162,-172.906 811.035,-174.025 805.155,-177.292 815.909,-175.143 815.909,-175.143"/>
</g>
<!-- Gender -->
<g id="node17" class="node"><title>Gender</title>
<ellipse fill="none" stroke="black" cx="751" cy="-615" rx="36.2938" ry="18"/>
<text text-anchor="middle" x="751" y="-611.3" font-family="Times,serif" font-size="14.00">Gender</text>
</g>
<!-- Gender&#45;&gt;User -->
<g id="edge44" class="edge"><title>Gender&#45;&gt;User</title>
<path fill="none" stroke="#16f133" d="M728.891,-592.597C713.896,-578.08 694.149,-558.964 679.146,-544.439"/>
<ellipse fill="none" stroke="#16f133" cx="732.18" cy="-595.781" rx="4.00002" ry="4.00002"/>
<polygon fill="#16f133" stroke="#16f133" points="678.968,-544.267 674.913,-534.078 675.375,-540.789 671.783,-537.311 671.783,-537.311 671.783,-537.311 675.375,-540.789 668.653,-540.544 678.968,-544.267 678.968,-544.267"/>
</g>
<!-- Language -->
<g id="node19" class="node"><title>Language</title>
<ellipse fill="none" stroke="black" cx="851" cy="-615" rx="45.4919" ry="18"/>
<text text-anchor="middle" x="851" y="-611.3" font-family="Times,serif" font-size="14.00">Language</text>
</g>
<!-- Language&#45;&gt;User -->
<g id="edge45" class="edge"><title>Language&#45;&gt;User</title>
<path fill="none" stroke="#9a4072" d="M823.008,-592.739C814.587,-586.878 805.147,-580.814 796,-576 761.653,-557.925 719.731,-542.807 690.964,-533.403"/>
<polygon fill="#9a4072" stroke="#9a4072" points="823.227,-592.895 828.742,-602.373 827.293,-595.804 831.36,-598.713 831.36,-598.713 831.36,-598.713 827.293,-595.804 833.978,-595.053 823.227,-592.895 823.227,-592.895"/>
<polygon fill="#9a4072" stroke="#9a4072" points="690.891,-533.38 682.748,-526.035 686.131,-531.849 681.371,-530.319 681.371,-530.319 681.371,-530.319 686.131,-531.849 679.994,-534.604 690.891,-533.38 690.891,-533.38"/>
</g>
<!-- AgeRange -->
<g id="node20" class="node"><title>AgeRange</title>
<ellipse fill="none" stroke="black" cx="280" cy="-615" rx="48.1917" ry="18"/>
<text text-anchor="middle" x="280" y="-611.3" font-family="Times,serif" font-size="14.00">AgeRange</text>
</g>
<!-- AgeRange&#45;&gt;User -->
<g id="edge46" class="edge"><title>AgeRange&#45;&gt;User</title>
<path fill="none" stroke="#3a07bd" d="M305.441,-593.688C314.869,-587.092 325.962,-580.358 337,-576 433.844,-537.76 557.726,-527.11 619.069,-524.145"/>
<ellipse fill="none" stroke="#3a07bd" cx="302.134" cy="-596.083" rx="4.00002" ry="4.00002"/>
<polygon fill="#3a07bd" stroke="#3a07bd" points="619.433,-524.129 629.621,-528.185 624.428,-523.909 629.423,-523.689 629.423,-523.689 629.423,-523.689 624.428,-523.909 629.225,-519.194 619.433,-524.129 619.433,-524.129"/>
</g>
<!-- Diagnosis&#45;&gt;User -->
<g id="edge47" class="edge"><title>Diagnosis&#45;&gt;User</title>
<path fill="none" stroke="#15c169" d="M389.523,-106.87C406.239,-115.487 424.471,-127.751 436,-144 521.307,-264.227 409.415,-357.506 507,-468 536.159,-501.016 587.203,-513.465 621.548,-518.159"/>
<ellipse fill="none" stroke="#15c169" cx="385.57" cy="-104.929" rx="4.00002" ry="4.00002"/>
<ellipse fill="#15c169" stroke="#15c169" cx="625.926" cy="-518.701" rx="4.00001" ry="4.00001"/>
</g>
<!-- CipCode -->
<g id="node23" class="node"><title>CipCode</title>
<ellipse fill="none" stroke="black" cx="388" cy="-615" rx="42.4939" ry="18"/>
<text text-anchor="middle" x="388" y="-611.3" font-family="Times,serif" font-size="14.00">CipCode</text>
</g>
<!-- CipCode&#45;&gt;User -->
<g id="edge48" class="edge"><title>CipCode&#45;&gt;User</title>
<path fill="none" stroke="#2ca73d" d="M412.321,-593.192C420.661,-586.909 430.337,-580.494 440,-576 499.737,-548.218 575.75,-533.969 620.131,-527.526"/>
<ellipse fill="none" stroke="#2ca73d" cx="408.813" cy="-595.932" rx="4.00002" ry="4.00002"/>
<polygon fill="#2ca73d" stroke="#2ca73d" points="620.267,-527.507 630.793,-530.581 625.219,-526.816 630.171,-526.124 630.171,-526.124 630.171,-526.124 625.219,-526.816 629.548,-521.667 620.267,-527.507 620.267,-527.507"/>
</g>
<!-- Week -->
<g id="node24" class="node"><title>Week</title>
<ellipse fill="none" stroke="black" cx="310" cy="-306" rx="31.6951" ry="18"/>
<text text-anchor="middle" x="310" y="-302.3" font-family="Times,serif" font-size="14.00">Week</text>
</g>
<!-- Week&#45;&gt;Behavior -->
<g id="edge49" class="edge"><title>Week&#45;&gt;Behavior</title>
<path fill="none" stroke="#33608e" d="M290.381,-283.542C282.733,-275.177 273.969,-265.591 266.261,-257.16"/>
<ellipse fill="none" stroke="#33608e" cx="293.097" cy="-286.513" rx="4.00002" ry="4.00002"/>
<ellipse fill="#33608e" stroke="#33608e" cx="263.307" cy="-253.929" rx="4.00002" ry="4.00002"/>
</g>
<!-- Week&#45;&gt;Diagnosis -->
<g id="edge50" class="edge"><title>Week&#45;&gt;Diagnosis</title>
<path fill="none" stroke="#105931" d="M312.631,-279.606C316.2,-247.701 323.374,-191.387 334,-144 335.944,-135.332 338.569,-126.015 341.131,-117.647"/>
<ellipse fill="none" stroke="#105931" cx="312.155" cy="-283.953" rx="4" ry="4"/>
<polygon fill="#105931" stroke="#105931" points="341.161,-117.553 348.465,-109.374 342.667,-112.786 344.174,-108.018 344.174,-108.018 344.174,-108.018 342.667,-112.786 339.884,-106.662 341.161,-117.553 341.161,-117.553"/>
</g>
<!-- Narrative&#45;&gt;Behavior -->
<g id="edge52" class="edge"><title>Narrative&#45;&gt;Behavior</title>
<path fill="none" stroke="#7b2c1f" d="M289.562,-354.782C282.18,-345.775 274.355,-334.928 269,-324 259.012,-303.619 253.023,-278.415 249.673,-260.037"/>
<ellipse fill="none" stroke="#7b2c1f" cx="292.233" cy="-357.937" rx="4.00002" ry="4.00002"/>
<ellipse fill="#7b2c1f" stroke="#7b2c1f" cx="248.99" cy="-256.058" rx="4.00001" ry="4.00001"/>
</g>
<!-- Narrative&#45;&gt;Week -->
<g id="edge51" class="edge"><title>Narrative&#45;&gt;Week</title>
<path fill="none" stroke="#fd1c20" d="M310,-351.64C310,-346.063 310,-340.132 310,-334.476"/>
<ellipse fill="none" stroke="#fd1c20" cx="310" cy="-355.697" rx="4" ry="4"/>
<polygon fill="#fd1c20" stroke="#fd1c20" points="310,-334.104 314.5,-324.104 310,-329.104 310,-324.104 310,-324.104 310,-324.104 310,-329.104 305.5,-324.104 310,-334.104 310,-334.104"/>
</g>
<!-- Narrative&#45;&gt;Reaction -->
<g id="edge53" class="edge"><title>Narrative&#45;&gt;Reaction</title>
<path fill="none" stroke="#1041f4" d="M330.696,-354.905C338.111,-345.913 345.891,-335.045 351,-324 371.366,-279.973 379.674,-223.518 382.959,-190.492"/>
<ellipse fill="none" stroke="#1041f4" cx="328.004" cy="-358.055" rx="4.00002" ry="4.00002"/>
<polygon fill="#1041f4" stroke="#1041f4" points="382.985,-190.201 388.372,-180.649 383.438,-185.221 383.891,-180.242 383.891,-180.242 383.891,-180.242 383.438,-185.221 379.409,-179.834 382.985,-190.201 382.985,-190.201"/>
</g>
<!-- Scenario&#45;&gt;Narrative -->
<g id="edge54" class="edge"><title>Scenario&#45;&gt;Narrative</title>
<path fill="none" stroke="#cd0c00" d="M197.201,-187.704C191.446,-205.915 186.614,-231.056 194,-252 209.684,-296.471 250.756,-333.993 279.552,-355.997"/>
<ellipse fill="none" stroke="#cd0c00" cx="198.581" cy="-183.651" rx="4.00001" ry="4.00001"/>
<polygon fill="#cd0c00" stroke="#cd0c00" points="279.664,-356.08 284.998,-365.661 283.675,-359.066 287.685,-362.052 287.685,-362.052 287.685,-362.052 283.675,-359.066 290.372,-358.442 279.664,-356.08 279.664,-356.08"/>
</g>
<!-- Reaction&#45;&gt;Course -->
<g id="edge55" class="edge"><title>Reaction&#45;&gt;Course</title>
<path fill="none" stroke="#94b4bf" d="M435.158,-165.619C514.524,-170.679 664.34,-184.24 706,-216 726.333,-231.501 736.923,-259.477 742.202,-279.937"/>
<ellipse fill="none" stroke="#94b4bf" cx="430.764" cy="-165.347" rx="4" ry="4"/>
<ellipse fill="#94b4bf" stroke="#94b4bf" cx="743.17" cy="-284.021" rx="4.00001" ry="4.00001"/>
</g>
<!-- Reaction&#45;&gt;Diagnosis -->
<g id="edge56" class="edge"><title>Reaction&#45;&gt;Diagnosis</title>
<path fill="none" stroke="#bb1592" d="M372.857,-136.714C369.651,-130.302 366.179,-123.358 362.932,-116.865"/>
<ellipse fill="none" stroke="#bb1592" cx="374.739" cy="-140.477" rx="4.00002" ry="4.00002"/>
<polygon fill="#bb1592" stroke="#bb1592" points="362.867,-116.733 362.419,-105.777 360.631,-112.261 358.395,-107.789 358.395,-107.789 358.395,-107.789 360.631,-112.261 354.37,-109.801 362.867,-116.733 362.867,-116.733"/>
</g>
<!-- Assessment&#45;&gt;Installment -->
<g id="edge57" class="edge"><title>Assessment&#45;&gt;Installment</title>
<path fill="none" stroke="#52a6a9" d="M1328.55,-139.78C1338.14,-131.496 1349.14,-121.986 1358.88,-113.576"/>
<ellipse fill="none" stroke="#52a6a9" cx="1325.41" cy="-142.5" rx="4.00002" ry="4.00002"/>
<polygon fill="#52a6a9" stroke="#52a6a9" points="1359.13,-113.36 1369.63,-110.226 1362.91,-110.091 1366.69,-106.821 1366.69,-106.821 1366.69,-106.821 1362.91,-110.091 1363.75,-103.416 1359.13,-113.36 1359.13,-113.36"/>
</g>
<!-- Assessment&#45;&gt;Group -->
<g id="edge59" class="edge"><title>Assessment&#45;&gt;Group</title>
<path fill="none" stroke="#a13f08" d="M1307.7,-190.127C1310.96,-223.609 1312.22,-281.339 1290,-324 1256.49,-388.331 1173.82,-422.961 1124.3,-438.544"/>
<polygon fill="#a13f08" stroke="#a13f08" points="1307.7,-190.098 1311.07,-179.665 1307.15,-185.128 1306.6,-180.159 1306.6,-180.159 1306.6,-180.159 1307.15,-185.128 1302.13,-180.653 1307.7,-190.098 1307.7,-190.098"/>
<polygon fill="#a13f08" stroke="#a13f08" points="1124.13,-438.594 1113.26,-437.191 1119.35,-440.045 1114.57,-441.497 1114.57,-441.497 1114.57,-441.497 1119.35,-440.045 1115.87,-445.803 1124.13,-438.594 1124.13,-438.594"/>
</g>
<!-- Assessment&#45;&gt;Factor -->
<g id="edge58" class="edge"><title>Assessment&#45;&gt;Factor</title>
<path fill="none" stroke="#6a68bd" d="M1254.36,-147.265C1219.12,-137.197 1170.82,-122.763 1129,-108 1126.75,-107.205 1124.44,-106.359 1122.12,-105.485"/>
<polygon fill="#6a68bd" stroke="#6a68bd" points="1254.78,-147.384 1263.17,-154.444 1259.59,-148.749 1264.4,-150.115 1264.4,-150.115 1264.4,-150.115 1259.59,-148.749 1265.63,-145.786 1254.78,-147.384 1254.78,-147.384"/>
<polygon fill="#6a68bd" stroke="#6a68bd" points="1121.95,-105.42 1114.25,-97.6055 1117.29,-103.61 1112.62,-101.8 1112.62,-101.8 1112.62,-101.8 1117.29,-103.61 1111,-105.995 1121.95,-105.42 1121.95,-105.42"/>
</g>
<!-- CandidateList&#45;&gt;Course -->
<g id="edge62" class="edge"><title>CandidateList&#45;&gt;Course</title>
<path fill="none" stroke="#c6ebd4" d="M677.102,-356.423C690.763,-346.764 706.935,-335.329 720.282,-325.892"/>
<ellipse fill="none" stroke="#c6ebd4" cx="673.731" cy="-358.807" rx="4.00002" ry="4.00002"/>
<ellipse fill="#c6ebd4" stroke="#c6ebd4" cx="723.709" cy="-323.468" rx="4.00002" ry="4.00002"/>
</g>
<!-- CandidateList&#45;&gt;Concept -->
<g id="edge61" class="edge"><title>CandidateList&#45;&gt;Concept</title>
<path fill="none" stroke="#cce6e1" d="M631.519,-351.472C616.807,-327.054 596.336,-288.631 588,-252 577.499,-205.858 585.644,-150.517 592.401,-118.203"/>
<polygon fill="#cce6e1" stroke="#cce6e1" points="631.595,-351.596 633.006,-362.47 634.217,-355.853 636.838,-360.111 636.838,-360.111 636.838,-360.111 634.217,-355.853 640.67,-357.752 631.595,-351.596 631.595,-351.596"/>
<polygon fill="#cce6e1" stroke="#cce6e1" points="592.459,-117.939 599.005,-109.141 593.534,-113.056 594.61,-108.173 594.61,-108.173 594.61,-108.173 593.534,-113.056 590.215,-107.205 592.459,-117.939 592.459,-117.939"/>
</g>
<!-- CandidateList&#45;&gt;Candidate -->
<g id="edge60" class="edge"><title>CandidateList&#45;&gt;Candidate</title>
<path fill="none" stroke="#b6d42e" d="M615.623,-356.937C580.995,-332.702 531,-288.455 531,-235 531,-235 531,-235 531,-161 531,-120.553 531.385,-107.909 550,-72 555.71,-60.986 564.331,-50.5644 572.759,-41.9242"/>
<ellipse fill="none" stroke="#b6d42e" cx="619.021" cy="-359.258" rx="4.00002" ry="4.00002"/>
<polygon fill="#b6d42e" stroke="#b6d42e" points="572.881,-41.8051 583.18,-38.0399 576.459,-38.3124 580.037,-34.8198 580.037,-34.8198 580.037,-34.8198 576.459,-38.3124 576.893,-31.5996 572.881,-41.8051 572.881,-41.8051"/>
</g>
<!-- Experience&#45;&gt;Reaction -->
<g id="edge63" class="edge"><title>Experience&#45;&gt;Reaction</title>
<path fill="none" stroke="#e58c78" d="M600.026,-220.45C551.731,-207.546 477.074,-187.6 429.647,-174.929"/>
<ellipse fill="none" stroke="#e58c78" cx="604.194" cy="-221.563" rx="4.00001" ry="4.00001"/>
<polygon fill="#e58c78" stroke="#e58c78" points="429.62,-174.922 421.121,-167.993 424.79,-173.631 419.959,-172.34 419.959,-172.34 419.959,-172.34 424.79,-173.631 418.798,-176.688 429.62,-174.922 429.62,-174.922"/>
</g>
<!-- BingoGame&#45;&gt;Concept -->
<g id="edge66" class="edge"><title>BingoGame&#45;&gt;Concept</title>
<path fill="none" stroke="#9d8c1d" d="M721.751,-143.394C695.533,-132.203 661.862,-117.831 636.418,-106.971"/>
<polygon fill="#9d8c1d" stroke="#9d8c1d" points="721.793,-143.411 729.223,-151.476 726.391,-145.374 730.99,-147.337 730.99,-147.337 730.99,-147.337 726.391,-145.374 732.756,-143.198 721.793,-143.411 721.793,-143.411"/>
<polygon fill="#9d8c1d" stroke="#9d8c1d" points="636.3,-106.921 628.869,-98.8561 631.701,-104.958 627.102,-102.995 627.102,-102.995 627.102,-102.995 631.701,-104.958 625.336,-107.134 636.3,-106.921 636.3,-106.921"/>
</g>
<!-- BingoGame&#45;&gt;Candidate -->
<g id="edge65" class="edge"><title>BingoGame&#45;&gt;Candidate</title>
<path fill="none" stroke="#caa55d" d="M736.944,-138.44C706.233,-111.848 655.513,-67.9318 624.879,-41.4074"/>
<polygon fill="#caa55d" stroke="#caa55d" points="736.946,-138.441 741.56,-148.389 740.726,-141.714 744.506,-144.987 744.506,-144.987 744.506,-144.987 740.726,-141.714 747.452,-141.585 736.946,-138.441 736.946,-138.441"/>
<polygon fill="#caa55d" stroke="#caa55d" points="624.736,-41.2838 620.122,-31.336 620.956,-38.0109 617.176,-34.738 617.176,-34.738 617.176,-34.738 620.956,-38.0109 614.231,-38.14 624.736,-41.2838 624.736,-41.2838"/>
</g>
<!-- BingoGame&#45;&gt;CandidateList -->
<g id="edge64" class="edge"><title>BingoGame&#45;&gt;CandidateList</title>
<path fill="none" stroke="#dec6d9" d="M750.106,-186.994C728.364,-227.454 684.583,-308.924 662.072,-350.814"/>
<ellipse fill="none" stroke="#dec6d9" cx="752.006" cy="-183.459" rx="4.00002" ry="4.00002"/>
<polygon fill="#dec6d9" stroke="#dec6d9" points="661.95,-351.041 653.253,-357.719 659.583,-355.445 657.217,-359.849 657.217,-359.849 657.217,-359.849 659.583,-355.445 661.18,-361.979 661.95,-351.041 661.95,-351.041"/>
</g>
<!-- Role -->
<g id="node36" class="node"><title>Role</title>
<ellipse fill="none" stroke="black" cx="945" cy="-615" rx="27.0966" ry="18"/>
<text text-anchor="middle" x="945" y="-611.3" font-family="Times,serif" font-size="14.00">Role</text>
</g>
<!-- Role&#45;&gt;User -->
<g id="edge67" class="edge"><title>Role&#45;&gt;User</title>
<path fill="none" stroke="#00cee1" d="M926.585,-592.454C920.314,-586.305 912.88,-580.154 905,-576 836.46,-539.867 744.958,-528.366 694.453,-524.707"/>
<ellipse fill="none" stroke="#00cee1" cx="929.666" cy="-595.648" rx="4.00002" ry="4.00002"/>
<polygon fill="#00cee1" stroke="#00cee1" points="694.299,-524.697 684.617,-519.549 689.31,-524.368 684.321,-524.039 684.321,-524.039 684.321,-524.039 689.31,-524.368 684.025,-528.529 694.299,-524.697 694.299,-524.697"/>
</g>
<!-- Role&#45;&gt;Roster -->
<g id="edge68" class="edge"><title>Role&#45;&gt;Roster</title>
<path fill="none" stroke="#b6de9a" d="M942.056,-588.641C934.139,-520.452 912.44,-333.54 904.217,-262.707"/>
<ellipse fill="none" stroke="#b6de9a" cx="942.534" cy="-592.757" rx="4.00001" ry="4.00001"/>
<polygon fill="#b6de9a" stroke="#b6de9a" points="904.17,-262.304 907.487,-251.852 903.593,-257.338 903.017,-252.371 903.017,-252.371 903.017,-252.371 903.593,-257.338 898.547,-252.89 904.17,-262.304 904.17,-262.304"/>
</g>
<!-- Quote -->
<g id="node37" class="node"><title>Quote</title>
<ellipse fill="none" stroke="black" cx="1023" cy="-615" rx="32.4942" ry="18"/>
<text text-anchor="middle" x="1023" y="-611.3" font-family="Times,serif" font-size="14.00">Quote</text>
</g>
</g>
</svg>
