<?xml version="1.0" encoding="UTF-8" standalone="no"?>
<!DOCTYPE svg PUBLIC "-//W3C//DTD SVG 1.1//EN"
 "http://www.w3.org/Graphics/SVG/1.1/DTD/svg11.dtd">
<!-- Generated by graphviz version 2.36.0 (20140111.2315)
 -->
<!-- Title: models_diagram Pages: 1 -->
<svg width="1091pt" height="734pt"
 viewBox="0.00 0.00 1091.08 734.00" xmlns="http://www.w3.org/2000/svg" xmlns:xlink="http://www.w3.org/1999/xlink">
<g id="graph0" class="graph" transform="scale(1 1) rotate(0) translate(4 730)">
<title>models_diagram</title>
<polygon fill="none" stroke="none" points="-4,4 -4,-730 1087.08,-730 1087.08,4 -4,4"/>
<!-- _diagram_info -->
<g id="node1" class="node"><title>_diagram_info</title>
<text text-anchor="start" x="662.5" y="-711.6" font-family="Times,serif" font-size="13.00">Models diagram</text>
<text text-anchor="start" x="662.5" y="-697.6" font-family="Times,serif" font-size="13.00">Date: Jan 27 2017 &#45; 12:27</text>
<text text-anchor="start" x="662.5" y="-683.6" font-family="Times,serif" font-size="13.00">Migration version: 20170127030610</text>
<text text-anchor="start" x="662.5" y="-669.6" font-family="Times,serif" font-size="13.00">Generated by RailRoady 1.5.2</text>
<text text-anchor="start" x="662.5" y="-655.6" font-family="Times,serif" font-size="13.00">http://railroady.prestonlee.com</text>
</g>
<!-- AgeRange -->
<g id="node2" class="node"><title>AgeRange</title>
<ellipse fill="none" stroke="black" cx="79" cy="-594" rx="57.2688" ry="18"/>
<text text-anchor="middle" x="79" y="-590.3" font-family="Times,serif" font-size="14.00">AgeRange</text>
</g>
<!-- User -->
<g id="node25" class="node"><title>User</title>
<ellipse fill="none" stroke="black" cx="484" cy="-522" rx="32.2457" ry="18"/>
<text text-anchor="middle" x="484" y="-518.3" font-family="Times,serif" font-size="14.00">User</text>
</g>
<!-- AgeRange&#45;&gt;User -->
<g id="edge1" class="edge"><title>AgeRange&#45;&gt;User</title>
<path fill="none" stroke="#ddcda2" d="M128.846,-579.809C134.612,-578.445 140.423,-577.142 146,-576 252.108,-554.268 378.546,-536.605 442.516,-528.24"/>
<ellipse fill="none" stroke="#ddcda2" cx="124.924" cy="-580.758" rx="4.00001" ry="4.00001"/>
<polygon fill="#ddcda2" stroke="#ddcda2" points="442.687,-528.218 453.184,-531.393 447.646,-527.574 452.604,-526.931 452.604,-526.931 452.604,-526.931 447.646,-527.574 452.025,-522.468 442.687,-528.218 442.687,-528.218"/>
</g>
<!-- Assessment -->
<g id="node3" class="node"><title>Assessment</title>
<ellipse fill="none" stroke="black" cx="310" cy="-450" rx="65.9423" ry="18"/>
<text text-anchor="middle" x="310" y="-446.3" font-family="Times,serif" font-size="14.00">Assessment</text>
</g>
<!-- Factor -->
<g id="node11" class="node"><title>Factor</title>
<ellipse fill="none" stroke="black" cx="310" cy="-378" rx="40.4202" ry="18"/>
<text text-anchor="middle" x="310" y="-374.3" font-family="Times,serif" font-size="14.00">Factor</text>
</g>
<!-- Assessment&#45;&gt;Factor -->
<g id="edge3" class="edge"><title>Assessment&#45;&gt;Factor</title>
<path fill="none" stroke="#dad2ce" d="M310,-421.665C310,-416.687 310,-411.491 310,-406.507"/>
<polygon fill="#dad2ce" stroke="#dad2ce" points="310,-421.697 305.5,-431.697 310,-426.697 310,-431.697 310,-431.697 310,-431.697 310,-426.697 314.5,-431.697 310,-421.697 310,-421.697"/>
<polygon fill="#dad2ce" stroke="#dad2ce" points="310,-406.104 314.5,-396.104 310,-401.104 310,-396.104 310,-396.104 310,-396.104 310,-401.104 305.5,-396.104 310,-406.104 310,-406.104"/>
</g>
<!-- Installment -->
<g id="node16" class="node"><title>Installment</title>
<ellipse fill="none" stroke="black" cx="102" cy="-90" rx="64.0172" ry="18"/>
<text text-anchor="middle" x="102" y="-86.3" font-family="Times,serif" font-size="14.00">Installment</text>
</g>
<!-- Assessment&#45;&gt;Installment -->
<g id="edge2" class="edge"><title>Assessment&#45;&gt;Installment</title>
<path fill="none" stroke="#a63c70" d="M252.174,-435.954C190.624,-418.246 102,-380.064 102,-307 102,-307 102,-307 102,-233 102,-192.996 102,-146.653 102,-118.08"/>
<ellipse fill="none" stroke="#a63c70" cx="256.061" cy="-437.039" rx="4.00001" ry="4.00001"/>
<polygon fill="#a63c70" stroke="#a63c70" points="102,-118.049 106.5,-108.049 102,-113.049 102,-108.049 102,-108.049 102,-108.049 102,-113.049 97.5,-108.049 102,-118.049 102,-118.049"/>
</g>
<!-- Behavior -->
<g id="node4" class="node"><title>Behavior</title>
<ellipse fill="none" stroke="black" cx="981" cy="-687" rx="51.4931" ry="18"/>
<text text-anchor="middle" x="981" y="-683.3" font-family="Times,serif" font-size="14.00">Behavior</text>
</g>
<!-- Diagnosis -->
<g id="node9" class="node"><title>Diagnosis</title>
<ellipse fill="none" stroke="black" cx="981" cy="-378" rx="55.3436" ry="18"/>
<text text-anchor="middle" x="981" y="-374.3" font-family="Times,serif" font-size="14.00">Diagnosis</text>
</g>
<!-- Behavior&#45;&gt;Diagnosis -->
<g id="edge6" class="edge"><title>Behavior&#45;&gt;Diagnosis</title>
<path fill="none" stroke="#840151" d="M1010.77,-665.751C1027.76,-652.516 1047.85,-633.69 1059,-612 1088.54,-554.535 1074.54,-532.461 1079,-468 1080.1,-452.038 1087.19,-445.744 1079,-432 1068.5,-414.385 1049.89,-402.27 1031.69,-394.121"/>
<ellipse fill="none" stroke="#840151" cx="1007.38" cy="-668.309" rx="4.00002" ry="4.00002"/>
<polygon fill="#840151" stroke="#840151" points="1031.49,-394.039 1023.97,-386.055 1026.87,-392.126 1022.25,-390.212 1022.25,-390.212 1022.25,-390.212 1026.87,-392.126 1020.53,-394.37 1031.49,-394.039 1031.49,-394.039"/>
</g>
<!-- Reaction -->
<g id="node19" class="node"><title>Reaction</title>
<ellipse fill="none" stroke="black" cx="928" cy="-450" rx="51.4931" ry="18"/>
<text text-anchor="middle" x="928" y="-446.3" font-family="Times,serif" font-size="14.00">Reaction</text>
</g>
<!-- Behavior&#45;&gt;Reaction -->
<g id="edge5" class="edge"><title>Behavior&#45;&gt;Reaction</title>
<path fill="none" stroke="#1e15be" d="M956.025,-664.479C941.693,-650.823 924.511,-632.001 914,-612 891.397,-568.986 884.291,-550.9 897,-504 899.621,-494.329 904.496,-484.614 909.618,-476.191"/>
<ellipse fill="none" stroke="#1e15be" cx="959.037" cy="-667.28" rx="4.00002" ry="4.00002"/>
<polygon fill="#1e15be" stroke="#1e15be" points="909.734,-476.012 918.952,-470.072 912.455,-471.818 915.176,-467.623 915.176,-467.623 915.176,-467.623 912.455,-471.818 911.401,-465.174 909.734,-476.012 909.734,-476.012"/>
</g>
<!-- Scenario -->
<g id="node22" class="node"><title>Scenario</title>
<ellipse fill="none" stroke="black" cx="981" cy="-594" rx="51.0191" ry="18"/>
<text text-anchor="middle" x="981" y="-590.3" font-family="Times,serif" font-size="14.00">Scenario</text>
</g>
<!-- Behavior&#45;&gt;Scenario -->
<g id="edge4" class="edge"><title>Behavior&#45;&gt;Scenario</title>
<path fill="none" stroke="#2bfa0b" d="M981,-660.729C981,-648.725 981,-634.362 981,-622.129"/>
<ellipse fill="none" stroke="#2bfa0b" cx="981" cy="-664.884" rx="4" ry="4"/>
<polygon fill="#2bfa0b" stroke="#2bfa0b" points="981,-622.04 985.5,-612.04 981,-617.04 981,-612.04 981,-612.04 981,-612.04 981,-617.04 976.5,-612.04 981,-622.04 981,-622.04"/>
</g>
<!-- CipCode -->
<g id="node5" class="node"><title>CipCode</title>
<ellipse fill="none" stroke="black" cx="206" cy="-594" rx="50.5427" ry="18"/>
<text text-anchor="middle" x="206" y="-590.3" font-family="Times,serif" font-size="14.00">CipCode</text>
</g>
<!-- CipCode&#45;&gt;User -->
<g id="edge7" class="edge"><title>CipCode&#45;&gt;User</title>
<path fill="none" stroke="#f8df1f" d="M251.956,-579.789C256.693,-578.484 261.439,-577.2 266,-576 328.246,-559.621 400.969,-542.303 444.706,-532.084"/>
<ellipse fill="none" stroke="#f8df1f" cx="247.883" cy="-580.921" rx="4.00001" ry="4.00001"/>
<polygon fill="#f8df1f" stroke="#f8df1f" points="444.906,-532.037 455.667,-534.149 449.776,-530.902 454.645,-529.767 454.645,-529.767 454.645,-529.767 449.776,-530.902 453.624,-525.384 444.906,-532.037 444.906,-532.037"/>
</g>
<!-- ConsentForm -->
<g id="node6" class="node"><title>ConsentForm</title>
<ellipse fill="none" stroke="black" cx="73" cy="-522" rx="73.1654" ry="18"/>
<text text-anchor="middle" x="73" y="-518.3" font-family="Times,serif" font-size="14.00">ConsentForm</text>
</g>
<!-- ConsentLog -->
<g id="node7" class="node"><title>ConsentLog</title>
<ellipse fill="none" stroke="black" cx="121" cy="-450" rx="66.4165" ry="18"/>
<text text-anchor="middle" x="121" y="-446.3" font-family="Times,serif" font-size="14.00">ConsentLog</text>
</g>
<!-- ConsentForm&#45;&gt;ConsentLog -->
<g id="edge9" class="edge"><title>ConsentForm&#45;&gt;ConsentLog</title>
<path fill="none" stroke="#328069" d="M89.2651,-497.28C93.9346,-490.47 99.0415,-483.023 103.767,-476.131"/>
<ellipse fill="none" stroke="#328069" cx="86.8816" cy="-500.756" rx="4.00002" ry="4.00002"/>
<polygon fill="#328069" stroke="#328069" points="103.832,-476.036 113.199,-470.334 106.66,-471.913 109.488,-467.789 109.488,-467.789 109.488,-467.789 106.66,-471.913 105.776,-465.244 103.832,-476.036 103.832,-476.036"/>
</g>
<!-- Project -->
<g id="node18" class="node"><title>Project</title>
<ellipse fill="none" stroke="black" cx="278" cy="-234" rx="44.2946" ry="18"/>
<text text-anchor="middle" x="278" y="-230.3" font-family="Times,serif" font-size="14.00">Project</text>
</g>
<!-- ConsentForm&#45;&gt;Project -->
<g id="edge8" class="edge"><title>ConsentForm&#45;&gt;Project</title>
<path fill="none" stroke="#d1af7e" d="M56.1479,-497.247C45.3786,-478.951 35.1287,-453.273 45,-432 85.6802,-344.333 186.719,-281.565 241.423,-252.732"/>
<ellipse fill="none" stroke="#d1af7e" cx="58.3061" cy="-500.718" rx="4.00002" ry="4.00002"/>
<polygon fill="#d1af7e" stroke="#d1af7e" points="241.55,-252.667 252.499,-252.067 245.99,-250.369 250.431,-248.071 250.431,-248.071 250.431,-248.071 245.99,-250.369 248.363,-244.074 241.55,-252.667 241.55,-252.667"/>
</g>
<!-- Course -->
<g id="node8" class="node"><title>Course</title>
<ellipse fill="none" stroke="black" cx="716" cy="-522" rx="44.2946" ry="18"/>
<text text-anchor="middle" x="716" y="-518.3" font-family="Times,serif" font-size="14.00">Course</text>
</g>
<!-- Experience -->
<g id="node10" class="node"><title>Experience</title>
<ellipse fill="none" stroke="black" cx="794" cy="-450" rx="63.5411" ry="18"/>
<text text-anchor="middle" x="794" y="-446.3" font-family="Times,serif" font-size="14.00">Experience</text>
</g>
<!-- Course&#45;&gt;Experience -->
<g id="edge12" class="edge"><title>Course&#45;&gt;Experience</title>
<path fill="none" stroke="#0104ca" d="M739.879,-499.57C748.829,-491.538 759.035,-482.379 768.154,-474.195"/>
<ellipse fill="none" stroke="#0104ca" cx="736.676" cy="-502.444" rx="4.00002" ry="4.00002"/>
<polygon fill="#0104ca" stroke="#0104ca" points="768.387,-473.986 778.835,-470.656 772.108,-470.647 775.829,-467.307 775.829,-467.307 775.829,-467.307 772.108,-470.647 772.824,-463.958 768.387,-473.986 768.387,-473.986"/>
</g>
<!-- Course&#45;&gt;Project -->
<g id="edge10" class="edge"><title>Course&#45;&gt;Project</title>
<path fill="none" stroke="#6b9e78" d="M710.456,-495.967C705.36,-477.032 696.376,-451.115 682,-432 618.098,-347.037 586.961,-333.757 491,-288 438.985,-263.198 374.099,-249.204 329.697,-241.903"/>
<ellipse fill="none" stroke="#6b9e78" cx="711.481" cy="-499.994" rx="4.00001" ry="4.00001"/>
<polygon fill="#6b9e78" stroke="#6b9e78" points="329.585,-241.886 320.415,-235.873 324.647,-241.101 319.709,-240.317 319.709,-240.317 319.709,-240.317 324.647,-241.101 319.003,-244.761 329.585,-241.886 329.585,-241.886"/>
</g>
<!-- Roster -->
<g id="node21" class="node"><title>Roster</title>
<ellipse fill="none" stroke="black" cx="632" cy="-450" rx="41.394" ry="18"/>
<text text-anchor="middle" x="632" y="-446.3" font-family="Times,serif" font-size="14.00">Roster</text>
</g>
<!-- Course&#45;&gt;Roster -->
<g id="edge11" class="edge"><title>Course&#45;&gt;Roster</title>
<path fill="none" stroke="#f5f5a3" d="M691.171,-500.309C680.731,-491.609 668.581,-481.484 658.016,-472.68"/>
<ellipse fill="none" stroke="#f5f5a3" cx="694.285" cy="-502.904" rx="4.00002" ry="4.00002"/>
<polygon fill="#f5f5a3" stroke="#f5f5a3" points="657.983,-472.653 653.182,-462.794 654.142,-469.452 650.301,-466.251 650.301,-466.251 650.301,-466.251 654.142,-469.452 647.42,-469.708 657.983,-472.653 657.983,-472.653"/>
</g>
<!-- Diagnosis&#45;&gt;User -->
<g id="edge13" class="edge"><title>Diagnosis&#45;&gt;User</title>
<path fill="none" stroke="#c7b5f5" d="M918.711,-382.68C821.704,-389.171 639.585,-404.628 581,-432 572.038,-436.187 530.837,-475.413 505.099,-500.372"/>
<ellipse fill="none" stroke="#c7b5f5" cx="922.979" cy="-382.398" rx="4" ry="4"/>
<ellipse fill="#c7b5f5" stroke="#c7b5f5" cx="502.1" cy="-503.286" rx="4.00002" ry="4.00002"/>
</g>
<!-- FactorPack -->
<g id="node12" class="node"><title>FactorPack</title>
<ellipse fill="none" stroke="black" cx="394" cy="-306" rx="63.5411" ry="18"/>
<text text-anchor="middle" x="394" y="-302.3" font-family="Times,serif" font-size="14.00">FactorPack</text>
</g>
<!-- Factor&#45;&gt;FactorPack -->
<g id="edge14" class="edge"><title>Factor&#45;&gt;FactorPack</title>
<path fill="none" stroke="#294b70" d="M335.987,-355.344C345.652,-347.29 356.648,-338.127 366.448,-329.96"/>
<polygon fill="#294b70" stroke="#294b70" points="335.909,-355.409 325.346,-358.354 332.068,-358.61 328.227,-361.811 328.227,-361.811 328.227,-361.811 332.068,-358.61 331.108,-365.268 335.909,-355.409 335.909,-355.409"/>
<polygon fill="#294b70" stroke="#294b70" points="366.662,-329.782 377.225,-326.837 370.503,-326.581 374.344,-323.38 374.344,-323.38 374.344,-323.38 370.503,-326.581 371.463,-319.923 366.662,-329.782 366.662,-329.782"/>
</g>
<!-- FactorPack&#45;&gt;Project -->
<g id="edge15" class="edge"><title>FactorPack&#45;&gt;Project</title>
<path fill="none" stroke="#bafaa1" d="M361.233,-285.227C345.389,-275.666 326.425,-264.222 310.603,-254.674"/>
<ellipse fill="none" stroke="#bafaa1" cx="364.831" cy="-287.398" rx="4.00002" ry="4.00002"/>
<polygon fill="#bafaa1" stroke="#bafaa1" points="310.259,-254.467 304.022,-245.447 305.978,-251.883 301.697,-249.3 301.697,-249.3 301.697,-249.3 305.978,-251.883 299.372,-253.153 310.259,-254.467 310.259,-254.467"/>
</g>
<!-- Gender -->
<g id="node13" class="node"><title>Gender</title>
<ellipse fill="none" stroke="black" cx="320" cy="-594" rx="44.271" ry="18"/>
<text text-anchor="middle" x="320" y="-590.3" font-family="Times,serif" font-size="14.00">Gender</text>
</g>
<!-- Gender&#45;&gt;User -->
<g id="edge16" class="edge"><title>Gender&#45;&gt;User</title>
<path fill="none" stroke="#5cc2fa" d="M357.335,-577.064C385.079,-565.222 422.641,-549.19 449.646,-537.663"/>
<ellipse fill="none" stroke="#5cc2fa" cx="353.378" cy="-578.753" rx="4.00002" ry="4.00002"/>
<polygon fill="#5cc2fa" stroke="#5cc2fa" points="449.883,-537.562 460.847,-537.775 454.481,-535.599 459.08,-533.637 459.08,-533.637 459.08,-533.637 454.481,-535.599 457.314,-529.498 449.883,-537.562 449.883,-537.562"/>
</g>
<!-- Group -->
<g id="node14" class="node"><title>Group</title>
<ellipse fill="none" stroke="black" cx="278" cy="-162" rx="39.4691" ry="18"/>
<text text-anchor="middle" x="278" y="-158.3" font-family="Times,serif" font-size="14.00">Group</text>
</g>
<!-- Group&#45;&gt;Installment -->
<g id="edge18" class="edge"><title>Group&#45;&gt;Installment</title>
<path fill="none" stroke="#bc2a19" d="M241.851,-146.622C214.371,-135.693 176.407,-120.594 146.967,-108.884"/>
<ellipse fill="none" stroke="#bc2a19" cx="245.614" cy="-148.119" rx="4.00001" ry="4.00001"/>
<polygon fill="#bc2a19" stroke="#bc2a19" points="146.629,-108.75 139,-100.873 141.983,-106.902 137.337,-105.054 137.337,-105.054 137.337,-105.054 141.983,-106.902 135.674,-109.236 146.629,-108.75 146.629,-108.75"/>
</g>
<!-- Group&#45;&gt;User -->
<g id="edge17" class="edge"><title>Group&#45;&gt;User</title>
<path fill="none" stroke="#adf0b6" d="M318.839,-176.536C366.909,-194.525 445.885,-230.858 491,-288 540.849,-351.138 529.813,-390.034 510,-468 507.616,-477.382 503.451,-487.056 499.145,-495.529"/>
<polygon fill="#adf0b6" stroke="#adf0b6" points="318.76,-176.507 310.908,-168.852 314.063,-174.793 309.366,-173.079 309.366,-173.079 309.366,-173.079 314.063,-174.793 307.823,-177.306 318.76,-176.507 318.76,-176.507"/>
<polygon fill="#adf0b6" stroke="#adf0b6" points="499.053,-495.701 490.349,-502.372 496.681,-500.104 494.31,-504.506 494.31,-504.506 494.31,-504.506 496.681,-500.104 498.272,-506.64 499.053,-495.701 499.053,-495.701"/>
</g>
<!-- GroupProjectCount -->
<g id="node15" class="node"><title>GroupProjectCount</title>
<ellipse fill="none" stroke="black" cx="484" cy="-594" rx="101.087" ry="18"/>
<text text-anchor="middle" x="484" y="-590.3" font-family="Times,serif" font-size="14.00">GroupProjectCount</text>
</g>
<!-- GroupProjectCount&#45;&gt;User -->
<g id="edge19" class="edge"><title>GroupProjectCount&#45;&gt;User</title>
<path fill="none" stroke="#6d6bec" d="M484,-567.64C484,-562.063 484,-556.132 484,-550.476"/>
<ellipse fill="none" stroke="#6d6bec" cx="484" cy="-571.697" rx="4" ry="4"/>
<polygon fill="#6d6bec" stroke="#6d6bec" points="484,-550.104 488.5,-540.104 484,-545.104 484,-540.104 484,-540.104 484,-540.104 484,-545.104 479.5,-540.104 484,-550.104 484,-550.104"/>
</g>
<!-- Value -->
<g id="node26" class="node"><title>Value</title>
<ellipse fill="none" stroke="black" cx="102" cy="-18" rx="36.096" ry="18"/>
<text text-anchor="middle" x="102" y="-14.3" font-family="Times,serif" font-size="14.00">Value</text>
</g>
<!-- Installment&#45;&gt;Value -->
<g id="edge20" class="edge"><title>Installment&#45;&gt;Value</title>
<path fill="none" stroke="#e345d3" d="M102,-63.6398C102,-58.0629 102,-52.1319 102,-46.4761"/>
<ellipse fill="none" stroke="#e345d3" cx="102" cy="-67.6966" rx="4" ry="4"/>
<polygon fill="#e345d3" stroke="#e345d3" points="102,-46.1043 106.5,-36.1043 102,-41.1043 102,-36.1043 102,-36.1043 102,-36.1043 102,-41.1043 97.5,-36.1044 102,-46.1043 102,-46.1043"/>
</g>
<!-- Narrative -->
<g id="node17" class="node"><title>Narrative</title>
<ellipse fill="none" stroke="black" cx="962" cy="-522" rx="55.3436" ry="18"/>
<text text-anchor="middle" x="962" y="-518.3" font-family="Times,serif" font-size="14.00">Narrative</text>
</g>
<!-- Narrative&#45;&gt;Behavior -->
<g id="edge22" class="edge"><title>Narrative&#45;&gt;Behavior</title>
<path fill="none" stroke="#fdd1e4" d="M939.372,-545.431C932.037,-554.204 924.813,-564.838 921,-576 915.827,-591.141 915.654,-596.919 921,-612 928.092,-632.008 943.154,-650.554 956.411,-664.074"/>
<ellipse fill="none" stroke="#fdd1e4" cx="942.044" cy="-542.394" rx="4.00002" ry="4.00002"/>
<ellipse fill="#fdd1e4" stroke="#fdd1e4" cx="959.492" cy="-667.112" rx="4.00002" ry="4.00002"/>
</g>
<!-- Narrative&#45;&gt;Reaction -->
<g id="edge23" class="edge"><title>Narrative&#45;&gt;Reaction</title>
<path fill="none" stroke="#aaaefb" d="M950.204,-496.714C947.089,-490.302 943.717,-483.358 940.563,-476.865"/>
<ellipse fill="none" stroke="#aaaefb" cx="952.022" cy="-500.457" rx="4.00002" ry="4.00002"/>
<polygon fill="#aaaefb" stroke="#aaaefb" points="940.524,-476.784 940.202,-465.823 938.339,-472.287 936.155,-467.789 936.155,-467.789 936.155,-467.789 938.339,-472.287 932.107,-469.755 940.524,-476.784 940.524,-476.784"/>
</g>
<!-- Week -->
<g id="node27" class="node"><title>Week</title>
<ellipse fill="none" stroke="black" cx="1034" cy="-450" rx="36.096" ry="18"/>
<text text-anchor="middle" x="1034" y="-446.3" font-family="Times,serif" font-size="14.00">Week</text>
</g>
<!-- Narrative&#45;&gt;Week -->
<g id="edge21" class="edge"><title>Narrative&#45;&gt;Week</title>
<path fill="none" stroke="#623989" d="M984.487,-499.138C992.775,-491.08 1002.18,-481.935 1010.55,-473.797"/>
<ellipse fill="none" stroke="#623989" cx="981.567" cy="-501.976" rx="4.00002" ry="4.00002"/>
<polygon fill="#623989" stroke="#623989" points="1010.72,-473.637 1021.02,-469.892 1014.3,-470.151 1017.89,-466.666 1017.89,-466.666 1017.89,-466.666 1014.3,-470.151 1014.75,-463.439 1010.72,-473.637 1010.72,-473.637"/>
</g>
<!-- Project&#45;&gt;Assessment -->
<g id="edge25" class="edge"><title>Project&#45;&gt;Assessment</title>
<path fill="none" stroke="#d9f1a8" d="M251.153,-255.379C241.64,-264.239 232.051,-275.467 227,-288 221.019,-302.84 223.588,-308.368 227,-324 234.506,-358.391 240.327,-366.809 260,-396 266.999,-406.385 276.062,-416.664 284.546,-425.366"/>
<ellipse fill="none" stroke="#d9f1a8" cx="254.347" cy="-252.557" rx="4.00002" ry="4.00002"/>
<polygon fill="#d9f1a8" stroke="#d9f1a8" points="284.698,-425.517 288.613,-435.76 288.242,-429.044 291.787,-432.57 291.787,-432.57 291.787,-432.57 288.242,-429.044 294.961,-429.38 284.698,-425.517 284.698,-425.517"/>
</g>
<!-- Project&#45;&gt;Factor -->
<g id="edge27" class="edge"><title>Project&#45;&gt;Factor</title>
<path fill="none" stroke="#5f07af" d="M253.515,-258.139C246.092,-266.724 238.881,-277.056 235,-288 229.652,-303.08 227.643,-309.792 235,-324 243.075,-339.594 258.084,-351.58 272.567,-360.177"/>
<polygon fill="#5f07af" stroke="#5f07af" points="253.523,-258.131 263.61,-253.83 256.912,-254.455 260.302,-250.779 260.302,-250.779 260.302,-250.779 256.912,-254.455 256.994,-247.729 253.523,-258.131 253.523,-258.131"/>
<polygon fill="#5f07af" stroke="#5f07af" points="272.7,-360.25 279.27,-369.03 277.075,-362.672 281.449,-365.093 281.449,-365.093 281.449,-365.093 277.075,-362.672 283.628,-361.156 272.7,-360.25 272.7,-360.25"/>
</g>
<!-- Project&#45;&gt;Group -->
<g id="edge24" class="edge"><title>Project&#45;&gt;Group</title>
<path fill="none" stroke="#b5f3ea" d="M278,-207.64C278,-202.063 278,-196.132 278,-190.476"/>
<ellipse fill="none" stroke="#b5f3ea" cx="278" cy="-211.697" rx="4" ry="4"/>
<polygon fill="#b5f3ea" stroke="#b5f3ea" points="278,-190.104 282.5,-180.104 278,-185.104 278,-180.104 278,-180.104 278,-180.104 278,-185.104 273.5,-180.104 278,-190.104 278,-190.104"/>
</g>
<!-- Project&#45;&gt;User -->
<g id="edge26" class="edge"><title>Project&#45;&gt;User</title>
<path fill="none" stroke="#ee6e48" d="M328.953,-242.695C378.467,-251.294 448.655,-266.836 466,-288 514.775,-347.514 501.16,-446.729 490.827,-494.156"/>
<polygon fill="#ee6e48" stroke="#ee6e48" points="328.898,-242.686 319.789,-236.58 323.968,-241.852 319.038,-241.017 319.038,-241.017 319.038,-241.017 323.968,-241.852 318.287,-245.454 328.898,-242.686 328.898,-242.686"/>
<polygon fill="#ee6e48" stroke="#ee6e48" points="490.807,-494.243 484.182,-502.981 489.688,-499.116 488.568,-503.989 488.568,-503.989 488.568,-503.989 489.688,-499.116 492.953,-504.997 490.807,-494.243 490.807,-494.243"/>
</g>
<!-- Reaction&#45;&gt;Diagnosis -->
<g id="edge28" class="edge"><title>Reaction&#45;&gt;Diagnosis</title>
<path fill="none" stroke="#89f1f2" d="M945.481,-425.912C950.801,-418.885 956.672,-411.131 962.082,-403.985"/>
<ellipse fill="none" stroke="#89f1f2" cx="942.975" cy="-429.222" rx="4.00002" ry="4.00002"/>
<polygon fill="#89f1f2" stroke="#89f1f2" points="962.125,-403.929 971.749,-398.673 965.144,-399.943 968.162,-395.956 968.162,-395.956 968.162,-395.956 965.144,-399.943 964.574,-393.24 962.125,-403.929 962.125,-403.929"/>
</g>
<!-- Role -->
<g id="node20" class="node"><title>Role</title>
<ellipse fill="none" stroke="black" cx="635" cy="-594" rx="31.2965" ry="18"/>
<text text-anchor="middle" x="635" y="-590.3" font-family="Times,serif" font-size="14.00">Role</text>
</g>
<!-- Role&#45;&gt;Roster -->
<g id="edge30" class="edge"><title>Role&#45;&gt;Roster</title>
<path fill="none" stroke="#0291d7" d="M634.463,-567.558C633.932,-542.444 633.123,-504.164 632.579,-478.393"/>
<ellipse fill="none" stroke="#0291d7" cx="634.554" cy="-571.872" rx="4" ry="4"/>
<polygon fill="#0291d7" stroke="#0291d7" points="632.574,-478.187 636.862,-468.094 632.469,-473.188 632.363,-468.189 632.363,-468.189 632.363,-468.189 632.469,-473.188 627.864,-468.284 632.574,-478.187 632.574,-478.187"/>
</g>
<!-- Role&#45;&gt;User -->
<g id="edge29" class="edge"><title>Role&#45;&gt;User</title>
<path fill="none" stroke="#4382cf" d="M604.108,-578.679C578.856,-566.973 543.223,-550.454 517.331,-538.451"/>
<ellipse fill="none" stroke="#4382cf" cx="607.777" cy="-580.38" rx="4.00002" ry="4.00002"/>
<polygon fill="#4382cf" stroke="#4382cf" points="516.999,-538.298 509.819,-530.009 512.463,-536.195 507.926,-534.092 507.926,-534.092 507.926,-534.092 512.463,-536.195 506.034,-538.174 516.999,-538.298 516.999,-538.298"/>
</g>
<!-- Scenario&#45;&gt;Narrative -->
<g id="edge31" class="edge"><title>Scenario&#45;&gt;Narrative</title>
<path fill="none" stroke="#d73d23" d="M974.287,-568.267C972.678,-562.34 970.952,-555.981 969.317,-549.959"/>
<ellipse fill="none" stroke="#d73d23" cx="975.353" cy="-572.195" rx="4.00001" ry="4.00001"/>
<polygon fill="#d73d23" stroke="#d73d23" points="969.309,-549.926 971.032,-539.096 967.999,-545.101 966.689,-540.275 966.689,-540.275 966.689,-540.275 967.999,-545.101 962.346,-541.454 969.309,-549.926 969.309,-549.926"/>
</g>
<!-- School -->
<g id="node23" class="node"><title>School</title>
<ellipse fill="none" stroke="black" cx="726" cy="-594" rx="41.394" ry="18"/>
<text text-anchor="middle" x="726" y="-590.3" font-family="Times,serif" font-size="14.00">School</text>
</g>
<!-- School&#45;&gt;Course -->
<g id="edge32" class="edge"><title>School&#45;&gt;Course</title>
<path fill="none" stroke="#413bde" d="M722.377,-567.64C721.56,-561.92 720.69,-555.828 719.863,-550.042"/>
<ellipse fill="none" stroke="#413bde" cx="722.962" cy="-571.737" rx="4.00001" ry="4.00001"/>
<polygon fill="#413bde" stroke="#413bde" points="719.858,-550.004 722.898,-539.468 719.151,-545.054 718.443,-540.104 718.443,-540.104 718.443,-540.104 719.151,-545.054 713.989,-540.741 719.858,-550.004 719.858,-550.004"/>
</g>
<!-- Style -->
<g id="node24" class="node"><title>Style</title>
<ellipse fill="none" stroke="black" cx="278" cy="-306" rx="34.1708" ry="18"/>
<text text-anchor="middle" x="278" y="-302.3" font-family="Times,serif" font-size="14.00">Style</text>
</g>
<!-- Style&#45;&gt;Project -->
<g id="edge33" class="edge"><title>Style&#45;&gt;Project</title>
<path fill="none" stroke="#28fb21" d="M278,-279.64C278,-274.063 278,-268.132 278,-262.476"/>
<ellipse fill="none" stroke="#28fb21" cx="278" cy="-283.697" rx="4" ry="4"/>
<polygon fill="#28fb21" stroke="#28fb21" points="278,-262.104 282.5,-252.104 278,-257.104 278,-252.104 278,-252.104 278,-252.104 278,-257.104 273.5,-252.104 278,-262.104 278,-262.104"/>
</g>
<!-- User&#45;&gt;Assessment -->
<g id="edge38" class="edge"><title>User&#45;&gt;Assessment</title>
<path fill="none" stroke="#fcd8c0" d="M449.046,-506.938C422.044,-496.075 384.466,-480.957 355.181,-469.176"/>
<polygon fill="#fcd8c0" stroke="#fcd8c0" points="449.422,-507.089 457.019,-514.996 454.06,-508.955 458.699,-510.821 458.699,-510.821 458.699,-510.821 454.06,-508.955 460.378,-506.647 449.422,-507.089 449.422,-507.089"/>
<polygon fill="#fcd8c0" stroke="#fcd8c0" points="354.873,-469.052 347.275,-461.145 350.234,-467.186 345.595,-465.32 345.595,-465.32 345.595,-465.32 350.234,-467.186 343.916,-469.495 354.873,-469.052 354.873,-469.052"/>
</g>
<!-- User&#45;&gt;ConsentLog -->
<g id="edge34" class="edge"><title>User&#45;&gt;ConsentLog</title>
<path fill="none" stroke="#a270a8" d="M445.516,-514.033C391.181,-504.136 288.904,-485.284 202,-468 195.372,-466.682 188.445,-465.274 181.554,-463.854"/>
<ellipse fill="none" stroke="#a270a8" cx="449.561" cy="-514.769" rx="4.00001" ry="4.00001"/>
<polygon fill="#a270a8" stroke="#a270a8" points="181.312,-463.804 172.434,-457.368 176.416,-462.79 171.52,-461.775 171.52,-461.775 171.52,-461.775 176.416,-462.79 170.607,-466.181 181.312,-463.804 181.312,-463.804"/>
</g>
<!-- User&#45;&gt;Installment -->
<g id="edge35" class="edge"><title>User&#45;&gt;Installment</title>
<path fill="none" stroke="#c7464c" d="M443.754,-518.973C392.618,-514.975 302.858,-503.118 235,-468 214.05,-457.158 215.55,-445.2 196,-432 165.024,-411.085 147.956,-420.807 120,-396 85.0434,-364.982 64,-353.734 64,-307 64,-307 64,-307 64,-233 64,-191.633 79.2348,-145.722 90.4117,-117.605"/>
<ellipse fill="none" stroke="#c7464c" cx="447.935" cy="-519.279" rx="4" ry="4"/>
<polygon fill="#c7464c" stroke="#c7464c" points="90.5178,-117.346 98.474,-109.799 92.414,-112.719 94.3101,-108.093 94.3101,-108.093 94.3101,-108.093 92.414,-112.719 90.1463,-106.386 90.5178,-117.346 90.5178,-117.346"/>
</g>
<!-- User&#45;&gt;Reaction -->
<g id="edge37" class="edge"><title>User&#45;&gt;Reaction</title>
<path fill="none" stroke="#270601" d="M524.058,-517.172C593.941,-510.109 742.478,-493.392 866,-468 870.674,-467.039 875.515,-465.925 880.339,-464.736"/>
<ellipse fill="none" stroke="#270601" cx="519.912" cy="-517.587" rx="4" ry="4"/>
<polygon fill="#270601" stroke="#270601" points="880.468,-464.703 891.273,-466.573 885.311,-463.459 890.153,-462.215 890.153,-462.215 890.153,-462.215 885.311,-463.459 889.034,-457.856 880.468,-464.703 880.468,-464.703"/>
</g>
<!-- User&#45;&gt;Roster -->
<g id="edge36" class="edge"><title>User&#45;&gt;Roster</title>
<path fill="none" stroke="#0efc63" d="M515.309,-506.192C538.906,-495.031 571.304,-479.707 595.977,-468.038"/>
<ellipse fill="none" stroke="#0efc63" cx="511.395" cy="-508.043" rx="4.00002" ry="4.00002"/>
<polygon fill="#0efc63" stroke="#0efc63" points="595.98,-468.037 606.944,-467.829 600.5,-465.899 605.02,-463.761 605.02,-463.761 605.02,-463.761 600.5,-465.899 603.096,-459.693 595.98,-468.037 595.98,-468.037"/>
</g>
<!-- Week&#45;&gt;Behavior -->
<g id="edge39" class="edge"><title>Week&#45;&gt;Behavior</title>
<path fill="none" stroke="#be9cc6" d="M1040.77,-476.132C1048.24,-508.563 1057.22,-566.249 1041,-612 1033.91,-632.008 1018.85,-650.554 1005.59,-664.074"/>
<ellipse fill="none" stroke="#be9cc6" cx="1039.76" cy="-471.958" rx="4.00001" ry="4.00001"/>
<ellipse fill="#be9cc6" stroke="#be9cc6" cx="1002.51" cy="-667.112" rx="4.00002" ry="4.00002"/>
</g>
<!-- Week&#45;&gt;Diagnosis -->
<g id="edge40" class="edge"><title>Week&#45;&gt;Diagnosis</title>
<path fill="none" stroke="#c5d46c" d="M1016.71,-426.161C1011.29,-419.008 1005.29,-411.081 999.777,-403.8"/>
<ellipse fill="none" stroke="#c5d46c" cx="1019.29" cy="-429.576" rx="4.00002" ry="4.00002"/>
<polygon fill="#c5d46c" stroke="#c5d46c" points="999.63,-403.606 997.182,-392.917 996.612,-399.62 993.594,-395.633 993.594,-395.633 993.594,-395.633 996.612,-399.62 990.006,-398.35 999.63,-403.606 999.63,-403.606"/>
</g>
</g>
</svg>
