<?xml version="1.0" encoding="UTF-8" standalone="no"?>
<!DOCTYPE svg PUBLIC "-//W3C//DTD SVG 1.1//EN"
 "http://www.w3.org/Graphics/SVG/1.1/DTD/svg11.dtd">
<!-- Generated by graphviz version 2.38.0 (20140413.2041)
 -->
<!-- Title: models_diagram Pages: 1 -->
<svg width="1330pt" height="590pt"
 viewBox="0.00 0.00 1329.57 590.00" xmlns="http://www.w3.org/2000/svg" xmlns:xlink="http://www.w3.org/1999/xlink">
<g id="graph0" class="graph" transform="scale(1 1) rotate(0) translate(4 586)">
<title>models_diagram</title>
<polygon fill="none" stroke="none" points="-4,4 -4,-586 1325.57,-586 1325.57,4 -4,4"/>
<!-- _diagram_info -->
<g id="node1" class="node"><title>_diagram_info</title>
<text text-anchor="start" x="443.497" y="-567.6" font-family="Times,serif" font-size="13.00">Models diagram</text>
<text text-anchor="start" x="443.497" y="-553.6" font-family="Times,serif" font-size="13.00">Date: Mar 22 2017 &#45; 17:21</text>
<text text-anchor="start" x="443.497" y="-539.6" font-family="Times,serif" font-size="13.00">Migration version: 20170320150239</text>
<text text-anchor="start" x="443.497" y="-525.6" font-family="Times,serif" font-size="13.00">Generated by RailRoady 1.5.2</text>
<text text-anchor="start" x="443.497" y="-511.6" font-family="Times,serif" font-size="13.00">http://railroady.prestonlee.com</text>
</g>
<!-- GroupProjectCount -->
<g id="node2" class="node"><title>GroupProjectCount</title>
<ellipse fill="none" stroke="black" cx="100.497" cy="-450" rx="79.0865" ry="18"/>
<text text-anchor="middle" x="100.497" y="-446.3" font-family="Times,serif" font-size="14.00">GroupProjectCount</text>
</g>
<!-- User -->
<g id="node11" class="node"><title>User</title>
<ellipse fill="none" stroke="black" cx="425.497" cy="-378" rx="27.0966" ry="18"/>
<text text-anchor="middle" x="425.497" y="-374.3" font-family="Times,serif" font-size="14.00">User</text>
</g>
<!-- GroupProjectCount&#45;&gt;User -->
<g id="edge1" class="edge"><title>GroupProjectCount&#45;&gt;User</title>
<path fill="none" stroke="#993692" d="M164.106,-435.3C231.548,-420.774 335.661,-398.349 389.895,-386.668"/>
<ellipse fill="none" stroke="#993692" cx="159.908" cy="-436.204" rx="4.00001" ry="4.00001"/>
<polygon fill="#993692" stroke="#993692" points="389.96,-386.654 400.684,-388.948 394.848,-385.601 399.736,-384.549 399.736,-384.549 399.736,-384.549 394.848,-385.601 398.788,-380.149 389.96,-386.654 389.96,-386.654"/>
</g>
<!-- Theme -->
<g id="node3" class="node"><title>Theme</title>
<ellipse fill="none" stroke="black" cx="233.497" cy="-450" rx="35.9954" ry="18"/>
<text text-anchor="middle" x="233.497" y="-446.3" font-family="Times,serif" font-size="14.00">Theme</text>
</g>
<!-- Theme&#45;&gt;User -->
<g id="edge2" class="edge"><title>Theme&#45;&gt;User</title>
<path fill="none" stroke="#bcfe31" d="M268.729,-435.632C272.029,-434.397 275.324,-433.171 278.497,-432 317.597,-417.567 362.71,-401.369 392.536,-390.723"/>
<ellipse fill="none" stroke="#bcfe31" cx="264.823" cy="-437.099" rx="4.00001" ry="4.00001"/>
<polygon fill="#bcfe31" stroke="#bcfe31" points="392.615,-390.694 403.546,-391.574 397.325,-389.015 402.035,-387.336 402.035,-387.336 402.035,-387.336 397.325,-389.015 400.523,-383.097 392.615,-390.694 392.615,-390.694"/>
</g>
<!-- FactorPack -->
<g id="node4" class="node"><title>FactorPack</title>
<ellipse fill="none" stroke="black" cx="1224.5" cy="-378" rx="50.0912" ry="18"/>
<text text-anchor="middle" x="1224.5" y="-374.3" font-family="Times,serif" font-size="14.00">FactorPack</text>
</g>
<!-- Project -->
<g id="node16" class="node"><title>Project</title>
<ellipse fill="none" stroke="black" cx="856.497" cy="-306" rx="35.9954" ry="18"/>
<text text-anchor="middle" x="856.497" y="-302.3" font-family="Times,serif" font-size="14.00">Project</text>
</g>
<!-- FactorPack&#45;&gt;Project -->
<g id="edge4" class="edge"><title>FactorPack&#45;&gt;Project</title>
<path fill="none" stroke="#3c750e" d="M1169,-371.289C1104.08,-363.831 993.743,-348.729 901.497,-324 898.699,-323.25 895.833,-322.391 892.969,-321.466"/>
<ellipse fill="none" stroke="#3c750e" cx="1173.1" cy="-371.754" rx="4.00001" ry="4.00001"/>
<polygon fill="#3c750e" stroke="#3c750e" points="892.789,-321.404 884.811,-313.881 888.064,-319.769 883.34,-318.133 883.34,-318.133 883.34,-318.133 888.064,-319.769 881.868,-322.386 892.789,-321.404 892.789,-321.404"/>
</g>
<!-- Factor -->
<g id="node21" class="node"><title>Factor</title>
<ellipse fill="none" stroke="black" cx="856.497" cy="-162" rx="33.2948" ry="18"/>
<text text-anchor="middle" x="856.497" y="-158.3" font-family="Times,serif" font-size="14.00">Factor</text>
</g>
<!-- FactorPack&#45;&gt;Factor -->
<g id="edge3" class="edge"><title>FactorPack&#45;&gt;Factor</title>
<path fill="none" stroke="#65a493" d="M1270.71,-361.504C1287.92,-353.226 1305.66,-341.119 1315.5,-324 1323.47,-310.128 1323.66,-301.758 1315.5,-288 1281.38,-230.536 1246.72,-237.656 1183.5,-216 1085.32,-182.369 963.069,-169.816 899.47,-165.336"/>
<polygon fill="#65a493" stroke="#65a493" points="1270.39,-361.648 1259.42,-361.606 1265.82,-363.682 1261.25,-365.717 1261.25,-365.717 1261.25,-365.717 1265.82,-363.682 1263.08,-369.827 1270.39,-361.648 1270.39,-361.648"/>
<polygon fill="#65a493" stroke="#65a493" points="899.385,-165.33 889.709,-160.171 894.396,-164.996 889.408,-164.661 889.408,-164.661 889.408,-164.661 894.396,-164.996 889.106,-169.151 899.385,-165.33 899.385,-165.33"/>
</g>
<!-- Course -->
<g id="node5" class="node"><title>Course</title>
<ellipse fill="none" stroke="black" cx="702.497" cy="-450" rx="35.9954" ry="18"/>
<text text-anchor="middle" x="702.497" y="-446.3" font-family="Times,serif" font-size="14.00">Course</text>
</g>
<!-- Course&#45;&gt;User -->
<g id="edge8" class="edge"><title>Course&#45;&gt;User</title>
<path fill="none" stroke="#b93339" d="M665.97,-434.727C663.119,-433.758 660.271,-432.836 657.497,-432 589.24,-411.416 507.591,-394.501 461.617,-385.661"/>
<polygon fill="#b93339" stroke="#b93339" points="666.154,-434.792 674.066,-442.385 670.865,-436.469 675.575,-438.146 675.575,-438.146 675.575,-438.146 670.865,-436.469 677.084,-433.906 666.154,-434.792 666.154,-434.792"/>
<polygon fill="#b93339" stroke="#b93339" points="461.37,-385.614 452.388,-379.324 456.458,-384.679 451.547,-383.744 451.547,-383.744 451.547,-383.744 456.458,-384.679 450.705,-388.165 461.37,-385.614 461.37,-385.614"/>
</g>
<!-- Roster -->
<g id="node13" class="node"><title>Roster</title>
<ellipse fill="none" stroke="black" cx="642.497" cy="-306" rx="33.5952" ry="18"/>
<text text-anchor="middle" x="642.497" y="-302.3" font-family="Times,serif" font-size="14.00">Roster</text>
</g>
<!-- Course&#45;&gt;Roster -->
<g id="edge6" class="edge"><title>Course&#45;&gt;Roster</title>
<path fill="none" stroke="#66c0e9" d="M691.307,-424.843C687.197,-415.827 682.558,-405.479 678.497,-396 669.553,-375.125 659.931,-351.258 652.887,-333.498"/>
<ellipse fill="none" stroke="#66c0e9" cx="693.089" cy="-428.731" rx="4.00002" ry="4.00002"/>
<polygon fill="#66c0e9" stroke="#66c0e9" points="652.736,-333.116 653.247,-322.162 650.899,-328.466 649.062,-323.816 649.062,-323.816 649.062,-323.816 650.899,-328.466 644.877,-325.469 652.736,-333.116 652.736,-333.116"/>
</g>
<!-- Course&#45;&gt;Project -->
<g id="edge5" class="edge"><title>Course&#45;&gt;Project</title>
<path fill="none" stroke="#e7504a" d="M741.231,-438.064C764.851,-429.75 794.282,-416.237 814.497,-396 831.692,-378.786 842.754,-353.183 849.184,-333.851"/>
<ellipse fill="none" stroke="#e7504a" cx="737.255" cy="-439.407" rx="4.00001" ry="4.00001"/>
<polygon fill="#e7504a" stroke="#e7504a" points="849.241,-333.669 856.508,-325.458 850.726,-328.895 852.212,-324.121 852.212,-324.121 852.212,-324.121 850.726,-328.895 847.915,-322.784 849.241,-333.669 849.241,-333.669"/>
</g>
<!-- Experience -->
<g id="node33" class="node"><title>Experience</title>
<ellipse fill="none" stroke="black" cx="502.497" cy="-306" rx="50.0912" ry="18"/>
<text text-anchor="middle" x="502.497" y="-302.3" font-family="Times,serif" font-size="14.00">Experience</text>
</g>
<!-- Course&#45;&gt;Experience -->
<g id="edge9" class="edge"><title>Course&#45;&gt;Experience</title>
<path fill="none" stroke="#9e9d28" d="M676.017,-430.199C638.851,-403.812 571.412,-355.93 532.457,-328.271"/>
<ellipse fill="none" stroke="#9e9d28" cx="679.328" cy="-432.55" rx="4.00002" ry="4.00002"/>
<polygon fill="#9e9d28" stroke="#9e9d28" points="532.286,-328.15 526.737,-318.692 528.209,-325.256 524.132,-322.361 524.132,-322.361 524.132,-322.361 528.209,-325.256 521.527,-326.03 532.286,-328.15 532.286,-328.15"/>
</g>
<!-- BingoGame -->
<g id="node34" class="node"><title>BingoGame</title>
<ellipse fill="none" stroke="black" cx="991.497" cy="-378" rx="53.8905" ry="18"/>
<text text-anchor="middle" x="991.497" y="-374.3" font-family="Times,serif" font-size="14.00">BingoGame</text>
</g>
<!-- Course&#45;&gt;BingoGame -->
<g id="edge7" class="edge"><title>Course&#45;&gt;BingoGame</title>
<path fill="none" stroke="#45c234" d="M742.577,-440.024C787.831,-429.79 863.616,-412.357 928.497,-396 932.637,-394.956 936.924,-393.851 941.224,-392.726"/>
<ellipse fill="none" stroke="#45c234" cx="738.666" cy="-440.906" rx="4.00001" ry="4.00001"/>
<polygon fill="#45c234" stroke="#45c234" points="941.552,-392.639 952.37,-394.433 946.385,-391.361 951.219,-390.082 951.219,-390.082 951.219,-390.082 946.385,-391.361 950.068,-385.732 941.552,-392.639 941.552,-392.639"/>
</g>
<!-- Style -->
<g id="node6" class="node"><title>Style</title>
<ellipse fill="none" stroke="black" cx="890.497" cy="-378" rx="28.6953" ry="18"/>
<text text-anchor="middle" x="890.497" y="-374.3" font-family="Times,serif" font-size="14.00">Style</text>
</g>
<!-- Style&#45;&gt;Project -->
<g id="edge10" class="edge"><title>Style&#45;&gt;Project</title>
<path fill="none" stroke="#c84f74" d="M878.87,-353.062C875.747,-346.632 872.354,-339.647 869.177,-333.106"/>
<ellipse fill="none" stroke="#c84f74" cx="880.692" cy="-356.813" rx="4.00002" ry="4.00002"/>
<polygon fill="#c84f74" stroke="#c84f74" points="869.102,-332.951 868.781,-321.99 866.918,-328.454 864.733,-323.956 864.733,-323.956 864.733,-323.956 866.918,-328.454 860.685,-325.922 869.102,-332.951 869.102,-332.951"/>
</g>
<!-- Behavior -->
<g id="node7" class="node"><title>Behavior</title>
<ellipse fill="none" stroke="black" cx="201.497" cy="-162" rx="42.7926" ry="18"/>
<text text-anchor="middle" x="201.497" y="-158.3" font-family="Times,serif" font-size="14.00">Behavior</text>
</g>
<!-- Diagnosis -->
<g id="node20" class="node"><title>Diagnosis</title>
<ellipse fill="none" stroke="black" cx="252.497" cy="-18" rx="46.2923" ry="18"/>
<text text-anchor="middle" x="252.497" y="-14.3" font-family="Times,serif" font-size="14.00">Diagnosis</text>
</g>
<!-- Behavior&#45;&gt;Diagnosis -->
<g id="edge13" class="edge"><title>Behavior&#45;&gt;Diagnosis</title>
<path fill="none" stroke="#67b933" d="M210.26,-136.6C219.326,-111.359 233.446,-72.0434 242.831,-45.913"/>
<ellipse fill="none" stroke="#67b933" cx="208.9" cy="-140.389" rx="4.00001" ry="4.00001"/>
<polygon fill="#67b933" stroke="#67b933" points="242.915,-45.6792 250.53,-37.7889 244.605,-40.9735 246.295,-36.2678 246.295,-36.2678 246.295,-36.2678 244.605,-40.9735 242.06,-34.7467 242.915,-45.6792 242.915,-45.6792"/>
</g>
<!-- Scenario -->
<g id="node29" class="node"><title>Scenario</title>
<ellipse fill="none" stroke="black" cx="163.497" cy="-90" rx="41.6928" ry="18"/>
<text text-anchor="middle" x="163.497" y="-86.3" font-family="Times,serif" font-size="14.00">Scenario</text>
</g>
<!-- Behavior&#45;&gt;Scenario -->
<g id="edge11" class="edge"><title>Behavior&#45;&gt;Scenario</title>
<path fill="none" stroke="#b0d49a" d="M188.467,-136.998C184.96,-130.537 181.151,-123.521 177.589,-116.959"/>
<ellipse fill="none" stroke="#b0d49a" cx="190.39" cy="-140.54" rx="4.00002" ry="4.00002"/>
<polygon fill="#b0d49a" stroke="#b0d49a" points="177.382,-116.578 176.566,-105.642 174.997,-112.183 172.611,-107.789 172.611,-107.789 172.611,-107.789 174.997,-112.183 168.656,-109.936 177.382,-116.578 177.382,-116.578"/>
</g>
<!-- Reaction -->
<g id="node30" class="node"><title>Reaction</title>
<ellipse fill="none" stroke="black" cx="342.497" cy="-90" rx="42.4939" ry="18"/>
<text text-anchor="middle" x="342.497" y="-86.3" font-family="Times,serif" font-size="14.00">Reaction</text>
</g>
<!-- Behavior&#45;&gt;Reaction -->
<g id="edge12" class="edge"><title>Behavior&#45;&gt;Reaction</title>
<path fill="none" stroke="#25f930" d="M235.417,-144.16C257.089,-133.401 285.141,-119.475 307.095,-108.575"/>
<ellipse fill="none" stroke="#25f930" cx="231.601" cy="-146.055" rx="4.00002" ry="4.00002"/>
<polygon fill="#25f930" stroke="#25f930" points="307.138,-108.554 318.096,-108.138 311.617,-106.331 316.095,-104.107 316.095,-104.107 316.095,-104.107 311.617,-106.331 314.094,-100.077 307.138,-108.554 307.138,-108.554"/>
</g>
<!-- CandidateFeedback -->
<g id="node8" class="node"><title>CandidateFeedback</title>
<ellipse fill="none" stroke="black" cx="1128.5" cy="-306" rx="79.8859" ry="18"/>
<text text-anchor="middle" x="1128.5" y="-302.3" font-family="Times,serif" font-size="14.00">CandidateFeedback</text>
</g>
<!-- Candidate -->
<g id="node25" class="node"><title>Candidate</title>
<ellipse fill="none" stroke="black" cx="1128.5" cy="-234" rx="46.2923" ry="18"/>
<text text-anchor="middle" x="1128.5" y="-230.3" font-family="Times,serif" font-size="14.00">Candidate</text>
</g>
<!-- CandidateFeedback&#45;&gt;Candidate -->
<g id="edge14" class="edge"><title>CandidateFeedback&#45;&gt;Candidate</title>
<path fill="none" stroke="#e1af88" d="M1128.5,-279.64C1128.5,-274.063 1128.5,-268.132 1128.5,-262.476"/>
<ellipse fill="none" stroke="#e1af88" cx="1128.5" cy="-283.697" rx="4" ry="4"/>
<polygon fill="#e1af88" stroke="#e1af88" points="1128.5,-262.104 1133,-252.104 1128.5,-257.104 1128.5,-252.104 1128.5,-252.104 1128.5,-252.104 1128.5,-257.104 1124,-252.104 1128.5,-262.104 1128.5,-262.104"/>
</g>
<!-- Installment -->
<g id="node9" class="node"><title>Installment</title>
<ellipse fill="none" stroke="black" cx="464.497" cy="-90" rx="50.8918" ry="18"/>
<text text-anchor="middle" x="464.497" y="-86.3" font-family="Times,serif" font-size="14.00">Installment</text>
</g>
<!-- Value -->
<g id="node28" class="node"><title>Value</title>
<ellipse fill="none" stroke="black" cx="464.497" cy="-18" rx="31.6951" ry="18"/>
<text text-anchor="middle" x="464.497" y="-14.3" font-family="Times,serif" font-size="14.00">Value</text>
</g>
<!-- Installment&#45;&gt;Value -->
<g id="edge15" class="edge"><title>Installment&#45;&gt;Value</title>
<path fill="none" stroke="#8b9409" d="M464.497,-63.6398C464.497,-58.0629 464.497,-52.1319 464.497,-46.4761"/>
<ellipse fill="none" stroke="#8b9409" cx="464.497" cy="-67.6966" rx="4" ry="4"/>
<polygon fill="#8b9409" stroke="#8b9409" points="464.497,-46.1043 468.997,-36.1043 464.497,-41.1043 464.497,-36.1043 464.497,-36.1043 464.497,-36.1043 464.497,-41.1043 459.997,-36.1044 464.497,-46.1043 464.497,-46.1043"/>
</g>
<!-- ConsentForm -->
<g id="node10" class="node"><title>ConsentForm</title>
<ellipse fill="none" stroke="black" cx="746.497" cy="-378" rx="59.2899" ry="18"/>
<text text-anchor="middle" x="746.497" y="-374.3" font-family="Times,serif" font-size="14.00">ConsentForm</text>
</g>
<!-- ConsentForm&#45;&gt;Project -->
<g id="edge16" class="edge"><title>ConsentForm&#45;&gt;Project</title>
<path fill="none" stroke="#216974" d="M777.951,-356.984C793.261,-347.241 811.571,-335.589 826.66,-325.987"/>
<ellipse fill="none" stroke="#216974" cx="774.284" cy="-359.317" rx="4.00002" ry="4.00002"/>
<polygon fill="#216974" stroke="#216974" points="826.688,-325.969 837.541,-324.397 830.907,-323.285 835.125,-320.6 835.125,-320.6 835.125,-320.6 830.907,-323.285 832.709,-316.804 826.688,-325.969 826.688,-325.969"/>
</g>
<!-- ConsentLog -->
<g id="node27" class="node"><title>ConsentLog</title>
<ellipse fill="none" stroke="black" cx="748.497" cy="-306" rx="53.8905" ry="18"/>
<text text-anchor="middle" x="748.497" y="-302.3" font-family="Times,serif" font-size="14.00">ConsentLog</text>
</g>
<!-- ConsentForm&#45;&gt;ConsentLog -->
<g id="edge17" class="edge"><title>ConsentForm&#45;&gt;ConsentLog</title>
<path fill="none" stroke="#e0d6d3" d="M747.222,-351.64C747.381,-346.063 747.55,-340.132 747.712,-334.476"/>
<ellipse fill="none" stroke="#e0d6d3" cx="747.106" cy="-355.698" rx="4" ry="4"/>
<polygon fill="#e0d6d3" stroke="#e0d6d3" points="747.723,-334.1 752.507,-324.233 747.866,-329.102 748.008,-324.104 748.008,-324.104 748.008,-324.104 747.866,-329.102 743.51,-323.976 747.723,-334.1 747.723,-334.1"/>
</g>
<!-- User&#45;&gt;Installment -->
<g id="edge23" class="edge"><title>User&#45;&gt;Installment</title>
<path fill="none" stroke="#53d7a4" d="M424.579,-351.697C424.224,-333.848 424.33,-309.403 426.497,-288 432.708,-226.652 448.5,-155.948 457.652,-118.162"/>
<ellipse fill="none" stroke="#53d7a4" cx="424.683" cy="-355.888" rx="4" ry="4"/>
<polygon fill="#53d7a4" stroke="#53d7a4" points="457.769,-117.687 464.523,-109.048 458.961,-112.831 460.153,-107.975 460.153,-107.975 460.153,-107.975 458.961,-112.831 455.783,-106.903 457.769,-117.687 457.769,-117.687"/>
</g>
<!-- User&#45;&gt;Roster -->
<g id="edge24" class="edge"><title>User&#45;&gt;Roster</title>
<path fill="none" stroke="#fe1366" d="M457.709,-367.28C491.797,-356.905 547.107,-339.817 594.497,-324 598.212,-322.76 602.078,-321.44 605.932,-320.106"/>
<ellipse fill="none" stroke="#fe1366" cx="453.763" cy="-368.479" rx="4.00001" ry="4.00001"/>
<polygon fill="#fe1366" stroke="#fe1366" points="605.956,-320.097 616.882,-321.04 610.676,-318.445 615.395,-316.793 615.395,-316.793 615.395,-316.793 610.676,-318.445 613.908,-312.546 605.956,-320.097 605.956,-320.097"/>
</g>
<!-- Group -->
<g id="node15" class="node"><title>Group</title>
<ellipse fill="none" stroke="black" cx="594.497" cy="-162" rx="33.2948" ry="18"/>
<text text-anchor="middle" x="594.497" y="-158.3" font-family="Times,serif" font-size="14.00">Group</text>
</g>
<!-- User&#45;&gt;Group -->
<g id="edge19" class="edge"><title>User&#45;&gt;Group</title>
<path fill="none" stroke="#843176" d="M426.325,-349.573C427.97,-331.045 432.328,-306.656 443.497,-288 472.622,-239.35 527.796,-201.079 562.776,-180.283"/>
<polygon fill="#843176" stroke="#843176" points="426.313,-349.74 421.149,-359.414 425.976,-354.729 425.639,-359.717 425.639,-359.717 425.639,-359.717 425.976,-354.729 430.129,-360.021 426.313,-349.74 426.313,-349.74"/>
<polygon fill="#843176" stroke="#843176" points="562.991,-180.158 573.898,-179.023 567.314,-177.645 571.637,-175.132 571.637,-175.132 571.637,-175.132 567.314,-177.645 569.375,-171.242 562.991,-180.158 562.991,-180.158"/>
</g>
<!-- User&#45;&gt;Project -->
<g id="edge22" class="edge"><title>User&#45;&gt;Project</title>
<path fill="none" stroke="#f88e21" d="M462.576,-374.69C531.979,-369.756 685.845,-355.927 811.497,-324 814.305,-323.287 817.178,-322.454 820.047,-321.549"/>
<polygon fill="#f88e21" stroke="#f88e21" points="462.546,-374.692 452.26,-370.891 457.558,-375.036 452.57,-375.38 452.57,-375.38 452.57,-375.38 457.558,-375.036 452.88,-379.87 462.546,-374.692 462.546,-374.692"/>
<polygon fill="#f88e21" stroke="#f88e21" points="820.224,-321.488 831.142,-322.51 824.955,-319.87 829.686,-318.252 829.686,-318.252 829.686,-318.252 824.955,-319.87 828.229,-313.994 820.224,-321.488 820.224,-321.488"/>
</g>
<!-- Email -->
<g id="node18" class="node"><title>Email</title>
<ellipse fill="none" stroke="black" cx="32.4971" cy="-306" rx="32.4942" ry="18"/>
<text text-anchor="middle" x="32.4971" y="-302.3" font-family="Times,serif" font-size="14.00">Email</text>
</g>
<!-- User&#45;&gt;Email -->
<g id="edge18" class="edge"><title>User&#45;&gt;Email</title>
<path fill="none" stroke="#e76a45" d="M390.523,-374.02C327.404,-368.122 190.589,-352.954 78.4971,-324 74.9061,-323.072 71.2052,-321.968 67.5358,-320.774"/>
<ellipse fill="none" stroke="#e76a45" cx="394.587" cy="-374.393" rx="4" ry="4"/>
<polygon fill="#e76a45" stroke="#e76a45" points="67.4413,-320.742 59.4681,-313.213 62.7174,-319.103 57.9935,-317.465 57.9935,-317.465 57.9935,-317.465 62.7174,-319.103 56.5188,-321.716 67.4413,-320.742 67.4413,-320.742"/>
</g>
<!-- Narrative -->
<g id="node24" class="node"><title>Narrative</title>
<ellipse fill="none" stroke="black" cx="250.497" cy="-306" rx="44.393" ry="18"/>
<text text-anchor="middle" x="250.497" y="-302.3" font-family="Times,serif" font-size="14.00">Narrative</text>
</g>
<!-- User&#45;&gt;Narrative -->
<g id="edge27" class="edge"><title>User&#45;&gt;Narrative</title>
<path fill="none" stroke="#c6a90e" d="M393.251,-364.102C364.344,-352.539 321.817,-335.528 290.7,-323.081"/>
<polygon fill="#c6a90e" stroke="#c6a90e" points="393.334,-364.135 400.948,-372.027 397.977,-365.992 402.619,-367.849 402.619,-367.849 402.619,-367.849 397.977,-365.992 404.29,-363.671 393.334,-364.135 393.334,-364.135"/>
<polygon fill="#c6a90e" stroke="#c6a90e" points="290.315,-322.927 282.701,-315.035 285.672,-321.07 281.03,-319.213 281.03,-319.213 281.03,-319.213 285.672,-321.07 279.359,-323.391 290.315,-322.927 290.315,-322.927"/>
</g>
<!-- User&#45;&gt;ConsentLog -->
<g id="edge20" class="edge"><title>User&#45;&gt;ConsentLog</title>
<path fill="none" stroke="#4fab98" d="M459.317,-370.805C509.066,-361.534 604.813,-343.09 685.497,-324 689.831,-322.975 694.32,-321.863 698.813,-320.716"/>
<ellipse fill="none" stroke="#4fab98" cx="455.379" cy="-371.536" rx="4.00001" ry="4.00001"/>
<polygon fill="#4fab98" stroke="#4fab98" points="698.922,-320.688 709.733,-322.524 703.761,-319.429 708.6,-318.169 708.6,-318.169 708.6,-318.169 703.761,-319.429 707.466,-313.814 698.922,-320.688 698.922,-320.688"/>
</g>
<!-- User&#45;&gt;Reaction -->
<g id="edge25" class="edge"><title>User&#45;&gt;Reaction</title>
<path fill="none" stroke="#3fcf70" d="M418.293,-352.177C402.764,-298.666 366.247,-172.837 350.242,-117.689"/>
<ellipse fill="none" stroke="#3fcf70" cx="419.439" cy="-356.124" rx="4.00001" ry="4.00001"/>
<polygon fill="#3fcf70" stroke="#3fcf70" points="350.202,-117.549 351.736,-106.691 348.808,-112.747 347.415,-107.945 347.415,-107.945 347.415,-107.945 348.808,-112.747 343.093,-109.199 350.202,-117.549 350.202,-117.549"/>
</g>
<!-- Assessment -->
<g id="node31" class="node"><title>Assessment</title>
<ellipse fill="none" stroke="black" cx="594.497" cy="-234" rx="52.7911" ry="18"/>
<text text-anchor="middle" x="594.497" y="-230.3" font-family="Times,serif" font-size="14.00">Assessment</text>
</g>
<!-- User&#45;&gt;Assessment -->
<g id="edge28" class="edge"><title>User&#45;&gt;Assessment</title>
<path fill="none" stroke="#a77f9d" d="M462.258,-371.24C492.574,-364.688 534.792,-351.15 561.497,-324 577.878,-307.346 586.236,-281.848 590.433,-262.406"/>
<polygon fill="#a77f9d" stroke="#a77f9d" points="461.883,-371.315 451.194,-368.864 456.98,-372.296 452.077,-373.277 452.077,-373.277 452.077,-373.277 456.98,-372.296 452.96,-377.689 461.883,-371.315 461.883,-371.315"/>
<polygon fill="#a77f9d" stroke="#a77f9d" points="590.483,-262.145 596.782,-253.168 591.423,-257.234 592.362,-252.323 592.362,-252.323 592.362,-252.323 591.423,-257.234 587.942,-251.477 590.483,-262.145 590.483,-262.145"/>
</g>
<!-- CandidateList -->
<g id="node32" class="node"><title>CandidateList</title>
<ellipse fill="none" stroke="black" cx="970.497" cy="-306" rx="59.5901" ry="18"/>
<text text-anchor="middle" x="970.497" y="-302.3" font-family="Times,serif" font-size="14.00">CandidateList</text>
</g>
<!-- User&#45;&gt;CandidateList -->
<g id="edge21" class="edge"><title>User&#45;&gt;CandidateList</title>
<path fill="none" stroke="#8e605e" d="M460.69,-374.663C539.891,-369.06 738.001,-353.114 901.497,-324 906.604,-323.091 911.895,-322.021 917.172,-320.869"/>
<ellipse fill="none" stroke="#8e605e" cx="456.504" cy="-374.956" rx="4" ry="4"/>
<polygon fill="#8e605e" stroke="#8e605e" points="917.499,-320.795 928.249,-322.959 922.374,-319.683 927.249,-318.572 927.249,-318.572 927.249,-318.572 922.374,-319.683 926.248,-314.184 917.499,-320.795 917.499,-320.795"/>
</g>
<!-- User&#45;&gt;Experience -->
<g id="edge26" class="edge"><title>User&#45;&gt;Experience</title>
<path fill="none" stroke="#a6d2c4" d="M448.681,-355.924C457.732,-347.696 468.131,-338.242 477.361,-329.851"/>
<polygon fill="#a6d2c4" stroke="#a6d2c4" points="448.479,-356.108 438.052,-359.505 444.779,-359.471 441.079,-362.834 441.079,-362.834 441.079,-362.834 444.779,-359.471 444.106,-366.164 448.479,-356.108 448.479,-356.108"/>
<polygon fill="#a6d2c4" stroke="#a6d2c4" points="477.384,-329.83 487.81,-326.433 481.084,-326.467 484.783,-323.103 484.783,-323.103 484.783,-323.103 481.084,-326.467 481.756,-319.774 477.384,-329.83 477.384,-329.83"/>
</g>
<!-- Concept -->
<g id="node12" class="node"><title>Concept</title>
<ellipse fill="none" stroke="black" cx="1266.5" cy="-306" rx="40.0939" ry="18"/>
<text text-anchor="middle" x="1266.5" y="-302.3" font-family="Times,serif" font-size="14.00">Concept</text>
</g>
<!-- Concept&#45;&gt;Candidate -->
<g id="edge29" class="edge"><title>Concept&#45;&gt;Candidate</title>
<path fill="none" stroke="#5376dc" d="M1233.72,-288.376C1212.9,-277.814 1185.94,-264.135 1164.51,-253.27"/>
<ellipse fill="none" stroke="#5376dc" cx="1237.3" cy="-290.188" rx="4.00002" ry="4.00002"/>
<polygon fill="#5376dc" stroke="#5376dc" points="1164.33,-253.174 1157.44,-244.637 1159.87,-250.912 1155.41,-248.65 1155.41,-248.65 1155.41,-248.65 1159.87,-250.912 1153.37,-252.663 1164.33,-253.174 1164.33,-253.174"/>
</g>
<!-- School -->
<g id="node14" class="node"><title>School</title>
<ellipse fill="none" stroke="black" cx="702.497" cy="-543" rx="35.194" ry="18"/>
<text text-anchor="middle" x="702.497" y="-539.3" font-family="Times,serif" font-size="14.00">School</text>
</g>
<!-- School&#45;&gt;Course -->
<g id="edge30" class="edge"><title>School&#45;&gt;Course</title>
<path fill="none" stroke="#43a18d" d="M702.497,-516.729C702.497,-504.725 702.497,-490.362 702.497,-478.129"/>
<ellipse fill="none" stroke="#43a18d" cx="702.497" cy="-520.884" rx="4" ry="4"/>
<polygon fill="#43a18d" stroke="#43a18d" points="702.497,-478.04 706.997,-468.04 702.497,-473.04 702.497,-468.04 702.497,-468.04 702.497,-468.04 702.497,-473.04 697.997,-468.04 702.497,-478.04 702.497,-478.04"/>
</g>
<!-- Group&#45;&gt;Installment -->
<g id="edge32" class="edge"><title>Group&#45;&gt;Installment</title>
<path fill="none" stroke="#0e1e1f" d="M564.682,-144.945C545.523,-134.629 520.527,-121.17 500.296,-110.276"/>
<ellipse fill="none" stroke="#0e1e1f" cx="568.331" cy="-146.911" rx="4.00002" ry="4.00002"/>
<polygon fill="#0e1e1f" stroke="#0e1e1f" points="500.179,-110.213 493.508,-101.51 495.776,-107.843 491.374,-105.472 491.374,-105.472 491.374,-105.472 495.776,-107.843 489.241,-109.434 500.179,-110.213 500.179,-110.213"/>
</g>
<!-- GroupRevision -->
<g id="node26" class="node"><title>GroupRevision</title>
<ellipse fill="none" stroke="black" cx="597.497" cy="-90" rx="64.189" ry="18"/>
<text text-anchor="middle" x="597.497" y="-86.3" font-family="Times,serif" font-size="14.00">GroupRevision</text>
</g>
<!-- Group&#45;&gt;GroupRevision -->
<g id="edge31" class="edge"><title>Group&#45;&gt;GroupRevision</title>
<path fill="none" stroke="#05b9a8" d="M595.584,-135.64C595.823,-130.063 596.077,-124.132 596.32,-118.476"/>
<ellipse fill="none" stroke="#05b9a8" cx="595.41" cy="-139.7" rx="4" ry="4"/>
<polygon fill="#05b9a8" stroke="#05b9a8" points="596.336,-118.095 601.26,-108.297 596.55,-113.1 596.764,-108.104 596.764,-108.104 596.764,-108.104 596.55,-113.1 592.268,-107.912 596.336,-118.095 596.336,-118.095"/>
</g>
<!-- Project&#45;&gt;Group -->
<g id="edge33" class="edge"><title>Project&#45;&gt;Group</title>
<path fill="none" stroke="#360d41" d="M825.64,-288.276C775.47,-261.085 676.737,-207.573 626.094,-180.125"/>
<ellipse fill="none" stroke="#360d41" cx="829.268" cy="-290.242" rx="4.00002" ry="4.00002"/>
<polygon fill="#360d41" stroke="#360d41" points="626.012,-180.081 619.364,-171.359 621.616,-177.698 617.22,-175.316 617.22,-175.316 617.22,-175.316 621.616,-177.698 615.076,-179.272 626.012,-180.081 626.012,-180.081"/>
</g>
<!-- Project&#45;&gt;Factor -->
<g id="edge35" class="edge"><title>Project&#45;&gt;Factor</title>
<path fill="none" stroke="#93d9c9" d="M856.497,-277.679C856.497,-252.599 856.497,-215.627 856.497,-190.493"/>
<polygon fill="#93d9c9" stroke="#93d9c9" points="856.497,-277.871 851.997,-287.871 856.497,-282.871 856.497,-287.871 856.497,-287.871 856.497,-287.871 856.497,-282.871 860.997,-287.872 856.497,-277.871 856.497,-277.871"/>
<polygon fill="#93d9c9" stroke="#93d9c9" points="856.497,-190.189 860.997,-180.189 856.497,-185.189 856.497,-180.189 856.497,-180.189 856.497,-180.189 856.497,-185.189 851.997,-180.189 856.497,-190.189 856.497,-190.189"/>
</g>
<!-- Project&#45;&gt;Assessment -->
<g id="edge34" class="edge"><title>Project&#45;&gt;Assessment</title>
<path fill="none" stroke="#5d4f23" d="M821.388,-291.269C818.063,-290.11 814.728,-289.001 811.497,-288 756.681,-271.021 692.733,-255.962 648.524,-246.277"/>
<ellipse fill="none" stroke="#5d4f23" cx="825.311" cy="-292.681" rx="4.00001" ry="4.00001"/>
<polygon fill="#5d4f23" stroke="#5d4f23" points="648.339,-246.237 639.522,-239.716 643.453,-245.175 638.567,-244.114 638.567,-244.114 638.567,-244.114 643.453,-245.175 637.611,-248.511 648.339,-246.237 648.339,-246.237"/>
</g>
<!-- Gender -->
<g id="node17" class="node"><title>Gender</title>
<ellipse fill="none" stroke="black" cx="323.497" cy="-450" rx="36.2938" ry="18"/>
<text text-anchor="middle" x="323.497" y="-446.3" font-family="Times,serif" font-size="14.00">Gender</text>
</g>
<!-- Gender&#45;&gt;User -->
<g id="edge36" class="edge"><title>Gender&#45;&gt;User</title>
<path fill="none" stroke="#492998" d="M350.964,-430.15C365.758,-419.997 383.937,-407.522 398.638,-397.433"/>
<ellipse fill="none" stroke="#492998" cx="347.436" cy="-432.571" rx="4.00002" ry="4.00002"/>
<polygon fill="#492998" stroke="#492998" points="399.035,-397.16 409.826,-395.212 403.157,-394.331 407.28,-391.502 407.28,-391.502 407.28,-391.502 403.157,-394.331 404.734,-387.792 399.035,-397.16 399.035,-397.16"/>
</g>
<!-- AgeRange -->
<g id="node19" class="node"><title>AgeRange</title>
<ellipse fill="none" stroke="black" cx="425.497" cy="-450" rx="48.1917" ry="18"/>
<text text-anchor="middle" x="425.497" y="-446.3" font-family="Times,serif" font-size="14.00">AgeRange</text>
</g>
<!-- AgeRange&#45;&gt;User -->
<g id="edge37" class="edge"><title>AgeRange&#45;&gt;User</title>
<path fill="none" stroke="#65ba7e" d="M425.497,-423.64C425.497,-418.063 425.497,-412.132 425.497,-406.476"/>
<ellipse fill="none" stroke="#65ba7e" cx="425.497" cy="-427.697" rx="4" ry="4"/>
<polygon fill="#65ba7e" stroke="#65ba7e" points="425.497,-406.104 429.997,-396.104 425.497,-401.104 425.497,-396.104 425.497,-396.104 425.497,-396.104 425.497,-401.104 420.997,-396.104 425.497,-406.104 425.497,-406.104"/>
</g>
<!-- Diagnosis&#45;&gt;User -->
<g id="edge38" class="edge"><title>Diagnosis&#45;&gt;User</title>
<path fill="none" stroke="#2f5279" d="M201.422,-26.0672C171.356,-32.8687 134.941,-46.1489 112.497,-72 85.9179,-102.614 92.4971,-120.458 92.4971,-161 92.4971,-235 92.4971,-235 92.4971,-235 92.4971,-363.186 303.869,-377.252 389.808,-377.673"/>
<ellipse fill="none" stroke="#2f5279" cx="205.402" cy="-25.2238" rx="4.00001" ry="4.00001"/>
<ellipse fill="#2f5279" stroke="#2f5279" cx="393.963" cy="-377.673" rx="4" ry="4"/>
</g>
<!-- CipCode -->
<g id="node22" class="node"><title>CipCode</title>
<ellipse fill="none" stroke="black" cx="533.497" cy="-450" rx="42.4939" ry="18"/>
<text text-anchor="middle" x="533.497" y="-446.3" font-family="Times,serif" font-size="14.00">CipCode</text>
</g>
<!-- CipCode&#45;&gt;User -->
<g id="edge39" class="edge"><title>CipCode&#45;&gt;User</title>
<path fill="none" stroke="#32db86" d="M504.343,-430.104C488.367,-419.749 468.681,-406.99 452.976,-396.81"/>
<ellipse fill="none" stroke="#32db86" cx="507.763" cy="-432.32" rx="4.00002" ry="4.00002"/>
<polygon fill="#32db86" stroke="#32db86" points="452.639,-396.592 446.695,-387.377 448.443,-393.873 444.248,-391.153 444.248,-391.153 444.248,-391.153 448.443,-393.873 441.8,-394.929 452.639,-396.592 452.639,-396.592"/>
</g>
<!-- Week -->
<g id="node23" class="node"><title>Week</title>
<ellipse fill="none" stroke="black" cx="250.497" cy="-234" rx="31.6951" ry="18"/>
<text text-anchor="middle" x="250.497" y="-230.3" font-family="Times,serif" font-size="14.00">Week</text>
</g>
<!-- Week&#45;&gt;Behavior -->
<g id="edge40" class="edge"><title>Week&#45;&gt;Behavior</title>
<path fill="none" stroke="#8c9c68" d="M234.753,-210.509C229.408,-202.873 223.423,-194.323 218.02,-186.603"/>
<ellipse fill="none" stroke="#8c9c68" cx="237.084" cy="-213.839" rx="4.00002" ry="4.00002"/>
<ellipse fill="#8c9c68" stroke="#8c9c68" cx="215.549" cy="-183.074" rx="4.00002" ry="4.00002"/>
</g>
<!-- Week&#45;&gt;Diagnosis -->
<g id="edge41" class="edge"><title>Week&#45;&gt;Diagnosis</title>
<path fill="none" stroke="#296d0c" d="M252.215,-207.809C252.737,-199.015 253.24,-189.076 253.497,-180 254.819,-133.261 253.986,-78.8617 253.25,-46.7686"/>
<ellipse fill="none" stroke="#296d0c" cx="251.964" cy="-211.832" rx="4" ry="4"/>
<polygon fill="#296d0c" stroke="#296d0c" points="253.241,-46.3933 257.497,-36.2867 253.12,-41.3948 252.998,-36.3963 252.998,-36.3963 252.998,-36.3963 253.12,-41.3948 248.499,-36.5059 253.241,-46.3933 253.241,-46.3933"/>
</g>
<!-- Narrative&#45;&gt;Behavior -->
<g id="edge43" class="edge"><title>Narrative&#45;&gt;Behavior</title>
<path fill="none" stroke="#15c5de" d="M228.759,-282.787C221.367,-273.912 213.875,-263.154 209.497,-252 201.508,-231.647 199.891,-206.729 200.051,-188.441"/>
<ellipse fill="none" stroke="#15c5de" cx="231.451" cy="-285.879" rx="4.00002" ry="4.00002"/>
<ellipse fill="#15c5de" stroke="#15c5de" cx="200.156" cy="-184.044" rx="4" ry="4"/>
</g>
<!-- Narrative&#45;&gt;Week -->
<g id="edge42" class="edge"><title>Narrative&#45;&gt;Week</title>
<path fill="none" stroke="#0201cd" d="M250.497,-279.64C250.497,-274.063 250.497,-268.132 250.497,-262.476"/>
<ellipse fill="none" stroke="#0201cd" cx="250.497" cy="-283.697" rx="4" ry="4"/>
<polygon fill="#0201cd" stroke="#0201cd" points="250.497,-262.104 254.997,-252.104 250.497,-257.104 250.497,-252.104 250.497,-252.104 250.497,-252.104 250.497,-257.104 245.997,-252.104 250.497,-262.104 250.497,-262.104"/>
</g>
<!-- Narrative&#45;&gt;Reaction -->
<g id="edge44" class="edge"><title>Narrative&#45;&gt;Reaction</title>
<path fill="none" stroke="#729c81" d="M270.629,-282.626C277.971,-273.599 285.849,-262.78 291.497,-252 314.703,-207.707 329.624,-150.977 337,-118.037"/>
<ellipse fill="none" stroke="#729c81" cx="267.983" cy="-285.789" rx="4.00002" ry="4.00002"/>
<polygon fill="#729c81" stroke="#729c81" points="337.008,-117.997 343.528,-109.18 338.069,-113.111 339.13,-108.225 339.13,-108.225 339.13,-108.225 338.069,-113.111 334.733,-107.27 337.008,-117.997 337.008,-117.997"/>
</g>
<!-- Scenario&#45;&gt;Narrative -->
<g id="edge45" class="edge"><title>Scenario&#45;&gt;Narrative</title>
<path fill="none" stroke="#fb8da1" d="M153.733,-115.83C148.027,-133.913 143.09,-158.839 149.497,-180 162.337,-222.408 198.116,-260.305 223.431,-282.968"/>
<ellipse fill="none" stroke="#fb8da1" cx="155.088" cy="-111.83" rx="4.00001" ry="4.00001"/>
<polygon fill="#fb8da1" stroke="#fb8da1" points="223.703,-283.205 228.283,-293.169 227.472,-286.491 231.241,-289.777 231.241,-289.777 231.241,-289.777 227.472,-286.491 234.198,-286.385 223.703,-283.205 223.703,-283.205"/>
</g>
<!-- Reaction&#45;&gt;Diagnosis -->
<g id="edge46" class="edge"><title>Reaction&#45;&gt;Diagnosis</title>
<path fill="none" stroke="#d71fec" d="M316.341,-68.6562C305.032,-59.8605 291.785,-49.5576 280.299,-40.6234"/>
<ellipse fill="none" stroke="#d71fec" cx="319.811" cy="-71.3553" rx="4.00002" ry="4.00002"/>
<polygon fill="#d71fec" stroke="#d71fec" points="280.192,-40.5405 275.061,-30.8489 276.245,-37.4708 272.298,-34.401 272.298,-34.401 272.298,-34.401 276.245,-37.4708 269.536,-37.9531 280.192,-40.5405 280.192,-40.5405"/>
</g>
<!-- Assessment&#45;&gt;Installment -->
<g id="edge47" class="edge"><title>Assessment&#45;&gt;Installment</title>
<path fill="none" stroke="#0f6168" d="M573.97,-210.578C550.101,-184.506 510.862,-141.645 486.415,-114.941"/>
<ellipse fill="none" stroke="#0f6168" cx="576.883" cy="-213.76" rx="4.00002" ry="4.00002"/>
<polygon fill="#0f6168" stroke="#0f6168" points="486.389,-114.913 482.955,-104.498 483.013,-111.225 479.636,-107.537 479.636,-107.537 479.636,-107.537 483.013,-111.225 476.317,-110.575 486.389,-114.913 486.389,-114.913"/>
</g>
<!-- Assessment&#45;&gt;Group -->
<g id="edge49" class="edge"><title>Assessment&#45;&gt;Group</title>
<path fill="none" stroke="#8f4e24" d="M594.497,-205.665C594.497,-200.687 594.497,-195.491 594.497,-190.507"/>
<polygon fill="#8f4e24" stroke="#8f4e24" points="594.497,-205.697 589.997,-215.697 594.497,-210.697 594.497,-215.697 594.497,-215.697 594.497,-215.697 594.497,-210.697 598.997,-215.697 594.497,-205.697 594.497,-205.697"/>
<polygon fill="#8f4e24" stroke="#8f4e24" points="594.497,-190.104 598.997,-180.104 594.497,-185.104 594.497,-180.104 594.497,-180.104 594.497,-180.104 594.497,-185.104 589.997,-180.104 594.497,-190.104 594.497,-190.104"/>
</g>
<!-- Assessment&#45;&gt;Factor -->
<g id="edge48" class="edge"><title>Assessment&#45;&gt;Factor</title>
<path fill="none" stroke="#8503ed" d="M644.312,-219.691C694.648,-206.242 771.384,-185.74 817.469,-173.427"/>
<polygon fill="#8503ed" stroke="#8503ed" points="644.236,-219.711 633.413,-217.945 639.405,-221.002 634.574,-222.292 634.574,-222.292 634.574,-222.292 639.405,-221.002 635.736,-226.64 644.236,-219.711 644.236,-219.711"/>
<polygon fill="#8503ed" stroke="#8503ed" points="817.714,-173.362 828.537,-175.128 822.545,-172.071 827.375,-170.781 827.375,-170.781 827.375,-170.781 822.545,-172.071 826.214,-166.433 817.714,-173.362 817.714,-173.362"/>
</g>
<!-- CandidateList&#45;&gt;Candidate -->
<g id="edge50" class="edge"><title>CandidateList&#45;&gt;Candidate</title>
<path fill="none" stroke="#ce1fd8" d="M1010.4,-287.323C1034.77,-276.526 1065.78,-262.788 1089.9,-252.099"/>
<ellipse fill="none" stroke="#ce1fd8" cx="1006.51" cy="-289.045" rx="4.00002" ry="4.00002"/>
<polygon fill="#ce1fd8" stroke="#ce1fd8" points="1089.97,-252.068 1100.94,-252.131 1094.54,-250.042 1099.12,-248.017 1099.12,-248.017 1099.12,-248.017 1094.54,-250.042 1097.29,-243.903 1089.97,-252.068 1089.97,-252.068"/>
</g>
<!-- Experience&#45;&gt;Reaction -->
<g id="edge51" class="edge"><title>Experience&#45;&gt;Reaction</title>
<path fill="none" stroke="#d90c33" d="M485.034,-281.644C454.577,-240.907 392.026,-157.245 360.913,-115.631"/>
<ellipse fill="none" stroke="#d90c33" cx="487.547" cy="-285.004" rx="4.00002" ry="4.00002"/>
<polygon fill="#d90c33" stroke="#d90c33" points="360.762,-115.429 358.378,-104.726 357.768,-111.425 354.774,-107.42 354.774,-107.42 354.774,-107.42 357.768,-111.425 351.17,-110.115 360.762,-115.429 360.762,-115.429"/>
</g>
<!-- BingoGame&#45;&gt;CandidateList -->
<g id="edge52" class="edge"><title>BingoGame&#45;&gt;CandidateList</title>
<path fill="none" stroke="#688bc3" d="M984.077,-352.267C982.299,-346.34 980.392,-339.981 978.585,-333.959"/>
<ellipse fill="none" stroke="#688bc3" cx="985.264" cy="-356.224" rx="4.00001" ry="4.00001"/>
<polygon fill="#688bc3" stroke="#688bc3" points="978.553,-333.854 979.99,-322.982 977.116,-329.064 975.68,-324.275 975.68,-324.275 975.68,-324.275 977.116,-329.064 971.369,-325.568 978.553,-333.854 978.553,-333.854"/>
</g>
<!-- Role -->
<g id="node35" class="node"><title>Role</title>
<ellipse fill="none" stroke="black" cx="621.497" cy="-450" rx="27.0966" ry="18"/>
<text text-anchor="middle" x="621.497" y="-446.3" font-family="Times,serif" font-size="14.00">Role</text>
</g>
<!-- Role&#45;&gt;User -->
<g id="edge53" class="edge"><title>Role&#45;&gt;User</title>
<path fill="none" stroke="#95bac4" d="M592.833,-435.46C590.033,-434.249 587.222,-433.076 584.497,-432 542.251,-415.311 492.405,-399.268 459.936,-389.289"/>
<ellipse fill="none" stroke="#95bac4" cx="596.491" cy="-437.086" rx="4.00002" ry="4.00002"/>
<polygon fill="#95bac4" stroke="#95bac4" points="459.601,-389.187 451.349,-381.965 454.819,-387.728 450.036,-386.269 450.036,-386.269 450.036,-386.269 454.819,-387.728 448.723,-390.573 459.601,-389.187 459.601,-389.187"/>
</g>
<!-- Role&#45;&gt;Roster -->
<g id="edge54" class="edge"><title>Role&#45;&gt;Roster</title>
<path fill="none" stroke="#b4b455" d="M625.205,-423.929C628.932,-398.725 634.66,-359.994 638.49,-334.095"/>
<ellipse fill="none" stroke="#b4b455" cx="624.615" cy="-427.915" rx="4.00001" ry="4.00001"/>
<polygon fill="#b4b455" stroke="#b4b455" points="638.492,-334.082 644.407,-324.848 639.224,-329.135 639.955,-324.189 639.955,-324.189 639.955,-324.189 639.224,-329.135 635.503,-323.531 638.492,-334.082 638.492,-334.082"/>
</g>
</g>
</svg>
