<?xml version="1.0" encoding="UTF-8" standalone="no"?>
<!DOCTYPE svg PUBLIC "-//W3C//DTD SVG 1.1//EN"
 "http://www.w3.org/Graphics/SVG/1.1/DTD/svg11.dtd">
<!-- Generated by graphviz version 2.36.0 (20140111.2315)
 -->
<!-- Title: models_diagram Pages: 1 -->
<svg width="1317pt" height="806pt"
 viewBox="0.00 0.00 1317.00 806.00" xmlns="http://www.w3.org/2000/svg" xmlns:xlink="http://www.w3.org/1999/xlink">
<g id="graph0" class="graph" transform="scale(1 1) rotate(0) translate(4 802)">
<title>models_diagram</title>
<polygon fill="none" stroke="none" points="-4,4 -4,-802 1313,-802 1313,4 -4,4"/>
<!-- _diagram_info -->
<g id="node1" class="node"><title>_diagram_info</title>
<text text-anchor="start" x="168.5" y="-783.6" font-family="Times,serif" font-size="13.00">Models diagram</text>
<text text-anchor="start" x="168.5" y="-769.6" font-family="Times,serif" font-size="13.00">Date: Mar 20 2017 &#45; 01:28</text>
<text text-anchor="start" x="168.5" y="-755.6" font-family="Times,serif" font-size="13.00">Migration version: 20170318141645</text>
<text text-anchor="start" x="168.5" y="-741.6" font-family="Times,serif" font-size="13.00">Generated by RailRoady 1.5.2</text>
<text text-anchor="start" x="168.5" y="-727.6" font-family="Times,serif" font-size="13.00">http://railroady.prestonlee.com</text>
</g>
<!-- AgeRange -->
<g id="node2" class="node"><title>AgeRange</title>
<ellipse fill="none" stroke="black" cx="694" cy="-450" rx="57.2688" ry="18"/>
<text text-anchor="middle" x="694" y="-446.3" font-family="Times,serif" font-size="14.00">AgeRange</text>
</g>
<!-- User -->
<g id="node28" class="node"><title>User</title>
<ellipse fill="none" stroke="black" cx="588" cy="-378" rx="32.2457" ry="18"/>
<text text-anchor="middle" x="588" y="-374.3" font-family="Times,serif" font-size="14.00">User</text>
</g>
<!-- AgeRange&#45;&gt;User -->
<g id="edge1" class="edge"><title>AgeRange&#45;&gt;User</title>
<path fill="none" stroke="#1f3ebd" d="M663.644,-428.953C648.926,-419.234 631.34,-407.621 616.83,-398.039"/>
<ellipse fill="none" stroke="#1f3ebd" cx="667.137" cy="-431.26" rx="4.00002" ry="4.00002"/>
<polygon fill="#1f3ebd" stroke="#1f3ebd" points="616.591,-397.881 610.726,-388.615 612.418,-395.125 608.246,-392.37 608.246,-392.37 608.246,-392.37 612.418,-395.125 605.766,-396.125 616.591,-397.881 616.591,-397.881"/>
</g>
<!-- Assessment -->
<g id="node3" class="node"><title>Assessment</title>
<ellipse fill="none" stroke="black" cx="245" cy="-522" rx="65.9423" ry="18"/>
<text text-anchor="middle" x="245" y="-518.3" font-family="Times,serif" font-size="14.00">Assessment</text>
</g>
<!-- Factor -->
<g id="node12" class="node"><title>Factor</title>
<ellipse fill="none" stroke="black" cx="163" cy="-450" rx="40.4202" ry="18"/>
<text text-anchor="middle" x="163" y="-446.3" font-family="Times,serif" font-size="14.00">Factor</text>
</g>
<!-- Assessment&#45;&gt;Factor -->
<g id="edge3" class="edge"><title>Assessment&#45;&gt;Factor</title>
<path fill="none" stroke="#36f914" d="M217.893,-497.86C208.485,-489.829 197.971,-480.853 188.682,-472.923"/>
<polygon fill="#36f914" stroke="#36f914" points="217.961,-497.918 222.645,-507.834 221.764,-501.165 225.567,-504.411 225.567,-504.411 225.567,-504.411 221.764,-501.165 228.489,-500.988 217.961,-497.918 217.961,-497.918"/>
<polygon fill="#36f914" stroke="#36f914" points="188.498,-472.767 183.814,-462.851 184.695,-469.52 180.892,-466.274 180.892,-466.274 180.892,-466.274 184.695,-469.52 177.971,-469.696 188.498,-472.767 188.498,-472.767"/>
</g>
<!-- Group -->
<g id="node15" class="node"><title>Group</title>
<ellipse fill="none" stroke="black" cx="324" cy="-450" rx="39.4691" ry="18"/>
<text text-anchor="middle" x="324" y="-446.3" font-family="Times,serif" font-size="14.00">Group</text>
</g>
<!-- Assessment&#45;&gt;Group -->
<g id="edge5" class="edge"><title>Assessment&#45;&gt;Group</title>
<path fill="none" stroke="#804bc3" d="M271.45,-497.563C280.362,-489.666 290.273,-480.885 299.064,-473.095"/>
<polygon fill="#804bc3" stroke="#804bc3" points="271.206,-497.779 260.738,-501.043 267.464,-501.095 263.722,-504.411 263.722,-504.411 263.722,-504.411 267.464,-501.095 266.706,-507.779 271.206,-497.779 271.206,-497.779"/>
<polygon fill="#804bc3" stroke="#804bc3" points="299.278,-472.906 309.747,-469.642 303.02,-469.59 306.762,-466.274 306.762,-466.274 306.762,-466.274 303.02,-469.59 303.778,-462.906 299.278,-472.906 299.278,-472.906"/>
</g>
<!-- Installment -->
<g id="node18" class="node"><title>Installment</title>
<ellipse fill="none" stroke="black" cx="232" cy="-306" rx="64.0172" ry="18"/>
<text text-anchor="middle" x="232" y="-302.3" font-family="Times,serif" font-size="14.00">Installment</text>
</g>
<!-- Assessment&#45;&gt;Installment -->
<g id="edge2" class="edge"><title>Assessment&#45;&gt;Installment</title>
<path fill="none" stroke="#5588cd" d="M243.461,-495.67C240.998,-455.116 236.188,-375.949 233.654,-334.227"/>
<ellipse fill="none" stroke="#5588cd" cx="243.716" cy="-499.857" rx="4" ry="4"/>
<polygon fill="#5588cd" stroke="#5588cd" points="233.653,-334.214 237.539,-323.96 233.35,-329.223 233.047,-324.232 233.047,-324.232 233.047,-324.232 233.35,-329.223 228.555,-324.505 233.653,-334.214 233.653,-334.214"/>
</g>
<!-- Assessment&#45;&gt;User -->
<g id="edge4" class="edge"><title>Assessment&#45;&gt;User</title>
<path fill="none" stroke="#c79805" d="M289.213,-502.782C313.664,-492.649 344.564,-479.746 372,-468 408.59,-452.335 417.265,-447.322 454,-432 487.314,-418.105 525.641,-403.037 552.748,-392.532"/>
<polygon fill="#c79805" stroke="#c79805" points="289.08,-502.837 278.119,-502.504 284.46,-504.75 279.84,-506.662 279.84,-506.662 279.84,-506.662 284.46,-504.75 281.561,-510.82 289.08,-502.837 289.08,-502.837"/>
<polygon fill="#c79805" stroke="#c79805" points="552.87,-392.485 563.82,-393.076 557.533,-390.682 562.197,-388.879 562.197,-388.879 562.197,-388.879 557.533,-390.682 560.574,-384.682 552.87,-392.485 552.87,-392.485"/>
</g>
<!-- Behavior -->
<g id="node4" class="node"><title>Behavior</title>
<ellipse fill="none" stroke="black" cx="391" cy="-162" rx="51.4931" ry="18"/>
<text text-anchor="middle" x="391" y="-158.3" font-family="Times,serif" font-size="14.00">Behavior</text>
</g>
<!-- Diagnosis -->
<g id="node9" class="node"><title>Diagnosis</title>
<ellipse fill="none" stroke="black" cx="511" cy="-18" rx="55.3436" ry="18"/>
<text text-anchor="middle" x="511" y="-14.3" font-family="Times,serif" font-size="14.00">Diagnosis</text>
</g>
<!-- Behavior&#45;&gt;Diagnosis -->
<g id="edge8" class="edge"><title>Behavior&#45;&gt;Diagnosis</title>
<path fill="none" stroke="#3e5953" d="M406.958,-137.43C419.77,-119.031 438.599,-93.1321 457,-72 465.761,-61.9384 476.07,-51.5184 485.319,-42.608"/>
<ellipse fill="none" stroke="#3e5953" cx="404.463" cy="-141.041" rx="4.00002" ry="4.00002"/>
<polygon fill="#3e5953" stroke="#3e5953" points="485.532,-42.4062 495.882,-38.7822 489.157,-38.9628 492.783,-35.5194 492.783,-35.5194 492.783,-35.5194 489.157,-38.9628 489.684,-32.2565 485.532,-42.4062 485.532,-42.4062"/>
</g>
<!-- Reaction -->
<g id="node21" class="node"><title>Reaction</title>
<ellipse fill="none" stroke="black" cx="551" cy="-90" rx="51.4931" ry="18"/>
<text text-anchor="middle" x="551" y="-86.3" font-family="Times,serif" font-size="14.00">Reaction</text>
</g>
<!-- Behavior&#45;&gt;Reaction -->
<g id="edge7" class="edge"><title>Behavior&#45;&gt;Reaction</title>
<path fill="none" stroke="#822eea" d="M429.434,-144.185C454.108,-133.39 486.085,-119.4 511.05,-108.478"/>
<ellipse fill="none" stroke="#822eea" cx="425.514" cy="-145.9" rx="4.00002" ry="4.00002"/>
<polygon fill="#822eea" stroke="#822eea" points="511.084,-108.464 522.049,-108.578 515.664,-106.459 520.245,-104.455 520.245,-104.455 520.245,-104.455 515.664,-106.459 518.441,-100.333 511.084,-108.464 511.084,-108.464"/>
</g>
<!-- Scenario -->
<g id="node24" class="node"><title>Scenario</title>
<ellipse fill="none" stroke="black" cx="322" cy="-90" rx="51.0191" ry="18"/>
<text text-anchor="middle" x="322" y="-86.3" font-family="Times,serif" font-size="14.00">Scenario</text>
</g>
<!-- Behavior&#45;&gt;Scenario -->
<g id="edge6" class="edge"><title>Behavior&#45;&gt;Scenario</title>
<path fill="none" stroke="#32ed75" d="M369.247,-138.932C361.63,-131.204 353.048,-122.498 345.308,-114.646"/>
<ellipse fill="none" stroke="#32ed75" cx="372.189" cy="-141.916" rx="4.00002" ry="4.00002"/>
<polygon fill="#32ed75" stroke="#32ed75" points="344.937,-114.269 341.121,-103.988 341.427,-110.708 337.917,-107.147 337.917,-107.147 337.917,-107.147 341.427,-110.708 334.712,-110.306 344.937,-114.269 344.937,-114.269"/>
</g>
<!-- CipCode -->
<g id="node5" class="node"><title>CipCode</title>
<ellipse fill="none" stroke="black" cx="821" cy="-450" rx="50.5427" ry="18"/>
<text text-anchor="middle" x="821" y="-446.3" font-family="Times,serif" font-size="14.00">CipCode</text>
</g>
<!-- CipCode&#45;&gt;User -->
<g id="edge9" class="edge"><title>CipCode&#45;&gt;User</title>
<path fill="none" stroke="#5e0171" d="M775.87,-435.442C732.108,-422.294 666.488,-402.58 625.512,-390.27"/>
<ellipse fill="none" stroke="#5e0171" cx="779.992" cy="-436.68" rx="4.00001" ry="4.00001"/>
<polygon fill="#5e0171" stroke="#5e0171" points="625.482,-390.261 617.199,-383.074 620.693,-388.822 615.905,-387.383 615.905,-387.383 615.905,-387.383 620.693,-388.822 614.61,-391.693 625.482,-390.261 625.482,-390.261"/>
</g>
<!-- ConsentForm -->
<g id="node6" class="node"><title>ConsentForm</title>
<ellipse fill="none" stroke="black" cx="84" cy="-666" rx="73.1654" ry="18"/>
<text text-anchor="middle" x="84" y="-662.3" font-family="Times,serif" font-size="14.00">ConsentForm</text>
</g>
<!-- ConsentLog -->
<g id="node7" class="node"><title>ConsentLog</title>
<ellipse fill="none" stroke="black" cx="66" cy="-306" rx="66.4165" ry="18"/>
<text text-anchor="middle" x="66" y="-302.3" font-family="Times,serif" font-size="14.00">ConsentLog</text>
</g>
<!-- ConsentForm&#45;&gt;ConsentLog -->
<g id="edge11" class="edge"><title>ConsentForm&#45;&gt;ConsentLog</title>
<path fill="none" stroke="#bc8b33" d="M73.7125,-640.165C63.0729,-612.192 48,-565.129 48,-523 48,-523 48,-523 48,-449 48,-408.896 55.1533,-362.924 60.441,-334.419"/>
<ellipse fill="none" stroke="#bc8b33" cx="75.2621" cy="-644.14" rx="4.00001" ry="4.00001"/>
<polygon fill="#bc8b33" stroke="#bc8b33" points="60.4789,-334.221 66.7773,-325.244 61.4182,-329.31 62.3574,-324.399 62.3574,-324.399 62.3574,-324.399 61.4182,-329.31 57.9375,-323.553 60.4789,-334.221 60.4789,-334.221"/>
</g>
<!-- Project -->
<g id="node20" class="node"><title>Project</title>
<ellipse fill="none" stroke="black" cx="245" cy="-594" rx="44.2946" ry="18"/>
<text text-anchor="middle" x="245" y="-590.3" font-family="Times,serif" font-size="14.00">Project</text>
</g>
<!-- ConsentForm&#45;&gt;Project -->
<g id="edge10" class="edge"><title>ConsentForm&#45;&gt;Project</title>
<path fill="none" stroke="#823bef" d="M125.906,-646.78C150.871,-635.926 182.322,-622.251 206.634,-611.681"/>
<ellipse fill="none" stroke="#823bef" cx="122.207" cy="-648.388" rx="4.00002" ry="4.00002"/>
<polygon fill="#823bef" stroke="#823bef" points="206.736,-611.637 217.701,-611.776 211.321,-609.643 215.907,-607.649 215.907,-607.649 215.907,-607.649 211.321,-609.643 214.112,-603.522 206.736,-611.637 206.736,-611.637"/>
</g>
<!-- Course -->
<g id="node8" class="node"><title>Course</title>
<ellipse fill="none" stroke="black" cx="477" cy="-666" rx="44.2946" ry="18"/>
<text text-anchor="middle" x="477" y="-662.3" font-family="Times,serif" font-size="14.00">Course</text>
</g>
<!-- Experience -->
<g id="node11" class="node"><title>Experience</title>
<ellipse fill="none" stroke="black" cx="508" cy="-306" rx="63.5411" ry="18"/>
<text text-anchor="middle" x="508" y="-302.3" font-family="Times,serif" font-size="14.00">Experience</text>
</g>
<!-- Course&#45;&gt;Experience -->
<g id="edge15" class="edge"><title>Course&#45;&gt;Experience</title>
<path fill="none" stroke="#3d86cd" d="M474.862,-639.746C473.667,-621.92 472.663,-597.482 474,-576 479.534,-487.114 495.458,-382.689 503.392,-334.238"/>
<ellipse fill="none" stroke="#3d86cd" cx="475.165" cy="-643.935" rx="4" ry="4"/>
<polygon fill="#3d86cd" stroke="#3d86cd" points="503.415,-334.103 509.487,-324.972 504.231,-329.17 505.048,-324.237 505.048,-324.237 505.048,-324.237 504.231,-329.17 500.608,-323.502 503.415,-334.103 503.415,-334.103"/>
</g>
<!-- Course&#45;&gt;Project -->
<g id="edge12" class="edge"><title>Course&#45;&gt;Project</title>
<path fill="none" stroke="#f2c44a" d="M434.762,-652.256C393.455,-639.793 330.825,-620.895 288.944,-608.259"/>
<ellipse fill="none" stroke="#f2c44a" cx="438.688" cy="-653.44" rx="4.00001" ry="4.00001"/>
<polygon fill="#f2c44a" stroke="#f2c44a" points="288.867,-608.236 280.593,-601.039 284.08,-606.791 279.293,-605.347 279.293,-605.347 279.293,-605.347 284.08,-606.791 277.993,-609.655 288.867,-608.236 288.867,-608.236"/>
</g>
<!-- Roster -->
<g id="node23" class="node"><title>Roster</title>
<ellipse fill="none" stroke="black" cx="1250" cy="-306" rx="41.394" ry="18"/>
<text text-anchor="middle" x="1250" y="-302.3" font-family="Times,serif" font-size="14.00">Roster</text>
</g>
<!-- Course&#45;&gt;Roster -->
<g id="edge13" class="edge"><title>Course&#45;&gt;Roster</title>
<path fill="none" stroke="#1c6671" d="M528.329,-661.701C709.617,-649.374 1309,-602.599 1309,-523 1309,-523 1309,-523 1309,-449 1309,-405.348 1284.93,-359.527 1267.54,-332.117"/>
<ellipse fill="none" stroke="#1c6671" cx="524.261" cy="-661.975" rx="4" ry="4"/>
<polygon fill="#1c6671" stroke="#1c6671" points="1267.41,-331.926 1265.71,-321.094 1264.68,-327.741 1261.94,-323.556 1261.94,-323.556 1261.94,-323.556 1264.68,-327.741 1258.17,-326.019 1267.41,-331.926 1267.41,-331.926"/>
</g>
<!-- Course&#45;&gt;User -->
<g id="edge14" class="edge"><title>Course&#45;&gt;User</title>
<path fill="none" stroke="#522dfb" d="M476.967,-637.811C478.079,-592.1 485.471,-498.354 525,-432 533.202,-418.232 546.305,-406.357 558.442,-397.358"/>
<polygon fill="#522dfb" stroke="#522dfb" points="476.966,-637.84 472.307,-647.767 476.886,-642.84 476.807,-647.839 476.807,-647.839 476.807,-647.839 476.886,-642.84 481.306,-647.911 476.966,-637.84 476.966,-637.84"/>
<polygon fill="#522dfb" stroke="#522dfb" points="558.442,-397.358 569.21,-395.279 562.53,-394.479 566.618,-391.6 566.618,-391.6 566.618,-391.6 562.53,-394.479 564.027,-387.921 558.442,-397.358 558.442,-397.358"/>
</g>
<!-- Diagnosis&#45;&gt;User -->
<g id="edge16" class="edge"><title>Diagnosis&#45;&gt;User</title>
<path fill="none" stroke="#5edb55" d="M566.211,-29.361C631.67,-45.2111 732,-82.3358 732,-161 732,-235 732,-235 732,-235 732,-275.542 737.93,-292.835 712,-324 690.535,-349.799 654.228,-363.323 626.432,-370.231"/>
<ellipse fill="none" stroke="#5edb55" cx="562.304" cy="-28.4452" rx="4.00001" ry="4.00001"/>
<ellipse fill="#5edb55" stroke="#5edb55" cx="622.367" cy="-371.179" rx="4.00001" ry="4.00001"/>
</g>
<!-- Email -->
<g id="node10" class="node"><title>Email</title>
<ellipse fill="none" stroke="black" cx="666" cy="-306" rx="37.5442" ry="18"/>
<text text-anchor="middle" x="666" y="-302.3" font-family="Times,serif" font-size="14.00">Email</text>
</g>
<!-- Experience&#45;&gt;Reaction -->
<g id="edge17" class="edge"><title>Experience&#45;&gt;Reaction</title>
<path fill="none" stroke="#dcc1e5" d="M516.777,-280.287C519.69,-271.445 522.758,-261.353 525,-252 536.147,-205.494 543.903,-150.269 547.89,-118.076"/>
<ellipse fill="none" stroke="#dcc1e5" cx="515.452" cy="-284.209" rx="4.00001" ry="4.00001"/>
<polygon fill="#dcc1e5" stroke="#dcc1e5" points="547.897,-118.015 553.565,-108.627 548.497,-113.051 549.097,-108.087 549.097,-108.087 549.097,-108.087 548.497,-113.051 544.63,-107.547 547.897,-118.015 547.897,-118.015"/>
</g>
<!-- FactorPack -->
<g id="node13" class="node"><title>FactorPack</title>
<ellipse fill="none" stroke="black" cx="140" cy="-378" rx="63.5411" ry="18"/>
<text text-anchor="middle" x="140" y="-374.3" font-family="Times,serif" font-size="14.00">FactorPack</text>
</g>
<!-- Factor&#45;&gt;FactorPack -->
<g id="edge18" class="edge"><title>Factor&#45;&gt;FactorPack</title>
<path fill="none" stroke="#396f70" d="M154.224,-422.29C152.477,-416.975 150.642,-411.388 148.891,-406.061"/>
<polygon fill="#396f70" stroke="#396f70" points="154.311,-422.555 153.157,-433.46 155.872,-427.305 157.432,-432.055 157.432,-432.055 157.432,-432.055 155.872,-427.305 161.707,-430.65 154.311,-422.555 154.311,-422.555"/>
<polygon fill="#396f70" stroke="#396f70" points="148.798,-405.776 149.951,-394.871 147.237,-401.025 145.676,-396.275 145.676,-396.275 145.676,-396.275 147.237,-401.025 141.401,-397.68 148.798,-405.776 148.798,-405.776"/>
</g>
<!-- FactorPack&#45;&gt;Project -->
<g id="edge19" class="edge"><title>FactorPack&#45;&gt;Project</title>
<path fill="none" stroke="#2450a6" d="M124.826,-402.87C120.057,-411.675 115.41,-421.959 113,-432 109.265,-447.558 108.824,-452.554 113,-468 122.668,-503.763 128.858,-513.75 155,-540 169.683,-554.744 189.286,-566.919 206.448,-575.865"/>
<ellipse fill="none" stroke="#2450a6" cx="126.836" cy="-399.337" rx="4.00002" ry="4.00002"/>
<polygon fill="#2450a6" stroke="#2450a6" points="206.746,-576.015 213.666,-584.522 211.215,-578.257 215.684,-580.5 215.684,-580.5 215.684,-580.5 211.215,-578.257 217.702,-576.477 206.746,-576.015 206.746,-576.015"/>
</g>
<!-- Gender -->
<g id="node14" class="node"><title>Gender</title>
<ellipse fill="none" stroke="black" cx="935" cy="-450" rx="44.271" ry="18"/>
<text text-anchor="middle" x="935" y="-446.3" font-family="Times,serif" font-size="14.00">Gender</text>
</g>
<!-- Gender&#45;&gt;User -->
<g id="edge20" class="edge"><title>Gender&#45;&gt;User</title>
<path fill="none" stroke="#31e49b" d="M893.935,-435.718C889.257,-434.381 884.54,-433.109 880,-432 791.419,-410.354 685.754,-393.306 628.965,-384.844"/>
<ellipse fill="none" stroke="#31e49b" cx="897.894" cy="-436.884" rx="4.00001" ry="4.00001"/>
<polygon fill="#31e49b" stroke="#31e49b" points="628.838,-384.826 619.603,-378.913 623.892,-384.095 618.946,-383.365 618.946,-383.365 618.946,-383.365 623.892,-384.095 618.288,-387.817 628.838,-384.826 628.838,-384.826"/>
</g>
<!-- GroupRevision -->
<g id="node17" class="node"><title>GroupRevision</title>
<ellipse fill="none" stroke="black" cx="377" cy="-378" rx="78.9404" ry="18"/>
<text text-anchor="middle" x="377" y="-374.3" font-family="Times,serif" font-size="14.00">GroupRevision</text>
</g>
<!-- Group&#45;&gt;GroupRevision -->
<g id="edge22" class="edge"><title>Group&#45;&gt;GroupRevision</title>
<path fill="none" stroke="#f6d7d4" d="M341.217,-426.261C346.549,-419.219 352.455,-411.418 357.906,-404.219"/>
<ellipse fill="none" stroke="#f6d7d4" cx="338.707" cy="-429.576" rx="4.00002" ry="4.00002"/>
<polygon fill="#f6d7d4" stroke="#f6d7d4" points="357.998,-404.097 367.622,-398.84 361.017,-400.11 364.035,-396.124 364.035,-396.124 364.035,-396.124 361.017,-400.11 360.447,-393.408 357.998,-404.097 357.998,-404.097"/>
</g>
<!-- Group&#45;&gt;Installment -->
<g id="edge23" class="edge"><title>Group&#45;&gt;Installment</title>
<path fill="none" stroke="#3da802" d="M308.455,-425.614C302.36,-416.404 295.324,-405.723 289,-396 275.114,-374.649 259.529,-350.287 248.17,-332.455"/>
<ellipse fill="none" stroke="#3da802" cx="310.696" cy="-428.996" rx="4.00002" ry="4.00002"/>
<polygon fill="#3da802" stroke="#3da802" points="248.015,-332.213 246.442,-321.36 245.331,-327.994 242.646,-323.776 242.646,-323.776 242.646,-323.776 245.331,-327.994 238.85,-326.193 248.015,-332.213 248.015,-332.213"/>
</g>
<!-- Group&#45;&gt;User -->
<g id="edge21" class="edge"><title>Group&#45;&gt;User</title>
<path fill="none" stroke="#5221be" d="M364.711,-435.908C369.185,-434.552 373.681,-433.224 378,-432 437.156,-415.239 506.419,-398.266 548.743,-388.191"/>
<polygon fill="#5221be" stroke="#5221be" points="364.589,-435.946 353.707,-434.593 359.811,-437.42 355.033,-438.893 355.033,-438.893 355.033,-438.893 359.811,-437.42 356.359,-443.193 364.589,-435.946 364.589,-435.946"/>
<polygon fill="#5221be" stroke="#5221be" points="548.912,-388.151 559.68,-390.222 553.777,-386.997 558.642,-385.843 558.642,-385.843 558.642,-385.843 553.777,-386.997 557.603,-381.465 548.912,-388.151 548.912,-388.151"/>
</g>
<!-- GroupProjectCount -->
<g id="node16" class="node"><title>GroupProjectCount</title>
<ellipse fill="none" stroke="black" cx="1099" cy="-450" rx="101.087" ry="18"/>
<text text-anchor="middle" x="1099" y="-446.3" font-family="Times,serif" font-size="14.00">GroupProjectCount</text>
</g>
<!-- GroupProjectCount&#45;&gt;User -->
<g id="edge24" class="edge"><title>GroupProjectCount&#45;&gt;User</title>
<path fill="none" stroke="#cb1248" d="M1017.62,-436.343C1007.65,-434.849 997.594,-433.37 988,-432 857.128,-413.31 701.834,-393.374 629.246,-384.185"/>
<ellipse fill="none" stroke="#cb1248" cx="1021.64" cy="-436.947" rx="4.00001" ry="4.00001"/>
<polygon fill="#cb1248" stroke="#cb1248" points="629.07,-384.163 619.713,-378.445 624.109,-383.536 619.149,-382.909 619.149,-382.909 619.149,-382.909 624.109,-383.536 618.584,-387.374 629.07,-384.163 629.07,-384.163"/>
</g>
<!-- Value -->
<g id="node29" class="node"><title>Value</title>
<ellipse fill="none" stroke="black" cx="232" cy="-234" rx="36.096" ry="18"/>
<text text-anchor="middle" x="232" y="-230.3" font-family="Times,serif" font-size="14.00">Value</text>
</g>
<!-- Installment&#45;&gt;Value -->
<g id="edge25" class="edge"><title>Installment&#45;&gt;Value</title>
<path fill="none" stroke="#61f0d2" d="M232,-279.64C232,-274.063 232,-268.132 232,-262.476"/>
<ellipse fill="none" stroke="#61f0d2" cx="232" cy="-283.697" rx="4" ry="4"/>
<polygon fill="#61f0d2" stroke="#61f0d2" points="232,-262.104 236.5,-252.104 232,-257.104 232,-252.104 232,-252.104 232,-252.104 232,-257.104 227.5,-252.104 232,-262.104 232,-262.104"/>
</g>
<!-- Narrative -->
<g id="node19" class="node"><title>Narrative</title>
<ellipse fill="none" stroke="black" cx="370" cy="-306" rx="55.3436" ry="18"/>
<text text-anchor="middle" x="370" y="-302.3" font-family="Times,serif" font-size="14.00">Narrative</text>
</g>
<!-- Narrative&#45;&gt;Behavior -->
<g id="edge27" class="edge"><title>Narrative&#45;&gt;Behavior</title>
<path fill="none" stroke="#e474ac" d="M373.708,-279.929C377.518,-254.165 383.418,-214.266 387.246,-188.387"/>
<ellipse fill="none" stroke="#e474ac" cx="373.118" cy="-283.915" rx="4.00001" ry="4.00001"/>
<ellipse fill="#e474ac" stroke="#e474ac" cx="387.873" cy="-184.146" rx="4.00001" ry="4.00001"/>
</g>
<!-- Narrative&#45;&gt;Reaction -->
<g id="edge28" class="edge"><title>Narrative&#45;&gt;Reaction</title>
<path fill="none" stroke="#93ba22" d="M417.269,-290.371C438.321,-281.916 462.116,-269.434 479,-252 498.539,-231.825 527.049,-157.886 541.638,-117.6"/>
<ellipse fill="none" stroke="#93ba22" cx="413.388" cy="-291.866" rx="4.00001" ry="4.00001"/>
<polygon fill="#93ba22" stroke="#93ba22" points="541.656,-117.548 549.269,-109.655 543.345,-112.842 545.033,-108.136 545.033,-108.136 545.033,-108.136 543.345,-112.842 540.798,-106.616 541.656,-117.548 541.656,-117.548"/>
</g>
<!-- Week -->
<g id="node30" class="node"><title>Week</title>
<ellipse fill="none" stroke="black" cx="434" cy="-234" rx="36.096" ry="18"/>
<text text-anchor="middle" x="434" y="-230.3" font-family="Times,serif" font-size="14.00">Week</text>
</g>
<!-- Narrative&#45;&gt;Week -->
<g id="edge26" class="edge"><title>Narrative&#45;&gt;Week</title>
<path fill="none" stroke="#7db738" d="M390.761,-282.293C397.622,-274.789 405.272,-266.421 412.208,-258.835"/>
<ellipse fill="none" stroke="#7db738" cx="387.866" cy="-285.459" rx="4.00002" ry="4.00002"/>
<polygon fill="#7db738" stroke="#7db738" points="412.635,-258.368 422.703,-254.025 416.008,-254.678 419.382,-250.988 419.382,-250.988 419.382,-250.988 416.008,-254.678 416.061,-247.952 412.635,-258.368 412.635,-258.368"/>
</g>
<!-- Project&#45;&gt;Assessment -->
<g id="edge30" class="edge"><title>Project&#45;&gt;Assessment</title>
<path fill="none" stroke="#02e6d8" d="M245,-567.64C245,-562.063 245,-556.132 245,-550.476"/>
<ellipse fill="none" stroke="#02e6d8" cx="245" cy="-571.697" rx="4" ry="4"/>
<polygon fill="#02e6d8" stroke="#02e6d8" points="245,-550.104 249.5,-540.104 245,-545.104 245,-540.104 245,-540.104 245,-540.104 245,-545.104 240.5,-540.104 245,-550.104 245,-550.104"/>
</g>
<!-- Project&#45;&gt;Factor -->
<g id="edge32" class="edge"><title>Project&#45;&gt;Factor</title>
<path fill="none" stroke="#fb6240" d="M206.783,-575.022C192.822,-566.443 178.405,-554.78 170,-540 159.368,-521.304 158.206,-496.726 159.371,-478.137"/>
<polygon fill="#fb6240" stroke="#fb6240" points="207.154,-575.234 213.583,-584.117 211.489,-577.725 215.825,-580.215 215.825,-580.215 215.825,-580.215 211.489,-577.725 218.066,-576.313 207.154,-575.234 207.154,-575.234"/>
<polygon fill="#fb6240" stroke="#fb6240" points="159.389,-477.934 164.754,-468.37 159.83,-472.953 160.271,-467.973 160.271,-467.973 160.271,-467.973 159.83,-472.953 155.789,-467.576 159.389,-477.934 159.389,-477.934"/>
</g>
<!-- Project&#45;&gt;Group -->
<g id="edge29" class="edge"><title>Project&#45;&gt;Group</title>
<path fill="none" stroke="#7102ad" d="M281.475,-576.365C296.086,-567.711 311.456,-555.63 320,-540 330.233,-521.281 330.6,-496.897 328.762,-478.386"/>
<ellipse fill="none" stroke="#7102ad" cx="277.884" cy="-578.38" rx="4.00002" ry="4.00002"/>
<polygon fill="#7102ad" stroke="#7102ad" points="328.736,-478.175 331.948,-467.69 328.109,-473.214 327.483,-468.254 327.483,-468.254 327.483,-468.254 328.109,-473.214 323.019,-468.817 328.736,-478.175 328.736,-478.175"/>
</g>
<!-- Project&#45;&gt;User -->
<g id="edge31" class="edge"><title>Project&#45;&gt;User</title>
<path fill="none" stroke="#7d22bd" d="M279.499,-574.35C297.219,-564.518 319.018,-552.028 338,-540 408.615,-495.255 421.083,-476.266 492,-432 512.862,-418.978 537.113,-405.603 556.022,-395.547"/>
<polygon fill="#7d22bd" stroke="#7d22bd" points="279.398,-574.406 268.468,-575.292 275.019,-576.819 270.641,-579.233 270.641,-579.233 270.641,-579.233 275.019,-576.819 272.813,-583.174 279.398,-574.406 279.398,-574.406"/>
<polygon fill="#7d22bd" stroke="#7d22bd" points="556.262,-395.42 567.206,-394.732 560.684,-393.086 565.106,-390.752 565.106,-390.752 565.106,-390.752 560.684,-393.086 563.005,-386.772 556.262,-395.42 556.262,-395.42"/>
</g>
<!-- Reaction&#45;&gt;Diagnosis -->
<g id="edge33" class="edge"><title>Reaction&#45;&gt;Diagnosis</title>
<path fill="none" stroke="#0474e7" d="M537.284,-64.9976C533.507,-58.3871 529.397,-51.1939 525.573,-44.502"/>
<ellipse fill="none" stroke="#0474e7" cx="539.333" cy="-68.582" rx="4.00002" ry="4.00002"/>
<polygon fill="#0474e7" stroke="#0474e7" points="525.555,-44.4714 524.501,-33.5564 523.074,-40.1302 520.594,-35.789 520.594,-35.789 520.594,-35.789 523.074,-40.1302 516.687,-38.0216 525.555,-44.4714 525.555,-44.4714"/>
</g>
<!-- Role -->
<g id="node22" class="node"><title>Role</title>
<ellipse fill="none" stroke="black" cx="1250" cy="-450" rx="31.2965" ry="18"/>
<text text-anchor="middle" x="1250" y="-446.3" font-family="Times,serif" font-size="14.00">Role</text>
</g>
<!-- Role&#45;&gt;Roster -->
<g id="edge35" class="edge"><title>Role&#45;&gt;Roster</title>
<path fill="none" stroke="#4e897e" d="M1250,-423.558C1250,-398.444 1250,-360.164 1250,-334.393"/>
<ellipse fill="none" stroke="#4e897e" cx="1250" cy="-427.871" rx="4" ry="4"/>
<polygon fill="#4e897e" stroke="#4e897e" points="1250,-334.189 1254.5,-324.189 1250,-329.189 1250,-324.189 1250,-324.189 1250,-324.189 1250,-329.189 1245.5,-324.189 1250,-334.189 1250,-334.189"/>
</g>
<!-- Role&#45;&gt;User -->
<g id="edge34" class="edge"><title>Role&#45;&gt;User</title>
<path fill="none" stroke="#cbc8e6" d="M1218.97,-434.976C1215.65,-433.826 1212.28,-432.801 1209,-432 996.542,-380.211 732.51,-377.16 630.743,-378.172"/>
<ellipse fill="none" stroke="#cbc8e6" cx="1222.82" cy="-436.428" rx="4.00001" ry="4.00001"/>
<polygon fill="#cbc8e6" stroke="#cbc8e6" points="630.557,-378.174 620.504,-373.793 625.557,-378.233 620.557,-378.292 620.557,-378.292 620.557,-378.292 625.557,-378.233 620.611,-382.792 630.557,-378.174 630.557,-378.174"/>
</g>
<!-- Scenario&#45;&gt;Narrative -->
<g id="edge36" class="edge"><title>Scenario&#45;&gt;Narrative</title>
<path fill="none" stroke="#7a72f5" d="M322.801,-116.449C323.726,-134.365 325.716,-158.831 330,-180 337.031,-214.742 350.288,-253.42 359.607,-278.42"/>
<ellipse fill="none" stroke="#7a72f5" cx="322.609" cy="-112.219" rx="4" ry="4"/>
<polygon fill="#7a72f5" stroke="#7a72f5" points="359.667,-278.577 359,-289.522 361.438,-283.253 363.209,-287.929 363.209,-287.929 363.209,-287.929 361.438,-283.253 367.417,-286.335 359.667,-278.577 359.667,-278.577"/>
</g>
<!-- School -->
<g id="node25" class="node"><title>School</title>
<ellipse fill="none" stroke="black" cx="477" cy="-759" rx="41.394" ry="18"/>
<text text-anchor="middle" x="477" y="-755.3" font-family="Times,serif" font-size="14.00">School</text>
</g>
<!-- School&#45;&gt;Course -->
<g id="edge37" class="edge"><title>School&#45;&gt;Course</title>
<path fill="none" stroke="#33847a" d="M477,-732.729C477,-720.725 477,-706.362 477,-694.129"/>
<ellipse fill="none" stroke="#33847a" cx="477" cy="-736.884" rx="4" ry="4"/>
<polygon fill="#33847a" stroke="#33847a" points="477,-694.04 481.5,-684.04 477,-689.04 477,-684.04 477,-684.04 477,-684.04 477,-689.04 472.5,-684.04 477,-694.04 477,-694.04"/>
</g>
<!-- Style -->
<g id="node26" class="node"><title>Style</title>
<ellipse fill="none" stroke="black" cx="245" cy="-666" rx="34.1708" ry="18"/>
<text text-anchor="middle" x="245" y="-662.3" font-family="Times,serif" font-size="14.00">Style</text>
</g>
<!-- Style&#45;&gt;Project -->
<g id="edge38" class="edge"><title>Style&#45;&gt;Project</title>
<path fill="none" stroke="#a15e93" d="M245,-639.64C245,-634.063 245,-628.132 245,-622.476"/>
<ellipse fill="none" stroke="#a15e93" cx="245" cy="-643.697" rx="4" ry="4"/>
<polygon fill="#a15e93" stroke="#a15e93" points="245,-622.104 249.5,-612.104 245,-617.104 245,-612.104 245,-612.104 245,-612.104 245,-617.104 240.5,-612.104 245,-622.104 245,-622.104"/>
</g>
<!-- Theme -->
<g id="node27" class="node"><title>Theme</title>
<ellipse fill="none" stroke="black" cx="576" cy="-450" rx="42.3701" ry="18"/>
<text text-anchor="middle" x="576" y="-446.3" font-family="Times,serif" font-size="14.00">Theme</text>
</g>
<!-- Theme&#45;&gt;User -->
<g id="edge39" class="edge"><title>Theme&#45;&gt;User</title>
<path fill="none" stroke="#77fc0a" d="M580.347,-423.64C581.328,-417.92 582.372,-411.828 583.364,-406.042"/>
<ellipse fill="none" stroke="#77fc0a" cx="579.642" cy="-427.754" rx="4.00001" ry="4.00001"/>
<polygon fill="#77fc0a" stroke="#77fc0a" points="583.378,-405.961 589.503,-396.865 584.223,-401.032 585.068,-396.104 585.068,-396.104 585.068,-396.104 584.223,-401.032 580.633,-395.344 583.378,-405.961 583.378,-405.961"/>
</g>
<!-- User&#45;&gt;ConsentLog -->
<g id="edge41" class="edge"><title>User&#45;&gt;ConsentLog</title>
<path fill="none" stroke="#fe2e4d" d="M548.971,-371.4C524.802,-367.984 493.118,-363.597 465,-360 329.169,-342.625 294.422,-344.322 159,-324 149.139,-322.52 138.721,-320.785 128.566,-319"/>
<ellipse fill="none" stroke="#fe2e4d" cx="553.228" cy="-372.004" rx="4.00001" ry="4.00001"/>
<polygon fill="#fe2e4d" stroke="#fe2e4d" points="128.373,-318.966 119.321,-312.776 123.451,-318.085 118.529,-317.205 118.529,-317.205 118.529,-317.205 123.451,-318.085 117.737,-321.635 128.373,-318.966 128.373,-318.966"/>
</g>
<!-- User&#45;&gt;Email -->
<g id="edge40" class="edge"><title>User&#45;&gt;Email</title>
<path fill="none" stroke="#83e280" d="M610.661,-356.664C620.302,-348.011 631.57,-337.898 641.413,-329.065"/>
<ellipse fill="none" stroke="#83e280" cx="607.519" cy="-359.483" rx="4.00002" ry="4.00002"/>
<polygon fill="#83e280" stroke="#83e280" points="641.5,-328.987 651.948,-325.657 645.222,-325.647 648.943,-322.308 648.943,-322.308 648.943,-322.308 645.222,-325.647 645.937,-318.959 641.5,-328.987 641.5,-328.987"/>
</g>
<!-- User&#45;&gt;Experience -->
<g id="edge45" class="edge"><title>User&#45;&gt;Experience</title>
<path fill="none" stroke="#0498de" d="M563.639,-355.684C554.391,-347.592 543.82,-338.342 534.393,-330.094"/>
<polygon fill="#0498de" stroke="#0498de" points="563.898,-355.911 568.461,-365.883 567.661,-359.203 571.424,-362.496 571.424,-362.496 571.424,-362.496 567.661,-359.203 574.387,-359.109 563.898,-355.911 563.898,-355.911"/>
<polygon fill="#0498de" stroke="#0498de" points="534.323,-330.033 529.761,-320.061 530.56,-326.74 526.798,-323.448 526.798,-323.448 526.798,-323.448 530.56,-326.74 523.834,-326.834 534.323,-330.033 534.323,-330.033"/>
</g>
<!-- User&#45;&gt;Installment -->
<g id="edge42" class="edge"><title>User&#45;&gt;Installment</title>
<path fill="none" stroke="#959908" d="M549.324,-370.309C494.73,-360.738 392.012,-342.27 305,-324 299.747,-322.897 294.291,-321.708 288.835,-320.489"/>
<ellipse fill="none" stroke="#959908" cx="553.402" cy="-371.022" rx="4.00001" ry="4.00001"/>
<polygon fill="#959908" stroke="#959908" points="288.809,-320.484 280.049,-313.887 283.933,-319.38 279.056,-318.276 279.056,-318.276 279.056,-318.276 283.933,-319.38 278.063,-322.665 288.809,-320.484 288.809,-320.484"/>
</g>
<!-- User&#45;&gt;Narrative -->
<g id="edge46" class="edge"><title>User&#45;&gt;Narrative</title>
<path fill="none" stroke="#05bae1" d="M551.257,-365.202C514.541,-353.412 457.921,-335.231 417.743,-322.33"/>
<polygon fill="#05bae1" stroke="#05bae1" points="551.31,-365.219 559.455,-372.561 556.07,-366.747 560.831,-368.276 560.831,-368.276 560.831,-368.276 556.07,-366.747 562.207,-363.991 551.31,-365.219 551.31,-365.219"/>
<polygon fill="#05bae1" stroke="#05bae1" points="417.682,-322.311 409.537,-314.969 412.921,-320.782 408.161,-319.253 408.161,-319.253 408.161,-319.253 412.921,-320.782 406.785,-323.538 417.682,-322.311 417.682,-322.311"/>
</g>
<!-- User&#45;&gt;Reaction -->
<g id="edge44" class="edge"><title>User&#45;&gt;Reaction</title>
<path fill="none" stroke="#fc7bbf" d="M586.111,-351.725C584.684,-333.889 582.541,-309.448 580,-288 572.801,-227.227 561.691,-156.302 555.522,-118.326"/>
<ellipse fill="none" stroke="#fc7bbf" cx="586.439" cy="-355.921" rx="4" ry="4"/>
<polygon fill="#fc7bbf" stroke="#fc7bbf" points="555.461,-117.954 558.289,-107.359 554.654,-113.019 553.847,-108.085 553.847,-108.085 553.847,-108.085 554.654,-113.019 549.406,-108.811 555.461,-117.954 555.461,-117.954"/>
</g>
<!-- User&#45;&gt;Roster -->
<g id="edge43" class="edge"><title>User&#45;&gt;Roster</title>
<path fill="none" stroke="#7226fc" d="M627.554,-372.818C742.001,-360.716 1073.37,-325.677 1200,-312.288"/>
<ellipse fill="none" stroke="#7226fc" cx="623.462" cy="-373.25" rx="4" ry="4"/>
<polygon fill="#7226fc" stroke="#7226fc" points="1200.24,-312.262 1210.65,-315.686 1205.21,-311.736 1210.18,-311.211 1210.18,-311.211 1210.18,-311.211 1205.21,-311.736 1209.71,-306.736 1200.24,-312.262 1200.24,-312.262"/>
</g>
<!-- Week&#45;&gt;Behavior -->
<g id="edge47" class="edge"><title>Week&#45;&gt;Behavior</title>
<path fill="none" stroke="#b44706" d="M419.47,-209.346C415.029,-202.116 410.142,-194.162 405.69,-186.915"/>
<ellipse fill="none" stroke="#b44706" cx="421.716" cy="-213.003" rx="4.00002" ry="4.00002"/>
<ellipse fill="#b44706" stroke="#b44706" cx="403.51" cy="-183.365" rx="4.00002" ry="4.00002"/>
</g>
<!-- Week&#45;&gt;Diagnosis -->
<g id="edge48" class="edge"><title>Week&#45;&gt;Diagnosis</title>
<path fill="none" stroke="#f17b9f" d="M442.294,-208.103C452.95,-176.366 472.2,-119.87 490,-72 493.223,-63.332 496.891,-53.9309 500.25,-45.4866"/>
<ellipse fill="none" stroke="#f17b9f" cx="440.921" cy="-212.201" rx="4.00001" ry="4.00001"/>
<polygon fill="#f17b9f" stroke="#f17b9f" points="500.285,-45.397 508.182,-37.7883 502.145,-40.7558 504.005,-36.1145 504.005,-36.1145 504.005,-36.1145 502.145,-40.7558 499.828,-34.4407 500.285,-45.397 500.285,-45.397"/>
</g>
</g>
</svg>
