<?xml version="1.0" encoding="UTF-8" standalone="no"?>
<!DOCTYPE svg PUBLIC "-//W3C//DTD SVG 1.1//EN"
 "http://www.w3.org/Graphics/SVG/1.1/DTD/svg11.dtd">
<!-- Generated by graphviz version 2.40.1 (20161225.0304)
 -->
<!-- Title: models_diagram Pages: 1 -->
<svg width="1448pt" height="873pt"
 viewBox="0.00 0.00 1447.88 873.00" xmlns="http://www.w3.org/2000/svg" xmlns:xlink="http://www.w3.org/1999/xlink">
<g id="graph0" class="graph" transform="scale(1 1) rotate(0) translate(4 869)">
<title>models_diagram</title>
<polygon fill="transparent" stroke="transparent" points="-4,4 -4,-869 1443.8765,-869 1443.8765,4 -4,4"/>
<!-- _diagram_info -->
<g id="node1" class="node">
<title>_diagram_info</title>
<text text-anchor="start" x="84.3123" y="-850.6" font-family="Times,serif" font-size="13.00" fill="#000000">Models diagram</text>
<text text-anchor="start" x="84.3123" y="-837.6" font-family="Times,serif" font-size="13.00" fill="#000000">Date: May 21 2019 &#45; 22:25</text>
<text text-anchor="start" x="84.3123" y="-824.6" font-family="Times,serif" font-size="13.00" fill="#000000">Migration version: 20190521031731</text>
<text text-anchor="start" x="84.3123" y="-811.6" font-family="Times,serif" font-size="13.00" fill="#000000">Generated by RailRoady 1.5.3</text>
<text text-anchor="start" x="84.3123" y="-798.6" font-family="Times,serif" font-size="13.00" fill="#000000">http://railroady.prestonlee.com</text>
</g>
<!-- Roster -->
<g id="node2" class="node">
<title>Roster</title>
<ellipse fill="none" stroke="#000000" cx="337" cy="-306" rx="33.3925" ry="18"/>
<text text-anchor="middle" x="337" y="-301.8" font-family="Times,serif" font-size="14.00" fill="#000000">Roster</text>
</g>
<!-- Reaction -->
<g id="node3" class="node">
<title>Reaction</title>
<ellipse fill="none" stroke="#000000" cx="1022" cy="-90" rx="41.5766" ry="18"/>
<text text-anchor="middle" x="1022" y="-85.8" font-family="Times,serif" font-size="14.00" fill="#000000">Reaction</text>
</g>
<!-- Diagnosis -->
<g id="node21" class="node">
<title>Diagnosis</title>
<ellipse fill="none" stroke="#000000" cx="876" cy="-18" rx="45.4614" ry="18"/>
<text text-anchor="middle" x="876" y="-13.8" font-family="Times,serif" font-size="14.00" fill="#000000">Diagnosis</text>
</g>
<!-- Reaction&#45;&gt;Diagnosis -->
<g id="edge2" class="edge">
<title>Reaction&#45;&gt;Diagnosis</title>
<path fill="none" stroke="#00a474" d="M987.329,-72.9019C965.1376,-61.9583 936.3498,-47.7616 913.6078,-36.5463"/>
<ellipse fill="none" stroke="#00a474" cx="990.951" cy="-74.6882" rx="4" ry="4"/>
<polygon fill="#00a474" stroke="#00a474" points="913.5538,-36.5197 906.5754,-28.0608 909.0695,-34.3082 904.5851,-32.0968 904.5851,-32.0968 904.5851,-32.0968 909.0695,-34.3082 902.5948,-36.1327 913.5538,-36.5197 913.5538,-36.5197"/>
</g>
<!-- Course -->
<g id="node31" class="node">
<title>Course</title>
<ellipse fill="none" stroke="#000000" cx="415" cy="-738" rx="35.3216" ry="18"/>
<text text-anchor="middle" x="415" y="-733.8" font-family="Times,serif" font-size="14.00" fill="#000000">Course</text>
</g>
<!-- Reaction&#45;&gt;Course -->
<g id="edge1" class="edge">
<title>Reaction&#45;&gt;Course</title>
<path fill="none" stroke="#5ca02d" d="M1064.6729,-102.3119C1116.2307,-119.3892 1202.011,-155.2329 1250,-216 1316.8227,-300.6157 1314,-342.1803 1314,-450 1314,-594 1314,-594 1314,-594 1314,-681.7173 638.082,-725.5832 458.4175,-735.6936"/>
<ellipse fill="none" stroke="#5ca02d" cx="1060.8182" cy="-101.0627" rx="4" ry="4"/>
<ellipse fill="#5ca02d" stroke="#5ca02d" cx="454.2357" cy="-735.9268" rx="4" ry="4"/>
</g>
<!-- Project -->
<g id="node4" class="node">
<title>Project</title>
<ellipse fill="none" stroke="#000000" cx="282" cy="-666" rx="35.3129" ry="18"/>
<text text-anchor="middle" x="282" y="-661.8" font-family="Times,serif" font-size="14.00" fill="#000000">Project</text>
</g>
<!-- Factor -->
<g id="node16" class="node">
<title>Factor</title>
<ellipse fill="none" stroke="#000000" cx="213" cy="-522" rx="32.8994" ry="18"/>
<text text-anchor="middle" x="213" y="-517.8" font-family="Times,serif" font-size="14.00" fill="#000000">Factor</text>
</g>
<!-- Project&#45;&gt;Factor -->
<g id="edge8" class="edge">
<title>Project&#45;&gt;Factor</title>
<path fill="none" stroke="#33d87f" d="M269.1512,-639.1851C256.8214,-613.4534 238.2996,-574.7992 225.9396,-549.0044"/>
<polygon fill="#33d87f" stroke="#33d87f" points="269.218,-639.3246 269.4811,-650.2873 271.3786,-643.8337 273.5392,-648.3428 273.5392,-648.3428 273.5392,-648.3428 271.3786,-643.8337 277.5974,-646.3982 269.218,-639.3246 269.218,-639.3246"/>
<polygon fill="#33d87f" stroke="#33d87f" points="225.8512,-548.8198 225.5881,-537.8571 223.6906,-544.3107 221.53,-539.8017 221.53,-539.8017 221.53,-539.8017 223.6906,-544.3107 217.4718,-541.7462 225.8512,-548.8198 225.8512,-548.8198"/>
</g>
<!-- Group -->
<g id="node17" class="node">
<title>Group</title>
<ellipse fill="none" stroke="#000000" cx="566" cy="-522" rx="32.9081" ry="18"/>
<text text-anchor="middle" x="566" y="-517.8" font-family="Times,serif" font-size="14.00" fill="#000000">Group</text>
</g>
<!-- Project&#45;&gt;Group -->
<g id="edge3" class="edge">
<title>Project&#45;&gt;Group</title>
<path fill="none" stroke="#8a73f7" d="M314.5767,-649.4822C368.9913,-621.8918 477.8023,-566.72 532.6968,-538.8861"/>
<ellipse fill="none" stroke="#8a73f7" cx="310.7707" cy="-651.412" rx="4" ry="4"/>
<polygon fill="#8a73f7" stroke="#8a73f7" points="532.7426,-538.863 543.6967,-538.3541 537.2021,-536.6018 541.6616,-534.3406 541.6616,-534.3406 541.6616,-534.3406 537.2021,-536.6018 539.6266,-530.327 532.7426,-538.863 532.7426,-538.863"/>
</g>
<!-- BingoGame -->
<g id="node32" class="node">
<title>BingoGame</title>
<ellipse fill="none" stroke="#000000" cx="393" cy="-234" rx="52.6865" ry="18"/>
<text text-anchor="middle" x="393" y="-229.8" font-family="Times,serif" font-size="14.00" fill="#000000">BingoGame</text>
</g>
<!-- Project&#45;&gt;BingoGame -->
<g id="edge4" class="edge">
<title>Project&#45;&gt;BingoGame</title>
<path fill="none" stroke="#7fdde5" d="M279.6486,-639.8864C273.3385,-564.2835 258.8495,-346.8606 295,-288 305.9148,-270.2283 324.911,-257.8653 343.2904,-249.5001"/>
<ellipse fill="none" stroke="#7fdde5" cx="279.9986" cy="-643.9928" rx="4" ry="4"/>
<polygon fill="#7fdde5" stroke="#7fdde5" points="343.3027,-249.4949 354.2659,-249.7395 347.907,-247.5453 352.5113,-245.5957 352.5113,-245.5957 352.5113,-245.5957 347.907,-247.5453 350.7566,-241.4519 343.3027,-249.4949 343.3027,-249.4949"/>
</g>
<!-- Assessment -->
<g id="node35" class="node">
<title>Assessment</title>
<ellipse fill="none" stroke="#000000" cx="544" cy="-594" rx="51.7346" ry="18"/>
<text text-anchor="middle" x="544" y="-589.8" font-family="Times,serif" font-size="14.00" fill="#000000">Assessment</text>
</g>
<!-- Project&#45;&gt;Assessment -->
<g id="edge5" class="edge">
<title>Project&#45;&gt;Assessment</title>
<path fill="none" stroke="#2d2d50" d="M320.913,-655.3063C366.7345,-642.7142 442.9691,-621.7642 493.3574,-607.9171"/>
<ellipse fill="none" stroke="#2d2d50" cx="316.9407" cy="-656.3979" rx="4" ry="4"/>
<polygon fill="#2d2d50" stroke="#2d2d50" points="493.4312,-607.8968 504.2662,-609.586 498.2525,-606.5719 503.0737,-605.2469 503.0737,-605.2469 503.0737,-605.2469 498.2525,-606.5719 501.8813,-600.9078 493.4312,-607.8968 493.4312,-607.8968"/>
</g>
<!-- Installment -->
<g id="node36" class="node">
<title>Installment</title>
<ellipse fill="none" stroke="#000000" cx="1211" cy="-306" rx="49.7878" ry="18"/>
<text text-anchor="middle" x="1211" y="-301.8" font-family="Times,serif" font-size="14.00" fill="#000000">Installment</text>
</g>
<!-- Project&#45;&gt;Installment -->
<g id="edge6" class="edge">
<title>Project&#45;&gt;Installment</title>
<path fill="none" stroke="#486389" d="M327.2364,-664.2868C521.6019,-656.3374 1276,-619.2212 1276,-522 1276,-522 1276,-522 1276,-450 1276,-405.4495 1249.8349,-359.4643 1230.7061,-331.7982"/>
<polygon fill="#486389" stroke="#486389" points="327.0769,-664.2931 316.9037,-660.1998 322.081,-664.4946 317.085,-664.6962 317.085,-664.6962 317.085,-664.6962 322.081,-664.4946 317.2664,-669.1925 327.0769,-664.2931 327.0769,-664.2931"/>
<polygon fill="#486389" stroke="#486389" points="1230.5862,-331.6298 1228.4502,-320.8739 1227.6855,-327.5571 1224.7848,-323.4845 1224.7848,-323.4845 1224.7848,-323.4845 1227.6855,-327.5571 1221.1195,-326.0951 1230.5862,-331.6298 1230.5862,-331.6298"/>
</g>
<!-- User -->
<g id="node38" class="node">
<title>User</title>
<ellipse fill="none" stroke="#000000" cx="774" cy="-378" rx="27" ry="18"/>
<text text-anchor="middle" x="774" y="-373.8" font-family="Times,serif" font-size="14.00" fill="#000000">User</text>
</g>
<!-- Project&#45;&gt;User -->
<g id="edge7" class="edge">
<title>Project&#45;&gt;User</title>
<path fill="none" stroke="#f6f969" d="M293.6941,-639.1089C316.9003,-589.2332 373.8166,-482.8511 457,-432 503.5346,-403.5529 663.7005,-387.0727 736.9325,-380.8637"/>
<polygon fill="#f6f969" stroke="#f6f969" points="293.6532,-639.1986 285.41,-646.4305 291.5788,-643.748 289.5045,-648.2974 289.5045,-648.2974 289.5045,-648.2974 291.5788,-643.748 293.599,-650.1644 293.6532,-639.1986 293.6532,-639.1986"/>
<polygon fill="#f6f969" stroke="#f6f969" points="737.1167,-380.8485 747.4545,-384.5065 742.0996,-380.4352 747.0825,-380.0219 747.0825,-380.0219 747.0825,-380.0219 742.0996,-380.4352 746.7105,-375.5373 737.1167,-380.8485 737.1167,-380.8485"/>
</g>
<!-- CipCode -->
<g id="node5" class="node">
<title>CipCode</title>
<ellipse fill="none" stroke="#000000" cx="782" cy="-450" rx="41.6025" ry="18"/>
<text text-anchor="middle" x="782" y="-445.8" font-family="Times,serif" font-size="14.00" fill="#000000">CipCode</text>
</g>
<!-- CipCode&#45;&gt;User -->
<g id="edge9" class="edge">
<title>CipCode&#45;&gt;User</title>
<path fill="none" stroke="#07b012" d="M779.0905,-423.8144C778.4753,-418.2775 777.8228,-412.4053 777.1976,-406.7785"/>
<ellipse fill="none" stroke="#07b012" cx="779.5395" cy="-427.8558" rx="4" ry="4"/>
<polygon fill="#07b012" stroke="#07b012" points="777.1503,-406.3521 780.5184,-395.9163 776.5981,-401.3827 776.0459,-396.4133 776.0459,-396.4133 776.0459,-396.4133 776.5981,-401.3827 771.5734,-396.9102 777.1503,-406.3521 777.1503,-406.3521"/>
</g>
<!-- Candidate -->
<g id="node6" class="node">
<title>Candidate</title>
<ellipse fill="none" stroke="#000000" cx="506" cy="-90" rx="45.92" ry="18"/>
<text text-anchor="middle" x="506" y="-85.8" font-family="Times,serif" font-size="14.00" fill="#000000">Candidate</text>
</g>
<!-- BingoCell -->
<g id="node28" class="node">
<title>BingoCell</title>
<ellipse fill="none" stroke="#000000" cx="556" cy="-18" rx="46.4304" ry="18"/>
<text text-anchor="middle" x="556" y="-13.8" font-family="Times,serif" font-size="14.00" fill="#000000">BingoCell</text>
</g>
<!-- Candidate&#45;&gt;BingoCell -->
<g id="edge10" class="edge">
<title>Candidate&#45;&gt;BingoCell</title>
<path fill="none" stroke="#9534e0" d="M522.7062,-65.9431C527.5662,-58.9446 532.898,-51.2669 537.8427,-44.1465"/>
<ellipse fill="none" stroke="#9534e0" cx="520.3852" cy="-69.2853" rx="4" ry="4"/>
<polygon fill="#9534e0" stroke="#9534e0" points="538.1306,-43.732 547.5307,-38.085 540.9826,-39.6251 543.8346,-35.5182 543.8346,-35.5182 543.8346,-35.5182 540.9826,-39.6251 540.1384,-32.9514 538.1306,-43.732 538.1306,-43.732"/>
</g>
<!-- Week -->
<g id="node7" class="node">
<title>Week</title>
<ellipse fill="none" stroke="#000000" cx="824" cy="-234" rx="30.0438" ry="18"/>
<text text-anchor="middle" x="824" y="-229.8" font-family="Times,serif" font-size="14.00" fill="#000000">Week</text>
</g>
<!-- Week&#45;&gt;Diagnosis -->
<g id="edge12" class="edge">
<title>Week&#45;&gt;Diagnosis</title>
<path fill="none" stroke="#7d4f35" d="M818.6818,-207.4381C813.3106,-174.3893 808.1065,-116.8451 826,-72 830.6144,-60.4354 838.9613,-49.8501 847.5303,-41.1745"/>
<ellipse fill="none" stroke="#7d4f35" cx="819.427" cy="-211.7432" rx="4" ry="4"/>
<polygon fill="#7d4f35" stroke="#7d4f35" points="847.7722,-40.9452 858.1255,-37.3312 851.4009,-37.5053 855.0296,-34.0654 855.0296,-34.0654 855.0296,-34.0654 851.4009,-37.5053 851.9337,-30.7996 847.7722,-40.9452 847.7722,-40.9452"/>
</g>
<!-- Behavior -->
<g id="node33" class="node">
<title>Behavior</title>
<ellipse fill="none" stroke="#000000" cx="918" cy="-162" rx="42.5456" ry="18"/>
<text text-anchor="middle" x="918" y="-157.8" font-family="Times,serif" font-size="14.00" fill="#000000">Behavior</text>
</g>
<!-- Week&#45;&gt;Behavior -->
<g id="edge11" class="edge">
<title>Week&#45;&gt;Behavior</title>
<path fill="none" stroke="#4f1348" d="M849.1686,-214.7219C861.9505,-204.9315 877.502,-193.0198 890.5867,-182.9974"/>
<ellipse fill="none" stroke="#4f1348" cx="845.7469" cy="-217.3428" rx="4" ry="4"/>
<ellipse fill="#4f1348" stroke="#4f1348" cx="894.0011" cy="-180.3821" rx="4" ry="4"/>
</g>
<!-- Value -->
<g id="node8" class="node">
<title>Value</title>
<ellipse fill="none" stroke="#000000" cx="1211" cy="-234" rx="30.4862" ry="18"/>
<text text-anchor="middle" x="1211" y="-229.8" font-family="Times,serif" font-size="14.00" fill="#000000">Value</text>
</g>
<!-- HomeState -->
<g id="node9" class="node">
<title>HomeState</title>
<ellipse fill="none" stroke="#000000" cx="1104" cy="-234" rx="49.3032" ry="18"/>
<text text-anchor="middle" x="1104" y="-229.8" font-family="Times,serif" font-size="14.00" fill="#000000">HomeState</text>
</g>
<!-- HomeState&#45;&gt;User -->
<g id="edge13" class="edge">
<title>HomeState&#45;&gt;User</title>
<path fill="none" stroke="#81b565" d="M1057.6411,-247.7705C1029.7528,-257.0693 994.1323,-270.7825 965,-288 943.5427,-300.6815 943.5873,-311.5412 922,-324 885.925,-344.8202 840.3977,-359.9787 809.4294,-368.8438"/>
<ellipse fill="none" stroke="#81b565" cx="1061.4888" cy="-246.5104" rx="4" ry="4"/>
<polygon fill="#81b565" stroke="#81b565" points="809.1521,-368.921 798.3107,-367.2735 804.336,-370.2645 799.5199,-371.608 799.5199,-371.608 799.5199,-371.608 804.336,-370.2645 800.729,-375.9426 809.1521,-368.921 809.1521,-368.921"/>
</g>
<!-- Concept -->
<g id="node10" class="node">
<title>Concept</title>
<ellipse fill="none" stroke="#000000" cx="542" cy="-306" rx="39.6558" ry="18"/>
<text text-anchor="middle" x="542" y="-301.8" font-family="Times,serif" font-size="14.00" fill="#000000">Concept</text>
</g>
<!-- Concept&#45;&gt;Candidate -->
<g id="edge14" class="edge">
<title>Concept&#45;&gt;Candidate</title>
<path fill="none" stroke="#207b10" d="M543.1255,-279.5786C543.8463,-247.1211 542.9401,-190.6273 531,-144 528.6538,-134.838 524.7886,-125.3231 520.7908,-116.8794"/>
<ellipse fill="none" stroke="#207b10" cx="543.0113" cy="-283.6816" rx="4" ry="4"/>
<polygon fill="#207b10" stroke="#207b10" points="520.763,-116.8236 520.3206,-105.8666 518.5289,-112.3505 516.2948,-107.8773 516.2948,-107.8773 516.2948,-107.8773 518.5289,-112.3505 512.269,-109.888 520.763,-116.8236 520.763,-116.8236"/>
</g>
<!-- CandidateList -->
<g id="node24" class="node">
<title>CandidateList</title>
<ellipse fill="none" stroke="#000000" cx="462" cy="-162" rx="59.9357" ry="18"/>
<text text-anchor="middle" x="462" y="-157.8" font-family="Times,serif" font-size="14.00" fill="#000000">CandidateList</text>
</g>
<!-- Concept&#45;&gt;CandidateList -->
<g id="edge15" class="edge">
<title>Concept&#45;&gt;CandidateList</title>
<path fill="none" stroke="#340225" d="M527.3126,-279.5626C512.9632,-253.7338 491.2366,-214.6259 476.8364,-188.7056"/>
<polygon fill="#340225" stroke="#340225" points="527.3339,-279.6012 528.2567,-290.5282 529.7622,-283.972 532.1904,-288.3428 532.1904,-288.3428 532.1904,-288.3428 529.7622,-283.972 536.1241,-286.1574 527.3339,-279.6012 527.3339,-279.6012"/>
<polygon fill="#340225" stroke="#340225" points="476.7463,-188.5432 475.8235,-177.6162 474.318,-184.1724 471.8898,-179.8017 471.8898,-179.8017 471.8898,-179.8017 474.318,-184.1724 467.9561,-181.9871 476.7463,-188.5432 476.7463,-188.5432"/>
</g>
<!-- Concept&#45;&gt;Course -->
<g id="edge17" class="edge">
<title>Concept&#45;&gt;Course</title>
<path fill="none" stroke="#6d58d6" d="M520.1555,-330.8041C500.2387,-354.9028 471.7423,-393.413 457,-432 419.9506,-528.9745 414.9178,-654.2742 414.6657,-709.6011"/>
<polygon fill="#6d58d6" stroke="#6d58d6" points="520.3655,-330.5546 530.2484,-325.8028 523.5857,-326.7297 526.8059,-322.9047 526.8059,-322.9047 526.8059,-322.9047 523.5857,-326.7297 523.3634,-320.0065 520.3655,-330.5546 520.3655,-330.5546"/>
<polygon fill="#6d58d6" stroke="#6d58d6" points="414.6657,-709.7044 410.171,-719.7068 414.6683,-714.7044 414.671,-719.7044 414.671,-719.7044 414.671,-719.7044 414.6683,-714.7044 419.171,-719.702 414.6657,-709.7044 414.6657,-709.7044"/>
</g>
<!-- Concept&#45;&gt;BingoGame -->
<g id="edge16" class="edge">
<title>Concept&#45;&gt;BingoGame</title>
<path fill="none" stroke="#f7ec50" d="M505.4483,-288.3374C483.3312,-277.65 455.1264,-264.0208 432.4975,-253.086"/>
<polygon fill="#f7ec50" stroke="#f7ec50" points="505.6672,-288.4432 512.7132,-296.8458 510.1692,-290.6186 514.6711,-292.7941 514.6711,-292.7941 514.6711,-292.7941 510.1692,-290.6186 516.629,-288.7423 505.6672,-288.4432 505.6672,-288.4432"/>
<polygon fill="#f7ec50" stroke="#f7ec50" points="432.4961,-253.0854 425.4501,-244.6827 427.9942,-250.91 423.4922,-248.7345 423.4922,-248.7345 423.4922,-248.7345 427.9942,-250.91 421.5343,-252.7862 432.4961,-253.0854 432.4961,-253.0854"/>
</g>
<!-- Scenario -->
<g id="node11" class="node">
<title>Scenario</title>
<ellipse fill="none" stroke="#000000" cx="876" cy="-90" rx="41.092" ry="18"/>
<text text-anchor="middle" x="876" y="-85.8" font-family="Times,serif" font-size="14.00" fill="#000000">Scenario</text>
</g>
<!-- Narrative -->
<g id="node20" class="node">
<title>Narrative</title>
<ellipse fill="none" stroke="#000000" cx="837" cy="-306" rx="43.4887" ry="18"/>
<text text-anchor="middle" x="837" y="-301.8" font-family="Times,serif" font-size="14.00" fill="#000000">Narrative</text>
</g>
<!-- Scenario&#45;&gt;Narrative -->
<g id="edge18" class="edge">
<title>Scenario&#45;&gt;Narrative</title>
<path fill="none" stroke="#3bb9d4" d="M870.2658,-116.389C868.5927,-125.1345 866.9581,-134.9467 866,-144 860.9463,-191.7518 874.3323,-205.3379 863,-252 860.752,-261.2565 856.7869,-270.7982 852.6202,-279.2375"/>
<ellipse fill="none" stroke="#3bb9d4" cx="871.0786" cy="-112.3134" rx="4" ry="4"/>
<polygon fill="#3bb9d4" stroke="#3bb9d4" points="852.553,-279.3658 843.9252,-286.1344 850.232,-283.7945 847.911,-288.2232 847.911,-288.2232 847.911,-288.2232 850.232,-283.7945 851.8969,-290.3121 852.553,-279.3658 852.553,-279.3658"/>
</g>
<!-- Language -->
<g id="node12" class="node">
<title>Language</title>
<ellipse fill="none" stroke="#000000" cx="887" cy="-450" rx="44.9423" ry="18"/>
<text text-anchor="middle" x="887" y="-445.8" font-family="Times,serif" font-size="14.00" fill="#000000">Language</text>
</g>
<!-- Language&#45;&gt;User -->
<g id="edge19" class="edge">
<title>Language&#45;&gt;User</title>
<path fill="none" stroke="#7d34e0" d="M854.4079,-429.2334C838.0283,-418.7968 818.3616,-406.2658 802.5782,-396.2091"/>
<polygon fill="#7d34e0" stroke="#7d34e0" points="854.6021,-429.357 860.6175,-438.5258 858.8188,-432.0438 863.0356,-434.7307 863.0356,-434.7307 863.0356,-434.7307 858.8188,-432.0438 865.4537,-430.9356 854.6021,-429.357 854.6021,-429.357"/>
<polygon fill="#7d34e0" stroke="#7d34e0" points="802.2217,-395.982 796.2063,-386.8133 798.0049,-393.2952 793.7881,-390.6084 793.7881,-390.6084 793.7881,-390.6084 798.0049,-393.2952 791.37,-394.4035 802.2217,-395.982 802.2217,-395.982"/>
</g>
<!-- Email -->
<g id="node13" class="node">
<title>Email</title>
<ellipse fill="none" stroke="#000000" cx="631" cy="-306" rx="31.4549" ry="18"/>
<text text-anchor="middle" x="631" y="-301.8" font-family="Times,serif" font-size="14.00" fill="#000000">Email</text>
</g>
<!-- ConsentForm -->
<g id="node14" class="node">
<title>ConsentForm</title>
<ellipse fill="none" stroke="#000000" cx="447" cy="-828.5" rx="58.0169" ry="18"/>
<text text-anchor="middle" x="447" y="-824.3" font-family="Times,serif" font-size="14.00" fill="#000000">ConsentForm</text>
</g>
<!-- ConsentLog -->
<g id="node15" class="node">
<title>ConsentLog</title>
<ellipse fill="none" stroke="#000000" cx="157" cy="-306" rx="53.1797" ry="18"/>
<text text-anchor="middle" x="157" y="-301.8" font-family="Times,serif" font-size="14.00" fill="#000000">ConsentLog</text>
</g>
<!-- ConsentLog&#45;&gt;Project -->
<g id="edge20" class="edge">
<title>ConsentLog&#45;&gt;Project</title>
<path fill="none" stroke="#1d2cef" d="M155.4316,-334.4076C153.9653,-363.4451 152,-409.8518 152,-450 152,-522 152,-522 152,-522 152,-579.5286 209.8726,-624.3945 248.391,-647.885"/>
<polygon fill="#1d2cef" stroke="#1d2cef" points="155.4441,-334.1648 160.4579,-324.4123 155.7041,-329.1716 155.964,-324.1784 155.964,-324.1784 155.964,-324.1784 155.7041,-329.1716 151.4701,-323.9444 155.4441,-334.1648 155.4441,-334.1648"/>
<polygon fill="#1d2cef" stroke="#1d2cef" points="248.6339,-648.0285 254.9518,-656.9915 252.938,-650.5732 257.242,-653.1179 257.242,-653.1179 257.242,-653.1179 252.938,-650.5732 259.5322,-649.2443 248.6339,-648.0285 248.6339,-648.0285"/>
</g>
<!-- Group&#45;&gt;CipCode -->
<g id="edge27" class="edge">
<title>Group&#45;&gt;CipCode</title>
<path fill="none" stroke="#f328d5" d="M604.2275,-509.7644C637.7227,-498.9779 687.6831,-482.7302 731,-468 733.928,-467.0043 736.9468,-465.9669 739.9846,-464.9149"/>
<polygon fill="#f328d5" stroke="#f328d5" points="603.9066,-509.8676 593.0091,-508.6449 599.1466,-511.3982 594.3867,-512.9289 594.3867,-512.9289 594.3867,-512.9289 599.1466,-511.3982 595.7643,-517.2129 603.9066,-509.8676 603.9066,-509.8676"/>
<polygon fill="#f328d5" stroke="#f328d5" points="740.2215,-464.8323 751.1457,-465.7878 744.9426,-463.1856 749.6637,-461.5388 749.6637,-461.5388 749.6637,-461.5388 744.9426,-463.1856 748.1816,-457.2899 740.2215,-464.8323 740.2215,-464.8323"/>
</g>
<!-- Group&#45;&gt;HomeState -->
<g id="edge25" class="edge">
<title>Group&#45;&gt;HomeState</title>
<path fill="none" stroke="#3cd665" d="M609.1757,-519.8016C721.8441,-513.7056 1018.4508,-495.2227 1053,-468 1115.352,-418.8703 1113.0678,-312.8723 1107.8768,-262.154"/>
<polygon fill="#3cd665" stroke="#3cd665" points="608.8472,-519.8191 598.6213,-515.8591 603.8543,-520.0859 598.8615,-520.3527 598.8615,-520.3527 598.8615,-520.3527 603.8543,-520.0859 599.1016,-524.8463 608.8472,-519.8191 608.8472,-519.8191"/>
<polygon fill="#3cd665" stroke="#3cd665" points="1107.876,-262.1468 1111.2184,-251.7027 1107.3116,-257.1787 1106.7471,-252.2107 1106.7471,-252.2107 1106.7471,-252.2107 1107.3116,-257.1787 1102.2759,-252.7187 1107.876,-262.1468 1107.876,-262.1468"/>
</g>
<!-- HomeCountry -->
<g id="node22" class="node">
<title>HomeCountry</title>
<ellipse fill="none" stroke="#000000" cx="1035" cy="-306" rx="60.9133" ry="18"/>
<text text-anchor="middle" x="1035" y="-301.8" font-family="Times,serif" font-size="14.00" fill="#000000">HomeCountry</text>
</g>
<!-- Group&#45;&gt;HomeCountry -->
<g id="edge26" class="edge">
<title>Group&#45;&gt;HomeCountry</title>
<path fill="none" stroke="#ed493b" d="M608.6887,-520.1358C717.8709,-514.9402 1000.7038,-498.6274 1029,-468 1062.2881,-431.9694 1053.0297,-369.907 1043.7291,-333.9615"/>
<polygon fill="#ed493b" stroke="#ed493b" points="608.6683,-520.1367 598.4689,-516.109 603.6737,-520.3704 598.6792,-520.604 598.6792,-520.604 598.6792,-520.604 603.6737,-520.3704 598.8895,-525.0991 608.6683,-520.1367 608.6683,-520.1367"/>
<polygon fill="#ed493b" stroke="#ed493b" points="1043.6762,-333.7696 1045.3522,-322.9326 1042.3453,-328.95 1041.0145,-324.1303 1041.0145,-324.1303 1041.0145,-324.1303 1042.3453,-328.95 1036.6768,-325.3281 1043.6762,-333.7696 1043.6762,-333.7696"/>
</g>
<!-- Group&#45;&gt;CandidateList -->
<g id="edge23" class="edge">
<title>Group&#45;&gt;CandidateList</title>
<path fill="none" stroke="#7c19f8" d="M528.5384,-511.6538C500.4357,-502.8045 461.8362,-488.2674 432,-468 358.9275,-418.3626 327.7863,-406.0275 295,-324 276.2212,-277.0175 293.9471,-250.454 331,-216 351.4362,-196.9971 379.4844,-184.2321 404.3854,-175.908"/>
<ellipse fill="none" stroke="#7c19f8" cx="532.7113" cy="-512.9345" rx="4" ry="4"/>
<polygon fill="#7c19f8" stroke="#7c19f8" points="404.5781,-175.8469 415.4707,-177.1131 409.3441,-174.3353 414.1102,-172.8237 414.1102,-172.8237 414.1102,-172.8237 409.3441,-174.3353 412.7497,-168.5342 404.5781,-175.8469 404.5781,-175.8469"/>
</g>
<!-- GroupRevision -->
<g id="node26" class="node">
<title>GroupRevision</title>
<ellipse fill="none" stroke="#000000" cx="658" cy="-450" rx="64.296" ry="18"/>
<text text-anchor="middle" x="658" y="-445.8" font-family="Times,serif" font-size="14.00" fill="#000000">GroupRevision</text>
</g>
<!-- Group&#45;&gt;GroupRevision -->
<g id="edge22" class="edge">
<title>Group&#45;&gt;GroupRevision</title>
<path fill="none" stroke="#c332f3" d="M591.6365,-501.9367C602.8752,-493.1412 616.1457,-482.7556 627.8546,-473.592"/>
<ellipse fill="none" stroke="#c332f3" cx="588.2125" cy="-504.6163" rx="4" ry="4"/>
<polygon fill="#c332f3" stroke="#c332f3" points="628.1781,-473.3389 638.8266,-470.7195 632.1157,-470.2573 636.0532,-467.1757 636.0532,-467.1757 636.0532,-467.1757 632.1157,-470.2573 633.2798,-463.632 628.1781,-473.3389 628.1781,-473.3389"/>
</g>
<!-- Gender -->
<g id="node27" class="node">
<title>Gender</title>
<ellipse fill="none" stroke="#000000" cx="502" cy="-450" rx="36.2645" ry="18"/>
<text text-anchor="middle" x="502" y="-445.8" font-family="Times,serif" font-size="14.00" fill="#000000">Gender</text>
</g>
<!-- Group&#45;&gt;Gender -->
<g id="edge28" class="edge">
<title>Group&#45;&gt;Gender</title>
<path fill="none" stroke="#7082a3" d="M544.8091,-498.1603C538.1004,-490.6129 530.6734,-482.2576 523.9149,-474.6543"/>
<polygon fill="#7082a3" stroke="#7082a3" points="544.8337,-498.188 548.1141,-508.6517 548.1556,-501.925 551.4774,-505.6621 551.4774,-505.6621 551.4774,-505.6621 548.1556,-501.925 554.8408,-502.6724 544.8337,-498.188 544.8337,-498.188"/>
<polygon fill="#7082a3" stroke="#7082a3" points="523.5529,-474.247 520.2726,-463.7833 520.2311,-470.51 516.9093,-466.7729 516.9093,-466.7729 516.9093,-466.7729 520.2311,-470.51 513.5459,-469.7626 523.5529,-474.247 523.5529,-474.247"/>
</g>
<!-- Group&#45;&gt;Installment -->
<g id="edge24" class="edge">
<title>Group&#45;&gt;Installment</title>
<path fill="none" stroke="#d6a12c" d="M606.6983,-519.8552C724.1211,-513.3942 1057.8363,-493.013 1100,-468 1152.2188,-437.0219 1185.5016,-370.7474 1200.9239,-333.2754"/>
<ellipse fill="none" stroke="#d6a12c" cx="602.6187" cy="-520.078" rx="4" ry="4"/>
<polygon fill="#d6a12c" stroke="#d6a12c" points="1200.9316,-333.256 1208.812,-325.6304 1202.7815,-328.6107 1204.6313,-323.9655 1204.6313,-323.9655 1204.6313,-323.9655 1202.7815,-328.6107 1200.4506,-322.3006 1200.9316,-333.256 1200.9316,-333.256"/>
</g>
<!-- Group&#45;&gt;User -->
<g id="edge21" class="edge">
<title>Group&#45;&gt;User</title>
<path fill="none" stroke="#90716c" d="M564.7645,-493.7641C565.4481,-474.0666 569.6573,-448.4601 585,-432 605.6912,-409.8019 688.8525,-392.3842 737.6984,-383.8186"/>
<polygon fill="#90716c" stroke="#90716c" points="564.7631,-494.0038 560.1993,-503.9748 564.7311,-499.0037 564.6992,-504.0036 564.6992,-504.0036 564.6992,-504.0036 564.7311,-499.0037 569.1991,-504.0324 564.7631,-494.0038 564.7631,-494.0038"/>
<polygon fill="#90716c" stroke="#90716c" points="737.7097,-383.8167 748.3264,-386.5619 742.6378,-382.9716 747.5659,-382.1266 747.5659,-382.1266 747.5659,-382.1266 742.6378,-382.9716 746.8053,-377.6913 737.7097,-383.8167 737.7097,-383.8167"/>
</g>
<!-- FactorPack -->
<g id="node18" class="node">
<title>FactorPack</title>
<ellipse fill="none" stroke="#000000" cx="182" cy="-738" rx="49.7792" ry="18"/>
<text text-anchor="middle" x="182" y="-733.8" font-family="Times,serif" font-size="14.00" fill="#000000">FactorPack</text>
</g>
<!-- FactorPack&#45;&gt;Project -->
<g id="edge30" class="edge">
<title>FactorPack&#45;&gt;Project</title>
<path fill="none" stroke="#204ef2" d="M211.3497,-716.8682C224.5472,-707.366 240.0732,-696.1873 253.2043,-686.7329"/>
<ellipse fill="none" stroke="#204ef2" cx="207.9377" cy="-719.3248" rx="4" ry="4"/>
<polygon fill="#204ef2" stroke="#204ef2" points="253.3237,-686.647 264.0684,-684.4558 257.3813,-683.7254 261.439,-680.8039 261.439,-680.8039 261.439,-680.8039 257.3813,-683.7254 258.8096,-677.152 253.3237,-686.647 253.3237,-686.647"/>
</g>
<!-- FactorPack&#45;&gt;Factor -->
<g id="edge29" class="edge">
<title>FactorPack&#45;&gt;Factor</title>
<path fill="none" stroke="#1b546b" d="M185.7371,-711.9608C191.5948,-671.1456 202.8929,-592.4238 208.9424,-550.2723"/>
<ellipse fill="none" stroke="#1b546b" cx="185.158" cy="-715.996" rx="4" ry="4"/>
<polygon fill="#1b546b" stroke="#1b546b" points="208.9751,-550.0436 214.8502,-540.7844 209.6855,-545.0944 210.3958,-540.1451 210.3958,-540.1451 210.3958,-540.1451 209.6855,-545.0944 205.9415,-539.5057 208.9751,-550.0436 208.9751,-550.0436"/>
</g>
<!-- Experience -->
<g id="node19" class="node">
<title>Experience</title>
<ellipse fill="none" stroke="#000000" cx="1390" cy="-306" rx="49.7533" ry="18"/>
<text text-anchor="middle" x="1390" y="-301.8" font-family="Times,serif" font-size="14.00" fill="#000000">Experience</text>
</g>
<!-- Experience&#45;&gt;Reaction -->
<g id="edge31" class="edge">
<title>Experience&#45;&gt;Reaction</title>
<path fill="none" stroke="#73d6ee" d="M1387.4222,-279.6642C1382.3747,-243.2329 1367.729,-178.1034 1326,-144 1288.1424,-113.0606 1149.8766,-98.7952 1073.5227,-93.1508"/>
<ellipse fill="none" stroke="#73d6ee" cx="1387.9565" cy="-283.8739" rx="4" ry="4"/>
<polygon fill="#73d6ee" stroke="#73d6ee" points="1073.1511,-93.1243 1063.4977,-87.9222 1068.1639,-92.7675 1063.1766,-92.4107 1063.1766,-92.4107 1063.1766,-92.4107 1068.1639,-92.7675 1062.8555,-96.8993 1073.1511,-93.1243 1073.1511,-93.1243"/>
</g>
<!-- Narrative&#45;&gt;Reaction -->
<g id="edge34" class="edge">
<title>Narrative&#45;&gt;Reaction</title>
<path fill="none" stroke="#3ed50d" d="M870.4287,-287.4667C885.8619,-278.0065 903.855,-265.6245 918,-252 959.7364,-211.7994 992.6442,-151.7416 1009.5373,-117.1651"/>
<ellipse fill="none" stroke="#3ed50d" cx="866.9704" cy="-289.5428" rx="4" ry="4"/>
<polygon fill="#3ed50d" stroke="#3ed50d" points="1009.7444,-116.7327 1018.1233,-109.6585 1011.9047,-112.2235 1014.0649,-107.7142 1014.0649,-107.7142 1014.0649,-107.7142 1011.9047,-112.2235 1010.0066,-105.77 1009.7444,-116.7327 1009.7444,-116.7327"/>
</g>
<!-- Narrative&#45;&gt;Week -->
<g id="edge32" class="edge">
<title>Narrative&#45;&gt;Week</title>
<path fill="none" stroke="#acad8a" d="M832.2489,-279.686C831.2068,-273.9144 830.0999,-267.7839 829.0466,-261.9507"/>
<ellipse fill="none" stroke="#acad8a" cx="833.0088" cy="-283.895" rx="4" ry="4"/>
<polygon fill="#acad8a" stroke="#acad8a" points="829.0113,-261.7543 831.6628,-251.1138 828.1228,-256.8339 827.2344,-251.9134 827.2344,-251.9134 827.2344,-251.9134 828.1228,-256.8339 822.806,-252.713 829.0113,-261.7543 829.0113,-261.7543"/>
</g>
<!-- Narrative&#45;&gt;Behavior -->
<g id="edge33" class="edge">
<title>Narrative&#45;&gt;Behavior</title>
<path fill="none" stroke="#77143d" d="M866.0004,-285.4072C876.8798,-276.315 888.4291,-264.784 896,-252 907.5857,-232.4368 913.0845,-207.0387 915.686,-188.2136"/>
<ellipse fill="none" stroke="#77143d" cx="862.8241" cy="-287.9625" rx="4" ry="4"/>
<ellipse fill="#77143d" stroke="#77143d" cx="916.1998" cy="-184.0413" rx="4" ry="4"/>
</g>
<!-- Diagnosis&#45;&gt;User -->
<g id="edge35" class="edge">
<title>Diagnosis&#45;&gt;User</title>
<path fill="none" stroke="#0d1362" d="M845.9693,-38.592C813.3995,-63.6232 766,-109.1332 766,-162 766,-234 766,-234 766,-234 766,-275.071 769.2845,-322.63 771.6444,-351.5006"/>
<ellipse fill="none" stroke="#0d1362" cx="849.4716" cy="-35.9659" rx="4" ry="4"/>
<ellipse fill="#0d1362" stroke="#0d1362" cx="772.0084" cy="-355.8466" rx="4" ry="4"/>
</g>
<!-- HomeCountry&#45;&gt;HomeState -->
<g id="edge37" class="edge">
<title>HomeCountry&#45;&gt;HomeState</title>
<path fill="none" stroke="#6eb145" d="M1057.2749,-282.7567C1064.6318,-275.0798 1072.8407,-266.5141 1080.3003,-258.7302"/>
<ellipse fill="none" stroke="#6eb145" cx="1054.4706" cy="-285.6828" rx="4" ry="4"/>
<polygon fill="#6eb145" stroke="#6eb145" points="1080.5318,-258.4886 1090.6998,-254.3823 1083.9913,-254.8786 1087.4508,-251.2687 1087.4508,-251.2687 1087.4508,-251.2687 1083.9913,-254.8786 1084.2019,-248.1551 1080.5318,-258.4886 1080.5318,-258.4886"/>
</g>
<!-- HomeCountry&#45;&gt;User -->
<g id="edge36" class="edge">
<title>HomeCountry&#45;&gt;User</title>
<path fill="none" stroke="#c008dd" d="M983.1809,-321.8694C931.7948,-336.5143 854.5803,-357.7096 809.6725,-369.418"/>
<polygon fill="#c008dd" stroke="#c008dd" points="983.4822,-321.7832 994.3343,-323.3589 988.2894,-320.4078 993.0965,-319.0325 993.0965,-319.0325 993.0965,-319.0325 988.2894,-320.4078 991.8587,-314.7061 983.4822,-321.7832 983.4822,-321.7832"/>
<polygon fill="#c008dd" stroke="#c008dd" points="809.431,-369.4805 798.6226,-367.6286 804.5903,-370.7328 799.7497,-371.9852 799.7497,-371.9852 799.7497,-371.9852 804.5903,-370.7328 800.8768,-376.3417 809.431,-369.4805 809.431,-369.4805"/>
</g>
<!-- Quote -->
<g id="node23" class="node">
<title>Quote</title>
<ellipse fill="none" stroke="#000000" cx="555" cy="-828.5" rx="31.9393" ry="18"/>
<text text-anchor="middle" x="555" y="-824.3" font-family="Times,serif" font-size="14.00" fill="#000000">Quote</text>
</g>
<!-- CandidateList&#45;&gt;Candidate -->
<g id="edge38" class="edge">
<title>CandidateList&#45;&gt;Candidate</title>
<path fill="none" stroke="#e3a85c" d="M477.0651,-137.348C481.1743,-130.6239 485.643,-123.3115 489.8118,-116.4898"/>
<ellipse fill="none" stroke="#e3a85c" cx="474.9622" cy="-140.7891" rx="4" ry="4"/>
<polygon fill="#e3a85c" stroke="#e3a85c" points="490.0342,-116.1259 499.0885,-109.9396 492.6414,-111.8594 495.2487,-107.593 495.2487,-107.593 495.2487,-107.593 492.6414,-111.8594 491.4089,-105.2465 490.0342,-116.1259 490.0342,-116.1259"/>
</g>
<!-- CandidateList&#45;&gt;Course -->
<g id="edge39" class="edge">
<title>CandidateList&#45;&gt;Course</title>
<path fill="none" stroke="#db765f" d="M406.566,-174.9005C291.6342,-202.4227 38,-267.5188 38,-306 38,-378 38,-378 38,-378 38,-529.461 64.7627,-595.9488 188,-684 203.1019,-694.7901 312.9226,-717.8069 374.1029,-730.0139"/>
<ellipse fill="none" stroke="#db765f" cx="410.7052" cy="-173.913" rx="4" ry="4"/>
<ellipse fill="#db765f" stroke="#db765f" cx="378.1131" cy="-730.8109" rx="4" ry="4"/>
</g>
<!-- CandidateFeedback -->
<g id="node25" class="node">
<title>CandidateFeedback</title>
<ellipse fill="none" stroke="#000000" cx="266" cy="-162" rx="79.6885" ry="18"/>
<text text-anchor="middle" x="266" y="-157.8" font-family="Times,serif" font-size="14.00" fill="#000000">CandidateFeedback</text>
</g>
<!-- CandidateFeedback&#45;&gt;Candidate -->
<g id="edge40" class="edge">
<title>CandidateFeedback&#45;&gt;Candidate</title>
<path fill="none" stroke="#f448e8" d="M321.7006,-145.2898C363.628,-132.7116 420.4169,-115.6749 459.8285,-103.8515"/>
<ellipse fill="none" stroke="#f448e8" cx="317.8221" cy="-146.4533" rx="4" ry="4"/>
<polygon fill="#f448e8" stroke="#f448e8" points="459.8761,-103.8372 470.7474,-105.2739 464.6652,-102.4005 469.4543,-100.9637 469.4543,-100.9637 469.4543,-100.9637 464.6652,-102.4005 468.1612,-96.6535 459.8761,-103.8372 459.8761,-103.8372"/>
</g>
<!-- Gender&#45;&gt;User -->
<g id="edge41" class="edge">
<title>Gender&#45;&gt;User</title>
<path fill="none" stroke="#2b8a23" d="M538.7823,-436.256C543.213,-434.7497 547.6929,-433.2951 552,-432 616.8818,-412.4912 694.0121,-394.9761 738.1626,-385.479"/>
<ellipse fill="none" stroke="#2b8a23" cx="534.6854" cy="-437.6838" rx="4" ry="4"/>
<polygon fill="#2b8a23" stroke="#2b8a23" points="738.3423,-385.4407 749.0615,-387.7534 743.2321,-384.3967 748.1219,-383.3526 748.1219,-383.3526 748.1219,-383.3526 743.2321,-384.3967 747.1822,-378.9518 738.3423,-385.4407 738.3423,-385.4407"/>
</g>
<!-- Theme -->
<g id="node29" class="node">
<title>Theme</title>
<ellipse fill="none" stroke="#000000" cx="985" cy="-450" rx="34.8198" ry="18"/>
<text text-anchor="middle" x="985" y="-445.8" font-family="Times,serif" font-size="14.00" fill="#000000">Theme</text>
</g>
<!-- Theme&#45;&gt;User -->
<g id="edge42" class="edge">
<title>Theme&#45;&gt;User</title>
<path fill="none" stroke="#085dc1" d="M950.0962,-435.4413C947.0312,-434.2479 943.9674,-433.085 941,-432 895.743,-415.4527 842.6729,-398.7428 808.7125,-388.3857"/>
<ellipse fill="none" stroke="#085dc1" cx="953.9453" cy="-436.9683" rx="4" ry="4"/>
<polygon fill="#085dc1" stroke="#085dc1" points="808.3855,-388.2865 800.1232,-381.0764 803.6009,-386.8345 798.8164,-385.3825 798.8164,-385.3825 798.8164,-385.3825 803.6009,-386.8345 797.5096,-389.6886 808.3855,-388.2865 808.3855,-388.2865"/>
</g>
<!-- Style -->
<g id="node30" class="node">
<title>Style</title>
<ellipse fill="none" stroke="#000000" cx="280" cy="-738" rx="28.0736" ry="18"/>
<text text-anchor="middle" x="280" y="-733.8" font-family="Times,serif" font-size="14.00" fill="#000000">Style</text>
</g>
<!-- Style&#45;&gt;Project -->
<g id="edge43" class="edge">
<title>Style&#45;&gt;Project</title>
<path fill="none" stroke="#c129e5" d="M280.7274,-711.8144C280.8812,-706.2775 281.0443,-700.4053 281.2006,-694.7785"/>
<ellipse fill="none" stroke="#c129e5" cx="280.6158" cy="-715.8329" rx="4" ry="4"/>
<polygon fill="#c129e5" stroke="#c129e5" points="281.2108,-694.4094 285.9868,-684.5383 281.3496,-689.4113 281.4885,-684.4133 281.4885,-684.4133 281.4885,-684.4133 281.3496,-689.4113 276.9903,-684.2883 281.2108,-694.4094 281.2108,-694.4094"/>
</g>
<!-- Course&#45;&gt;Roster -->
<g id="edge45" class="edge">
<title>Course&#45;&gt;Roster</title>
<path fill="none" stroke="#2e9c9d" d="M397.6761,-714.4429C371.2746,-676.1441 324,-597.0833 324,-522 324,-522 324,-522 324,-450 324,-409.7128 329.1097,-363.3414 332.9221,-334.3495"/>
<ellipse fill="none" stroke="#2e9c9d" cx="400.0516" cy="-717.8336" rx="4" ry="4"/>
<polygon fill="#2e9c9d" stroke="#2e9c9d" points="332.963,-334.0474 338.7656,-324.7425 333.6347,-329.0927 334.3064,-324.138 334.3064,-324.138 334.3064,-324.138 333.6347,-329.0927 329.8472,-323.5335 332.963,-334.0474 332.963,-334.0474"/>
</g>
<!-- Course&#45;&gt;Project -->
<g id="edge44" class="edge">
<title>Course&#45;&gt;Project</title>
<path fill="none" stroke="#9726d5" d="M383.5493,-720.9741C362.9384,-709.8163 336.038,-695.2537 315.1024,-683.9201"/>
<ellipse fill="none" stroke="#9726d5" cx="387.0881" cy="-722.8898" rx="4" ry="4"/>
<polygon fill="#9726d5" stroke="#9726d5" points="315.0337,-683.8829 308.3819,-675.1649 310.6366,-681.5026 306.2396,-679.1222 306.2396,-679.1222 306.2396,-679.1222 310.6366,-681.5026 304.0973,-683.0795 315.0337,-683.8829 315.0337,-683.8829"/>
</g>
<!-- Course&#45;&gt;Experience -->
<g id="edge48" class="edge">
<title>Course&#45;&gt;Experience</title>
<path fill="none" stroke="#0adfea" d="M458.1632,-736.8441C634.6822,-731.9391 1293.9273,-711.8155 1328,-684 1360.0688,-657.8204 1352,-635.3978 1352,-594 1352,-594 1352,-594 1352,-450 1352,-408.1368 1367.2003,-361.6262 1378.3737,-333.0925"/>
<ellipse fill="none" stroke="#0adfea" cx="454.1253" cy="-736.9556" rx="4" ry="4"/>
<polygon fill="#0adfea" stroke="#0adfea" points="1378.3864,-333.0608 1386.2998,-325.4695 1380.2564,-328.4237 1382.1264,-323.7865 1382.1264,-323.7865 1382.1264,-323.7865 1380.2564,-328.4237 1377.9529,-322.1035 1378.3864,-333.0608 1378.3864,-333.0608"/>
</g>
<!-- Course&#45;&gt;BingoGame -->
<g id="edge46" class="edge">
<title>Course&#45;&gt;BingoGame</title>
<path fill="none" stroke="#439702" d="M372.8129,-731.2275C335.3491,-723.8434 280.1623,-709.5177 238,-684 199.5518,-660.7301 189.2606,-651.0412 167,-612 93.9336,-483.8544 .4482,-401.2252 95,-288 124.3506,-252.8528 251.7146,-240.535 330.1302,-236.2515"/>
<ellipse fill="none" stroke="#439702" cx="377.0663" cy="-732.0374" rx="4" ry="4"/>
<polygon fill="#439702" stroke="#439702" points="330.3963,-236.2378 340.6152,-240.2157 335.3896,-235.9798 340.3829,-235.7217 340.3829,-235.7217 340.3829,-235.7217 335.3896,-235.9798 340.1507,-231.2277 330.3963,-236.2378 330.3963,-236.2378"/>
</g>
<!-- Course&#45;&gt;User -->
<g id="edge47" class="edge">
<title>Course&#45;&gt;User</title>
<path fill="none" stroke="#84fad9" d="M460.4235,-734.5218C627.7387,-721.1123 1200,-669.714 1200,-594 1200,-594 1200,-594 1200,-522 1200,-440.1072 913.8988,-395.7283 810.6229,-382.3763"/>
<polygon fill="#84fad9" stroke="#84fad9" points="459.9673,-734.5579 449.6423,-730.8641 454.983,-734.9539 449.9987,-735.3499 449.9987,-735.3499 449.9987,-735.3499 454.983,-734.9539 450.3551,-739.8358 459.9673,-734.5579 459.9673,-734.5579"/>
<polygon fill="#84fad9" stroke="#84fad9" points="810.5686,-382.3695 801.2149,-376.646 805.6084,-381.7398 800.6482,-381.1102 800.6482,-381.1102 800.6482,-381.1102 805.6084,-381.7398 800.0815,-385.5743 810.5686,-382.3695 810.5686,-382.3695"/>
</g>
<!-- BingoGame&#45;&gt;Candidate -->
<g id="edge51" class="edge">
<title>BingoGame&#45;&gt;Candidate</title>
<path fill="none" stroke="#771480" d="M385.6971,-206.043C382.404,-187.1026 381.4694,-162.2898 393,-144 406.7481,-122.1929 431.9995,-109.0024 455.1503,-101.1247"/>
<polygon fill="#771480" stroke="#771480" points="385.7055,-206.0844 383.296,-216.7823 386.7053,-210.9835 387.7051,-215.8825 387.7051,-215.8825 387.7051,-215.8825 386.7053,-210.9835 392.1142,-214.9827 385.7055,-206.0844 385.7055,-206.0844"/>
<polygon fill="#771480" stroke="#771480" points="455.3624,-101.0581 466.251,-102.3577 460.1331,-99.5611 464.9037,-98.0641 464.9037,-98.0641 464.9037,-98.0641 460.1331,-99.5611 463.5564,-93.7705 455.3624,-101.0581 455.3624,-101.0581"/>
</g>
<!-- BingoGame&#45;&gt;Group -->
<g id="edge53" class="edge">
<title>BingoGame&#45;&gt;Group</title>
<path fill="none" stroke="#93fecb" d="M393.5155,-262.2765C395.8143,-309.9506 406.8261,-407.0716 457,-468 474.6201,-489.3969 502.8241,-503.0478 526.1277,-511.2712"/>
<polygon fill="#93fecb" stroke="#93fecb" points="393.5076,-262.0689 397.6192,-251.903 393.3151,-257.0726 393.1225,-252.0763 393.1225,-252.0763 393.1225,-252.0763 393.3151,-257.0726 388.6259,-252.2496 393.5076,-262.0689 393.5076,-262.0689"/>
<polygon fill="#93fecb" stroke="#93fecb" points="526.2785,-511.3211 534.3529,-518.741 531.0242,-512.8955 535.7699,-514.4699 535.7699,-514.4699 535.7699,-514.4699 531.0242,-512.8955 537.1868,-510.1988 526.2785,-511.3211 526.2785,-511.3211"/>
</g>
<!-- BingoGame&#45;&gt;CandidateList -->
<g id="edge49" class="edge">
<title>BingoGame&#45;&gt;CandidateList</title>
<path fill="none" stroke="#9fd31a" d="M415.5057,-210.5158C422.7576,-202.9486 430.8172,-194.5386 438.1618,-186.8747"/>
<ellipse fill="none" stroke="#9fd31a" cx="412.4706" cy="-213.6828" rx="4" ry="4"/>
<polygon fill="#9fd31a" stroke="#9fd31a" points="438.2926,-186.7381 448.4606,-182.6318 441.7521,-183.1282 445.2117,-179.5182 445.2117,-179.5182 445.2117,-179.5182 441.7521,-183.1282 441.9627,-176.4047 438.2926,-186.7381 438.2926,-186.7381"/>
</g>
<!-- BingoBoard -->
<g id="node37" class="node">
<title>BingoBoard</title>
<ellipse fill="none" stroke="#000000" cx="631" cy="-162" rx="53.1797" ry="18"/>
<text text-anchor="middle" x="631" y="-157.8" font-family="Times,serif" font-size="14.00" fill="#000000">BingoBoard</text>
</g>
<!-- BingoGame&#45;&gt;BingoBoard -->
<g id="edge50" class="edge">
<title>BingoGame&#45;&gt;BingoBoard</title>
<path fill="none" stroke="#dc0db2" d="M440.2705,-219.6997C481.0722,-207.3563 539.8206,-189.5837 581.3118,-177.0317"/>
<ellipse fill="none" stroke="#dc0db2" cx="436.3967" cy="-220.8716" rx="4" ry="4"/>
<polygon fill="#dc0db2" stroke="#dc0db2" points="581.3682,-177.0147 592.2428,-178.4263 586.154,-175.5669 590.9398,-174.1191 590.9398,-174.1191 590.9398,-174.1191 586.154,-175.5669 589.6367,-169.8118 581.3682,-177.0147 581.3682,-177.0147"/>
</g>
<!-- BingoGame&#45;&gt;User -->
<g id="edge52" class="edge">
<title>BingoGame&#45;&gt;User</title>
<path fill="none" stroke="#b9f11d" d="M405.9267,-261.0942C417.2396,-281.7333 435.671,-309.0642 460,-324 505.941,-352.2036 663.9517,-368.7638 736.744,-375.0609"/>
<polygon fill="#b9f11d" stroke="#b9f11d" points="405.8805,-261.0059 405.219,-250.06 403.5573,-256.5784 401.2342,-252.1508 401.2342,-252.1508 401.2342,-252.1508 403.5573,-256.5784 397.2494,-254.2416 405.8805,-261.0059 405.8805,-261.0059"/>
<polygon fill="#b9f11d" stroke="#b9f11d" points="736.8776,-375.0722 746.4624,-380.3997 741.8598,-375.494 746.842,-375.9157 746.842,-375.9157 746.842,-375.9157 741.8598,-375.494 747.2216,-371.4318 736.8776,-375.0722 736.8776,-375.0722"/>
</g>
<!-- Behavior&#45;&gt;Reaction -->
<g id="edge55" class="edge">
<title>Behavior&#45;&gt;Reaction</title>
<path fill="none" stroke="#973bcb" d="M947.1823,-141.7969C960.9724,-132.2499 977.433,-120.8541 991.399,-111.1853"/>
<ellipse fill="none" stroke="#973bcb" cx="943.5994" cy="-144.2773" rx="4" ry="4"/>
<polygon fill="#973bcb" stroke="#973bcb" points="991.5043,-111.1124 1002.2878,-109.1201 995.6153,-108.2663 999.7263,-105.4203 999.7263,-105.4203 999.7263,-105.4203 995.6153,-108.2663 997.1648,-101.7204 991.5043,-111.1124 991.5043,-111.1124"/>
</g>
<!-- Behavior&#45;&gt;Scenario -->
<g id="edge54" class="edge">
<title>Behavior&#45;&gt;Scenario</title>
<path fill="none" stroke="#08de86" d="M903.4533,-137.0628C899.5595,-130.3877 895.3379,-123.1506 891.3997,-116.3995"/>
<ellipse fill="none" stroke="#08de86" cx="905.6025" cy="-140.7471" rx="4" ry="4"/>
<polygon fill="#08de86" stroke="#08de86" points="891.3014,-116.2308 890.1496,-105.3256 888.782,-111.9119 886.2626,-107.593 886.2626,-107.593 886.2626,-107.593 888.782,-111.9119 882.3756,-109.8605 891.3014,-116.2308 891.3014,-116.2308"/>
</g>
<!-- Behavior&#45;&gt;Diagnosis -->
<g id="edge56" class="edge">
<title>Behavior&#45;&gt;Diagnosis</title>
<path fill="none" stroke="#bde5cf" d="M926.2669,-136.3451C930.818,-117.8462 934.0766,-92.6105 926,-72 921.4571,-60.4071 913.1272,-49.8151 904.5519,-41.1419"/>
<ellipse fill="none" stroke="#bde5cf" cx="925.2297" cy="-140.2146" rx="4" ry="4"/>
<polygon fill="#bde5cf" stroke="#bde5cf" points="904.3063,-40.9095 900.1345,-30.7682 900.6741,-37.4733 897.0419,-34.0371 897.0419,-34.0371 897.0419,-34.0371 900.6741,-37.4733 893.9493,-37.3061 904.3063,-40.9095 904.3063,-40.9095"/>
</g>
<!-- ApplicationRecord -->
<g id="node34" class="node">
<title>ApplicationRecord</title>
<ellipse fill="none" stroke="#000000" cx="682" cy="-828.5" rx="77.2916" ry="18"/>
<text text-anchor="middle" x="682" y="-824.3" font-family="Times,serif" font-size="14.00" fill="#000000">ApplicationRecord</text>
</g>
<!-- Assessment&#45;&gt;Factor -->
<g id="edge59" class="edge">
<title>Assessment&#45;&gt;Factor</title>
<path fill="none" stroke="#73ed7a" d="M490.086,-582.2725C423.8647,-567.8679 313.0264,-543.758 253.5857,-530.8283"/>
<polygon fill="#73ed7a" stroke="#73ed7a" points="490.2743,-582.3134 499.0892,-588.8361 495.16,-583.3762 500.0458,-584.439 500.0458,-584.439 500.0458,-584.439 495.16,-583.3762 501.0023,-580.0418 490.2743,-582.3134 490.2743,-582.3134"/>
<polygon fill="#73ed7a" stroke="#73ed7a" points="253.5757,-530.8262 244.7607,-524.3034 248.69,-529.7634 243.8042,-528.7006 243.8042,-528.7006 243.8042,-528.7006 248.69,-529.7634 242.8477,-533.0978 253.5757,-530.8262 253.5757,-530.8262"/>
</g>
<!-- Assessment&#45;&gt;Group -->
<g id="edge61" class="edge">
<title>Assessment&#45;&gt;Group</title>
<path fill="none" stroke="#d3799b" d="M552.4744,-566.2657C554.1214,-560.8753 555.8483,-555.2236 557.4963,-549.8302"/>
<polygon fill="#d3799b" stroke="#d3799b" points="552.4738,-566.2678 545.2479,-574.5163 551.0127,-571.0496 549.5515,-575.8314 549.5515,-575.8314 549.5515,-575.8314 551.0127,-571.0496 553.8551,-577.1464 552.4738,-566.2678 552.4738,-566.2678"/>
<polygon fill="#d3799b" stroke="#d3799b" points="557.6042,-549.4769 564.83,-541.2284 559.0653,-544.6952 560.5265,-539.9134 560.5265,-539.9134 560.5265,-539.9134 559.0653,-544.6952 556.2229,-538.5984 557.6042,-549.4769 557.6042,-549.4769"/>
</g>
<!-- Assessment&#45;&gt;Course -->
<g id="edge57" class="edge">
<title>Assessment&#45;&gt;Course</title>
<path fill="none" stroke="#fb457a" d="M523.0666,-617.3675C498.8619,-644.3868 459.2868,-688.5636 435.3376,-715.2975"/>
<ellipse fill="none" stroke="#fb457a" cx="525.9067" cy="-614.1972" rx="4" ry="4"/>
<ellipse fill="#fb457a" stroke="#fb457a" cx="432.4669" cy="-718.502" rx="4" ry="4"/>
</g>
<!-- Assessment&#45;&gt;Installment -->
<g id="edge58" class="edge">
<title>Assessment&#45;&gt;Installment</title>
<path fill="none" stroke="#7eb946" d="M602.44,-588.7951C696.9152,-579.9182 878.7922,-560.7832 940,-540 1062.1467,-498.5248 1116.0179,-500.2436 1192,-396 1204.9558,-378.2253 1209.4705,-353.5247 1210.8768,-334.496"/>
<ellipse fill="none" stroke="#7eb946" cx="598.3899" cy="-589.1731" rx="4" ry="4"/>
<polygon fill="#7eb946" stroke="#7eb946" points="1210.8861,-334.3039 1215.8737,-324.5379 1211.1326,-329.31 1211.3791,-324.316 1211.3791,-324.316 1211.3791,-324.316 1211.1326,-329.31 1206.8846,-324.0942 1210.8861,-334.3039 1210.8861,-334.3039"/>
</g>
<!-- Assessment&#45;&gt;User -->
<g id="edge60" class="edge">
<title>Assessment&#45;&gt;User</title>
<path fill="none" stroke="#a56ca5" d="M603.6517,-587.4965C721.4284,-573.2969 976.9612,-535.2856 1029,-468 1038.7885,-455.3436 1039.0738,-444.4305 1029,-432 1002.0108,-398.6969 875.311,-385.1113 811.2639,-380.2986"/>
<polygon fill="#a56ca5" stroke="#a56ca5" points="603.6432,-587.4974 593.1821,-584.209 598.6782,-588.0875 593.7131,-588.6775 593.7131,-588.6775 593.7131,-588.6775 598.6782,-588.0875 594.2442,-593.1461 603.6432,-587.4974 603.6432,-587.4974"/>
<polygon fill="#a56ca5" stroke="#a56ca5" points="811.1522,-380.2907 801.5002,-375.086 806.1651,-379.9326 801.1779,-379.5745 801.1779,-379.5745 801.1779,-379.5745 806.1651,-379.9326 800.8556,-384.0629 811.1522,-380.2907 811.1522,-380.2907"/>
</g>
<!-- Installment&#45;&gt;Value -->
<g id="edge62" class="edge">
<title>Installment&#45;&gt;Value</title>
<path fill="none" stroke="#9a7488" d="M1211,-279.8144C1211,-274.2775 1211,-268.4053 1211,-262.7785"/>
<ellipse fill="none" stroke="#9a7488" cx="1211" cy="-283.8314" rx="4" ry="4"/>
<polygon fill="#9a7488" stroke="#9a7488" points="1211.0001,-262.4133 1215.5,-252.4132 1211,-257.4133 1211,-252.4133 1211,-252.4133 1211,-252.4133 1211,-257.4133 1206.5,-252.4133 1211.0001,-262.4133 1211.0001,-262.4133"/>
</g>
<!-- BingoBoard&#45;&gt;Concept -->
<g id="edge64" class="edge">
<title>BingoBoard&#45;&gt;Concept</title>
<path fill="none" stroke="#63cbbc" d="M614.6323,-188.4825C598.5489,-214.5051 574.1544,-253.9748 558.1474,-279.8738"/>
<polygon fill="#63cbbc" stroke="#63cbbc" points="614.6898,-188.3895 623.7752,-182.249 617.3185,-184.1363 619.9473,-179.8831 619.9473,-179.8831 619.9473,-179.8831 617.3185,-184.1363 616.1194,-177.5172 614.6898,-188.3895 614.6898,-188.3895"/>
<polygon fill="#63cbbc" stroke="#63cbbc" points="557.993,-280.1238 548.9076,-286.2644 555.3642,-284.377 552.7355,-288.6302 552.7355,-288.6302 552.7355,-288.6302 555.3642,-284.377 556.5634,-290.9961 557.993,-280.1238 557.993,-280.1238"/>
</g>
<!-- BingoBoard&#45;&gt;BingoCell -->
<g id="edge63" class="edge">
<title>BingoBoard&#45;&gt;BingoCell</title>
<path fill="none" stroke="#32aebb" d="M617.8459,-136.7441C604.4136,-110.9542 583.6413,-71.0712 569.9333,-44.752"/>
<ellipse fill="none" stroke="#32aebb" cx="619.8051" cy="-140.5058" rx="4" ry="4"/>
<polygon fill="#32aebb" stroke="#32aebb" points="569.8487,-44.5895 569.2205,-33.6416 567.5391,-40.1549 565.2294,-35.7204 565.2294,-35.7204 565.2294,-35.7204 567.5391,-40.1549 561.2382,-37.7991 569.8487,-44.5895 569.8487,-44.5895"/>
</g>
<!-- User&#45;&gt;Roster -->
<g id="edge73" class="edge">
<title>User&#45;&gt;Roster</title>
<path fill="none" stroke="#e8b1ac" d="M739.3663,-373.3483C676.1355,-364.7086 537.8353,-345.1326 422,-324 407.5514,-321.3641 391.7976,-318.1294 377.8215,-315.1327"/>
<ellipse fill="none" stroke="#e8b1ac" cx="743.4569" cy="-373.9052" rx="4" ry="4"/>
<polygon fill="#e8b1ac" stroke="#e8b1ac" points="377.7761,-315.1229 368.9562,-308.6068 372.8896,-314.0638 368.003,-313.0047 368.003,-313.0047 368.003,-313.0047 372.8896,-314.0638 367.0498,-317.4026 377.7761,-315.1229 377.7761,-315.1229"/>
</g>
<!-- User&#45;&gt;Reaction -->
<g id="edge74" class="edge">
<title>User&#45;&gt;Reaction</title>
<path fill="none" stroke="#80c666" d="M806.2425,-367.3728C830.5847,-358.3296 863.9575,-343.671 889,-324 904.8866,-311.521 991.4474,-198.302 1000,-180 1009.1649,-160.3875 1014.7739,-136.5217 1018.0328,-118.2954"/>
<ellipse fill="none" stroke="#80c666" cx="802.4397" cy="-368.7494" rx="4" ry="4"/>
<polygon fill="#80c666" stroke="#80c666" points="1018.0557,-118.1562 1024.1287,-109.0255 1018.8724,-113.2233 1019.6891,-108.2905 1019.6891,-108.2905 1019.6891,-108.2905 1018.8724,-113.2233 1015.2495,-107.5555 1018.0557,-118.1562 1018.0557,-118.1562"/>
</g>
<!-- User&#45;&gt;Candidate -->
<g id="edge70" class="edge">
<title>User&#45;&gt;Candidate</title>
<path fill="none" stroke="#cccff0" d="M763.3954,-353.0169C759.6535,-343.9346 755.5075,-333.5551 752,-324 722.9891,-244.9685 753.5806,-202.4602 693,-144 673.7038,-125.3792 606.4589,-109.0916 558.135,-99.4013"/>
<ellipse fill="none" stroke="#cccff0" cx="765.0176" cy="-356.9177" rx="4" ry="4"/>
<polygon fill="#cccff0" stroke="#cccff0" points="557.9466,-99.3643 549.0025,-93.0197 553.0405,-98.3997 548.1344,-97.4351 548.1344,-97.4351 548.1344,-97.4351 553.0405,-98.3997 547.2663,-101.8506 557.9466,-99.3643 557.9466,-99.3643"/>
</g>
<!-- User&#45;&gt;Concept -->
<g id="edge68" class="edge">
<title>User&#45;&gt;Concept</title>
<path fill="none" stroke="#6fea28" d="M741.0629,-368.9785C704.2713,-358.7398 643.043,-341.2171 591,-324 588.0827,-323.0349 585.0785,-322.0096 582.0618,-320.9572"/>
<ellipse fill="none" stroke="#6fea28" cx="745.1222" cy="-370.1043" rx="4" ry="4"/>
<polygon fill="#6fea28" stroke="#6fea28" points="581.8948,-320.8978 573.9839,-313.3038 577.1846,-319.2204 572.4743,-317.543 572.4743,-317.543 572.4743,-317.543 577.1846,-319.2204 570.9647,-321.7822 581.8948,-320.8978 581.8948,-320.8978"/>
</g>
<!-- User&#45;&gt;Email -->
<g id="edge65" class="edge">
<title>User&#45;&gt;Email</title>
<path fill="none" stroke="#a822aa" d="M744.8002,-363.298C721.3647,-351.4983 688.4624,-334.9321 664.0605,-322.6459"/>
<ellipse fill="none" stroke="#a822aa" cx="748.7087" cy="-365.2659" rx="4" ry="4"/>
<polygon fill="#a822aa" stroke="#a822aa" points="663.7661,-322.4977 656.8581,-313.9812 659.3002,-320.2491 654.8344,-318.0005 654.8344,-318.0005 654.8344,-318.0005 659.3002,-320.2491 652.8106,-322.0198 663.7661,-322.4977 663.7661,-322.4977"/>
</g>
<!-- User&#45;&gt;ConsentLog -->
<g id="edge66" class="edge">
<title>User&#45;&gt;ConsentLog</title>
<path fill="none" stroke="#32046a" d="M739.0739,-374.2737C659.977,-365.7886 461.1196,-344.1961 295,-324 269.3964,-320.8872 241.15,-317.2406 216.9169,-314.0465"/>
<ellipse fill="none" stroke="#32046a" cx="743.2585" cy="-374.7221" rx="4" ry="4"/>
<polygon fill="#32046a" stroke="#32046a" points="216.7101,-314.0193 207.3863,-308.2471 211.7532,-313.3638 206.7964,-312.7083 206.7964,-312.7083 206.7964,-312.7083 211.7532,-313.3638 206.2064,-317.1694 216.7101,-314.0193 216.7101,-314.0193"/>
</g>
<!-- User&#45;&gt;Experience -->
<g id="edge75" class="edge">
<title>User&#45;&gt;Experience</title>
<path fill="none" stroke="#1ee716" d="M811.0632,-374.4822C893.6127,-366.5338 1098.823,-346.1472 1270,-324 1291.0004,-321.2829 1314.0099,-317.9245 1334.2131,-314.8472"/>
<polygon fill="#1ee716" stroke="#1ee716" points="810.8825,-374.4995 800.4984,-370.9754 805.9054,-374.9771 800.9283,-375.4548 800.9283,-375.4548 800.9283,-375.4548 805.9054,-374.9771 801.3582,-379.9342 810.8825,-374.4995 810.8825,-374.4995"/>
<polygon fill="#1ee716" stroke="#1ee716" points="1334.3053,-314.8331 1344.8723,-317.7639 1339.2474,-314.0746 1344.1896,-313.316 1344.1896,-313.316 1344.1896,-313.316 1339.2474,-314.0746 1343.5068,-308.8681 1334.3053,-314.8331 1334.3053,-314.8331"/>
</g>
<!-- User&#45;&gt;Narrative -->
<g id="edge76" class="edge">
<title>User&#45;&gt;Narrative</title>
<path fill="none" stroke="#7f0639" d="M794.5061,-354.5644C801.0934,-347.0361 808.4142,-338.6695 815.0977,-331.0312"/>
<polygon fill="#7f0639" stroke="#7f0639" points="794.2551,-354.8513 784.2835,-359.4138 790.9626,-358.6142 787.6701,-362.3771 787.6701,-362.3771 787.6701,-362.3771 790.9626,-358.6142 791.0567,-365.3404 794.2551,-354.8513 794.2551,-354.8513"/>
<polygon fill="#7f0639" stroke="#7f0639" points="815.4499,-330.6287 825.4215,-326.0662 818.7424,-326.8658 822.0349,-323.1029 822.0349,-323.1029 822.0349,-323.1029 818.7424,-326.8658 818.6483,-320.1396 815.4499,-330.6287 815.4499,-330.6287"/>
</g>
<!-- User&#45;&gt;HomeCountry -->
<g id="edge71" class="edge">
<title>User&#45;&gt;HomeCountry</title>
<path fill="none" stroke="#54b689" d="M806.2995,-367.7407C849.7395,-355.1271 927.3254,-333.6745 980.0133,-319.671"/>
<ellipse fill="none" stroke="#54b689" cx="802.3358" cy="-368.8983" rx="4" ry="4"/>
<ellipse fill="#54b689" stroke="#54b689" cx="984.056" cy="-318.6" rx="4" ry="4"/>
</g>
<!-- User&#45;&gt;CandidateList -->
<g id="edge67" class="edge">
<title>User&#45;&gt;CandidateList</title>
<path fill="none" stroke="#462cc0" d="M738.7339,-376.0437C671.1587,-371.5488 527.0941,-358.1209 493,-324 457.7819,-288.7543 456.1172,-226.5807 458.6641,-190.367"/>
<ellipse fill="none" stroke="#462cc0" cx="742.9784" cy="-376.3161" rx="4" ry="4"/>
<polygon fill="#462cc0" stroke="#462cc0" points="458.6971,-189.9832 464.0406,-180.4073 459.1272,-185.0018 459.5572,-180.0203 459.5572,-180.0203 459.5572,-180.0203 459.1272,-185.0018 455.0739,-179.6332 458.6971,-189.9832 458.6971,-189.9832"/>
</g>
<!-- User&#45;&gt;Installment -->
<g id="edge72" class="edge">
<title>User&#45;&gt;Installment</title>
<path fill="none" stroke="#ef3de5" d="M808.6557,-372.4221C868.9221,-362.7051 996.9367,-341.9898 1105,-324 1121.5442,-321.2458 1139.533,-318.2076 1155.9142,-315.4239"/>
<ellipse fill="none" stroke="#ef3de5" cx="804.5596" cy="-373.0823" rx="4" ry="4"/>
<polygon fill="#ef3de5" stroke="#ef3de5" points="1156.0205,-315.4059 1166.6337,-318.1647 1160.9497,-314.5672 1165.8788,-313.7285 1165.8788,-313.7285 1165.8788,-313.7285 1160.9497,-314.5672 1165.1239,-309.2922 1156.0205,-315.4059 1156.0205,-315.4059"/>
</g>
<!-- User&#45;&gt;BingoBoard -->
<g id="edge69" class="edge">
<title>User&#45;&gt;BingoBoard</title>
<path fill="none" stroke="#580da9" d="M749.5685,-359.5061C737.8411,-349.8093 724.1658,-337.2147 714,-324 681.1711,-281.3253 655.2764,-223.6989 641.6268,-189.924"/>
<ellipse fill="none" stroke="#580da9" cx="752.7374" cy="-362.0667" rx="4" ry="4"/>
<polygon fill="#580da9" stroke="#580da9" points="641.477,-189.5463 641.9727,-178.5916 639.6334,-184.8986 637.7898,-180.2509 637.7898,-180.2509 637.7898,-180.2509 639.6334,-184.8986 633.6068,-181.9101 641.477,-189.5463 641.477,-189.5463"/>
</g>
<!-- School -->
<g id="node39" class="node">
<title>School</title>
<ellipse fill="none" stroke="#000000" cx="336" cy="-828.5" rx="34.8458" ry="18"/>
<text text-anchor="middle" x="336" y="-824.3" font-family="Times,serif" font-size="14.00" fill="#000000">School</text>
</g>
<!-- School&#45;&gt;Roster -->
<g id="edge81" class="edge">
<title>School&#45;&gt;Roster</title>
<path fill="none" stroke="#c294d7" d="M312.8879,-805.3122C306.826,-800.2798 300.0104,-795.4406 293,-792 223.6688,-757.9731 190.3531,-793.7915 123,-756 75.0175,-729.0772 38,-721.0196 38,-666 38,-666 38,-666 38,-594 38,-449.8899 220.4007,-355.2033 300.2747,-320.6482"/>
<polygon fill="#c294d7" stroke="#c294d7" points="313.1522,-805.5466 317.6487,-815.5482 316.8933,-808.8639 320.6343,-812.1813 320.6343,-812.1813 320.6343,-812.1813 316.8933,-808.8639 323.6199,-808.8143 313.1522,-805.5466 313.1522,-805.5466"/>
<polygon fill="#c294d7" stroke="#c294d7" points="300.7337,-320.4534 311.697,-320.6875 305.336,-318.4994 309.9384,-316.5453 309.9384,-316.5453 309.9384,-316.5453 305.336,-318.4994 308.1797,-312.4032 300.7337,-320.4534 300.7337,-320.4534"/>
</g>
<!-- School&#45;&gt;Project -->
<g id="edge79" class="edge">
<title>School&#45;&gt;Project</title>
<path fill="none" stroke="#a3cc88" d="M334.148,-800.0556C331.9568,-777.6644 327.2126,-746.0047 317,-720 313.0795,-710.0171 307.1775,-699.9277 301.3315,-691.2154"/>
<polygon fill="#a3cc88" stroke="#a3cc88" points="334.1669,-800.2752 330.5482,-810.6268 334.5991,-805.2565 335.0313,-810.2378 335.0313,-810.2378 335.0313,-810.2378 334.5991,-805.2565 339.5145,-809.8488 334.1669,-800.2752 334.1669,-800.2752"/>
<polygon fill="#a3cc88" stroke="#a3cc88" points="301.323,-691.2033 299.2633,-680.4326 298.4513,-687.1102 295.5795,-683.0171 295.5795,-683.0171 295.5795,-683.0171 298.4513,-687.1102 291.8958,-685.6017 301.323,-691.2033 301.323,-691.2033"/>
</g>
<!-- School&#45;&gt;Experience -->
<g id="edge80" class="edge">
<title>School&#45;&gt;Experience</title>
<path fill="none" stroke="#9debe7" d="M358.7423,-805.4274C365.1319,-800.1844 372.4202,-795.2183 380,-792 588.1952,-703.6028 1390,-892.1842 1390,-666 1390,-666 1390,-666 1390,-450 1390,-409.876 1390,-363.4631 1390,-334.4177"/>
<polygon fill="#9debe7" stroke="#9debe7" points="358.6727,-805.4887 348.1974,-808.7319 354.9239,-808.7973 351.1751,-812.1059 351.1751,-812.1059 351.1751,-812.1059 354.9239,-808.7973 354.1528,-815.4798 358.6727,-805.4887 358.6727,-805.4887"/>
<polygon fill="#9debe7" stroke="#9debe7" points="1390.0001,-334.1854 1394.5,-324.1853 1390,-329.1854 1390,-324.1854 1390,-324.1854 1390,-324.1854 1390,-329.1854 1385.5,-324.1854 1390.0001,-334.1854 1390.0001,-334.1854"/>
</g>
<!-- School&#45;&gt;Course -->
<g id="edge77" class="edge">
<title>School&#45;&gt;Course</title>
<path fill="none" stroke="#a8fcc2" d="M355.7813,-805.8391C367.4274,-792.4978 382.1492,-775.6328 394.0007,-762.0561"/>
<ellipse fill="none" stroke="#a8fcc2" cx="353.1203" cy="-808.8875" rx="4" ry="4"/>
<polygon fill="#a8fcc2" stroke="#a8fcc2" points="394.0258,-762.0274 403.9921,-757.4532 397.3139,-758.2606 400.602,-754.4939 400.602,-754.4939 400.602,-754.4939 397.3139,-758.2606 397.212,-751.5346 394.0258,-762.0274 394.0258,-762.0274"/>
</g>
<!-- School&#45;&gt;BingoGame -->
<g id="edge78" class="edge">
<title>School&#45;&gt;BingoGame</title>
<path fill="none" stroke="#1d576b" d="M313.0239,-805.0246C306.9578,-800.0013 300.1061,-795.2384 293,-792 196.4507,-748.001 145.8202,-814.0401 57,-756 17.3646,-730.1 0,-713.3474 0,-666 0,-666 0,-666 0,-378 0,-328.133 24.4223,-313.9588 67,-288 110.2744,-261.6165 249.1138,-245.9283 330.9837,-238.7402"/>
<polygon fill="#1d576b" stroke="#1d576b" points="313.2932,-805.2645 317.7654,-815.277 317.0262,-808.5909 320.7592,-811.9173 320.7592,-811.9173 320.7592,-811.9173 317.0262,-808.5909 323.7529,-808.5576 313.2932,-805.2645 313.2932,-805.2645"/>
<polygon fill="#1d576b" stroke="#1d576b" points="331.2006,-238.7216 341.5496,-242.3478 336.1822,-238.293 341.1638,-237.8644 341.1638,-237.8644 341.1638,-237.8644 336.1822,-238.293 340.7781,-233.381 331.2006,-238.7216 331.2006,-238.7216"/>
</g>
</g>
</svg>
