<?xml version="1.0" encoding="UTF-8" standalone="no"?>
<!DOCTYPE svg PUBLIC "-//W3C//DTD SVG 1.1//EN"
 "http://www.w3.org/Graphics/SVG/1.1/DTD/svg11.dtd">
<!-- Generated by graphviz version 2.38.0 (20140413.2041)
 -->
<!-- Title: models_diagram Pages: 1 -->
<svg width="1012pt" height="590pt"
 viewBox="0.00 0.00 1012.05 590.00" xmlns="http://www.w3.org/2000/svg" xmlns:xlink="http://www.w3.org/1999/xlink">
<g id="graph0" class="graph" transform="scale(1 1) rotate(0) translate(4 586)">
<title>models_diagram</title>
<polygon fill="none" stroke="none" points="-4,4 -4,-586 1008.05,-586 1008.05,4 -4,4"/>
<!-- _diagram_info -->
<g id="node1" class="node"><title>_diagram_info</title>
<text text-anchor="start" x="8" y="-567.6" font-family="Times,serif" font-size="13.00">Models diagram</text>
<text text-anchor="start" x="8" y="-553.6" font-family="Times,serif" font-size="13.00">Date: Mar 03 2017 &#45; 11:59</text>
<text text-anchor="start" x="8" y="-539.6" font-family="Times,serif" font-size="13.00">Migration version: 0</text>
<text text-anchor="start" x="8" y="-525.6" font-family="Times,serif" font-size="13.00">Generated by RailRoady 1.5.2</text>
<text text-anchor="start" x="8" y="-511.6" font-family="Times,serif" font-size="13.00">http://railroady.prestonlee.com</text>
</g>
<!-- GroupProjectCount -->
<g id="node2" class="node"><title>GroupProjectCount</title>
<ellipse fill="none" stroke="black" cx="602" cy="-450" rx="79.0865" ry="18"/>
<text text-anchor="middle" x="602" y="-446.3" font-family="Times,serif" font-size="14.00">GroupProjectCount</text>
</g>
<!-- User -->
<g id="node10" class="node"><title>User</title>
<ellipse fill="none" stroke="black" cx="471" cy="-378" rx="27.0966" ry="18"/>
<text text-anchor="middle" x="471" y="-374.3" font-family="Times,serif" font-size="14.00">User</text>
</g>
<!-- GroupProjectCount&#45;&gt;User -->
<g id="edge1" class="edge"><title>GroupProjectCount&#45;&gt;User</title>
<path fill="none" stroke="#a9f47e" d="M565.115,-429.29C544.683,-418.372 519.626,-404.984 500.506,-394.766"/>
<ellipse fill="none" stroke="#a9f47e" cx="568.746" cy="-431.231" rx="4.00002" ry="4.00002"/>
<polygon fill="#a9f47e" stroke="#a9f47e" points="500.462,-394.743 493.763,-386.061 496.052,-392.387 491.642,-390.03 491.642,-390.03 491.642,-390.03 496.052,-392.387 489.521,-393.999 500.462,-394.743 500.462,-394.743"/>
</g>
<!-- Theme -->
<g id="node3" class="node"><title>Theme</title>
<ellipse fill="none" stroke="black" cx="324" cy="-543" rx="35.9954" ry="18"/>
<text text-anchor="middle" x="324" y="-539.3" font-family="Times,serif" font-size="14.00">Theme</text>
</g>
<!-- FactorPack -->
<g id="node4" class="node"><title>FactorPack</title>
<ellipse fill="none" stroke="black" cx="954" cy="-378" rx="50.0912" ry="18"/>
<text text-anchor="middle" x="954" y="-374.3" font-family="Times,serif" font-size="14.00">FactorPack</text>
</g>
<!-- Project -->
<g id="node14" class="node"><title>Project</title>
<ellipse fill="none" stroke="black" cx="857" cy="-306" rx="35.9954" ry="18"/>
<text text-anchor="middle" x="857" y="-302.3" font-family="Times,serif" font-size="14.00">Project</text>
</g>
<!-- FactorPack&#45;&gt;Project -->
<g id="edge3" class="edge"><title>FactorPack&#45;&gt;Project</title>
<path fill="none" stroke="#60fa0a" d="M925.97,-356.772C913.185,-347.546 898.076,-336.642 885.263,-327.396"/>
<ellipse fill="none" stroke="#60fa0a" cx="929.229" cy="-359.124" rx="4.00002" ry="4.00002"/>
<polygon fill="#60fa0a" stroke="#60fa0a" points="884.925,-327.152 879.449,-317.651 880.87,-324.226 876.816,-321.3 876.816,-321.3 876.816,-321.3 880.87,-324.226 874.182,-324.949 884.925,-327.152 884.925,-327.152"/>
</g>
<!-- Factor -->
<g id="node19" class="node"><title>Factor</title>
<ellipse fill="none" stroke="black" cx="857" cy="-162" rx="33.2948" ry="18"/>
<text text-anchor="middle" x="857" y="-158.3" font-family="Times,serif" font-size="14.00">Factor</text>
</g>
<!-- FactorPack&#45;&gt;Factor -->
<g id="edge2" class="edge"><title>FactorPack&#45;&gt;Factor</title>
<path fill="none" stroke="#78cfc5" d="M942.176,-350.913C923.52,-309.755 887.465,-230.21 868.815,-189.066"/>
<polygon fill="#78cfc5" stroke="#78cfc5" points="942.26,-351.1 942.29,-362.066 944.324,-355.654 946.389,-360.208 946.389,-360.208 946.389,-360.208 944.324,-355.654 950.487,-358.35 942.26,-351.1 942.26,-351.1"/>
<polygon fill="#78cfc5" stroke="#78cfc5" points="868.705,-188.822 868.675,-177.856 866.64,-184.268 864.576,-179.714 864.576,-179.714 864.576,-179.714 866.64,-184.268 860.477,-181.572 868.705,-188.822 868.705,-188.822"/>
</g>
<!-- Course -->
<g id="node5" class="node"><title>Course</title>
<ellipse fill="none" stroke="black" cx="235" cy="-450" rx="35.9954" ry="18"/>
<text text-anchor="middle" x="235" y="-446.3" font-family="Times,serif" font-size="14.00">Course</text>
</g>
<!-- Course&#45;&gt;User -->
<g id="edge6" class="edge"><title>Course&#45;&gt;User</title>
<path fill="none" stroke="#7e51dc" d="M275.029,-437.127C320.485,-423.644 393.884,-401.873 436.779,-389.15"/>
<polygon fill="#7e51dc" stroke="#7e51dc" points="274.957,-437.148 264.09,-435.678 270.163,-438.57 265.37,-439.992 265.37,-439.992 265.37,-439.992 270.163,-438.57 266.649,-444.306 274.957,-437.148 274.957,-437.148"/>
<polygon fill="#7e51dc" stroke="#7e51dc" points="436.89,-389.117 447.757,-390.588 441.684,-387.696 446.477,-386.274 446.477,-386.274 446.477,-386.274 441.684,-387.696 445.198,-381.959 436.89,-389.117 436.89,-389.117"/>
</g>
<!-- Roster -->
<g id="node11" class="node"><title>Roster</title>
<ellipse fill="none" stroke="black" cx="123" cy="-306" rx="33.5952" ry="18"/>
<text text-anchor="middle" x="123" y="-302.3" font-family="Times,serif" font-size="14.00">Roster</text>
</g>
<!-- Course&#45;&gt;Roster -->
<g id="edge5" class="edge"><title>Course&#45;&gt;Roster</title>
<path fill="none" stroke="#80b110" d="M217.235,-426.476C196.74,-400.492 163.169,-357.928 142.118,-331.239"/>
<ellipse fill="none" stroke="#80b110" cx="219.893" cy="-429.846" rx="4.00002" ry="4.00002"/>
<polygon fill="#80b110" stroke="#80b110" points="141.949,-331.024 139.289,-320.386 138.852,-327.098 135.756,-323.173 135.756,-323.173 135.756,-323.173 138.852,-327.098 132.223,-325.959 141.949,-331.024 141.949,-331.024"/>
</g>
<!-- Course&#45;&gt;Project -->
<g id="edge4" class="edge"><title>Course&#45;&gt;Project</title>
<path fill="none" stroke="#3bfa6f" d="M272.277,-437.527C280.363,-435.391 288.916,-433.395 297,-432 403.281,-413.654 684.8,-444.762 781,-396 795.608,-388.596 821.954,-355.226 839.463,-331.528"/>
<ellipse fill="none" stroke="#3bfa6f" cx="268.239" cy="-438.634" rx="4.00001" ry="4.00001"/>
<polygon fill="#3bfa6f" stroke="#3bfa6f" points="839.576,-331.374 849.109,-325.955 842.526,-327.337 845.476,-323.3 845.476,-323.3 845.476,-323.3 842.526,-327.337 841.843,-320.645 839.576,-331.374 839.576,-331.374"/>
</g>
<!-- Experience -->
<g id="node28" class="node"><title>Experience</title>
<ellipse fill="none" stroke="black" cx="225" cy="-306" rx="50.0912" ry="18"/>
<text text-anchor="middle" x="225" y="-302.3" font-family="Times,serif" font-size="14.00">Experience</text>
</g>
<!-- Course&#45;&gt;Experience -->
<g id="edge7" class="edge"><title>Course&#45;&gt;Experience</title>
<path fill="none" stroke="#4a3bb6" d="M233.208,-423.558C231.44,-398.444 228.744,-360.164 226.929,-334.393"/>
<ellipse fill="none" stroke="#4a3bb6" cx="233.513" cy="-427.881" rx="4" ry="4"/>
<polygon fill="#4a3bb6" stroke="#4a3bb6" points="226.913,-334.165 230.699,-323.873 226.562,-329.177 226.211,-324.189 226.211,-324.189 226.211,-324.189 226.562,-329.177 221.722,-324.505 226.913,-334.165 226.913,-334.165"/>
</g>
<!-- Style -->
<g id="node6" class="node"><title>Style</title>
<ellipse fill="none" stroke="black" cx="857" cy="-378" rx="28.6953" ry="18"/>
<text text-anchor="middle" x="857" y="-374.3" font-family="Times,serif" font-size="14.00">Style</text>
</g>
<!-- Style&#45;&gt;Project -->
<g id="edge8" class="edge"><title>Style&#45;&gt;Project</title>
<path fill="none" stroke="#6b0df9" d="M857,-351.64C857,-346.063 857,-340.132 857,-334.476"/>
<ellipse fill="none" stroke="#6b0df9" cx="857" cy="-355.697" rx="4" ry="4"/>
<polygon fill="#6b0df9" stroke="#6b0df9" points="857,-334.104 861.5,-324.104 857,-329.104 857,-324.104 857,-324.104 857,-324.104 857,-329.104 852.5,-324.104 857,-334.104 857,-334.104"/>
</g>
<!-- Behavior -->
<g id="node7" class="node"><title>Behavior</title>
<ellipse fill="none" stroke="black" cx="324" cy="-162" rx="42.7926" ry="18"/>
<text text-anchor="middle" x="324" y="-158.3" font-family="Times,serif" font-size="14.00">Behavior</text>
</g>
<!-- Diagnosis -->
<g id="node18" class="node"><title>Diagnosis</title>
<ellipse fill="none" stroke="black" cx="363" cy="-18" rx="46.2923" ry="18"/>
<text text-anchor="middle" x="363" y="-14.3" font-family="Times,serif" font-size="14.00">Diagnosis</text>
</g>
<!-- Behavior&#45;&gt;Diagnosis -->
<g id="edge11" class="edge"><title>Behavior&#45;&gt;Diagnosis</title>
<path fill="none" stroke="#ae9492" d="M314.084,-136.073C308.336,-117.75 303.712,-92.5664 312,-72 316.773,-60.156 325.599,-49.478 334.584,-40.8623"/>
<ellipse fill="none" stroke="#ae9492" cx="315.477" cy="-140.179" rx="4.00001" ry="4.00001"/>
<polygon fill="#ae9492" stroke="#ae9492" points="334.641,-40.8105 345.088,-37.4782 338.362,-37.4702 342.082,-34.1298 342.082,-34.1298 342.082,-34.1298 338.362,-37.4702 339.076,-30.7813 334.641,-40.8105 334.641,-40.8105"/>
</g>
<!-- Scenario -->
<g id="node25" class="node"><title>Scenario</title>
<ellipse fill="none" stroke="black" cx="363" cy="-90" rx="41.6928" ry="18"/>
<text text-anchor="middle" x="363" y="-86.3" font-family="Times,serif" font-size="14.00">Scenario</text>
</g>
<!-- Behavior&#45;&gt;Scenario -->
<g id="edge9" class="edge"><title>Behavior&#45;&gt;Scenario</title>
<path fill="none" stroke="#9ec520" d="M337.178,-137.346C340.871,-130.719 344.903,-123.483 348.659,-116.74"/>
<ellipse fill="none" stroke="#9ec520" cx="335.189" cy="-140.917" rx="4.00002" ry="4.00002"/>
<polygon fill="#9ec520" stroke="#9ec520" points="348.686,-116.692 357.484,-110.146 351.119,-112.324 353.553,-107.956 353.553,-107.956 353.553,-107.956 351.119,-112.324 349.622,-105.766 348.686,-116.692 348.686,-116.692"/>
</g>
<!-- Reaction -->
<g id="node26" class="node"><title>Reaction</title>
<ellipse fill="none" stroke="black" cx="223" cy="-90" rx="42.4939" ry="18"/>
<text text-anchor="middle" x="223" y="-86.3" font-family="Times,serif" font-size="14.00">Reaction</text>
</g>
<!-- Behavior&#45;&gt;Reaction -->
<g id="edge10" class="edge"><title>Behavior&#45;&gt;Reaction</title>
<path fill="none" stroke="#a441da" d="M295.862,-141.498C282.495,-132.234 266.508,-121.154 252.92,-111.737"/>
<ellipse fill="none" stroke="#a441da" cx="299.293" cy="-143.876" rx="4.00002" ry="4.00002"/>
<polygon fill="#a441da" stroke="#a441da" points="252.608,-111.52 246.952,-102.125 248.498,-108.672 244.389,-105.824 244.389,-105.824 244.389,-105.824 248.498,-108.672 241.825,-109.522 252.608,-111.52 252.608,-111.52"/>
</g>
<!-- Installment -->
<g id="node8" class="node"><title>Installment</title>
<ellipse fill="none" stroke="black" cx="628" cy="-90" rx="50.8918" ry="18"/>
<text text-anchor="middle" x="628" y="-86.3" font-family="Times,serif" font-size="14.00">Installment</text>
</g>
<!-- Value -->
<g id="node24" class="node"><title>Value</title>
<ellipse fill="none" stroke="black" cx="628" cy="-18" rx="31.6951" ry="18"/>
<text text-anchor="middle" x="628" y="-14.3" font-family="Times,serif" font-size="14.00">Value</text>
</g>
<!-- Installment&#45;&gt;Value -->
<g id="edge12" class="edge"><title>Installment&#45;&gt;Value</title>
<path fill="none" stroke="#dbc5d7" d="M628,-63.6398C628,-58.0629 628,-52.1319 628,-46.4761"/>
<ellipse fill="none" stroke="#dbc5d7" cx="628" cy="-67.6966" rx="4" ry="4"/>
<polygon fill="#dbc5d7" stroke="#dbc5d7" points="628,-46.1043 632.5,-36.1043 628,-41.1043 628,-36.1043 628,-36.1043 628,-36.1043 628,-41.1043 623.5,-36.1044 628,-46.1043 628,-46.1043"/>
</g>
<!-- ConsentForm -->
<g id="node9" class="node"><title>ConsentForm</title>
<ellipse fill="none" stroke="black" cx="713" cy="-378" rx="59.2899" ry="18"/>
<text text-anchor="middle" x="713" y="-374.3" font-family="Times,serif" font-size="14.00">ConsentForm</text>
</g>
<!-- ConsentForm&#45;&gt;Project -->
<g id="edge13" class="edge"><title>ConsentForm&#45;&gt;Project</title>
<path fill="none" stroke="#b70095" d="M750.56,-358.742C772.96,-347.853 801.177,-334.136 822.93,-323.562"/>
<ellipse fill="none" stroke="#b70095" cx="746.785" cy="-360.577" rx="4.00002" ry="4.00002"/>
<polygon fill="#b70095" stroke="#b70095" points="823.129,-323.465 834.09,-323.14 827.626,-321.279 832.123,-319.093 832.123,-319.093 832.123,-319.093 827.626,-321.279 830.155,-315.046 823.129,-323.465 823.129,-323.465"/>
</g>
<!-- ConsentLog -->
<g id="node23" class="node"><title>ConsentLog</title>
<ellipse fill="none" stroke="black" cx="749" cy="-306" rx="53.8905" ry="18"/>
<text text-anchor="middle" x="749" y="-302.3" font-family="Times,serif" font-size="14.00">ConsentLog</text>
</g>
<!-- ConsentForm&#45;&gt;ConsentLog -->
<g id="edge14" class="edge"><title>ConsentForm&#45;&gt;ConsentLog</title>
<path fill="none" stroke="#3fc50f" d="M725.49,-352.714C728.788,-346.302 732.359,-339.358 735.698,-332.865"/>
<ellipse fill="none" stroke="#3fc50f" cx="723.544" cy="-356.498" rx="4.00002" ry="4.00002"/>
<polygon fill="#3fc50f" stroke="#3fc50f" points="735.792,-332.682 744.367,-325.847 738.079,-328.235 740.366,-323.789 740.366,-323.789 740.366,-323.789 738.079,-328.235 736.364,-321.731 735.792,-332.682 735.792,-332.682"/>
</g>
<!-- User&#45;&gt;Installment -->
<g id="edge19" class="edge"><title>User&#45;&gt;Installment</title>
<path fill="none" stroke="#3c703a" d="M506.417,-374.081C544.888,-369.293 606.405,-356.739 648,-324 677.111,-301.087 680.332,-287.763 690,-252 703.433,-202.313 670.895,-146.786 648.05,-115.648"/>
<ellipse fill="none" stroke="#3c703a" cx="502.075" cy="-374.581" rx="4.00001" ry="4.00001"/>
<polygon fill="#3c703a" stroke="#3c703a" points="647.946,-115.511 645.498,-104.822 644.928,-111.524 641.91,-107.538 641.91,-107.538 641.91,-107.538 644.928,-111.524 638.322,-110.254 647.946,-115.511 647.946,-115.511"/>
</g>
<!-- User&#45;&gt;Roster -->
<g id="edge20" class="edge"><title>User&#45;&gt;Roster</title>
<path fill="none" stroke="#2f3ad6" d="M436.073,-373.286C378.854,-366.681 261.91,-350.985 166,-324 163.409,-323.271 160.759,-322.441 158.11,-321.55"/>
<ellipse fill="none" stroke="#2f3ad6" cx="440.098" cy="-373.744" rx="4.00001" ry="4.00001"/>
<polygon fill="#2f3ad6" stroke="#2f3ad6" points="158.031,-321.521 150.158,-313.888 153.33,-319.821 148.628,-318.12 148.628,-318.12 148.628,-318.12 153.33,-319.821 147.097,-322.352 158.031,-321.521 158.031,-321.521"/>
</g>
<!-- Group -->
<g id="node13" class="node"><title>Group</title>
<ellipse fill="none" stroke="black" cx="557" cy="-162" rx="33.2948" ry="18"/>
<text text-anchor="middle" x="557" y="-158.3" font-family="Times,serif" font-size="14.00">Group</text>
</g>
<!-- User&#45;&gt;Group -->
<g id="edge16" class="edge"><title>User&#45;&gt;Group</title>
<path fill="none" stroke="#701af4" d="M481.483,-350.913C498.024,-309.755 529.99,-230.21 546.525,-189.066"/>
<polygon fill="#701af4" stroke="#701af4" points="481.477,-350.929 473.573,-358.53 479.613,-355.568 477.748,-360.208 477.748,-360.208 477.748,-360.208 479.613,-355.568 481.924,-361.886 481.477,-350.929 481.477,-350.929"/>
<polygon fill="#701af4" stroke="#701af4" points="546.554,-188.993 554.459,-181.392 548.419,-184.354 550.283,-179.714 550.283,-179.714 550.283,-179.714 548.419,-184.354 546.108,-178.036 546.554,-188.993 546.554,-188.993"/>
</g>
<!-- User&#45;&gt;Project -->
<g id="edge18" class="edge"><title>User&#45;&gt;Project</title>
<path fill="none" stroke="#135189" d="M508.179,-373.764C571.405,-367.7 703.564,-352.579 812,-324 814.801,-323.262 817.67,-322.411 820.535,-321.493"/>
<polygon fill="#135189" stroke="#135189" points="507.872,-373.793 497.495,-370.246 502.894,-374.26 497.916,-374.727 497.916,-374.727 497.916,-374.727 502.894,-374.26 498.336,-379.207 507.872,-373.793 507.872,-373.793"/>
<polygon fill="#135189" stroke="#135189" points="820.714,-321.431 831.635,-322.426 825.441,-319.802 830.168,-318.172 830.168,-318.172 830.168,-318.172 825.441,-319.802 828.701,-313.917 820.714,-321.431 820.714,-321.431"/>
</g>
<!-- Email -->
<g id="node16" class="node"><title>Email</title>
<ellipse fill="none" stroke="black" cx="607" cy="-306" rx="32.4942" ry="18"/>
<text text-anchor="middle" x="607" y="-302.3" font-family="Times,serif" font-size="14.00">Email</text>
</g>
<!-- User&#45;&gt;Email -->
<g id="edge15" class="edge"><title>User&#45;&gt;Email</title>
<path fill="none" stroke="#407d0d" d="M499.36,-362.403C521.42,-351.049 552.032,-335.292 574.973,-323.484"/>
<ellipse fill="none" stroke="#407d0d" cx="495.509" cy="-364.385" rx="4.00002" ry="4.00002"/>
<polygon fill="#407d0d" stroke="#407d0d" points="575.085,-323.427 586.036,-322.852 579.531,-321.139 583.976,-318.85 583.976,-318.85 583.976,-318.85 579.531,-321.139 581.917,-314.849 575.085,-323.427 575.085,-323.427"/>
</g>
<!-- Narrative -->
<g id="node22" class="node"><title>Narrative</title>
<ellipse fill="none" stroke="black" cx="375" cy="-306" rx="44.393" ry="18"/>
<text text-anchor="middle" x="375" y="-302.3" font-family="Times,serif" font-size="14.00">Narrative</text>
</g>
<!-- User&#45;&gt;Narrative -->
<g id="edge23" class="edge"><title>User&#45;&gt;Narrative</title>
<path fill="none" stroke="#bf96df" d="M445.259,-358.231C432.565,-348.974 417.202,-337.773 404.084,-328.207"/>
<polygon fill="#bf96df" stroke="#bf96df" points="445.312,-358.269 450.741,-367.797 449.352,-361.215 453.392,-364.161 453.392,-364.161 453.392,-364.161 449.352,-361.215 456.043,-360.525 445.312,-358.269 445.312,-358.269"/>
<polygon fill="#bf96df" stroke="#bf96df" points="403.918,-328.086 398.489,-318.558 399.878,-325.14 395.838,-322.194 395.838,-322.194 395.838,-322.194 399.878,-325.14 393.187,-325.83 403.918,-328.086 403.918,-328.086"/>
</g>
<!-- User&#45;&gt;ConsentLog -->
<g id="edge17" class="edge"><title>User&#45;&gt;ConsentLog</title>
<path fill="none" stroke="#7a591e" d="M504.189,-368.643C552.036,-356.595 640.837,-334.235 697.316,-320.014"/>
<ellipse fill="none" stroke="#7a591e" cx="500.04" cy="-369.688" rx="4.00001" ry="4.00001"/>
<polygon fill="#7a591e" stroke="#7a591e" points="697.427,-319.986 708.223,-321.908 702.276,-318.765 707.124,-317.544 707.124,-317.544 707.124,-317.544 702.276,-318.765 706.025,-313.18 697.427,-319.986 697.427,-319.986"/>
</g>
<!-- User&#45;&gt;Reaction -->
<g id="edge21" class="edge"><title>User&#45;&gt;Reaction</title>
<path fill="none" stroke="#66f321" d="M436.339,-372.164C403.527,-366.001 354.57,-352.504 322,-324 258.965,-268.834 234.916,-166.669 226.741,-118.059"/>
<ellipse fill="none" stroke="#66f321" cx="440.375" cy="-372.879" rx="4.00001" ry="4.00001"/>
<polygon fill="#66f321" stroke="#66f321" points="226.712,-117.87 229.594,-107.289 225.93,-112.931 225.149,-107.992 225.149,-107.992 225.149,-107.992 225.93,-112.931 220.704,-108.696 226.712,-117.87 226.712,-117.87"/>
</g>
<!-- Assessment -->
<g id="node27" class="node"><title>Assessment</title>
<ellipse fill="none" stroke="black" cx="628" cy="-234" rx="52.7911" ry="18"/>
<text text-anchor="middle" x="628" y="-230.3" font-family="Times,serif" font-size="14.00">Assessment</text>
</g>
<!-- User&#45;&gt;Assessment -->
<g id="edge24" class="edge"><title>User&#45;&gt;Assessment</title>
<path fill="none" stroke="#cd8a96" d="M493.27,-355.595C512.355,-337.382 540.69,-310.652 566,-288 577.378,-277.817 590.17,-266.809 601.167,-257.478"/>
<polygon fill="#cd8a96" stroke="#cd8a96" points="493.168,-355.693 482.83,-359.352 489.554,-359.149 485.941,-362.604 485.941,-362.604 485.941,-362.604 489.554,-359.149 489.051,-365.857 493.168,-355.693 493.168,-355.693"/>
<polygon fill="#cd8a96" stroke="#cd8a96" points="601.175,-257.472 611.717,-254.452 604.993,-254.244 608.812,-251.016 608.812,-251.016 608.812,-251.016 604.993,-254.244 605.907,-247.579 601.175,-257.472 601.175,-257.472"/>
</g>
<!-- User&#45;&gt;Experience -->
<g id="edge22" class="edge"><title>User&#45;&gt;Experience</title>
<path fill="none" stroke="#8d0f70" d="M436.78,-367.263C394.139,-355.129 321.03,-334.326 272.856,-320.617"/>
<polygon fill="#8d0f70" stroke="#8d0f70" points="436.895,-367.295 445.282,-374.36 441.704,-368.664 446.513,-370.032 446.513,-370.032 446.513,-370.032 441.704,-368.664 447.745,-365.704 436.895,-367.295 436.895,-367.295"/>
<polygon fill="#8d0f70" stroke="#8d0f70" points="272.592,-320.543 264.206,-313.477 267.783,-319.174 262.974,-317.806 262.974,-317.806 262.974,-317.806 267.783,-319.174 261.742,-322.134 272.592,-320.543 272.592,-320.543"/>
</g>
<!-- School -->
<g id="node12" class="node"><title>School</title>
<ellipse fill="none" stroke="black" cx="235" cy="-543" rx="35.194" ry="18"/>
<text text-anchor="middle" x="235" y="-539.3" font-family="Times,serif" font-size="14.00">School</text>
</g>
<!-- School&#45;&gt;Course -->
<g id="edge25" class="edge"><title>School&#45;&gt;Course</title>
<path fill="none" stroke="#b4d08d" d="M235,-516.729C235,-504.725 235,-490.362 235,-478.129"/>
<ellipse fill="none" stroke="#b4d08d" cx="235" cy="-520.884" rx="4" ry="4"/>
<polygon fill="#b4d08d" stroke="#b4d08d" points="235,-478.04 239.5,-468.04 235,-473.04 235,-468.04 235,-468.04 235,-468.04 235,-473.04 230.5,-468.04 235,-478.04 235,-478.04"/>
</g>
<!-- Group&#45;&gt;Installment -->
<g id="edge26" class="edge"><title>Group&#45;&gt;Installment</title>
<path fill="none" stroke="#f40a3f" d="M578.115,-140.182C586.41,-132.004 595.966,-122.583 604.48,-114.189"/>
<ellipse fill="none" stroke="#f40a3f" cx="575.254" cy="-143.003" rx="4.00002" ry="4.00002"/>
<polygon fill="#f40a3f" stroke="#f40a3f" points="604.515,-114.154 614.795,-110.338 608.075,-110.644 611.636,-107.134 611.636,-107.134 611.636,-107.134 608.075,-110.644 608.477,-103.929 604.515,-114.154 604.515,-114.154"/>
</g>
<!-- Project&#45;&gt;Group -->
<g id="edge27" class="edge"><title>Project&#45;&gt;Group</title>
<path fill="none" stroke="#24994e" d="M822.548,-291.129C819.018,-289.966 815.459,-288.895 812,-288 758.513,-274.157 604.187,-291.927 566,-252 550.532,-235.827 549.626,-209.662 551.789,-189.878"/>
<ellipse fill="none" stroke="#24994e" cx="826.401" cy="-292.472" rx="4.00001" ry="4.00001"/>
<polygon fill="#24994e" stroke="#24994e" points="551.796,-189.827 557.643,-180.55 552.491,-184.876 553.186,-179.924 553.186,-179.924 553.186,-179.924 552.491,-184.876 548.73,-179.299 551.796,-189.827 551.796,-189.827"/>
</g>
<!-- Project&#45;&gt;Factor -->
<g id="edge29" class="edge"><title>Project&#45;&gt;Factor</title>
<path fill="none" stroke="#7739ce" d="M857,-277.679C857,-252.599 857,-215.627 857,-190.493"/>
<polygon fill="#7739ce" stroke="#7739ce" points="857,-277.871 852.5,-287.871 857,-282.871 857,-287.871 857,-287.871 857,-287.871 857,-282.871 861.5,-287.872 857,-277.871 857,-277.871"/>
<polygon fill="#7739ce" stroke="#7739ce" points="857,-190.189 861.5,-180.189 857,-185.189 857,-180.189 857,-180.189 857,-180.189 857,-185.189 852.5,-180.189 857,-190.189 857,-190.189"/>
</g>
<!-- Project&#45;&gt;Assessment -->
<g id="edge28" class="edge"><title>Project&#45;&gt;Assessment</title>
<path fill="none" stroke="#9c5ce3" d="M821.846,-291.409C818.53,-290.221 815.21,-289.067 812,-288 767.304,-273.147 715.723,-258.501 678.568,-248.382"/>
<ellipse fill="none" stroke="#9c5ce3" cx="825.763" cy="-292.842" rx="4.00001" ry="4.00001"/>
<polygon fill="#9c5ce3" stroke="#9c5ce3" points="678.141,-248.267 669.665,-241.308 673.315,-246.959 668.489,-245.652 668.489,-245.652 668.489,-245.652 673.315,-246.959 667.312,-249.995 678.141,-248.267 678.141,-248.267"/>
</g>
<!-- Gender -->
<g id="node15" class="node"><title>Gender</title>
<ellipse fill="none" stroke="black" cx="736" cy="-450" rx="36.2938" ry="18"/>
<text text-anchor="middle" x="736" y="-446.3" font-family="Times,serif" font-size="14.00">Gender</text>
</g>
<!-- Gender&#45;&gt;User -->
<g id="edge30" class="edge"><title>Gender&#45;&gt;User</title>
<path fill="none" stroke="#1e8b2b" d="M700.676,-435.475C697.089,-434.243 693.484,-433.062 690,-432 626.257,-412.58 550.378,-395.538 506.738,-386.308"/>
<ellipse fill="none" stroke="#1e8b2b" cx="704.676" cy="-436.89" rx="4.00001" ry="4.00001"/>
<polygon fill="#1e8b2b" stroke="#1e8b2b" points="506.673,-386.294 497.81,-379.837 501.78,-385.268 496.886,-384.241 496.886,-384.241 496.886,-384.241 501.78,-385.268 495.962,-388.645 506.673,-386.294 506.673,-386.294"/>
</g>
<!-- AgeRange -->
<g id="node17" class="node"><title>AgeRange</title>
<ellipse fill="none" stroke="black" cx="354" cy="-450" rx="48.1917" ry="18"/>
<text text-anchor="middle" x="354" y="-446.3" font-family="Times,serif" font-size="14.00">AgeRange</text>
</g>
<!-- AgeRange&#45;&gt;User -->
<g id="edge31" class="edge"><title>AgeRange&#45;&gt;User</title>
<path fill="none" stroke="#28bcfc" d="M385.416,-430.204C403.182,-419.575 425.225,-406.386 442.491,-396.057"/>
<ellipse fill="none" stroke="#28bcfc" cx="381.96" cy="-432.272" rx="4.00002" ry="4.00002"/>
<polygon fill="#28bcfc" stroke="#28bcfc" points="442.953,-395.78 453.845,-394.508 447.243,-393.213 451.534,-390.646 451.534,-390.646 451.534,-390.646 447.243,-393.213 449.224,-386.785 442.953,-395.78 442.953,-395.78"/>
</g>
<!-- Diagnosis&#45;&gt;User -->
<g id="edge32" class="edge"><title>Diagnosis&#45;&gt;User</title>
<path fill="none" stroke="#4bb1d5" d="M394.189,-37.9084C407.173,-46.9654 421.61,-58.7338 432,-72 458.628,-106 471,-117.813 471,-161 471,-235 471,-235 471,-235 471,-275.885 471,-323.392 471,-351.782"/>
<ellipse fill="none" stroke="#4bb1d5" cx="390.874" cy="-35.6666" rx="4.00002" ry="4.00002"/>
<ellipse fill="#4bb1d5" stroke="#4bb1d5" cx="471" cy="-355.951" rx="4" ry="4"/>
</g>
<!-- CipCode -->
<g id="node20" class="node"><title>CipCode</title>
<ellipse fill="none" stroke="black" cx="462" cy="-450" rx="42.4939" ry="18"/>
<text text-anchor="middle" x="462" y="-446.3" font-family="Times,serif" font-size="14.00">CipCode</text>
</g>
<!-- CipCode&#45;&gt;User -->
<g id="edge33" class="edge"><title>CipCode&#45;&gt;User</title>
<path fill="none" stroke="#8303f4" d="M465.261,-423.64C465.996,-417.92 466.779,-411.828 467.523,-406.042"/>
<ellipse fill="none" stroke="#8303f4" cx="464.735" cy="-427.729" rx="4.00001" ry="4.00001"/>
<polygon fill="#8303f4" stroke="#8303f4" points="467.526,-406.023 473.264,-396.678 468.163,-401.064 468.801,-396.104 468.801,-396.104 468.801,-396.104 468.163,-401.064 464.338,-395.53 467.526,-406.023 467.526,-406.023"/>
</g>
<!-- Week -->
<g id="node21" class="node"><title>Week</title>
<ellipse fill="none" stroke="black" cx="411" cy="-234" rx="31.6951" ry="18"/>
<text text-anchor="middle" x="411" y="-230.3" font-family="Times,serif" font-size="14.00">Week</text>
</g>
<!-- Week&#45;&gt;Behavior -->
<g id="edge34" class="edge"><title>Week&#45;&gt;Behavior</title>
<path fill="none" stroke="#b2044f" d="M386.906,-213.614C375.244,-204.23 361.241,-192.964 349.41,-183.445"/>
<ellipse fill="none" stroke="#b2044f" cx="390.278" cy="-216.327" rx="4.00002" ry="4.00002"/>
<ellipse fill="#b2044f" stroke="#b2044f" cx="346.206" cy="-180.867" rx="4.00002" ry="4.00002"/>
</g>
<!-- Week&#45;&gt;Diagnosis -->
<g id="edge35" class="edge"><title>Week&#45;&gt;Diagnosis</title>
<path fill="none" stroke="#2cc072" d="M417.383,-207.63C424.308,-174.945 432.13,-116.987 414,-72 409.227,-60.156 400.401,-49.478 391.416,-40.8623"/>
<ellipse fill="none" stroke="#2cc072" cx="416.439" cy="-211.855" rx="4.00001" ry="4.00001"/>
<polygon fill="#2cc072" stroke="#2cc072" points="391.359,-40.8105 386.924,-30.7813 387.638,-37.4702 383.918,-34.1298 383.918,-34.1298 383.918,-34.1298 387.638,-37.4702 380.912,-37.4782 391.359,-40.8105 391.359,-40.8105"/>
</g>
<!-- Narrative&#45;&gt;Behavior -->
<g id="edge37" class="edge"><title>Narrative&#45;&gt;Behavior</title>
<path fill="none" stroke="#7d2fa6" d="M354.982,-282.163C348.232,-273.299 341.321,-262.709 337,-252 328.765,-231.591 325.657,-206.679 324.527,-188.407"/>
<ellipse fill="none" stroke="#7d2fa6" cx="357.583" cy="-285.445" rx="4.00002" ry="4.00002"/>
<ellipse fill="#7d2fa6" stroke="#7d2fa6" cx="324.312" cy="-184.015" rx="4" ry="4"/>
</g>
<!-- Narrative&#45;&gt;Week -->
<g id="edge36" class="edge"><title>Narrative&#45;&gt;Week</title>
<path fill="none" stroke="#9aadb9" d="M387.49,-280.714C390.788,-274.302 394.359,-267.358 397.698,-260.865"/>
<ellipse fill="none" stroke="#9aadb9" cx="385.544" cy="-284.498" rx="4.00002" ry="4.00002"/>
<polygon fill="#9aadb9" stroke="#9aadb9" points="397.792,-260.682 406.367,-253.847 400.079,-256.235 402.366,-251.789 402.366,-251.789 402.366,-251.789 400.079,-256.235 398.364,-249.731 397.792,-260.682 397.792,-260.682"/>
</g>
<!-- Narrative&#45;&gt;Reaction -->
<g id="edge38" class="edge"><title>Narrative&#45;&gt;Reaction</title>
<path fill="none" stroke="#534b12" d="M351.98,-283.124C342.632,-273.843 331.95,-262.711 323,-252 297.855,-221.908 292.823,-213.229 272,-180 259.04,-159.318 245.774,-134.991 236.319,-117.003"/>
<ellipse fill="none" stroke="#534b12" cx="355.043" cy="-286.13" rx="4.00002" ry="4.00002"/>
<polygon fill="#534b12" stroke="#534b12" points="236.106,-116.593 235.476,-105.645 233.796,-112.159 231.485,-107.724 231.485,-107.724 231.485,-107.724 233.796,-112.159 227.494,-109.804 236.106,-116.593 236.106,-116.593"/>
</g>
<!-- Scenario&#45;&gt;Narrative -->
<g id="edge39" class="edge"><title>Scenario&#45;&gt;Narrative</title>
<path fill="none" stroke="#9ea755" d="M370.435,-115.974C372.697,-124.751 374.88,-134.734 376,-144 377.92,-159.884 377.32,-164.055 376,-180 374.662,-196.165 371.338,-199.835 370,-216 368.68,-231.945 369.248,-236.018 370,-252 370.393,-260.345 371.132,-269.404 371.923,-277.633"/>
<ellipse fill="none" stroke="#9ea755" cx="369.319" cy="-111.854" rx="4.00001" ry="4.00001"/>
<polygon fill="#9ea755" stroke="#9ea755" points="371.95,-277.895 368.493,-288.302 372.459,-282.869 372.969,-287.843 372.969,-287.843 372.969,-287.843 372.459,-282.869 377.446,-287.384 371.95,-277.895 371.95,-277.895"/>
</g>
<!-- Reaction&#45;&gt;Diagnosis -->
<g id="edge40" class="edge"><title>Reaction&#45;&gt;Diagnosis</title>
<path fill="none" stroke="#a13882" d="M256.583,-72.2087C277.715,-61.6424 304.985,-48.0073 326.629,-37.1854"/>
<ellipse fill="none" stroke="#a13882" cx="252.911" cy="-74.0447" rx="4.00002" ry="4.00002"/>
<polygon fill="#a13882" stroke="#a13882" points="326.886,-37.0571 337.843,-36.6098 331.358,-34.821 335.83,-32.5849 335.83,-32.5849 335.83,-32.5849 331.358,-34.821 333.818,-28.56 326.886,-37.0571 326.886,-37.0571"/>
</g>
<!-- Assessment&#45;&gt;Installment -->
<g id="edge41" class="edge"><title>Assessment&#45;&gt;Installment</title>
<path fill="none" stroke="#734554" d="M628,-207.558C628,-182.444 628,-144.164 628,-118.393"/>
<ellipse fill="none" stroke="#734554" cx="628" cy="-211.871" rx="4" ry="4"/>
<polygon fill="#734554" stroke="#734554" points="628,-118.189 632.5,-108.189 628,-113.189 628,-108.189 628,-108.189 628,-108.189 628,-113.189 623.5,-108.189 628,-118.189 628,-118.189"/>
</g>
<!-- Assessment&#45;&gt;Group -->
<g id="edge43" class="edge"><title>Assessment&#45;&gt;Group</title>
<path fill="none" stroke="#a31fde" d="M604.225,-209.56C596.355,-201.801 587.62,-193.188 579.823,-185.501"/>
<polygon fill="#a31fde" stroke="#a31fde" points="604.412,-209.744 608.373,-219.969 607.972,-213.254 611.533,-216.765 611.533,-216.765 611.533,-216.765 607.972,-213.254 614.692,-213.56 604.412,-209.744 604.412,-209.744"/>
<polygon fill="#a31fde" stroke="#a31fde" points="579.527,-185.21 575.565,-174.984 575.966,-181.699 572.406,-178.189 572.406,-178.189 572.406,-178.189 575.966,-181.699 569.247,-181.393 579.527,-185.21 579.527,-185.21"/>
</g>
<!-- Assessment&#45;&gt;Factor -->
<g id="edge42" class="edge"><title>Assessment&#45;&gt;Factor</title>
<path fill="none" stroke="#cee309" d="M675.624,-218.442C718.224,-205.42 779.84,-186.586 819.155,-174.568"/>
<polygon fill="#cee309" stroke="#cee309" points="675.378,-218.518 664.499,-217.137 670.596,-219.979 665.815,-221.441 665.815,-221.441 665.815,-221.441 670.596,-219.979 667.13,-225.744 675.378,-218.518 675.378,-218.518"/>
<polygon fill="#cee309" stroke="#cee309" points="819.325,-174.517 830.203,-175.897 824.106,-173.055 828.888,-171.593 828.888,-171.593 828.888,-171.593 824.106,-173.055 827.572,-167.29 819.325,-174.517 819.325,-174.517"/>
</g>
<!-- Experience&#45;&gt;Reaction -->
<g id="edge44" class="edge"><title>Experience&#45;&gt;Reaction</title>
<path fill="none" stroke="#97202f" d="M211.372,-280.677C207.177,-271.915 203.11,-261.775 201,-252 190.872,-205.081 191.618,-191.074 201,-144 202.819,-134.871 206.242,-125.345 209.854,-116.929"/>
<ellipse fill="none" stroke="#97202f" cx="213.248" cy="-284.405" rx="4.00002" ry="4.00002"/>
<polygon fill="#97202f" stroke="#97202f" points="209.939,-116.743 218.19,-109.519 212.018,-112.195 214.098,-107.648 214.098,-107.648 214.098,-107.648 212.018,-112.195 210.005,-105.777 209.939,-116.743 209.939,-116.743"/>
</g>
<!-- Role -->
<g id="node29" class="node"><title>Role</title>
<ellipse fill="none" stroke="black" cx="148" cy="-450" rx="27.0966" ry="18"/>
<text text-anchor="middle" x="148" y="-446.3" font-family="Times,serif" font-size="14.00">Role</text>
</g>
<!-- Role&#45;&gt;User -->
<g id="edge45" class="edge"><title>Role&#45;&gt;User</title>
<path fill="none" stroke="#54a4af" d="M177.655,-436.153C181.758,-434.624 185.952,-433.188 190,-432 275.743,-406.832 379.832,-390.854 434.078,-383.585"/>
<ellipse fill="none" stroke="#54a4af" cx="173.668" cy="-437.709" rx="4.00001" ry="4.00001"/>
<polygon fill="#54a4af" stroke="#54a4af" points="434.328,-383.552 444.83,-386.709 439.285,-382.9 444.242,-382.248 444.242,-382.248 444.242,-382.248 439.285,-382.9 443.655,-377.786 434.328,-383.552 434.328,-383.552"/>
</g>
<!-- Role&#45;&gt;Roster -->
<g id="edge46" class="edge"><title>Role&#45;&gt;Roster</title>
<path fill="none" stroke="#0caa6c" d="M143.586,-423.929C139.149,-398.725 132.33,-359.994 127.77,-334.095"/>
<ellipse fill="none" stroke="#0caa6c" cx="144.291" cy="-427.932" rx="4.00001" ry="4.00001"/>
<polygon fill="#0caa6c" stroke="#0caa6c" points="127.76,-334.038 130.458,-323.409 126.893,-329.114 126.026,-324.189 126.026,-324.189 126.026,-324.189 126.893,-329.114 121.594,-324.97 127.76,-334.038 127.76,-334.038"/>
</g>
</g>
</svg>
