<?xml version="1.0" encoding="UTF-8" standalone="no"?>
<!DOCTYPE svg PUBLIC "-//W3C//DTD SVG 1.1//EN"
 "http://www.w3.org/Graphics/SVG/1.1/DTD/svg11.dtd">
<!-- Generated by graphviz version 8.0.1 (20230327.1645)
 -->
<!-- Title: models_diagram Pages: 1 -->
<svg width="2772pt" height="1237pt"
 viewBox="0.00 0.00 2771.65 1237.00" xmlns="http://www.w3.org/2000/svg" xmlns:xlink="http://www.w3.org/1999/xlink">
<g id="graph0" class="graph" transform="scale(1 1) rotate(0) translate(4 1233)">
<title>models_diagram</title>
<polygon fill="none" stroke="none" points="-4,4 -4,-1233 2767.65,-1233 2767.65,4 -4,4"/>
<!-- _diagram_info -->
<g id="node1" class="node">
<title>_diagram_info</title>
<text text-anchor="start" x="8" y="-1214.6" font-family="Times,serif" font-size="13.00">Models diagram</text>
<text text-anchor="start" x="8" y="-1200.6" font-family="Times,serif" font-size="13.00">Date: Apr 24 2023 &#45; 14:51</text>
<text text-anchor="start" x="8" y="-1186.6" font-family="Times,serif" font-size="13.00">Migration version: 20230415194655</text>
<text text-anchor="start" x="8" y="-1172.6" font-family="Times,serif" font-size="13.00">Generated by RailRoady 1.6.0</text>
<text text-anchor="start" x="8" y="-1158.6" font-family="Times,serif" font-size="13.00">http://railroady.prestonlee.com</text>
</g>
<!-- ApplicationRecord -->
<g id="node2" class="node">
<title>ApplicationRecord</title>
<ellipse fill="none" stroke="black" cx="309" cy="-1190" rx="77.19" ry="18"/>
<text text-anchor="middle" x="309" y="-1186.3" font-family="Times,serif" font-size="14.00">ApplicationRecord</text>
</g>
<!-- Assessment -->
<g id="node3" class="node">
<title>Assessment</title>
<ellipse fill="none" stroke="black" cx="457" cy="-1190" rx="52.79" ry="18"/>
<text text-anchor="middle" x="457" y="-1186.3" font-family="Times,serif" font-size="14.00">Assessment</text>
</g>
<!-- Course -->
<g id="node16" class="node">
<title>Course</title>
<ellipse fill="none" stroke="black" cx="1634" cy="-1096" rx="36" ry="18"/>
<text text-anchor="middle" x="1634" y="-1092.3" font-family="Times,serif" font-size="14.00">Course</text>
</g>
<!-- Assessment&#45;&gt;Course -->
<g id="edge2" class="edge">
<title>Assessment&#45;&gt;Course</title>
<path fill="none" stroke="#1ee350" d="M517.66,-1184.26C725.45,-1168.02 1405.83,-1114.83 1588.51,-1100.56"/>
<polygon fill="#1ee350" stroke="#1ee350" points="517.92,-1184.24 507.6,-1180.53 512.94,-1184.63 507.95,-1185.02 507.95,-1185.02 507.95,-1185.02 512.94,-1184.63 508.3,-1189.5 517.92,-1184.24 517.92,-1184.24"/>
<polygon fill="#1ee350" stroke="#1ee350" points="1588.36,-1100.57 1598.68,-1104.27 1593.35,-1100.18 1598.33,-1099.79 1598.33,-1099.79 1598.33,-1099.79 1593.35,-1100.18 1597.98,-1095.3 1588.36,-1100.57 1588.36,-1100.57"/>
</g>
<!-- Factor -->
<g id="node21" class="node">
<title>Factor</title>
<ellipse fill="none" stroke="black" cx="559" cy="-237" rx="33.29" ry="18"/>
<text text-anchor="middle" x="559" y="-233.3" font-family="Times,serif" font-size="14.00">Factor</text>
</g>
<!-- Assessment&#45;&gt;Factor -->
<g id="edge4" class="edge">
<title>Assessment&#45;&gt;Factor</title>
<path fill="none" stroke="#1b2d33" d="M426.06,-1167.67C369.69,-1126 256,-1027.86 256,-914 256,-914 256,-914 256,-352.5 256,-297.25 434.54,-259.35 517.52,-244.72"/>
<polygon fill="#1b2d33" stroke="#1b2d33" points="425.86,-1167.52 431.3,-1177.04 429.9,-1170.46 433.94,-1173.4 433.94,-1173.4 433.94,-1173.4 429.9,-1170.46 436.59,-1169.76 425.86,-1167.52 425.86,-1167.52"/>
<polygon fill="#1b2d33" stroke="#1b2d33" points="517.29,-244.76 527.91,-247.49 522.22,-243.91 527.15,-243.06 527.15,-243.06 527.15,-243.06 522.22,-243.91 526.38,-238.62 517.29,-244.76 517.29,-244.76"/>
</g>
<!-- Group -->
<g id="node24" class="node">
<title>Group</title>
<ellipse fill="none" stroke="black" cx="1077" cy="-484" rx="33.29" ry="18"/>
<text text-anchor="middle" x="1077" y="-480.3" font-family="Times,serif" font-size="14.00">Group</text>
</g>
<!-- Assessment&#45;&gt;Group -->
<g id="edge6" class="edge">
<title>Assessment&#45;&gt;Group</title>
<path fill="none" stroke="#6e11f5" d="M506.1,-1174.55C541.11,-1160.87 582,-1136.45 582,-1097 582,-1097 582,-1097 582,-666 582,-569.77 916.16,-509.48 1035.37,-491.04"/>
<polygon fill="#6e11f5" stroke="#6e11f5" points="506.27,-1174.48 495.33,-1173.74 501.58,-1176.22 496.89,-1177.96 496.89,-1177.96 496.89,-1177.96 501.58,-1176.22 498.46,-1182.18 506.27,-1174.48 506.27,-1174.48"/>
<polygon fill="#6e11f5" stroke="#6e11f5" points="1035.02,-491.09 1045.58,-494.03 1039.96,-490.34 1044.9,-489.58 1044.9,-489.58 1044.9,-489.58 1039.96,-490.34 1044.22,-485.13 1035.02,-491.09 1035.02,-491.09"/>
</g>
<!-- Installment -->
<g id="node28" class="node">
<title>Installment</title>
<ellipse fill="none" stroke="black" cx="514" cy="-397" rx="50.89" ry="18"/>
<text text-anchor="middle" x="514" y="-393.3" font-family="Times,serif" font-size="14.00">Installment</text>
</g>
<!-- Assessment&#45;&gt;Installment -->
<g id="edge3" class="edge">
<title>Assessment&#45;&gt;Installment</title>
<path fill="none" stroke="#441989" d="M427,-1167.94C417.15,-1161.77 405.93,-1155.49 395,-1151 347.92,-1131.66 294,-1147.9 294,-1097 294,-1097 294,-1097 294,-876 294,-816.44 332,-807.06 332,-747.5 332,-747.5 332,-747.5 332,-483 332,-428.01 401.05,-408.51 454.09,-401.65"/>
<polygon fill="#441989" stroke="#441989" points="426.85,-1167.85 432.8,-1177.06 431.05,-1170.57 435.25,-1173.29 435.25,-1173.29 435.25,-1173.29 431.05,-1170.57 437.69,-1169.51 426.85,-1167.85 426.85,-1167.85"/>
<polygon fill="#441989" stroke="#441989" points="453.85,-401.68 464.31,-404.98 458.82,-401.09 463.79,-400.51 463.79,-400.51 463.79,-400.51 458.82,-401.09 463.26,-396.04 453.85,-401.68 453.85,-401.68"/>
</g>
<!-- Project -->
<g id="node31" class="node">
<title>Project</title>
<ellipse fill="none" stroke="black" cx="771" cy="-91" rx="36" ry="18"/>
<text text-anchor="middle" x="771" y="-87.3" font-family="Times,serif" font-size="14.00">Project</text>
</g>
<!-- Assessment&#45;&gt;Project -->
<g id="edge1" class="edge">
<title>Assessment&#45;&gt;Project</title>
<path fill="none" stroke="#c06bef" d="M427.04,-1167.84C417.2,-1161.66 405.96,-1155.4 395,-1151 303.57,-1114.3 180,-1195.52 180,-1097 180,-1097 180,-1097 180,-163 180,-108.18 586.03,-95.46 725,-92.71"/>
<polygon fill="#c06bef" stroke="#c06bef" points="426.9,-1167.75 432.84,-1176.96 431.09,-1170.47 435.29,-1173.19 435.29,-1173.19 435.29,-1173.19 431.09,-1170.47 437.74,-1169.42 426.9,-1167.75 426.9,-1167.75"/>
<polygon fill="#c06bef" stroke="#c06bef" points="724.92,-92.71 735.01,-97.02 729.92,-92.62 734.92,-92.52 734.92,-92.52 734.92,-92.52 729.92,-92.62 734.83,-88.02 724.92,-92.71 724.92,-92.71"/>
</g>
<!-- User -->
<g id="node43" class="node">
<title>User</title>
<ellipse fill="none" stroke="black" cx="1074" cy="-877" rx="27.1" ry="18"/>
<text text-anchor="middle" x="1074" y="-873.3" font-family="Times,serif" font-size="14.00">User</text>
</g>
<!-- Assessment&#45;&gt;User -->
<g id="edge5" class="edge">
<title>Assessment&#45;&gt;User</title>
<path fill="none" stroke="#3adf81" d="M518.85,-1184.69C574.98,-1177.01 649,-1155.75 649,-1097 649,-1097 649,-1097 649,-949 649,-909.82 933.69,-887.21 1037.06,-880.3"/>
<polygon fill="#3adf81" stroke="#3adf81" points="518.88,-1184.69 508.4,-1181.47 513.92,-1185.31 508.96,-1185.93 508.96,-1185.93 508.96,-1185.93 513.92,-1185.31 509.52,-1190.4 518.88,-1184.69 518.88,-1184.69"/>
<polygon fill="#3adf81" stroke="#3adf81" points="1036.79,-880.31 1047.06,-884.15 1041.78,-879.99 1046.77,-879.66 1046.77,-879.66 1046.77,-879.66 1041.78,-879.99 1046.47,-875.17 1036.79,-880.31 1036.79,-880.31"/>
</g>
<!-- Assignment -->
<g id="node4" class="node">
<title>Assignment</title>
<ellipse fill="none" stroke="black" cx="2585" cy="-1190" rx="53.09" ry="18"/>
<text text-anchor="middle" x="2585" y="-1186.3" font-family="Times,serif" font-size="14.00">Assignment</text>
</g>
<!-- Assignment&#45;&gt;Course -->
<g id="edge8" class="edge">
<title>Assignment&#45;&gt;Course</title>
<path fill="none" stroke="#904357" d="M2524.69,-1183.17C2348.04,-1166.08 1834.54,-1116.4 1679.1,-1101.36"/>
<polygon fill="#904357" stroke="#904357" points="2524.59,-1183.16 2534.11,-1188.6 2529.56,-1183.64 2534.54,-1184.12 2534.54,-1184.12 2534.54,-1184.12 2529.56,-1183.64 2534.97,-1179.64 2524.59,-1183.16 2524.59,-1183.16"/>
<polygon fill="#904357" stroke="#904357" points="1679.34,-1101.39 1669.82,-1095.94 1674.37,-1100.91 1669.39,-1100.42 1669.39,-1100.42 1669.39,-1100.42 1674.37,-1100.91 1668.96,-1104.9 1679.34,-1101.39 1679.34,-1101.39"/>
</g>
<!-- Assignment&#45;&gt;Project -->
<g id="edge9" class="edge">
<title>Assignment&#45;&gt;Project</title>
<path fill="none" stroke="#908431" d="M2612.64,-1166.65C2662.65,-1123.51 2763,-1023.32 2763,-914 2763,-914 2763,-914 2763,-352.5 2763,-324.32 2765.58,-310.12 2744,-292 2625.06,-192.11 2204.77,-222.91 2051,-201 1891.63,-178.3 1852.36,-168.75 1693,-146 1629.09,-136.88 1613.3,-132.68 1549,-127 1271.89,-102.53 937.65,-94.79 817.12,-92.69"/>
<polygon fill="#908431" stroke="#908431" points="2612.7,-1166.61 2602.16,-1169.65 2608.88,-1169.84 2605.07,-1173.08 2605.07,-1173.08 2605.07,-1173.08 2608.88,-1169.84 2607.99,-1176.51 2612.7,-1166.61 2612.7,-1166.61"/>
<polygon fill="#908431" stroke="#908431" points="817.13,-92.69 807.21,-88.02 812.14,-92.6 807.14,-92.52 807.14,-92.52 807.14,-92.52 812.14,-92.6 807.06,-97.02 817.13,-92.69 817.13,-92.69"/>
</g>
<!-- Rubric -->
<g id="node35" class="node">
<title>Rubric</title>
<ellipse fill="none" stroke="black" cx="1771" cy="-950" rx="34.39" ry="18"/>
<text text-anchor="middle" x="1771" y="-946.3" font-family="Times,serif" font-size="14.00">Rubric</text>
</g>
<!-- Assignment&#45;&gt;Rubric -->
<g id="edge7" class="edge">
<title>Assignment&#45;&gt;Rubric</title>
<path fill="none" stroke="#3b764a" d="M2540.97,-1172.73C2508.32,-1160.88 2462.62,-1144.73 2422,-1132 2192.88,-1060.17 1913.98,-987.5 1811.37,-961.24"/>
<polygon fill="#3b764a" stroke="#3b764a" points="2540.85,-1172.68 2548.7,-1180.33 2545.55,-1174.4 2550.24,-1176.11 2550.24,-1176.11 2550.24,-1176.11 2545.55,-1174.4 2551.78,-1171.88 2540.85,-1172.68 2540.85,-1172.68"/>
<polygon fill="#3b764a" stroke="#3b764a" points="1811.4,-961.25 1802.83,-954.42 1806.56,-960.02 1801.71,-958.78 1801.71,-958.78 1801.71,-958.78 1806.56,-960.02 1800.6,-963.14 1811.4,-961.25 1811.4,-961.25"/>
</g>
<!-- Submission -->
<g id="node40" class="node">
<title>Submission</title>
<ellipse fill="none" stroke="black" cx="2423" cy="-397" rx="51.99" ry="18"/>
<text text-anchor="middle" x="2423" y="-393.3" font-family="Times,serif" font-size="14.00">Submission</text>
</g>
<!-- Assignment&#45;&gt;Submission -->
<g id="edge10" class="edge">
<title>Assignment&#45;&gt;Submission</title>
<path fill="none" stroke="#3ef882" d="M2614.88,-1168.07C2625.01,-1161.78 2636.65,-1155.39 2648,-1151 2686.45,-1136.13 2712.83,-1164.86 2739,-1133 2759.88,-1107.59 2748.89,-1090.37 2739,-1059 2688.21,-897.83 2521,-916.48 2521,-747.5 2521,-747.5 2521,-747.5 2521,-483 2521,-451.74 2492.19,-429.39 2465.81,-415.48"/>
<polygon fill="#3ef882" stroke="#3ef882" points="2615.18,-1167.88 2604.33,-1169.5 2610.97,-1170.58 2606.77,-1173.29 2606.77,-1173.29 2606.77,-1173.29 2610.97,-1170.58 2609.2,-1177.07 2615.18,-1167.88 2615.18,-1167.88"/>
<polygon fill="#3ef882" stroke="#3ef882" points="2465.95,-415.55 2459.01,-407.05 2461.47,-413.31 2457,-411.08 2457,-411.08 2457,-411.08 2461.47,-413.31 2454.99,-415.11 2465.95,-415.55 2465.95,-415.55"/>
</g>
<!-- Behavior -->
<g id="node5" class="node">
<title>Behavior</title>
<ellipse fill="none" stroke="black" cx="1749" cy="-703" rx="42.79" ry="18"/>
<text text-anchor="middle" x="1749" y="-699.3" font-family="Times,serif" font-size="14.00">Behavior</text>
</g>
<!-- Diagnosis -->
<g id="node18" class="node">
<title>Diagnosis</title>
<ellipse fill="none" stroke="black" cx="1842" cy="-630" rx="46.29" ry="18"/>
<text text-anchor="middle" x="1842" y="-626.3" font-family="Times,serif" font-size="14.00">Diagnosis</text>
</g>
<!-- Behavior&#45;&gt;Diagnosis -->
<g id="edge13" class="edge">
<title>Behavior&#45;&gt;Diagnosis</title>
<path fill="none" stroke="#3fb17b" d="M1776.42,-681.07C1788.19,-672.08 1801.94,-661.58 1813.8,-652.53"/>
<polygon fill="#3fb17b" stroke="#3fb17b" points="1776.67,-680.87 1765.99,-683.37 1772.7,-683.91 1768.72,-686.94 1768.72,-686.94 1768.72,-686.94 1772.7,-683.91 1771.45,-690.52 1776.67,-680.87 1776.67,-680.87"/>
<polygon fill="#3fb17b" stroke="#3fb17b" points="1813.71,-652.59 1824.39,-650.1 1817.69,-649.56 1821.66,-646.53 1821.66,-646.53 1821.66,-646.53 1817.69,-649.56 1818.93,-642.95 1813.71,-652.59 1813.71,-652.59"/>
</g>
<!-- Reaction -->
<g id="node33" class="node">
<title>Reaction</title>
<ellipse fill="none" stroke="black" cx="1676" cy="-950" rx="42.49" ry="18"/>
<text text-anchor="middle" x="1676" y="-946.3" font-family="Times,serif" font-size="14.00">Reaction</text>
</g>
<!-- Behavior&#45;&gt;Reaction -->
<g id="edge12" class="edge">
<title>Behavior&#45;&gt;Reaction</title>
<path fill="none" stroke="#8a0d12" d="M1747.52,-731.33C1746.04,-752.44 1743.21,-782.27 1738,-808 1729.32,-850.86 1706.43,-896.49 1691.03,-923.87"/>
<polygon fill="#8a0d12" stroke="#8a0d12" points="1747.52,-731.43 1752.65,-721.74 1747.84,-726.44 1748.16,-721.45 1748.16,-721.45 1748.16,-721.45 1747.84,-726.44 1743.67,-721.16 1747.52,-731.43 1747.52,-731.43"/>
<polygon fill="#8a0d12" stroke="#8a0d12" points="1691.1,-923.75 1682.22,-930.19 1688.61,-928.09 1686.13,-932.42 1686.13,-932.42 1686.13,-932.42 1688.61,-928.09 1690.03,-934.66 1691.1,-923.75 1691.1,-923.75"/>
</g>
<!-- Scenario -->
<g id="node37" class="node">
<title>Scenario</title>
<ellipse fill="none" stroke="black" cx="1698" cy="-630" rx="41.69" ry="18"/>
<text text-anchor="middle" x="1698" y="-626.3" font-family="Times,serif" font-size="14.00">Scenario</text>
</g>
<!-- Behavior&#45;&gt;Scenario -->
<g id="edge11" class="edge">
<title>Behavior&#45;&gt;Scenario</title>
<path fill="none" stroke="#69a0ce" d="M1731.43,-677.54C1726.29,-670.38 1720.66,-662.55 1715.52,-655.39"/>
<polygon fill="#69a0ce" stroke="#69a0ce" points="1731.34,-677.41 1733.52,-688.16 1734.25,-681.47 1737.17,-685.53 1737.17,-685.53 1737.17,-685.53 1734.25,-681.47 1740.83,-682.91 1731.34,-677.41 1731.34,-677.41"/>
<polygon fill="#69a0ce" stroke="#69a0ce" points="1715.6,-655.5 1713.42,-644.75 1712.68,-651.44 1709.76,-647.38 1709.76,-647.38 1709.76,-647.38 1712.68,-651.44 1706.11,-650 1715.6,-655.5 1715.6,-655.5"/>
</g>
<!-- BingoBoard -->
<g id="node6" class="node">
<title>BingoBoard</title>
<ellipse fill="none" stroke="black" cx="2082" cy="-950" rx="53.89" ry="18"/>
<text text-anchor="middle" x="2082" y="-946.3" font-family="Times,serif" font-size="14.00">BingoBoard</text>
</g>
<!-- BingoCell -->
<g id="node7" class="node">
<title>BingoCell</title>
<ellipse fill="none" stroke="black" cx="1971" cy="-703" rx="46.59" ry="18"/>
<text text-anchor="middle" x="1971" y="-699.3" font-family="Times,serif" font-size="14.00">BingoCell</text>
</g>
<!-- BingoBoard&#45;&gt;BingoCell -->
<g id="edge16" class="edge">
<title>BingoBoard&#45;&gt;BingoCell</title>
<path fill="none" stroke="#9133a6" d="M2070.13,-922.8C2048.79,-875.7 2004.19,-777.26 1982.86,-730.18"/>
<polygon fill="#9133a6" stroke="#9133a6" points="2070.07,-922.66 2070.1,-933.63 2072.13,-927.22 2074.19,-931.77 2074.19,-931.77 2074.19,-931.77 2072.13,-927.22 2078.29,-929.91 2070.07,-922.66 2070.07,-922.66"/>
<polygon fill="#9133a6" stroke="#9133a6" points="1982.92,-730.32 1982.9,-719.35 1980.86,-725.76 1978.8,-721.21 1978.8,-721.21 1978.8,-721.21 1980.86,-725.76 1974.7,-723.07 1982.92,-730.32 1982.92,-730.32"/>
</g>
<!-- BingoGame -->
<g id="node8" class="node">
<title>BingoGame</title>
<ellipse fill="none" stroke="black" cx="1516" cy="-703" rx="53.89" ry="18"/>
<text text-anchor="middle" x="1516" y="-699.3" font-family="Times,serif" font-size="14.00">BingoGame</text>
</g>
<!-- BingoBoard&#45;&gt;BingoGame -->
<g id="edge14" class="edge">
<title>BingoBoard&#45;&gt;BingoGame</title>
<path fill="none" stroke="#6ce910" d="M2048,-928.91C1987.32,-893.66 1855.71,-819.87 1738,-772 1681.12,-748.87 1613.33,-729.19 1567.76,-717.04"/>
<polygon fill="#6ce910" stroke="#6ce910" points="2047.79,-928.79 2054.16,-937.71 2052.1,-931.3 2056.42,-933.82 2056.42,-933.82 2056.42,-933.82 2052.1,-931.3 2058.69,-929.94 2047.79,-928.79 2047.79,-928.79"/>
<polygon fill="#6ce910" stroke="#6ce910" points="1567.76,-717.05 1559.24,-710.14 1562.93,-715.77 1558.09,-714.49 1558.09,-714.49 1558.09,-714.49 1562.93,-715.77 1556.95,-718.85 1567.76,-717.05 1567.76,-717.05"/>
</g>
<!-- Concept -->
<g id="node13" class="node">
<title>Concept</title>
<ellipse fill="none" stroke="black" cx="1811" cy="-484" rx="40.09" ry="18"/>
<text text-anchor="middle" x="1811" y="-480.3" font-family="Times,serif" font-size="14.00">Concept</text>
</g>
<!-- BingoBoard&#45;&gt;Concept -->
<g id="edge19" class="edge">
<title>BingoBoard&#45;&gt;Concept</title>
<path fill="none" stroke="#5b8758" d="M2083.12,-921.89C2083.58,-908.65 2084,-892.5 2084,-878 2084,-878 2084,-878 2084,-745.5 2084,-630.48 2059.35,-572.48 1957,-520 1926.47,-504.35 1888.74,-495.54 1859.28,-490.67"/>
<polygon fill="#5b8758" stroke="#5b8758" points="2083.13,-921.79 2078.26,-931.62 2082.94,-926.79 2082.76,-931.79 2082.76,-931.79 2082.76,-931.79 2082.94,-926.79 2087.25,-931.95 2083.13,-921.79 2083.13,-921.79"/>
<polygon fill="#5b8758" stroke="#5b8758" points="1859.51,-490.71 1850.33,-484.72 1854.57,-489.94 1849.63,-489.17 1849.63,-489.17 1849.63,-489.17 1854.57,-489.94 1848.94,-493.62 1859.51,-490.71 1859.51,-490.71"/>
</g>
<!-- BingoBoard&#45;&gt;User -->
<g id="edge15" class="edge">
<title>BingoBoard&#45;&gt;User</title>
<path fill="none" stroke="#feb801" d="M2026.63,-938.58C2011.85,-936.1 1995.86,-933.69 1981,-932 1644.47,-893.77 1234.41,-881.68 1110.9,-878.78"/>
<polygon fill="#feb801" stroke="#feb801" points="2026.29,-938.52 2035.38,-944.65 2031.21,-939.37 2036.14,-940.21 2036.14,-940.21 2036.14,-940.21 2031.21,-939.37 2036.9,-935.78 2026.29,-938.52 2026.29,-938.52"/>
<polygon fill="#feb801" stroke="#feb801" points="1111.17,-878.78 1101.28,-874.06 1106.17,-878.67 1101.17,-878.55 1101.17,-878.55 1101.17,-878.55 1106.17,-878.67 1101.07,-883.05 1111.17,-878.78 1111.17,-878.78"/>
</g>
<!-- ActiveStorage::Attachment -->
<g id="node46" class="node">
<title>ActiveStorage::Attachment</title>
<ellipse fill="none" stroke="black" cx="2438" cy="-310" rx="107.48" ry="18"/>
<text text-anchor="middle" x="2438" y="-306.3" font-family="Times,serif" font-size="14.00">ActiveStorage::Attachment</text>
</g>
<!-- BingoBoard&#45;&gt;ActiveStorage::Attachment -->
<g id="edge17" class="edge">
<title>BingoBoard&#45;&gt;ActiveStorage::Attachment</title>
<path fill="none" stroke="#4277e5" d="M2107.74,-926.01C2117.41,-916.81 2128.18,-905.83 2137,-895 2219.42,-793.75 2244.41,-767.93 2296,-648 2344.65,-534.92 2298.63,-484.54 2362,-379 2372.63,-361.29 2389.36,-345.6 2404.41,-333.77"/>
<polygon fill="#4277e5" stroke="#4277e5" points="2107.92,-925.84 2097.54,-929.39 2104.27,-929.26 2100.62,-932.67 2100.62,-932.67 2100.62,-932.67 2104.27,-929.26 2103.69,-935.96 2107.92,-925.84 2107.92,-925.84"/>
<polygon fill="#4277e5" stroke="#4277e5" points="2404.13,-333.98 2414.82,-331.52 2408.11,-330.96 2412.1,-327.94 2412.1,-327.94 2412.1,-327.94 2408.11,-330.96 2409.38,-324.35 2404.13,-333.98 2404.13,-333.98"/>
<text text-anchor="middle" x="2372" y="-626.3" font-family="Times,serif" font-size="14.00">result_img_attachment</text>
</g>
<!-- ActiveStorage::Blob -->
<g id="node47" class="node">
<title>ActiveStorage::Blob</title>
<ellipse fill="none" stroke="black" cx="2230" cy="-310" rx="83.39" ry="18"/>
<text text-anchor="middle" x="2230" y="-306.3" font-family="Times,serif" font-size="14.00">ActiveStorage::Blob</text>
</g>
<!-- BingoBoard&#45;&gt;ActiveStorage::Blob -->
<g id="edge18" class="edge">
<title>BingoBoard&#45;&gt;ActiveStorage::Blob</title>
<path fill="none" stroke="#fd8fc0" d="M2097.69,-923.51C2119.28,-887.24 2157.76,-818.01 2178,-754 2199.7,-685.37 2203,-665.97 2203,-594 2203,-594 2203,-594 2203,-396 2203,-375.55 2210.19,-353.58 2217.14,-337.09"/>
<polygon fill="#fd8fc0" stroke="#fd8fc0" points="2097.74,-923.43 2088.73,-929.68 2095.17,-927.71 2092.59,-932 2092.59,-932 2092.59,-932 2095.17,-927.71 2096.45,-934.32 2097.74,-923.43 2097.74,-923.43"/>
<polygon fill="#fd8fc0" stroke="#fd8fc0" points="2217.09,-337.21 2225.27,-329.91 2219.13,-332.64 2221.16,-328.08 2221.16,-328.08 2221.16,-328.08 2219.13,-332.64 2217.05,-326.25 2217.09,-337.21 2217.09,-337.21"/>
<text text-anchor="middle" x="2247" y="-626.3" font-family="Times,serif" font-size="14.00">result_img_blob</text>
</g>
<!-- Candidate -->
<g id="node9" class="node">
<title>Candidate</title>
<ellipse fill="none" stroke="black" cx="1516" cy="-630" rx="46.29" ry="18"/>
<text text-anchor="middle" x="1516" y="-626.3" font-family="Times,serif" font-size="14.00">Candidate</text>
</g>
<!-- BingoCell&#45;&gt;Candidate -->
<g id="edge21" class="edge">
<title>BingoCell&#45;&gt;Candidate</title>
<path fill="none" stroke="#9cc774" d="M1918.35,-693.78C1830.59,-680.09 1655.43,-652.76 1568.06,-639.12"/>
<polygon fill="#9cc774" stroke="#9cc774" points="1918.31,-693.78 1927.5,-699.77 1923.25,-694.55 1928.19,-695.32 1928.19,-695.32 1928.19,-695.32 1923.25,-694.55 1928.89,-690.87 1918.31,-693.78 1918.31,-693.78"/>
<polygon fill="#9cc774" stroke="#9cc774" points="1568.24,-639.15 1559.05,-633.16 1563.3,-638.38 1558.36,-637.61 1558.36,-637.61 1558.36,-637.61 1563.3,-638.38 1557.67,-642.06 1568.24,-639.15 1568.24,-639.15"/>
</g>
<!-- BingoCell&#45;&gt;Concept -->
<g id="edge20" class="edge">
<title>BingoCell&#45;&gt;Concept</title>
<path fill="none" stroke="#70ab49" d="M1975.74,-674.99C1981.03,-635.13 1984.11,-560.86 1943,-520 1921.58,-498.71 1888.81,-489.95 1861.27,-486.51"/>
<polygon fill="#70ab49" stroke="#70ab49" points="1975.75,-674.91 1969.85,-684.15 1975.02,-679.86 1974.3,-684.8 1974.3,-684.8 1974.3,-684.8 1975.02,-679.86 1978.75,-685.46 1975.75,-674.91 1975.75,-674.91"/>
<polygon fill="#70ab49" stroke="#70ab49" points="1861.34,-486.51 1851.87,-480.99 1856.37,-485.99 1851.4,-485.47 1851.4,-485.47 1851.4,-485.47 1856.37,-485.99 1850.92,-489.94 1861.34,-486.51 1861.34,-486.51"/>
</g>
<!-- BingoGame&#45;&gt;Candidate -->
<g id="edge25" class="edge">
<title>BingoGame&#45;&gt;Candidate</title>
<path fill="none" stroke="#59729e" d="M1516,-675.05C1516,-669.38 1516,-663.4 1516,-657.74"/>
<polygon fill="#59729e" stroke="#59729e" points="1516,-674.81 1511.5,-684.81 1516,-679.81 1516,-684.81 1516,-684.81 1516,-684.81 1516,-679.81 1520.5,-684.81 1516,-674.81 1516,-674.81"/>
<polygon fill="#59729e" stroke="#59729e" points="1516,-658.03 1520.5,-648.03 1516,-653.03 1516,-648.03 1516,-648.03 1516,-648.03 1516,-653.03 1511.5,-648.03 1516,-658.03 1516,-658.03"/>
</g>
<!-- CandidateList -->
<g id="node11" class="node">
<title>CandidateList</title>
<ellipse fill="none" stroke="black" cx="1140" cy="-557" rx="59.59" ry="18"/>
<text text-anchor="middle" x="1140" y="-553.3" font-family="Times,serif" font-size="14.00">CandidateList</text>
</g>
<!-- BingoGame&#45;&gt;CandidateList -->
<g id="edge23" class="edge">
<title>BingoGame&#45;&gt;CandidateList</title>
<path fill="none" stroke="#37c8ce" d="M1462.99,-689.63C1440.21,-683.72 1413.48,-675.96 1390,-667 1320.55,-640.49 1308.54,-621.78 1240,-593 1223.7,-586.16 1205.54,-579.52 1189.21,-573.89"/>
<polygon fill="#37c8ce" stroke="#37c8ce" points="1462.8,-689.58 1471.38,-696.42 1467.65,-690.82 1472.49,-692.05 1472.49,-692.05 1472.49,-692.05 1467.65,-690.82 1473.6,-687.69 1462.8,-689.58 1462.8,-689.58"/>
<polygon fill="#37c8ce" stroke="#37c8ce" points="1189.31,-573.93 1181.29,-566.44 1184.57,-572.31 1179.84,-570.7 1179.84,-570.7 1179.84,-570.7 1184.57,-572.31 1178.39,-574.97 1189.31,-573.93 1189.31,-573.93"/>
</g>
<!-- BingoGame&#45;&gt;Concept -->
<g id="edge28" class="edge">
<title>BingoGame&#45;&gt;Concept</title>
<path fill="none" stroke="#260a07" d="M1539.9,-678.57C1563.98,-655.33 1599.8,-621.82 1616,-612 1636.69,-599.47 1643.56,-598.98 1667,-593 1694.19,-586.06 1771.52,-594.19 1792,-575 1808.87,-559.19 1812.74,-532.48 1812.91,-512.26"/>
<polygon fill="#260a07" stroke="#260a07" points="1540.03,-678.45 1529.71,-682.18 1536.44,-681.93 1532.85,-685.41 1532.85,-685.41 1532.85,-685.41 1536.44,-681.93 1535.98,-688.64 1540.03,-678.45 1540.03,-678.45"/>
<polygon fill="#260a07" stroke="#260a07" points="1812.91,-512.36 1817.21,-502.27 1812.81,-507.36 1812.72,-502.36 1812.72,-502.36 1812.72,-502.36 1812.81,-507.36 1808.22,-502.45 1812.91,-512.36 1812.91,-512.36"/>
</g>
<!-- BingoGame&#45;&gt;Course -->
<g id="edge22" class="edge">
<title>BingoGame&#45;&gt;Course</title>
<path fill="none" stroke="#c52741" d="M1516.96,-730.92C1517.47,-747.63 1518,-769.56 1518,-789 1518,-1024 1518,-1024 1518,-1024 1518,-1059.35 1557.68,-1077.64 1590.62,-1086.73"/>
<polygon fill="#c52741" stroke="#c52741" points="1516.97,-731.25 1521.14,-721.11 1516.81,-726.25 1516.64,-721.25 1516.64,-721.25 1516.64,-721.25 1516.81,-726.25 1512.15,-721.4 1516.97,-731.25 1516.97,-731.25"/>
<polygon fill="#c52741" stroke="#c52741" points="1590.45,-1086.68 1599.02,-1093.52 1595.29,-1087.92 1600.14,-1089.16 1600.14,-1089.16 1600.14,-1089.16 1595.29,-1087.92 1601.25,-1084.8 1590.45,-1086.68 1590.45,-1086.68"/>
</g>
<!-- BingoGame&#45;&gt;Group -->
<g id="edge27" class="edge">
<title>BingoGame&#45;&gt;Group</title>
<path fill="none" stroke="#6bf438" d="M1459.46,-690.8C1447.11,-685.62 1435.5,-678.06 1428,-667 1414.28,-646.77 1415.26,-632.86 1428,-612 1446.75,-581.29 1481.25,-605.71 1500,-575 1508.34,-561.34 1510.57,-551.01 1500,-539 1475.11,-510.73 1222.56,-493.29 1119.97,-487.32"/>
<polygon fill="#6bf438" stroke="#6bf438" points="1459.16,-690.69 1466.98,-698.38 1463.85,-692.42 1468.54,-694.16 1468.54,-694.16 1468.54,-694.16 1463.85,-692.42 1470.1,-689.94 1459.16,-690.69 1459.16,-690.69"/>
<polygon fill="#6bf438" stroke="#6bf438" points="1120.22,-487.33 1110.49,-482.27 1115.23,-487.05 1110.24,-486.76 1110.24,-486.76 1110.24,-486.76 1115.23,-487.05 1109.98,-491.25 1120.22,-487.33 1120.22,-487.33"/>
</g>
<!-- BingoGame&#45;&gt;Project -->
<g id="edge24" class="edge">
<title>BingoGame&#45;&gt;Project</title>
<path fill="none" stroke="#e91bac" d="M1485.51,-680.13C1475.78,-671.37 1466.2,-660.39 1461,-648 1454.81,-633.25 1453.42,-626.09 1461,-612 1475.13,-585.73 1495.35,-595.52 1517,-575 1538.68,-554.46 1557,-550.87 1557,-521 1557,-521 1557,-521 1557,-163 1557,-125.59 984.86,-100.33 816.86,-93.72"/>
<polygon fill="#e91bac" stroke="#e91bac" points="1485.27,-679.93 1490,-689.83 1489.09,-683.16 1492.9,-686.4 1492.9,-686.4 1492.9,-686.4 1489.09,-683.16 1495.81,-682.96 1485.27,-679.93 1485.27,-679.93"/>
<polygon fill="#e91bac" stroke="#e91bac" points="817.07,-93.73 807.25,-88.84 812.07,-93.54 807.07,-93.34 807.07,-93.34 807.07,-93.34 812.07,-93.54 806.9,-97.84 817.07,-93.73 817.07,-93.73"/>
</g>
<!-- BingoGame&#45;&gt;User -->
<g id="edge26" class="edge">
<title>BingoGame&#45;&gt;User</title>
<path fill="none" stroke="#4b09ae" d="M1484.09,-724.71C1477.1,-729.35 1469.76,-734.29 1463,-739 1400.12,-782.79 1394.99,-812.15 1324,-841 1252.59,-870.03 1161.3,-875.69 1111.15,-876.39"/>
<polygon fill="#4b09ae" stroke="#4b09ae" points="1483.74,-724.94 1494.56,-723.19 1487.91,-722.19 1492.09,-719.43 1492.09,-719.43 1492.09,-719.43 1487.91,-722.19 1489.61,-715.68 1483.74,-724.94 1483.74,-724.94"/>
<polygon fill="#4b09ae" stroke="#4b09ae" points="1111.39,-876.39 1101.35,-871.97 1106.39,-876.43 1101.39,-876.47 1101.39,-876.47 1101.39,-876.47 1106.39,-876.43 1101.43,-880.97 1111.39,-876.39 1111.39,-876.39"/>
</g>
<!-- CandidateFeedback -->
<g id="node10" class="node">
<title>CandidateFeedback</title>
<ellipse fill="none" stroke="black" cx="1703" cy="-557" rx="79.89" ry="18"/>
<text text-anchor="middle" x="1703" y="-553.3" font-family="Times,serif" font-size="14.00">CandidateFeedback</text>
</g>
<!-- Candidate&#45;&gt;CandidateFeedback -->
<g id="edge30" class="edge">
<title>Candidate&#45;&gt;CandidateFeedback</title>
<path fill="none" stroke="#9dcba3" d="M1557.15,-613.38C1585.83,-602.49 1624.21,-587.91 1654.4,-576.45"/>
<polygon fill="#9dcba3" stroke="#9dcba3" points="1557.5,-613.25 1546.55,-612.59 1552.82,-615.02 1548.15,-616.79 1548.15,-616.79 1548.15,-616.79 1552.82,-615.02 1549.74,-621 1557.5,-613.25 1557.5,-613.25"/>
<polygon fill="#9dcba3" stroke="#9dcba3" points="1654.14,-576.55 1665.08,-577.21 1658.81,-574.78 1663.49,-573 1663.49,-573 1663.49,-573 1658.81,-574.78 1661.89,-568.8 1654.14,-576.55 1654.14,-576.55"/>
</g>
<!-- Candidate&#45;&gt;CandidateList -->
<g id="edge29" class="edge">
<title>Candidate&#45;&gt;CandidateList</title>
<path fill="none" stroke="#f8d20e" d="M1465.25,-619.42C1396.05,-606.35 1272.34,-582.99 1199.06,-569.15"/>
<polygon fill="#f8d20e" stroke="#f8d20e" points="1465.22,-619.41 1474.21,-625.69 1470.13,-620.34 1475.05,-621.27 1475.05,-621.27 1475.05,-621.27 1470.13,-620.34 1475.88,-616.84 1465.22,-619.41 1465.22,-619.41"/>
<polygon fill="#f8d20e" stroke="#f8d20e" points="1199.33,-569.2 1190.34,-562.93 1194.42,-568.28 1189.51,-567.35 1189.51,-567.35 1189.51,-567.35 1194.42,-568.28 1188.67,-571.77 1199.33,-569.2 1199.33,-569.2"/>
</g>
<!-- Candidate&#45;&gt;Concept -->
<g id="edge31" class="edge">
<title>Candidate&#45;&gt;Concept</title>
<path fill="none" stroke="#00f80d" d="M1546.66,-608.08C1552.58,-603.64 1558.62,-598.83 1564,-594 1588.58,-571.93 1585.84,-556.27 1614,-539 1659.89,-510.85 1720.64,-497.09 1762.49,-490.56"/>
<polygon fill="#00f80d" stroke="#00f80d" points="1546.79,-607.98 1536.06,-610.23 1542.75,-610.92 1538.71,-613.87 1538.71,-613.87 1538.71,-613.87 1542.75,-610.92 1541.36,-617.51 1546.79,-607.98 1546.79,-607.98"/>
<polygon fill="#00f80d" stroke="#00f80d" points="1762.27,-490.59 1772.83,-493.58 1767.22,-489.86 1772.17,-489.13 1772.17,-489.13 1772.17,-489.13 1767.22,-489.86 1771.51,-484.68 1762.27,-490.59 1762.27,-490.59"/>
</g>
<!-- Candidate&#45;&gt;User -->
<g id="edge32" class="edge">
<title>Candidate&#45;&gt;User</title>
<path fill="none" stroke="#351d9c" d="M1490.09,-653.09C1432.53,-701.76 1294.78,-815.94 1240,-841 1198.07,-860.18 1145.35,-868.99 1110.71,-872.94"/>
<polygon fill="#351d9c" stroke="#351d9c" points="1490.04,-653.14 1500.58,-650.1 1493.85,-649.9 1497.67,-646.67 1497.67,-646.67 1497.67,-646.67 1493.85,-649.9 1494.76,-643.24 1490.04,-653.14 1490.04,-653.14"/>
<polygon fill="#351d9c" stroke="#351d9c" points="1110.95,-872.92 1100.53,-869.5 1105.98,-873.45 1101.01,-873.98 1101.01,-873.98 1101.01,-873.98 1105.98,-873.45 1101.49,-878.45 1110.95,-872.92 1110.95,-872.92"/>
</g>
<!-- CandidateList&#45;&gt;CandidateList -->
<g id="edge37" class="edge">
<title>CandidateList&#45;&gt;CandidateList</title>
<path fill="none" stroke="#89f0a3" d="M1208.66,-559.63C1214.29,-559.06 1217.79,-558.19 1217.79,-557 1217.79,-555.81 1214.29,-554.94 1208.66,-554.37"/>
<polygon fill="#89f0a3" stroke="#89f0a3" points="1209.01,-559.61 1198.74,-555.76 1204.02,-559.93 1199.03,-560.25 1199.03,-560.25 1199.03,-560.25 1204.02,-559.93 1199.31,-564.74 1209.01,-559.61 1209.01,-559.61"/>
<polygon fill="#89f0a3" stroke="#89f0a3" points="1209.01,-554.39 1199.31,-549.26 1204.02,-554.07 1199.03,-553.75 1199.03,-553.75 1199.03,-553.75 1204.02,-554.07 1198.74,-558.24 1209.01,-554.39 1209.01,-554.39"/>
<text text-anchor="middle" x="1278.29" y="-553.3" font-family="Times,serif" font-size="14.00">current_candidate_list</text>
</g>
<!-- CandidateList&#45;&gt;CandidateList -->
<g id="edge38" class="edge">
<title>CandidateList&#45;&gt;CandidateList</title>
<path fill="none" stroke="#774cdd" d="M1206.63,-563.11C1265.39,-565.09 1338.79,-563.05 1338.79,-557 1338.79,-550.95 1265.39,-548.91 1206.63,-550.89"/>
<polygon fill="#774cdd" stroke="#774cdd" points="1206.96,-563.13 1197.14,-558.25 1201.97,-562.94 1196.97,-562.75 1196.97,-562.75 1196.97,-562.75 1201.97,-562.94 1196.8,-567.24 1206.96,-563.13 1206.96,-563.13"/>
<polygon fill="#774cdd" stroke="#774cdd" points="1206.96,-550.87 1196.8,-546.76 1201.97,-551.06 1196.97,-551.25 1196.97,-551.25 1196.97,-551.25 1201.97,-551.06 1197.14,-555.75 1206.96,-550.87 1206.96,-550.87"/>
<text text-anchor="middle" x="1405.79" y="-553.3" font-family="Times,serif" font-size="14.00">archived_candidate_lists</text>
</g>
<!-- CandidateList&#45;&gt;Concept -->
<g id="edge35" class="edge">
<title>CandidateList&#45;&gt;Concept</title>
<path fill="none" stroke="#acba05" d="M1205.1,-549.11C1339.16,-534.93 1643.42,-502.73 1762.2,-490.16"/>
<polygon fill="#acba05" stroke="#acba05" points="1205.43,-549.08 1195.01,-545.65 1200.45,-549.6 1195.48,-550.13 1195.48,-550.13 1195.48,-550.13 1200.45,-549.6 1195.96,-554.6 1205.43,-549.08 1205.43,-549.08"/>
<polygon fill="#acba05" stroke="#acba05" points="1762.16,-490.17 1772.58,-493.59 1767.14,-489.64 1772.11,-489.12 1772.11,-489.12 1772.11,-489.12 1767.14,-489.64 1771.63,-484.64 1762.16,-490.17 1762.16,-490.17"/>
</g>
<!-- CandidateList&#45;&gt;Course -->
<g id="edge36" class="edge">
<title>CandidateList&#45;&gt;Course</title>
<path fill="none" stroke="#315c0f" d="M1071.36,-561.32C983.5,-569.26 832.03,-595.91 743,-685 529.59,-898.56 670.09,-796.56 698,-841 725.23,-884.34 1063.75,-1027.04 1113,-1041 1283.34,-1089.28 1495.94,-1095.36 1587.99,-1095.5"/>
<polygon fill="#315c0f" stroke="#315c0f" points="1071.26,-561.33 1081.61,-564.97 1076.24,-560.91 1081.22,-560.49 1081.22,-560.49 1081.22,-560.49 1076.24,-560.91 1080.84,-556 1071.26,-561.33 1071.26,-561.33"/>
<polygon fill="#315c0f" stroke="#315c0f" points="1587.83,-1095.5 1597.83,-1099.99 1592.83,-1095.5 1597.83,-1095.49 1597.83,-1095.49 1597.83,-1095.49 1592.83,-1095.5 1597.82,-1090.99 1587.83,-1095.5 1587.83,-1095.5"/>
</g>
<!-- CandidateList&#45;&gt;Group -->
<g id="edge34" class="edge">
<title>CandidateList&#45;&gt;Group</title>
<path fill="none" stroke="#daa378" d="M1118.69,-531.98C1111.82,-524.24 1104.24,-515.7 1097.44,-508.03"/>
<polygon fill="#daa378" stroke="#daa378" points="1118.43,-531.69 1121.7,-542.16 1121.75,-535.43 1125.07,-539.17 1125.07,-539.17 1125.07,-539.17 1121.75,-535.43 1128.44,-536.19 1118.43,-531.69 1118.43,-531.69"/>
<polygon fill="#daa378" stroke="#daa378" points="1097.6,-508.21 1094.33,-497.75 1094.28,-504.47 1090.96,-500.73 1090.96,-500.73 1090.96,-500.73 1094.28,-504.47 1087.59,-503.72 1097.6,-508.21 1097.6,-508.21"/>
</g>
<!-- CandidateList&#45;&gt;User -->
<g id="edge33" class="edge">
<title>CandidateList&#45;&gt;User</title>
<path fill="none" stroke="#b03736" d="M1185.33,-576.19C1206.03,-587.76 1226,-605.11 1226,-629 1226,-791 1226,-791 1226,-791 1226,-815.65 1220.93,-825.21 1202,-841 1176.39,-862.35 1138.83,-870.75 1111.01,-874.01"/>
<polygon fill="#b03736" stroke="#b03736" points="1185.34,-576.2 1178.55,-567.59 1180.91,-573.89 1176.47,-571.58 1176.47,-571.58 1176.47,-571.58 1180.91,-573.89 1174.4,-575.58 1185.34,-576.2 1185.34,-576.2"/>
<polygon fill="#b03736" stroke="#b03736" points="1111.2,-874 1100.79,-870.52 1106.22,-874.5 1101.25,-875 1101.25,-875 1101.25,-875 1106.22,-874.5 1101.7,-879.48 1111.2,-874 1111.2,-874"/>
</g>
<!-- CipCode -->
<g id="node12" class="node">
<title>CipCode</title>
<ellipse fill="none" stroke="black" cx="947" cy="-397" rx="42.49" ry="18"/>
<text text-anchor="middle" x="947" y="-393.3" font-family="Times,serif" font-size="14.00">CipCode</text>
</g>
<!-- CipCode&#45;&gt;User -->
<g id="edge39" class="edge">
<title>CipCode&#45;&gt;User</title>
<path fill="none" stroke="#48ca5c" d="M905.76,-412.86C885.89,-420.43 865.74,-428.89 863,-433 859.3,-438.55 861.49,-441.51 863,-448 873.15,-491.55 1016.26,-766.08 1060.84,-851"/>
<polygon fill="#48ca5c" stroke="#48ca5c" points="905.75,-412.86 916.69,-413.56 910.43,-411.1 915.11,-409.35 915.11,-409.35 915.11,-409.35 910.43,-411.1 913.53,-405.13 905.75,-412.86 905.75,-412.86"/>
<polygon fill="#48ca5c" stroke="#48ca5c" points="1060.78,-850.87 1061.44,-861.82 1063.1,-855.3 1065.43,-859.73 1065.43,-859.73 1065.43,-859.73 1063.1,-855.3 1069.41,-857.63 1060.78,-850.87 1060.78,-850.87"/>
</g>
<!-- Concept&#45;&gt;Course -->
<g id="edge40" class="edge">
<title>Concept&#45;&gt;Course</title>
<path fill="none" stroke="#9cafd6" d="M1854.03,-497.28C1874.68,-505.54 1897.59,-518.73 1910,-539 1952.26,-608.01 1901.68,-641.18 1915,-721 1931.17,-817.92 1966.16,-834.87 1981,-932 1983.42,-947.82 1990.17,-954.89 1981,-968 1911.98,-1066.76 1757.46,-1088.97 1680.04,-1093.79"/>
<polygon fill="#9cafd6" stroke="#9cafd6" points="1854.11,-497.31 1846.31,-489.6 1849.43,-495.56 1844.74,-493.82 1844.74,-493.82 1844.74,-493.82 1849.43,-495.56 1843.17,-498.03 1854.11,-497.31 1854.11,-497.31"/>
<polygon fill="#9cafd6" stroke="#9cafd6" points="1680.08,-1093.79 1669.85,-1089.85 1675.09,-1094.06 1670.1,-1094.34 1670.1,-1094.34 1670.1,-1094.34 1675.09,-1094.06 1670.35,-1098.83 1680.08,-1093.79 1680.08,-1093.79"/>
</g>
<!-- ConsentForm -->
<g id="node14" class="node">
<title>ConsentForm</title>
<ellipse fill="none" stroke="black" cx="1634" cy="-1190" rx="59.29" ry="18"/>
<text text-anchor="middle" x="1634" y="-1186.3" font-family="Times,serif" font-size="14.00">ConsentForm</text>
</g>
<!-- ConsentLog -->
<g id="node15" class="node">
<title>ConsentLog</title>
<ellipse fill="none" stroke="black" cx="760" cy="-950" rx="53.89" ry="18"/>
<text text-anchor="middle" x="760" y="-946.3" font-family="Times,serif" font-size="14.00">ConsentLog</text>
</g>
<!-- ConsentForm&#45;&gt;ConsentLog -->
<g id="edge44" class="edge">
<title>ConsentForm&#45;&gt;ConsentLog</title>
<path fill="none" stroke="#e799a9" d="M1565.14,-1187.62C1387.68,-1183.55 924.5,-1169.52 866,-1133 808.98,-1097.4 779.19,-1019.07 766.93,-977.74"/>
<polygon fill="#e799a9" stroke="#e799a9" points="1564.9,-1187.61 1574.79,-1192.34 1569.9,-1187.73 1574.89,-1187.84 1574.89,-1187.84 1574.89,-1187.84 1569.9,-1187.73 1575,-1183.34 1564.9,-1187.61 1564.9,-1187.61"/>
<polygon fill="#e799a9" stroke="#e799a9" points="766.98,-977.94 768.57,-967.09 765.61,-973.13 764.24,-968.32 764.24,-968.32 764.24,-968.32 765.61,-973.13 759.92,-969.55 766.98,-977.94 766.98,-977.94"/>
</g>
<!-- ConsentForm&#45;&gt;Course -->
<g id="edge45" class="edge">
<title>ConsentForm&#45;&gt;Course</title>
<path fill="none" stroke="#e10fb4" d="M1634,-1162.13C1634,-1150.17 1634,-1136.12 1634,-1124.13"/>
<polygon fill="#e10fb4" stroke="#e10fb4" points="1634,-1161.7 1629.5,-1171.7 1634,-1166.7 1634,-1171.7 1634,-1171.7 1634,-1171.7 1634,-1166.7 1638.5,-1171.7 1634,-1161.7 1634,-1161.7"/>
<polygon fill="#e10fb4" stroke="#e10fb4" points="1634,-1124.23 1638.5,-1114.23 1634,-1119.23 1634,-1114.23 1634,-1114.23 1634,-1114.23 1634,-1119.23 1629.5,-1114.23 1634,-1124.23 1634,-1124.23"/>
</g>
<!-- ConsentForm&#45;&gt;User -->
<g id="edge41" class="edge">
<title>ConsentForm&#45;&gt;User</title>
<path fill="none" stroke="#f9d842" d="M1564.87,-1187.75C1378.57,-1183.48 880,-1165.63 880,-1097 880,-1097 880,-1097 880,-949 880,-915.67 982.24,-893.32 1038.27,-883.57"/>
<polygon fill="#f9d842" stroke="#f9d842" points="1564.84,-1187.75 1574.73,-1192.47 1569.84,-1187.86 1574.83,-1187.98 1574.83,-1187.98 1574.83,-1187.98 1569.84,-1187.86 1574.94,-1183.48 1564.84,-1187.75 1564.84,-1187.75"/>
<polygon fill="#f9d842" stroke="#f9d842" points="1037.98,-883.62 1048.59,-886.38 1042.91,-882.78 1047.84,-881.95 1047.84,-881.95 1047.84,-881.95 1042.91,-882.78 1047.08,-877.51 1037.98,-883.62 1037.98,-883.62"/>
</g>
<!-- ConsentForm&#45;&gt;ActiveStorage::Attachment -->
<g id="edge42" class="edge">
<title>ConsentForm&#45;&gt;ActiveStorage::Attachment</title>
<path fill="none" stroke="#8c3512" d="M1703.18,-1189.84C1928.36,-1188.62 2626,-1152.2 2626,-747.5 2626,-747.5 2626,-747.5 2626,-396 2626,-360.6 2595.48,-362.18 2564,-346 2548.75,-338.16 2531.54,-331.9 2514.84,-326.97"/>
<polygon fill="#8c3512" stroke="#8c3512" points="1703.45,-1189.84 1693.44,-1185.37 1698.45,-1189.85 1693.45,-1189.87 1693.45,-1189.87 1693.45,-1189.87 1698.45,-1189.85 1693.47,-1194.37 1703.45,-1189.84 1703.45,-1189.84"/>
<polygon fill="#8c3512" stroke="#8c3512" points="2515.26,-327.09 2506.86,-320.04 2510.44,-325.73 2505.63,-324.37 2505.63,-324.37 2505.63,-324.37 2510.44,-325.73 2504.41,-328.7 2515.26,-327.09 2515.26,-327.09"/>
<text text-anchor="middle" x="2668.5" y="-742.8" font-family="Times,serif" font-size="14.00">pdf_attachment</text>
</g>
<!-- ConsentForm&#45;&gt;ActiveStorage::Blob -->
<g id="edge43" class="edge">
<title>ConsentForm&#45;&gt;ActiveStorage::Blob</title>
<path fill="none" stroke="#af3c7f" d="M1700.36,-1183.1C1862.99,-1167.53 2276.15,-1120.96 2386,-1041 2460.03,-987.11 2559,-758.57 2559,-667 2559,-667 2559,-667 2559,-396 2559,-372.92 2562.81,-360.67 2545,-346 2525.81,-330.19 2346.64,-331.26 2322,-328 2314.64,-327.03 2306.98,-325.86 2299.35,-324.6"/>
<polygon fill="#af3c7f" stroke="#af3c7f" points="1700.43,-1183.09 1690.05,-1179.56 1695.46,-1183.56 1690.48,-1184.04 1690.48,-1184.04 1690.48,-1184.04 1695.46,-1183.56 1690.9,-1188.52 1700.43,-1183.09 1700.43,-1183.09"/>
<polygon fill="#af3c7f" stroke="#af3c7f" points="2299.6,-324.64 2290.5,-318.52 2294.67,-323.8 2289.74,-322.95 2289.74,-322.95 2289.74,-322.95 2294.67,-323.8 2288.98,-327.39 2299.6,-324.64 2299.6,-324.64"/>
<text text-anchor="middle" x="2571.5" y="-742.8" font-family="Times,serif" font-size="14.00">pdf_blob</text>
</g>
<!-- ConsentLog&#45;&gt;Project -->
<g id="edge47" class="edge">
<title>ConsentLog&#45;&gt;Project</title>
<path fill="none" stroke="#c23aea" d="M702.21,-940.15C562.52,-917.12 218,-849.95 218,-747.5 218,-747.5 218,-747.5 218,-163 218,-112.06 591.95,-96.89 724.83,-93.1"/>
<polygon fill="#c23aea" stroke="#c23aea" points="702.03,-940.12 711.18,-946.17 706.97,-940.92 711.9,-941.73 711.9,-941.73 711.9,-941.73 706.97,-940.92 712.63,-937.29 702.03,-940.12 702.03,-940.12"/>
<polygon fill="#c23aea" stroke="#c23aea" points="724.72,-93.11 734.84,-97.33 729.72,-92.97 734.72,-92.83 734.72,-92.83 734.72,-92.83 729.72,-92.97 734.59,-88.33 724.72,-93.11 724.72,-93.11"/>
</g>
<!-- ConsentLog&#45;&gt;User -->
<g id="edge46" class="edge">
<title>ConsentLog&#45;&gt;User</title>
<path fill="none" stroke="#13fe63" d="M803.7,-932.39C822.64,-925.66 845.2,-918.25 866,-913 925.21,-898.07 995.53,-887.74 1037.37,-882.35"/>
<polygon fill="#13fe63" stroke="#13fe63" points="803.84,-932.34 792.9,-931.5 799.13,-934.04 794.43,-935.74 794.43,-935.74 794.43,-935.74 799.13,-934.04 795.96,-939.97 803.84,-932.34 803.84,-932.34"/>
<polygon fill="#13fe63" stroke="#13fe63" points="1037.2,-882.37 1047.68,-885.58 1042.16,-881.75 1047.12,-881.12 1047.12,-881.12 1047.12,-881.12 1042.16,-881.75 1046.56,-876.65 1037.2,-882.37 1037.2,-882.37"/>
</g>
<!-- Experience -->
<g id="node20" class="node">
<title>Experience</title>
<ellipse fill="none" stroke="black" cx="1634" cy="-1023" rx="50.09" ry="18"/>
<text text-anchor="middle" x="1634" y="-1019.3" font-family="Times,serif" font-size="14.00">Experience</text>
</g>
<!-- Course&#45;&gt;Experience -->
<g id="edge52" class="edge">
<title>Course&#45;&gt;Experience</title>
<path fill="none" stroke="#6b55e4" d="M1634,-1068.05C1634,-1062.38 1634,-1056.4 1634,-1050.74"/>
<polygon fill="#6b55e4" stroke="#6b55e4" points="1634,-1067.81 1629.5,-1077.81 1634,-1072.81 1634,-1077.81 1634,-1077.81 1634,-1077.81 1634,-1072.81 1638.5,-1077.81 1634,-1067.81 1634,-1067.81"/>
<polygon fill="#6b55e4" stroke="#6b55e4" points="1634,-1051.03 1638.5,-1041.03 1634,-1046.03 1634,-1041.03 1634,-1041.03 1634,-1041.03 1634,-1046.03 1629.5,-1041.03 1634,-1051.03 1634,-1051.03"/>
</g>
<!-- Course&#45;&gt;Project -->
<g id="edge49" class="edge">
<title>Course&#45;&gt;Project</title>
<path fill="none" stroke="#62d4fc" d="M1679.37,-1091.06C1794.09,-1080.04 2090.5,-1044.53 2145,-968 2150.78,-959.89 2139.39,-494.33 2057,-379 1928.6,-199.27 1827.68,-215.48 1618,-146 1467.45,-96.11 971.16,-91.94 817.06,-91.88"/>
<polygon fill="#62d4fc" stroke="#62d4fc" points="1679.45,-1091.06 1669.07,-1087.51 1674.47,-1091.53 1669.49,-1091.99 1669.49,-1091.99 1669.49,-1091.99 1674.47,-1091.53 1669.91,-1096.47 1679.45,-1091.06 1679.45,-1091.06"/>
<polygon fill="#62d4fc" stroke="#62d4fc" points="817.41,-91.88 807.41,-87.38 812.41,-91.88 807.41,-91.88 807.41,-91.88 807.41,-91.88 812.41,-91.88 807.41,-96.38 817.41,-91.88 817.41,-91.88"/>
</g>
<!-- Roster -->
<g id="node34" class="node">
<title>Roster</title>
<ellipse fill="none" stroke="black" cx="2062" cy="-18" rx="33.6" ry="18"/>
<text text-anchor="middle" x="2062" y="-14.3" font-family="Times,serif" font-size="14.00">Roster</text>
</g>
<!-- Course&#45;&gt;Roster -->
<g id="edge50" class="edge">
<title>Course&#45;&gt;Roster</title>
<path fill="none" stroke="#aa6a9e" d="M1680.14,-1095.91C1759.68,-1096.02 1926.66,-1089.73 2057,-1041 2109.22,-1021.48 2137.67,-1019.5 2159,-968 2177.54,-923.24 2160.06,-907.4 2158,-859 2146.92,-598.66 2119,-534.58 2119,-274 2119,-274 2119,-274 2119,-90 2119,-69.54 2104.43,-51.62 2090.02,-38.9"/>
<polygon fill="#aa6a9e" stroke="#aa6a9e" points="1680.42,-1095.91 1670.44,-1091.37 1675.42,-1095.89 1670.42,-1095.87 1670.42,-1095.87 1670.42,-1095.87 1675.42,-1095.89 1670.4,-1100.37 1680.42,-1095.91 1680.42,-1095.91"/>
<polygon fill="#aa6a9e" stroke="#aa6a9e" points="2090.28,-39.11 2085.45,-29.27 2086.43,-35.93 2082.58,-32.74 2082.58,-32.74 2082.58,-32.74 2086.43,-35.93 2079.71,-36.2 2090.28,-39.11 2090.28,-39.11"/>
</g>
<!-- School -->
<g id="node38" class="node">
<title>School</title>
<ellipse fill="none" stroke="black" cx="1694" cy="-790" rx="35.19" ry="18"/>
<text text-anchor="middle" x="1694" y="-786.3" font-family="Times,serif" font-size="14.00">School</text>
</g>
<!-- Course&#45;&gt;School -->
<g id="edge48" class="edge">
<title>Course&#45;&gt;School</title>
<path fill="none" stroke="#1cab54" d="M1603.97,-1075.7C1592.67,-1066.67 1581.09,-1054.84 1575,-1041 1568.55,-1026.36 1572.04,-1020.72 1575,-1005 1591.26,-918.64 1600.03,-891.16 1659,-826 1662.84,-821.75 1667.05,-817.35 1671.18,-813.15"/>
<polygon fill="#1cab54" stroke="#1cab54" points="1603.69,-1075.49 1608.98,-1085.1 1607.69,-1078.49 1611.68,-1081.5 1611.68,-1081.5 1611.68,-1081.5 1607.69,-1078.49 1614.39,-1077.9 1603.69,-1075.49 1603.69,-1075.49"/>
<polygon fill="#1cab54" stroke="#1cab54" points="1670.91,-813.43 1681.16,-809.54 1674.44,-809.89 1677.98,-806.36 1677.98,-806.36 1677.98,-806.36 1674.44,-809.89 1674.8,-803.17 1670.91,-813.43 1670.91,-813.43"/>
</g>
<!-- Course&#45;&gt;User -->
<g id="edge51" class="edge">
<title>Course&#45;&gt;User</title>
<path fill="none" stroke="#79f8cc" d="M1588.54,-1091.99C1465.21,-1082.78 1129.13,-1050.45 1063,-968 1048.61,-950.06 1054.23,-923.29 1061.7,-903.6"/>
<polygon fill="#79f8cc" stroke="#79f8cc" points="1588.45,-1091.98 1598.1,-1097.2 1593.44,-1092.35 1598.42,-1092.71 1598.42,-1092.71 1598.42,-1092.71 1593.44,-1092.35 1598.75,-1088.22 1588.45,-1091.98 1588.45,-1091.98"/>
<polygon fill="#79f8cc" stroke="#79f8cc" points="1061.61,-903.82 1069.6,-896.3 1063.53,-899.2 1065.44,-894.58 1065.44,-894.58 1065.44,-894.58 1063.53,-899.2 1061.28,-892.86 1061.61,-903.82 1061.61,-903.82"/>
</g>
<!-- Criterium -->
<g id="node17" class="node">
<title>Criterium</title>
<ellipse fill="none" stroke="black" cx="2332" cy="-1023" rx="45.49" ry="18"/>
<text text-anchor="middle" x="2332" y="-1019.3" font-family="Times,serif" font-size="14.00">Criterium</text>
</g>
<!-- Criterium&#45;&gt;Rubric -->
<g id="edge53" class="edge">
<title>Criterium&#45;&gt;Rubric</title>
<path fill="none" stroke="#cc638e" d="M2286.75,-1008.99C2281.13,-1007.56 2275.45,-1006.19 2270,-1005 2218.52,-993.8 2205.26,-992.63 2153,-986 2030.99,-970.52 1886.23,-959.16 1815.03,-954.03"/>
<polygon fill="#cc638e" stroke="#cc638e" points="2286.43,-1008.91 2294.95,-1015.81 2291.26,-1010.18 2296.1,-1011.46 2296.1,-1011.46 2296.1,-1011.46 2291.26,-1010.18 2297.24,-1007.11 2286.43,-1008.91 2286.43,-1008.91"/>
<polygon fill="#cc638e" stroke="#cc638e" points="1815.04,-954.03 1805.39,-948.83 1810.06,-953.68 1805.07,-953.32 1805.07,-953.32 1805.07,-953.32 1810.06,-953.68 1804.75,-957.81 1815.04,-954.03 1815.04,-954.03"/>
</g>
<!-- Diagnosis&#45;&gt;Reaction -->
<g id="edge54" class="edge">
<title>Diagnosis&#45;&gt;Reaction</title>
<path fill="none" stroke="#c2d65e" d="M1834.03,-657.41C1818.43,-706.73 1780.71,-815.07 1728,-895 1720.54,-906.32 1710.54,-917.36 1701.3,-926.49"/>
<polygon fill="#c2d65e" stroke="#c2d65e" points="1833.96,-657.63 1841.23,-649.43 1835.45,-652.86 1836.94,-648.09 1836.94,-648.09 1836.94,-648.09 1835.45,-652.86 1832.64,-646.75 1833.96,-657.63 1833.96,-657.63"/>
<polygon fill="#c2d65e" stroke="#c2d65e" points="1701.35,-926.44 1691.01,-930.11 1697.74,-929.9 1694.12,-933.36 1694.12,-933.36 1694.12,-933.36 1697.74,-929.9 1697.24,-936.61 1701.35,-926.44 1701.35,-926.44"/>
</g>
<!-- Diagnosis&#45;&gt;User -->
<g id="edge56" class="edge">
<title>Diagnosis&#45;&gt;User</title>
<path fill="none" stroke="#3938aa" d="M1799.29,-646.03C1770.25,-656.46 1731.06,-670.95 1697,-685 1541.8,-749 1514.55,-795.37 1353,-841 1268.7,-864.81 1165.51,-872.44 1111.32,-874.87"/>
<polygon fill="#3938aa" stroke="#3938aa" points="1798.93,-646.16 1809.86,-647.03 1803.63,-644.47 1808.34,-642.79 1808.34,-642.79 1808.34,-642.79 1803.63,-644.47 1806.83,-638.55 1798.93,-646.16 1798.93,-646.16"/>
<polygon fill="#3938aa" stroke="#3938aa" points="1111.46,-874.86 1101.29,-870.78 1106.47,-875.07 1101.47,-875.28 1101.47,-875.28 1101.47,-875.28 1106.47,-875.07 1101.66,-879.77 1111.46,-874.86 1111.46,-874.86"/>
</g>
<!-- Week -->
<g id="node45" class="node">
<title>Week</title>
<ellipse fill="none" stroke="black" cx="1870" cy="-557" rx="31.4" ry="18"/>
<text text-anchor="middle" x="1870" y="-553.3" font-family="Times,serif" font-size="14.00">Week</text>
</g>
<!-- Diagnosis&#45;&gt;Week -->
<g id="edge55" class="edge">
<title>Diagnosis&#45;&gt;Week</title>
<path fill="none" stroke="#49094a" d="M1852.4,-602.63C1854.79,-596.57 1857.33,-590.14 1859.71,-584.09"/>
<polygon fill="#49094a" stroke="#49094a" points="1852.45,-602.51 1844.59,-610.16 1850.61,-607.16 1848.78,-611.81 1848.78,-611.81 1848.78,-611.81 1850.61,-607.16 1852.96,-613.46 1852.45,-602.51 1852.45,-602.51"/>
<polygon fill="#49094a" stroke="#49094a" points="1859.62,-584.33 1867.47,-576.68 1861.45,-579.68 1863.28,-575.03 1863.28,-575.03 1863.28,-575.03 1861.45,-579.68 1859.1,-573.38 1859.62,-584.33 1859.62,-584.33"/>
</g>
<!-- Email -->
<g id="node19" class="node">
<title>Email</title>
<ellipse fill="none" stroke="black" cx="1104" cy="-950" rx="32.49" ry="18"/>
<text text-anchor="middle" x="1104" y="-946.3" font-family="Times,serif" font-size="14.00">Email</text>
</g>
<!-- Email&#45;&gt;User -->
<g id="edge57" class="edge">
<title>Email&#45;&gt;User</title>
<path fill="none" stroke="#767c4e" d="M1093.07,-923.13C1090.38,-916.76 1087.5,-909.94 1084.81,-903.58"/>
<polygon fill="#767c4e" stroke="#767c4e" points="1093,-922.96 1092.75,-933.93 1094.94,-927.57 1096.89,-932.17 1096.89,-932.17 1096.89,-932.17 1094.94,-927.57 1101.04,-930.42 1093,-922.96 1093,-922.96"/>
<polygon fill="#767c4e" stroke="#767c4e" points="1084.95,-903.92 1085.2,-892.95 1083,-899.31 1081.06,-894.71 1081.06,-894.71 1081.06,-894.71 1083,-899.31 1076.91,-896.46 1084.95,-903.92 1084.95,-903.92"/>
</g>
<!-- Experience&#45;&gt;Reaction -->
<g id="edge58" class="edge">
<title>Experience&#45;&gt;Reaction</title>
<path fill="none" stroke="#9b7fab" d="M1648.95,-996.72C1652.96,-989.95 1657.29,-982.63 1661.29,-975.87"/>
<polygon fill="#9b7fab" stroke="#9b7fab" points="1649.04,-996.57 1640.08,-1002.88 1646.5,-1000.87 1643.95,-1005.17 1643.95,-1005.17 1643.95,-1005.17 1646.5,-1000.87 1647.83,-1007.47 1649.04,-996.57 1649.04,-996.57"/>
<polygon fill="#9b7fab" stroke="#9b7fab" points="1661.03,-976.31 1669.99,-970 1663.57,-972.01 1666.12,-967.71 1666.12,-967.71 1666.12,-967.71 1663.57,-972.01 1662.24,-965.41 1661.03,-976.31 1661.03,-976.31"/>
</g>
<!-- FactorPack -->
<g id="node22" class="node">
<title>FactorPack</title>
<ellipse fill="none" stroke="black" cx="611" cy="-164" rx="50.09" ry="18"/>
<text text-anchor="middle" x="611" y="-160.3" font-family="Times,serif" font-size="14.00">FactorPack</text>
</g>
<!-- Factor&#45;&gt;FactorPack -->
<g id="edge59" class="edge">
<title>Factor&#45;&gt;FactorPack</title>
<path fill="none" stroke="#2ea885" d="M576.66,-211.89C582.03,-204.56 587.93,-196.49 593.31,-189.15"/>
<polygon fill="#2ea885" stroke="#2ea885" points="576.71,-211.82 567.17,-217.23 573.75,-215.86 570.8,-219.89 570.8,-219.89 570.8,-219.89 573.75,-215.86 574.43,-222.55 576.71,-211.82 576.71,-211.82"/>
<polygon fill="#2ea885" stroke="#2ea885" points="592.98,-189.61 602.52,-184.2 595.93,-185.57 598.89,-181.54 598.89,-181.54 598.89,-181.54 595.93,-185.57 595.26,-178.88 592.98,-189.61 592.98,-189.61"/>
</g>
<!-- FactorPack&#45;&gt;Project -->
<g id="edge60" class="edge">
<title>FactorPack&#45;&gt;Project</title>
<path fill="none" stroke="#86b43c" d="M644.07,-143.04C653.86,-137.51 664.71,-131.73 675,-127 693.22,-118.62 714.07,-110.82 731.68,-104.71"/>
<polygon fill="#86b43c" stroke="#86b43c" points="644.1,-143.03 633.19,-144.12 639.77,-145.52 635.43,-148.02 635.43,-148.02 635.43,-148.02 639.77,-145.52 637.68,-151.92 644.1,-143.03 644.1,-143.03"/>
<polygon fill="#86b43c" stroke="#86b43c" points="731.62,-104.73 742.54,-105.76 736.36,-103.12 741.09,-101.5 741.09,-101.5 741.09,-101.5 736.36,-103.12 739.64,-97.24 731.62,-104.73 731.62,-104.73"/>
</g>
<!-- Gender -->
<g id="node23" class="node">
<title>Gender</title>
<ellipse fill="none" stroke="black" cx="850" cy="-397" rx="36.29" ry="18"/>
<text text-anchor="middle" x="850" y="-393.3" font-family="Times,serif" font-size="14.00">Gender</text>
</g>
<!-- Gender&#45;&gt;User -->
<g id="edge61" class="edge">
<title>Gender&#45;&gt;User</title>
<path fill="none" stroke="#34fa88" d="M843.72,-424.62C829.2,-491.76 798.4,-672.27 851,-808 858.06,-826.21 863,-831.4 880,-841 929.31,-868.85 995.93,-875.32 1036.88,-876.41"/>
<polygon fill="#34fa88" stroke="#34fa88" points="843.64,-424.96 850.21,-416.18 844.73,-420.08 845.81,-415.2 845.81,-415.2 845.81,-415.2 844.73,-420.08 841.42,-414.22 843.64,-424.96 843.64,-424.96"/>
<polygon fill="#34fa88" stroke="#34fa88" points="1036.71,-876.41 1046.63,-881.08 1041.71,-876.5 1046.71,-876.59 1046.71,-876.59 1046.71,-876.59 1041.71,-876.5 1046.79,-872.09 1036.71,-876.41 1036.71,-876.41"/>
</g>
<!-- Group&#45;&gt;CipCode -->
<g id="edge68" class="edge">
<title>Group&#45;&gt;CipCode</title>
<path fill="none" stroke="#0661c6" d="M1062.12,-458.69C1055.62,-449.65 1047.35,-439.93 1038,-433 1029.82,-426.94 1009.23,-418.84 989.7,-411.96"/>
<polygon fill="#0661c6" stroke="#0661c6" points="1061.94,-458.42 1063.84,-469.22 1064.75,-462.56 1067.56,-466.69 1067.56,-466.69 1067.56,-466.69 1064.75,-462.56 1071.28,-464.16 1061.94,-458.42 1061.94,-458.42"/>
<polygon fill="#0661c6" stroke="#0661c6" points="989.71,-411.97 981.73,-404.45 984.98,-410.33 980.26,-408.7 980.26,-408.7 980.26,-408.7 984.98,-410.33 978.79,-412.95 989.71,-411.97 989.71,-411.97"/>
</g>
<!-- Group&#45;&gt;Gender -->
<g id="edge69" class="edge">
<title>Group&#45;&gt;Gender</title>
<path fill="none" stroke="#6eaa59" d="M1049.43,-463.73C1033.12,-453.17 1011.67,-440.71 991,-433 950.74,-417.98 937.41,-426.49 896,-415 892.96,-414.16 889.85,-413.2 886.73,-412.19"/>
<polygon fill="#6eaa59" stroke="#6eaa59" points="1049.12,-463.52 1054.98,-472.79 1053.29,-466.28 1057.46,-469.04 1057.46,-469.04 1057.46,-469.04 1053.29,-466.28 1059.94,-465.28 1049.12,-463.52 1049.12,-463.52"/>
<polygon fill="#6eaa59" stroke="#6eaa59" points="886.94,-412.26 878.95,-404.75 882.21,-410.63 877.49,-409.01 877.49,-409.01 877.49,-409.01 882.21,-410.63 876.02,-413.26 886.94,-412.26 886.94,-412.26"/>
</g>
<!-- GroupRevision -->
<g id="node25" class="node">
<title>GroupRevision</title>
<ellipse fill="none" stroke="black" cx="1289" cy="-397" rx="64.19" ry="18"/>
<text text-anchor="middle" x="1289" y="-393.3" font-family="Times,serif" font-size="14.00">GroupRevision</text>
</g>
<!-- Group&#45;&gt;GroupRevision -->
<g id="edge64" class="edge">
<title>Group&#45;&gt;GroupRevision</title>
<path fill="none" stroke="#980f1d" d="M1118.09,-475.76C1145.19,-470.15 1181.09,-461.1 1211,-448 1228,-440.56 1245.51,-429.67 1259.63,-419.95"/>
<polygon fill="#980f1d" stroke="#980f1d" points="1118.33,-475.71 1107.65,-473.26 1113.43,-476.69 1108.53,-477.68 1108.53,-477.68 1108.53,-477.68 1113.43,-476.69 1109.41,-482.09 1118.33,-475.71 1118.33,-475.71"/>
<polygon fill="#980f1d" stroke="#980f1d" points="1259.34,-420.16 1270.11,-418.08 1263.43,-417.28 1267.52,-414.4 1267.52,-414.4 1267.52,-414.4 1263.43,-417.28 1264.93,-410.72 1259.34,-420.16 1259.34,-420.16"/>
</g>
<!-- HomeCountry -->
<g id="node26" class="node">
<title>HomeCountry</title>
<ellipse fill="none" stroke="black" cx="1107" cy="-397" rx="61.99" ry="18"/>
<text text-anchor="middle" x="1107" y="-393.3" font-family="Times,serif" font-size="14.00">HomeCountry</text>
</g>
<!-- Group&#45;&gt;HomeCountry -->
<g id="edge67" class="edge">
<title>Group&#45;&gt;HomeCountry</title>
<path fill="none" stroke="#4d85af" d="M1087.71,-456.8C1088.85,-453.84 1089.97,-450.86 1091,-448 1093.7,-440.49 1096.43,-432.26 1098.85,-424.69"/>
<polygon fill="#4d85af" stroke="#4d85af" points="1087.75,-456.7 1079.89,-464.35 1085.92,-461.35 1084.08,-466 1084.08,-466 1084.08,-466 1085.92,-461.35 1088.27,-467.66 1087.75,-456.7 1087.75,-456.7"/>
<polygon fill="#4d85af" stroke="#4d85af" points="1098.82,-424.77 1106.11,-416.57 1100.32,-420 1101.82,-415.23 1101.82,-415.23 1101.82,-415.23 1100.32,-420 1097.52,-413.88 1098.82,-424.77 1098.82,-424.77"/>
</g>
<!-- HomeState -->
<g id="node27" class="node">
<title>HomeState</title>
<ellipse fill="none" stroke="black" cx="1107" cy="-310" rx="50.09" ry="18"/>
<text text-anchor="middle" x="1107" y="-306.3" font-family="Times,serif" font-size="14.00">HomeState</text>
</g>
<!-- Group&#45;&gt;HomeState -->
<g id="edge66" class="edge">
<title>Group&#45;&gt;HomeState</title>
<path fill="none" stroke="#be065f" d="M1113,-469.32C1136.13,-458.43 1164.32,-440.7 1178,-415 1194.1,-384.74 1163.85,-352.54 1137.99,-332.12"/>
<polygon fill="#be065f" stroke="#be065f" points="1113.23,-469.22 1102.26,-469.2 1108.67,-471.26 1104.1,-473.3 1104.1,-473.3 1104.1,-473.3 1108.67,-471.26 1105.94,-477.41 1113.23,-469.22 1113.23,-469.22"/>
<polygon fill="#be065f" stroke="#be065f" points="1138.12,-332.22 1132.87,-322.59 1134.14,-329.2 1130.15,-326.18 1130.15,-326.18 1130.15,-326.18 1134.14,-329.2 1127.43,-329.76 1138.12,-332.22 1138.12,-332.22"/>
</g>
<!-- Group&#45;&gt;Installment -->
<g id="edge65" class="edge">
<title>Group&#45;&gt;Installment</title>
<path fill="none" stroke="#c14196" d="M1034.24,-479.42C947.01,-471.63 742.5,-450.9 574,-415 569.78,-414.1 565.41,-413.07 561.05,-411.97"/>
<polygon fill="#c14196" stroke="#c14196" points="1034.08,-479.4 1043.65,-484.76 1039.06,-479.84 1044.04,-480.28 1044.04,-480.28 1044.04,-480.28 1039.06,-479.84 1044.44,-475.8 1034.08,-479.4 1034.08,-479.4"/>
<polygon fill="#c14196" stroke="#c14196" points="561.25,-412.02 552.72,-405.12 556.41,-410.74 551.58,-409.47 551.58,-409.47 551.58,-409.47 556.41,-410.74 550.43,-413.82 561.25,-412.02 561.25,-412.02"/>
</g>
<!-- Language -->
<g id="node29" class="node">
<title>Language</title>
<ellipse fill="none" stroke="black" cx="628" cy="-397" rx="45.49" ry="18"/>
<text text-anchor="middle" x="628" y="-393.3" font-family="Times,serif" font-size="14.00">Language</text>
</g>
<!-- Group&#45;&gt;Language -->
<g id="edge70" class="edge">
<title>Group&#45;&gt;Language</title>
<path fill="none" stroke="#0c045f" d="M1035.76,-475.81C996.27,-468.87 935.02,-457.98 882,-448 810.84,-434.61 728.64,-418.27 677.49,-408"/>
<polygon fill="#0c045f" stroke="#0c045f" points="1035.71,-475.8 1044.78,-481.96 1040.64,-476.66 1045.56,-477.52 1045.56,-477.52 1045.56,-477.52 1040.64,-476.66 1046.34,-473.09 1035.71,-475.8 1035.71,-475.8"/>
<polygon fill="#0c045f" stroke="#0c045f" points="677.8,-408.06 668.88,-401.68 672.9,-407.07 667.99,-406.09 667.99,-406.09 667.99,-406.09 672.9,-407.07 667.11,-410.5 677.8,-408.06 677.8,-408.06"/>
<text text-anchor="middle" x="934.5" y="-436.8" font-family="Times,serif" font-size="14.00">primary_languages</text>
</g>
<!-- Group&#45;&gt;Project -->
<g id="edge62" class="edge">
<title>Group&#45;&gt;Project</title>
<path fill="none" stroke="#3821a6" d="M1070.46,-456.31C1067.73,-448.35 1064,-439.91 1059,-433 1051.39,-422.48 1045.66,-423.68 1036,-415 1030.01,-409.62 935,-319.05 935,-311 935,-311 935,-311 935,-163 935,-111.33 865.6,-96.84 817.1,-93.02"/>
<polygon fill="#3821a6" stroke="#3821a6" points="1070.4,-456.09 1069.02,-466.96 1071.86,-460.87 1073.32,-465.65 1073.32,-465.65 1073.32,-465.65 1071.86,-460.87 1077.62,-464.33 1070.4,-456.09 1070.4,-456.09"/>
<polygon fill="#3821a6" stroke="#3821a6" points="817.37,-93.04 807.7,-87.89 812.39,-92.71 807.4,-92.38 807.4,-92.38 807.4,-92.38 812.39,-92.71 807.1,-96.87 817.37,-93.04 817.37,-93.04"/>
</g>
<!-- Group&#45;&gt;Submission -->
<g id="edge71" class="edge">
<title>Group&#45;&gt;Submission</title>
<path fill="none" stroke="#8f4994" d="M1120.12,-480.28C1317.18,-467.83 2132.3,-416.36 2362.32,-401.83"/>
<polygon fill="#8f4994" stroke="#8f4994" points="1120.25,-480.27 1109.99,-476.41 1115.26,-480.58 1110.27,-480.9 1110.27,-480.9 1110.27,-480.9 1115.26,-480.58 1110.56,-485.39 1120.25,-480.27 1120.25,-480.27"/>
<polygon fill="#8f4994" stroke="#8f4994" points="2362.2,-401.84 2372.47,-405.7 2367.19,-401.52 2372.18,-401.21 2372.18,-401.21 2372.18,-401.21 2367.19,-401.52 2371.9,-396.72 2362.2,-401.84 2362.2,-401.84"/>
</g>
<!-- Group&#45;&gt;User -->
<g id="edge63" class="edge">
<title>Group&#45;&gt;User</title>
<path fill="none" stroke="#07f292" d="M1037.75,-495.38C1013.19,-503.65 982.45,-517.47 962,-539 842.66,-664.69 840.43,-769.35 867,-808 904.61,-862.71 987.95,-874.37 1036.64,-876.29"/>
<polygon fill="#07f292" stroke="#07f292" points="1037.64,-495.42 1048.53,-496.67 1042.4,-493.9 1047.16,-492.38 1047.16,-492.38 1047.16,-492.38 1042.4,-493.9 1045.8,-488.09 1037.64,-495.42 1037.64,-495.42"/>
<polygon fill="#07f292" stroke="#07f292" points="1036.47,-876.28 1046.34,-881.06 1041.47,-876.42 1046.47,-876.56 1046.47,-876.56 1046.47,-876.56 1041.47,-876.42 1046.6,-872.06 1036.47,-876.28 1036.47,-876.28"/>
</g>
<!-- HomeCountry&#45;&gt;HomeState -->
<g id="edge73" class="edge">
<title>HomeCountry&#45;&gt;HomeState</title>
<path fill="none" stroke="#d9653e" d="M1107,-368.8C1107,-359.1 1107,-348.16 1107,-338.43"/>
<polygon fill="#d9653e" stroke="#d9653e" points="1107,-368.8 1102.5,-378.8 1107,-373.8 1107,-378.8 1107,-378.8 1107,-378.8 1107,-373.8 1111.5,-378.8 1107,-368.8 1107,-368.8"/>
<polygon fill="#d9653e" stroke="#d9653e" points="1107,-338.47 1111.5,-328.47 1107,-333.47 1107,-328.47 1107,-328.47 1107,-328.47 1107,-333.47 1102.5,-328.47 1107,-338.47 1107,-338.47"/>
</g>
<!-- HomeCountry&#45;&gt;User -->
<g id="edge72" class="edge">
<title>HomeCountry&#45;&gt;User</title>
<path fill="none" stroke="#154ae2" d="M1072.15,-419.08C1036.44,-443 983.24,-485.7 962,-539 956.08,-553.86 957.32,-559.7 962,-575 967.81,-593.98 977.52,-594.57 987,-612 1023.51,-679.14 1031.35,-697.89 1050,-772 1056.61,-798.25 1063.49,-828.41 1068.18,-849.47"/>
<polygon fill="#154ae2" stroke="#154ae2" points="1072.01,-419.17 1082.84,-417.46 1076.19,-416.43 1080.37,-413.69 1080.37,-413.69 1080.37,-413.69 1076.19,-416.43 1077.91,-409.93 1072.01,-419.17 1072.01,-419.17"/>
<polygon fill="#154ae2" stroke="#154ae2" points="1068.13,-849.25 1065.9,-859.99 1069.21,-854.14 1070.3,-859.02 1070.3,-859.02 1070.3,-859.02 1069.21,-854.14 1074.69,-858.04 1068.13,-849.25 1068.13,-849.25"/>
</g>
<!-- HomeState&#45;&gt;User -->
<g id="edge74" class="edge">
<title>HomeState&#45;&gt;User</title>
<path fill="none" stroke="#9c6793" d="M1049.64,-317.09C972.29,-326.41 840.17,-346.63 805,-379 784.26,-398.09 786,-411.32 786,-439.5 786,-558 786,-558 786,-558 786,-782.61 778.92,-789.62 857,-841 885.97,-860.07 983.22,-869.7 1037.17,-873.69"/>
<polygon fill="#9c6793" stroke="#9c6793" points="1049.32,-317.12 1059.78,-320.42 1054.28,-316.54 1059.25,-315.95 1059.25,-315.95 1059.25,-315.95 1054.28,-316.54 1058.72,-311.48 1049.32,-317.12 1049.32,-317.12"/>
<polygon fill="#9c6793" stroke="#9c6793" points="1037.05,-873.68 1046.71,-878.88 1042.04,-874.03 1047.03,-874.39 1047.03,-874.39 1047.03,-874.39 1042.04,-874.03 1047.35,-869.9 1037.05,-873.68 1037.05,-873.68"/>
</g>
<!-- Installment&#45;&gt;User -->
<g id="edge75" class="edge">
<title>Installment&#45;&gt;User</title>
<path fill="none" stroke="#b00908" d="M458.84,-407.65C418.21,-418.3 370,-440 370,-483 370,-791 370,-791 370,-791 370,-845.11 428.46,-828.08 481,-841 587.1,-867.09 923.8,-873.97 1036.69,-875.56"/>
<polygon fill="#b00908" stroke="#b00908" points="458.73,-407.68 469.51,-409.67 463.58,-406.49 468.44,-405.3 468.44,-405.3 468.44,-405.3 463.58,-406.49 467.37,-400.93 458.73,-407.68 458.73,-407.68"/>
<polygon fill="#b00908" stroke="#b00908" points="1036.6,-875.56 1046.54,-880.2 1041.6,-875.63 1046.6,-875.7 1046.6,-875.7 1046.6,-875.7 1041.6,-875.63 1046.66,-871.2 1036.6,-875.56 1036.6,-875.56"/>
</g>
<!-- Value -->
<g id="node44" class="node">
<title>Value</title>
<ellipse fill="none" stroke="black" cx="748" cy="-310" rx="30.59" ry="18"/>
<text text-anchor="middle" x="748" y="-306.3" font-family="Times,serif" font-size="14.00">Value</text>
</g>
<!-- Installment&#45;&gt;Value -->
<g id="edge76" class="edge">
<title>Installment&#45;&gt;Value</title>
<path fill="none" stroke="#b2b9dd" d="M561.05,-382.01C565.41,-380.91 569.77,-379.89 574,-379 630.65,-367.08 651.88,-388.16 703,-361 714.44,-354.92 724.42,-344.72 732.05,-335.11"/>
<polygon fill="#b2b9dd" stroke="#b2b9dd" points="561.24,-381.96 550.43,-380.15 556.41,-383.23 551.57,-384.5 551.57,-384.5 551.57,-384.5 556.41,-383.23 552.71,-388.85 561.24,-381.96 561.24,-381.96"/>
<polygon fill="#b2b9dd" stroke="#b2b9dd" points="731.91,-335.3 741.5,-329.98 734.9,-331.29 737.89,-327.29 737.89,-327.29 737.89,-327.29 734.9,-331.29 734.28,-324.6 731.91,-335.3 731.91,-335.3"/>
</g>
<!-- Language&#45;&gt;User -->
<g id="edge77" class="edge">
<title>Language&#45;&gt;User</title>
<path fill="none" stroke="#ce0b34" d="M592.24,-416.43C569.38,-431.02 544,-453.8 544,-483 544,-667 544,-667 544,-667 544,-765.7 595.13,-794.14 682,-841 742.68,-873.73 951.27,-876.61 1036.88,-876.36"/>
<polygon fill="#ce0b34" stroke="#ce0b34" points="591.94,-416.6 602.83,-415.27 596.22,-414.01 600.5,-411.42 600.5,-411.42 600.5,-411.42 596.22,-414.01 598.16,-407.57 591.94,-416.6 591.94,-416.6"/>
<polygon fill="#ce0b34" stroke="#ce0b34" points="1036.69,-876.36 1046.71,-880.81 1041.69,-876.34 1046.69,-876.31 1046.69,-876.31 1046.69,-876.31 1041.69,-876.34 1046.67,-871.81 1036.69,-876.36 1036.69,-876.36"/>
</g>
<!-- Language&#45;&gt;User -->
<g id="edge78" class="edge">
<title>Language&#45;&gt;User</title>
<path fill="none" stroke="#2ab907" d="M628,-424.92C628,-441.64 628,-463.57 628,-483 628,-594 628,-594 628,-594 628,-711.15 626.22,-770.79 720,-841 744.97,-859.69 951.02,-870.68 1036.77,-874.48"/>
<polygon fill="#2ab907" stroke="#2ab907" points="628,-425.26 632.5,-415.26 628,-420.26 628,-415.26 628,-415.26 628,-415.26 628,-420.26 623.5,-415.26 628,-425.26 628,-425.26"/>
<polygon fill="#2ab907" stroke="#2ab907" points="1036.62,-874.48 1046.42,-879.41 1041.62,-874.69 1046.61,-874.91 1046.61,-874.91 1046.61,-874.91 1041.62,-874.69 1046.81,-870.41 1036.62,-874.48 1036.62,-874.48"/>
<text text-anchor="middle" x="662" y="-626.3" font-family="Times,serif" font-size="14.00">home_users</text>
</g>
<!-- Narrative -->
<g id="node30" class="node">
<title>Narrative</title>
<ellipse fill="none" stroke="black" cx="1597" cy="-790" rx="44.39" ry="18"/>
<text text-anchor="middle" x="1597" y="-786.3" font-family="Times,serif" font-size="14.00">Narrative</text>
</g>
<!-- Narrative&#45;&gt;Behavior -->
<g id="edge81" class="edge">
<title>Narrative&#45;&gt;Behavior</title>
<path fill="none" stroke="#5837af" d="M1631.17,-769.89C1656.37,-755.8 1690.49,-736.72 1715.53,-722.71"/>
<polygon fill="#5837af" stroke="#5837af" points="1631.17,-769.89 1620.25,-770.85 1626.81,-772.33 1622.44,-774.77 1622.44,-774.77 1622.44,-774.77 1626.81,-772.33 1624.64,-778.7 1631.17,-769.89 1631.17,-769.89"/>
<polygon fill="#5837af" stroke="#5837af" points="1715.25,-722.87 1726.18,-721.92 1719.62,-720.43 1723.98,-717.99 1723.98,-717.99 1723.98,-717.99 1719.62,-720.43 1721.79,-714.06 1715.25,-722.87 1715.25,-722.87"/>
</g>
<!-- Narrative&#45;&gt;Reaction -->
<g id="edge82" class="edge">
<title>Narrative&#45;&gt;Reaction</title>
<path fill="none" stroke="#8b404d" d="M1609.83,-816.65C1624.56,-846.12 1648.59,-894.18 1663.28,-923.56"/>
<polygon fill="#8b404d" stroke="#8b404d" points="1609.87,-816.73 1609.42,-805.77 1607.63,-812.26 1605.39,-807.79 1605.39,-807.79 1605.39,-807.79 1607.63,-812.26 1601.37,-809.8 1609.87,-816.73 1609.87,-816.73"/>
<polygon fill="#8b404d" stroke="#8b404d" points="1663.07,-923.15 1663.52,-934.1 1665.31,-927.62 1667.55,-932.09 1667.55,-932.09 1667.55,-932.09 1665.31,-927.62 1671.57,-930.08 1663.07,-923.15 1663.07,-923.15"/>
</g>
<!-- Narrative&#45;&gt;Scenario -->
<g id="edge79" class="edge">
<title>Narrative&#45;&gt;Scenario</title>
<path fill="none" stroke="#e43021" d="M1613,-763.97C1631.91,-734.39 1663.18,-685.47 1682.06,-655.93"/>
<polygon fill="#e43021" stroke="#e43021" points="1613.19,-763.67 1604.02,-769.67 1610.5,-767.88 1607.81,-772.09 1607.81,-772.09 1607.81,-772.09 1610.5,-767.88 1611.6,-774.51 1613.19,-763.67 1613.19,-763.67"/>
<polygon fill="#e43021" stroke="#e43021" points="1681.88,-656.21 1691.06,-650.21 1684.58,-652 1687.27,-647.79 1687.27,-647.79 1687.27,-647.79 1684.58,-652 1683.48,-645.36 1681.88,-656.21 1681.88,-656.21"/>
</g>
<!-- Narrative&#45;&gt;Week -->
<g id="edge80" class="edge">
<title>Narrative&#45;&gt;Week</title>
<path fill="none" stroke="#3ec2b1" d="M1596.48,-762.07C1597.28,-723.08 1604.86,-651.27 1647,-612 1706.11,-556.91 1747.41,-597.57 1825,-575 1828.49,-573.98 1832.1,-572.82 1835.68,-571.59"/>
<polygon fill="#3ec2b1" stroke="#3ec2b1" points="1596.48,-761.69 1591.91,-771.66 1596.45,-766.69 1596.41,-771.69 1596.41,-771.69 1596.41,-771.69 1596.45,-766.69 1600.91,-771.73 1596.48,-761.69 1596.48,-761.69"/>
<polygon fill="#3ec2b1" stroke="#3ec2b1" points="1835.6,-571.62 1846.53,-572.47 1840.3,-569.93 1845.01,-568.23 1845.01,-568.23 1845.01,-568.23 1840.3,-569.93 1843.48,-564 1835.6,-571.62 1835.6,-571.62"/>
</g>
<!-- Project&#45;&gt;Factor -->
<g id="edge87" class="edge">
<title>Project&#45;&gt;Factor</title>
<path fill="none" stroke="#eccbb4" d="M726.26,-96.6C668.61,-103.55 573.23,-118.9 552,-146 538.03,-163.84 542.07,-190.23 548.23,-209.83"/>
<polygon fill="#eccbb4" stroke="#eccbb4" points="725.94,-96.64 736.39,-99.94 730.9,-96.05 735.87,-95.47 735.87,-95.47 735.87,-95.47 730.9,-96.05 735.35,-91 725.94,-96.64 725.94,-96.64"/>
<polygon fill="#eccbb4" stroke="#eccbb4" points="548.18,-209.66 547.22,-220.59 549.82,-214.38 551.46,-219.11 551.46,-219.11 551.46,-219.11 549.82,-214.38 555.71,-217.63 548.18,-209.66 548.18,-209.66"/>
</g>
<!-- Project&#45;&gt;Installment -->
<g id="edge85" class="edge">
<title>Project&#45;&gt;Installment</title>
<path fill="none" stroke="#9a3828" d="M734.37,-107.01C712.52,-118.65 689,-137.18 689,-163 689,-311 689,-311 689,-311 689,-325.66 608.55,-359.52 556.74,-379.8"/>
<polygon fill="#9a3828" stroke="#9a3828" points="734.29,-107.05 745.25,-106.62 738.76,-104.82 743.24,-102.59 743.24,-102.59 743.24,-102.59 738.76,-104.82 741.23,-98.56 734.29,-107.05 734.29,-107.05"/>
<polygon fill="#9a3828" stroke="#9a3828" points="557.06,-379.67 546.11,-379.1 552.4,-381.49 547.74,-383.3 547.74,-383.3 547.74,-383.3 552.4,-381.49 549.37,-387.49 557.06,-379.67 557.06,-379.67"/>
</g>
<!-- Project&#45;&gt;Roster -->
<g id="edge83" class="edge">
<title>Project&#45;&gt;Roster</title>
<path fill="none" stroke="#3046aa" d="M816.7,-87.49C1017.68,-76.43 1821.78,-32.21 2018.44,-21.4"/>
<polygon fill="#3046aa" stroke="#3046aa" points="816.86,-87.48 806.63,-83.53 811.87,-87.75 806.88,-88.03 806.88,-88.03 806.88,-88.03 811.87,-87.75 807.12,-92.52 816.86,-87.48 816.86,-87.48"/>
<polygon fill="#3046aa" stroke="#3046aa" points="2018.42,-21.4 2028.65,-25.34 2023.41,-21.12 2028.4,-20.85 2028.4,-20.85 2028.4,-20.85 2023.41,-21.12 2028.15,-16.35 2018.42,-21.4 2018.42,-21.4"/>
</g>
<!-- Style -->
<g id="node39" class="node">
<title>Style</title>
<ellipse fill="none" stroke="black" cx="771" cy="-18" rx="28.7" ry="18"/>
<text text-anchor="middle" x="771" y="-14.3" font-family="Times,serif" font-size="14.00">Style</text>
</g>
<!-- Project&#45;&gt;Style -->
<g id="edge84" class="edge">
<title>Project&#45;&gt;Style</title>
<path fill="none" stroke="#d92a0a" d="M771,-63.05C771,-57.38 771,-51.4 771,-45.74"/>
<polygon fill="#d92a0a" stroke="#d92a0a" points="771,-62.81 766.5,-72.81 771,-67.81 771,-72.81 771,-72.81 771,-72.81 771,-67.81 775.5,-72.81 771,-62.81 771,-62.81"/>
<polygon fill="#d92a0a" stroke="#d92a0a" points="771,-46.03 775.5,-36.03 771,-41.03 771,-36.03 771,-36.03 771,-36.03 771,-41.03 766.5,-36.03 771,-46.03 771,-46.03"/>
</g>
<!-- Project&#45;&gt;User -->
<g id="edge86" class="edge">
<title>Project&#45;&gt;User</title>
<path fill="none" stroke="#e88538" d="M725.21,-94.05C605.78,-100 294,-119.68 294,-163 294,-747.5 294,-747.5 294,-747.5 294,-805.8 332.82,-817.11 386,-841 445.41,-867.69 901.83,-874.3 1036.63,-875.68"/>
<polygon fill="#e88538" stroke="#e88538" points="725.16,-94.05 735.37,-98.06 730.15,-93.81 735.15,-93.56 735.15,-93.56 735.15,-93.56 730.15,-93.81 734.93,-89.07 725.16,-94.05 725.16,-94.05"/>
<polygon fill="#e88538" stroke="#e88538" points="1036.5,-875.68 1046.45,-880.27 1041.5,-875.73 1046.5,-875.77 1046.5,-875.77 1046.5,-875.77 1041.5,-875.73 1046.54,-871.28 1036.5,-875.68 1036.5,-875.68"/>
</g>
<!-- Quote -->
<g id="node32" class="node">
<title>Quote</title>
<ellipse fill="none" stroke="black" cx="2689" cy="-1190" rx="32.49" ry="18"/>
<text text-anchor="middle" x="2689" y="-1186.3" font-family="Times,serif" font-size="14.00">Quote</text>
</g>
<!-- Reaction&#45;&gt;Course -->
<g id="edge89" class="edge">
<title>Reaction&#45;&gt;Course</title>
<path fill="none" stroke="#a687e5" d="M1688.76,-976.94C1696,-995.44 1702,-1020.55 1693,-1041 1686.91,-1054.84 1675.33,-1066.67 1664.03,-1075.7"/>
<polygon fill="#a687e5" stroke="#a687e5" points="1688.84,-977.13 1689.07,-966.17 1686.88,-972.53 1684.93,-967.93 1684.93,-967.93 1684.93,-967.93 1686.88,-972.53 1680.78,-969.69 1688.84,-977.13 1688.84,-977.13"/>
<polygon fill="#a687e5" stroke="#a687e5" points="1664.31,-1075.49 1653.61,-1077.9 1660.31,-1078.49 1656.32,-1081.5 1656.32,-1081.5 1656.32,-1081.5 1660.31,-1078.49 1659.02,-1085.1 1664.31,-1075.49 1664.31,-1075.49"/>
</g>
<!-- Reaction&#45;&gt;User -->
<g id="edge88" class="edge">
<title>Reaction&#45;&gt;User</title>
<path fill="none" stroke="#9d5394" d="M1625.69,-942.74C1566.98,-935.46 1466.98,-923.15 1381,-913 1283.25,-901.46 1167.91,-888.48 1110.42,-882.06"/>
<polygon fill="#9d5394" stroke="#9d5394" points="1625.53,-942.72 1634.9,-948.41 1630.49,-943.33 1635.45,-943.95 1635.45,-943.95 1635.45,-943.95 1630.49,-943.33 1636.01,-939.48 1625.53,-942.72 1625.53,-942.72"/>
<polygon fill="#9d5394" stroke="#9d5394" points="1110.64,-882.08 1101.2,-876.5 1105.67,-881.53 1100.7,-880.97 1100.7,-880.97 1100.7,-880.97 1105.67,-881.53 1100.2,-885.44 1110.64,-882.08 1110.64,-882.08"/>
</g>
<!-- Roster&#45;&gt;User -->
<g id="edge90" class="edge">
<title>Roster&#45;&gt;User</title>
<path fill="none" stroke="#9f843f" d="M2026.52,-33.29C1940.54,-68.58 1715.43,-164.85 1543,-273 1456.38,-327.33 1450.64,-364.04 1362,-415 1329.66,-433.59 1070.95,-508.13 1050,-539 1014.02,-592.02 1074.44,-762.02 1078,-826 1078.42,-833.53 1078.1,-841.69 1077.49,-849.19"/>
<polygon fill="#9f843f" stroke="#9f843f" points="2026.34,-33.37 2037.3,-33.75 2030.97,-31.48 2035.6,-29.59 2035.6,-29.59 2035.6,-29.59 2030.97,-31.48 2033.89,-25.42 2026.34,-33.37 2026.34,-33.37"/>
<polygon fill="#9f843f" stroke="#9f843f" points="1077.51,-848.94 1072.04,-858.44 1077.01,-853.91 1076.52,-858.89 1076.52,-858.89 1076.52,-858.89 1077.01,-853.91 1081,-859.34 1077.51,-848.94 1077.51,-848.94"/>
</g>
<!-- Rubric&#45;&gt;Rubric -->
<g id="edge91" class="edge">
<title>Rubric&#45;&gt;Rubric</title>
<path fill="none" stroke="#c249d7" d="M1815.29,-951.93C1820.24,-951.56 1823.45,-950.92 1823.45,-950 1823.45,-949.08 1820.24,-948.44 1815.29,-948.07"/>
<polygon fill="#c249d7" stroke="#c249d7" points="1815.54,-951.92 1805.39,-947.78 1810.55,-952.1 1805.55,-952.27 1805.55,-952.27 1805.55,-952.27 1810.55,-952.1 1805.71,-956.77 1815.54,-951.92 1815.54,-951.92"/>
<polygon fill="#c249d7" stroke="#c249d7" points="1815.54,-948.08 1805.71,-943.23 1810.55,-947.9 1805.55,-947.73 1805.55,-947.73 1805.55,-947.73 1810.55,-947.9 1805.39,-952.22 1815.54,-948.08 1815.54,-948.08"/>
<text text-anchor="middle" x="1840.45" y="-946.3" font-family="Times,serif" font-size="14.00">parent</text>
</g>
<!-- Rubric&#45;&gt;Rubric -->
<g id="edge94" class="edge">
<title>Rubric&#45;&gt;Rubric</title>
<path fill="none" stroke="#9b2499" d="M1814.46,-954.46C1836.63,-954.98 1857.45,-953.5 1857.45,-950 1857.45,-946.5 1836.63,-945.02 1814.46,-945.54"/>
<polygon fill="#9b2499" stroke="#9b2499" points="1814.59,-954.46 1804.77,-949.6 1809.6,-954.28 1804.6,-954.09 1804.6,-954.09 1804.6,-954.09 1809.6,-954.28 1804.43,-958.59 1814.59,-954.46 1814.59,-954.46"/>
<polygon fill="#9b2499" stroke="#9b2499" points="1814.59,-945.54 1804.43,-941.41 1809.6,-945.72 1804.6,-945.91 1804.6,-945.91 1804.6,-945.91 1809.6,-945.72 1804.77,-950.4 1814.59,-945.54 1814.59,-945.54"/>
<text text-anchor="middle" x="1896.95" y="-946.3" font-family="Times,serif" font-size="14.00">child_versions</text>
</g>
<!-- Rubric&#45;&gt;Rubric -->
<g id="edge95" class="edge">
<title>Rubric&#45;&gt;Rubric</title>
<path fill="none" stroke="#5923b0" d="M1814.42,-955.46C1864.96,-958.44 1936.45,-956.62 1936.45,-950 1936.45,-943.38 1864.96,-941.56 1814.42,-944.54"/>
<polygon fill="#5923b0" stroke="#5923b0" points="1814.59,-955.47 1804.92,-950.31 1809.61,-955.13 1804.62,-954.8 1804.62,-954.8 1804.62,-954.8 1809.61,-955.13 1804.31,-959.29 1814.59,-955.47 1814.59,-955.47"/>
<polygon fill="#5923b0" stroke="#5923b0" points="1814.59,-944.53 1804.31,-940.71 1809.61,-944.87 1804.62,-945.2 1804.62,-945.2 1804.62,-945.2 1809.61,-944.87 1804.92,-949.69 1814.59,-944.53 1814.59,-944.53"/>
</g>
<!-- Rubric&#45;&gt;School -->
<g id="edge92" class="edge">
<title>Rubric&#45;&gt;School</title>
<path fill="none" stroke="#40beee" d="M1758.4,-923.14C1744.06,-893.71 1720.77,-845.94 1706.48,-816.61"/>
<polygon fill="#40beee" stroke="#40beee" points="1758.38,-923.1 1758.71,-934.06 1760.57,-927.6 1762.76,-932.09 1762.76,-932.09 1762.76,-932.09 1760.57,-927.6 1766.8,-930.12 1758.38,-923.1 1758.38,-923.1"/>
<polygon fill="#40beee" stroke="#40beee" points="1706.56,-816.78 1706.23,-805.82 1704.37,-812.28 1702.18,-807.79 1702.18,-807.79 1702.18,-807.79 1704.37,-812.28 1698.14,-809.76 1706.56,-816.78 1706.56,-816.78"/>
</g>
<!-- Rubric&#45;&gt;User -->
<g id="edge93" class="edge">
<title>Rubric&#45;&gt;User</title>
<path fill="none" stroke="#326383" d="M1735.93,-934.44C1732.94,-933.51 1729.94,-932.67 1727,-932 1497.34,-879.29 1211.82,-876.53 1111.19,-877.39"/>
<polygon fill="#326383" stroke="#326383" points="1735.87,-934.42 1743.86,-941.93 1740.6,-936.04 1745.33,-937.67 1745.33,-937.67 1745.33,-937.67 1740.6,-936.04 1746.79,-933.41 1735.87,-934.42 1735.87,-934.42"/>
<polygon fill="#326383" stroke="#326383" points="1111.48,-877.39 1101.44,-872.99 1106.48,-877.44 1101.48,-877.49 1101.48,-877.49 1101.48,-877.49 1106.48,-877.44 1101.53,-881.99 1111.48,-877.39 1111.48,-877.39"/>
</g>
<!-- RubricRowFeedback -->
<g id="node36" class="node">
<title>RubricRowFeedback</title>
<ellipse fill="none" stroke="black" cx="2559" cy="-1096" rx="85.29" ry="18"/>
<text text-anchor="middle" x="2559" y="-1092.3" font-family="Times,serif" font-size="14.00">RubricRowFeedback</text>
</g>
<!-- RubricRowFeedback&#45;&gt;Criterium -->
<g id="edge98" class="edge">
<title>RubricRowFeedback&#45;&gt;Criterium</title>
<path fill="none" stroke="#5c0c84" d="M2503.24,-1077.54C2484.42,-1071.65 2463.3,-1065.04 2444,-1059 2421.68,-1052.02 2396.85,-1044.26 2376.25,-1037.82"/>
<polygon fill="#5c0c84" stroke="#5c0c84" points="2503.02,-1077.47 2511.21,-1084.75 2507.79,-1078.96 2512.56,-1080.46 2512.56,-1080.46 2512.56,-1080.46 2507.79,-1078.96 2513.9,-1076.16 2503.02,-1077.47 2503.02,-1077.47"/>
<polygon fill="#5c0c84" stroke="#5c0c84" points="2376.36,-1037.86 2368.15,-1030.58 2371.58,-1036.36 2366.81,-1034.87 2366.81,-1034.87 2366.81,-1034.87 2371.58,-1036.36 2365.47,-1039.17 2376.36,-1037.86 2376.36,-1037.86"/>
</g>
<!-- RubricRowFeedback&#45;&gt;Submission -->
<g id="edge97" class="edge">
<title>RubricRowFeedback&#45;&gt;Submission</title>
<path fill="none" stroke="#cd385e" d="M2516.91,-1074.16C2499.37,-1062.28 2483,-1045.45 2483,-1024 2483,-1024 2483,-1024 2483,-483 2483,-458.56 2466.24,-436.22 2450.44,-420.58"/>
<polygon fill="#cd385e" stroke="#cd385e" points="2516.55,-1073.93 2522.6,-1083.08 2520.77,-1076.6 2525,-1079.27 2525,-1079.27 2525,-1079.27 2520.77,-1076.6 2527.4,-1075.47 2516.55,-1073.93 2516.55,-1073.93"/>
<polygon fill="#cd385e" stroke="#cd385e" points="2450.6,-420.73 2446.39,-410.6 2446.96,-417.3 2443.31,-413.88 2443.31,-413.88 2443.31,-413.88 2446.96,-417.3 2440.23,-417.16 2450.6,-420.73 2450.6,-420.73"/>
</g>
<!-- SubmissionFeedback -->
<g id="node41" class="node">
<title>SubmissionFeedback</title>
<ellipse fill="none" stroke="black" cx="2649" cy="-310" rx="85.59" ry="18"/>
<text text-anchor="middle" x="2649" y="-306.3" font-family="Times,serif" font-size="14.00">SubmissionFeedback</text>
</g>
<!-- RubricRowFeedback&#45;&gt;SubmissionFeedback -->
<g id="edge96" class="edge">
<title>RubricRowFeedback&#45;&gt;SubmissionFeedback</title>
<path fill="none" stroke="#6817b7" d="M2576.26,-1070.08C2618.76,-1006.22 2725,-830.23 2725,-667 2725,-667 2725,-667 2725,-396 2725,-369.9 2704.84,-348.14 2685.29,-333.17"/>
<polygon fill="#6817b7" stroke="#6817b7" points="2576.52,-1069.69 2567.2,-1075.48 2573.73,-1073.84 2570.94,-1077.99 2570.94,-1077.99 2570.94,-1077.99 2573.73,-1073.84 2574.67,-1080.5 2576.52,-1069.69 2576.52,-1069.69"/>
<polygon fill="#6817b7" stroke="#6817b7" points="2685.4,-333.25 2679.94,-323.73 2681.35,-330.31 2677.3,-327.38 2677.3,-327.38 2677.3,-327.38 2681.35,-330.31 2674.66,-331.02 2685.4,-333.25 2685.4,-333.25"/>
</g>
<!-- School&#45;&gt;BingoGame -->
<g id="edge99" class="edge">
<title>School&#45;&gt;BingoGame</title>
<path fill="none" stroke="#0d1add" d="M1660.05,-772.79C1630.07,-758.47 1586.36,-737.6 1554.96,-722.61"/>
<polygon fill="#0d1add" stroke="#0d1add" points="1659.85,-772.69 1666.94,-781.06 1664.36,-774.85 1668.87,-777 1668.87,-777 1668.87,-777 1664.36,-774.85 1670.81,-772.94 1659.85,-772.69 1659.85,-772.69"/>
<polygon fill="#0d1add" stroke="#0d1add" points="1555.08,-722.66 1547.99,-714.29 1550.56,-720.5 1546.05,-718.35 1546.05,-718.35 1546.05,-718.35 1550.56,-720.5 1544.11,-722.41 1555.08,-722.66 1555.08,-722.66"/>
</g>
<!-- School&#45;&gt;Experience -->
<g id="edge101" class="edge">
<title>School&#45;&gt;Experience</title>
<path fill="none" stroke="#811fc4" d="M1677.65,-815.56C1660.64,-842.71 1635.1,-888.4 1625,-932 1620.15,-952.94 1623.06,-977.22 1626.82,-995.28"/>
<polygon fill="#811fc4" stroke="#811fc4" points="1677.46,-815.85 1686.64,-809.84 1680.15,-811.64 1682.84,-807.42 1682.84,-807.42 1682.84,-807.42 1680.15,-811.64 1679.05,-805 1677.46,-815.85 1677.46,-815.85"/>
<polygon fill="#811fc4" stroke="#811fc4" points="1626.78,-995.12 1624.63,-1005.87 1627.9,-1000 1629.01,-1004.87 1629.01,-1004.87 1629.01,-1004.87 1627.9,-1000 1633.4,-1003.87 1626.78,-995.12 1626.78,-995.12"/>
</g>
<!-- School&#45;&gt;Project -->
<g id="edge100" class="edge">
<title>School&#45;&gt;Project</title>
<path fill="none" stroke="#6fc695" d="M1730.48,-774.78C1777.51,-754.36 1857.88,-712.02 1897,-648 1922.44,-606.37 1913.82,-587.64 1910,-539 1900.07,-412.44 1912.76,-319.91 1571,-146 1503.71,-111.76 975.88,-96.77 816.45,-93"/>
<polygon fill="#6fc695" stroke="#6fc695" points="1730.74,-774.66 1719.78,-774.42 1726.14,-776.61 1721.54,-778.57 1721.54,-778.57 1721.54,-778.57 1726.14,-776.61 1723.29,-782.71 1730.74,-774.66 1730.74,-774.66"/>
<polygon fill="#6fc695" stroke="#6fc695" points="816.93,-93.01 807.03,-88.27 811.93,-92.89 806.93,-92.77 806.93,-92.77 806.93,-92.77 811.93,-92.89 806.82,-97.27 816.93,-93.01 816.93,-93.01"/>
</g>
<!-- School&#45;&gt;Roster -->
<g id="edge102" class="edge">
<title>School&#45;&gt;Roster</title>
<path fill="none" stroke="#a58dac" d="M1738.82,-786.16C1820.45,-780.02 1988.5,-762.55 2027,-721 2065.67,-679.27 2043,-650.89 2043,-594 2043,-594 2043,-594 2043,-352.5 2043,-276.47 2052.72,-257.91 2057,-182 2059.7,-134.05 2061.02,-78.07 2061.6,-45.76"/>
<polygon fill="#a58dac" stroke="#a58dac" points="1739.05,-786.15 1728.75,-782.39 1734.06,-786.51 1729.07,-786.87 1729.07,-786.87 1729.07,-786.87 1734.06,-786.51 1729.4,-791.36 1739.05,-786.15 1739.05,-786.15"/>
<polygon fill="#a58dac" stroke="#a58dac" points="2061.59,-46.14 2066.26,-36.22 2061.68,-41.14 2061.76,-36.14 2061.76,-36.14 2061.76,-36.14 2061.68,-41.14 2057.26,-36.07 2061.59,-46.14 2061.59,-46.14"/>
</g>
<!-- Submission&#45;&gt;SubmissionFeedback -->
<g id="edge106" class="edge">
<title>Submission&#45;&gt;SubmissionFeedback</title>
<path fill="none" stroke="#d2417d" d="M2476.78,-384.9C2501.37,-379.06 2530.6,-371.01 2556,-361 2575.9,-353.16 2596.97,-342.08 2614.02,-332.35"/>
<polygon fill="#d2417d" stroke="#d2417d" points="2477,-384.85 2466.24,-382.73 2472.13,-385.98 2467.26,-387.11 2467.26,-387.11 2467.26,-387.11 2472.13,-385.98 2468.28,-391.49 2477,-384.85 2477,-384.85"/>
<polygon fill="#d2417d" stroke="#d2417d" points="2613.89,-332.42 2624.8,-331.29 2618.22,-329.91 2622.54,-327.4 2622.54,-327.4 2622.54,-327.4 2618.22,-329.91 2620.28,-323.51 2613.89,-332.42 2613.89,-332.42"/>
</g>
<!-- Submission&#45;&gt;User -->
<g id="edge103" class="edge">
<title>Submission&#45;&gt;User</title>
<path fill="none" stroke="#28ac16" d="M2363.91,-403.84C2248.29,-415.31 1984.04,-441.81 1762,-466 1549.41,-489.16 1496.83,-500.21 1284,-521 1259.15,-523.43 1076.93,-520.65 1060,-539 1049.15,-550.76 1056.41,-559.41 1060,-575 1064.1,-592.82 1070.14,-595.49 1078,-612 1103.94,-666.48 1118.37,-679.14 1126,-739 1131.73,-783.97 1147.3,-800.98 1126,-841 1121.41,-849.63 1113.64,-856.51 1105.49,-861.81"/>
<polygon fill="#28ac16" stroke="#28ac16" points="2363.69,-403.86 2374.09,-407.35 2368.67,-403.37 2373.64,-402.87 2373.64,-402.87 2373.64,-402.87 2368.67,-403.37 2373.2,-398.39 2363.69,-403.86 2363.69,-403.86"/>
<polygon fill="#28ac16" stroke="#28ac16" points="1105.61,-861.73 1094.71,-862.87 1101.29,-864.25 1096.97,-866.76 1096.97,-866.76 1096.97,-866.76 1101.29,-864.25 1099.23,-870.65 1105.61,-861.73 1105.61,-861.73"/>
</g>
<!-- Submission&#45;&gt;ActiveStorage::Attachment -->
<g id="edge104" class="edge">
<title>Submission&#45;&gt;ActiveStorage::Attachment</title>
<path fill="none" stroke="#cace32" d="M2427.73,-369.2C2429.47,-359.32 2431.45,-348.13 2433.2,-338.22"/>
<polygon fill="#cace32" stroke="#cace32" points="2427.77,-368.95 2421.6,-378.02 2426.9,-373.88 2426.04,-378.8 2426.04,-378.8 2426.04,-378.8 2426.9,-373.88 2430.47,-379.58 2427.77,-368.95 2427.77,-368.95"/>
<polygon fill="#cace32" stroke="#cace32" points="2433.18,-338.32 2439.35,-329.25 2434.05,-333.39 2434.92,-328.47 2434.92,-328.47 2434.92,-328.47 2434.05,-333.39 2430.49,-327.69 2433.18,-338.32 2433.18,-338.32"/>
<text text-anchor="middle" x="2491.5" y="-349.8" font-family="Times,serif" font-size="14.00">sub_files_attachments</text>
</g>
<!-- Submission&#45;&gt;ActiveStorage::Blob -->
<g id="edge105" class="edge">
<title>Submission&#45;&gt;ActiveStorage::Blob</title>
<path fill="none" stroke="#4f8aad" d="M2381.64,-378.82C2368.31,-373.22 2353.5,-366.91 2340,-361 2317.84,-351.29 2293.32,-340.18 2273.06,-330.91"/>
<polygon fill="#4f8aad" stroke="#4f8aad" points="2381.37,-378.71 2388.85,-386.73 2385.98,-380.64 2390.59,-382.58 2390.59,-382.58 2390.59,-382.58 2385.98,-380.64 2392.33,-378.43 2381.37,-378.71 2381.37,-378.71"/>
<polygon fill="#4f8aad" stroke="#4f8aad" points="2273.17,-330.95 2265.96,-322.69 2268.62,-328.87 2264.08,-326.78 2264.08,-326.78 2264.08,-326.78 2268.62,-328.87 2262.2,-330.87 2273.17,-330.95 2273.17,-330.95"/>
<text text-anchor="middle" x="2382.5" y="-349.8" font-family="Times,serif" font-size="14.00">sub_files_blobs</text>
</g>
<!-- Theme -->
<g id="node42" class="node">
<title>Theme</title>
<ellipse fill="none" stroke="black" cx="1190" cy="-950" rx="36" ry="18"/>
<text text-anchor="middle" x="1190" y="-946.3" font-family="Times,serif" font-size="14.00">Theme</text>
</g>
<!-- Theme&#45;&gt;User -->
<g id="edge107" class="edge">
<title>Theme&#45;&gt;User</title>
<path fill="none" stroke="#10b712" d="M1159.64,-930.42C1141.61,-919.38 1118.93,-905.5 1101.44,-894.79"/>
<polygon fill="#10b712" stroke="#10b712" points="1159.38,-930.26 1165.56,-939.32 1163.64,-932.87 1167.91,-935.48 1167.91,-935.48 1167.91,-935.48 1163.64,-932.87 1170.26,-931.64 1159.38,-930.26 1159.38,-930.26"/>
<polygon fill="#10b712" stroke="#10b712" points="1101.84,-895.04 1095.66,-885.98 1097.58,-892.43 1093.31,-889.82 1093.31,-889.82 1093.31,-889.82 1097.58,-892.43 1090.96,-893.66 1101.84,-895.04 1101.84,-895.04"/>
</g>
<!-- User&#45;&gt;Concept -->
<g id="edge108" class="edge">
<title>User&#45;&gt;Concept</title>
<path fill="none" stroke="#e5f8ec" d="M1110.81,-871.58C1130.07,-867.19 1152.07,-858.44 1164,-841 1181.31,-815.69 1165.39,-802.64 1164,-772 1160.65,-698.21 1164.83,-669.93 1119,-612 1102.29,-590.88 1082.89,-599.17 1071,-575 1063.94,-560.64 1060.11,-550.72 1071,-539 1071.74,-538.21 1596.15,-500.44 1761.61,-488.55"/>
<polygon fill="#e5f8ec" stroke="#e5f8ec" points="1110.87,-871.57 1100.19,-869.09 1105.96,-872.54 1101.06,-873.5 1101.06,-873.5 1101.06,-873.5 1105.96,-872.54 1101.93,-877.92 1110.87,-871.57 1110.87,-871.57"/>
<polygon fill="#e5f8ec" stroke="#e5f8ec" points="1761.55,-488.55 1771.84,-492.32 1766.53,-488.19 1771.52,-487.84 1771.52,-487.84 1771.52,-487.84 1766.53,-488.19 1771.2,-483.35 1761.55,-488.55 1761.55,-488.55"/>
</g>
<!-- User&#45;&gt;Experience -->
<g id="edge111" class="edge">
<title>User&#45;&gt;Experience</title>
<path fill="none" stroke="#86861e" d="M1108.48,-886.87C1204.1,-911.45 1472.95,-980.59 1584.51,-1009.27"/>
<polygon fill="#86861e" stroke="#86861e" points="1108.67,-886.92 1100.11,-880.07 1103.83,-885.67 1098.99,-884.43 1098.99,-884.43 1098.99,-884.43 1103.83,-885.67 1097.87,-888.78 1108.67,-886.92 1108.67,-886.92"/>
<polygon fill="#86861e" stroke="#86861e" points="1584.49,-1009.27 1593.05,-1016.12 1589.33,-1010.51 1594.18,-1011.76 1594.18,-1011.76 1594.18,-1011.76 1589.33,-1010.51 1595.3,-1007.4 1584.49,-1009.27 1584.49,-1009.27"/>
</g>
<!-- User&#45;&gt;Language -->
<g id="edge109" class="edge">
<title>User&#45;&gt;Language</title>
<path fill="none" stroke="#70b6f8" d="M1036.77,-875.14C897.63,-871.44 416,-854.07 416,-791 416,-791 416,-791 416,-483 416,-473.95 523.89,-434.55 585.74,-412.71"/>
<polygon fill="#70b6f8" stroke="#70b6f8" points="1036.57,-875.13 1046.45,-879.89 1041.57,-875.26 1046.56,-875.39 1046.56,-875.39 1046.56,-875.39 1041.57,-875.26 1046.68,-870.89 1036.57,-875.13 1036.57,-875.13"/>
<polygon fill="#70b6f8" stroke="#70b6f8" points="585.44,-412.82 596.37,-413.74 590.16,-411.16 594.88,-409.5 594.88,-409.5 594.88,-409.5 590.16,-411.16 593.38,-405.25 585.44,-412.82 585.44,-412.82"/>
<text text-anchor="middle" x="466" y="-626.3" font-family="Times,serif" font-size="14.00">primary_language</text>
</g>
<!-- User&#45;&gt;Narrative -->
<g id="edge112" class="edge">
<title>User&#45;&gt;Narrative</title>
<path fill="none" stroke="#f4c61e" d="M1111.25,-874.46C1193.94,-870.72 1390.49,-860.08 1454,-841 1467.52,-836.94 1468.96,-831.41 1482,-826 1503.98,-816.87 1529.2,-808.93 1550.4,-802.93"/>
<polygon fill="#f4c61e" stroke="#f4c61e" points="1111.28,-874.45 1101.09,-870.4 1106.28,-874.68 1101.29,-874.9 1101.29,-874.9 1101.29,-874.9 1106.28,-874.68 1101.49,-879.39 1111.28,-874.45 1111.28,-874.45"/>
<polygon fill="#f4c61e" stroke="#f4c61e" points="1550.2,-802.99 1561.04,-804.65 1555.02,-801.65 1559.84,-800.31 1559.84,-800.31 1559.84,-800.31 1555.02,-801.65 1558.64,-795.98 1550.2,-802.99 1550.2,-802.99"/>
</g>
<!-- User&#45;&gt;School -->
<g id="edge110" class="edge">
<title>User&#45;&gt;School</title>
<path fill="none" stroke="#607f86" d="M1110.99,-874.1C1182.4,-870.14 1344.09,-859.79 1479,-841 1498.17,-838.33 1631.4,-813.34 1650,-808 1652.66,-807.24 1655.38,-806.38 1658.1,-805.47"/>
<polygon fill="#607f86" stroke="#607f86" points="1111.11,-874.09 1100.88,-870.14 1106.12,-874.36 1101.13,-874.64 1101.13,-874.64 1101.13,-874.64 1106.12,-874.36 1101.37,-879.13 1111.11,-874.09 1111.11,-874.09"/>
<polygon fill="#607f86" stroke="#607f86" points="1657.85,-805.56 1668.78,-806.44 1662.56,-803.88 1667.27,-802.2 1667.27,-802.2 1667.27,-802.2 1662.56,-803.88 1665.76,-797.96 1657.85,-805.56 1657.85,-805.56"/>
</g>
<!-- Ahoy::Message -->
<g id="node48" class="node">
<title>Ahoy::Message</title>
<ellipse fill="none" stroke="black" cx="942" cy="-790" rx="66.09" ry="18"/>
<text text-anchor="middle" x="942" y="-786.3" font-family="Times,serif" font-size="14.00">Ahoy::Message</text>
</g>
<!-- User&#45;&gt;Ahoy::Message -->
<g id="edge113" class="edge">
<title>User&#45;&gt;Ahoy::Message</title>
<path fill="none" stroke="#91bf13" d="M1037.97,-870.6C1016.32,-865.83 989.33,-857.03 970,-841 962.35,-834.66 956.41,-825.65 952.01,-817.03"/>
<polygon fill="#91bf13" stroke="#91bf13" points="1037.69,-870.54 1046.6,-876.93 1042.59,-871.53 1047.49,-872.52 1047.49,-872.52 1047.49,-872.52 1042.59,-871.53 1048.38,-868.11 1037.69,-870.54 1037.69,-870.54"/>
<polygon fill="#91bf13" stroke="#91bf13" points="952.01,-817.05 951.91,-806.08 949.92,-812.5 947.82,-807.96 947.82,-807.96 947.82,-807.96 949.92,-812.5 943.74,-809.85 952.01,-817.05 952.01,-817.05"/>
<text text-anchor="middle" x="996" y="-829.8" font-family="Times,serif" font-size="14.00">messages</text>
</g>
<!-- Value&#45;&gt;Factor -->
<g id="edge115" class="edge">
<title>Value&#45;&gt;Factor</title>
<path fill="none" stroke="#7fa873" d="M713.18,-295.92C679.6,-283.31 629.01,-264.3 595.03,-251.53"/>
<polygon fill="#7fa873" stroke="#7fa873" points="713.15,-295.91 720.93,-303.64 717.83,-297.67 722.51,-299.42 722.51,-299.42 722.51,-299.42 717.83,-297.67 724.09,-295.21 713.15,-295.91 713.15,-295.91"/>
<polygon fill="#7fa873" stroke="#7fa873" points="595.27,-251.63 587.5,-243.9 590.59,-249.87 585.91,-248.11 585.91,-248.11 585.91,-248.11 590.59,-249.87 584.33,-252.32 595.27,-251.63 595.27,-251.63"/>
</g>
<!-- Value&#45;&gt;User -->
<g id="edge114" class="edge">
<title>Value&#45;&gt;User</title>
<path fill="none" stroke="#dac3e2" d="M748,-337.92C748,-354.64 748,-376.57 748,-396 748,-521 748,-521 748,-521 748,-649.98 726.81,-696.13 791,-808 802.64,-828.29 810.55,-831.66 832,-841 899.95,-870.59 987.77,-876.1 1036.75,-876.61"/>
<polygon fill="#dac3e2" stroke="#dac3e2" points="748,-338.26 752.5,-328.26 748,-333.26 748,-328.26 748,-328.26 748,-328.26 748,-333.26 743.5,-328.26 748,-338.26 748,-338.26"/>
<polygon fill="#dac3e2" stroke="#dac3e2" points="1036.6,-876.61 1046.58,-881.15 1041.6,-876.63 1046.6,-876.65 1046.6,-876.65 1046.6,-876.65 1041.6,-876.63 1046.62,-872.15 1036.6,-876.61 1036.6,-876.61"/>
</g>
<!-- Week&#45;&gt;Behavior -->
<g id="edge116" class="edge">
<title>Week&#45;&gt;Behavior</title>
<path fill="none" stroke="#a27b07" d="M1837.25,-573.34C1820.41,-582.58 1800.62,-595.72 1787,-612 1771.52,-630.5 1761.51,-656.22 1755.67,-675.43"/>
<polygon fill="#a27b07" stroke="#a27b07" points="1836.89,-573.53 1847.84,-572.85 1841.32,-571.2 1845.74,-568.87 1845.74,-568.87 1845.74,-568.87 1841.32,-571.2 1843.64,-564.89 1836.89,-573.53 1836.89,-573.53"/>
<polygon fill="#a27b07" stroke="#a27b07" points="1755.74,-675.19 1748.67,-683.57 1754.37,-680 1752.99,-684.81 1752.99,-684.81 1752.99,-684.81 1754.37,-680 1757.32,-686.04 1755.74,-675.19 1755.74,-675.19"/>
</g>
</g>
</svg>
