<?xml version="1.0" encoding="UTF-8" standalone="no"?>
<!DOCTYPE svg PUBLIC "-//W3C//DTD SVG 1.1//EN"
 "http://www.w3.org/Graphics/SVG/1.1/DTD/svg11.dtd">
<!-- Generated by graphviz version 2.38.0 (20140413.2041)
 -->
<!-- Title: models_diagram Pages: 1 -->
<svg width="2193pt" height="1415pt"
 viewBox="0.00 0.00 2193.00 1415.00" xmlns="http://www.w3.org/2000/svg" xmlns:xlink="http://www.w3.org/1999/xlink">
<g id="graph0" class="graph" transform="scale(1 1) rotate(0) translate(4 1411)">
<title>models_diagram</title>
<polygon fill="none" stroke="none" points="-4,4 -4,-1411 2189,-1411 2189,4 -4,4"/>
<!-- _diagram_info -->
<g id="node1" class="node"><title>_diagram_info</title>
<text text-anchor="start" x="8" y="-1370.6" font-family="Times,serif" font-size="13.00">Models diagram</text>
<text text-anchor="start" x="8" y="-1356.6" font-family="Times,serif" font-size="13.00">Date: Jan 20 2017 &#45; 14:28</text>
<text text-anchor="start" x="8" y="-1342.6" font-family="Times,serif" font-size="13.00">Migration version: 20170120030833</text>
<text text-anchor="start" x="8" y="-1328.6" font-family="Times,serif" font-size="13.00">Generated by RailRoady 1.5.2</text>
<text text-anchor="start" x="8" y="-1314.6" font-family="Times,serif" font-size="13.00">http://railroady.prestonlee.com</text>
</g>
<!-- GroupProjectCount -->
<g id="node2" class="node"><title>GroupProjectCount</title>
<path fill="none" stroke="black" d="M244,-1308C244,-1308 374,-1308 374,-1308 380,-1308 386,-1314 386,-1320 386,-1320 386,-1372 386,-1372 386,-1378 380,-1384 374,-1384 374,-1384 244,-1384 244,-1384 238,-1384 232,-1378 232,-1372 232,-1372 232,-1320 232,-1320 232,-1314 238,-1308 244,-1308"/>
<text text-anchor="middle" x="309" y="-1368.8" font-family="Times,serif" font-size="14.00">GroupProjectCount</text>
<polyline fill="none" stroke="black" points="232,-1361 386,-1361 "/>
<text text-anchor="start" x="240" y="-1345.8" font-family="Times,serif" font-size="14.00">id :int(11)</text>
<text text-anchor="start" x="240" y="-1330.8" font-family="Times,serif" font-size="14.00">name :varchar(255)</text>
<text text-anchor="start" x="240" y="-1315.8" font-family="Times,serif" font-size="14.00">description :varchar(255)</text>
</g>
<!-- User -->
<g id="node9" class="node"><title>User</title>
<path fill="none" stroke="black" d="M367,-812.5C367,-812.5 557,-812.5 557,-812.5 563,-812.5 569,-818.5 569,-824.5 569,-824.5 569,-1236.5 569,-1236.5 569,-1242.5 563,-1248.5 557,-1248.5 557,-1248.5 367,-1248.5 367,-1248.5 361,-1248.5 355,-1242.5 355,-1236.5 355,-1236.5 355,-824.5 355,-824.5 355,-818.5 361,-812.5 367,-812.5"/>
<text text-anchor="middle" x="462" y="-1233.3" font-family="Times,serif" font-size="14.00">User</text>
<polyline fill="none" stroke="black" points="355,-1225.5 569,-1225.5 "/>
<text text-anchor="start" x="363" y="-1210.3" font-family="Times,serif" font-size="14.00">id :int(11)</text>
<text text-anchor="start" x="363" y="-1195.3" font-family="Times,serif" font-size="14.00">email :varchar(255)</text>
<text text-anchor="start" x="363" y="-1180.3" font-family="Times,serif" font-size="14.00">encrypted_password :varchar(255)</text>
<text text-anchor="start" x="363" y="-1165.3" font-family="Times,serif" font-size="14.00">reset_password_token :varchar(255)</text>
<text text-anchor="start" x="363" y="-1150.3" font-family="Times,serif" font-size="14.00">reset_password_sent_at :datetime</text>
<text text-anchor="start" x="363" y="-1135.3" font-family="Times,serif" font-size="14.00">remember_created_at :datetime</text>
<text text-anchor="start" x="363" y="-1120.3" font-family="Times,serif" font-size="14.00">sign_in_count :int(11)</text>
<text text-anchor="start" x="363" y="-1105.3" font-family="Times,serif" font-size="14.00">current_sign_in_at :datetime</text>
<text text-anchor="start" x="363" y="-1090.3" font-family="Times,serif" font-size="14.00">last_sign_in_at :datetime</text>
<text text-anchor="start" x="363" y="-1075.3" font-family="Times,serif" font-size="14.00">current_sign_in_ip :varchar(255)</text>
<text text-anchor="start" x="363" y="-1060.3" font-family="Times,serif" font-size="14.00">last_sign_in_ip :varchar(255)</text>
<text text-anchor="start" x="363" y="-1045.3" font-family="Times,serif" font-size="14.00">confirmation_token :varchar(255)</text>
<text text-anchor="start" x="363" y="-1030.3" font-family="Times,serif" font-size="14.00">confirmed_at :datetime</text>
<text text-anchor="start" x="363" y="-1015.3" font-family="Times,serif" font-size="14.00">confirmation_sent_at :datetime</text>
<text text-anchor="start" x="363" y="-1000.3" font-family="Times,serif" font-size="14.00">unconfirmed_email :varchar(255)</text>
<text text-anchor="start" x="363" y="-985.3" font-family="Times,serif" font-size="14.00">failed_attempts :int(11)</text>
<text text-anchor="start" x="363" y="-970.3" font-family="Times,serif" font-size="14.00">unlock_token :varchar(255)</text>
<text text-anchor="start" x="363" y="-955.3" font-family="Times,serif" font-size="14.00">locked_at :datetime</text>
<text text-anchor="start" x="363" y="-940.3" font-family="Times,serif" font-size="14.00">created_at :datetime</text>
<text text-anchor="start" x="363" y="-925.3" font-family="Times,serif" font-size="14.00">updated_at :datetime</text>
<text text-anchor="start" x="363" y="-910.3" font-family="Times,serif" font-size="14.00">first_name :varchar(255)</text>
<text text-anchor="start" x="363" y="-895.3" font-family="Times,serif" font-size="14.00">last_name :varchar(255)</text>
<text text-anchor="start" x="363" y="-880.3" font-family="Times,serif" font-size="14.00">gender_id :int(11)</text>
<text text-anchor="start" x="363" y="-865.3" font-family="Times,serif" font-size="14.00">age_range_id :int(11)</text>
<text text-anchor="start" x="363" y="-850.3" font-family="Times,serif" font-size="14.00">country :varchar(255)</text>
<text text-anchor="start" x="363" y="-835.3" font-family="Times,serif" font-size="14.00">admin :tinyint(1)</text>
<text text-anchor="start" x="363" y="-820.3" font-family="Times,serif" font-size="14.00">welcomed :tinyint(1)</text>
</g>
<!-- GroupProjectCount&#45;&gt;User -->
<g id="edge1" class="edge"><title>GroupProjectCount&#45;&gt;User</title>
<path fill="none" stroke="#35f4c1" d="M330.809,-1300.31C336.86,-1287.91 343.868,-1273.55 351.435,-1258.05"/>
<ellipse fill="none" stroke="#35f4c1" cx="328.906" cy="-1304.21" rx="4.00002" ry="4.00002"/>
<polygon fill="#35f4c1" stroke="#35f4c1" points="351.565,-1257.78 359.995,-1250.77 353.758,-1253.29 355.951,-1248.8 355.951,-1248.8 355.951,-1248.8 353.758,-1253.29 351.907,-1246.82 351.565,-1257.78 351.565,-1257.78"/>
</g>
<!-- FactorPack -->
<g id="node3" class="node"><title>FactorPack</title>
<path fill="none" stroke="black" d="M1287.5,-977.5C1287.5,-977.5 1394.5,-977.5 1394.5,-977.5 1400.5,-977.5 1406.5,-983.5 1406.5,-989.5 1406.5,-989.5 1406.5,-1071.5 1406.5,-1071.5 1406.5,-1077.5 1400.5,-1083.5 1394.5,-1083.5 1394.5,-1083.5 1287.5,-1083.5 1287.5,-1083.5 1281.5,-1083.5 1275.5,-1077.5 1275.5,-1071.5 1275.5,-1071.5 1275.5,-989.5 1275.5,-989.5 1275.5,-983.5 1281.5,-977.5 1287.5,-977.5"/>
<text text-anchor="middle" x="1341" y="-1068.3" font-family="Times,serif" font-size="14.00">FactorPack</text>
<polyline fill="none" stroke="black" points="1275.5,-1060.5 1406.5,-1060.5 "/>
<text text-anchor="start" x="1283.5" y="-1045.3" font-family="Times,serif" font-size="14.00">id :int(11)</text>
<text text-anchor="start" x="1283.5" y="-1030.3" font-family="Times,serif" font-size="14.00">name :varchar(255)</text>
<text text-anchor="start" x="1283.5" y="-1015.3" font-family="Times,serif" font-size="14.00">description :text</text>
<text text-anchor="start" x="1283.5" y="-1000.3" font-family="Times,serif" font-size="14.00">created_at :datetime</text>
<text text-anchor="start" x="1283.5" y="-985.3" font-family="Times,serif" font-size="14.00">updated_at :datetime</text>
</g>
<!-- Project -->
<g id="node13" class="node"><title>Project</title>
<path fill="none" stroke="black" d="M806,-534.5C806,-534.5 936,-534.5 936,-534.5 942,-534.5 948,-540.5 948,-546.5 948,-546.5 948,-763.5 948,-763.5 948,-769.5 942,-775.5 936,-775.5 936,-775.5 806,-775.5 806,-775.5 800,-775.5 794,-769.5 794,-763.5 794,-763.5 794,-546.5 794,-546.5 794,-540.5 800,-534.5 806,-534.5"/>
<text text-anchor="middle" x="871" y="-760.3" font-family="Times,serif" font-size="14.00">Project</text>
<polyline fill="none" stroke="black" points="794,-752.5 948,-752.5 "/>
<text text-anchor="start" x="802" y="-737.3" font-family="Times,serif" font-size="14.00">id :int(11)</text>
<text text-anchor="start" x="802" y="-722.3" font-family="Times,serif" font-size="14.00">name :varchar(255)</text>
<text text-anchor="start" x="802" y="-707.3" font-family="Times,serif" font-size="14.00">description :varchar(255)</text>
<text text-anchor="start" x="802" y="-692.3" font-family="Times,serif" font-size="14.00">course_id :int(11)</text>
<text text-anchor="start" x="802" y="-677.3" font-family="Times,serif" font-size="14.00">created_at :datetime</text>
<text text-anchor="start" x="802" y="-662.3" font-family="Times,serif" font-size="14.00">updated_at :datetime</text>
<text text-anchor="start" x="802" y="-647.3" font-family="Times,serif" font-size="14.00">start_dow :int(11)</text>
<text text-anchor="start" x="802" y="-632.3" font-family="Times,serif" font-size="14.00">end_dow :int(11)</text>
<text text-anchor="start" x="802" y="-617.3" font-family="Times,serif" font-size="14.00">active :tinyint(1)</text>
<text text-anchor="start" x="802" y="-602.3" font-family="Times,serif" font-size="14.00">start_date :date</text>
<text text-anchor="start" x="802" y="-587.3" font-family="Times,serif" font-size="14.00">end_date :date</text>
<text text-anchor="start" x="802" y="-572.3" font-family="Times,serif" font-size="14.00">consent_form_id :int(11)</text>
<text text-anchor="start" x="802" y="-557.3" font-family="Times,serif" font-size="14.00">factor_pack_id :int(11)</text>
<text text-anchor="start" x="802" y="-542.3" font-family="Times,serif" font-size="14.00">style_id :int(11)</text>
</g>
<!-- FactorPack&#45;&gt;Project -->
<g id="edge3" class="edge"><title>FactorPack&#45;&gt;Project</title>
<path fill="none" stroke="#9272e8" d="M1335.3,-969.48C1327.53,-920.657 1309.21,-853.307 1266,-812 1225.13,-772.937 1197.1,-795.414 1144,-776 1080.47,-752.771 1010.68,-721.995 957.562,-697.427"/>
<ellipse fill="none" stroke="#9272e8" cx="1335.9" cy="-973.498" rx="4.00001" ry="4.00001"/>
<polygon fill="#9272e8" stroke="#9272e8" points="957.25,-697.282 950.075,-688.99 952.715,-695.177 948.18,-693.072 948.18,-693.072 948.18,-693.072 952.715,-695.177 946.285,-697.153 957.25,-697.282 957.25,-697.282"/>
</g>
<!-- Factor -->
<g id="node16" class="node"><title>Factor</title>
<path fill="none" stroke="black" d="M806,-203.5C806,-203.5 936,-203.5 936,-203.5 942,-203.5 948,-209.5 948,-215.5 948,-215.5 948,-297.5 948,-297.5 948,-303.5 942,-309.5 936,-309.5 936,-309.5 806,-309.5 806,-309.5 800,-309.5 794,-303.5 794,-297.5 794,-297.5 794,-215.5 794,-215.5 794,-209.5 800,-203.5 806,-203.5"/>
<text text-anchor="middle" x="871" y="-294.3" font-family="Times,serif" font-size="14.00">Factor</text>
<polyline fill="none" stroke="black" points="794,-286.5 948,-286.5 "/>
<text text-anchor="start" x="802" y="-271.3" font-family="Times,serif" font-size="14.00">id :int(11)</text>
<text text-anchor="start" x="802" y="-256.3" font-family="Times,serif" font-size="14.00">description :varchar(255)</text>
<text text-anchor="start" x="802" y="-241.3" font-family="Times,serif" font-size="14.00">name :varchar(255)</text>
<text text-anchor="start" x="802" y="-226.3" font-family="Times,serif" font-size="14.00">created_at :datetime</text>
<text text-anchor="start" x="802" y="-211.3" font-family="Times,serif" font-size="14.00">updated_at :datetime</text>
</g>
<!-- FactorPack&#45;&gt;Factor -->
<g id="edge2" class="edge"><title>FactorPack&#45;&gt;Factor</title>
<path fill="none" stroke="#551d1d" d="M1324.76,-967.428C1311.87,-922.834 1291.75,-862.016 1266,-812 1166.03,-617.864 1004.64,-415.145 922.534,-317.339"/>
<polygon fill="#551d1d" stroke="#551d1d" points="1324.82,-967.638 1323.23,-978.489 1326.19,-972.447 1327.56,-977.256 1327.56,-977.256 1327.56,-977.256 1326.19,-972.447 1331.89,-976.023 1324.82,-967.638 1324.82,-967.638"/>
<polygon fill="#551d1d" stroke="#551d1d" points="922.481,-317.276 919.484,-306.728 919.261,-313.451 916.041,-309.626 916.041,-309.626 916.041,-309.626 919.261,-313.451 912.599,-312.524 922.481,-317.276 922.481,-317.276"/>
</g>
<!-- Course -->
<g id="node4" class="node"><title>Course</title>
<path fill="none" stroke="black" d="M1115,-955C1115,-955 1245,-955 1245,-955 1251,-955 1257,-961 1257,-967 1257,-967 1257,-1094 1257,-1094 1257,-1100 1251,-1106 1245,-1106 1245,-1106 1115,-1106 1115,-1106 1109,-1106 1103,-1100 1103,-1094 1103,-1094 1103,-967 1103,-967 1103,-961 1109,-955 1115,-955"/>
<text text-anchor="middle" x="1180" y="-1090.8" font-family="Times,serif" font-size="14.00">Course</text>
<polyline fill="none" stroke="black" points="1103,-1083 1257,-1083 "/>
<text text-anchor="start" x="1111" y="-1067.8" font-family="Times,serif" font-size="14.00">id :int(11)</text>
<text text-anchor="start" x="1111" y="-1052.8" font-family="Times,serif" font-size="14.00">name :varchar(255)</text>
<text text-anchor="start" x="1111" y="-1037.8" font-family="Times,serif" font-size="14.00">description :varchar(255)</text>
<text text-anchor="start" x="1111" y="-1022.8" font-family="Times,serif" font-size="14.00">timezone :varchar(255)</text>
<text text-anchor="start" x="1111" y="-1007.8" font-family="Times,serif" font-size="14.00">school_id :int(11)</text>
<text text-anchor="start" x="1111" y="-992.8" font-family="Times,serif" font-size="14.00">created_at :datetime</text>
<text text-anchor="start" x="1111" y="-977.8" font-family="Times,serif" font-size="14.00">updated_at :datetime</text>
<text text-anchor="start" x="1111" y="-962.8" font-family="Times,serif" font-size="14.00">number :varchar(255)</text>
</g>
<!-- Course&#45;&gt;Project -->
<g id="edge4" class="edge"><title>Course&#45;&gt;Project</title>
<path fill="none" stroke="#66c7d8" d="M1159.89,-947.225C1146.38,-903.822 1125.22,-851.53 1094,-812 1057.21,-765.409 1002.81,-726.972 956.95,-699.909"/>
<ellipse fill="none" stroke="#66c7d8" cx="1161.08" cy="-951.116" rx="4.00001" ry="4.00001"/>
<polygon fill="#66c7d8" stroke="#66c7d8" points="956.842,-699.846 950.459,-690.929 952.519,-697.333 948.197,-694.819 948.197,-694.819 948.197,-694.819 952.519,-697.333 945.935,-698.709 956.842,-699.846 956.842,-699.846"/>
</g>
<!-- Style -->
<g id="node5" class="node"><title>Style</title>
<path fill="none" stroke="black" d="M955,-977.5C955,-977.5 1073,-977.5 1073,-977.5 1079,-977.5 1085,-983.5 1085,-989.5 1085,-989.5 1085,-1071.5 1085,-1071.5 1085,-1077.5 1079,-1083.5 1073,-1083.5 1073,-1083.5 955,-1083.5 955,-1083.5 949,-1083.5 943,-1077.5 943,-1071.5 943,-1071.5 943,-989.5 943,-989.5 943,-983.5 949,-977.5 955,-977.5"/>
<text text-anchor="middle" x="1014" y="-1068.3" font-family="Times,serif" font-size="14.00">Style</text>
<polyline fill="none" stroke="black" points="943,-1060.5 1085,-1060.5 "/>
<text text-anchor="start" x="951" y="-1045.3" font-family="Times,serif" font-size="14.00">id :int(11)</text>
<text text-anchor="start" x="951" y="-1030.3" font-family="Times,serif" font-size="14.00">name :varchar(255)</text>
<text text-anchor="start" x="951" y="-1015.3" font-family="Times,serif" font-size="14.00">filename :varchar(255)</text>
<text text-anchor="start" x="951" y="-1000.3" font-family="Times,serif" font-size="14.00">created_at :datetime</text>
<text text-anchor="start" x="951" y="-985.3" font-family="Times,serif" font-size="14.00">updated_at :datetime</text>
</g>
<!-- Style&#45;&gt;Project -->
<g id="edge5" class="edge"><title>Style&#45;&gt;Project</title>
<path fill="none" stroke="#d74f9e" d="M992.602,-969.772C976.77,-925.967 954.489,-865.118 934,-812 930.606,-803.202 927.067,-794.142 923.472,-785.025"/>
<ellipse fill="none" stroke="#d74f9e" cx="994.024" cy="-973.71" rx="4.00001" ry="4.00001"/>
<polygon fill="#d74f9e" stroke="#d74f9e" points="923.388,-784.813 923.894,-773.859 921.549,-780.163 919.709,-775.514 919.709,-775.514 919.709,-775.514 921.549,-780.163 915.525,-777.169 923.388,-784.813 923.388,-784.813"/>
</g>
<!-- Behavior -->
<g id="node6" class="node"><title>Behavior</title>
<path fill="none" stroke="black" d="M1287.5,-1293C1287.5,-1293 1394.5,-1293 1394.5,-1293 1400.5,-1293 1406.5,-1299 1406.5,-1305 1406.5,-1305 1406.5,-1387 1406.5,-1387 1406.5,-1393 1400.5,-1399 1394.5,-1399 1394.5,-1399 1287.5,-1399 1287.5,-1399 1281.5,-1399 1275.5,-1393 1275.5,-1387 1275.5,-1387 1275.5,-1305 1275.5,-1305 1275.5,-1299 1281.5,-1293 1287.5,-1293"/>
<text text-anchor="middle" x="1341" y="-1383.8" font-family="Times,serif" font-size="14.00">Behavior</text>
<polyline fill="none" stroke="black" points="1275.5,-1376 1406.5,-1376 "/>
<text text-anchor="start" x="1283.5" y="-1360.8" font-family="Times,serif" font-size="14.00">id :int(11)</text>
<text text-anchor="start" x="1283.5" y="-1345.8" font-family="Times,serif" font-size="14.00">name :varchar(255)</text>
<text text-anchor="start" x="1283.5" y="-1330.8" font-family="Times,serif" font-size="14.00">description :text</text>
<text text-anchor="start" x="1283.5" y="-1315.8" font-family="Times,serif" font-size="14.00">created_at :datetime</text>
<text text-anchor="start" x="1283.5" y="-1300.8" font-family="Times,serif" font-size="14.00">updated_at :datetime</text>
</g>
<!-- Installment -->
<g id="node7" class="node"><title>Installment</title>
<path fill="none" stroke="black" d="M587.5,-173.5C587.5,-173.5 702.5,-173.5 702.5,-173.5 708.5,-173.5 714.5,-179.5 714.5,-185.5 714.5,-185.5 714.5,-327.5 714.5,-327.5 714.5,-333.5 708.5,-339.5 702.5,-339.5 702.5,-339.5 587.5,-339.5 587.5,-339.5 581.5,-339.5 575.5,-333.5 575.5,-327.5 575.5,-327.5 575.5,-185.5 575.5,-185.5 575.5,-179.5 581.5,-173.5 587.5,-173.5"/>
<text text-anchor="middle" x="645" y="-324.3" font-family="Times,serif" font-size="14.00">Installment</text>
<polyline fill="none" stroke="black" points="575.5,-316.5 714.5,-316.5 "/>
<text text-anchor="start" x="583.5" y="-301.3" font-family="Times,serif" font-size="14.00">id :int(11)</text>
<text text-anchor="start" x="583.5" y="-286.3" font-family="Times,serif" font-size="14.00">inst_date :date</text>
<text text-anchor="start" x="583.5" y="-271.3" font-family="Times,serif" font-size="14.00">assessment_id :int(11)</text>
<text text-anchor="start" x="583.5" y="-256.3" font-family="Times,serif" font-size="14.00">user_id :int(11)</text>
<text text-anchor="start" x="583.5" y="-241.3" font-family="Times,serif" font-size="14.00">comments :text</text>
<text text-anchor="start" x="583.5" y="-226.3" font-family="Times,serif" font-size="14.00">group_id :int(11)</text>
<text text-anchor="start" x="583.5" y="-211.3" font-family="Times,serif" font-size="14.00">created_at :datetime</text>
<text text-anchor="start" x="583.5" y="-196.3" font-family="Times,serif" font-size="14.00">updated_at :datetime</text>
<text text-anchor="start" x="583.5" y="-181.3" font-family="Times,serif" font-size="14.00">report_date :datetime</text>
</g>
<!-- Value -->
<g id="node20" class="node"><title>Value</title>
<path fill="none" stroke="black" d="M587.5,-0.5C587.5,-0.5 702.5,-0.5 702.5,-0.5 708.5,-0.5 714.5,-6.5 714.5,-12.5 714.5,-12.5 714.5,-124.5 714.5,-124.5 714.5,-130.5 708.5,-136.5 702.5,-136.5 702.5,-136.5 587.5,-136.5 587.5,-136.5 581.5,-136.5 575.5,-130.5 575.5,-124.5 575.5,-124.5 575.5,-12.5 575.5,-12.5 575.5,-6.5 581.5,-0.5 587.5,-0.5"/>
<text text-anchor="middle" x="645" y="-121.3" font-family="Times,serif" font-size="14.00">Value</text>
<polyline fill="none" stroke="black" points="575.5,-113.5 714.5,-113.5 "/>
<text text-anchor="start" x="583.5" y="-98.3" font-family="Times,serif" font-size="14.00">id :int(11)</text>
<text text-anchor="start" x="583.5" y="-83.3" font-family="Times,serif" font-size="14.00">value :int(11)</text>
<text text-anchor="start" x="583.5" y="-68.3" font-family="Times,serif" font-size="14.00">user_id :int(11)</text>
<text text-anchor="start" x="583.5" y="-53.3" font-family="Times,serif" font-size="14.00">installment_id :int(11)</text>
<text text-anchor="start" x="583.5" y="-38.3" font-family="Times,serif" font-size="14.00">created_at :datetime</text>
<text text-anchor="start" x="583.5" y="-23.3" font-family="Times,serif" font-size="14.00">updated_at :datetime</text>
<text text-anchor="start" x="583.5" y="-8.3" font-family="Times,serif" font-size="14.00">factor_id :int(11)</text>
</g>
<!-- Installment&#45;&gt;Value -->
<g id="edge6" class="edge"><title>Installment&#45;&gt;Value</title>
<path fill="none" stroke="#08b4d1" d="M645,-165.302C645,-159.129 645,-152.941 645,-146.844"/>
<ellipse fill="none" stroke="#08b4d1" cx="645" cy="-169.376" rx="4" ry="4"/>
<polygon fill="#08b4d1" stroke="#08b4d1" points="645,-146.691 649.5,-136.691 645,-141.691 645,-136.691 645,-136.691 645,-136.691 645,-141.691 640.5,-136.691 645,-146.691 645,-146.691"/>
</g>
<!-- ConsentForm -->
<g id="node8" class="node"><title>ConsentForm</title>
<path fill="none" stroke="black" d="M749,-940C749,-940 913,-940 913,-940 919,-940 925,-946 925,-952 925,-952 925,-1109 925,-1109 925,-1115 919,-1121 913,-1121 913,-1121 749,-1121 749,-1121 743,-1121 737,-1115 737,-1109 737,-1109 737,-952 737,-952 737,-946 743,-940 749,-940"/>
<text text-anchor="middle" x="831" y="-1105.8" font-family="Times,serif" font-size="14.00">ConsentForm</text>
<polyline fill="none" stroke="black" points="737,-1098 925,-1098 "/>
<text text-anchor="start" x="745" y="-1082.8" font-family="Times,serif" font-size="14.00">id :int(11)</text>
<text text-anchor="start" x="745" y="-1067.8" font-family="Times,serif" font-size="14.00">name :varchar(255)</text>
<text text-anchor="start" x="745" y="-1052.8" font-family="Times,serif" font-size="14.00">user_id :int(11)</text>
<text text-anchor="start" x="745" y="-1037.8" font-family="Times,serif" font-size="14.00">created_at :datetime</text>
<text text-anchor="start" x="745" y="-1022.8" font-family="Times,serif" font-size="14.00">updated_at :datetime</text>
<text text-anchor="start" x="745" y="-1007.8" font-family="Times,serif" font-size="14.00">pdf_file_name :varchar(255)</text>
<text text-anchor="start" x="745" y="-992.8" font-family="Times,serif" font-size="14.00">pdf_content_type :varchar(255)</text>
<text text-anchor="start" x="745" y="-977.8" font-family="Times,serif" font-size="14.00">pdf_file_size :int(11)</text>
<text text-anchor="start" x="745" y="-962.8" font-family="Times,serif" font-size="14.00">pdf_updated_at :datetime</text>
<text text-anchor="start" x="745" y="-947.8" font-family="Times,serif" font-size="14.00">form_text :text</text>
</g>
<!-- ConsentForm&#45;&gt;Project -->
<g id="edge7" class="edge"><title>ConsentForm&#45;&gt;Project</title>
<path fill="none" stroke="#e550ef" d="M841.508,-931.38C846.282,-886.804 851.995,-833.456 857.117,-785.637"/>
<ellipse fill="none" stroke="#e550ef" cx="841.058" cy="-935.585" rx="4" ry="4"/>
<polygon fill="#e550ef" stroke="#e550ef" points="857.135,-785.465 862.674,-776.001 857.667,-780.494 858.2,-775.522 858.2,-775.522 858.2,-775.522 857.667,-780.494 853.725,-775.043 857.135,-785.465 857.135,-785.465"/>
</g>
<!-- ConsentLog -->
<g id="node19" class="node"><title>ConsentLog</title>
<path fill="none" stroke="black" d="M634.5,-587C634.5,-587 763.5,-587 763.5,-587 769.5,-587 775.5,-593 775.5,-599 775.5,-599 775.5,-711 775.5,-711 775.5,-717 769.5,-723 763.5,-723 763.5,-723 634.5,-723 634.5,-723 628.5,-723 622.5,-717 622.5,-711 622.5,-711 622.5,-599 622.5,-599 622.5,-593 628.5,-587 634.5,-587"/>
<text text-anchor="middle" x="699" y="-707.8" font-family="Times,serif" font-size="14.00">ConsentLog</text>
<polyline fill="none" stroke="black" points="622.5,-700 775.5,-700 "/>
<text text-anchor="start" x="630.5" y="-684.8" font-family="Times,serif" font-size="14.00">id :int(11)</text>
<text text-anchor="start" x="630.5" y="-669.8" font-family="Times,serif" font-size="14.00">accepted :tinyint(1)</text>
<text text-anchor="start" x="630.5" y="-654.8" font-family="Times,serif" font-size="14.00">consent_form_id :int(11)</text>
<text text-anchor="start" x="630.5" y="-639.8" font-family="Times,serif" font-size="14.00">user_id :int(11)</text>
<text text-anchor="start" x="630.5" y="-624.8" font-family="Times,serif" font-size="14.00">created_at :datetime</text>
<text text-anchor="start" x="630.5" y="-609.8" font-family="Times,serif" font-size="14.00">updated_at :datetime</text>
<text text-anchor="start" x="630.5" y="-594.8" font-family="Times,serif" font-size="14.00">presented :tinyint(1)</text>
</g>
<!-- ConsentForm&#45;&gt;ConsentLog -->
<g id="edge8" class="edge"><title>ConsentForm&#45;&gt;ConsentLog</title>
<path fill="none" stroke="#c510d3" d="M796.421,-931.658C774.499,-869.627 746.543,-790.526 726.206,-732.982"/>
<ellipse fill="none" stroke="#c510d3" cx="797.882" cy="-935.791" rx="4.00001" ry="4.00001"/>
<polygon fill="#c510d3" stroke="#c510d3" points="726.088,-732.647 726.999,-721.719 724.422,-727.933 722.756,-723.219 722.756,-723.219 722.756,-723.219 724.422,-727.933 718.513,-724.718 726.088,-732.647 726.088,-732.647"/>
</g>
<!-- User&#45;&gt;Installment -->
<g id="edge12" class="edge"><title>User&#45;&gt;Installment</title>
<path fill="none" stroke="#624f8a" d="M508.527,-804.57C526.764,-719.572 548.46,-622.12 570,-534 585.093,-472.255 603.807,-403.252 618.766,-349.624"/>
<ellipse fill="none" stroke="#624f8a" cx="507.667" cy="-808.582" rx="4.00001" ry="4.00001"/>
<polygon fill="#624f8a" stroke="#624f8a" points="618.822,-349.425 625.848,-341.006 620.168,-344.61 621.514,-339.795 621.514,-339.795 621.514,-339.795 620.168,-344.61 617.18,-338.583 618.822,-349.425 618.822,-349.425"/>
</g>
<!-- Group -->
<g id="node12" class="node"><title>Group</title>
<path fill="none" stroke="black" d="M408.5,-384C408.5,-384 515.5,-384 515.5,-384 521.5,-384 527.5,-390 527.5,-396 527.5,-396 527.5,-478 527.5,-478 527.5,-484 521.5,-490 515.5,-490 515.5,-490 408.5,-490 408.5,-490 402.5,-490 396.5,-484 396.5,-478 396.5,-478 396.5,-396 396.5,-396 396.5,-390 402.5,-384 408.5,-384"/>
<text text-anchor="middle" x="462" y="-474.8" font-family="Times,serif" font-size="14.00">Group</text>
<polyline fill="none" stroke="black" points="396.5,-467 527.5,-467 "/>
<text text-anchor="start" x="404.5" y="-451.8" font-family="Times,serif" font-size="14.00">id :int(11)</text>
<text text-anchor="start" x="404.5" y="-436.8" font-family="Times,serif" font-size="14.00">name :varchar(255)</text>
<text text-anchor="start" x="404.5" y="-421.8" font-family="Times,serif" font-size="14.00">project_id :int(11)</text>
<text text-anchor="start" x="404.5" y="-406.8" font-family="Times,serif" font-size="14.00">created_at :datetime</text>
<text text-anchor="start" x="404.5" y="-391.8" font-family="Times,serif" font-size="14.00">updated_at :datetime</text>
</g>
<!-- User&#45;&gt;Group -->
<g id="edge9" class="edge"><title>User&#45;&gt;Group</title>
<path fill="none" stroke="#3aa985" d="M462,-801.919C462,-693.403 462,-571.937 462,-500.377"/>
<polygon fill="#3aa985" stroke="#3aa985" points="462,-802.187 457.5,-812.187 462,-807.187 462,-812.187 462,-812.187 462,-812.187 462,-807.187 466.5,-812.187 462,-802.187 462,-802.187"/>
<polygon fill="#3aa985" stroke="#3aa985" points="462,-500.188 466.5,-490.188 462,-495.188 462,-490.188 462,-490.188 462,-490.188 462,-495.188 457.5,-490.188 462,-500.188 462,-500.188"/>
</g>
<!-- User&#45;&gt;Project -->
<g id="edge11" class="edge"><title>User&#45;&gt;Project</title>
<path fill="none" stroke="#f446b0" d="M577.458,-813.126C577.97,-812.748 578.484,-812.372 579,-812 654.366,-757.609 706.302,-825.448 785,-776 785.19,-775.881 785.38,-775.761 785.569,-775.64"/>
<polygon fill="#f446b0" stroke="#f446b0" points="577.203,-813.327 566.56,-815.969 573.272,-816.417 569.341,-819.507 569.341,-819.507 569.341,-819.507 573.272,-816.417 572.122,-823.044 577.203,-813.327 577.203,-813.327"/>
<polygon fill="#f446b0" stroke="#f446b0" points="785.683,-775.561 796.461,-773.537 789.786,-772.703 793.889,-769.845 793.889,-769.845 793.889,-769.845 789.786,-772.703 791.317,-766.152 785.683,-775.561 785.683,-775.561"/>
</g>
<!-- User&#45;&gt;ConsentLog -->
<g id="edge10" class="edge"><title>User&#45;&gt;ConsentLog</title>
<path fill="none" stroke="#e29c66" d="M573.413,-820.534C575.27,-817.66 577.133,-814.814 579,-812 590.359,-794.88 595.347,-792.187 608,-776 619.209,-761.661 631.05,-746.247 642.351,-731.404"/>
<ellipse fill="none" stroke="#e29c66" cx="571.247" cy="-823.92" rx="4.00002" ry="4.00002"/>
<polygon fill="#e29c66" stroke="#e29c66" points="642.515,-731.188 652.149,-725.95 645.541,-727.207 648.566,-723.227 648.566,-723.227 648.566,-723.227 645.541,-727.207 644.984,-720.503 642.515,-731.188 642.515,-731.188"/>
</g>
<!-- Assessment -->
<g id="node22" class="node"><title>Assessment</title>
<path fill="none" stroke="black" d="M677,-376.5C677,-376.5 799,-376.5 799,-376.5 805,-376.5 811,-382.5 811,-388.5 811,-388.5 811,-485.5 811,-485.5 811,-491.5 805,-497.5 799,-497.5 799,-497.5 677,-497.5 677,-497.5 671,-497.5 665,-491.5 665,-485.5 665,-485.5 665,-388.5 665,-388.5 665,-382.5 671,-376.5 677,-376.5"/>
<text text-anchor="middle" x="738" y="-482.3" font-family="Times,serif" font-size="14.00">Assessment</text>
<polyline fill="none" stroke="black" points="665,-474.5 811,-474.5 "/>
<text text-anchor="start" x="673" y="-459.3" font-family="Times,serif" font-size="14.00">id :int(11)</text>
<text text-anchor="start" x="673" y="-444.3" font-family="Times,serif" font-size="14.00">end_date :date</text>
<text text-anchor="start" x="673" y="-429.3" font-family="Times,serif" font-size="14.00">start_date :varchar(255)</text>
<text text-anchor="start" x="673" y="-414.3" font-family="Times,serif" font-size="14.00">project_id :int(11)</text>
<text text-anchor="start" x="673" y="-399.3" font-family="Times,serif" font-size="14.00">created_at :datetime</text>
<text text-anchor="start" x="673" y="-384.3" font-family="Times,serif" font-size="14.00">updated_at :datetime</text>
</g>
<!-- User&#45;&gt;Assessment -->
<g id="edge13" class="edge"><title>User&#45;&gt;Assessment</title>
<path fill="none" stroke="#8fb0dc" d="M561.548,-802.499C564.544,-793.604 567.377,-784.749 570,-776 601.396,-671.287 557.241,-627.429 614,-534 624.872,-516.104 640.405,-500.295 656.816,-486.936"/>
<polygon fill="#8fb0dc" stroke="#8fb0dc" points="561.477,-802.704 553.977,-810.704 559.856,-807.434 558.234,-812.164 558.234,-812.164 558.234,-812.164 559.856,-807.434 562.491,-813.623 561.477,-802.704 561.477,-802.704"/>
<polygon fill="#8fb0dc" stroke="#8fb0dc" points="657.057,-486.747 667.703,-484.117 660.991,-483.661 664.926,-480.576 664.926,-480.576 664.926,-480.576 660.991,-483.661 662.149,-477.035 657.057,-486.747 657.057,-486.747"/>
</g>
<!-- Roster -->
<g id="node10" class="node"><title>Roster</title>
<path fill="none" stroke="black" d="M599.5,-970C599.5,-970 706.5,-970 706.5,-970 712.5,-970 718.5,-976 718.5,-982 718.5,-982 718.5,-1079 718.5,-1079 718.5,-1085 712.5,-1091 706.5,-1091 706.5,-1091 599.5,-1091 599.5,-1091 593.5,-1091 587.5,-1085 587.5,-1079 587.5,-1079 587.5,-982 587.5,-982 587.5,-976 593.5,-970 599.5,-970"/>
<text text-anchor="middle" x="653" y="-1075.8" font-family="Times,serif" font-size="14.00">Roster</text>
<polyline fill="none" stroke="black" points="587.5,-1068 718.5,-1068 "/>
<text text-anchor="start" x="595.5" y="-1052.8" font-family="Times,serif" font-size="14.00">id :int(11)</text>
<text text-anchor="start" x="595.5" y="-1037.8" font-family="Times,serif" font-size="14.00">role_id :int(11)</text>
<text text-anchor="start" x="595.5" y="-1022.8" font-family="Times,serif" font-size="14.00">course_id :int(11)</text>
<text text-anchor="start" x="595.5" y="-1007.8" font-family="Times,serif" font-size="14.00">user_id :int(11)</text>
<text text-anchor="start" x="595.5" y="-992.8" font-family="Times,serif" font-size="14.00">created_at :datetime</text>
<text text-anchor="start" x="595.5" y="-977.8" font-family="Times,serif" font-size="14.00">updated_at :datetime</text>
</g>
<!-- School -->
<g id="node11" class="node"><title>School</title>
<path fill="none" stroke="black" d="M1115,-1293C1115,-1293 1245,-1293 1245,-1293 1251,-1293 1257,-1299 1257,-1305 1257,-1305 1257,-1387 1257,-1387 1257,-1393 1251,-1399 1245,-1399 1245,-1399 1115,-1399 1115,-1399 1109,-1399 1103,-1393 1103,-1387 1103,-1387 1103,-1305 1103,-1305 1103,-1299 1109,-1293 1115,-1293"/>
<text text-anchor="middle" x="1180" y="-1383.8" font-family="Times,serif" font-size="14.00">School</text>
<polyline fill="none" stroke="black" points="1103,-1376 1257,-1376 "/>
<text text-anchor="start" x="1111" y="-1360.8" font-family="Times,serif" font-size="14.00">id :int(11)</text>
<text text-anchor="start" x="1111" y="-1345.8" font-family="Times,serif" font-size="14.00">description :varchar(255)</text>
<text text-anchor="start" x="1111" y="-1330.8" font-family="Times,serif" font-size="14.00">name :varchar(255)</text>
<text text-anchor="start" x="1111" y="-1315.8" font-family="Times,serif" font-size="14.00">created_at :datetime</text>
<text text-anchor="start" x="1111" y="-1300.8" font-family="Times,serif" font-size="14.00">updated_at :datetime</text>
</g>
<!-- School&#45;&gt;Course -->
<g id="edge14" class="edge"><title>School&#45;&gt;Course</title>
<path fill="none" stroke="#d8b719" d="M1180,-1284.59C1180,-1236.76 1180,-1169.37 1180,-1116.16"/>
<ellipse fill="none" stroke="#d8b719" cx="1180" cy="-1288.88" rx="4" ry="4"/>
<polygon fill="#d8b719" stroke="#d8b719" points="1180,-1116.05 1184.5,-1106.05 1180,-1111.05 1180,-1106.05 1180,-1106.05 1180,-1106.05 1180,-1111.05 1175.5,-1106.05 1180,-1116.05 1180,-1116.05"/>
</g>
<!-- Report -->
<g id="node25" class="node"><title>Report</title>
<ellipse fill="none" stroke="black" cx="462" cy="-256.5" rx="34.394" ry="18"/>
<text text-anchor="middle" x="462" y="-252.8" font-family="Times,serif" font-size="14.00">Report</text>
</g>
<!-- Group&#45;&gt;Report -->
<g id="edge15" class="edge"><title>Group&#45;&gt;Report</title>
<path fill="none" stroke="#7cd6b4" d="M462,-375.484C462,-344.65 462,-308.695 462,-284.655"/>
<ellipse fill="none" stroke="#7cd6b4" cx="462" cy="-379.891" rx="4" ry="4"/>
<polygon fill="#7cd6b4" stroke="#7cd6b4" points="462,-284.509 466.5,-274.509 462,-279.509 462,-274.509 462,-274.509 462,-274.509 462,-279.509 457.5,-274.509 462,-284.509 462,-284.509"/>
</g>
<!-- Project&#45;&gt;Group -->
<g id="edge16" class="edge"><title>Project&#45;&gt;Group</title>
<path fill="none" stroke="#f2d60a" d="M787.553,-535.831C786.707,-535.21 785.856,-534.599 785,-534 736.23,-499.873 713.105,-514.795 656,-498 616.892,-486.498 573.534,-473.146 537.744,-461.961"/>
<ellipse fill="none" stroke="#f2d60a" cx="790.771" cy="-538.341" rx="4.00002" ry="4.00002"/>
<polygon fill="#f2d60a" stroke="#f2d60a" points="537.403,-461.854 529.204,-454.573 532.632,-460.361 527.86,-458.867 527.86,-458.867 527.86,-458.867 532.632,-460.361 526.516,-463.162 537.403,-461.854 537.403,-461.854"/>
</g>
<!-- Project&#45;&gt;Factor -->
<g id="edge18" class="edge"><title>Project&#45;&gt;Factor</title>
<path fill="none" stroke="#979a18" d="M871,-524.285C871,-455.624 871,-374.457 871,-319.833"/>
<polygon fill="#979a18" stroke="#979a18" points="871,-524.499 866.5,-534.499 871,-529.499 871,-534.499 871,-534.499 871,-534.499 871,-529.499 875.5,-534.499 871,-524.499 871,-524.499"/>
<polygon fill="#979a18" stroke="#979a18" points="871,-319.613 875.5,-309.613 871,-314.613 871,-309.613 871,-309.613 871,-309.613 871,-314.613 866.5,-309.613 871,-319.613 871,-319.613"/>
</g>
<!-- Project&#45;&gt;Assessment -->
<g id="edge17" class="edge"><title>Project&#45;&gt;Assessment</title>
<path fill="none" stroke="#d6f5dd" d="M792.938,-527.223C788.623,-520.214 784.374,-513.314 780.268,-506.646"/>
<ellipse fill="none" stroke="#d6f5dd" cx="795.207" cy="-530.907" rx="4.00002" ry="4.00002"/>
<polygon fill="#d6f5dd" stroke="#d6f5dd" points="780.008,-506.223 778.596,-495.348 777.386,-501.965 774.764,-497.708 774.764,-497.708 774.764,-497.708 777.386,-501.965 770.933,-500.067 780.008,-506.223 780.008,-506.223"/>
</g>
<!-- Gender -->
<g id="node14" class="node"><title>Gender</title>
<path fill="none" stroke="black" d="M416.5,-1300.5C416.5,-1300.5 523.5,-1300.5 523.5,-1300.5 529.5,-1300.5 535.5,-1306.5 535.5,-1312.5 535.5,-1312.5 535.5,-1379.5 535.5,-1379.5 535.5,-1385.5 529.5,-1391.5 523.5,-1391.5 523.5,-1391.5 416.5,-1391.5 416.5,-1391.5 410.5,-1391.5 404.5,-1385.5 404.5,-1379.5 404.5,-1379.5 404.5,-1312.5 404.5,-1312.5 404.5,-1306.5 410.5,-1300.5 416.5,-1300.5"/>
<text text-anchor="middle" x="470" y="-1376.3" font-family="Times,serif" font-size="14.00">Gender</text>
<polyline fill="none" stroke="black" points="404.5,-1368.5 535.5,-1368.5 "/>
<text text-anchor="start" x="412.5" y="-1353.3" font-family="Times,serif" font-size="14.00">id :int(11)</text>
<text text-anchor="start" x="412.5" y="-1338.3" font-family="Times,serif" font-size="14.00">name :varchar(255)</text>
<text text-anchor="start" x="412.5" y="-1323.3" font-family="Times,serif" font-size="14.00">created_at :datetime</text>
<text text-anchor="start" x="412.5" y="-1308.3" font-family="Times,serif" font-size="14.00">updated_at :datetime</text>
</g>
<!-- Gender&#45;&gt;User -->
<g id="edge19" class="edge"><title>Gender&#45;&gt;User</title>
<path fill="none" stroke="#2579a5" d="M468.651,-1292.13C468.392,-1281.97 468.106,-1270.76 467.802,-1258.86"/>
<ellipse fill="none" stroke="#2579a5" cx="468.76" cy="-1296.42" rx="4" ry="4"/>
<polygon fill="#2579a5" stroke="#2579a5" points="467.798,-1258.71 472.041,-1248.59 467.67,-1253.71 467.543,-1248.71 467.543,-1248.71 467.543,-1248.71 467.67,-1253.71 463.044,-1248.82 467.798,-1258.71 467.798,-1258.71"/>
</g>
<!-- AgeRange -->
<g id="node15" class="node"><title>AgeRange</title>
<path fill="none" stroke="black" d="M1436.5,-1300.5C1436.5,-1300.5 1543.5,-1300.5 1543.5,-1300.5 1549.5,-1300.5 1555.5,-1306.5 1555.5,-1312.5 1555.5,-1312.5 1555.5,-1379.5 1555.5,-1379.5 1555.5,-1385.5 1549.5,-1391.5 1543.5,-1391.5 1543.5,-1391.5 1436.5,-1391.5 1436.5,-1391.5 1430.5,-1391.5 1424.5,-1385.5 1424.5,-1379.5 1424.5,-1379.5 1424.5,-1312.5 1424.5,-1312.5 1424.5,-1306.5 1430.5,-1300.5 1436.5,-1300.5"/>
<text text-anchor="middle" x="1490" y="-1376.3" font-family="Times,serif" font-size="14.00">AgeRange</text>
<polyline fill="none" stroke="black" points="1424.5,-1368.5 1555.5,-1368.5 "/>
<text text-anchor="start" x="1432.5" y="-1353.3" font-family="Times,serif" font-size="14.00">id :int(11)</text>
<text text-anchor="start" x="1432.5" y="-1338.3" font-family="Times,serif" font-size="14.00">name :varchar(255)</text>
<text text-anchor="start" x="1432.5" y="-1323.3" font-family="Times,serif" font-size="14.00">created_at :datetime</text>
<text text-anchor="start" x="1432.5" y="-1308.3" font-family="Times,serif" font-size="14.00">updated_at :datetime</text>
</g>
<!-- Week -->
<g id="node17" class="node"><title>Week</title>
<path fill="none" stroke="black" d="M1585.5,-1285.5C1585.5,-1285.5 1692.5,-1285.5 1692.5,-1285.5 1698.5,-1285.5 1704.5,-1291.5 1704.5,-1297.5 1704.5,-1297.5 1704.5,-1394.5 1704.5,-1394.5 1704.5,-1400.5 1698.5,-1406.5 1692.5,-1406.5 1692.5,-1406.5 1585.5,-1406.5 1585.5,-1406.5 1579.5,-1406.5 1573.5,-1400.5 1573.5,-1394.5 1573.5,-1394.5 1573.5,-1297.5 1573.5,-1297.5 1573.5,-1291.5 1579.5,-1285.5 1585.5,-1285.5"/>
<text text-anchor="middle" x="1639" y="-1391.3" font-family="Times,serif" font-size="14.00">Week</text>
<polyline fill="none" stroke="black" points="1573.5,-1383.5 1704.5,-1383.5 "/>
<text text-anchor="start" x="1581.5" y="-1368.3" font-family="Times,serif" font-size="14.00">id :int(11)</text>
<text text-anchor="start" x="1581.5" y="-1353.3" font-family="Times,serif" font-size="14.00">narrative_id :int(11)</text>
<text text-anchor="start" x="1581.5" y="-1338.3" font-family="Times,serif" font-size="14.00">week_num :int(11)</text>
<text text-anchor="start" x="1581.5" y="-1323.3" font-family="Times,serif" font-size="14.00">text :text</text>
<text text-anchor="start" x="1581.5" y="-1308.3" font-family="Times,serif" font-size="14.00">created_at :datetime</text>
<text text-anchor="start" x="1581.5" y="-1293.3" font-family="Times,serif" font-size="14.00">updated_at :datetime</text>
</g>
<!-- Narrative -->
<g id="node18" class="node"><title>Narrative</title>
<path fill="none" stroke="black" d="M1735,-1293C1735,-1293 1851,-1293 1851,-1293 1857,-1293 1863,-1299 1863,-1305 1863,-1305 1863,-1387 1863,-1387 1863,-1393 1857,-1399 1851,-1399 1851,-1399 1735,-1399 1735,-1399 1729,-1399 1723,-1393 1723,-1387 1723,-1387 1723,-1305 1723,-1305 1723,-1299 1729,-1293 1735,-1293"/>
<text text-anchor="middle" x="1793" y="-1383.8" font-family="Times,serif" font-size="14.00">Narrative</text>
<polyline fill="none" stroke="black" points="1723,-1376 1863,-1376 "/>
<text text-anchor="start" x="1731" y="-1360.8" font-family="Times,serif" font-size="14.00">id :int(11)</text>
<text text-anchor="start" x="1731" y="-1345.8" font-family="Times,serif" font-size="14.00">member :varchar(255)</text>
<text text-anchor="start" x="1731" y="-1330.8" font-family="Times,serif" font-size="14.00">scenario_id :int(11)</text>
<text text-anchor="start" x="1731" y="-1315.8" font-family="Times,serif" font-size="14.00">created_at :datetime</text>
<text text-anchor="start" x="1731" y="-1300.8" font-family="Times,serif" font-size="14.00">updated_at :datetime</text>
</g>
<!-- Scenario -->
<g id="node21" class="node"><title>Scenario</title>
<path fill="none" stroke="black" d="M1893.5,-1293C1893.5,-1293 2000.5,-1293 2000.5,-1293 2006.5,-1293 2012.5,-1299 2012.5,-1305 2012.5,-1305 2012.5,-1387 2012.5,-1387 2012.5,-1393 2006.5,-1399 2000.5,-1399 2000.5,-1399 1893.5,-1399 1893.5,-1399 1887.5,-1399 1881.5,-1393 1881.5,-1387 1881.5,-1387 1881.5,-1305 1881.5,-1305 1881.5,-1299 1887.5,-1293 1893.5,-1293"/>
<text text-anchor="middle" x="1947" y="-1383.8" font-family="Times,serif" font-size="14.00">Scenario</text>
<polyline fill="none" stroke="black" points="1881.5,-1376 2012.5,-1376 "/>
<text text-anchor="start" x="1889.5" y="-1360.8" font-family="Times,serif" font-size="14.00">id :int(11)</text>
<text text-anchor="start" x="1889.5" y="-1345.8" font-family="Times,serif" font-size="14.00">name :varchar(255)</text>
<text text-anchor="start" x="1889.5" y="-1330.8" font-family="Times,serif" font-size="14.00">behavior_id :int(11)</text>
<text text-anchor="start" x="1889.5" y="-1315.8" font-family="Times,serif" font-size="14.00">created_at :datetime</text>
<text text-anchor="start" x="1889.5" y="-1300.8" font-family="Times,serif" font-size="14.00">updated_at :datetime</text>
</g>
<!-- Assessment&#45;&gt;Installment -->
<g id="edge20" class="edge"><title>Assessment&#45;&gt;Installment</title>
<path fill="none" stroke="#6d1cce" d="M703.031,-368.883C699.631,-362.356 696.142,-355.661 692.645,-348.948"/>
<ellipse fill="none" stroke="#6d1cce" cx="704.925" cy="-372.518" rx="4.00002" ry="4.00002"/>
<polygon fill="#6d1cce" stroke="#6d1cce" points="692.499,-348.668 691.87,-337.72 690.189,-344.234 687.879,-339.8 687.879,-339.8 687.879,-339.8 690.189,-344.234 683.888,-341.879 692.499,-348.668 692.499,-348.668"/>
</g>
<!-- Assessment&#45;&gt;Factor -->
<g id="edge21" class="edge"><title>Assessment&#45;&gt;Factor</title>
<path fill="none" stroke="#4c8b6a" d="M788.766,-367.867C801.049,-351.382 814.091,-333.877 826.084,-317.782"/>
<polygon fill="#4c8b6a" stroke="#4c8b6a" points="788.632,-368.047 779.049,-373.377 785.644,-372.056 782.657,-376.066 782.657,-376.066 782.657,-376.066 785.644,-372.056 786.266,-378.754 788.632,-368.047 788.632,-368.047"/>
<polygon fill="#4c8b6a" stroke="#4c8b6a" points="826.275,-317.526 835.858,-312.196 829.262,-313.517 832.25,-309.507 832.25,-309.507 832.25,-309.507 829.262,-313.517 828.641,-306.819 826.275,-317.526 826.275,-317.526"/>
</g>
<!-- Cip -->
<g id="node23" class="node"><title>Cip</title>
<path fill="none" stroke="black" d="M2043,-1300.5C2043,-1300.5 2173,-1300.5 2173,-1300.5 2179,-1300.5 2185,-1306.5 2185,-1312.5 2185,-1312.5 2185,-1379.5 2185,-1379.5 2185,-1385.5 2179,-1391.5 2173,-1391.5 2173,-1391.5 2043,-1391.5 2043,-1391.5 2037,-1391.5 2031,-1385.5 2031,-1379.5 2031,-1379.5 2031,-1312.5 2031,-1312.5 2031,-1306.5 2037,-1300.5 2043,-1300.5"/>
<text text-anchor="middle" x="2108" y="-1376.3" font-family="Times,serif" font-size="14.00">Cip</text>
<polyline fill="none" stroke="black" points="2031,-1368.5 2185,-1368.5 "/>
<text text-anchor="start" x="2039" y="-1353.3" font-family="Times,serif" font-size="14.00">id :int(11)</text>
<text text-anchor="start" x="2039" y="-1338.3" font-family="Times,serif" font-size="14.00">description :varchar(255)</text>
<text text-anchor="start" x="2039" y="-1323.3" font-family="Times,serif" font-size="14.00">created_at :datetime</text>
<text text-anchor="start" x="2039" y="-1308.3" font-family="Times,serif" font-size="14.00">updated_at :datetime</text>
</g>
<!-- Role -->
<g id="node24" class="node"><title>Role</title>
<path fill="none" stroke="black" d="M573,-1293C573,-1293 703,-1293 703,-1293 709,-1293 715,-1299 715,-1305 715,-1305 715,-1387 715,-1387 715,-1393 709,-1399 703,-1399 703,-1399 573,-1399 573,-1399 567,-1399 561,-1393 561,-1387 561,-1387 561,-1305 561,-1305 561,-1299 567,-1293 573,-1293"/>
<text text-anchor="middle" x="638" y="-1383.8" font-family="Times,serif" font-size="14.00">Role</text>
<polyline fill="none" stroke="black" points="561,-1376 715,-1376 "/>
<text text-anchor="start" x="569" y="-1360.8" font-family="Times,serif" font-size="14.00">id :int(11)</text>
<text text-anchor="start" x="569" y="-1345.8" font-family="Times,serif" font-size="14.00">name :varchar(255)</text>
<text text-anchor="start" x="569" y="-1330.8" font-family="Times,serif" font-size="14.00">description :varchar(255)</text>
<text text-anchor="start" x="569" y="-1315.8" font-family="Times,serif" font-size="14.00">created_at :datetime</text>
<text text-anchor="start" x="569" y="-1300.8" font-family="Times,serif" font-size="14.00">updated_at :datetime</text>
</g>
<!-- Role&#45;&gt;User -->
<g id="edge22" class="edge"><title>Role&#45;&gt;User</title>
<path fill="none" stroke="#422feb" d="M600.709,-1285.52C593.385,-1273.5 585.853,-1260.91 579,-1249 577.42,-1246.26 575.834,-1243.49 574.243,-1240.7"/>
<ellipse fill="none" stroke="#422feb" cx="602.902" cy="-1289.1" rx="4.00002" ry="4.00002"/>
<polygon fill="#422feb" stroke="#422feb" points="574.091,-1240.43 573.061,-1229.52 571.62,-1236.09 569.149,-1231.74 569.149,-1231.74 569.149,-1231.74 571.62,-1236.09 565.237,-1233.96 574.091,-1240.43 574.091,-1240.43"/>
</g>
<!-- Role&#45;&gt;Roster -->
<g id="edge23" class="edge"><title>Role&#45;&gt;Roster</title>
<path fill="none" stroke="#079fc8" d="M640.877,-1284.86C643.386,-1232.44 647.025,-1156.37 649.661,-1101.28"/>
<ellipse fill="none" stroke="#079fc8" cx="640.685" cy="-1288.88" rx="4" ry="4"/>
<polygon fill="#079fc8" stroke="#079fc8" points="649.663,-1101.23 654.636,-1091.46 649.902,-1096.24 650.141,-1091.24 650.141,-1091.24 650.141,-1091.24 649.902,-1096.24 645.647,-1091.03 649.663,-1101.23 649.663,-1101.23"/>
</g>
</g>
</svg>
