<?xml version="1.0" encoding="UTF-8" standalone="no"?>
<!DOCTYPE svg PUBLIC "-//W3C//DTD SVG 1.1//EN"
 "http://www.w3.org/Graphics/SVG/1.1/DTD/svg11.dtd">
<!-- Generated by graphviz version 2.36.0 (20140111.2315)
 -->
<!-- Title: models_diagram Pages: 1 -->
<svg width="1469pt" height="806pt"
 viewBox="0.00 0.00 1469.00 806.00" xmlns="http://www.w3.org/2000/svg" xmlns:xlink="http://www.w3.org/1999/xlink">
<g id="graph0" class="graph" transform="scale(1 1) rotate(0) translate(4 802)">
<title>models_diagram</title>
<polygon fill="none" stroke="none" points="-4,4 -4,-802 1465,-802 1465,4 -4,4"/>
<!-- _diagram_info -->
<g id="node1" class="node"><title>_diagram_info</title>
<text text-anchor="start" x="922.5" y="-783.6" font-family="Times,serif" font-size="13.00">Models diagram</text>
<text text-anchor="start" x="922.5" y="-769.6" font-family="Times,serif" font-size="13.00">Date: Apr 01 2017 &#45; 01:42</text>
<text text-anchor="start" x="922.5" y="-755.6" font-family="Times,serif" font-size="13.00">Migration version: 20170331045901</text>
<text text-anchor="start" x="922.5" y="-741.6" font-family="Times,serif" font-size="13.00">Generated by RailRoady 1.5.2</text>
<text text-anchor="start" x="922.5" y="-727.6" font-family="Times,serif" font-size="13.00">http://railroady.prestonlee.com</text>
</g>
<!-- AgeRange -->
<g id="node2" class="node"><title>AgeRange</title>
<ellipse fill="none" stroke="black" cx="986" cy="-450" rx="57.2688" ry="18"/>
<text text-anchor="middle" x="986" y="-446.3" font-family="Times,serif" font-size="14.00">AgeRange</text>
</g>
<!-- User -->
<g id="node33" class="node"><title>User</title>
<ellipse fill="none" stroke="black" cx="664" cy="-378" rx="32.2457" ry="18"/>
<text text-anchor="middle" x="664" y="-374.3" font-family="Times,serif" font-size="14.00">User</text>
</g>
<!-- AgeRange&#45;&gt;User -->
<g id="edge1" class="edge"><title>AgeRange&#45;&gt;User</title>
<path fill="none" stroke="#d50872" d="M935.213,-435.866C929.748,-434.527 924.264,-433.214 919,-432 843.155,-414.505 754.011,-396.574 703.746,-386.704"/>
<ellipse fill="none" stroke="#d50872" cx="939.294" cy="-436.877" rx="4.00001" ry="4.00001"/>
<polygon fill="#d50872" stroke="#d50872" points="703.742,-386.703 694.793,-380.365 698.835,-385.742 693.928,-384.781 693.928,-384.781 693.928,-384.781 698.835,-385.742 693.063,-389.197 703.742,-386.703 703.742,-386.703"/>
</g>
<!-- Assessment -->
<g id="node3" class="node"><title>Assessment</title>
<ellipse fill="none" stroke="black" cx="238" cy="-522" rx="65.9423" ry="18"/>
<text text-anchor="middle" x="238" y="-518.3" font-family="Times,serif" font-size="14.00">Assessment</text>
</g>
<!-- Factor -->
<g id="node17" class="node"><title>Factor</title>
<ellipse fill="none" stroke="black" cx="144" cy="-450" rx="40.4202" ry="18"/>
<text text-anchor="middle" x="144" y="-446.3" font-family="Times,serif" font-size="14.00">Factor</text>
</g>
<!-- Assessment&#45;&gt;Factor -->
<g id="edge3" class="edge"><title>Assessment&#45;&gt;Factor</title>
<path fill="none" stroke="#767e17" d="M208.016,-498.672C196.485,-490.085 183.375,-480.322 172.034,-471.877"/>
<polygon fill="#767e17" stroke="#767e17" points="208.178,-498.792 213.511,-508.374 212.188,-501.778 216.198,-504.765 216.198,-504.765 216.198,-504.765 212.188,-501.778 218.886,-501.155 208.178,-498.792 208.178,-498.792"/>
<polygon fill="#767e17" stroke="#767e17" points="171.783,-471.69 166.45,-462.108 167.773,-468.703 163.763,-465.717 163.763,-465.717 163.763,-465.717 167.773,-468.703 161.075,-469.326 171.783,-471.69 171.783,-471.69"/>
</g>
<!-- Group -->
<g id="node20" class="node"><title>Group</title>
<ellipse fill="none" stroke="black" cx="281" cy="-450" rx="39.4691" ry="18"/>
<text text-anchor="middle" x="281" y="-446.3" font-family="Times,serif" font-size="14.00">Group</text>
</g>
<!-- Assessment&#45;&gt;Group -->
<g id="edge5" class="edge"><title>Assessment&#45;&gt;Group</title>
<path fill="none" stroke="#f80a03" d="M253.794,-495.289C257.581,-489.124 261.622,-482.545 265.4,-476.395"/>
<polygon fill="#f80a03" stroke="#f80a03" points="253.643,-495.534 244.575,-501.7 251.026,-499.795 248.409,-504.055 248.409,-504.055 248.409,-504.055 251.026,-499.795 252.243,-506.41 253.643,-495.534 253.643,-495.534"/>
<polygon fill="#f80a03" stroke="#f80a03" points="265.453,-476.31 274.521,-470.144 268.07,-472.049 270.687,-467.789 270.687,-467.789 270.687,-467.789 268.07,-472.049 266.852,-465.434 265.453,-476.31 265.453,-476.31"/>
</g>
<!-- Installment -->
<g id="node23" class="node"><title>Installment</title>
<ellipse fill="none" stroke="black" cx="232" cy="-306" rx="64.0172" ry="18"/>
<text text-anchor="middle" x="232" y="-302.3" font-family="Times,serif" font-size="14.00">Installment</text>
</g>
<!-- Assessment&#45;&gt;Installment -->
<g id="edge2" class="edge"><title>Assessment&#45;&gt;Installment</title>
<path fill="none" stroke="#e1d50e" d="M234.565,-495.846C233.521,-487.055 232.514,-477.108 232,-468 229.366,-421.318 230.174,-366.901 231.051,-334.789"/>
<ellipse fill="none" stroke="#e1d50e" cx="235.069" cy="-499.887" rx="4.00001" ry="4.00001"/>
<polygon fill="#e1d50e" stroke="#e1d50e" points="231.062,-334.406 235.856,-324.543 231.21,-329.408 231.358,-324.41 231.358,-324.41 231.358,-324.41 231.21,-329.408 226.86,-324.277 231.062,-334.406 231.062,-334.406"/>
</g>
<!-- Assessment&#45;&gt;User -->
<g id="edge4" class="edge"><title>Assessment&#45;&gt;User</title>
<path fill="none" stroke="#e7a86d" d="M276.635,-500.953C293.273,-491.705 312.624,-480.102 329,-468 347.971,-453.981 346.877,-442.5 368,-432 451.131,-390.678 561.593,-381.19 621.305,-379.249"/>
<polygon fill="#e7a86d" stroke="#e7a86d" points="276.48,-501.038 265.547,-501.889 272.093,-503.437 267.707,-505.837 267.707,-505.837 267.707,-505.837 272.093,-503.437 269.866,-509.785 276.48,-501.038 276.48,-501.038"/>
<polygon fill="#e7a86d" stroke="#e7a86d" points="621.499,-379.243 631.616,-383.474 626.497,-379.109 631.495,-378.975 631.495,-378.975 631.495,-378.975 626.497,-379.109 631.375,-374.477 621.499,-379.243 621.499,-379.243"/>
</g>
<!-- Behavior -->
<g id="node4" class="node"><title>Behavior</title>
<ellipse fill="none" stroke="black" cx="442" cy="-162" rx="51.4931" ry="18"/>
<text text-anchor="middle" x="442" y="-158.3" font-family="Times,serif" font-size="14.00">Behavior</text>
</g>
<!-- Diagnosis -->
<g id="node14" class="node"><title>Diagnosis</title>
<ellipse fill="none" stroke="black" cx="381" cy="-18" rx="55.3436" ry="18"/>
<text text-anchor="middle" x="381" y="-14.3" font-family="Times,serif" font-size="14.00">Diagnosis</text>
</g>
<!-- Behavior&#45;&gt;Diagnosis -->
<g id="edge8" class="edge"><title>Behavior&#45;&gt;Diagnosis</title>
<path fill="none" stroke="#0a990d" d="M431.268,-136.353C427.391,-127.426 422.988,-117.264 419,-108 410.004,-87.1019 399.892,-63.4086 392.362,-45.7253"/>
<ellipse fill="none" stroke="#0a990d" cx="432.922" cy="-140.157" rx="4.00002" ry="4.00002"/>
<polygon fill="#0a990d" stroke="#0a990d" points="392.171,-45.276 392.396,-34.3125 390.213,-40.6754 388.255,-36.0747 388.255,-36.0747 388.255,-36.0747 390.213,-40.6754 384.114,-37.8369 392.171,-45.276 392.171,-45.276"/>
</g>
<!-- Reaction -->
<g id="node26" class="node"><title>Reaction</title>
<ellipse fill="none" stroke="black" cx="600" cy="-90" rx="51.4931" ry="18"/>
<text text-anchor="middle" x="600" y="-86.3" font-family="Times,serif" font-size="14.00">Reaction</text>
</g>
<!-- Behavior&#45;&gt;Reaction -->
<g id="edge7" class="edge"><title>Behavior&#45;&gt;Reaction</title>
<path fill="none" stroke="#dfa020" d="M480.311,-144.027C504.495,-133.313 535.675,-119.498 560.148,-108.656"/>
<ellipse fill="none" stroke="#dfa020" cx="476.496" cy="-145.717" rx="4.00002" ry="4.00002"/>
<polygon fill="#dfa020" stroke="#dfa020" points="560.365,-108.56 571.33,-108.624 564.936,-106.535 569.507,-104.509 569.507,-104.509 569.507,-104.509 564.936,-106.535 567.685,-100.395 560.365,-108.56 560.365,-108.56"/>
</g>
<!-- Scenario -->
<g id="node29" class="node"><title>Scenario</title>
<ellipse fill="none" stroke="black" cx="479" cy="-90" rx="51.0191" ry="18"/>
<text text-anchor="middle" x="479" y="-86.3" font-family="Times,serif" font-size="14.00">Scenario</text>
</g>
<!-- Behavior&#45;&gt;Scenario -->
<g id="edge6" class="edge"><title>Behavior&#45;&gt;Scenario</title>
<path fill="none" stroke="#176538" d="M454.837,-136.714C458.226,-130.302 461.897,-123.358 465.329,-116.865"/>
<ellipse fill="none" stroke="#176538" cx="452.826" cy="-140.519" rx="4.00002" ry="4.00002"/>
<polygon fill="#176538" stroke="#176538" points="465.453,-116.63 474.104,-109.892 467.789,-112.209 470.126,-107.789 470.126,-107.789 470.126,-107.789 467.789,-112.209 466.147,-105.686 465.453,-116.63 465.453,-116.63"/>
</g>
<!-- BingoGame -->
<g id="node5" class="node"><title>BingoGame</title>
<ellipse fill="none" stroke="black" cx="1139" cy="-522" rx="64.0172" ry="18"/>
<text text-anchor="middle" x="1139" y="-518.3" font-family="Times,serif" font-size="14.00">BingoGame</text>
</g>
<!-- CandidateList -->
<g id="node8" class="node"><title>CandidateList</title>
<ellipse fill="none" stroke="black" cx="1139" cy="-306" rx="76.5394" ry="18"/>
<text text-anchor="middle" x="1139" y="-302.3" font-family="Times,serif" font-size="14.00">CandidateList</text>
</g>
<!-- BingoGame&#45;&gt;CandidateList -->
<g id="edge9" class="edge"><title>BingoGame&#45;&gt;CandidateList</title>
<path fill="none" stroke="#f486a1" d="M1139,-495.67C1139,-455.203 1139,-376.285 1139,-334.493"/>
<ellipse fill="none" stroke="#f486a1" cx="1139" cy="-499.849" rx="4" ry="4"/>
<polygon fill="#f486a1" stroke="#f486a1" points="1139,-334.232 1143.5,-324.232 1139,-329.232 1139,-324.232 1139,-324.232 1139,-324.232 1139,-329.232 1134.5,-324.232 1139,-334.232 1139,-334.232"/>
</g>
<!-- Candidate -->
<g id="node6" class="node"><title>Candidate</title>
<ellipse fill="none" stroke="black" cx="941" cy="-234" rx="58.2422" ry="18"/>
<text text-anchor="middle" x="941" y="-230.3" font-family="Times,serif" font-size="14.00">Candidate</text>
</g>
<!-- CandidateFeedback -->
<g id="node7" class="node"><title>CandidateFeedback</title>
<ellipse fill="none" stroke="black" cx="941" cy="-306" rx="103.012" ry="18"/>
<text text-anchor="middle" x="941" y="-302.3" font-family="Times,serif" font-size="14.00">CandidateFeedback</text>
</g>
<!-- CandidateFeedback&#45;&gt;Candidate -->
<g id="edge10" class="edge"><title>CandidateFeedback&#45;&gt;Candidate</title>
<path fill="none" stroke="#7e2e71" d="M941,-279.64C941,-274.063 941,-268.132 941,-262.476"/>
<ellipse fill="none" stroke="#7e2e71" cx="941" cy="-283.697" rx="4" ry="4"/>
<polygon fill="#7e2e71" stroke="#7e2e71" points="941,-262.104 945.5,-252.104 941,-257.104 941,-252.104 941,-252.104 941,-252.104 941,-257.104 936.5,-252.104 941,-262.104 941,-262.104"/>
</g>
<!-- CandidateList&#45;&gt;Candidate -->
<g id="edge11" class="edge"><title>CandidateList&#45;&gt;Candidate</title>
<path fill="none" stroke="#bb22e5" d="M1090.76,-287.947C1059.36,-276.843 1018.6,-262.436 987.54,-251.454"/>
<ellipse fill="none" stroke="#bb22e5" cx="1094.68" cy="-289.332" rx="4.00001" ry="4.00001"/>
<polygon fill="#bb22e5" stroke="#bb22e5" points="987.247,-251.35 979.319,-243.774 982.533,-249.683 977.819,-248.017 977.819,-248.017 977.819,-248.017 982.533,-249.683 976.319,-252.259 987.247,-251.35 987.247,-251.35"/>
</g>
<!-- CipCode -->
<g id="node9" class="node"><title>CipCode</title>
<ellipse fill="none" stroke="black" cx="428" cy="-450" rx="50.5427" ry="18"/>
<text text-anchor="middle" x="428" y="-446.3" font-family="Times,serif" font-size="14.00">CipCode</text>
</g>
<!-- CipCode&#45;&gt;User -->
<g id="edge12" class="edge"><title>CipCode&#45;&gt;User</title>
<path fill="none" stroke="#7d9608" d="M473.167,-435.603C517.581,-422.429 584.602,-402.55 626.258,-390.195"/>
<ellipse fill="none" stroke="#7d9608" cx="469.23" cy="-436.771" rx="4.00001" ry="4.00001"/>
<polygon fill="#7d9608" stroke="#7d9608" points="626.431,-390.143 637.298,-391.614 631.225,-388.722 636.018,-387.3 636.018,-387.3 636.018,-387.3 631.225,-388.722 634.739,-382.985 626.431,-390.143 626.431,-390.143"/>
</g>
<!-- Concept -->
<g id="node10" class="node"><title>Concept</title>
<ellipse fill="none" stroke="black" cx="770" cy="-306" rx="50.0684" ry="18"/>
<text text-anchor="middle" x="770" y="-302.3" font-family="Times,serif" font-size="14.00">Concept</text>
</g>
<!-- Concept&#45;&gt;Candidate -->
<g id="edge13" class="edge"><title>Concept&#45;&gt;Candidate</title>
<path fill="none" stroke="#141e4a" d="M809.44,-288.855C835.949,-278.003 870.88,-263.704 898.086,-252.567"/>
<ellipse fill="none" stroke="#141e4a" cx="805.465" cy="-290.482" rx="4.00001" ry="4.00001"/>
<polygon fill="#141e4a" stroke="#141e4a" points="898.106,-252.559 909.065,-252.935 902.733,-250.665 907.36,-248.771 907.36,-248.771 907.36,-248.771 902.733,-250.665 905.655,-244.606 898.106,-252.559 898.106,-252.559"/>
</g>
<!-- ConsentForm -->
<g id="node11" class="node"><title>ConsentForm</title>
<ellipse fill="none" stroke="black" cx="94" cy="-666" rx="73.1654" ry="18"/>
<text text-anchor="middle" x="94" y="-662.3" font-family="Times,serif" font-size="14.00">ConsentForm</text>
</g>
<!-- ConsentLog -->
<g id="node12" class="node"><title>ConsentLog</title>
<ellipse fill="none" stroke="black" cx="66" cy="-306" rx="66.4165" ry="18"/>
<text text-anchor="middle" x="66" y="-302.3" font-family="Times,serif" font-size="14.00">ConsentLog</text>
</g>
<!-- ConsentForm&#45;&gt;ConsentLog -->
<g id="edge15" class="edge"><title>ConsentForm&#45;&gt;ConsentLog</title>
<path fill="none" stroke="#76a2de" d="M75.6004,-641.451C56.3808,-614.438 29,-568.049 29,-523 29,-523 29,-523 29,-449 29,-407.705 43.8339,-361.774 54.7166,-333.634"/>
<ellipse fill="none" stroke="#76a2de" cx="78.1751" cy="-644.982" rx="4.00002" ry="4.00002"/>
<polygon fill="#76a2de" stroke="#76a2de" points="54.8091,-333.402 62.6925,-325.78 56.6608,-328.758 58.5125,-324.113 58.5125,-324.113 58.5125,-324.113 56.6608,-328.758 54.3325,-322.447 54.8091,-333.402 54.8091,-333.402"/>
</g>
<!-- Project -->
<g id="node25" class="node"><title>Project</title>
<ellipse fill="none" stroke="black" cx="285" cy="-594" rx="44.2946" ry="18"/>
<text text-anchor="middle" x="285" y="-590.3" font-family="Times,serif" font-size="14.00">Project</text>
</g>
<!-- ConsentForm&#45;&gt;Project -->
<g id="edge14" class="edge"><title>ConsentForm&#45;&gt;Project</title>
<path fill="none" stroke="#fc33f9" d="M140.822,-647.84C172.341,-636.288 213.516,-621.198 243.791,-610.103"/>
<ellipse fill="none" stroke="#fc33f9" cx="136.868" cy="-649.289" rx="4.00001" ry="4.00001"/>
<polygon fill="#fc33f9" stroke="#fc33f9" points="243.822,-610.091 254.76,-610.875 248.517,-608.371 253.211,-606.65 253.211,-606.65 253.211,-606.65 248.517,-608.371 251.663,-602.425 243.822,-610.091 243.822,-610.091"/>
</g>
<!-- Course -->
<g id="node13" class="node"><title>Course</title>
<ellipse fill="none" stroke="black" cx="1231" cy="-666" rx="44.2946" ry="18"/>
<text text-anchor="middle" x="1231" y="-662.3" font-family="Times,serif" font-size="14.00">Course</text>
</g>
<!-- Course&#45;&gt;BingoGame -->
<g id="edge18" class="edge"><title>Course&#45;&gt;BingoGame</title>
<path fill="none" stroke="#2d2f6d" d="M1215.83,-641.591C1199.24,-615.979 1172.73,-575.054 1155.59,-548.605"/>
<ellipse fill="none" stroke="#2d2f6d" cx="1218.09" cy="-645.076" rx="4.00002" ry="4.00002"/>
<polygon fill="#2d2f6d" stroke="#2d2f6d" points="1155.39,-548.294 1153.73,-537.455 1152.67,-544.098 1149.95,-539.902 1149.95,-539.902 1149.95,-539.902 1152.67,-544.098 1146.17,-542.349 1155.39,-548.294 1155.39,-548.294"/>
</g>
<!-- Experience -->
<g id="node16" class="node"><title>Experience</title>
<ellipse fill="none" stroke="black" cx="1398" cy="-306" rx="63.5411" ry="18"/>
<text text-anchor="middle" x="1398" y="-302.3" font-family="Times,serif" font-size="14.00">Experience</text>
</g>
<!-- Course&#45;&gt;Experience -->
<g id="edge20" class="edge"><title>Course&#45;&gt;Experience</title>
<path fill="none" stroke="#01e8c7" d="M1270.61,-650.315C1318.28,-629.771 1392,-587.563 1392,-523 1392,-523 1392,-523 1392,-449 1392,-408.96 1394.41,-362.627 1396.18,-334.065"/>
<ellipse fill="none" stroke="#01e8c7" cx="1266.88" cy="-651.878" rx="4.00002" ry="4.00002"/>
<polygon fill="#01e8c7" stroke="#01e8c7" points="1396.18,-334.019 1401.31,-324.326 1396.5,-329.029 1396.81,-324.039 1396.81,-324.039 1396.81,-324.039 1396.5,-329.029 1392.32,-323.753 1396.18,-334.019 1396.18,-334.019"/>
</g>
<!-- Course&#45;&gt;Project -->
<g id="edge16" class="edge"><title>Course&#45;&gt;Project</title>
<path fill="none" stroke="#454881" d="M1179.72,-661.206C1015.67,-649.067 504.675,-611.255 338.092,-598.929"/>
<ellipse fill="none" stroke="#454881" cx="1183.91" cy="-661.515" rx="4" ry="4"/>
<polygon fill="#454881" stroke="#454881" points="338.06,-598.926 328.42,-593.701 333.074,-598.557 328.088,-598.188 328.088,-598.188 328.088,-598.188 333.074,-598.557 327.756,-602.676 338.06,-598.926 338.06,-598.926"/>
</g>
<!-- Roster -->
<g id="node28" class="node"><title>Roster</title>
<ellipse fill="none" stroke="black" cx="1275" cy="-306" rx="41.394" ry="18"/>
<text text-anchor="middle" x="1275" y="-302.3" font-family="Times,serif" font-size="14.00">Roster</text>
</g>
<!-- Course&#45;&gt;Roster -->
<g id="edge17" class="edge"><title>Course&#45;&gt;Roster</title>
<path fill="none" stroke="#c7bced" d="M1231,-639.782C1231,-611.392 1231,-563.885 1231,-523 1231,-523 1231,-523 1231,-449 1231,-406.981 1248.8,-360.976 1261.75,-333.049"/>
<ellipse fill="none" stroke="#c7bced" cx="1231" cy="-643.951" rx="4" ry="4"/>
<polygon fill="#c7bced" stroke="#c7bced" points="1261.78,-332.983 1270.16,-325.902 1263.94,-328.472 1266.1,-323.961 1266.1,-323.961 1266.1,-323.961 1263.94,-328.472 1262.04,-322.02 1261.78,-332.983 1261.78,-332.983"/>
</g>
<!-- Course&#45;&gt;User -->
<g id="edge19" class="edge"><title>Course&#45;&gt;User</title>
<path fill="none" stroke="#ce5e50" d="M1239.46,-638.42C1241.73,-630.055 1243.87,-620.723 1245,-612 1251.46,-562.227 1246.83,-540.135 1212,-504 1162.62,-452.77 1137.01,-452.912 1069,-432 941.085,-392.672 781.671,-382.526 706.713,-379.909"/>
<polygon fill="#ce5e50" stroke="#ce5e50" points="1239.45,-638.43 1232.35,-646.789 1238.07,-643.234 1236.68,-648.038 1236.68,-648.038 1236.68,-648.038 1238.07,-643.234 1241,-649.286 1239.45,-638.43 1239.45,-638.43"/>
<polygon fill="#ce5e50" stroke="#ce5e50" points="706.275,-379.895 696.424,-375.077 701.278,-379.735 696.28,-379.575 696.28,-379.575 696.28,-379.575 701.278,-379.735 696.136,-384.072 706.275,-379.895 706.275,-379.895"/>
</g>
<!-- Diagnosis&#45;&gt;User -->
<g id="edge21" class="edge"><title>Diagnosis&#45;&gt;User</title>
<path fill="none" stroke="#d5498f" d="M365.144,-42.4347C348.277,-69.6858 324,-116.618 324,-161 324,-235 324,-235 324,-235 324,-363.562 533.55,-377.784 623.63,-377.958"/>
<ellipse fill="none" stroke="#d5498f" cx="367.324" cy="-38.9949" rx="4.00002" ry="4.00002"/>
<ellipse fill="#d5498f" stroke="#d5498f" cx="627.707" cy="-377.947" rx="4" ry="4"/>
</g>
<!-- Email -->
<g id="node15" class="node"><title>Email</title>
<ellipse fill="none" stroke="black" cx="664" cy="-306" rx="37.5442" ry="18"/>
<text text-anchor="middle" x="664" y="-302.3" font-family="Times,serif" font-size="14.00">Email</text>
</g>
<!-- Experience&#45;&gt;Reaction -->
<g id="edge22" class="edge"><title>Experience&#45;&gt;Reaction</title>
<path fill="none" stroke="#ac31e3" d="M1345.5,-290.922C1199.7,-251.821 791.194,-142.273 649.303,-104.222"/>
<ellipse fill="none" stroke="#ac31e3" cx="1349.81" cy="-292.077" rx="4.00001" ry="4.00001"/>
<polygon fill="#ac31e3" stroke="#ac31e3" points="649.213,-104.198 640.72,-97.2609 644.384,-102.902 639.555,-101.607 639.555,-101.607 639.555,-101.607 644.384,-102.902 638.389,-105.954 649.213,-104.198 649.213,-104.198"/>
</g>
<!-- FactorPack -->
<g id="node18" class="node"><title>FactorPack</title>
<ellipse fill="none" stroke="black" cx="121" cy="-378" rx="63.5411" ry="18"/>
<text text-anchor="middle" x="121" y="-374.3" font-family="Times,serif" font-size="14.00">FactorPack</text>
</g>
<!-- Factor&#45;&gt;FactorPack -->
<g id="edge23" class="edge"><title>Factor&#45;&gt;FactorPack</title>
<path fill="none" stroke="#c7330a" d="M135.224,-422.29C133.477,-416.975 131.642,-411.388 129.891,-406.061"/>
<polygon fill="#c7330a" stroke="#c7330a" points="135.311,-422.555 134.157,-433.46 136.872,-427.305 138.432,-432.055 138.432,-432.055 138.432,-432.055 136.872,-427.305 142.707,-430.65 135.311,-422.555 135.311,-422.555"/>
<polygon fill="#c7330a" stroke="#c7330a" points="129.798,-405.776 130.951,-394.871 128.237,-401.025 126.676,-396.275 126.676,-396.275 126.676,-396.275 128.237,-401.025 122.401,-397.68 129.798,-405.776 129.798,-405.776"/>
</g>
<!-- FactorPack&#45;&gt;Project -->
<g id="edge24" class="edge"><title>FactorPack&#45;&gt;Project</title>
<path fill="none" stroke="#3c280e" d="M105.826,-402.87C101.057,-411.675 96.4103,-421.959 94,-432 90.2654,-447.558 89.2183,-452.731 94,-468 105.643,-505.179 113.263,-516.062 144,-540 171.039,-561.058 207.344,-574.445 236.343,-582.496"/>
<ellipse fill="none" stroke="#3c280e" cx="107.836" cy="-399.337" rx="4.00002" ry="4.00002"/>
<polygon fill="#3c280e" stroke="#3c280e" points="236.602,-582.565 245.116,-589.476 241.435,-583.845 246.268,-585.126 246.268,-585.126 246.268,-585.126 241.435,-583.845 247.421,-580.776 236.602,-582.565 236.602,-582.565"/>
</g>
<!-- Gender -->
<g id="node19" class="node"><title>Gender</title>
<ellipse fill="none" stroke="black" cx="542" cy="-450" rx="44.271" ry="18"/>
<text text-anchor="middle" x="542" y="-446.3" font-family="Times,serif" font-size="14.00">Gender</text>
</g>
<!-- Gender&#45;&gt;User -->
<g id="edge25" class="edge"><title>Gender&#45;&gt;User</title>
<path fill="none" stroke="#7e3d6e" d="M573.723,-430.798C592.057,-420.279 615.015,-407.106 633.192,-396.677"/>
<ellipse fill="none" stroke="#7e3d6e" cx="570.158" cy="-432.844" rx="4.00002" ry="4.00002"/>
<polygon fill="#7e3d6e" stroke="#7e3d6e" points="633.537,-396.479 644.45,-395.405 637.874,-393.99 642.211,-391.502 642.211,-391.502 642.211,-391.502 637.874,-393.99 639.971,-387.599 633.537,-396.479 633.537,-396.479"/>
</g>
<!-- GroupRevision -->
<g id="node22" class="node"><title>GroupRevision</title>
<ellipse fill="none" stroke="black" cx="358" cy="-378" rx="78.9404" ry="18"/>
<text text-anchor="middle" x="358" y="-374.3" font-family="Times,serif" font-size="14.00">GroupRevision</text>
</g>
<!-- Group&#45;&gt;GroupRevision -->
<g id="edge27" class="edge"><title>Group&#45;&gt;GroupRevision</title>
<path fill="none" stroke="#85d11f" d="M304.145,-427.959C312.925,-419.977 322.98,-410.837 332.006,-402.631"/>
<ellipse fill="none" stroke="#85d11f" cx="301.049" cy="-430.774" rx="4.00002" ry="4.00002"/>
<polygon fill="#85d11f" stroke="#85d11f" points="332.215,-402.441 342.642,-399.044 335.915,-399.077 339.615,-395.714 339.615,-395.714 339.615,-395.714 335.915,-399.077 336.588,-392.384 332.215,-402.441 332.215,-402.441"/>
</g>
<!-- Group&#45;&gt;Installment -->
<g id="edge28" class="edge"><title>Group&#45;&gt;Installment</title>
<path fill="none" stroke="#fde3ef" d="M272.454,-424.233C263.734,-398.964 250.245,-359.872 241.272,-333.869"/>
<ellipse fill="none" stroke="#fde3ef" cx="273.882" cy="-428.372" rx="4.00001" ry="4.00001"/>
<polygon fill="#fde3ef" stroke="#fde3ef" points="241.221,-333.721 242.212,-322.8 239.59,-328.994 237.959,-324.268 237.959,-324.268 237.959,-324.268 239.59,-328.994 233.705,-325.736 241.221,-333.721 241.221,-333.721"/>
</g>
<!-- Group&#45;&gt;User -->
<g id="edge26" class="edge"><title>Group&#45;&gt;User</title>
<path fill="none" stroke="#096788" d="M321.44,-435.572C325.989,-434.27 330.576,-433.047 335,-432 436.918,-407.883 559.21,-391.372 622.099,-383.769"/>
<polygon fill="#096788" stroke="#096788" points="321.206,-435.642 310.335,-434.199 316.416,-437.076 311.626,-438.51 311.626,-438.51 311.626,-438.51 316.416,-437.076 312.916,-442.821 321.206,-435.642 321.206,-435.642"/>
<polygon fill="#096788" stroke="#096788" points="622.472,-383.725 632.935,-387.008 627.436,-383.132 632.401,-382.539 632.401,-382.539 632.401,-382.539 627.436,-383.132 631.868,-378.071 622.472,-383.725 622.472,-383.725"/>
</g>
<!-- GroupProjectCount -->
<g id="node21" class="node"><title>GroupProjectCount</title>
<ellipse fill="none" stroke="black" cx="706" cy="-450" rx="101.087" ry="18"/>
<text text-anchor="middle" x="706" y="-446.3" font-family="Times,serif" font-size="14.00">GroupProjectCount</text>
</g>
<!-- GroupProjectCount&#45;&gt;User -->
<g id="edge29" class="edge"><title>GroupProjectCount&#45;&gt;User</title>
<path fill="none" stroke="#c45718" d="M691.706,-425.176C687.648,-418.414 683.217,-411.029 679.113,-404.188"/>
<ellipse fill="none" stroke="#c45718" cx="693.775" cy="-428.625" rx="4.00002" ry="4.00002"/>
<polygon fill="#c45718" stroke="#c45718" points="678.929,-403.882 677.643,-392.992 676.357,-399.594 673.784,-395.307 673.784,-395.307 673.784,-395.307 676.357,-399.594 669.925,-397.622 678.929,-403.882 678.929,-403.882"/>
</g>
<!-- Value -->
<g id="node34" class="node"><title>Value</title>
<ellipse fill="none" stroke="black" cx="232" cy="-234" rx="36.096" ry="18"/>
<text text-anchor="middle" x="232" y="-230.3" font-family="Times,serif" font-size="14.00">Value</text>
</g>
<!-- Installment&#45;&gt;Value -->
<g id="edge30" class="edge"><title>Installment&#45;&gt;Value</title>
<path fill="none" stroke="#a50d57" d="M232,-279.64C232,-274.063 232,-268.132 232,-262.476"/>
<ellipse fill="none" stroke="#a50d57" cx="232" cy="-283.697" rx="4" ry="4"/>
<polygon fill="#a50d57" stroke="#a50d57" points="232,-262.104 236.5,-252.104 232,-257.104 232,-252.104 232,-252.104 232,-252.104 232,-257.104 227.5,-252.104 232,-262.104 232,-262.104"/>
</g>
<!-- Narrative -->
<g id="node24" class="node"><title>Narrative</title>
<ellipse fill="none" stroke="black" cx="514" cy="-306" rx="55.3436" ry="18"/>
<text text-anchor="middle" x="514" y="-302.3" font-family="Times,serif" font-size="14.00">Narrative</text>
</g>
<!-- Narrative&#45;&gt;Behavior -->
<g id="edge32" class="edge"><title>Narrative&#45;&gt;Behavior</title>
<path fill="none" stroke="#e4a27f" d="M501.793,-280.925C488.534,-254.775 467.478,-213.248 454.216,-187.092"/>
<ellipse fill="none" stroke="#e4a27f" cx="503.649" cy="-284.586" rx="4.00002" ry="4.00002"/>
<ellipse fill="#e4a27f" stroke="#e4a27f" cx="452.34" cy="-183.393" rx="4.00002" ry="4.00002"/>
</g>
<!-- Narrative&#45;&gt;Reaction -->
<g id="edge33" class="edge"><title>Narrative&#45;&gt;Reaction</title>
<path fill="none" stroke="#e999c4" d="M523.967,-280.198C540.305,-239.544 572.638,-159.087 589.387,-117.41"/>
<ellipse fill="none" stroke="#e999c4" cx="522.384" cy="-284.138" rx="4.00001" ry="4.00001"/>
<polygon fill="#e999c4" stroke="#e999c4" points="589.465,-117.214 597.37,-109.613 591.33,-112.575 593.194,-107.935 593.194,-107.935 593.194,-107.935 591.33,-112.575 589.019,-106.257 589.465,-117.214 589.465,-117.214"/>
</g>
<!-- Week -->
<g id="node35" class="node"><title>Week</title>
<ellipse fill="none" stroke="black" cx="420" cy="-234" rx="36.096" ry="18"/>
<text text-anchor="middle" x="420" y="-230.3" font-family="Times,serif" font-size="14.00">Week</text>
</g>
<!-- Narrative&#45;&gt;Week -->
<g id="edge31" class="edge"><title>Narrative&#45;&gt;Week</title>
<path fill="none" stroke="#f84900" d="M486.005,-284.153C473.899,-275.138 459.769,-264.615 447.696,-255.625"/>
<ellipse fill="none" stroke="#f84900" cx="489.462" cy="-286.727" rx="4.00002" ry="4.00002"/>
<polygon fill="#f84900" stroke="#f84900" points="447.348,-255.365 442.015,-245.783 443.338,-252.379 439.327,-249.393 439.327,-249.393 439.327,-249.393 443.338,-252.379 436.64,-253.002 447.348,-255.365 447.348,-255.365"/>
</g>
<!-- Project&#45;&gt;Assessment -->
<g id="edge36" class="edge"><title>Project&#45;&gt;Assessment</title>
<path fill="none" stroke="#3571ea" d="M269.308,-569.63C264.725,-562.803 259.694,-555.311 255.032,-548.367"/>
<ellipse fill="none" stroke="#3571ea" cx="271.632" cy="-573.09" rx="4.00002" ry="4.00002"/>
<polygon fill="#3571ea" stroke="#3571ea" points="254.959,-548.258 253.121,-537.448 252.172,-544.107 249.385,-539.956 249.385,-539.956 249.385,-539.956 252.172,-544.107 245.649,-542.465 254.959,-548.258 254.959,-548.258"/>
</g>
<!-- Project&#45;&gt;BingoGame -->
<g id="edge35" class="edge"><title>Project&#45;&gt;BingoGame</title>
<path fill="none" stroke="#128ea6" d="M337.316,-592.066C462.784,-589.253 790.481,-578.507 1061,-540 1067.82,-539.029 1074.94,-537.794 1081.97,-536.434"/>
<ellipse fill="none" stroke="#128ea6" cx="332.989" cy="-592.16" rx="4" ry="4"/>
<polygon fill="#128ea6" stroke="#128ea6" points="1082.38,-536.352 1093.07,-538.779 1087.28,-535.36 1092.18,-534.368 1092.18,-534.368 1092.18,-534.368 1087.28,-535.36 1091.29,-529.958 1082.38,-536.352 1082.38,-536.352"/>
</g>
<!-- Project&#45;&gt;Factor -->
<g id="edge38" class="edge"><title>Project&#45;&gt;Factor</title>
<path fill="none" stroke="#4ed6c9" d="M235.894,-583.024C210.546,-575.392 181.201,-562.249 163,-540 148.885,-522.746 144.558,-497.476 143.516,-478.267"/>
<polygon fill="#4ed6c9" stroke="#4ed6c9" points="236.112,-583.085 244.529,-590.114 240.927,-584.433 245.742,-585.781 245.742,-585.781 245.742,-585.781 240.927,-584.433 246.955,-581.447 236.112,-583.085 236.112,-583.085"/>
<polygon fill="#4ed6c9" stroke="#4ed6c9" points="143.51,-478.033 147.732,-467.913 143.372,-473.035 143.234,-468.037 143.234,-468.037 143.234,-468.037 143.372,-473.035 138.736,-468.161 143.51,-478.033 143.51,-478.033"/>
</g>
<!-- Project&#45;&gt;Group -->
<g id="edge34" class="edge"><title>Project&#45;&gt;Group</title>
<path fill="none" stroke="#b3903e" d="M300.731,-569.196C305.676,-560.397 310.496,-550.101 313,-540 316.85,-524.47 317.292,-519.414 313,-504 310.218,-494.01 304.987,-484.021 299.549,-475.453"/>
<ellipse fill="none" stroke="#b3903e" cx="298.63" cy="-572.753" rx="4.00002" ry="4.00002"/>
<polygon fill="#b3903e" stroke="#b3903e" points="299.501,-475.381 297.629,-464.576 296.701,-471.239 293.901,-467.096 293.901,-467.096 293.901,-467.096 296.701,-471.239 290.173,-469.616 299.501,-475.381 299.501,-475.381"/>
</g>
<!-- Project&#45;&gt;User -->
<g id="edge37" class="edge"><title>Project&#45;&gt;User</title>
<path fill="none" stroke="#e4d8b3" d="M339.237,-592.823C498.569,-591.04 959.805,-576.436 1052,-468 1062.36,-455.81 1062.52,-444.055 1052,-432 1007.55,-381.064 798.001,-377.282 706.696,-378.131"/>
<polygon fill="#e4d8b3" stroke="#e4d8b3" points="339.186,-592.823 329.142,-588.423 334.186,-592.873 329.186,-592.922 329.186,-592.922 329.186,-592.922 334.186,-592.873 329.231,-597.422 339.186,-592.823 339.186,-592.823"/>
<polygon fill="#e4d8b3" stroke="#e4d8b3" points="706.424,-378.134 696.372,-373.751 701.424,-378.192 696.425,-378.251 696.425,-378.251 696.425,-378.251 701.424,-378.192 696.477,-382.75 706.424,-378.134 706.424,-378.134"/>
</g>
<!-- Reaction&#45;&gt;Diagnosis -->
<g id="edge39" class="edge"><title>Reaction&#45;&gt;Diagnosis</title>
<path fill="none" stroke="#a0e04d" d="M555.59,-74.805C518.83,-63.0553 466.707,-46.3951 428.993,-34.3402"/>
<ellipse fill="none" stroke="#a0e04d" cx="559.534" cy="-76.0657" rx="4.00001" ry="4.00001"/>
<polygon fill="#a0e04d" stroke="#a0e04d" points="428.774,-34.2703 420.619,-26.9392 424.011,-32.7479 419.249,-31.2256 419.249,-31.2256 419.249,-31.2256 424.011,-32.7479 417.879,-35.512 428.774,-34.2703 428.774,-34.2703"/>
</g>
<!-- Role -->
<g id="node27" class="node"><title>Role</title>
<ellipse fill="none" stroke="black" cx="1328" cy="-450" rx="31.2965" ry="18"/>
<text text-anchor="middle" x="1328" y="-446.3" font-family="Times,serif" font-size="14.00">Role</text>
</g>
<!-- Role&#45;&gt;Roster -->
<g id="edge41" class="edge"><title>Role&#45;&gt;Roster</title>
<path fill="none" stroke="#fa9acf" d="M1318.88,-424.557C1309.4,-399.163 1294.62,-359.558 1284.87,-333.446"/>
<ellipse fill="none" stroke="#fa9acf" cx="1320.31" cy="-428.406" rx="4.00001" ry="4.00001"/>
<polygon fill="#fa9acf" stroke="#fa9acf" points="1284.78,-333.194 1285.5,-322.251 1283.03,-328.509 1281.28,-323.825 1281.28,-323.825 1281.28,-323.825 1283.03,-328.509 1277.06,-325.399 1284.78,-333.194 1284.78,-333.194"/>
</g>
<!-- Role&#45;&gt;User -->
<g id="edge40" class="edge"><title>Role&#45;&gt;User</title>
<path fill="none" stroke="#5b7cbe" d="M1296.01,-435.692C1291.69,-434.259 1287.28,-432.971 1283,-432 1070.43,-383.727 807.711,-378.641 706.499,-378.639"/>
<ellipse fill="none" stroke="#5b7cbe" cx="1299.85" cy="-437.056" rx="4.00001" ry="4.00001"/>
<polygon fill="#5b7cbe" stroke="#5b7cbe" points="706.37,-378.639 696.363,-374.156 701.37,-378.648 696.37,-378.656 696.37,-378.656 696.37,-378.656 701.37,-378.648 696.378,-383.156 706.37,-378.639 706.37,-378.639"/>
</g>
<!-- Scenario&#45;&gt;Narrative -->
<g id="edge42" class="edge"><title>Scenario&#45;&gt;Narrative</title>
<path fill="none" stroke="#165d01" d="M491.657,-115.473C495.642,-124.248 499.621,-134.359 502,-144 513.342,-189.964 514.941,-245.362 514.716,-277.736"/>
<ellipse fill="none" stroke="#165d01" cx="489.904" cy="-111.767" rx="4.00002" ry="4.00002"/>
<polygon fill="#165d01" stroke="#165d01" points="514.716,-277.786 510.082,-287.725 514.649,-282.785 514.582,-287.785 514.582,-287.785 514.582,-287.785 514.649,-282.785 519.081,-287.845 514.716,-277.786 514.716,-277.786"/>
</g>
<!-- School -->
<g id="node30" class="node"><title>School</title>
<ellipse fill="none" stroke="black" cx="1231" cy="-759" rx="41.394" ry="18"/>
<text text-anchor="middle" x="1231" y="-755.3" font-family="Times,serif" font-size="14.00">School</text>
</g>
<!-- School&#45;&gt;Course -->
<g id="edge43" class="edge"><title>School&#45;&gt;Course</title>
<path fill="none" stroke="#68f524" d="M1231,-732.729C1231,-720.725 1231,-706.362 1231,-694.129"/>
<ellipse fill="none" stroke="#68f524" cx="1231" cy="-736.884" rx="4" ry="4"/>
<polygon fill="#68f524" stroke="#68f524" points="1231,-694.04 1235.5,-684.04 1231,-689.04 1231,-684.04 1231,-684.04 1231,-684.04 1231,-689.04 1226.5,-684.04 1231,-694.04 1231,-694.04"/>
</g>
<!-- Style -->
<g id="node31" class="node"><title>Style</title>
<ellipse fill="none" stroke="black" cx="285" cy="-666" rx="34.1708" ry="18"/>
<text text-anchor="middle" x="285" y="-662.3" font-family="Times,serif" font-size="14.00">Style</text>
</g>
<!-- Style&#45;&gt;Project -->
<g id="edge44" class="edge"><title>Style&#45;&gt;Project</title>
<path fill="none" stroke="#7b92b8" d="M285,-639.64C285,-634.063 285,-628.132 285,-622.476"/>
<ellipse fill="none" stroke="#7b92b8" cx="285" cy="-643.697" rx="4" ry="4"/>
<polygon fill="#7b92b8" stroke="#7b92b8" points="285,-622.104 289.5,-612.104 285,-617.104 285,-612.104 285,-612.104 285,-612.104 285,-617.104 280.5,-612.104 285,-622.104 285,-622.104"/>
</g>
<!-- Theme -->
<g id="node32" class="node"><title>Theme</title>
<ellipse fill="none" stroke="black" cx="868" cy="-450" rx="42.3701" ry="18"/>
<text text-anchor="middle" x="868" y="-446.3" font-family="Times,serif" font-size="14.00">Theme</text>
</g>
<!-- Theme&#45;&gt;User -->
<g id="edge45" class="edge"><title>Theme&#45;&gt;User</title>
<path fill="none" stroke="#bc6f45" d="M828.311,-435.381C791.236,-422.66 736.356,-403.828 700.387,-391.486"/>
<ellipse fill="none" stroke="#bc6f45" cx="832.342" cy="-436.764" rx="4.00001" ry="4.00001"/>
<polygon fill="#bc6f45" stroke="#bc6f45" points="700.233,-391.433 692.235,-383.931 695.504,-389.81 690.774,-388.187 690.774,-388.187 690.774,-388.187 695.504,-389.81 689.314,-392.444 700.233,-391.433 700.233,-391.433"/>
</g>
<!-- User&#45;&gt;CandidateList -->
<g id="edge48" class="edge"><title>User&#45;&gt;CandidateList</title>
<path fill="none" stroke="#8b28d9" d="M703.537,-372.405C773.973,-364.043 925.731,-345.229 1053,-324 1059.66,-322.89 1066.59,-321.654 1073.5,-320.369"/>
<ellipse fill="none" stroke="#8b28d9" cx="699.33" cy="-372.903" rx="4.00001" ry="4.00001"/>
<polygon fill="#8b28d9" stroke="#8b28d9" points="1073.75,-320.322 1084.41,-322.883 1078.66,-319.392 1083.57,-318.462 1083.57,-318.462 1083.57,-318.462 1078.66,-319.392 1082.74,-314.04 1073.75,-320.322 1073.75,-320.322"/>
</g>
<!-- User&#45;&gt;ConsentLog -->
<g id="edge47" class="edge"><title>User&#45;&gt;ConsentLog</title>
<path fill="none" stroke="#f1cd2c" d="M624.156,-373.858C538.685,-366.891 331.483,-348.779 159,-324 149.008,-322.565 138.45,-320.838 128.174,-319.042"/>
<ellipse fill="none" stroke="#f1cd2c" cx="628.297" cy="-374.194" rx="4" ry="4"/>
<polygon fill="#f1cd2c" stroke="#f1cd2c" points="127.868,-318.988 118.814,-312.802 122.946,-318.11 118.024,-317.232 118.024,-317.232 118.024,-317.232 122.946,-318.11 117.234,-321.662 127.868,-318.988 127.868,-318.988"/>
</g>
<!-- User&#45;&gt;Email -->
<g id="edge46" class="edge"><title>User&#45;&gt;Email</title>
<path fill="none" stroke="#9a4688" d="M664,-351.64C664,-346.063 664,-340.132 664,-334.476"/>
<ellipse fill="none" stroke="#9a4688" cx="664" cy="-355.697" rx="4" ry="4"/>
<polygon fill="#9a4688" stroke="#9a4688" points="664,-334.104 668.5,-324.104 664,-329.104 664,-324.104 664,-324.104 664,-324.104 664,-329.104 659.5,-324.104 664,-334.104 664,-334.104"/>
</g>
<!-- User&#45;&gt;Experience -->
<g id="edge52" class="edge"><title>User&#45;&gt;Experience</title>
<path fill="none" stroke="#41bc5a" d="M706.397,-375.786C811.668,-372.299 1093.22,-360.075 1325,-324 1330.77,-323.103 1336.75,-321.998 1342.7,-320.786"/>
<polygon fill="#41bc5a" stroke="#41bc5a" points="706.179,-375.793 696.039,-371.617 701.181,-375.954 696.184,-376.115 696.184,-376.115 696.184,-376.115 701.181,-375.954 696.329,-380.613 706.179,-375.793 706.179,-375.793"/>
<polygon fill="#41bc5a" stroke="#41bc5a" points="1342.86,-320.752 1353.58,-323.064 1347.75,-319.708 1352.64,-318.663 1352.64,-318.663 1352.64,-318.663 1347.75,-319.708 1351.7,-314.263 1342.86,-320.752 1342.86,-320.752"/>
</g>
<!-- User&#45;&gt;Installment -->
<g id="edge49" class="edge"><title>User&#45;&gt;Installment</title>
<path fill="none" stroke="#84a625" d="M624.617,-371.967C559.109,-363.403 423.712,-344.881 310,-324 303.497,-322.806 296.71,-321.467 289.969,-320.078"/>
<ellipse fill="none" stroke="#84a625" cx="628.665" cy="-372.495" rx="4.00001" ry="4.00001"/>
<polygon fill="#84a625" stroke="#84a625" points="289.952,-320.074 281.091,-313.614 285.059,-319.046 280.166,-318.018 280.166,-318.018 280.166,-318.018 285.059,-319.046 279.24,-322.422 289.952,-320.074 289.952,-320.074"/>
</g>
<!-- User&#45;&gt;Narrative -->
<g id="edge53" class="edge"><title>User&#45;&gt;Narrative</title>
<path fill="none" stroke="#b05f82" d="M630.509,-361.371C607.7,-350.727 577.415,-336.594 553.438,-325.405"/>
<polygon fill="#b05f82" stroke="#b05f82" points="630.838,-361.524 637.997,-369.831 635.369,-363.639 639.9,-365.753 639.9,-365.753 639.9,-365.753 635.369,-363.639 641.803,-361.675 630.838,-361.524 630.838,-361.524"/>
<polygon fill="#b05f82" stroke="#b05f82" points="553.318,-325.348 546.159,-317.042 548.787,-323.234 544.256,-321.119 544.256,-321.119 544.256,-321.119 548.787,-323.234 542.353,-325.197 553.318,-325.348 553.318,-325.348"/>
</g>
<!-- User&#45;&gt;Reaction -->
<g id="edge51" class="edge"><title>User&#45;&gt;Reaction</title>
<path fill="none" stroke="#fc1e96" d="M640.687,-357.09C631.661,-347.987 622.254,-336.456 617,-324 587.73,-254.607 591.978,-163.293 596.519,-118.37"/>
<ellipse fill="none" stroke="#fc1e96" cx="643.635" cy="-359.932" rx="4.00002" ry="4.00002"/>
<polygon fill="#fc1e96" stroke="#fc1e96" points="596.539,-118.182 602.103,-108.732 597.085,-113.212 597.63,-108.242 597.63,-108.242 597.63,-108.242 597.085,-113.212 593.156,-107.751 596.539,-118.182 596.539,-118.182"/>
</g>
<!-- User&#45;&gt;Roster -->
<g id="edge50" class="edge"><title>User&#45;&gt;Roster</title>
<path fill="none" stroke="#63e5d7" d="M704.268,-376.316C796.972,-374.065 1032.24,-364.483 1224,-324 1227.64,-323.232 1231.38,-322.291 1235.1,-321.25"/>
<ellipse fill="none" stroke="#63e5d7" cx="700.268" cy="-376.408" rx="4" ry="4"/>
<polygon fill="#63e5d7" stroke="#63e5d7" points="1235.27,-321.201 1246.14,-322.617 1240.05,-319.755 1244.84,-318.309 1244.84,-318.309 1244.84,-318.309 1240.05,-319.755 1243.54,-314.001 1235.27,-321.201 1235.27,-321.201"/>
</g>
<!-- Week&#45;&gt;Behavior -->
<g id="edge54" class="edge"><title>Week&#45;&gt;Behavior</title>
<path fill="none" stroke="#5da6d1" d="M427.773,-208.267C429.818,-201.762 432.026,-194.737 434.078,-188.206"/>
<ellipse fill="none" stroke="#5da6d1" cx="426.525" cy="-212.239" rx="4.00001" ry="4.00001"/>
<ellipse fill="#5da6d1" stroke="#5da6d1" cx="435.371" cy="-184.091" rx="4.00001" ry="4.00001"/>
</g>
<!-- Week&#45;&gt;Diagnosis -->
<g id="edge55" class="edge"><title>Week&#45;&gt;Diagnosis</title>
<path fill="none" stroke="#c9e93d" d="M399.125,-211.23C391.921,-202.279 384.727,-191.355 381,-180 366.196,-134.905 371.031,-78.7983 375.965,-46.1284"/>
<ellipse fill="none" stroke="#c9e93d" cx="401.74" cy="-214.322" rx="4.00002" ry="4.00002"/>
<polygon fill="#c9e93d" stroke="#c9e93d" points="376.008,-45.8675 382.056,-36.7202 376.811,-40.9324 377.614,-35.9973 377.614,-35.9973 377.614,-35.9973 376.811,-40.9324 373.173,-35.2744 376.008,-45.8675 376.008,-45.8675"/>
</g>
</g>
</svg>
