<?xml version="1.0" encoding="UTF-8" standalone="no"?>
<!DOCTYPE svg PUBLIC "-//W3C//DTD SVG 1.1//EN"
 "http://www.w3.org/Graphics/SVG/1.1/DTD/svg11.dtd">
<!-- Generated by graphviz version 2.38.0 (20140413.2041)
 -->
<!-- Title: models_diagram Pages: 1 -->
<svg width="1967pt" height="950pt"
 viewBox="0.00 0.00 1967.35 950.00" xmlns="http://www.w3.org/2000/svg" xmlns:xlink="http://www.w3.org/1999/xlink">
<g id="graph0" class="graph" transform="scale(1 1) rotate(0) translate(4 946)">
<title>models_diagram</title>
<polygon fill="none" stroke="none" points="-4,4 -4,-946 1963.35,-946 1963.35,4 -4,4"/>
<!-- _diagram_info -->
<g id="node1" class="node"><title>_diagram_info</title>
<text text-anchor="start" x="1464.5" y="-927.6" font-family="Times,serif" font-size="13.00">Models diagram</text>
<text text-anchor="start" x="1464.5" y="-913.6" font-family="Times,serif" font-size="13.00">Date: Oct 28 2017 &#45; 23:58</text>
<text text-anchor="start" x="1464.5" y="-899.6" font-family="Times,serif" font-size="13.00">Migration version: 20171026030636</text>
<text text-anchor="start" x="1464.5" y="-885.6" font-family="Times,serif" font-size="13.00">Generated by RailRoady 1.5.2</text>
<text text-anchor="start" x="1464.5" y="-871.6" font-family="Times,serif" font-size="13.00">http://railroady.prestonlee.com</text>
</g>
<!-- Assessment -->
<g id="node2" class="node"><title>Assessment</title>
<ellipse fill="none" stroke="black" cx="1798" cy="-903" rx="66.0889" ry="18"/>
<text text-anchor="middle" x="1798" y="-899.3" font-family="Times,serif" font-size="14.00">Assessment</text>
</g>
<!-- Factor -->
<g id="node18" class="node"><title>Factor</title>
<ellipse fill="none" stroke="black" cx="1627" cy="-450" rx="40.8928" ry="18"/>
<text text-anchor="middle" x="1627" y="-446.3" font-family="Times,serif" font-size="14.00">Factor</text>
</g>
<!-- Assessment&#45;&gt;Factor -->
<g id="edge2" class="edge"><title>Assessment&#45;&gt;Factor</title>
<path fill="none" stroke="#da1d3b" d="M1798,-874.835C1798,-842.48 1798,-786.798 1798,-739 1798,-739 1798,-739 1798,-665 1798,-624.553 1800.02,-610.557 1779,-576 1750.07,-528.437 1696.39,-490.781 1661.19,-469.689"/>
<polygon fill="#da1d3b" stroke="#da1d3b" points="1798,-874.869 1793.5,-884.869 1798,-879.869 1798,-884.869 1798,-884.869 1798,-884.869 1798,-879.869 1802.5,-884.869 1798,-874.869 1798,-874.869"/>
<polygon fill="#da1d3b" stroke="#da1d3b" points="1660.85,-469.492 1654.5,-460.554 1656.54,-466.964 1652.22,-464.437 1652.22,-464.437 1652.22,-464.437 1656.54,-466.964 1649.95,-468.319 1660.85,-469.492 1660.85,-469.492"/>
</g>
<!-- Group -->
<g id="node21" class="node"><title>Group</title>
<ellipse fill="none" stroke="black" cx="1359" cy="-810" rx="39.7935" ry="18"/>
<text text-anchor="middle" x="1359" y="-806.3" font-family="Times,serif" font-size="14.00">Group</text>
</g>
<!-- Assessment&#45;&gt;Group -->
<g id="edge4" class="edge"><title>Assessment&#45;&gt;Group</title>
<path fill="none" stroke="#933c90" d="M1763.15,-881.382C1750.83,-874.903 1736.64,-868.321 1723,-864 1614.06,-829.489 1479.56,-817.329 1408.47,-813.135"/>
<polygon fill="#933c90" stroke="#933c90" points="1763.38,-881.506 1770.02,-890.232 1767.77,-883.892 1772.16,-886.278 1772.16,-886.278 1772.16,-886.278 1767.77,-883.892 1774.31,-882.323 1763.38,-881.506 1763.38,-881.506"/>
<polygon fill="#933c90" stroke="#933c90" points="1408.43,-813.133 1398.7,-808.079 1403.44,-812.852 1398.45,-812.572 1398.45,-812.572 1398.45,-812.572 1403.44,-812.852 1398.2,-817.065 1408.43,-813.133 1408.43,-813.133"/>
</g>
<!-- Installment -->
<g id="node25" class="node"><title>Installment</title>
<ellipse fill="none" stroke="black" cx="1665" cy="-234" rx="64.189" ry="18"/>
<text text-anchor="middle" x="1665" y="-230.3" font-family="Times,serif" font-size="14.00">Installment</text>
</g>
<!-- Assessment&#45;&gt;Installment -->
<g id="edge1" class="edge"><title>Assessment&#45;&gt;Installment</title>
<path fill="none" stroke="#401982" d="M1826.2,-880.532C1859.96,-852.158 1912,-798.731 1912,-739 1912,-739 1912,-739 1912,-377 1912,-293.737 1805.2,-258.576 1732.06,-244.259"/>
<ellipse fill="none" stroke="#401982" cx="1822.8" cy="-883.327" rx="4.00002" ry="4.00002"/>
<polygon fill="#401982" stroke="#401982" points="1731.81,-244.212 1722.8,-237.951 1726.89,-243.293 1721.98,-242.375 1721.98,-242.375 1721.98,-242.375 1726.89,-243.293 1721.15,-246.798 1731.81,-244.212 1731.81,-244.212"/>
</g>
<!-- User -->
<g id="node37" class="node"><title>User</title>
<ellipse fill="none" stroke="black" cx="1136" cy="-306" rx="32.4942" ry="18"/>
<text text-anchor="middle" x="1136" y="-302.3" font-family="Times,serif" font-size="14.00">User</text>
</g>
<!-- Assessment&#45;&gt;User -->
<g id="edge3" class="edge"><title>Assessment&#45;&gt;User</title>
<path fill="none" stroke="#ebcc47" d="M1808.24,-875.185C1819.49,-843.243 1836,-788.031 1836,-739 1836,-739 1836,-739 1836,-665 1836,-539.63 1788.38,-489.541 1677,-432 1574.92,-379.266 1528.2,-437.354 1421,-396 1394.43,-385.751 1394.11,-371.367 1368,-360 1304.65,-332.42 1225.07,-318.256 1177.49,-311.75"/>
<polygon fill="#ebcc47" stroke="#ebcc47" points="1808.2,-875.297 1800.56,-883.171 1806.49,-879.999 1804.79,-884.701 1804.79,-884.701 1804.79,-884.701 1806.49,-879.999 1809.03,-886.232 1808.2,-875.297 1808.2,-875.297"/>
<polygon fill="#ebcc47" stroke="#ebcc47" points="1177.47,-311.747 1168.14,-305.978 1172.51,-311.093 1167.55,-310.439 1167.55,-310.439 1167.55,-310.439 1172.51,-311.093 1166.97,-314.9 1177.47,-311.747 1177.47,-311.747"/>
</g>
<!-- Behavior -->
<g id="node3" class="node"><title>Behavior</title>
<ellipse fill="none" stroke="black" cx="593" cy="-90" rx="51.9908" ry="18"/>
<text text-anchor="middle" x="593" y="-86.3" font-family="Times,serif" font-size="14.00">Behavior</text>
</g>
<!-- Diagnosis -->
<g id="node15" class="node"><title>Diagnosis</title>
<ellipse fill="none" stroke="black" cx="552" cy="-378" rx="55.7903" ry="18"/>
<text text-anchor="middle" x="552" y="-374.3" font-family="Times,serif" font-size="14.00">Diagnosis</text>
</g>
<!-- Behavior&#45;&gt;Diagnosis -->
<g id="edge7" class="edge"><title>Behavior&#45;&gt;Diagnosis</title>
<path fill="none" stroke="#53069c" d="M568.436,-112.82C560.31,-121.602 552.26,-132.4 548,-144 522.046,-214.669 535.936,-305.709 545.46,-350.167"/>
<ellipse fill="none" stroke="#53069c" cx="571.238" cy="-109.942" rx="4.00002" ry="4.00002"/>
<polygon fill="#53069c" stroke="#53069c" points="545.46,-350.168 543.252,-360.91 546.552,-355.048 547.643,-359.927 547.643,-359.927 547.643,-359.927 546.552,-355.048 552.035,-358.945 545.46,-350.168 545.46,-350.168"/>
</g>
<!-- Reaction -->
<g id="node30" class="node"><title>Reaction</title>
<ellipse fill="none" stroke="black" cx="632" cy="-450" rx="51.9908" ry="18"/>
<text text-anchor="middle" x="632" y="-446.3" font-family="Times,serif" font-size="14.00">Reaction</text>
</g>
<!-- Behavior&#45;&gt;Reaction -->
<g id="edge6" class="edge"><title>Behavior&#45;&gt;Reaction</title>
<path fill="none" stroke="#9ca140" d="M559.029,-110.123C522.013,-133.764 468,-177.73 468,-233 468,-307 468,-307 468,-307 468,-347.447 460.472,-365.468 487,-396 493.801,-403.827 545.358,-421.556 585.081,-434.357"/>
<ellipse fill="none" stroke="#9ca140" cx="562.789" cy="-107.783" rx="4.00002" ry="4.00002"/>
<polygon fill="#9ca140" stroke="#9ca140" points="585.11,-434.366 593.262,-441.701 589.872,-435.891 594.634,-437.415 594.634,-437.415 594.634,-437.415 589.872,-435.891 596.005,-433.129 585.11,-434.366 585.11,-434.366"/>
</g>
<!-- Scenario -->
<g id="node33" class="node"><title>Scenario</title>
<ellipse fill="none" stroke="black" cx="644" cy="-18" rx="51.1914" ry="18"/>
<text text-anchor="middle" x="644" y="-14.3" font-family="Times,serif" font-size="14.00">Scenario</text>
</g>
<!-- Behavior&#45;&gt;Scenario -->
<g id="edge5" class="edge"><title>Behavior&#45;&gt;Scenario</title>
<path fill="none" stroke="#f7e8b3" d="M609.821,-65.9119C614.829,-59.038 620.345,-51.4681 625.456,-44.4523"/>
<ellipse fill="none" stroke="#f7e8b3" cx="607.442" cy="-69.178" rx="4.00002" ry="4.00002"/>
<polygon fill="#f7e8b3" stroke="#f7e8b3" points="625.758,-44.0386 635.283,-38.6061 628.702,-39.9974 631.646,-35.9562 631.646,-35.9562 631.646,-35.9562 628.702,-39.9974 628.009,-33.3063 625.758,-44.0386 625.758,-44.0386"/>
</g>
<!-- BingoBoard -->
<g id="node4" class="node"><title>BingoBoard</title>
<ellipse fill="none" stroke="black" cx="336" cy="-378" rx="65.7887" ry="18"/>
<text text-anchor="middle" x="336" y="-374.3" font-family="Times,serif" font-size="14.00">BingoBoard</text>
</g>
<!-- BingoCell -->
<g id="node5" class="node"><title>BingoCell</title>
<ellipse fill="none" stroke="black" cx="346" cy="-306" rx="55.7903" ry="18"/>
<text text-anchor="middle" x="346" y="-302.3" font-family="Times,serif" font-size="14.00">BingoCell</text>
</g>
<!-- BingoBoard&#45;&gt;BingoCell -->
<g id="edge8" class="edge"><title>BingoBoard&#45;&gt;BingoCell</title>
<path fill="none" stroke="#48c9dd" d="M339.623,-351.64C340.44,-345.92 341.31,-339.828 342.137,-334.042"/>
<ellipse fill="none" stroke="#48c9dd" cx="339.038" cy="-355.737" rx="4.00001" ry="4.00001"/>
<polygon fill="#48c9dd" stroke="#48c9dd" points="342.142,-334.004 348.011,-324.741 342.849,-329.054 343.557,-324.104 343.557,-324.104 343.557,-324.104 342.849,-329.054 339.102,-323.468 342.142,-334.004 342.142,-334.004"/>
</g>
<!-- Concept -->
<g id="node11" class="node"><title>Concept</title>
<ellipse fill="none" stroke="black" cx="448" cy="-666" rx="50.0912" ry="18"/>
<text text-anchor="middle" x="448" y="-662.3" font-family="Times,serif" font-size="14.00">Concept</text>
</g>
<!-- BingoBoard&#45;&gt;Concept -->
<g id="edge9" class="edge"><title>BingoBoard&#45;&gt;Concept</title>
<path fill="none" stroke="#3a2da2" d="M337.545,-406.261C341.171,-451.758 353.128,-544.795 392,-612 398.769,-623.703 408.914,-634.422 418.717,-643.111"/>
<polygon fill="#3a2da2" stroke="#3a2da2" points="337.525,-405.992 341.296,-395.694 337.166,-401.005 336.807,-396.018 336.807,-396.018 336.807,-396.018 337.166,-401.005 332.319,-396.341 337.525,-405.992 337.525,-405.992"/>
<polygon fill="#3a2da2" stroke="#3a2da2" points="418.792,-643.174 423.532,-653.063 422.613,-646.399 426.434,-649.624 426.434,-649.624 426.434,-649.624 422.613,-646.399 429.337,-646.185 418.792,-643.174 418.792,-643.174"/>
</g>
<!-- BingoGame -->
<g id="node6" class="node"><title>BingoGame</title>
<ellipse fill="none" stroke="black" cx="498" cy="-450" rx="64.189" ry="18"/>
<text text-anchor="middle" x="498" y="-446.3" font-family="Times,serif" font-size="14.00">BingoGame</text>
</g>
<!-- BingoGame&#45;&gt;BingoBoard -->
<g id="edge11" class="edge"><title>BingoGame&#45;&gt;BingoBoard</title>
<path fill="none" stroke="#1b9908" d="M457.025,-431.295C433.13,-420.97 403.028,-407.963 378.823,-397.504"/>
<ellipse fill="none" stroke="#1b9908" cx="460.762" cy="-432.909" rx="4.00002" ry="4.00002"/>
<polygon fill="#1b9908" stroke="#1b9908" points="378.703,-397.452 371.308,-389.355 374.113,-395.469 369.524,-393.485 369.524,-393.485 369.524,-393.485 374.113,-395.469 367.739,-397.616 378.703,-397.452 378.703,-397.452"/>
</g>
<!-- Candidate -->
<g id="node7" class="node"><title>Candidate</title>
<ellipse fill="none" stroke="black" cx="169" cy="-234" rx="58.4896" ry="18"/>
<text text-anchor="middle" x="169" y="-230.3" font-family="Times,serif" font-size="14.00">Candidate</text>
</g>
<!-- BingoGame&#45;&gt;Candidate -->
<g id="edge12" class="edge"><title>BingoGame&#45;&gt;Candidate</title>
<path fill="none" stroke="#762042" d="M475.246,-424.87C467.835,-416.206 459.984,-406.077 454,-396 427.62,-351.578 450.39,-321.431 411,-288 384.597,-265.591 295.653,-250.403 233.297,-242.218"/>
<polygon fill="#762042" stroke="#762042" points="475.247,-424.871 478.487,-435.348 478.555,-428.621 481.862,-432.371 481.862,-432.371 481.862,-432.371 478.555,-428.621 485.237,-429.395 475.247,-424.871 475.247,-424.871"/>
<polygon fill="#762042" stroke="#762042" points="233.065,-242.188 223.718,-236.453 228.105,-241.552 223.146,-240.916 223.146,-240.916 223.146,-240.916 228.105,-241.552 222.573,-245.38 233.065,-242.188 233.065,-242.188"/>
</g>
<!-- CandidateList -->
<g id="node9" class="node"><title>CandidateList</title>
<ellipse fill="none" stroke="black" cx="562" cy="-738" rx="76.8869" ry="18"/>
<text text-anchor="middle" x="562" y="-734.3" font-family="Times,serif" font-size="14.00">CandidateList</text>
</g>
<!-- BingoGame&#45;&gt;CandidateList -->
<g id="edge10" class="edge"><title>BingoGame&#45;&gt;CandidateList</title>
<path fill="none" stroke="#f28797" d="M473.05,-472.937C426.899,-516.172 337.412,-614.241 389,-684 409.481,-711.695 444.158,-725.389 477.112,-731.994"/>
<ellipse fill="none" stroke="#f28797" cx="476.049" cy="-470.167" rx="4.00002" ry="4.00002"/>
<polygon fill="#f28797" stroke="#f28797" points="477.425,-732.05 486.468,-738.253 482.345,-732.937 487.266,-733.824 487.266,-733.824 487.266,-733.824 482.345,-732.937 488.064,-729.395 477.425,-732.05 477.425,-732.05"/>
</g>
<!-- BingoGame&#45;&gt;Concept -->
<g id="edge13" class="edge"><title>BingoGame&#45;&gt;Concept</title>
<path fill="none" stroke="#467c30" d="M491.67,-478.091C482.063,-519.211 463.905,-596.927 454.309,-637.996"/>
<polygon fill="#467c30" stroke="#467c30" points="491.698,-477.97 498.356,-469.256 492.836,-473.101 493.974,-468.232 493.974,-468.232 493.974,-468.232 492.836,-473.101 489.592,-467.209 491.698,-477.97 491.698,-477.97"/>
<polygon fill="#467c30" stroke="#467c30" points="454.282,-638.111 447.625,-646.825 453.145,-642.98 452.007,-647.849 452.007,-647.849 452.007,-647.849 453.145,-642.98 456.389,-648.873 454.282,-638.111 454.282,-638.111"/>
</g>
<!-- CandidateFeedback -->
<g id="node8" class="node"><title>CandidateFeedback</title>
<ellipse fill="none" stroke="black" cx="169" cy="-306" rx="103.182" ry="18"/>
<text text-anchor="middle" x="169" y="-302.3" font-family="Times,serif" font-size="14.00">CandidateFeedback</text>
</g>
<!-- CandidateFeedback&#45;&gt;Candidate -->
<g id="edge14" class="edge"><title>CandidateFeedback&#45;&gt;Candidate</title>
<path fill="none" stroke="#7d27df" d="M169,-279.64C169,-274.063 169,-268.132 169,-262.476"/>
<ellipse fill="none" stroke="#7d27df" cx="169" cy="-283.697" rx="4" ry="4"/>
<polygon fill="#7d27df" stroke="#7d27df" points="169,-262.104 173.5,-252.104 169,-257.104 169,-252.104 169,-252.104 169,-252.104 169,-257.104 164.5,-252.104 169,-262.104 169,-262.104"/>
</g>
<!-- CandidateList&#45;&gt;Candidate -->
<g id="edge15" class="edge"><title>CandidateList&#45;&gt;Candidate</title>
<path fill="none" stroke="#46b267" d="M479.143,-733.229C322.839,-723.84 0,-692.631 0,-595 0,-595 0,-595 0,-377 0,-334.331 5.75065,-318.094 36,-288 56.3126,-267.792 85.2991,-255.037 111.029,-247.12"/>
<ellipse fill="none" stroke="#46b267" cx="483.378" cy="-733.477" rx="4" ry="4"/>
<polygon fill="#46b267" stroke="#46b267" points="111.101,-247.099 121.958,-248.639 115.904,-245.708 120.706,-244.317 120.706,-244.317 120.706,-244.317 115.904,-245.708 119.455,-239.994 111.101,-247.099 111.101,-247.099"/>
</g>
<!-- CandidateList&#45;&gt;Concept -->
<g id="edge16" class="edge"><title>CandidateList&#45;&gt;Concept</title>
<path fill="none" stroke="#71d3cf" d="M526.902,-715.449C512.183,-706.411 495.166,-695.962 480.712,-687.086"/>
<polygon fill="#71d3cf" stroke="#71d3cf" points="527.324,-715.708 533.491,-724.775 531.585,-718.324 535.846,-720.941 535.846,-720.941 535.846,-720.941 531.585,-718.324 538.201,-717.106 527.324,-715.708 527.324,-715.708"/>
<polygon fill="#71d3cf" stroke="#71d3cf" points="480.609,-687.023 474.442,-677.956 476.348,-684.407 472.087,-681.79 472.087,-681.79 472.087,-681.79 476.348,-684.407 469.732,-685.625 480.609,-687.023 480.609,-687.023"/>
</g>
<!-- Course -->
<g id="node14" class="node"><title>Course</title>
<ellipse fill="none" stroke="black" cx="712" cy="-594" rx="44.393" ry="18"/>
<text text-anchor="middle" x="712" y="-590.3" font-family="Times,serif" font-size="14.00">Course</text>
</g>
<!-- CandidateList&#45;&gt;Course -->
<g id="edge17" class="edge"><title>CandidateList&#45;&gt;Course</title>
<path fill="none" stroke="#641d1b" d="M585.653,-714.608C613.97,-687.802 661.068,-643.216 689.063,-616.713"/>
<ellipse fill="none" stroke="#641d1b" cx="582.405" cy="-717.683" rx="4.00002" ry="4.00002"/>
<ellipse fill="#641d1b" stroke="#641d1b" cx="692.166" cy="-613.776" rx="4.00002" ry="4.00002"/>
</g>
<!-- CipCode -->
<g id="node10" class="node"><title>CipCode</title>
<ellipse fill="none" stroke="black" cx="1095" cy="-522" rx="50.8918" ry="18"/>
<text text-anchor="middle" x="1095" y="-518.3" font-family="Times,serif" font-size="14.00">CipCode</text>
</g>
<!-- CipCode&#45;&gt;User -->
<g id="edge18" class="edge"><title>CipCode&#45;&gt;User</title>
<path fill="none" stroke="#96a8a8" d="M1124.34,-500.644C1134.45,-491.892 1144.59,-480.734 1150,-468 1168.82,-423.732 1156.15,-366.547 1145.73,-333.601"/>
<ellipse fill="none" stroke="#96a8a8" cx="1121.18" cy="-503.237" rx="4.00002" ry="4.00002"/>
<polygon fill="#96a8a8" stroke="#96a8a8" points="1145.63,-333.292 1146.74,-322.382 1144.05,-328.547 1142.47,-323.803 1142.47,-323.803 1142.47,-323.803 1144.05,-328.547 1138.2,-325.225 1145.63,-333.292 1145.63,-333.292"/>
</g>
<!-- Concept&#45;&gt;Candidate -->
<g id="edge19" class="edge"><title>Concept&#45;&gt;Candidate</title>
<path fill="none" stroke="#362388" d="M393.65,-657.811C282.166,-641.539 38,-597.408 38,-523 38,-523 38,-523 38,-377 38,-336.553 31.8968,-319.714 57,-288 71.5303,-269.643 93.9481,-257.315 114.921,-249.208"/>
<ellipse fill="none" stroke="#362388" cx="397.806" cy="-658.409" rx="4.00001" ry="4.00001"/>
<polygon fill="#362388" stroke="#362388" points="115.018,-249.173 125.952,-250.006 119.72,-247.474 124.422,-245.774 124.422,-245.774 124.422,-245.774 119.72,-247.474 122.892,-241.542 115.018,-249.173 115.018,-249.173"/>
</g>
<!-- Concept&#45;&gt;Course -->
<g id="edge20" class="edge"><title>Concept&#45;&gt;Course</title>
<path fill="none" stroke="#49b334" d="M496.923,-652.028C545.338,-639.191 618.876,-619.692 666.181,-607.149"/>
<polygon fill="#49b334" stroke="#49b334" points="496.62,-652.108 485.801,-650.322 491.787,-653.39 486.954,-654.671 486.954,-654.671 486.954,-654.671 491.787,-653.39 488.107,-659.021 496.62,-652.108 496.62,-652.108"/>
<polygon fill="#49b334" stroke="#49b334" points="666.192,-607.146 677.012,-608.933 671.025,-605.865 675.858,-604.583 675.858,-604.583 675.858,-604.583 671.025,-605.865 674.705,-600.233 666.192,-607.146 666.192,-607.146"/>
</g>
<!-- ConsentForm -->
<g id="node12" class="node"><title>ConsentForm</title>
<ellipse fill="none" stroke="black" cx="1697" cy="-594" rx="73.387" ry="18"/>
<text text-anchor="middle" x="1697" y="-590.3" font-family="Times,serif" font-size="14.00">ConsentForm</text>
</g>
<!-- ConsentLog -->
<g id="node13" class="node"><title>ConsentLog</title>
<ellipse fill="none" stroke="black" cx="1504" cy="-234" rx="66.8882" ry="18"/>
<text text-anchor="middle" x="1504" y="-230.3" font-family="Times,serif" font-size="14.00">ConsentLog</text>
</g>
<!-- ConsentForm&#45;&gt;ConsentLog -->
<g id="edge22" class="edge"><title>ConsentForm&#45;&gt;ConsentLog</title>
<path fill="none" stroke="#fc7b45" d="M1736.79,-573.739C1777.86,-550.746 1836,-508.115 1836,-451 1836,-451 1836,-451 1836,-377 1836,-318.724 1660.89,-270.197 1565.02,-247.996"/>
<ellipse fill="none" stroke="#fc7b45" cx="1733.1" cy="-575.751" rx="4.00002" ry="4.00002"/>
<polygon fill="#fc7b45" stroke="#fc7b45" points="1564.9,-247.969 1556.15,-241.352 1560.02,-246.854 1555.15,-245.739 1555.15,-245.739 1555.15,-245.739 1560.02,-246.854 1554.14,-250.126 1564.9,-247.969 1564.9,-247.969"/>
</g>
<!-- Project -->
<g id="node28" class="node"><title>Project</title>
<ellipse fill="none" stroke="black" cx="1412" cy="-522" rx="44.393" ry="18"/>
<text text-anchor="middle" x="1412" y="-518.3" font-family="Times,serif" font-size="14.00">Project</text>
</g>
<!-- ConsentForm&#45;&gt;Project -->
<g id="edge21" class="edge"><title>ConsentForm&#45;&gt;Project</title>
<path fill="none" stroke="#e87cf9" d="M1639.19,-578.801C1585.93,-565.719 1507.88,-546.551 1458.53,-534.429"/>
<ellipse fill="none" stroke="#e87cf9" cx="1643.15" cy="-579.773" rx="4.00001" ry="4.00001"/>
<polygon fill="#e87cf9" stroke="#e87cf9" points="1458.47,-534.414 1449.83,-527.658 1453.61,-533.221 1448.76,-532.028 1448.76,-532.028 1448.76,-532.028 1453.61,-533.221 1447.69,-536.399 1458.47,-534.414 1458.47,-534.414"/>
</g>
<!-- Course&#45;&gt;BingoGame -->
<g id="edge25" class="edge"><title>Course&#45;&gt;BingoGame</title>
<path fill="none" stroke="#953dfe" d="M683.137,-573.848C643.344,-547.443 571.851,-500.004 530.314,-472.442"/>
<ellipse fill="none" stroke="#953dfe" cx="686.571" cy="-576.127" rx="4.00002" ry="4.00002"/>
<polygon fill="#953dfe" stroke="#953dfe" points="530.26,-472.406 524.415,-463.127 526.093,-469.641 521.927,-466.877 521.927,-466.877 521.927,-466.877 526.093,-469.641 519.439,-470.627 530.26,-472.406 530.26,-472.406"/>
</g>
<!-- Experience -->
<g id="node17" class="node"><title>Experience</title>
<ellipse fill="none" stroke="black" cx="842" cy="-522" rx="63.8893" ry="18"/>
<text text-anchor="middle" x="842" y="-518.3" font-family="Times,serif" font-size="14.00">Experience</text>
</g>
<!-- Course&#45;&gt;Experience -->
<g id="edge27" class="edge"><title>Course&#45;&gt;Experience</title>
<path fill="none" stroke="#5bc970" d="M744.911,-575.279C763.138,-565.464 785.86,-553.229 804.739,-543.064"/>
<ellipse fill="none" stroke="#5bc970" cx="741.206" cy="-577.274" rx="4.00002" ry="4.00002"/>
<polygon fill="#5bc970" stroke="#5bc970" points="804.857,-543 815.795,-542.221 809.259,-540.63 813.662,-538.259 813.662,-538.259 813.662,-538.259 809.259,-540.63 811.528,-534.297 804.857,-543 804.857,-543"/>
</g>
<!-- Course&#45;&gt;Project -->
<g id="edge23" class="edge"><title>Course&#45;&gt;Project</title>
<path fill="none" stroke="#4b17ad" d="M762.453,-587.955C890.719,-575.128 1228.36,-541.364 1359.17,-528.283"/>
<ellipse fill="none" stroke="#4b17ad" cx="758.453" cy="-588.355" rx="4" ry="4"/>
<polygon fill="#4b17ad" stroke="#4b17ad" points="1359.38,-528.262 1369.78,-531.744 1364.36,-527.764 1369.33,-527.267 1369.33,-527.267 1369.33,-527.267 1364.36,-527.764 1368.89,-522.789 1359.38,-528.262 1359.38,-528.262"/>
</g>
<!-- Roster -->
<g id="node32" class="node"><title>Roster</title>
<ellipse fill="none" stroke="black" cx="1353" cy="-234" rx="41.6928" ry="18"/>
<text text-anchor="middle" x="1353" y="-230.3" font-family="Times,serif" font-size="14.00">Roster</text>
</g>
<!-- Course&#45;&gt;Roster -->
<g id="edge24" class="edge"><title>Course&#45;&gt;Roster</title>
<path fill="none" stroke="#8aac50" d="M712,-567.782C712,-539.392 712,-491.885 712,-451 712,-451 712,-451 712,-377 712,-316.544 1152.25,-258.765 1303.04,-240.748"/>
<ellipse fill="none" stroke="#8aac50" cx="712" cy="-571.951" rx="4" ry="4"/>
<polygon fill="#8aac50" stroke="#8aac50" points="1303.46,-240.699 1313.92,-243.989 1308.42,-240.11 1313.39,-239.52 1313.39,-239.52 1313.39,-239.52 1308.42,-240.11 1312.86,-235.052 1303.46,-240.699 1303.46,-240.699"/>
</g>
<!-- Course&#45;&gt;User -->
<g id="edge26" class="edge"><title>Course&#45;&gt;User</title>
<path fill="none" stroke="#9de817" d="M719.289,-565.908C721.487,-557.605 723.878,-548.436 726,-540 746.06,-460.233 708.253,-415.453 769,-360 815.669,-317.399 1006.58,-308.968 1093.06,-307.352"/>
<polygon fill="#9de817" stroke="#9de817" points="719.217,-566.178 712.295,-574.683 717.93,-571.009 716.643,-575.841 716.643,-575.841 716.643,-575.841 717.93,-571.009 720.991,-576.999 719.217,-566.178 719.217,-566.178"/>
<polygon fill="#9de817" stroke="#9de817" points="1093.32,-307.348 1103.39,-311.683 1098.32,-307.266 1103.32,-307.184 1103.32,-307.184 1103.32,-307.184 1098.32,-307.266 1103.25,-302.684 1093.32,-307.348 1093.32,-307.348"/>
</g>
<!-- Diagnosis&#45;&gt;User -->
<g id="edge28" class="edge"><title>Diagnosis&#45;&gt;User</title>
<path fill="none" stroke="#a0c092" d="M601.575,-364.082C608.407,-362.56 615.356,-361.144 622,-360 796.931,-329.882 1008.51,-314.659 1095.58,-309.299"/>
<ellipse fill="none" stroke="#a0c092" cx="597.532" cy="-365.012" rx="4.00001" ry="4.00001"/>
<ellipse fill="#a0c092" stroke="#a0c092" cx="1099.62" cy="-309.053" rx="4" ry="4"/>
</g>
<!-- Email -->
<g id="node16" class="node"><title>Email</title>
<ellipse fill="none" stroke="black" cx="1136" cy="-234" rx="37.8943" ry="18"/>
<text text-anchor="middle" x="1136" y="-230.3" font-family="Times,serif" font-size="14.00">Email</text>
</g>
<!-- Experience&#45;&gt;Reaction -->
<g id="edge29" class="edge"><title>Experience&#45;&gt;Reaction</title>
<path fill="none" stroke="#f71195" d="M794.56,-505.187C759.68,-493.56 712.536,-477.845 678,-466.333"/>
<ellipse fill="none" stroke="#f71195" cx="798.706" cy="-506.569" rx="4.00001" ry="4.00001"/>
<polygon fill="#f71195" stroke="#f71195" points="677.652,-466.218 669.589,-458.786 672.909,-464.636 668.166,-463.055 668.166,-463.055 668.166,-463.055 672.909,-464.636 666.743,-467.324 677.652,-466.218 677.652,-466.218"/>
</g>
<!-- FactorPack -->
<g id="node19" class="node"><title>FactorPack</title>
<ellipse fill="none" stroke="black" cx="1542" cy="-594" rx="63.8893" ry="18"/>
<text text-anchor="middle" x="1542" y="-590.3" font-family="Times,serif" font-size="14.00">FactorPack</text>
</g>
<!-- FactorPack&#45;&gt;Factor -->
<g id="edge30" class="edge"><title>FactorPack&#45;&gt;Factor</title>
<path fill="none" stroke="#27eb21" d="M1556.41,-568.925C1571.8,-543.224 1596.07,-502.669 1611.76,-476.452"/>
<ellipse fill="none" stroke="#27eb21" cx="1554.14" cy="-572.721" rx="4.00002" ry="4.00002"/>
<polygon fill="#27eb21" stroke="#27eb21" points="1611.79,-476.405 1620.79,-470.136 1614.36,-472.115 1616.93,-467.825 1616.93,-467.825 1616.93,-467.825 1614.36,-472.115 1613.07,-465.514 1611.79,-476.405 1611.79,-476.405"/>
</g>
<!-- FactorPack&#45;&gt;Project -->
<g id="edge31" class="edge"><title>FactorPack&#45;&gt;Project</title>
<path fill="none" stroke="#6f7ca0" d="M1506.62,-573.948C1487.92,-563.882 1465.07,-551.577 1446.51,-541.582"/>
<ellipse fill="none" stroke="#6f7ca0" cx="1510.27" cy="-575.915" rx="4.00002" ry="4.00002"/>
<polygon fill="#6f7ca0" stroke="#6f7ca0" points="1446.31,-541.477 1439.64,-532.774 1441.91,-539.106 1437.51,-536.736 1437.51,-536.736 1437.51,-536.736 1441.91,-539.106 1435.38,-540.698 1446.31,-541.477 1446.31,-541.477"/>
</g>
<!-- Gender -->
<g id="node20" class="node"><title>Gender</title>
<ellipse fill="none" stroke="black" cx="1378" cy="-666" rx="44.6926" ry="18"/>
<text text-anchor="middle" x="1378" y="-662.3" font-family="Times,serif" font-size="14.00">Gender</text>
</g>
<!-- Gender&#45;&gt;User -->
<g id="edge32" class="edge"><title>Gender&#45;&gt;User</title>
<path fill="none" stroke="#08a00a" d="M1344.34,-646.945C1330.84,-638.102 1316.3,-626.263 1307,-612 1244.22,-515.734 1321.2,-449.421 1249,-360 1230.64,-337.254 1200.24,-323.763 1175.6,-316.089"/>
<ellipse fill="none" stroke="#08a00a" cx="1347.88" cy="-649.168" rx="4.00002" ry="4.00002"/>
<polygon fill="#08a00a" stroke="#08a00a" points="1175.39,-316.029 1167.05,-308.918 1170.59,-314.634 1165.79,-313.239 1165.79,-313.239 1165.79,-313.239 1170.59,-314.634 1164.54,-317.561 1175.39,-316.029 1175.39,-316.029"/>
</g>
<!-- Group&#45;&gt;CandidateList -->
<g id="edge35" class="edge"><title>Group&#45;&gt;CandidateList</title>
<path fill="none" stroke="#669c29" d="M1312.21,-804.89C1180.91,-793.359 807.908,-760.598 642.584,-746.078"/>
<ellipse fill="none" stroke="#669c29" cx="1316.31" cy="-805.25" rx="4" ry="4"/>
<polygon fill="#669c29" stroke="#669c29" points="642.439,-746.065 632.871,-740.707 637.458,-745.627 632.477,-745.19 632.477,-745.19 632.477,-745.19 637.458,-745.627 632.083,-749.673 642.439,-746.065 642.439,-746.065"/>
</g>
<!-- Group&#45;&gt;CipCode -->
<g id="edge39" class="edge"><title>Group&#45;&gt;CipCode</title>
<path fill="none" stroke="#b8cd95" d="M1310.99,-802.739C1256.21,-794.623 1171.32,-778.762 1149,-756 1093.72,-699.636 1090.77,-598.481 1092.91,-550.151"/>
<polygon fill="#b8cd95" stroke="#b8cd95" points="1311.28,-802.781 1320.53,-808.665 1316.23,-803.497 1321.18,-804.212 1321.18,-804.212 1321.18,-804.212 1316.23,-803.497 1321.82,-799.758 1311.28,-802.781 1311.28,-802.781"/>
<polygon fill="#b8cd95" stroke="#b8cd95" points="1092.91,-550.119 1097.95,-540.382 1093.18,-545.126 1093.46,-540.134 1093.46,-540.134 1093.46,-540.134 1093.18,-545.126 1088.97,-539.886 1092.91,-550.119 1092.91,-550.119"/>
</g>
<!-- Group&#45;&gt;Gender -->
<g id="edge40" class="edge"><title>Group&#45;&gt;Gender</title>
<path fill="none" stroke="#ef6183" d="M1362.66,-781.679C1366.03,-756.487 1371,-719.295 1374.37,-694.156"/>
<polygon fill="#ef6183" stroke="#ef6183" points="1362.62,-781.96 1356.83,-791.275 1361.95,-786.916 1361.29,-791.871 1361.29,-791.871 1361.29,-791.871 1361.95,-786.916 1365.75,-792.468 1362.62,-781.96 1362.62,-781.96"/>
<polygon fill="#ef6183" stroke="#ef6183" points="1374.37,-694.101 1380.16,-684.786 1375.04,-689.145 1375.7,-684.189 1375.7,-684.189 1375.7,-684.189 1375.04,-689.145 1371.24,-683.592 1374.37,-694.101 1374.37,-694.101"/>
</g>
<!-- GroupRevision -->
<g id="node22" class="node"><title>GroupRevision</title>
<ellipse fill="none" stroke="black" cx="1558" cy="-738" rx="79.0865" ry="18"/>
<text text-anchor="middle" x="1558" y="-734.3" font-family="Times,serif" font-size="14.00">GroupRevision</text>
</g>
<!-- Group&#45;&gt;GroupRevision -->
<g id="edge34" class="edge"><title>Group&#45;&gt;GroupRevision</title>
<path fill="none" stroke="#3fcb19" d="M1397.59,-795.426C1428.81,-784.442 1473.05,-768.883 1507.16,-756.884"/>
<ellipse fill="none" stroke="#3fcb19" cx="1393.43" cy="-796.889" rx="4.00001" ry="4.00001"/>
<polygon fill="#3fcb19" stroke="#3fcb19" points="1507.51,-756.761 1518.43,-757.688 1512.22,-755.102 1516.94,-753.443 1516.94,-753.443 1516.94,-753.443 1512.22,-755.102 1515.45,-749.198 1507.51,-756.761 1507.51,-756.761"/>
</g>
<!-- HomeCountry -->
<g id="node23" class="node"><title>HomeCountry</title>
<ellipse fill="none" stroke="black" cx="1235" cy="-738" rx="76.8869" ry="18"/>
<text text-anchor="middle" x="1235" y="-734.3" font-family="Times,serif" font-size="14.00">HomeCountry</text>
</g>
<!-- Group&#45;&gt;HomeCountry -->
<g id="edge38" class="edge"><title>Group&#45;&gt;HomeCountry</title>
<path fill="none" stroke="#71b3dc" d="M1326.2,-790.481C1309.64,-781.138 1289.5,-769.763 1272.35,-760.085"/>
<polygon fill="#71b3dc" stroke="#71b3dc" points="1326.38,-790.587 1332.88,-799.422 1330.74,-793.045 1335.09,-795.503 1335.09,-795.503 1335.09,-795.503 1330.74,-793.045 1337.3,-791.585 1326.38,-790.587 1326.38,-790.587"/>
<polygon fill="#71b3dc" stroke="#71b3dc" points="1271.88,-759.822 1265.39,-750.987 1267.53,-757.364 1263.18,-754.906 1263.18,-754.906 1263.18,-754.906 1267.53,-757.364 1260.96,-758.825 1271.88,-759.822 1271.88,-759.822"/>
</g>
<!-- HomeState -->
<g id="node24" class="node"><title>HomeState</title>
<ellipse fill="none" stroke="black" cx="1252" cy="-666" rx="63.0888" ry="18"/>
<text text-anchor="middle" x="1252" y="-662.3" font-family="Times,serif" font-size="14.00">HomeState</text>
</g>
<!-- Group&#45;&gt;HomeState -->
<g id="edge37" class="edge"><title>Group&#45;&gt;HomeState</title>
<path fill="none" stroke="#331298" d="M1351.55,-782.213C1345.44,-763.484 1335.42,-738.595 1321,-720 1311.61,-707.898 1298.84,-697.068 1286.83,-688.402"/>
<polygon fill="#331298" stroke="#331298" points="1351.59,-782.352 1350.25,-793.236 1353.07,-787.129 1354.55,-791.906 1354.55,-791.906 1354.55,-791.906 1353.07,-787.129 1358.85,-790.576 1351.59,-782.352 1351.59,-782.352"/>
<polygon fill="#331298" stroke="#331298" points="1286.51,-688.177 1280.85,-678.786 1282.4,-685.332 1278.28,-682.486 1278.28,-682.486 1278.28,-682.486 1282.4,-685.332 1275.72,-686.187 1286.51,-688.177 1286.51,-688.177"/>
</g>
<!-- Group&#45;&gt;Installment -->
<g id="edge36" class="edge"><title>Group&#45;&gt;Installment</title>
<path fill="none" stroke="#fd9c4a" d="M1406.9,-806.446C1465.38,-801.929 1566.34,-789.562 1646,-756 1760.32,-707.838 1874,-719.051 1874,-595 1874,-595 1874,-595 1874,-377 1874,-304.131 1786,-266.04 1724.21,-248.275"/>
<ellipse fill="none" stroke="#fd9c4a" cx="1402.58" cy="-806.764" rx="4" ry="4"/>
<polygon fill="#fd9c4a" stroke="#fd9c4a" points="1724.17,-248.264 1715.73,-241.259 1719.35,-246.93 1714.53,-245.596 1714.53,-245.596 1714.53,-245.596 1719.35,-246.93 1713.33,-249.933 1724.17,-248.264 1724.17,-248.264"/>
</g>
<!-- Group&#45;&gt;User -->
<g id="edge33" class="edge"><title>Group&#45;&gt;User</title>
<path fill="none" stroke="#d5884b" d="M1310.73,-803.68C1249.44,-796.033 1148.25,-780.141 1120,-756 1030.14,-679.218 1003.37,-617.889 1035,-504 1042.5,-477.01 1087.49,-421.061 1100,-396 1110.25,-375.461 1119.9,-351.26 1126.62,-333.283"/>
<polygon fill="#d5884b" stroke="#d5884b" points="1311.02,-803.715 1320.4,-809.391 1315.98,-804.32 1320.94,-804.924 1320.94,-804.924 1320.94,-804.924 1315.98,-804.32 1321.49,-800.457 1311.02,-803.715 1311.02,-803.715"/>
<polygon fill="#d5884b" stroke="#d5884b" points="1126.67,-333.131 1134.35,-325.3 1128.4,-328.438 1130.12,-323.746 1130.12,-323.746 1130.12,-323.746 1128.4,-328.438 1125.9,-322.192 1126.67,-333.131 1126.67,-333.131"/>
</g>
<!-- HomeCountry&#45;&gt;HomeState -->
<g id="edge42" class="edge"><title>HomeCountry&#45;&gt;HomeState</title>
<path fill="none" stroke="#e73b3f" d="M1241.09,-711.92C1242.49,-706.154 1243.99,-699.997 1245.41,-694.148"/>
<ellipse fill="none" stroke="#e73b3f" cx="1240.15" cy="-715.81" rx="4.00001" ry="4.00001"/>
<polygon fill="#e73b3f" stroke="#e73b3f" points="1245.49,-693.822 1252.22,-685.166 1246.67,-688.963 1247.85,-684.104 1247.85,-684.104 1247.85,-684.104 1246.67,-688.963 1243.47,-683.042 1245.49,-693.822 1245.49,-693.822"/>
</g>
<!-- HomeCountry&#45;&gt;User -->
<g id="edge41" class="edge"><title>HomeCountry&#45;&gt;User</title>
<path fill="none" stroke="#0d5ea0" d="M1203.25,-714.226C1194.06,-705.851 1185.12,-695.554 1180,-684 1121.6,-552.299 1212.66,-497.608 1170,-360 1166.8,-349.663 1160.98,-339.394 1155.06,-330.688"/>
<polygon fill="#0d5ea0" stroke="#0d5ea0" points="1203.35,-714.308 1208.04,-724.219 1207.15,-717.551 1210.96,-720.794 1210.96,-720.794 1210.96,-720.794 1207.15,-717.551 1213.88,-717.369 1203.35,-714.308 1203.35,-714.308"/>
<polygon fill="#0d5ea0" stroke="#0d5ea0" points="1155.05,-330.666 1152.85,-319.924 1152.12,-326.612 1149.2,-322.557 1149.2,-322.557 1149.2,-322.557 1152.12,-326.612 1145.55,-325.19 1155.05,-330.666 1155.05,-330.666"/>
</g>
<!-- HomeState&#45;&gt;User -->
<g id="edge43" class="edge"><title>HomeState&#45;&gt;User</title>
<path fill="none" stroke="#610dde" d="M1251.43,-639.784C1250.84,-611.395 1250,-563.889 1250,-523 1250,-523 1250,-523 1250,-449 1250,-408.031 1250.83,-392.59 1226,-360 1212.34,-342.066 1190.72,-329.051 1172.09,-320.407"/>
<ellipse fill="none" stroke="#610dde" cx="1251.52" cy="-643.953" rx="4" ry="4"/>
<polygon fill="#610dde" stroke="#610dde" points="1171.84,-320.297 1164.49,-312.161 1167.26,-318.29 1162.68,-316.282 1162.68,-316.282 1162.68,-316.282 1167.26,-318.29 1160.88,-320.403 1171.84,-320.297 1171.84,-320.297"/>
</g>
<!-- Value -->
<g id="node38" class="node"><title>Value</title>
<ellipse fill="none" stroke="black" cx="1665" cy="-162" rx="36.2938" ry="18"/>
<text text-anchor="middle" x="1665" y="-158.3" font-family="Times,serif" font-size="14.00">Value</text>
</g>
<!-- Installment&#45;&gt;Value -->
<g id="edge44" class="edge"><title>Installment&#45;&gt;Value</title>
<path fill="none" stroke="#650b13" d="M1665,-207.64C1665,-202.063 1665,-196.132 1665,-190.476"/>
<ellipse fill="none" stroke="#650b13" cx="1665" cy="-211.697" rx="4" ry="4"/>
<polygon fill="#650b13" stroke="#650b13" points="1665,-190.104 1669.5,-180.104 1665,-185.104 1665,-180.104 1665,-180.104 1665,-180.104 1665,-185.104 1660.5,-180.104 1665,-190.104 1665,-190.104"/>
</g>
<!-- Language -->
<g id="node26" class="node"><title>Language</title>
<ellipse fill="none" stroke="black" cx="835" cy="-378" rx="56.59" ry="18"/>
<text text-anchor="middle" x="835" y="-374.3" font-family="Times,serif" font-size="14.00">Language</text>
</g>
<!-- Language&#45;&gt;User -->
<g id="edge45" class="edge"><title>Language&#45;&gt;User</title>
<path fill="none" stroke="#71cacc" d="M886.922,-363.469C891.677,-362.277 896.424,-361.105 901,-360 969.411,-343.479 1049.42,-325.778 1096.23,-315.586"/>
<polygon fill="#71cacc" stroke="#71cacc" points="886.898,-363.475 876.1,-361.564 882.05,-364.701 877.203,-365.927 877.203,-365.927 877.203,-365.927 882.05,-364.701 878.307,-370.289 886.898,-363.475 886.898,-363.475"/>
<polygon fill="#71cacc" stroke="#71cacc" points="1096.48,-315.53 1107.21,-317.803 1101.37,-314.468 1106.26,-313.406 1106.26,-313.406 1106.26,-313.406 1101.37,-314.468 1105.3,-309.009 1096.48,-315.53 1096.48,-315.53"/>
</g>
<!-- Narrative -->
<g id="node27" class="node"><title>Narrative</title>
<ellipse fill="none" stroke="black" cx="674" cy="-234" rx="55.7903" ry="18"/>
<text text-anchor="middle" x="674" y="-230.3" font-family="Times,serif" font-size="14.00">Narrative</text>
</g>
<!-- Narrative&#45;&gt;Behavior -->
<g id="edge47" class="edge"><title>Narrative&#45;&gt;Behavior</title>
<path fill="none" stroke="#efad62" d="M666.26,-207.903C660.019,-189.496 650.272,-164.281 638,-144 631.4,-133.092 622.585,-122.163 614.507,-113.086"/>
<ellipse fill="none" stroke="#efad62" cx="667.624" cy="-212.041" rx="4.00001" ry="4.00001"/>
<ellipse fill="#efad62" stroke="#efad62" cx="611.764" cy="-110.078" rx="4.00002" ry="4.00002"/>
</g>
<!-- Narrative&#45;&gt;Reaction -->
<g id="edge48" class="edge"><title>Narrative&#45;&gt;Reaction</title>
<path fill="none" stroke="#634eea" d="M669.038,-260.282C661.068,-300.892 645.48,-380.316 637.3,-421.996"/>
<ellipse fill="none" stroke="#634eea" cx="669.848" cy="-256.158" rx="4.00001" ry="4.00001"/>
<polygon fill="#634eea" stroke="#634eea" points="637.292,-422.036 630.95,-430.983 636.329,-426.943 635.366,-431.849 635.366,-431.849 635.366,-431.849 636.329,-426.943 639.782,-432.716 637.292,-422.036 637.292,-422.036"/>
</g>
<!-- Week -->
<g id="node39" class="node"><title>Week</title>
<ellipse fill="none" stroke="black" cx="593" cy="-162" rx="36.2938" ry="18"/>
<text text-anchor="middle" x="593" y="-158.3" font-family="Times,serif" font-size="14.00">Week</text>
</g>
<!-- Narrative&#45;&gt;Week -->
<g id="edge46" class="edge"><title>Narrative&#45;&gt;Week</title>
<path fill="none" stroke="#cc2015" d="M648.905,-211.313C639.119,-202.856 627.922,-193.18 618.133,-184.72"/>
<ellipse fill="none" stroke="#cc2015" cx="652.187" cy="-214.149" rx="4.00002" ry="4.00002"/>
<polygon fill="#cc2015" stroke="#cc2015" points="617.868,-184.491 613.244,-174.548 614.085,-181.222 610.302,-177.952 610.302,-177.952 610.302,-177.952 614.085,-181.222 607.36,-181.357 617.868,-184.491 617.868,-184.491"/>
</g>
<!-- Project&#45;&gt;Assessment -->
<g id="edge51" class="edge"><title>Project&#45;&gt;Assessment</title>
<path fill="none" stroke="#335791" d="M1423.63,-547.237C1433.7,-566.435 1449.66,-593.081 1469,-612 1534.87,-676.45 1576.2,-659.831 1646,-720 1702.44,-768.648 1755.05,-839.479 1781.03,-876.811"/>
<ellipse fill="none" stroke="#335791" cx="1421.76" cy="-543.582" rx="4.00002" ry="4.00002"/>
<polygon fill="#335791" stroke="#335791" points="1781.08,-876.881 1783.05,-887.669 1783.92,-880.998 1786.76,-885.114 1786.76,-885.114 1786.76,-885.114 1783.92,-880.998 1790.46,-882.56 1781.08,-876.881 1781.08,-876.881"/>
</g>
<!-- Project&#45;&gt;BingoGame -->
<g id="edge50" class="edge"><title>Project&#45;&gt;BingoGame</title>
<path fill="none" stroke="#671bd1" d="M1360.75,-517.542C1308.88,-514.058 1226.37,-508.56 1155,-504 895.481,-487.418 828.312,-505.622 571,-468 565.226,-467.156 559.235,-466.086 553.28,-464.895"/>
<ellipse fill="none" stroke="#671bd1" cx="1364.81" cy="-517.815" rx="4" ry="4"/>
<polygon fill="#671bd1" stroke="#671bd1" points="553.121,-464.861 544.267,-458.392 548.229,-463.828 543.337,-462.795 543.337,-462.795 543.337,-462.795 548.229,-463.828 542.407,-467.198 553.121,-464.861 553.121,-464.861"/>
</g>
<!-- Project&#45;&gt;Factor -->
<g id="edge54" class="edge"><title>Project&#45;&gt;Factor</title>
<path fill="none" stroke="#d8b245" d="M1455.13,-506.959C1493.07,-494.604 1547.97,-476.732 1585.44,-464.531"/>
<polygon fill="#d8b245" stroke="#d8b245" points="1455.1,-506.967 1444.2,-505.784 1450.35,-508.515 1445.59,-510.062 1445.59,-510.062 1445.59,-510.062 1450.35,-508.515 1446.99,-514.341 1455.1,-506.967 1455.1,-506.967"/>
<polygon fill="#d8b245" stroke="#d8b245" points="1585.54,-464.5 1596.44,-465.683 1590.29,-462.952 1595.04,-461.404 1595.04,-461.404 1595.04,-461.404 1590.29,-462.952 1593.65,-457.125 1585.54,-464.5 1585.54,-464.5"/>
</g>
<!-- Project&#45;&gt;Group -->
<g id="edge49" class="edge"><title>Project&#45;&gt;Group</title>
<path fill="none" stroke="#c9c351" d="M1421.03,-548.2C1431.19,-580.253 1444.7,-637.079 1432,-684 1421.65,-722.241 1396.37,-760.785 1378.47,-784.757"/>
<ellipse fill="none" stroke="#c9c351" cx="1419.66" cy="-544.025" rx="4.00001" ry="4.00001"/>
<polygon fill="#c9c351" stroke="#c9c351" points="1378.31,-784.955 1368.67,-790.171 1375.28,-788.929 1372.25,-792.902 1372.25,-792.902 1372.25,-792.902 1375.28,-788.929 1375.82,-795.634 1378.31,-784.955 1378.31,-784.955"/>
</g>
<!-- Project&#45;&gt;Installment -->
<g id="edge52" class="edge"><title>Project&#45;&gt;Installment</title>
<path fill="none" stroke="#da06a3" d="M1435.52,-498.16C1460.58,-473.545 1501.08,-432.923 1534,-396 1575.61,-349.334 1620.99,-291.973 1645.92,-259.848"/>
<polygon fill="#da06a3" stroke="#da06a3" points="1435.41,-498.267 1425.12,-502.048 1431.84,-501.765 1428.27,-505.263 1428.27,-505.263 1428.27,-505.263 1431.84,-501.765 1431.42,-508.478 1435.41,-498.267 1435.41,-498.267"/>
<polygon fill="#da06a3" stroke="#da06a3" points="1645.97,-259.774 1655.65,-254.619 1649.03,-255.82 1652.09,-251.865 1652.09,-251.865 1652.09,-251.865 1649.03,-255.82 1648.53,-249.112 1645.97,-259.774 1645.97,-259.774"/>
</g>
<!-- Project&#45;&gt;User -->
<g id="edge53" class="edge"><title>Project&#45;&gt;User</title>
<path fill="none" stroke="#1cdb9f" d="M1407.33,-493.741C1399.7,-457.719 1381.1,-394.771 1340,-360 1294.26,-321.298 1223.57,-310.422 1178.56,-307.61"/>
<polygon fill="#1cdb9f" stroke="#1cdb9f" points="1407.42,-494.185 1404.94,-504.868 1408.39,-499.09 1409.36,-503.995 1409.36,-503.995 1409.36,-503.995 1408.39,-499.09 1413.77,-503.123 1407.42,-494.185 1407.42,-494.185"/>
<polygon fill="#1cdb9f" stroke="#1cdb9f" points="1178.52,-307.608 1168.77,-302.596 1173.53,-307.349 1168.54,-307.09 1168.54,-307.09 1168.54,-307.09 1173.53,-307.349 1168.3,-311.584 1178.52,-307.608 1178.52,-307.608"/>
</g>
<!-- Quote -->
<g id="node29" class="node"><title>Quote</title>
<ellipse fill="none" stroke="black" cx="1921" cy="-903" rx="38.1938" ry="18"/>
<text text-anchor="middle" x="1921" y="-899.3" font-family="Times,serif" font-size="14.00">Quote</text>
</g>
<!-- Reaction&#45;&gt;Course -->
<g id="edge55" class="edge"><title>Reaction&#45;&gt;Course</title>
<path fill="none" stroke="#b43b20" d="M645.573,-475.092C660.309,-501.248 683.704,-542.775 698.436,-568.925"/>
<ellipse fill="none" stroke="#b43b20" cx="643.442" cy="-471.31" rx="4.00002" ry="4.00002"/>
<ellipse fill="#b43b20" stroke="#b43b20" cx="700.545" cy="-572.668" rx="4.00002" ry="4.00002"/>
</g>
<!-- Reaction&#45;&gt;Diagnosis -->
<g id="edge56" class="edge"><title>Reaction&#45;&gt;Diagnosis</title>
<path fill="none" stroke="#d00448" d="M607.793,-427.819C598.396,-419.597 587.615,-410.163 578.05,-401.793"/>
<ellipse fill="none" stroke="#d00448" cx="610.836" cy="-430.482" rx="4.00002" ry="4.00002"/>
<polygon fill="#d00448" stroke="#d00448" points="577.884,-401.649 573.322,-391.677 574.121,-398.356 570.358,-395.064 570.358,-395.064 570.358,-395.064 574.121,-398.356 567.395,-398.45 577.884,-401.649 577.884,-401.649"/>
</g>
<!-- Role -->
<g id="node31" class="node"><title>Role</title>
<ellipse fill="none" stroke="black" cx="1461" cy="-378" rx="31.3957" ry="18"/>
<text text-anchor="middle" x="1461" y="-374.3" font-family="Times,serif" font-size="14.00">Role</text>
</g>
<!-- Role&#45;&gt;Roster -->
<g id="edge58" class="edge"><title>Role&#45;&gt;Roster</title>
<path fill="none" stroke="#6a885f" d="M1444.09,-354.772C1424.38,-328.851 1391.9,-286.143 1371.52,-259.346"/>
<ellipse fill="none" stroke="#6a885f" cx="1446.61" cy="-358.077" rx="4.00002" ry="4.00002"/>
<polygon fill="#6a885f" stroke="#6a885f" points="1371.41,-259.205 1368.94,-248.522 1368.38,-255.226 1365.36,-251.246 1365.36,-251.246 1365.36,-251.246 1368.38,-255.226 1361.77,-253.97 1371.41,-259.205 1371.41,-259.205"/>
</g>
<!-- Role&#45;&gt;User -->
<g id="edge57" class="edge"><title>Role&#45;&gt;User</title>
<path fill="none" stroke="#6fd768" d="M1428.28,-363.885C1424.18,-362.466 1420.02,-361.13 1416,-360 1332.78,-336.596 1232.71,-320.449 1177.57,-312.556"/>
<ellipse fill="none" stroke="#6fd768" cx="1432.27" cy="-365.326" rx="4.00001" ry="4.00001"/>
<polygon fill="#6fd768" stroke="#6fd768" points="1177.39,-312.53 1168.11,-306.677 1172.44,-311.832 1167.49,-311.133 1167.49,-311.133 1167.49,-311.133 1172.44,-311.832 1166.86,-315.589 1177.39,-312.53 1177.39,-312.53"/>
</g>
<!-- Scenario&#45;&gt;Narrative -->
<g id="edge59" class="edge"><title>Scenario&#45;&gt;Narrative</title>
<path fill="none" stroke="#2d59b9" d="M649.08,-44.147C650.766,-52.9376 652.576,-62.8859 654,-72 661.307,-118.754 667.637,-173.484 671.126,-205.584"/>
<ellipse fill="none" stroke="#2d59b9" cx="648.283" cy="-40.0644" rx="4.00001" ry="4.00001"/>
<polygon fill="#2d59b9" stroke="#2d59b9" points="671.129,-205.615 667.723,-216.039 671.663,-210.586 672.197,-215.558 672.197,-215.558 672.197,-215.558 671.663,-210.586 676.671,-215.077 671.129,-205.615 671.129,-205.615"/>
</g>
<!-- School -->
<g id="node34" class="node"><title>School</title>
<ellipse fill="none" stroke="black" cx="842" cy="-666" rx="41.6928" ry="18"/>
<text text-anchor="middle" x="842" y="-662.3" font-family="Times,serif" font-size="14.00">School</text>
</g>
<!-- School&#45;&gt;BingoGame -->
<g id="edge61" class="edge"><title>School&#45;&gt;BingoGame</title>
<path fill="none" stroke="#226b30" d="M793.855,-656.974C755.62,-649.238 701.675,-635.215 659,-612 596.579,-578.043 542.434,-512.387 515.722,-476.295"/>
<polygon fill="#226b30" stroke="#226b30" points="793.896,-656.982 802.847,-663.316 798.803,-657.941 803.71,-658.9 803.71,-658.9 803.71,-658.9 798.803,-657.941 804.573,-654.483 793.896,-656.982 793.896,-656.982"/>
<polygon fill="#226b30" stroke="#226b30" points="515.419,-475.878 513.172,-465.145 512.476,-471.836 509.534,-467.793 509.534,-467.793 509.534,-467.793 512.476,-471.836 505.896,-470.441 515.419,-475.878 515.419,-475.878"/>
</g>
<!-- School&#45;&gt;Course -->
<g id="edge60" class="edge"><title>School&#45;&gt;Course</title>
<path fill="none" stroke="#4d97a8" d="M809.704,-647.61C790.571,-637.308 766.326,-624.253 746.775,-613.725"/>
<ellipse fill="none" stroke="#4d97a8" cx="813.413" cy="-649.607" rx="4.00002" ry="4.00002"/>
<polygon fill="#4d97a8" stroke="#4d97a8" points="746.683,-613.675 740.012,-604.972 742.281,-611.305 737.878,-608.934 737.878,-608.934 737.878,-608.934 742.281,-611.305 735.745,-612.897 746.683,-613.675 746.683,-613.675"/>
</g>
<!-- School&#45;&gt;Experience -->
<g id="edge63" class="edge"><title>School&#45;&gt;Experience</title>
<path fill="none" stroke="#4a4430" d="M842,-637.679C842,-612.599 842,-575.627 842,-550.493"/>
<polygon fill="#4a4430" stroke="#4a4430" points="842,-637.871 837.5,-647.871 842,-642.871 842,-647.871 842,-647.871 842,-647.871 842,-642.871 846.5,-647.872 842,-637.871 842,-637.871"/>
<polygon fill="#4a4430" stroke="#4a4430" points="842,-550.189 846.5,-540.189 842,-545.189 842,-540.189 842,-540.189 842,-540.189 842,-545.189 837.5,-540.189 842,-550.189 842,-550.189"/>
</g>
<!-- School&#45;&gt;Project -->
<g id="edge62" class="edge"><title>School&#45;&gt;Project</title>
<path fill="none" stroke="#b1a89f" d="M886.967,-653.798C992.941,-627.397 1257.52,-561.485 1365.25,-534.647"/>
<polygon fill="#b1a89f" stroke="#b1a89f" points="886.929,-653.807 876.138,-651.858 882.078,-655.016 877.226,-656.224 877.226,-656.224 877.226,-656.224 882.078,-655.016 878.314,-660.591 886.929,-653.807 886.929,-653.807"/>
<polygon fill="#b1a89f" stroke="#b1a89f" points="1365.47,-534.592 1376.26,-536.541 1370.32,-533.383 1375.17,-532.174 1375.17,-532.174 1375.17,-532.174 1370.32,-533.383 1374.09,-527.808 1365.47,-534.592 1365.47,-534.592"/>
</g>
<!-- School&#45;&gt;Roster -->
<g id="edge64" class="edge"><title>School&#45;&gt;Roster</title>
<path fill="none" stroke="#4b885f" d="M879.781,-648.538C922.181,-630.221 993.139,-600.042 1055,-576 1104.81,-556.642 1471.35,-440.458 1501,-396 1539.83,-337.776 1446.01,-279.925 1390.43,-252.098"/>
<polygon fill="#4b885f" stroke="#4b885f" points="879.588,-648.621 868.623,-648.464 874.999,-650.607 870.411,-652.594 870.411,-652.594 870.411,-652.594 874.999,-650.607 872.198,-656.723 879.588,-648.621 879.588,-648.621"/>
<polygon fill="#4b885f" stroke="#4b885f" points="1390.18,-251.977 1383.18,-243.535 1385.69,-249.776 1381.2,-247.576 1381.2,-247.576 1381.2,-247.576 1385.69,-249.776 1379.22,-251.617 1390.18,-251.977 1390.18,-251.977"/>
</g>
<!-- Style -->
<g id="node35" class="node"><title>Style</title>
<ellipse fill="none" stroke="black" cx="1350" cy="-594" rx="34.394" ry="18"/>
<text text-anchor="middle" x="1350" y="-590.3" font-family="Times,serif" font-size="14.00">Style</text>
</g>
<!-- Style&#45;&gt;Project -->
<g id="edge65" class="edge"><title>Style&#45;&gt;Project</title>
<path fill="none" stroke="#45e7a6" d="M1369.19,-571.338C1376.01,-563.631 1383.74,-554.908 1390.73,-547.015"/>
<ellipse fill="none" stroke="#45e7a6" cx="1366.41" cy="-574.47" rx="4.00002" ry="4.00002"/>
<polygon fill="#45e7a6" stroke="#45e7a6" points="1390.78,-546.953 1400.78,-542.451 1394.1,-543.21 1397.41,-539.467 1397.41,-539.467 1397.41,-539.467 1394.1,-543.21 1394.05,-536.484 1390.78,-546.953 1390.78,-546.953"/>
</g>
<!-- Theme -->
<g id="node36" class="node"><title>Theme</title>
<ellipse fill="none" stroke="black" cx="952" cy="-378" rx="42.4939" ry="18"/>
<text text-anchor="middle" x="952" y="-374.3" font-family="Times,serif" font-size="14.00">Theme</text>
</g>
<!-- Theme&#45;&gt;User -->
<g id="edge66" class="edge"><title>Theme&#45;&gt;User</title>
<path fill="none" stroke="#865c6c" d="M990.22,-362.46C1022.6,-350.142 1068.67,-332.614 1100.31,-320.579"/>
<ellipse fill="none" stroke="#865c6c" cx="986.122" cy="-364.019" rx="4.00001" ry="4.00001"/>
<polygon fill="#865c6c" stroke="#865c6c" points="1100.69,-320.433 1111.64,-321.083 1105.36,-318.655 1110.04,-316.877 1110.04,-316.877 1110.04,-316.877 1105.36,-318.655 1108.44,-312.671 1100.69,-320.433 1100.69,-320.433"/>
</g>
<!-- User&#45;&gt;Candidate -->
<g id="edge71" class="edge"><title>User&#45;&gt;Candidate</title>
<path fill="none" stroke="#0aec20" d="M1095.6,-302.075C945.884,-291.238 421.817,-253.301 235.424,-239.808"/>
<ellipse fill="none" stroke="#0aec20" cx="1099.84" cy="-302.382" rx="4" ry="4"/>
<polygon fill="#0aec20" stroke="#0aec20" points="235.193,-239.792 225.544,-234.581 230.207,-239.431 225.22,-239.07 225.22,-239.07 225.22,-239.07 230.207,-239.431 224.895,-243.558 235.193,-239.792 235.193,-239.792"/>
</g>
<!-- User&#45;&gt;CandidateList -->
<g id="edge69" class="edge"><title>User&#45;&gt;CandidateList</title>
<path fill="none" stroke="#b3dd33" d="M1120.01,-329.657C1094.48,-366.032 1043.18,-439.885 1002,-504 951.46,-582.693 970.581,-631.769 893,-684 853.568,-710.547 729.678,-724.795 645.175,-731.631"/>
<ellipse fill="none" stroke="#b3dd33" cx="1122.47" cy="-326.168" rx="4.00002" ry="4.00002"/>
<polygon fill="#b3dd33" stroke="#b3dd33" points="645.043,-731.641 634.719,-727.942 640.058,-732.035 635.074,-732.428 635.074,-732.428 635.074,-732.428 640.058,-732.035 635.428,-736.914 645.043,-731.641 645.043,-731.641"/>
</g>
<!-- User&#45;&gt;Concept -->
<g id="edge70" class="edge"><title>User&#45;&gt;Concept</title>
<path fill="none" stroke="#2c2570" d="M1095.92,-310.194C1023.6,-316.428 866.757,-332.105 737,-360 682.562,-371.703 671.107,-382.851 617,-396 532.635,-416.503 480.447,-365.191 425,-432 375.439,-491.718 412.593,-591.955 434.687,-639.06"/>
<ellipse fill="none" stroke="#2c2570" cx="1099.91" cy="-309.855" rx="4" ry="4"/>
<polygon fill="#2c2570" stroke="#2c2570" points="434.787,-639.267 435.085,-650.229 436.962,-643.769 439.137,-648.271 439.137,-648.271 439.137,-648.271 436.962,-643.769 443.189,-646.314 434.787,-639.267 434.787,-639.267"/>
</g>
<!-- User&#45;&gt;ConsentLog -->
<g id="edge68" class="edge"><title>User&#45;&gt;ConsentLog</title>
<path fill="none" stroke="#4157d2" d="M1174.53,-297.671C1237.87,-285.622 1364.59,-261.518 1441.09,-246.967"/>
<ellipse fill="none" stroke="#4157d2" cx="1170.36" cy="-298.465" rx="4.00001" ry="4.00001"/>
<polygon fill="#4157d2" stroke="#4157d2" points="1441.25,-246.936 1451.92,-249.487 1446.17,-246.001 1451.08,-245.067 1451.08,-245.067 1451.08,-245.067 1446.17,-246.001 1450.24,-240.646 1441.25,-246.936 1441.25,-246.936"/>
</g>
<!-- User&#45;&gt;Email -->
<g id="edge67" class="edge"><title>User&#45;&gt;Email</title>
<path fill="none" stroke="#859c92" d="M1136,-279.64C1136,-274.063 1136,-268.132 1136,-262.476"/>
<ellipse fill="none" stroke="#859c92" cx="1136" cy="-283.697" rx="4" ry="4"/>
<polygon fill="#859c92" stroke="#859c92" points="1136,-262.104 1140.5,-252.104 1136,-257.104 1136,-252.104 1136,-252.104 1136,-252.104 1136,-257.104 1131.5,-252.104 1136,-262.104 1136,-262.104"/>
</g>
<!-- User&#45;&gt;Experience -->
<g id="edge75" class="edge"><title>User&#45;&gt;Experience</title>
<path fill="none" stroke="#5c30a3" d="M1113.71,-329.264C1094.44,-348.004 1065.45,-375.027 1038,-396 984.784,-436.666 918.2,-477.136 877.941,-500.576"/>
<polygon fill="#5c30a3" stroke="#5c30a3" points="1113.95,-329.029 1124.24,-325.24 1117.52,-325.528 1121.09,-322.027 1121.09,-322.027 1121.09,-322.027 1117.52,-325.528 1117.94,-318.814 1113.95,-329.029 1113.95,-329.029"/>
<polygon fill="#5c30a3" stroke="#5c30a3" points="877.929,-500.583 867.02,-501.701 873.602,-503.089 869.275,-505.595 869.275,-505.595 869.275,-505.595 873.602,-503.089 871.53,-509.489 877.929,-500.583 877.929,-500.583"/>
</g>
<!-- User&#45;&gt;Installment -->
<g id="edge72" class="edge"><title>User&#45;&gt;Installment</title>
<path fill="none" stroke="#65816d" d="M1176,-301.289C1253.99,-293.819 1431.7,-275.644 1580,-252 1588.22,-250.689 1596.87,-249.15 1605.36,-247.543"/>
<ellipse fill="none" stroke="#65816d" cx="1171.87" cy="-301.683" rx="4" ry="4"/>
<polygon fill="#65816d" stroke="#65816d" points="1605.41,-247.533 1616.08,-250.054 1610.32,-246.584 1615.23,-245.635 1615.23,-245.635 1615.23,-245.635 1610.32,-246.584 1614.37,-241.217 1605.41,-247.533 1605.41,-247.533"/>
</g>
<!-- User&#45;&gt;Narrative -->
<g id="edge76" class="edge"><title>User&#45;&gt;Narrative</title>
<path fill="none" stroke="#f48a19" d="M1094.92,-298.776C1012.92,-286.352 828.656,-258.433 733.452,-244.008"/>
<polygon fill="#f48a19" stroke="#f48a19" points="1095.08,-298.8 1104.3,-304.748 1100.03,-299.549 1104.97,-300.298 1104.97,-300.298 1104.97,-300.298 1100.03,-299.549 1105.64,-295.849 1095.08,-298.8 1095.08,-298.8"/>
<polygon fill="#f48a19" stroke="#f48a19" points="733.296,-243.984 724.083,-238.037 728.352,-243.235 723.409,-242.486 723.409,-242.486 723.409,-242.486 728.352,-243.235 722.735,-246.935 733.296,-243.984 733.296,-243.984"/>
</g>
<!-- User&#45;&gt;Reaction -->
<g id="edge74" class="edge"><title>User&#45;&gt;Reaction</title>
<path fill="none" stroke="#707fc9" d="M1105.84,-323.115C1087.99,-333.055 1065.18,-346.459 1046,-360 1025.64,-374.373 1025.76,-385.849 1003,-396 948.714,-420.207 782.938,-436.858 692.466,-444.407"/>
<ellipse fill="none" stroke="#707fc9" cx="1109.67" cy="-321.008" rx="4.00002" ry="4.00002"/>
<polygon fill="#707fc9" stroke="#707fc9" points="692.319,-444.42 681.983,-440.755 687.336,-444.83 682.352,-445.24 682.352,-445.24 682.352,-445.24 687.336,-444.83 682.721,-449.725 692.319,-444.42 692.319,-444.42"/>
</g>
<!-- User&#45;&gt;Roster -->
<g id="edge73" class="edge"><title>User&#45;&gt;Roster</title>
<path fill="none" stroke="#e7ceae" d="M1171.12,-293.672C1209.24,-281.374 1270.12,-261.736 1310.81,-248.609"/>
<ellipse fill="none" stroke="#e7ceae" cx="1167.29" cy="-294.906" rx="4.00001" ry="4.00001"/>
<polygon fill="#e7ceae" stroke="#e7ceae" points="1310.92,-248.573 1321.82,-249.785 1315.68,-247.038 1320.44,-245.503 1320.44,-245.503 1320.44,-245.503 1315.68,-247.038 1319.06,-241.22 1310.92,-248.573 1310.92,-248.573"/>
</g>
<!-- Week&#45;&gt;Behavior -->
<g id="edge77" class="edge"><title>Week&#45;&gt;Behavior</title>
<path fill="none" stroke="#0893cd" d="M593,-135.64C593,-129.348 593,-122.605 593,-116.316"/>
<ellipse fill="none" stroke="#0893cd" cx="593" cy="-139.697" rx="4" ry="4"/>
<ellipse fill="#0893cd" stroke="#0893cd" cx="593" cy="-112.104" rx="4" ry="4"/>
</g>
<!-- Week&#45;&gt;Diagnosis -->
<g id="edge78" class="edge"><title>Week&#45;&gt;Diagnosis</title>
<path fill="none" stroke="#e00913" d="M588.219,-187.955C580.459,-228.457 565.187,-308.17 557.179,-349.969"/>
<ellipse fill="none" stroke="#e00913" cx="589.003" cy="-183.864" rx="4.00001" ry="4.00001"/>
<polygon fill="#e00913" stroke="#e00913" points="557.168,-350.028 550.866,-359.002 556.227,-354.939 555.286,-359.849 555.286,-359.849 555.286,-359.849 556.227,-354.939 559.706,-360.696 557.168,-350.028 557.168,-350.028"/>
</g>
</g>
</svg>
