<?xml version="1.0" encoding="UTF-8" standalone="no"?>
<!DOCTYPE svg PUBLIC "-//W3C//DTD SVG 1.1//EN"
 "http://www.w3.org/Graphics/SVG/1.1/DTD/svg11.dtd">
<!-- Generated by graphviz version 2.38.0 (20140413.2041)
 -->
<!-- Title: models_diagram Pages: 1 -->
<svg width="1549pt" height="2001pt"
 viewBox="0.00 0.00 1548.96 2001.00" xmlns="http://www.w3.org/2000/svg" xmlns:xlink="http://www.w3.org/1999/xlink">
<g id="graph0" class="graph" transform="scale(1 1) rotate(0) translate(4 1997)">
<title>models_diagram</title>
<polygon fill="none" stroke="none" points="-4,4 -4,-1997 1544.96,-1997 1544.96,4 -4,4"/>
<!-- _diagram_info -->
<g id="node1" class="node"><title>_diagram_info</title>
<text text-anchor="start" x="183.961" y="-1964.1" font-family="Times,serif" font-size="13.00">Models diagram</text>
<text text-anchor="start" x="183.961" y="-1950.1" font-family="Times,serif" font-size="13.00">Date: Apr 06 2017 &#45; 17:45</text>
<text text-anchor="start" x="183.961" y="-1936.1" font-family="Times,serif" font-size="13.00">Migration version: 20170406070715</text>
<text text-anchor="start" x="183.961" y="-1922.1" font-family="Times,serif" font-size="13.00">Generated by RailRoady 1.5.2</text>
<text text-anchor="start" x="183.961" y="-1908.1" font-family="Times,serif" font-size="13.00">http://railroady.prestonlee.com</text>
</g>
<!-- GroupProjectCount -->
<g id="node2" class="node"><title>GroupProjectCount</title>
<path fill="none" stroke="black" d="M935.961,-1721C935.961,-1721 1065.96,-1721 1065.96,-1721 1071.96,-1721 1077.96,-1727 1077.96,-1733 1077.96,-1733 1077.96,-1785 1077.96,-1785 1077.96,-1791 1071.96,-1797 1065.96,-1797 1065.96,-1797 935.961,-1797 935.961,-1797 929.961,-1797 923.961,-1791 923.961,-1785 923.961,-1785 923.961,-1733 923.961,-1733 923.961,-1727 929.961,-1721 935.961,-1721"/>
<text text-anchor="middle" x="1000.96" y="-1781.8" font-family="Times,serif" font-size="14.00">GroupProjectCount</text>
<polyline fill="none" stroke="black" points="923.961,-1774 1077.96,-1774 "/>
<text text-anchor="start" x="931.961" y="-1758.8" font-family="Times,serif" font-size="14.00">id :int(11)</text>
<text text-anchor="start" x="931.961" y="-1743.8" font-family="Times,serif" font-size="14.00">name :varchar(255)</text>
<text text-anchor="start" x="931.961" y="-1728.8" font-family="Times,serif" font-size="14.00">description :varchar(255)</text>
</g>
<!-- User -->
<g id="node11" class="node"><title>User</title>
<path fill="none" stroke="black" d="M787.961,-1135.5C787.961,-1135.5 977.961,-1135.5 977.961,-1135.5 983.961,-1135.5 989.961,-1141.5 989.961,-1147.5 989.961,-1147.5 989.961,-1619.5 989.961,-1619.5 989.961,-1625.5 983.961,-1631.5 977.961,-1631.5 977.961,-1631.5 787.961,-1631.5 787.961,-1631.5 781.961,-1631.5 775.961,-1625.5 775.961,-1619.5 775.961,-1619.5 775.961,-1147.5 775.961,-1147.5 775.961,-1141.5 781.961,-1135.5 787.961,-1135.5"/>
<text text-anchor="middle" x="882.961" y="-1616.3" font-family="Times,serif" font-size="14.00">User</text>
<polyline fill="none" stroke="black" points="775.961,-1608.5 989.961,-1608.5 "/>
<text text-anchor="start" x="783.961" y="-1593.3" font-family="Times,serif" font-size="14.00">id :int(11)</text>
<text text-anchor="start" x="783.961" y="-1578.3" font-family="Times,serif" font-size="14.00">encrypted_password :varchar(255)</text>
<text text-anchor="start" x="783.961" y="-1563.3" font-family="Times,serif" font-size="14.00">reset_password_token :varchar(255)</text>
<text text-anchor="start" x="783.961" y="-1548.3" font-family="Times,serif" font-size="14.00">reset_password_sent_at :datetime</text>
<text text-anchor="start" x="783.961" y="-1533.3" font-family="Times,serif" font-size="14.00">remember_created_at :datetime</text>
<text text-anchor="start" x="783.961" y="-1518.3" font-family="Times,serif" font-size="14.00">sign_in_count :int(11)</text>
<text text-anchor="start" x="783.961" y="-1503.3" font-family="Times,serif" font-size="14.00">current_sign_in_at :datetime</text>
<text text-anchor="start" x="783.961" y="-1488.3" font-family="Times,serif" font-size="14.00">last_sign_in_at :datetime</text>
<text text-anchor="start" x="783.961" y="-1473.3" font-family="Times,serif" font-size="14.00">current_sign_in_ip :varchar(255)</text>
<text text-anchor="start" x="783.961" y="-1458.3" font-family="Times,serif" font-size="14.00">last_sign_in_ip :varchar(255)</text>
<text text-anchor="start" x="783.961" y="-1443.3" font-family="Times,serif" font-size="14.00">confirmation_token :varchar(255)</text>
<text text-anchor="start" x="783.961" y="-1428.3" font-family="Times,serif" font-size="14.00">confirmed_at :datetime</text>
<text text-anchor="start" x="783.961" y="-1413.3" font-family="Times,serif" font-size="14.00">confirmation_sent_at :datetime</text>
<text text-anchor="start" x="783.961" y="-1398.3" font-family="Times,serif" font-size="14.00">unconfirmed_email :varchar(255)</text>
<text text-anchor="start" x="783.961" y="-1383.3" font-family="Times,serif" font-size="14.00">failed_attempts :int(11)</text>
<text text-anchor="start" x="783.961" y="-1368.3" font-family="Times,serif" font-size="14.00">unlock_token :varchar(255)</text>
<text text-anchor="start" x="783.961" y="-1353.3" font-family="Times,serif" font-size="14.00">locked_at :datetime</text>
<text text-anchor="start" x="783.961" y="-1338.3" font-family="Times,serif" font-size="14.00">created_at :datetime</text>
<text text-anchor="start" x="783.961" y="-1323.3" font-family="Times,serif" font-size="14.00">updated_at :datetime</text>
<text text-anchor="start" x="783.961" y="-1308.3" font-family="Times,serif" font-size="14.00">first_name :varchar(255)</text>
<text text-anchor="start" x="783.961" y="-1293.3" font-family="Times,serif" font-size="14.00">last_name :varchar(255)</text>
<text text-anchor="start" x="783.961" y="-1278.3" font-family="Times,serif" font-size="14.00">gender_id :int(11)</text>
<text text-anchor="start" x="783.961" y="-1263.3" font-family="Times,serif" font-size="14.00">age_range_id :int(11)</text>
<text text-anchor="start" x="783.961" y="-1248.3" font-family="Times,serif" font-size="14.00">country :varchar(255)</text>
<text text-anchor="start" x="783.961" y="-1233.3" font-family="Times,serif" font-size="14.00">timezone :varchar(255)</text>
<text text-anchor="start" x="783.961" y="-1218.3" font-family="Times,serif" font-size="14.00">admin :tinyint(1)</text>
<text text-anchor="start" x="783.961" y="-1203.3" font-family="Times,serif" font-size="14.00">welcomed :tinyint(1)</text>
<text text-anchor="start" x="783.961" y="-1188.3" font-family="Times,serif" font-size="14.00">last_emailed :datetime</text>
<text text-anchor="start" x="783.961" y="-1173.3" font-family="Times,serif" font-size="14.00">theme_id :int(11)</text>
<text text-anchor="start" x="783.961" y="-1158.3" font-family="Times,serif" font-size="14.00">school_id :int(11)</text>
<text text-anchor="start" x="783.961" y="-1143.3" font-family="Times,serif" font-size="14.00">instructor :tinyint(1)</text>
</g>
<!-- GroupProjectCount&#45;&gt;User -->
<g id="edge1" class="edge"><title>GroupProjectCount&#45;&gt;User</title>
<path fill="none" stroke="#da0593" d="M986.748,-1713.01C980.53,-1693.33 972.7,-1668.54 964.14,-1641.45"/>
<ellipse fill="none" stroke="#da0593" cx="988.011" cy="-1717.01" rx="4.00001" ry="4.00001"/>
<polygon fill="#da0593" stroke="#da0593" points="964.097,-1641.31 965.375,-1630.42 962.59,-1636.55 961.084,-1631.78 961.084,-1631.78 961.084,-1631.78 962.59,-1636.55 956.793,-1633.13 964.097,-1641.31 964.097,-1641.31"/>
</g>
<!-- Theme -->
<g id="node3" class="node"><title>Theme</title>
<path fill="none" stroke="black" d="M1108.46,-1706C1108.46,-1706 1215.46,-1706 1215.46,-1706 1221.46,-1706 1227.46,-1712 1227.46,-1718 1227.46,-1718 1227.46,-1800 1227.46,-1800 1227.46,-1806 1221.46,-1812 1215.46,-1812 1215.46,-1812 1108.46,-1812 1108.46,-1812 1102.46,-1812 1096.46,-1806 1096.46,-1800 1096.46,-1800 1096.46,-1718 1096.46,-1718 1096.46,-1712 1102.46,-1706 1108.46,-1706"/>
<text text-anchor="middle" x="1161.96" y="-1796.8" font-family="Times,serif" font-size="14.00">Theme</text>
<polyline fill="none" stroke="black" points="1096.46,-1789 1227.46,-1789 "/>
<text text-anchor="start" x="1104.46" y="-1773.8" font-family="Times,serif" font-size="14.00">id :int(11)</text>
<text text-anchor="start" x="1104.46" y="-1758.8" font-family="Times,serif" font-size="14.00">code :varchar(255)</text>
<text text-anchor="start" x="1104.46" y="-1743.8" font-family="Times,serif" font-size="14.00">name :varchar(255)</text>
<text text-anchor="start" x="1104.46" y="-1728.8" font-family="Times,serif" font-size="14.00">created_at :datetime</text>
<text text-anchor="start" x="1104.46" y="-1713.8" font-family="Times,serif" font-size="14.00">updated_at :datetime</text>
</g>
<!-- Theme&#45;&gt;User -->
<g id="edge2" class="edge"><title>Theme&#45;&gt;User</title>
<path fill="none" stroke="#5fd8fd" d="M1117.92,-1699.04C1085.16,-1655.18 1038.89,-1593.24 996.061,-1535.91"/>
<ellipse fill="none" stroke="#5fd8fd" cx="1120.48" cy="-1702.47" rx="4.00002" ry="4.00002"/>
<polygon fill="#5fd8fd" stroke="#5fd8fd" points="996.027,-1535.86 993.648,-1525.16 993.035,-1531.86 990.043,-1527.85 990.043,-1527.85 990.043,-1527.85 993.035,-1531.86 986.437,-1530.54 996.027,-1535.86 996.027,-1535.86"/>
</g>
<!-- FactorPack -->
<g id="node4" class="node"><title>FactorPack</title>
<path fill="none" stroke="black" d="M123.461,-1330.5C123.461,-1330.5 230.461,-1330.5 230.461,-1330.5 236.461,-1330.5 242.461,-1336.5 242.461,-1342.5 242.461,-1342.5 242.461,-1424.5 242.461,-1424.5 242.461,-1430.5 236.461,-1436.5 230.461,-1436.5 230.461,-1436.5 123.461,-1436.5 123.461,-1436.5 117.461,-1436.5 111.461,-1430.5 111.461,-1424.5 111.461,-1424.5 111.461,-1342.5 111.461,-1342.5 111.461,-1336.5 117.461,-1330.5 123.461,-1330.5"/>
<text text-anchor="middle" x="176.961" y="-1421.3" font-family="Times,serif" font-size="14.00">FactorPack</text>
<polyline fill="none" stroke="black" points="111.461,-1413.5 242.461,-1413.5 "/>
<text text-anchor="start" x="119.461" y="-1398.3" font-family="Times,serif" font-size="14.00">id :int(11)</text>
<text text-anchor="start" x="119.461" y="-1383.3" font-family="Times,serif" font-size="14.00">name :varchar(255)</text>
<text text-anchor="start" x="119.461" y="-1368.3" font-family="Times,serif" font-size="14.00">description :text</text>
<text text-anchor="start" x="119.461" y="-1353.3" font-family="Times,serif" font-size="14.00">created_at :datetime</text>
<text text-anchor="start" x="119.461" y="-1338.3" font-family="Times,serif" font-size="14.00">updated_at :datetime</text>
</g>
<!-- Project -->
<g id="node16" class="node"><title>Project</title>
<path fill="none" stroke="black" d="M277.961,-857.5C277.961,-857.5 407.961,-857.5 407.961,-857.5 413.961,-857.5 419.961,-863.5 419.961,-869.5 419.961,-869.5 419.961,-1086.5 419.961,-1086.5 419.961,-1092.5 413.961,-1098.5 407.961,-1098.5 407.961,-1098.5 277.961,-1098.5 277.961,-1098.5 271.961,-1098.5 265.961,-1092.5 265.961,-1086.5 265.961,-1086.5 265.961,-869.5 265.961,-869.5 265.961,-863.5 271.961,-857.5 277.961,-857.5"/>
<text text-anchor="middle" x="342.961" y="-1083.3" font-family="Times,serif" font-size="14.00">Project</text>
<polyline fill="none" stroke="black" points="265.961,-1075.5 419.961,-1075.5 "/>
<text text-anchor="start" x="273.961" y="-1060.3" font-family="Times,serif" font-size="14.00">id :int(11)</text>
<text text-anchor="start" x="273.961" y="-1045.3" font-family="Times,serif" font-size="14.00">name :varchar(255)</text>
<text text-anchor="start" x="273.961" y="-1030.3" font-family="Times,serif" font-size="14.00">description :varchar(255)</text>
<text text-anchor="start" x="273.961" y="-1015.3" font-family="Times,serif" font-size="14.00">course_id :int(11)</text>
<text text-anchor="start" x="273.961" y="-1000.3" font-family="Times,serif" font-size="14.00">created_at :datetime</text>
<text text-anchor="start" x="273.961" y="-985.3" font-family="Times,serif" font-size="14.00">updated_at :datetime</text>
<text text-anchor="start" x="273.961" y="-970.3" font-family="Times,serif" font-size="14.00">start_dow :int(11)</text>
<text text-anchor="start" x="273.961" y="-955.3" font-family="Times,serif" font-size="14.00">end_dow :int(11)</text>
<text text-anchor="start" x="273.961" y="-940.3" font-family="Times,serif" font-size="14.00">active :tinyint(1)</text>
<text text-anchor="start" x="273.961" y="-925.3" font-family="Times,serif" font-size="14.00">start_date :datetime</text>
<text text-anchor="start" x="273.961" y="-910.3" font-family="Times,serif" font-size="14.00">end_date :datetime</text>
<text text-anchor="start" x="273.961" y="-895.3" font-family="Times,serif" font-size="14.00">consent_form_id :int(11)</text>
<text text-anchor="start" x="273.961" y="-880.3" font-family="Times,serif" font-size="14.00">factor_pack_id :int(11)</text>
<text text-anchor="start" x="273.961" y="-865.3" font-family="Times,serif" font-size="14.00">style_id :int(11)</text>
</g>
<!-- FactorPack&#45;&gt;Project -->
<g id="edge4" class="edge"><title>FactorPack&#45;&gt;Project</title>
<path fill="none" stroke="#335991" d="M191.05,-1322.07C203.928,-1271.07 225.049,-1196.73 251.961,-1135 255.862,-1126.05 260.159,-1116.98 264.699,-1107.93"/>
<ellipse fill="none" stroke="#335991" cx="190.025" cy="-1326.17" rx="4.00001" ry="4.00001"/>
<polygon fill="#335991" stroke="#335991" points="264.761,-1107.81 273.32,-1100.96 267.037,-1103.36 269.314,-1098.91 269.314,-1098.91 269.314,-1098.91 267.037,-1103.36 265.307,-1096.86 264.761,-1107.81 264.761,-1107.81"/>
</g>
<!-- Factor -->
<g id="node21" class="node"><title>Factor</title>
<path fill="none" stroke="black" d="M277.961,-406.5C277.961,-406.5 407.961,-406.5 407.961,-406.5 413.961,-406.5 419.961,-412.5 419.961,-418.5 419.961,-418.5 419.961,-500.5 419.961,-500.5 419.961,-506.5 413.961,-512.5 407.961,-512.5 407.961,-512.5 277.961,-512.5 277.961,-512.5 271.961,-512.5 265.961,-506.5 265.961,-500.5 265.961,-500.5 265.961,-418.5 265.961,-418.5 265.961,-412.5 271.961,-406.5 277.961,-406.5"/>
<text text-anchor="middle" x="342.961" y="-497.3" font-family="Times,serif" font-size="14.00">Factor</text>
<polyline fill="none" stroke="black" points="265.961,-489.5 419.961,-489.5 "/>
<text text-anchor="start" x="273.961" y="-474.3" font-family="Times,serif" font-size="14.00">id :int(11)</text>
<text text-anchor="start" x="273.961" y="-459.3" font-family="Times,serif" font-size="14.00">description :varchar(255)</text>
<text text-anchor="start" x="273.961" y="-444.3" font-family="Times,serif" font-size="14.00">name :varchar(255)</text>
<text text-anchor="start" x="273.961" y="-429.3" font-family="Times,serif" font-size="14.00">created_at :datetime</text>
<text text-anchor="start" x="273.961" y="-414.3" font-family="Times,serif" font-size="14.00">updated_at :datetime</text>
</g>
<!-- FactorPack&#45;&gt;Factor -->
<g id="edge3" class="edge"><title>FactorPack&#45;&gt;Factor</title>
<path fill="none" stroke="#781c86" d="M185.134,-1320.4C198.391,-1221.86 226.214,-1023.76 256.961,-857 278.871,-738.169 310.035,-600.551 328.212,-522.685"/>
<polygon fill="#781c86" stroke="#781c86" points="185.112,-1320.57 179.322,-1329.88 184.447,-1325.53 183.782,-1330.48 183.782,-1330.48 183.782,-1330.48 184.447,-1325.53 188.242,-1331.08 185.112,-1320.57 185.112,-1320.57"/>
<polygon fill="#781c86" stroke="#781c86" points="328.301,-522.302 334.961,-513.59 329.441,-517.434 330.58,-512.565 330.58,-512.565 330.58,-512.565 329.441,-517.434 326.198,-511.54 328.301,-522.302 328.301,-522.302"/>
</g>
<!-- Course -->
<g id="node5" class="node"><title>Course</title>
<path fill="none" stroke="black" d="M419.961,-1668.5C419.961,-1668.5 549.961,-1668.5 549.961,-1668.5 555.961,-1668.5 561.961,-1674.5 561.961,-1680.5 561.961,-1680.5 561.961,-1837.5 561.961,-1837.5 561.961,-1843.5 555.961,-1849.5 549.961,-1849.5 549.961,-1849.5 419.961,-1849.5 419.961,-1849.5 413.961,-1849.5 407.961,-1843.5 407.961,-1837.5 407.961,-1837.5 407.961,-1680.5 407.961,-1680.5 407.961,-1674.5 413.961,-1668.5 419.961,-1668.5"/>
<text text-anchor="middle" x="484.961" y="-1834.3" font-family="Times,serif" font-size="14.00">Course</text>
<polyline fill="none" stroke="black" points="407.961,-1826.5 561.961,-1826.5 "/>
<text text-anchor="start" x="415.961" y="-1811.3" font-family="Times,serif" font-size="14.00">id :int(11)</text>
<text text-anchor="start" x="415.961" y="-1796.3" font-family="Times,serif" font-size="14.00">name :varchar(255)</text>
<text text-anchor="start" x="415.961" y="-1781.3" font-family="Times,serif" font-size="14.00">description :varchar(255)</text>
<text text-anchor="start" x="415.961" y="-1766.3" font-family="Times,serif" font-size="14.00">timezone :varchar(255)</text>
<text text-anchor="start" x="415.961" y="-1751.3" font-family="Times,serif" font-size="14.00">school_id :int(11)</text>
<text text-anchor="start" x="415.961" y="-1736.3" font-family="Times,serif" font-size="14.00">start_date :datetime</text>
<text text-anchor="start" x="415.961" y="-1721.3" font-family="Times,serif" font-size="14.00">end_date :datetime</text>
<text text-anchor="start" x="415.961" y="-1706.3" font-family="Times,serif" font-size="14.00">created_at :datetime</text>
<text text-anchor="start" x="415.961" y="-1691.3" font-family="Times,serif" font-size="14.00">updated_at :datetime</text>
<text text-anchor="start" x="415.961" y="-1676.3" font-family="Times,serif" font-size="14.00">number :varchar(255)</text>
</g>
<!-- Course&#45;&gt;User -->
<g id="edge8" class="edge"><title>Course&#45;&gt;User</title>
<path fill="none" stroke="#d83c25" d="M570.393,-1668.35C570.582,-1668.23 570.772,-1668.12 570.961,-1668 617.645,-1639.24 643.74,-1663.01 688.961,-1632 718.286,-1611.89 745.246,-1586 769.147,-1558.56"/>
<polygon fill="#d83c25" stroke="#d83c25" points="570.278,-1668.43 559.464,-1670.24 566.121,-1671.21 561.964,-1673.98 561.964,-1673.98 561.964,-1673.98 566.121,-1671.21 564.464,-1677.73 570.278,-1668.43 570.278,-1668.43"/>
<polygon fill="#d83c25" stroke="#d83c25" points="769.302,-1558.38 779.224,-1553.71 772.554,-1554.58 775.806,-1550.79 775.806,-1550.79 775.806,-1550.79 772.554,-1554.58 772.388,-1547.86 769.302,-1558.38 769.302,-1558.38"/>
</g>
<!-- Roster -->
<g id="node13" class="node"><title>Roster</title>
<path fill="none" stroke="black" d="M621.461,-917.5C621.461,-917.5 728.461,-917.5 728.461,-917.5 734.461,-917.5 740.461,-923.5 740.461,-929.5 740.461,-929.5 740.461,-1026.5 740.461,-1026.5 740.461,-1032.5 734.461,-1038.5 728.461,-1038.5 728.461,-1038.5 621.461,-1038.5 621.461,-1038.5 615.461,-1038.5 609.461,-1032.5 609.461,-1026.5 609.461,-1026.5 609.461,-929.5 609.461,-929.5 609.461,-923.5 615.461,-917.5 621.461,-917.5"/>
<text text-anchor="middle" x="674.961" y="-1023.3" font-family="Times,serif" font-size="14.00">Roster</text>
<polyline fill="none" stroke="black" points="609.461,-1015.5 740.461,-1015.5 "/>
<text text-anchor="start" x="617.461" y="-1000.3" font-family="Times,serif" font-size="14.00">id :int(11)</text>
<text text-anchor="start" x="617.461" y="-985.3" font-family="Times,serif" font-size="14.00">role_id :int(11)</text>
<text text-anchor="start" x="617.461" y="-970.3" font-family="Times,serif" font-size="14.00">course_id :int(11)</text>
<text text-anchor="start" x="617.461" y="-955.3" font-family="Times,serif" font-size="14.00">user_id :int(11)</text>
<text text-anchor="start" x="617.461" y="-940.3" font-family="Times,serif" font-size="14.00">created_at :datetime</text>
<text text-anchor="start" x="617.461" y="-925.3" font-family="Times,serif" font-size="14.00">updated_at :datetime</text>
</g>
<!-- Course&#45;&gt;Roster -->
<g id="edge6" class="edge"><title>Course&#45;&gt;Roster</title>
<path fill="none" stroke="#8845ea" d="M568.416,-1669.79C569.263,-1669.18 570.111,-1668.59 570.961,-1668 604.72,-1644.69 632.809,-1665.87 655.961,-1632 688.196,-1584.85 681.464,-1207.54 677.132,-1048.89"/>
<ellipse fill="none" stroke="#8845ea" cx="565.176" cy="-1672.21" rx="4.00002" ry="4.00002"/>
<polygon fill="#8845ea" stroke="#8845ea" points="677.128,-1048.75 681.348,-1038.63 676.989,-1043.76 676.85,-1038.76 676.85,-1038.76 676.85,-1038.76 676.989,-1043.76 672.352,-1038.88 677.128,-1048.75 677.128,-1048.75"/>
</g>
<!-- Course&#45;&gt;Project -->
<g id="edge5" class="edge"><title>Course&#45;&gt;Project</title>
<path fill="none" stroke="#aa580e" d="M455.836,-1660.34C453.6,-1650.82 451.585,-1641.26 449.961,-1632 411.69,-1413.8 465.991,-1349.84 411.961,-1135 409.76,-1126.25 407.105,-1117.37 404.136,-1108.51"/>
<ellipse fill="none" stroke="#aa580e" cx="456.823" cy="-1664.43" rx="4.00001" ry="4.00001"/>
<polygon fill="#aa580e" stroke="#aa580e" points="404.085,-1108.37 405.046,-1097.45 402.441,-1103.65 400.796,-1098.93 400.796,-1098.93 400.796,-1098.93 402.441,-1103.65 396.547,-1100.41 404.085,-1108.37 404.085,-1108.37"/>
</g>
<!-- Experience -->
<g id="node33" class="node"><title>Experience</title>
<path fill="none" stroke="black" d="M1376.96,-895C1376.96,-895 1528.96,-895 1528.96,-895 1534.96,-895 1540.96,-901 1540.96,-907 1540.96,-907 1540.96,-1049 1540.96,-1049 1540.96,-1055 1534.96,-1061 1528.96,-1061 1528.96,-1061 1376.96,-1061 1376.96,-1061 1370.96,-1061 1364.96,-1055 1364.96,-1049 1364.96,-1049 1364.96,-907 1364.96,-907 1364.96,-901 1370.96,-895 1376.96,-895"/>
<text text-anchor="middle" x="1452.96" y="-1045.8" font-family="Times,serif" font-size="14.00">Experience</text>
<polyline fill="none" stroke="black" points="1364.96,-1038 1540.96,-1038 "/>
<text text-anchor="start" x="1372.96" y="-1022.8" font-family="Times,serif" font-size="14.00">id :int(11)</text>
<text text-anchor="start" x="1372.96" y="-1007.8" font-family="Times,serif" font-size="14.00">course_id :int(11)</text>
<text text-anchor="start" x="1372.96" y="-992.8" font-family="Times,serif" font-size="14.00">name :varchar(255)</text>
<text text-anchor="start" x="1372.96" y="-977.8" font-family="Times,serif" font-size="14.00">start_date :datetime</text>
<text text-anchor="start" x="1372.96" y="-962.8" font-family="Times,serif" font-size="14.00">end_date :datetime</text>
<text text-anchor="start" x="1372.96" y="-947.8" font-family="Times,serif" font-size="14.00">created_at :datetime</text>
<text text-anchor="start" x="1372.96" y="-932.8" font-family="Times,serif" font-size="14.00">updated_at :datetime</text>
<text text-anchor="start" x="1372.96" y="-917.8" font-family="Times,serif" font-size="14.00">active :tinyint(1)</text>
<text text-anchor="start" x="1372.96" y="-902.8" font-family="Times,serif" font-size="14.00">instructor_updated :tinyint(1)</text>
</g>
<!-- Course&#45;&gt;Experience -->
<g id="edge9" class="edge"><title>Course&#45;&gt;Experience</title>
<path fill="none" stroke="#bcaa15" d="M569.267,-1668.83C569.83,-1668.55 570.395,-1668.27 570.961,-1668 743.181,-1585.65 833.641,-1727.45 998.961,-1632 1220.98,-1503.82 1359.77,-1218.07 1419.27,-1070.74"/>
<ellipse fill="none" stroke="#bcaa15" cx="565.561" cy="-1670.86" rx="4.00002" ry="4.00002"/>
<polygon fill="#bcaa15" stroke="#bcaa15" points="1419.35,-1070.53 1427.25,-1062.92 1421.21,-1065.89 1423.07,-1061.24 1423.07,-1061.24 1423.07,-1061.24 1421.21,-1065.89 1418.89,-1059.57 1419.35,-1070.53 1419.35,-1070.53"/>
</g>
<!-- BingoGame -->
<g id="node34" class="node"><title>BingoGame</title>
<path fill="none" stroke="black" d="M69.9614,-549.5C69.9614,-549.5 197.961,-549.5 197.961,-549.5 203.961,-549.5 209.961,-555.5 209.961,-561.5 209.961,-561.5 209.961,-808.5 209.961,-808.5 209.961,-814.5 203.961,-820.5 197.961,-820.5 197.961,-820.5 69.9614,-820.5 69.9614,-820.5 63.9614,-820.5 57.9614,-814.5 57.9614,-808.5 57.9614,-808.5 57.9614,-561.5 57.9614,-561.5 57.9614,-555.5 63.9614,-549.5 69.9614,-549.5"/>
<text text-anchor="middle" x="133.961" y="-805.3" font-family="Times,serif" font-size="14.00">BingoGame</text>
<polyline fill="none" stroke="black" points="57.9614,-797.5 209.961,-797.5 "/>
<text text-anchor="start" x="65.9614" y="-782.3" font-family="Times,serif" font-size="14.00">id :int(11)</text>
<text text-anchor="start" x="65.9614" y="-767.3" font-family="Times,serif" font-size="14.00">topic :varchar(255)</text>
<text text-anchor="start" x="65.9614" y="-752.3" font-family="Times,serif" font-size="14.00">description :text</text>
<text text-anchor="start" x="65.9614" y="-737.3" font-family="Times,serif" font-size="14.00">link :varchar(255)</text>
<text text-anchor="start" x="65.9614" y="-722.3" font-family="Times,serif" font-size="14.00">source :varchar(255)</text>
<text text-anchor="start" x="65.9614" y="-707.3" font-family="Times,serif" font-size="14.00">group_option :tinyint(1)</text>
<text text-anchor="start" x="65.9614" y="-692.3" font-family="Times,serif" font-size="14.00">individual_count :int(11)</text>
<text text-anchor="start" x="65.9614" y="-677.3" font-family="Times,serif" font-size="14.00">start_date :datetime</text>
<text text-anchor="start" x="65.9614" y="-662.3" font-family="Times,serif" font-size="14.00">end_date :datetime</text>
<text text-anchor="start" x="65.9614" y="-647.3" font-family="Times,serif" font-size="14.00">created_at :datetime</text>
<text text-anchor="start" x="65.9614" y="-632.3" font-family="Times,serif" font-size="14.00">updated_at :datetime</text>
<text text-anchor="start" x="65.9614" y="-617.3" font-family="Times,serif" font-size="14.00">active :tinyint(1)</text>
<text text-anchor="start" x="65.9614" y="-602.3" font-family="Times,serif" font-size="14.00">course_id :int(11)</text>
<text text-anchor="start" x="65.9614" y="-587.3" font-family="Times,serif" font-size="14.00">project_id :int(11)</text>
<text text-anchor="start" x="65.9614" y="-572.3" font-family="Times,serif" font-size="14.00">lead_time :int(11)</text>
<text text-anchor="start" x="65.9614" y="-557.3" font-family="Times,serif" font-size="14.00">group_discount :int(11)</text>
</g>
<!-- Course&#45;&gt;BingoGame -->
<g id="edge7" class="edge"><title>Course&#45;&gt;BingoGame</title>
<path fill="none" stroke="#f60e77" d="M399.884,-1757.03C309.243,-1750.87 169.686,-1725.58 101.961,-1632 -69.3792,-1395.26 12.7757,-1030.92 78.9158,-830.503"/>
<ellipse fill="none" stroke="#f60e77" cx="403.961" cy="-1757.28" rx="4" ry="4"/>
<polygon fill="#f60e77" stroke="#f60e77" points="78.9909,-830.277 86.4206,-822.212 80.5711,-825.534 82.1513,-820.79 82.1513,-820.79 82.1513,-820.79 80.5711,-825.534 77.8819,-819.368 78.9909,-830.277 78.9909,-830.277"/>
</g>
<!-- Style -->
<g id="node6" class="node"><title>Style</title>
<path fill="none" stroke="black" d="M272.961,-1330.5C272.961,-1330.5 390.961,-1330.5 390.961,-1330.5 396.961,-1330.5 402.961,-1336.5 402.961,-1342.5 402.961,-1342.5 402.961,-1424.5 402.961,-1424.5 402.961,-1430.5 396.961,-1436.5 390.961,-1436.5 390.961,-1436.5 272.961,-1436.5 272.961,-1436.5 266.961,-1436.5 260.961,-1430.5 260.961,-1424.5 260.961,-1424.5 260.961,-1342.5 260.961,-1342.5 260.961,-1336.5 266.961,-1330.5 272.961,-1330.5"/>
<text text-anchor="middle" x="331.961" y="-1421.3" font-family="Times,serif" font-size="14.00">Style</text>
<polyline fill="none" stroke="black" points="260.961,-1413.5 402.961,-1413.5 "/>
<text text-anchor="start" x="268.961" y="-1398.3" font-family="Times,serif" font-size="14.00">id :int(11)</text>
<text text-anchor="start" x="268.961" y="-1383.3" font-family="Times,serif" font-size="14.00">name :varchar(255)</text>
<text text-anchor="start" x="268.961" y="-1368.3" font-family="Times,serif" font-size="14.00">filename :varchar(255)</text>
<text text-anchor="start" x="268.961" y="-1353.3" font-family="Times,serif" font-size="14.00">created_at :datetime</text>
<text text-anchor="start" x="268.961" y="-1338.3" font-family="Times,serif" font-size="14.00">updated_at :datetime</text>
</g>
<!-- Style&#45;&gt;Project -->
<g id="edge10" class="edge"><title>Style&#45;&gt;Project</title>
<path fill="none" stroke="#985025" d="M333.609,-1322.08C335.141,-1265.88 337.474,-1180.28 339.427,-1108.65"/>
<ellipse fill="none" stroke="#985025" cx="333.497" cy="-1326.16" rx="4" ry="4"/>
<polygon fill="#985025" stroke="#985025" points="339.427,-1108.64 344.198,-1098.76 339.563,-1103.64 339.7,-1098.64 339.7,-1098.64 339.7,-1098.64 339.563,-1103.64 335.201,-1098.52 339.427,-1108.64 339.427,-1108.64"/>
</g>
<!-- Behavior -->
<g id="node7" class="node"><title>Behavior</title>
<path fill="none" stroke="black" d="M999.461,-406.5C999.461,-406.5 1106.46,-406.5 1106.46,-406.5 1112.46,-406.5 1118.46,-412.5 1118.46,-418.5 1118.46,-418.5 1118.46,-500.5 1118.46,-500.5 1118.46,-506.5 1112.46,-512.5 1106.46,-512.5 1106.46,-512.5 999.461,-512.5 999.461,-512.5 993.461,-512.5 987.461,-506.5 987.461,-500.5 987.461,-500.5 987.461,-418.5 987.461,-418.5 987.461,-412.5 993.461,-406.5 999.461,-406.5"/>
<text text-anchor="middle" x="1052.96" y="-497.3" font-family="Times,serif" font-size="14.00">Behavior</text>
<polyline fill="none" stroke="black" points="987.461,-489.5 1118.46,-489.5 "/>
<text text-anchor="start" x="995.461" y="-474.3" font-family="Times,serif" font-size="14.00">id :int(11)</text>
<text text-anchor="start" x="995.461" y="-459.3" font-family="Times,serif" font-size="14.00">name :varchar(255)</text>
<text text-anchor="start" x="995.461" y="-444.3" font-family="Times,serif" font-size="14.00">description :text</text>
<text text-anchor="start" x="995.461" y="-429.3" font-family="Times,serif" font-size="14.00">created_at :datetime</text>
<text text-anchor="start" x="995.461" y="-414.3" font-family="Times,serif" font-size="14.00">updated_at :datetime</text>
</g>
<!-- Diagnosis -->
<g id="node20" class="node"><title>Diagnosis</title>
<path fill="none" stroke="black" d="M1060.96,-0.5C1060.96,-0.5 1194.96,-0.5 1194.96,-0.5 1200.96,-0.5 1206.96,-6.5 1206.96,-12.5 1206.96,-12.5 1206.96,-139.5 1206.96,-139.5 1206.96,-145.5 1200.96,-151.5 1194.96,-151.5 1194.96,-151.5 1060.96,-151.5 1060.96,-151.5 1054.96,-151.5 1048.96,-145.5 1048.96,-139.5 1048.96,-139.5 1048.96,-12.5 1048.96,-12.5 1048.96,-6.5 1054.96,-0.5 1060.96,-0.5"/>
<text text-anchor="middle" x="1127.96" y="-136.3" font-family="Times,serif" font-size="14.00">Diagnosis</text>
<polyline fill="none" stroke="black" points="1048.96,-128.5 1206.96,-128.5 "/>
<text text-anchor="start" x="1056.96" y="-113.3" font-family="Times,serif" font-size="14.00">id :int(11)</text>
<text text-anchor="start" x="1056.96" y="-98.3" font-family="Times,serif" font-size="14.00">behavior_id :int(11)</text>
<text text-anchor="start" x="1056.96" y="-83.3" font-family="Times,serif" font-size="14.00">reaction_id :int(11)</text>
<text text-anchor="start" x="1056.96" y="-68.3" font-family="Times,serif" font-size="14.00">week_id :int(11)</text>
<text text-anchor="start" x="1056.96" y="-53.3" font-family="Times,serif" font-size="14.00">comment :text</text>
<text text-anchor="start" x="1056.96" y="-38.3" font-family="Times,serif" font-size="14.00">created_at :datetime</text>
<text text-anchor="start" x="1056.96" y="-23.3" font-family="Times,serif" font-size="14.00">updated_at :datetime</text>
<text text-anchor="start" x="1056.96" y="-8.3" font-family="Times,serif" font-size="14.00">other_name :varchar(255)</text>
</g>
<!-- Behavior&#45;&gt;Diagnosis -->
<g id="edge13" class="edge"><title>Behavior&#45;&gt;Diagnosis</title>
<path fill="none" stroke="#5d56a8" d="M1080.41,-398.88C1084.05,-389.365 1087.4,-379.518 1089.96,-370 1108.46,-301.163 1118.07,-220.725 1122.99,-161.564"/>
<ellipse fill="none" stroke="#5d56a8" cx="1078.9" cy="-402.705" rx="4.00001" ry="4.00001"/>
<polygon fill="#5d56a8" stroke="#5d56a8" points="1123,-161.484 1128.29,-151.877 1123.4,-156.5 1123.8,-151.516 1123.8,-151.516 1123.8,-151.516 1123.4,-156.5 1119.32,-151.155 1123,-161.484 1123,-161.484"/>
</g>
<!-- Scenario -->
<g id="node29" class="node"><title>Scenario</title>
<path fill="none" stroke="black" d="M961.461,-226C961.461,-226 1068.46,-226 1068.46,-226 1074.46,-226 1080.46,-232 1080.46,-238 1080.46,-238 1080.46,-320 1080.46,-320 1080.46,-326 1074.46,-332 1068.46,-332 1068.46,-332 961.461,-332 961.461,-332 955.461,-332 949.461,-326 949.461,-320 949.461,-320 949.461,-238 949.461,-238 949.461,-232 955.461,-226 961.461,-226"/>
<text text-anchor="middle" x="1014.96" y="-316.8" font-family="Times,serif" font-size="14.00">Scenario</text>
<polyline fill="none" stroke="black" points="949.461,-309 1080.46,-309 "/>
<text text-anchor="start" x="957.461" y="-293.8" font-family="Times,serif" font-size="14.00">id :int(11)</text>
<text text-anchor="start" x="957.461" y="-278.8" font-family="Times,serif" font-size="14.00">name :varchar(255)</text>
<text text-anchor="start" x="957.461" y="-263.8" font-family="Times,serif" font-size="14.00">behavior_id :int(11)</text>
<text text-anchor="start" x="957.461" y="-248.8" font-family="Times,serif" font-size="14.00">created_at :datetime</text>
<text text-anchor="start" x="957.461" y="-233.8" font-family="Times,serif" font-size="14.00">updated_at :datetime</text>
</g>
<!-- Behavior&#45;&gt;Scenario -->
<g id="edge11" class="edge"><title>Behavior&#45;&gt;Scenario</title>
<path fill="none" stroke="#63a545" d="M1040.15,-398.305C1036.29,-380.207 1032.06,-360.321 1028.18,-342.102"/>
<ellipse fill="none" stroke="#63a545" cx="1041.04" cy="-402.478" rx="4.00001" ry="4.00001"/>
<polygon fill="#63a545" stroke="#63a545" points="1028.15,-341.955 1030.47,-331.237 1027.11,-337.065 1026.07,-332.174 1026.07,-332.174 1026.07,-332.174 1027.11,-337.065 1021.67,-333.111 1028.15,-341.955 1028.15,-341.955"/>
</g>
<!-- Reaction -->
<g id="node30" class="node"><title>Reaction</title>
<path fill="none" stroke="black" d="M1269.96,-188.5C1269.96,-188.5 1403.96,-188.5 1403.96,-188.5 1409.96,-188.5 1415.96,-194.5 1415.96,-200.5 1415.96,-200.5 1415.96,-357.5 1415.96,-357.5 1415.96,-363.5 1409.96,-369.5 1403.96,-369.5 1403.96,-369.5 1269.96,-369.5 1269.96,-369.5 1263.96,-369.5 1257.96,-363.5 1257.96,-357.5 1257.96,-357.5 1257.96,-200.5 1257.96,-200.5 1257.96,-194.5 1263.96,-188.5 1269.96,-188.5"/>
<text text-anchor="middle" x="1336.96" y="-354.3" font-family="Times,serif" font-size="14.00">Reaction</text>
<polyline fill="none" stroke="black" points="1257.96,-346.5 1415.96,-346.5 "/>
<text text-anchor="start" x="1265.96" y="-331.3" font-family="Times,serif" font-size="14.00">id :int(11)</text>
<text text-anchor="start" x="1265.96" y="-316.3" font-family="Times,serif" font-size="14.00">behavior_id :int(11)</text>
<text text-anchor="start" x="1265.96" y="-301.3" font-family="Times,serif" font-size="14.00">narrative_id :int(11)</text>
<text text-anchor="start" x="1265.96" y="-286.3" font-family="Times,serif" font-size="14.00">user_id :int(11)</text>
<text text-anchor="start" x="1265.96" y="-271.3" font-family="Times,serif" font-size="14.00">improvements :text</text>
<text text-anchor="start" x="1265.96" y="-256.3" font-family="Times,serif" font-size="14.00">created_at :datetime</text>
<text text-anchor="start" x="1265.96" y="-241.3" font-family="Times,serif" font-size="14.00">updated_at :datetime</text>
<text text-anchor="start" x="1265.96" y="-226.3" font-family="Times,serif" font-size="14.00">experience_id :int(11)</text>
<text text-anchor="start" x="1265.96" y="-211.3" font-family="Times,serif" font-size="14.00">instructed :tinyint(1)</text>
<text text-anchor="start" x="1265.96" y="-196.3" font-family="Times,serif" font-size="14.00">other_name :varchar(255)</text>
</g>
<!-- Behavior&#45;&gt;Reaction -->
<g id="edge12" class="edge"><title>Behavior&#45;&gt;Reaction</title>
<path fill="none" stroke="#922cd0" d="M1125.39,-412.974C1163.03,-389.322 1209.32,-360.228 1248.99,-335.291"/>
<ellipse fill="none" stroke="#922cd0" cx="1121.86" cy="-415.196" rx="4.00002" ry="4.00002"/>
<polygon fill="#922cd0" stroke="#922cd0" points="1249.41,-335.03 1260.27,-333.518 1253.64,-332.369 1257.87,-329.709 1257.87,-329.709 1257.87,-329.709 1253.64,-332.369 1255.48,-325.899 1249.41,-335.03 1249.41,-335.03"/>
</g>
<!-- CandidateFeedback -->
<g id="node8" class="node"><title>CandidateFeedback</title>
<path fill="none" stroke="black" d="M616.461,-233.5C616.461,-233.5 723.461,-233.5 723.461,-233.5 729.461,-233.5 735.461,-239.5 735.461,-245.5 735.461,-245.5 735.461,-312.5 735.461,-312.5 735.461,-318.5 729.461,-324.5 723.461,-324.5 723.461,-324.5 616.461,-324.5 616.461,-324.5 610.461,-324.5 604.461,-318.5 604.461,-312.5 604.461,-312.5 604.461,-245.5 604.461,-245.5 604.461,-239.5 610.461,-233.5 616.461,-233.5"/>
<text text-anchor="middle" x="669.961" y="-309.3" font-family="Times,serif" font-size="14.00">CandidateFeedback</text>
<polyline fill="none" stroke="black" points="604.461,-301.5 735.461,-301.5 "/>
<text text-anchor="start" x="612.461" y="-286.3" font-family="Times,serif" font-size="14.00">id :int(11)</text>
<text text-anchor="start" x="612.461" y="-271.3" font-family="Times,serif" font-size="14.00">name :varchar(255)</text>
<text text-anchor="start" x="612.461" y="-256.3" font-family="Times,serif" font-size="14.00">created_at :datetime</text>
<text text-anchor="start" x="612.461" y="-241.3" font-family="Times,serif" font-size="14.00">updated_at :datetime</text>
</g>
<!-- Candidate -->
<g id="node25" class="node"><title>Candidate</title>
<path fill="none" stroke="black" d="M277.461,-0.5C277.461,-0.5 438.461,-0.5 438.461,-0.5 444.461,-0.5 450.461,-6.5 450.461,-12.5 450.461,-12.5 450.461,-139.5 450.461,-139.5 450.461,-145.5 444.461,-151.5 438.461,-151.5 438.461,-151.5 277.461,-151.5 277.461,-151.5 271.461,-151.5 265.461,-145.5 265.461,-139.5 265.461,-139.5 265.461,-12.5 265.461,-12.5 265.461,-6.5 271.461,-0.5 277.461,-0.5"/>
<text text-anchor="middle" x="357.961" y="-136.3" font-family="Times,serif" font-size="14.00">Candidate</text>
<polyline fill="none" stroke="black" points="265.461,-128.5 450.461,-128.5 "/>
<text text-anchor="start" x="273.461" y="-113.3" font-family="Times,serif" font-size="14.00">id :int(11)</text>
<text text-anchor="start" x="273.461" y="-98.3" font-family="Times,serif" font-size="14.00">definition :text</text>
<text text-anchor="start" x="273.461" y="-83.3" font-family="Times,serif" font-size="14.00">candidate_list_id :int(11)</text>
<text text-anchor="start" x="273.461" y="-68.3" font-family="Times,serif" font-size="14.00">candidate_feedback_id :int(11)</text>
<text text-anchor="start" x="273.461" y="-53.3" font-family="Times,serif" font-size="14.00">created_at :datetime</text>
<text text-anchor="start" x="273.461" y="-38.3" font-family="Times,serif" font-size="14.00">updated_at :datetime</text>
<text text-anchor="start" x="273.461" y="-23.3" font-family="Times,serif" font-size="14.00">concept_id :int(11)</text>
<text text-anchor="start" x="273.461" y="-8.3" font-family="Times,serif" font-size="14.00">term :varchar(255)</text>
</g>
<!-- CandidateFeedback&#45;&gt;Candidate -->
<g id="edge14" class="edge"><title>CandidateFeedback&#45;&gt;Candidate</title>
<path fill="none" stroke="#77d668" d="M634.53,-226.897C623.305,-213.095 610.102,-198.964 595.961,-188 555.343,-156.507 504.346,-131.226 459.988,-112.793"/>
<ellipse fill="none" stroke="#77d668" cx="637.055" cy="-230.072" rx="4.00002" ry="4.00002"/>
<polygon fill="#77d668" stroke="#77d668" points="459.885,-112.75 452.333,-104.798 455.257,-110.857 450.629,-108.963 450.629,-108.963 450.629,-108.963 455.257,-110.857 448.925,-113.128 459.885,-112.75 459.885,-112.75"/>
</g>
<!-- Installment -->
<g id="node9" class="node"><title>Installment</title>
<path fill="none" stroke="black" d="M765.461,-203.5C765.461,-203.5 880.461,-203.5 880.461,-203.5 886.461,-203.5 892.461,-209.5 892.461,-215.5 892.461,-215.5 892.461,-342.5 892.461,-342.5 892.461,-348.5 886.461,-354.5 880.461,-354.5 880.461,-354.5 765.461,-354.5 765.461,-354.5 759.461,-354.5 753.461,-348.5 753.461,-342.5 753.461,-342.5 753.461,-215.5 753.461,-215.5 753.461,-209.5 759.461,-203.5 765.461,-203.5"/>
<text text-anchor="middle" x="822.961" y="-339.3" font-family="Times,serif" font-size="14.00">Installment</text>
<polyline fill="none" stroke="black" points="753.461,-331.5 892.461,-331.5 "/>
<text text-anchor="start" x="761.461" y="-316.3" font-family="Times,serif" font-size="14.00">id :int(11)</text>
<text text-anchor="start" x="761.461" y="-301.3" font-family="Times,serif" font-size="14.00">inst_date :datetime</text>
<text text-anchor="start" x="761.461" y="-286.3" font-family="Times,serif" font-size="14.00">assessment_id :int(11)</text>
<text text-anchor="start" x="761.461" y="-271.3" font-family="Times,serif" font-size="14.00">user_id :int(11)</text>
<text text-anchor="start" x="761.461" y="-256.3" font-family="Times,serif" font-size="14.00">comments :text</text>
<text text-anchor="start" x="761.461" y="-241.3" font-family="Times,serif" font-size="14.00">group_id :int(11)</text>
<text text-anchor="start" x="761.461" y="-226.3" font-family="Times,serif" font-size="14.00">created_at :datetime</text>
<text text-anchor="start" x="761.461" y="-211.3" font-family="Times,serif" font-size="14.00">updated_at :datetime</text>
</g>
<!-- Value -->
<g id="node28" class="node"><title>Value</title>
<path fill="none" stroke="black" d="M765.461,-8C765.461,-8 880.461,-8 880.461,-8 886.461,-8 892.461,-14 892.461,-20 892.461,-20 892.461,-132 892.461,-132 892.461,-138 886.461,-144 880.461,-144 880.461,-144 765.461,-144 765.461,-144 759.461,-144 753.461,-138 753.461,-132 753.461,-132 753.461,-20 753.461,-20 753.461,-14 759.461,-8 765.461,-8"/>
<text text-anchor="middle" x="822.961" y="-128.8" font-family="Times,serif" font-size="14.00">Value</text>
<polyline fill="none" stroke="black" points="753.461,-121 892.461,-121 "/>
<text text-anchor="start" x="761.461" y="-105.8" font-family="Times,serif" font-size="14.00">id :int(11)</text>
<text text-anchor="start" x="761.461" y="-90.8" font-family="Times,serif" font-size="14.00">value :int(11)</text>
<text text-anchor="start" x="761.461" y="-75.8" font-family="Times,serif" font-size="14.00">user_id :int(11)</text>
<text text-anchor="start" x="761.461" y="-60.8" font-family="Times,serif" font-size="14.00">installment_id :int(11)</text>
<text text-anchor="start" x="761.461" y="-45.8" font-family="Times,serif" font-size="14.00">created_at :datetime</text>
<text text-anchor="start" x="761.461" y="-30.8" font-family="Times,serif" font-size="14.00">updated_at :datetime</text>
<text text-anchor="start" x="761.461" y="-15.8" font-family="Times,serif" font-size="14.00">factor_id :int(11)</text>
</g>
<!-- Installment&#45;&gt;Value -->
<g id="edge15" class="edge"><title>Installment&#45;&gt;Value</title>
<path fill="none" stroke="#b6b9c9" d="M822.961,-195.166C822.961,-181.629 822.961,-167.65 822.961,-154.254"/>
<ellipse fill="none" stroke="#b6b9c9" cx="822.961" cy="-199.441" rx="4" ry="4"/>
<polygon fill="#b6b9c9" stroke="#b6b9c9" points="822.961,-154.141 827.461,-144.141 822.961,-149.141 822.961,-144.141 822.961,-144.141 822.961,-144.141 822.961,-149.141 818.461,-144.141 822.961,-154.141 822.961,-154.141"/>
</g>
<!-- ConsentForm -->
<g id="node10" class="node"><title>ConsentForm</title>
<path fill="none" stroke="black" d="M470.961,-1293C470.961,-1293 634.961,-1293 634.961,-1293 640.961,-1293 646.961,-1299 646.961,-1305 646.961,-1305 646.961,-1462 646.961,-1462 646.961,-1468 640.961,-1474 634.961,-1474 634.961,-1474 470.961,-1474 470.961,-1474 464.961,-1474 458.961,-1468 458.961,-1462 458.961,-1462 458.961,-1305 458.961,-1305 458.961,-1299 464.961,-1293 470.961,-1293"/>
<text text-anchor="middle" x="552.961" y="-1458.8" font-family="Times,serif" font-size="14.00">ConsentForm</text>
<polyline fill="none" stroke="black" points="458.961,-1451 646.961,-1451 "/>
<text text-anchor="start" x="466.961" y="-1435.8" font-family="Times,serif" font-size="14.00">id :int(11)</text>
<text text-anchor="start" x="466.961" y="-1420.8" font-family="Times,serif" font-size="14.00">name :varchar(255)</text>
<text text-anchor="start" x="466.961" y="-1405.8" font-family="Times,serif" font-size="14.00">user_id :int(11)</text>
<text text-anchor="start" x="466.961" y="-1390.8" font-family="Times,serif" font-size="14.00">created_at :datetime</text>
<text text-anchor="start" x="466.961" y="-1375.8" font-family="Times,serif" font-size="14.00">updated_at :datetime</text>
<text text-anchor="start" x="466.961" y="-1360.8" font-family="Times,serif" font-size="14.00">pdf_file_name :varchar(255)</text>
<text text-anchor="start" x="466.961" y="-1345.8" font-family="Times,serif" font-size="14.00">pdf_content_type :varchar(255)</text>
<text text-anchor="start" x="466.961" y="-1330.8" font-family="Times,serif" font-size="14.00">pdf_file_size :int(11)</text>
<text text-anchor="start" x="466.961" y="-1315.8" font-family="Times,serif" font-size="14.00">pdf_updated_at :datetime</text>
<text text-anchor="start" x="466.961" y="-1300.8" font-family="Times,serif" font-size="14.00">form_text :text</text>
</g>
<!-- ConsentForm&#45;&gt;Project -->
<g id="edge16" class="edge"><title>ConsentForm&#45;&gt;Project</title>
<path fill="none" stroke="#707870" d="M514.951,-1285.22C495.724,-1238.87 470.975,-1183.16 444.961,-1135 438.895,-1123.77 432.277,-1112.3 425.42,-1100.92"/>
<ellipse fill="none" stroke="#707870" cx="516.584" cy="-1289.18" rx="4.00001" ry="4.00001"/>
<polygon fill="#707870" stroke="#707870" points="425.339,-1100.79 423.979,-1089.91 422.737,-1096.52 420.136,-1092.25 420.136,-1092.25 420.136,-1092.25 422.737,-1096.52 416.293,-1094.59 425.339,-1100.79 425.339,-1100.79"/>
</g>
<!-- ConsentLog -->
<g id="node27" class="node"><title>ConsentLog</title>
<path fill="none" stroke="black" d="M450.461,-910C450.461,-910 579.461,-910 579.461,-910 585.461,-910 591.461,-916 591.461,-922 591.461,-922 591.461,-1034 591.461,-1034 591.461,-1040 585.461,-1046 579.461,-1046 579.461,-1046 450.461,-1046 450.461,-1046 444.461,-1046 438.461,-1040 438.461,-1034 438.461,-1034 438.461,-922 438.461,-922 438.461,-916 444.461,-910 450.461,-910"/>
<text text-anchor="middle" x="514.961" y="-1030.8" font-family="Times,serif" font-size="14.00">ConsentLog</text>
<polyline fill="none" stroke="black" points="438.461,-1023 591.461,-1023 "/>
<text text-anchor="start" x="446.461" y="-1007.8" font-family="Times,serif" font-size="14.00">id :int(11)</text>
<text text-anchor="start" x="446.461" y="-992.8" font-family="Times,serif" font-size="14.00">accepted :tinyint(1)</text>
<text text-anchor="start" x="446.461" y="-977.8" font-family="Times,serif" font-size="14.00">consent_form_id :int(11)</text>
<text text-anchor="start" x="446.461" y="-962.8" font-family="Times,serif" font-size="14.00">user_id :int(11)</text>
<text text-anchor="start" x="446.461" y="-947.8" font-family="Times,serif" font-size="14.00">created_at :datetime</text>
<text text-anchor="start" x="446.461" y="-932.8" font-family="Times,serif" font-size="14.00">updated_at :datetime</text>
<text text-anchor="start" x="446.461" y="-917.8" font-family="Times,serif" font-size="14.00">presented :tinyint(1)</text>
</g>
<!-- ConsentForm&#45;&gt;ConsentLog -->
<g id="edge17" class="edge"><title>ConsentForm&#45;&gt;ConsentLog</title>
<path fill="none" stroke="#029bf3" d="M543.776,-1284.97C537.163,-1214.75 528.363,-1121.3 522.235,-1056.24"/>
<ellipse fill="none" stroke="#029bf3" cx="544.153" cy="-1288.97" rx="4" ry="4"/>
<polygon fill="#029bf3" stroke="#029bf3" points="522.213,-1056 525.755,-1045.62 521.744,-1051.02 521.275,-1046.04 521.275,-1046.04 521.275,-1046.04 521.744,-1051.02 516.795,-1046.47 522.213,-1056 522.213,-1056"/>
</g>
<!-- User&#45;&gt;Installment -->
<g id="edge23" class="edge"><title>User&#45;&gt;Installment</title>
<path fill="none" stroke="#31828a" d="M878.788,-1126.76C874.701,-961.673 866.669,-742.393 850.961,-549 845.944,-487.228 838.657,-417.643 832.775,-364.724"/>
<ellipse fill="none" stroke="#31828a" cx="878.894" cy="-1131.08" rx="4" ry="4"/>
<polygon fill="#31828a" stroke="#31828a" points="832.766,-364.645 836.128,-354.207 832.211,-359.676 831.656,-354.707 831.656,-354.707 831.656,-354.707 832.211,-359.676 827.184,-355.207 832.766,-364.645 832.766,-364.645"/>
</g>
<!-- User&#45;&gt;Roster -->
<g id="edge24" class="edge"><title>User&#45;&gt;Roster</title>
<path fill="none" stroke="#a29e91" d="M772.141,-1167.52C749.76,-1124.1 727.803,-1081.51 710.438,-1047.82"/>
<ellipse fill="none" stroke="#a29e91" cx="774.082" cy="-1171.28" rx="4.00002" ry="4.00002"/>
<polygon fill="#a29e91" stroke="#a29e91" points="710.248,-1047.45 709.665,-1036.5 707.957,-1043.01 705.666,-1038.56 705.666,-1038.56 705.666,-1038.56 707.957,-1043.01 701.666,-1040.63 710.248,-1047.45 710.248,-1047.45"/>
</g>
<!-- Group -->
<g id="node15" class="node"><title>Group</title>
<path fill="none" stroke="black" d="M645.461,-406.5C645.461,-406.5 752.461,-406.5 752.461,-406.5 758.461,-406.5 764.461,-412.5 764.461,-418.5 764.461,-418.5 764.461,-500.5 764.461,-500.5 764.461,-506.5 758.461,-512.5 752.461,-512.5 752.461,-512.5 645.461,-512.5 645.461,-512.5 639.461,-512.5 633.461,-506.5 633.461,-500.5 633.461,-500.5 633.461,-418.5 633.461,-418.5 633.461,-412.5 639.461,-406.5 645.461,-406.5"/>
<text text-anchor="middle" x="698.961" y="-497.3" font-family="Times,serif" font-size="14.00">Group</text>
<polyline fill="none" stroke="black" points="633.461,-489.5 764.461,-489.5 "/>
<text text-anchor="start" x="641.461" y="-474.3" font-family="Times,serif" font-size="14.00">id :int(11)</text>
<text text-anchor="start" x="641.461" y="-459.3" font-family="Times,serif" font-size="14.00">name :varchar(255)</text>
<text text-anchor="start" x="641.461" y="-444.3" font-family="Times,serif" font-size="14.00">project_id :int(11)</text>
<text text-anchor="start" x="641.461" y="-429.3" font-family="Times,serif" font-size="14.00">created_at :datetime</text>
<text text-anchor="start" x="641.461" y="-414.3" font-family="Times,serif" font-size="14.00">updated_at :datetime</text>
</g>
<!-- User&#45;&gt;Group -->
<g id="edge19" class="edge"><title>User&#45;&gt;Group</title>
<path fill="none" stroke="#dce89d" d="M867.995,-1125C853.638,-884.854 833.117,-561.637 825.961,-549 813.683,-527.316 793.638,-509.73 773.063,-496.117"/>
<polygon fill="#dce89d" stroke="#dce89d" points="868.013,-1125.31 864.118,-1135.56 868.311,-1130.3 868.61,-1135.29 868.61,-1135.29 868.61,-1135.29 868.311,-1130.3 873.102,-1135.02 868.013,-1125.31 868.013,-1125.31"/>
<polygon fill="#dce89d" stroke="#dce89d" points="772.992,-496.073 766.957,-486.917 768.77,-493.395 764.547,-490.717 764.547,-490.717 764.547,-490.717 768.77,-493.395 762.137,-494.517 772.992,-496.073 772.992,-496.073"/>
</g>
<!-- User&#45;&gt;Project -->
<g id="edge22" class="edge"><title>User&#45;&gt;Project</title>
<path fill="none" stroke="#87ba50" d="M768.901,-1225.89C736.204,-1190.91 697.912,-1157.55 655.961,-1135 566.376,-1086.84 516.634,-1152.23 429.961,-1099 429.43,-1098.67 428.901,-1098.34 428.375,-1098.01"/>
<polygon fill="#87ba50" stroke="#87ba50" points="769.019,-1226.02 772.482,-1236.42 772.406,-1229.7 775.792,-1233.37 775.792,-1233.37 775.792,-1233.37 772.406,-1229.7 779.103,-1230.33 769.019,-1226.02 769.019,-1226.02"/>
<polygon fill="#87ba50" stroke="#87ba50" points="428.251,-1097.92 422.616,-1088.51 424.147,-1095.06 420.044,-1092.21 420.044,-1092.21 420.044,-1092.21 424.147,-1095.06 417.473,-1095.9 428.251,-1097.92 428.251,-1097.92"/>
</g>
<!-- Email -->
<g id="node18" class="node"><title>Email</title>
<path fill="none" stroke="black" d="M1119.46,-887.5C1119.46,-887.5 1296.46,-887.5 1296.46,-887.5 1302.46,-887.5 1308.46,-893.5 1308.46,-899.5 1308.46,-899.5 1308.46,-1056.5 1308.46,-1056.5 1308.46,-1062.5 1302.46,-1068.5 1296.46,-1068.5 1296.46,-1068.5 1119.46,-1068.5 1119.46,-1068.5 1113.46,-1068.5 1107.46,-1062.5 1107.46,-1056.5 1107.46,-1056.5 1107.46,-899.5 1107.46,-899.5 1107.46,-893.5 1113.46,-887.5 1119.46,-887.5"/>
<text text-anchor="middle" x="1207.96" y="-1053.3" font-family="Times,serif" font-size="14.00">Email</text>
<polyline fill="none" stroke="black" points="1107.46,-1045.5 1308.46,-1045.5 "/>
<text text-anchor="start" x="1115.46" y="-1030.3" font-family="Times,serif" font-size="14.00">id :int(11)</text>
<text text-anchor="start" x="1115.46" y="-1015.3" font-family="Times,serif" font-size="14.00">user_id :int(11)</text>
<text text-anchor="start" x="1115.46" y="-1000.3" font-family="Times,serif" font-size="14.00">email :varchar(255)</text>
<text text-anchor="start" x="1115.46" y="-985.3" font-family="Times,serif" font-size="14.00">primary :tinyint(1)</text>
<text text-anchor="start" x="1115.46" y="-970.3" font-family="Times,serif" font-size="14.00">confirmation_token :varchar(255)</text>
<text text-anchor="start" x="1115.46" y="-955.3" font-family="Times,serif" font-size="14.00">unconfirmed_email :varchar(255)</text>
<text text-anchor="start" x="1115.46" y="-940.3" font-family="Times,serif" font-size="14.00">confirmed_at :datetime</text>
<text text-anchor="start" x="1115.46" y="-925.3" font-family="Times,serif" font-size="14.00">confirmation_sent_at :datetime</text>
<text text-anchor="start" x="1115.46" y="-910.3" font-family="Times,serif" font-size="14.00">created_at :datetime</text>
<text text-anchor="start" x="1115.46" y="-895.3" font-family="Times,serif" font-size="14.00">updated_at :datetime</text>
</g>
<!-- User&#45;&gt;Email -->
<g id="edge18" class="edge"><title>User&#45;&gt;Email</title>
<path fill="none" stroke="#ccc018" d="M995.122,-1243.25C1039.36,-1188.33 1089.11,-1126.56 1129.38,-1076.56"/>
<ellipse fill="none" stroke="#ccc018" cx="992.563" cy="-1246.43" rx="4.00002" ry="4.00002"/>
<polygon fill="#ccc018" stroke="#ccc018" points="1129.49,-1076.42 1139.27,-1071.46 1132.63,-1072.53 1135.76,-1068.64 1135.76,-1068.64 1135.76,-1068.64 1132.63,-1072.53 1132.26,-1065.81 1129.49,-1076.42 1129.49,-1076.42"/>
</g>
<!-- Narrative -->
<g id="node24" class="node"><title>Narrative</title>
<path fill="none" stroke="black" d="M922.961,-925C922.961,-925 1038.96,-925 1038.96,-925 1044.96,-925 1050.96,-931 1050.96,-937 1050.96,-937 1050.96,-1019 1050.96,-1019 1050.96,-1025 1044.96,-1031 1038.96,-1031 1038.96,-1031 922.961,-1031 922.961,-1031 916.961,-1031 910.961,-1025 910.961,-1019 910.961,-1019 910.961,-937 910.961,-937 910.961,-931 916.961,-925 922.961,-925"/>
<text text-anchor="middle" x="980.961" y="-1015.8" font-family="Times,serif" font-size="14.00">Narrative</text>
<polyline fill="none" stroke="black" points="910.961,-1008 1050.96,-1008 "/>
<text text-anchor="start" x="918.961" y="-992.8" font-family="Times,serif" font-size="14.00">id :int(11)</text>
<text text-anchor="start" x="918.961" y="-977.8" font-family="Times,serif" font-size="14.00">member :varchar(255)</text>
<text text-anchor="start" x="918.961" y="-962.8" font-family="Times,serif" font-size="14.00">scenario_id :int(11)</text>
<text text-anchor="start" x="918.961" y="-947.8" font-family="Times,serif" font-size="14.00">created_at :datetime</text>
<text text-anchor="start" x="918.961" y="-932.8" font-family="Times,serif" font-size="14.00">updated_at :datetime</text>
</g>
<!-- User&#45;&gt;Narrative -->
<g id="edge27" class="edge"><title>User&#45;&gt;Narrative</title>
<path fill="none" stroke="#38d964" d="M945.443,-1125.24C952.97,-1094.25 960.036,-1065.16 965.853,-1041.21"/>
<polygon fill="#38d964" stroke="#38d964" points="945.362,-1125.57 938.629,-1134.23 944.182,-1130.43 943.002,-1135.29 943.002,-1135.29 943.002,-1135.29 944.182,-1130.43 947.375,-1136.35 945.362,-1125.57 945.362,-1125.57"/>
<polygon fill="#38d964" stroke="#38d964" points="965.907,-1040.98 972.64,-1032.33 967.087,-1036.12 968.267,-1031.27 968.267,-1031.27 968.267,-1031.27 967.087,-1036.12 963.894,-1030.2 965.907,-1040.98 965.907,-1040.98"/>
</g>
<!-- User&#45;&gt;ConsentLog -->
<g id="edge20" class="edge"><title>User&#45;&gt;ConsentLog</title>
<path fill="none" stroke="#4d7ce4" d="M770.23,-1247.42C735.413,-1209.16 695.72,-1168.77 655.961,-1135 633.693,-1116.09 622.052,-1119.22 600.961,-1099 587.096,-1085.71 573.979,-1069.92 562.36,-1054.23"/>
<ellipse fill="none" stroke="#4d7ce4" cx="773.09" cy="-1250.58" rx="4.00002" ry="4.00002"/>
<polygon fill="#4d7ce4" stroke="#4d7ce4" points="562.297,-1054.14 560.067,-1043.4 559.361,-1050.09 556.425,-1046.04 556.425,-1046.04 556.425,-1046.04 559.361,-1050.09 552.782,-1048.69 562.297,-1054.14 562.297,-1054.14"/>
</g>
<!-- User&#45;&gt;Reaction -->
<g id="edge25" class="edge"><title>User&#45;&gt;Reaction</title>
<path fill="none" stroke="#f98ba3" d="M996.956,-1134.37C1067.53,-1096.38 1270.8,-1150.49 1317.96,-1099 1365.43,-1047.17 1350.92,-587.114 1341.85,-380.131"/>
<ellipse fill="none" stroke="#f98ba3" cx="993.557" cy="-1136.5" rx="4.00002" ry="4.00002"/>
<polygon fill="#f98ba3" stroke="#f98ba3" points="1341.83,-379.858 1345.89,-369.669 1341.61,-374.863 1341.39,-369.868 1341.39,-369.868 1341.39,-369.868 1341.61,-374.863 1336.9,-370.067 1341.83,-379.858 1341.83,-379.858"/>
</g>
<!-- Assessment -->
<g id="node31" class="node"><title>Assessment</title>
<path fill="none" stroke="black" d="M652.961,-617C652.961,-617 804.961,-617 804.961,-617 810.961,-617 816.961,-623 816.961,-629 816.961,-629 816.961,-741 816.961,-741 816.961,-747 810.961,-753 804.961,-753 804.961,-753 652.961,-753 652.961,-753 646.961,-753 640.961,-747 640.961,-741 640.961,-741 640.961,-629 640.961,-629 640.961,-623 646.961,-617 652.961,-617"/>
<text text-anchor="middle" x="728.961" y="-737.8" font-family="Times,serif" font-size="14.00">Assessment</text>
<polyline fill="none" stroke="black" points="640.961,-730 816.961,-730 "/>
<text text-anchor="start" x="648.961" y="-714.8" font-family="Times,serif" font-size="14.00">id :int(11)</text>
<text text-anchor="start" x="648.961" y="-699.8" font-family="Times,serif" font-size="14.00">end_date :datetime</text>
<text text-anchor="start" x="648.961" y="-684.8" font-family="Times,serif" font-size="14.00">start_date :datetime</text>
<text text-anchor="start" x="648.961" y="-669.8" font-family="Times,serif" font-size="14.00">project_id :int(11)</text>
<text text-anchor="start" x="648.961" y="-654.8" font-family="Times,serif" font-size="14.00">created_at :datetime</text>
<text text-anchor="start" x="648.961" y="-639.8" font-family="Times,serif" font-size="14.00">updated_at :datetime</text>
<text text-anchor="start" x="648.961" y="-624.8" font-family="Times,serif" font-size="14.00">instructor_updated :tinyint(1)</text>
</g>
<!-- User&#45;&gt;Assessment -->
<g id="edge28" class="edge"><title>User&#45;&gt;Assessment</title>
<path fill="none" stroke="#a0656b" d="M835.376,-1125.13C813.085,-1005.96 789.91,-884.563 782.961,-857 775.132,-825.945 764.875,-792.236 755.406,-763.021"/>
<polygon fill="#a0656b" stroke="#a0656b" points="835.416,-1125.34 832.831,-1136 836.335,-1130.26 837.254,-1135.17 837.254,-1135.17 837.254,-1135.17 836.335,-1130.26 841.677,-1134.35 835.416,-1125.34 835.416,-1125.34"/>
<polygon fill="#a0656b" stroke="#a0656b" points="755.335,-762.801 756.508,-751.898 753.782,-758.048 752.23,-753.296 752.23,-753.296 752.23,-753.296 753.782,-758.048 747.952,-754.693 755.335,-762.801 755.335,-762.801"/>
</g>
<!-- CandidateList -->
<g id="node32" class="node"><title>CandidateList</title>
<path fill="none" stroke="black" d="M121.461,-203.5C121.461,-203.5 262.461,-203.5 262.461,-203.5 268.461,-203.5 274.461,-209.5 274.461,-215.5 274.461,-215.5 274.461,-342.5 274.461,-342.5 274.461,-348.5 268.461,-354.5 262.461,-354.5 262.461,-354.5 121.461,-354.5 121.461,-354.5 115.461,-354.5 109.461,-348.5 109.461,-342.5 109.461,-342.5 109.461,-215.5 109.461,-215.5 109.461,-209.5 115.461,-203.5 121.461,-203.5"/>
<text text-anchor="middle" x="191.961" y="-339.3" font-family="Times,serif" font-size="14.00">CandidateList</text>
<polyline fill="none" stroke="black" points="109.461,-331.5 274.461,-331.5 "/>
<text text-anchor="start" x="117.461" y="-316.3" font-family="Times,serif" font-size="14.00">id :int(11)</text>
<text text-anchor="start" x="117.461" y="-301.3" font-family="Times,serif" font-size="14.00">user_id :int(11)</text>
<text text-anchor="start" x="117.461" y="-286.3" font-family="Times,serif" font-size="14.00">group_id :int(11)</text>
<text text-anchor="start" x="117.461" y="-271.3" font-family="Times,serif" font-size="14.00">is_group :tinyint(1)</text>
<text text-anchor="start" x="117.461" y="-256.3" font-family="Times,serif" font-size="14.00">created_at :datetime</text>
<text text-anchor="start" x="117.461" y="-241.3" font-family="Times,serif" font-size="14.00">updated_at :datetime</text>
<text text-anchor="start" x="117.461" y="-226.3" font-family="Times,serif" font-size="14.00">bingo_game_id :int(11)</text>
<text text-anchor="start" x="117.461" y="-211.3" font-family="Times,serif" font-size="14.00">group_requested :tinyint(1)</text>
</g>
<!-- User&#45;&gt;CandidateList -->
<g id="edge21" class="edge"><title>User&#45;&gt;CandidateList</title>
<path fill="none" stroke="#f7e97a" d="M790.254,-1127.24C787.658,-1117.75 785.214,-1108.31 782.961,-1099 770.201,-1046.25 785.138,-898.333 749.961,-857 714.425,-815.244 673.686,-856.573 631.961,-821 475.712,-687.786 588.67,-535.047 428.961,-406 377.313,-364.268 341.949,-402.351 283.961,-370 278.899,-367.176 273.917,-363.999 269.053,-360.571"/>
<ellipse fill="none" stroke="#f7e97a" cx="791.4" cy="-1131.37" rx="4.00001" ry="4.00001"/>
<polygon fill="#f7e97a" stroke="#f7e97a" points="269.013,-360.542 263.664,-350.969 264.997,-357.562 260.982,-354.583 260.982,-354.583 260.982,-354.583 264.997,-357.562 258.301,-358.196 269.013,-360.542 269.013,-360.542"/>
</g>
<!-- User&#45;&gt;Experience -->
<g id="edge26" class="edge"><title>User&#45;&gt;Experience</title>
<path fill="none" stroke="#5e8dc1" d="M998.15,-1281.89C1060.56,-1231.74 1141.09,-1173.69 1220.96,-1135 1274.92,-1108.86 1300.43,-1131.26 1350.96,-1099 1364.01,-1090.67 1376.27,-1080.16 1387.46,-1068.84"/>
<polygon fill="#5e8dc1" stroke="#5e8dc1" points="998.021,-1281.99 987.415,-1284.78 994.133,-1285.14 990.244,-1288.28 990.244,-1288.28 990.244,-1288.28 994.133,-1285.14 993.072,-1291.78 998.021,-1281.99 998.021,-1281.99"/>
<polygon fill="#5e8dc1" stroke="#5e8dc1" points="1387.75,-1068.53 1397.91,-1064.4 1391.2,-1064.91 1394.65,-1061.29 1394.65,-1061.29 1394.65,-1061.29 1391.2,-1064.91 1391.4,-1058.19 1387.75,-1068.53 1387.75,-1068.53"/>
</g>
<!-- Concept -->
<g id="node12" class="node"><title>Concept</title>
<path fill="none" stroke="black" d="M304.461,-233.5C304.461,-233.5 411.461,-233.5 411.461,-233.5 417.461,-233.5 423.461,-239.5 423.461,-245.5 423.461,-245.5 423.461,-312.5 423.461,-312.5 423.461,-318.5 417.461,-324.5 411.461,-324.5 411.461,-324.5 304.461,-324.5 304.461,-324.5 298.461,-324.5 292.461,-318.5 292.461,-312.5 292.461,-312.5 292.461,-245.5 292.461,-245.5 292.461,-239.5 298.461,-233.5 304.461,-233.5"/>
<text text-anchor="middle" x="357.961" y="-309.3" font-family="Times,serif" font-size="14.00">Concept</text>
<polyline fill="none" stroke="black" points="292.461,-301.5 423.461,-301.5 "/>
<text text-anchor="start" x="300.461" y="-286.3" font-family="Times,serif" font-size="14.00">id :int(11)</text>
<text text-anchor="start" x="300.461" y="-271.3" font-family="Times,serif" font-size="14.00">name :varchar(255)</text>
<text text-anchor="start" x="300.461" y="-256.3" font-family="Times,serif" font-size="14.00">created_at :datetime</text>
<text text-anchor="start" x="300.461" y="-241.3" font-family="Times,serif" font-size="14.00">updated_at :datetime</text>
</g>
<!-- Concept&#45;&gt;Candidate -->
<g id="edge29" class="edge"><title>Concept&#45;&gt;Candidate</title>
<path fill="none" stroke="#b6eedf" d="M357.961,-225.325C357.961,-205.956 357.961,-183.497 357.961,-162.007"/>
<ellipse fill="none" stroke="#b6eedf" cx="357.961" cy="-229.392" rx="4" ry="4"/>
<polygon fill="#b6eedf" stroke="#b6eedf" points="357.961,-161.885 362.461,-151.885 357.961,-156.885 357.961,-151.885 357.961,-151.885 357.961,-151.885 357.961,-156.885 353.461,-151.885 357.961,-161.885 357.961,-161.885"/>
</g>
<!-- School -->
<g id="node14" class="node"><title>School</title>
<path fill="none" stroke="black" d="M419.961,-1886.5C419.961,-1886.5 549.961,-1886.5 549.961,-1886.5 555.961,-1886.5 561.961,-1892.5 561.961,-1898.5 561.961,-1898.5 561.961,-1980.5 561.961,-1980.5 561.961,-1986.5 555.961,-1992.5 549.961,-1992.5 549.961,-1992.5 419.961,-1992.5 419.961,-1992.5 413.961,-1992.5 407.961,-1986.5 407.961,-1980.5 407.961,-1980.5 407.961,-1898.5 407.961,-1898.5 407.961,-1892.5 413.961,-1886.5 419.961,-1886.5"/>
<text text-anchor="middle" x="484.961" y="-1977.3" font-family="Times,serif" font-size="14.00">School</text>
<polyline fill="none" stroke="black" points="407.961,-1969.5 561.961,-1969.5 "/>
<text text-anchor="start" x="415.961" y="-1954.3" font-family="Times,serif" font-size="14.00">id :int(11)</text>
<text text-anchor="start" x="415.961" y="-1939.3" font-family="Times,serif" font-size="14.00">description :varchar(255)</text>
<text text-anchor="start" x="415.961" y="-1924.3" font-family="Times,serif" font-size="14.00">name :varchar(255)</text>
<text text-anchor="start" x="415.961" y="-1909.3" font-family="Times,serif" font-size="14.00">created_at :datetime</text>
<text text-anchor="start" x="415.961" y="-1894.3" font-family="Times,serif" font-size="14.00">updated_at :datetime</text>
</g>
<!-- School&#45;&gt;Course -->
<g id="edge30" class="edge"><title>School&#45;&gt;Course</title>
<path fill="none" stroke="#be06e1" d="M484.961,-1878.13C484.961,-1872.28 484.961,-1866.23 484.961,-1860.12"/>
<ellipse fill="none" stroke="#be06e1" cx="484.961" cy="-1882.39" rx="4" ry="4"/>
<polygon fill="#be06e1" stroke="#be06e1" points="484.961,-1859.79 489.461,-1849.79 484.961,-1854.79 484.961,-1849.79 484.961,-1849.79 484.961,-1849.79 484.961,-1854.79 480.461,-1849.79 484.961,-1859.79 484.961,-1859.79"/>
</g>
<!-- Group&#45;&gt;Installment -->
<g id="edge33" class="edge"><title>Group&#45;&gt;Installment</title>
<path fill="none" stroke="#e1d13c" d="M739.972,-399.465C748.051,-387.834 756.671,-375.427 765.183,-363.173"/>
<ellipse fill="none" stroke="#e1d13c" cx="737.443" cy="-403.105" rx="4.00002" ry="4.00002"/>
<polygon fill="#e1d13c" stroke="#e1d13c" points="765.346,-362.938 774.747,-357.293 768.199,-358.832 771.051,-354.725 771.051,-354.725 771.051,-354.725 768.199,-358.832 767.356,-352.158 765.346,-362.938 765.346,-362.938"/>
</g>
<!-- GroupRevision -->
<g id="node26" class="node"><title>GroupRevision</title>
<path fill="none" stroke="black" d="M453.461,-218.5C453.461,-218.5 574.461,-218.5 574.461,-218.5 580.461,-218.5 586.461,-224.5 586.461,-230.5 586.461,-230.5 586.461,-327.5 586.461,-327.5 586.461,-333.5 580.461,-339.5 574.461,-339.5 574.461,-339.5 453.461,-339.5 453.461,-339.5 447.461,-339.5 441.461,-333.5 441.461,-327.5 441.461,-327.5 441.461,-230.5 441.461,-230.5 441.461,-224.5 447.461,-218.5 453.461,-218.5"/>
<text text-anchor="middle" x="513.961" y="-324.3" font-family="Times,serif" font-size="14.00">GroupRevision</text>
<polyline fill="none" stroke="black" points="441.461,-316.5 586.461,-316.5 "/>
<text text-anchor="start" x="449.461" y="-301.3" font-family="Times,serif" font-size="14.00">id :int(11)</text>
<text text-anchor="start" x="449.461" y="-286.3" font-family="Times,serif" font-size="14.00">group_id :int(11)</text>
<text text-anchor="start" x="449.461" y="-271.3" font-family="Times,serif" font-size="14.00">name :varchar(255)</text>
<text text-anchor="start" x="449.461" y="-256.3" font-family="Times,serif" font-size="14.00">members :varchar(255)</text>
<text text-anchor="start" x="449.461" y="-241.3" font-family="Times,serif" font-size="14.00">created_at :datetime</text>
<text text-anchor="start" x="449.461" y="-226.3" font-family="Times,serif" font-size="14.00">updated_at :datetime</text>
</g>
<!-- Group&#45;&gt;GroupRevision -->
<g id="edge31" class="edge"><title>Group&#45;&gt;GroupRevision</title>
<path fill="none" stroke="#b24878" d="M629.463,-400.816C618.056,-390.774 606.521,-380.256 595.961,-370 588.416,-362.671 580.705,-354.79 573.178,-346.849"/>
<ellipse fill="none" stroke="#b24878" cx="632.77" cy="-403.708" rx="4.00002" ry="4.00002"/>
<polygon fill="#b24878" stroke="#b24878" points="573.173,-346.843 569.609,-336.473 569.751,-343.198 566.328,-339.553 566.328,-339.553 566.328,-339.553 569.751,-343.198 563.047,-342.634 573.173,-346.843 573.173,-346.843"/>
</g>
<!-- Group&#45;&gt;CandidateList -->
<g id="edge32" class="edge"><title>Group&#45;&gt;CandidateList</title>
<path fill="none" stroke="#4db137" d="M625.978,-419.618C613.87,-414.355 601.251,-409.552 588.961,-406 457.833,-368.095 407.109,-428.873 283.961,-370 278.273,-367.28 272.721,-364.067 267.344,-360.501"/>
<ellipse fill="none" stroke="#4db137" cx="629.79" cy="-421.319" rx="4.00002" ry="4.00002"/>
<polygon fill="#4db137" stroke="#4db137" points="267.207,-360.405 261.643,-350.955 263.126,-357.517 259.044,-354.629 259.044,-354.629 259.044,-354.629 263.126,-357.517 256.445,-358.302 267.207,-360.405 267.207,-360.405"/>
</g>
<!-- Project&#45;&gt;Group -->
<g id="edge34" class="edge"><title>Project&#45;&gt;Group</title>
<path fill="none" stroke="#04c802" d="M424.663,-852.192C481.604,-766.163 559.967,-649.641 631.961,-549 638.552,-539.787 645.648,-530.139 652.671,-520.741"/>
<ellipse fill="none" stroke="#04c802" cx="422.291" cy="-855.777" rx="4.00002" ry="4.00002"/>
<polygon fill="#04c802" stroke="#04c802" points="652.805,-520.562 662.408,-515.266 655.807,-516.563 658.809,-512.564 658.809,-512.564 658.809,-512.564 655.807,-516.563 655.21,-509.863 652.805,-520.562 652.805,-520.562"/>
</g>
<!-- Project&#45;&gt;Factor -->
<g id="edge37" class="edge"><title>Project&#45;&gt;Factor</title>
<path fill="none" stroke="#6c39f5" d="M342.961,-847.189C342.961,-743.586 342.961,-602.985 342.961,-522.996"/>
<polygon fill="#6c39f5" stroke="#6c39f5" points="342.961,-847.206 338.461,-857.206 342.961,-852.206 342.961,-857.206 342.961,-857.206 342.961,-857.206 342.961,-852.206 347.461,-857.206 342.961,-847.206 342.961,-847.206"/>
<polygon fill="#6c39f5" stroke="#6c39f5" points="342.961,-522.598 347.461,-512.598 342.961,-517.598 342.961,-512.598 342.961,-512.598 342.961,-512.598 342.961,-517.598 338.461,-512.598 342.961,-522.598 342.961,-522.598"/>
</g>
<!-- Project&#45;&gt;Assessment -->
<g id="edge36" class="edge"><title>Project&#45;&gt;Assessment</title>
<path fill="none" stroke="#bac1df" d="M426.824,-859.045C427.861,-858.346 428.907,-857.664 429.961,-857 505.271,-809.562 551.187,-867.692 626.961,-821 650.794,-806.314 671.017,-783.855 687.016,-761.445"/>
<ellipse fill="none" stroke="#bac1df" cx="423.351" cy="-861.553" rx="4.00002" ry="4.00002"/>
<polygon fill="#bac1df" stroke="#bac1df" points="687.027,-761.428 696.418,-755.766 689.873,-757.316 692.718,-753.205 692.718,-753.205 692.718,-753.205 689.873,-757.316 689.018,-750.644 687.027,-761.428 687.027,-761.428"/>
</g>
<!-- Project&#45;&gt;BingoGame -->
<g id="edge35" class="edge"><title>Project&#45;&gt;BingoGame</title>
<path fill="none" stroke="#f3aa14" d="M261.03,-862.923C246.243,-842.334 230.823,-820.864 216.031,-800.27"/>
<ellipse fill="none" stroke="#f3aa14" cx="263.398" cy="-866.22" rx="4.00002" ry="4.00002"/>
<polygon fill="#f3aa14" stroke="#f3aa14" points="216.011,-800.241 213.832,-789.494 213.094,-796.18 210.177,-792.119 210.177,-792.119 210.177,-792.119 213.094,-796.18 206.522,-794.744 216.011,-800.241 216.011,-800.241"/>
</g>
<!-- Gender -->
<g id="node17" class="node"><title>Gender</title>
<path fill="none" stroke="black" d="M1257.46,-1713.5C1257.46,-1713.5 1364.46,-1713.5 1364.46,-1713.5 1370.46,-1713.5 1376.46,-1719.5 1376.46,-1725.5 1376.46,-1725.5 1376.46,-1792.5 1376.46,-1792.5 1376.46,-1798.5 1370.46,-1804.5 1364.46,-1804.5 1364.46,-1804.5 1257.46,-1804.5 1257.46,-1804.5 1251.46,-1804.5 1245.46,-1798.5 1245.46,-1792.5 1245.46,-1792.5 1245.46,-1725.5 1245.46,-1725.5 1245.46,-1719.5 1251.46,-1713.5 1257.46,-1713.5"/>
<text text-anchor="middle" x="1310.96" y="-1789.3" font-family="Times,serif" font-size="14.00">Gender</text>
<polyline fill="none" stroke="black" points="1245.46,-1781.5 1376.46,-1781.5 "/>
<text text-anchor="start" x="1253.46" y="-1766.3" font-family="Times,serif" font-size="14.00">id :int(11)</text>
<text text-anchor="start" x="1253.46" y="-1751.3" font-family="Times,serif" font-size="14.00">name :varchar(255)</text>
<text text-anchor="start" x="1253.46" y="-1736.3" font-family="Times,serif" font-size="14.00">created_at :datetime</text>
<text text-anchor="start" x="1253.46" y="-1721.3" font-family="Times,serif" font-size="14.00">updated_at :datetime</text>
</g>
<!-- Gender&#45;&gt;User -->
<g id="edge38" class="edge"><title>Gender&#45;&gt;User</title>
<path fill="none" stroke="#c504e6" d="M1272.1,-1706.98C1261.24,-1693.8 1249.09,-1679.97 1236.96,-1668 1162.5,-1594.5 1069.97,-1520.92 998.18,-1467.14"/>
<ellipse fill="none" stroke="#c504e6" cx="1274.79" cy="-1710.28" rx="4.00002" ry="4.00002"/>
<polygon fill="#c504e6" stroke="#c504e6" points="997.987,-1467 992.667,-1457.41 993.981,-1464.01 989.974,-1461.02 989.974,-1461.02 989.974,-1461.02 993.981,-1464.01 987.282,-1464.62 997.987,-1467 997.987,-1467"/>
</g>
<!-- AgeRange -->
<g id="node19" class="node"><title>AgeRange</title>
<path fill="none" stroke="black" d="M1406.46,-1713.5C1406.46,-1713.5 1513.46,-1713.5 1513.46,-1713.5 1519.46,-1713.5 1525.46,-1719.5 1525.46,-1725.5 1525.46,-1725.5 1525.46,-1792.5 1525.46,-1792.5 1525.46,-1798.5 1519.46,-1804.5 1513.46,-1804.5 1513.46,-1804.5 1406.46,-1804.5 1406.46,-1804.5 1400.46,-1804.5 1394.46,-1798.5 1394.46,-1792.5 1394.46,-1792.5 1394.46,-1725.5 1394.46,-1725.5 1394.46,-1719.5 1400.46,-1713.5 1406.46,-1713.5"/>
<text text-anchor="middle" x="1459.96" y="-1789.3" font-family="Times,serif" font-size="14.00">AgeRange</text>
<polyline fill="none" stroke="black" points="1394.46,-1781.5 1525.46,-1781.5 "/>
<text text-anchor="start" x="1402.46" y="-1766.3" font-family="Times,serif" font-size="14.00">id :int(11)</text>
<text text-anchor="start" x="1402.46" y="-1751.3" font-family="Times,serif" font-size="14.00">name :varchar(255)</text>
<text text-anchor="start" x="1402.46" y="-1736.3" font-family="Times,serif" font-size="14.00">created_at :datetime</text>
<text text-anchor="start" x="1402.46" y="-1721.3" font-family="Times,serif" font-size="14.00">updated_at :datetime</text>
</g>
<!-- AgeRange&#45;&gt;User -->
<g id="edge39" class="edge"><title>AgeRange&#45;&gt;User</title>
<path fill="none" stroke="#c592bb" d="M1423.34,-1706.81C1412.25,-1693.26 1399.41,-1679.28 1385.96,-1668 1266.47,-1567.77 1106.42,-1484.65 999.255,-1434.87"/>
<ellipse fill="none" stroke="#c592bb" cx="1426.14" cy="-1710.29" rx="4.00002" ry="4.00002"/>
<polygon fill="#c592bb" stroke="#c592bb" points="999.099,-1434.8 991.91,-1426.52 994.561,-1432.7 990.022,-1430.6 990.022,-1430.6 990.022,-1430.6 994.561,-1432.7 988.134,-1434.69 999.099,-1434.8 999.099,-1434.8"/>
</g>
<!-- Diagnosis&#45;&gt;User -->
<g id="edge40" class="edge"><title>Diagnosis&#45;&gt;User</title>
<path fill="none" stroke="#14888c" d="M1129,-159.899C1129.86,-247.618 1130.55,-390.077 1127.96,-513 1125.07,-649.98 1146.22,-687.604 1114.96,-821 1110.97,-838.047 1103.95,-840.217 1098.96,-857 1067.91,-961.425 1122.59,-1009.85 1059.96,-1099 1042.31,-1124.12 1020.65,-1112.67 995.706,-1134.89"/>
<ellipse fill="none" stroke="#14888c" cx="1128.96" cy="-155.845" rx="4" ry="4"/>
<ellipse fill="#14888c" stroke="#14888c" cx="992.835" cy="-1137.73" rx="4.00002" ry="4.00002"/>
</g>
<!-- CipCode -->
<g id="node22" class="node"><title>CipCode</title>
<path fill="none" stroke="black" d="M763.961,-1706C763.961,-1706 893.961,-1706 893.961,-1706 899.961,-1706 905.961,-1712 905.961,-1718 905.961,-1718 905.961,-1800 905.961,-1800 905.961,-1806 899.961,-1812 893.961,-1812 893.961,-1812 763.961,-1812 763.961,-1812 757.961,-1812 751.961,-1806 751.961,-1800 751.961,-1800 751.961,-1718 751.961,-1718 751.961,-1712 757.961,-1706 763.961,-1706"/>
<text text-anchor="middle" x="828.961" y="-1796.8" font-family="Times,serif" font-size="14.00">CipCode</text>
<polyline fill="none" stroke="black" points="751.961,-1789 905.961,-1789 "/>
<text text-anchor="start" x="759.961" y="-1773.8" font-family="Times,serif" font-size="14.00">id :int(11)</text>
<text text-anchor="start" x="759.961" y="-1758.8" font-family="Times,serif" font-size="14.00">gov_code :int(11)</text>
<text text-anchor="start" x="759.961" y="-1743.8" font-family="Times,serif" font-size="14.00">description :varchar(255)</text>
<text text-anchor="start" x="759.961" y="-1728.8" font-family="Times,serif" font-size="14.00">created_at :datetime</text>
<text text-anchor="start" x="759.961" y="-1713.8" font-family="Times,serif" font-size="14.00">updated_at :datetime</text>
</g>
<!-- CipCode&#45;&gt;User -->
<g id="edge41" class="edge"><title>CipCode&#45;&gt;User</title>
<path fill="none" stroke="#8dc84b" d="M837.69,-1697.63C840.085,-1681.06 842.841,-1662 845.787,-1641.63"/>
<ellipse fill="none" stroke="#8dc84b" cx="837.099" cy="-1701.71" rx="4.00001" ry="4.00001"/>
<polygon fill="#8dc84b" stroke="#8dc84b" points="845.816,-1641.42 851.701,-1632.17 846.531,-1636.47 847.247,-1631.53 847.247,-1631.53 847.247,-1631.53 846.531,-1636.47 842.793,-1630.88 845.816,-1641.42 845.816,-1641.42"/>
</g>
<!-- Week -->
<g id="node23" class="node"><title>Week</title>
<path fill="none" stroke="black" d="M961.461,-624.5C961.461,-624.5 1068.46,-624.5 1068.46,-624.5 1074.46,-624.5 1080.46,-630.5 1080.46,-636.5 1080.46,-636.5 1080.46,-733.5 1080.46,-733.5 1080.46,-739.5 1074.46,-745.5 1068.46,-745.5 1068.46,-745.5 961.461,-745.5 961.461,-745.5 955.461,-745.5 949.461,-739.5 949.461,-733.5 949.461,-733.5 949.461,-636.5 949.461,-636.5 949.461,-630.5 955.461,-624.5 961.461,-624.5"/>
<text text-anchor="middle" x="1014.96" y="-730.3" font-family="Times,serif" font-size="14.00">Week</text>
<polyline fill="none" stroke="black" points="949.461,-722.5 1080.46,-722.5 "/>
<text text-anchor="start" x="957.461" y="-707.3" font-family="Times,serif" font-size="14.00">id :int(11)</text>
<text text-anchor="start" x="957.461" y="-692.3" font-family="Times,serif" font-size="14.00">narrative_id :int(11)</text>
<text text-anchor="start" x="957.461" y="-677.3" font-family="Times,serif" font-size="14.00">week_num :int(11)</text>
<text text-anchor="start" x="957.461" y="-662.3" font-family="Times,serif" font-size="14.00">text :text</text>
<text text-anchor="start" x="957.461" y="-647.3" font-family="Times,serif" font-size="14.00">created_at :datetime</text>
<text text-anchor="start" x="957.461" y="-632.3" font-family="Times,serif" font-size="14.00">updated_at :datetime</text>
</g>
<!-- Week&#45;&gt;Behavior -->
<g id="edge42" class="edge"><title>Week&#45;&gt;Behavior</title>
<path fill="none" stroke="#c6ee91" d="M1026.51,-616.097C1031.67,-585.737 1037.7,-550.246 1042.7,-520.832"/>
<ellipse fill="none" stroke="#c6ee91" cx="1025.77" cy="-620.456" rx="4.00001" ry="4.00001"/>
<ellipse fill="#c6ee91" stroke="#c6ee91" cx="1043.41" cy="-516.65" rx="4.00001" ry="4.00001"/>
</g>
<!-- Week&#45;&gt;Diagnosis -->
<g id="edge43" class="edge"><title>Week&#45;&gt;Diagnosis</title>
<path fill="none" stroke="#45bac5" d="M979.721,-616.849C932.435,-516.644 862.902,-325.11 940.961,-188 962.314,-150.495 1001.88,-124.352 1039.14,-106.902"/>
<ellipse fill="none" stroke="#45bac5" cx="981.505" cy="-620.587" rx="4.00002" ry="4.00002"/>
<polygon fill="#45bac5" stroke="#45bac5" points="1039.44,-106.768 1050.41,-106.752 1044,-104.709 1048.55,-102.651 1048.55,-102.651 1048.55,-102.651 1044,-104.709 1046.7,-98.5501 1039.44,-106.768 1039.44,-106.768"/>
</g>
<!-- Narrative&#45;&gt;Behavior -->
<g id="edge45" class="edge"><title>Narrative&#45;&gt;Behavior</title>
<path fill="none" stroke="#8c72b7" d="M1022.2,-918.09C1053.01,-874.053 1089.85,-821.367 1089.96,-821 1126.26,-705.688 1113.74,-667.527 1089.96,-549 1088.07,-539.56 1085.14,-529.871 1081.75,-520.526"/>
<ellipse fill="none" stroke="#8c72b7" cx="1019.8" cy="-921.518" rx="4.00002" ry="4.00002"/>
<ellipse fill="#8c72b7" stroke="#8c72b7" cx="1080.22" cy="-516.509" rx="4.00001" ry="4.00001"/>
</g>
<!-- Narrative&#45;&gt;Week -->
<g id="edge44" class="edge"><title>Narrative&#45;&gt;Week</title>
<path fill="none" stroke="#53c7d8" d="M987.995,-916.8C993.466,-869.977 1001.07,-804.934 1006.8,-755.826"/>
<ellipse fill="none" stroke="#53c7d8" cx="987.504" cy="-921.002" rx="4.00001" ry="4.00001"/>
<polygon fill="#53c7d8" stroke="#53c7d8" points="1006.84,-755.534 1012.47,-746.124 1007.42,-750.568 1008,-745.601 1008,-745.601 1008,-745.601 1007.42,-750.568 1003.53,-745.079 1006.84,-755.534 1006.84,-755.534"/>
</g>
<!-- Narrative&#45;&gt;Reaction -->
<g id="edge46" class="edge"><title>Narrative&#45;&gt;Reaction</title>
<path fill="none" stroke="#379139" d="M1039.05,-918.549C1064.63,-890.655 1093.64,-855.816 1114.96,-821 1203.2,-676.937 1270.52,-491.583 1306.84,-379.483"/>
<ellipse fill="none" stroke="#379139" cx="1036.03" cy="-921.819" rx="4.00002" ry="4.00002"/>
<polygon fill="#379139" stroke="#379139" points="1306.87,-379.39 1314.22,-371.251 1308.4,-374.63 1309.94,-369.871 1309.94,-369.871 1309.94,-369.871 1308.4,-374.63 1305.65,-368.492 1306.87,-379.39 1306.87,-379.39"/>
</g>
<!-- Scenario&#45;&gt;Narrative -->
<g id="edge47" class="edge"><title>Scenario&#45;&gt;Narrative</title>
<path fill="none" stroke="#476eed" d="M997.599,-339.91C991.609,-360.8 984.913,-384.413 978.961,-406 961.483,-469.396 949.478,-483.792 940.961,-549 925.306,-668.871 925.829,-701.062 940.961,-821 944.937,-852.514 953.262,-886.779 961.292,-915.148"/>
<ellipse fill="none" stroke="#476eed" cx="998.752" cy="-335.891" rx="4.00001" ry="4.00001"/>
<polygon fill="#476eed" stroke="#476eed" points="961.34,-915.314 959.789,-926.17 962.726,-920.118 964.113,-924.922 964.113,-924.922 964.113,-924.922 962.726,-920.118 968.436,-923.675 961.34,-915.314 961.34,-915.314"/>
</g>
<!-- Reaction&#45;&gt;Diagnosis -->
<g id="edge48" class="edge"><title>Reaction&#45;&gt;Diagnosis</title>
<path fill="none" stroke="#9752eb" d="M1251.9,-196.191C1239.12,-183.907 1225.95,-171.236 1213.17,-158.949"/>
<ellipse fill="none" stroke="#9752eb" cx="1255.06" cy="-199.238" rx="4.00002" ry="4.00002"/>
<polygon fill="#9752eb" stroke="#9752eb" points="1212.91,-158.696 1208.82,-148.521 1209.31,-155.231 1205.7,-151.765 1205.7,-151.765 1205.7,-151.765 1209.31,-155.231 1202.58,-155.008 1212.91,-158.696 1212.91,-158.696"/>
</g>
<!-- Assessment&#45;&gt;Installment -->
<g id="edge49" class="edge"><title>Assessment&#45;&gt;Installment</title>
<path fill="none" stroke="#a165b4" d="M749.587,-608.922C757.541,-579.142 766.501,-544.537 773.961,-513 785.551,-464.009 797.204,-408.898 806.236,-364.577"/>
<ellipse fill="none" stroke="#a165b4" cx="748.516" cy="-612.921" rx="4.00001" ry="4.00001"/>
<polygon fill="#a165b4" stroke="#a165b4" points="806.249,-364.514 812.649,-355.61 807.244,-359.614 808.239,-354.714 808.239,-354.714 808.239,-354.714 807.244,-359.614 803.829,-353.818 806.249,-364.514 806.249,-364.514"/>
</g>
<!-- Assessment&#45;&gt;Group -->
<g id="edge51" class="edge"><title>Assessment&#45;&gt;Group</title>
<path fill="none" stroke="#6b8bad" d="M718.623,-606.98C714.93,-579.469 710.819,-548.841 707.315,-522.733"/>
<polygon fill="#6b8bad" stroke="#6b8bad" points="718.63,-607.032 715.5,-617.541 719.295,-611.987 719.96,-616.943 719.96,-616.943 719.96,-616.943 719.295,-611.987 724.42,-616.344 718.63,-607.032 718.63,-607.032"/>
<polygon fill="#6b8bad" stroke="#6b8bad" points="707.284,-522.503 710.414,-511.994 706.619,-517.548 705.954,-512.592 705.954,-512.592 705.954,-512.592 706.619,-517.548 701.494,-513.191 707.284,-522.503 707.284,-522.503"/>
</g>
<!-- Assessment&#45;&gt;Factor -->
<g id="edge50" class="edge"><title>Assessment&#45;&gt;Factor</title>
<path fill="none" stroke="#1a99d6" d="M632.185,-627.965C569.71,-591.791 489.158,-545.15 428.937,-510.281"/>
<polygon fill="#1a99d6" stroke="#1a99d6" points="632.235,-627.994 638.634,-636.899 636.562,-630.499 640.889,-633.005 640.889,-633.005 640.889,-633.005 636.562,-630.499 643.144,-629.11 632.235,-627.994 632.235,-627.994"/>
<polygon fill="#1a99d6" stroke="#1a99d6" points="428.857,-510.235 422.458,-501.33 424.53,-507.73 420.203,-505.224 420.203,-505.224 420.203,-505.224 424.53,-507.73 417.949,-509.119 428.857,-510.235 428.857,-510.235"/>
</g>
<!-- CandidateList&#45;&gt;Candidate -->
<g id="edge52" class="edge"><title>CandidateList&#45;&gt;Candidate</title>
<path fill="none" stroke="#cd7ead" d="M258.8,-197.069C268.936,-184.796 279.407,-172.117 289.576,-159.805"/>
<ellipse fill="none" stroke="#cd7ead" cx="256.085" cy="-200.356" rx="4.00002" ry="4.00002"/>
<polygon fill="#cd7ead" stroke="#cd7ead" points="289.84,-159.485 299.677,-154.64 293.024,-155.629 296.208,-151.774 296.208,-151.774 296.208,-151.774 293.024,-155.629 292.738,-148.909 289.84,-159.485 289.84,-159.485"/>
</g>
<!-- Experience&#45;&gt;Reaction -->
<g id="edge53" class="edge"><title>Experience&#45;&gt;Reaction</title>
<path fill="none" stroke="#e1eee9" d="M1450.61,-886.824C1445.89,-773.09 1431.69,-572.292 1388.96,-406 1386.71,-397.247 1383.98,-388.302 1380.95,-379.417"/>
<ellipse fill="none" stroke="#e1eee9" cx="1450.78" cy="-890.864" rx="4" ry="4"/>
<polygon fill="#e1eee9" stroke="#e1eee9" points="1380.89,-379.241 1381.81,-368.314 1379.23,-374.526 1377.56,-369.811 1377.56,-369.811 1377.56,-369.811 1379.23,-374.526 1373.32,-371.308 1380.89,-379.241 1380.89,-379.241"/>
</g>
<!-- BingoGame&#45;&gt;CandidateList -->
<g id="edge54" class="edge"><title>BingoGame&#45;&gt;CandidateList</title>
<path fill="none" stroke="#3ca3c9" d="M154.429,-541.43C162.918,-482.3 172.478,-415.712 179.825,-364.538"/>
<ellipse fill="none" stroke="#3ca3c9" cx="153.843" cy="-545.514" rx="4.00001" ry="4.00001"/>
<polygon fill="#3ca3c9" stroke="#3ca3c9" points="179.842,-364.414 185.718,-355.155 180.553,-359.465 181.264,-354.515 181.264,-354.515 181.264,-354.515 180.553,-359.465 176.809,-353.876 179.842,-364.414 179.842,-364.414"/>
</g>
<!-- Role -->
<g id="node35" class="node"><title>Role</title>
<path fill="none" stroke="black" d="M591.961,-1706C591.961,-1706 721.961,-1706 721.961,-1706 727.961,-1706 733.961,-1712 733.961,-1718 733.961,-1718 733.961,-1800 733.961,-1800 733.961,-1806 727.961,-1812 721.961,-1812 721.961,-1812 591.961,-1812 591.961,-1812 585.961,-1812 579.961,-1806 579.961,-1800 579.961,-1800 579.961,-1718 579.961,-1718 579.961,-1712 585.961,-1706 591.961,-1706"/>
<text text-anchor="middle" x="656.961" y="-1796.8" font-family="Times,serif" font-size="14.00">Role</text>
<polyline fill="none" stroke="black" points="579.961,-1789 733.961,-1789 "/>
<text text-anchor="start" x="587.961" y="-1773.8" font-family="Times,serif" font-size="14.00">id :int(11)</text>
<text text-anchor="start" x="587.961" y="-1758.8" font-family="Times,serif" font-size="14.00">name :varchar(255)</text>
<text text-anchor="start" x="587.961" y="-1743.8" font-family="Times,serif" font-size="14.00">description :varchar(255)</text>
<text text-anchor="start" x="587.961" y="-1728.8" font-family="Times,serif" font-size="14.00">created_at :datetime</text>
<text text-anchor="start" x="587.961" y="-1713.8" font-family="Times,serif" font-size="14.00">updated_at :datetime</text>
</g>
<!-- Role&#45;&gt;User -->
<g id="edge55" class="edge"><title>Role&#45;&gt;User</title>
<path fill="none" stroke="#30bc18" d="M693.038,-1698.38C714.318,-1663.21 742.527,-1616.59 770.676,-1570.07"/>
<ellipse fill="none" stroke="#30bc18" cx="690.694" cy="-1702.25" rx="4.00002" ry="4.00002"/>
<polygon fill="#30bc18" stroke="#30bc18" points="770.753,-1569.94 779.78,-1563.72 773.342,-1565.66 775.93,-1561.39 775.93,-1561.39 775.93,-1561.39 773.342,-1565.66 772.08,-1559.06 770.753,-1569.94 770.753,-1569.94"/>
</g>
<!-- Role&#45;&gt;Roster -->
<g id="edge56" class="edge"><title>Role&#45;&gt;Roster</title>
<path fill="none" stroke="#1b1651" d="M675.426,-1698.04C680.936,-1677.33 686.231,-1653.84 688.961,-1632 716.359,-1412.82 698.843,-1355.67 688.961,-1135 687.694,-1106.7 685.139,-1075.59 682.555,-1048.65"/>
<ellipse fill="none" stroke="#1b1651" cx="674.358" cy="-1701.98" rx="4.00001" ry="4.00001"/>
<polygon fill="#1b1651" stroke="#1b1651" points="682.54,-1048.5 686.044,-1038.11 682.053,-1043.52 681.566,-1038.55 681.566,-1038.55 681.566,-1038.55 682.053,-1043.52 677.087,-1038.99 682.54,-1048.5 682.54,-1048.5"/>
</g>
</g>
</svg>
