<?xml version="1.0" encoding="UTF-8" standalone="no"?>
<!DOCTYPE svg PUBLIC "-//W3C//DTD SVG 1.1//EN"
 "http://www.w3.org/Graphics/SVG/1.1/DTD/svg11.dtd">
<!-- Generated by graphviz version 2.38.0 (20140413.2041)
 -->
<!-- Title: models_diagram Pages: 1 -->
<svg width="1044pt" height="590pt"
 viewBox="0.00 0.00 1044.05 590.00" xmlns="http://www.w3.org/2000/svg" xmlns:xlink="http://www.w3.org/1999/xlink">
<g id="graph0" class="graph" transform="scale(1 1) rotate(0) translate(4 586)">
<title>models_diagram</title>
<polygon fill="none" stroke="none" points="-4,4 -4,-586 1040.05,-586 1040.05,4 -4,4"/>
<!-- _diagram_info -->
<g id="node1" class="node"><title>_diagram_info</title>
<text text-anchor="start" x="8" y="-567.6" font-family="Times,serif" font-size="13.00">Models diagram</text>
<text text-anchor="start" x="8" y="-553.6" font-family="Times,serif" font-size="13.00">Date: Feb 10 2017 &#45; 11:14</text>
<text text-anchor="start" x="8" y="-539.6" font-family="Times,serif" font-size="13.00">Migration version: 20170209064126</text>
<text text-anchor="start" x="8" y="-525.6" font-family="Times,serif" font-size="13.00">Generated by RailRoady 1.5.2</text>
<text text-anchor="start" x="8" y="-511.6" font-family="Times,serif" font-size="13.00">http://railroady.prestonlee.com</text>
</g>
<!-- GroupProjectCount -->
<g id="node2" class="node"><title>GroupProjectCount</title>
<ellipse fill="none" stroke="black" cx="634" cy="-450" rx="79.0865" ry="18"/>
<text text-anchor="middle" x="634" y="-446.3" font-family="Times,serif" font-size="14.00">GroupProjectCount</text>
</g>
<!-- User -->
<g id="node9" class="node"><title>User</title>
<ellipse fill="none" stroke="black" cx="503" cy="-378" rx="27.0966" ry="18"/>
<text text-anchor="middle" x="503" y="-374.3" font-family="Times,serif" font-size="14.00">User</text>
</g>
<!-- GroupProjectCount&#45;&gt;User -->
<g id="edge1" class="edge"><title>GroupProjectCount&#45;&gt;User</title>
<path fill="none" stroke="#4f7f38" d="M597.115,-429.29C576.683,-418.372 551.626,-404.984 532.506,-394.766"/>
<ellipse fill="none" stroke="#4f7f38" cx="600.746" cy="-431.231" rx="4.00002" ry="4.00002"/>
<polygon fill="#4f7f38" stroke="#4f7f38" points="532.462,-394.743 525.763,-386.061 528.052,-392.387 523.642,-390.03 523.642,-390.03 523.642,-390.03 528.052,-392.387 521.521,-393.999 532.462,-394.743 532.462,-394.743"/>
</g>
<!-- FactorPack -->
<g id="node3" class="node"><title>FactorPack</title>
<ellipse fill="none" stroke="black" cx="986" cy="-378" rx="50.0912" ry="18"/>
<text text-anchor="middle" x="986" y="-374.3" font-family="Times,serif" font-size="14.00">FactorPack</text>
</g>
<!-- Project -->
<g id="node13" class="node"><title>Project</title>
<ellipse fill="none" stroke="black" cx="889" cy="-306" rx="35.9954" ry="18"/>
<text text-anchor="middle" x="889" y="-302.3" font-family="Times,serif" font-size="14.00">Project</text>
</g>
<!-- FactorPack&#45;&gt;Project -->
<g id="edge3" class="edge"><title>FactorPack&#45;&gt;Project</title>
<path fill="none" stroke="#a20b76" d="M957.97,-356.772C945.185,-347.546 930.076,-336.642 917.263,-327.396"/>
<ellipse fill="none" stroke="#a20b76" cx="961.229" cy="-359.124" rx="4.00002" ry="4.00002"/>
<polygon fill="#a20b76" stroke="#a20b76" points="916.925,-327.152 911.449,-317.651 912.87,-324.226 908.816,-321.3 908.816,-321.3 908.816,-321.3 912.87,-324.226 906.182,-324.949 916.925,-327.152 916.925,-327.152"/>
</g>
<!-- Factor -->
<g id="node18" class="node"><title>Factor</title>
<ellipse fill="none" stroke="black" cx="889" cy="-162" rx="33.2948" ry="18"/>
<text text-anchor="middle" x="889" y="-158.3" font-family="Times,serif" font-size="14.00">Factor</text>
</g>
<!-- FactorPack&#45;&gt;Factor -->
<g id="edge2" class="edge"><title>FactorPack&#45;&gt;Factor</title>
<path fill="none" stroke="#20e17c" d="M974.176,-350.913C955.52,-309.755 919.465,-230.21 900.815,-189.066"/>
<polygon fill="#20e17c" stroke="#20e17c" points="974.26,-351.1 974.29,-362.066 976.324,-355.654 978.389,-360.208 978.389,-360.208 978.389,-360.208 976.324,-355.654 982.487,-358.35 974.26,-351.1 974.26,-351.1"/>
<polygon fill="#20e17c" stroke="#20e17c" points="900.705,-188.822 900.675,-177.856 898.64,-184.268 896.576,-179.714 896.576,-179.714 896.576,-179.714 898.64,-184.268 892.477,-181.572 900.705,-188.822 900.705,-188.822"/>
</g>
<!-- Course -->
<g id="node4" class="node"><title>Course</title>
<ellipse fill="none" stroke="black" cx="267" cy="-450" rx="35.9954" ry="18"/>
<text text-anchor="middle" x="267" y="-446.3" font-family="Times,serif" font-size="14.00">Course</text>
</g>
<!-- Course&#45;&gt;User -->
<g id="edge6" class="edge"><title>Course&#45;&gt;User</title>
<path fill="none" stroke="#454ba9" d="M307.029,-437.127C352.485,-423.644 425.884,-401.873 468.779,-389.15"/>
<polygon fill="#454ba9" stroke="#454ba9" points="306.957,-437.148 296.09,-435.678 302.163,-438.57 297.37,-439.992 297.37,-439.992 297.37,-439.992 302.163,-438.57 298.649,-444.306 306.957,-437.148 306.957,-437.148"/>
<polygon fill="#454ba9" stroke="#454ba9" points="468.89,-389.117 479.757,-390.588 473.684,-387.696 478.477,-386.274 478.477,-386.274 478.477,-386.274 473.684,-387.696 477.198,-381.959 468.89,-389.117 468.89,-389.117"/>
</g>
<!-- Roster -->
<g id="node10" class="node"><title>Roster</title>
<ellipse fill="none" stroke="black" cx="155" cy="-306" rx="33.5952" ry="18"/>
<text text-anchor="middle" x="155" y="-302.3" font-family="Times,serif" font-size="14.00">Roster</text>
</g>
<!-- Course&#45;&gt;Roster -->
<g id="edge5" class="edge"><title>Course&#45;&gt;Roster</title>
<path fill="none" stroke="#ec4eda" d="M249.235,-426.476C228.74,-400.492 195.169,-357.928 174.118,-331.239"/>
<ellipse fill="none" stroke="#ec4eda" cx="251.893" cy="-429.846" rx="4.00002" ry="4.00002"/>
<polygon fill="#ec4eda" stroke="#ec4eda" points="173.949,-331.024 171.289,-320.386 170.852,-327.098 167.756,-323.173 167.756,-323.173 167.756,-323.173 170.852,-327.098 164.223,-325.959 173.949,-331.024 173.949,-331.024"/>
</g>
<!-- Course&#45;&gt;Project -->
<g id="edge4" class="edge"><title>Course&#45;&gt;Project</title>
<path fill="none" stroke="#8f642c" d="M304.277,-437.527C312.363,-435.391 320.916,-433.395 329,-432 435.281,-413.654 716.8,-444.762 813,-396 827.608,-388.596 853.954,-355.226 871.463,-331.528"/>
<ellipse fill="none" stroke="#8f642c" cx="300.239" cy="-438.634" rx="4.00001" ry="4.00001"/>
<polygon fill="#8f642c" stroke="#8f642c" points="871.576,-331.374 881.109,-325.955 874.526,-327.337 877.476,-323.3 877.476,-323.3 877.476,-323.3 874.526,-327.337 873.843,-320.645 871.576,-331.374 871.576,-331.374"/>
</g>
<!-- Experience -->
<g id="node27" class="node"><title>Experience</title>
<ellipse fill="none" stroke="black" cx="257" cy="-306" rx="50.0912" ry="18"/>
<text text-anchor="middle" x="257" y="-302.3" font-family="Times,serif" font-size="14.00">Experience</text>
</g>
<!-- Course&#45;&gt;Experience -->
<g id="edge7" class="edge"><title>Course&#45;&gt;Experience</title>
<path fill="none" stroke="#8746dc" d="M265.208,-423.558C263.44,-398.444 260.744,-360.164 258.929,-334.393"/>
<ellipse fill="none" stroke="#8746dc" cx="265.513" cy="-427.881" rx="4" ry="4"/>
<polygon fill="#8746dc" stroke="#8746dc" points="258.913,-334.165 262.699,-323.873 258.562,-329.177 258.211,-324.189 258.211,-324.189 258.211,-324.189 258.562,-329.177 253.722,-324.505 258.913,-334.165 258.913,-334.165"/>
</g>
<!-- Style -->
<g id="node5" class="node"><title>Style</title>
<ellipse fill="none" stroke="black" cx="889" cy="-378" rx="28.6953" ry="18"/>
<text text-anchor="middle" x="889" y="-374.3" font-family="Times,serif" font-size="14.00">Style</text>
</g>
<!-- Style&#45;&gt;Project -->
<g id="edge8" class="edge"><title>Style&#45;&gt;Project</title>
<path fill="none" stroke="#be542a" d="M889,-351.64C889,-346.063 889,-340.132 889,-334.476"/>
<ellipse fill="none" stroke="#be542a" cx="889" cy="-355.697" rx="4" ry="4"/>
<polygon fill="#be542a" stroke="#be542a" points="889,-334.104 893.5,-324.104 889,-329.104 889,-324.104 889,-324.104 889,-324.104 889,-329.104 884.5,-324.104 889,-334.104 889,-334.104"/>
</g>
<!-- Behavior -->
<g id="node6" class="node"><title>Behavior</title>
<ellipse fill="none" stroke="black" cx="356" cy="-162" rx="42.7926" ry="18"/>
<text text-anchor="middle" x="356" y="-158.3" font-family="Times,serif" font-size="14.00">Behavior</text>
</g>
<!-- Diagnosis -->
<g id="node17" class="node"><title>Diagnosis</title>
<ellipse fill="none" stroke="black" cx="395" cy="-18" rx="46.2923" ry="18"/>
<text text-anchor="middle" x="395" y="-14.3" font-family="Times,serif" font-size="14.00">Diagnosis</text>
</g>
<!-- Behavior&#45;&gt;Diagnosis -->
<g id="edge11" class="edge"><title>Behavior&#45;&gt;Diagnosis</title>
<path fill="none" stroke="#a467e4" d="M346.084,-136.073C340.336,-117.75 335.712,-92.5664 344,-72 348.773,-60.156 357.599,-49.478 366.584,-40.8623"/>
<ellipse fill="none" stroke="#a467e4" cx="347.477" cy="-140.179" rx="4.00001" ry="4.00001"/>
<polygon fill="#a467e4" stroke="#a467e4" points="366.641,-40.8105 377.088,-37.4782 370.362,-37.4702 374.082,-34.1298 374.082,-34.1298 374.082,-34.1298 370.362,-37.4702 371.076,-30.7813 366.641,-40.8105 366.641,-40.8105"/>
</g>
<!-- Scenario -->
<g id="node24" class="node"><title>Scenario</title>
<ellipse fill="none" stroke="black" cx="395" cy="-90" rx="41.6928" ry="18"/>
<text text-anchor="middle" x="395" y="-86.3" font-family="Times,serif" font-size="14.00">Scenario</text>
</g>
<!-- Behavior&#45;&gt;Scenario -->
<g id="edge9" class="edge"><title>Behavior&#45;&gt;Scenario</title>
<path fill="none" stroke="#333716" d="M369.178,-137.346C372.871,-130.719 376.903,-123.483 380.659,-116.74"/>
<ellipse fill="none" stroke="#333716" cx="367.189" cy="-140.917" rx="4.00002" ry="4.00002"/>
<polygon fill="#333716" stroke="#333716" points="380.686,-116.692 389.484,-110.146 383.119,-112.324 385.553,-107.956 385.553,-107.956 385.553,-107.956 383.119,-112.324 381.622,-105.766 380.686,-116.692 380.686,-116.692"/>
</g>
<!-- Reaction -->
<g id="node25" class="node"><title>Reaction</title>
<ellipse fill="none" stroke="black" cx="255" cy="-90" rx="42.4939" ry="18"/>
<text text-anchor="middle" x="255" y="-86.3" font-family="Times,serif" font-size="14.00">Reaction</text>
</g>
<!-- Behavior&#45;&gt;Reaction -->
<g id="edge10" class="edge"><title>Behavior&#45;&gt;Reaction</title>
<path fill="none" stroke="#e7940f" d="M327.862,-141.498C314.495,-132.234 298.508,-121.154 284.92,-111.737"/>
<ellipse fill="none" stroke="#e7940f" cx="331.293" cy="-143.876" rx="4.00002" ry="4.00002"/>
<polygon fill="#e7940f" stroke="#e7940f" points="284.608,-111.52 278.952,-102.125 280.498,-108.672 276.389,-105.824 276.389,-105.824 276.389,-105.824 280.498,-108.672 273.825,-109.522 284.608,-111.52 284.608,-111.52"/>
</g>
<!-- Installment -->
<g id="node7" class="node"><title>Installment</title>
<ellipse fill="none" stroke="black" cx="660" cy="-90" rx="50.8918" ry="18"/>
<text text-anchor="middle" x="660" y="-86.3" font-family="Times,serif" font-size="14.00">Installment</text>
</g>
<!-- Value -->
<g id="node23" class="node"><title>Value</title>
<ellipse fill="none" stroke="black" cx="660" cy="-18" rx="31.6951" ry="18"/>
<text text-anchor="middle" x="660" y="-14.3" font-family="Times,serif" font-size="14.00">Value</text>
</g>
<!-- Installment&#45;&gt;Value -->
<g id="edge12" class="edge"><title>Installment&#45;&gt;Value</title>
<path fill="none" stroke="#55dfe2" d="M660,-63.6398C660,-58.0629 660,-52.1319 660,-46.4761"/>
<ellipse fill="none" stroke="#55dfe2" cx="660" cy="-67.6966" rx="4" ry="4"/>
<polygon fill="#55dfe2" stroke="#55dfe2" points="660,-46.1043 664.5,-36.1043 660,-41.1043 660,-36.1043 660,-36.1043 660,-36.1043 660,-41.1043 655.5,-36.1044 660,-46.1043 660,-46.1043"/>
</g>
<!-- ConsentForm -->
<g id="node8" class="node"><title>ConsentForm</title>
<ellipse fill="none" stroke="black" cx="745" cy="-378" rx="59.2899" ry="18"/>
<text text-anchor="middle" x="745" y="-374.3" font-family="Times,serif" font-size="14.00">ConsentForm</text>
</g>
<!-- ConsentForm&#45;&gt;Project -->
<g id="edge13" class="edge"><title>ConsentForm&#45;&gt;Project</title>
<path fill="none" stroke="#a15738" d="M782.56,-358.742C804.96,-347.853 833.177,-334.136 854.93,-323.562"/>
<ellipse fill="none" stroke="#a15738" cx="778.785" cy="-360.577" rx="4.00002" ry="4.00002"/>
<polygon fill="#a15738" stroke="#a15738" points="855.129,-323.465 866.09,-323.14 859.626,-321.279 864.123,-319.093 864.123,-319.093 864.123,-319.093 859.626,-321.279 862.155,-315.046 855.129,-323.465 855.129,-323.465"/>
</g>
<!-- ConsentLog -->
<g id="node22" class="node"><title>ConsentLog</title>
<ellipse fill="none" stroke="black" cx="781" cy="-306" rx="53.8905" ry="18"/>
<text text-anchor="middle" x="781" y="-302.3" font-family="Times,serif" font-size="14.00">ConsentLog</text>
</g>
<!-- ConsentForm&#45;&gt;ConsentLog -->
<g id="edge14" class="edge"><title>ConsentForm&#45;&gt;ConsentLog</title>
<path fill="none" stroke="#088ad3" d="M757.49,-352.714C760.788,-346.302 764.359,-339.358 767.698,-332.865"/>
<ellipse fill="none" stroke="#088ad3" cx="755.544" cy="-356.498" rx="4.00002" ry="4.00002"/>
<polygon fill="#088ad3" stroke="#088ad3" points="767.792,-332.682 776.367,-325.847 770.079,-328.235 772.366,-323.789 772.366,-323.789 772.366,-323.789 770.079,-328.235 768.364,-321.731 767.792,-332.682 767.792,-332.682"/>
</g>
<!-- User&#45;&gt;Installment -->
<g id="edge19" class="edge"><title>User&#45;&gt;Installment</title>
<path fill="none" stroke="#a1fad2" d="M538.417,-374.081C576.888,-369.293 638.405,-356.739 680,-324 709.111,-301.087 712.332,-287.763 722,-252 735.433,-202.313 702.895,-146.786 680.05,-115.648"/>
<ellipse fill="none" stroke="#a1fad2" cx="534.075" cy="-374.581" rx="4.00001" ry="4.00001"/>
<polygon fill="#a1fad2" stroke="#a1fad2" points="679.946,-115.511 677.498,-104.822 676.928,-111.524 673.91,-107.538 673.91,-107.538 673.91,-107.538 676.928,-111.524 670.322,-110.254 679.946,-115.511 679.946,-115.511"/>
</g>
<!-- User&#45;&gt;Roster -->
<g id="edge20" class="edge"><title>User&#45;&gt;Roster</title>
<path fill="none" stroke="#4e4514" d="M468.073,-373.286C410.854,-366.681 293.91,-350.985 198,-324 195.409,-323.271 192.759,-322.441 190.11,-321.55"/>
<ellipse fill="none" stroke="#4e4514" cx="472.098" cy="-373.744" rx="4.00001" ry="4.00001"/>
<polygon fill="#4e4514" stroke="#4e4514" points="190.031,-321.521 182.158,-313.888 185.33,-319.821 180.628,-318.12 180.628,-318.12 180.628,-318.12 185.33,-319.821 179.097,-322.352 190.031,-321.521 190.031,-321.521"/>
</g>
<!-- Group -->
<g id="node12" class="node"><title>Group</title>
<ellipse fill="none" stroke="black" cx="589" cy="-162" rx="33.2948" ry="18"/>
<text text-anchor="middle" x="589" y="-158.3" font-family="Times,serif" font-size="14.00">Group</text>
</g>
<!-- User&#45;&gt;Group -->
<g id="edge16" class="edge"><title>User&#45;&gt;Group</title>
<path fill="none" stroke="#6d1a49" d="M513.483,-350.913C530.024,-309.755 561.99,-230.21 578.525,-189.066"/>
<polygon fill="#6d1a49" stroke="#6d1a49" points="513.477,-350.929 505.573,-358.53 511.613,-355.568 509.748,-360.208 509.748,-360.208 509.748,-360.208 511.613,-355.568 513.924,-361.886 513.477,-350.929 513.477,-350.929"/>
<polygon fill="#6d1a49" stroke="#6d1a49" points="578.554,-188.993 586.459,-181.392 580.419,-184.354 582.283,-179.714 582.283,-179.714 582.283,-179.714 580.419,-184.354 578.108,-178.036 578.554,-188.993 578.554,-188.993"/>
</g>
<!-- User&#45;&gt;Project -->
<g id="edge18" class="edge"><title>User&#45;&gt;Project</title>
<path fill="none" stroke="#6d80ae" d="M540.179,-373.764C603.405,-367.7 735.564,-352.579 844,-324 846.801,-323.262 849.67,-322.411 852.535,-321.493"/>
<polygon fill="#6d80ae" stroke="#6d80ae" points="539.872,-373.793 529.495,-370.246 534.894,-374.26 529.916,-374.727 529.916,-374.727 529.916,-374.727 534.894,-374.26 530.336,-379.207 539.872,-373.793 539.872,-373.793"/>
<polygon fill="#6d80ae" stroke="#6d80ae" points="852.714,-321.431 863.635,-322.426 857.441,-319.802 862.168,-318.172 862.168,-318.172 862.168,-318.172 857.441,-319.802 860.701,-313.917 852.714,-321.431 852.714,-321.431"/>
</g>
<!-- Email -->
<g id="node15" class="node"><title>Email</title>
<ellipse fill="none" stroke="black" cx="639" cy="-306" rx="32.4942" ry="18"/>
<text text-anchor="middle" x="639" y="-302.3" font-family="Times,serif" font-size="14.00">Email</text>
</g>
<!-- User&#45;&gt;Email -->
<g id="edge15" class="edge"><title>User&#45;&gt;Email</title>
<path fill="none" stroke="#3672da" d="M531.36,-362.403C553.42,-351.049 584.032,-335.292 606.973,-323.484"/>
<ellipse fill="none" stroke="#3672da" cx="527.509" cy="-364.385" rx="4.00002" ry="4.00002"/>
<polygon fill="#3672da" stroke="#3672da" points="607.085,-323.427 618.036,-322.852 611.531,-321.139 615.976,-318.85 615.976,-318.85 615.976,-318.85 611.531,-321.139 613.917,-314.849 607.085,-323.427 607.085,-323.427"/>
</g>
<!-- Narrative -->
<g id="node21" class="node"><title>Narrative</title>
<ellipse fill="none" stroke="black" cx="407" cy="-306" rx="44.393" ry="18"/>
<text text-anchor="middle" x="407" y="-302.3" font-family="Times,serif" font-size="14.00">Narrative</text>
</g>
<!-- User&#45;&gt;Narrative -->
<g id="edge23" class="edge"><title>User&#45;&gt;Narrative</title>
<path fill="none" stroke="#907868" d="M477.259,-358.231C464.565,-348.974 449.202,-337.773 436.084,-328.207"/>
<polygon fill="#907868" stroke="#907868" points="477.312,-358.269 482.741,-367.797 481.352,-361.215 485.392,-364.161 485.392,-364.161 485.392,-364.161 481.352,-361.215 488.043,-360.525 477.312,-358.269 477.312,-358.269"/>
<polygon fill="#907868" stroke="#907868" points="435.918,-328.086 430.489,-318.558 431.878,-325.14 427.838,-322.194 427.838,-322.194 427.838,-322.194 431.878,-325.14 425.187,-325.83 435.918,-328.086 435.918,-328.086"/>
</g>
<!-- User&#45;&gt;ConsentLog -->
<g id="edge17" class="edge"><title>User&#45;&gt;ConsentLog</title>
<path fill="none" stroke="#5d07fc" d="M536.189,-368.643C584.036,-356.595 672.837,-334.235 729.316,-320.014"/>
<ellipse fill="none" stroke="#5d07fc" cx="532.04" cy="-369.688" rx="4.00001" ry="4.00001"/>
<polygon fill="#5d07fc" stroke="#5d07fc" points="729.427,-319.986 740.223,-321.908 734.276,-318.765 739.124,-317.544 739.124,-317.544 739.124,-317.544 734.276,-318.765 738.025,-313.18 729.427,-319.986 729.427,-319.986"/>
</g>
<!-- User&#45;&gt;Reaction -->
<g id="edge21" class="edge"><title>User&#45;&gt;Reaction</title>
<path fill="none" stroke="#e013b8" d="M468.339,-372.164C435.527,-366.001 386.57,-352.504 354,-324 290.965,-268.834 266.916,-166.669 258.741,-118.059"/>
<ellipse fill="none" stroke="#e013b8" cx="472.375" cy="-372.879" rx="4.00001" ry="4.00001"/>
<polygon fill="#e013b8" stroke="#e013b8" points="258.712,-117.87 261.594,-107.289 257.93,-112.931 257.149,-107.992 257.149,-107.992 257.149,-107.992 257.93,-112.931 252.704,-108.696 258.712,-117.87 258.712,-117.87"/>
</g>
<!-- Assessment -->
<g id="node26" class="node"><title>Assessment</title>
<ellipse fill="none" stroke="black" cx="660" cy="-234" rx="52.7911" ry="18"/>
<text text-anchor="middle" x="660" y="-230.3" font-family="Times,serif" font-size="14.00">Assessment</text>
</g>
<!-- User&#45;&gt;Assessment -->
<g id="edge24" class="edge"><title>User&#45;&gt;Assessment</title>
<path fill="none" stroke="#591b55" d="M525.27,-355.595C544.355,-337.382 572.69,-310.652 598,-288 609.378,-277.817 622.17,-266.809 633.167,-257.478"/>
<polygon fill="#591b55" stroke="#591b55" points="525.168,-355.693 514.83,-359.352 521.554,-359.149 517.941,-362.604 517.941,-362.604 517.941,-362.604 521.554,-359.149 521.051,-365.857 525.168,-355.693 525.168,-355.693"/>
<polygon fill="#591b55" stroke="#591b55" points="633.175,-257.472 643.717,-254.452 636.993,-254.244 640.812,-251.016 640.812,-251.016 640.812,-251.016 636.993,-254.244 637.907,-247.579 633.175,-257.472 633.175,-257.472"/>
</g>
<!-- User&#45;&gt;Experience -->
<g id="edge22" class="edge"><title>User&#45;&gt;Experience</title>
<path fill="none" stroke="#961aa3" d="M468.78,-367.263C426.139,-355.129 353.03,-334.326 304.856,-320.617"/>
<polygon fill="#961aa3" stroke="#961aa3" points="468.895,-367.295 477.282,-374.36 473.704,-368.664 478.513,-370.032 478.513,-370.032 478.513,-370.032 473.704,-368.664 479.745,-365.704 468.895,-367.295 468.895,-367.295"/>
<polygon fill="#961aa3" stroke="#961aa3" points="304.592,-320.543 296.206,-313.477 299.783,-319.174 294.974,-317.806 294.974,-317.806 294.974,-317.806 299.783,-319.174 293.742,-322.134 304.592,-320.543 304.592,-320.543"/>
</g>
<!-- School -->
<g id="node11" class="node"><title>School</title>
<ellipse fill="none" stroke="black" cx="267" cy="-543" rx="35.194" ry="18"/>
<text text-anchor="middle" x="267" y="-539.3" font-family="Times,serif" font-size="14.00">School</text>
</g>
<!-- School&#45;&gt;Course -->
<g id="edge25" class="edge"><title>School&#45;&gt;Course</title>
<path fill="none" stroke="#597119" d="M267,-516.729C267,-504.725 267,-490.362 267,-478.129"/>
<ellipse fill="none" stroke="#597119" cx="267" cy="-520.884" rx="4" ry="4"/>
<polygon fill="#597119" stroke="#597119" points="267,-478.04 271.5,-468.04 267,-473.04 267,-468.04 267,-468.04 267,-468.04 267,-473.04 262.5,-468.04 267,-478.04 267,-478.04"/>
</g>
<!-- Group&#45;&gt;Installment -->
<g id="edge26" class="edge"><title>Group&#45;&gt;Installment</title>
<path fill="none" stroke="#5e4f4b" d="M610.115,-140.182C618.41,-132.004 627.966,-122.583 636.48,-114.189"/>
<ellipse fill="none" stroke="#5e4f4b" cx="607.254" cy="-143.003" rx="4.00002" ry="4.00002"/>
<polygon fill="#5e4f4b" stroke="#5e4f4b" points="636.515,-114.154 646.795,-110.338 640.075,-110.644 643.636,-107.134 643.636,-107.134 643.636,-107.134 640.075,-110.644 640.477,-103.929 636.515,-114.154 636.515,-114.154"/>
</g>
<!-- Project&#45;&gt;Group -->
<g id="edge27" class="edge"><title>Project&#45;&gt;Group</title>
<path fill="none" stroke="#872aba" d="M854.548,-291.129C851.018,-289.966 847.459,-288.895 844,-288 790.513,-274.157 636.187,-291.927 598,-252 582.532,-235.827 581.626,-209.662 583.789,-189.878"/>
<ellipse fill="none" stroke="#872aba" cx="858.401" cy="-292.472" rx="4.00001" ry="4.00001"/>
<polygon fill="#872aba" stroke="#872aba" points="583.796,-189.827 589.643,-180.55 584.491,-184.876 585.186,-179.924 585.186,-179.924 585.186,-179.924 584.491,-184.876 580.73,-179.299 583.796,-189.827 583.796,-189.827"/>
</g>
<!-- Project&#45;&gt;Factor -->
<g id="edge29" class="edge"><title>Project&#45;&gt;Factor</title>
<path fill="none" stroke="#991ea2" d="M889,-277.679C889,-252.599 889,-215.627 889,-190.493"/>
<polygon fill="#991ea2" stroke="#991ea2" points="889,-277.871 884.5,-287.871 889,-282.871 889,-287.871 889,-287.871 889,-287.871 889,-282.871 893.5,-287.872 889,-277.871 889,-277.871"/>
<polygon fill="#991ea2" stroke="#991ea2" points="889,-190.189 893.5,-180.189 889,-185.189 889,-180.189 889,-180.189 889,-180.189 889,-185.189 884.5,-180.189 889,-190.189 889,-190.189"/>
</g>
<!-- Project&#45;&gt;Assessment -->
<g id="edge28" class="edge"><title>Project&#45;&gt;Assessment</title>
<path fill="none" stroke="#5e068c" d="M853.846,-291.409C850.53,-290.221 847.21,-289.067 844,-288 799.304,-273.147 747.723,-258.501 710.568,-248.382"/>
<ellipse fill="none" stroke="#5e068c" cx="857.763" cy="-292.842" rx="4.00001" ry="4.00001"/>
<polygon fill="#5e068c" stroke="#5e068c" points="710.141,-248.267 701.665,-241.308 705.315,-246.959 700.489,-245.652 700.489,-245.652 700.489,-245.652 705.315,-246.959 699.312,-249.995 710.141,-248.267 710.141,-248.267"/>
</g>
<!-- Gender -->
<g id="node14" class="node"><title>Gender</title>
<ellipse fill="none" stroke="black" cx="768" cy="-450" rx="36.2938" ry="18"/>
<text text-anchor="middle" x="768" y="-446.3" font-family="Times,serif" font-size="14.00">Gender</text>
</g>
<!-- Gender&#45;&gt;User -->
<g id="edge30" class="edge"><title>Gender&#45;&gt;User</title>
<path fill="none" stroke="#9b3189" d="M732.676,-435.475C729.089,-434.243 725.484,-433.062 722,-432 658.257,-412.58 582.378,-395.538 538.738,-386.308"/>
<ellipse fill="none" stroke="#9b3189" cx="736.676" cy="-436.89" rx="4.00001" ry="4.00001"/>
<polygon fill="#9b3189" stroke="#9b3189" points="538.673,-386.294 529.81,-379.837 533.78,-385.268 528.886,-384.241 528.886,-384.241 528.886,-384.241 533.78,-385.268 527.962,-388.645 538.673,-386.294 538.673,-386.294"/>
</g>
<!-- AgeRange -->
<g id="node16" class="node"><title>AgeRange</title>
<ellipse fill="none" stroke="black" cx="386" cy="-450" rx="48.1917" ry="18"/>
<text text-anchor="middle" x="386" y="-446.3" font-family="Times,serif" font-size="14.00">AgeRange</text>
</g>
<!-- AgeRange&#45;&gt;User -->
<g id="edge31" class="edge"><title>AgeRange&#45;&gt;User</title>
<path fill="none" stroke="#6544af" d="M417.416,-430.204C435.182,-419.575 457.225,-406.386 474.491,-396.057"/>
<ellipse fill="none" stroke="#6544af" cx="413.96" cy="-432.272" rx="4.00002" ry="4.00002"/>
<polygon fill="#6544af" stroke="#6544af" points="474.953,-395.78 485.845,-394.508 479.243,-393.213 483.534,-390.646 483.534,-390.646 483.534,-390.646 479.243,-393.213 481.224,-386.785 474.953,-395.78 474.953,-395.78"/>
</g>
<!-- Diagnosis&#45;&gt;User -->
<g id="edge32" class="edge"><title>Diagnosis&#45;&gt;User</title>
<path fill="none" stroke="#758627" d="M426.189,-37.9084C439.173,-46.9654 453.61,-58.7338 464,-72 490.628,-106 503,-117.813 503,-161 503,-235 503,-235 503,-235 503,-275.885 503,-323.392 503,-351.782"/>
<ellipse fill="none" stroke="#758627" cx="422.874" cy="-35.6666" rx="4.00002" ry="4.00002"/>
<ellipse fill="#758627" stroke="#758627" cx="503" cy="-355.951" rx="4" ry="4"/>
</g>
<!-- CipCode -->
<g id="node19" class="node"><title>CipCode</title>
<ellipse fill="none" stroke="black" cx="494" cy="-450" rx="42.4939" ry="18"/>
<text text-anchor="middle" x="494" y="-446.3" font-family="Times,serif" font-size="14.00">CipCode</text>
</g>
<!-- CipCode&#45;&gt;User -->
<g id="edge33" class="edge"><title>CipCode&#45;&gt;User</title>
<path fill="none" stroke="#9ea3fb" d="M497.261,-423.64C497.996,-417.92 498.779,-411.828 499.523,-406.042"/>
<ellipse fill="none" stroke="#9ea3fb" cx="496.735" cy="-427.729" rx="4.00001" ry="4.00001"/>
<polygon fill="#9ea3fb" stroke="#9ea3fb" points="499.526,-406.023 505.264,-396.678 500.163,-401.064 500.801,-396.104 500.801,-396.104 500.801,-396.104 500.163,-401.064 496.338,-395.53 499.526,-406.023 499.526,-406.023"/>
</g>
<!-- Week -->
<g id="node20" class="node"><title>Week</title>
<ellipse fill="none" stroke="black" cx="443" cy="-234" rx="31.6951" ry="18"/>
<text text-anchor="middle" x="443" y="-230.3" font-family="Times,serif" font-size="14.00">Week</text>
</g>
<!-- Week&#45;&gt;Behavior -->
<g id="edge34" class="edge"><title>Week&#45;&gt;Behavior</title>
<path fill="none" stroke="#ed2455" d="M418.906,-213.614C407.244,-204.23 393.241,-192.964 381.41,-183.445"/>
<ellipse fill="none" stroke="#ed2455" cx="422.278" cy="-216.327" rx="4.00002" ry="4.00002"/>
<ellipse fill="#ed2455" stroke="#ed2455" cx="378.206" cy="-180.867" rx="4.00002" ry="4.00002"/>
</g>
<!-- Week&#45;&gt;Diagnosis -->
<g id="edge35" class="edge"><title>Week&#45;&gt;Diagnosis</title>
<path fill="none" stroke="#4fc2ba" d="M449.383,-207.63C456.308,-174.945 464.13,-116.987 446,-72 441.227,-60.156 432.401,-49.478 423.416,-40.8623"/>
<ellipse fill="none" stroke="#4fc2ba" cx="448.439" cy="-211.855" rx="4.00001" ry="4.00001"/>
<polygon fill="#4fc2ba" stroke="#4fc2ba" points="423.359,-40.8105 418.924,-30.7813 419.638,-37.4702 415.918,-34.1298 415.918,-34.1298 415.918,-34.1298 419.638,-37.4702 412.912,-37.4782 423.359,-40.8105 423.359,-40.8105"/>
</g>
<!-- Narrative&#45;&gt;Behavior -->
<g id="edge37" class="edge"><title>Narrative&#45;&gt;Behavior</title>
<path fill="none" stroke="#6a4a6f" d="M386.982,-282.163C380.232,-273.299 373.321,-262.709 369,-252 360.765,-231.591 357.657,-206.679 356.527,-188.407"/>
<ellipse fill="none" stroke="#6a4a6f" cx="389.583" cy="-285.445" rx="4.00002" ry="4.00002"/>
<ellipse fill="#6a4a6f" stroke="#6a4a6f" cx="356.312" cy="-184.015" rx="4" ry="4"/>
</g>
<!-- Narrative&#45;&gt;Week -->
<g id="edge36" class="edge"><title>Narrative&#45;&gt;Week</title>
<path fill="none" stroke="#9fc6b4" d="M419.49,-280.714C422.788,-274.302 426.359,-267.358 429.698,-260.865"/>
<ellipse fill="none" stroke="#9fc6b4" cx="417.544" cy="-284.498" rx="4.00002" ry="4.00002"/>
<polygon fill="#9fc6b4" stroke="#9fc6b4" points="429.792,-260.682 438.367,-253.847 432.079,-256.235 434.366,-251.789 434.366,-251.789 434.366,-251.789 432.079,-256.235 430.364,-249.731 429.792,-260.682 429.792,-260.682"/>
</g>
<!-- Narrative&#45;&gt;Reaction -->
<g id="edge38" class="edge"><title>Narrative&#45;&gt;Reaction</title>
<path fill="none" stroke="#67af80" d="M383.98,-283.124C374.632,-273.843 363.95,-262.711 355,-252 329.855,-221.908 324.823,-213.229 304,-180 291.04,-159.318 277.774,-134.991 268.319,-117.003"/>
<ellipse fill="none" stroke="#67af80" cx="387.043" cy="-286.13" rx="4.00002" ry="4.00002"/>
<polygon fill="#67af80" stroke="#67af80" points="268.106,-116.593 267.476,-105.645 265.796,-112.159 263.485,-107.724 263.485,-107.724 263.485,-107.724 265.796,-112.159 259.494,-109.804 268.106,-116.593 268.106,-116.593"/>
</g>
<!-- Scenario&#45;&gt;Narrative -->
<g id="edge39" class="edge"><title>Scenario&#45;&gt;Narrative</title>
<path fill="none" stroke="#bd0391" d="M402.435,-115.974C404.697,-124.751 406.88,-134.734 408,-144 409.92,-159.884 409.32,-164.055 408,-180 406.662,-196.165 403.338,-199.835 402,-216 400.68,-231.945 401.248,-236.018 402,-252 402.393,-260.345 403.132,-269.404 403.923,-277.633"/>
<ellipse fill="none" stroke="#bd0391" cx="401.319" cy="-111.854" rx="4.00001" ry="4.00001"/>
<polygon fill="#bd0391" stroke="#bd0391" points="403.95,-277.895 400.493,-288.302 404.459,-282.869 404.969,-287.843 404.969,-287.843 404.969,-287.843 404.459,-282.869 409.446,-287.384 403.95,-277.895 403.95,-277.895"/>
</g>
<!-- Reaction&#45;&gt;Diagnosis -->
<g id="edge40" class="edge"><title>Reaction&#45;&gt;Diagnosis</title>
<path fill="none" stroke="#89b4ce" d="M288.583,-72.2087C309.715,-61.6424 336.985,-48.0073 358.629,-37.1854"/>
<ellipse fill="none" stroke="#89b4ce" cx="284.911" cy="-74.0447" rx="4.00002" ry="4.00002"/>
<polygon fill="#89b4ce" stroke="#89b4ce" points="358.886,-37.0571 369.843,-36.6098 363.358,-34.821 367.83,-32.5849 367.83,-32.5849 367.83,-32.5849 363.358,-34.821 365.818,-28.56 358.886,-37.0571 358.886,-37.0571"/>
</g>
<!-- Assessment&#45;&gt;Installment -->
<g id="edge41" class="edge"><title>Assessment&#45;&gt;Installment</title>
<path fill="none" stroke="#462d6d" d="M660,-207.558C660,-182.444 660,-144.164 660,-118.393"/>
<ellipse fill="none" stroke="#462d6d" cx="660" cy="-211.871" rx="4" ry="4"/>
<polygon fill="#462d6d" stroke="#462d6d" points="660,-118.189 664.5,-108.189 660,-113.189 660,-108.189 660,-108.189 660,-108.189 660,-113.189 655.5,-108.189 660,-118.189 660,-118.189"/>
</g>
<!-- Assessment&#45;&gt;Group -->
<g id="edge43" class="edge"><title>Assessment&#45;&gt;Group</title>
<path fill="none" stroke="#144891" d="M636.225,-209.56C628.355,-201.801 619.62,-193.188 611.823,-185.501"/>
<polygon fill="#144891" stroke="#144891" points="636.412,-209.744 640.373,-219.969 639.972,-213.254 643.533,-216.765 643.533,-216.765 643.533,-216.765 639.972,-213.254 646.692,-213.56 636.412,-209.744 636.412,-209.744"/>
<polygon fill="#144891" stroke="#144891" points="611.527,-185.21 607.565,-174.984 607.966,-181.699 604.406,-178.189 604.406,-178.189 604.406,-178.189 607.966,-181.699 601.247,-181.393 611.527,-185.21 611.527,-185.21"/>
</g>
<!-- Assessment&#45;&gt;Factor -->
<g id="edge42" class="edge"><title>Assessment&#45;&gt;Factor</title>
<path fill="none" stroke="#55d513" d="M707.624,-218.442C750.224,-205.42 811.84,-186.586 851.155,-174.568"/>
<polygon fill="#55d513" stroke="#55d513" points="707.378,-218.518 696.499,-217.137 702.596,-219.979 697.815,-221.441 697.815,-221.441 697.815,-221.441 702.596,-219.979 699.13,-225.744 707.378,-218.518 707.378,-218.518"/>
<polygon fill="#55d513" stroke="#55d513" points="851.325,-174.517 862.203,-175.897 856.106,-173.055 860.888,-171.593 860.888,-171.593 860.888,-171.593 856.106,-173.055 859.572,-167.29 851.325,-174.517 851.325,-174.517"/>
</g>
<!-- Experience&#45;&gt;Reaction -->
<g id="edge44" class="edge"><title>Experience&#45;&gt;Reaction</title>
<path fill="none" stroke="#65be29" d="M243.372,-280.677C239.177,-271.915 235.11,-261.775 233,-252 222.872,-205.081 223.618,-191.074 233,-144 234.819,-134.871 238.242,-125.345 241.854,-116.929"/>
<ellipse fill="none" stroke="#65be29" cx="245.248" cy="-284.405" rx="4.00002" ry="4.00002"/>
<polygon fill="#65be29" stroke="#65be29" points="241.939,-116.743 250.19,-109.519 244.018,-112.195 246.098,-107.648 246.098,-107.648 246.098,-107.648 244.018,-112.195 242.005,-105.777 241.939,-116.743 241.939,-116.743"/>
</g>
<!-- Role -->
<g id="node28" class="node"><title>Role</title>
<ellipse fill="none" stroke="black" cx="180" cy="-450" rx="27.0966" ry="18"/>
<text text-anchor="middle" x="180" y="-446.3" font-family="Times,serif" font-size="14.00">Role</text>
</g>
<!-- Role&#45;&gt;User -->
<g id="edge45" class="edge"><title>Role&#45;&gt;User</title>
<path fill="none" stroke="#1ebd69" d="M209.655,-436.153C213.758,-434.624 217.952,-433.188 222,-432 307.743,-406.832 411.832,-390.854 466.078,-383.585"/>
<ellipse fill="none" stroke="#1ebd69" cx="205.668" cy="-437.709" rx="4.00001" ry="4.00001"/>
<polygon fill="#1ebd69" stroke="#1ebd69" points="466.328,-383.552 476.83,-386.709 471.285,-382.9 476.242,-382.248 476.242,-382.248 476.242,-382.248 471.285,-382.9 475.655,-377.786 466.328,-383.552 466.328,-383.552"/>
</g>
<!-- Role&#45;&gt;Roster -->
<g id="edge46" class="edge"><title>Role&#45;&gt;Roster</title>
<path fill="none" stroke="#7b16d7" d="M175.586,-423.929C171.149,-398.725 164.33,-359.994 159.77,-334.095"/>
<ellipse fill="none" stroke="#7b16d7" cx="176.291" cy="-427.932" rx="4.00001" ry="4.00001"/>
<polygon fill="#7b16d7" stroke="#7b16d7" points="159.76,-334.038 162.458,-323.409 158.893,-329.114 158.026,-324.189 158.026,-324.189 158.026,-324.189 158.893,-329.114 153.594,-324.97 159.76,-334.038 159.76,-334.038"/>
</g>
</g>
</svg>
