<?xml version="1.0" encoding="UTF-8" standalone="no"?>
<!DOCTYPE svg PUBLIC "-//W3C//DTD SVG 1.1//EN"
 "http://www.w3.org/Graphics/SVG/1.1/DTD/svg11.dtd">
<!-- Generated by graphviz version 2.36.0 (20140111.2315)
 -->
<!-- Title: models_diagram Pages: 1 -->
<svg width="1264pt" height="734pt"
 viewBox="0.00 0.00 1264.00 734.00" xmlns="http://www.w3.org/2000/svg" xmlns:xlink="http://www.w3.org/1999/xlink">
<g id="graph0" class="graph" transform="scale(1 1) rotate(0) translate(4 730)">
<title>models_diagram</title>
<polygon fill="none" stroke="none" points="-4,4 -4,-730 1260,-730 1260,4 -4,4"/>
<!-- _diagram_info -->
<g id="node1" class="node"><title>_diagram_info</title>
<text text-anchor="start" x="39" y="-711.6" font-family="Times,serif" font-size="13.00">Models diagram</text>
<text text-anchor="start" x="39" y="-697.6" font-family="Times,serif" font-size="13.00">Date: Jul 29 2017 &#45; 11:11</text>
<text text-anchor="start" x="39" y="-683.6" font-family="Times,serif" font-size="13.00">Migration version: 20170728142028</text>
<text text-anchor="start" x="39" y="-669.6" font-family="Times,serif" font-size="13.00">Generated by RailRoady 1.5.2</text>
<text text-anchor="start" x="39" y="-655.6" font-family="Times,serif" font-size="13.00">http://railroady.prestonlee.com</text>
</g>
<!-- AgeRange -->
<g id="node2" class="node"><title>AgeRange</title>
<ellipse fill="none" stroke="black" cx="679" cy="-594" rx="48.1437" ry="18"/>
<text text-anchor="middle" x="679" y="-590.3" font-family="Times,serif" font-size="14.00">AgeRange</text>
</g>
<!-- User -->
<g id="node36" class="node"><title>User</title>
<ellipse fill="none" stroke="black" cx="577" cy="-522" rx="26.949" ry="18"/>
<text text-anchor="middle" x="577" y="-518.3" font-family="Times,serif" font-size="14.00">User</text>
</g>
<!-- AgeRange&#45;&gt;User -->
<g id="edge1" class="edge"><title>AgeRange&#45;&gt;User</title>
<path fill="none" stroke="#dc591b" d="M650.118,-573.179C635.548,-563.18 617.992,-551.132 603.735,-541.348"/>
<ellipse fill="none" stroke="#dc591b" cx="653.569" cy="-575.548" rx="4.00002" ry="4.00002"/>
<polygon fill="#dc591b" stroke="#dc591b" points="603.586,-541.245 597.887,-531.876 599.463,-538.416 595.34,-535.587 595.34,-535.587 595.34,-535.587 599.463,-538.416 592.794,-539.297 603.586,-541.245 603.586,-541.245"/>
</g>
<!-- Assessment -->
<g id="node3" class="node"><title>Assessment</title>
<ellipse fill="none" stroke="black" cx="199" cy="-234" rx="52.4675" ry="18"/>
<text text-anchor="middle" x="199" y="-230.3" font-family="Times,serif" font-size="14.00">Assessment</text>
</g>
<!-- Factor -->
<g id="node17" class="node"><title>Factor</title>
<ellipse fill="none" stroke="black" cx="118" cy="-162" rx="33.2209" ry="18"/>
<text text-anchor="middle" x="118" y="-158.3" font-family="Times,serif" font-size="14.00">Factor</text>
</g>
<!-- Assessment&#45;&gt;Factor -->
<g id="edge3" class="edge"><title>Assessment&#45;&gt;Factor</title>
<path fill="none" stroke="#10c6e1" d="M172.808,-210.365C163.097,-201.973 152.128,-192.493 142.567,-184.231"/>
<polygon fill="#10c6e1" stroke="#10c6e1" points="173.054,-210.577 177.677,-220.521 176.837,-213.847 180.62,-217.116 180.62,-217.116 180.62,-217.116 176.837,-213.847 183.562,-213.711 173.054,-210.577 173.054,-210.577"/>
<polygon fill="#10c6e1" stroke="#10c6e1" points="142.492,-184.166 137.869,-174.223 138.709,-180.897 134.926,-177.628 134.926,-177.628 134.926,-177.628 138.709,-180.897 131.984,-181.032 142.492,-184.166 142.492,-184.166"/>
</g>
<!-- Group -->
<g id="node20" class="node"><title>Group</title>
<ellipse fill="none" stroke="black" cx="276" cy="-162" rx="33.2209" ry="18"/>
<text text-anchor="middle" x="276" y="-158.3" font-family="Times,serif" font-size="14.00">Group</text>
</g>
<!-- Assessment&#45;&gt;Group -->
<g id="edge5" class="edge"><title>Assessment&#45;&gt;Group</title>
<path fill="none" stroke="#19605c" d="M224.563,-209.761C233.465,-201.668 243.412,-192.625 252.169,-184.665"/>
<polygon fill="#19605c" stroke="#19605c" points="224.258,-210.038 213.832,-213.435 220.559,-213.401 216.859,-216.765 216.859,-216.765 216.859,-216.765 220.559,-213.401 219.886,-220.094 224.258,-210.038 224.258,-210.038"/>
<polygon fill="#19605c" stroke="#19605c" points="252.412,-184.444 262.838,-181.047 256.112,-181.08 259.811,-177.717 259.811,-177.717 259.811,-177.717 256.112,-181.08 256.784,-174.387 252.412,-184.444 252.412,-184.444"/>
</g>
<!-- Installment -->
<g id="node24" class="node"><title>Installment</title>
<ellipse fill="none" stroke="black" cx="241" cy="-90" rx="50.5427" ry="18"/>
<text text-anchor="middle" x="241" y="-86.3" font-family="Times,serif" font-size="14.00">Installment</text>
</g>
<!-- Assessment&#45;&gt;Installment -->
<g id="edge2" class="edge"><title>Assessment&#45;&gt;Installment</title>
<path fill="none" stroke="#d78870" d="M206.415,-207.929C213.87,-182.725 225.326,-143.994 232.986,-118.095"/>
<ellipse fill="none" stroke="#d78870" cx="205.201" cy="-212.036" rx="4.00001" ry="4.00001"/>
<polygon fill="#d78870" stroke="#d78870" points="233.079,-117.779 240.231,-109.466 234.498,-112.984 235.916,-108.189 235.916,-108.189 235.916,-108.189 234.498,-112.984 231.601,-106.913 233.079,-117.779 233.079,-117.779"/>
</g>
<!-- Assessment&#45;&gt;User -->
<g id="edge4" class="edge"><title>Assessment&#45;&gt;User</title>
<path fill="none" stroke="#73533d" d="M158.507,-252.827C99.922,-281.131 2.90167,-339.001 45,-396 77.3226,-439.764 112.659,-409.077 162,-432 188.834,-444.467 190.298,-457.606 218,-468 329.702,-509.912 472.588,-518.818 539.401,-520.616"/>
<polygon fill="#73533d" stroke="#73533d" points="158.515,-252.823 169.479,-252.609 163.034,-250.683 167.553,-248.542 167.553,-248.542 167.553,-248.542 163.034,-250.683 165.627,-244.475 158.515,-252.823 158.515,-252.823"/>
<polygon fill="#73533d" stroke="#73533d" points="539.457,-520.617 549.351,-525.346 544.456,-520.732 549.455,-520.847 549.455,-520.847 549.455,-520.847 544.456,-520.732 549.558,-516.348 539.457,-520.617 539.457,-520.617"/>
</g>
<!-- Behavior -->
<g id="node4" class="node"><title>Behavior</title>
<ellipse fill="none" stroke="black" cx="1071" cy="-306" rx="42.3456" ry="18"/>
<text text-anchor="middle" x="1071" y="-302.3" font-family="Times,serif" font-size="14.00">Behavior</text>
</g>
<!-- Diagnosis -->
<g id="node14" class="node"><title>Diagnosis</title>
<ellipse fill="none" stroke="black" cx="1072" cy="-162" rx="46.2191" ry="18"/>
<text text-anchor="middle" x="1072" y="-158.3" font-family="Times,serif" font-size="14.00">Diagnosis</text>
</g>
<!-- Behavior&#45;&gt;Diagnosis -->
<g id="edge8" class="edge"><title>Behavior&#45;&gt;Diagnosis</title>
<path fill="none" stroke="#accc04" d="M1044.67,-284.525C1035.34,-275.652 1025.94,-264.44 1021,-252 1015.09,-237.13 1015.02,-230.84 1021,-216 1025.77,-204.156 1034.6,-193.478 1043.58,-184.862"/>
<ellipse fill="none" stroke="#accc04" cx="1047.77" cy="-287.327" rx="4.00002" ry="4.00002"/>
<polygon fill="#accc04" stroke="#accc04" points="1043.64,-184.811 1054.09,-181.478 1047.36,-181.47 1051.08,-178.13 1051.08,-178.13 1051.08,-178.13 1047.36,-181.47 1048.08,-174.781 1043.64,-184.811 1043.64,-184.811"/>
</g>
<!-- Reaction -->
<g id="node29" class="node"><title>Reaction</title>
<ellipse fill="none" stroke="black" cx="932" cy="-234" rx="42.3701" ry="18"/>
<text text-anchor="middle" x="932" y="-230.3" font-family="Times,serif" font-size="14.00">Reaction</text>
</g>
<!-- Behavior&#45;&gt;Reaction -->
<g id="edge7" class="edge"><title>Behavior&#45;&gt;Reaction</title>
<path fill="none" stroke="#8f29af" d="M1037.28,-288.016C1016.14,-277.374 988.942,-263.676 967.484,-252.87"/>
<ellipse fill="none" stroke="#8f29af" cx="1040.96" cy="-289.87" rx="4.00002" ry="4.00002"/>
<polygon fill="#8f29af" stroke="#8f29af" points="967.305,-252.779 960.398,-244.262 962.839,-250.531 958.373,-248.282 958.373,-248.282 958.373,-248.282 962.839,-250.531 956.349,-252.301 967.305,-252.779 967.305,-252.779"/>
</g>
<!-- Scenario -->
<g id="node32" class="node"><title>Scenario</title>
<ellipse fill="none" stroke="black" cx="1072" cy="-234" rx="41.394" ry="18"/>
<text text-anchor="middle" x="1072" y="-230.3" font-family="Times,serif" font-size="14.00">Scenario</text>
</g>
<!-- Behavior&#45;&gt;Scenario -->
<g id="edge6" class="edge"><title>Behavior&#45;&gt;Scenario</title>
<path fill="none" stroke="#ae877e" d="M1071.36,-279.64C1071.44,-274.063 1071.53,-268.132 1071.61,-262.476"/>
<ellipse fill="none" stroke="#ae877e" cx="1071.3" cy="-283.697" rx="4" ry="4"/>
<polygon fill="#ae877e" stroke="#ae877e" points="1071.61,-262.103 1076.26,-252.169 1071.68,-257.104 1071.76,-252.104 1071.76,-252.104 1071.76,-252.104 1071.68,-257.104 1067.26,-252.04 1071.61,-262.103 1071.61,-262.103"/>
</g>
<!-- BingoGame -->
<g id="node5" class="node"><title>BingoGame</title>
<ellipse fill="none" stroke="black" cx="569" cy="-234" rx="53.4184" ry="18"/>
<text text-anchor="middle" x="569" y="-230.3" font-family="Times,serif" font-size="14.00">BingoGame</text>
</g>
<!-- Candidate -->
<g id="node6" class="node"><title>Candidate</title>
<ellipse fill="none" stroke="black" cx="591" cy="-90" rx="46.2191" ry="18"/>
<text text-anchor="middle" x="591" y="-86.3" font-family="Times,serif" font-size="14.00">Candidate</text>
</g>
<!-- BingoGame&#45;&gt;Candidate -->
<g id="edge10" class="edge"><title>BingoGame&#45;&gt;Candidate</title>
<path fill="none" stroke="#9c4e96" d="M573.233,-205.679C577.136,-180.487 582.898,-143.295 586.793,-118.156"/>
<polygon fill="#9c4e96" stroke="#9c4e96" points="573.185,-205.989 567.207,-215.182 572.419,-210.93 571.654,-215.871 571.654,-215.871 571.654,-215.871 572.419,-210.93 576.101,-216.56 573.185,-205.989 573.185,-205.989"/>
<polygon fill="#9c4e96" stroke="#9c4e96" points="586.806,-118.071 592.784,-108.878 587.571,-113.13 588.337,-108.189 588.337,-108.189 588.337,-108.189 587.571,-113.13 583.89,-107.5 586.806,-118.071 586.806,-118.071"/>
</g>
<!-- CandidateList -->
<g id="node8" class="node"><title>CandidateList</title>
<ellipse fill="none" stroke="black" cx="517" cy="-450" rx="59.1941" ry="18"/>
<text text-anchor="middle" x="517" y="-446.3" font-family="Times,serif" font-size="14.00">CandidateList</text>
</g>
<!-- BingoGame&#45;&gt;CandidateList -->
<g id="edge9" class="edge"><title>BingoGame&#45;&gt;CandidateList</title>
<path fill="none" stroke="#dbb6ab" d="M561.687,-259.862C559.155,-268.718 556.363,-278.78 554,-288 541.975,-334.926 529.711,-390.016 522.758,-422.07"/>
<ellipse fill="none" stroke="#dbb6ab" cx="562.81" cy="-255.97" rx="4.00001" ry="4.00001"/>
<polygon fill="#dbb6ab" stroke="#dbb6ab" points="522.722,-422.237 516.213,-431.062 521.667,-427.124 520.612,-432.012 520.612,-432.012 520.612,-432.012 521.667,-427.124 525.011,-432.961 522.722,-422.237 522.722,-422.237"/>
</g>
<!-- Concept -->
<g id="node10" class="node"><title>Concept</title>
<ellipse fill="none" stroke="black" cx="659" cy="-162" rx="39.9464" ry="18"/>
<text text-anchor="middle" x="659" y="-158.3" font-family="Times,serif" font-size="14.00">Concept</text>
</g>
<!-- BingoGame&#45;&gt;Concept -->
<g id="edge11" class="edge"><title>BingoGame&#45;&gt;Concept</title>
<path fill="none" stroke="#31e484" d="M597.65,-210.717C608.643,-202.166 621.144,-192.444 631.98,-184.016"/>
<polygon fill="#31e484" stroke="#31e484" points="597.316,-210.976 586.66,-213.564 593.369,-214.046 589.422,-217.116 589.422,-217.116 589.422,-217.116 593.369,-214.046 592.185,-220.668 597.316,-210.976 597.316,-210.976"/>
<polygon fill="#31e484" stroke="#31e484" points="631.996,-184.003 642.652,-181.416 635.942,-180.934 639.889,-177.864 639.889,-177.864 639.889,-177.864 635.942,-180.934 637.126,-174.312 631.996,-184.003 631.996,-184.003"/>
</g>
<!-- CandidateFeedback -->
<g id="node7" class="node"><title>CandidateFeedback</title>
<ellipse fill="none" stroke="black" cx="445" cy="-162" rx="79.4147" ry="18"/>
<text text-anchor="middle" x="445" y="-158.3" font-family="Times,serif" font-size="14.00">CandidateFeedback</text>
</g>
<!-- CandidateFeedback&#45;&gt;Candidate -->
<g id="edge12" class="edge"><title>CandidateFeedback&#45;&gt;Candidate</title>
<path fill="none" stroke="#ecf5f2" d="M484.875,-141.882C506.384,-131.569 532.762,-118.922 553.84,-108.817"/>
<ellipse fill="none" stroke="#ecf5f2" cx="481.009" cy="-143.735" rx="4.00002" ry="4.00002"/>
<polygon fill="#ecf5f2" stroke="#ecf5f2" points="554.097,-108.693 565.06,-108.428 558.606,-106.532 563.114,-104.37 563.114,-104.37 563.114,-104.37 558.606,-106.532 561.169,-100.312 554.097,-108.693 554.097,-108.693"/>
</g>
<!-- CandidateList&#45;&gt;Candidate -->
<g id="edge13" class="edge"><title>CandidateList&#45;&gt;Candidate</title>
<path fill="none" stroke="#a20c4e" d="M510.131,-424.278C499.295,-380.84 481.818,-288.545 506,-216 512.325,-197.026 521.534,-196.387 533,-180 547.766,-158.896 563.683,-134.331 575.1,-116.362"/>
<ellipse fill="none" stroke="#a20c4e" cx="511.134" cy="-428.176" rx="4.00001" ry="4.00001"/>
<polygon fill="#a20c4e" stroke="#a20c4e" points="575.284,-116.071 584.433,-110.025 577.957,-111.845 580.63,-107.62 580.63,-107.62 580.63,-107.62 577.957,-111.845 576.827,-105.214 575.284,-116.071 575.284,-116.071"/>
</g>
<!-- CandidateList&#45;&gt;Concept -->
<g id="edge14" class="edge"><title>CandidateList&#45;&gt;Concept</title>
<path fill="none" stroke="#353d87" d="M534.065,-423.728C558.198,-387.135 602.526,-316.68 631,-252 639.893,-231.8 647.251,-207.889 652.19,-189.941"/>
<polygon fill="#353d87" stroke="#353d87" points="533.919,-423.948 524.638,-429.788 531.152,-428.113 528.386,-432.278 528.386,-432.278 528.386,-432.278 531.152,-428.113 532.135,-434.768 533.919,-423.948 533.919,-423.948"/>
<polygon fill="#353d87" stroke="#353d87" points="652.228,-189.796 659.158,-181.298 653.52,-184.966 654.811,-180.136 654.811,-180.136 654.811,-180.136 653.52,-184.966 650.464,-178.973 652.228,-189.796 652.228,-189.796"/>
</g>
<!-- Course -->
<g id="node13" class="node"><title>Course</title>
<ellipse fill="none" stroke="black" cx="707" cy="-378" rx="35.6194" ry="18"/>
<text text-anchor="middle" x="707" y="-374.3" font-family="Times,serif" font-size="14.00">Course</text>
</g>
<!-- CandidateList&#45;&gt;Course -->
<g id="edge15" class="edge"><title>CandidateList&#45;&gt;Course</title>
<path fill="none" stroke="#6f6442" d="M560.742,-432.884C594.391,-420.488 640.285,-403.579 671.634,-392.029"/>
<ellipse fill="none" stroke="#6f6442" cx="556.938" cy="-434.286" rx="4.00001" ry="4.00001"/>
<ellipse fill="#6f6442" stroke="#6f6442" cx="675.521" cy="-390.597" rx="4.00001" ry="4.00001"/>
</g>
<!-- CipCode -->
<g id="node9" class="node"><title>CipCode</title>
<ellipse fill="none" stroke="black" cx="787" cy="-594" rx="42.3701" ry="18"/>
<text text-anchor="middle" x="787" y="-590.3" font-family="Times,serif" font-size="14.00">CipCode</text>
</g>
<!-- CipCode&#45;&gt;User -->
<g id="edge16" class="edge"><title>CipCode&#45;&gt;User</title>
<path fill="none" stroke="#c0c800" d="M746.878,-579.626C707.41,-566.47 647.829,-546.61 610.73,-534.243"/>
<ellipse fill="none" stroke="#c0c800" cx="750.853" cy="-580.951" rx="4.00001" ry="4.00001"/>
<polygon fill="#c0c800" stroke="#c0c800" points="610.384,-534.128 602.32,-526.697 605.641,-532.547 600.897,-530.966 600.897,-530.966 600.897,-530.966 605.641,-532.547 599.474,-535.235 610.384,-534.128 610.384,-534.128"/>
</g>
<!-- Concept&#45;&gt;Candidate -->
<g id="edge17" class="edge"><title>Concept&#45;&gt;Candidate</title>
<path fill="none" stroke="#d3d8fe" d="M637.901,-139.281C630.381,-131.539 621.872,-122.78 614.186,-114.868"/>
<ellipse fill="none" stroke="#d3d8fe" cx="640.783" cy="-142.247" rx="4.00002" ry="4.00002"/>
<polygon fill="#d3d8fe" stroke="#d3d8fe" points="613.809,-114.48 610.069,-104.171 610.325,-110.893 606.841,-107.307 606.841,-107.307 606.841,-107.307 610.325,-110.893 603.613,-110.443 613.809,-114.48 613.809,-114.48"/>
</g>
<!-- ConsentForm -->
<g id="node11" class="node"><title>ConsentForm</title>
<ellipse fill="none" stroke="black" cx="59" cy="-522" rx="59.2173" ry="18"/>
<text text-anchor="middle" x="59" y="-518.3" font-family="Times,serif" font-size="14.00">ConsentForm</text>
</g>
<!-- ConsentLog -->
<g id="node12" class="node"><title>ConsentLog</title>
<ellipse fill="none" stroke="black" cx="100" cy="-450" rx="53.4184" ry="18"/>
<text text-anchor="middle" x="100" y="-446.3" font-family="Times,serif" font-size="14.00">ConsentLog</text>
</g>
<!-- ConsentForm&#45;&gt;ConsentLog -->
<g id="edge19" class="edge"><title>ConsentForm&#45;&gt;ConsentLog</title>
<path fill="none" stroke="#bd825b" d="M73.0586,-496.998C76.9304,-490.387 81.1436,-483.194 85.0631,-476.502"/>
<ellipse fill="none" stroke="#bd825b" cx="70.9466" cy="-500.603" rx="4.00002" ry="4.00002"/>
<polygon fill="#bd825b" stroke="#bd825b" points="85.1124,-476.418 94.0494,-470.063 87.6394,-472.103 90.1664,-467.789 90.1664,-467.789 90.1664,-467.789 87.6394,-472.103 86.2835,-465.515 85.1124,-476.418 85.1124,-476.418"/>
</g>
<!-- Project -->
<g id="node27" class="node"><title>Project</title>
<ellipse fill="none" stroke="black" cx="238" cy="-306" rx="35.6194" ry="18"/>
<text text-anchor="middle" x="238" y="-302.3" font-family="Times,serif" font-size="14.00">Project</text>
</g>
<!-- ConsentForm&#45;&gt;Project -->
<g id="edge18" class="edge"><title>ConsentForm&#45;&gt;Project</title>
<path fill="none" stroke="#4e73b6" d="M43.1912,-497.264C32.5103,-477.965 22.7216,-450.929 37,-432 72.0724,-385.503 114.107,-427.645 163,-396 188.302,-379.624 209.58,-352.118 222.934,-332.01"/>
<ellipse fill="none" stroke="#4e73b6" cx="45.2592" cy="-500.796" rx="4.00002" ry="4.00002"/>
<polygon fill="#4e73b6" stroke="#4e73b6" points="223.089,-331.77 232.283,-325.793 225.794,-327.564 228.498,-323.359 228.498,-323.359 228.498,-323.359 225.794,-327.564 224.713,-320.925 223.089,-331.77 223.089,-331.77"/>
</g>
<!-- Course&#45;&gt;BingoGame -->
<g id="edge22" class="edge"><title>Course&#45;&gt;BingoGame</title>
<path fill="none" stroke="#cf5480" d="M686.385,-355.788C661.142,-329.813 618.503,-285.937 592.154,-258.825"/>
<ellipse fill="none" stroke="#cf5480" cx="689.181" cy="-358.665" rx="4.00002" ry="4.00002"/>
<polygon fill="#cf5480" stroke="#cf5480" points="591.829,-258.491 588.087,-248.183 588.344,-254.905 584.86,-251.32 584.86,-251.32 584.86,-251.32 588.344,-254.905 581.633,-254.456 591.829,-258.491 591.829,-258.491"/>
</g>
<!-- Experience -->
<g id="node16" class="node"><title>Experience</title>
<ellipse fill="none" stroke="black" cx="884" cy="-306" rx="50.0684" ry="18"/>
<text text-anchor="middle" x="884" y="-302.3" font-family="Times,serif" font-size="14.00">Experience</text>
</g>
<!-- Course&#45;&gt;Experience -->
<g id="edge24" class="edge"><title>Course&#45;&gt;Experience</title>
<path fill="none" stroke="#8e19a0" d="M742.033,-363.145C770.791,-351.772 811.596,-335.634 842.084,-323.577"/>
<ellipse fill="none" stroke="#8e19a0" cx="737.988" cy="-364.745" rx="4.00001" ry="4.00001"/>
<polygon fill="#8e19a0" stroke="#8e19a0" points="842.293,-323.495 853.247,-324.001 846.942,-321.656 851.592,-319.817 851.592,-319.817 851.592,-319.817 846.942,-321.656 849.937,-315.632 842.293,-323.495 842.293,-323.495"/>
</g>
<!-- Course&#45;&gt;Project -->
<g id="edge20" class="edge"><title>Course&#45;&gt;Project</title>
<path fill="none" stroke="#10e8cb" d="M665.305,-370.777C576.934,-357.587 371.544,-326.932 281.555,-313.501"/>
<ellipse fill="none" stroke="#10e8cb" cx="669.314" cy="-371.375" rx="4.00001" ry="4.00001"/>
<polygon fill="#10e8cb" stroke="#10e8cb" points="281.314,-313.465 272.088,-307.538 276.369,-312.727 271.424,-311.989 271.424,-311.989 271.424,-311.989 276.369,-312.727 270.759,-316.439 281.314,-313.465 281.314,-313.465"/>
</g>
<!-- Roster -->
<g id="node31" class="node"><title>Roster</title>
<ellipse fill="none" stroke="black" cx="782" cy="-306" rx="33.1991" ry="18"/>
<text text-anchor="middle" x="782" y="-302.3" font-family="Times,serif" font-size="14.00">Roster</text>
</g>
<!-- Course&#45;&gt;Roster -->
<g id="edge21" class="edge"><title>Course&#45;&gt;Roster</title>
<path fill="none" stroke="#d0b851" d="M729.201,-356.279C738.437,-347.659 749.167,-337.644 758.532,-328.903"/>
<ellipse fill="none" stroke="#d0b851" cx="726.198" cy="-359.082" rx="4.00002" ry="4.00002"/>
<polygon fill="#d0b851" stroke="#d0b851" points="758.705,-328.742 769.086,-325.209 762.36,-325.33 766.016,-321.919 766.016,-321.919 766.016,-321.919 762.36,-325.33 762.945,-318.629 758.705,-328.742 758.705,-328.742"/>
</g>
<!-- Course&#45;&gt;User -->
<g id="edge23" class="edge"><title>Course&#45;&gt;User</title>
<path fill="none" stroke="#bafbee" d="M685.597,-402.378C661.131,-429.103 621.375,-472.529 597.356,-498.766"/>
<polygon fill="#bafbee" stroke="#bafbee" points="685.913,-402.034 695.984,-397.697 689.289,-398.346 692.665,-394.658 692.665,-394.658 692.665,-394.658 689.289,-398.346 689.346,-391.619 685.913,-402.034 685.913,-402.034"/>
<polygon fill="#bafbee" stroke="#bafbee" points="597.175,-498.962 587.103,-503.3 593.799,-502.65 590.423,-506.338 590.423,-506.338 590.423,-506.338 593.799,-502.65 593.742,-509.377 597.175,-498.962 597.175,-498.962"/>
</g>
<!-- Diagnosis&#45;&gt;User -->
<g id="edge25" class="edge"><title>Diagnosis&#45;&gt;User</title>
<path fill="none" stroke="#be0091" d="M1109.16,-179.351C1152.42,-201.202 1218,-244.334 1218,-305 1218,-379 1218,-379 1218,-379 1218,-443.982 1162.41,-444.046 1102,-468 1012.34,-503.556 714.95,-516.478 612.247,-519.945"/>
<ellipse fill="none" stroke="#be0091" cx="1105.49" cy="-177.54" rx="4.00002" ry="4.00002"/>
<ellipse fill="#be0091" stroke="#be0091" cx="608.054" cy="-520.083" rx="4" ry="4"/>
</g>
<!-- Email -->
<g id="node15" class="node"><title>Email</title>
<ellipse fill="none" stroke="black" cx="280" cy="-450" rx="32.2457" ry="18"/>
<text text-anchor="middle" x="280" y="-446.3" font-family="Times,serif" font-size="14.00">Email</text>
</g>
<!-- Experience&#45;&gt;Reaction -->
<g id="edge26" class="edge"><title>Experience&#45;&gt;Reaction</title>
<path fill="none" stroke="#1c3f6a" d="M899.9,-281.812C904.688,-274.831 909.962,-267.138 914.828,-260.042"/>
<ellipse fill="none" stroke="#1c3f6a" cx="897.637" cy="-285.112" rx="4.00002" ry="4.00002"/>
<polygon fill="#1c3f6a" stroke="#1c3f6a" points="915.051,-259.717 924.418,-254.015 917.879,-255.594 920.706,-251.47 920.706,-251.47 920.706,-251.47 917.879,-255.594 916.995,-248.925 915.051,-259.717 915.051,-259.717"/>
</g>
<!-- FactorPack -->
<g id="node18" class="node"><title>FactorPack</title>
<ellipse fill="none" stroke="black" cx="104" cy="-378" rx="50.0684" ry="18"/>
<text text-anchor="middle" x="104" y="-374.3" font-family="Times,serif" font-size="14.00">FactorPack</text>
</g>
<!-- FactorPack&#45;&gt;Factor -->
<g id="edge27" class="edge"><title>FactorPack&#45;&gt;Factor</title>
<path fill="none" stroke="#71907d" d="M105.657,-351.67C108.31,-311.116 113.489,-231.949 116.219,-190.227"/>
<ellipse fill="none" stroke="#71907d" cx="105.383" cy="-355.858" rx="4" ry="4"/>
<polygon fill="#71907d" stroke="#71907d" points="116.22,-190.211 121.363,-180.526 116.546,-185.222 116.873,-180.232 116.873,-180.232 116.873,-180.232 116.546,-185.222 112.382,-179.939 116.22,-190.211 116.22,-190.211"/>
</g>
<!-- FactorPack&#45;&gt;Project -->
<g id="edge28" class="edge"><title>FactorPack&#45;&gt;Project</title>
<path fill="none" stroke="#a6a482" d="M138.228,-359.12C158.805,-348.37 184.853,-334.763 205.174,-324.148"/>
<ellipse fill="none" stroke="#a6a482" cx="134.662" cy="-360.982" rx="4.00002" ry="4.00002"/>
<polygon fill="#a6a482" stroke="#a6a482" points="205.204,-324.132 216.151,-323.491 209.636,-321.817 214.068,-319.502 214.068,-319.502 214.068,-319.502 209.636,-321.817 211.984,-315.513 205.204,-324.132 205.204,-324.132"/>
</g>
<!-- Gender -->
<g id="node19" class="node"><title>Gender</title>
<ellipse fill="none" stroke="black" cx="222" cy="-594" rx="36.096" ry="18"/>
<text text-anchor="middle" x="222" y="-590.3" font-family="Times,serif" font-size="14.00">Gender</text>
</g>
<!-- Gender&#45;&gt;User -->
<g id="edge29" class="edge"><title>Gender&#45;&gt;User</title>
<path fill="none" stroke="#15a5be" d="M257.879,-580.056C262.595,-578.575 267.39,-577.177 272,-576 367.352,-551.663 482.335,-535.026 540.087,-527.525"/>
<ellipse fill="none" stroke="#15a5be" cx="253.866" cy="-581.364" rx="4.00001" ry="4.00001"/>
<polygon fill="#15a5be" stroke="#15a5be" points="540.268,-527.502 550.759,-530.694 545.227,-526.866 550.187,-526.231 550.187,-526.231 550.187,-526.231 545.227,-526.866 549.615,-521.767 540.268,-527.502 540.268,-527.502"/>
</g>
<!-- Group&#45;&gt;CandidateList -->
<g id="edge32" class="edge"><title>Group&#45;&gt;CandidateList</title>
<path fill="none" stroke="#69e1bd" d="M298.686,-183.106C309.163,-192.731 321.565,-204.617 332,-216 366.551,-253.689 458.306,-372.436 498.123,-424.327"/>
<ellipse fill="none" stroke="#69e1bd" cx="295.727" cy="-180.414" rx="4.00002" ry="4.00002"/>
<polygon fill="#69e1bd" stroke="#69e1bd" points="498.186,-424.41 500.7,-435.084 501.229,-428.378 504.271,-432.346 504.271,-432.346 504.271,-432.346 501.229,-428.378 507.842,-429.608 498.186,-424.41 498.186,-424.41"/>
</g>
<!-- GroupRevision -->
<g id="node21" class="node"><title>GroupRevision</title>
<ellipse fill="none" stroke="black" cx="374" cy="-90" rx="64.0172" ry="18"/>
<text text-anchor="middle" x="374" y="-86.3" font-family="Times,serif" font-size="14.00">GroupRevision</text>
</g>
<!-- Group&#45;&gt;GroupRevision -->
<g id="edge31" class="edge"><title>Group&#45;&gt;GroupRevision</title>
<path fill="none" stroke="#3f3159" d="M302.142,-142.327C314.791,-133.292 330.058,-122.387 343.262,-112.956"/>
<ellipse fill="none" stroke="#3f3159" cx="298.617" cy="-144.845" rx="4.00002" ry="4.00002"/>
<polygon fill="#3f3159" stroke="#3f3159" points="343.454,-112.818 354.207,-110.668 347.523,-109.912 351.592,-107.006 351.592,-107.006 351.592,-107.006 347.523,-109.912 348.976,-103.344 343.454,-112.818 343.454,-112.818"/>
</g>
<!-- Group&#45;&gt;Installment -->
<g id="edge33" class="edge"><title>Group&#45;&gt;Installment</title>
<path fill="none" stroke="#33ad69" d="M264.031,-137.062C260.816,-130.632 257.324,-123.647 254.053,-117.106"/>
<ellipse fill="none" stroke="#33ad69" cx="265.917" cy="-140.833" rx="4.00002" ry="4.00002"/>
<polygon fill="#33ad69" stroke="#33ad69" points="253.95,-116.9 253.503,-105.944 251.714,-112.428 249.478,-107.956 249.478,-107.956 249.478,-107.956 251.714,-112.428 245.453,-109.969 253.95,-116.9 253.95,-116.9"/>
</g>
<!-- Group&#45;&gt;User -->
<g id="edge30" class="edge"><title>Group&#45;&gt;User</title>
<path fill="none" stroke="#055843" d="M280.307,-190.209C291.485,-257.456 323.401,-428.877 364,-468 388.953,-492.046 485.96,-508.676 540.044,-516.291"/>
<polygon fill="#055843" stroke="#055843" points="280.249,-189.856 283.076,-179.26 279.442,-184.921 278.635,-179.987 278.635,-179.987 278.635,-179.987 279.442,-184.921 274.194,-180.713 280.249,-189.856 280.249,-189.856"/>
<polygon fill="#055843" stroke="#055843" points="540.348,-516.332 549.642,-522.151 545.301,-517.013 550.255,-517.693 550.255,-517.693 550.255,-517.693 545.301,-517.013 550.867,-513.235 540.348,-516.332 540.348,-516.332"/>
</g>
<!-- HomeCountry -->
<g id="node22" class="node"><title>HomeCountry</title>
<ellipse fill="none" stroke="black" cx="325" cy="-687" rx="61.6163" ry="18"/>
<text text-anchor="middle" x="325" y="-683.3" font-family="Times,serif" font-size="14.00">HomeCountry</text>
</g>
<!-- HomeState -->
<g id="node23" class="node"><title>HomeState</title>
<ellipse fill="none" stroke="black" cx="364" cy="-594" rx="50.0684" ry="18"/>
<text text-anchor="middle" x="364" y="-590.3" font-family="Times,serif" font-size="14.00">HomeState</text>
</g>
<!-- HomeCountry&#45;&gt;HomeState -->
<g id="edge35" class="edge"><title>HomeCountry&#45;&gt;HomeState</title>
<path fill="none" stroke="#0e49d8" d="M335.646,-661.159C340.918,-648.858 347.286,-633.999 352.65,-621.482"/>
<ellipse fill="none" stroke="#0e49d8" cx="333.911" cy="-665.207" rx="4.00001" ry="4.00001"/>
<polygon fill="#0e49d8" stroke="#0e49d8" points="352.758,-621.231 360.833,-613.812 354.728,-616.635 356.697,-612.04 356.697,-612.04 356.697,-612.04 354.728,-616.635 352.561,-610.267 352.758,-621.231 352.758,-621.231"/>
</g>
<!-- HomeCountry&#45;&gt;User -->
<g id="edge34" class="edge"><title>HomeCountry&#45;&gt;User</title>
<path fill="none" stroke="#0f17f1" d="M310.644,-661.904C298.212,-637.553 285.089,-600.165 305,-576 334.33,-540.403 472.314,-528.397 539.735,-524.613"/>
<ellipse fill="none" stroke="#0f17f1" cx="312.557" cy="-665.486" rx="4.00002" ry="4.00002"/>
<polygon fill="#0f17f1" stroke="#0f17f1" points="539.937,-524.602 550.161,-528.568 544.93,-524.338 549.923,-524.074 549.923,-524.074 549.923,-524.074 544.93,-524.338 549.685,-519.58 539.937,-524.602 539.937,-524.602"/>
</g>
<!-- HomeState&#45;&gt;User -->
<g id="edge36" class="edge"><title>HomeState&#45;&gt;User</title>
<path fill="none" stroke="#b6c8a1" d="M407.324,-578.762C447.557,-565.54 506.627,-546.127 543.401,-534.042"/>
<ellipse fill="none" stroke="#b6c8a1" cx="403.451" cy="-580.035" rx="4.00001" ry="4.00001"/>
<polygon fill="#b6c8a1" stroke="#b6c8a1" points="543.647,-533.961 554.553,-535.114 548.398,-532.4 553.148,-530.839 553.148,-530.839 553.148,-530.839 548.398,-532.4 551.743,-526.564 543.647,-533.961 543.647,-533.961"/>
</g>
<!-- Value -->
<g id="node37" class="node"><title>Value</title>
<ellipse fill="none" stroke="black" cx="241" cy="-18" rx="31.2735" ry="18"/>
<text text-anchor="middle" x="241" y="-14.3" font-family="Times,serif" font-size="14.00">Value</text>
</g>
<!-- Installment&#45;&gt;Value -->
<g id="edge37" class="edge"><title>Installment&#45;&gt;Value</title>
<path fill="none" stroke="#76ed31" d="M241,-63.6398C241,-58.0629 241,-52.1319 241,-46.4761"/>
<ellipse fill="none" stroke="#76ed31" cx="241" cy="-67.6966" rx="4" ry="4"/>
<polygon fill="#76ed31" stroke="#76ed31" points="241,-46.1043 245.5,-36.1043 241,-41.1043 241,-36.1043 241,-36.1043 241,-36.1043 241,-41.1043 236.5,-36.1044 241,-46.1043 241,-46.1043"/>
</g>
<!-- Language -->
<g id="node25" class="node"><title>Language</title>
<ellipse fill="none" stroke="black" cx="478" cy="-594" rx="45.244" ry="18"/>
<text text-anchor="middle" x="478" y="-590.3" font-family="Times,serif" font-size="14.00">Language</text>
</g>
<!-- Language&#45;&gt;User -->
<g id="edge38" class="edge"><title>Language&#45;&gt;User</title>
<path fill="none" stroke="#9117b8" d="M507.806,-571.925C521.45,-562.278 537.478,-550.945 550.671,-541.616"/>
<polygon fill="#9117b8" stroke="#9117b8" points="507.647,-572.038 496.884,-574.137 503.564,-574.924 499.482,-577.811 499.482,-577.811 499.482,-577.811 503.564,-574.924 502.08,-581.485 507.647,-572.038 507.647,-572.038"/>
<polygon fill="#9117b8" stroke="#9117b8" points="550.713,-541.587 561.476,-539.488 554.795,-538.7 558.878,-535.814 558.878,-535.814 558.878,-535.814 554.795,-538.7 556.28,-532.139 550.713,-541.587 550.713,-541.587"/>
</g>
<!-- Narrative -->
<g id="node26" class="node"><title>Narrative</title>
<ellipse fill="none" stroke="black" cx="1049" cy="-450" rx="44.2946" ry="18"/>
<text text-anchor="middle" x="1049" y="-446.3" font-family="Times,serif" font-size="14.00">Narrative</text>
</g>
<!-- Narrative&#45;&gt;Behavior -->
<g id="edge40" class="edge"><title>Narrative&#45;&gt;Behavior</title>
<path fill="none" stroke="#ed6d17" d="M1052.88,-423.929C1056.88,-398.165 1063.06,-358.266 1067.07,-332.387"/>
<ellipse fill="none" stroke="#ed6d17" cx="1052.27" cy="-427.919" rx="4.00001" ry="4.00001"/>
<ellipse fill="#ed6d17" stroke="#ed6d17" cx="1067.72" cy="-328.142" rx="4.00001" ry="4.00001"/>
</g>
<!-- Narrative&#45;&gt;Reaction -->
<g id="edge41" class="edge"><title>Narrative&#45;&gt;Reaction</title>
<path fill="none" stroke="#1c49d5" d="M1040.1,-424.09C1027.94,-391.532 1004.37,-333.326 976,-288 969.587,-277.755 961.381,-267.34 953.796,-258.484"/>
<ellipse fill="none" stroke="#1c49d5" cx="1041.56" cy="-428.039" rx="4.00001" ry="4.00001"/>
<polygon fill="#1c49d5" stroke="#1c49d5" points="953.677,-258.35 950.453,-247.869 950.376,-254.595 947.074,-250.84 947.074,-250.84 947.074,-250.84 950.376,-254.595 943.694,-253.812 953.677,-258.35 953.677,-258.35"/>
</g>
<!-- Week -->
<g id="node38" class="node"><title>Week</title>
<ellipse fill="none" stroke="black" cx="1109" cy="-378" rx="31.2735" ry="18"/>
<text text-anchor="middle" x="1109" y="-374.3" font-family="Times,serif" font-size="14.00">Week</text>
</g>
<!-- Narrative&#45;&gt;Week -->
<g id="edge39" class="edge"><title>Narrative&#45;&gt;Week</title>
<path fill="none" stroke="#fb41b8" d="M1068.24,-426.551C1074.79,-418.917 1082.12,-410.365 1088.74,-402.64"/>
<ellipse fill="none" stroke="#fb41b8" cx="1065.52" cy="-429.728" rx="4.00002" ry="4.00002"/>
<polygon fill="#fb41b8" stroke="#fb41b8" points="1089.06,-402.258 1098.99,-397.594 1092.32,-398.462 1095.57,-394.666 1095.57,-394.666 1095.57,-394.666 1092.32,-398.462 1092.16,-391.737 1089.06,-402.258 1089.06,-402.258"/>
</g>
<!-- Project&#45;&gt;Assessment -->
<g id="edge44" class="edge"><title>Project&#45;&gt;Assessment</title>
<path fill="none" stroke="#6494c3" d="M224.822,-281.346C221.129,-274.719 217.097,-267.483 213.341,-260.74"/>
<ellipse fill="none" stroke="#6494c3" cx="226.811" cy="-284.917" rx="4.00002" ry="4.00002"/>
<polygon fill="#6494c3" stroke="#6494c3" points="213.314,-260.692 212.378,-249.766 210.881,-256.324 208.447,-251.956 208.447,-251.956 208.447,-251.956 210.881,-256.324 204.516,-254.146 213.314,-260.692 213.314,-260.692"/>
</g>
<!-- Project&#45;&gt;BingoGame -->
<g id="edge43" class="edge"><title>Project&#45;&gt;BingoGame</title>
<path fill="none" stroke="#5f14ee" d="M278.082,-296.524C337.407,-283.977 448.71,-260.439 515.116,-246.395"/>
<ellipse fill="none" stroke="#5f14ee" cx="273.952" cy="-297.397" rx="4.00001" ry="4.00001"/>
<polygon fill="#5f14ee" stroke="#5f14ee" points="515.191,-246.38 525.905,-248.713 520.082,-245.345 524.974,-244.311 524.974,-244.311 524.974,-244.311 520.082,-245.345 524.043,-239.908 515.191,-246.38 515.191,-246.38"/>
</g>
<!-- Project&#45;&gt;Factor -->
<g id="edge46" class="edge"><title>Project&#45;&gt;Factor</title>
<path fill="none" stroke="#b9902e" d="M197.852,-293.207C176.68,-284.975 152.048,-271.838 137,-252 123.608,-234.345 119.187,-209.321 117.927,-190.302"/>
<polygon fill="#b9902e" stroke="#b9902e" points="197.894,-293.223 205.746,-300.878 202.591,-294.937 207.288,-296.651 207.288,-296.651 207.288,-296.651 202.591,-294.937 208.831,-292.424 197.894,-293.223 197.894,-293.223"/>
<polygon fill="#b9902e" stroke="#b9902e" points="117.921,-190.161 122.007,-179.984 117.716,-185.165 117.511,-180.169 117.511,-180.169 117.511,-180.169 117.716,-185.165 113.015,-180.354 117.921,-190.161 117.921,-190.161"/>
</g>
<!-- Project&#45;&gt;Group -->
<g id="edge42" class="edge"><title>Project&#45;&gt;Group</title>
<path fill="none" stroke="#1910a9" d="M249.362,-280.737C253.178,-271.848 257.177,-261.611 260,-252 266,-231.572 270.133,-207.809 272.694,-189.979"/>
<ellipse fill="none" stroke="#1910a9" cx="247.705" cy="-284.492" rx="4.00002" ry="4.00002"/>
<polygon fill="#1910a9" stroke="#1910a9" points="272.706,-189.891 278.513,-180.589 273.38,-184.936 274.054,-179.982 274.054,-179.982 274.054,-179.982 273.38,-184.936 269.596,-179.375 272.706,-189.891 272.706,-189.891"/>
</g>
<!-- Project&#45;&gt;User -->
<g id="edge45" class="edge"><title>Project&#45;&gt;User</title>
<path fill="none" stroke="#795162" d="M228.769,-333.622C218.424,-368.839 206.967,-430.788 239,-468 277.522,-512.752 460.086,-519.959 539.714,-520.947"/>
<polygon fill="#795162" stroke="#795162" points="228.785,-333.572 236.054,-325.362 230.271,-328.798 231.757,-324.024 231.757,-324.024 231.757,-324.024 230.271,-328.798 227.461,-322.686 228.785,-333.572 228.785,-333.572"/>
<polygon fill="#795162" stroke="#795162" points="539.795,-520.947 549.751,-525.545 544.795,-520.996 549.795,-521.045 549.795,-521.045 549.795,-521.045 544.795,-520.996 549.839,-516.545 539.795,-520.947 539.795,-520.947"/>
</g>
<!-- Quote -->
<g id="node28" class="node"><title>Quote</title>
<ellipse fill="none" stroke="black" cx="437" cy="-687" rx="32.2457" ry="18"/>
<text text-anchor="middle" x="437" y="-683.3" font-family="Times,serif" font-size="14.00">Quote</text>
</g>
<!-- Reaction&#45;&gt;Course -->
<g id="edge47" class="edge"><title>Reaction&#45;&gt;Course</title>
<path fill="none" stroke="#50b2f1" d="M881.675,-236.356C838.685,-240.134 777.808,-252.076 739,-288 721.182,-304.494 713.271,-331.629 709.767,-351.608"/>
<ellipse fill="none" stroke="#50b2f1" cx="885.766" cy="-236.035" rx="4" ry="4"/>
<ellipse fill="#50b2f1" stroke="#50b2f1" cx="709.131" cy="-355.728" rx="4.00001" ry="4.00001"/>
</g>
<!-- Reaction&#45;&gt;Diagnosis -->
<g id="edge48" class="edge"><title>Reaction&#45;&gt;Diagnosis</title>
<path fill="none" stroke="#35c948" d="M965.583,-216.209C986.715,-205.642 1013.99,-192.007 1035.63,-181.185"/>
<ellipse fill="none" stroke="#35c948" cx="961.911" cy="-218.045" rx="4.00002" ry="4.00002"/>
<polygon fill="#35c948" stroke="#35c948" points="1035.89,-181.057 1046.84,-180.61 1040.36,-178.821 1044.83,-176.585 1044.83,-176.585 1044.83,-176.585 1040.36,-178.821 1042.82,-172.56 1035.89,-181.057 1035.89,-181.057"/>
</g>
<!-- Role -->
<g id="node30" class="node"><title>Role</title>
<ellipse fill="none" stroke="black" cx="875" cy="-594" rx="26.949" ry="18"/>
<text text-anchor="middle" x="875" y="-590.3" font-family="Times,serif" font-size="14.00">Role</text>
</g>
<!-- Role&#45;&gt;Roster -->
<g id="edge50" class="edge"><title>Role&#45;&gt;Roster</title>
<path fill="none" stroke="#b86953" d="M866.928,-568.177C849.528,-514.666 808.611,-388.837 790.678,-333.689"/>
<ellipse fill="none" stroke="#b86953" cx="868.224" cy="-572.162" rx="4.00001" ry="4.00001"/>
<polygon fill="#b86953" stroke="#b86953" points="790.602,-333.455 791.789,-322.553 789.056,-328.7 787.51,-323.945 787.51,-323.945 787.51,-323.945 789.056,-328.7 783.231,-325.336 790.602,-333.455 790.602,-333.455"/>
</g>
<!-- Role&#45;&gt;User -->
<g id="edge49" class="edge"><title>Role&#45;&gt;User</title>
<path fill="none" stroke="#799423" d="M845.964,-578.908C843.302,-577.845 840.621,-576.856 838,-576 760.032,-550.549 664.803,-534.922 613.667,-527.725"/>
<ellipse fill="none" stroke="#799423" cx="850.135" cy="-580.686" rx="4.00001" ry="4.00001"/>
<polygon fill="#799423" stroke="#799423" points="613.352,-527.681 604.06,-521.858 608.399,-526.999 603.446,-526.316 603.446,-526.316 603.446,-526.316 608.399,-526.999 602.832,-530.774 613.352,-527.681 613.352,-527.681"/>
</g>
<!-- Scenario&#45;&gt;Narrative -->
<g id="edge51" class="edge"><title>Scenario&#45;&gt;Narrative</title>
<path fill="none" stroke="#ed3f1a" d="M1095.93,-256.509C1128.01,-288.031 1177.76,-348.214 1149,-396 1137.19,-415.621 1115.41,-428.361 1095.18,-436.419"/>
<ellipse fill="none" stroke="#ed3f1a" cx="1092.67" cy="-253.371" rx="4.00002" ry="4.00002"/>
<polygon fill="#ed3f1a" stroke="#ed3f1a" points="1095.12,-436.443 1084.18,-435.682 1090.43,-438.174 1085.74,-439.904 1085.74,-439.904 1085.74,-439.904 1090.43,-438.174 1087.29,-444.126 1095.12,-436.443 1095.12,-436.443"/>
</g>
<!-- School -->
<g id="node33" class="node"><title>School</title>
<ellipse fill="none" stroke="black" cx="707" cy="-450" rx="35.1455" ry="18"/>
<text text-anchor="middle" x="707" y="-446.3" font-family="Times,serif" font-size="14.00">School</text>
</g>
<!-- School&#45;&gt;BingoGame -->
<g id="edge53" class="edge"><title>School&#45;&gt;BingoGame</title>
<path fill="none" stroke="#397c30" d="M685.708,-425.523C677.926,-416.537 669.258,-406.034 662,-396 629.455,-351.01 598.656,-293.788 581.951,-261.086"/>
<polygon fill="#397c30" stroke="#397c30" points="685.936,-425.782 689.161,-436.263 689.238,-429.536 692.54,-433.291 692.54,-433.291 692.54,-433.291 689.238,-429.536 695.919,-430.319 685.936,-425.782 685.936,-425.782"/>
<polygon fill="#397c30" stroke="#397c30" points="581.946,-261.075 581.443,-250.121 579.687,-256.615 577.428,-252.154 577.428,-252.154 577.428,-252.154 579.687,-256.615 573.414,-254.187 581.946,-261.075 581.946,-261.075"/>
</g>
<!-- School&#45;&gt;Course -->
<g id="edge52" class="edge"><title>School&#45;&gt;Course</title>
<path fill="none" stroke="#06b7bc" d="M707,-423.64C707,-418.063 707,-412.132 707,-406.476"/>
<ellipse fill="none" stroke="#06b7bc" cx="707" cy="-427.697" rx="4" ry="4"/>
<polygon fill="#06b7bc" stroke="#06b7bc" points="707,-406.104 711.5,-396.104 707,-401.104 707,-396.104 707,-396.104 707,-396.104 707,-401.104 702.5,-396.104 707,-406.104 707,-406.104"/>
</g>
<!-- School&#45;&gt;Experience -->
<g id="edge55" class="edge"><title>School&#45;&gt;Experience</title>
<path fill="none" stroke="#1364d6" d="M733.34,-427.869C766.401,-401.345 822.839,-356.067 856.456,-329.098"/>
<polygon fill="#1364d6" stroke="#1364d6" points="733.076,-428.081 722.459,-430.828 729.175,-431.209 725.275,-434.338 725.275,-434.338 725.275,-434.338 729.175,-431.209 728.091,-437.848 733.076,-428.081 733.076,-428.081"/>
<polygon fill="#1364d6" stroke="#1364d6" points="856.683,-328.916 867.299,-326.168 860.583,-325.787 864.483,-322.658 864.483,-322.658 864.483,-322.658 860.583,-325.787 861.667,-319.148 856.683,-328.916 856.683,-328.916"/>
</g>
<!-- School&#45;&gt;Project -->
<g id="edge54" class="edge"><title>School&#45;&gt;Project</title>
<path fill="none" stroke="#73c5d9" d="M667.942,-437.174C579.696,-410.456 365.74,-345.676 277.282,-318.894"/>
<polygon fill="#73c5d9" stroke="#73c5d9" points="668.091,-437.219 676.358,-444.424 672.876,-438.668 677.662,-440.117 677.662,-440.117 677.662,-440.117 672.876,-438.668 678.966,-435.81 668.091,-437.219 668.091,-437.219"/>
<polygon fill="#73c5d9" stroke="#73c5d9" points="277.199,-318.869 268.932,-311.664 272.414,-317.42 267.628,-315.971 267.628,-315.971 267.628,-315.971 272.414,-317.42 266.324,-320.278 277.199,-318.869 277.199,-318.869"/>
</g>
<!-- School&#45;&gt;Roster -->
<g id="edge56" class="edge"><title>School&#45;&gt;Roster</title>
<path fill="none" stroke="#77b4cc" d="M729.312,-425.823C736.95,-416.999 745.057,-406.524 751,-396 762.081,-376.376 770.212,-352.106 775.359,-333.869"/>
<polygon fill="#77b4cc" stroke="#77b4cc" points="729.18,-425.97 719.155,-430.414 725.843,-429.694 722.506,-433.417 722.506,-433.417 722.506,-433.417 725.843,-429.694 725.857,-436.42 729.18,-425.97 729.18,-425.97"/>
<polygon fill="#77b4cc" stroke="#77b4cc" points="775.372,-333.823 782.323,-325.342 776.675,-328.996 777.979,-324.168 777.979,-324.168 777.979,-324.168 776.675,-328.996 773.634,-322.995 775.372,-333.823 775.372,-333.823"/>
</g>
<!-- Style -->
<g id="node34" class="node"><title>Style</title>
<ellipse fill="none" stroke="black" cx="277" cy="-378" rx="28.3955" ry="18"/>
<text text-anchor="middle" x="277" y="-374.3" font-family="Times,serif" font-size="14.00">Style</text>
</g>
<!-- Style&#45;&gt;Project -->
<g id="edge57" class="edge"><title>Style&#45;&gt;Project</title>
<path fill="none" stroke="#149248" d="M263.955,-353.585C260.195,-346.837 256.074,-339.441 252.246,-332.569"/>
<ellipse fill="none" stroke="#149248" cx="266.008" cy="-357.27" rx="4.00002" ry="4.00002"/>
<polygon fill="#149248" stroke="#149248" points="252.134,-332.369 251.198,-321.443 249.701,-328.001 247.267,-323.633 247.267,-323.633 247.267,-323.633 249.701,-328.001 243.336,-325.824 252.134,-332.369 252.134,-332.369"/>
</g>
<!-- Theme -->
<g id="node35" class="node"><title>Theme</title>
<ellipse fill="none" stroke="black" cx="577" cy="-594" rx="35.6194" ry="18"/>
<text text-anchor="middle" x="577" y="-590.3" font-family="Times,serif" font-size="14.00">Theme</text>
</g>
<!-- Theme&#45;&gt;User -->
<g id="edge58" class="edge"><title>Theme&#45;&gt;User</title>
<path fill="none" stroke="#0fb262" d="M577,-567.64C577,-562.063 577,-556.132 577,-550.476"/>
<ellipse fill="none" stroke="#0fb262" cx="577" cy="-571.697" rx="4" ry="4"/>
<polygon fill="#0fb262" stroke="#0fb262" points="577,-550.104 581.5,-540.104 577,-545.104 577,-540.104 577,-540.104 577,-540.104 577,-545.104 572.5,-540.104 577,-550.104 577,-550.104"/>
</g>
<!-- User&#45;&gt;Candidate -->
<g id="edge63" class="edge"><title>User&#45;&gt;Candidate</title>
<path fill="none" stroke="#af4b06" d="M612.286,-520.803C723.143,-519.721 1062.93,-512.745 1162,-468 1214.43,-444.319 1256,-436.533 1256,-379 1256,-379 1256,-379 1256,-233 1256,-108.963 807.932,-92.8785 647.385,-91.0965"/>
<ellipse fill="none" stroke="#af4b06" cx="608.096" cy="-520.84" rx="4" ry="4"/>
<polygon fill="#af4b06" stroke="#af4b06" points="647.233,-91.0952 637.277,-86.4991 642.233,-91.047 637.234,-90.9989 637.234,-90.9989 637.234,-90.9989 642.233,-91.047 637.19,-95.4987 647.233,-91.0952 647.233,-91.0952"/>
</g>
<!-- User&#45;&gt;CandidateList -->
<g id="edge61" class="edge"><title>User&#45;&gt;CandidateList</title>
<path fill="none" stroke="#969c89" d="M558.729,-499.684C552.112,-491.964 544.592,-483.19 537.775,-475.237"/>
<ellipse fill="none" stroke="#969c89" cx="561.378" cy="-502.774" rx="4.00002" ry="4.00002"/>
<polygon fill="#969c89" stroke="#969c89" points="537.76,-475.22 534.669,-464.699 534.506,-471.424 531.252,-467.628 531.252,-467.628 531.252,-467.628 534.506,-471.424 527.836,-470.556 537.76,-475.22 537.76,-475.22"/>
</g>
<!-- User&#45;&gt;Concept -->
<g id="edge62" class="edge"><title>User&#45;&gt;Concept</title>
<path fill="none" stroke="#91abca" d="M585.565,-496.481C601.542,-449.633 635.737,-343.874 652,-252 655.624,-231.525 657.372,-208.068 658.215,-190.378"/>
<ellipse fill="none" stroke="#91abca" cx="584.191" cy="-500.484" rx="4.00001" ry="4.00001"/>
<polygon fill="#91abca" stroke="#91abca" points="658.223,-190.178 663.128,-180.37 658.428,-185.182 658.632,-180.186 658.632,-180.186 658.632,-180.186 658.428,-185.182 654.136,-180.002 658.223,-190.178 658.223,-190.178"/>
</g>
<!-- User&#45;&gt;ConsentLog -->
<g id="edge60" class="edge"><title>User&#45;&gt;ConsentLog</title>
<path fill="none" stroke="#f3dd0c" d="M541.845,-517.833C470.807,-511.129 305.239,-493.956 168,-468 162.255,-466.913 156.271,-465.636 150.341,-464.277"/>
<ellipse fill="none" stroke="#f3dd0c" cx="546.049" cy="-518.226" rx="4" ry="4"/>
<polygon fill="#f3dd0c" stroke="#f3dd0c" points="150.192,-464.242 141.5,-457.556 145.327,-463.088 140.462,-461.934 140.462,-461.934 140.462,-461.934 145.327,-463.088 139.423,-466.313 150.192,-464.242 150.192,-464.242"/>
</g>
<!-- User&#45;&gt;Email -->
<g id="edge59" class="edge"><title>User&#45;&gt;Email</title>
<path fill="none" stroke="#254339" d="M542.665,-515.388C493.959,-507.059 402.248,-490.012 326,-468 322.437,-466.971 318.754,-465.8 315.096,-464.566"/>
<ellipse fill="none" stroke="#254339" cx="546.731" cy="-516.077" rx="4.00001" ry="4.00001"/>
<polygon fill="#254339" stroke="#254339" points="314.998,-464.531 307.067,-456.958 310.283,-462.866 305.568,-461.201 305.568,-461.201 305.568,-461.201 310.283,-462.866 304.07,-465.444 314.998,-464.531 314.998,-464.531"/>
</g>
<!-- User&#45;&gt;Experience -->
<g id="edge67" class="edge"><title>User&#45;&gt;Experience</title>
<path fill="none" stroke="#963e16" d="M614.216,-518.875C656.875,-514.791 727.182,-502.86 776,-468 824.572,-433.316 857.674,-369.432 873.432,-333.443"/>
<polygon fill="#963e16" stroke="#963e16" points="613.96,-518.897 603.611,-515.27 608.978,-519.325 603.996,-519.754 603.996,-519.754 603.996,-519.754 608.978,-519.325 604.382,-524.237 613.96,-518.897 613.96,-518.897"/>
<polygon fill="#963e16" stroke="#963e16" points="873.5,-333.281 881.556,-325.841 875.458,-328.68 877.415,-324.079 877.415,-324.079 877.415,-324.079 875.458,-328.68 873.274,-322.318 873.5,-333.281 873.5,-333.281"/>
</g>
<!-- User&#45;&gt;Installment -->
<g id="edge64" class="edge"><title>User&#45;&gt;Installment</title>
<path fill="none" stroke="#733fc3" d="M542.74,-514.679C514.046,-507.75 473.76,-493.974 448,-468 338.74,-357.834 414.93,-265.156 318,-144 307.272,-130.59 292.256,-119.211 278.33,-110.474"/>
<ellipse fill="none" stroke="#733fc3" cx="546.974" cy="-515.645" rx="4.00001" ry="4.00001"/>
<polygon fill="#733fc3" stroke="#733fc3" points="277.971,-110.259 271.705,-101.26 273.682,-107.689 269.393,-105.12 269.393,-105.12 269.393,-105.12 273.682,-107.689 267.08,-108.98 277.971,-110.259 277.971,-110.259"/>
</g>
<!-- User&#45;&gt;Narrative -->
<g id="edge68" class="edge"><title>User&#45;&gt;Narrative</title>
<path fill="none" stroke="#7d9500" d="M613.919,-517.303C684.557,-509.964 843.589,-492.153 976,-468 984.65,-466.422 993.819,-464.493 1002.63,-462.508"/>
<polygon fill="#7d9500" stroke="#7d9500" points="613.703,-517.326 603.294,-513.874 608.729,-517.838 603.755,-518.35 603.755,-518.35 603.755,-518.35 608.729,-517.838 604.216,-522.827 613.703,-517.326 613.703,-517.326"/>
<polygon fill="#7d9500" stroke="#7d9500" points="1002.64,-462.506 1013.39,-464.643 1007.51,-461.382 1012.38,-460.258 1012.38,-460.258 1012.38,-460.258 1007.51,-461.382 1011.37,-455.873 1002.64,-462.506 1002.64,-462.506"/>
</g>
<!-- User&#45;&gt;Reaction -->
<g id="edge66" class="edge"><title>User&#45;&gt;Reaction</title>
<path fill="none" stroke="#69f1d8" d="M612.192,-519.442C659.968,-515.951 746.651,-504.64 810,-468 885.415,-424.381 911.264,-405.135 943,-324 950.811,-304.03 947.033,-279.785 941.875,-261.647"/>
<ellipse fill="none" stroke="#69f1d8" cx="608.011" cy="-519.722" rx="4" ry="4"/>
<polygon fill="#69f1d8" stroke="#69f1d8" points="941.844,-261.548 943.137,-250.659 940.344,-256.778 938.845,-252.008 938.845,-252.008 938.845,-252.008 940.344,-256.778 934.552,-253.358 941.844,-261.548 941.844,-261.548"/>
</g>
<!-- User&#45;&gt;Roster -->
<g id="edge65" class="edge"><title>User&#45;&gt;Roster</title>
<path fill="none" stroke="#f820b1" d="M612.682,-519.689C651.802,-516.329 713.928,-505.039 751,-468 786.311,-432.72 787.792,-370.229 785.221,-334.36"/>
<ellipse fill="none" stroke="#f820b1" cx="608.21" cy="-520.024" rx="4" ry="4"/>
<polygon fill="#f820b1" stroke="#f820b1" points="785.199,-334.104 788.809,-323.749 784.763,-329.123 784.326,-324.142 784.326,-324.142 784.326,-324.142 784.763,-329.123 779.843,-324.535 785.199,-334.104 785.199,-334.104"/>
</g>
<!-- Week&#45;&gt;Behavior -->
<g id="edge69" class="edge"><title>Week&#45;&gt;Behavior</title>
<path fill="none" stroke="#2147f5" d="M1096.16,-353.346C1092.32,-346.267 1088.1,-338.493 1084.23,-331.369"/>
<ellipse fill="none" stroke="#2147f5" cx="1098.09" cy="-356.896" rx="4.00002" ry="4.00002"/>
<ellipse fill="#2147f5" stroke="#2147f5" cx="1082.11" cy="-327.472" rx="4.00002" ry="4.00002"/>
</g>
<!-- Week&#45;&gt;Diagnosis -->
<g id="edge70" class="edge"><title>Week&#45;&gt;Diagnosis</title>
<path fill="none" stroke="#e29b4a" d="M1117.5,-352.63C1127.37,-320.201 1140.13,-261.648 1122,-216 1117.38,-204.361 1108.85,-193.798 1100.13,-185.219"/>
<ellipse fill="none" stroke="#e29b4a" cx="1116.28" cy="-356.475" rx="4.00001" ry="4.00001"/>
<polygon fill="#e29b4a" stroke="#e29b4a" points="1099.88,-184.983 1095.56,-174.902 1096.2,-181.599 1092.52,-178.214 1092.52,-178.214 1092.52,-178.214 1096.2,-181.599 1089.47,-181.526 1099.88,-184.983 1099.88,-184.983"/>
</g>
</g>
</svg>
