<?xml version="1.0" encoding="UTF-8" standalone="no"?>
<!DOCTYPE svg PUBLIC "-//W3C//DTD SVG 1.1//EN"
 "http://www.w3.org/Graphics/SVG/1.1/DTD/svg11.dtd">
<!-- Generated by graphviz version 2.38.0 (20140413.2041)
 -->
<!-- Title: models_diagram Pages: 1 -->
<svg width="1463pt" height="302pt"
 viewBox="0.00 0.00 1463.30 302.00" xmlns="http://www.w3.org/2000/svg" xmlns:xlink="http://www.w3.org/1999/xlink">
<g id="graph0" class="graph" transform="scale(1 1) rotate(0) translate(4 298)">
<title>models_diagram</title>
<polygon fill="none" stroke="none" points="-4,4 -4,-298 1459.3,-298 1459.3,4 -4,4"/>
<!-- _diagram_info -->
<g id="node1" class="node"><title>_diagram_info</title>
<text text-anchor="start" x="8" y="-279.6" font-family="Times,serif" font-size="13.00">Models diagram</text>
<text text-anchor="start" x="8" y="-265.6" font-family="Times,serif" font-size="13.00">Date: Jan 17 2017 &#45; 13:10</text>
<text text-anchor="start" x="8" y="-251.6" font-family="Times,serif" font-size="13.00">Migration version: 20170116103703</text>
<text text-anchor="start" x="8" y="-237.6" font-family="Times,serif" font-size="13.00">Generated by RailRoady 1.5.2</text>
<text text-anchor="start" x="8" y="-223.6" font-family="Times,serif" font-size="13.00">http://railroady.prestonlee.com</text>
</g>
<!-- GroupProjectCount -->
<g id="node2" class="node"><title>GroupProjectCount</title>
<ellipse fill="none" stroke="black" cx="311" cy="-255" rx="79.0865" ry="18"/>
<text text-anchor="middle" x="311" y="-251.3" font-family="Times,serif" font-size="14.00">GroupProjectCount</text>
</g>
<!-- Course -->
<g id="node3" class="node"><title>Course</title>
<ellipse fill="none" stroke="black" cx="444" cy="-255" rx="35.9954" ry="18"/>
<text text-anchor="middle" x="444" y="-251.3" font-family="Times,serif" font-size="14.00">Course</text>
</g>
<!-- Project -->
<g id="node12" class="node"><title>Project</title>
<ellipse fill="none" stroke="black" cx="444" cy="-162" rx="35.9954" ry="18"/>
<text text-anchor="middle" x="444" y="-158.3" font-family="Times,serif" font-size="14.00">Project</text>
</g>
<!-- Course&#45;&gt;Project -->
<g id="edge1" class="edge"><title>Course&#45;&gt;Project</title>
<path fill="none" stroke="#db7d02" d="M444,-228.729C444,-216.725 444,-202.362 444,-190.129"/>
<ellipse fill="none" stroke="#db7d02" cx="444" cy="-232.884" rx="4" ry="4"/>
<polygon fill="#db7d02" stroke="#db7d02" points="444,-190.04 448.5,-180.04 444,-185.04 444,-180.04 444,-180.04 444,-180.04 444,-185.04 439.5,-180.04 444,-190.04 444,-190.04"/>
</g>
<!-- Style -->
<g id="node4" class="node"><title>Style</title>
<ellipse fill="none" stroke="black" cx="526" cy="-255" rx="28.6953" ry="18"/>
<text text-anchor="middle" x="526" y="-251.3" font-family="Times,serif" font-size="14.00">Style</text>
</g>
<!-- Installment -->
<g id="node5" class="node"><title>Installment</title>
<ellipse fill="none" stroke="black" cx="623" cy="-255" rx="50.8918" ry="18"/>
<text text-anchor="middle" x="623" y="-251.3" font-family="Times,serif" font-size="14.00">Installment</text>
</g>
<!-- ConsentForm -->
<g id="node6" class="node"><title>ConsentForm</title>
<ellipse fill="none" stroke="black" cx="751" cy="-255" rx="59.2899" ry="18"/>
<text text-anchor="middle" x="751" y="-251.3" font-family="Times,serif" font-size="14.00">ConsentForm</text>
</g>
<!-- Behaviour -->
<g id="node7" class="node"><title>Behaviour</title>
<ellipse fill="none" stroke="black" cx="876" cy="-255" rx="47.3916" ry="18"/>
<text text-anchor="middle" x="876" y="-251.3" font-family="Times,serif" font-size="14.00">Behaviour</text>
</g>
<!-- User -->
<g id="node8" class="node"><title>User</title>
<ellipse fill="none" stroke="black" cx="444" cy="-90" rx="27.0966" ry="18"/>
<text text-anchor="middle" x="444" y="-86.3" font-family="Times,serif" font-size="14.00">User</text>
</g>
<!-- Group -->
<g id="node11" class="node"><title>Group</title>
<ellipse fill="none" stroke="black" cx="389" cy="-18" rx="33.2948" ry="18"/>
<text text-anchor="middle" x="389" y="-14.3" font-family="Times,serif" font-size="14.00">Group</text>
</g>
<!-- User&#45;&gt;Group -->
<g id="edge2" class="edge"><title>User&#45;&gt;Group</title>
<path fill="none" stroke="#70091a" d="M425.772,-65.8001C420.096,-58.5765 413.823,-50.5934 408.09,-43.2969"/>
<polygon fill="#70091a" stroke="#70091a" points="425.888,-65.9478 428.527,-76.5913 428.977,-69.8794 432.066,-73.811 432.066,-73.811 432.066,-73.811 428.977,-69.8794 435.604,-71.0308 425.888,-65.9478 425.888,-65.9478"/>
<polygon fill="#70091a" stroke="#70091a" points="407.855,-42.9968 405.215,-32.3534 404.765,-39.0652 401.676,-35.1336 401.676,-35.1336 401.676,-35.1336 404.765,-39.0652 398.138,-37.9138 407.855,-42.9968 407.855,-42.9968"/>
</g>
<!-- ConsentLog -->
<g id="node15" class="node"><title>ConsentLog</title>
<ellipse fill="none" stroke="black" cx="494" cy="-18" rx="53.8905" ry="18"/>
<text text-anchor="middle" x="494" y="-14.3" font-family="Times,serif" font-size="14.00">ConsentLog</text>
</g>
<!-- User&#45;&gt;ConsentLog -->
<g id="edge3" class="edge"><title>User&#45;&gt;ConsentLog</title>
<path fill="none" stroke="#08aa1b" d="M459.818,-66.8549C464.948,-59.673 470.677,-51.6523 475.956,-44.2612"/>
<ellipse fill="none" stroke="#08aa1b" cx="457.422" cy="-70.2098" rx="4.00002" ry="4.00002"/>
<polygon fill="#08aa1b" stroke="#08aa1b" points="476.072,-44.0991 485.546,-38.5774 478.978,-40.0305 481.884,-35.9618 481.884,-35.9618 481.884,-35.9618 478.978,-40.0305 478.223,-33.3462 476.072,-44.0991 476.072,-44.0991"/>
</g>
<!-- Roster -->
<g id="node9" class="node"><title>Roster</title>
<ellipse fill="none" stroke="black" cx="975" cy="-255" rx="33.5952" ry="18"/>
<text text-anchor="middle" x="975" y="-251.3" font-family="Times,serif" font-size="14.00">Roster</text>
</g>
<!-- School -->
<g id="node10" class="node"><title>School</title>
<ellipse fill="none" stroke="black" cx="1062" cy="-255" rx="35.194" ry="18"/>
<text text-anchor="middle" x="1062" y="-251.3" font-family="Times,serif" font-size="14.00">School</text>
</g>
<!-- Project&#45;&gt;User -->
<g id="edge6" class="edge"><title>Project&#45;&gt;User</title>
<path fill="none" stroke="#7e18ac" d="M444,-133.665C444,-128.687 444,-123.491 444,-118.507"/>
<polygon fill="#7e18ac" stroke="#7e18ac" points="444,-133.697 439.5,-143.697 444,-138.697 444,-143.697 444,-143.697 444,-143.697 444,-138.697 448.5,-143.697 444,-133.697 444,-133.697"/>
<polygon fill="#7e18ac" stroke="#7e18ac" points="444,-118.104 448.5,-108.104 444,-113.104 444,-108.104 444,-108.104 444,-108.104 444,-113.104 439.5,-108.104 444,-118.104 444,-118.104"/>
</g>
<!-- Project&#45;&gt;Group -->
<g id="edge4" class="edge"><title>Project&#45;&gt;Group</title>
<path fill="none" stroke="#2d2dc4" d="M426.022,-138.694C419.491,-129.627 412.594,-118.761 408,-108 399.535,-88.1723 394.696,-64.1959 392.023,-46.1267"/>
<ellipse fill="none" stroke="#2d2dc4" cx="428.512" cy="-142.038" rx="4.00002" ry="4.00002"/>
<polygon fill="#2d2dc4" stroke="#2d2dc4" points="391.992,-45.8988 395.116,-35.3873 391.324,-40.9436 390.656,-35.9884 390.656,-35.9884 390.656,-35.9884 391.324,-40.9436 386.196,-36.5895 391.992,-45.8988 391.992,-45.8988"/>
</g>
<!-- Assessment -->
<g id="node17" class="node"><title>Assessment</title>
<ellipse fill="none" stroke="black" cx="542" cy="-90" rx="52.7911" ry="18"/>
<text text-anchor="middle" x="542" y="-86.3" font-family="Times,serif" font-size="14.00">Assessment</text>
</g>
<!-- Project&#45;&gt;Assessment -->
<g id="edge5" class="edge"><title>Project&#45;&gt;Assessment</title>
<path fill="none" stroke="#dcd031" d="M470.668,-141.952C483.406,-132.853 498.705,-121.925 511.863,-112.527"/>
<ellipse fill="none" stroke="#dcd031" cx="467.087" cy="-144.509" rx="4.00002" ry="4.00002"/>
<polygon fill="#dcd031" stroke="#dcd031" points="512.014,-112.418 522.767,-110.268 516.083,-109.512 520.152,-106.606 520.152,-106.606 520.152,-106.606 516.083,-109.512 517.536,-102.944 512.014,-112.418 512.014,-112.418"/>
</g>
<!-- Gender -->
<g id="node13" class="node"><title>Gender</title>
<ellipse fill="none" stroke="black" cx="1151" cy="-255" rx="36.2938" ry="18"/>
<text text-anchor="middle" x="1151" y="-251.3" font-family="Times,serif" font-size="14.00">Gender</text>
</g>
<!-- AgeRange -->
<g id="node14" class="node"><title>AgeRange</title>
<ellipse fill="none" stroke="black" cx="1253" cy="-255" rx="48.1917" ry="18"/>
<text text-anchor="middle" x="1253" y="-251.3" font-family="Times,serif" font-size="14.00">AgeRange</text>
</g>
<!-- Value -->
<g id="node16" class="node"><title>Value</title>
<ellipse fill="none" stroke="black" cx="1351" cy="-255" rx="31.6951" ry="18"/>
<text text-anchor="middle" x="1351" y="-251.3" font-family="Times,serif" font-size="14.00">Value</text>
</g>
<!-- Role -->
<g id="node18" class="node"><title>Role</title>
<ellipse fill="none" stroke="black" cx="1428" cy="-255" rx="27.0966" ry="18"/>
<text text-anchor="middle" x="1428" y="-251.3" font-family="Times,serif" font-size="14.00">Role</text>
</g>
</g>
</svg>
