<?xml version="1.0" encoding="UTF-8" standalone="no"?>
<!DOCTYPE svg PUBLIC "-//W3C//DTD SVG 1.1//EN"
 "http://www.w3.org/Graphics/SVG/1.1/DTD/svg11.dtd">
<!-- Generated by graphviz version 2.38.0 (20140413.2041)
 -->
<!-- Title: models_diagram Pages: 1 -->
<svg width="1930pt" height="2399pt"
 viewBox="0.00 0.00 1930.00 2399.00" xmlns="http://www.w3.org/2000/svg" xmlns:xlink="http://www.w3.org/1999/xlink">
<g id="graph0" class="graph" transform="scale(1 1) rotate(0) translate(4 2395)">
<title>models_diagram</title>
<polygon fill="none" stroke="none" points="-4,4 -4,-2395 1926,-2395 1926,4 -4,4"/>
<!-- _diagram_info -->
<g id="node1" class="node"><title>_diagram_info</title>
<text text-anchor="start" x="8" y="-2362.1" font-family="Times,serif" font-size="13.00">Models diagram</text>
<text text-anchor="start" x="8" y="-2348.1" font-family="Times,serif" font-size="13.00">Date: May 29 2017 &#45; 17:06</text>
<text text-anchor="start" x="8" y="-2334.1" font-family="Times,serif" font-size="13.00">Migration version: 20170529054817</text>
<text text-anchor="start" x="8" y="-2320.1" font-family="Times,serif" font-size="13.00">Generated by RailRoady 1.5.2</text>
<text text-anchor="start" x="8" y="-2306.1" font-family="Times,serif" font-size="13.00">http://railroady.prestonlee.com</text>
</g>
<!-- GroupProjectCount -->
<g id="node2" class="node"><title>GroupProjectCount</title>
<path fill="none" stroke="black" d="M416,-2299.5C416,-2299.5 546,-2299.5 546,-2299.5 552,-2299.5 558,-2305.5 558,-2311.5 558,-2311.5 558,-2363.5 558,-2363.5 558,-2369.5 552,-2375.5 546,-2375.5 546,-2375.5 416,-2375.5 416,-2375.5 410,-2375.5 404,-2369.5 404,-2363.5 404,-2363.5 404,-2311.5 404,-2311.5 404,-2305.5 410,-2299.5 416,-2299.5"/>
<text text-anchor="middle" x="481" y="-2360.3" font-family="Times,serif" font-size="14.00">GroupProjectCount</text>
<polyline fill="none" stroke="black" points="404,-2352.5 558,-2352.5 "/>
<text text-anchor="start" x="412" y="-2337.3" font-family="Times,serif" font-size="14.00">id :int(11)</text>
<text text-anchor="start" x="412" y="-2322.3" font-family="Times,serif" font-size="14.00">name :varchar(255)</text>
<text text-anchor="start" x="412" y="-2307.3" font-family="Times,serif" font-size="14.00">description :varchar(255)</text>
</g>
<!-- User -->
<g id="node11" class="node"><title>User</title>
<path fill="none" stroke="black" d="M684,-1721.5C684,-1721.5 874,-1721.5 874,-1721.5 880,-1721.5 886,-1727.5 886,-1733.5 886,-1733.5 886,-2235.5 886,-2235.5 886,-2241.5 880,-2247.5 874,-2247.5 874,-2247.5 684,-2247.5 684,-2247.5 678,-2247.5 672,-2241.5 672,-2235.5 672,-2235.5 672,-1733.5 672,-1733.5 672,-1727.5 678,-1721.5 684,-1721.5"/>
<text text-anchor="middle" x="779" y="-2232.3" font-family="Times,serif" font-size="14.00">User</text>
<polyline fill="none" stroke="black" points="672,-2224.5 886,-2224.5 "/>
<text text-anchor="start" x="680" y="-2209.3" font-family="Times,serif" font-size="14.00">id :int(11)</text>
<text text-anchor="start" x="680" y="-2194.3" font-family="Times,serif" font-size="14.00">encrypted_password :varchar(255)</text>
<text text-anchor="start" x="680" y="-2179.3" font-family="Times,serif" font-size="14.00">reset_password_token :varchar(255)</text>
<text text-anchor="start" x="680" y="-2164.3" font-family="Times,serif" font-size="14.00">reset_password_sent_at :datetime</text>
<text text-anchor="start" x="680" y="-2149.3" font-family="Times,serif" font-size="14.00">remember_created_at :datetime</text>
<text text-anchor="start" x="680" y="-2134.3" font-family="Times,serif" font-size="14.00">sign_in_count :int(11)</text>
<text text-anchor="start" x="680" y="-2119.3" font-family="Times,serif" font-size="14.00">current_sign_in_at :datetime</text>
<text text-anchor="start" x="680" y="-2104.3" font-family="Times,serif" font-size="14.00">last_sign_in_at :datetime</text>
<text text-anchor="start" x="680" y="-2089.3" font-family="Times,serif" font-size="14.00">current_sign_in_ip :varchar(255)</text>
<text text-anchor="start" x="680" y="-2074.3" font-family="Times,serif" font-size="14.00">last_sign_in_ip :varchar(255)</text>
<text text-anchor="start" x="680" y="-2059.3" font-family="Times,serif" font-size="14.00">confirmation_token :varchar(255)</text>
<text text-anchor="start" x="680" y="-2044.3" font-family="Times,serif" font-size="14.00">confirmed_at :datetime</text>
<text text-anchor="start" x="680" y="-2029.3" font-family="Times,serif" font-size="14.00">confirmation_sent_at :datetime</text>
<text text-anchor="start" x="680" y="-2014.3" font-family="Times,serif" font-size="14.00">unconfirmed_email :varchar(255)</text>
<text text-anchor="start" x="680" y="-1999.3" font-family="Times,serif" font-size="14.00">failed_attempts :int(11)</text>
<text text-anchor="start" x="680" y="-1984.3" font-family="Times,serif" font-size="14.00">unlock_token :varchar(255)</text>
<text text-anchor="start" x="680" y="-1969.3" font-family="Times,serif" font-size="14.00">locked_at :datetime</text>
<text text-anchor="start" x="680" y="-1954.3" font-family="Times,serif" font-size="14.00">created_at :datetime</text>
<text text-anchor="start" x="680" y="-1939.3" font-family="Times,serif" font-size="14.00">updated_at :datetime</text>
<text text-anchor="start" x="680" y="-1924.3" font-family="Times,serif" font-size="14.00">first_name :varchar(255)</text>
<text text-anchor="start" x="680" y="-1909.3" font-family="Times,serif" font-size="14.00">last_name :varchar(255)</text>
<text text-anchor="start" x="680" y="-1894.3" font-family="Times,serif" font-size="14.00">gender_id :int(11)</text>
<text text-anchor="start" x="680" y="-1879.3" font-family="Times,serif" font-size="14.00">age_range_id :int(11)</text>
<text text-anchor="start" x="680" y="-1864.3" font-family="Times,serif" font-size="14.00">country :varchar(255)</text>
<text text-anchor="start" x="680" y="-1849.3" font-family="Times,serif" font-size="14.00">timezone :varchar(255)</text>
<text text-anchor="start" x="680" y="-1834.3" font-family="Times,serif" font-size="14.00">admin :tinyint(1)</text>
<text text-anchor="start" x="680" y="-1819.3" font-family="Times,serif" font-size="14.00">welcomed :tinyint(1)</text>
<text text-anchor="start" x="680" y="-1804.3" font-family="Times,serif" font-size="14.00">last_emailed :datetime</text>
<text text-anchor="start" x="680" y="-1789.3" font-family="Times,serif" font-size="14.00">theme_id :int(11)</text>
<text text-anchor="start" x="680" y="-1774.3" font-family="Times,serif" font-size="14.00">school_id :int(11)</text>
<text text-anchor="start" x="680" y="-1759.3" font-family="Times,serif" font-size="14.00">anon_first_name :varchar(255)</text>
<text text-anchor="start" x="680" y="-1744.3" font-family="Times,serif" font-size="14.00">anon_last_name :varchar(255)</text>
<text text-anchor="start" x="680" y="-1729.3" font-family="Times,serif" font-size="14.00">researcher :tinyint(1)</text>
</g>
<!-- GroupProjectCount&#45;&gt;User -->
<g id="edge1" class="edge"><title>GroupProjectCount&#45;&gt;User</title>
<path fill="none" stroke="#6745ee" d="M517.859,-2293.09C554.618,-2249.79 612.981,-2181.05 665.219,-2119.52"/>
<ellipse fill="none" stroke="#6745ee" cx="515.198" cy="-2296.22" rx="4.00002" ry="4.00002"/>
<polygon fill="#6745ee" stroke="#6745ee" points="665.413,-2119.29 675.316,-2114.58 668.649,-2115.48 671.885,-2111.67 671.885,-2111.67 671.885,-2111.67 668.649,-2115.48 668.455,-2108.75 665.413,-2119.29 665.413,-2119.29"/>
</g>
<!-- Theme -->
<g id="node3" class="node"><title>Theme</title>
<path fill="none" stroke="black" d="M588.5,-2284.5C588.5,-2284.5 695.5,-2284.5 695.5,-2284.5 701.5,-2284.5 707.5,-2290.5 707.5,-2296.5 707.5,-2296.5 707.5,-2378.5 707.5,-2378.5 707.5,-2384.5 701.5,-2390.5 695.5,-2390.5 695.5,-2390.5 588.5,-2390.5 588.5,-2390.5 582.5,-2390.5 576.5,-2384.5 576.5,-2378.5 576.5,-2378.5 576.5,-2296.5 576.5,-2296.5 576.5,-2290.5 582.5,-2284.5 588.5,-2284.5"/>
<text text-anchor="middle" x="642" y="-2375.3" font-family="Times,serif" font-size="14.00">Theme</text>
<polyline fill="none" stroke="black" points="576.5,-2367.5 707.5,-2367.5 "/>
<text text-anchor="start" x="584.5" y="-2352.3" font-family="Times,serif" font-size="14.00">id :int(11)</text>
<text text-anchor="start" x="584.5" y="-2337.3" font-family="Times,serif" font-size="14.00">code :varchar(255)</text>
<text text-anchor="start" x="584.5" y="-2322.3" font-family="Times,serif" font-size="14.00">name :varchar(255)</text>
<text text-anchor="start" x="584.5" y="-2307.3" font-family="Times,serif" font-size="14.00">created_at :datetime</text>
<text text-anchor="start" x="584.5" y="-2292.3" font-family="Times,serif" font-size="14.00">updated_at :datetime</text>
</g>
<!-- Theme&#45;&gt;User -->
<g id="edge2" class="edge"><title>Theme&#45;&gt;User</title>
<path fill="none" stroke="#bd1905" d="M665.272,-2276.88C667.711,-2270.63 670.289,-2264.02 672.978,-2257.13"/>
<ellipse fill="none" stroke="#bd1905" cx="663.817" cy="-2280.6" rx="4.00001" ry="4.00001"/>
<polygon fill="#bd1905" stroke="#bd1905" points="673.075,-2256.88 680.903,-2249.2 674.893,-2252.23 676.711,-2247.57 676.711,-2247.57 676.711,-2247.57 674.893,-2252.23 672.519,-2245.93 673.075,-2256.88 673.075,-2256.88"/>
</g>
<!-- FactorPack -->
<g id="node4" class="node"><title>FactorPack</title>
<path fill="none" stroke="black" d="M1409.5,-1120C1409.5,-1120 1516.5,-1120 1516.5,-1120 1522.5,-1120 1528.5,-1126 1528.5,-1132 1528.5,-1132 1528.5,-1214 1528.5,-1214 1528.5,-1220 1522.5,-1226 1516.5,-1226 1516.5,-1226 1409.5,-1226 1409.5,-1226 1403.5,-1226 1397.5,-1220 1397.5,-1214 1397.5,-1214 1397.5,-1132 1397.5,-1132 1397.5,-1126 1403.5,-1120 1409.5,-1120"/>
<text text-anchor="middle" x="1463" y="-1210.8" font-family="Times,serif" font-size="14.00">FactorPack</text>
<polyline fill="none" stroke="black" points="1397.5,-1203 1528.5,-1203 "/>
<text text-anchor="start" x="1405.5" y="-1187.8" font-family="Times,serif" font-size="14.00">id :int(11)</text>
<text text-anchor="start" x="1405.5" y="-1172.8" font-family="Times,serif" font-size="14.00">name :varchar(255)</text>
<text text-anchor="start" x="1405.5" y="-1157.8" font-family="Times,serif" font-size="14.00">description :text</text>
<text text-anchor="start" x="1405.5" y="-1142.8" font-family="Times,serif" font-size="14.00">created_at :datetime</text>
<text text-anchor="start" x="1405.5" y="-1127.8" font-family="Times,serif" font-size="14.00">updated_at :datetime</text>
</g>
<!-- Project -->
<g id="node16" class="node"><title>Project</title>
<path fill="none" stroke="black" d="M1168.5,-774.5C1168.5,-774.5 1301.5,-774.5 1301.5,-774.5 1307.5,-774.5 1313.5,-780.5 1313.5,-786.5 1313.5,-786.5 1313.5,-1018.5 1313.5,-1018.5 1313.5,-1024.5 1307.5,-1030.5 1301.5,-1030.5 1301.5,-1030.5 1168.5,-1030.5 1168.5,-1030.5 1162.5,-1030.5 1156.5,-1024.5 1156.5,-1018.5 1156.5,-1018.5 1156.5,-786.5 1156.5,-786.5 1156.5,-780.5 1162.5,-774.5 1168.5,-774.5"/>
<text text-anchor="middle" x="1235" y="-1015.3" font-family="Times,serif" font-size="14.00">Project</text>
<polyline fill="none" stroke="black" points="1156.5,-1007.5 1313.5,-1007.5 "/>
<text text-anchor="start" x="1164.5" y="-992.3" font-family="Times,serif" font-size="14.00">id :int(11)</text>
<text text-anchor="start" x="1164.5" y="-977.3" font-family="Times,serif" font-size="14.00">name :varchar(255)</text>
<text text-anchor="start" x="1164.5" y="-962.3" font-family="Times,serif" font-size="14.00">description :varchar(255)</text>
<text text-anchor="start" x="1164.5" y="-947.3" font-family="Times,serif" font-size="14.00">course_id :int(11)</text>
<text text-anchor="start" x="1164.5" y="-932.3" font-family="Times,serif" font-size="14.00">created_at :datetime</text>
<text text-anchor="start" x="1164.5" y="-917.3" font-family="Times,serif" font-size="14.00">updated_at :datetime</text>
<text text-anchor="start" x="1164.5" y="-902.3" font-family="Times,serif" font-size="14.00">start_dow :int(11)</text>
<text text-anchor="start" x="1164.5" y="-887.3" font-family="Times,serif" font-size="14.00">end_dow :int(11)</text>
<text text-anchor="start" x="1164.5" y="-872.3" font-family="Times,serif" font-size="14.00">active :tinyint(1)</text>
<text text-anchor="start" x="1164.5" y="-857.3" font-family="Times,serif" font-size="14.00">start_date :datetime</text>
<text text-anchor="start" x="1164.5" y="-842.3" font-family="Times,serif" font-size="14.00">end_date :datetime</text>
<text text-anchor="start" x="1164.5" y="-827.3" font-family="Times,serif" font-size="14.00">consent_form_id :int(11)</text>
<text text-anchor="start" x="1164.5" y="-812.3" font-family="Times,serif" font-size="14.00">factor_pack_id :int(11)</text>
<text text-anchor="start" x="1164.5" y="-797.3" font-family="Times,serif" font-size="14.00">style_id :int(11)</text>
<text text-anchor="start" x="1164.5" y="-782.3" font-family="Times,serif" font-size="14.00">anon_name :varchar(255)</text>
</g>
<!-- FactorPack&#45;&gt;Project -->
<g id="edge4" class="edge"><title>FactorPack&#45;&gt;Project</title>
<path fill="none" stroke="#7c6cb0" d="M1419.67,-1113.31C1408.01,-1098.03 1395.24,-1081.73 1383,-1067 1363.24,-1043.22 1341.21,-1018.17 1320.32,-995.022"/>
<ellipse fill="none" stroke="#7c6cb0" cx="1422.17" cy="-1116.6" rx="4.00002" ry="4.00002"/>
<polygon fill="#7c6cb0" stroke="#7c6cb0" points="1320.3,-994.991 1316.92,-984.557 1316.94,-991.283 1313.59,-987.576 1313.59,-987.576 1313.59,-987.576 1316.94,-991.283 1310.25,-990.596 1320.3,-994.991 1320.3,-994.991"/>
</g>
<!-- Factor -->
<g id="node21" class="node"><title>Factor</title>
<path fill="none" stroke="black" d="M1205,-241C1205,-241 1335,-241 1335,-241 1341,-241 1347,-247 1347,-253 1347,-253 1347,-335 1347,-335 1347,-341 1341,-347 1335,-347 1335,-347 1205,-347 1205,-347 1199,-347 1193,-341 1193,-335 1193,-335 1193,-253 1193,-253 1193,-247 1199,-241 1205,-241"/>
<text text-anchor="middle" x="1270" y="-331.8" font-family="Times,serif" font-size="14.00">Factor</text>
<polyline fill="none" stroke="black" points="1193,-324 1347,-324 "/>
<text text-anchor="start" x="1201" y="-308.8" font-family="Times,serif" font-size="14.00">id :int(11)</text>
<text text-anchor="start" x="1201" y="-293.8" font-family="Times,serif" font-size="14.00">description :varchar(255)</text>
<text text-anchor="start" x="1201" y="-278.8" font-family="Times,serif" font-size="14.00">name :varchar(255)</text>
<text text-anchor="start" x="1201" y="-263.8" font-family="Times,serif" font-size="14.00">created_at :datetime</text>
<text text-anchor="start" x="1201" y="-248.8" font-family="Times,serif" font-size="14.00">updated_at :datetime</text>
</g>
<!-- FactorPack&#45;&gt;Factor -->
<g id="edge3" class="edge"><title>FactorPack&#45;&gt;Factor</title>
<path fill="none" stroke="#7ff75c" d="M1449.31,-1109.8C1413.85,-948.644 1319.28,-518.932 1283.75,-357.478"/>
<polygon fill="#7ff75c" stroke="#7ff75c" points="1449.36,-1110 1447.11,-1120.73 1450.43,-1114.88 1451.5,-1119.77 1451.5,-1119.77 1451.5,-1119.77 1450.43,-1114.88 1455.9,-1118.8 1449.36,-1110 1449.36,-1110"/>
<polygon fill="#7ff75c" stroke="#7ff75c" points="1283.64,-357.003 1285.89,-346.269 1282.57,-352.12 1281.5,-347.237 1281.5,-347.237 1281.5,-347.237 1282.57,-352.12 1277.1,-348.204 1283.64,-357.003 1283.64,-357.003"/>
</g>
<!-- Course -->
<g id="node5" class="node"><title>Course</title>
<path fill="none" stroke="black" d="M758.5,-1067.5C758.5,-1067.5 903.5,-1067.5 903.5,-1067.5 909.5,-1067.5 915.5,-1073.5 915.5,-1079.5 915.5,-1079.5 915.5,-1266.5 915.5,-1266.5 915.5,-1272.5 909.5,-1278.5 903.5,-1278.5 903.5,-1278.5 758.5,-1278.5 758.5,-1278.5 752.5,-1278.5 746.5,-1272.5 746.5,-1266.5 746.5,-1266.5 746.5,-1079.5 746.5,-1079.5 746.5,-1073.5 752.5,-1067.5 758.5,-1067.5"/>
<text text-anchor="middle" x="831" y="-1263.3" font-family="Times,serif" font-size="14.00">Course</text>
<polyline fill="none" stroke="black" points="746.5,-1255.5 915.5,-1255.5 "/>
<text text-anchor="start" x="754.5" y="-1240.3" font-family="Times,serif" font-size="14.00">id :int(11)</text>
<text text-anchor="start" x="754.5" y="-1225.3" font-family="Times,serif" font-size="14.00">name :varchar(255)</text>
<text text-anchor="start" x="754.5" y="-1210.3" font-family="Times,serif" font-size="14.00">description :varchar(255)</text>
<text text-anchor="start" x="754.5" y="-1195.3" font-family="Times,serif" font-size="14.00">timezone :varchar(255)</text>
<text text-anchor="start" x="754.5" y="-1180.3" font-family="Times,serif" font-size="14.00">school_id :int(11)</text>
<text text-anchor="start" x="754.5" y="-1165.3" font-family="Times,serif" font-size="14.00">start_date :datetime</text>
<text text-anchor="start" x="754.5" y="-1150.3" font-family="Times,serif" font-size="14.00">end_date :datetime</text>
<text text-anchor="start" x="754.5" y="-1135.3" font-family="Times,serif" font-size="14.00">created_at :datetime</text>
<text text-anchor="start" x="754.5" y="-1120.3" font-family="Times,serif" font-size="14.00">updated_at :datetime</text>
<text text-anchor="start" x="754.5" y="-1105.3" font-family="Times,serif" font-size="14.00">number :varchar(255)</text>
<text text-anchor="start" x="754.5" y="-1090.3" font-family="Times,serif" font-size="14.00">anon_name :varchar(255)</text>
<text text-anchor="start" x="754.5" y="-1075.3" font-family="Times,serif" font-size="14.00">anon_number :varchar(255)</text>
</g>
<!-- Course&#45;&gt;User -->
<g id="edge8" class="edge"><title>Course&#45;&gt;User</title>
<path fill="none" stroke="#e43f97" d="M823.635,-1288.66C816.606,-1398.08 805.748,-1567.1 796.501,-1711.05"/>
<polygon fill="#e43f97" stroke="#e43f97" points="823.641,-1288.57 828.772,-1278.87 823.961,-1283.58 824.282,-1278.59 824.282,-1278.59 824.282,-1278.59 823.961,-1283.58 819.791,-1278.3 823.641,-1288.57 823.641,-1288.57"/>
<polygon fill="#e43f97" stroke="#e43f97" points="796.488,-1711.26 791.356,-1720.95 796.168,-1716.25 795.847,-1721.24 795.847,-1721.24 795.847,-1721.24 796.168,-1716.25 800.338,-1721.53 796.488,-1711.26 796.488,-1711.26"/>
</g>
<!-- Roster -->
<g id="node13" class="node"><title>Roster</title>
<path fill="none" stroke="black" d="M983.5,-842C983.5,-842 1090.5,-842 1090.5,-842 1096.5,-842 1102.5,-848 1102.5,-854 1102.5,-854 1102.5,-951 1102.5,-951 1102.5,-957 1096.5,-963 1090.5,-963 1090.5,-963 983.5,-963 983.5,-963 977.5,-963 971.5,-957 971.5,-951 971.5,-951 971.5,-854 971.5,-854 971.5,-848 977.5,-842 983.5,-842"/>
<text text-anchor="middle" x="1037" y="-947.8" font-family="Times,serif" font-size="14.00">Roster</text>
<polyline fill="none" stroke="black" points="971.5,-940 1102.5,-940 "/>
<text text-anchor="start" x="979.5" y="-924.8" font-family="Times,serif" font-size="14.00">id :int(11)</text>
<text text-anchor="start" x="979.5" y="-909.8" font-family="Times,serif" font-size="14.00">role_id :int(11)</text>
<text text-anchor="start" x="979.5" y="-894.8" font-family="Times,serif" font-size="14.00">course_id :int(11)</text>
<text text-anchor="start" x="979.5" y="-879.8" font-family="Times,serif" font-size="14.00">user_id :int(11)</text>
<text text-anchor="start" x="979.5" y="-864.8" font-family="Times,serif" font-size="14.00">created_at :datetime</text>
<text text-anchor="start" x="979.5" y="-849.8" font-family="Times,serif" font-size="14.00">updated_at :datetime</text>
</g>
<!-- Course&#45;&gt;Roster -->
<g id="edge6" class="edge"><title>Course&#45;&gt;Roster</title>
<path fill="none" stroke="#adc180" d="M916.343,-1060.76C939.587,-1030.47 964.068,-998.56 984.858,-971.462"/>
<ellipse fill="none" stroke="#adc180" cx="913.67" cy="-1064.25" rx="4.00002" ry="4.00002"/>
<polygon fill="#adc180" stroke="#adc180" points="985.099,-971.148 994.756,-965.953 988.142,-967.181 991.186,-963.214 991.186,-963.214 991.186,-963.214 988.142,-967.181 987.616,-960.475 985.099,-971.148 985.099,-971.148"/>
</g>
<!-- Course&#45;&gt;Project -->
<g id="edge5" class="edge"><title>Course&#45;&gt;Project</title>
<path fill="none" stroke="#7f0b8f" d="M923.356,-1135.16C980.461,-1110.15 1053.72,-1073.87 1112,-1031 1124.62,-1021.72 1137.08,-1011.08 1148.96,-1000"/>
<ellipse fill="none" stroke="#7f0b8f" cx="919.433" cy="-1136.87" rx="4.00002" ry="4.00002"/>
<polygon fill="#7f0b8f" stroke="#7f0b8f" points="1149.02,-999.94 1159.37,-996.313 1152.65,-996.495 1156.27,-993.051 1156.27,-993.051 1156.27,-993.051 1152.65,-996.495 1153.17,-989.789 1149.02,-999.94 1149.02,-999.94"/>
</g>
<!-- Experience -->
<g id="node33" class="node"><title>Experience</title>
<path fill="none" stroke="black" d="M637,-812C637,-812 789,-812 789,-812 795,-812 801,-818 801,-824 801,-824 801,-981 801,-981 801,-987 795,-993 789,-993 789,-993 637,-993 637,-993 631,-993 625,-987 625,-981 625,-981 625,-824 625,-824 625,-818 631,-812 637,-812"/>
<text text-anchor="middle" x="713" y="-977.8" font-family="Times,serif" font-size="14.00">Experience</text>
<polyline fill="none" stroke="black" points="625,-970 801,-970 "/>
<text text-anchor="start" x="633" y="-954.8" font-family="Times,serif" font-size="14.00">id :int(11)</text>
<text text-anchor="start" x="633" y="-939.8" font-family="Times,serif" font-size="14.00">course_id :int(11)</text>
<text text-anchor="start" x="633" y="-924.8" font-family="Times,serif" font-size="14.00">name :varchar(255)</text>
<text text-anchor="start" x="633" y="-909.8" font-family="Times,serif" font-size="14.00">start_date :datetime</text>
<text text-anchor="start" x="633" y="-894.8" font-family="Times,serif" font-size="14.00">end_date :datetime</text>
<text text-anchor="start" x="633" y="-879.8" font-family="Times,serif" font-size="14.00">created_at :datetime</text>
<text text-anchor="start" x="633" y="-864.8" font-family="Times,serif" font-size="14.00">updated_at :datetime</text>
<text text-anchor="start" x="633" y="-849.8" font-family="Times,serif" font-size="14.00">active :tinyint(1)</text>
<text text-anchor="start" x="633" y="-834.8" font-family="Times,serif" font-size="14.00">instructor_updated :tinyint(1)</text>
<text text-anchor="start" x="633" y="-819.8" font-family="Times,serif" font-size="14.00">anon_name :varchar(255)</text>
</g>
<!-- Course&#45;&gt;Experience -->
<g id="edge9" class="edge"><title>Course&#45;&gt;Experience</title>
<path fill="none" stroke="#b43b1d" d="M781.75,-1059.94C773.411,-1040.96 764.805,-1021.38 756.623,-1002.76"/>
<ellipse fill="none" stroke="#b43b1d" cx="783.431" cy="-1063.76" rx="4.00002" ry="4.00002"/>
<polygon fill="#b43b1d" stroke="#b43b1d" points="756.539,-1002.57 756.635,-991.604 754.527,-997.992 752.515,-993.414 752.515,-993.414 752.515,-993.414 754.527,-997.992 748.396,-995.225 756.539,-1002.57 756.539,-1002.57"/>
</g>
<!-- BingoGame -->
<g id="node34" class="node"><title>BingoGame</title>
<path fill="none" stroke="black" d="M791,-406.5C791,-406.5 943,-406.5 943,-406.5 949,-406.5 955,-412.5 955,-418.5 955,-418.5 955,-725.5 955,-725.5 955,-731.5 949,-737.5 943,-737.5 943,-737.5 791,-737.5 791,-737.5 785,-737.5 779,-731.5 779,-725.5 779,-725.5 779,-418.5 779,-418.5 779,-412.5 785,-406.5 791,-406.5"/>
<text text-anchor="middle" x="867" y="-722.3" font-family="Times,serif" font-size="14.00">BingoGame</text>
<polyline fill="none" stroke="black" points="779,-714.5 955,-714.5 "/>
<text text-anchor="start" x="787" y="-699.3" font-family="Times,serif" font-size="14.00">id :int(11)</text>
<text text-anchor="start" x="787" y="-684.3" font-family="Times,serif" font-size="14.00">topic :varchar(255)</text>
<text text-anchor="start" x="787" y="-669.3" font-family="Times,serif" font-size="14.00">description :text</text>
<text text-anchor="start" x="787" y="-654.3" font-family="Times,serif" font-size="14.00">link :varchar(255)</text>
<text text-anchor="start" x="787" y="-639.3" font-family="Times,serif" font-size="14.00">source :varchar(255)</text>
<text text-anchor="start" x="787" y="-624.3" font-family="Times,serif" font-size="14.00">group_option :tinyint(1)</text>
<text text-anchor="start" x="787" y="-609.3" font-family="Times,serif" font-size="14.00">individual_count :int(11)</text>
<text text-anchor="start" x="787" y="-594.3" font-family="Times,serif" font-size="14.00">start_date :datetime</text>
<text text-anchor="start" x="787" y="-579.3" font-family="Times,serif" font-size="14.00">end_date :datetime</text>
<text text-anchor="start" x="787" y="-564.3" font-family="Times,serif" font-size="14.00">created_at :datetime</text>
<text text-anchor="start" x="787" y="-549.3" font-family="Times,serif" font-size="14.00">updated_at :datetime</text>
<text text-anchor="start" x="787" y="-534.3" font-family="Times,serif" font-size="14.00">active :tinyint(1)</text>
<text text-anchor="start" x="787" y="-519.3" font-family="Times,serif" font-size="14.00">course_id :int(11)</text>
<text text-anchor="start" x="787" y="-504.3" font-family="Times,serif" font-size="14.00">project_id :int(11)</text>
<text text-anchor="start" x="787" y="-489.3" font-family="Times,serif" font-size="14.00">lead_time :int(11)</text>
<text text-anchor="start" x="787" y="-474.3" font-family="Times,serif" font-size="14.00">group_discount :int(11)</text>
<text text-anchor="start" x="787" y="-459.3" font-family="Times,serif" font-size="14.00">reviewed :tinyint(1)</text>
<text text-anchor="start" x="787" y="-444.3" font-family="Times,serif" font-size="14.00">instructor_notified :tinyint(1)</text>
<text text-anchor="start" x="787" y="-429.3" font-family="Times,serif" font-size="14.00">students_notified :tinyint(1)</text>
<text text-anchor="start" x="787" y="-414.3" font-family="Times,serif" font-size="14.00">anon_topic :varchar(255)</text>
</g>
<!-- Course&#45;&gt;BingoGame -->
<g id="edge7" class="edge"><title>Course&#45;&gt;BingoGame</title>
<path fill="none" stroke="#d9b509" d="M874.731,-1059.25C877.247,-1049.8 879.4,-1040.3 881,-1031 896.943,-938.336 895.18,-833.608 888.662,-747.708"/>
<ellipse fill="none" stroke="#d9b509" cx="873.603" cy="-1063.32" rx="4.00001" ry="4.00001"/>
<polygon fill="#d9b509" stroke="#d9b509" points="888.651,-747.564 892.353,-737.242 888.259,-742.58 887.867,-737.595 887.867,-737.595 887.867,-737.595 888.259,-742.58 883.38,-737.948 888.651,-747.564 888.651,-747.564"/>
</g>
<!-- Style -->
<g id="node6" class="node"><title>Style</title>
<path fill="none" stroke="black" d="M1211,-1120C1211,-1120 1329,-1120 1329,-1120 1335,-1120 1341,-1126 1341,-1132 1341,-1132 1341,-1214 1341,-1214 1341,-1220 1335,-1226 1329,-1226 1329,-1226 1211,-1226 1211,-1226 1205,-1226 1199,-1220 1199,-1214 1199,-1214 1199,-1132 1199,-1132 1199,-1126 1205,-1120 1211,-1120"/>
<text text-anchor="middle" x="1270" y="-1210.8" font-family="Times,serif" font-size="14.00">Style</text>
<polyline fill="none" stroke="black" points="1199,-1203 1341,-1203 "/>
<text text-anchor="start" x="1207" y="-1187.8" font-family="Times,serif" font-size="14.00">id :int(11)</text>
<text text-anchor="start" x="1207" y="-1172.8" font-family="Times,serif" font-size="14.00">name :varchar(255)</text>
<text text-anchor="start" x="1207" y="-1157.8" font-family="Times,serif" font-size="14.00">filename :varchar(255)</text>
<text text-anchor="start" x="1207" y="-1142.8" font-family="Times,serif" font-size="14.00">created_at :datetime</text>
<text text-anchor="start" x="1207" y="-1127.8" font-family="Times,serif" font-size="14.00">updated_at :datetime</text>
</g>
<!-- Style&#45;&gt;Project -->
<g id="edge10" class="edge"><title>Style&#45;&gt;Project</title>
<path fill="none" stroke="#283e46" d="M1262.17,-1111.91C1259.39,-1090.6 1256.14,-1065.66 1252.87,-1040.59"/>
<ellipse fill="none" stroke="#283e46" cx="1262.69" cy="-1115.95" rx="4.00001" ry="4.00001"/>
<polygon fill="#283e46" stroke="#283e46" points="1252.86,-1040.52 1256.03,-1030.02 1252.22,-1035.56 1251.57,-1030.61 1251.57,-1030.61 1251.57,-1030.61 1252.22,-1035.56 1247.11,-1031.19 1252.86,-1040.52 1252.86,-1040.52"/>
</g>
<!-- Behavior -->
<g id="node7" class="node"><title>Behavior</title>
<path fill="none" stroke="black" d="M122.5,-849.5C122.5,-849.5 229.5,-849.5 229.5,-849.5 235.5,-849.5 241.5,-855.5 241.5,-861.5 241.5,-861.5 241.5,-943.5 241.5,-943.5 241.5,-949.5 235.5,-955.5 229.5,-955.5 229.5,-955.5 122.5,-955.5 122.5,-955.5 116.5,-955.5 110.5,-949.5 110.5,-943.5 110.5,-943.5 110.5,-861.5 110.5,-861.5 110.5,-855.5 116.5,-849.5 122.5,-849.5"/>
<text text-anchor="middle" x="176" y="-940.3" font-family="Times,serif" font-size="14.00">Behavior</text>
<polyline fill="none" stroke="black" points="110.5,-932.5 241.5,-932.5 "/>
<text text-anchor="start" x="118.5" y="-917.3" font-family="Times,serif" font-size="14.00">id :int(11)</text>
<text text-anchor="start" x="118.5" y="-902.3" font-family="Times,serif" font-size="14.00">name :varchar(255)</text>
<text text-anchor="start" x="118.5" y="-887.3" font-family="Times,serif" font-size="14.00">description :text</text>
<text text-anchor="start" x="118.5" y="-872.3" font-family="Times,serif" font-size="14.00">created_at :datetime</text>
<text text-anchor="start" x="118.5" y="-857.3" font-family="Times,serif" font-size="14.00">updated_at :datetime</text>
</g>
<!-- Diagnosis -->
<g id="node20" class="node"><title>Diagnosis</title>
<path fill="none" stroke="black" d="M256,-218.5C256,-218.5 390,-218.5 390,-218.5 396,-218.5 402,-224.5 402,-230.5 402,-230.5 402,-357.5 402,-357.5 402,-363.5 396,-369.5 390,-369.5 390,-369.5 256,-369.5 256,-369.5 250,-369.5 244,-363.5 244,-357.5 244,-357.5 244,-230.5 244,-230.5 244,-224.5 250,-218.5 256,-218.5"/>
<text text-anchor="middle" x="323" y="-354.3" font-family="Times,serif" font-size="14.00">Diagnosis</text>
<polyline fill="none" stroke="black" points="244,-346.5 402,-346.5 "/>
<text text-anchor="start" x="252" y="-331.3" font-family="Times,serif" font-size="14.00">id :int(11)</text>
<text text-anchor="start" x="252" y="-316.3" font-family="Times,serif" font-size="14.00">behavior_id :int(11)</text>
<text text-anchor="start" x="252" y="-301.3" font-family="Times,serif" font-size="14.00">reaction_id :int(11)</text>
<text text-anchor="start" x="252" y="-286.3" font-family="Times,serif" font-size="14.00">week_id :int(11)</text>
<text text-anchor="start" x="252" y="-271.3" font-family="Times,serif" font-size="14.00">comment :text</text>
<text text-anchor="start" x="252" y="-256.3" font-family="Times,serif" font-size="14.00">created_at :datetime</text>
<text text-anchor="start" x="252" y="-241.3" font-family="Times,serif" font-size="14.00">updated_at :datetime</text>
<text text-anchor="start" x="252" y="-226.3" font-family="Times,serif" font-size="14.00">other_name :varchar(255)</text>
</g>
<!-- Behavior&#45;&gt;Diagnosis -->
<g id="edge13" class="edge"><title>Behavior&#45;&gt;Diagnosis</title>
<path fill="none" stroke="#26c1aa" d="M190.564,-841.382C197.684,-810.593 205.992,-772.432 212,-738 237.577,-591.427 205.49,-546.309 255,-406 258.243,-396.809 262.323,-387.565 266.866,-378.546"/>
<ellipse fill="none" stroke="#26c1aa" cx="189.592" cy="-845.556" rx="4.00001" ry="4.00001"/>
<polygon fill="#26c1aa" stroke="#26c1aa" points="266.906,-378.47 275.535,-371.703 269.228,-374.041 271.55,-369.613 271.55,-369.613 271.55,-369.613 269.228,-374.041 267.564,-367.524 266.906,-378.47 266.906,-378.47"/>
</g>
<!-- Scenario -->
<g id="node29" class="node"><title>Scenario</title>
<path fill="none" stroke="black" d="M83.5,-519C83.5,-519 190.5,-519 190.5,-519 196.5,-519 202.5,-525 202.5,-531 202.5,-531 202.5,-613 202.5,-613 202.5,-619 196.5,-625 190.5,-625 190.5,-625 83.5,-625 83.5,-625 77.5,-625 71.5,-619 71.5,-613 71.5,-613 71.5,-531 71.5,-531 71.5,-525 77.5,-519 83.5,-519"/>
<text text-anchor="middle" x="137" y="-609.8" font-family="Times,serif" font-size="14.00">Scenario</text>
<polyline fill="none" stroke="black" points="71.5,-602 202.5,-602 "/>
<text text-anchor="start" x="79.5" y="-586.8" font-family="Times,serif" font-size="14.00">id :int(11)</text>
<text text-anchor="start" x="79.5" y="-571.8" font-family="Times,serif" font-size="14.00">name :varchar(255)</text>
<text text-anchor="start" x="79.5" y="-556.8" font-family="Times,serif" font-size="14.00">behavior_id :int(11)</text>
<text text-anchor="start" x="79.5" y="-541.8" font-family="Times,serif" font-size="14.00">created_at :datetime</text>
<text text-anchor="start" x="79.5" y="-526.8" font-family="Times,serif" font-size="14.00">updated_at :datetime</text>
</g>
<!-- Behavior&#45;&gt;Scenario -->
<g id="edge11" class="edge"><title>Behavior&#45;&gt;Scenario</title>
<path fill="none" stroke="#a5aa5d" d="M168.855,-841.315C161.904,-782.765 151.391,-694.218 144.366,-635.043"/>
<ellipse fill="none" stroke="#a5aa5d" cx="169.349" cy="-845.476" rx="4.00001" ry="4.00001"/>
<polygon fill="#a5aa5d" stroke="#a5aa5d" points="144.362,-635.01 147.652,-624.549 143.772,-630.045 143.183,-625.079 143.183,-625.079 143.183,-625.079 143.772,-630.045 138.714,-625.61 144.362,-635.01 144.362,-635.01"/>
</g>
<!-- Reaction -->
<g id="node30" class="node"><title>Reaction</title>
<path fill="none" stroke="black" d="M309,-481.5C309,-481.5 443,-481.5 443,-481.5 449,-481.5 455,-487.5 455,-493.5 455,-493.5 455,-650.5 455,-650.5 455,-656.5 449,-662.5 443,-662.5 443,-662.5 309,-662.5 309,-662.5 303,-662.5 297,-656.5 297,-650.5 297,-650.5 297,-493.5 297,-493.5 297,-487.5 303,-481.5 309,-481.5"/>
<text text-anchor="middle" x="376" y="-647.3" font-family="Times,serif" font-size="14.00">Reaction</text>
<polyline fill="none" stroke="black" points="297,-639.5 455,-639.5 "/>
<text text-anchor="start" x="305" y="-624.3" font-family="Times,serif" font-size="14.00">id :int(11)</text>
<text text-anchor="start" x="305" y="-609.3" font-family="Times,serif" font-size="14.00">behavior_id :int(11)</text>
<text text-anchor="start" x="305" y="-594.3" font-family="Times,serif" font-size="14.00">narrative_id :int(11)</text>
<text text-anchor="start" x="305" y="-579.3" font-family="Times,serif" font-size="14.00">user_id :int(11)</text>
<text text-anchor="start" x="305" y="-564.3" font-family="Times,serif" font-size="14.00">improvements :text</text>
<text text-anchor="start" x="305" y="-549.3" font-family="Times,serif" font-size="14.00">created_at :datetime</text>
<text text-anchor="start" x="305" y="-534.3" font-family="Times,serif" font-size="14.00">updated_at :datetime</text>
<text text-anchor="start" x="305" y="-519.3" font-family="Times,serif" font-size="14.00">experience_id :int(11)</text>
<text text-anchor="start" x="305" y="-504.3" font-family="Times,serif" font-size="14.00">instructed :tinyint(1)</text>
<text text-anchor="start" x="305" y="-489.3" font-family="Times,serif" font-size="14.00">other_name :varchar(255)</text>
</g>
<!-- Behavior&#45;&gt;Reaction -->
<g id="edge12" class="edge"><title>Behavior&#45;&gt;Reaction</title>
<path fill="none" stroke="#6543af" d="M211.898,-842.537C240.833,-795.011 282.146,-727.155 316.08,-671.419"/>
<ellipse fill="none" stroke="#6543af" cx="209.771" cy="-846.032" rx="4.00002" ry="4.00002"/>
<polygon fill="#6543af" stroke="#6543af" points="316.259,-671.124 325.303,-664.923 318.859,-666.853 321.46,-662.583 321.46,-662.583 321.46,-662.583 318.859,-666.853 317.616,-660.242 316.259,-671.124 316.259,-671.124"/>
</g>
<!-- CandidateFeedback -->
<g id="node8" class="node"><title>CandidateFeedback</title>
<path fill="none" stroke="black" d="M1377,-241C1377,-241 1499,-241 1499,-241 1505,-241 1511,-247 1511,-253 1511,-253 1511,-335 1511,-335 1511,-341 1505,-347 1499,-347 1499,-347 1377,-347 1377,-347 1371,-347 1365,-341 1365,-335 1365,-335 1365,-253 1365,-253 1365,-247 1371,-241 1377,-241"/>
<text text-anchor="middle" x="1438" y="-331.8" font-family="Times,serif" font-size="14.00">CandidateFeedback</text>
<polyline fill="none" stroke="black" points="1365,-324 1511,-324 "/>
<text text-anchor="start" x="1373" y="-308.8" font-family="Times,serif" font-size="14.00">id :int(11)</text>
<text text-anchor="start" x="1373" y="-293.8" font-family="Times,serif" font-size="14.00">name :varchar(255)</text>
<text text-anchor="start" x="1373" y="-278.8" font-family="Times,serif" font-size="14.00">created_at :datetime</text>
<text text-anchor="start" x="1373" y="-263.8" font-family="Times,serif" font-size="14.00">updated_at :datetime</text>
<text text-anchor="start" x="1373" y="-248.8" font-family="Times,serif" font-size="14.00">definition :varchar(255)</text>
</g>
<!-- Candidate -->
<g id="node25" class="node"><title>Candidate</title>
<path fill="none" stroke="black" d="M568,-0.5C568,-0.5 738,-0.5 738,-0.5 744,-0.5 750,-6.5 750,-12.5 750,-12.5 750,-169.5 750,-169.5 750,-175.5 744,-181.5 738,-181.5 738,-181.5 568,-181.5 568,-181.5 562,-181.5 556,-175.5 556,-169.5 556,-169.5 556,-12.5 556,-12.5 556,-6.5 562,-0.5 568,-0.5"/>
<text text-anchor="middle" x="653" y="-166.3" font-family="Times,serif" font-size="14.00">Candidate</text>
<polyline fill="none" stroke="black" points="556,-158.5 750,-158.5 "/>
<text text-anchor="start" x="564" y="-143.3" font-family="Times,serif" font-size="14.00">id :int(11)</text>
<text text-anchor="start" x="564" y="-128.3" font-family="Times,serif" font-size="14.00">definition :text</text>
<text text-anchor="start" x="564" y="-113.3" font-family="Times,serif" font-size="14.00">candidate_list_id :int(11)</text>
<text text-anchor="start" x="564" y="-98.3" font-family="Times,serif" font-size="14.00">candidate_feedback_id :int(11)</text>
<text text-anchor="start" x="564" y="-83.3" font-family="Times,serif" font-size="14.00">created_at :datetime</text>
<text text-anchor="start" x="564" y="-68.3" font-family="Times,serif" font-size="14.00">updated_at :datetime</text>
<text text-anchor="start" x="564" y="-53.3" font-family="Times,serif" font-size="14.00">concept_id :int(11)</text>
<text text-anchor="start" x="564" y="-38.3" font-family="Times,serif" font-size="14.00">term :varchar(255)</text>
<text text-anchor="start" x="564" y="-23.3" font-family="Times,serif" font-size="14.00">user_id :int(11)</text>
<text text-anchor="start" x="564" y="-8.3" font-family="Times,serif" font-size="14.00">filtered_consistent :varchar(255)</text>
</g>
<!-- CandidateFeedback&#45;&gt;Candidate -->
<g id="edge14" class="edge"><title>CandidateFeedback&#45;&gt;Candidate</title>
<path fill="none" stroke="#6cb4e7" d="M1383.57,-235.787C1374.9,-228.963 1365.6,-222.747 1356,-218 1161.02,-121.616 903.173,-98.1602 760.162,-92.9436"/>
<ellipse fill="none" stroke="#6cb4e7" cx="1386.67" cy="-238.32" rx="4.00002" ry="4.00002"/>
<polygon fill="#6cb4e7" stroke="#6cb4e7" points="760.06,-92.9402 750.22,-88.1014 755.063,-92.7695 750.066,-92.5988 750.066,-92.5988 750.066,-92.5988 755.063,-92.7695 749.913,-97.0962 760.06,-92.9402 760.06,-92.9402"/>
</g>
<!-- Installment -->
<g id="node9" class="node"><title>Installment</title>
<path fill="none" stroke="black" d="M1575.5,-218.5C1575.5,-218.5 1690.5,-218.5 1690.5,-218.5 1696.5,-218.5 1702.5,-224.5 1702.5,-230.5 1702.5,-230.5 1702.5,-357.5 1702.5,-357.5 1702.5,-363.5 1696.5,-369.5 1690.5,-369.5 1690.5,-369.5 1575.5,-369.5 1575.5,-369.5 1569.5,-369.5 1563.5,-363.5 1563.5,-357.5 1563.5,-357.5 1563.5,-230.5 1563.5,-230.5 1563.5,-224.5 1569.5,-218.5 1575.5,-218.5"/>
<text text-anchor="middle" x="1633" y="-354.3" font-family="Times,serif" font-size="14.00">Installment</text>
<polyline fill="none" stroke="black" points="1563.5,-346.5 1702.5,-346.5 "/>
<text text-anchor="start" x="1571.5" y="-331.3" font-family="Times,serif" font-size="14.00">id :int(11)</text>
<text text-anchor="start" x="1571.5" y="-316.3" font-family="Times,serif" font-size="14.00">inst_date :datetime</text>
<text text-anchor="start" x="1571.5" y="-301.3" font-family="Times,serif" font-size="14.00">assessment_id :int(11)</text>
<text text-anchor="start" x="1571.5" y="-286.3" font-family="Times,serif" font-size="14.00">user_id :int(11)</text>
<text text-anchor="start" x="1571.5" y="-271.3" font-family="Times,serif" font-size="14.00">comments :text</text>
<text text-anchor="start" x="1571.5" y="-256.3" font-family="Times,serif" font-size="14.00">group_id :int(11)</text>
<text text-anchor="start" x="1571.5" y="-241.3" font-family="Times,serif" font-size="14.00">created_at :datetime</text>
<text text-anchor="start" x="1571.5" y="-226.3" font-family="Times,serif" font-size="14.00">updated_at :datetime</text>
</g>
<!-- Value -->
<g id="node28" class="node"><title>Value</title>
<path fill="none" stroke="black" d="M1575.5,-23C1575.5,-23 1690.5,-23 1690.5,-23 1696.5,-23 1702.5,-29 1702.5,-35 1702.5,-35 1702.5,-147 1702.5,-147 1702.5,-153 1696.5,-159 1690.5,-159 1690.5,-159 1575.5,-159 1575.5,-159 1569.5,-159 1563.5,-153 1563.5,-147 1563.5,-147 1563.5,-35 1563.5,-35 1563.5,-29 1569.5,-23 1575.5,-23"/>
<text text-anchor="middle" x="1633" y="-143.8" font-family="Times,serif" font-size="14.00">Value</text>
<polyline fill="none" stroke="black" points="1563.5,-136 1702.5,-136 "/>
<text text-anchor="start" x="1571.5" y="-120.8" font-family="Times,serif" font-size="14.00">id :int(11)</text>
<text text-anchor="start" x="1571.5" y="-105.8" font-family="Times,serif" font-size="14.00">value :int(11)</text>
<text text-anchor="start" x="1571.5" y="-90.8" font-family="Times,serif" font-size="14.00">user_id :int(11)</text>
<text text-anchor="start" x="1571.5" y="-75.8" font-family="Times,serif" font-size="14.00">installment_id :int(11)</text>
<text text-anchor="start" x="1571.5" y="-60.8" font-family="Times,serif" font-size="14.00">created_at :datetime</text>
<text text-anchor="start" x="1571.5" y="-45.8" font-family="Times,serif" font-size="14.00">updated_at :datetime</text>
<text text-anchor="start" x="1571.5" y="-30.8" font-family="Times,serif" font-size="14.00">factor_id :int(11)</text>
</g>
<!-- Installment&#45;&gt;Value -->
<g id="edge15" class="edge"><title>Installment&#45;&gt;Value</title>
<path fill="none" stroke="#34ea09" d="M1633,-210.166C1633,-196.629 1633,-182.65 1633,-169.254"/>
<ellipse fill="none" stroke="#34ea09" cx="1633" cy="-214.441" rx="4" ry="4"/>
<polygon fill="#34ea09" stroke="#34ea09" points="1633,-169.141 1637.5,-159.141 1633,-164.141 1633,-159.141 1633,-159.141 1633,-159.141 1633,-164.141 1628.5,-159.141 1633,-169.141 1633,-169.141"/>
</g>
<!-- ConsentForm -->
<g id="node10" class="node"><title>ConsentForm</title>
<path fill="none" stroke="black" d="M1746,-1894C1746,-1894 1910,-1894 1910,-1894 1916,-1894 1922,-1900 1922,-1906 1922,-1906 1922,-2063 1922,-2063 1922,-2069 1916,-2075 1910,-2075 1910,-2075 1746,-2075 1746,-2075 1740,-2075 1734,-2069 1734,-2063 1734,-2063 1734,-1906 1734,-1906 1734,-1900 1740,-1894 1746,-1894"/>
<text text-anchor="middle" x="1828" y="-2059.8" font-family="Times,serif" font-size="14.00">ConsentForm</text>
<polyline fill="none" stroke="black" points="1734,-2052 1922,-2052 "/>
<text text-anchor="start" x="1742" y="-2036.8" font-family="Times,serif" font-size="14.00">id :int(11)</text>
<text text-anchor="start" x="1742" y="-2021.8" font-family="Times,serif" font-size="14.00">name :varchar(255)</text>
<text text-anchor="start" x="1742" y="-2006.8" font-family="Times,serif" font-size="14.00">user_id :int(11)</text>
<text text-anchor="start" x="1742" y="-1991.8" font-family="Times,serif" font-size="14.00">created_at :datetime</text>
<text text-anchor="start" x="1742" y="-1976.8" font-family="Times,serif" font-size="14.00">updated_at :datetime</text>
<text text-anchor="start" x="1742" y="-1961.8" font-family="Times,serif" font-size="14.00">pdf_file_name :varchar(255)</text>
<text text-anchor="start" x="1742" y="-1946.8" font-family="Times,serif" font-size="14.00">pdf_content_type :varchar(255)</text>
<text text-anchor="start" x="1742" y="-1931.8" font-family="Times,serif" font-size="14.00">pdf_file_size :int(11)</text>
<text text-anchor="start" x="1742" y="-1916.8" font-family="Times,serif" font-size="14.00">pdf_updated_at :datetime</text>
<text text-anchor="start" x="1742" y="-1901.8" font-family="Times,serif" font-size="14.00">form_text :text</text>
</g>
<!-- ConsentForm&#45;&gt;Project -->
<g id="edge16" class="edge"><title>ConsentForm&#45;&gt;Project</title>
<path fill="none" stroke="#9c2b71" d="M1866.65,-1886.18C1900.91,-1782.8 1935.19,-1618.65 1862,-1503 1737.61,-1306.45 1530.73,-1463.43 1389,-1279 1330.62,-1203.04 1387.08,-1155.34 1350,-1067 1341.79,-1047.44 1330.94,-1027.89 1319.18,-1009.48"/>
<ellipse fill="none" stroke="#9c2b71" cx="1865.36" cy="-1890.04" rx="4.00001" ry="4.00001"/>
<polygon fill="#9c2b71" stroke="#9c2b71" points="1319.18,-1009.47 1317.49,-998.639 1316.45,-1005.28 1313.72,-1001.1 1313.72,-1001.1 1313.72,-1001.1 1316.45,-1005.28 1309.95,-1003.55 1319.18,-1009.47 1319.18,-1009.47"/>
</g>
<!-- ConsentLog -->
<g id="node27" class="node"><title>ConsentLog</title>
<path fill="none" stroke="black" d="M1711.5,-1526C1711.5,-1526 1840.5,-1526 1840.5,-1526 1846.5,-1526 1852.5,-1532 1852.5,-1538 1852.5,-1538 1852.5,-1650 1852.5,-1650 1852.5,-1656 1846.5,-1662 1840.5,-1662 1840.5,-1662 1711.5,-1662 1711.5,-1662 1705.5,-1662 1699.5,-1656 1699.5,-1650 1699.5,-1650 1699.5,-1538 1699.5,-1538 1699.5,-1532 1705.5,-1526 1711.5,-1526"/>
<text text-anchor="middle" x="1776" y="-1646.8" font-family="Times,serif" font-size="14.00">ConsentLog</text>
<polyline fill="none" stroke="black" points="1699.5,-1639 1852.5,-1639 "/>
<text text-anchor="start" x="1707.5" y="-1623.8" font-family="Times,serif" font-size="14.00">id :int(11)</text>
<text text-anchor="start" x="1707.5" y="-1608.8" font-family="Times,serif" font-size="14.00">accepted :tinyint(1)</text>
<text text-anchor="start" x="1707.5" y="-1593.8" font-family="Times,serif" font-size="14.00">consent_form_id :int(11)</text>
<text text-anchor="start" x="1707.5" y="-1578.8" font-family="Times,serif" font-size="14.00">user_id :int(11)</text>
<text text-anchor="start" x="1707.5" y="-1563.8" font-family="Times,serif" font-size="14.00">created_at :datetime</text>
<text text-anchor="start" x="1707.5" y="-1548.8" font-family="Times,serif" font-size="14.00">updated_at :datetime</text>
<text text-anchor="start" x="1707.5" y="-1533.8" font-family="Times,serif" font-size="14.00">presented :tinyint(1)</text>
</g>
<!-- ConsentForm&#45;&gt;ConsentLog -->
<g id="edge17" class="edge"><title>ConsentForm&#45;&gt;ConsentLog</title>
<path fill="none" stroke="#200918" d="M1814.94,-1885.91C1806.08,-1819.71 1794.53,-1733.42 1786.31,-1672.05"/>
<ellipse fill="none" stroke="#200918" cx="1815.47" cy="-1889.92" rx="4.00001" ry="4.00001"/>
<polygon fill="#200918" stroke="#200918" points="1786.3,-1671.95 1789.43,-1661.44 1785.64,-1666.99 1784.97,-1662.04 1784.97,-1662.04 1784.97,-1662.04 1785.64,-1666.99 1780.51,-1662.64 1786.3,-1671.95 1786.3,-1671.95"/>
</g>
<!-- User&#45;&gt;Installment -->
<g id="edge25" class="edge"><title>User&#45;&gt;Installment</title>
<path fill="none" stroke="#403b03" d="M894.254,-1963.11C1135.39,-1913.12 1671,-1760.61 1671,-1392 1671,-1392 1671,-1392 1671,-901.5 1671,-681.133 1676.6,-625.1 1653,-406 1652.08,-397.442 1650.88,-388.551 1649.54,-379.692"/>
<ellipse fill="none" stroke="#403b03" cx="890.071" cy="-1963.97" rx="4.00001" ry="4.00001"/>
<polygon fill="#403b03" stroke="#403b03" points="1649.52,-379.601 1652.4,-369.02 1648.74,-374.663 1647.96,-369.724 1647.96,-369.724 1647.96,-369.724 1648.74,-374.663 1643.51,-370.429 1649.52,-379.601 1649.52,-379.601"/>
</g>
<!-- Concept -->
<g id="node12" class="node"><title>Concept</title>
<path fill="none" stroke="black" d="M599.5,-248.5C599.5,-248.5 706.5,-248.5 706.5,-248.5 712.5,-248.5 718.5,-254.5 718.5,-260.5 718.5,-260.5 718.5,-327.5 718.5,-327.5 718.5,-333.5 712.5,-339.5 706.5,-339.5 706.5,-339.5 599.5,-339.5 599.5,-339.5 593.5,-339.5 587.5,-333.5 587.5,-327.5 587.5,-327.5 587.5,-260.5 587.5,-260.5 587.5,-254.5 593.5,-248.5 599.5,-248.5"/>
<text text-anchor="middle" x="653" y="-324.3" font-family="Times,serif" font-size="14.00">Concept</text>
<polyline fill="none" stroke="black" points="587.5,-316.5 718.5,-316.5 "/>
<text text-anchor="start" x="595.5" y="-301.3" font-family="Times,serif" font-size="14.00">id :int(11)</text>
<text text-anchor="start" x="595.5" y="-286.3" font-family="Times,serif" font-size="14.00">name :varchar(255)</text>
<text text-anchor="start" x="595.5" y="-271.3" font-family="Times,serif" font-size="14.00">created_at :datetime</text>
<text text-anchor="start" x="595.5" y="-256.3" font-family="Times,serif" font-size="14.00">updated_at :datetime</text>
</g>
<!-- User&#45;&gt;Concept -->
<g id="edge22" class="edge"><title>User&#45;&gt;Concept</title>
<path fill="none" stroke="#5beb3c" d="M753.058,-1713.17C741.938,-1608.89 729.749,-1512.16 722,-1503 685.215,-1459.51 637.843,-1508.66 599,-1467 540.682,-1404.45 567.164,-1364.03 558,-1279 531.379,-1031.99 591.137,-462.757 605,-406 609.666,-386.898 617.342,-366.916 625.202,-349.255"/>
<ellipse fill="none" stroke="#5beb3c" cx="753.503" cy="-1717.36" rx="4" ry="4"/>
<polygon fill="#5beb3c" stroke="#5beb3c" points="625.411,-348.797 633.662,-341.573 627.49,-344.25 629.569,-339.702 629.569,-339.702 629.569,-339.702 627.49,-344.25 625.476,-337.831 625.411,-348.797 625.411,-348.797"/>
</g>
<!-- User&#45;&gt;Roster -->
<g id="edge26" class="edge"><title>User&#45;&gt;Roster</title>
<path fill="none" stroke="#06b024" d="M889.656,-1777.98C934,-1685.59 980.543,-1573.55 1006,-1467 1027.92,-1375.26 1034.4,-1102.77 1036.27,-973.309"/>
<ellipse fill="none" stroke="#06b024" cx="887.795" cy="-1781.84" rx="4.00002" ry="4.00002"/>
<polygon fill="#06b024" stroke="#06b024" points="1036.27,-973.111 1040.91,-963.175 1036.34,-968.112 1036.41,-963.112 1036.41,-963.112 1036.41,-963.112 1036.34,-968.112 1031.91,-963.05 1036.27,-973.111 1036.27,-973.111"/>
</g>
<!-- Group -->
<g id="node15" class="node"><title>Group</title>
<path fill="none" stroke="black" d="M1176.5,-1533.5C1176.5,-1533.5 1309.5,-1533.5 1309.5,-1533.5 1315.5,-1533.5 1321.5,-1539.5 1321.5,-1545.5 1321.5,-1545.5 1321.5,-1642.5 1321.5,-1642.5 1321.5,-1648.5 1315.5,-1654.5 1309.5,-1654.5 1309.5,-1654.5 1176.5,-1654.5 1176.5,-1654.5 1170.5,-1654.5 1164.5,-1648.5 1164.5,-1642.5 1164.5,-1642.5 1164.5,-1545.5 1164.5,-1545.5 1164.5,-1539.5 1170.5,-1533.5 1176.5,-1533.5"/>
<text text-anchor="middle" x="1243" y="-1639.3" font-family="Times,serif" font-size="14.00">Group</text>
<polyline fill="none" stroke="black" points="1164.5,-1631.5 1321.5,-1631.5 "/>
<text text-anchor="start" x="1172.5" y="-1616.3" font-family="Times,serif" font-size="14.00">id :int(11)</text>
<text text-anchor="start" x="1172.5" y="-1601.3" font-family="Times,serif" font-size="14.00">name :varchar(255)</text>
<text text-anchor="start" x="1172.5" y="-1586.3" font-family="Times,serif" font-size="14.00">project_id :int(11)</text>
<text text-anchor="start" x="1172.5" y="-1571.3" font-family="Times,serif" font-size="14.00">created_at :datetime</text>
<text text-anchor="start" x="1172.5" y="-1556.3" font-family="Times,serif" font-size="14.00">updated_at :datetime</text>
<text text-anchor="start" x="1172.5" y="-1541.3" font-family="Times,serif" font-size="14.00">anon_name :varchar(255)</text>
</g>
<!-- User&#45;&gt;Group -->
<g id="edge19" class="edge"><title>User&#45;&gt;Group</title>
<path fill="none" stroke="#2ea6bf" d="M893.835,-1887.35C977.855,-1817 1089.68,-1723.38 1163.88,-1661.24"/>
<polygon fill="#2ea6bf" stroke="#2ea6bf" points="893.701,-1887.46 883.145,-1890.43 889.867,-1890.67 886.034,-1893.88 886.034,-1893.88 886.034,-1893.88 889.867,-1890.67 888.922,-1897.33 893.701,-1887.46 893.701,-1887.46"/>
<polygon fill="#2ea6bf" stroke="#2ea6bf" points="1164.17,-1661 1174.73,-1658.03 1168.01,-1657.79 1171.84,-1654.58 1171.84,-1654.58 1171.84,-1654.58 1168.01,-1657.79 1168.95,-1651.13 1164.17,-1661 1164.17,-1661"/>
</g>
<!-- User&#45;&gt;Project -->
<g id="edge23" class="edge"><title>User&#45;&gt;Project</title>
<path fill="none" stroke="#7ef291" d="M891.886,-1831.36C922.497,-1785.8 953.821,-1734.69 978,-1685 1006.74,-1625.94 1126.88,-1248.23 1192.22,-1040.31"/>
<polygon fill="#7ef291" stroke="#7ef291" points="891.78,-1831.52 882.452,-1837.29 888.98,-1835.66 886.18,-1839.81 886.18,-1839.81 886.18,-1839.81 888.98,-1835.66 889.909,-1842.33 891.78,-1831.52 891.78,-1831.52"/>
<polygon fill="#7ef291" stroke="#7ef291" points="1192.29,-1040.08 1199.58,-1031.89 1193.79,-1035.31 1195.29,-1030.54 1195.29,-1030.54 1195.29,-1030.54 1193.79,-1035.31 1191,-1029.19 1192.29,-1040.08 1192.29,-1040.08"/>
</g>
<!-- Email -->
<g id="node18" class="node"><title>Email</title>
<path fill="none" stroke="black" d="M523.5,-1503.5C523.5,-1503.5 700.5,-1503.5 700.5,-1503.5 706.5,-1503.5 712.5,-1509.5 712.5,-1515.5 712.5,-1515.5 712.5,-1672.5 712.5,-1672.5 712.5,-1678.5 706.5,-1684.5 700.5,-1684.5 700.5,-1684.5 523.5,-1684.5 523.5,-1684.5 517.5,-1684.5 511.5,-1678.5 511.5,-1672.5 511.5,-1672.5 511.5,-1515.5 511.5,-1515.5 511.5,-1509.5 517.5,-1503.5 523.5,-1503.5"/>
<text text-anchor="middle" x="612" y="-1669.3" font-family="Times,serif" font-size="14.00">Email</text>
<polyline fill="none" stroke="black" points="511.5,-1661.5 712.5,-1661.5 "/>
<text text-anchor="start" x="519.5" y="-1646.3" font-family="Times,serif" font-size="14.00">id :int(11)</text>
<text text-anchor="start" x="519.5" y="-1631.3" font-family="Times,serif" font-size="14.00">user_id :int(11)</text>
<text text-anchor="start" x="519.5" y="-1616.3" font-family="Times,serif" font-size="14.00">email :varchar(255)</text>
<text text-anchor="start" x="519.5" y="-1601.3" font-family="Times,serif" font-size="14.00">primary :tinyint(1)</text>
<text text-anchor="start" x="519.5" y="-1586.3" font-family="Times,serif" font-size="14.00">confirmation_token :varchar(255)</text>
<text text-anchor="start" x="519.5" y="-1571.3" font-family="Times,serif" font-size="14.00">unconfirmed_email :varchar(255)</text>
<text text-anchor="start" x="519.5" y="-1556.3" font-family="Times,serif" font-size="14.00">confirmed_at :datetime</text>
<text text-anchor="start" x="519.5" y="-1541.3" font-family="Times,serif" font-size="14.00">confirmation_sent_at :datetime</text>
<text text-anchor="start" x="519.5" y="-1526.3" font-family="Times,serif" font-size="14.00">created_at :datetime</text>
<text text-anchor="start" x="519.5" y="-1511.3" font-family="Times,serif" font-size="14.00">updated_at :datetime</text>
</g>
<!-- User&#45;&gt;Email -->
<g id="edge18" class="edge"><title>User&#45;&gt;Email</title>
<path fill="none" stroke="#861d34" d="M668.613,-1726.7C663.776,-1715.45 659.074,-1704.51 654.581,-1694.06"/>
<ellipse fill="none" stroke="#861d34" cx="670.357" cy="-1730.76" rx="4.00001" ry="4.00001"/>
<polygon fill="#861d34" stroke="#861d34" points="654.466,-1693.79 654.651,-1682.83 652.491,-1689.2 650.517,-1684.6 650.517,-1684.6 650.517,-1684.6 652.491,-1689.2 646.382,-1686.38 654.466,-1693.79 654.466,-1693.79"/>
</g>
<!-- Narrative -->
<g id="node24" class="node"><title>Narrative</title>
<path fill="none" stroke="black" d="M212,-1338C212,-1338 328,-1338 328,-1338 334,-1338 340,-1344 340,-1350 340,-1350 340,-1432 340,-1432 340,-1438 334,-1444 328,-1444 328,-1444 212,-1444 212,-1444 206,-1444 200,-1438 200,-1432 200,-1432 200,-1350 200,-1350 200,-1344 206,-1338 212,-1338"/>
<text text-anchor="middle" x="270" y="-1428.8" font-family="Times,serif" font-size="14.00">Narrative</text>
<polyline fill="none" stroke="black" points="200,-1421 340,-1421 "/>
<text text-anchor="start" x="208" y="-1405.8" font-family="Times,serif" font-size="14.00">id :int(11)</text>
<text text-anchor="start" x="208" y="-1390.8" font-family="Times,serif" font-size="14.00">member :varchar(255)</text>
<text text-anchor="start" x="208" y="-1375.8" font-family="Times,serif" font-size="14.00">scenario_id :int(11)</text>
<text text-anchor="start" x="208" y="-1360.8" font-family="Times,serif" font-size="14.00">created_at :datetime</text>
<text text-anchor="start" x="208" y="-1345.8" font-family="Times,serif" font-size="14.00">updated_at :datetime</text>
</g>
<!-- User&#45;&gt;Narrative -->
<g id="edge29" class="edge"><title>User&#45;&gt;Narrative</title>
<path fill="none" stroke="#201640" d="M663.181,-1917.81C577.909,-1864.46 464.331,-1782.27 390,-1685 336.222,-1614.62 302.602,-1516.76 285.069,-1453.9"/>
<polygon fill="#201640" stroke="#201640" points="663.37,-1917.92 669.489,-1927.02 667.617,-1920.56 671.864,-1923.2 671.864,-1923.2 671.864,-1923.2 667.617,-1920.56 674.239,-1919.38 663.37,-1917.92 663.37,-1917.92"/>
<polygon fill="#201640" stroke="#201640" points="285.032,-1453.76 286.733,-1442.93 283.712,-1448.94 282.393,-1444.12 282.393,-1444.12 282.393,-1444.12 283.712,-1448.94 278.052,-1445.31 285.032,-1453.76 285.032,-1453.76"/>
</g>
<!-- User&#45;&gt;Candidate -->
<g id="edge24" class="edge"><title>User&#45;&gt;Candidate</title>
<path fill="none" stroke="#38cb16" d="M664.099,-1950.13C457.133,-1882.15 43,-1706.79 43,-1392 43,-1392 43,-1392 43,-571 43,-497.182 31.2772,-473.121 62,-406 109.259,-302.753 138.786,-278.301 235,-218 330.852,-157.926 457.015,-125.072 545.566,-108.118"/>
<ellipse fill="none" stroke="#38cb16" cx="668.176" cy="-1951.45" rx="4.00001" ry="4.00001"/>
<polygon fill="#38cb16" stroke="#38cb16" points="545.805,-108.074 556.463,-110.651 550.719,-107.151 555.633,-106.228 555.633,-106.228 555.633,-106.228 550.719,-107.151 554.802,-101.806 545.805,-108.074 545.805,-108.074"/>
</g>
<!-- User&#45;&gt;ConsentLog -->
<g id="edge20" class="edge"><title>User&#45;&gt;ConsentLog</title>
<path fill="none" stroke="#cfda27" d="M894.123,-1963.27C1073.54,-1927.99 1426.09,-1843.41 1685,-1685 1692.79,-1680.23 1700.43,-1674.67 1707.77,-1668.7"/>
<ellipse fill="none" stroke="#cfda27" cx="890.163" cy="-1964.04" rx="4.00001" ry="4.00001"/>
<polygon fill="#cfda27" stroke="#cfda27" points="1707.96,-1668.53 1718.5,-1665.51 1711.78,-1665.3 1715.59,-1662.07 1715.59,-1662.07 1715.59,-1662.07 1711.78,-1665.3 1712.69,-1658.64 1707.96,-1668.53 1707.96,-1668.53"/>
</g>
<!-- User&#45;&gt;Reaction -->
<g id="edge27" class="edge"><title>User&#45;&gt;Reaction</title>
<path fill="none" stroke="#0fd253" d="M665.217,-1901.77C598.159,-1847.67 517.254,-1771 469,-1685 403.732,-1568.67 404,-1525.39 404,-1392 404,-1392 404,-1392 404,-1172 404,-996.237 391.822,-791.781 383.529,-672.921"/>
<ellipse fill="none" stroke="#0fd253" cx="668.541" cy="-1904.44" rx="4.00002" ry="4.00002"/>
<polygon fill="#0fd253" stroke="#0fd253" points="383.515,-672.725 387.303,-662.434 383.164,-667.737 382.814,-662.749 382.814,-662.749 382.814,-662.749 383.164,-667.737 378.325,-663.065 383.515,-672.725 383.515,-672.725"/>
</g>
<!-- Assessment -->
<g id="node31" class="node"><title>Assessment</title>
<path fill="none" stroke="black" d="M1441,-504C1441,-504 1593,-504 1593,-504 1599,-504 1605,-510 1605,-516 1605,-516 1605,-628 1605,-628 1605,-634 1599,-640 1593,-640 1593,-640 1441,-640 1441,-640 1435,-640 1429,-634 1429,-628 1429,-628 1429,-516 1429,-516 1429,-510 1435,-504 1441,-504"/>
<text text-anchor="middle" x="1517" y="-624.8" font-family="Times,serif" font-size="14.00">Assessment</text>
<polyline fill="none" stroke="black" points="1429,-617 1605,-617 "/>
<text text-anchor="start" x="1437" y="-601.8" font-family="Times,serif" font-size="14.00">id :int(11)</text>
<text text-anchor="start" x="1437" y="-586.8" font-family="Times,serif" font-size="14.00">end_date :datetime</text>
<text text-anchor="start" x="1437" y="-571.8" font-family="Times,serif" font-size="14.00">start_date :datetime</text>
<text text-anchor="start" x="1437" y="-556.8" font-family="Times,serif" font-size="14.00">project_id :int(11)</text>
<text text-anchor="start" x="1437" y="-541.8" font-family="Times,serif" font-size="14.00">created_at :datetime</text>
<text text-anchor="start" x="1437" y="-526.8" font-family="Times,serif" font-size="14.00">updated_at :datetime</text>
<text text-anchor="start" x="1437" y="-511.8" font-family="Times,serif" font-size="14.00">instructor_updated :tinyint(1)</text>
</g>
<!-- User&#45;&gt;Assessment -->
<g id="edge30" class="edge"><title>User&#45;&gt;Assessment</title>
<path fill="none" stroke="#975d65" d="M895.8,-1940.19C1015.22,-1891.65 1201.13,-1803.91 1331,-1685 1416.64,-1606.58 1418.46,-1568.42 1475,-1467 1519.83,-1386.58 1542.02,-1368.88 1562,-1279 1610.7,-1059.9 1588.19,-997.026 1563,-774 1558.32,-732.53 1548.36,-687.146 1538.9,-650.013"/>
<polygon fill="#975d65" stroke="#975d65" points="895.519,-1940.3 884.562,-1939.87 890.883,-1942.17 886.246,-1944.05 886.246,-1944.05 886.246,-1944.05 890.883,-1942.17 887.931,-1948.22 895.519,-1940.3 895.519,-1940.3"/>
<polygon fill="#975d65" stroke="#975d65" points="1538.88,-649.946 1540.74,-639.138 1537.63,-645.105 1536.38,-640.264 1536.38,-640.264 1536.38,-640.264 1537.63,-645.105 1532.03,-641.39 1538.88,-649.946 1538.88,-649.946"/>
</g>
<!-- CandidateList -->
<g id="node32" class="node"><title>CandidateList</title>
<path fill="none" stroke="black" d="M619.5,-1315.5C619.5,-1315.5 760.5,-1315.5 760.5,-1315.5 766.5,-1315.5 772.5,-1321.5 772.5,-1327.5 772.5,-1327.5 772.5,-1454.5 772.5,-1454.5 772.5,-1460.5 766.5,-1466.5 760.5,-1466.5 760.5,-1466.5 619.5,-1466.5 619.5,-1466.5 613.5,-1466.5 607.5,-1460.5 607.5,-1454.5 607.5,-1454.5 607.5,-1327.5 607.5,-1327.5 607.5,-1321.5 613.5,-1315.5 619.5,-1315.5"/>
<text text-anchor="middle" x="690" y="-1451.3" font-family="Times,serif" font-size="14.00">CandidateList</text>
<polyline fill="none" stroke="black" points="607.5,-1443.5 772.5,-1443.5 "/>
<text text-anchor="start" x="615.5" y="-1428.3" font-family="Times,serif" font-size="14.00">id :int(11)</text>
<text text-anchor="start" x="615.5" y="-1413.3" font-family="Times,serif" font-size="14.00">user_id :int(11)</text>
<text text-anchor="start" x="615.5" y="-1398.3" font-family="Times,serif" font-size="14.00">group_id :int(11)</text>
<text text-anchor="start" x="615.5" y="-1383.3" font-family="Times,serif" font-size="14.00">is_group :tinyint(1)</text>
<text text-anchor="start" x="615.5" y="-1368.3" font-family="Times,serif" font-size="14.00">created_at :datetime</text>
<text text-anchor="start" x="615.5" y="-1353.3" font-family="Times,serif" font-size="14.00">updated_at :datetime</text>
<text text-anchor="start" x="615.5" y="-1338.3" font-family="Times,serif" font-size="14.00">bingo_game_id :int(11)</text>
<text text-anchor="start" x="615.5" y="-1323.3" font-family="Times,serif" font-size="14.00">group_requested :tinyint(1)</text>
</g>
<!-- User&#45;&gt;CandidateList -->
<g id="edge21" class="edge"><title>User&#45;&gt;CandidateList</title>
<path fill="none" stroke="#268f3b" d="M788.099,-1713.22C784.339,-1643.6 774.853,-1569.57 755,-1503 752.276,-1493.87 748.654,-1484.69 744.509,-1475.75"/>
<ellipse fill="none" stroke="#268f3b" cx="788.305" cy="-1717.25" rx="4" ry="4"/>
<polygon fill="#268f3b" stroke="#268f3b" points="744.394,-1475.51 744.062,-1464.55 742.205,-1471.02 740.016,-1466.52 740.016,-1466.52 740.016,-1466.52 742.205,-1471.02 735.97,-1468.49 744.394,-1475.51 744.394,-1475.51"/>
</g>
<!-- User&#45;&gt;Experience -->
<g id="edge28" class="edge"><title>User&#45;&gt;Experience</title>
<path fill="none" stroke="#d09ab2" d="M664.025,-1895.86C603.67,-1842.38 535.631,-1768.36 503,-1685 409.793,-1446.9 555.255,-1152.36 647.138,-1001.96"/>
<polygon fill="#d09ab2" stroke="#d09ab2" points="664.204,-1896.02 668.757,-1906 667.964,-1899.32 671.724,-1902.61 671.724,-1902.61 671.724,-1902.61 667.964,-1899.32 674.69,-1899.23 664.204,-1896.02 664.204,-1896.02"/>
<polygon fill="#d09ab2" stroke="#d09ab2" points="647.322,-1001.67 656.396,-995.509 649.942,-997.409 652.563,-993.151 652.563,-993.151 652.563,-993.151 649.942,-997.409 648.731,-990.792 647.322,-1001.67 647.322,-1001.67"/>
</g>
<!-- Concept&#45;&gt;Candidate -->
<g id="edge31" class="edge"><title>Concept&#45;&gt;Candidate</title>
<path fill="none" stroke="#2acbd4" d="M653,-240.348C653,-225.492 653,-208.818 653,-192.155"/>
<ellipse fill="none" stroke="#2acbd4" cx="653" cy="-244.392" rx="4" ry="4"/>
<polygon fill="#2acbd4" stroke="#2acbd4" points="653,-191.799 657.5,-181.799 653,-186.799 653,-181.799 653,-181.799 653,-181.799 653,-186.799 648.5,-181.799 653,-191.799 653,-191.799"/>
</g>
<!-- School -->
<g id="node14" class="node"><title>School</title>
<path fill="none" stroke="black" d="M851.5,-1330.5C851.5,-1330.5 984.5,-1330.5 984.5,-1330.5 990.5,-1330.5 996.5,-1336.5 996.5,-1342.5 996.5,-1342.5 996.5,-1439.5 996.5,-1439.5 996.5,-1445.5 990.5,-1451.5 984.5,-1451.5 984.5,-1451.5 851.5,-1451.5 851.5,-1451.5 845.5,-1451.5 839.5,-1445.5 839.5,-1439.5 839.5,-1439.5 839.5,-1342.5 839.5,-1342.5 839.5,-1336.5 845.5,-1330.5 851.5,-1330.5"/>
<text text-anchor="middle" x="918" y="-1436.3" font-family="Times,serif" font-size="14.00">School</text>
<polyline fill="none" stroke="black" points="839.5,-1428.5 996.5,-1428.5 "/>
<text text-anchor="start" x="847.5" y="-1413.3" font-family="Times,serif" font-size="14.00">id :int(11)</text>
<text text-anchor="start" x="847.5" y="-1398.3" font-family="Times,serif" font-size="14.00">description :varchar(255)</text>
<text text-anchor="start" x="847.5" y="-1383.3" font-family="Times,serif" font-size="14.00">name :varchar(255)</text>
<text text-anchor="start" x="847.5" y="-1368.3" font-family="Times,serif" font-size="14.00">created_at :datetime</text>
<text text-anchor="start" x="847.5" y="-1353.3" font-family="Times,serif" font-size="14.00">updated_at :datetime</text>
<text text-anchor="start" x="847.5" y="-1338.3" font-family="Times,serif" font-size="14.00">anon_name :varchar(255)</text>
</g>
<!-- School&#45;&gt;Course -->
<g id="edge32" class="edge"><title>School&#45;&gt;Course</title>
<path fill="none" stroke="#a9285d" d="M890.905,-1322.73C886.446,-1311.66 881.718,-1299.92 876.95,-1288.08"/>
<ellipse fill="none" stroke="#a9285d" cx="892.502" cy="-1326.69" rx="4.00001" ry="4.00001"/>
<polygon fill="#a9285d" stroke="#a9285d" points="876.859,-1287.86 877.297,-1276.9 874.991,-1283.22 873.123,-1278.58 873.123,-1278.58 873.123,-1278.58 874.991,-1283.22 868.949,-1280.26 876.859,-1287.86 876.859,-1287.86"/>
</g>
<!-- School&#45;&gt;Roster -->
<g id="edge36" class="edge"><title>School&#45;&gt;Roster</title>
<path fill="none" stroke="#bd04fd" d="M943.966,-1320.45C948.624,-1306.8 953.199,-1292.53 957,-1279 972.9,-1222.41 1004.87,-1065.54 1023.21,-973.439"/>
<polygon fill="#bd04fd" stroke="#bd04fd" points="943.843,-1320.8 936.317,-1328.77 942.206,-1325.52 940.569,-1330.25 940.569,-1330.25 940.569,-1330.25 942.206,-1325.52 944.821,-1331.72 943.843,-1320.8 943.843,-1320.8"/>
<polygon fill="#bd04fd" stroke="#bd04fd" points="1023.27,-973.171 1029.63,-964.242 1024.24,-968.268 1025.22,-963.364 1025.22,-963.364 1025.22,-963.364 1024.24,-968.268 1020.81,-962.486 1023.27,-973.171 1023.27,-973.171"/>
</g>
<!-- School&#45;&gt;Project -->
<g id="edge34" class="edge"><title>School&#45;&gt;Project</title>
<path fill="none" stroke="#104bc9" d="M965.84,-1321.68C975.345,-1307.68 985.124,-1292.95 994,-1279 1052.71,-1186.71 1059.52,-1158.8 1119,-1067 1128.9,-1051.72 1139.6,-1035.86 1150.35,-1020.29"/>
<polygon fill="#104bc9" stroke="#104bc9" points="965.601,-1322.03 956.25,-1327.76 962.784,-1326.16 959.968,-1330.29 959.968,-1330.29 959.968,-1330.29 962.784,-1326.16 963.686,-1332.83 965.601,-1322.03 965.601,-1322.03"/>
<polygon fill="#104bc9" stroke="#104bc9" points="1150.63,-1019.89 1160.03,-1014.24 1153.48,-1015.78 1156.33,-1011.68 1156.33,-1011.68 1156.33,-1011.68 1153.48,-1015.78 1152.63,-1009.11 1150.63,-1019.89 1150.63,-1019.89"/>
</g>
<!-- School&#45;&gt;Experience -->
<g id="edge35" class="edge"><title>School&#45;&gt;Experience</title>
<path fill="none" stroke="#3880e7" d="M830.575,-1340.9C787.712,-1315.98 743.972,-1288.91 738,-1279 688.036,-1196.09 687.532,-1083.37 695.974,-1003.12"/>
<polygon fill="#3880e7" stroke="#3880e7" points="830.754,-1341 837.154,-1349.91 835.082,-1343.51 839.409,-1346.02 839.409,-1346.02 839.409,-1346.02 835.082,-1343.51 841.663,-1342.12 830.754,-1341 830.754,-1341"/>
<polygon fill="#3880e7" stroke="#3880e7" points="695.993,-1002.94 701.575,-993.504 696.548,-997.974 697.103,-993.004 697.103,-993.004 697.103,-993.004 696.548,-997.974 692.63,-992.505 695.993,-1002.94 695.993,-1002.94"/>
</g>
<!-- School&#45;&gt;BingoGame -->
<g id="edge33" class="edge"><title>School&#45;&gt;BingoGame</title>
<path fill="none" stroke="#4e5bfc" d="M923.08,-1320.12C923.88,-1306.49 924.581,-1292.3 925,-1279 932.075,-1054.41 928.936,-996.954 901,-774 899.921,-765.389 898.737,-756.583 897.477,-747.699"/>
<polygon fill="#4e5bfc" stroke="#4e5bfc" points="923.061,-1320.43 917.959,-1330.14 922.756,-1325.42 922.451,-1330.41 922.451,-1330.41 922.451,-1330.41 922.756,-1325.42 926.943,-1330.68 923.061,-1320.43 923.061,-1320.43"/>
<polygon fill="#4e5bfc" stroke="#4e5bfc" points="897.454,-747.539 900.479,-736.999 896.74,-742.59 896.025,-737.642 896.025,-737.642 896.025,-737.642 896.74,-742.59 891.571,-738.285 897.454,-747.539 897.454,-747.539"/>
</g>
<!-- Group&#45;&gt;Installment -->
<g id="edge39" class="edge"><title>Group&#45;&gt;Installment</title>
<path fill="none" stroke="#b8441c" d="M1329.27,-1561.93C1377.17,-1541.13 1434.97,-1509.68 1475,-1467 1537.98,-1399.84 1537.92,-1367.86 1562,-1279 1649.57,-955.84 1644.8,-552.456 1637.65,-379.795"/>
<ellipse fill="none" stroke="#b8441c" cx="1325.35" cy="-1563.61" rx="4.00002" ry="4.00002"/>
<polygon fill="#b8441c" stroke="#b8441c" points="1637.65,-379.744 1641.72,-369.561 1637.44,-374.749 1637.22,-369.754 1637.22,-369.754 1637.22,-369.754 1637.44,-374.749 1632.73,-369.946 1637.65,-379.744 1637.65,-379.744"/>
</g>
<!-- GroupRevision -->
<g id="node26" class="node"><title>GroupRevision</title>
<path fill="none" stroke="black" d="M1211.5,-1330.5C1211.5,-1330.5 1332.5,-1330.5 1332.5,-1330.5 1338.5,-1330.5 1344.5,-1336.5 1344.5,-1342.5 1344.5,-1342.5 1344.5,-1439.5 1344.5,-1439.5 1344.5,-1445.5 1338.5,-1451.5 1332.5,-1451.5 1332.5,-1451.5 1211.5,-1451.5 1211.5,-1451.5 1205.5,-1451.5 1199.5,-1445.5 1199.5,-1439.5 1199.5,-1439.5 1199.5,-1342.5 1199.5,-1342.5 1199.5,-1336.5 1205.5,-1330.5 1211.5,-1330.5"/>
<text text-anchor="middle" x="1272" y="-1436.3" font-family="Times,serif" font-size="14.00">GroupRevision</text>
<polyline fill="none" stroke="black" points="1199.5,-1428.5 1344.5,-1428.5 "/>
<text text-anchor="start" x="1207.5" y="-1413.3" font-family="Times,serif" font-size="14.00">id :int(11)</text>
<text text-anchor="start" x="1207.5" y="-1398.3" font-family="Times,serif" font-size="14.00">group_id :int(11)</text>
<text text-anchor="start" x="1207.5" y="-1383.3" font-family="Times,serif" font-size="14.00">name :varchar(255)</text>
<text text-anchor="start" x="1207.5" y="-1368.3" font-family="Times,serif" font-size="14.00">members :varchar(255)</text>
<text text-anchor="start" x="1207.5" y="-1353.3" font-family="Times,serif" font-size="14.00">created_at :datetime</text>
<text text-anchor="start" x="1207.5" y="-1338.3" font-family="Times,serif" font-size="14.00">updated_at :datetime</text>
</g>
<!-- Group&#45;&gt;GroupRevision -->
<g id="edge37" class="edge"><title>Group&#45;&gt;GroupRevision</title>
<path fill="none" stroke="#7654af" d="M1252.77,-1525.25C1255.74,-1504.72 1258.99,-1482.14 1261.97,-1461.49"/>
<ellipse fill="none" stroke="#7654af" cx="1252.19" cy="-1529.28" rx="4.00001" ry="4.00001"/>
<polygon fill="#7654af" stroke="#7654af" points="1261.98,-1461.43 1267.86,-1452.17 1262.7,-1456.48 1263.41,-1451.53 1263.41,-1451.53 1263.41,-1451.53 1262.7,-1456.48 1258.96,-1450.89 1261.98,-1461.43 1261.98,-1461.43"/>
</g>
<!-- Group&#45;&gt;CandidateList -->
<g id="edge38" class="edge"><title>Group&#45;&gt;CandidateList</title>
<path fill="none" stroke="#c8bd87" d="M1156.59,-1571.76C1072.04,-1549.78 940.392,-1512.33 831,-1467 814.683,-1460.24 797.755,-1452.2 781.531,-1443.93"/>
<ellipse fill="none" stroke="#c8bd87" cx="1160.49" cy="-1572.77" rx="4.00001" ry="4.00001"/>
<polygon fill="#c8bd87" stroke="#c8bd87" points="781.486,-1443.91 774.662,-1435.33 777.043,-1441.62 772.599,-1439.33 772.599,-1439.33 772.599,-1439.33 777.043,-1441.62 770.536,-1443.33 781.486,-1443.91 781.486,-1443.91"/>
</g>
<!-- Project&#45;&gt;Group -->
<g id="edge40" class="edge"><title>Project&#45;&gt;Group</title>
<path fill="none" stroke="#27db56" d="M1194.77,-1038.85C1192.87,-1048.32 1191.25,-1057.77 1190,-1067 1189,-1074.41 1188.28,-1453.45 1191,-1467 1194.83,-1486.07 1201.56,-1505.87 1208.93,-1523.98"/>
<ellipse fill="none" stroke="#27db56" cx="1195.6" cy="-1034.82" rx="4.00001" ry="4.00001"/>
<polygon fill="#27db56" stroke="#27db56" points="1208.97,-1524.06 1208.69,-1535.03 1210.9,-1528.68 1212.84,-1533.29 1212.84,-1533.29 1212.84,-1533.29 1210.9,-1528.68 1216.99,-1531.55 1208.97,-1524.06 1208.97,-1524.06"/>
</g>
<!-- Project&#45;&gt;Factor -->
<g id="edge43" class="edge"><title>Project&#45;&gt;Factor</title>
<path fill="none" stroke="#9ee8f0" d="M1242.93,-764.147C1250.29,-636.536 1260.92,-452.305 1266.41,-357.135"/>
<polygon fill="#9ee8f0" stroke="#9ee8f0" points="1242.91,-764.374 1237.84,-774.098 1242.63,-769.366 1242.34,-774.358 1242.34,-774.358 1242.34,-774.358 1242.63,-769.366 1246.83,-774.617 1242.91,-764.374 1242.91,-764.374"/>
<polygon fill="#9ee8f0" stroke="#9ee8f0" points="1266.42,-357.076 1271.49,-347.352 1266.71,-352.085 1266.99,-347.093 1266.99,-347.093 1266.99,-347.093 1266.71,-352.085 1262.5,-346.834 1266.42,-357.076 1266.42,-357.076"/>
</g>
<!-- Project&#45;&gt;Assessment -->
<g id="edge42" class="edge"><title>Project&#45;&gt;Assessment</title>
<path fill="none" stroke="#42f065" d="M1319.03,-803.618C1361.83,-753.755 1413.06,-694.081 1452.68,-647.928"/>
<ellipse fill="none" stroke="#42f065" cx="1316.16" cy="-806.959" rx="4.00002" ry="4.00002"/>
<polygon fill="#42f065" stroke="#42f065" points="1452.92,-647.646 1462.85,-642.99 1456.18,-643.853 1459.43,-640.059 1459.43,-640.059 1459.43,-640.059 1456.18,-643.853 1456.02,-637.128 1452.92,-647.646 1452.92,-647.646"/>
</g>
<!-- Project&#45;&gt;BingoGame -->
<g id="edge41" class="edge"><title>Project&#45;&gt;BingoGame</title>
<path fill="none" stroke="#c65a36" d="M1150.51,-811.27C1137.84,-798.517 1124.74,-785.756 1112,-774 1064.6,-730.267 1009.24,-684.442 963.152,-647.61"/>
<ellipse fill="none" stroke="#c65a36" cx="1153.49" cy="-814.281" rx="4.00002" ry="4.00002"/>
<polygon fill="#c65a36" stroke="#c65a36" points="963.069,-647.543 958.054,-637.791 959.159,-644.426 955.249,-641.31 955.249,-641.31 955.249,-641.31 959.159,-644.426 952.444,-644.829 963.069,-647.543 963.069,-647.543"/>
</g>
<!-- Gender -->
<g id="node17" class="node"><title>Gender</title>
<path fill="none" stroke="black" d="M737.5,-2292C737.5,-2292 844.5,-2292 844.5,-2292 850.5,-2292 856.5,-2298 856.5,-2304 856.5,-2304 856.5,-2371 856.5,-2371 856.5,-2377 850.5,-2383 844.5,-2383 844.5,-2383 737.5,-2383 737.5,-2383 731.5,-2383 725.5,-2377 725.5,-2371 725.5,-2371 725.5,-2304 725.5,-2304 725.5,-2298 731.5,-2292 737.5,-2292"/>
<text text-anchor="middle" x="791" y="-2367.8" font-family="Times,serif" font-size="14.00">Gender</text>
<polyline fill="none" stroke="black" points="725.5,-2360 856.5,-2360 "/>
<text text-anchor="start" x="733.5" y="-2344.8" font-family="Times,serif" font-size="14.00">id :int(11)</text>
<text text-anchor="start" x="733.5" y="-2329.8" font-family="Times,serif" font-size="14.00">name :varchar(255)</text>
<text text-anchor="start" x="733.5" y="-2314.8" font-family="Times,serif" font-size="14.00">created_at :datetime</text>
<text text-anchor="start" x="733.5" y="-2299.8" font-family="Times,serif" font-size="14.00">updated_at :datetime</text>
</g>
<!-- Gender&#45;&gt;User -->
<g id="edge44" class="edge"><title>Gender&#45;&gt;User</title>
<path fill="none" stroke="#c23156" d="M789.192,-2283.6C788.918,-2275.59 788.621,-2266.9 788.306,-2257.7"/>
<ellipse fill="none" stroke="#c23156" cx="789.331" cy="-2287.69" rx="4" ry="4"/>
<polygon fill="#c23156" stroke="#c23156" points="788.299,-2257.51 792.455,-2247.36 788.129,-2252.51 787.958,-2247.51 787.958,-2247.51 787.958,-2247.51 788.129,-2252.51 783.46,-2247.67 788.299,-2257.51 788.299,-2257.51"/>
</g>
<!-- AgeRange -->
<g id="node19" class="node"><title>AgeRange</title>
<path fill="none" stroke="black" d="M886.5,-2292C886.5,-2292 993.5,-2292 993.5,-2292 999.5,-2292 1005.5,-2298 1005.5,-2304 1005.5,-2304 1005.5,-2371 1005.5,-2371 1005.5,-2377 999.5,-2383 993.5,-2383 993.5,-2383 886.5,-2383 886.5,-2383 880.5,-2383 874.5,-2377 874.5,-2371 874.5,-2371 874.5,-2304 874.5,-2304 874.5,-2298 880.5,-2292 886.5,-2292"/>
<text text-anchor="middle" x="940" y="-2367.8" font-family="Times,serif" font-size="14.00">AgeRange</text>
<polyline fill="none" stroke="black" points="874.5,-2360 1005.5,-2360 "/>
<text text-anchor="start" x="882.5" y="-2344.8" font-family="Times,serif" font-size="14.00">id :int(11)</text>
<text text-anchor="start" x="882.5" y="-2329.8" font-family="Times,serif" font-size="14.00">name :varchar(255)</text>
<text text-anchor="start" x="882.5" y="-2314.8" font-family="Times,serif" font-size="14.00">created_at :datetime</text>
<text text-anchor="start" x="882.5" y="-2299.8" font-family="Times,serif" font-size="14.00">updated_at :datetime</text>
</g>
<!-- AgeRange&#45;&gt;User -->
<g id="edge45" class="edge"><title>AgeRange&#45;&gt;User</title>
<path fill="none" stroke="#854e0f" d="M915.886,-2283.93C908.434,-2267.68 899.686,-2248.61 890.278,-2228.1"/>
<ellipse fill="none" stroke="#854e0f" cx="917.778" cy="-2288.05" rx="4.00002" ry="4.00002"/>
<polygon fill="#854e0f" stroke="#854e0f" points="890.229,-2227.99 890.15,-2217.03 888.144,-2223.45 886.06,-2218.9 886.06,-2218.9 886.06,-2218.9 888.144,-2223.45 881.97,-2220.78 890.229,-2227.99 890.229,-2227.99"/>
</g>
<!-- Diagnosis&#45;&gt;User -->
<g id="edge46" class="edge"><title>Diagnosis&#45;&gt;User</title>
<path fill="none" stroke="#19250a" d="M408.849,-343.685C430.661,-360.471 451.452,-381.365 464,-406 564.026,-602.377 483,-681.116 483,-901.5 483,-1392 483,-1392 483,-1392 483,-1522.53 451.306,-1565.15 503,-1685 538.335,-1766.92 606.069,-1840.72 665.591,-1894.45"/>
<ellipse fill="none" stroke="#19250a" cx="405.569" cy="-341.231" rx="4.00002" ry="4.00002"/>
<ellipse fill="#19250a" stroke="#19250a" cx="668.713" cy="-1897.24" rx="4.00002" ry="4.00002"/>
</g>
<!-- CipCode -->
<g id="node22" class="node"><title>CipCode</title>
<path fill="none" stroke="black" d="M244,-2284.5C244,-2284.5 374,-2284.5 374,-2284.5 380,-2284.5 386,-2290.5 386,-2296.5 386,-2296.5 386,-2378.5 386,-2378.5 386,-2384.5 380,-2390.5 374,-2390.5 374,-2390.5 244,-2390.5 244,-2390.5 238,-2390.5 232,-2384.5 232,-2378.5 232,-2378.5 232,-2296.5 232,-2296.5 232,-2290.5 238,-2284.5 244,-2284.5"/>
<text text-anchor="middle" x="309" y="-2375.3" font-family="Times,serif" font-size="14.00">CipCode</text>
<polyline fill="none" stroke="black" points="232,-2367.5 386,-2367.5 "/>
<text text-anchor="start" x="240" y="-2352.3" font-family="Times,serif" font-size="14.00">id :int(11)</text>
<text text-anchor="start" x="240" y="-2337.3" font-family="Times,serif" font-size="14.00">gov_code :int(11)</text>
<text text-anchor="start" x="240" y="-2322.3" font-family="Times,serif" font-size="14.00">description :varchar(255)</text>
<text text-anchor="start" x="240" y="-2307.3" font-family="Times,serif" font-size="14.00">created_at :datetime</text>
<text text-anchor="start" x="240" y="-2292.3" font-family="Times,serif" font-size="14.00">updated_at :datetime</text>
</g>
<!-- CipCode&#45;&gt;User -->
<g id="edge47" class="edge"><title>CipCode&#45;&gt;User</title>
<path fill="none" stroke="#bb1318" d="M385.308,-2279.51C460.701,-2223.21 576.994,-2136.36 663.666,-2071.63"/>
<ellipse fill="none" stroke="#bb1318" cx="382.061" cy="-2281.94" rx="4.00002" ry="4.00002"/>
<polygon fill="#bb1318" stroke="#bb1318" points="663.682,-2071.62 674.387,-2069.24 667.688,-2068.63 671.694,-2065.64 671.694,-2065.64 671.694,-2065.64 667.688,-2068.63 669.002,-2062.03 663.682,-2071.62 663.682,-2071.62"/>
</g>
<!-- Week -->
<g id="node23" class="node"><title>Week</title>
<path fill="none" stroke="black" d="M216.5,-1112.5C216.5,-1112.5 323.5,-1112.5 323.5,-1112.5 329.5,-1112.5 335.5,-1118.5 335.5,-1124.5 335.5,-1124.5 335.5,-1221.5 335.5,-1221.5 335.5,-1227.5 329.5,-1233.5 323.5,-1233.5 323.5,-1233.5 216.5,-1233.5 216.5,-1233.5 210.5,-1233.5 204.5,-1227.5 204.5,-1221.5 204.5,-1221.5 204.5,-1124.5 204.5,-1124.5 204.5,-1118.5 210.5,-1112.5 216.5,-1112.5"/>
<text text-anchor="middle" x="270" y="-1218.3" font-family="Times,serif" font-size="14.00">Week</text>
<polyline fill="none" stroke="black" points="204.5,-1210.5 335.5,-1210.5 "/>
<text text-anchor="start" x="212.5" y="-1195.3" font-family="Times,serif" font-size="14.00">id :int(11)</text>
<text text-anchor="start" x="212.5" y="-1180.3" font-family="Times,serif" font-size="14.00">narrative_id :int(11)</text>
<text text-anchor="start" x="212.5" y="-1165.3" font-family="Times,serif" font-size="14.00">week_num :int(11)</text>
<text text-anchor="start" x="212.5" y="-1150.3" font-family="Times,serif" font-size="14.00">text :text</text>
<text text-anchor="start" x="212.5" y="-1135.3" font-family="Times,serif" font-size="14.00">created_at :datetime</text>
<text text-anchor="start" x="212.5" y="-1120.3" font-family="Times,serif" font-size="14.00">updated_at :datetime</text>
</g>
<!-- Week&#45;&gt;Behavior -->
<g id="edge48" class="edge"><title>Week&#45;&gt;Behavior</title>
<path fill="none" stroke="#901777" d="M246.487,-1104.84C231.268,-1061.37 211.627,-1005.26 196.945,-963.327"/>
<ellipse fill="none" stroke="#901777" cx="247.817" cy="-1108.64" rx="4.00001" ry="4.00001"/>
<ellipse fill="#901777" stroke="#901777" cx="195.585" cy="-959.443" rx="4.00001" ry="4.00001"/>
</g>
<!-- Week&#45;&gt;Diagnosis -->
<g id="edge49" class="edge"><title>Week&#45;&gt;Diagnosis</title>
<path fill="none" stroke="#ef19d4" d="M265.244,-1104.15C257.218,-969.798 245.707,-660.824 288,-406 289.458,-397.217 291.451,-388.169 293.751,-379.207"/>
<ellipse fill="none" stroke="#ef19d4" cx="265.5" cy="-1108.37" rx="4" ry="4"/>
<polygon fill="#ef19d4" stroke="#ef19d4" points="293.756,-379.189 300.702,-370.704 295.057,-374.361 296.357,-369.534 296.357,-369.534 296.357,-369.534 295.057,-374.361 292.012,-368.363 293.756,-379.189 293.756,-379.189"/>
</g>
<!-- Narrative&#45;&gt;Behavior -->
<g id="edge51" class="edge"><title>Narrative&#45;&gt;Behavior</title>
<path fill="none" stroke="#be83e0" d="M222.304,-1331C211.788,-1315 202.003,-1297.08 196,-1279 160.617,-1172.44 163.749,-1039.59 169.615,-963.856"/>
<ellipse fill="none" stroke="#be83e0" cx="224.61" cy="-1334.41" rx="4.00002" ry="4.00002"/>
<ellipse fill="#be83e0" stroke="#be83e0" cx="169.943" cy="-959.796" rx="4" ry="4"/>
</g>
<!-- Narrative&#45;&gt;Week -->
<g id="edge50" class="edge"><title>Narrative&#45;&gt;Week</title>
<path fill="none" stroke="#827438" d="M270,-1329.69C270,-1302.96 270,-1271.34 270,-1243.6"/>
<ellipse fill="none" stroke="#827438" cx="270" cy="-1333.99" rx="4" ry="4"/>
<polygon fill="#827438" stroke="#827438" points="270,-1243.58 274.5,-1233.58 270,-1238.58 270,-1233.58 270,-1233.58 270,-1233.58 270,-1238.58 265.5,-1233.58 270,-1243.58 270,-1243.58"/>
</g>
<!-- Narrative&#45;&gt;Reaction -->
<g id="edge52" class="edge"><title>Narrative&#45;&gt;Reaction</title>
<path fill="none" stroke="#a35c4a" d="M318.457,-1331.11C329.113,-1315.11 339,-1297.16 345,-1279 381.18,-1169.47 380.936,-839.956 378.256,-672.707"/>
<ellipse fill="none" stroke="#a35c4a" cx="316.11" cy="-1334.54" rx="4.00002" ry="4.00002"/>
<polygon fill="#a35c4a" stroke="#a35c4a" points="378.255,-672.662 382.588,-662.588 378.172,-667.662 378.089,-662.663 378.089,-662.663 378.089,-662.663 378.172,-667.662 373.589,-662.738 378.255,-672.662 378.255,-672.662"/>
</g>
<!-- Scenario&#45;&gt;Narrative -->
<g id="edge53" class="edge"><title>Scenario&#45;&gt;Narrative</title>
<path fill="none" stroke="#743c9a" d="M123.296,-633.399C115.001,-673.115 105.232,-726.363 101,-774 90.8917,-887.774 87.2593,-917.607 101,-1031 114.655,-1143.68 106.941,-1179.74 162,-1279 172.199,-1297.39 186.246,-1314.9 200.837,-1330.35"/>
<ellipse fill="none" stroke="#743c9a" cx="124.215" cy="-629.05" rx="4.00001" ry="4.00001"/>
<polygon fill="#743c9a" stroke="#743c9a" points="201.068,-1330.59 204.799,-1340.9 204.548,-1334.18 208.029,-1337.77 208.029,-1337.77 208.029,-1337.77 204.548,-1334.18 211.26,-1334.64 201.068,-1330.59 201.068,-1330.59"/>
</g>
<!-- Reaction&#45;&gt;Course -->
<g id="edge54" class="edge"><title>Reaction&#45;&gt;Course</title>
<path fill="none" stroke="#1661ee" d="M462.54,-607.459C583.045,-656.272 789.061,-743.056 810,-774 866.161,-856.996 865.498,-973.467 854.332,-1058.97"/>
<ellipse fill="none" stroke="#1661ee" cx="458.794" cy="-605.944" rx="4.00002" ry="4.00002"/>
<ellipse fill="#1661ee" stroke="#1661ee" cx="853.759" cy="-1063.19" rx="4.00001" ry="4.00001"/>
</g>
<!-- Reaction&#45;&gt;Diagnosis -->
<g id="edge55" class="edge"><title>Reaction&#45;&gt;Diagnosis</title>
<path fill="none" stroke="#a70c9a" d="M357.236,-473.286C351.37,-442.737 344.949,-409.3 339.269,-379.721"/>
<ellipse fill="none" stroke="#a70c9a" cx="358.038" cy="-477.462" rx="4.00001" ry="4.00001"/>
<polygon fill="#a70c9a" stroke="#a70c9a" points="339.259,-379.668 341.792,-368.999 338.316,-374.758 337.373,-369.847 337.373,-369.847 337.373,-369.847 338.316,-374.758 332.954,-370.696 339.259,-379.668 339.259,-379.668"/>
</g>
<!-- Assessment&#45;&gt;Installment -->
<g id="edge56" class="edge"><title>Assessment&#45;&gt;Installment</title>
<path fill="none" stroke="#a89c0d" d="M1548.48,-496.111C1563.67,-459.946 1581.97,-416.411 1597.65,-379.109"/>
<ellipse fill="none" stroke="#a89c0d" cx="1546.78" cy="-500.148" rx="4.00001" ry="4.00001"/>
<polygon fill="#a89c0d" stroke="#a89c0d" points="1597.7,-378.987 1605.72,-371.511 1599.64,-374.377 1601.58,-369.768 1601.58,-369.768 1601.58,-369.768 1599.64,-374.377 1597.43,-368.024 1597.7,-378.987 1597.7,-378.987"/>
</g>
<!-- Assessment&#45;&gt;Group -->
<g id="edge58" class="edge"><title>Assessment&#45;&gt;Group</title>
<path fill="none" stroke="#e50ffa" d="M1526.91,-650.203C1546.05,-808.984 1582.49,-1166.67 1538,-1279 1496.36,-1384.13 1401.03,-1474.59 1329.94,-1531.05"/>
<polygon fill="#e50ffa" stroke="#e50ffa" points="1526.88,-649.963 1530.14,-639.494 1526.27,-645 1525.67,-640.036 1525.67,-640.036 1525.67,-640.036 1526.27,-645 1521.2,-640.579 1526.88,-649.963 1526.88,-649.963"/>
<polygon fill="#e50ffa" stroke="#e50ffa" points="1329.69,-1531.25 1319.05,-1533.89 1325.76,-1534.34 1321.83,-1537.43 1321.83,-1537.43 1321.83,-1537.43 1325.76,-1534.34 1324.61,-1540.96 1329.69,-1531.25 1329.69,-1531.25"/>
</g>
<!-- Assessment&#45;&gt;Factor -->
<g id="edge57" class="edge"><title>Assessment&#45;&gt;Factor</title>
<path fill="none" stroke="#bd6bf2" d="M1460.82,-495.845C1438.39,-467.026 1411.79,-434.289 1386,-406 1370.06,-388.517 1351.94,-370.426 1334.84,-354.051"/>
<polygon fill="#bd6bf2" stroke="#bd6bf2" points="1460.91,-495.958 1463.48,-506.619 1463.97,-499.91 1467.04,-503.863 1467.04,-503.863 1467.04,-503.863 1463.97,-499.91 1470.59,-501.106 1460.91,-495.958 1460.91,-495.958"/>
<polygon fill="#bd6bf2" stroke="#bd6bf2" points="1334.82,-354.038 1330.68,-343.885 1331.2,-350.592 1327.58,-347.145 1327.58,-347.145 1327.58,-347.145 1331.2,-350.592 1324.48,-350.405 1334.82,-354.038 1334.82,-354.038"/>
</g>
<!-- CandidateList&#45;&gt;Course -->
<g id="edge61" class="edge"><title>CandidateList&#45;&gt;Course</title>
<path fill="none" stroke="#c5617a" d="M743.103,-1308.65C747.987,-1301.17 752.99,-1293.51 758.009,-1285.82"/>
<ellipse fill="none" stroke="#c5617a" cx="740.908" cy="-1312.01" rx="4.00002" ry="4.00002"/>
<ellipse fill="#c5617a" stroke="#c5617a" cx="760.435" cy="-1282.1" rx="4.00002" ry="4.00002"/>
</g>
<!-- CandidateList&#45;&gt;Concept -->
<g id="edge60" class="edge"><title>CandidateList&#45;&gt;Concept</title>
<path fill="none" stroke="#b1cb80" d="M667.494,-1305.43C649.486,-1233.16 625.697,-1126.08 616,-1031 590.11,-777.159 627.015,-472.134 644.588,-349.737"/>
<polygon fill="#b1cb80" stroke="#b1cb80" points="667.56,-1305.7 665.63,-1316.49 668.777,-1310.55 669.994,-1315.4 669.994,-1315.4 669.994,-1315.4 668.777,-1310.55 674.359,-1314.3 667.56,-1305.7 667.56,-1305.7"/>
<polygon fill="#b1cb80" stroke="#b1cb80" points="644.636,-349.402 650.526,-340.152 645.355,-344.454 646.073,-339.506 646.073,-339.506 646.073,-339.506 645.355,-344.454 641.62,-338.859 644.636,-349.402 644.636,-349.402"/>
</g>
<!-- CandidateList&#45;&gt;Candidate -->
<g id="edge59" class="edge"><title>CandidateList&#45;&gt;Candidate</title>
<path fill="none" stroke="#ad08ad" d="M630.027,-1308.44C624.671,-1298.83 619.835,-1288.91 616,-1279 555.065,-1121.58 559,-1072.3 559,-903.5 559,-903.5 559,-903.5 559,-571 559,-413.86 533.491,-368.406 579,-218 581.754,-208.899 585.287,-199.762 589.313,-190.795"/>
<ellipse fill="none" stroke="#ad08ad" cx="632.019" cy="-1311.91" rx="4.00002" ry="4.00002"/>
<polygon fill="#ad08ad" stroke="#ad08ad" points="589.419,-190.57 597.747,-183.436 591.547,-186.045 593.675,-181.521 593.675,-181.521 593.675,-181.521 591.547,-186.045 589.603,-179.605 589.419,-190.57 589.419,-190.57"/>
</g>
<!-- Experience&#45;&gt;Reaction -->
<g id="edge62" class="edge"><title>Experience&#45;&gt;Reaction</title>
<path fill="none" stroke="#387f6c" d="M618.991,-809.863C569.965,-762.073 510.405,-704.015 462.522,-657.34"/>
<ellipse fill="none" stroke="#387f6c" cx="622.033" cy="-812.827" rx="4.00002" ry="4.00002"/>
<polygon fill="#387f6c" stroke="#387f6c" points="462.404,-657.225 458.384,-647.022 458.824,-653.735 455.243,-650.244 455.243,-650.244 455.243,-650.244 458.824,-653.735 452.102,-653.467 462.404,-657.225 462.404,-657.225"/>
</g>
<!-- BingoGame&#45;&gt;Concept -->
<g id="edge65" class="edge"><title>BingoGame&#45;&gt;Concept</title>
<path fill="none" stroke="#988881" d="M772.319,-448.888C744.906,-413.533 716.4,-376.769 694.128,-348.043"/>
<polygon fill="#988881" stroke="#988881" points="772.595,-449.244 775.166,-459.904 775.659,-453.195 778.722,-457.147 778.722,-457.147 778.722,-457.147 775.659,-453.195 782.279,-454.389 772.595,-449.244 772.595,-449.244"/>
<polygon fill="#988881" stroke="#988881" points="693.849,-347.683 691.277,-337.023 690.785,-343.732 687.721,-339.781 687.721,-339.781 687.721,-339.781 690.785,-343.732 684.165,-342.538 693.849,-347.683 693.849,-347.683"/>
</g>
<!-- BingoGame&#45;&gt;Candidate -->
<g id="edge64" class="edge"><title>BingoGame&#45;&gt;Candidate</title>
<path fill="none" stroke="#2bca44" d="M804.714,-396.483C782.435,-338.798 755.888,-274.856 728,-218 723.54,-208.907 718.655,-199.597 713.584,-190.357"/>
<polygon fill="#2bca44" stroke="#2bca44" points="804.806,-396.723 804.194,-407.671 806.6,-401.39 808.395,-406.056 808.395,-406.056 808.395,-406.056 806.6,-401.39 812.595,-404.442 804.806,-396.723 804.806,-396.723"/>
<polygon fill="#2bca44" stroke="#2bca44" points="713.535,-190.268 712.606,-179.342 711.104,-185.899 708.674,-181.529 708.674,-181.529 708.674,-181.529 711.104,-185.899 704.741,-183.716 713.535,-190.268 713.535,-190.268"/>
</g>
<!-- BingoGame&#45;&gt;CandidateList -->
<g id="edge63" class="edge"><title>BingoGame&#45;&gt;CandidateList</title>
<path fill="none" stroke="#86336a" d="M862.218,-745.755C856.049,-855.751 841.988,-985.763 810,-1031 789.344,-1060.21 759.001,-1038.04 738,-1067 688.044,-1135.9 680.171,-1235.06 682.204,-1305.3"/>
<ellipse fill="none" stroke="#86336a" cx="862.448" cy="-741.53" rx="4" ry="4"/>
<polygon fill="#86336a" stroke="#86336a" points="682.209,-1305.45 678.075,-1315.61 682.391,-1310.45 682.572,-1315.45 682.572,-1315.45 682.572,-1315.45 682.391,-1310.45 687.069,-1315.29 682.209,-1305.45 682.209,-1305.45"/>
</g>
<!-- Role -->
<g id="node35" class="node"><title>Role</title>
<path fill="none" stroke="black" d="M1036,-2284.5C1036,-2284.5 1166,-2284.5 1166,-2284.5 1172,-2284.5 1178,-2290.5 1178,-2296.5 1178,-2296.5 1178,-2378.5 1178,-2378.5 1178,-2384.5 1172,-2390.5 1166,-2390.5 1166,-2390.5 1036,-2390.5 1036,-2390.5 1030,-2390.5 1024,-2384.5 1024,-2378.5 1024,-2378.5 1024,-2296.5 1024,-2296.5 1024,-2290.5 1030,-2284.5 1036,-2284.5"/>
<text text-anchor="middle" x="1101" y="-2375.3" font-family="Times,serif" font-size="14.00">Role</text>
<polyline fill="none" stroke="black" points="1024,-2367.5 1178,-2367.5 "/>
<text text-anchor="start" x="1032" y="-2352.3" font-family="Times,serif" font-size="14.00">id :int(11)</text>
<text text-anchor="start" x="1032" y="-2337.3" font-family="Times,serif" font-size="14.00">name :varchar(255)</text>
<text text-anchor="start" x="1032" y="-2322.3" font-family="Times,serif" font-size="14.00">description :varchar(255)</text>
<text text-anchor="start" x="1032" y="-2307.3" font-family="Times,serif" font-size="14.00">created_at :datetime</text>
<text text-anchor="start" x="1032" y="-2292.3" font-family="Times,serif" font-size="14.00">updated_at :datetime</text>
</g>
<!-- Role&#45;&gt;User -->
<g id="edge66" class="edge"><title>Role&#45;&gt;User</title>
<path fill="none" stroke="#a3eef1" d="M1047.63,-2278.32C1005.69,-2232.61 945.786,-2167.31 893.182,-2109.97"/>
<ellipse fill="none" stroke="#a3eef1" cx="1050.44" cy="-2281.38" rx="4.00002" ry="4.00002"/>
<polygon fill="#a3eef1" stroke="#a3eef1" points="892.903,-2109.66 889.459,-2099.25 889.523,-2105.98 886.143,-2102.29 886.143,-2102.29 886.143,-2102.29 889.523,-2105.98 882.827,-2105.33 892.903,-2109.66 892.903,-2109.66"/>
</g>
<!-- Role&#45;&gt;Roster -->
<g id="edge67" class="edge"><title>Role&#45;&gt;Roster</title>
<path fill="none" stroke="#dcb255" d="M1098.31,-2276.16C1088.01,-2045.54 1051.15,-1220.36 1040.13,-973.654"/>
<ellipse fill="none" stroke="#dcb255" cx="1098.49" cy="-2280.23" rx="4" ry="4"/>
<polygon fill="#dcb255" stroke="#dcb255" points="1040.12,-973.375 1044.17,-963.184 1039.9,-968.38 1039.67,-963.385 1039.67,-963.385 1039.67,-963.385 1039.9,-968.38 1035.18,-963.585 1040.12,-973.375 1040.12,-973.375"/>
</g>
</g>
</svg>
